<svg class="main-svg" xmlns="http://www.w3.org/2000/svg" xmlns:xlink="http://www.w3.org/1999/xlink" width="1300" height="900" style="" viewBox="0 0 1300 900"><rect x="0" y="0" width="1300" height="900" style="fill: rgb(255, 255, 255); fill-opacity: 1;"/><defs id="defs-f95af5"><g class="clips"/><g class="gradients"/><g class="patterns"/></defs><g class="bglayer"/><g class="layer-below"><g class="imagelayer"/><g class="shapelayer"/></g><g class="cartesianlayer"/><g class="polarlayer"/><g class="smithlayer"/><g class="ternarylayer"/><g class="geolayer"/><g class="funnelarealayer"/><g class="pielayer"/><g class="iciclelayer"/><g class="treemaplayer"/><g class="sunburstlayer"/><g class="glimages"/><g class="sankey" transform="translate(80,100)matrix(1 0 0 1 0 0)" style="box-sizing: content-box; position: absolute; left: 0px; shape-rendering: geometricprecision; pointer-events: none;"><g class="sankey-links" style="fill: none;"><path class="sankey-link" d="M7.50114,15.886493010722518C188.10057000000003,15.886493010722518 188.10057000000003,58.034564643799484 368.70000000000005,58.034564643799484L368.70000000000005,68.83931398416888C188.10057000000003,68.83931398416888 188.10057000000003,26.69124235109191 7.50114,26.69124235109191Z" style="stroke: rgb(68, 68, 68); stroke-opacity: 1; fill: rgb(239, 85, 59); fill-opacity: 0.6; stroke-width: 0; opacity: 1;"/><path class="sankey-link" d="M7.50114,26.69124235109191C188.10057000000003,26.69124235109191 188.10057000000003,163.5031662269129 368.70000000000005,163.5031662269129L368.70000000000005,166.59023746701845C188.10057000000003,166.59023746701845 188.10057000000003,29.778313591197453 7.50114,29.778313591197453Z" style="stroke: rgb(68, 68, 68); stroke-opacity: 1; fill: rgb(0, 204, 150); fill-opacity: 0.6; stroke-width: 0; opacity: 1;"/><path class="sankey-link" d="M7.50114,29.77831359119745C188.10057000000003,29.77831359119745 188.10057000000003,284.5757255936677 368.70000000000005,284.5757255936677L368.70000000000005,290.7498680738788C188.10057000000003,290.7498680738788 188.10057000000003,35.952456071408534 7.50114,35.952456071408534Z" style="stroke: rgb(68, 68, 68); stroke-opacity: 1; fill: rgb(255, 161, 90); fill-opacity: 0.6; stroke-width: 0; opacity: 1;"/><path class="sankey-link" d="M7.50114,35.952456071408534C188.10057000000003,35.952456071408534 188.10057000000003,336.6379947229553 368.70000000000005,336.6379947229553L368.70000000000005,347.4427440633247C188.10057000000003,347.4427440633247 188.10057000000003,46.75720541177793 7.50114,46.75720541177793Z" style="stroke: rgb(68, 68, 68); stroke-opacity: 1; fill: rgb(171, 99, 250); fill-opacity: 0.6; stroke-width: 0; opacity: 1;"/><path class="sankey-link" d="M7.50114,46.757205411777925C188.10057000000003,46.757205411777925 188.10057000000003,429.6656992084433 368.70000000000005,429.6656992084433L368.70000000000005,431.2092348284961C188.10057000000003,431.2092348284961 188.10057000000003,48.30074103183069 7.50114,48.30074103183069Z" style="stroke: rgb(68, 68, 68); stroke-opacity: 1; fill: rgb(99, 110, 250); fill-opacity: 0.6; stroke-width: 0; opacity: 1;"/><path class="sankey-link" d="M7.50114,75.01739740638865C188.10057000000003,75.01739740638865 188.10057000000003,13.751715039577785 368.70000000000005,13.751715039577785L368.70000000000005,43.078891820580424C188.10057000000003,43.078891820580424 188.10057000000003,104.34457418739129 7.50114,104.34457418739129Z" style="stroke: rgb(68, 68, 68); stroke-opacity: 1; fill: rgb(25, 211, 243); fill-opacity: 0.6; stroke-width: 0; opacity: 1;"/><path class="sankey-link" d="M7.50114,104.34457418739129C188.10057000000003,104.34457418739129 188.10057000000003,68.83931398416888 368.70000000000005,68.83931398416888L368.70000000000005,107.42770448548814C188.10057000000003,107.42770448548814 188.10057000000003,142.93296468871054 7.50114,142.93296468871054Z" style="stroke: rgb(68, 68, 68); stroke-opacity: 1; fill: rgb(239, 85, 59); fill-opacity: 0.6; stroke-width: 0; opacity: 1;"/><path class="sankey-link" d="M7.50114,142.93296468871054C188.10057000000003,142.93296468871054 188.10057000000003,166.59023746701843 368.70000000000005,166.59023746701843L368.70000000000005,202.09155672823215C188.10057000000003,202.09155672823215 188.10057000000003,178.43428394992426 7.50114,178.43428394992426Z" style="stroke: rgb(68, 68, 68); stroke-opacity: 1; fill: rgb(0, 204, 150); fill-opacity: 0.6; stroke-width: 0; opacity: 1;"/><path class="sankey-link" d="M7.50114,178.43428394992424C188.10057000000003,178.43428394992424 188.10057000000003,290.74986807387876 368.70000000000005,290.74986807387876L368.70000000000005,310.8158311345648C188.10057000000003,310.8158311345648 188.10057000000003,198.50024701061028 7.50114,198.50024701061028Z" style="stroke: rgb(68, 68, 68); stroke-opacity: 1; fill: rgb(255, 161, 90); fill-opacity: 0.6; stroke-width: 0; opacity: 1;"/><path class="sankey-link" d="M7.50114,198.50024701061028C188.10057000000003,198.50024701061028 188.10057000000003,347.44274406332465 368.70000000000005,347.44274406332465L368.70000000000005,393.74881266490775C188.10057000000003,393.74881266490775 188.10057000000003,244.80631561219337 7.50114,244.80631561219337Z" style="stroke: rgb(68, 68, 68); stroke-opacity: 1; fill: rgb(171, 99, 250); fill-opacity: 0.6; stroke-width: 0; opacity: 1;"/><path class="sankey-link" d="M7.50114,244.80631561219337C188.10057000000003,244.80631561219337 188.10057000000003,431.20923482849605 368.70000000000005,431.20923482849605L368.70000000000005,452.8187335092348C188.10057000000003,452.8187335092348 188.10057000000003,266.41581429293217 7.50114,266.41581429293217Z" style="stroke: rgb(68, 68, 68); stroke-opacity: 1; fill: rgb(99, 110, 250); fill-opacity: 0.6; stroke-width: 0; opacity: 1;"/><path class="sankey-link" d="M7.50114,266.41581429293217C188.10057000000003,266.41581429293217 188.10057000000003,592.7699208443271 368.70000000000005,592.7699208443271L368.70000000000005,619.0100263852241C188.10057000000003,619.0100263852241 188.10057000000003,292.6559198338292 7.50114,292.6559198338292Z" style="stroke: rgb(68, 68, 68); stroke-opacity: 1; fill: rgb(255, 151, 255); fill-opacity: 0.6; stroke-width: 0; opacity: 1;"/><path class="sankey-link" d="M7.50114,292.6559198338293C188.10057000000003,292.6559198338293 188.10057000000003,658.0139841688655 368.70000000000005,658.0139841688655L368.70000000000005,671.9058047493405C188.10057000000003,671.9058047493405 188.10057000000003,306.5477404143042 7.50114,306.5477404143042Z" style="stroke: rgb(68, 68, 68); stroke-opacity: 1; fill: rgb(255, 102, 146); fill-opacity: 0.6; stroke-width: 0; opacity: 1;"/><path class="sankey-link" d="M7.50114,306.5477404143042C188.10057000000003,306.5477404143042 188.10057000000003,701.0620052770448 368.70000000000005,701.0620052770448L368.70000000000005,705.6926121372032C188.10057000000003,705.6926121372032 188.10057000000003,311.1783472744625 7.50114,311.1783472744625Z" style="stroke: rgb(68, 68, 68); stroke-opacity: 1; fill: rgb(182, 232, 128); fill-opacity: 0.6; stroke-width: 0; opacity: 1;"/><path class="sankey-link" d="M7.50114,339.3814966597428C188.10057000000003,339.3814966597428 188.10057000000003,43.078891820580424 368.70000000000005,43.078891820580424L368.70000000000005,46.16596306068597C188.10057000000003,46.16596306068597 188.10057000000003,342.4685678998483 7.50114,342.4685678998483Z" style="stroke: rgb(68, 68, 68); stroke-opacity: 1; fill: rgb(25, 211, 243); fill-opacity: 0.6; stroke-width: 0; opacity: 1;"/><path class="sankey-link" d="M7.50114,342.4685678998484C188.10057000000003,342.4685678998484 188.10057000000003,107.42770448548814 368.70000000000005,107.42770448548814L368.70000000000005,130.58073878627968C188.10057000000003,130.58073878627968 188.10057000000003,365.6216022006399 7.50114,365.6216022006399Z" style="stroke: rgb(68, 68, 68); stroke-opacity: 1; fill: rgb(239, 85, 59); fill-opacity: 0.6; stroke-width: 0; opacity: 1;"/><path class="sankey-link" d="M7.50114,365.6216022006399C188.10057000000003,365.6216022006399 188.10057000000003,202.09155672823215 368.70000000000005,202.09155672823215L368.70000000000005,208.2656992084432C188.10057000000003,208.2656992084432 188.10057000000003,371.79574468085104 7.50114,371.79574468085104Z" style="stroke: rgb(68, 68, 68); stroke-opacity: 1; fill: rgb(0, 204, 150); fill-opacity: 0.6; stroke-width: 0; opacity: 1;"/><path class="sankey-link" d="M7.50114,371.795744680851C188.10057000000003,371.795744680851 188.10057000000003,310.81583113456475 368.70000000000005,310.81583113456475L368.70000000000005,324.7076517150397C188.10057000000003,324.7076517150397 188.10057000000003,385.6875652613259 7.50114,385.6875652613259Z" style="stroke: rgb(68, 68, 68); stroke-opacity: 1; fill: rgb(255, 161, 90); fill-opacity: 0.6; stroke-width: 0; opacity: 1;"/><path class="sankey-link" d="M7.50114,385.6875652613259C188.10057000000003,385.6875652613259 188.10057000000003,393.74881266490775 368.70000000000005,393.74881266490775L368.70000000000005,395.29234828496055C188.10057000000003,395.29234828496055 188.10057000000003,387.2311008813787 7.50114,387.2311008813787Z" style="stroke: rgb(68, 68, 68); stroke-opacity: 1; fill: rgb(171, 99, 250); fill-opacity: 0.6; stroke-width: 0; opacity: 1;"/><path class="sankey-link" d="M7.50114,387.23110088137867C188.10057000000003,387.23110088137867 188.10057000000003,452.81873350923485 368.70000000000005,452.81873350923485L368.70000000000005,455.90580474934035C188.10057000000003,455.90580474934035 188.10057000000003,390.31817212148417 7.50114,390.31817212148417Z" style="stroke: rgb(68, 68, 68); stroke-opacity: 1; fill: rgb(99, 110, 250); fill-opacity: 0.6; stroke-width: 0; opacity: 1;"/><path class="sankey-link" d="M7.50114,390.3181721214842C188.10057000000003,390.3181721214842 188.10057000000003,619.0100263852241 368.70000000000005,619.0100263852241L368.70000000000005,623.6406332453826C188.10057000000003,623.6406332453826 188.10057000000003,394.94877898164253 7.50114,394.94877898164253Z" style="stroke: rgb(68, 68, 68); stroke-opacity: 1; fill: rgb(255, 151, 255); fill-opacity: 0.6; stroke-width: 0; opacity: 1;"/><path class="sankey-link" d="M7.50114,394.94877898164253C188.10057000000003,394.94877898164253 188.10057000000003,671.9058047493404 368.70000000000005,671.9058047493404L368.70000000000005,681.167018469657C188.10057000000003,681.167018469657 188.10057000000003,404.20999270195915 7.50114,404.20999270195915Z" style="stroke: rgb(68, 68, 68); stroke-opacity: 1; fill: rgb(255, 102, 146); fill-opacity: 0.6; stroke-width: 0; opacity: 1;"/><path class="sankey-link" d="M7.50114,427.2458092404426C188.10057000000003,427.2458092404426 188.10057000000003,130.58073878627968 368.70000000000005,130.58073878627968L368.70000000000005,141.38548812664905C188.10057000000003,141.38548812664905 188.10057000000003,438.05055858081204 7.50114,438.05055858081204Z" style="stroke: rgb(68, 68, 68); stroke-opacity: 1; fill: rgb(239, 85, 59); fill-opacity: 0.6; stroke-width: 0; opacity: 1;"/><path class="sankey-link" d="M7.50114,438.050558580812C188.10057000000003,438.050558580812 188.10057000000003,208.26569920844324 368.70000000000005,208.26569920844324L368.70000000000005,215.9833773087071C188.10057000000003,215.9833773087071 188.10057000000003,445.7682366810758 7.50114,445.7682366810758Z" style="stroke: rgb(68, 68, 68); stroke-opacity: 1; fill: rgb(0, 204, 150); fill-opacity: 0.6; stroke-width: 0; opacity: 1;"/><path class="sankey-link" d="M7.50114,445.76823668107585C188.10057000000003,445.76823668107585 188.10057000000003,236.18707124010567 368.70000000000005,236.18707124010567L368.70000000000005,251.62242744063334C188.10057000000003,251.62242744063334 188.10057000000003,461.2035928816036 7.50114,461.2035928816036Z" style="stroke: rgb(68, 68, 68); stroke-opacity: 1; fill: rgb(254, 203, 82); fill-opacity: 0.6; stroke-width: 0; opacity: 1;"/><path class="sankey-link" d="M7.50114,461.2035928816035C188.10057000000003,461.2035928816035 188.10057000000003,395.2923482849605 368.70000000000005,395.2923482849605L368.70000000000005,407.6406332453826C188.10057000000003,407.6406332453826 188.10057000000003,473.55187784202565 7.50114,473.55187784202565Z" style="stroke: rgb(68, 68, 68); stroke-opacity: 1; fill: rgb(171, 99, 250); fill-opacity: 0.6; stroke-width: 0; opacity: 1;"/><path class="sankey-link" d="M7.50114,473.5518778420257C188.10057000000003,473.5518778420257 188.10057000000003,455.9058047493404 368.70000000000005,455.9058047493404L368.70000000000005,519.190765171504C188.10057000000003,519.190765171504 188.10057000000003,536.8368382641893 7.50114,536.8368382641893Z" style="stroke: rgb(68, 68, 68); stroke-opacity: 1; fill: rgb(99, 110, 250); fill-opacity: 0.6; stroke-width: 0; opacity: 1;"/><path class="sankey-link" d="M7.50114,536.8368382641893C188.10057000000003,536.8368382641893 188.10057000000003,623.6406332453824 368.70000000000005,623.6406332453824L368.70000000000005,634.4453825857519C188.10057000000003,634.4453825857519 188.10057000000003,547.6415876045587 7.50114,547.6415876045587Z" style="stroke: rgb(68, 68, 68); stroke-opacity: 1; fill: rgb(255, 151, 255); fill-opacity: 0.6; stroke-width: 0; opacity: 1;"/><path class="sankey-link" d="M7.50114,547.6415876045587C188.10057000000003,547.6415876045587 188.10057000000003,681.167018469657 368.70000000000005,681.167018469657L368.70000000000005,684.2540897097626C188.10057000000003,684.2540897097626 188.10057000000003,550.7286588446643 7.50114,550.7286588446643Z" style="stroke: rgb(68, 68, 68); stroke-opacity: 1; fill: rgb(255, 102, 146); fill-opacity: 0.6; stroke-width: 0; opacity: 1;"/><path class="sankey-link" d="M7.50114,576.4543198787403C188.10057000000003,576.4543198787403 188.10057000000003,141.38548812664908 368.70000000000005,141.38548812664908L368.70000000000005,152.19023746701845C188.10057000000003,152.19023746701845 188.10057000000003,587.2590692191097 7.50114,587.2590692191097Z" style="stroke: rgb(68, 68, 68); stroke-opacity: 1; fill: rgb(239, 85, 59); fill-opacity: 0.6; stroke-width: 0; opacity: 1;"/><path class="sankey-link" d="M7.50114,587.2590692191097C188.10057000000003,587.2590692191097 188.10057000000003,215.98337730870708 368.70000000000005,215.98337730870708L368.70000000000005,223.70105540897094C188.10057000000003,223.70105540897094 188.10057000000003,594.9767473193735 7.50114,594.9767473193735Z" style="stroke: rgb(68, 68, 68); stroke-opacity: 1; fill: rgb(0, 204, 150); fill-opacity: 0.6; stroke-width: 0; opacity: 1;"/><path class="sankey-link" d="M7.50114,594.9767473193735C188.10057000000003,594.9767473193735 188.10057000000003,251.6224274406334 368.70000000000005,251.6224274406334L368.70000000000005,267.0577836411611C188.10057000000003,267.0577836411611 188.10057000000003,610.4121035199012 7.50114,610.4121035199012Z" style="stroke: rgb(68, 68, 68); stroke-opacity: 1; fill: rgb(254, 203, 82); fill-opacity: 0.6; stroke-width: 0; opacity: 1;"/><path class="sankey-link" d="M7.50114,610.4121035199013C188.10057000000003,610.4121035199013 188.10057000000003,407.6406332453827 368.70000000000005,407.6406332453827L368.70000000000005,419.9889182058048C188.10057000000003,419.9889182058048 188.10057000000003,622.7603884803235 7.50114,622.7603884803235Z" style="stroke: rgb(68, 68, 68); stroke-opacity: 1; fill: rgb(171, 99, 250); fill-opacity: 0.6; stroke-width: 0; opacity: 1;"/><path class="sankey-link" d="M7.50114,622.7603884803234C188.10057000000003,622.7603884803234 188.10057000000003,519.190765171504 368.70000000000005,519.190765171504L368.70000000000005,582.4757255936676C188.10057000000003,582.4757255936676 188.10057000000003,686.0453489024869 7.50114,686.0453489024869Z" style="stroke: rgb(68, 68, 68); stroke-opacity: 1; fill: rgb(99, 110, 250); fill-opacity: 0.6; stroke-width: 0; opacity: 1;"/><path class="sankey-link" d="M7.50114,686.045348902487C188.10057000000003,686.045348902487 188.10057000000003,634.4453825857519 368.70000000000005,634.4453825857519L368.70000000000005,645.2501319261213C188.10057000000003,645.2501319261213 188.10057000000003,696.8500982428565 7.50114,696.8500982428565Z" style="stroke: rgb(68, 68, 68); stroke-opacity: 1; fill: rgb(255, 151, 255); fill-opacity: 0.6; stroke-width: 0; opacity: 1;"/><path class="sankey-link" d="M7.50114,696.8500982428565C188.10057000000003,696.8500982428565 188.10057000000003,684.2540897097625 368.70000000000005,684.2540897097625L368.70000000000005,687.3411609498681C188.10057000000003,687.3411609498681 188.10057000000003,699.9371694829621 7.50114,699.9371694829621Z" style="stroke: rgb(68, 68, 68); stroke-opacity: 1; fill: rgb(255, 102, 146); fill-opacity: 0.6; stroke-width: 0; opacity: 1;"/><path class="sankey-link" d="M383.70000000000005,13.751715039577785C564.3000000000001,13.751715039577785 564.3000000000001,42.29061810631944 744.9000000000001,42.29061810631944L744.9000000000001,48.46476058653053C564.3000000000001,48.46476058653053 564.3000000000001,19.925857519788867 383.70000000000005,19.925857519788867Z" style="stroke: rgb(68, 68, 68); stroke-opacity: 1; fill: rgb(25, 211, 243); fill-opacity: 0.6; stroke-width: 0; opacity: 1;"/><path class="sankey-link" d="M383.70000000000005,19.925857519788867C564.3000000000001,19.925857519788867 564.3000000000001,360.888632726329 744.9000000000001,360.888632726329L744.9000000000001,367.0627752065401C564.3000000000001,367.0627752065401 564.3000000000001,26.099999999999948 383.70000000000005,26.099999999999948Z" style="stroke: rgb(68, 68, 68); stroke-opacity: 1; fill: rgb(25, 211, 243); fill-opacity: 0.6; stroke-width: 0; opacity: 1;"/><path class="sankey-link" d="M383.70000000000005,26.099999999999945C564.3000000000001,26.099999999999945 564.3000000000001,542.3684026125698 744.9000000000001,542.3684026125698L744.9000000000001,545.4554738526754C564.3000000000001,545.4554738526754 564.3000000000001,29.18707124010549 383.70000000000005,29.18707124010549Z" style="stroke: rgb(68, 68, 68); stroke-opacity: 1; fill: rgb(25, 211, 243); fill-opacity: 0.6; stroke-width: 0; opacity: 1;"/><path class="sankey-link" d="M383.70000000000005,58.034564643799484C564.3000000000001,58.034564643799484 564.3000000000001,48.464760586530524 744.9000000000001,48.464760586530524L744.9000000000001,73.16133050737486C564.3000000000001,73.16133050737486 564.3000000000001,82.73113456464381 383.70000000000005,82.73113456464381Z" style="stroke: rgb(68, 68, 68); stroke-opacity: 1; fill: rgb(239, 85, 59); fill-opacity: 0.6; stroke-width: 0; opacity: 1;"/><path class="sankey-link" d="M383.70000000000005,82.73113456464381C564.3000000000001,82.73113456464381 564.3000000000001,245.25332843116053 744.9000000000001,245.25332843116053L744.9000000000001,256.0580777715299C564.3000000000001,256.0580777715299 564.3000000000001,93.53588390501321 383.70000000000005,93.53588390501321Z" style="stroke: rgb(68, 68, 68); stroke-opacity: 1; fill: rgb(239, 85, 59); fill-opacity: 0.6; stroke-width: 0; opacity: 1;"/><path class="sankey-link" d="M383.70000000000005,93.53588390501321C564.3000000000001,93.53588390501321 564.3000000000001,367.06277520654004 744.9000000000001,367.06277520654004L744.9000000000001,382.4981314070678C564.3000000000001,382.4981314070678 564.3000000000001,108.97124010554091 383.70000000000005,108.97124010554091Z" style="stroke: rgb(68, 68, 68); stroke-opacity: 1; fill: rgb(239, 85, 59); fill-opacity: 0.6; stroke-width: 0; opacity: 1;"/><path class="sankey-link" d="M383.70000000000005,108.97124010554091C564.3000000000001,108.97124010554091 564.3000000000001,545.4554738526753 744.9000000000001,545.4554738526753L744.9000000000001,557.8037588130975C564.3000000000001,557.8037588130975 564.3000000000001,121.31952506596309 383.70000000000005,121.31952506596309Z" style="stroke: rgb(68, 68, 68); stroke-opacity: 1; fill: rgb(239, 85, 59); fill-opacity: 0.6; stroke-width: 0; opacity: 1;"/><path class="sankey-link" d="M383.70000000000005,163.5031662269129C564.3000000000001,163.5031662269129 564.3000000000001,73.16133050737486 744.9000000000001,73.16133050737486L744.9000000000001,88.59668670790256C564.3000000000001,88.59668670790256 564.3000000000001,178.93852242744057 383.70000000000005,178.93852242744057Z" style="stroke: rgb(68, 68, 68); stroke-opacity: 1; fill: rgb(0, 204, 150); fill-opacity: 0.6; stroke-width: 0; opacity: 1;"/><path class="sankey-link" d="M383.70000000000005,178.9385224274406C564.3000000000001,178.9385224274406 564.3000000000001,256.0580777715299 744.9000000000001,256.0580777715299L744.9000000000001,265.3192914918465C564.3000000000001,265.3192914918465 564.3000000000001,188.19973614775722 383.70000000000005,188.19973614775722Z" style="stroke: rgb(68, 68, 68); stroke-opacity: 1; fill: rgb(0, 204, 150); fill-opacity: 0.6; stroke-width: 0; opacity: 1;"/><path class="sankey-link" d="M383.70000000000005,188.19973614775722C564.3000000000001,188.19973614775722 564.3000000000001,382.4981314070677 744.9000000000001,382.4981314070677L744.9000000000001,394.84641636748984C564.3000000000001,394.84641636748984 564.3000000000001,200.5480211081794 383.70000000000005,200.5480211081794Z" style="stroke: rgb(68, 68, 68); stroke-opacity: 1; fill: rgb(0, 204, 150); fill-opacity: 0.6; stroke-width: 0; opacity: 1;"/><path class="sankey-link" d="M383.70000000000005,200.5480211081794C564.3000000000001,200.5480211081794 564.3000000000001,557.8037588130974 744.9000000000001,557.8037588130974L744.9000000000001,565.5214369133612C564.3000000000001,565.5214369133612 564.3000000000001,208.26569920844327 383.70000000000005,208.26569920844327Z" style="stroke: rgb(68, 68, 68); stroke-opacity: 1; fill: rgb(0, 204, 150); fill-opacity: 0.6; stroke-width: 0; opacity: 1;"/><path class="sankey-link" d="M383.70000000000005,236.18707124010567C564.3000000000001,236.18707124010567 564.3000000000001,88.59668670790256 744.9000000000001,88.59668670790256L744.9000000000001,91.6837579480081C564.3000000000001,91.6837579480081 564.3000000000001,239.27414248021122 383.70000000000005,239.27414248021122Z" style="stroke: rgb(68, 68, 68); stroke-opacity: 1; fill: rgb(254, 203, 82); fill-opacity: 0.6; stroke-width: 0; opacity: 1;"/><path class="sankey-link" d="M383.70000000000005,239.2741424802112C564.3000000000001,239.2741424802112 564.3000000000001,265.3192914918465 744.9000000000001,265.3192914918465L744.9000000000001,271.49343397205763C564.3000000000001,271.49343397205763 564.3000000000001,245.44828496042226 383.70000000000005,245.44828496042226Z" style="stroke: rgb(68, 68, 68); stroke-opacity: 1; fill: rgb(254, 203, 82); fill-opacity: 0.6; stroke-width: 0; opacity: 1;"/><path class="sankey-link" d="M383.70000000000005,245.44828496042228C564.3000000000001,245.44828496042228 564.3000000000001,394.8464163674899 744.9000000000001,394.8464163674899L744.9000000000001,405.6511657078593C564.3000000000001,405.6511657078593 564.3000000000001,256.2530343007917 383.70000000000005,256.2530343007917Z" style="stroke: rgb(68, 68, 68); stroke-opacity: 1; fill: rgb(254, 203, 82); fill-opacity: 0.6; stroke-width: 0; opacity: 1;"/><path class="sankey-link" d="M383.70000000000005,256.2530343007917C564.3000000000001,256.2530343007917 564.3000000000001,565.5214369133612 744.9000000000001,565.5214369133612L744.9000000000001,580.9567931138888C564.3000000000001,580.9567931138888 564.3000000000001,271.6883905013194 383.70000000000005,271.6883905013194Z" style="stroke: rgb(68, 68, 68); stroke-opacity: 1; fill: rgb(254, 203, 82); fill-opacity: 0.6; stroke-width: 0; opacity: 1;"/><path class="sankey-link" d="M383.70000000000005,284.5757255936677C564.3000000000001,284.5757255936677 564.3000000000001,91.68375794800811 744.9000000000001,91.68375794800811L744.9000000000001,100.94497166832473C564.3000000000001,100.94497166832473 564.3000000000001,293.8369393139843 383.70000000000005,293.8369393139843Z" style="stroke: rgb(68, 68, 68); stroke-opacity: 1; fill: rgb(255, 161, 90); fill-opacity: 0.6; stroke-width: 0; opacity: 1;"/><path class="sankey-link" d="M383.70000000000005,293.8369393139843C564.3000000000001,293.8369393139843 564.3000000000001,271.4934339720576 744.9000000000001,271.4934339720576L744.9000000000001,273.0369695921104C564.3000000000001,273.0369695921104 564.3000000000001,295.3804749340371 383.70000000000005,295.3804749340371Z" style="stroke: rgb(68, 68, 68); stroke-opacity: 1; fill: rgb(255, 161, 90); fill-opacity: 0.6; stroke-width: 0; opacity: 1;"/><path class="sankey-link" d="M383.70000000000005,295.38047493403707C564.3000000000001,295.38047493403707 564.3000000000001,405.65116570785926 744.9000000000001,405.65116570785926L744.9000000000001,411.8253081880704C564.3000000000001,411.8253081880704 564.3000000000001,301.5546174142482 383.70000000000005,301.5546174142482Z" style="stroke: rgb(68, 68, 68); stroke-opacity: 1; fill: rgb(255, 161, 90); fill-opacity: 0.6; stroke-width: 0; opacity: 1;"/><path class="sankey-link" d="M383.70000000000005,301.5546174142481C564.3000000000001,301.5546174142481 564.3000000000001,580.9567931138889 744.9000000000001,580.9567931138889L744.9000000000001,585.5873999740473C564.3000000000001,585.5873999740473 564.3000000000001,306.18522427440644 383.70000000000005,306.18522427440644Z" style="stroke: rgb(68, 68, 68); stroke-opacity: 1; fill: rgb(255, 161, 90); fill-opacity: 0.6; stroke-width: 0; opacity: 1;"/><path class="sankey-link" d="M383.70000000000005,336.6379947229553C564.3000000000001,336.6379947229553 564.3000000000001,100.94497166832473 744.9000000000001,100.94497166832473L744.9000000000001,125.64154158916905C564.3000000000001,125.64154158916905 564.3000000000001,361.33456464379964 383.70000000000005,361.33456464379964Z" style="stroke: rgb(68, 68, 68); stroke-opacity: 1; fill: rgb(171, 99, 250); fill-opacity: 0.6; stroke-width: 0; opacity: 1;"/><path class="sankey-link" d="M383.70000000000005,361.3345646437996C564.3000000000001,361.3345646437996 564.3000000000001,273.0369695921103 744.9000000000001,273.0369695921103L744.9000000000001,279.21111207232144C564.3000000000001,279.21111207232144 564.3000000000001,367.5087071240107 383.70000000000005,367.5087071240107Z" style="stroke: rgb(68, 68, 68); stroke-opacity: 1; fill: rgb(171, 99, 250); fill-opacity: 0.6; stroke-width: 0; opacity: 1;"/><path class="sankey-link" d="M383.70000000000005,367.50870712401064C564.3000000000001,367.50870712401064 564.3000000000001,411.8253081880703 744.9000000000001,411.8253081880703L744.9000000000001,431.89127124875637C564.3000000000001,431.89127124875637 564.3000000000001,387.5746701846967 383.70000000000005,387.5746701846967Z" style="stroke: rgb(68, 68, 68); stroke-opacity: 1; fill: rgb(171, 99, 250); fill-opacity: 0.6; stroke-width: 0; opacity: 1;"/><path class="sankey-link" d="M383.70000000000005,387.57467018469663C564.3000000000001,387.57467018469663 564.3000000000001,585.5873999740472 744.9000000000001,585.5873999740472L744.9000000000001,601.0227561745749C564.3000000000001,601.0227561745749 564.3000000000001,403.01002638522436 383.70000000000005,403.01002638522436Z" style="stroke: rgb(68, 68, 68); stroke-opacity: 1; fill: rgb(171, 99, 250); fill-opacity: 0.6; stroke-width: 0; opacity: 1;"/><path class="sankey-link" d="M383.70000000000005,429.66569920844336C564.3000000000001,429.66569920844336 564.3000000000001,125.64154158916907 744.9000000000001,125.64154158916907L744.9000000000001,170.4040745706994C564.3000000000001,170.4040745706994 564.3000000000001,474.42823218997364 383.70000000000005,474.42823218997364Z" style="stroke: rgb(68, 68, 68); stroke-opacity: 1; fill: rgb(99, 110, 250); fill-opacity: 0.6; stroke-width: 0; opacity: 1;"/><path class="sankey-link" d="M383.70000000000005,474.42823218997364C564.3000000000001,474.42823218997364 564.3000000000001,279.2111120723214 744.9000000000001,279.2111120723214L744.9000000000001,303.90768199316574C564.3000000000001,303.90768199316574 564.3000000000001,499.124802110818 383.70000000000005,499.124802110818Z" style="stroke: rgb(68, 68, 68); stroke-opacity: 1; fill: rgb(99, 110, 250); fill-opacity: 0.6; stroke-width: 0; opacity: 1;"/><path class="sankey-link" d="M383.70000000000005,499.124802110818C564.3000000000001,499.124802110818 564.3000000000001,431.8912712487563 744.9000000000001,431.8912712487563L744.9000000000001,456.58784116960067C564.3000000000001,456.58784116960067 564.3000000000001,523.8213720316623 383.70000000000005,523.8213720316623Z" style="stroke: rgb(68, 68, 68); stroke-opacity: 1; fill: rgb(99, 110, 250); fill-opacity: 0.6; stroke-width: 0; opacity: 1;"/><path class="sankey-link" d="M383.70000000000005,523.8213720316623C564.3000000000001,523.8213720316623 564.3000000000001,601.022756174575 744.9000000000001,601.022756174575L744.9000000000001,659.6771097365803C564.3000000000001,659.6771097365803 564.3000000000001,582.4757255936677 383.70000000000005,582.4757255936677Z" style="stroke: rgb(68, 68, 68); stroke-opacity: 1; fill: rgb(99, 110, 250); fill-opacity: 0.6; stroke-width: 0; opacity: 1;"/><path class="sankey-link" d="M383.70000000000005,592.7699208443271C564.3000000000001,592.7699208443271 564.3000000000001,170.40407457069938 744.9000000000001,170.40407457069938L744.9000000000001,184.2958951511743C564.3000000000001,184.2958951511743 564.3000000000001,606.6617414248021 383.70000000000005,606.6617414248021Z" style="stroke: rgb(68, 68, 68); stroke-opacity: 1; fill: rgb(255, 151, 255); fill-opacity: 0.6; stroke-width: 0; opacity: 1;"/><path class="sankey-link" d="M383.70000000000005,606.661741424802C564.3000000000001,606.661741424802 564.3000000000001,303.90768199316574 744.9000000000001,303.90768199316574L744.9000000000001,308.53828885332405C564.3000000000001,308.53828885332405 564.3000000000001,611.2923482849604 383.70000000000005,611.2923482849604Z" style="stroke: rgb(68, 68, 68); stroke-opacity: 1; fill: rgb(255, 151, 255); fill-opacity: 0.6; stroke-width: 0; opacity: 1;"/><path class="sankey-link" d="M383.70000000000005,611.2923482849603C564.3000000000001,611.2923482849603 564.3000000000001,456.58784116960067 744.9000000000001,456.58784116960067L744.9000000000001,472.0231973701284C564.3000000000001,472.0231973701284 564.3000000000001,626.727704485488 383.70000000000005,626.727704485488Z" style="stroke: rgb(68, 68, 68); stroke-opacity: 1; fill: rgb(255, 151, 255); fill-opacity: 0.6; stroke-width: 0; opacity: 1;"/><path class="sankey-link" d="M383.70000000000005,626.7277044854881C564.3000000000001,626.7277044854881 564.3000000000001,659.6771097365802 744.9000000000001,659.6771097365802L744.9000000000001,670.4818590769496C564.3000000000001,670.4818590769496 564.3000000000001,637.5324538258575 383.70000000000005,637.5324538258575Z" style="stroke: rgb(68, 68, 68); stroke-opacity: 1; fill: rgb(255, 151, 255); fill-opacity: 0.6; stroke-width: 0; opacity: 1;"/><path class="sankey-link" d="M383.70000000000005,658.0139841688655C564.3000000000001,658.0139841688655 564.3000000000001,184.2958951511743 744.9000000000001,184.2958951511743L744.9000000000001,188.92650201133262C564.3000000000001,188.92650201133262 564.3000000000001,662.6445910290239 383.70000000000005,662.6445910290239Z" style="stroke: rgb(68, 68, 68); stroke-opacity: 1; fill: rgb(255, 102, 146); fill-opacity: 0.6; stroke-width: 0; opacity: 1;"/><path class="sankey-link" d="M383.70000000000005,662.6445910290238C564.3000000000001,662.6445910290238 564.3000000000001,308.53828885332405 744.9000000000001,308.53828885332405L744.9000000000001,311.62536009342955C564.3000000000001,311.62536009342955 564.3000000000001,665.7316622691294 383.70000000000005,665.7316622691294Z" style="stroke: rgb(68, 68, 68); stroke-opacity: 1; fill: rgb(255, 102, 146); fill-opacity: 0.6; stroke-width: 0; opacity: 1;"/><path class="sankey-link" d="M383.70000000000005,665.7316622691293C564.3000000000001,665.7316622691293 564.3000000000001,472.02319737012834 744.9000000000001,472.02319737012834L744.9000000000001,478.19733985033946C564.3000000000001,478.19733985033946 564.3000000000001,671.9058047493403 383.70000000000005,671.9058047493403Z" style="stroke: rgb(68, 68, 68); stroke-opacity: 1; fill: rgb(255, 102, 146); fill-opacity: 0.6; stroke-width: 0; opacity: 1;"/><path class="sankey-link" d="M383.70000000000005,671.9058047493404C564.3000000000001,671.9058047493404 564.3000000000001,670.4818590769496 744.9000000000001,670.4818590769496L744.9000000000001,679.7430727972662C564.3000000000001,679.7430727972662 564.3000000000001,681.167018469657 383.70000000000005,681.167018469657Z" style="stroke: rgb(68, 68, 68); stroke-opacity: 1; fill: rgb(255, 102, 146); fill-opacity: 0.6; stroke-width: 0; opacity: 1;"/><path class="sankey-link" d="M383.70000000000005,701.0620052770448C564.3000000000001,701.0620052770448 564.3000000000001,188.92650201133262 744.9000000000001,188.92650201133262L744.9000000000001,190.47003763138537C564.3000000000001,190.47003763138537 564.3000000000001,702.6055408970976 383.70000000000005,702.6055408970976Z" style="stroke: rgb(68, 68, 68); stroke-opacity: 1; fill: rgb(182, 232, 128); fill-opacity: 0.6; stroke-width: 0; opacity: 1;"/><path class="sankey-link" d="M383.70000000000005,702.6055408970976C564.3000000000001,702.6055408970976 564.3000000000001,478.1973398503394 744.9000000000001,478.1973398503394L744.9000000000001,479.7408754703922C564.3000000000001,479.7408754703922 564.3000000000001,704.1490765171504 383.70000000000005,704.1490765171504Z" style="stroke: rgb(68, 68, 68); stroke-opacity: 1; fill: rgb(182, 232, 128); fill-opacity: 0.6; stroke-width: 0; opacity: 1;"/><path class="sankey-link" d="M759.9000000000001,42.29061810631944C946.19943,42.29061810631944 946.19943,23.02844586703575 1132.49886,23.02844586703575L1132.49886,26.115517107141294C946.19943,26.115517107141294 946.19943,45.37768934642499 759.9000000000001,45.37768934642499Z" style="stroke: rgb(68, 68, 68); stroke-opacity: 1; fill: rgb(25, 211, 243); fill-opacity: 0.6; stroke-width: 0; opacity: 1;"/><path class="sankey-link" d="M759.9000000000001,110.20618538864133C946.19943,110.20618538864133 946.19943,124.16971322289028 1132.49886,124.16971322289028L1132.49886,127.25678446299581C946.19943,127.25678446299581 946.19943,113.29325662874686 759.9000000000001,113.29325662874686Z" style="stroke: rgb(68, 68, 68); stroke-opacity: 1; fill: rgb(25, 211, 243); fill-opacity: 0.6; stroke-width: 0; opacity: 1;"/><path class="sankey-link" d="M759.9000000000001,360.888632726329C946.19943,360.888632726329 946.19943,349.10768372334434 1132.49886,349.10768372334434L1132.49886,350.65121934339714C946.19943,350.65121934339714 946.19943,362.4321683463818 759.9000000000001,362.4321683463818Z" style="stroke: rgb(68, 68, 68); stroke-opacity: 1; fill: rgb(25, 211, 243); fill-opacity: 0.6; stroke-width: 0; opacity: 1;"/><path class="sankey-link" d="M759.9000000000001,424.1735931484925C946.19943,424.1735931484925 946.19943,441.89242441282056 1132.49886,441.89242441282056L1132.49886,446.52303127297887C946.19943,446.52303127297887 946.19943,428.8042000086508 759.9000000000001,428.8042000086508Z" style="stroke: rgb(68, 68, 68); stroke-opacity: 1; fill: rgb(25, 211, 243); fill-opacity: 0.6; stroke-width: 0; opacity: 1;"/><path class="sankey-link" d="M759.9000000000001,542.3684026125698C946.19943,542.3684026125698 946.19943,526.959487002033 1132.49886,526.959487002033L1132.49886,528.5030226220858C946.19943,528.5030226220858 946.19943,543.9119382326226 759.9000000000001,543.9119382326226Z" style="stroke: rgb(68, 68, 68); stroke-opacity: 1; fill: rgb(25, 211, 243); fill-opacity: 0.6; stroke-width: 0; opacity: 1;"/><path class="sankey-link" d="M759.9000000000001,605.6533630347335C946.19943,605.6533630347335 946.19943,622.0974402007008 1132.49886,622.0974402007008L1132.49886,623.6409758207536C946.19943,623.6409758207536 946.19943,607.1968986547863 759.9000000000001,607.1968986547863Z" style="stroke: rgb(68, 68, 68); stroke-opacity: 1; fill: rgb(25, 211, 243); fill-opacity: 0.6; stroke-width: 0; opacity: 1;"/><path class="sankey-link" d="M759.9000000000001,45.37768934642499C946.19943,45.37768934642499 946.19943,26.11551710714129 1132.49886,26.11551710714129L1132.49886,36.920266447510684C946.19943,36.920266447510684 946.19943,56.182438686794384 759.9000000000001,56.182438686794384Z" style="stroke: rgb(68, 68, 68); stroke-opacity: 1; fill: rgb(239, 85, 59); fill-opacity: 0.6; stroke-width: 0; opacity: 1;"/><path class="sankey-link" d="M759.9000000000001,113.29325662874687C946.19943,113.29325662874687 946.19943,127.25678446299582 1132.49886,127.25678446299582L1132.49886,141.14860504347075C946.19943,141.14860504347075 946.19943,127.1850772092218 759.9000000000001,127.1850772092218Z" style="stroke: rgb(68, 68, 68); stroke-opacity: 1; fill: rgb(239, 85, 59); fill-opacity: 0.6; stroke-width: 0; opacity: 1;"/><path class="sankey-link" d="M759.9000000000001,245.25332843116053C946.19943,245.25332843116053 946.19943,233.54114364808171 1132.49886,233.54114364808171L1132.49886,239.71528612829277C946.19943,239.71528612829277 946.19943,251.42747091137159 759.9000000000001,251.42747091137159Z" style="stroke: rgb(68, 68, 68); stroke-opacity: 1; fill: rgb(239, 85, 59); fill-opacity: 0.6; stroke-width: 0; opacity: 1;"/><path class="sankey-link" d="M759.9000000000001,280.7546476923742C946.19943,280.7546476923742 946.19943,291.87480773389854 1132.49886,291.87480773389854L1132.49886,296.50541459405684C946.19943,296.50541459405684 946.19943,285.3852545525325 759.9000000000001,285.3852545525325Z" style="stroke: rgb(68, 68, 68); stroke-opacity: 1; fill: rgb(239, 85, 59); fill-opacity: 0.6; stroke-width: 0; opacity: 1;"/><path class="sankey-link" d="M759.9000000000001,362.43216834638173C946.19943,362.43216834638173 946.19943,350.6512193433971 1132.49886,350.6512193433971L1132.49886,356.8253618236082C946.19943,356.8253618236082 946.19943,368.60631082659285 759.9000000000001,368.60631082659285Z" style="stroke: rgb(68, 68, 68); stroke-opacity: 1; fill: rgb(239, 85, 59); fill-opacity: 0.6; stroke-width: 0; opacity: 1;"/><path class="sankey-link" d="M759.9000000000001,428.8042000086508C946.19943,428.8042000086508 946.19943,446.52303127297887 1132.49886,446.52303127297887L1132.49886,455.7842449932955C946.19943,455.7842449932955 946.19943,438.0654137289674 759.9000000000001,438.0654137289674Z" style="stroke: rgb(68, 68, 68); stroke-opacity: 1; fill: rgb(239, 85, 59); fill-opacity: 0.6; stroke-width: 0; opacity: 1;"/><path class="sankey-link" d="M759.9000000000001,543.9119382326226C946.19943,543.9119382326226 946.19943,528.5030226220858 1132.49886,528.5030226220858L1132.49886,533.1336294822443C946.19943,533.1336294822443 946.19943,548.542545092781 759.9000000000001,548.542545092781Z" style="stroke: rgb(68, 68, 68); stroke-opacity: 1; fill: rgb(239, 85, 59); fill-opacity: 0.6; stroke-width: 0; opacity: 1;"/><path class="sankey-link" d="M759.9000000000001,607.1968986547863C946.19943,607.1968986547863 946.19943,623.6409758207536 1132.49886,623.6409758207536L1132.49886,631.3586539210174C946.19943,631.3586539210174 946.19943,614.9145767550501 759.9000000000001,614.9145767550501Z" style="stroke: rgb(68, 68, 68); stroke-opacity: 1; fill: rgb(239, 85, 59); fill-opacity: 0.6; stroke-width: 0; opacity: 1;"/><path class="sankey-link" d="M759.9000000000001,56.18243868679438C946.19943,56.18243868679438 946.19943,36.920266447510684 1132.49886,36.920266447510684L1132.49886,44.63794454777454C946.19943,44.63794454777454 946.19943,63.90011678705823 759.9000000000001,63.90011678705823Z" style="stroke: rgb(68, 68, 68); stroke-opacity: 1; fill: rgb(0, 204, 150); fill-opacity: 0.6; stroke-width: 0; opacity: 1;"/><path class="sankey-link" d="M759.9000000000001,127.1850772092218C946.19943,127.1850772092218 946.19943,141.14860504347075 1132.49886,141.14860504347075L1132.49886,148.86628314373462C946.19943,148.86628314373462 946.19943,134.90275530948566 759.9000000000001,134.90275530948566Z" style="stroke: rgb(68, 68, 68); stroke-opacity: 1; fill: rgb(0, 204, 150); fill-opacity: 0.6; stroke-width: 0; opacity: 1;"/><path class="sankey-link" d="M759.9000000000001,251.4274709113716C946.19943,251.4274709113716 946.19943,239.7152861282928 1132.49886,239.7152861282928L1132.49886,247.43296422855667C946.19943,247.43296422855667 946.19943,259.14514901163545 759.9000000000001,259.14514901163545Z" style="stroke: rgb(68, 68, 68); stroke-opacity: 1; fill: rgb(0, 204, 150); fill-opacity: 0.6; stroke-width: 0; opacity: 1;"/><path class="sankey-link" d="M759.9000000000001,285.3852545525325C946.19943,285.3852545525325 946.19943,296.50541459405684 1132.49886,296.50541459405684L1132.49886,298.04895021410965C946.19943,298.04895021410965 946.19943,286.9287901725853 759.9000000000001,286.9287901725853Z" style="stroke: rgb(68, 68, 68); stroke-opacity: 1; fill: rgb(0, 204, 150); fill-opacity: 0.6; stroke-width: 0; opacity: 1;"/><path class="sankey-link" d="M759.9000000000001,368.6063108265928C946.19943,368.6063108265928 946.19943,356.82536182360815 1132.49886,356.82536182360815L1132.49886,362.99950430381926C946.19943,362.99950430381926 946.19943,374.7804533068039 759.9000000000001,374.7804533068039Z" style="stroke: rgb(68, 68, 68); stroke-opacity: 1; fill: rgb(0, 204, 150); fill-opacity: 0.6; stroke-width: 0; opacity: 1;"/><path class="sankey-link" d="M759.9000000000001,438.0654137289674C946.19943,438.0654137289674 946.19943,455.7842449932955 1132.49886,455.7842449932955L1132.49886,461.9583874735066C946.19943,461.9583874735066 946.19943,444.23955620917855 759.9000000000001,444.23955620917855Z" style="stroke: rgb(68, 68, 68); stroke-opacity: 1; fill: rgb(0, 204, 150); fill-opacity: 0.6; stroke-width: 0; opacity: 1;"/><path class="sankey-link" d="M759.9000000000001,548.5425450927809C946.19943,548.5425450927809 946.19943,533.1336294822441 1132.49886,533.1336294822441L1132.49886,534.677165102297C946.19943,534.677165102297 946.19943,550.0860807128337 759.9000000000001,550.0860807128337Z" style="stroke: rgb(68, 68, 68); stroke-opacity: 1; fill: rgb(0, 204, 150); fill-opacity: 0.6; stroke-width: 0; opacity: 1;"/><path class="sankey-link" d="M759.9000000000001,614.9145767550501C946.19943,614.9145767550501 946.19943,631.3586539210174 1132.49886,631.3586539210174L1132.49886,637.5327964012284C946.19943,637.5327964012284 946.19943,621.0887192352611 759.9000000000001,621.0887192352611Z" style="stroke: rgb(68, 68, 68); stroke-opacity: 1; fill: rgb(0, 204, 150); fill-opacity: 0.6; stroke-width: 0; opacity: 1;"/><path class="sankey-link" d="M759.9000000000001,134.90275530948566C946.19943,134.90275530948566 946.19943,148.8662831437346 1132.49886,148.8662831437346L1132.49886,151.95335438384015C946.19943,151.95335438384015 946.19943,137.9898265495912 759.9000000000001,137.9898265495912Z" style="stroke: rgb(68, 68, 68); stroke-opacity: 1; fill: rgb(254, 203, 82); fill-opacity: 0.6; stroke-width: 0; opacity: 1;"/><path class="sankey-link" d="M759.9000000000001,259.14514901163545C946.19943,259.14514901163545 946.19943,247.43296422855664 1132.49886,247.43296422855664L1132.49886,248.9764998486094C946.19943,248.9764998486094 946.19943,260.68868463168826 759.9000000000001,260.68868463168826Z" style="stroke: rgb(68, 68, 68); stroke-opacity: 1; fill: rgb(254, 203, 82); fill-opacity: 0.6; stroke-width: 0; opacity: 1;"/><path class="sankey-link" d="M759.9000000000001,286.92879017258525C946.19943,286.92879017258525 946.19943,298.0489502141096 1132.49886,298.0489502141096L1132.49886,302.6795570742679C946.19943,302.6795570742679 946.19943,291.55939703274356 759.9000000000001,291.55939703274356Z" style="stroke: rgb(68, 68, 68); stroke-opacity: 1; fill: rgb(254, 203, 82); fill-opacity: 0.6; stroke-width: 0; opacity: 1;"/><path class="sankey-link" d="M759.9000000000001,374.78045330680385C946.19943,374.78045330680385 946.19943,362.9995043038192 1132.49886,362.9995043038192L1132.49886,369.1736467840303C946.19943,369.1736467840303 946.19943,380.95459578701497 759.9000000000001,380.95459578701497Z" style="stroke: rgb(68, 68, 68); stroke-opacity: 1; fill: rgb(254, 203, 82); fill-opacity: 0.6; stroke-width: 0; opacity: 1;"/><path class="sankey-link" d="M759.9000000000001,444.2395562091785C946.19943,444.2395562091785 946.19943,461.95838747350655 1132.49886,461.95838747350655L1132.49886,466.58899433366486C946.19943,466.58899433366486 946.19943,448.8701630693368 759.9000000000001,448.8701630693368Z" style="stroke: rgb(68, 68, 68); stroke-opacity: 1; fill: rgb(254, 203, 82); fill-opacity: 0.6; stroke-width: 0; opacity: 1;"/><path class="sankey-link" d="M759.9000000000001,550.0860807128337C946.19943,550.0860807128337 946.19943,534.677165102297 1132.49886,534.677165102297L1132.49886,540.851307582508C946.19943,540.851307582508 946.19943,556.2602231930447 759.9000000000001,556.2602231930447Z" style="stroke: rgb(68, 68, 68); stroke-opacity: 1; fill: rgb(254, 203, 82); fill-opacity: 0.6; stroke-width: 0; opacity: 1;"/><path class="sankey-link" d="M759.9000000000001,621.0887192352612C946.19943,621.0887192352612 946.19943,637.5327964012286 1132.49886,637.5327964012286L1132.49886,646.7940101215452C946.19943,646.7940101215452 946.19943,630.3499329555779 759.9000000000001,630.3499329555779Z" style="stroke: rgb(68, 68, 68); stroke-opacity: 1; fill: rgb(254, 203, 82); fill-opacity: 0.6; stroke-width: 0; opacity: 1;"/><path class="sankey-link" d="M759.9000000000001,63.90011678705824C946.19943,63.90011678705824 946.19943,44.63794454777454 1132.49886,44.63794454777454L1132.49886,49.26855140793285C946.19943,49.26855140793285 946.19943,68.53072364721655 759.9000000000001,68.53072364721655Z" style="stroke: rgb(68, 68, 68); stroke-opacity: 1; fill: rgb(255, 161, 90); fill-opacity: 0.6; stroke-width: 0; opacity: 1;"/><path class="sankey-link" d="M759.9000000000001,137.98982654959119C946.19943,137.98982654959119 946.19943,151.95335438384012 1132.49886,151.95335438384012L1132.49886,156.58396124399843C946.19943,156.58396124399843 946.19943,142.6204334097495 759.9000000000001,142.6204334097495Z" style="stroke: rgb(68, 68, 68); stroke-opacity: 1; fill: rgb(255, 161, 90); fill-opacity: 0.6; stroke-width: 0; opacity: 1;"/><path class="sankey-link" d="M759.9000000000001,260.6886846316882C946.19943,260.6886846316882 946.19943,248.97649984860942 1132.49886,248.97649984860942L1132.49886,250.52003546866217C946.19943,250.52003546866217 946.19943,262.232220251741 759.9000000000001,262.232220251741Z" style="stroke: rgb(68, 68, 68); stroke-opacity: 1; fill: rgb(255, 161, 90); fill-opacity: 0.6; stroke-width: 0; opacity: 1;"/><path class="sankey-link" d="M759.9000000000001,380.9545957870149C946.19943,380.9545957870149 946.19943,369.17364678403027 1132.49886,369.17364678403027L1132.49886,373.8042536441886C946.19943,373.8042536441886 946.19943,385.5852026471732 759.9000000000001,385.5852026471732Z" style="stroke: rgb(68, 68, 68); stroke-opacity: 1; fill: rgb(255, 161, 90); fill-opacity: 0.6; stroke-width: 0; opacity: 1;"/><path class="sankey-link" d="M759.9000000000001,448.8701630693368C946.19943,448.8701630693368 946.19943,466.58899433366486 1132.49886,466.58899433366486L1132.49886,468.13252995371766C946.19943,468.13252995371766 946.19943,450.4136986893896 759.9000000000001,450.4136986893896Z" style="stroke: rgb(68, 68, 68); stroke-opacity: 1; fill: rgb(255, 161, 90); fill-opacity: 0.6; stroke-width: 0; opacity: 1;"/><path class="sankey-link" d="M759.9000000000001,556.2602231930448C946.19943,556.2602231930448 946.19943,540.8513075825081 1132.49886,540.8513075825081L1132.49886,542.3948432025609C946.19943,542.3948432025609 946.19943,557.8037588130976 759.9000000000001,557.8037588130976Z" style="stroke: rgb(68, 68, 68); stroke-opacity: 1; fill: rgb(255, 161, 90); fill-opacity: 0.6; stroke-width: 0; opacity: 1;"/><path class="sankey-link" d="M759.9000000000001,630.3499329555779C946.19943,630.3499329555779 946.19943,646.7940101215452 1132.49886,646.7940101215452L1132.49886,649.8810813616508C946.19943,649.8810813616508 946.19943,633.4370041956835 759.9000000000001,633.4370041956835Z" style="stroke: rgb(68, 68, 68); stroke-opacity: 1; fill: rgb(255, 161, 90); fill-opacity: 0.6; stroke-width: 0; opacity: 1;"/><path class="sankey-link" d="M759.9000000000001,68.53072364721655C946.19943,68.53072364721655 946.19943,49.26855140793285 1132.49886,49.26855140793285L1132.49886,60.073300748302245C946.19943,60.073300748302245 946.19943,79.33547298758594 759.9000000000001,79.33547298758594Z" style="stroke: rgb(68, 68, 68); stroke-opacity: 1; fill: rgb(171, 99, 250); fill-opacity: 0.6; stroke-width: 0; opacity: 1;"/><path class="sankey-link" d="M759.9000000000001,142.6204334097495C946.19943,142.6204334097495 946.19943,156.58396124399843 1132.49886,156.58396124399843L1132.49886,170.47578182447336C946.19943,170.47578182447336 946.19943,156.51225399022442 759.9000000000001,156.51225399022442Z" style="stroke: rgb(68, 68, 68); stroke-opacity: 1; fill: rgb(171, 99, 250); fill-opacity: 0.6; stroke-width: 0; opacity: 1;"/><path class="sankey-link" d="M759.9000000000001,262.23222025174096C946.19943,262.23222025174096 946.19943,250.5200354686622 1132.49886,250.5200354686622L1132.49886,253.60710670876776C946.19943,253.60710670876776 946.19943,265.31929149184646 759.9000000000001,265.31929149184646Z" style="stroke: rgb(68, 68, 68); stroke-opacity: 1; fill: rgb(171, 99, 250); fill-opacity: 0.6; stroke-width: 0; opacity: 1;"/><path class="sankey-link" d="M759.9000000000001,291.55939703274356C946.19943,291.55939703274356 946.19943,302.6795570742679 1132.49886,302.6795570742679L1132.49886,305.7666283143734C946.19943,305.7666283143734 946.19943,294.64646827284906 759.9000000000001,294.64646827284906Z" style="stroke: rgb(68, 68, 68); stroke-opacity: 1; fill: rgb(171, 99, 250); fill-opacity: 0.6; stroke-width: 0; opacity: 1;"/><path class="sankey-link" d="M759.9000000000001,385.5852026471732C946.19943,385.5852026471732 946.19943,373.8042536441886 1132.49886,373.8042536441886L1132.49886,386.1525386046107C946.19943,386.1525386046107 946.19943,397.93348760759534 759.9000000000001,397.93348760759534Z" style="stroke: rgb(68, 68, 68); stroke-opacity: 1; fill: rgb(171, 99, 250); fill-opacity: 0.6; stroke-width: 0; opacity: 1;"/><path class="sankey-link" d="M759.9000000000001,450.41369868938955C946.19943,450.41369868938955 946.19943,468.1325299537176 1132.49886,468.1325299537176L1132.49886,475.8502080539814C946.19943,475.8502080539814 946.19943,458.13137678965336 759.9000000000001,458.13137678965336Z" style="stroke: rgb(68, 68, 68); stroke-opacity: 1; fill: rgb(171, 99, 250); fill-opacity: 0.6; stroke-width: 0; opacity: 1;"/><path class="sankey-link" d="M759.9000000000001,557.8037588130976C946.19943,557.8037588130976 946.19943,542.3948432025609 1132.49886,542.3948432025609L1132.49886,551.6560569228775C946.19943,551.6560569228775 946.19943,567.0649725334142 759.9000000000001,567.0649725334142Z" style="stroke: rgb(68, 68, 68); stroke-opacity: 1; fill: rgb(171, 99, 250); fill-opacity: 0.6; stroke-width: 0; opacity: 1;"/><path class="sankey-link" d="M759.9000000000001,633.4370041956834C946.19943,633.4370041956834 946.19943,649.8810813616507 1132.49886,649.8810813616507L1132.49886,656.0552238418617C946.19943,656.0552238418617 946.19943,639.6111466758944 759.9000000000001,639.6111466758944Z" style="stroke: rgb(68, 68, 68); stroke-opacity: 1; fill: rgb(171, 99, 250); fill-opacity: 0.6; stroke-width: 0; opacity: 1;"/><path class="sankey-link" d="M759.9000000000001,79.33547298758594C946.19943,79.33547298758594 946.19943,60.07330074830224 1132.49886,60.07330074830224L1132.49886,81.68279942904103C946.19943,81.68279942904103 946.19943,100.94497166832474 759.9000000000001,100.94497166832474Z" style="stroke: rgb(68, 68, 68); stroke-opacity: 1; fill: rgb(99, 110, 250); fill-opacity: 0.6; stroke-width: 0; opacity: 1;"/><path class="sankey-link" d="M759.9000000000001,156.51225399022442C946.19943,156.51225399022442 946.19943,170.47578182447336 1132.49886,170.47578182447336L1132.49886,193.6288161252649C946.19943,193.6288161252649 946.19943,179.66528829101597 759.9000000000001,179.66528829101597Z" style="stroke: rgb(68, 68, 68); stroke-opacity: 1; fill: rgb(99, 110, 250); fill-opacity: 0.6; stroke-width: 0; opacity: 1;"/><path class="sankey-link" d="M759.9000000000001,265.3192914918465C946.19943,265.3192914918465 946.19943,253.6071067087677 1132.49886,253.6071067087677L1132.49886,265.95539166918985C946.19943,265.95539166918985 946.19943,277.66757645226863 759.9000000000001,277.66757645226863Z" style="stroke: rgb(68, 68, 68); stroke-opacity: 1; fill: rgb(99, 110, 250); fill-opacity: 0.6; stroke-width: 0; opacity: 1;"/><path class="sankey-link" d="M759.9000000000001,294.6464682728491C946.19943,294.6464682728491 946.19943,305.76662831437346 1132.49886,305.76662831437346L1132.49886,318.1149132747956C946.19943,318.1149132747956 946.19943,306.99475323327124 759.9000000000001,306.99475323327124Z" style="stroke: rgb(68, 68, 68); stroke-opacity: 1; fill: rgb(99, 110, 250); fill-opacity: 0.6; stroke-width: 0; opacity: 1;"/><path class="sankey-link" d="M759.9000000000001,397.9334876075954C946.19943,397.9334876075954 946.19943,386.15253860461075 1132.49886,386.15253860461075L1132.49886,398.5008235650329C946.19943,398.5008235650329 946.19943,410.2817725680175 759.9000000000001,410.2817725680175Z" style="stroke: rgb(68, 68, 68); stroke-opacity: 1; fill: rgb(99, 110, 250); fill-opacity: 0.6; stroke-width: 0; opacity: 1;"/><path class="sankey-link" d="M759.9000000000001,458.1313767896534C946.19943,458.1313767896534 946.19943,475.8502080539815 1132.49886,475.8502080539815L1132.49886,488.1984930144036C946.19943,488.1984930144036 946.19943,470.47966175007554 759.9000000000001,470.47966175007554Z" style="stroke: rgb(68, 68, 68); stroke-opacity: 1; fill: rgb(99, 110, 250); fill-opacity: 0.6; stroke-width: 0; opacity: 1;"/><path class="sankey-link" d="M759.9000000000001,567.0649725334142C946.19943,567.0649725334142 946.19943,551.6560569228775 1132.49886,551.6560569228775L1132.49886,585.6138405640384C946.19943,585.6138405640384 946.19943,601.0227561745751 759.9000000000001,601.0227561745751Z" style="stroke: rgb(68, 68, 68); stroke-opacity: 1; fill: rgb(99, 110, 250); fill-opacity: 0.6; stroke-width: 0; opacity: 1;"/><path class="sankey-link" d="M759.9000000000001,639.6111466758945C946.19943,639.6111466758945 946.19943,656.0552238418618 1132.49886,656.0552238418618L1132.49886,680.751793762706C946.19943,680.751793762706 946.19943,664.3077165967387 759.9000000000001,664.3077165967387Z" style="stroke: rgb(68, 68, 68); stroke-opacity: 1; fill: rgb(99, 110, 250); fill-opacity: 0.6; stroke-width: 0; opacity: 1;"/><path class="sankey-link" d="M759.9000000000001,100.94497166832473C946.19943,100.94497166832473 946.19943,81.68279942904103 1132.49886,81.68279942904103L1132.49886,87.85694190925211C946.19943,87.85694190925211 946.19943,107.11911414853581 759.9000000000001,107.11911414853581Z" style="stroke: rgb(68, 68, 68); stroke-opacity: 1; fill: rgb(255, 151, 255); fill-opacity: 0.6; stroke-width: 0; opacity: 1;"/><path class="sankey-link" d="M759.9000000000001,179.66528829101597C946.19943,179.66528829101597 946.19943,193.6288161252649 1132.49886,193.6288161252649L1132.49886,201.34649422552877C946.19943,201.34649422552877 946.19943,187.38296639127984 759.9000000000001,187.38296639127984Z" style="stroke: rgb(68, 68, 68); stroke-opacity: 1; fill: rgb(255, 151, 255); fill-opacity: 0.6; stroke-width: 0; opacity: 1;"/><path class="sankey-link" d="M759.9000000000001,277.6675764522687C946.19943,277.6675764522687 946.19943,265.9553916691899 1132.49886,265.9553916691899L1132.49886,267.4989272892427C946.19943,267.4989272892427 946.19943,279.2111120723215 759.9000000000001,279.2111120723215Z" style="stroke: rgb(68, 68, 68); stroke-opacity: 1; fill: rgb(255, 151, 255); fill-opacity: 0.6; stroke-width: 0; opacity: 1;"/><path class="sankey-link" d="M759.9000000000001,306.9947532332713C946.19943,306.9947532332713 946.19943,318.11491327479564 1132.49886,318.11491327479564L1132.49886,321.20198451490114C946.19943,321.20198451490114 946.19943,310.0818244733768 759.9000000000001,310.0818244733768Z" style="stroke: rgb(68, 68, 68); stroke-opacity: 1; fill: rgb(255, 151, 255); fill-opacity: 0.6; stroke-width: 0; opacity: 1;"/><path class="sankey-link" d="M759.9000000000001,410.2817725680176C946.19943,410.2817725680176 946.19943,398.50082356503293 1132.49886,398.50082356503293L1132.49886,406.21850166529674C946.19943,406.21850166529674 946.19943,417.9994506682814 759.9000000000001,417.9994506682814Z" style="stroke: rgb(68, 68, 68); stroke-opacity: 1; fill: rgb(255, 151, 255); fill-opacity: 0.6; stroke-width: 0; opacity: 1;"/><path class="sankey-link" d="M759.9000000000001,470.4796617500756C946.19943,470.4796617500756 946.19943,488.19849301440365 1132.49886,488.19849301440365L1132.49886,495.91617111466746C946.19943,495.91617111466746 946.19943,478.1973398503394 759.9000000000001,478.1973398503394Z" style="stroke: rgb(68, 68, 68); stroke-opacity: 1; fill: rgb(255, 151, 255); fill-opacity: 0.6; stroke-width: 0; opacity: 1;"/><path class="sankey-link" d="M759.9000000000001,601.0227561745752C946.19943,601.0227561745752 946.19943,585.6138405640385 1132.49886,585.6138405640385L1132.49886,590.2444474241969C946.19943,590.2444474241969 946.19943,605.6533630347336 759.9000000000001,605.6533630347336Z" style="stroke: rgb(68, 68, 68); stroke-opacity: 1; fill: rgb(255, 151, 255); fill-opacity: 0.6; stroke-width: 0; opacity: 1;"/><path class="sankey-link" d="M759.9000000000001,664.3077165967388C946.19943,664.3077165967388 946.19943,680.7517937627061 1132.49886,680.7517937627061L1132.49886,686.9259362429171C946.19943,686.9259362429171 946.19943,670.4818590769498 759.9000000000001,670.4818590769498Z" style="stroke: rgb(68, 68, 68); stroke-opacity: 1; fill: rgb(255, 151, 255); fill-opacity: 0.6; stroke-width: 0; opacity: 1;"/><path class="sankey-link" d="M759.9000000000001,107.1191141485358C946.19943,107.1191141485358 946.19943,87.8569419092521 1132.49886,87.8569419092521L1132.49886,89.40047752930488C946.19943,89.40047752930488 946.19943,108.66264976858858 759.9000000000001,108.66264976858858Z" style="stroke: rgb(68, 68, 68); stroke-opacity: 1; fill: rgb(255, 102, 146); fill-opacity: 0.6; stroke-width: 0; opacity: 1;"/><path class="sankey-link" d="M759.9000000000001,187.3829663912798C946.19943,187.3829663912798 946.19943,201.34649422552874 1132.49886,201.34649422552874L1132.49886,204.4335654656343C946.19943,204.4335654656343 946.19943,190.47003763138537 759.9000000000001,190.47003763138537Z" style="stroke: rgb(68, 68, 68); stroke-opacity: 1; fill: rgb(255, 102, 146); fill-opacity: 0.6; stroke-width: 0; opacity: 1;"/><path class="sankey-link" d="M759.9000000000001,279.21111207232144C946.19943,279.21111207232144 946.19943,267.49892728924266 1132.49886,267.49892728924266L1132.49886,269.04246290929547C946.19943,269.04246290929547 946.19943,280.75464769237425 759.9000000000001,280.75464769237425Z" style="stroke: rgb(68, 68, 68); stroke-opacity: 1; fill: rgb(255, 102, 146); fill-opacity: 0.6; stroke-width: 0; opacity: 1;"/><path class="sankey-link" d="M759.9000000000001,310.08182447337686C946.19943,310.08182447337686 946.19943,321.2019845149012 1132.49886,321.2019845149012L1132.49886,322.745520134954C946.19943,322.745520134954 946.19943,311.62536009342966 759.9000000000001,311.62536009342966Z" style="stroke: rgb(68, 68, 68); stroke-opacity: 1; fill: rgb(255, 102, 146); fill-opacity: 0.6; stroke-width: 0; opacity: 1;"/><path class="sankey-link" d="M759.9000000000001,417.99945066828144C946.19943,417.99945066828144 946.19943,406.2185016652968 1132.49886,406.2185016652968L1132.49886,410.8491085254551C946.19943,410.8491085254551 946.19943,422.63005752843975 759.9000000000001,422.63005752843975Z" style="stroke: rgb(68, 68, 68); stroke-opacity: 1; fill: rgb(255, 102, 146); fill-opacity: 0.6; stroke-width: 0; opacity: 1;"/><path class="sankey-link" d="M759.9000000000001,478.19733985033946C946.19943,478.19733985033946 946.19943,495.9161711146675 1132.49886,495.9161711146675L1132.49886,497.4597067347203C946.19943,497.4597067347203 946.19943,479.74087547039227 759.9000000000001,479.74087547039227Z" style="stroke: rgb(68, 68, 68); stroke-opacity: 1; fill: rgb(255, 102, 146); fill-opacity: 0.6; stroke-width: 0; opacity: 1;"/><path class="sankey-link" d="M759.9000000000001,670.48185907695C946.19943,670.48185907695 946.19943,686.9259362429173 1132.49886,686.9259362429173L1132.49886,696.1871499632339C946.19943,696.1871499632339 946.19943,679.7430727972666 759.9000000000001,679.7430727972666Z" style="stroke: rgb(68, 68, 68); stroke-opacity: 1; fill: rgb(255, 102, 146); fill-opacity: 0.6; stroke-width: 0; opacity: 1;"/><path class="sankey-link" d="M759.9000000000001,108.66264976858857C946.19943,108.66264976858857 946.19943,89.40047752930487 1132.49886,89.40047752930487L1132.49886,90.94401314935764C946.19943,90.94401314935764 946.19943,110.20618538864134 759.9000000000001,110.20618538864134Z" style="stroke: rgb(68, 68, 68); stroke-opacity: 1; fill: rgb(182, 232, 128); fill-opacity: 0.6; stroke-width: 0; opacity: 1;"/><path class="sankey-link" d="M759.9000000000001,422.63005752843975C946.19943,422.63005752843975 946.19943,410.8491085254551 1132.49886,410.8491085254551L1132.49886,412.3926441455079C946.19943,412.3926441455079 946.19943,424.17359314849256 759.9000000000001,424.17359314849256Z" style="stroke: rgb(68, 68, 68); stroke-opacity: 1; fill: rgb(182, 232, 128); fill-opacity: 0.6; stroke-width: 0; opacity: 1;"/></g><g class="sankey-node-set" style="cursor: ns-resize;"><g class="sankey-node" transform="translate(-7.499,15.886)" style="opacity: 1;"><rect class="node-rect" width="15" height="32.414248021108165" style="stroke-width: 0.5; stroke: rgb(0, 0, 0); stroke-opacity: 1; fill: rgb(128, 128, 128); fill-opacity: 1;"/><text class="node-label" data-notex="1" x="0" y="0" text-anchor="start" transform="translate(18.25,20.40712401055408)" style="cursor: default; font-family: 'Open Sans', verdana, arial, sans-serif; font-size: 12px; fill: rgb(42, 63, 95); fill-opacity: 1; white-space: pre; text-shadow: white 1px 1px 1px, white -1px -1px 1px, white 1px -1px 1px, white -1px 1px 1px;">21271R</text></g><g class="sankey-node" transform="translate(-7.499,75.017)" style="opacity: 1;"><rect class="node-rect" width="15" height="236.1609498680737" style="stroke-width: 0.5; stroke: rgb(0, 0, 0); stroke-opacity: 1; fill: rgb(128, 128, 128); fill-opacity: 1;"/><text class="node-label" data-notex="1" x="0" y="0" text-anchor="start" transform="translate(18.25,122.28047493403685)" style="cursor: default; font-family: 'Open Sans', verdana, arial, sans-serif; font-size: 12px; fill: rgb(42, 63, 95); fill-opacity: 1; white-space: pre; text-shadow: white 1px 1px 1px, white -1px -1px 1px, white 1px -1px 1px, white -1px 1px 1px;">21272R</text></g><g class="sankey-node" transform="translate(-7.499,339.381)" style="opacity: 1;"><rect class="node-rect" width="15" height="64.82849604221644" style="stroke-width: 0.5; stroke: rgb(0, 0, 0); stroke-opacity: 1; fill: rgb(128, 128, 128); fill-opacity: 1;"/><text class="node-label" data-notex="1" x="0" y="0" text-anchor="start" transform="translate(18.25,36.614248021108224)" style="cursor: default; font-family: 'Open Sans', verdana, arial, sans-serif; font-size: 12px; fill: rgb(42, 63, 95); fill-opacity: 1; white-space: pre; text-shadow: white 1px 1px 1px, white -1px -1px 1px, white 1px -1px 1px, white -1px 1px 1px;">21965RL</text></g><g class="sankey-node" transform="translate(-7.499,427.246)" style="opacity: 1;"><rect class="node-rect" width="15" height="123.48284960422126" style="stroke-width: 0.5; stroke: rgb(0, 0, 0); stroke-opacity: 1; fill: rgb(128, 128, 128); fill-opacity: 1;"/><text class="node-label" data-notex="1" x="0" y="0" text-anchor="start" transform="translate(18.25,65.94142480211063)" style="cursor: default; font-family: 'Open Sans', verdana, arial, sans-serif; font-size: 12px; fill: rgb(42, 63, 95); fill-opacity: 1; white-space: pre; text-shadow: white 1px 1px 1px, white -1px -1px 1px, white 1px -1px 1px, white -1px 1px 1px;">22384</text></g><g class="sankey-node" transform="translate(-7.499,576.454)" style="opacity: 1;"><rect class="node-rect" width="15" height="123.48284960422166" style="stroke-width: 0.5; stroke: rgb(0, 0, 0); stroke-opacity: 1; fill: rgb(128, 128, 128); fill-opacity: 1;"/><text class="node-label" data-notex="1" x="0" y="0" text-anchor="start" transform="translate(18.25,65.94142480211083)" style="cursor: default; font-family: 'Open Sans', verdana, arial, sans-serif; font-size: 12px; fill: rgb(42, 63, 95); fill-opacity: 1; white-space: pre; text-shadow: white 1px 1px 1px, white -1px -1px 1px, white 1px -1px 1px, white -1px 1px 1px;">22670</text></g><g class="sankey-node" transform="translate(744.900,42.291)" style="opacity: 1;"><rect class="node-rect" width="15" height="148.17941952506604" style="stroke-width: 0.5; stroke: rgb(0, 0, 0); stroke-opacity: 1; fill: rgb(128, 128, 128); fill-opacity: 1;"/><text class="node-label" data-notex="1" x="0" y="0" text-anchor="start" transform="translate(18.25,78.28970976253302)" style="cursor: default; font-family: 'Open Sans', verdana, arial, sans-serif; font-size: 12px; fill: rgb(42, 63, 95); fill-opacity: 1; white-space: pre; text-shadow: white 1px 1px 1px, white -1px -1px 1px, white 1px -1px 1px, white -1px 1px 1px;">dig</text></g><g class="sankey-node" transform="translate(744.900,245.253)" style="opacity: 1;"><rect class="node-rect" width="15" height="66.37203166226914" style="stroke-width: 0.5; stroke: rgb(0, 0, 0); stroke-opacity: 1; fill: rgb(128, 128, 128); fill-opacity: 1;"/><text class="node-label" data-notex="1" x="0" y="0" text-anchor="start" transform="translate(18.25,37.38601583113457)" style="cursor: default; font-family: 'Open Sans', verdana, arial, sans-serif; font-size: 12px; fill: rgb(42, 63, 95); fill-opacity: 1; white-space: pre; text-shadow: white 1px 1px 1px, white -1px -1px 1px, white 1px -1px 1px, white -1px 1px 1px;">groom</text></g><g class="sankey-node" transform="translate(744.900,360.889)" style="opacity: 1;"><rect class="node-rect" width="15" height="118.85224274406346" style="stroke-width: 0.5; stroke: rgb(0, 0, 0); stroke-opacity: 1; fill: rgb(128, 128, 128); fill-opacity: 1;"/><text class="node-label" data-notex="1" x="0" y="0" text-anchor="start" transform="translate(18.25,63.62612137203173)" style="cursor: default; font-family: 'Open Sans', verdana, arial, sans-serif; font-size: 12px; fill: rgb(42, 63, 95); fill-opacity: 1; white-space: pre; text-shadow: white 1px 1px 1px, white -1px -1px 1px, white 1px -1px 1px, white -1px 1px 1px;">move</text></g><g class="sankey-node" transform="translate(744.900,542.368)" style="opacity: 1;"><rect class="node-rect" width="15" height="137.3746701846967" style="stroke-width: 0.5; stroke: rgb(0, 0, 0); stroke-opacity: 1; fill: rgb(128, 128, 128); fill-opacity: 1;"/><text class="node-label" data-notex="1" x="0" y="0" text-anchor="start" transform="translate(18.25,72.88733509234835)" style="cursor: default; font-family: 'Open Sans', verdana, arial, sans-serif; font-size: 12px; fill: rgb(42, 63, 95); fill-opacity: 1; white-space: pre; text-shadow: white 1px 1px 1px, white -1px -1px 1px, white 1px -1px 1px, white -1px 1px 1px;">still</text></g><g class="sankey-node" transform="translate(1132.499,23.028)" style="opacity: 1;"><rect class="node-rect" width="15" height="67.91556728232194" style="stroke-width: 0.5; stroke: rgb(0, 0, 0); stroke-opacity: 1; fill: rgb(128, 128, 128); fill-opacity: 1;"/><text class="node-label" data-notex="1" x="0" y="0" text-anchor="end" transform="translate(-3.25,38.157783641160975)" style="cursor: default; font-family: 'Open Sans', verdana, arial, sans-serif; font-size: 12px; fill: rgb(42, 63, 95); fill-opacity: 1; white-space: pre; text-shadow: white 1px 1px 1px, white -1px -1px 1px, white 1px -1px 1px, white -1px 1px 1px;">dig-activated</text></g><g class="sankey-node" transform="translate(1132.499,124.170)" style="opacity: 1;"><rect class="node-rect" width="15" height="80.26385224274405" style="stroke-width: 0.5; stroke: rgb(0, 0, 0); stroke-opacity: 1; fill: rgb(128, 128, 128); fill-opacity: 1;"/><text class="node-label" data-notex="1" x="0" y="0" text-anchor="end" transform="translate(-3.25,44.33192612137202)" style="cursor: default; font-family: 'Open Sans', verdana, arial, sans-serif; font-size: 12px; fill: rgb(42, 63, 95); fill-opacity: 1; white-space: pre; text-shadow: white 1px 1px 1px, white -1px -1px 1px, white 1px -1px 1px, white -1px 1px 1px;">dig-suppressed</text></g><g class="sankey-node" transform="translate(1132.499,233.541)" style="opacity: 1;"><rect class="node-rect" width="15" height="35.501319261213695" style="stroke-width: 0.5; stroke: rgb(0, 0, 0); stroke-opacity: 1; fill: rgb(128, 128, 128); fill-opacity: 1;"/><text class="node-label" data-notex="1" x="0" y="0" text-anchor="end" transform="translate(-3.25,21.950659630606847)" style="cursor: default; font-family: 'Open Sans', verdana, arial, sans-serif; font-size: 12px; fill: rgb(42, 63, 95); fill-opacity: 1; white-space: pre; text-shadow: white 1px 1px 1px, white -1px -1px 1px, white 1px -1px 1px, white -1px 1px 1px;">groom-activated</text></g><g class="sankey-node" transform="translate(1132.499,291.875)" style="opacity: 1;"><rect class="node-rect" width="15" height="30.87071240105547" style="stroke-width: 0.5; stroke: rgb(0, 0, 0); stroke-opacity: 1; fill: rgb(128, 128, 128); fill-opacity: 1;"/><text class="node-label" data-notex="1" x="0" y="0" text-anchor="end" transform="translate(-3.25,19.635356200527735)" style="cursor: default; font-family: 'Open Sans', verdana, arial, sans-serif; font-size: 12px; fill: rgb(42, 63, 95); fill-opacity: 1; white-space: pre; text-shadow: white 1px 1px 1px, white -1px -1px 1px, white 1px -1px 1px, white -1px 1px 1px;">groom-suppressed</text></g><g class="sankey-node" transform="translate(1132.499,349.108)" style="opacity: 1;"><rect class="node-rect" width="15" height="63.28496042216386" style="stroke-width: 0.5; stroke: rgb(0, 0, 0); stroke-opacity: 1; fill: rgb(128, 128, 128); fill-opacity: 1;"/><text class="node-label" data-notex="1" x="0" y="0" text-anchor="end" transform="translate(-3.25,35.842480211081934)" style="cursor: default; font-family: 'Open Sans', verdana, arial, sans-serif; font-size: 12px; fill: rgb(42, 63, 95); fill-opacity: 1; white-space: pre; text-shadow: white 1px 1px 1px, white -1px -1px 1px, white 1px -1px 1px, white -1px 1px 1px;">move-activated</text></g><g class="sankey-node" transform="translate(1132.499,441.892)" style="opacity: 1;"><rect class="node-rect" width="15" height="55.56728232189994" style="stroke-width: 0.5; stroke: rgb(0, 0, 0); stroke-opacity: 1; fill: rgb(128, 128, 128); fill-opacity: 1;"/><text class="node-label" data-notex="1" x="0" y="0" text-anchor="end" transform="translate(-3.25,31.98364116094997)" style="cursor: default; font-family: 'Open Sans', verdana, arial, sans-serif; font-size: 12px; fill: rgb(42, 63, 95); fill-opacity: 1; white-space: pre; text-shadow: white 1px 1px 1px, white -1px -1px 1px, white 1px -1px 1px, white -1px 1px 1px;">move-suppressed</text></g><g class="sankey-node" transform="translate(1132.499,526.959)" style="opacity: 1;"><rect class="node-rect" width="15" height="63.28496042216352" style="stroke-width: 0.5; stroke: rgb(0, 0, 0); stroke-opacity: 1; fill: rgb(128, 128, 128); fill-opacity: 1;"/><text class="node-label" data-notex="1" x="0" y="0" text-anchor="end" transform="translate(-3.25,35.842480211081764)" style="cursor: default; font-family: 'Open Sans', verdana, arial, sans-serif; font-size: 12px; fill: rgb(42, 63, 95); fill-opacity: 1; white-space: pre; text-shadow: white 1px 1px 1px, white -1px -1px 1px, white 1px -1px 1px, white -1px 1px 1px;">still-activated</text></g><g class="sankey-node" transform="translate(1132.499,622.097)" style="opacity: 1;"><rect class="node-rect" width="15" height="74.08970976253295" style="stroke-width: 0.5; stroke: rgb(0, 0, 0); stroke-opacity: 1; fill: rgb(128, 128, 128); fill-opacity: 1;"/><text class="node-label" data-notex="1" x="0" y="0" text-anchor="end" transform="translate(-3.25,41.24485488126648)" style="cursor: default; font-family: 'Open Sans', verdana, arial, sans-serif; font-size: 12px; fill: rgb(42, 63, 95); fill-opacity: 1; white-space: pre; text-shadow: white 1px 1px 1px, white -1px -1px 1px, white 1px -1px 1px, white -1px 1px 1px;">still-suppressed</text></g><g class="sankey-node" transform="translate(368.700,13.752)" style="opacity: 1;"><rect class="node-rect" width="15" height="32.41424802110828" style="stroke-width: 0.5; stroke: rgb(0, 0, 0); stroke-opacity: 1; fill: rgb(25, 211, 243); fill-opacity: 1;"/><text class="node-label" data-notex="1" x="0" y="0" text-anchor="start" transform="translate(18.25,20.40712401055414)" style="cursor: default; font-family: 'Open Sans', verdana, arial, sans-serif; font-size: 12px; fill: rgb(42, 63, 95); fill-opacity: 1; white-space: pre; text-shadow: white 1px 1px 1px, white -1px -1px 1px, white 1px -1px 1px, white -1px 1px 1px;">BLA</text></g><g class="sankey-node" transform="translate(368.700,58.035)" style="opacity: 1;"><rect class="node-rect" width="15" height="94.15567282321896" style="stroke-width: 0.5; stroke: rgb(0, 0, 0); stroke-opacity: 1; fill: rgb(239, 85, 59); fill-opacity: 1;"/><text class="node-label" data-notex="1" x="0" y="0" text-anchor="start" transform="translate(18.25,51.277836411609485)" style="cursor: default; font-family: 'Open Sans', verdana, arial, sans-serif; font-size: 12px; fill: rgb(42, 63, 95); fill-opacity: 1; white-space: pre; text-shadow: white 1px 1px 1px, white -1px -1px 1px, white 1px -1px 1px, white -1px 1px 1px;">Cla</text></g><g class="sankey-node" transform="translate(368.700,163.503)" style="opacity: 1;"><rect class="node-rect" width="15" height="60.197889182058134" style="stroke-width: 0.5; stroke: rgb(0, 0, 0); stroke-opacity: 1; fill: rgb(0, 204, 150); fill-opacity: 1;"/><text class="node-label" data-notex="1" x="0" y="0" text-anchor="start" transform="translate(18.25,34.29894459102907)" style="cursor: default; font-family: 'Open Sans', verdana, arial, sans-serif; font-size: 12px; fill: rgb(42, 63, 95); fill-opacity: 1; white-space: pre; text-shadow: white 1px 1px 1px, white -1px -1px 1px, white 1px -1px 1px, white -1px 1px 1px;">LC</text></g><g class="sankey-node" transform="translate(368.700,236.187)" style="opacity: 1;"><rect class="node-rect" width="15" height="35.50131926121341" style="stroke-width: 0.5; stroke: rgb(0, 0, 0); stroke-opacity: 1; fill: rgb(254, 203, 82); fill-opacity: 1;"/><text class="node-label" data-notex="1" x="0" y="0" text-anchor="start" transform="translate(18.25,21.950659630606705)" style="cursor: default; font-family: 'Open Sans', verdana, arial, sans-serif; font-size: 12px; fill: rgb(42, 63, 95); fill-opacity: 1; white-space: pre; text-shadow: white 1px 1px 1px, white -1px -1px 1px, white 1px -1px 1px, white -1px 1px 1px;">LHyp</text></g><g class="sankey-node" transform="translate(368.700,284.576)" style="opacity: 1;"><rect class="node-rect" width="15" height="40.131926121371635" style="stroke-width: 0.5; stroke: rgb(0, 0, 0); stroke-opacity: 1; fill: rgb(255, 161, 90); fill-opacity: 1;"/><text class="node-label" data-notex="1" x="0" y="0" text-anchor="start" transform="translate(18.25,24.265963060685817)" style="cursor: default; font-family: 'Open Sans', verdana, arial, sans-serif; font-size: 12px; fill: rgb(42, 63, 95); fill-opacity: 1; white-space: pre; text-shadow: white 1px 1px 1px, white -1px -1px 1px, white 1px -1px 1px, white -1px 1px 1px;">NAc</text></g><g class="sankey-node" transform="translate(368.700,336.638)" style="opacity: 1;"><rect class="node-rect" width="15" height="83.35092348284934" style="stroke-width: 0.5; stroke: rgb(0, 0, 0); stroke-opacity: 1; fill: rgb(171, 99, 250); fill-opacity: 1;"/><text class="node-label" data-notex="1" x="0" y="0" text-anchor="start" transform="translate(18.25,45.87546174142467)" style="cursor: default; font-family: 'Open Sans', verdana, arial, sans-serif; font-size: 12px; fill: rgb(42, 63, 95); fill-opacity: 1; white-space: pre; text-shadow: white 1px 1px 1px, white -1px -1px 1px, white 1px -1px 1px, white -1px 1px 1px;">Str</text></g><g class="sankey-node" transform="translate(368.700,429.666)" style="opacity: 1;"><rect class="node-rect" width="15" height="152.81002638522438" style="stroke-width: 0.5; stroke: rgb(0, 0, 0); stroke-opacity: 1; fill: rgb(99, 110, 250); fill-opacity: 1;"/><text class="node-label" data-notex="1" x="0" y="0" text-anchor="start" transform="translate(18.25,80.60501319261219)" style="cursor: default; font-family: 'Open Sans', verdana, arial, sans-serif; font-size: 12px; fill: rgb(42, 63, 95); fill-opacity: 1; white-space: pre; text-shadow: white 1px 1px 1px, white -1px -1px 1px, white 1px -1px 1px, white -1px 1px 1px;">VTA</text></g><g class="sankey-node" transform="translate(368.700,592.770)" style="opacity: 1;"><rect class="node-rect" width="15" height="52.48021108179432" style="stroke-width: 0.5; stroke: rgb(0, 0, 0); stroke-opacity: 1; fill: rgb(255, 151, 255); fill-opacity: 1;"/><text class="node-label" data-notex="1" x="0" y="0" text-anchor="start" transform="translate(18.25,30.44010554089716)" style="cursor: default; font-family: 'Open Sans', verdana, arial, sans-serif; font-size: 12px; fill: rgb(42, 63, 95); fill-opacity: 1; white-space: pre; text-shadow: white 1px 1px 1px, white -1px -1px 1px, white 1px -1px 1px, white -1px 1px 1px;">cPFC</text></g><g class="sankey-node" transform="translate(368.700,658.014)" style="opacity: 1;"><rect class="node-rect" width="15" height="29.327176781002663" style="stroke-width: 0.5; stroke: rgb(0, 0, 0); stroke-opacity: 1; fill: rgb(255, 102, 146); fill-opacity: 1;"/><text class="node-label" data-notex="1" x="0" y="0" text-anchor="start" transform="translate(18.25,18.86358839050133)" style="cursor: default; font-family: 'Open Sans', verdana, arial, sans-serif; font-size: 12px; fill: rgb(42, 63, 95); fill-opacity: 1; white-space: pre; text-shadow: white 1px 1px 1px, white -1px -1px 1px, white 1px -1px 1px, white -1px 1px 1px;">dPAG</text></g><g class="sankey-node" transform="translate(368.700,701.062)" style="opacity: 1;"><rect class="node-rect" width="15" height="4.630606860158423" style="stroke-width: 0.5; stroke: rgb(0, 0, 0); stroke-opacity: 1; fill: rgb(182, 232, 128); fill-opacity: 1;"/><text class="node-label" data-notex="1" x="0" y="0" text-anchor="start" transform="translate(18.25,6.515303430079211)" style="cursor: default; font-family: 'Open Sans', verdana, arial, sans-serif; font-size: 12px; fill: rgb(42, 63, 95); fill-opacity: 1; white-space: pre; text-shadow: white 1px 1px 1px, white -1px -1px 1px, white 1px -1px 1px, white -1px 1px 1px;">lHb</text></g></g></g><defs id="topdefs-f95af5"><g class="clips"/></defs><g class="layer-above"><g class="imagelayer"/><g class="shapelayer"/></g><g class="infolayer"><g class="g-gtitle"/><g class="first-render"/></g></svg>