<svg class="main-svg" xmlns="http://www.w3.org/2000/svg" xmlns:xlink="http://www.w3.org/1999/xlink" width="1300" height="900" style="" viewBox="0 0 1300 900"><rect x="0" y="0" width="1300" height="900" style="fill: rgb(255, 255, 255); fill-opacity: 1;"/><defs id="defs-97c123"><g class="clips"/><g class="gradients"/><g class="patterns"/></defs><g class="bglayer"/><g class="layer-below"><g class="imagelayer"/><g class="shapelayer"/></g><g class="cartesianlayer"/><g class="polarlayer"/><g class="smithlayer"/><g class="ternarylayer"/><g class="geolayer"/><g class="funnelarealayer"/><g class="pielayer"/><g class="iciclelayer"/><g class="treemaplayer"/><g class="sunburstlayer"/><g class="glimages"/><g class="sankey" transform="translate(80,100)matrix(1 0 0 1 0 0)" style="box-sizing: content-box; position: absolute; left: 0px; shape-rendering: geometricprecision; pointer-events: none;"><g class="sankey-links" style="fill: none;"><path class="sankey-link" d="M7.50114,20.049499374217703C188.10057000000003,20.049499374217703 188.10057000000003,59.9770588235296 368.70000000000005,59.9770588235296L368.70000000000005,68.00647058823549C188.10057000000003,68.00647058823549 188.10057000000003,28.078911138923587 7.50114,28.078911138923587Z" style="stroke: rgb(68, 68, 68); stroke-opacity: 1; fill: rgb(239, 85, 59); fill-opacity: 0.6; stroke-width: 0; opacity: 1;"/><path class="sankey-link" d="M7.50114,28.078911138923587C188.10057000000003,28.078911138923587 188.10057000000003,164.21470588235286 368.70000000000005,164.21470588235286L368.70000000000005,166.5088235294117C188.10057000000003,166.5088235294117 188.10057000000003,30.373028785982413 7.50114,30.373028785982413Z" style="stroke: rgb(68, 68, 68); stroke-opacity: 1; fill: rgb(0, 204, 150); fill-opacity: 0.6; stroke-width: 0; opacity: 1;"/><path class="sankey-link" d="M7.50114,30.37302878598241C188.10057000000003,30.37302878598241 188.10057000000003,284.894117647059 368.70000000000005,284.894117647059L368.70000000000005,289.48235294117666C188.10057000000003,289.48235294117666 188.10057000000003,34.96126408010006 7.50114,34.96126408010006Z" style="stroke: rgb(68, 68, 68); stroke-opacity: 1; fill: rgb(255, 161, 90); fill-opacity: 0.6; stroke-width: 0; opacity: 1;"/><path class="sankey-link" d="M7.50114,34.96126408010006C188.10057000000003,34.96126408010006 188.10057000000003,333.7288235294119 368.70000000000005,333.7288235294119L368.70000000000005,341.75823529411775C188.10057000000003,341.75823529411775 188.10057000000003,42.99067584480594 7.50114,42.99067584480594Z" style="stroke: rgb(68, 68, 68); stroke-opacity: 1; fill: rgb(171, 99, 250); fill-opacity: 0.6; stroke-width: 0; opacity: 1;"/><path class="sankey-link" d="M7.50114,42.99067584480594C188.10057000000003,42.99067584480594 188.10057000000003,420.1411764705882 368.70000000000005,420.1411764705882L368.70000000000005,421.2882352941176C188.10057000000003,421.2882352941176 188.10057000000003,44.13773466833535 7.50114,44.13773466833535Z" style="stroke: rgb(68, 68, 68); stroke-opacity: 1; fill: rgb(99, 110, 250); fill-opacity: 0.6; stroke-width: 0; opacity: 1;"/><path class="sankey-link" d="M7.50114,105.34787234042551C188.10057000000003,105.34787234042551 188.10057000000003,13.711764705882311 368.70000000000005,13.711764705882311L368.70000000000005,35.505882352941136C188.10057000000003,35.505882352941136 188.10057000000003,127.14198998748432 7.50114,127.14198998748432Z" style="stroke: rgb(68, 68, 68); stroke-opacity: 1; fill: rgb(25, 211, 243); fill-opacity: 0.6; stroke-width: 0; opacity: 1;"/><path class="sankey-link" d="M7.50114,127.14198998748432C188.10057000000003,127.14198998748432 188.10057000000003,68.00647058823549 368.70000000000005,68.00647058823549L368.70000000000005,96.68294117647079C188.10057000000003,96.68294117647079 188.10057000000003,155.81846057571963 7.50114,155.81846057571963Z" style="stroke: rgb(68, 68, 68); stroke-opacity: 1; fill: rgb(239, 85, 59); fill-opacity: 0.6; stroke-width: 0; opacity: 1;"/><path class="sankey-link" d="M7.50114,155.81846057571963C188.10057000000003,155.81846057571963 188.10057000000003,166.50882352941167 368.70000000000005,166.50882352941167L368.70000000000005,192.89117647058814C188.10057000000003,192.89117647058814 188.10057000000003,182.2008135168961 7.50114,182.2008135168961Z" style="stroke: rgb(68, 68, 68); stroke-opacity: 1; fill: rgb(0, 204, 150); fill-opacity: 0.6; stroke-width: 0; opacity: 1;"/><path class="sankey-link" d="M7.50114,182.2008135168961C188.10057000000003,182.2008135168961 188.10057000000003,289.4823529411766 368.70000000000005,289.4823529411766L368.70000000000005,304.3941176470589C188.10057000000003,304.3941176470589 188.10057000000003,197.11257822277847 7.50114,197.11257822277847Z" style="stroke: rgb(68, 68, 68); stroke-opacity: 1; fill: rgb(255, 161, 90); fill-opacity: 0.6; stroke-width: 0; opacity: 1;"/><path class="sankey-link" d="M7.50114,197.11257822277844C188.10057000000003,197.11257822277844 188.10057000000003,341.75823529411775 368.70000000000005,341.75823529411775L368.70000000000005,376.1700000000001C188.10057000000003,376.1700000000001 188.10057000000003,231.52434292866076 7.50114,231.52434292866076Z" style="stroke: rgb(68, 68, 68); stroke-opacity: 1; fill: rgb(171, 99, 250); fill-opacity: 0.6; stroke-width: 0; opacity: 1;"/><path class="sankey-link" d="M7.50114,231.5243429286608C188.10057000000003,231.5243429286608 188.10057000000003,421.2882352941176 368.70000000000005,421.2882352941176L368.70000000000005,437.3470588235293C188.10057000000003,437.3470588235293 188.10057000000003,247.58316645807255 7.50114,247.58316645807255Z" style="stroke: rgb(68, 68, 68); stroke-opacity: 1; fill: rgb(99, 110, 250); fill-opacity: 0.6; stroke-width: 0; opacity: 1;"/><path class="sankey-link" d="M7.50114,247.58316645807258C188.10057000000003,247.58316645807258 188.10057000000003,595.2900000000001 368.70000000000005,595.2900000000001L368.70000000000005,614.7900000000001C188.10057000000003,614.7900000000001 188.10057000000003,267.0831664580726 7.50114,267.0831664580726Z" style="stroke: rgb(68, 68, 68); stroke-opacity: 1; fill: rgb(255, 151, 255); fill-opacity: 0.6; stroke-width: 0; opacity: 1;"/><path class="sankey-link" d="M7.50114,267.0831664580726C188.10057000000003,267.0831664580726 188.10057000000003,664.2900000000003 368.70000000000005,664.2900000000003L368.70000000000005,674.613529411765C188.10057000000003,674.613529411765 188.10057000000003,277.40669586983734 7.50114,277.40669586983734Z" style="stroke: rgb(68, 68, 68); stroke-opacity: 1; fill: rgb(255, 102, 146); fill-opacity: 0.6; stroke-width: 0; opacity: 1;"/><path class="sankey-link" d="M7.50114,277.4066958698373C188.10057000000003,277.4066958698373 188.10057000000003,702.2276470588237 368.70000000000005,702.2276470588237L368.70000000000005,705.668823529412C188.10057000000003,705.668823529412 188.10057000000003,280.84787234042557 7.50114,280.84787234042557Z" style="stroke: rgb(68, 68, 68); stroke-opacity: 1; fill: rgb(182, 232, 128); fill-opacity: 0.6; stroke-width: 0; opacity: 1;"/><path class="sankey-link" d="M7.50114,347.7075093867335C188.10057000000003,347.7075093867335 188.10057000000003,35.50588235294113 368.70000000000005,35.50588235294113L368.70000000000005,37.799999999999955C188.10057000000003,37.799999999999955 188.10057000000003,350.00162703379226 7.50114,350.00162703379226Z" style="stroke: rgb(68, 68, 68); stroke-opacity: 1; fill: rgb(25, 211, 243); fill-opacity: 0.6; stroke-width: 0; opacity: 1;"/><path class="sankey-link" d="M7.50114,350.0016270337923C188.10057000000003,350.0016270337923 188.10057000000003,96.68294117647079 368.70000000000005,96.68294117647079L368.70000000000005,113.88882352941195C188.10057000000003,113.88882352941195 188.10057000000003,367.20750938673353 7.50114,367.20750938673353Z" style="stroke: rgb(68, 68, 68); stroke-opacity: 1; fill: rgb(239, 85, 59); fill-opacity: 0.6; stroke-width: 0; opacity: 1;"/><path class="sankey-link" d="M7.50114,367.2075093867335C188.10057000000003,367.2075093867335 188.10057000000003,192.89117647058814 368.70000000000005,192.89117647058814L368.70000000000005,197.47941176470576C188.10057000000003,197.47941176470576 188.10057000000003,371.79574468085116 7.50114,371.79574468085116Z" style="stroke: rgb(68, 68, 68); stroke-opacity: 1; fill: rgb(0, 204, 150); fill-opacity: 0.6; stroke-width: 0; opacity: 1;"/><path class="sankey-link" d="M7.50114,371.7957446808511C188.10057000000003,371.7957446808511 188.10057000000003,304.394117647059 368.70000000000005,304.394117647059L368.70000000000005,314.71764705882373C188.10057000000003,314.71764705882373 188.10057000000003,382.11927409261585 7.50114,382.11927409261585Z" style="stroke: rgb(68, 68, 68); stroke-opacity: 1; fill: rgb(255, 161, 90); fill-opacity: 0.6; stroke-width: 0; opacity: 1;"/><path class="sankey-link" d="M7.50114,382.1192740926158C188.10057000000003,382.1192740926158 188.10057000000003,376.1700000000001 368.70000000000005,376.1700000000001L368.70000000000005,377.31705882352946C188.10057000000003,377.31705882352946 188.10057000000003,383.2663329161452 7.50114,383.2663329161452Z" style="stroke: rgb(68, 68, 68); stroke-opacity: 1; fill: rgb(171, 99, 250); fill-opacity: 0.6; stroke-width: 0; opacity: 1;"/><path class="sankey-link" d="M7.50114,383.2663329161452C188.10057000000003,383.2663329161452 188.10057000000003,437.3470588235294 368.70000000000005,437.3470588235294L368.70000000000005,439.64117647058816C188.10057000000003,439.64117647058816 188.10057000000003,385.560450563204 7.50114,385.560450563204Z" style="stroke: rgb(68, 68, 68); stroke-opacity: 1; fill: rgb(99, 110, 250); fill-opacity: 0.6; stroke-width: 0; opacity: 1;"/><path class="sankey-link" d="M7.50114,385.56045056320403C188.10057000000003,385.56045056320403 188.10057000000003,614.7900000000001 368.70000000000005,614.7900000000001L368.70000000000005,618.2311764705884C188.10057000000003,618.2311764705884 188.10057000000003,389.0016270337923 7.50114,389.0016270337923Z" style="stroke: rgb(68, 68, 68); stroke-opacity: 1; fill: rgb(255, 151, 255); fill-opacity: 0.6; stroke-width: 0; opacity: 1;"/><path class="sankey-link" d="M7.50114,389.00162703379226C188.10057000000003,389.00162703379226 188.10057000000003,674.6135294117651 368.70000000000005,674.6135294117651L368.70000000000005,681.4958823529416C188.10057000000003,681.4958823529416 188.10057000000003,395.8839799749687 7.50114,395.8839799749687Z" style="stroke: rgb(68, 68, 68); stroke-opacity: 1; fill: rgb(255, 102, 146); fill-opacity: 0.6; stroke-width: 0; opacity: 1;"/><path class="sankey-link" d="M7.50114,443.1048811013768C188.10057000000003,443.1048811013768 188.10057000000003,113.88882352941195 368.70000000000005,113.88882352941195L368.70000000000005,121.91823529411784C188.10057000000003,121.91823529411784 188.10057000000003,451.13429286608266 7.50114,451.13429286608266Z" style="stroke: rgb(68, 68, 68); stroke-opacity: 1; fill: rgb(239, 85, 59); fill-opacity: 0.6; stroke-width: 0; opacity: 1;"/><path class="sankey-link" d="M7.50114,451.13429286608266C188.10057000000003,451.13429286608266 188.10057000000003,197.4794117647058 368.70000000000005,197.4794117647058L368.70000000000005,203.21470588235286C188.10057000000003,203.21470588235286 188.10057000000003,456.86958698372973 7.50114,456.86958698372973Z" style="stroke: rgb(68, 68, 68); stroke-opacity: 1; fill: rgb(0, 204, 150); fill-opacity: 0.6; stroke-width: 0; opacity: 1;"/><path class="sankey-link" d="M7.50114,456.86958698372973C188.10057000000003,456.86958698372973 188.10057000000003,237.50470588235294 368.70000000000005,237.50470588235294L368.70000000000005,248.97529411764708C188.10057000000003,248.97529411764708 188.10057000000003,468.3401752190239 7.50114,468.3401752190239Z" style="stroke: rgb(68, 68, 68); stroke-opacity: 1; fill: rgb(254, 203, 82); fill-opacity: 0.6; stroke-width: 0; opacity: 1;"/><path class="sankey-link" d="M7.50114,468.3401752190239C188.10057000000003,468.3401752190239 188.10057000000003,377.31705882352946 368.70000000000005,377.31705882352946L368.70000000000005,386.4935294117647C188.10057000000003,386.4935294117647 188.10057000000003,477.5166458072591 7.50114,477.5166458072591Z" style="stroke: rgb(68, 68, 68); stroke-opacity: 1; fill: rgb(171, 99, 250); fill-opacity: 0.6; stroke-width: 0; opacity: 1;"/><path class="sankey-link" d="M7.50114,477.5166458072592C188.10057000000003,477.5166458072592 188.10057000000003,439.6411764705882 368.70000000000005,439.6411764705882L368.70000000000005,486.6705882352941C188.10057000000003,486.6705882352941 188.10057000000003,524.5460575719651 7.50114,524.5460575719651Z" style="stroke: rgb(68, 68, 68); stroke-opacity: 1; fill: rgb(99, 110, 250); fill-opacity: 0.6; stroke-width: 0; opacity: 1;"/><path class="sankey-link" d="M7.50114,524.5460575719651C188.10057000000003,524.5460575719651 188.10057000000003,618.2311764705884 368.70000000000005,618.2311764705884L368.70000000000005,626.2605882352942C188.10057000000003,626.2605882352942 188.10057000000003,532.575469336671 7.50114,532.575469336671Z" style="stroke: rgb(68, 68, 68); stroke-opacity: 1; fill: rgb(255, 151, 255); fill-opacity: 0.6; stroke-width: 0; opacity: 1;"/><path class="sankey-link" d="M7.50114,532.575469336671C188.10057000000003,532.575469336671 188.10057000000003,681.4958823529415 368.70000000000005,681.4958823529415L368.70000000000005,683.7900000000003C188.10057000000003,683.7900000000003 188.10057000000003,534.8695869837297 7.50114,534.8695869837297Z" style="stroke: rgb(68, 68, 68); stroke-opacity: 1; fill: rgb(255, 102, 146); fill-opacity: 0.6; stroke-width: 0; opacity: 1;"/><path class="sankey-link" d="M7.50114,592.3133917396747C188.10057000000003,592.3133917396747 188.10057000000003,121.91823529411784 368.70000000000005,121.91823529411784L368.70000000000005,129.94764705882372C188.10057000000003,129.94764705882372 188.10057000000003,600.3428035043805 7.50114,600.3428035043805Z" style="stroke: rgb(68, 68, 68); stroke-opacity: 1; fill: rgb(239, 85, 59); fill-opacity: 0.6; stroke-width: 0; opacity: 1;"/><path class="sankey-link" d="M7.50114,600.3428035043805C188.10057000000003,600.3428035043805 188.10057000000003,203.21470588235286 368.70000000000005,203.21470588235286L368.70000000000005,208.94999999999993C188.10057000000003,208.94999999999993 188.10057000000003,606.0780976220276 7.50114,606.0780976220276Z" style="stroke: rgb(68, 68, 68); stroke-opacity: 1; fill: rgb(0, 204, 150); fill-opacity: 0.6; stroke-width: 0; opacity: 1;"/><path class="sankey-link" d="M7.50114,606.0780976220276C188.10057000000003,606.0780976220276 188.10057000000003,248.97529411764702 368.70000000000005,248.97529411764702L368.70000000000005,260.44588235294117C188.10057000000003,260.44588235294117 188.10057000000003,617.5486858573217 7.50114,617.5486858573217Z" style="stroke: rgb(68, 68, 68); stroke-opacity: 1; fill: rgb(254, 203, 82); fill-opacity: 0.6; stroke-width: 0; opacity: 1;"/><path class="sankey-link" d="M7.50114,617.5486858573217C188.10057000000003,617.5486858573217 188.10057000000003,386.49352941176477 368.70000000000005,386.49352941176477L368.70000000000005,395.67C188.10057000000003,395.67 188.10057000000003,626.7251564455571 7.50114,626.7251564455571Z" style="stroke: rgb(68, 68, 68); stroke-opacity: 1; fill: rgb(171, 99, 250); fill-opacity: 0.6; stroke-width: 0; opacity: 1;"/><path class="sankey-link" d="M7.50114,626.725156445557C188.10057000000003,626.725156445557 188.10057000000003,486.6705882352941 368.70000000000005,486.6705882352941L368.70000000000005,533.6999999999999C188.10057000000003,533.6999999999999 188.10057000000003,673.7545682102628 7.50114,673.7545682102628Z" style="stroke: rgb(68, 68, 68); stroke-opacity: 1; fill: rgb(99, 110, 250); fill-opacity: 0.6; stroke-width: 0; opacity: 1;"/><path class="sankey-link" d="M7.50114,673.7545682102628C188.10057000000003,673.7545682102628 188.10057000000003,626.2605882352942 368.70000000000005,626.2605882352942L368.70000000000005,634.2900000000001C188.10057000000003,634.2900000000001 188.10057000000003,681.7839799749687 7.50114,681.7839799749687Z" style="stroke: rgb(68, 68, 68); stroke-opacity: 1; fill: rgb(255, 151, 255); fill-opacity: 0.6; stroke-width: 0; opacity: 1;"/><path class="sankey-link" d="M7.50114,681.7839799749687C188.10057000000003,681.7839799749687 188.10057000000003,683.7900000000003 368.70000000000005,683.7900000000003L368.70000000000005,686.0841176470591C188.10057000000003,686.0841176470591 188.10057000000003,684.0780976220275 7.50114,684.0780976220275Z" style="stroke: rgb(68, 68, 68); stroke-opacity: 1; fill: rgb(255, 102, 146); fill-opacity: 0.6; stroke-width: 0; opacity: 1;"/><path class="sankey-link" d="M383.70000000000005,13.71176470588231C564.3000000000001,13.71176470588231 564.3000000000001,18.749202588697557 744.9000000000001,18.749202588697557L744.9000000000001,23.337437882815202C564.3000000000001,23.337437882815202 564.3000000000001,18.299999999999955 383.70000000000005,18.299999999999955Z" style="stroke: rgb(68, 68, 68); stroke-opacity: 1; fill: rgb(25, 211, 243); fill-opacity: 0.6; stroke-width: 0; opacity: 1;"/><path class="sankey-link" d="M383.70000000000005,18.299999999999955C564.3000000000001,18.299999999999955 564.3000000000001,207.88325436264878 744.9000000000001,207.88325436264878L744.9000000000001,210.17737200970763C564.3000000000001,210.17737200970763 564.3000000000001,20.59411764705878 383.70000000000005,20.59411764705878Z" style="stroke: rgb(68, 68, 68); stroke-opacity: 1; fill: rgb(25, 211, 243); fill-opacity: 0.6; stroke-width: 0; opacity: 1;"/><path class="sankey-link" d="M383.70000000000005,20.594117647058777C564.3000000000001,20.594117647058777 564.3000000000001,330.16891251589084 744.9000000000001,330.16891251589084L744.9000000000001,343.93361839824377C564.3000000000001,343.93361839824377 564.3000000000001,34.358823529411715 383.70000000000005,34.358823529411715Z" style="stroke: rgb(68, 68, 68); stroke-opacity: 1; fill: rgb(25, 211, 243); fill-opacity: 0.6; stroke-width: 0; opacity: 1;"/><path class="sankey-link" d="M383.70000000000005,34.358823529411715C564.3000000000001,34.358823529411715 564.3000000000001,533.386617358142 744.9000000000001,533.386617358142L744.9000000000001,547.1513232404949C564.3000000000001,547.1513232404949 564.3000000000001,48.12352941176466 383.70000000000005,48.12352941176466Z" style="stroke: rgb(68, 68, 68); stroke-opacity: 1; fill: rgb(25, 211, 243); fill-opacity: 0.6; stroke-width: 0; opacity: 1;"/><path class="sankey-link" d="M383.70000000000005,59.9770588235296C564.3000000000001,59.9770588235296 564.3000000000001,23.337437882815205 744.9000000000001,23.337437882815205L744.9000000000001,41.69037905928579C564.3000000000001,41.69037905928579 564.3000000000001,78.33000000000018 383.70000000000005,78.33000000000018Z" style="stroke: rgb(68, 68, 68); stroke-opacity: 1; fill: rgb(239, 85, 59); fill-opacity: 0.6; stroke-width: 0; opacity: 1;"/><path class="sankey-link" d="M383.70000000000005,78.33000000000018C564.3000000000001,78.33000000000018 564.3000000000001,141.54133826418604 744.9000000000001,141.54133826418604L744.9000000000001,148.4236912053625C564.3000000000001,148.4236912053625 564.3000000000001,85.21235294117665 383.70000000000005,85.21235294117665Z" style="stroke: rgb(68, 68, 68); stroke-opacity: 1; fill: rgb(239, 85, 59); fill-opacity: 0.6; stroke-width: 0; opacity: 1;"/><path class="sankey-link" d="M383.70000000000005,85.21235294117665C564.3000000000001,85.21235294117665 564.3000000000001,210.1773720097076 744.9000000000001,210.1773720097076L744.9000000000001,219.3538425979429C564.3000000000001,219.3538425979429 564.3000000000001,94.38882352941195 383.70000000000005,94.38882352941195Z" style="stroke: rgb(68, 68, 68); stroke-opacity: 1; fill: rgb(239, 85, 59); fill-opacity: 0.6; stroke-width: 0; opacity: 1;"/><path class="sankey-link" d="M383.70000000000005,94.38882352941194C564.3000000000001,94.38882352941194 564.3000000000001,343.93361839824377 744.9000000000001,343.93361839824377L744.9000000000001,374.9042066335379C564.3000000000001,374.9042066335379 564.3000000000001,125.35941176470605 383.70000000000005,125.35941176470605Z" style="stroke: rgb(68, 68, 68); stroke-opacity: 1; fill: rgb(239, 85, 59); fill-opacity: 0.6; stroke-width: 0; opacity: 1;"/><path class="sankey-link" d="M383.70000000000005,125.35941176470605C564.3000000000001,125.35941176470605 564.3000000000001,547.1513232404949 744.9000000000001,547.1513232404949L744.9000000000001,574.6807350052007C564.3000000000001,574.6807350052007 564.3000000000001,152.88882352941192 383.70000000000005,152.88882352941192Z" style="stroke: rgb(68, 68, 68); stroke-opacity: 1; fill: rgb(239, 85, 59); fill-opacity: 0.6; stroke-width: 0; opacity: 1;"/><path class="sankey-link" d="M383.70000000000005,164.21470588235286C564.3000000000001,164.21470588235286 564.3000000000001,41.69037905928579 744.9000000000001,41.69037905928579L744.9000000000001,50.86684964752108C564.3000000000001,50.86684964752108 564.3000000000001,173.39117647058816 383.70000000000005,173.39117647058816Z" style="stroke: rgb(68, 68, 68); stroke-opacity: 1; fill: rgb(0, 204, 150); fill-opacity: 0.6; stroke-width: 0; opacity: 1;"/><path class="sankey-link" d="M383.70000000000005,173.39117647058816C564.3000000000001,173.39117647058816 564.3000000000001,148.4236912053625 744.9000000000001,148.4236912053625L744.9000000000001,155.30604414653897C564.3000000000001,155.30604414653897 564.3000000000001,180.27352941176463 383.70000000000005,180.27352941176463Z" style="stroke: rgb(68, 68, 68); stroke-opacity: 1; fill: rgb(0, 204, 150); fill-opacity: 0.6; stroke-width: 0; opacity: 1;"/><path class="sankey-link" d="M383.70000000000005,180.27352941176463C564.3000000000001,180.27352941176463 564.3000000000001,219.3538425979429 744.9000000000001,219.3538425979429L744.9000000000001,225.08913671558997C564.3000000000001,225.08913671558997 564.3000000000001,186.0088235294117 383.70000000000005,186.0088235294117Z" style="stroke: rgb(68, 68, 68); stroke-opacity: 1; fill: rgb(0, 204, 150); fill-opacity: 0.6; stroke-width: 0; opacity: 1;"/><path class="sankey-link" d="M383.70000000000005,186.0088235294117C564.3000000000001,186.0088235294117 564.3000000000001,374.9042066335379 744.9000000000001,374.9042066335379L744.9000000000001,396.6983242805967C564.3000000000001,396.6983242805967 564.3000000000001,207.80294117647054 383.70000000000005,207.80294117647054Z" style="stroke: rgb(68, 68, 68); stroke-opacity: 1; fill: rgb(0, 204, 150); fill-opacity: 0.6; stroke-width: 0; opacity: 1;"/><path class="sankey-link" d="M383.70000000000005,207.8029411764705C564.3000000000001,207.8029411764705 564.3000000000001,574.6807350052007 744.9000000000001,574.6807350052007L744.9000000000001,591.886617358142C564.3000000000001,591.886617358142 564.3000000000001,225.00882352941167 383.70000000000005,225.00882352941167Z" style="stroke: rgb(68, 68, 68); stroke-opacity: 1; fill: rgb(0, 204, 150); fill-opacity: 0.6; stroke-width: 0; opacity: 1;"/><path class="sankey-link" d="M383.70000000000005,237.50470588235294C564.3000000000001,237.50470588235294 564.3000000000001,50.86684964752108 744.9000000000001,50.86684964752108L744.9000000000001,53.160967294579905C564.3000000000001,53.160967294579905 564.3000000000001,239.79882352941178 383.70000000000005,239.79882352941178Z" style="stroke: rgb(68, 68, 68); stroke-opacity: 1; fill: rgb(254, 203, 82); fill-opacity: 0.6; stroke-width: 0; opacity: 1;"/><path class="sankey-link" d="M383.70000000000005,239.79882352941175C564.3000000000001,239.79882352941175 564.3000000000001,155.30604414653897 744.9000000000001,155.30604414653897L744.9000000000001,159.8942794406566C564.3000000000001,159.8942794406566 564.3000000000001,244.38705882352937 383.70000000000005,244.38705882352937Z" style="stroke: rgb(68, 68, 68); stroke-opacity: 1; fill: rgb(254, 203, 82); fill-opacity: 0.6; stroke-width: 0; opacity: 1;"/><path class="sankey-link" d="M383.70000000000005,244.3870588235294C564.3000000000001,244.3870588235294 564.3000000000001,225.08913671558997 744.9000000000001,225.08913671558997L744.9000000000001,235.41266612735467C564.3000000000001,235.41266612735467 564.3000000000001,254.7105882352941 383.70000000000005,254.7105882352941Z" style="stroke: rgb(68, 68, 68); stroke-opacity: 1; fill: rgb(254, 203, 82); fill-opacity: 0.6; stroke-width: 0; opacity: 1;"/><path class="sankey-link" d="M383.70000000000005,254.71058823529413C564.3000000000001,254.71058823529413 564.3000000000001,396.69832428059675 744.9000000000001,396.69832428059675L744.9000000000001,407.0218536923615C564.3000000000001,407.0218536923615 564.3000000000001,265.03411764705885 383.70000000000005,265.03411764705885Z" style="stroke: rgb(68, 68, 68); stroke-opacity: 1; fill: rgb(254, 203, 82); fill-opacity: 0.6; stroke-width: 0; opacity: 1;"/><path class="sankey-link" d="M383.70000000000005,265.0341176470588C564.3000000000001,265.0341176470588 564.3000000000001,591.886617358142 744.9000000000001,591.886617358142L744.9000000000001,598.7689702993185C564.3000000000001,598.7689702993185 564.3000000000001,271.91647058823526 383.70000000000005,271.91647058823526Z" style="stroke: rgb(68, 68, 68); stroke-opacity: 1; fill: rgb(254, 203, 82); fill-opacity: 0.6; stroke-width: 0; opacity: 1;"/><path class="sankey-link" d="M383.70000000000005,284.894117647059C564.3000000000001,284.894117647059 564.3000000000001,53.160967294579905 744.9000000000001,53.160967294579905L744.9000000000001,60.04332023575637C564.3000000000001,60.04332023575637 564.3000000000001,291.77647058823544 383.70000000000005,291.77647058823544Z" style="stroke: rgb(68, 68, 68); stroke-opacity: 1; fill: rgb(255, 161, 90); fill-opacity: 0.6; stroke-width: 0; opacity: 1;"/><path class="sankey-link" d="M383.70000000000005,291.77647058823544C564.3000000000001,291.77647058823544 564.3000000000001,159.89427944065662 744.9000000000001,159.89427944065662L744.9000000000001,161.041338264186C564.3000000000001,161.041338264186 564.3000000000001,292.92352941176483 383.70000000000005,292.92352941176483Z" style="stroke: rgb(68, 68, 68); stroke-opacity: 1; fill: rgb(255, 161, 90); fill-opacity: 0.6; stroke-width: 0; opacity: 1;"/><path class="sankey-link" d="M383.70000000000005,292.92352941176483C564.3000000000001,292.92352941176483 564.3000000000001,235.41266612735467 744.9000000000001,235.41266612735467L744.9000000000001,238.8538425979429C564.3000000000001,238.8538425979429 564.3000000000001,296.3647058823531 383.70000000000005,296.3647058823531Z" style="stroke: rgb(68, 68, 68); stroke-opacity: 1; fill: rgb(255, 161, 90); fill-opacity: 0.6; stroke-width: 0; opacity: 1;"/><path class="sankey-link" d="M383.70000000000005,296.36470588235306C564.3000000000001,296.36470588235306 564.3000000000001,407.02185369236145 744.9000000000001,407.02185369236145L744.9000000000001,420.7865595747144C564.3000000000001,420.7865595747144 564.3000000000001,310.129411764706 383.70000000000005,310.129411764706Z" style="stroke: rgb(68, 68, 68); stroke-opacity: 1; fill: rgb(255, 161, 90); fill-opacity: 0.6; stroke-width: 0; opacity: 1;"/><path class="sankey-link" d="M383.70000000000005,310.129411764706C564.3000000000001,310.129411764706 564.3000000000001,598.7689702993184 744.9000000000001,598.7689702993184L744.9000000000001,610.2395585346126C564.3000000000001,610.2395585346126 564.3000000000001,321.60000000000014 383.70000000000005,321.60000000000014Z" style="stroke: rgb(68, 68, 68); stroke-opacity: 1; fill: rgb(255, 161, 90); fill-opacity: 0.6; stroke-width: 0; opacity: 1;"/><path class="sankey-link" d="M383.70000000000005,333.7288235294119C564.3000000000001,333.7288235294119 564.3000000000001,60.04332023575637 744.9000000000001,60.04332023575637L744.9000000000001,76.10214376516814C564.3000000000001,76.10214376516814 564.3000000000001,349.7876470588236 383.70000000000005,349.7876470588236Z" style="stroke: rgb(68, 68, 68); stroke-opacity: 1; fill: rgb(171, 99, 250); fill-opacity: 0.6; stroke-width: 0; opacity: 1;"/><path class="sankey-link" d="M383.70000000000005,349.78764705882367C564.3000000000001,349.78764705882367 564.3000000000001,161.04133826418604 744.9000000000001,161.04133826418604L744.9000000000001,164.48251473477427C564.3000000000001,164.48251473477427 564.3000000000001,353.22882352941195 383.70000000000005,353.22882352941195Z" style="stroke: rgb(68, 68, 68); stroke-opacity: 1; fill: rgb(171, 99, 250); fill-opacity: 0.6; stroke-width: 0; opacity: 1;"/><path class="sankey-link" d="M383.70000000000005,353.2288235294119C564.3000000000001,353.2288235294119 564.3000000000001,238.8538425979429 744.9000000000001,238.8538425979429L744.9000000000001,248.0303131861782C564.3000000000001,248.0303131861782 564.3000000000001,362.40529411764714 383.70000000000005,362.40529411764714Z" style="stroke: rgb(68, 68, 68); stroke-opacity: 1; fill: rgb(171, 99, 250); fill-opacity: 0.6; stroke-width: 0; opacity: 1;"/><path class="sankey-link" d="M383.70000000000005,362.4052941176472C564.3000000000001,362.4052941176472 564.3000000000001,420.7865595747144 744.9000000000001,420.7865595747144L744.9000000000001,444.87479486883205C564.3000000000001,444.87479486883205 564.3000000000001,386.4935294117649 383.70000000000005,386.4935294117649Z" style="stroke: rgb(68, 68, 68); stroke-opacity: 1; fill: rgb(171, 99, 250); fill-opacity: 0.6; stroke-width: 0; opacity: 1;"/><path class="sankey-link" d="M383.70000000000005,386.4935294117648C564.3000000000001,386.4935294117648 564.3000000000001,610.2395585346126 744.9000000000001,610.2395585346126L744.9000000000001,634.3277938287301C564.3000000000001,634.3277938287301 564.3000000000001,410.5817647058825 383.70000000000005,410.5817647058825Z" style="stroke: rgb(68, 68, 68); stroke-opacity: 1; fill: rgb(171, 99, 250); fill-opacity: 0.6; stroke-width: 0; opacity: 1;"/><path class="sankey-link" d="M383.70000000000005,420.1411764705882C564.3000000000001,420.1411764705882 564.3000000000001,76.10214376516814 744.9000000000001,76.10214376516814L744.9000000000001,107.07273200046225C564.3000000000001,107.07273200046225 564.3000000000001,451.11176470588236 383.70000000000005,451.11176470588236Z" style="stroke: rgb(68, 68, 68); stroke-opacity: 1; fill: rgb(99, 110, 250); fill-opacity: 0.6; stroke-width: 0; opacity: 1;"/><path class="sankey-link" d="M383.70000000000005,451.11176470588236C564.3000000000001,451.11176470588236 564.3000000000001,164.48251473477427 744.9000000000001,164.48251473477427L744.9000000000001,181.68839708771543C564.3000000000001,181.68839708771543 564.3000000000001,468.3176470588236 383.70000000000005,468.3176470588236Z" style="stroke: rgb(68, 68, 68); stroke-opacity: 1; fill: rgb(99, 110, 250); fill-opacity: 0.6; stroke-width: 0; opacity: 1;"/><path class="sankey-link" d="M383.70000000000005,468.31764705882347C564.3000000000001,468.31764705882347 564.3000000000001,248.03031318617823 744.9000000000001,248.03031318617823L744.9000000000001,290.4714896567665C564.3000000000001,290.4714896567665 564.3000000000001,510.75882352941176 383.70000000000005,510.75882352941176Z" style="stroke: rgb(68, 68, 68); stroke-opacity: 1; fill: rgb(99, 110, 250); fill-opacity: 0.6; stroke-width: 0; opacity: 1;"/><path class="sankey-link" d="M383.70000000000005,510.75882352941176C564.3000000000001,510.75882352941176 564.3000000000001,444.874794868832 744.9000000000001,444.874794868832L744.9000000000001,480.4336183982437C564.3000000000001,480.4336183982437 564.3000000000001,546.3176470588235 383.70000000000005,546.3176470588235Z" style="stroke: rgb(68, 68, 68); stroke-opacity: 1; fill: rgb(99, 110, 250); fill-opacity: 0.6; stroke-width: 0; opacity: 1;"/><path class="sankey-link" d="M383.70000000000005,546.3176470588235C564.3000000000001,546.3176470588235 564.3000000000001,634.3277938287303 744.9000000000001,634.3277938287303L744.9000000000001,673.3277938287303C564.3000000000001,673.3277938287303 564.3000000000001,585.3176470588235 383.70000000000005,585.3176470588235Z" style="stroke: rgb(68, 68, 68); stroke-opacity: 1; fill: rgb(99, 110, 250); fill-opacity: 0.6; stroke-width: 0; opacity: 1;"/><path class="sankey-link" d="M383.70000000000005,595.2900000000001C564.3000000000001,595.2900000000001 564.3000000000001,107.07273200046225 744.9000000000001,107.07273200046225L744.9000000000001,116.24920258869756C564.3000000000001,116.24920258869756 564.3000000000001,604.4664705882354 383.70000000000005,604.4664705882354Z" style="stroke: rgb(68, 68, 68); stroke-opacity: 1; fill: rgb(255, 151, 255); fill-opacity: 0.6; stroke-width: 0; opacity: 1;"/><path class="sankey-link" d="M383.70000000000005,604.4664705882353C564.3000000000001,604.4664705882353 564.3000000000001,181.68839708771543 744.9000000000001,181.68839708771543L744.9000000000001,185.12957355830366C564.3000000000001,185.12957355830366 564.3000000000001,607.9076470588236 383.70000000000005,607.9076470588236Z" style="stroke: rgb(68, 68, 68); stroke-opacity: 1; fill: rgb(255, 151, 255); fill-opacity: 0.6; stroke-width: 0; opacity: 1;"/><path class="sankey-link" d="M383.70000000000005,607.9076470588236C564.3000000000001,607.9076470588236 564.3000000000001,290.47148965676644 744.9000000000001,290.47148965676644L744.9000000000001,298.5009014214723C564.3000000000001,298.5009014214723 564.3000000000001,615.9370588235295 383.70000000000005,615.9370588235295Z" style="stroke: rgb(68, 68, 68); stroke-opacity: 1; fill: rgb(255, 151, 255); fill-opacity: 0.6; stroke-width: 0; opacity: 1;"/><path class="sankey-link" d="M383.70000000000005,615.9370588235295C564.3000000000001,615.9370588235295 564.3000000000001,480.43361839824377 744.9000000000001,480.43361839824377L744.9000000000001,496.4924419276555C564.3000000000001,496.4924419276555 564.3000000000001,631.9958823529412 383.70000000000005,631.9958823529412Z" style="stroke: rgb(68, 68, 68); stroke-opacity: 1; fill: rgb(255, 151, 255); fill-opacity: 0.6; stroke-width: 0; opacity: 1;"/><path class="sankey-link" d="M383.70000000000005,631.9958823529412C564.3000000000001,631.9958823529412 564.3000000000001,673.3277938287303 744.9000000000001,673.3277938287303L744.9000000000001,692.8277938287303C564.3000000000001,692.8277938287303 564.3000000000001,651.4958823529412 383.70000000000005,651.4958823529412Z" style="stroke: rgb(68, 68, 68); stroke-opacity: 1; fill: rgb(255, 151, 255); fill-opacity: 0.6; stroke-width: 0; opacity: 1;"/><path class="sankey-link" d="M383.70000000000005,664.2900000000003C564.3000000000001,664.2900000000003 564.3000000000001,116.24920258869754 744.9000000000001,116.24920258869754L744.9000000000001,119.69037905928577C564.3000000000001,119.69037905928577 564.3000000000001,667.7311764705886 383.70000000000005,667.7311764705886Z" style="stroke: rgb(68, 68, 68); stroke-opacity: 1; fill: rgb(255, 102, 146); fill-opacity: 0.6; stroke-width: 0; opacity: 1;"/><path class="sankey-link" d="M383.70000000000005,667.7311764705886C564.3000000000001,667.7311764705886 564.3000000000001,185.12957355830366 744.9000000000001,185.12957355830366L744.9000000000001,187.4236912053625C564.3000000000001,187.4236912053625 564.3000000000001,670.0252941176474 383.70000000000005,670.0252941176474Z" style="stroke: rgb(68, 68, 68); stroke-opacity: 1; fill: rgb(255, 102, 146); fill-opacity: 0.6; stroke-width: 0; opacity: 1;"/><path class="sankey-link" d="M383.70000000000005,670.0252941176474C564.3000000000001,670.0252941176474 564.3000000000001,298.5009014214723 744.9000000000001,298.5009014214723L744.9000000000001,304.23619553911936C564.3000000000001,304.23619553911936 564.3000000000001,675.7605882352944 383.70000000000005,675.7605882352944Z" style="stroke: rgb(68, 68, 68); stroke-opacity: 1; fill: rgb(255, 102, 146); fill-opacity: 0.6; stroke-width: 0; opacity: 1;"/><path class="sankey-link" d="M383.70000000000005,675.7605882352944C564.3000000000001,675.7605882352944 564.3000000000001,496.49244192765553 744.9000000000001,496.49244192765553L744.9000000000001,504.5218536923614C564.3000000000001,504.5218536923614 564.3000000000001,683.7900000000003 383.70000000000005,683.7900000000003Z" style="stroke: rgb(68, 68, 68); stroke-opacity: 1; fill: rgb(255, 102, 146); fill-opacity: 0.6; stroke-width: 0; opacity: 1;"/><path class="sankey-link" d="M383.70000000000005,683.7900000000003C564.3000000000001,683.7900000000003 564.3000000000001,692.8277938287303 744.9000000000001,692.8277938287303L744.9000000000001,697.4160291228478C564.3000000000001,697.4160291228478 564.3000000000001,688.3782352941179 383.70000000000005,688.3782352941179Z" style="stroke: rgb(68, 68, 68); stroke-opacity: 1; fill: rgb(255, 102, 146); fill-opacity: 0.6; stroke-width: 0; opacity: 1;"/><path class="sankey-link" d="M383.70000000000005,702.2276470588237C564.3000000000001,702.2276470588237 564.3000000000001,119.69037905928577 744.9000000000001,119.69037905928577L744.9000000000001,120.8374378828152C564.3000000000001,120.8374378828152 564.3000000000001,703.3747058823532 383.70000000000005,703.3747058823532Z" style="stroke: rgb(68, 68, 68); stroke-opacity: 1; fill: rgb(182, 232, 128); fill-opacity: 0.6; stroke-width: 0; opacity: 1;"/><path class="sankey-link" d="M383.70000000000005,703.374705882353C564.3000000000001,703.374705882353 564.3000000000001,697.4160291228479 744.9000000000001,697.4160291228479L744.9000000000001,698.5630879463774C564.3000000000001,698.5630879463774 564.3000000000001,704.5217647058826 383.70000000000005,704.5217647058826Z" style="stroke: rgb(68, 68, 68); stroke-opacity: 1; fill: rgb(182, 232, 128); fill-opacity: 0.6; stroke-width: 0; opacity: 1;"/><path class="sankey-link" d="M759.9000000000001,18.749202588697557C946.19943,18.749202588697557 946.19943,13.525621171847902 1132.49886,13.525621171847902L1132.49886,15.819738818906725C946.19943,15.819738818906725 946.19943,21.043320235756383 759.9000000000001,21.043320235756383Z" style="stroke: rgb(68, 68, 68); stroke-opacity: 1; fill: rgb(25, 211, 243); fill-opacity: 0.6; stroke-width: 0; opacity: 1;"/><path class="sankey-link" d="M759.9000000000001,64.63155552987402C946.19943,64.63155552987402 946.19943,71.862481220386 1132.49886,71.862481220386L1132.49886,74.15659886744481C946.19943,74.15659886744481 946.19943,66.92567317693283 759.9000000000001,66.92567317693283Z" style="stroke: rgb(68, 68, 68); stroke-opacity: 1; fill: rgb(25, 211, 243); fill-opacity: 0.6; stroke-width: 0; opacity: 1;"/><path class="sankey-link" d="M759.9000000000001,207.88325436264878C946.19943,207.88325436264878 946.19943,213.50018490696857 1132.49886,213.50018490696857L1132.49886,214.64724373049796C946.19943,214.64724373049796 946.19943,209.03031318617818 759.9000000000001,209.03031318617818Z" style="stroke: rgb(68, 68, 68); stroke-opacity: 1; fill: rgb(25, 211, 243); fill-opacity: 0.6; stroke-width: 0; opacity: 1;"/><path class="sankey-link" d="M759.9000000000001,251.47148965676644C946.19943,251.47148965676644 946.19943,269.6522246619669 1132.49886,269.6522246619669L1132.49886,270.7992834854963C946.19943,270.7992834854963 946.19943,252.61854848029583 759.9000000000001,252.61854848029583Z" style="stroke: rgb(68, 68, 68); stroke-opacity: 1; fill: rgb(25, 211, 243); fill-opacity: 0.6; stroke-width: 0; opacity: 1;"/><path class="sankey-link" d="M759.9000000000001,330.16891251589084C946.19943,330.16891251589084 946.19943,333.88776147001045 1132.49886,333.88776147001045L1132.49886,340.7701144111869C946.19943,340.7701144111869 946.19943,337.0512654570673 759.9000000000001,337.0512654570673Z" style="stroke: rgb(68, 68, 68); stroke-opacity: 1; fill: rgb(25, 211, 243); fill-opacity: 0.6; stroke-width: 0; opacity: 1;"/><path class="sankey-link" d="M759.9000000000001,431.110088986479C946.19943,431.110088986479 946.19943,445.9062983936209 1132.49886,445.9062983936209L1132.49886,452.78865133479735C946.19943,452.78865133479735 946.19943,437.9924419276555 759.9000000000001,437.9924419276555Z" style="stroke: rgb(68, 68, 68); stroke-opacity: 1; fill: rgb(25, 211, 243); fill-opacity: 0.6; stroke-width: 0; opacity: 1;"/><path class="sankey-link" d="M759.9000000000001,533.386617358142C946.19943,533.386617358142 946.19943,530.7233156130821 1132.49886,530.7233156130821L1132.49886,537.6056685542587C946.19943,537.6056685542587 946.19943,540.2689702993185 759.9000000000001,540.2689702993185Z" style="stroke: rgb(68, 68, 68); stroke-opacity: 1; fill: rgb(25, 211, 243); fill-opacity: 0.6; stroke-width: 0; opacity: 1;"/><path class="sankey-link" d="M759.9000000000001,617.1219114757889C946.19943,617.1219114757889 946.19943,625.7108459493818 1132.49886,625.7108459493818L1132.49886,632.5931988905584C946.19943,632.5931988905584 946.19943,624.0042644169655 759.9000000000001,624.0042644169655Z" style="stroke: rgb(68, 68, 68); stroke-opacity: 1; fill: rgb(25, 211, 243); fill-opacity: 0.6; stroke-width: 0; opacity: 1;"/><path class="sankey-link" d="M759.9000000000001,21.04332023575638C946.19943,21.04332023575638 946.19943,15.819738818906725 1132.49886,15.819738818906725L1132.49886,23.84915058361261C946.19943,23.84915058361261 946.19943,29.072732000462263 759.9000000000001,29.072732000462263Z" style="stroke: rgb(68, 68, 68); stroke-opacity: 1; fill: rgb(239, 85, 59); fill-opacity: 0.6; stroke-width: 0; opacity: 1;"/><path class="sankey-link" d="M759.9000000000001,66.92567317693285C946.19943,66.92567317693285 946.19943,74.15659886744483 1132.49886,74.15659886744483L1132.49886,84.48012827920952C946.19943,84.48012827920952 946.19943,77.24920258869754 759.9000000000001,77.24920258869754Z" style="stroke: rgb(68, 68, 68); stroke-opacity: 1; fill: rgb(239, 85, 59); fill-opacity: 0.6; stroke-width: 0; opacity: 1;"/><path class="sankey-link" d="M759.9000000000001,141.54133826418604C946.19943,141.54133826418604 946.19943,140.91634115335722 1132.49886,140.91634115335722L1132.49886,145.50457644747485C946.19943,145.50457644747485 946.19943,146.12957355830366 759.9000000000001,146.12957355830366Z" style="stroke: rgb(68, 68, 68); stroke-opacity: 1; fill: rgb(239, 85, 59); fill-opacity: 0.6; stroke-width: 0; opacity: 1;"/><path class="sankey-link" d="M759.9000000000001,166.7766323818331C946.19943,166.7766323818331 946.19943,179.6772564428522 1132.49886,179.6772564428522L1132.49886,181.97137408991105C946.19943,181.97137408991105 946.19943,169.07075002889195 759.9000000000001,169.07075002889195Z" style="stroke: rgb(68, 68, 68); stroke-opacity: 1; fill: rgb(239, 85, 59); fill-opacity: 0.6; stroke-width: 0; opacity: 1;"/><path class="sankey-link" d="M759.9000000000001,209.0303131861782C946.19943,209.0303131861782 946.19943,214.647243730498 1132.49886,214.647243730498L1132.49886,218.08842020108622C946.19943,218.08842020108622 946.19943,212.47148965676644 759.9000000000001,212.47148965676644Z" style="stroke: rgb(68, 68, 68); stroke-opacity: 1; fill: rgb(239, 85, 59); fill-opacity: 0.6; stroke-width: 0; opacity: 1;"/><path class="sankey-link" d="M759.9000000000001,252.61854848029586C946.19943,252.61854848029586 946.19943,270.7992834854963 1132.49886,270.7992834854963L1132.49886,276.53457760314336C946.19943,276.53457760314336 946.19943,258.3538425979429 759.9000000000001,258.3538425979429Z" style="stroke: rgb(68, 68, 68); stroke-opacity: 1; fill: rgb(239, 85, 59); fill-opacity: 0.6; stroke-width: 0; opacity: 1;"/><path class="sankey-link" d="M759.9000000000001,337.0512654570673C946.19943,337.0512654570673 946.19943,340.7701144111869 1132.49886,340.7701144111869L1132.49886,356.8289379405986C946.19943,356.8289379405986 946.19943,353.110088986479 759.9000000000001,353.110088986479Z" style="stroke: rgb(68, 68, 68); stroke-opacity: 1; fill: rgb(239, 85, 59); fill-opacity: 0.6; stroke-width: 0; opacity: 1;"/><path class="sankey-link" d="M759.9000000000001,437.9924419276555C946.19943,437.9924419276555 946.19943,452.78865133479735 1132.49886,452.78865133479735L1132.49886,467.70041604067967C946.19943,467.70041604067967 946.19943,452.9042066335378 759.9000000000001,452.9042066335378Z" style="stroke: rgb(68, 68, 68); stroke-opacity: 1; fill: rgb(239, 85, 59); fill-opacity: 0.6; stroke-width: 0; opacity: 1;"/><path class="sankey-link" d="M759.9000000000001,540.2689702993184C946.19943,540.2689702993184 946.19943,537.6056685542586 1132.49886,537.6056685542586L1132.49886,557.1056685542586C946.19943,557.1056685542586 946.19943,559.7689702993184 759.9000000000001,559.7689702993184Z" style="stroke: rgb(68, 68, 68); stroke-opacity: 1; fill: rgb(239, 85, 59); fill-opacity: 0.6; stroke-width: 0; opacity: 1;"/><path class="sankey-link" d="M759.9000000000001,624.0042644169654C946.19943,624.0042644169654 946.19943,632.5931988905583 1132.49886,632.5931988905583L1132.49886,640.6226106552641C946.19943,640.6226106552641 946.19943,632.0336761816712 759.9000000000001,632.0336761816712Z" style="stroke: rgb(68, 68, 68); stroke-opacity: 1; fill: rgb(239, 85, 59); fill-opacity: 0.6; stroke-width: 0; opacity: 1;"/><path class="sankey-link" d="M759.9000000000001,29.07273200046226C946.19943,29.07273200046226 946.19943,23.849150583612605 1132.49886,23.849150583612605L1132.49886,28.43738587773025C946.19943,28.43738587773025 946.19943,33.660967294579905 759.9000000000001,33.660967294579905Z" style="stroke: rgb(68, 68, 68); stroke-opacity: 1; fill: rgb(0, 204, 150); fill-opacity: 0.6; stroke-width: 0; opacity: 1;"/><path class="sankey-link" d="M759.9000000000001,77.24920258869756C946.19943,77.24920258869756 946.19943,84.48012827920954 1132.49886,84.48012827920954L1132.49886,89.06836357332719C946.19943,89.06836357332719 946.19943,81.83743788281521 759.9000000000001,81.83743788281521Z" style="stroke: rgb(68, 68, 68); stroke-opacity: 1; fill: rgb(0, 204, 150); fill-opacity: 0.6; stroke-width: 0; opacity: 1;"/><path class="sankey-link" d="M759.9000000000001,146.1295735583037C946.19943,146.1295735583037 946.19943,145.50457644747488 1132.49886,145.50457644747488L1132.49886,151.23987056512195C946.19943,151.23987056512195 946.19943,151.86486767595076 759.9000000000001,151.86486767595076Z" style="stroke: rgb(68, 68, 68); stroke-opacity: 1; fill: rgb(0, 204, 150); fill-opacity: 0.6; stroke-width: 0; opacity: 1;"/><path class="sankey-link" d="M759.9000000000001,169.07075002889192C946.19943,169.07075002889192 946.19943,181.97137408991102 1132.49886,181.97137408991102L1132.49886,183.11843291344042C946.19943,183.11843291344042 946.19943,170.2178088524213 759.9000000000001,170.2178088524213Z" style="stroke: rgb(68, 68, 68); stroke-opacity: 1; fill: rgb(0, 204, 150); fill-opacity: 0.6; stroke-width: 0; opacity: 1;"/><path class="sankey-link" d="M759.9000000000001,212.47148965676644C946.19943,212.47148965676644 946.19943,218.08842020108622 1132.49886,218.08842020108622L1132.49886,219.2354790246156C946.19943,219.2354790246156 946.19943,213.61854848029583 759.9000000000001,213.61854848029583Z" style="stroke: rgb(68, 68, 68); stroke-opacity: 1; fill: rgb(0, 204, 150); fill-opacity: 0.6; stroke-width: 0; opacity: 1;"/><path class="sankey-link" d="M759.9000000000001,258.3538425979429C946.19943,258.3538425979429 946.19943,276.53457760314336 1132.49886,276.53457760314336L1132.49886,281.12281289726104C946.19943,281.12281289726104 946.19943,262.9420778920606 759.9000000000001,262.9420778920606Z" style="stroke: rgb(68, 68, 68); stroke-opacity: 1; fill: rgb(0, 204, 150); fill-opacity: 0.6; stroke-width: 0; opacity: 1;"/><path class="sankey-link" d="M759.9000000000001,353.11008898647907C946.19943,353.11008898647907 946.19943,356.8289379405987 1132.49886,356.8289379405987L1132.49886,369.4465849994222C946.19943,369.4465849994222 946.19943,365.7277360453026 759.9000000000001,365.7277360453026Z" style="stroke: rgb(68, 68, 68); stroke-opacity: 1; fill: rgb(0, 204, 150); fill-opacity: 0.6; stroke-width: 0; opacity: 1;"/><path class="sankey-link" d="M759.9000000000001,452.90420663353785C946.19943,452.90420663353785 946.19943,467.7004160406797 1132.49886,467.7004160406797L1132.49886,476.876886628915C946.19943,476.876886628915 946.19943,462.0806772217731 759.9000000000001,462.0806772217731Z" style="stroke: rgb(68, 68, 68); stroke-opacity: 1; fill: rgb(0, 204, 150); fill-opacity: 0.6; stroke-width: 0; opacity: 1;"/><path class="sankey-link" d="M759.9000000000001,559.7689702993184C946.19943,559.7689702993184 946.19943,557.1056685542586 1132.49886,557.1056685542586L1132.49886,567.4291979660233C946.19943,567.4291979660233 946.19943,570.0924997110831 759.9000000000001,570.0924997110831Z" style="stroke: rgb(68, 68, 68); stroke-opacity: 1; fill: rgb(0, 204, 150); fill-opacity: 0.6; stroke-width: 0; opacity: 1;"/><path class="sankey-link" d="M759.9000000000001,632.0336761816712C946.19943,632.0336761816712 946.19943,640.6226106552641 1132.49886,640.6226106552641L1132.49886,647.5049635964407C946.19943,647.5049635964407 946.19943,638.9160291228478 759.9000000000001,638.9160291228478Z" style="stroke: rgb(68, 68, 68); stroke-opacity: 1; fill: rgb(0, 204, 150); fill-opacity: 0.6; stroke-width: 0; opacity: 1;"/><path class="sankey-link" d="M759.9000000000001,81.83743788281521C946.19943,81.83743788281521 946.19943,89.06836357332719 1132.49886,89.06836357332719L1132.49886,91.362481220386C946.19943,91.362481220386 946.19943,84.13155552987402 759.9000000000001,84.13155552987402Z" style="stroke: rgb(68, 68, 68); stroke-opacity: 1; fill: rgb(254, 203, 82); fill-opacity: 0.6; stroke-width: 0; opacity: 1;"/><path class="sankey-link" d="M759.9000000000001,151.86486767595073C946.19943,151.86486767595073 946.19943,151.23987056512192 1132.49886,151.23987056512192L1132.49886,152.3869293886513C946.19943,152.3869293886513 946.19943,153.01192649948013 759.9000000000001,153.01192649948013Z" style="stroke: rgb(68, 68, 68); stroke-opacity: 1; fill: rgb(254, 203, 82); fill-opacity: 0.6; stroke-width: 0; opacity: 1;"/><path class="sankey-link" d="M759.9000000000001,170.21780885242134C946.19943,170.21780885242134 946.19943,183.11843291344044 1132.49886,183.11843291344044L1132.49886,186.55960938402868C946.19943,186.55960938402868 946.19943,173.65898532300957 759.9000000000001,173.65898532300957Z" style="stroke: rgb(68, 68, 68); stroke-opacity: 1; fill: rgb(254, 203, 82); fill-opacity: 0.6; stroke-width: 0; opacity: 1;"/><path class="sankey-link" d="M759.9000000000001,213.61854848029586C946.19943,213.61854848029586 946.19943,219.23547902461564 1132.49886,219.23547902461564L1132.49886,222.67665549520387C946.19943,222.67665549520387 946.19943,217.0597249508841 759.9000000000001,217.0597249508841Z" style="stroke: rgb(68, 68, 68); stroke-opacity: 1; fill: rgb(254, 203, 82); fill-opacity: 0.6; stroke-width: 0; opacity: 1;"/><path class="sankey-link" d="M759.9000000000001,262.9420778920605C946.19943,262.9420778920605 946.19943,281.122812897261 1132.49886,281.122812897261L1132.49886,288.00516583843745C946.19943,288.00516583843745 946.19943,269.824430833237 759.9000000000001,269.824430833237Z" style="stroke: rgb(68, 68, 68); stroke-opacity: 1; fill: rgb(254, 203, 82); fill-opacity: 0.6; stroke-width: 0; opacity: 1;"/><path class="sankey-link" d="M759.9000000000001,365.7277360453026C946.19943,365.7277360453026 946.19943,369.4465849994222 1132.49886,369.4465849994222L1132.49886,376.3289379405987C946.19943,376.3289379405987 946.19943,372.61008898647907 759.9000000000001,372.61008898647907Z" style="stroke: rgb(68, 68, 68); stroke-opacity: 1; fill: rgb(254, 203, 82); fill-opacity: 0.6; stroke-width: 0; opacity: 1;"/><path class="sankey-link" d="M759.9000000000001,462.08067722177316C946.19943,462.08067722177316 946.19943,476.87688662891503 1132.49886,476.87688662891503L1132.49886,480.3180630995033C946.19943,480.3180630995033 946.19943,465.52185369236145 759.9000000000001,465.52185369236145Z" style="stroke: rgb(68, 68, 68); stroke-opacity: 1; fill: rgb(254, 203, 82); fill-opacity: 0.6; stroke-width: 0; opacity: 1;"/><path class="sankey-link" d="M759.9000000000001,570.0924997110832C946.19943,570.0924997110832 946.19943,567.4291979660234 1132.49886,567.4291979660234L1132.49886,569.7233156130821C946.19943,569.7233156130821 946.19943,572.386617358142 759.9000000000001,572.386617358142Z" style="stroke: rgb(68, 68, 68); stroke-opacity: 1; fill: rgb(254, 203, 82); fill-opacity: 0.6; stroke-width: 0; opacity: 1;"/><path class="sankey-link" d="M759.9000000000001,638.9160291228477C946.19943,638.9160291228477 946.19943,647.5049635964406 1132.49886,647.5049635964406L1132.49886,652.0931988905581C946.19943,652.0931988905581 946.19943,643.5042644169653 759.9000000000001,643.5042644169653Z" style="stroke: rgb(68, 68, 68); stroke-opacity: 1; fill: rgb(254, 203, 82); fill-opacity: 0.6; stroke-width: 0; opacity: 1;"/><path class="sankey-link" d="M759.9000000000001,33.660967294579905C946.19943,33.660967294579905 946.19943,28.43738587773025 1132.49886,28.43738587773025L1132.49886,31.878562348318482C946.19943,31.878562348318482 946.19943,37.10214376516814 759.9000000000001,37.10214376516814Z" style="stroke: rgb(68, 68, 68); stroke-opacity: 1; fill: rgb(255, 161, 90); fill-opacity: 0.6; stroke-width: 0; opacity: 1;"/><path class="sankey-link" d="M759.9000000000001,84.13155552987403C946.19943,84.13155552987403 946.19943,91.36248122038602 1132.49886,91.36248122038602L1132.49886,94.80365769097425C946.19943,94.80365769097425 946.19943,87.57273200046227 759.9000000000001,87.57273200046227Z" style="stroke: rgb(68, 68, 68); stroke-opacity: 1; fill: rgb(255, 161, 90); fill-opacity: 0.6; stroke-width: 0; opacity: 1;"/><path class="sankey-link" d="M759.9000000000001,153.01192649948015C946.19943,153.01192649948015 946.19943,152.38692938865134 1132.49886,152.38692938865134L1132.49886,153.53398821218073C946.19943,153.53398821218073 946.19943,154.15898532300955 759.9000000000001,154.15898532300955Z" style="stroke: rgb(68, 68, 68); stroke-opacity: 1; fill: rgb(255, 161, 90); fill-opacity: 0.6; stroke-width: 0; opacity: 1;"/><path class="sankey-link" d="M759.9000000000001,217.0597249508841C946.19943,217.0597249508841 946.19943,222.67665549520387 1132.49886,222.67665549520387L1132.49886,223.82371431873327C946.19943,223.82371431873327 946.19943,218.20678377441348 759.9000000000001,218.20678377441348Z" style="stroke: rgb(68, 68, 68); stroke-opacity: 1; fill: rgb(255, 161, 90); fill-opacity: 0.6; stroke-width: 0; opacity: 1;"/><path class="sankey-link" d="M759.9000000000001,269.824430833237C946.19943,269.824430833237 946.19943,288.00516583843745 1132.49886,288.00516583843745L1132.49886,290.29928348549623C946.19943,290.29928348549623 946.19943,272.1185484802958 759.9000000000001,272.1185484802958Z" style="stroke: rgb(68, 68, 68); stroke-opacity: 1; fill: rgb(255, 161, 90); fill-opacity: 0.6; stroke-width: 0; opacity: 1;"/><path class="sankey-link" d="M759.9000000000001,372.61008898647907C946.19943,372.61008898647907 946.19943,376.3289379405987 1132.49886,376.3289379405987L1132.49886,384.35834970530453C946.19943,384.35834970530453 946.19943,380.6395007511849 759.9000000000001,380.6395007511849Z" style="stroke: rgb(68, 68, 68); stroke-opacity: 1; fill: rgb(255, 161, 90); fill-opacity: 0.6; stroke-width: 0; opacity: 1;"/><path class="sankey-link" d="M759.9000000000001,465.5218536923614C946.19943,465.5218536923614 946.19943,480.31806309950326 1132.49886,480.31806309950326L1132.49886,486.05335721715034C946.19943,486.05335721715034 946.19943,471.25714781000846 759.9000000000001,471.25714781000846Z" style="stroke: rgb(68, 68, 68); stroke-opacity: 1; fill: rgb(255, 161, 90); fill-opacity: 0.6; stroke-width: 0; opacity: 1;"/><path class="sankey-link" d="M759.9000000000001,572.386617358142C946.19943,572.386617358142 946.19943,569.7233156130821 1132.49886,569.7233156130821L1132.49886,578.8997862013175C946.19943,578.8997862013175 946.19943,581.5630879463773 759.9000000000001,581.5630879463773Z" style="stroke: rgb(68, 68, 68); stroke-opacity: 1; fill: rgb(255, 161, 90); fill-opacity: 0.6; stroke-width: 0; opacity: 1;"/><path class="sankey-link" d="M759.9000000000001,643.5042644169654C946.19943,643.5042644169654 946.19943,652.0931988905583 1132.49886,652.0931988905583L1132.49886,654.387316537617C946.19943,654.387316537617 946.19943,645.7983820640242 759.9000000000001,645.7983820640242Z" style="stroke: rgb(68, 68, 68); stroke-opacity: 1; fill: rgb(255, 161, 90); fill-opacity: 0.6; stroke-width: 0; opacity: 1;"/><path class="sankey-link" d="M759.9000000000001,37.10214376516814C946.19943,37.10214376516814 946.19943,31.878562348318486 1132.49886,31.878562348318486L1132.49886,38.76091528949495C946.19943,38.76091528949495 946.19943,43.9844967063446 759.9000000000001,43.9844967063446Z" style="stroke: rgb(68, 68, 68); stroke-opacity: 1; fill: rgb(171, 99, 250); fill-opacity: 0.6; stroke-width: 0; opacity: 1;"/><path class="sankey-link" d="M759.9000000000001,87.57273200046227C946.19943,87.57273200046227 946.19943,94.80365769097425 1132.49886,94.80365769097425L1132.49886,103.98012827920955C946.19943,103.98012827920955 946.19943,96.74920258869757 759.9000000000001,96.74920258869757Z" style="stroke: rgb(68, 68, 68); stroke-opacity: 1; fill: rgb(171, 99, 250); fill-opacity: 0.6; stroke-width: 0; opacity: 1;"/><path class="sankey-link" d="M759.9000000000001,154.15898532300957C946.19943,154.15898532300957 946.19943,153.53398821218076 1132.49886,153.53398821218076L1132.49886,155.8281058592396C946.19943,155.8281058592396 946.19943,156.45310297006841 759.9000000000001,156.45310297006841Z" style="stroke: rgb(68, 68, 68); stroke-opacity: 1; fill: rgb(171, 99, 250); fill-opacity: 0.6; stroke-width: 0; opacity: 1;"/><path class="sankey-link" d="M759.9000000000001,173.65898532300957C946.19943,173.65898532300957 946.19943,186.55960938402868 1132.49886,186.55960938402868L1132.49886,187.70666820755807C946.19943,187.70666820755807 946.19943,174.80604414653897 759.9000000000001,174.80604414653897Z" style="stroke: rgb(68, 68, 68); stroke-opacity: 1; fill: rgb(171, 99, 250); fill-opacity: 0.6; stroke-width: 0; opacity: 1;"/><path class="sankey-link" d="M759.9000000000001,218.2067837744135C946.19943,218.2067837744135 946.19943,223.8237143187333 1132.49886,223.8237143187333L1132.49886,228.41194961285092C946.19943,228.41194961285092 946.19943,222.79501906853113 759.9000000000001,222.79501906853113Z" style="stroke: rgb(68, 68, 68); stroke-opacity: 1; fill: rgb(171, 99, 250); fill-opacity: 0.6; stroke-width: 0; opacity: 1;"/><path class="sankey-link" d="M759.9000000000001,272.11854848029583C946.19943,272.11854848029583 946.19943,290.2992834854963 1132.49886,290.2992834854963L1132.49886,294.88751877961397C946.19943,294.88751877961397 946.19943,276.7067837744135 759.9000000000001,276.7067837744135Z" style="stroke: rgb(68, 68, 68); stroke-opacity: 1; fill: rgb(171, 99, 250); fill-opacity: 0.6; stroke-width: 0; opacity: 1;"/><path class="sankey-link" d="M759.9000000000001,380.6395007511849C946.19943,380.6395007511849 946.19943,384.35834970530453 1132.49886,384.35834970530453L1132.49886,403.85834970530453C946.19943,403.85834970530453 946.19943,400.1395007511849 759.9000000000001,400.1395007511849Z" style="stroke: rgb(68, 68, 68); stroke-opacity: 1; fill: rgb(171, 99, 250); fill-opacity: 0.6; stroke-width: 0; opacity: 1;"/><path class="sankey-link" d="M759.9000000000001,471.25714781000846C946.19943,471.25714781000846 946.19943,486.05335721715034 1132.49886,486.05335721715034L1132.49886,490.641592511268C946.19943,490.641592511268 946.19943,475.84538310412614 759.9000000000001,475.84538310412614Z" style="stroke: rgb(68, 68, 68); stroke-opacity: 1; fill: rgb(171, 99, 250); fill-opacity: 0.6; stroke-width: 0; opacity: 1;"/><path class="sankey-link" d="M759.9000000000001,581.5630879463772C946.19943,581.5630879463772 946.19943,578.8997862013174 1132.49886,578.8997862013174L1132.49886,584.6350803189645C946.19943,584.6350803189645 946.19943,587.2983820640243 759.9000000000001,587.2983820640243Z" style="stroke: rgb(68, 68, 68); stroke-opacity: 1; fill: rgb(171, 99, 250); fill-opacity: 0.6; stroke-width: 0; opacity: 1;"/><path class="sankey-link" d="M759.9000000000001,645.7983820640242C946.19943,645.7983820640242 946.19943,654.387316537617 1132.49886,654.387316537617L1132.49886,672.7402577140875C946.19943,672.7402577140875 946.19943,664.1513232404947 759.9000000000001,664.1513232404947Z" style="stroke: rgb(68, 68, 68); stroke-opacity: 1; fill: rgb(171, 99, 250); fill-opacity: 0.6; stroke-width: 0; opacity: 1;"/><path class="sankey-link" d="M759.9000000000001,43.98449670634461C946.19943,43.98449670634461 946.19943,38.76091528949495 1132.49886,38.76091528949495L1132.49886,52.525621171847895C946.19943,52.525621171847895 946.19943,57.74920258869755 759.9000000000001,57.74920258869755Z" style="stroke: rgb(68, 68, 68); stroke-opacity: 1; fill: rgb(99, 110, 250); fill-opacity: 0.6; stroke-width: 0; opacity: 1;"/><path class="sankey-link" d="M759.9000000000001,96.74920258869756C946.19943,96.74920258869756 946.19943,103.98012827920954 1132.49886,103.98012827920954L1132.49886,121.1860106321507C946.19943,121.1860106321507 946.19943,113.95508494163872 759.9000000000001,113.95508494163872Z" style="stroke: rgb(68, 68, 68); stroke-opacity: 1; fill: rgb(99, 110, 250); fill-opacity: 0.6; stroke-width: 0; opacity: 1;"/><path class="sankey-link" d="M759.9000000000001,156.4531029700684C946.19943,156.4531029700684 946.19943,155.82810585923957 1132.49886,155.82810585923957L1132.49886,163.85751762394543C946.19943,163.85751762394543 946.19943,164.48251473477424 759.9000000000001,164.48251473477424Z" style="stroke: rgb(68, 68, 68); stroke-opacity: 1; fill: rgb(99, 110, 250); fill-opacity: 0.6; stroke-width: 0; opacity: 1;"/><path class="sankey-link" d="M759.9000000000001,174.806044146539C946.19943,174.806044146539 946.19943,187.7066682075581 1132.49886,187.7066682075581L1132.49886,196.8831387957934C946.19943,196.8831387957934 946.19943,183.9825147347743 759.9000000000001,183.9825147347743Z" style="stroke: rgb(68, 68, 68); stroke-opacity: 1; fill: rgb(99, 110, 250); fill-opacity: 0.6; stroke-width: 0; opacity: 1;"/><path class="sankey-link" d="M759.9000000000001,222.79501906853116C946.19943,222.79501906853116 946.19943,228.41194961285095 1132.49886,228.41194961285095L1132.49886,253.64724373049802C946.19943,253.64724373049802 946.19943,248.03031318617823 759.9000000000001,248.03031318617823Z" style="stroke: rgb(68, 68, 68); stroke-opacity: 1; fill: rgb(99, 110, 250); fill-opacity: 0.6; stroke-width: 0; opacity: 1;"/><path class="sankey-link" d="M759.9000000000001,276.70678377441345C946.19943,276.70678377441345 946.19943,294.8875187796139 1132.49886,294.8875187796139L1132.49886,312.09340113255513C946.19943,312.09340113255513 946.19943,293.91266612735467 759.9000000000001,293.91266612735467Z" style="stroke: rgb(68, 68, 68); stroke-opacity: 1; fill: rgb(99, 110, 250); fill-opacity: 0.6; stroke-width: 0; opacity: 1;"/><path class="sankey-link" d="M759.9000000000001,400.1395007511849C946.19943,400.1395007511849 946.19943,403.85834970530453 1132.49886,403.85834970530453L1132.49886,421.06423205824575C946.19943,421.06423205824575 946.19943,417.34538310412614 759.9000000000001,417.34538310412614Z" style="stroke: rgb(68, 68, 68); stroke-opacity: 1; fill: rgb(99, 110, 250); fill-opacity: 0.6; stroke-width: 0; opacity: 1;"/><path class="sankey-link" d="M759.9000000000001,475.8453831041261C946.19943,475.8453831041261 946.19943,490.64159251126796 1132.49886,490.64159251126796L1132.49886,508.99453368773857C946.19943,508.99453368773857 946.19943,494.1983242805967 759.9000000000001,494.1983242805967Z" style="stroke: rgb(68, 68, 68); stroke-opacity: 1; fill: rgb(99, 110, 250); fill-opacity: 0.6; stroke-width: 0; opacity: 1;"/><path class="sankey-link" d="M759.9000000000001,587.2983820640243C946.19943,587.2983820640243 946.19943,584.6350803189645 1132.49886,584.6350803189645L1132.49886,601.8409626719057C946.19943,601.8409626719057 946.19943,604.5042644169655 759.9000000000001,604.5042644169655Z" style="stroke: rgb(68, 68, 68); stroke-opacity: 1; fill: rgb(99, 110, 250); fill-opacity: 0.6; stroke-width: 0; opacity: 1;"/><path class="sankey-link" d="M759.9000000000001,664.1513232404948C946.19943,664.1513232404948 946.19943,672.7402577140876 1132.49886,672.7402577140876L1132.49886,694.5343753611464C946.19943,694.5343753611464 946.19943,685.9454408875536 759.9000000000001,685.9454408875536Z" style="stroke: rgb(68, 68, 68); stroke-opacity: 1; fill: rgb(99, 110, 250); fill-opacity: 0.6; stroke-width: 0; opacity: 1;"/><path class="sankey-link" d="M759.9000000000001,57.74920258869755C946.19943,57.74920258869755 946.19943,52.525621171847895 1132.49886,52.525621171847895L1132.49886,57.11385646596555C946.19943,57.11385646596555 946.19943,62.3374378828152 759.9000000000001,62.3374378828152Z" style="stroke: rgb(68, 68, 68); stroke-opacity: 1; fill: rgb(255, 151, 255); fill-opacity: 0.6; stroke-width: 0; opacity: 1;"/><path class="sankey-link" d="M759.9000000000001,113.95508494163873C946.19943,113.95508494163873 946.19943,121.18601063215071 1132.49886,121.18601063215071L1132.49886,125.77424592626836C946.19943,125.77424592626836 946.19943,118.54332023575638 759.9000000000001,118.54332023575638Z" style="stroke: rgb(68, 68, 68); stroke-opacity: 1; fill: rgb(255, 151, 255); fill-opacity: 0.6; stroke-width: 0; opacity: 1;"/><path class="sankey-link" d="M759.9000000000001,164.48251473477427C946.19943,164.48251473477427 946.19943,163.85751762394545 1132.49886,163.85751762394545L1132.49886,165.00457644747485C946.19943,165.00457644747485 946.19943,165.62957355830366 759.9000000000001,165.62957355830366Z" style="stroke: rgb(68, 68, 68); stroke-opacity: 1; fill: rgb(255, 151, 255); fill-opacity: 0.6; stroke-width: 0; opacity: 1;"/><path class="sankey-link" d="M759.9000000000001,183.9825147347743C946.19943,183.9825147347743 946.19943,196.8831387957934 1132.49886,196.8831387957934L1132.49886,199.17725644285224C946.19943,199.17725644285224 946.19943,186.27663238183314 759.9000000000001,186.27663238183314Z" style="stroke: rgb(68, 68, 68); stroke-opacity: 1; fill: rgb(255, 151, 255); fill-opacity: 0.6; stroke-width: 0; opacity: 1;"/><path class="sankey-link" d="M759.9000000000001,248.0303131861782C946.19943,248.0303131861782 946.19943,253.64724373049802 1132.49886,253.64724373049802L1132.49886,257.08842020108625C946.19943,257.08842020108625 946.19943,251.47148965676644 759.9000000000001,251.47148965676644Z" style="stroke: rgb(68, 68, 68); stroke-opacity: 1; fill: rgb(255, 151, 255); fill-opacity: 0.6; stroke-width: 0; opacity: 1;"/><path class="sankey-link" d="M759.9000000000001,293.9126661273546C946.19943,293.9126661273546 946.19943,312.0934011325551 1132.49886,312.0934011325551L1132.49886,316.68163642667275C946.19943,316.68163642667275 946.19943,298.5009014214723 759.9000000000001,298.5009014214723Z" style="stroke: rgb(68, 68, 68); stroke-opacity: 1; fill: rgb(255, 151, 255); fill-opacity: 0.6; stroke-width: 0; opacity: 1;"/><path class="sankey-link" d="M759.9000000000001,417.3453831041261C946.19943,417.3453831041261 946.19943,421.0642320582457 1132.49886,421.0642320582457L1132.49886,427.94658499942216C946.19943,427.94658499942216 946.19943,424.22773604530255 759.9000000000001,424.22773604530255Z" style="stroke: rgb(68, 68, 68); stroke-opacity: 1; fill: rgb(255, 151, 255); fill-opacity: 0.6; stroke-width: 0; opacity: 1;"/><path class="sankey-link" d="M759.9000000000001,494.1983242805967C946.19943,494.1983242805967 946.19943,508.9945336877386 1132.49886,508.9945336877386L1132.49886,518.1710042759739C946.19943,518.1710042759739 946.19943,503.37479486883194 759.9000000000001,503.37479486883194Z" style="stroke: rgb(68, 68, 68); stroke-opacity: 1; fill: rgb(255, 151, 255); fill-opacity: 0.6; stroke-width: 0; opacity: 1;"/><path class="sankey-link" d="M759.9000000000001,604.5042644169655C946.19943,604.5042644169655 946.19943,601.8409626719057 1132.49886,601.8409626719057L1132.49886,611.017433260141C946.19943,611.017433260141 946.19943,613.6807350052009 759.9000000000001,613.6807350052009Z" style="stroke: rgb(68, 68, 68); stroke-opacity: 1; fill: rgb(255, 151, 255); fill-opacity: 0.6; stroke-width: 0; opacity: 1;"/><path class="sankey-link" d="M759.9000000000001,685.9454408875536C946.19943,685.9454408875536 946.19943,694.5343753611464 1132.49886,694.5343753611464L1132.49886,704.8579047729111C946.19943,704.8579047729111 946.19943,696.2689702993182 759.9000000000001,696.2689702993182Z" style="stroke: rgb(68, 68, 68); stroke-opacity: 1; fill: rgb(255, 151, 255); fill-opacity: 0.6; stroke-width: 0; opacity: 1;"/><path class="sankey-link" d="M759.9000000000001,62.337437882815195C946.19943,62.337437882815195 946.19943,57.11385646596554 1132.49886,57.11385646596554L1132.49886,58.260915289494946C946.19943,58.260915289494946 946.19943,63.4844967063446 759.9000000000001,63.4844967063446Z" style="stroke: rgb(68, 68, 68); stroke-opacity: 1; fill: rgb(255, 102, 146); fill-opacity: 0.6; stroke-width: 0; opacity: 1;"/><path class="sankey-link" d="M759.9000000000001,118.54332023575638C946.19943,118.54332023575638 946.19943,125.77424592626836 1132.49886,125.77424592626836L1132.49886,128.0683635733272C946.19943,128.0683635733272 946.19943,120.8374378828152 759.9000000000001,120.8374378828152Z" style="stroke: rgb(68, 68, 68); stroke-opacity: 1; fill: rgb(255, 102, 146); fill-opacity: 0.6; stroke-width: 0; opacity: 1;"/><path class="sankey-link" d="M759.9000000000001,165.6295735583037C946.19943,165.6295735583037 946.19943,165.00457644747488 1132.49886,165.00457644747488L1132.49886,166.15163527100427C946.19943,166.15163527100427 946.19943,166.77663238183308 759.9000000000001,166.77663238183308Z" style="stroke: rgb(68, 68, 68); stroke-opacity: 1; fill: rgb(255, 102, 146); fill-opacity: 0.6; stroke-width: 0; opacity: 1;"/><path class="sankey-link" d="M759.9000000000001,186.2766323818331C946.19943,186.2766323818331 946.19943,199.1772564428522 1132.49886,199.1772564428522L1132.49886,200.3243152663816C946.19943,200.3243152663816 946.19943,187.4236912053625 759.9000000000001,187.4236912053625Z" style="stroke: rgb(68, 68, 68); stroke-opacity: 1; fill: rgb(255, 102, 146); fill-opacity: 0.6; stroke-width: 0; opacity: 1;"/><path class="sankey-link" d="M759.9000000000001,298.50090142147224C946.19943,298.50090142147224 946.19943,316.6816364266727 1132.49886,316.6816364266727L1132.49886,322.41693054431977C946.19943,322.41693054431977 946.19943,304.2361955391193 759.9000000000001,304.2361955391193Z" style="stroke: rgb(68, 68, 68); stroke-opacity: 1; fill: rgb(255, 102, 146); fill-opacity: 0.6; stroke-width: 0; opacity: 1;"/><path class="sankey-link" d="M759.9000000000001,424.22773604530255C946.19943,424.22773604530255 946.19943,427.94658499942216 1132.49886,427.94658499942216L1132.49886,434.8289379405986C946.19943,434.8289379405986 946.19943,431.110088986479 759.9000000000001,431.110088986479Z" style="stroke: rgb(68, 68, 68); stroke-opacity: 1; fill: rgb(255, 102, 146); fill-opacity: 0.6; stroke-width: 0; opacity: 1;"/><path class="sankey-link" d="M759.9000000000001,503.374794868832C946.19943,503.374794868832 946.19943,518.1710042759738 1132.49886,518.1710042759738L1132.49886,519.3180630995033C946.19943,519.3180630995033 946.19943,504.5218536923614 759.9000000000001,504.5218536923614Z" style="stroke: rgb(68, 68, 68); stroke-opacity: 1; fill: rgb(255, 102, 146); fill-opacity: 0.6; stroke-width: 0; opacity: 1;"/><path class="sankey-link" d="M759.9000000000001,613.6807350052007C946.19943,613.6807350052007 946.19943,611.0174332601409 1132.49886,611.0174332601409L1132.49886,613.3115509071997C946.19943,613.3115509071997 946.19943,615.9748526522595 759.9000000000001,615.9748526522595Z" style="stroke: rgb(68, 68, 68); stroke-opacity: 1; fill: rgb(255, 102, 146); fill-opacity: 0.6; stroke-width: 0; opacity: 1;"/><path class="sankey-link" d="M759.9000000000001,696.2689702993183C946.19943,696.2689702993183 946.19943,704.8579047729112 1132.49886,704.8579047729112L1132.49886,707.15202241997C946.19943,707.15202241997 946.19943,698.5630879463771 759.9000000000001,698.5630879463771Z" style="stroke: rgb(68, 68, 68); stroke-opacity: 1; fill: rgb(255, 102, 146); fill-opacity: 0.6; stroke-width: 0; opacity: 1;"/><path class="sankey-link" d="M759.9000000000001,63.48449670634461C946.19943,63.48449670634461 946.19943,58.26091528949495 1132.49886,58.26091528949495L1132.49886,59.40797411302436C946.19943,59.40797411302436 946.19943,64.63155552987402 759.9000000000001,64.63155552987402Z" style="stroke: rgb(68, 68, 68); stroke-opacity: 1; fill: rgb(182, 232, 128); fill-opacity: 0.6; stroke-width: 0; opacity: 1;"/><path class="sankey-link" d="M759.9000000000001,615.9748526522595C946.19943,615.9748526522595 946.19943,613.3115509071997 1132.49886,613.3115509071997L1132.49886,614.4586097307292C946.19943,614.4586097307292 946.19943,617.121911475789 759.9000000000001,617.121911475789Z" style="stroke: rgb(68, 68, 68); stroke-opacity: 1; fill: rgb(182, 232, 128); fill-opacity: 0.6; stroke-width: 0; opacity: 1;"/></g><g class="sankey-node-set" style="cursor: ns-resize;"><g class="sankey-node" transform="translate(-7.499,20.049)" style="opacity: 1;"><rect class="node-rect" width="15" height="24.088235294117794" style="stroke-width: 0.5; stroke: rgb(0, 0, 0); stroke-opacity: 1; fill: rgb(128, 128, 128); fill-opacity: 1;"/><text class="node-label" data-notex="1" x="0" y="0" text-anchor="start" transform="translate(18.25,16.244117647058896)" style="cursor: default; font-family: 'Open Sans', verdana, arial, sans-serif; font-size: 12px; fill: rgb(42, 63, 95); fill-opacity: 1; white-space: pre; text-shadow: white 1px 1px 1px, white -1px -1px 1px, white 1px -1px 1px, white -1px 1px 1px;">21271R</text></g><g class="sankey-node" transform="translate(-7.499,105.348)" style="opacity: 1;"><rect class="node-rect" width="15" height="175.5" style="stroke-width: 0.5; stroke: rgb(0, 0, 0); stroke-opacity: 1; fill: rgb(128, 128, 128); fill-opacity: 1;"/><text class="node-label" data-notex="1" x="0" y="0" text-anchor="start" transform="translate(18.25,91.95)" style="cursor: default; font-family: 'Open Sans', verdana, arial, sans-serif; font-size: 12px; fill: rgb(42, 63, 95); fill-opacity: 1; white-space: pre; text-shadow: white 1px 1px 1px, white -1px -1px 1px, white 1px -1px 1px, white -1px 1px 1px;">21272R</text></g><g class="sankey-node" transform="translate(-7.499,347.708)" style="opacity: 1;"><rect class="node-rect" width="15" height="48.176470588235134" style="stroke-width: 0.5; stroke: rgb(0, 0, 0); stroke-opacity: 1; fill: rgb(128, 128, 128); fill-opacity: 1;"/><text class="node-label" data-notex="1" x="0" y="0" text-anchor="start" transform="translate(18.25,28.288235294117566)" style="cursor: default; font-family: 'Open Sans', verdana, arial, sans-serif; font-size: 12px; fill: rgb(42, 63, 95); fill-opacity: 1; white-space: pre; text-shadow: white 1px 1px 1px, white -1px -1px 1px, white 1px -1px 1px, white -1px 1px 1px;">21965RL</text></g><g class="sankey-node" transform="translate(-7.499,443.105)" style="opacity: 1;"><rect class="node-rect" width="15" height="91.76470588235281" style="stroke-width: 0.5; stroke: rgb(0, 0, 0); stroke-opacity: 1; fill: rgb(128, 128, 128); fill-opacity: 1;"/><text class="node-label" data-notex="1" x="0" y="0" text-anchor="start" transform="translate(18.25,50.08235294117641)" style="cursor: default; font-family: 'Open Sans', verdana, arial, sans-serif; font-size: 12px; fill: rgb(42, 63, 95); fill-opacity: 1; white-space: pre; text-shadow: white 1px 1px 1px, white -1px -1px 1px, white 1px -1px 1px, white -1px 1px 1px;">22384</text></g><g class="sankey-node" transform="translate(-7.499,592.313)" style="opacity: 1;"><rect class="node-rect" width="15" height="91.76470588235293" style="stroke-width: 0.5; stroke: rgb(0, 0, 0); stroke-opacity: 1; fill: rgb(128, 128, 128); fill-opacity: 1;"/><text class="node-label" data-notex="1" x="0" y="0" text-anchor="start" transform="translate(18.25,50.08235294117647)" style="cursor: default; font-family: 'Open Sans', verdana, arial, sans-serif; font-size: 12px; fill: rgb(42, 63, 95); fill-opacity: 1; white-space: pre; text-shadow: white 1px 1px 1px, white -1px -1px 1px, white 1px -1px 1px, white -1px 1px 1px;">22670</text></g><g class="sankey-node" transform="translate(744.900,18.749)" style="opacity: 1;"><rect class="node-rect" width="15" height="102.08823529411765" style="stroke-width: 0.5; stroke: rgb(0, 0, 0); stroke-opacity: 1; fill: rgb(128, 128, 128); fill-opacity: 1;"/><text class="node-label" data-notex="1" x="0" y="0" text-anchor="start" transform="translate(18.25,55.24411764705883)" style="cursor: default; font-family: 'Open Sans', verdana, arial, sans-serif; font-size: 12px; fill: rgb(42, 63, 95); fill-opacity: 1; white-space: pre; text-shadow: white 1px 1px 1px, white -1px -1px 1px, white 1px -1px 1px, white -1px 1px 1px;">dig</text></g><g class="sankey-node" transform="translate(744.900,141.541)" style="opacity: 1;"><rect class="node-rect" width="15" height="45.88235294117601" style="stroke-width: 0.5; stroke: rgb(0, 0, 0); stroke-opacity: 1; fill: rgb(128, 128, 128); fill-opacity: 1;"/><text class="node-label" data-notex="1" x="0" y="0" text-anchor="start" transform="translate(18.25,27.141176470588004)" style="cursor: default; font-family: 'Open Sans', verdana, arial, sans-serif; font-size: 12px; fill: rgb(42, 63, 95); fill-opacity: 1; white-space: pre; text-shadow: white 1px 1px 1px, white -1px -1px 1px, white 1px -1px 1px, white -1px 1px 1px;">groom_front</text></g><g class="sankey-node" transform="translate(744.900,207.883)" style="opacity: 1;"><rect class="node-rect" width="15" height="96.35294117647052" style="stroke-width: 0.5; stroke: rgb(0, 0, 0); stroke-opacity: 1; fill: rgb(128, 128, 128); fill-opacity: 1;"/><text class="node-label" data-notex="1" x="0" y="0" text-anchor="start" transform="translate(18.25,52.376470588235264)" style="cursor: default; font-family: 'Open Sans', verdana, arial, sans-serif; font-size: 12px; fill: rgb(42, 63, 95); fill-opacity: 1; white-space: pre; text-shadow: white 1px 1px 1px, white -1px -1px 1px, white 1px -1px 1px, white -1px 1px 1px;">still</text></g><g class="sankey-node" transform="translate(744.900,330.169)" style="opacity: 1;"><rect class="node-rect" width="15" height="174.3529411764698" style="stroke-width: 0.5; stroke: rgb(0, 0, 0); stroke-opacity: 1; fill: rgb(128, 128, 128); fill-opacity: 1;"/><text class="node-label" data-notex="1" x="0" y="0" text-anchor="start" transform="translate(18.25,91.37647058823491)" style="cursor: default; font-family: 'Open Sans', verdana, arial, sans-serif; font-size: 12px; fill: rgb(42, 63, 95); fill-opacity: 1; white-space: pre; text-shadow: white 1px 1px 1px, white -1px -1px 1px, white 1px -1px 1px, white -1px 1px 1px;">walk</text></g><g class="sankey-node" transform="translate(744.900,533.387)" style="opacity: 1;"><rect class="node-rect" width="15" height="165.1764705882349" style="stroke-width: 0.5; stroke: rgb(0, 0, 0); stroke-opacity: 1; fill: rgb(128, 128, 128); fill-opacity: 1;"/><text class="node-label" data-notex="1" x="0" y="0" text-anchor="start" transform="translate(18.25,86.78823529411746)" style="cursor: default; font-family: 'Open Sans', verdana, arial, sans-serif; font-size: 12px; fill: rgb(42, 63, 95); fill-opacity: 1; white-space: pre; text-shadow: white 1px 1px 1px, white -1px -1px 1px, white 1px -1px 1px, white -1px 1px 1px;">wallclimb</text></g><g class="sankey-node" transform="translate(1132.499,13.526)" style="opacity: 1;"><rect class="node-rect" width="15" height="45.88235294117649" style="stroke-width: 0.5; stroke: rgb(0, 0, 0); stroke-opacity: 1; fill: rgb(128, 128, 128); fill-opacity: 1;"/><text class="node-label" data-notex="1" x="0" y="0" text-anchor="end" transform="translate(-3.25,27.141176470588245)" style="cursor: default; font-family: 'Open Sans', verdana, arial, sans-serif; font-size: 12px; fill: rgb(42, 63, 95); fill-opacity: 1; white-space: pre; text-shadow: white 1px 1px 1px, white -1px -1px 1px, white 1px -1px 1px, white -1px 1px 1px;">dig-activated</text></g><g class="sankey-node" transform="translate(1132.499,71.862)" style="opacity: 1;"><rect class="node-rect" width="15" height="56.20588235294116" style="stroke-width: 0.5; stroke: rgb(0, 0, 0); stroke-opacity: 1; fill: rgb(128, 128, 128); fill-opacity: 1;"/><text class="node-label" data-notex="1" x="0" y="0" text-anchor="end" transform="translate(-3.25,32.30294117647058)" style="cursor: default; font-family: 'Open Sans', verdana, arial, sans-serif; font-size: 12px; fill: rgb(42, 63, 95); fill-opacity: 1; white-space: pre; text-shadow: white 1px 1px 1px, white -1px -1px 1px, white 1px -1px 1px, white -1px 1px 1px;">dig-suppressed</text></g><g class="sankey-node" transform="translate(1132.499,140.916)" style="opacity: 1;"><rect class="node-rect" width="15" height="25.235294117647072" style="stroke-width: 0.5; stroke: rgb(0, 0, 0); stroke-opacity: 1; fill: rgb(128, 128, 128); fill-opacity: 1;"/><text class="node-label" data-notex="1" x="0" y="0" text-anchor="end" transform="translate(-3.25,16.817647058823535)" style="cursor: default; font-family: 'Open Sans', verdana, arial, sans-serif; font-size: 12px; fill: rgb(42, 63, 95); fill-opacity: 1; white-space: pre; text-shadow: white 1px 1px 1px, white -1px -1px 1px, white 1px -1px 1px, white -1px 1px 1px;">groom_front-activated</text></g><g class="sankey-node" transform="translate(1132.499,179.677)" style="opacity: 1;"><rect class="node-rect" width="15" height="20.64705882352939" style="stroke-width: 0.5; stroke: rgb(0, 0, 0); stroke-opacity: 1; fill: rgb(128, 128, 128); fill-opacity: 1;"/><text class="node-label" data-notex="1" x="0" y="0" text-anchor="end" transform="translate(-3.25,14.523529411764695)" style="cursor: default; font-family: 'Open Sans', verdana, arial, sans-serif; font-size: 12px; fill: rgb(42, 63, 95); fill-opacity: 1; white-space: pre; text-shadow: white 1px 1px 1px, white -1px -1px 1px, white 1px -1px 1px, white -1px 1px 1px;">groom_front-suppressed</text></g><g class="sankey-node" transform="translate(1132.499,213.500)" style="opacity: 1;"><rect class="node-rect" width="15" height="43.58823529411791" style="stroke-width: 0.5; stroke: rgb(0, 0, 0); stroke-opacity: 1; fill: rgb(128, 128, 128); fill-opacity: 1;"/><text class="node-label" data-notex="1" x="0" y="0" text-anchor="end" transform="translate(-3.25,25.994117647058953)" style="cursor: default; font-family: 'Open Sans', verdana, arial, sans-serif; font-size: 12px; fill: rgb(42, 63, 95); fill-opacity: 1; white-space: pre; text-shadow: white 1px 1px 1px, white -1px -1px 1px, white 1px -1px 1px, white -1px 1px 1px;">still-activated</text></g><g class="sankey-node" transform="translate(1132.499,269.652)" style="opacity: 1;"><rect class="node-rect" width="15" height="52.76470588235304" style="stroke-width: 0.5; stroke: rgb(0, 0, 0); stroke-opacity: 1; fill: rgb(128, 128, 128); fill-opacity: 1;"/><text class="node-label" data-notex="1" x="0" y="0" text-anchor="end" transform="translate(-3.25,30.58235294117652)" style="cursor: default; font-family: 'Open Sans', verdana, arial, sans-serif; font-size: 12px; fill: rgb(42, 63, 95); fill-opacity: 1; white-space: pre; text-shadow: white 1px 1px 1px, white -1px -1px 1px, white 1px -1px 1px, white -1px 1px 1px;">still-suppressed</text></g><g class="sankey-node" transform="translate(1132.499,333.888)" style="opacity: 1;"><rect class="node-rect" width="15" height="100.94117647058829" style="stroke-width: 0.5; stroke: rgb(0, 0, 0); stroke-opacity: 1; fill: rgb(128, 128, 128); fill-opacity: 1;"/><text class="node-label" data-notex="1" x="0" y="0" text-anchor="end" transform="translate(-3.25,54.67058823529415)" style="cursor: default; font-family: 'Open Sans', verdana, arial, sans-serif; font-size: 12px; fill: rgb(42, 63, 95); fill-opacity: 1; white-space: pre; text-shadow: white 1px 1px 1px, white -1px -1px 1px, white 1px -1px 1px, white -1px 1px 1px;">walk-activated</text></g><g class="sankey-node" transform="translate(1132.499,445.906)" style="opacity: 1;"><rect class="node-rect" width="15" height="73.41176470588209" style="stroke-width: 0.5; stroke: rgb(0, 0, 0); stroke-opacity: 1; fill: rgb(128, 128, 128); fill-opacity: 1;"/><text class="node-label" data-notex="1" x="0" y="0" text-anchor="end" transform="translate(-3.25,40.90588235294105)" style="cursor: default; font-family: 'Open Sans', verdana, arial, sans-serif; font-size: 12px; fill: rgb(42, 63, 95); fill-opacity: 1; white-space: pre; text-shadow: white 1px 1px 1px, white -1px -1px 1px, white 1px -1px 1px, white -1px 1px 1px;">walk-suppressed</text></g><g class="sankey-node" transform="translate(1132.499,530.723)" style="opacity: 1;"><rect class="node-rect" width="15" height="83.73529411764707" style="stroke-width: 0.5; stroke: rgb(0, 0, 0); stroke-opacity: 1; fill: rgb(128, 128, 128); fill-opacity: 1;"/><text class="node-label" data-notex="1" x="0" y="0" text-anchor="end" transform="translate(-3.25,46.06764705882354)" style="cursor: default; font-family: 'Open Sans', verdana, arial, sans-serif; font-size: 12px; fill: rgb(42, 63, 95); fill-opacity: 1; white-space: pre; text-shadow: white 1px 1px 1px, white -1px -1px 1px, white 1px -1px 1px, white -1px 1px 1px;">wallclimb-activated</text></g><g class="sankey-node" transform="translate(1132.499,625.711)" style="opacity: 1;"><rect class="node-rect" width="15" height="81.44117647058806" style="stroke-width: 0.5; stroke: rgb(0, 0, 0); stroke-opacity: 1; fill: rgb(128, 128, 128); fill-opacity: 1;"/><text class="node-label" data-notex="1" x="0" y="0" text-anchor="end" transform="translate(-3.25,44.92058823529403)" style="cursor: default; font-family: 'Open Sans', verdana, arial, sans-serif; font-size: 12px; fill: rgb(42, 63, 95); fill-opacity: 1; white-space: pre; text-shadow: white 1px 1px 1px, white -1px -1px 1px, white 1px -1px 1px, white -1px 1px 1px;">wallclimb-suppressed</text></g><g class="sankey-node" transform="translate(368.700,13.712)" style="opacity: 1;"><rect class="node-rect" width="15" height="34.41176470588243" style="stroke-width: 0.5; stroke: rgb(0, 0, 0); stroke-opacity: 1; fill: rgb(25, 211, 243); fill-opacity: 1;"/><text class="node-label" data-notex="1" x="0" y="0" text-anchor="start" transform="translate(18.25,21.405882352941216)" style="cursor: default; font-family: 'Open Sans', verdana, arial, sans-serif; font-size: 12px; fill: rgb(42, 63, 95); fill-opacity: 1; white-space: pre; text-shadow: white 1px 1px 1px, white -1px -1px 1px, white 1px -1px 1px, white -1px 1px 1px;">BLA</text></g><g class="sankey-node" transform="translate(368.700,59.977)" style="opacity: 1;"><rect class="node-rect" width="15" height="92.91176470588198" style="stroke-width: 0.5; stroke: rgb(0, 0, 0); stroke-opacity: 1; fill: rgb(239, 85, 59); fill-opacity: 1;"/><text class="node-label" data-notex="1" x="0" y="0" text-anchor="start" transform="translate(18.25,50.65588235294099)" style="cursor: default; font-family: 'Open Sans', verdana, arial, sans-serif; font-size: 12px; fill: rgb(42, 63, 95); fill-opacity: 1; white-space: pre; text-shadow: white 1px 1px 1px, white -1px -1px 1px, white 1px -1px 1px, white -1px 1px 1px;">Cla</text></g><g class="sankey-node" transform="translate(368.700,164.215)" style="opacity: 1;"><rect class="node-rect" width="15" height="60.79411764705901" style="stroke-width: 0.5; stroke: rgb(0, 0, 0); stroke-opacity: 1; fill: rgb(0, 204, 150); fill-opacity: 1;"/><text class="node-label" data-notex="1" x="0" y="0" text-anchor="start" transform="translate(18.25,34.59705882352951)" style="cursor: default; font-family: 'Open Sans', verdana, arial, sans-serif; font-size: 12px; fill: rgb(42, 63, 95); fill-opacity: 1; white-space: pre; text-shadow: white 1px 1px 1px, white -1px -1px 1px, white 1px -1px 1px, white -1px 1px 1px;">LC</text></g><g class="sankey-node" transform="translate(368.700,237.505)" style="opacity: 1;"><rect class="node-rect" width="15" height="34.41176470588243" style="stroke-width: 0.5; stroke: rgb(0, 0, 0); stroke-opacity: 1; fill: rgb(254, 203, 82); fill-opacity: 1;"/><text class="node-label" data-notex="1" x="0" y="0" text-anchor="start" transform="translate(18.25,21.405882352941216)" style="cursor: default; font-family: 'Open Sans', verdana, arial, sans-serif; font-size: 12px; fill: rgb(42, 63, 95); fill-opacity: 1; white-space: pre; text-shadow: white 1px 1px 1px, white -1px -1px 1px, white 1px -1px 1px, white -1px 1px 1px;">LHyp</text></g><g class="sankey-node" transform="translate(368.700,284.894)" style="opacity: 1;"><rect class="node-rect" width="15" height="36.70588235294099" style="stroke-width: 0.5; stroke: rgb(0, 0, 0); stroke-opacity: 1; fill: rgb(255, 161, 90); fill-opacity: 1;"/><text class="node-label" data-notex="1" x="0" y="0" text-anchor="start" transform="translate(18.25,22.552941176470494)" style="cursor: default; font-family: 'Open Sans', verdana, arial, sans-serif; font-size: 12px; fill: rgb(42, 63, 95); fill-opacity: 1; white-space: pre; text-shadow: white 1px 1px 1px, white -1px -1px 1px, white 1px -1px 1px, white -1px 1px 1px;">NAc</text></g><g class="sankey-node" transform="translate(368.700,333.729)" style="opacity: 1;"><rect class="node-rect" width="15" height="76.8529411764705" style="stroke-width: 0.5; stroke: rgb(0, 0, 0); stroke-opacity: 1; fill: rgb(171, 99, 250); fill-opacity: 1;"/><text class="node-label" data-notex="1" x="0" y="0" text-anchor="start" transform="translate(18.25,42.62647058823525)" style="cursor: default; font-family: 'Open Sans', verdana, arial, sans-serif; font-size: 12px; fill: rgb(42, 63, 95); fill-opacity: 1; white-space: pre; text-shadow: white 1px 1px 1px, white -1px -1px 1px, white 1px -1px 1px, white -1px 1px 1px;">Str</text></g><g class="sankey-node" transform="translate(368.700,420.141)" style="opacity: 1;"><rect class="node-rect" width="15" height="165.17647058823547" style="stroke-width: 0.5; stroke: rgb(0, 0, 0); stroke-opacity: 1; fill: rgb(99, 110, 250); fill-opacity: 1;"/><text class="node-label" data-notex="1" x="0" y="0" text-anchor="start" transform="translate(18.25,86.78823529411774)" style="cursor: default; font-family: 'Open Sans', verdana, arial, sans-serif; font-size: 12px; fill: rgb(42, 63, 95); fill-opacity: 1; white-space: pre; text-shadow: white 1px 1px 1px, white -1px -1px 1px, white 1px -1px 1px, white -1px 1px 1px;">VTA</text></g><g class="sankey-node" transform="translate(368.700,595.290)" style="opacity: 1;"><rect class="node-rect" width="15" height="56.20588235294122" style="stroke-width: 0.5; stroke: rgb(0, 0, 0); stroke-opacity: 1; fill: rgb(255, 151, 255); fill-opacity: 1;"/><text class="node-label" data-notex="1" x="0" y="0" text-anchor="start" transform="translate(18.25,32.30294117647061)" style="cursor: default; font-family: 'Open Sans', verdana, arial, sans-serif; font-size: 12px; fill: rgb(42, 63, 95); fill-opacity: 1; white-space: pre; text-shadow: white 1px 1px 1px, white -1px -1px 1px, white 1px -1px 1px, white -1px 1px 1px;">cPFC</text></g><g class="sankey-node" transform="translate(368.700,664.290)" style="opacity: 1;"><rect class="node-rect" width="15" height="24.08823529411734" style="stroke-width: 0.5; stroke: rgb(0, 0, 0); stroke-opacity: 1; fill: rgb(255, 102, 146); fill-opacity: 1;"/><text class="node-label" data-notex="1" x="0" y="0" text-anchor="start" transform="translate(18.25,16.24411764705867)" style="cursor: default; font-family: 'Open Sans', verdana, arial, sans-serif; font-size: 12px; fill: rgb(42, 63, 95); fill-opacity: 1; white-space: pre; text-shadow: white 1px 1px 1px, white -1px -1px 1px, white 1px -1px 1px, white -1px 1px 1px;">dPAG</text></g><g class="sankey-node" transform="translate(368.700,702.228)" style="opacity: 1;"><rect class="node-rect" width="15" height="3.441176470588289" style="stroke-width: 0.5; stroke: rgb(0, 0, 0); stroke-opacity: 1; fill: rgb(182, 232, 128); fill-opacity: 1;"/><text class="node-label" data-notex="1" x="0" y="0" text-anchor="start" transform="translate(18.25,5.920588235294144)" style="cursor: default; font-family: 'Open Sans', verdana, arial, sans-serif; font-size: 12px; fill: rgb(42, 63, 95); fill-opacity: 1; white-space: pre; text-shadow: white 1px 1px 1px, white -1px -1px 1px, white 1px -1px 1px, white -1px 1px 1px;">lHb</text></g></g></g><defs id="topdefs-97c123"><g class="clips"/></defs><g class="layer-above"><g class="imagelayer"/><g class="shapelayer"/></g><g class="infolayer"><g class="g-gtitle"/><g class="first-render"/></g></svg>