<svg class="main-svg" xmlns="http://www.w3.org/2000/svg" xmlns:xlink="http://www.w3.org/1999/xlink" width="1300" height="900" style="" viewBox="0 0 1300 900"><rect x="0" y="0" width="1300" height="900" style="fill: rgb(255, 255, 255); fill-opacity: 1;"/><defs id="defs-224e81"><g class="clips"/><g class="gradients"/><g class="patterns"/></defs><g class="bglayer"/><g class="layer-below"><g class="imagelayer"/><g class="shapelayer"/></g><g class="cartesianlayer"/><g class="polarlayer"/><g class="smithlayer"/><g class="ternarylayer"/><g class="geolayer"/><g class="funnelarealayer"/><g class="pielayer"/><g class="iciclelayer"/><g class="treemaplayer"/><g class="sunburstlayer"/><g class="glimages"/><g class="sankey" transform="translate(80,100)matrix(1 0 0 1 0 0)" style="box-sizing: content-box; position: absolute; left: 0px; shape-rendering: geometricprecision; pointer-events: none;"><g class="sankey-links" style="fill: none;"><path class="sankey-link" d="M15,427.5989445910289C195,427.5989445910289 195,282.2691292875983 375,282.2691292875983L375,293.0738786279677C195,293.0738786279677 195,438.4036939313983 15,438.4036939313983Z" style="stroke: rgb(68, 68, 68); stroke-opacity: 1; fill: rgb(239, 85, 59); fill-opacity: 0.6; stroke-width: 0; opacity: 1;"/><path class="sankey-link" d="M15,438.40369393139827C195,438.40369393139827 195,371.3588390501309 375,371.3588390501309L375,374.4459102902364C195,374.4459102902364 195,441.49076517150377 15,441.49076517150377Z" style="stroke: rgb(68, 68, 68); stroke-opacity: 1; fill: rgb(0, 204, 150); fill-opacity: 0.6; stroke-width: 0; opacity: 1;"/><path class="sankey-link" d="M15,410.62005277044847C195,410.62005277044847 195,101.00263852242702 375,101.00263852242702L375,107.17678100263811C195,107.17678100263811 195,416.7941952506596 15,416.7941952506596Z" style="stroke: rgb(68, 68, 68); stroke-opacity: 1; fill: rgb(255, 161, 90); fill-opacity: 0.6; stroke-width: 0; opacity: 1;"/><path class="sankey-link" d="M15,416.7941952506595C195,416.7941952506595 195,170.02638522427387 375,170.02638522427387L375,180.83113456464324C195,180.83113456464324 195,427.59894459102895 15,427.59894459102895Z" style="stroke: rgb(68, 68, 68); stroke-opacity: 1; fill: rgb(171, 99, 250); fill-opacity: 0.6; stroke-width: 0; opacity: 1;"/><path class="sankey-link" d="M15,441.4907651715038C195,441.4907651715038 195,541.3852242744057 375,541.3852242744057L375,542.9287598944585C195,542.9287598944585 195,443.03430079155663 15,443.03430079155663Z" style="stroke: rgb(68, 68, 68); stroke-opacity: 1; fill: rgb(99, 110, 250); fill-opacity: 0.6; stroke-width: 0; opacity: 1;"/><path class="sankey-link" d="M15,84.2612137203161C195,84.2612137203161 195,19.630606860157684 375,19.630606860157684L375,48.95778364116032C195,48.95778364116032 195,113.58839050131874 15,113.58839050131874Z" style="stroke: rgb(68, 68, 68); stroke-opacity: 1; fill: rgb(25, 211, 243); fill-opacity: 0.6; stroke-width: 0; opacity: 1;"/><path class="sankey-link" d="M15,179.96042216358785C195,179.96042216358785 195,220.52770448548745 375,220.52770448548745L375,259.11609498680673C195,259.11609498680673 195,218.54881266490713 15,218.54881266490713Z" style="stroke: rgb(68, 68, 68); stroke-opacity: 1; fill: rgb(239, 85, 59); fill-opacity: 0.6; stroke-width: 0; opacity: 1;"/><path class="sankey-link" d="M15,218.5488126649071C195,218.5488126649071 195,329.6833773087061 375,329.6833773087061L375,365.18469656991977C195,365.18469656991977 195,254.05013192612083 15,254.05013192612083Z" style="stroke: rgb(68, 68, 68); stroke-opacity: 1; fill: rgb(0, 204, 150); fill-opacity: 0.6; stroke-width: 0; opacity: 1;"/><path class="sankey-link" d="M15,113.58839050131874C195,113.58839050131874 195,67.04485488126608 375,67.04485488126608L375,87.11081794195209C195,87.11081794195209 195,133.65435356200476 15,133.65435356200476Z" style="stroke: rgb(68, 68, 68); stroke-opacity: 1; fill: rgb(255, 161, 90); fill-opacity: 0.6; stroke-width: 0; opacity: 1;"/><path class="sankey-link" d="M15,133.65435356200476C195,133.65435356200476 195,122.176781002638 375,122.176781002638L375,168.4828496042211C195,168.4828496042211 195,179.96042216358785 15,179.96042216358785Z" style="stroke: rgb(68, 68, 68); stroke-opacity: 1; fill: rgb(171, 99, 250); fill-opacity: 0.6; stroke-width: 0; opacity: 1;"/><path class="sankey-link" d="M15,294.18205804749283C195,294.18205804749283 195,516.6886543535614 375,516.6886543535614L375,538.2981530343003C195,538.2981530343003 195,315.79155672823157 15,315.79155672823157Z" style="stroke: rgb(68, 68, 68); stroke-opacity: 1; fill: rgb(99, 110, 250); fill-opacity: 0.6; stroke-width: 0; opacity: 1;"/><path class="sankey-link" d="M15,254.05013192612083C195,254.05013192612083 195,404.8812664907646 375,404.8812664907646L375,431.1213720316616C195,431.1213720316616 195,280.2902374670179 15,280.2902374670179Z" style="stroke: rgb(68, 68, 68); stroke-opacity: 1; fill: rgb(255, 151, 255); fill-opacity: 0.6; stroke-width: 0; opacity: 1;"/><path class="sankey-link" d="M15,280.2902374670179C195,280.2902374670179 195,472.3614775725588 375,472.3614775725588L375,486.2532981530337C195,486.2532981530337 195,294.18205804749283 15,294.18205804749283Z" style="stroke: rgb(68, 68, 68); stroke-opacity: 1; fill: rgb(255, 102, 146); fill-opacity: 0.6; stroke-width: 0; opacity: 1;"/><path class="sankey-link" d="M15,79.6306068601578C195,79.6306068601578 195,-6.252776074688882e-13 375,-6.252776074688882e-13L375,4.630606860157686C195,4.630606860157686 195,84.2612137203161 15,84.2612137203161Z" style="stroke: rgb(68, 68, 68); stroke-opacity: 1; fill: rgb(182, 232, 128); fill-opacity: 0.6; stroke-width: 0; opacity: 1;"/><path class="sankey-link" d="M15,330.7915567282317C195,330.7915567282317 195,48.95778364116032 375,48.95778364116032L375,52.04485488126586C195,52.04485488126586 195,333.8786279683372 15,333.8786279683372Z" style="stroke: rgb(68, 68, 68); stroke-opacity: 1; fill: rgb(25, 211, 243); fill-opacity: 0.6; stroke-width: 0; opacity: 1;"/><path class="sankey-link" d="M15,349.3139841688649C195,349.3139841688649 195,259.11609498680673 375,259.11609498680673L375,282.2691292875983C195,282.2691292875983 195,372.46701846965647 15,372.46701846965647Z" style="stroke: rgb(68, 68, 68); stroke-opacity: 1; fill: rgb(239, 85, 59); fill-opacity: 0.6; stroke-width: 0; opacity: 1;"/><path class="sankey-link" d="M15,372.46701846965647C195,372.46701846965647 195,365.1846965699198 375,365.1846965699198L375,371.35883905013094C195,371.35883905013094 195,378.6411609498676 15,378.6411609498676Z" style="stroke: rgb(68, 68, 68); stroke-opacity: 1; fill: rgb(0, 204, 150); fill-opacity: 0.6; stroke-width: 0; opacity: 1;"/><path class="sankey-link" d="M15,333.87862796833724C195,333.87862796833724 195,87.11081794195209 375,87.11081794195209L375,101.00263852242702C195,101.00263852242702 195,347.77044854881217 15,347.77044854881217Z" style="stroke: rgb(68, 68, 68); stroke-opacity: 1; fill: rgb(255, 161, 90); fill-opacity: 0.6; stroke-width: 0; opacity: 1;"/><path class="sankey-link" d="M15,347.77044854881217C195,347.77044854881217 195,168.4828496042211 375,168.4828496042211L375,170.02638522427384C195,170.02638522427384 195,349.313984168865 15,349.313984168865Z" style="stroke: rgb(68, 68, 68); stroke-opacity: 1; fill: rgb(171, 99, 250); fill-opacity: 0.6; stroke-width: 0; opacity: 1;"/><path class="sankey-link" d="M15,392.53298153034245C195,392.53298153034245 195,538.2981530343002 375,538.2981530343002L375,541.3852242744058C195,541.3852242744058 195,395.62005277044796 15,395.62005277044796Z" style="stroke: rgb(68, 68, 68); stroke-opacity: 1; fill: rgb(99, 110, 250); fill-opacity: 0.6; stroke-width: 0; opacity: 1;"/><path class="sankey-link" d="M15,378.6411609498675C195,378.6411609498675 195,431.1213720316617 375,431.1213720316617L375,435.75197889182C195,435.75197889182 195,383.27176781002584 15,383.27176781002584Z" style="stroke: rgb(68, 68, 68); stroke-opacity: 1; fill: rgb(255, 151, 255); fill-opacity: 0.6; stroke-width: 0; opacity: 1;"/><path class="sankey-link" d="M15,383.27176781002584C195,383.27176781002584 195,486.2532981530337 375,486.2532981530337L375,495.51451187335033C195,495.51451187335033 195,392.53298153034245 15,392.53298153034245Z" style="stroke: rgb(68, 68, 68); stroke-opacity: 1; fill: rgb(255, 102, 146); fill-opacity: 0.6; stroke-width: 0; opacity: 1;"/><path class="sankey-link" d="M15,470.38258575197887C195,470.38258575197887 195,293.07387862796764 375,293.07387862796764L375,303.87862796833707C195,303.87862796833707 195,481.1873350923483 15,481.1873350923483Z" style="stroke: rgb(68, 68, 68); stroke-opacity: 1; fill: rgb(239, 85, 59); fill-opacity: 0.6; stroke-width: 0; opacity: 1;"/><path class="sankey-link" d="M15,481.18733509234823C195,481.18733509234823 195,374.44591029023644 375,374.44591029023644L375,382.16358839050025C195,382.16358839050025 195,488.90501319261205 15,488.90501319261205Z" style="stroke: rgb(68, 68, 68); stroke-opacity: 1; fill: rgb(0, 204, 150); fill-opacity: 0.6; stroke-width: 0; opacity: 1;"/><path class="sankey-link" d="M15,566.0817941952506C195,566.0817941952506 195,684.4986807387861 375,684.4986807387861L375,699.9340369393137C195,699.9340369393137 195,581.5171503957782 15,581.5171503957782Z" style="stroke: rgb(68, 68, 68); stroke-opacity: 1; fill: rgb(254, 203, 82); fill-opacity: 0.6; stroke-width: 0; opacity: 1;"/><path class="sankey-link" d="M15,458.0343007915567C195,458.0343007915567 195,180.83113456464326 375,180.83113456464326L375,193.17941952506544C195,193.17941952506544 195,470.3825857519788 15,470.3825857519788Z" style="stroke: rgb(68, 68, 68); stroke-opacity: 1; fill: rgb(171, 99, 250); fill-opacity: 0.6; stroke-width: 0; opacity: 1;"/><path class="sankey-link" d="M15,502.79683377308703C195,502.79683377308703 195,542.9287598944585 375,542.9287598944585L375,606.213720316622C195,606.213720316622 195,566.0817941952506 15,566.0817941952506Z" style="stroke: rgb(68, 68, 68); stroke-opacity: 1; fill: rgb(99, 110, 250); fill-opacity: 0.6; stroke-width: 0; opacity: 1;"/><path class="sankey-link" d="M15,488.9050131926121C195,488.9050131926121 195,435.75197889182 375,435.75197889182L375,446.5567282321894C195,446.5567282321894 195,499.70976253298153 15,499.70976253298153Z" style="stroke: rgb(68, 68, 68); stroke-opacity: 1; fill: rgb(255, 151, 255); fill-opacity: 0.6; stroke-width: 0; opacity: 1;"/><path class="sankey-link" d="M15,499.7097625329815C195,499.7097625329815 195,495.51451187335033 375,495.51451187335033L375,498.60158311345583C195,498.60158311345583 195,502.796833773087 15,502.796833773087Z" style="stroke: rgb(68, 68, 68); stroke-opacity: 1; fill: rgb(255, 102, 146); fill-opacity: 0.6; stroke-width: 0; opacity: 1;"/><path class="sankey-link" d="M15,608.8654353562002C195,608.8654353562002 195,303.878627968337 375,303.878627968337L375,314.68337730870644C195,314.68337730870644 195,619.6701846965697 15,619.6701846965697Z" style="stroke: rgb(68, 68, 68); stroke-opacity: 1; fill: rgb(239, 85, 59); fill-opacity: 0.6; stroke-width: 0; opacity: 1;"/><path class="sankey-link" d="M15,619.6701846965697C195,619.6701846965697 195,382.1635883905003 375,382.1635883905003L375,389.8812664907641C195,389.8812664907641 195,627.3878627968335 15,627.3878627968335Z" style="stroke: rgb(68, 68, 68); stroke-opacity: 1; fill: rgb(0, 204, 150); fill-opacity: 0.6; stroke-width: 0; opacity: 1;"/><path class="sankey-link" d="M15,704.564643799472C195,704.564643799472 195,699.9340369393138 375,699.9340369393138L375,715.3693931398415C195,715.3693931398415 195,719.9999999999997 15,719.9999999999997Z" style="stroke: rgb(68, 68, 68); stroke-opacity: 1; fill: rgb(254, 203, 82); fill-opacity: 0.6; stroke-width: 0; opacity: 1;"/><path class="sankey-link" d="M15,596.5171503957781C195,596.5171503957781 195,193.17941952506544 375,193.17941952506544L375,205.52770448548762C195,205.52770448548762 195,608.8654353562004 15,608.8654353562004Z" style="stroke: rgb(68, 68, 68); stroke-opacity: 1; fill: rgb(171, 99, 250); fill-opacity: 0.6; stroke-width: 0; opacity: 1;"/><path class="sankey-link" d="M15,641.2796833773084C195,641.2796833773084 195,606.2137203166221 375,606.2137203166221L375,669.4986807387857C195,669.4986807387857 195,704.5646437994719 15,704.5646437994719Z" style="stroke: rgb(68, 68, 68); stroke-opacity: 1; fill: rgb(99, 110, 250); fill-opacity: 0.6; stroke-width: 0; opacity: 1;"/><path class="sankey-link" d="M15,627.3878627968335C195,627.3878627968335 195,446.55672823218936 375,446.55672823218936L375,457.3614775725588C195,457.3614775725588 195,638.1926121372029 15,638.1926121372029Z" style="stroke: rgb(68, 68, 68); stroke-opacity: 1; fill: rgb(255, 151, 255); fill-opacity: 0.6; stroke-width: 0; opacity: 1;"/><path class="sankey-link" d="M15,638.1926121372029C195,638.1926121372029 195,498.6015831134559 375,498.6015831134559L375,501.6886543535614C195,501.6886543535614 195,641.2796833773085 15,641.2796833773085Z" style="stroke: rgb(68, 68, 68); stroke-opacity: 1; fill: rgb(255, 102, 146); fill-opacity: 0.6; stroke-width: 0; opacity: 1;"/><path class="sankey-link" d="M390,19.630606860157684C570,19.630606860157684 570,205.7651715039583 750,205.7651715039583L750,211.93931398416936C570,211.93931398416936 570,25.804749340368765 390,25.804749340368765Z" style="stroke: rgb(68, 68, 68); stroke-opacity: 1; fill: rgb(25, 211, 243); fill-opacity: 0.6; stroke-width: 0; opacity: 1;"/><path class="sankey-link" d="M390,25.804749340368765C570,25.804749340368765 570,368.94459102902437 750,368.94459102902437L750,375.1187335092355C570,375.1187335092355 570,31.978891820579847 390,31.978891820579847Z" style="stroke: rgb(68, 68, 68); stroke-opacity: 1; fill: rgb(25, 211, 243); fill-opacity: 0.6; stroke-width: 0; opacity: 1;"/><path class="sankey-link" d="M390,31.978891820579847C570,31.978891820579847 570,501.2532981530351 750,501.2532981530351L750,504.3403693931406C570,504.3403693931406 570,35.06596306068539 390,35.06596306068539Z" style="stroke: rgb(68, 68, 68); stroke-opacity: 1; fill: rgb(25, 211, 243); fill-opacity: 0.6; stroke-width: 0; opacity: 1;"/><path class="sankey-link" d="M390,220.52770448548745C570,220.52770448548745 570,245.89709762533033 750,245.89709762533033L750,270.5936675461747C570,270.5936675461747 570,245.2242744063318 390,245.2242744063318Z" style="stroke: rgb(68, 68, 68); stroke-opacity: 1; fill: rgb(239, 85, 59); fill-opacity: 0.6; stroke-width: 0; opacity: 1;"/><path class="sankey-link" d="M390,273.00791556728166C570,273.00791556728166 570,661.345646437995 750,661.345646437995L750,672.1503957783644C570,672.1503957783644 570,283.8126649076511 390,283.8126649076511Z" style="stroke: rgb(68, 68, 68); stroke-opacity: 1; fill: rgb(239, 85, 59); fill-opacity: 0.6; stroke-width: 0; opacity: 1;"/><path class="sankey-link" d="M390,245.22427440633177C570,245.22427440633177 570,401.3588390501325 750,401.3588390501325L750,416.7941952506602C570,416.7941952506602 570,260.6596306068595 390,260.6596306068595Z" style="stroke: rgb(68, 68, 68); stroke-opacity: 1; fill: rgb(239, 85, 59); fill-opacity: 0.6; stroke-width: 0; opacity: 1;"/><path class="sankey-link" d="M390,260.6596306068595C570,260.6596306068595 570,524.4063324538266 750,524.4063324538266L750,536.7546174142489C570,536.7546174142489 570,273.0079155672816 390,273.0079155672816Z" style="stroke: rgb(68, 68, 68); stroke-opacity: 1; fill: rgb(239, 85, 59); fill-opacity: 0.6; stroke-width: 0; opacity: 1;"/><path class="sankey-link" d="M390,329.6833773087061C570,329.6833773087061 570,270.59366754617463 750,270.59366754617463L750,286.02902374670236C570,286.02902374670236 570,345.11873350923383 390,345.11873350923383Z" style="stroke: rgb(68, 68, 68); stroke-opacity: 1; fill: rgb(0, 204, 150); fill-opacity: 0.6; stroke-width: 0; opacity: 1;"/><path class="sankey-link" d="M390,365.1846965699198C570,365.1846965699198 570,672.1503957783644 750,672.1503957783644L750,681.4116094986811C570,681.4116094986811 570,374.44591029023644 390,374.44591029023644Z" style="stroke: rgb(68, 68, 68); stroke-opacity: 1; fill: rgb(0, 204, 150); fill-opacity: 0.6; stroke-width: 0; opacity: 1;"/><path class="sankey-link" d="M390,345.1187335092338C570,345.1187335092338 570,416.79419525066015 750,416.79419525066015L750,429.1424802110823C570,429.1424802110823 570,357.4670184696559 390,357.4670184696559Z" style="stroke: rgb(68, 68, 68); stroke-opacity: 1; fill: rgb(0, 204, 150); fill-opacity: 0.6; stroke-width: 0; opacity: 1;"/><path class="sankey-link" d="M390,357.46701846965595C570,357.46701846965595 570,536.7546174142487 750,536.7546174142487L750,544.4722955145126C570,544.4722955145126 570,365.18469656991977 390,365.18469656991977Z" style="stroke: rgb(68, 68, 68); stroke-opacity: 1; fill: rgb(0, 204, 150); fill-opacity: 0.6; stroke-width: 0; opacity: 1;"/><path class="sankey-link" d="M390,684.4986807387861C570,684.4986807387861 570,349.3139841688659 750,349.3139841688659L750,352.4010554089714C570,352.4010554089714 570,687.5857519788917 390,687.5857519788917Z" style="stroke: rgb(68, 68, 68); stroke-opacity: 1; fill: rgb(254, 203, 82); fill-opacity: 0.6; stroke-width: 0; opacity: 1;"/><path class="sankey-link" d="M390,713.8258575197888C570,713.8258575197888 570,713.8258575197892 750,713.8258575197892L750,720.0000000000002C570,720.0000000000002 570,719.9999999999998 390,719.9999999999998Z" style="stroke: rgb(68, 68, 68); stroke-opacity: 1; fill: rgb(254, 203, 82); fill-opacity: 0.6; stroke-width: 0; opacity: 1;"/><path class="sankey-link" d="M390,687.5857519788916C570,687.5857519788916 570,475.4485488126654 750,475.4485488126654L750,486.25329815303485C570,486.25329815303485 570,698.390501319261 390,698.390501319261Z" style="stroke: rgb(68, 68, 68); stroke-opacity: 1; fill: rgb(254, 203, 82); fill-opacity: 0.6; stroke-width: 0; opacity: 1;"/><path class="sankey-link" d="M390,698.390501319261C570,698.390501319261 570,623.1926121372039 750,623.1926121372039L750,638.6279683377315C570,638.6279683377315 570,713.8258575197887 390,713.8258575197887Z" style="stroke: rgb(68, 68, 68); stroke-opacity: 1; fill: rgb(254, 203, 82); fill-opacity: 0.6; stroke-width: 0; opacity: 1;"/><path class="sankey-link" d="M390,67.04485488126608C570,67.04485488126608 570,211.9393139841694 750,211.9393139841694L750,221.200527704486C570,221.200527704486 570,76.3060686015827 390,76.3060686015827Z" style="stroke: rgb(68, 68, 68); stroke-opacity: 1; fill: rgb(255, 161, 90); fill-opacity: 0.6; stroke-width: 0; opacity: 1;"/><path class="sankey-link" d="M390,87.11081794195209C570,87.11081794195209 570,653.6279683377311 750,653.6279683377311L750,655.1715039577839C570,655.1715039577839 570,88.65435356200487 390,88.65435356200487Z" style="stroke: rgb(68, 68, 68); stroke-opacity: 1; fill: rgb(255, 161, 90); fill-opacity: 0.6; stroke-width: 0; opacity: 1;"/><path class="sankey-link" d="M390,76.3060686015827C570,76.3060686015827 570,375.1187335092354 750,375.1187335092354L750,381.29287598944654C570,381.29287598944654 570,82.48021108179378 390,82.48021108179378Z" style="stroke: rgb(68, 68, 68); stroke-opacity: 1; fill: rgb(255, 161, 90); fill-opacity: 0.6; stroke-width: 0; opacity: 1;"/><path class="sankey-link" d="M390,82.48021108179378C570,82.48021108179378 570,504.34036939314063 750,504.34036939314063L750,508.97097625329894C570,508.97097625329894 570,87.11081794195209 390,87.11081794195209Z" style="stroke: rgb(68, 68, 68); stroke-opacity: 1; fill: rgb(255, 161, 90); fill-opacity: 0.6; stroke-width: 0; opacity: 1;"/><path class="sankey-link" d="M390,122.17678100263801C570,122.17678100263801 570,221.20052770448598 750,221.20052770448598L750,245.89709762533033C570,245.89709762533033 570,146.87335092348235 390,146.87335092348235Z" style="stroke: rgb(68, 68, 68); stroke-opacity: 1; fill: rgb(171, 99, 250); fill-opacity: 0.6; stroke-width: 0; opacity: 1;"/><path class="sankey-link" d="M390,182.37467018469604C570,182.37467018469604 570,655.1715039577839 750,655.1715039577839L750,661.3456464379949C570,661.3456464379949 570,188.5488126649071 390,188.5488126649071Z" style="stroke: rgb(68, 68, 68); stroke-opacity: 1; fill: rgb(171, 99, 250); fill-opacity: 0.6; stroke-width: 0; opacity: 1;"/><path class="sankey-link" d="M390,146.8733509234823C570,146.8733509234823 570,381.2928759894465 750,381.2928759894465L750,401.35883905013253C570,401.35883905013253 570,166.93931398416834 390,166.93931398416834Z" style="stroke: rgb(68, 68, 68); stroke-opacity: 1; fill: rgb(171, 99, 250); fill-opacity: 0.6; stroke-width: 0; opacity: 1;"/><path class="sankey-link" d="M390,166.93931398416834C570,166.93931398416834 570,508.97097625329894 750,508.97097625329894L750,524.4063324538266C570,524.4063324538266 570,182.37467018469601 390,182.37467018469601Z" style="stroke: rgb(68, 68, 68); stroke-opacity: 1; fill: rgb(171, 99, 250); fill-opacity: 0.6; stroke-width: 0; opacity: 1;"/><path class="sankey-link" d="M390,516.6886543535614C570,516.6886543535614 570,304.5514511873356 750,304.5514511873356L750,349.3139841688659C570,349.3139841688659 570,561.4511873350917 390,561.4511873350917Z" style="stroke: rgb(68, 68, 68); stroke-opacity: 1; fill: rgb(99, 110, 250); fill-opacity: 0.6; stroke-width: 0; opacity: 1;"/><path class="sankey-link" d="M390,644.8021108179414C570,644.8021108179414 570,689.1292875989449 750,689.1292875989449L750,713.8258575197891C570,713.8258575197891 570,669.4986807387857 390,669.4986807387857Z" style="stroke: rgb(68, 68, 68); stroke-opacity: 1; fill: rgb(99, 110, 250); fill-opacity: 0.6; stroke-width: 0; opacity: 1;"/><path class="sankey-link" d="M390,561.4511873350918C570,561.4511873350918 570,450.75197889182107 750,450.75197889182107L750,475.4485488126654C570,475.4485488126654 570,586.1477572559361 390,586.1477572559361Z" style="stroke: rgb(68, 68, 68); stroke-opacity: 1; fill: rgb(99, 110, 250); fill-opacity: 0.6; stroke-width: 0; opacity: 1;"/><path class="sankey-link" d="M390,586.1477572559362C570,586.1477572559362 570,564.5382585751986 750,564.5382585751986L750,623.1926121372039C570,623.1926121372039 570,644.8021108179415 390,644.8021108179415Z" style="stroke: rgb(68, 68, 68); stroke-opacity: 1; fill: rgb(99, 110, 250); fill-opacity: 0.6; stroke-width: 0; opacity: 1;"/><path class="sankey-link" d="M390,404.8812664907646C570,404.8812664907646 570,286.0290237467023 750,286.0290237467023L750,299.92084432717724C570,299.92084432717724 570,418.7730870712395 390,418.7730870712395Z" style="stroke: rgb(68, 68, 68); stroke-opacity: 1; fill: rgb(255, 151, 255); fill-opacity: 0.6; stroke-width: 0; opacity: 1;"/><path class="sankey-link" d="M390,445.01319261213655C570,445.01319261213655 570,681.4116094986811 750,681.4116094986811L750,686.0422163588395C570,686.0422163588395 570,449.64379947229486 390,449.64379947229486Z" style="stroke: rgb(68, 68, 68); stroke-opacity: 1; fill: rgb(255, 151, 255); fill-opacity: 0.6; stroke-width: 0; opacity: 1;"/><path class="sankey-link" d="M390,418.7730870712395C570,418.7730870712395 570,429.14248021108233 750,429.14248021108233L750,444.57783641161006C570,444.57783641161006 570,434.20844327176724 390,434.20844327176724Z" style="stroke: rgb(68, 68, 68); stroke-opacity: 1; fill: rgb(255, 151, 255); fill-opacity: 0.6; stroke-width: 0; opacity: 1;"/><path class="sankey-link" d="M390,434.2084432717672C570,434.2084432717672 570,544.4722955145126 750,544.4722955145126L750,555.277044854882C570,555.277044854882 570,445.0131926121366 390,445.0131926121366Z" style="stroke: rgb(68, 68, 68); stroke-opacity: 1; fill: rgb(255, 151, 255); fill-opacity: 0.6; stroke-width: 0; opacity: 1;"/><path class="sankey-link" d="M390,472.3614775725588C570,472.3614775725588 570,299.92084432717724 750,299.92084432717724L750,304.55145118733554C570,304.55145118733554 570,476.9920844327171 390,476.9920844327171Z" style="stroke: rgb(68, 68, 68); stroke-opacity: 1; fill: rgb(255, 102, 146); fill-opacity: 0.6; stroke-width: 0; opacity: 1;"/><path class="sankey-link" d="M390,492.42744063324477C570,492.42744063324477 570,686.0422163588394 750,686.0422163588394L750,689.129287598945C570,689.129287598945 570,495.5145118733503 390,495.5145118733503Z" style="stroke: rgb(68, 68, 68); stroke-opacity: 1; fill: rgb(255, 102, 146); fill-opacity: 0.6; stroke-width: 0; opacity: 1;"/><path class="sankey-link" d="M390,476.9920844327171C570,476.9920844327171 570,444.57783641161 750,444.57783641161L750,450.7519788918211C570,450.7519788918211 570,483.1662269129282 390,483.1662269129282Z" style="stroke: rgb(68, 68, 68); stroke-opacity: 1; fill: rgb(255, 102, 146); fill-opacity: 0.6; stroke-width: 0; opacity: 1;"/><path class="sankey-link" d="M390,483.16622691292815C570,483.16622691292815 570,555.277044854882 750,555.277044854882L750,564.5382585751986C570,564.5382585751986 570,492.42744063324477 390,492.42744063324477Z" style="stroke: rgb(68, 68, 68); stroke-opacity: 1; fill: rgb(255, 102, 146); fill-opacity: 0.6; stroke-width: 0; opacity: 1;"/><path class="sankey-link" d="M390,-6.252776074688882e-13C570,-6.252776074688882e-13 570,204.22163588390552 750,204.22163588390552L750,205.76517150395827C570,205.76517150395827 570,1.543535620052145 390,1.543535620052145Z" style="stroke: rgb(68, 68, 68); stroke-opacity: 1; fill: rgb(182, 232, 128); fill-opacity: 0.6; stroke-width: 0; opacity: 1;"/><path class="sankey-link" d="M390,1.543535620052145C570,1.543535620052145 570,367.4010554089716 750,367.4010554089716L750,368.9445910290244C570,368.9445910290244 570,3.0870712401049154 390,3.0870712401049154Z" style="stroke: rgb(68, 68, 68); stroke-opacity: 1; fill: rgb(182, 232, 128); fill-opacity: 0.6; stroke-width: 0; opacity: 1;"/><path class="sankey-link" d="M765,284.48548812664956C945,284.48548812664956 945,239.485488126649 1125,239.485488126649L1125,242.57255936675455C945,242.57255936675455 945,287.57255936675506 765,287.57255936675506Z" style="stroke: rgb(68, 68, 68); stroke-opacity: 1; fill: rgb(25, 211, 243); fill-opacity: 0.6; stroke-width: 0; opacity: 1;"/><path class="sankey-link" d="M765,204.22163588390552C945,204.22163588390552 945,144.22163588390504 1125,144.22163588390504L1125,147.3087071240106C945,147.3087071240106 945,207.30870712401108 765,207.30870712401108Z" style="stroke: rgb(68, 68, 68); stroke-opacity: 1; fill: rgb(25, 211, 243); fill-opacity: 0.6; stroke-width: 0; opacity: 1;"/><path class="sankey-link" d="M765,367.4010554089716C945,367.4010554089716 945,322.4010554089708 1125,322.4010554089708L1125,323.9445910290236C945,323.9445910290236 945,368.9445910290244 765,368.9445910290244Z" style="stroke: rgb(68, 68, 68); stroke-opacity: 1; fill: rgb(25, 211, 243); fill-opacity: 0.6; stroke-width: 0; opacity: 1;"/><path class="sankey-link" d="M765,430.68601583113514C945,430.68601583113514 945,400.68601583113434 1125,400.68601583113434L1125,405.31662269129265C945,405.31662269129265 945,435.31662269129345 765,435.31662269129345Z" style="stroke: rgb(68, 68, 68); stroke-opacity: 1; fill: rgb(25, 211, 243); fill-opacity: 0.6; stroke-width: 0; opacity: 1;"/><path class="sankey-link" d="M765,575.3430079155681C945,575.3430079155681 945,560.3430079155675 1125,560.3430079155675L1125,561.8865435356203C945,561.8865435356203 945,576.886543535621 765,576.886543535621Z" style="stroke: rgb(68, 68, 68); stroke-opacity: 1; fill: rgb(25, 211, 243); fill-opacity: 0.6; stroke-width: 0; opacity: 1;"/><path class="sankey-link" d="M765,501.2532981530351C945,501.2532981530351 945,471.25329815303405 1125,471.25329815303405L1125,472.79683377308686C945,472.79683377308686 945,502.7968337730879 765,502.7968337730879Z" style="stroke: rgb(68, 68, 68); stroke-opacity: 1; fill: rgb(25, 211, 243); fill-opacity: 0.6; stroke-width: 0; opacity: 1;"/><path class="sankey-link" d="M765,287.5725593667551C945,287.5725593667551 945,242.57255936675452 1125,242.57255936675452L1125,253.3773087071239C945,253.3773087071239 945,298.37730870712454 765,298.37730870712454Z" style="stroke: rgb(68, 68, 68); stroke-opacity: 1; fill: rgb(239, 85, 59); fill-opacity: 0.6; stroke-width: 0; opacity: 1;"/><path class="sankey-link" d="M765,207.30870712401105C945,207.30870712401105 945,147.30870712401057 1125,147.30870712401057L1125,161.2005277044855C945,161.2005277044855 945,221.20052770448598 765,221.20052770448598Z" style="stroke: rgb(68, 68, 68); stroke-opacity: 1; fill: rgb(239, 85, 59); fill-opacity: 0.6; stroke-width: 0; opacity: 1;"/><path class="sankey-link" d="M765,653.6279683377311C945,653.6279683377311 945,638.627968337731 1125,638.627968337731L1125,644.802110817942C945,644.802110817942 945,659.8021108179421 765,659.8021108179421Z" style="stroke: rgb(68, 68, 68); stroke-opacity: 1; fill: rgb(239, 85, 59); fill-opacity: 0.6; stroke-width: 0; opacity: 1;"/><path class="sankey-link" d="M765,689.1292875989449C945,689.1292875989449 945,689.1292875989446 1125,689.1292875989446L1125,693.7598944591031C945,693.7598944591031 945,693.7598944591033 765,693.7598944591033Z" style="stroke: rgb(68, 68, 68); stroke-opacity: 1; fill: rgb(239, 85, 59); fill-opacity: 0.6; stroke-width: 0; opacity: 1;"/><path class="sankey-link" d="M765,368.94459102902437C945,368.94459102902437 945,323.94459102902357 1125,323.94459102902357L1125,330.1187335092347C945,330.1187335092347 945,375.1187335092355 765,375.1187335092355Z" style="stroke: rgb(68, 68, 68); stroke-opacity: 1; fill: rgb(239, 85, 59); fill-opacity: 0.6; stroke-width: 0; opacity: 1;"/><path class="sankey-link" d="M765,435.31662269129345C945,435.31662269129345 945,405.31662269129265 1125,405.31662269129265L1125,414.57783641160927C945,414.57783641160927 945,444.57783641161006 765,444.57783641161006Z" style="stroke: rgb(68, 68, 68); stroke-opacity: 1; fill: rgb(239, 85, 59); fill-opacity: 0.6; stroke-width: 0; opacity: 1;"/><path class="sankey-link" d="M765,576.886543535621C945,576.886543535621 945,561.8865435356203 1125,561.8865435356203L1125,566.5171503957787C945,566.5171503957787 945,581.5171503957794 765,581.5171503957794Z" style="stroke: rgb(68, 68, 68); stroke-opacity: 1; fill: rgb(239, 85, 59); fill-opacity: 0.6; stroke-width: 0; opacity: 1;"/><path class="sankey-link" d="M765,502.7968337730878C945,502.7968337730878 945,472.7968337730868 1125,472.7968337730868L1125,480.5145118733506C945,480.5145118733506 945,510.51451187335164 765,510.51451187335164Z" style="stroke: rgb(68, 68, 68); stroke-opacity: 1; fill: rgb(239, 85, 59); fill-opacity: 0.6; stroke-width: 0; opacity: 1;"/><path class="sankey-link" d="M765,298.3773087071245C945,298.3773087071245 945,253.3773087071239 1125,253.3773087071239L1125,261.0949868073877C945,261.0949868073877 945,306.0949868073883 765,306.0949868073883Z" style="stroke: rgb(68, 68, 68); stroke-opacity: 1; fill: rgb(0, 204, 150); fill-opacity: 0.6; stroke-width: 0; opacity: 1;"/><path class="sankey-link" d="M765,221.20052770448598C945,221.20052770448598 945,161.2005277044855 1125,161.2005277044855L1125,168.91820580474936C945,168.91820580474936 945,228.91820580474985 765,228.91820580474985Z" style="stroke: rgb(68, 68, 68); stroke-opacity: 1; fill: rgb(0, 204, 150); fill-opacity: 0.6; stroke-width: 0; opacity: 1;"/><path class="sankey-link" d="M765,659.8021108179422C945,659.8021108179422 945,644.8021108179421 1125,644.8021108179421L1125,652.5197889182059C945,652.5197889182059 945,667.519788918206 765,667.519788918206Z" style="stroke: rgb(68, 68, 68); stroke-opacity: 1; fill: rgb(0, 204, 150); fill-opacity: 0.6; stroke-width: 0; opacity: 1;"/><path class="sankey-link" d="M765,693.7598944591032C945,693.7598944591032 945,693.759894459103 1125,693.759894459103L1125,695.3034300791558C945,695.3034300791558 945,695.303430079156 765,695.303430079156Z" style="stroke: rgb(68, 68, 68); stroke-opacity: 1; fill: rgb(0, 204, 150); fill-opacity: 0.6; stroke-width: 0; opacity: 1;"/><path class="sankey-link" d="M765,375.1187335092354C945,375.1187335092354 945,330.11873350923463 1125,330.11873350923463L1125,336.29287598944575C945,336.29287598944575 945,381.29287598944654 765,381.29287598944654Z" style="stroke: rgb(68, 68, 68); stroke-opacity: 1; fill: rgb(0, 204, 150); fill-opacity: 0.6; stroke-width: 0; opacity: 1;"/><path class="sankey-link" d="M765,444.57783641161006C945,444.57783641161006 945,414.57783641160927 1125,414.57783641160927L1125,420.7519788918204C945,420.7519788918204 945,450.7519788918212 765,450.7519788918212Z" style="stroke: rgb(68, 68, 68); stroke-opacity: 1; fill: rgb(0, 204, 150); fill-opacity: 0.6; stroke-width: 0; opacity: 1;"/><path class="sankey-link" d="M765,581.5171503957793C945,581.5171503957793 945,566.5171503957786 1125,566.5171503957786L1125,568.0606860158314C945,568.0606860158314 945,583.0606860158321 765,583.0606860158321Z" style="stroke: rgb(68, 68, 68); stroke-opacity: 1; fill: rgb(0, 204, 150); fill-opacity: 0.6; stroke-width: 0; opacity: 1;"/><path class="sankey-link" d="M765,510.51451187335164C945,510.51451187335164 945,480.51451187335067 1125,480.51451187335067L1125,486.6886543535618C945,486.6886543535618 945,516.6886543535627 765,516.6886543535627Z" style="stroke: rgb(68, 68, 68); stroke-opacity: 1; fill: rgb(0, 204, 150); fill-opacity: 0.6; stroke-width: 0; opacity: 1;"/><path class="sankey-link" d="M765,228.91820580474982C945,228.91820580474982 945,168.91820580474933 1125,168.91820580474933L1125,172.0052770448549C945,172.0052770448549 945,232.00527704485538 765,232.00527704485538Z" style="stroke: rgb(68, 68, 68); stroke-opacity: 1; fill: rgb(254, 203, 82); fill-opacity: 0.6; stroke-width: 0; opacity: 1;"/><path class="sankey-link" d="M765,667.519788918206C945,667.519788918206 945,652.5197889182059 1125,652.5197889182059L1125,654.0633245382587C945,654.0633245382587 945,669.0633245382588 765,669.0633245382588Z" style="stroke: rgb(68, 68, 68); stroke-opacity: 1; fill: rgb(254, 203, 82); fill-opacity: 0.6; stroke-width: 0; opacity: 1;"/><path class="sankey-link" d="M765,695.303430079156C945,695.303430079156 945,695.3034300791558 1125,695.3034300791558L1125,699.9340369393142C945,699.9340369393142 945,699.9340369393144 765,699.9340369393144Z" style="stroke: rgb(68, 68, 68); stroke-opacity: 1; fill: rgb(254, 203, 82); fill-opacity: 0.6; stroke-width: 0; opacity: 1;"/><path class="sankey-link" d="M765,381.2928759894465C945,381.2928759894465 945,336.2928759894457 1125,336.2928759894457L1125,342.4670184696568C945,342.4670184696568 945,387.4670184696576 765,387.4670184696576Z" style="stroke: rgb(68, 68, 68); stroke-opacity: 1; fill: rgb(254, 203, 82); fill-opacity: 0.6; stroke-width: 0; opacity: 1;"/><path class="sankey-link" d="M765,450.7519788918211C945,450.7519788918211 945,420.75197889182033 1125,420.75197889182033L1125,425.38258575197864C945,425.38258575197864 945,455.38258575197943 765,455.38258575197943Z" style="stroke: rgb(68, 68, 68); stroke-opacity: 1; fill: rgb(254, 203, 82); fill-opacity: 0.6; stroke-width: 0; opacity: 1;"/><path class="sankey-link" d="M765,583.0606860158321C945,583.0606860158321 945,568.0606860158314 1125,568.0606860158314L1125,574.2348284960424C945,574.2348284960424 945,589.2348284960431 765,589.2348284960431Z" style="stroke: rgb(68, 68, 68); stroke-opacity: 1; fill: rgb(254, 203, 82); fill-opacity: 0.6; stroke-width: 0; opacity: 1;"/><path class="sankey-link" d="M765,516.6886543535628C945,516.6886543535628 945,486.68865435356173 1125,486.68865435356173L1125,495.94986807387835C945,495.94986807387835 945,525.9498680738794 765,525.9498680738794Z" style="stroke: rgb(68, 68, 68); stroke-opacity: 1; fill: rgb(254, 203, 82); fill-opacity: 0.6; stroke-width: 0; opacity: 1;"/><path class="sankey-link" d="M765,306.09498680738835C945,306.09498680738835 945,261.0949868073878 1125,261.0949868073878L1125,265.7255936675461C945,265.7255936675461 945,310.72559366754666 765,310.72559366754666Z" style="stroke: rgb(68, 68, 68); stroke-opacity: 1; fill: rgb(255, 161, 90); fill-opacity: 0.6; stroke-width: 0; opacity: 1;"/><path class="sankey-link" d="M765,232.00527704485535C945,232.00527704485535 945,172.00527704485486 1125,172.00527704485486L1125,176.63588390501317C945,176.63588390501317 945,236.63588390501366 765,236.63588390501366Z" style="stroke: rgb(68, 68, 68); stroke-opacity: 1; fill: rgb(255, 161, 90); fill-opacity: 0.6; stroke-width: 0; opacity: 1;"/><path class="sankey-link" d="M765,669.0633245382588C945,669.0633245382588 945,654.0633245382587 1125,654.0633245382587L1125,655.6068601583115C945,655.6068601583115 945,670.6068601583116 765,670.6068601583116Z" style="stroke: rgb(68, 68, 68); stroke-opacity: 1; fill: rgb(255, 161, 90); fill-opacity: 0.6; stroke-width: 0; opacity: 1;"/><path class="sankey-link" d="M765,387.46701846965755C945,387.46701846965755 945,342.46701846965675 1125,342.46701846965675L1125,347.09762532981506C945,347.09762532981506 945,392.09762532981586 765,392.09762532981586Z" style="stroke: rgb(68, 68, 68); stroke-opacity: 1; fill: rgb(255, 161, 90); fill-opacity: 0.6; stroke-width: 0; opacity: 1;"/><path class="sankey-link" d="M765,455.38258575197943C945,455.38258575197943 945,425.38258575197864 1125,425.38258575197864L1125,426.92612137203145C945,426.92612137203145 945,456.92612137203224 765,456.92612137203224Z" style="stroke: rgb(68, 68, 68); stroke-opacity: 1; fill: rgb(255, 161, 90); fill-opacity: 0.6; stroke-width: 0; opacity: 1;"/><path class="sankey-link" d="M765,589.2348284960432C945,589.2348284960432 945,574.2348284960425 1125,574.2348284960425L1125,575.7783641160953C945,575.7783641160953 945,590.778364116096 765,590.778364116096Z" style="stroke: rgb(68, 68, 68); stroke-opacity: 1; fill: rgb(255, 161, 90); fill-opacity: 0.6; stroke-width: 0; opacity: 1;"/><path class="sankey-link" d="M765,525.9498680738794C945,525.9498680738794 945,495.94986807387835 1125,495.94986807387835L1125,499.03693931398385C945,499.03693931398385 945,529.036939313985 765,529.036939313985Z" style="stroke: rgb(68, 68, 68); stroke-opacity: 1; fill: rgb(255, 161, 90); fill-opacity: 0.6; stroke-width: 0; opacity: 1;"/><path class="sankey-link" d="M765,310.72559366754666C945,310.72559366754666 945,265.7255936675461 1125,265.7255936675461L1125,276.5303430079155C945,276.5303430079155 945,321.5303430079161 765,321.5303430079161Z" style="stroke: rgb(68, 68, 68); stroke-opacity: 1; fill: rgb(171, 99, 250); fill-opacity: 0.6; stroke-width: 0; opacity: 1;"/><path class="sankey-link" d="M765,236.63588390501366C945,236.63588390501366 945,176.63588390501317 1125,176.63588390501317L1125,190.5277044854881C945,190.5277044854881 945,250.52770448548858 765,250.52770448548858Z" style="stroke: rgb(68, 68, 68); stroke-opacity: 1; fill: rgb(171, 99, 250); fill-opacity: 0.6; stroke-width: 0; opacity: 1;"/><path class="sankey-link" d="M765,670.6068601583116C945,670.6068601583116 945,655.6068601583115 1125,655.6068601583115L1125,658.6939313984171C945,658.6939313984171 945,673.6939313984172 765,673.6939313984172Z" style="stroke: rgb(68, 68, 68); stroke-opacity: 1; fill: rgb(171, 99, 250); fill-opacity: 0.6; stroke-width: 0; opacity: 1;"/><path class="sankey-link" d="M765,699.9340369393143C945,699.9340369393143 945,699.9340369393141 1125,699.9340369393141L1125,703.0211081794197C945,703.0211081794197 945,703.0211081794199 765,703.0211081794199Z" style="stroke: rgb(68, 68, 68); stroke-opacity: 1; fill: rgb(171, 99, 250); fill-opacity: 0.6; stroke-width: 0; opacity: 1;"/><path class="sankey-link" d="M765,392.09762532981586C945,392.09762532981586 945,347.09762532981506 1125,347.09762532981506L1125,359.4459102902372C945,359.4459102902372 945,404.445910290238 765,404.445910290238Z" style="stroke: rgb(68, 68, 68); stroke-opacity: 1; fill: rgb(171, 99, 250); fill-opacity: 0.6; stroke-width: 0; opacity: 1;"/><path class="sankey-link" d="M765,456.9261213720322C945,456.9261213720322 945,426.9261213720314 1125,426.9261213720314L1125,434.6437994722952C945,434.6437994722952 945,464.643799472296 765,464.643799472296Z" style="stroke: rgb(68, 68, 68); stroke-opacity: 1; fill: rgb(171, 99, 250); fill-opacity: 0.6; stroke-width: 0; opacity: 1;"/><path class="sankey-link" d="M765,590.778364116096C945,590.778364116096 945,575.7783641160953 1125,575.7783641160953L1125,585.0395778364119C945,585.0395778364119 945,600.0395778364126 765,600.0395778364126Z" style="stroke: rgb(68, 68, 68); stroke-opacity: 1; fill: rgb(171, 99, 250); fill-opacity: 0.6; stroke-width: 0; opacity: 1;"/><path class="sankey-link" d="M765,529.0369393139849C945,529.0369393139849 945,499.0369393139839 1125,499.0369393139839L1125,505.211081794195C945,505.211081794195 945,535.2110817941959 765,535.2110817941959Z" style="stroke: rgb(68, 68, 68); stroke-opacity: 1; fill: rgb(171, 99, 250); fill-opacity: 0.6; stroke-width: 0; opacity: 1;"/><path class="sankey-link" d="M765,321.53034300791603C945,321.53034300791603 945,276.53034300791546 1125,276.53034300791546L1125,298.1398416886542C945,298.1398416886542 945,343.13984168865477 765,343.13984168865477Z" style="stroke: rgb(68, 68, 68); stroke-opacity: 1; fill: rgb(99, 110, 250); fill-opacity: 0.6; stroke-width: 0; opacity: 1;"/><path class="sankey-link" d="M765,250.52770448548858C945,250.52770448548858 945,190.5277044854881 1125,190.5277044854881L1125,213.68073878627965C945,213.68073878627965 945,273.68073878628013 765,273.68073878628013Z" style="stroke: rgb(68, 68, 68); stroke-opacity: 1; fill: rgb(99, 110, 250); fill-opacity: 0.6; stroke-width: 0; opacity: 1;"/><path class="sankey-link" d="M765,673.6939313984171C945,673.6939313984171 945,658.693931398417 1125,658.693931398417L1125,671.0422163588393C945,671.0422163588393 945,686.0422163588394 765,686.0422163588394Z" style="stroke: rgb(68, 68, 68); stroke-opacity: 1; fill: rgb(99, 110, 250); fill-opacity: 0.6; stroke-width: 0; opacity: 1;"/><path class="sankey-link" d="M765,703.0211081794198C945,703.0211081794198 945,703.0211081794196 1125,703.0211081794196L1125,715.3693931398418C945,715.3693931398418 945,715.369393139842 765,715.369393139842Z" style="stroke: rgb(68, 68, 68); stroke-opacity: 1; fill: rgb(99, 110, 250); fill-opacity: 0.6; stroke-width: 0; opacity: 1;"/><path class="sankey-link" d="M765,404.44591029023803C945,404.44591029023803 945,359.44591029023724 1125,359.44591029023724L1125,371.79419525065936C945,371.79419525065936 945,416.79419525066015 765,416.79419525066015Z" style="stroke: rgb(68, 68, 68); stroke-opacity: 1; fill: rgb(99, 110, 250); fill-opacity: 0.6; stroke-width: 0; opacity: 1;"/><path class="sankey-link" d="M765,464.64379947229605C945,464.64379947229605 945,434.64379947229526 1125,434.64379947229526L1125,446.9920844327174C945,446.9920844327174 945,476.9920844327182 765,476.9920844327182Z" style="stroke: rgb(68, 68, 68); stroke-opacity: 1; fill: rgb(99, 110, 250); fill-opacity: 0.6; stroke-width: 0; opacity: 1;"/><path class="sankey-link" d="M765,600.0395778364126C945,600.0395778364126 945,585.0395778364119 1125,585.0395778364119L1125,618.9973614775728C945,618.9973614775728 945,633.9973614775735 765,633.9973614775735Z" style="stroke: rgb(68, 68, 68); stroke-opacity: 1; fill: rgb(99, 110, 250); fill-opacity: 0.6; stroke-width: 0; opacity: 1;"/><path class="sankey-link" d="M765,535.211081794196C945,535.211081794196 945,505.21108179419497 1125,505.21108179419497L1125,529.9076517150393C945,529.9076517150393 945,559.9076517150403 765,559.9076517150403Z" style="stroke: rgb(68, 68, 68); stroke-opacity: 1; fill: rgb(99, 110, 250); fill-opacity: 0.6; stroke-width: 0; opacity: 1;"/><path class="sankey-link" d="M765,343.1398416886548C945,343.1398416886548 945,298.13984168865426 1125,298.13984168865426L1125,304.3139841688654C945,304.3139841688654 945,349.31398416886594 765,349.31398416886594Z" style="stroke: rgb(68, 68, 68); stroke-opacity: 1; fill: rgb(255, 151, 255); fill-opacity: 0.6; stroke-width: 0; opacity: 1;"/><path class="sankey-link" d="M765,273.68073878628013C945,273.68073878628013 945,213.68073878627965 1125,213.68073878627965L1125,221.39841688654352C945,221.39841688654352 945,281.39841688654394 765,281.39841688654394Z" style="stroke: rgb(68, 68, 68); stroke-opacity: 1; fill: rgb(255, 151, 255); fill-opacity: 0.6; stroke-width: 0; opacity: 1;"/><path class="sankey-link" d="M765,686.0422163588393C945,686.0422163588393 945,671.0422163588391 1125,671.0422163588391L1125,672.585751978892C945,672.585751978892 945,687.5857519788921 765,687.5857519788921Z" style="stroke: rgb(68, 68, 68); stroke-opacity: 1; fill: rgb(255, 151, 255); fill-opacity: 0.6; stroke-width: 0; opacity: 1;"/><path class="sankey-link" d="M765,715.3693931398419C945,715.3693931398419 945,715.3693931398417 1125,715.3693931398417L1125,718.4564643799473C945,718.4564643799473 945,718.4564643799475 765,718.4564643799475Z" style="stroke: rgb(68, 68, 68); stroke-opacity: 1; fill: rgb(255, 151, 255); fill-opacity: 0.6; stroke-width: 0; opacity: 1;"/><path class="sankey-link" d="M765,416.7941952506602C945,416.7941952506602 945,371.7941952506594 1125,371.7941952506594L1125,379.5118733509232C945,379.5118733509232 945,424.511873350924 765,424.511873350924Z" style="stroke: rgb(68, 68, 68); stroke-opacity: 1; fill: rgb(255, 151, 255); fill-opacity: 0.6; stroke-width: 0; opacity: 1;"/><path class="sankey-link" d="M765,476.99208443271823C945,476.99208443271823 945,446.99208443271743 1125,446.99208443271743L1125,454.70976253298124C945,454.70976253298124 945,484.70976253298204 765,484.70976253298204Z" style="stroke: rgb(68, 68, 68); stroke-opacity: 1; fill: rgb(255, 151, 255); fill-opacity: 0.6; stroke-width: 0; opacity: 1;"/><path class="sankey-link" d="M765,633.9973614775736C945,633.9973614775736 945,618.9973614775729 1125,618.9973614775729L1125,623.6279683377313C945,623.6279683377313 945,638.627968337732 765,638.627968337732Z" style="stroke: rgb(68, 68, 68); stroke-opacity: 1; fill: rgb(255, 151, 255); fill-opacity: 0.6; stroke-width: 0; opacity: 1;"/><path class="sankey-link" d="M765,559.9076517150404C945,559.9076517150404 945,529.9076517150393 1125,529.9076517150393L1125,536.0817941952503C945,536.0817941952503 945,566.0817941952514 765,566.0817941952514Z" style="stroke: rgb(68, 68, 68); stroke-opacity: 1; fill: rgb(255, 151, 255); fill-opacity: 0.6; stroke-width: 0; opacity: 1;"/><path class="sankey-link" d="M765,349.3139841688659C945,349.3139841688659 945,304.3139841688653 1125,304.3139841688653L1125,305.8575197889181C945,305.8575197889181 945,350.8575197889187 765,350.8575197889187Z" style="stroke: rgb(68, 68, 68); stroke-opacity: 1; fill: rgb(255, 102, 146); fill-opacity: 0.6; stroke-width: 0; opacity: 1;"/><path class="sankey-link" d="M765,281.398416886544C945,281.398416886544 945,221.3984168865435 1125,221.3984168865435L1125,224.48548812664905C945,224.48548812664905 945,284.4854881266495 765,284.4854881266495Z" style="stroke: rgb(68, 68, 68); stroke-opacity: 1; fill: rgb(255, 102, 146); fill-opacity: 0.6; stroke-width: 0; opacity: 1;"/><path class="sankey-link" d="M765,687.5857519788921C945,687.5857519788921 945,672.585751978892 1125,672.585751978892L1125,674.1292875989448C945,674.1292875989448 945,689.1292875989449 765,689.1292875989449Z" style="stroke: rgb(68, 68, 68); stroke-opacity: 1; fill: rgb(255, 102, 146); fill-opacity: 0.6; stroke-width: 0; opacity: 1;"/><path class="sankey-link" d="M765,718.4564643799474C945,718.4564643799474 945,718.4564643799472 1125,718.4564643799472L1125,720C945,720 945,720.0000000000002 765,720.0000000000002Z" style="stroke: rgb(68, 68, 68); stroke-opacity: 1; fill: rgb(255, 102, 146); fill-opacity: 0.6; stroke-width: 0; opacity: 1;"/><path class="sankey-link" d="M765,424.5118733509241C945,424.5118733509241 945,379.5118733509233 1125,379.5118733509233L1125,384.1424802110816C945,384.1424802110816 945,429.1424802110824 765,429.1424802110824Z" style="stroke: rgb(68, 68, 68); stroke-opacity: 1; fill: rgb(255, 102, 146); fill-opacity: 0.6; stroke-width: 0; opacity: 1;"/><path class="sankey-link" d="M765,484.7097625329821C945,484.7097625329821 945,454.7097625329813 1125,454.7097625329813L1125,456.2532981530341C945,456.2532981530341 945,486.2532981530349 765,486.2532981530349Z" style="stroke: rgb(68, 68, 68); stroke-opacity: 1; fill: rgb(255, 102, 146); fill-opacity: 0.6; stroke-width: 0; opacity: 1;"/><path class="sankey-link" d="M765,566.0817941952515C945,566.0817941952515 945,536.0817941952504 1125,536.0817941952504L1125,545.343007915567C945,545.343007915567 945,575.3430079155681 765,575.3430079155681Z" style="stroke: rgb(68, 68, 68); stroke-opacity: 1; fill: rgb(255, 102, 146); fill-opacity: 0.6; stroke-width: 0; opacity: 1;"/><path class="sankey-link" d="M765,350.85751978891864C945,350.85751978891864 945,305.85751978891807 1125,305.85751978891807L1125,307.4010554089709C945,307.4010554089709 945,352.40105540897144 765,352.40105540897144Z" style="stroke: rgb(68, 68, 68); stroke-opacity: 1; fill: rgb(182, 232, 128); fill-opacity: 0.6; stroke-width: 0; opacity: 1;"/><path class="sankey-link" d="M765,429.1424802110824C945,429.1424802110824 945,384.1424802110816 1125,384.1424802110816L1125,385.6860158311344C945,385.6860158311344 945,430.6860158311352 765,430.6860158311352Z" style="stroke: rgb(68, 68, 68); stroke-opacity: 1; fill: rgb(182, 232, 128); fill-opacity: 0.6; stroke-width: 0; opacity: 1;"/></g><g class="sankey-node-set" style="cursor: move;"><g class="sankey-node" transform="translate(0.000,410.620)" style="opacity: 1;"><rect class="node-rect" width="15" height="32.41424802110822" style="stroke-width: 0.5; stroke: rgb(0, 0, 0); stroke-opacity: 1; fill: rgb(128, 128, 128); fill-opacity: 1;"/><text class="node-label" data-notex="1" x="0" y="0" text-anchor="start" transform="translate(18.25,20.40712401055411)" style="cursor: default; font-family: 'Open Sans', verdana, arial, sans-serif; font-size: 12px; fill: rgb(42, 63, 95); fill-opacity: 1; white-space: pre; text-shadow: white 1px 1px 1px, white -1px -1px 1px, white 1px -1px 1px, white -1px 1px 1px;">21271R</text></g><g class="sankey-node" transform="translate(0.000,79.631)" style="opacity: 1;"><rect class="node-rect" width="15" height="236.16094986807389" style="stroke-width: 0.5; stroke: rgb(0, 0, 0); stroke-opacity: 1; fill: rgb(128, 128, 128); fill-opacity: 1;"/><text class="node-label" data-notex="1" x="0" y="0" text-anchor="start" transform="translate(18.25,122.28047493403695)" style="cursor: default; font-family: 'Open Sans', verdana, arial, sans-serif; font-size: 12px; fill: rgb(42, 63, 95); fill-opacity: 1; white-space: pre; text-shadow: white 1px 1px 1px, white -1px -1px 1px, white 1px -1px 1px, white -1px 1px 1px;">21272R</text></g><g class="sankey-node" transform="translate(0.000,330.792)" style="opacity: 1;"><rect class="node-rect" width="15" height="64.82849604221678" style="stroke-width: 0.5; stroke: rgb(0, 0, 0); stroke-opacity: 1; fill: rgb(128, 128, 128); fill-opacity: 1;"/><text class="node-label" data-notex="1" x="0" y="0" text-anchor="start" transform="translate(18.25,36.614248021108395)" style="cursor: default; font-family: 'Open Sans', verdana, arial, sans-serif; font-size: 12px; fill: rgb(42, 63, 95); fill-opacity: 1; white-space: pre; text-shadow: white 1px 1px 1px, white -1px -1px 1px, white 1px -1px 1px, white -1px 1px 1px;">21965RL</text></g><g class="sankey-node" transform="translate(0.000,458.034)" style="opacity: 1;"><rect class="node-rect" width="15" height="123.48284960422143" style="stroke-width: 0.5; stroke: rgb(0, 0, 0); stroke-opacity: 1; fill: rgb(128, 128, 128); fill-opacity: 1;"/><text class="node-label" data-notex="1" x="0" y="0" text-anchor="start" transform="translate(18.25,65.94142480211072)" style="cursor: default; font-family: 'Open Sans', verdana, arial, sans-serif; font-size: 12px; fill: rgb(42, 63, 95); fill-opacity: 1; white-space: pre; text-shadow: white 1px 1px 1px, white -1px -1px 1px, white 1px -1px 1px, white -1px 1px 1px;">22384</text></g><g class="sankey-node" transform="translate(0.000,596.517)" style="opacity: 1;"><rect class="node-rect" width="15" height="123.48284960422188" style="stroke-width: 0.5; stroke: rgb(0, 0, 0); stroke-opacity: 1; fill: rgb(128, 128, 128); fill-opacity: 1;"/><text class="node-label" data-notex="1" x="0" y="0" text-anchor="start" transform="translate(18.25,65.94142480211094)" style="cursor: default; font-family: 'Open Sans', verdana, arial, sans-serif; font-size: 12px; fill: rgb(42, 63, 95); fill-opacity: 1; white-space: pre; text-shadow: white 1px 1px 1px, white -1px -1px 1px, white 1px -1px 1px, white -1px 1px 1px;">22670</text></g><g class="sankey-node" transform="translate(750.000,204.222)" style="opacity: 1;"><rect class="node-rect" width="15" height="148.1794195250661" style="stroke-width: 0.5; stroke: rgb(0, 0, 0); stroke-opacity: 1; fill: rgb(128, 128, 128); fill-opacity: 1;"/><text class="node-label" data-notex="1" x="0" y="0" text-anchor="start" transform="translate(18.25,78.28970976253305)" style="cursor: default; font-family: 'Open Sans', verdana, arial, sans-serif; font-size: 12px; fill: rgb(42, 63, 95); fill-opacity: 1; white-space: pre; text-shadow: white 1px 1px 1px, white -1px -1px 1px, white 1px -1px 1px, white -1px 1px 1px;">dig</text></g><g class="sankey-node" transform="translate(750.000,367.401)" style="opacity: 1;"><rect class="node-rect" width="15" height="118.85224274406346" style="stroke-width: 0.5; stroke: rgb(0, 0, 0); stroke-opacity: 1; fill: rgb(128, 128, 128); fill-opacity: 1;"/><text class="node-label" data-notex="1" x="0" y="0" text-anchor="start" transform="translate(18.25,63.62612137203173)" style="cursor: default; font-family: 'Open Sans', verdana, arial, sans-serif; font-size: 12px; fill: rgb(42, 63, 95); fill-opacity: 1; white-space: pre; text-shadow: white 1px 1px 1px, white -1px -1px 1px, white 1px -1px 1px, white -1px 1px 1px;">move</text></g><g class="sankey-node" transform="translate(750.000,653.628)" style="opacity: 1;"><rect class="node-rect" width="15" height="66.37203166226891" style="stroke-width: 0.5; stroke: rgb(0, 0, 0); stroke-opacity: 1; fill: rgb(128, 128, 128); fill-opacity: 1;"/><text class="node-label" data-notex="1" x="0" y="0" text-anchor="start" transform="translate(18.25,37.38601583113446)" style="cursor: default; font-family: 'Open Sans', verdana, arial, sans-serif; font-size: 12px; fill: rgb(42, 63, 95); fill-opacity: 1; white-space: pre; text-shadow: white 1px 1px 1px, white -1px -1px 1px, white 1px -1px 1px, white -1px 1px 1px;">groom</text></g><g class="sankey-node" transform="translate(750.000,501.253)" style="opacity: 1;"><rect class="node-rect" width="15" height="137.37467018469601" style="stroke-width: 0.5; stroke: rgb(0, 0, 0); stroke-opacity: 1; fill: rgb(128, 128, 128); fill-opacity: 1;"/><text class="node-label" data-notex="1" x="0" y="0" text-anchor="start" transform="translate(18.25,72.88733509234801)" style="cursor: default; font-family: 'Open Sans', verdana, arial, sans-serif; font-size: 12px; fill: rgb(42, 63, 95); fill-opacity: 1; white-space: pre; text-shadow: white 1px 1px 1px, white -1px -1px 1px, white 1px -1px 1px, white -1px 1px 1px;">still</text></g><g class="sankey-node" transform="translate(1125.000,144.222)" style="opacity: 1;"><rect class="node-rect" width="15" height="80.26385224274395" style="stroke-width: 0.5; stroke: rgb(0, 0, 0); stroke-opacity: 1; fill: rgb(128, 128, 128); fill-opacity: 1;"/><text class="node-label" data-notex="1" x="0" y="0" text-anchor="end" transform="translate(-3.25,44.33192612137198)" style="cursor: default; font-family: 'Open Sans', verdana, arial, sans-serif; font-size: 12px; fill: rgb(42, 63, 95); fill-opacity: 1; white-space: pre; text-shadow: white 1px 1px 1px, white -1px -1px 1px, white 1px -1px 1px, white -1px 1px 1px;">dig-suppressed</text></g><g class="sankey-node" transform="translate(1125.000,322.401)" style="opacity: 1;"><rect class="node-rect" width="15" height="63.28496042216352" style="stroke-width: 0.5; stroke: rgb(0, 0, 0); stroke-opacity: 1; fill: rgb(128, 128, 128); fill-opacity: 1;"/><text class="node-label" data-notex="1" x="0" y="0" text-anchor="end" transform="translate(-3.25,35.842480211081764)" style="cursor: default; font-family: 'Open Sans', verdana, arial, sans-serif; font-size: 12px; fill: rgb(42, 63, 95); fill-opacity: 1; white-space: pre; text-shadow: white 1px 1px 1px, white -1px -1px 1px, white 1px -1px 1px, white -1px 1px 1px;">move-activated</text></g><g class="sankey-node" transform="translate(1125.000,239.485)" style="opacity: 1;"><rect class="node-rect" width="15" height="67.91556728232183" style="stroke-width: 0.5; stroke: rgb(0, 0, 0); stroke-opacity: 1; fill: rgb(128, 128, 128); fill-opacity: 1;"/><text class="node-label" data-notex="1" x="0" y="0" text-anchor="end" transform="translate(-3.25,38.15778364116092)" style="cursor: default; font-family: 'Open Sans', verdana, arial, sans-serif; font-size: 12px; fill: rgb(42, 63, 95); fill-opacity: 1; white-space: pre; text-shadow: white 1px 1px 1px, white -1px -1px 1px, white 1px -1px 1px, white -1px 1px 1px;">dig-activated</text></g><g class="sankey-node" transform="translate(1125.000,400.686)" style="opacity: 1;"><rect class="node-rect" width="15" height="55.56728232189971" style="stroke-width: 0.5; stroke: rgb(0, 0, 0); stroke-opacity: 1; fill: rgb(128, 128, 128); fill-opacity: 1;"/><text class="node-label" data-notex="1" x="0" y="0" text-anchor="end" transform="translate(-3.25,31.983641160949855)" style="cursor: default; font-family: 'Open Sans', verdana, arial, sans-serif; font-size: 12px; fill: rgb(42, 63, 95); fill-opacity: 1; white-space: pre; text-shadow: white 1px 1px 1px, white -1px -1px 1px, white 1px -1px 1px, white -1px 1px 1px;">move-suppressed</text></g><g class="sankey-node" transform="translate(1125.000,638.628)" style="opacity: 1;"><rect class="node-rect" width="15" height="35.501319261213666" style="stroke-width: 0.5; stroke: rgb(0, 0, 0); stroke-opacity: 1; fill: rgb(128, 128, 128); fill-opacity: 1;"/><text class="node-label" data-notex="1" x="0" y="0" text-anchor="end" transform="translate(-3.25,21.950659630606832)" style="cursor: default; font-family: 'Open Sans', verdana, arial, sans-serif; font-size: 12px; fill: rgb(42, 63, 95); fill-opacity: 1; white-space: pre; text-shadow: white 1px 1px 1px, white -1px -1px 1px, white 1px -1px 1px, white -1px 1px 1px;">groom-activated</text></g><g class="sankey-node" transform="translate(1125.000,471.253)" style="opacity: 1;"><rect class="node-rect" width="15" height="74.0897097625334" style="stroke-width: 0.5; stroke: rgb(0, 0, 0); stroke-opacity: 1; fill: rgb(128, 128, 128); fill-opacity: 1;"/><text class="node-label" data-notex="1" x="0" y="0" text-anchor="end" transform="translate(-3.25,41.244854881266704)" style="cursor: default; font-family: 'Open Sans', verdana, arial, sans-serif; font-size: 12px; fill: rgb(42, 63, 95); fill-opacity: 1; white-space: pre; text-shadow: white 1px 1px 1px, white -1px -1px 1px, white 1px -1px 1px, white -1px 1px 1px;">still-suppressed</text></g><g class="sankey-node" transform="translate(1125.000,560.343)" style="opacity: 1;"><rect class="node-rect" width="15" height="63.28496042216352" style="stroke-width: 0.5; stroke: rgb(0, 0, 0); stroke-opacity: 1; fill: rgb(128, 128, 128); fill-opacity: 1;"/><text class="node-label" data-notex="1" x="0" y="0" text-anchor="end" transform="translate(-3.25,35.842480211081764)" style="cursor: default; font-family: 'Open Sans', verdana, arial, sans-serif; font-size: 12px; fill: rgb(42, 63, 95); fill-opacity: 1; white-space: pre; text-shadow: white 1px 1px 1px, white -1px -1px 1px, white 1px -1px 1px, white -1px 1px 1px;">still-activated</text></g><g class="sankey-node" transform="translate(1125.000,689.129)" style="opacity: 1;"><rect class="node-rect" width="15" height="30.870712401055357" style="stroke-width: 0.5; stroke: rgb(0, 0, 0); stroke-opacity: 1; fill: rgb(128, 128, 128); fill-opacity: 1;"/><text class="node-label" data-notex="1" x="0" y="0" text-anchor="end" transform="translate(-3.25,19.635356200527678)" style="cursor: default; font-family: 'Open Sans', verdana, arial, sans-serif; font-size: 12px; fill: rgb(42, 63, 95); fill-opacity: 1; white-space: pre; text-shadow: white 1px 1px 1px, white -1px -1px 1px, white 1px -1px 1px, white -1px 1px 1px;">groom-suppressed</text></g><g class="sankey-node" transform="translate(375.000,516.689)" style="opacity: 1;"><rect class="node-rect" width="15" height="152.81002638522466" style="stroke-width: 0.5; stroke: rgb(0, 0, 0); stroke-opacity: 1; fill: rgb(99, 110, 250); fill-opacity: 1;"/><text class="node-label" data-notex="1" x="0" y="0" text-anchor="start" transform="translate(18.25,80.60501319261233)" style="cursor: default; font-family: 'Open Sans', verdana, arial, sans-serif; font-size: 12px; fill: rgb(42, 63, 95); fill-opacity: 1; white-space: pre; text-shadow: white 1px 1px 1px, white -1px -1px 1px, white 1px -1px 1px, white -1px 1px 1px;">VTA</text></g><g class="sankey-node" transform="translate(375.000,220.528)" style="opacity: 1;"><rect class="node-rect" width="15" height="94.15567282321865" style="stroke-width: 0.5; stroke: rgb(0, 0, 0); stroke-opacity: 1; fill: rgb(239, 85, 59); fill-opacity: 1;"/><text class="node-label" data-notex="1" x="0" y="0" text-anchor="start" transform="translate(18.25,51.27783641160933)" style="cursor: default; font-family: 'Open Sans', verdana, arial, sans-serif; font-size: 12px; fill: rgb(42, 63, 95); fill-opacity: 1; white-space: pre; text-shadow: white 1px 1px 1px, white -1px -1px 1px, white 1px -1px 1px, white -1px 1px 1px;">Cla</text></g><g class="sankey-node" transform="translate(375.000,329.683)" style="opacity: 1;"><rect class="node-rect" width="15" height="60.197889182058475" style="stroke-width: 0.5; stroke: rgb(0, 0, 0); stroke-opacity: 1; fill: rgb(0, 204, 150); fill-opacity: 1;"/><text class="node-label" data-notex="1" x="0" y="0" text-anchor="start" transform="translate(18.25,34.29894459102924)" style="cursor: default; font-family: 'Open Sans', verdana, arial, sans-serif; font-size: 12px; fill: rgb(42, 63, 95); fill-opacity: 1; white-space: pre; text-shadow: white 1px 1px 1px, white -1px -1px 1px, white 1px -1px 1px, white -1px 1px 1px;">LC</text></g><g class="sankey-node" transform="translate(375.000,122.177)" style="opacity: 1;"><rect class="node-rect" width="15" height="83.35092348284945" style="stroke-width: 0.5; stroke: rgb(0, 0, 0); stroke-opacity: 1; fill: rgb(171, 99, 250); fill-opacity: 1;"/><text class="node-label" data-notex="1" x="0" y="0" text-anchor="start" transform="translate(18.25,45.87546174142473)" style="cursor: default; font-family: 'Open Sans', verdana, arial, sans-serif; font-size: 12px; fill: rgb(42, 63, 95); fill-opacity: 1; white-space: pre; text-shadow: white 1px 1px 1px, white -1px -1px 1px, white 1px -1px 1px, white -1px 1px 1px;">Str</text></g><g class="sankey-node" transform="translate(375.000,67.045)" style="opacity: 1;"><rect class="node-rect" width="15" height="40.13192612137192" style="stroke-width: 0.5; stroke: rgb(0, 0, 0); stroke-opacity: 1; fill: rgb(255, 161, 90); fill-opacity: 1;"/><text class="node-label" data-notex="1" x="0" y="0" text-anchor="start" transform="translate(18.25,24.26596306068596)" style="cursor: default; font-family: 'Open Sans', verdana, arial, sans-serif; font-size: 12px; fill: rgb(42, 63, 95); fill-opacity: 1; white-space: pre; text-shadow: white 1px 1px 1px, white -1px -1px 1px, white 1px -1px 1px, white -1px 1px 1px;">NAc</text></g><g class="sankey-node" transform="translate(375.000,19.631)" style="opacity: 1;"><rect class="node-rect" width="15" height="32.41424802110839" style="stroke-width: 0.5; stroke: rgb(0, 0, 0); stroke-opacity: 1; fill: rgb(25, 211, 243); fill-opacity: 1;"/><text class="node-label" data-notex="1" x="0" y="0" text-anchor="start" transform="translate(18.25,20.407124010554195)" style="cursor: default; font-family: 'Open Sans', verdana, arial, sans-serif; font-size: 12px; fill: rgb(42, 63, 95); fill-opacity: 1; white-space: pre; text-shadow: white 1px 1px 1px, white -1px -1px 1px, white 1px -1px 1px, white -1px 1px 1px;">BLA</text></g><g class="sankey-node" transform="translate(375.000,472.361)" style="opacity: 1;"><rect class="node-rect" width="15" height="29.327176781002663" style="stroke-width: 0.5; stroke: rgb(0, 0, 0); stroke-opacity: 1; fill: rgb(255, 102, 146); fill-opacity: 1;"/><text class="node-label" data-notex="1" x="0" y="0" text-anchor="start" transform="translate(18.25,18.86358839050133)" style="cursor: default; font-family: 'Open Sans', verdana, arial, sans-serif; font-size: 12px; fill: rgb(42, 63, 95); fill-opacity: 1; white-space: pre; text-shadow: white 1px 1px 1px, white -1px -1px 1px, white 1px -1px 1px, white -1px 1px 1px;">dPAG</text></g><g class="sankey-node" transform="translate(375.000,-0.000)" style="opacity: 1;"><rect class="node-rect" width="15" height="4.630606860158309" style="stroke-width: 0.5; stroke: rgb(0, 0, 0); stroke-opacity: 1; fill: rgb(182, 232, 128); fill-opacity: 1;"/><text class="node-label" data-notex="1" x="0" y="0" text-anchor="start" transform="translate(18.25,6.515303430079154)" style="cursor: default; font-family: 'Open Sans', verdana, arial, sans-serif; font-size: 12px; fill: rgb(42, 63, 95); fill-opacity: 1; white-space: pre; text-shadow: white 1px 1px 1px, white -1px -1px 1px, white 1px -1px 1px, white -1px 1px 1px;">lHb</text></g><g class="sankey-node" transform="translate(375.000,404.881)" style="opacity: 1;"><rect class="node-rect" width="15" height="52.48021108179421" style="stroke-width: 0.5; stroke: rgb(0, 0, 0); stroke-opacity: 1; fill: rgb(255, 151, 255); fill-opacity: 1;"/><text class="node-label" data-notex="1" x="0" y="0" text-anchor="start" transform="translate(18.25,30.440105540897104)" style="cursor: default; font-family: 'Open Sans', verdana, arial, sans-serif; font-size: 12px; fill: rgb(42, 63, 95); fill-opacity: 1; white-space: pre; text-shadow: white 1px 1px 1px, white -1px -1px 1px, white 1px -1px 1px, white -1px 1px 1px;">cPFC</text></g><g class="sankey-node" transform="translate(375.000,684.499)" style="opacity: 1;"><rect class="node-rect" width="15" height="35.501319261213894" style="stroke-width: 0.5; stroke: rgb(0, 0, 0); stroke-opacity: 1; fill: rgb(254, 203, 82); fill-opacity: 1;"/><text class="node-label" data-notex="1" x="0" y="0" text-anchor="start" transform="translate(18.25,21.950659630606946)" style="cursor: default; font-family: 'Open Sans', verdana, arial, sans-serif; font-size: 12px; fill: rgb(42, 63, 95); fill-opacity: 1; white-space: pre; text-shadow: white 1px 1px 1px, white -1px -1px 1px, white 1px -1px 1px, white -1px 1px 1px;">LHyp</text></g></g></g><defs id="topdefs-224e81"><g class="clips"/></defs><g class="layer-above"><g class="imagelayer"/><g class="shapelayer"/></g><g class="infolayer"><g class="g-gtitle"/><g class="first-render"/></g></svg>