<svg class="main-svg" xmlns="http://www.w3.org/2000/svg" xmlns:xlink="http://www.w3.org/1999/xlink" width="1300" height="900" viewBox="0 0 1300 900" style=""><rect x="0" y="0" width="1300" height="900" style="fill: rgb(255, 255, 255); fill-opacity: 1;"/><defs id="defs-f95103"><g class="clips"/><g class="gradients"/><g class="patterns"/></defs><g class="bglayer"/><g class="layer-below"><g class="imagelayer"/><g class="shapelayer"/></g><g class="cartesianlayer"/><g class="polarlayer"/><g class="smithlayer"/><g class="ternarylayer"/><g class="geolayer"/><g class="funnelarealayer"/><g class="pielayer"/><g class="iciclelayer"/><g class="treemaplayer"/><g class="sunburstlayer"/><g class="glimages"/><g class="sankey" transform="translate(80,100)matrix(1 0 0 1 0 0)" style="box-sizing: content-box; position: absolute; left: 0px; shape-rendering: geometricprecision; pointer-events: none;"><g class="sankey-links" style="fill: none;"><path class="sankey-link" d="M7.50114,15.757180851063824C188.10057000000003,15.757180851063824 188.10057000000003,58.26781914893607 368.70000000000005,58.26781914893607L368.70000000000005,69.15877659574458C188.10057000000003,69.15877659574458 188.10057000000003,26.648138297872336 7.50114,26.648138297872336Z" style="stroke: rgb(68, 68, 68); stroke-opacity: 1; fill: rgb(239, 85, 59); fill-opacity: 0.6; stroke-width: 0; opacity: 1;"/><path class="sankey-link" d="M7.50114,26.648138297872332C188.10057000000003,26.648138297872332 188.10057000000003,164.4630319148937 368.70000000000005,164.4630319148937L368.70000000000005,167.57473404255325C188.10057000000003,167.57473404255325 188.10057000000003,29.75984042553191 7.50114,29.75984042553191Z" style="stroke: rgb(68, 68, 68); stroke-opacity: 1; fill: rgb(0, 204, 150); fill-opacity: 0.6; stroke-width: 0; opacity: 1;"/><path class="sankey-link" d="M7.50114,29.759840425531905C188.10057000000003,29.759840425531905 188.10057000000003,281.79095744680865 368.70000000000005,281.79095744680865L368.70000000000005,288.01436170212776C188.10057000000003,288.01436170212776 188.10057000000003,35.98324468085106 7.50114,35.98324468085106Z" style="stroke: rgb(68, 68, 68); stroke-opacity: 1; fill: rgb(255, 161, 90); fill-opacity: 0.6; stroke-width: 0; opacity: 1;"/><path class="sankey-link" d="M7.50114,35.98324468085106C188.10057000000003,35.98324468085106 188.10057000000003,334.1537234042555 368.70000000000005,334.1537234042555L368.70000000000005,345.0446808510641C188.10057000000003,345.0446808510641 188.10057000000003,46.87420212765957 7.50114,46.87420212765957Z" style="stroke: rgb(68, 68, 68); stroke-opacity: 1; fill: rgb(171, 99, 250); fill-opacity: 0.6; stroke-width: 0; opacity: 1;"/><path class="sankey-link" d="M7.50114,46.87420212765957C188.10057000000003,46.87420212765957 188.10057000000003,427.80877659574463 368.70000000000005,427.80877659574463L368.70000000000005,429.3646276595744C188.10057000000003,429.3646276595744 188.10057000000003,48.430053191489364 7.50114,48.430053191489364Z" style="stroke: rgb(68, 68, 68); stroke-opacity: 1; fill: rgb(99, 110, 250); fill-opacity: 0.6; stroke-width: 0; opacity: 1;"/><path class="sankey-link" d="M7.50114,74.07526595744676C188.10057000000003,74.07526595744676 188.10057000000003,13.746542553191532 368.70000000000005,13.746542553191532L368.70000000000005,43.30771276595749C188.10057000000003,43.30771276595749 188.10057000000003,103.6364361702127 7.50114,103.6364361702127Z" style="stroke: rgb(68, 68, 68); stroke-opacity: 1; fill: rgb(25, 211, 243); fill-opacity: 0.6; stroke-width: 0; opacity: 1;"/><path class="sankey-link" d="M7.50114,103.63643617021273C188.10057000000003,103.63643617021273 188.10057000000003,69.1587765957446 368.70000000000005,69.1587765957446L368.70000000000005,108.05505319148926C188.10057000000003,108.05505319148926 188.10057000000003,142.5327127659574 7.50114,142.5327127659574Z" style="stroke: rgb(68, 68, 68); stroke-opacity: 1; fill: rgb(239, 85, 59); fill-opacity: 0.6; stroke-width: 0; opacity: 1;"/><path class="sankey-link" d="M7.50114,142.5327127659574C188.10057000000003,142.5327127659574 188.10057000000003,167.57473404255327 368.70000000000005,167.57473404255327L368.70000000000005,203.35930851063839C188.10057000000003,203.35930851063839 188.10057000000003,178.3172872340425 7.50114,178.3172872340425Z" style="stroke: rgb(68, 68, 68); stroke-opacity: 1; fill: rgb(0, 204, 150); fill-opacity: 0.6; stroke-width: 0; opacity: 1;"/><path class="sankey-link" d="M7.50114,178.3172872340425C188.10057000000003,178.3172872340425 188.10057000000003,288.0143617021278 368.70000000000005,288.0143617021278L368.70000000000005,308.24042553191504C188.10057000000003,308.24042553191504 188.10057000000003,198.54335106382973 7.50114,198.54335106382973Z" style="stroke: rgb(68, 68, 68); stroke-opacity: 1; fill: rgb(255, 161, 90); fill-opacity: 0.6; stroke-width: 0; opacity: 1;"/><path class="sankey-link" d="M7.50114,198.54335106382973C188.10057000000003,198.54335106382973 188.10057000000003,345.044680851064 368.70000000000005,345.044680851064L368.70000000000005,391.7202127659577C188.10057000000003,391.7202127659577 188.10057000000003,245.21888297872334 7.50114,245.21888297872334Z" style="stroke: rgb(68, 68, 68); stroke-opacity: 1; fill: rgb(171, 99, 250); fill-opacity: 0.6; stroke-width: 0; opacity: 1;"/><path class="sankey-link" d="M7.50114,245.21888297872334C188.10057000000003,245.21888297872334 188.10057000000003,429.3646276595744 368.70000000000005,429.3646276595744L368.70000000000005,451.1465425531914C188.10057000000003,451.1465425531914 188.10057000000003,267.00079787234034 7.50114,267.00079787234034Z" style="stroke: rgb(68, 68, 68); stroke-opacity: 1; fill: rgb(99, 110, 250); fill-opacity: 0.6; stroke-width: 0; opacity: 1;"/><path class="sankey-link" d="M7.50114,267.00079787234034C188.10057000000003,267.00079787234034 188.10057000000003,592.0994680851064 368.70000000000005,592.0994680851064L368.70000000000005,618.5489361702129C188.10057000000003,618.5489361702129 188.10057000000003,293.4502659574467 7.50114,293.4502659574467Z" style="stroke: rgb(68, 68, 68); stroke-opacity: 1; fill: rgb(255, 151, 255); fill-opacity: 0.6; stroke-width: 0; opacity: 1;"/><path class="sankey-link" d="M7.50114,293.45026595744673C188.10057000000003,293.45026595744673 188.10057000000003,657.7492021276596 368.70000000000005,657.7492021276596L368.70000000000005,671.7518617021276C188.10057000000003,671.7518617021276 188.10057000000003,307.45292553191484 7.50114,307.45292553191484Z" style="stroke: rgb(68, 68, 68); stroke-opacity: 1; fill: rgb(255, 102, 146); fill-opacity: 0.6; stroke-width: 0; opacity: 1;"/><path class="sankey-link" d="M7.50114,307.45292553191484C188.10057000000003,307.45292553191484 188.10057000000003,701.0257978723405 368.70000000000005,701.0257978723405L368.70000000000005,705.6933510638298C188.10057000000003,705.6933510638298 188.10057000000003,312.1204787234042 7.50114,312.1204787234042Z" style="stroke: rgb(68, 68, 68); stroke-opacity: 1; fill: rgb(182, 232, 128); fill-opacity: 0.6; stroke-width: 0; opacity: 1;"/><path class="sankey-link" d="M7.50114,339.1228723404257C188.10057000000003,339.1228723404257 188.10057000000003,43.30771276595749 368.70000000000005,43.30771276595749L368.70000000000005,46.41941489361706C188.10057000000003,46.41941489361706 188.10057000000003,342.23457446808527 7.50114,342.23457446808527Z" style="stroke: rgb(68, 68, 68); stroke-opacity: 1; fill: rgb(25, 211, 243); fill-opacity: 0.6; stroke-width: 0; opacity: 1;"/><path class="sankey-link" d="M7.50114,342.23457446808527C188.10057000000003,342.23457446808527 188.10057000000003,108.05505319148926 368.70000000000005,108.05505319148926L368.70000000000005,131.39281914893607C188.10057000000003,131.39281914893607 188.10057000000003,365.57234042553205 7.50114,365.57234042553205Z" style="stroke: rgb(68, 68, 68); stroke-opacity: 1; fill: rgb(239, 85, 59); fill-opacity: 0.6; stroke-width: 0; opacity: 1;"/><path class="sankey-link" d="M7.50114,365.5723404255321C188.10057000000003,365.5723404255321 188.10057000000003,203.35930851063839 368.70000000000005,203.35930851063839L368.70000000000005,209.58271276595755C188.10057000000003,209.58271276595755 188.10057000000003,371.7957446808512 7.50114,371.7957446808512Z" style="stroke: rgb(68, 68, 68); stroke-opacity: 1; fill: rgb(0, 204, 150); fill-opacity: 0.6; stroke-width: 0; opacity: 1;"/><path class="sankey-link" d="M7.50114,371.79574468085127C188.10057000000003,371.79574468085127 188.10057000000003,308.24042553191504 368.70000000000005,308.24042553191504L368.70000000000005,322.24308510638315C188.10057000000003,322.24308510638315 188.10057000000003,385.7984042553194 7.50114,385.7984042553194Z" style="stroke: rgb(68, 68, 68); stroke-opacity: 1; fill: rgb(255, 161, 90); fill-opacity: 0.6; stroke-width: 0; opacity: 1;"/><path class="sankey-link" d="M7.50114,385.7984042553194C188.10057000000003,385.7984042553194 188.10057000000003,391.7202127659576 368.70000000000005,391.7202127659576L368.70000000000005,393.2760638297874C188.10057000000003,393.2760638297874 188.10057000000003,387.35425531914916 7.50114,387.35425531914916Z" style="stroke: rgb(68, 68, 68); stroke-opacity: 1; fill: rgb(171, 99, 250); fill-opacity: 0.6; stroke-width: 0; opacity: 1;"/><path class="sankey-link" d="M7.50114,387.35425531914916C188.10057000000003,387.35425531914916 188.10057000000003,451.1465425531914 368.70000000000005,451.1465425531914L368.70000000000005,454.25824468085096C188.10057000000003,454.25824468085096 188.10057000000003,390.4659574468087 7.50114,390.4659574468087Z" style="stroke: rgb(68, 68, 68); stroke-opacity: 1; fill: rgb(99, 110, 250); fill-opacity: 0.6; stroke-width: 0; opacity: 1;"/><path class="sankey-link" d="M7.50114,390.4659574468087C188.10057000000003,390.4659574468087 188.10057000000003,618.5489361702128 368.70000000000005,618.5489361702128L368.70000000000005,623.2164893617021C188.10057000000003,623.2164893617021 188.10057000000003,395.13351063829805 7.50114,395.13351063829805Z" style="stroke: rgb(68, 68, 68); stroke-opacity: 1; fill: rgb(255, 151, 255); fill-opacity: 0.6; stroke-width: 0; opacity: 1;"/><path class="sankey-link" d="M7.50114,395.1335106382981C188.10057000000003,395.1335106382981 188.10057000000003,671.7518617021277 368.70000000000005,671.7518617021277L368.70000000000005,681.0869680851064C188.10057000000003,681.0869680851064 188.10057000000003,404.4686170212769 7.50114,404.4686170212769Z" style="stroke: rgb(68, 68, 68); stroke-opacity: 1; fill: rgb(255, 102, 146); fill-opacity: 0.6; stroke-width: 0; opacity: 1;"/><path class="sankey-link" d="M7.50114,426.75319148936165C188.10057000000003,426.75319148936165 188.10057000000003,131.39281914893607 368.70000000000005,131.39281914893607L368.70000000000005,142.28377659574457C188.10057000000003,142.28377659574457 188.10057000000003,437.6441489361702 7.50114,437.6441489361702Z" style="stroke: rgb(68, 68, 68); stroke-opacity: 1; fill: rgb(239, 85, 59); fill-opacity: 0.6; stroke-width: 0; opacity: 1;"/><path class="sankey-link" d="M7.50114,437.64414893617015C188.10057000000003,437.64414893617015 188.10057000000003,209.58271276595752 368.70000000000005,209.58271276595752L368.70000000000005,217.36196808510647C188.10057000000003,217.36196808510647 188.10057000000003,445.42340425531904 7.50114,445.42340425531904Z" style="stroke: rgb(68, 68, 68); stroke-opacity: 1; fill: rgb(0, 204, 150); fill-opacity: 0.6; stroke-width: 0; opacity: 1;"/><path class="sankey-link" d="M7.50114,445.4234042553191C188.10057000000003,445.4234042553191 188.10057000000003,237.7053191489363 368.70000000000005,237.7053191489363L368.70000000000005,253.2638297872342C188.10057000000003,253.2638297872342 188.10057000000003,460.981914893617 7.50114,460.981914893617Z" style="stroke: rgb(68, 68, 68); stroke-opacity: 1; fill: rgb(254, 203, 82); fill-opacity: 0.6; stroke-width: 0; opacity: 1;"/><path class="sankey-link" d="M7.50114,460.981914893617C188.10057000000003,460.981914893617 188.10057000000003,393.2760638297874 368.70000000000005,393.2760638297874L368.70000000000005,405.72287234042574C188.10057000000003,405.72287234042574 188.10057000000003,473.4287234042553 7.50114,473.4287234042553Z" style="stroke: rgb(68, 68, 68); stroke-opacity: 1; fill: rgb(171, 99, 250); fill-opacity: 0.6; stroke-width: 0; opacity: 1;"/><path class="sankey-link" d="M7.50114,473.42872340425527C188.10057000000003,473.42872340425527 188.10057000000003,454.2582446808509 368.70000000000005,454.2582446808509L368.70000000000005,518.0481382978722C188.10057000000003,518.0481382978722 188.10057000000003,537.2186170212766 7.50114,537.2186170212766Z" style="stroke: rgb(68, 68, 68); stroke-opacity: 1; fill: rgb(99, 110, 250); fill-opacity: 0.6; stroke-width: 0; opacity: 1;"/><path class="sankey-link" d="M7.50114,537.2186170212765C188.10057000000003,537.2186170212765 188.10057000000003,623.2164893617021 368.70000000000005,623.2164893617021L368.70000000000005,634.1074468085105C188.10057000000003,634.1074468085105 188.10057000000003,548.1095744680849 7.50114,548.1095744680849Z" style="stroke: rgb(68, 68, 68); stroke-opacity: 1; fill: rgb(255, 151, 255); fill-opacity: 0.6; stroke-width: 0; opacity: 1;"/><path class="sankey-link" d="M7.50114,548.109574468085C188.10057000000003,548.109574468085 188.10057000000003,681.0869680851065 368.70000000000005,681.0869680851065L368.70000000000005,684.198670212766C188.10057000000003,684.198670212766 188.10057000000003,551.2212765957446 7.50114,551.2212765957446Z" style="stroke: rgb(68, 68, 68); stroke-opacity: 1; fill: rgb(255, 102, 146); fill-opacity: 0.6; stroke-width: 0; opacity: 1;"/><path class="sankey-link" d="M7.50114,575.9617021276596C188.10057000000003,575.9617021276596 188.10057000000003,142.28377659574457 368.70000000000005,142.28377659574457L368.70000000000005,153.17473404255307C188.10057000000003,153.17473404255307 188.10057000000003,586.852659574468 7.50114,586.852659574468Z" style="stroke: rgb(68, 68, 68); stroke-opacity: 1; fill: rgb(239, 85, 59); fill-opacity: 0.6; stroke-width: 0; opacity: 1;"/><path class="sankey-link" d="M7.50114,586.8526595744681C188.10057000000003,586.8526595744681 188.10057000000003,217.36196808510647 368.70000000000005,217.36196808510647L368.70000000000005,225.1412234042554C188.10057000000003,225.1412234042554 188.10057000000003,594.631914893617 7.50114,594.631914893617Z" style="stroke: rgb(68, 68, 68); stroke-opacity: 1; fill: rgb(0, 204, 150); fill-opacity: 0.6; stroke-width: 0; opacity: 1;"/><path class="sankey-link" d="M7.50114,594.631914893617C188.10057000000003,594.631914893617 188.10057000000003,253.26382978723416 368.70000000000005,253.26382978723416L368.70000000000005,268.82234042553205C188.10057000000003,268.82234042553205 188.10057000000003,610.1904255319148 7.50114,610.1904255319148Z" style="stroke: rgb(68, 68, 68); stroke-opacity: 1; fill: rgb(254, 203, 82); fill-opacity: 0.6; stroke-width: 0; opacity: 1;"/><path class="sankey-link" d="M7.50114,610.1904255319149C188.10057000000003,610.1904255319149 188.10057000000003,405.7228723404257 368.70000000000005,405.7228723404257L368.70000000000005,418.169680851064C188.10057000000003,418.169680851064 188.10057000000003,622.6372340425531 7.50114,622.6372340425531Z" style="stroke: rgb(68, 68, 68); stroke-opacity: 1; fill: rgb(171, 99, 250); fill-opacity: 0.6; stroke-width: 0; opacity: 1;"/><path class="sankey-link" d="M7.50114,622.6372340425532C188.10057000000003,622.6372340425532 188.10057000000003,518.0481382978722 368.70000000000005,518.0481382978722L368.70000000000005,581.8380319148936C188.10057000000003,581.8380319148936 188.10057000000003,686.4271276595746 7.50114,686.4271276595746Z" style="stroke: rgb(68, 68, 68); stroke-opacity: 1; fill: rgb(99, 110, 250); fill-opacity: 0.6; stroke-width: 0; opacity: 1;"/><path class="sankey-link" d="M7.50114,686.4271276595746C188.10057000000003,686.4271276595746 188.10057000000003,634.1074468085106 368.70000000000005,634.1074468085106L368.70000000000005,644.9984042553191C188.10057000000003,644.9984042553191 188.10057000000003,697.318085106383 7.50114,697.318085106383Z" style="stroke: rgb(68, 68, 68); stroke-opacity: 1; fill: rgb(255, 151, 255); fill-opacity: 0.6; stroke-width: 0; opacity: 1;"/><path class="sankey-link" d="M7.50114,697.3180851063831C188.10057000000003,697.3180851063831 188.10057000000003,684.198670212766 368.70000000000005,684.198670212766L368.70000000000005,687.3103723404256C188.10057000000003,687.3103723404256 188.10057000000003,700.4297872340427 7.50114,700.4297872340427Z" style="stroke: rgb(68, 68, 68); stroke-opacity: 1; fill: rgb(255, 102, 146); fill-opacity: 0.6; stroke-width: 0; opacity: 1;"/><path class="sankey-link" d="M383.70000000000005,13.746542553191532C564.3000000000001,13.746542553191532 564.3000000000001,102.02712765957438 744.9000000000001,102.02712765957438L744.9000000000001,106.69468085106374C564.3000000000001,106.69468085106374 564.3000000000001,18.414095744680893 383.70000000000005,18.414095744680893Z" style="stroke: rgb(68, 68, 68); stroke-opacity: 1; fill: rgb(25, 211, 243); fill-opacity: 0.6; stroke-width: 0; opacity: 1;"/><path class="sankey-link" d="M383.70000000000005,18.414095744680893C564.3000000000001,18.414095744680893 564.3000000000001,443.9361702127661 744.9000000000001,443.9361702127661L744.9000000000001,447.04787234042567C564.3000000000001,447.04787234042567 564.3000000000001,21.52579787234047 383.70000000000005,21.52579787234047Z" style="stroke: rgb(68, 68, 68); stroke-opacity: 1; fill: rgb(25, 211, 243); fill-opacity: 0.6; stroke-width: 0; opacity: 1;"/><path class="sankey-link" d="M383.70000000000005,58.26781914893607C564.3000000000001,58.26781914893607 564.3000000000001,106.69468085106374 744.9000000000001,106.69468085106374L744.9000000000001,130.03244680851054C564.3000000000001,130.03244680851054 564.3000000000001,81.60558510638288 383.70000000000005,81.60558510638288Z" style="stroke: rgb(68, 68, 68); stroke-opacity: 1; fill: rgb(239, 85, 59); fill-opacity: 0.6; stroke-width: 0; opacity: 1;"/><path class="sankey-link" d="M383.70000000000005,81.60558510638288C564.3000000000001,81.60558510638288 564.3000000000001,447.04787234042567 744.9000000000001,447.04787234042567L744.9000000000001,462.60638297872356C564.3000000000001,462.60638297872356 564.3000000000001,97.16409574468074 383.70000000000005,97.16409574468074Z" style="stroke: rgb(68, 68, 68); stroke-opacity: 1; fill: rgb(239, 85, 59); fill-opacity: 0.6; stroke-width: 0; opacity: 1;"/><path class="sankey-link" d="M383.70000000000005,164.4630319148937C564.3000000000001,164.4630319148937 564.3000000000001,130.03244680851054 744.9000000000001,130.03244680851054L744.9000000000001,142.47925531914882C564.3000000000001,142.47925531914882 564.3000000000001,176.90984042553197 383.70000000000005,176.90984042553197Z" style="stroke: rgb(68, 68, 68); stroke-opacity: 1; fill: rgb(0, 204, 150); fill-opacity: 0.6; stroke-width: 0; opacity: 1;"/><path class="sankey-link" d="M383.70000000000005,176.909840425532C564.3000000000001,176.909840425532 564.3000000000001,462.60638297872356 744.9000000000001,462.60638297872356L744.9000000000001,473.4973404255321C564.3000000000001,473.4973404255321 564.3000000000001,187.8007978723405 383.70000000000005,187.8007978723405Z" style="stroke: rgb(68, 68, 68); stroke-opacity: 1; fill: rgb(0, 204, 150); fill-opacity: 0.6; stroke-width: 0; opacity: 1;"/><path class="sankey-link" d="M383.70000000000005,237.7053191489363C564.3000000000001,237.7053191489363 564.3000000000001,142.47925531914885 744.9000000000001,142.47925531914885L744.9000000000001,147.14680851063824C564.3000000000001,147.14680851063824 564.3000000000001,242.3728723404257 383.70000000000005,242.3728723404257Z" style="stroke: rgb(68, 68, 68); stroke-opacity: 1; fill: rgb(254, 203, 82); fill-opacity: 0.6; stroke-width: 0; opacity: 1;"/><path class="sankey-link" d="M383.70000000000005,242.37287234042566C564.3000000000001,242.37287234042566 564.3000000000001,473.49734042553206 744.9000000000001,473.49734042553206L744.9000000000001,489.05585106382995C564.3000000000001,489.05585106382995 564.3000000000001,257.93138297872355 383.70000000000005,257.93138297872355Z" style="stroke: rgb(68, 68, 68); stroke-opacity: 1; fill: rgb(254, 203, 82); fill-opacity: 0.6; stroke-width: 0; opacity: 1;"/><path class="sankey-link" d="M383.70000000000005,281.79095744680865C564.3000000000001,281.79095744680865 564.3000000000001,147.1468085106382 744.9000000000001,147.1468085106382L744.9000000000001,154.92606382978715C564.3000000000001,154.92606382978715 564.3000000000001,289.57021276595754 383.70000000000005,289.57021276595754Z" style="stroke: rgb(68, 68, 68); stroke-opacity: 1; fill: rgb(255, 161, 90); fill-opacity: 0.6; stroke-width: 0; opacity: 1;"/><path class="sankey-link" d="M383.70000000000005,289.5702127659576C564.3000000000001,289.5702127659576 564.3000000000001,489.05585106382995 744.9000000000001,489.05585106382995L744.9000000000001,495.27925531914906C564.3000000000001,495.27925531914906 564.3000000000001,295.7936170212767 383.70000000000005,295.7936170212767Z" style="stroke: rgb(68, 68, 68); stroke-opacity: 1; fill: rgb(255, 161, 90); fill-opacity: 0.6; stroke-width: 0; opacity: 1;"/><path class="sankey-link" d="M383.70000000000005,334.1537234042555C564.3000000000001,334.1537234042555 564.3000000000001,154.92606382978715 744.9000000000001,154.92606382978715L744.9000000000001,181.37553191489354C564.3000000000001,181.37553191489354 564.3000000000001,360.60319148936185 383.70000000000005,360.60319148936185Z" style="stroke: rgb(68, 68, 68); stroke-opacity: 1; fill: rgb(171, 99, 250); fill-opacity: 0.6; stroke-width: 0; opacity: 1;"/><path class="sankey-link" d="M383.70000000000005,360.6031914893619C564.3000000000001,360.6031914893619 564.3000000000001,495.2792553191491 744.9000000000001,495.2792553191491L744.9000000000001,510.837765957447C564.3000000000001,510.837765957447 564.3000000000001,376.1617021276598 383.70000000000005,376.1617021276598Z" style="stroke: rgb(68, 68, 68); stroke-opacity: 1; fill: rgb(171, 99, 250); fill-opacity: 0.6; stroke-width: 0; opacity: 1;"/><path class="sankey-link" d="M383.70000000000005,427.80877659574463C564.3000000000001,427.80877659574463 564.3000000000001,181.37553191489354 744.9000000000001,181.37553191489354L744.9000000000001,220.2718085106382C564.3000000000001,220.2718085106382 564.3000000000001,466.7050531914893 383.70000000000005,466.7050531914893Z" style="stroke: rgb(68, 68, 68); stroke-opacity: 1; fill: rgb(99, 110, 250); fill-opacity: 0.6; stroke-width: 0; opacity: 1;"/><path class="sankey-link" d="M383.70000000000005,466.7050531914893C564.3000000000001,466.7050531914893 564.3000000000001,510.837765957447 744.9000000000001,510.837765957447L744.9000000000001,582.4069148936172C564.3000000000001,582.4069148936172 564.3000000000001,538.2742021276595 383.70000000000005,538.2742021276595Z" style="stroke: rgb(68, 68, 68); stroke-opacity: 1; fill: rgb(99, 110, 250); fill-opacity: 0.6; stroke-width: 0; opacity: 1;"/><path class="sankey-link" d="M383.70000000000005,592.0994680851064C564.3000000000001,592.0994680851064 564.3000000000001,220.2718085106382 744.9000000000001,220.2718085106382L744.9000000000001,231.1627659574467C564.3000000000001,231.1627659574467 564.3000000000001,602.9904255319149 383.70000000000005,602.9904255319149Z" style="stroke: rgb(68, 68, 68); stroke-opacity: 1; fill: rgb(255, 151, 255); fill-opacity: 0.6; stroke-width: 0; opacity: 1;"/><path class="sankey-link" d="M383.70000000000005,602.990425531915C564.3000000000001,602.990425531915 564.3000000000001,582.4069148936172 744.9000000000001,582.4069148936172L744.9000000000001,594.8537234042554C564.3000000000001,594.8537234042554 564.3000000000001,615.4372340425532 383.70000000000005,615.4372340425532Z" style="stroke: rgb(68, 68, 68); stroke-opacity: 1; fill: rgb(255, 151, 255); fill-opacity: 0.6; stroke-width: 0; opacity: 1;"/><path class="sankey-link" d="M383.70000000000005,657.7492021276596C564.3000000000001,657.7492021276596 564.3000000000001,231.1627659574467 744.9000000000001,231.1627659574467L744.9000000000001,238.94202127659565C564.3000000000001,238.94202127659565 564.3000000000001,665.5284574468085 383.70000000000005,665.5284574468085Z" style="stroke: rgb(68, 68, 68); stroke-opacity: 1; fill: rgb(255, 102, 146); fill-opacity: 0.6; stroke-width: 0; opacity: 1;"/><path class="sankey-link" d="M383.70000000000005,665.5284574468085C564.3000000000001,665.5284574468085 564.3000000000001,594.8537234042556 744.9000000000001,594.8537234042556L744.9000000000001,604.1888297872342C564.3000000000001,604.1888297872342 564.3000000000001,674.8635638297872 383.70000000000005,674.8635638297872Z" style="stroke: rgb(68, 68, 68); stroke-opacity: 1; fill: rgb(255, 102, 146); fill-opacity: 0.6; stroke-width: 0; opacity: 1;"/><path class="sankey-link" d="M383.70000000000005,701.0257978723405C564.3000000000001,701.0257978723405 564.3000000000001,238.94202127659565 744.9000000000001,238.94202127659565L744.9000000000001,240.49787234042543C564.3000000000001,240.49787234042543 564.3000000000001,702.5816489361703 383.70000000000005,702.5816489361703Z" style="stroke: rgb(68, 68, 68); stroke-opacity: 1; fill: rgb(182, 232, 128); fill-opacity: 0.6; stroke-width: 0; opacity: 1;"/><path class="sankey-link" d="M759.9000000000001,102.02712765957438C946.19943,102.02712765957438 946.19943,59.87872340425534 1132.49886,59.87872340425534L1132.49886,61.43457446808513C946.19943,61.43457446808513 946.19943,103.58297872340415 759.9000000000001,103.58297872340415Z" style="stroke: rgb(68, 68, 68); stroke-opacity: 1; fill: rgb(25, 211, 243); fill-opacity: 0.6; stroke-width: 0; opacity: 1;"/><path class="sankey-link" d="M759.9000000000001,179.8196808510637C946.19943,179.8196808510637 946.19943,233.02340425531926 1132.49886,233.02340425531926L1132.49886,236.13510638297882C946.19943,236.13510638297882 946.19943,182.93138297872326 759.9000000000001,182.93138297872326Z" style="stroke: rgb(68, 68, 68); stroke-opacity: 1; fill: rgb(25, 211, 243); fill-opacity: 0.6; stroke-width: 0; opacity: 1;"/><path class="sankey-link" d="M759.9000000000001,443.9361702127661C946.19943,443.9361702127661 946.19943,383.5962765957449 1132.49886,383.5962765957449L1132.49886,385.15212765957466C946.19943,385.15212765957466 946.19943,445.4920212765959 759.9000000000001,445.4920212765959Z" style="stroke: rgb(68, 68, 68); stroke-opacity: 1; fill: rgb(25, 211, 243); fill-opacity: 0.6; stroke-width: 0; opacity: 1;"/><path class="sankey-link" d="M759.9000000000001,512.3936170212768C946.19943,512.3936170212768 946.19943,560.1398936170214 1132.49886,560.1398936170214L1132.49886,561.6957446808511C946.19943,561.6957446808511 946.19943,513.9494680851066 759.9000000000001,513.9494680851066Z" style="stroke: rgb(68, 68, 68); stroke-opacity: 1; fill: rgb(25, 211, 243); fill-opacity: 0.6; stroke-width: 0; opacity: 1;"/><path class="sankey-link" d="M759.9000000000001,103.58297872340417C946.19943,103.58297872340417 946.19943,61.43457446808512 1132.49886,61.43457446808512L1132.49886,73.88138297872342C946.19943,73.88138297872342 946.19943,116.02978723404247 759.9000000000001,116.02978723404247Z" style="stroke: rgb(68, 68, 68); stroke-opacity: 1; fill: rgb(239, 85, 59); fill-opacity: 0.6; stroke-width: 0; opacity: 1;"/><path class="sankey-link" d="M759.9000000000001,182.9313829787233C946.19943,182.9313829787233 946.19943,236.13510638297885 1132.49886,236.13510638297885L1132.49886,247.02606382978735C946.19943,247.02606382978735 946.19943,193.8223404255318 759.9000000000001,193.8223404255318Z" style="stroke: rgb(68, 68, 68); stroke-opacity: 1; fill: rgb(239, 85, 59); fill-opacity: 0.6; stroke-width: 0; opacity: 1;"/><path class="sankey-link" d="M759.9000000000001,445.4920212765959C946.19943,445.4920212765959 946.19943,385.15212765957466 1132.49886,385.15212765957466L1132.49886,391.37553191489377C946.19943,391.37553191489377 946.19943,451.715425531915 759.9000000000001,451.715425531915Z" style="stroke: rgb(68, 68, 68); stroke-opacity: 1; fill: rgb(239, 85, 59); fill-opacity: 0.6; stroke-width: 0; opacity: 1;"/><path class="sankey-link" d="M759.9000000000001,513.9494680851066C946.19943,513.9494680851066 946.19943,561.6957446808511 1132.49886,561.6957446808511L1132.49886,571.0308510638298C946.19943,571.0308510638298 946.19943,523.2845744680852 759.9000000000001,523.2845744680852Z" style="stroke: rgb(68, 68, 68); stroke-opacity: 1; fill: rgb(239, 85, 59); fill-opacity: 0.6; stroke-width: 0; opacity: 1;"/><path class="sankey-link" d="M759.9000000000001,116.02978723404246C946.19943,116.02978723404246 946.19943,73.88138297872342 1132.49886,73.88138297872342L1132.49886,81.66063829787237C946.19943,81.66063829787237 946.19943,123.8090425531914 759.9000000000001,123.8090425531914Z" style="stroke: rgb(68, 68, 68); stroke-opacity: 1; fill: rgb(0, 204, 150); fill-opacity: 0.6; stroke-width: 0; opacity: 1;"/><path class="sankey-link" d="M759.9000000000001,193.8223404255318C946.19943,193.8223404255318 946.19943,247.02606382978735 1132.49886,247.02606382978735L1132.49886,251.69361702127674C946.19943,251.69361702127674 946.19943,198.48989361702118 759.9000000000001,198.48989361702118Z" style="stroke: rgb(68, 68, 68); stroke-opacity: 1; fill: rgb(0, 204, 150); fill-opacity: 0.6; stroke-width: 0; opacity: 1;"/><path class="sankey-link" d="M759.9000000000001,451.71542553191506C946.19943,451.71542553191506 946.19943,391.3755319148938 1132.49886,391.3755319148938L1132.49886,392.9313829787236C946.19943,392.9313829787236 946.19943,453.27127659574484 759.9000000000001,453.27127659574484Z" style="stroke: rgb(68, 68, 68); stroke-opacity: 1; fill: rgb(0, 204, 150); fill-opacity: 0.6; stroke-width: 0; opacity: 1;"/><path class="sankey-link" d="M759.9000000000001,523.2845744680853C946.19943,523.2845744680853 946.19943,571.0308510638299 1132.49886,571.0308510638299L1132.49886,580.3659574468086C946.19943,580.3659574468086 946.19943,532.619680851064 759.9000000000001,532.619680851064Z" style="stroke: rgb(68, 68, 68); stroke-opacity: 1; fill: rgb(0, 204, 150); fill-opacity: 0.6; stroke-width: 0; opacity: 1;"/><path class="sankey-link" d="M759.9000000000001,123.80904255319139C946.19943,123.80904255319139 946.19943,81.66063829787235 1132.49886,81.66063829787235L1132.49886,83.21648936170213C946.19943,83.21648936170213 946.19943,125.36489361702117 759.9000000000001,125.36489361702117Z" style="stroke: rgb(68, 68, 68); stroke-opacity: 1; fill: rgb(254, 203, 82); fill-opacity: 0.6; stroke-width: 0; opacity: 1;"/><path class="sankey-link" d="M759.9000000000001,198.48989361702115C946.19943,198.48989361702115 946.19943,251.6936170212767 1132.49886,251.6936170212767L1132.49886,254.80531914893626C946.19943,254.80531914893626 946.19943,201.6015957446807 759.9000000000001,201.6015957446807Z" style="stroke: rgb(68, 68, 68); stroke-opacity: 1; fill: rgb(254, 203, 82); fill-opacity: 0.6; stroke-width: 0; opacity: 1;"/><path class="sankey-link" d="M759.9000000000001,453.27127659574484C946.19943,453.27127659574484 946.19943,392.9313829787236 1132.49886,392.9313829787236L1132.49886,399.1547872340427C946.19943,399.1547872340427 946.19943,459.49468085106395 759.9000000000001,459.49468085106395Z" style="stroke: rgb(68, 68, 68); stroke-opacity: 1; fill: rgb(254, 203, 82); fill-opacity: 0.6; stroke-width: 0; opacity: 1;"/><path class="sankey-link" d="M759.9000000000001,532.6196808510641C946.19943,532.6196808510641 946.19943,580.3659574468087 1132.49886,580.3659574468087L1132.49886,589.7010638297874C946.19943,589.7010638297874 946.19943,541.9547872340428 759.9000000000001,541.9547872340428Z" style="stroke: rgb(68, 68, 68); stroke-opacity: 1; fill: rgb(254, 203, 82); fill-opacity: 0.6; stroke-width: 0; opacity: 1;"/><path class="sankey-link" d="M759.9000000000001,125.3648936170212C946.19943,125.3648936170212 946.19943,83.21648936170214 1132.49886,83.21648936170214L1132.49886,89.43989361702128C946.19943,89.43989361702128 946.19943,131.58829787234035 759.9000000000001,131.58829787234035Z" style="stroke: rgb(68, 68, 68); stroke-opacity: 1; fill: rgb(255, 161, 90); fill-opacity: 0.6; stroke-width: 0; opacity: 1;"/><path class="sankey-link" d="M759.9000000000001,201.60159574468074C946.19943,201.60159574468074 946.19943,254.8053191489363 1132.49886,254.8053191489363L1132.49886,256.36117021276607C946.19943,256.36117021276607 946.19943,203.1574468085105 759.9000000000001,203.1574468085105Z" style="stroke: rgb(68, 68, 68); stroke-opacity: 1; fill: rgb(255, 161, 90); fill-opacity: 0.6; stroke-width: 0; opacity: 1;"/><path class="sankey-link" d="M759.9000000000001,459.494680851064C946.19943,459.494680851064 946.19943,399.1547872340428 1132.49886,399.1547872340428L1132.49886,400.71063829787255C946.19943,400.71063829787255 946.19943,461.0505319148938 759.9000000000001,461.0505319148938Z" style="stroke: rgb(68, 68, 68); stroke-opacity: 1; fill: rgb(255, 161, 90); fill-opacity: 0.6; stroke-width: 0; opacity: 1;"/><path class="sankey-link" d="M759.9000000000001,541.9547872340429C946.19943,541.9547872340429 946.19943,589.7010638297875 1132.49886,589.7010638297875L1132.49886,594.3686170212768C946.19943,594.3686170212768 946.19943,546.6223404255322 759.9000000000001,546.6223404255322Z" style="stroke: rgb(68, 68, 68); stroke-opacity: 1; fill: rgb(255, 161, 90); fill-opacity: 0.6; stroke-width: 0; opacity: 1;"/><path class="sankey-link" d="M759.9000000000001,131.58829787234032C946.19943,131.58829787234032 946.19943,89.4398936170213 1132.49886,89.4398936170213L1132.49886,106.55425531914896C946.19943,106.55425531914896 946.19943,148.702659574468 759.9000000000001,148.702659574468Z" style="stroke: rgb(68, 68, 68); stroke-opacity: 1; fill: rgb(171, 99, 250); fill-opacity: 0.6; stroke-width: 0; opacity: 1;"/><path class="sankey-link" d="M759.9000000000001,203.1574468085105C946.19943,203.1574468085105 946.19943,256.36117021276607 1132.49886,256.36117021276607L1132.49886,265.69627659574485C946.19943,265.69627659574485 946.19943,212.49255319148924 759.9000000000001,212.49255319148924Z" style="stroke: rgb(68, 68, 68); stroke-opacity: 1; fill: rgb(171, 99, 250); fill-opacity: 0.6; stroke-width: 0; opacity: 1;"/><path class="sankey-link" d="M759.9000000000001,461.0505319148938C946.19943,461.0505319148938 946.19943,400.71063829787255 1132.49886,400.71063829787255L1132.49886,410.0457446808513C946.19943,410.0457446808513 946.19943,470.38563829787256 759.9000000000001,470.38563829787256Z" style="stroke: rgb(68, 68, 68); stroke-opacity: 1; fill: rgb(171, 99, 250); fill-opacity: 0.6; stroke-width: 0; opacity: 1;"/><path class="sankey-link" d="M759.9000000000001,546.6223404255322C946.19943,546.6223404255322 946.19943,594.3686170212768 1132.49886,594.3686170212768L1132.49886,600.5920212765959C946.19943,600.5920212765959 946.19943,552.8457446808513 759.9000000000001,552.8457446808513Z" style="stroke: rgb(68, 68, 68); stroke-opacity: 1; fill: rgb(171, 99, 250); fill-opacity: 0.6; stroke-width: 0; opacity: 1;"/><path class="sankey-link" d="M759.9000000000001,148.702659574468C946.19943,148.702659574468 946.19943,106.55425531914895 1132.49886,106.55425531914895L1132.49886,126.78031914893617C946.19943,126.78031914893617 946.19943,168.9287234042552 759.9000000000001,168.9287234042552Z" style="stroke: rgb(68, 68, 68); stroke-opacity: 1; fill: rgb(99, 110, 250); fill-opacity: 0.6; stroke-width: 0; opacity: 1;"/><path class="sankey-link" d="M759.9000000000001,212.49255319148924C946.19943,212.49255319148924 946.19943,265.6962765957448 1132.49886,265.6962765957448L1132.49886,284.36648936170224C946.19943,284.36648936170224 946.19943,231.16276595744668 759.9000000000001,231.16276595744668Z" style="stroke: rgb(68, 68, 68); stroke-opacity: 1; fill: rgb(99, 110, 250); fill-opacity: 0.6; stroke-width: 0; opacity: 1;"/><path class="sankey-link" d="M759.9000000000001,470.3856382978725C946.19943,470.3856382978725 946.19943,410.04574468085127 1132.49886,410.04574468085127L1132.49886,447.38617021276616C946.19943,447.38617021276616 946.19943,507.7260638297874 759.9000000000001,507.7260638297874Z" style="stroke: rgb(68, 68, 68); stroke-opacity: 1; fill: rgb(99, 110, 250); fill-opacity: 0.6; stroke-width: 0; opacity: 1;"/><path class="sankey-link" d="M759.9000000000001,552.8457446808513C946.19943,552.8457446808513 946.19943,600.5920212765959 1132.49886,600.5920212765959L1132.49886,634.8207446808512C946.19943,634.8207446808512 946.19943,587.0744680851067 759.9000000000001,587.0744680851067Z" style="stroke: rgb(68, 68, 68); stroke-opacity: 1; fill: rgb(99, 110, 250); fill-opacity: 0.6; stroke-width: 0; opacity: 1;"/><path class="sankey-link" d="M759.9000000000001,168.9287234042552C946.19943,168.9287234042552 946.19943,126.78031914893619 1132.49886,126.78031914893619L1132.49886,131.44787234042556C946.19943,131.44787234042556 946.19943,173.5962765957446 759.9000000000001,173.5962765957446Z" style="stroke: rgb(68, 68, 68); stroke-opacity: 1; fill: rgb(255, 151, 255); fill-opacity: 0.6; stroke-width: 0; opacity: 1;"/><path class="sankey-link" d="M759.9000000000001,231.16276595744668C946.19943,231.16276595744668 946.19943,284.36648936170224 1132.49886,284.36648936170224L1132.49886,290.58989361702135C946.19943,290.58989361702135 946.19943,237.38617021276585 759.9000000000001,237.38617021276585Z" style="stroke: rgb(68, 68, 68); stroke-opacity: 1; fill: rgb(255, 151, 255); fill-opacity: 0.6; stroke-width: 0; opacity: 1;"/><path class="sankey-link" d="M759.9000000000001,507.7260638297874C946.19943,507.7260638297874 946.19943,447.38617021276616 1132.49886,447.38617021276616L1132.49886,452.0537234042555C946.19943,452.0537234042555 946.19943,512.3936170212768 759.9000000000001,512.3936170212768Z" style="stroke: rgb(68, 68, 68); stroke-opacity: 1; fill: rgb(255, 151, 255); fill-opacity: 0.6; stroke-width: 0; opacity: 1;"/><path class="sankey-link" d="M759.9000000000001,587.0744680851067C946.19943,587.0744680851067 946.19943,634.8207446808512 1132.49886,634.8207446808512L1132.49886,642.6000000000001C946.19943,642.6000000000001 946.19943,594.8537234042556 759.9000000000001,594.8537234042556Z" style="stroke: rgb(68, 68, 68); stroke-opacity: 1; fill: rgb(255, 151, 255); fill-opacity: 0.6; stroke-width: 0; opacity: 1;"/><path class="sankey-link" d="M759.9000000000001,173.59627659574457C946.19943,173.59627659574457 946.19943,131.44787234042556 1132.49886,131.44787234042556L1132.49886,136.11542553191495C946.19943,136.11542553191495 946.19943,178.26382978723396 759.9000000000001,178.26382978723396Z" style="stroke: rgb(68, 68, 68); stroke-opacity: 1; fill: rgb(255, 102, 146); fill-opacity: 0.6; stroke-width: 0; opacity: 1;"/><path class="sankey-link" d="M759.9000000000001,237.38617021276582C946.19943,237.38617021276582 946.19943,290.5898936170214 1132.49886,290.5898936170214L1132.49886,293.70159574468096C946.19943,293.70159574468096 946.19943,240.49787234042537 759.9000000000001,240.49787234042537Z" style="stroke: rgb(68, 68, 68); stroke-opacity: 1; fill: rgb(255, 102, 146); fill-opacity: 0.6; stroke-width: 0; opacity: 1;"/><path class="sankey-link" d="M759.9000000000001,594.8537234042556C946.19943,594.8537234042556 946.19943,642.6000000000001 1132.49886,642.6000000000001L1132.49886,651.9351063829788C946.19943,651.9351063829788 946.19943,604.1888297872342 759.9000000000001,604.1888297872342Z" style="stroke: rgb(68, 68, 68); stroke-opacity: 1; fill: rgb(255, 102, 146); fill-opacity: 0.6; stroke-width: 0; opacity: 1;"/><path class="sankey-link" d="M759.9000000000001,178.26382978723393C946.19943,178.26382978723393 946.19943,136.11542553191492 1132.49886,136.11542553191492L1132.49886,137.6712765957447C946.19943,137.6712765957447 946.19943,179.8196808510637 759.9000000000001,179.8196808510637Z" style="stroke: rgb(68, 68, 68); stroke-opacity: 1; fill: rgb(182, 232, 128); fill-opacity: 0.6; stroke-width: 0; opacity: 1;"/></g><g class="sankey-node-set" style="cursor: ns-resize;"><g class="sankey-node" transform="translate(-7.499,15.757)" style="opacity: 1;"><rect class="node-rect" width="15" height="32.672872340425556" style="stroke-width: 0.5; stroke: rgb(0, 0, 0); stroke-opacity: 1; fill: rgb(128, 128, 128); fill-opacity: 1;"/><text class="node-label" data-notex="1" x="0" y="0" text-anchor="start" transform="translate(18.25,20.536436170212777)" style="cursor: default; font-family: 'Open Sans', verdana, arial, sans-serif; font-size: 12px; fill: rgb(42, 63, 95); fill-opacity: 1; white-space: pre; text-shadow: white 1px 1px 1px, white -1px -1px 1px, white 1px -1px 1px, white -1px 1px 1px;">21271R</text></g><g class="sankey-node" transform="translate(-7.499,74.075)" style="opacity: 1;"><rect class="node-rect" width="15" height="238.04521276595753" style="stroke-width: 0.5; stroke: rgb(0, 0, 0); stroke-opacity: 1; fill: rgb(128, 128, 128); fill-opacity: 1;"/><text class="node-label" data-notex="1" x="0" y="0" text-anchor="start" transform="translate(18.25,123.22260638297877)" style="cursor: default; font-family: 'Open Sans', verdana, arial, sans-serif; font-size: 12px; fill: rgb(42, 63, 95); fill-opacity: 1; white-space: pre; text-shadow: white 1px 1px 1px, white -1px -1px 1px, white 1px -1px 1px, white -1px 1px 1px;">21272R</text></g><g class="sankey-node" transform="translate(-7.499,339.123)" style="opacity: 1;"><rect class="node-rect" width="15" height="65.34574468085066" style="stroke-width: 0.5; stroke: rgb(0, 0, 0); stroke-opacity: 1; fill: rgb(128, 128, 128); fill-opacity: 1;"/><text class="node-label" data-notex="1" x="0" y="0" text-anchor="start" transform="translate(18.25,36.87287234042533)" style="cursor: default; font-family: 'Open Sans', verdana, arial, sans-serif; font-size: 12px; fill: rgb(42, 63, 95); fill-opacity: 1; white-space: pre; text-shadow: white 1px 1px 1px, white -1px -1px 1px, white 1px -1px 1px, white -1px 1px 1px;">21965RL</text></g><g class="sankey-node" transform="translate(-7.499,426.753)" style="opacity: 1;"><rect class="node-rect" width="15" height="124.46808510638306" style="stroke-width: 0.5; stroke: rgb(0, 0, 0); stroke-opacity: 1; fill: rgb(128, 128, 128); fill-opacity: 1;"/><text class="node-label" data-notex="1" x="0" y="0" text-anchor="start" transform="translate(18.25,66.43404255319153)" style="cursor: default; font-family: 'Open Sans', verdana, arial, sans-serif; font-size: 12px; fill: rgb(42, 63, 95); fill-opacity: 1; white-space: pre; text-shadow: white 1px 1px 1px, white -1px -1px 1px, white 1px -1px 1px, white -1px 1px 1px;">22384</text></g><g class="sankey-node" transform="translate(-7.499,575.962)" style="opacity: 1;"><rect class="node-rect" width="15" height="124.46808510638311" style="stroke-width: 0.5; stroke: rgb(0, 0, 0); stroke-opacity: 1; fill: rgb(128, 128, 128); fill-opacity: 1;"/><text class="node-label" data-notex="1" x="0" y="0" text-anchor="start" transform="translate(18.25,66.43404255319156)" style="cursor: default; font-family: 'Open Sans', verdana, arial, sans-serif; font-size: 12px; fill: rgb(42, 63, 95); fill-opacity: 1; white-space: pre; text-shadow: white 1px 1px 1px, white -1px -1px 1px, white 1px -1px 1px, white -1px 1px 1px;">22670</text></g><g class="sankey-node" transform="translate(744.900,102.027)" style="opacity: 1;"><rect class="node-rect" width="15" height="138.47074468085123" style="stroke-width: 0.5; stroke: rgb(0, 0, 0); stroke-opacity: 1; fill: rgb(128, 128, 128); fill-opacity: 1;"/><text class="node-label" data-notex="1" x="0" y="0" text-anchor="start" transform="translate(18.25,73.43537234042562)" style="cursor: default; font-family: 'Open Sans', verdana, arial, sans-serif; font-size: 12px; fill: rgb(42, 63, 95); fill-opacity: 1; white-space: pre; text-shadow: white 1px 1px 1px, white -1px -1px 1px, white 1px -1px 1px, white -1px 1px 1px;">Active</text></g><g class="sankey-node" transform="translate(744.900,443.936)" style="opacity: 1;"><rect class="node-rect" width="15" height="160.25265957446777" style="stroke-width: 0.5; stroke: rgb(0, 0, 0); stroke-opacity: 1; fill: rgb(128, 128, 128); fill-opacity: 1;"/><text class="node-label" data-notex="1" x="0" y="0" text-anchor="start" transform="translate(18.25,84.32632978723389)" style="cursor: default; font-family: 'Open Sans', verdana, arial, sans-serif; font-size: 12px; fill: rgb(42, 63, 95); fill-opacity: 1; white-space: pre; text-shadow: white 1px 1px 1px, white -1px -1px 1px, white 1px -1px 1px, white -1px 1px 1px;">NonActive</text></g><g class="sankey-node" transform="translate(1132.499,59.879)" style="opacity: 1;"><rect class="node-rect" width="15" height="77.79255319148933" style="stroke-width: 0.5; stroke: rgb(0, 0, 0); stroke-opacity: 1; fill: rgb(128, 128, 128); fill-opacity: 1;"/><text class="node-label" data-notex="1" x="0" y="0" text-anchor="end" transform="translate(-3.25,43.09627659574467)" style="cursor: default; font-family: 'Open Sans', verdana, arial, sans-serif; font-size: 12px; fill: rgb(42, 63, 95); fill-opacity: 1; white-space: pre; text-shadow: white 1px 1px 1px, white -1px -1px 1px, white 1px -1px 1px, white -1px 1px 1px;">Active-activated</text></g><g class="sankey-node" transform="translate(1132.499,233.023)" style="opacity: 1;"><rect class="node-rect" width="15" height="60.67819148936158" style="stroke-width: 0.5; stroke: rgb(0, 0, 0); stroke-opacity: 1; fill: rgb(128, 128, 128); fill-opacity: 1;"/><text class="node-label" data-notex="1" x="0" y="0" text-anchor="end" transform="translate(-3.25,34.53909574468079)" style="cursor: default; font-family: 'Open Sans', verdana, arial, sans-serif; font-size: 12px; fill: rgb(42, 63, 95); fill-opacity: 1; white-space: pre; text-shadow: white 1px 1px 1px, white -1px -1px 1px, white 1px -1px 1px, white -1px 1px 1px;">Active-suppressed</text></g><g class="sankey-node" transform="translate(1132.499,383.596)" style="opacity: 1;"><rect class="node-rect" width="15" height="68.45744680851044" style="stroke-width: 0.5; stroke: rgb(0, 0, 0); stroke-opacity: 1; fill: rgb(128, 128, 128); fill-opacity: 1;"/><text class="node-label" data-notex="1" x="0" y="0" text-anchor="end" transform="translate(-3.25,38.42872340425522)" style="cursor: default; font-family: 'Open Sans', verdana, arial, sans-serif; font-size: 12px; fill: rgb(42, 63, 95); fill-opacity: 1; white-space: pre; text-shadow: white 1px 1px 1px, white -1px -1px 1px, white 1px -1px 1px, white -1px 1px 1px;">NonActive-activated</text></g><g class="sankey-node" transform="translate(1132.499,560.140)" style="opacity: 1;"><rect class="node-rect" width="15" height="91.79521276595756" style="stroke-width: 0.5; stroke: rgb(0, 0, 0); stroke-opacity: 1; fill: rgb(128, 128, 128); fill-opacity: 1;"/><text class="node-label" data-notex="1" x="0" y="0" text-anchor="end" transform="translate(-3.25,50.09760638297878)" style="cursor: default; font-family: 'Open Sans', verdana, arial, sans-serif; font-size: 12px; fill: rgb(42, 63, 95); fill-opacity: 1; white-space: pre; text-shadow: white 1px 1px 1px, white -1px -1px 1px, white 1px -1px 1px, white -1px 1px 1px;">NonActive-suppressed</text></g><g class="sankey-node" transform="translate(368.700,13.747)" style="opacity: 1;"><rect class="node-rect" width="15" height="32.67287234042544" style="stroke-width: 0.5; stroke: rgb(0, 0, 0); stroke-opacity: 1; fill: rgb(25, 211, 243); fill-opacity: 1;"/><text class="node-label" data-notex="1" x="0" y="0" text-anchor="start" transform="translate(18.25,20.53643617021272)" style="cursor: default; font-family: 'Open Sans', verdana, arial, sans-serif; font-size: 12px; fill: rgb(42, 63, 95); fill-opacity: 1; white-space: pre; text-shadow: white 1px 1px 1px, white -1px -1px 1px, white 1px -1px 1px, white -1px 1px 1px;">BLA</text></g><g class="sankey-node" transform="translate(368.700,58.268)" style="opacity: 1;"><rect class="node-rect" width="15" height="94.90691489361723" style="stroke-width: 0.5; stroke: rgb(0, 0, 0); stroke-opacity: 1; fill: rgb(239, 85, 59); fill-opacity: 1;"/><text class="node-label" data-notex="1" x="0" y="0" text-anchor="start" transform="translate(18.25,51.653457446808616)" style="cursor: default; font-family: 'Open Sans', verdana, arial, sans-serif; font-size: 12px; fill: rgb(42, 63, 95); fill-opacity: 1; white-space: pre; text-shadow: white 1px 1px 1px, white -1px -1px 1px, white 1px -1px 1px, white -1px 1px 1px;">Cla</text></g><g class="sankey-node" transform="translate(368.700,164.463)" style="opacity: 1;"><rect class="node-rect" width="15" height="60.67819148936155" style="stroke-width: 0.5; stroke: rgb(0, 0, 0); stroke-opacity: 1; fill: rgb(0, 204, 150); fill-opacity: 1;"/><text class="node-label" data-notex="1" x="0" y="0" text-anchor="start" transform="translate(18.25,34.53909574468078)" style="cursor: default; font-family: 'Open Sans', verdana, arial, sans-serif; font-size: 12px; fill: rgb(42, 63, 95); fill-opacity: 1; white-space: pre; text-shadow: white 1px 1px 1px, white -1px -1px 1px, white 1px -1px 1px, white -1px 1px 1px;">LC</text></g><g class="sankey-node" transform="translate(368.700,237.705)" style="opacity: 1;"><rect class="node-rect" width="15" height="31.117021276595523" style="stroke-width: 0.5; stroke: rgb(0, 0, 0); stroke-opacity: 1; fill: rgb(254, 203, 82); fill-opacity: 1;"/><text class="node-label" data-notex="1" x="0" y="0" text-anchor="start" transform="translate(18.25,19.75851063829776)" style="cursor: default; font-family: 'Open Sans', verdana, arial, sans-serif; font-size: 12px; fill: rgb(42, 63, 95); fill-opacity: 1; white-space: pre; text-shadow: white 1px 1px 1px, white -1px -1px 1px, white 1px -1px 1px, white -1px 1px 1px;">LHyp</text></g><g class="sankey-node" transform="translate(368.700,281.791)" style="opacity: 1;"><rect class="node-rect" width="15" height="40.45212765957433" style="stroke-width: 0.5; stroke: rgb(0, 0, 0); stroke-opacity: 1; fill: rgb(255, 161, 90); fill-opacity: 1;"/><text class="node-label" data-notex="1" x="0" y="0" text-anchor="start" transform="translate(18.25,24.426063829787164)" style="cursor: default; font-family: 'Open Sans', verdana, arial, sans-serif; font-size: 12px; fill: rgb(42, 63, 95); fill-opacity: 1; white-space: pre; text-shadow: white 1px 1px 1px, white -1px -1px 1px, white 1px -1px 1px, white -1px 1px 1px;">NAc</text></g><g class="sankey-node" transform="translate(368.700,334.154)" style="opacity: 1;"><rect class="node-rect" width="15" height="84.01595744680822" style="stroke-width: 0.5; stroke: rgb(0, 0, 0); stroke-opacity: 1; fill: rgb(171, 99, 250); fill-opacity: 1;"/><text class="node-label" data-notex="1" x="0" y="0" text-anchor="start" transform="translate(18.25,46.20797872340411)" style="cursor: default; font-family: 'Open Sans', verdana, arial, sans-serif; font-size: 12px; fill: rgb(42, 63, 95); fill-opacity: 1; white-space: pre; text-shadow: white 1px 1px 1px, white -1px -1px 1px, white 1px -1px 1px, white -1px 1px 1px;">Str</text></g><g class="sankey-node" transform="translate(368.700,427.809)" style="opacity: 1;"><rect class="node-rect" width="15" height="154.02925531914929" style="stroke-width: 0.5; stroke: rgb(0, 0, 0); stroke-opacity: 1; fill: rgb(99, 110, 250); fill-opacity: 1;"/><text class="node-label" data-notex="1" x="0" y="0" text-anchor="start" transform="translate(18.25,81.21462765957465)" style="cursor: default; font-family: 'Open Sans', verdana, arial, sans-serif; font-size: 12px; fill: rgb(42, 63, 95); fill-opacity: 1; white-space: pre; text-shadow: white 1px 1px 1px, white -1px -1px 1px, white 1px -1px 1px, white -1px 1px 1px;">VTA</text></g><g class="sankey-node" transform="translate(368.700,592.099)" style="opacity: 1;"><rect class="node-rect" width="15" height="52.89893617021289" style="stroke-width: 0.5; stroke: rgb(0, 0, 0); stroke-opacity: 1; fill: rgb(255, 151, 255); fill-opacity: 1;"/><text class="node-label" data-notex="1" x="0" y="0" text-anchor="start" transform="translate(18.25,30.649468085106445)" style="cursor: default; font-family: 'Open Sans', verdana, arial, sans-serif; font-size: 12px; fill: rgb(42, 63, 95); fill-opacity: 1; white-space: pre; text-shadow: white 1px 1px 1px, white -1px -1px 1px, white 1px -1px 1px, white -1px 1px 1px;">cPFC</text></g><g class="sankey-node" transform="translate(368.700,657.749)" style="opacity: 1;"><rect class="node-rect" width="15" height="29.561170212766" style="stroke-width: 0.5; stroke: rgb(0, 0, 0); stroke-opacity: 1; fill: rgb(255, 102, 146); fill-opacity: 1;"/><text class="node-label" data-notex="1" x="0" y="0" text-anchor="start" transform="translate(18.25,18.980585106383)" style="cursor: default; font-family: 'Open Sans', verdana, arial, sans-serif; font-size: 12px; fill: rgb(42, 63, 95); fill-opacity: 1; white-space: pre; text-shadow: white 1px 1px 1px, white -1px -1px 1px, white 1px -1px 1px, white -1px 1px 1px;">dPAG</text></g><g class="sankey-node" transform="translate(368.700,701.026)" style="opacity: 1;"><rect class="node-rect" width="15" height="4.667553191489333" style="stroke-width: 0.5; stroke: rgb(0, 0, 0); stroke-opacity: 1; fill: rgb(182, 232, 128); fill-opacity: 1;"/><text class="node-label" data-notex="1" x="0" y="0" text-anchor="start" transform="translate(18.25,6.533776595744666)" style="cursor: default; font-family: 'Open Sans', verdana, arial, sans-serif; font-size: 12px; fill: rgb(42, 63, 95); fill-opacity: 1; white-space: pre; text-shadow: white 1px 1px 1px, white -1px -1px 1px, white 1px -1px 1px, white -1px 1px 1px;">lHb</text></g></g></g><defs id="topdefs-f95103"><g class="clips"/></defs><g class="layer-above"><g class="imagelayer"/><g class="shapelayer"/></g><g class="infolayer"><g class="g-gtitle"/><g class="first-render"/></g></svg>