<svg class="main-svg" xmlns="http://www.w3.org/2000/svg" xmlns:xlink="http://www.w3.org/1999/xlink" width="1300" height="900" viewBox="0 0 1300 900" style=""><rect x="0" y="0" width="1300" height="900" style="fill: rgb(255, 255, 255); fill-opacity: 1;"/><defs id="defs-95d919"><g class="clips"/><g class="gradients"/><g class="patterns"/></defs><g class="bglayer"/><g class="layer-below"><g class="imagelayer"/><g class="shapelayer"/></g><g class="cartesianlayer"/><g class="polarlayer"/><g class="smithlayer"/><g class="ternarylayer"/><g class="geolayer"/><g class="funnelarealayer"/><g class="pielayer"/><g class="iciclelayer"/><g class="treemaplayer"/><g class="sunburstlayer"/><g class="glimages"/><g class="sankey" transform="translate(80,100)matrix(1 0 0 1 0 0)" style="box-sizing: content-box; position: absolute; left: 0px; shape-rendering: geometricprecision; pointer-events: none;"><g class="sankey-links" style="fill: none;"><path class="sankey-link" d="M7.50114,15.825465838509249C188.10057000000003,15.825465838509249 188.10057000000003,58.03199999999994 368.70000000000005,58.03199999999994L368.70000000000005,70.63199999999993C188.10057000000003,70.63199999999993 188.10057000000003,28.42546583850925 7.50114,28.42546583850925Z" style="stroke: rgb(68, 68, 68); stroke-opacity: 1; fill: rgb(99, 110, 250); fill-opacity: 0.6; stroke-width: 0; opacity: 1;"/><path class="sankey-link" d="M7.50114,28.425465838509247C188.10057000000003,28.425465838509247 188.10057000000003,162.79200000000006 368.70000000000005,162.79200000000006L368.70000000000005,168.19200000000004C188.10057000000003,168.19200000000004 188.10057000000003,33.825465838509245 7.50114,33.825465838509245Z" style="stroke: rgb(68, 68, 68); stroke-opacity: 1; fill: rgb(239, 85, 59); fill-opacity: 0.6; stroke-width: 0; opacity: 1;"/><path class="sankey-link" d="M7.50114,33.825465838509245C188.10057000000003,33.825465838509245 188.10057000000003,287.13599999999997 368.70000000000005,287.13599999999997L368.70000000000005,292.53599999999994C188.10057000000003,292.53599999999994 188.10057000000003,39.22546583850925 7.50114,39.22546583850925Z" style="stroke: rgb(68, 68, 68); stroke-opacity: 1; fill: rgb(171, 99, 250); fill-opacity: 0.6; stroke-width: 0; opacity: 1;"/><path class="sankey-link" d="M7.50114,39.225465838509244C188.10057000000003,39.225465838509244 188.10057000000003,342.072 368.70000000000005,342.072L368.70000000000005,347.472C188.10057000000003,347.472 188.10057000000003,44.62546583850925 7.50114,44.62546583850925Z" style="stroke: rgb(68, 68, 68); stroke-opacity: 1; fill: rgb(0, 204, 150); fill-opacity: 0.6; stroke-width: 0; opacity: 1;"/><path class="sankey-link" d="M7.50114,44.62546583850924C188.10057000000003,44.62546583850924 188.10057000000003,441.8640000000002 368.70000000000005,441.8640000000002L368.70000000000005,443.66400000000016C188.10057000000003,443.66400000000016 188.10057000000003,46.42546583850924 7.50114,46.42546583850924Z" style="stroke: rgb(68, 68, 68); stroke-opacity: 1; fill: rgb(255, 161, 90); fill-opacity: 0.6; stroke-width: 0; opacity: 1;"/><path class="sankey-link" d="M7.50114,72.816149068323C188.10057000000003,72.816149068323 188.10057000000003,13.751999999999938 368.70000000000005,13.751999999999938L368.70000000000005,40.75199999999994C188.10057000000003,40.75199999999994 188.10057000000003,99.816149068323 7.50114,99.816149068323Z" style="stroke: rgb(68, 68, 68); stroke-opacity: 1; fill: rgb(25, 211, 243); fill-opacity: 0.6; stroke-width: 0; opacity: 1;"/><path class="sankey-link" d="M7.50114,99.816149068323C188.10057000000003,99.816149068323 188.10057000000003,70.63199999999993 368.70000000000005,70.63199999999993L368.70000000000005,106.63199999999993C188.10057000000003,106.63199999999993 188.10057000000003,135.816149068323 7.50114,135.816149068323Z" style="stroke: rgb(68, 68, 68); stroke-opacity: 1; fill: rgb(99, 110, 250); fill-opacity: 0.6; stroke-width: 0; opacity: 1;"/><path class="sankey-link" d="M7.50114,135.816149068323C188.10057000000003,135.816149068323 188.10057000000003,168.19200000000006 368.70000000000005,168.19200000000006L368.70000000000005,207.7920000000001C188.10057000000003,207.7920000000001 188.10057000000003,175.41614906832302 7.50114,175.41614906832302Z" style="stroke: rgb(68, 68, 68); stroke-opacity: 1; fill: rgb(239, 85, 59); fill-opacity: 0.6; stroke-width: 0; opacity: 1;"/><path class="sankey-link" d="M7.50114,175.416149068323C188.10057000000003,175.416149068323 188.10057000000003,292.53599999999994 368.70000000000005,292.53599999999994L368.70000000000005,315.9359999999999C188.10057000000003,315.9359999999999 188.10057000000003,198.81614906832297 7.50114,198.81614906832297Z" style="stroke: rgb(68, 68, 68); stroke-opacity: 1; fill: rgb(171, 99, 250); fill-opacity: 0.6; stroke-width: 0; opacity: 1;"/><path class="sankey-link" d="M7.50114,198.816149068323C188.10057000000003,198.816149068323 188.10057000000003,347.472 368.70000000000005,347.472L368.70000000000005,394.27199999999993C188.10057000000003,394.27199999999993 188.10057000000003,245.616149068323 7.50114,245.616149068323Z" style="stroke: rgb(68, 68, 68); stroke-opacity: 1; fill: rgb(0, 204, 150); fill-opacity: 0.6; stroke-width: 0; opacity: 1;"/><path class="sankey-link" d="M7.50114,245.616149068323C188.10057000000003,245.616149068323 188.10057000000003,443.6640000000002 368.70000000000005,443.6640000000002L368.70000000000005,456.26400000000024C188.10057000000003,456.26400000000024 188.10057000000003,258.21614906832303 7.50114,258.21614906832303Z" style="stroke: rgb(68, 68, 68); stroke-opacity: 1; fill: rgb(255, 161, 90); fill-opacity: 0.6; stroke-width: 0; opacity: 1;"/><path class="sankey-link" d="M7.50114,258.21614906832303C188.10057000000003,258.21614906832303 188.10057000000003,592.8120000000001 368.70000000000005,592.8120000000001L368.70000000000005,614.412C188.10057000000003,614.412 188.10057000000003,279.81614906832306 7.50114,279.81614906832306Z" style="stroke: rgb(68, 68, 68); stroke-opacity: 1; fill: rgb(255, 151, 255); fill-opacity: 0.6; stroke-width: 0; opacity: 1;"/><path class="sankey-link" d="M7.50114,279.81614906832306C188.10057000000003,279.81614906832306 188.10057000000003,657.8279999999999 368.70000000000005,657.8279999999999L368.70000000000005,670.4279999999998C188.10057000000003,670.4279999999998 188.10057000000003,292.4161490683231 7.50114,292.4161490683231Z" style="stroke: rgb(68, 68, 68); stroke-opacity: 1; fill: rgb(255, 102, 146); fill-opacity: 0.6; stroke-width: 0; opacity: 1;"/><path class="sankey-link" d="M7.50114,292.4161490683231C188.10057000000003,292.4161490683231 188.10057000000003,698.5440000000001 368.70000000000005,698.5440000000001L368.70000000000005,705.7440000000001C188.10057000000003,705.7440000000001 188.10057000000003,299.6161490683231 7.50114,299.6161490683231Z" style="stroke: rgb(68, 68, 68); stroke-opacity: 1; fill: rgb(182, 232, 128); fill-opacity: 0.6; stroke-width: 0; opacity: 1;"/><path class="sankey-link" d="M7.50114,327.348447204969C188.10057000000003,327.348447204969 188.10057000000003,40.75199999999994 368.70000000000005,40.75199999999994L368.70000000000005,46.151999999999944C188.10057000000003,46.151999999999944 188.10057000000003,332.74844720496895 7.50114,332.74844720496895Z" style="stroke: rgb(68, 68, 68); stroke-opacity: 1; fill: rgb(25, 211, 243); fill-opacity: 0.6; stroke-width: 0; opacity: 1;"/><path class="sankey-link" d="M7.50114,332.74844720496895C188.10057000000003,332.74844720496895 188.10057000000003,106.63199999999993 368.70000000000005,106.63199999999993L368.70000000000005,122.83199999999992C188.10057000000003,122.83199999999992 188.10057000000003,348.948447204969 7.50114,348.948447204969Z" style="stroke: rgb(68, 68, 68); stroke-opacity: 1; fill: rgb(99, 110, 250); fill-opacity: 0.6; stroke-width: 0; opacity: 1;"/><path class="sankey-link" d="M7.50114,348.94844720496894C188.10057000000003,348.94844720496894 188.10057000000003,207.79200000000006 368.70000000000005,207.79200000000006L368.70000000000005,213.19200000000004C188.10057000000003,213.19200000000004 188.10057000000003,354.3484472049689 7.50114,354.3484472049689Z" style="stroke: rgb(68, 68, 68); stroke-opacity: 1; fill: rgb(239, 85, 59); fill-opacity: 0.6; stroke-width: 0; opacity: 1;"/><path class="sankey-link" d="M7.50114,354.3484472049689C188.10057000000003,354.3484472049689 188.10057000000003,315.9359999999999 368.70000000000005,315.9359999999999L368.70000000000005,326.7359999999999C188.10057000000003,326.7359999999999 188.10057000000003,365.1484472049689 7.50114,365.1484472049689Z" style="stroke: rgb(68, 68, 68); stroke-opacity: 1; fill: rgb(171, 99, 250); fill-opacity: 0.6; stroke-width: 0; opacity: 1;"/><path class="sankey-link" d="M7.50114,365.14844720496893C188.10057000000003,365.14844720496893 188.10057000000003,394.272 368.70000000000005,394.272L368.70000000000005,399.67199999999997C188.10057000000003,399.67199999999997 188.10057000000003,370.5484472049689 7.50114,370.5484472049689Z" style="stroke: rgb(68, 68, 68); stroke-opacity: 1; fill: rgb(0, 204, 150); fill-opacity: 0.6; stroke-width: 0; opacity: 1;"/><path class="sankey-link" d="M7.50114,370.5484472049689C188.10057000000003,370.5484472049689 188.10057000000003,456.26400000000024 368.70000000000005,456.26400000000024L368.70000000000005,459.86400000000026C188.10057000000003,459.86400000000026 188.10057000000003,374.14844720496893 7.50114,374.14844720496893Z" style="stroke: rgb(68, 68, 68); stroke-opacity: 1; fill: rgb(255, 161, 90); fill-opacity: 0.6; stroke-width: 0; opacity: 1;"/><path class="sankey-link" d="M7.50114,374.14844720496893C188.10057000000003,374.14844720496893 188.10057000000003,614.4120000000001 368.70000000000005,614.4120000000001L368.70000000000005,619.8120000000002C188.10057000000003,619.8120000000002 188.10057000000003,379.5484472049689 7.50114,379.5484472049689Z" style="stroke: rgb(68, 68, 68); stroke-opacity: 1; fill: rgb(255, 151, 255); fill-opacity: 0.6; stroke-width: 0; opacity: 1;"/><path class="sankey-link" d="M7.50114,379.5484472049689C188.10057000000003,379.5484472049689 188.10057000000003,670.4279999999999 368.70000000000005,670.4279999999999L368.70000000000005,677.6279999999999C188.10057000000003,677.6279999999999 188.10057000000003,386.74844720496895 7.50114,386.74844720496895Z" style="stroke: rgb(68, 68, 68); stroke-opacity: 1; fill: rgb(255, 102, 146); fill-opacity: 0.6; stroke-width: 0; opacity: 1;"/><path class="sankey-link" d="M7.50114,410.036645962733C188.10057000000003,410.036645962733 188.10057000000003,122.83199999999992 368.70000000000005,122.83199999999992L368.70000000000005,137.2319999999999C188.10057000000003,137.2319999999999 188.10057000000003,424.436645962733 7.50114,424.436645962733Z" style="stroke: rgb(68, 68, 68); stroke-opacity: 1; fill: rgb(99, 110, 250); fill-opacity: 0.6; stroke-width: 0; opacity: 1;"/><path class="sankey-link" d="M7.50114,424.436645962733C188.10057000000003,424.436645962733 188.10057000000003,213.19200000000006 368.70000000000005,213.19200000000006L368.70000000000005,222.19200000000006C188.10057000000003,222.19200000000006 188.10057000000003,433.436645962733 7.50114,433.436645962733Z" style="stroke: rgb(68, 68, 68); stroke-opacity: 1; fill: rgb(239, 85, 59); fill-opacity: 0.6; stroke-width: 0; opacity: 1;"/><path class="sankey-link" d="M7.50114,433.436645962733C188.10057000000003,433.436645962733 188.10057000000003,243.6120000000002 368.70000000000005,243.6120000000002L368.70000000000005,258.01200000000017C188.10057000000003,258.01200000000017 188.10057000000003,447.836645962733 7.50114,447.836645962733Z" style="stroke: rgb(68, 68, 68); stroke-opacity: 1; fill: rgb(254, 203, 82); fill-opacity: 0.6; stroke-width: 0; opacity: 1;"/><path class="sankey-link" d="M7.50114,447.836645962733C188.10057000000003,447.836645962733 188.10057000000003,399.67199999999997 368.70000000000005,399.67199999999997L368.70000000000005,415.872C188.10057000000003,415.872 188.10057000000003,464.036645962733 7.50114,464.036645962733Z" style="stroke: rgb(68, 68, 68); stroke-opacity: 1; fill: rgb(0, 204, 150); fill-opacity: 0.6; stroke-width: 0; opacity: 1;"/><path class="sankey-link" d="M7.50114,464.03664596273296C188.10057000000003,464.03664596273296 188.10057000000003,459.86400000000026 368.70000000000005,459.86400000000026L368.70000000000005,521.0640000000003C188.10057000000003,521.0640000000003 188.10057000000003,525.236645962733 7.50114,525.236645962733Z" style="stroke: rgb(68, 68, 68); stroke-opacity: 1; fill: rgb(255, 161, 90); fill-opacity: 0.6; stroke-width: 0; opacity: 1;"/><path class="sankey-link" d="M7.50114,525.236645962733C188.10057000000003,525.236645962733 188.10057000000003,619.8120000000001 368.70000000000005,619.8120000000001L368.70000000000005,632.412C188.10057000000003,632.412 188.10057000000003,537.8366459627329 7.50114,537.8366459627329Z" style="stroke: rgb(68, 68, 68); stroke-opacity: 1; fill: rgb(255, 151, 255); fill-opacity: 0.6; stroke-width: 0; opacity: 1;"/><path class="sankey-link" d="M7.50114,537.836645962733C188.10057000000003,537.836645962733 188.10057000000003,677.6279999999999 368.70000000000005,677.6279999999999L368.70000000000005,681.2279999999998C188.10057000000003,681.2279999999998 188.10057000000003,541.4366459627329 7.50114,541.4366459627329Z" style="stroke: rgb(68, 68, 68); stroke-opacity: 1; fill: rgb(255, 102, 146); fill-opacity: 0.6; stroke-width: 0; opacity: 1;"/><path class="sankey-link" d="M7.50114,568.0788819875775C188.10057000000003,568.0788819875775 188.10057000000003,137.23199999999994 368.70000000000005,137.23199999999994L368.70000000000005,151.63199999999992C188.10057000000003,151.63199999999992 188.10057000000003,582.4788819875776 7.50114,582.4788819875776Z" style="stroke: rgb(68, 68, 68); stroke-opacity: 1; fill: rgb(99, 110, 250); fill-opacity: 0.6; stroke-width: 0; opacity: 1;"/><path class="sankey-link" d="M7.50114,582.4788819875774C188.10057000000003,582.4788819875774 188.10057000000003,222.19200000000006 368.70000000000005,222.19200000000006L368.70000000000005,231.19200000000006C188.10057000000003,231.19200000000006 188.10057000000003,591.4788819875774 7.50114,591.4788819875774Z" style="stroke: rgb(68, 68, 68); stroke-opacity: 1; fill: rgb(239, 85, 59); fill-opacity: 0.6; stroke-width: 0; opacity: 1;"/><path class="sankey-link" d="M7.50114,591.4788819875774C188.10057000000003,591.4788819875774 188.10057000000003,258.01200000000017 368.70000000000005,258.01200000000017L368.70000000000005,272.41200000000015C188.10057000000003,272.41200000000015 188.10057000000003,605.8788819875775 7.50114,605.8788819875775Z" style="stroke: rgb(68, 68, 68); stroke-opacity: 1; fill: rgb(254, 203, 82); fill-opacity: 0.6; stroke-width: 0; opacity: 1;"/><path class="sankey-link" d="M7.50114,605.8788819875774C188.10057000000003,605.8788819875774 188.10057000000003,415.87199999999996 368.70000000000005,415.87199999999996L368.70000000000005,432.072C188.10057000000003,432.072 188.10057000000003,622.0788819875775 7.50114,622.0788819875775Z" style="stroke: rgb(68, 68, 68); stroke-opacity: 1; fill: rgb(0, 204, 150); fill-opacity: 0.6; stroke-width: 0; opacity: 1;"/><path class="sankey-link" d="M7.50114,622.0788819875775C188.10057000000003,622.0788819875775 188.10057000000003,521.0640000000003 368.70000000000005,521.0640000000003L368.70000000000005,582.2640000000004C188.10057000000003,582.2640000000004 188.10057000000003,683.2788819875775 7.50114,683.2788819875775Z" style="stroke: rgb(68, 68, 68); stroke-opacity: 1; fill: rgb(255, 161, 90); fill-opacity: 0.6; stroke-width: 0; opacity: 1;"/><path class="sankey-link" d="M7.50114,683.2788819875775C188.10057000000003,683.2788819875775 188.10057000000003,632.4120000000001 368.70000000000005,632.4120000000001L368.70000000000005,645.0120000000001C188.10057000000003,645.0120000000001 188.10057000000003,695.8788819875774 7.50114,695.8788819875774Z" style="stroke: rgb(68, 68, 68); stroke-opacity: 1; fill: rgb(255, 151, 255); fill-opacity: 0.6; stroke-width: 0; opacity: 1;"/><path class="sankey-link" d="M7.50114,695.8788819875775C188.10057000000003,695.8788819875775 188.10057000000003,681.228 368.70000000000005,681.228L368.70000000000005,684.8279999999999C188.10057000000003,684.8279999999999 188.10057000000003,699.4788819875774 7.50114,699.4788819875774Z" style="stroke: rgb(68, 68, 68); stroke-opacity: 1; fill: rgb(255, 102, 146); fill-opacity: 0.6; stroke-width: 0; opacity: 1;"/><path class="sankey-link" d="M383.70000000000005,13.751999999999938C564.3000000000001,13.751999999999938 564.3000000000001,35.74020618556702 744.9000000000001,35.74020618556702L744.9000000000001,48.34020618556701C564.3000000000001,48.34020618556701 564.3000000000001,26.35199999999994 383.70000000000005,26.35199999999994Z" style="stroke: rgb(68, 68, 68); stroke-opacity: 1; fill: rgb(25, 211, 243); fill-opacity: 0.6; stroke-width: 0; opacity: 1;"/><path class="sankey-link" d="M383.70000000000005,26.35199999999994C564.3000000000001,26.35199999999994 564.3000000000001,395.480412371134 744.9000000000001,395.480412371134L744.9000000000001,406.28041237113393C564.3000000000001,406.28041237113393 564.3000000000001,37.15199999999994 383.70000000000005,37.15199999999994Z" style="stroke: rgb(68, 68, 68); stroke-opacity: 1; fill: rgb(25, 211, 243); fill-opacity: 0.6; stroke-width: 0; opacity: 1;"/><path class="sankey-link" d="M383.70000000000005,37.151999999999944C564.3000000000001,37.151999999999944 564.3000000000001,612.9835051546394 744.9000000000001,612.9835051546394L744.9000000000001,616.5835051546393C564.3000000000001,616.5835051546393 564.3000000000001,40.75199999999994 383.70000000000005,40.75199999999994Z" style="stroke: rgb(68, 68, 68); stroke-opacity: 1; fill: rgb(25, 211, 243); fill-opacity: 0.6; stroke-width: 0; opacity: 1;"/><path class="sankey-link" d="M383.70000000000005,58.03199999999993C564.3000000000001,58.03199999999993 564.3000000000001,48.34020618556702 744.9000000000001,48.34020618556702L744.9000000000001,73.54020618556702C564.3000000000001,73.54020618556702 564.3000000000001,83.23199999999993 383.70000000000005,83.23199999999993Z" style="stroke: rgb(68, 68, 68); stroke-opacity: 1; fill: rgb(99, 110, 250); fill-opacity: 0.6; stroke-width: 0; opacity: 1;"/><path class="sankey-link" d="M383.70000000000005,83.23199999999994C564.3000000000001,83.23199999999994 564.3000000000001,261.9371134020619 744.9000000000001,261.9371134020619L744.9000000000001,278.13711340206197C564.3000000000001,278.13711340206197 564.3000000000001,99.43199999999993 383.70000000000005,99.43199999999993Z" style="stroke: rgb(68, 68, 68); stroke-opacity: 1; fill: rgb(99, 110, 250); fill-opacity: 0.6; stroke-width: 0; opacity: 1;"/><path class="sankey-link" d="M383.70000000000005,99.43199999999995C564.3000000000001,99.43199999999995 564.3000000000001,406.280412371134 744.9000000000001,406.280412371134L744.9000000000001,431.48041237113404C564.3000000000001,431.48041237113404 564.3000000000001,124.63199999999993 383.70000000000005,124.63199999999993Z" style="stroke: rgb(68, 68, 68); stroke-opacity: 1; fill: rgb(99, 110, 250); fill-opacity: 0.6; stroke-width: 0; opacity: 1;"/><path class="sankey-link" d="M383.70000000000005,124.63199999999995C564.3000000000001,124.63199999999995 564.3000000000001,616.5835051546394 744.9000000000001,616.5835051546394L744.9000000000001,625.5835051546394C564.3000000000001,625.5835051546394 564.3000000000001,133.63199999999995 383.70000000000005,133.63199999999995Z" style="stroke: rgb(68, 68, 68); stroke-opacity: 1; fill: rgb(99, 110, 250); fill-opacity: 0.6; stroke-width: 0; opacity: 1;"/><path class="sankey-link" d="M383.70000000000005,162.79200000000006C564.3000000000001,162.79200000000006 564.3000000000001,73.54020618556702 744.9000000000001,73.54020618556702L744.9000000000001,100.54020618556702C564.3000000000001,100.54020618556702 564.3000000000001,189.79200000000006 383.70000000000005,189.79200000000006Z" style="stroke: rgb(68, 68, 68); stroke-opacity: 1; fill: rgb(239, 85, 59); fill-opacity: 0.6; stroke-width: 0; opacity: 1;"/><path class="sankey-link" d="M383.70000000000005,189.79200000000006C564.3000000000001,189.79200000000006 564.3000000000001,278.1371134020619 744.9000000000001,278.1371134020619L744.9000000000001,287.1371134020619C564.3000000000001,287.1371134020619 564.3000000000001,198.79200000000006 383.70000000000005,198.79200000000006Z" style="stroke: rgb(68, 68, 68); stroke-opacity: 1; fill: rgb(239, 85, 59); fill-opacity: 0.6; stroke-width: 0; opacity: 1;"/><path class="sankey-link" d="M383.70000000000005,198.79200000000006C564.3000000000001,198.79200000000006 564.3000000000001,431.480412371134 744.9000000000001,431.480412371134L744.9000000000001,451.28041237113393C564.3000000000001,451.28041237113393 564.3000000000001,218.59200000000007 383.70000000000005,218.59200000000007Z" style="stroke: rgb(68, 68, 68); stroke-opacity: 1; fill: rgb(239, 85, 59); fill-opacity: 0.6; stroke-width: 0; opacity: 1;"/><path class="sankey-link" d="M383.70000000000005,218.59200000000007C564.3000000000001,218.59200000000007 564.3000000000001,625.5835051546394 744.9000000000001,625.5835051546394L744.9000000000001,629.1835051546393C564.3000000000001,629.1835051546393 564.3000000000001,222.1920000000001 383.70000000000005,222.1920000000001Z" style="stroke: rgb(68, 68, 68); stroke-opacity: 1; fill: rgb(239, 85, 59); fill-opacity: 0.6; stroke-width: 0; opacity: 1;"/><path class="sankey-link" d="M383.70000000000005,243.6120000000002C564.3000000000001,243.6120000000002 564.3000000000001,100.54020618556702 744.9000000000001,100.54020618556702L744.9000000000001,111.34020618556703C564.3000000000001,111.34020618556703 564.3000000000001,254.4120000000002 383.70000000000005,254.4120000000002Z" style="stroke: rgb(68, 68, 68); stroke-opacity: 1; fill: rgb(254, 203, 82); fill-opacity: 0.6; stroke-width: 0; opacity: 1;"/><path class="sankey-link" d="M383.70000000000005,254.4120000000002C564.3000000000001,254.4120000000002 564.3000000000001,287.1371134020619 744.9000000000001,287.1371134020619L744.9000000000001,292.5371134020619C564.3000000000001,292.5371134020619 564.3000000000001,259.8120000000002 383.70000000000005,259.8120000000002Z" style="stroke: rgb(68, 68, 68); stroke-opacity: 1; fill: rgb(254, 203, 82); fill-opacity: 0.6; stroke-width: 0; opacity: 1;"/><path class="sankey-link" d="M383.70000000000005,259.8120000000002C564.3000000000001,259.8120000000002 564.3000000000001,451.280412371134 744.9000000000001,451.280412371134L744.9000000000001,456.68041237113397C564.3000000000001,456.68041237113397 564.3000000000001,265.21200000000016 383.70000000000005,265.21200000000016Z" style="stroke: rgb(68, 68, 68); stroke-opacity: 1; fill: rgb(254, 203, 82); fill-opacity: 0.6; stroke-width: 0; opacity: 1;"/><path class="sankey-link" d="M383.70000000000005,265.21200000000016C564.3000000000001,265.21200000000016 564.3000000000001,629.1835051546394 744.9000000000001,629.1835051546394L744.9000000000001,638.1835051546394C564.3000000000001,638.1835051546394 564.3000000000001,274.21200000000016 383.70000000000005,274.21200000000016Z" style="stroke: rgb(68, 68, 68); stroke-opacity: 1; fill: rgb(254, 203, 82); fill-opacity: 0.6; stroke-width: 0; opacity: 1;"/><path class="sankey-link" d="M383.70000000000005,287.13599999999997C564.3000000000001,287.13599999999997 564.3000000000001,111.34020618556701 744.9000000000001,111.34020618556701L744.9000000000001,129.340206185567C564.3000000000001,129.340206185567 564.3000000000001,305.13599999999997 383.70000000000005,305.13599999999997Z" style="stroke: rgb(68, 68, 68); stroke-opacity: 1; fill: rgb(171, 99, 250); fill-opacity: 0.6; stroke-width: 0; opacity: 1;"/><path class="sankey-link" d="M383.70000000000005,305.13599999999997C564.3000000000001,305.13599999999997 564.3000000000001,292.5371134020619 744.9000000000001,292.5371134020619L744.9000000000001,297.93711340206187C564.3000000000001,297.93711340206187 564.3000000000001,310.53599999999994 383.70000000000005,310.53599999999994Z" style="stroke: rgb(68, 68, 68); stroke-opacity: 1; fill: rgb(171, 99, 250); fill-opacity: 0.6; stroke-width: 0; opacity: 1;"/><path class="sankey-link" d="M383.70000000000005,310.53599999999994C564.3000000000001,310.53599999999994 564.3000000000001,456.68041237113397 744.9000000000001,456.68041237113397L744.9000000000001,469.280412371134C564.3000000000001,469.280412371134 564.3000000000001,323.13599999999997 383.70000000000005,323.13599999999997Z" style="stroke: rgb(68, 68, 68); stroke-opacity: 1; fill: rgb(171, 99, 250); fill-opacity: 0.6; stroke-width: 0; opacity: 1;"/><path class="sankey-link" d="M383.70000000000005,323.13599999999997C564.3000000000001,323.13599999999997 564.3000000000001,638.1835051546394 744.9000000000001,638.1835051546394L744.9000000000001,645.3835051546395C564.3000000000001,645.3835051546395 564.3000000000001,330.336 383.70000000000005,330.336Z" style="stroke: rgb(68, 68, 68); stroke-opacity: 1; fill: rgb(171, 99, 250); fill-opacity: 0.6; stroke-width: 0; opacity: 1;"/><path class="sankey-link" d="M383.70000000000005,342.072C564.3000000000001,342.072 564.3000000000001,129.340206185567 744.9000000000001,129.340206185567L744.9000000000001,159.94020618556704C564.3000000000001,159.94020618556704 564.3000000000001,372.672 383.70000000000005,372.672Z" style="stroke: rgb(68, 68, 68); stroke-opacity: 1; fill: rgb(0, 204, 150); fill-opacity: 0.6; stroke-width: 0; opacity: 1;"/><path class="sankey-link" d="M383.70000000000005,372.672C564.3000000000001,372.672 564.3000000000001,297.93711340206187 744.9000000000001,297.93711340206187L744.9000000000001,305.1371134020619C564.3000000000001,305.1371134020619 564.3000000000001,379.87200000000007 383.70000000000005,379.87200000000007Z" style="stroke: rgb(68, 68, 68); stroke-opacity: 1; fill: rgb(0, 204, 150); fill-opacity: 0.6; stroke-width: 0; opacity: 1;"/><path class="sankey-link" d="M383.70000000000005,379.872C564.3000000000001,379.872 564.3000000000001,469.280412371134 744.9000000000001,469.280412371134L744.9000000000001,507.08041237113395C564.3000000000001,507.08041237113395 564.3000000000001,417.67199999999997 383.70000000000005,417.67199999999997Z" style="stroke: rgb(68, 68, 68); stroke-opacity: 1; fill: rgb(0, 204, 150); fill-opacity: 0.6; stroke-width: 0; opacity: 1;"/><path class="sankey-link" d="M383.70000000000005,417.672C564.3000000000001,417.672 564.3000000000001,645.3835051546395 744.9000000000001,645.3835051546395L744.9000000000001,654.3835051546395C564.3000000000001,654.3835051546395 564.3000000000001,426.672 383.70000000000005,426.672Z" style="stroke: rgb(68, 68, 68); stroke-opacity: 1; fill: rgb(0, 204, 150); fill-opacity: 0.6; stroke-width: 0; opacity: 1;"/><path class="sankey-link" d="M383.70000000000005,441.8640000000002C564.3000000000001,441.8640000000002 564.3000000000001,159.940206185567 744.9000000000001,159.940206185567L744.9000000000001,199.54020618556703C564.3000000000001,199.54020618556703 564.3000000000001,481.4640000000002 383.70000000000005,481.4640000000002Z" style="stroke: rgb(68, 68, 68); stroke-opacity: 1; fill: rgb(255, 161, 90); fill-opacity: 0.6; stroke-width: 0; opacity: 1;"/><path class="sankey-link" d="M383.70000000000005,481.4640000000002C564.3000000000001,481.4640000000002 564.3000000000001,305.13711340206186 744.9000000000001,305.13711340206186L744.9000000000001,332.13711340206186C564.3000000000001,332.13711340206186 564.3000000000001,508.4640000000002 383.70000000000005,508.4640000000002Z" style="stroke: rgb(68, 68, 68); stroke-opacity: 1; fill: rgb(255, 161, 90); fill-opacity: 0.6; stroke-width: 0; opacity: 1;"/><path class="sankey-link" d="M383.70000000000005,508.4640000000002C564.3000000000001,508.4640000000002 564.3000000000001,507.08041237113395 744.9000000000001,507.08041237113395L744.9000000000001,546.6804123711339C564.3000000000001,546.6804123711339 564.3000000000001,548.0640000000002 383.70000000000005,548.0640000000002Z" style="stroke: rgb(68, 68, 68); stroke-opacity: 1; fill: rgb(255, 161, 90); fill-opacity: 0.6; stroke-width: 0; opacity: 1;"/><path class="sankey-link" d="M383.70000000000005,548.0640000000002C564.3000000000001,548.0640000000002 564.3000000000001,654.3835051546395 744.9000000000001,654.3835051546395L744.9000000000001,686.7835051546396C564.3000000000001,686.7835051546396 564.3000000000001,580.4640000000003 383.70000000000005,580.4640000000003Z" style="stroke: rgb(68, 68, 68); stroke-opacity: 1; fill: rgb(255, 161, 90); fill-opacity: 0.6; stroke-width: 0; opacity: 1;"/><path class="sankey-link" d="M383.70000000000005,592.8120000000001C564.3000000000001,592.8120000000001 564.3000000000001,199.540206185567 744.9000000000001,199.540206185567L744.9000000000001,212.14020618556702C564.3000000000001,212.14020618556702 564.3000000000001,605.412 383.70000000000005,605.412Z" style="stroke: rgb(68, 68, 68); stroke-opacity: 1; fill: rgb(255, 151, 255); fill-opacity: 0.6; stroke-width: 0; opacity: 1;"/><path class="sankey-link" d="M383.70000000000005,605.4120000000001C564.3000000000001,605.4120000000001 564.3000000000001,332.13711340206186 744.9000000000001,332.13711340206186L744.9000000000001,342.9371134020618C564.3000000000001,342.9371134020618 564.3000000000001,616.2120000000001 383.70000000000005,616.2120000000001Z" style="stroke: rgb(68, 68, 68); stroke-opacity: 1; fill: rgb(255, 151, 255); fill-opacity: 0.6; stroke-width: 0; opacity: 1;"/><path class="sankey-link" d="M383.70000000000005,616.2120000000001C564.3000000000001,616.2120000000001 564.3000000000001,546.680412371134 744.9000000000001,546.680412371134L744.9000000000001,557.480412371134C564.3000000000001,557.480412371134 564.3000000000001,627.0120000000001 383.70000000000005,627.0120000000001Z" style="stroke: rgb(68, 68, 68); stroke-opacity: 1; fill: rgb(255, 151, 255); fill-opacity: 0.6; stroke-width: 0; opacity: 1;"/><path class="sankey-link" d="M383.70000000000005,627.0120000000001C564.3000000000001,627.0120000000001 564.3000000000001,686.7835051546394 744.9000000000001,686.7835051546394L744.9000000000001,690.3835051546394C564.3000000000001,690.3835051546394 564.3000000000001,630.612 383.70000000000005,630.612Z" style="stroke: rgb(68, 68, 68); stroke-opacity: 1; fill: rgb(255, 151, 255); fill-opacity: 0.6; stroke-width: 0; opacity: 1;"/><path class="sankey-link" d="M383.70000000000005,657.8279999999999C564.3000000000001,657.8279999999999 564.3000000000001,212.140206185567 744.9000000000001,212.140206185567L744.9000000000001,213.940206185567C564.3000000000001,213.940206185567 564.3000000000001,659.6279999999998 383.70000000000005,659.6279999999998Z" style="stroke: rgb(68, 68, 68); stroke-opacity: 1; fill: rgb(255, 102, 146); fill-opacity: 0.6; stroke-width: 0; opacity: 1;"/><path class="sankey-link" d="M383.70000000000005,659.6279999999998C564.3000000000001,659.6279999999998 564.3000000000001,342.93711340206187 744.9000000000001,342.93711340206187L744.9000000000001,350.1371134020619C564.3000000000001,350.1371134020619 564.3000000000001,666.8279999999999 383.70000000000005,666.8279999999999Z" style="stroke: rgb(68, 68, 68); stroke-opacity: 1; fill: rgb(255, 102, 146); fill-opacity: 0.6; stroke-width: 0; opacity: 1;"/><path class="sankey-link" d="M383.70000000000005,666.8279999999999C564.3000000000001,666.8279999999999 564.3000000000001,557.480412371134 744.9000000000001,557.480412371134L744.9000000000001,564.680412371134C564.3000000000001,564.680412371134 564.3000000000001,674.0279999999999 383.70000000000005,674.0279999999999Z" style="stroke: rgb(68, 68, 68); stroke-opacity: 1; fill: rgb(255, 102, 146); fill-opacity: 0.6; stroke-width: 0; opacity: 1;"/><path class="sankey-link" d="M383.70000000000005,674.0279999999999C564.3000000000001,674.0279999999999 564.3000000000001,690.3835051546395 744.9000000000001,690.3835051546395L744.9000000000001,695.7835051546396C564.3000000000001,695.7835051546396 564.3000000000001,679.428 383.70000000000005,679.428Z" style="stroke: rgb(68, 68, 68); stroke-opacity: 1; fill: rgb(255, 102, 146); fill-opacity: 0.6; stroke-width: 0; opacity: 1;"/><path class="sankey-link" d="M383.70000000000005,698.5440000000001C564.3000000000001,698.5440000000001 564.3000000000001,213.940206185567 744.9000000000001,213.940206185567L744.9000000000001,215.74020618556702C564.3000000000001,215.74020618556702 564.3000000000001,700.344 383.70000000000005,700.344Z" style="stroke: rgb(68, 68, 68); stroke-opacity: 1; fill: rgb(182, 232, 128); fill-opacity: 0.6; stroke-width: 0; opacity: 1;"/><path class="sankey-link" d="M383.70000000000005,700.344C564.3000000000001,700.344 564.3000000000001,564.680412371134 744.9000000000001,564.680412371134L744.9000000000001,568.2804123711339C564.3000000000001,568.2804123711339 564.3000000000001,703.944 383.70000000000005,703.944Z" style="stroke: rgb(68, 68, 68); stroke-opacity: 1; fill: rgb(182, 232, 128); fill-opacity: 0.6; stroke-width: 0; opacity: 1;"/><path class="sankey-link" d="M759.9000000000001,35.74020618556702C946.19943,35.74020618556702 946.19943,19.66391752577323 1132.49886,19.66391752577323L1132.49886,21.463917525773226C946.19943,21.463917525773226 946.19943,37.540206185567015 759.9000000000001,37.540206185567015Z" style="stroke: rgb(68, 68, 68); stroke-opacity: 1; fill: rgb(25, 211, 243); fill-opacity: 0.6; stroke-width: 0; opacity: 1;"/><path class="sankey-link" d="M759.9000000000001,118.54020618556702C946.19943,118.54020618556702 946.19943,128.3072164948454 1132.49886,128.3072164948454L1132.49886,139.1072164948454C946.19943,139.1072164948454 946.19943,129.340206185567 759.9000000000001,129.340206185567Z" style="stroke: rgb(68, 68, 68); stroke-opacity: 1; fill: rgb(25, 211, 243); fill-opacity: 0.6; stroke-width: 0; opacity: 1;"/><path class="sankey-link" d="M759.9000000000001,395.480412371134C946.19943,395.480412371134 946.19943,380.25154639175275 1132.49886,380.25154639175275L1132.49886,389.25154639175275C946.19943,389.25154639175275 946.19943,404.480412371134 759.9000000000001,404.480412371134Z" style="stroke: rgb(68, 68, 68); stroke-opacity: 1; fill: rgb(25, 211, 243); fill-opacity: 0.6; stroke-width: 0; opacity: 1;"/><path class="sankey-link" d="M759.9000000000001,489.080412371134C946.19943,489.080412371134 946.19943,499.2371134020618 1132.49886,499.2371134020618L1132.49886,501.0371134020618C946.19943,501.0371134020618 946.19943,490.88041237113396 759.9000000000001,490.88041237113396Z" style="stroke: rgb(68, 68, 68); stroke-opacity: 1; fill: rgb(25, 211, 243); fill-opacity: 0.6; stroke-width: 0; opacity: 1;"/><path class="sankey-link" d="M759.9000000000001,612.9835051546394C946.19943,612.9835051546394 946.19943,600.3896907216496 1132.49886,600.3896907216496L1132.49886,602.1896907216495C946.19943,602.1896907216495 946.19943,614.7835051546393 759.9000000000001,614.7835051546393Z" style="stroke: rgb(68, 68, 68); stroke-opacity: 1; fill: rgb(25, 211, 243); fill-opacity: 0.6; stroke-width: 0; opacity: 1;"/><path class="sankey-link" d="M759.9000000000001,652.5835051546393C946.19943,652.5835051546393 946.19943,659.6536082474228 1132.49886,659.6536082474228L1132.49886,661.4536082474227C946.19943,661.4536082474227 946.19943,654.3835051546392 759.9000000000001,654.3835051546392Z" style="stroke: rgb(68, 68, 68); stroke-opacity: 1; fill: rgb(25, 211, 243); fill-opacity: 0.6; stroke-width: 0; opacity: 1;"/><path class="sankey-link" d="M759.9000000000001,37.540206185567015C946.19943,37.540206185567015 946.19943,21.46391752577323 1132.49886,21.46391752577323L1132.49886,34.06391752577323C946.19943,34.06391752577323 946.19943,50.14020618556701 759.9000000000001,50.14020618556701Z" style="stroke: rgb(68, 68, 68); stroke-opacity: 1; fill: rgb(99, 110, 250); fill-opacity: 0.6; stroke-width: 0; opacity: 1;"/><path class="sankey-link" d="M759.9000000000001,129.340206185567C946.19943,129.340206185567 946.19943,139.1072164948454 1132.49886,139.1072164948454L1132.49886,151.70721649484543C946.19943,151.70721649484543 946.19943,141.94020618556704 759.9000000000001,141.94020618556704Z" style="stroke: rgb(68, 68, 68); stroke-opacity: 1; fill: rgb(99, 110, 250); fill-opacity: 0.6; stroke-width: 0; opacity: 1;"/><path class="sankey-link" d="M759.9000000000001,261.9371134020619C946.19943,261.9371134020619 946.19943,249.4051546391753 1132.49886,249.4051546391753L1132.49886,260.2051546391753C946.19943,260.2051546391753 946.19943,272.7371134020619 759.9000000000001,272.7371134020619Z" style="stroke: rgb(68, 68, 68); stroke-opacity: 1; fill: rgb(99, 110, 250); fill-opacity: 0.6; stroke-width: 0; opacity: 1;"/><path class="sankey-link" d="M759.9000000000001,314.13711340206197C946.19943,314.13711340206197 946.19943,321.6123711340207 1132.49886,321.6123711340207L1132.49886,327.01237113402067C946.19943,327.01237113402067 946.19943,319.53711340206195 759.9000000000001,319.53711340206195Z" style="stroke: rgb(68, 68, 68); stroke-opacity: 1; fill: rgb(99, 110, 250); fill-opacity: 0.6; stroke-width: 0; opacity: 1;"/><path class="sankey-link" d="M759.9000000000001,404.480412371134C946.19943,404.480412371134 946.19943,389.25154639175275 1132.49886,389.25154639175275L1132.49886,407.25154639175275C946.19943,407.25154639175275 946.19943,422.480412371134 759.9000000000001,422.480412371134Z" style="stroke: rgb(68, 68, 68); stroke-opacity: 1; fill: rgb(99, 110, 250); fill-opacity: 0.6; stroke-width: 0; opacity: 1;"/><path class="sankey-link" d="M759.9000000000001,490.880412371134C946.19943,490.880412371134 946.19943,501.03711340206183 1132.49886,501.03711340206183L1132.49886,508.2371134020619C946.19943,508.2371134020619 946.19943,498.08041237113406 759.9000000000001,498.08041237113406Z" style="stroke: rgb(68, 68, 68); stroke-opacity: 1; fill: rgb(99, 110, 250); fill-opacity: 0.6; stroke-width: 0; opacity: 1;"/><path class="sankey-link" d="M759.9000000000001,614.7835051546393C946.19943,614.7835051546393 946.19943,602.1896907216495 1132.49886,602.1896907216495L1132.49886,605.7896907216494C946.19943,605.7896907216494 946.19943,618.3835051546392 759.9000000000001,618.3835051546392Z" style="stroke: rgb(68, 68, 68); stroke-opacity: 1; fill: rgb(99, 110, 250); fill-opacity: 0.6; stroke-width: 0; opacity: 1;"/><path class="sankey-link" d="M759.9000000000001,654.3835051546392C946.19943,654.3835051546392 946.19943,661.4536082474227 1132.49886,661.4536082474227L1132.49886,666.8536082474228C946.19943,666.8536082474228 946.19943,659.7835051546393 759.9000000000001,659.7835051546393Z" style="stroke: rgb(68, 68, 68); stroke-opacity: 1; fill: rgb(99, 110, 250); fill-opacity: 0.6; stroke-width: 0; opacity: 1;"/><path class="sankey-link" d="M759.9000000000001,50.14020618556702C946.19943,50.14020618556702 946.19943,34.06391752577323 1132.49886,34.06391752577323L1132.49886,41.26391752577323C946.19943,41.26391752577323 946.19943,57.34020618556702 759.9000000000001,57.34020618556702Z" style="stroke: rgb(68, 68, 68); stroke-opacity: 1; fill: rgb(239, 85, 59); fill-opacity: 0.6; stroke-width: 0; opacity: 1;"/><path class="sankey-link" d="M759.9000000000001,141.940206185567C946.19943,141.940206185567 946.19943,151.7072164948454 1132.49886,151.7072164948454L1132.49886,171.5072164948454C946.19943,171.5072164948454 946.19943,161.74020618556702 759.9000000000001,161.74020618556702Z" style="stroke: rgb(68, 68, 68); stroke-opacity: 1; fill: rgb(239, 85, 59); fill-opacity: 0.6; stroke-width: 0; opacity: 1;"/><path class="sankey-link" d="M759.9000000000001,272.73711340206194C946.19943,272.73711340206194 946.19943,260.2051546391753 1132.49886,260.2051546391753L1132.49886,263.8051546391753C946.19943,263.8051546391753 946.19943,276.33711340206196 759.9000000000001,276.33711340206196Z" style="stroke: rgb(68, 68, 68); stroke-opacity: 1; fill: rgb(239, 85, 59); fill-opacity: 0.6; stroke-width: 0; opacity: 1;"/><path class="sankey-link" d="M759.9000000000001,319.53711340206195C946.19943,319.53711340206195 946.19943,327.01237113402067 1132.49886,327.01237113402067L1132.49886,332.41237113402065C946.19943,332.41237113402065 946.19943,324.9371134020619 759.9000000000001,324.9371134020619Z" style="stroke: rgb(68, 68, 68); stroke-opacity: 1; fill: rgb(239, 85, 59); fill-opacity: 0.6; stroke-width: 0; opacity: 1;"/><path class="sankey-link" d="M759.9000000000001,422.480412371134C946.19943,422.480412371134 946.19943,407.25154639175275 1132.49886,407.25154639175275L1132.49886,419.8515463917528C946.19943,419.8515463917528 946.19943,435.080412371134 759.9000000000001,435.080412371134Z" style="stroke: rgb(68, 68, 68); stroke-opacity: 1; fill: rgb(239, 85, 59); fill-opacity: 0.6; stroke-width: 0; opacity: 1;"/><path class="sankey-link" d="M759.9000000000001,498.080412371134C946.19943,498.080412371134 946.19943,508.2371134020618 1132.49886,508.2371134020618L1132.49886,515.4371134020619C946.19943,515.4371134020619 946.19943,505.28041237113405 759.9000000000001,505.28041237113405Z" style="stroke: rgb(68, 68, 68); stroke-opacity: 1; fill: rgb(239, 85, 59); fill-opacity: 0.6; stroke-width: 0; opacity: 1;"/><path class="sankey-link" d="M759.9000000000001,618.3835051546394C946.19943,618.3835051546394 946.19943,605.7896907216495 1132.49886,605.7896907216495L1132.49886,607.5896907216495C946.19943,607.5896907216495 946.19943,620.1835051546393 759.9000000000001,620.1835051546393Z" style="stroke: rgb(68, 68, 68); stroke-opacity: 1; fill: rgb(239, 85, 59); fill-opacity: 0.6; stroke-width: 0; opacity: 1;"/><path class="sankey-link" d="M759.9000000000001,659.7835051546392C946.19943,659.7835051546392 946.19943,666.8536082474227 1132.49886,666.8536082474227L1132.49886,668.6536082474227C946.19943,668.6536082474227 946.19943,661.5835051546392 759.9000000000001,661.5835051546392Z" style="stroke: rgb(68, 68, 68); stroke-opacity: 1; fill: rgb(239, 85, 59); fill-opacity: 0.6; stroke-width: 0; opacity: 1;"/><path class="sankey-link" d="M759.9000000000001,57.34020618556702C946.19943,57.34020618556702 946.19943,41.26391752577323 1132.49886,41.26391752577323L1132.49886,50.26391752577323C946.19943,50.26391752577323 946.19943,66.34020618556701 759.9000000000001,66.34020618556701Z" style="stroke: rgb(68, 68, 68); stroke-opacity: 1; fill: rgb(254, 203, 82); fill-opacity: 0.6; stroke-width: 0; opacity: 1;"/><path class="sankey-link" d="M759.9000000000001,161.74020618556702C946.19943,161.74020618556702 946.19943,171.5072164948454 1132.49886,171.5072164948454L1132.49886,173.30721649484542C946.19943,173.30721649484542 946.19943,163.54020618556703 759.9000000000001,163.54020618556703Z" style="stroke: rgb(68, 68, 68); stroke-opacity: 1; fill: rgb(254, 203, 82); fill-opacity: 0.6; stroke-width: 0; opacity: 1;"/><path class="sankey-link" d="M759.9000000000001,276.33711340206196C946.19943,276.33711340206196 946.19943,263.8051546391753 1132.49886,263.8051546391753L1132.49886,267.40515463917535C946.19943,267.40515463917535 946.19943,279.937113402062 759.9000000000001,279.937113402062Z" style="stroke: rgb(68, 68, 68); stroke-opacity: 1; fill: rgb(254, 203, 82); fill-opacity: 0.6; stroke-width: 0; opacity: 1;"/><path class="sankey-link" d="M759.9000000000001,324.9371134020619C946.19943,324.9371134020619 946.19943,332.41237113402065 1132.49886,332.41237113402065L1132.49886,334.2123711340206C946.19943,334.2123711340206 946.19943,326.7371134020619 759.9000000000001,326.7371134020619Z" style="stroke: rgb(68, 68, 68); stroke-opacity: 1; fill: rgb(254, 203, 82); fill-opacity: 0.6; stroke-width: 0; opacity: 1;"/><path class="sankey-link" d="M759.9000000000001,435.080412371134C946.19943,435.080412371134 946.19943,419.8515463917528 1132.49886,419.8515463917528L1132.49886,425.25154639175275C946.19943,425.25154639175275 946.19943,440.480412371134 759.9000000000001,440.480412371134Z" style="stroke: rgb(68, 68, 68); stroke-opacity: 1; fill: rgb(254, 203, 82); fill-opacity: 0.6; stroke-width: 0; opacity: 1;"/><path class="sankey-link" d="M759.9000000000001,620.1835051546393C946.19943,620.1835051546393 946.19943,607.5896907216495 1132.49886,607.5896907216495L1132.49886,611.1896907216494C946.19943,611.1896907216494 946.19943,623.7835051546392 759.9000000000001,623.7835051546392Z" style="stroke: rgb(68, 68, 68); stroke-opacity: 1; fill: rgb(254, 203, 82); fill-opacity: 0.6; stroke-width: 0; opacity: 1;"/><path class="sankey-link" d="M759.9000000000001,661.5835051546392C946.19943,661.5835051546392 946.19943,668.6536082474227 1132.49886,668.6536082474227L1132.49886,674.0536082474227C946.19943,674.0536082474227 946.19943,666.9835051546393 759.9000000000001,666.9835051546393Z" style="stroke: rgb(68, 68, 68); stroke-opacity: 1; fill: rgb(254, 203, 82); fill-opacity: 0.6; stroke-width: 0; opacity: 1;"/><path class="sankey-link" d="M759.9000000000001,66.34020618556701C946.19943,66.34020618556701 946.19943,50.26391752577323 1132.49886,50.26391752577323L1132.49886,59.26391752577323C946.19943,59.26391752577323 946.19943,75.34020618556701 759.9000000000001,75.34020618556701Z" style="stroke: rgb(68, 68, 68); stroke-opacity: 1; fill: rgb(171, 99, 250); fill-opacity: 0.6; stroke-width: 0; opacity: 1;"/><path class="sankey-link" d="M759.9000000000001,163.54020618556703C946.19943,163.54020618556703 946.19943,173.30721649484542 1132.49886,173.30721649484542L1132.49886,182.30721649484542C946.19943,182.30721649484542 946.19943,172.54020618556703 759.9000000000001,172.54020618556703Z" style="stroke: rgb(68, 68, 68); stroke-opacity: 1; fill: rgb(171, 99, 250); fill-opacity: 0.6; stroke-width: 0; opacity: 1;"/><path class="sankey-link" d="M759.9000000000001,279.937113402062C946.19943,279.937113402062 946.19943,267.40515463917535 1132.49886,267.40515463917535L1132.49886,269.2051546391753C946.19943,269.2051546391753 946.19943,281.73711340206194 759.9000000000001,281.73711340206194Z" style="stroke: rgb(68, 68, 68); stroke-opacity: 1; fill: rgb(171, 99, 250); fill-opacity: 0.6; stroke-width: 0; opacity: 1;"/><path class="sankey-link" d="M759.9000000000001,326.73711340206194C946.19943,326.73711340206194 946.19943,334.21237113402066 1132.49886,334.21237113402066L1132.49886,337.8123711340207C946.19943,337.8123711340207 946.19943,330.33711340206196 759.9000000000001,330.33711340206196Z" style="stroke: rgb(68, 68, 68); stroke-opacity: 1; fill: rgb(171, 99, 250); fill-opacity: 0.6; stroke-width: 0; opacity: 1;"/><path class="sankey-link" d="M759.9000000000001,440.480412371134C946.19943,440.480412371134 946.19943,425.25154639175275 1132.49886,425.25154639175275L1132.49886,434.25154639175275C946.19943,434.25154639175275 946.19943,449.480412371134 759.9000000000001,449.480412371134Z" style="stroke: rgb(68, 68, 68); stroke-opacity: 1; fill: rgb(171, 99, 250); fill-opacity: 0.6; stroke-width: 0; opacity: 1;"/><path class="sankey-link" d="M759.9000000000001,505.280412371134C946.19943,505.280412371134 946.19943,515.4371134020619 1132.49886,515.4371134020619L1132.49886,519.0371134020618C946.19943,519.0371134020618 946.19943,508.880412371134 759.9000000000001,508.880412371134Z" style="stroke: rgb(68, 68, 68); stroke-opacity: 1; fill: rgb(171, 99, 250); fill-opacity: 0.6; stroke-width: 0; opacity: 1;"/><path class="sankey-link" d="M759.9000000000001,623.7835051546393C946.19943,623.7835051546393 946.19943,611.1896907216495 1132.49886,611.1896907216495L1132.49886,616.5896907216496C946.19943,616.5896907216496 946.19943,629.1835051546394 759.9000000000001,629.1835051546394Z" style="stroke: rgb(68, 68, 68); stroke-opacity: 1; fill: rgb(171, 99, 250); fill-opacity: 0.6; stroke-width: 0; opacity: 1;"/><path class="sankey-link" d="M759.9000000000001,666.9835051546391C946.19943,666.9835051546391 946.19943,674.0536082474226 1132.49886,674.0536082474226L1132.49886,675.8536082474226C946.19943,675.8536082474226 946.19943,668.7835051546391 759.9000000000001,668.7835051546391Z" style="stroke: rgb(68, 68, 68); stroke-opacity: 1; fill: rgb(171, 99, 250); fill-opacity: 0.6; stroke-width: 0; opacity: 1;"/><path class="sankey-link" d="M759.9000000000001,75.34020618556701C946.19943,75.34020618556701 946.19943,59.26391752577323 1132.49886,59.26391752577323L1132.49886,75.46391752577323C946.19943,75.46391752577323 946.19943,91.540206185567 759.9000000000001,91.540206185567Z" style="stroke: rgb(68, 68, 68); stroke-opacity: 1; fill: rgb(0, 204, 150); fill-opacity: 0.6; stroke-width: 0; opacity: 1;"/><path class="sankey-link" d="M759.9000000000001,172.54020618556703C946.19943,172.54020618556703 946.19943,182.30721649484542 1132.49886,182.30721649484542L1132.49886,196.7072164948454C946.19943,196.7072164948454 946.19943,186.940206185567 759.9000000000001,186.940206185567Z" style="stroke: rgb(68, 68, 68); stroke-opacity: 1; fill: rgb(0, 204, 150); fill-opacity: 0.6; stroke-width: 0; opacity: 1;"/><path class="sankey-link" d="M759.9000000000001,281.737113402062C946.19943,281.737113402062 946.19943,269.20515463917536 1132.49886,269.20515463917536L1132.49886,274.60515463917534C946.19943,274.60515463917534 946.19943,287.13711340206197 759.9000000000001,287.13711340206197Z" style="stroke: rgb(68, 68, 68); stroke-opacity: 1; fill: rgb(0, 204, 150); fill-opacity: 0.6; stroke-width: 0; opacity: 1;"/><path class="sankey-link" d="M759.9000000000001,330.33711340206196C946.19943,330.33711340206196 946.19943,337.8123711340207 1132.49886,337.8123711340207L1132.49886,339.61237113402063C946.19943,339.61237113402063 946.19943,332.1371134020619 759.9000000000001,332.1371134020619Z" style="stroke: rgb(68, 68, 68); stroke-opacity: 1; fill: rgb(0, 204, 150); fill-opacity: 0.6; stroke-width: 0; opacity: 1;"/><path class="sankey-link" d="M759.9000000000001,449.480412371134C946.19943,449.480412371134 946.19943,434.25154639175275 1132.49886,434.25154639175275L1132.49886,454.0515463917527C946.19943,454.0515463917527 946.19943,469.28041237113393 759.9000000000001,469.28041237113393Z" style="stroke: rgb(68, 68, 68); stroke-opacity: 1; fill: rgb(0, 204, 150); fill-opacity: 0.6; stroke-width: 0; opacity: 1;"/><path class="sankey-link" d="M759.9000000000001,508.88041237113407C946.19943,508.88041237113407 946.19943,519.0371134020619 1132.49886,519.0371134020619L1132.49886,537.0371134020619C946.19943,537.0371134020619 946.19943,526.8804123711341 759.9000000000001,526.8804123711341Z" style="stroke: rgb(68, 68, 68); stroke-opacity: 1; fill: rgb(0, 204, 150); fill-opacity: 0.6; stroke-width: 0; opacity: 1;"/><path class="sankey-link" d="M759.9000000000001,629.1835051546393C946.19943,629.1835051546393 946.19943,616.5896907216495 1132.49886,616.5896907216495L1132.49886,623.7896907216495C946.19943,623.7896907216495 946.19943,636.3835051546394 759.9000000000001,636.3835051546394Z" style="stroke: rgb(68, 68, 68); stroke-opacity: 1; fill: rgb(0, 204, 150); fill-opacity: 0.6; stroke-width: 0; opacity: 1;"/><path class="sankey-link" d="M759.9000000000001,668.7835051546391C946.19943,668.7835051546391 946.19943,675.8536082474226 1132.49886,675.8536082474226L1132.49886,677.6536082474225C946.19943,677.6536082474225 946.19943,670.583505154639 759.9000000000001,670.583505154639Z" style="stroke: rgb(68, 68, 68); stroke-opacity: 1; fill: rgb(0, 204, 150); fill-opacity: 0.6; stroke-width: 0; opacity: 1;"/><path class="sankey-link" d="M759.9000000000001,91.54020618556702C946.19943,91.54020618556702 946.19943,75.46391752577323 1132.49886,75.46391752577323L1132.49886,95.26391752577324C946.19943,95.26391752577324 946.19943,111.34020618556703 759.9000000000001,111.34020618556703Z" style="stroke: rgb(68, 68, 68); stroke-opacity: 1; fill: rgb(255, 161, 90); fill-opacity: 0.6; stroke-width: 0; opacity: 1;"/><path class="sankey-link" d="M759.9000000000001,186.94020618556704C946.19943,186.94020618556704 946.19943,196.70721649484543 1132.49886,196.70721649484543L1132.49886,216.50721649484544C946.19943,216.50721649484544 946.19943,206.74020618556705 759.9000000000001,206.74020618556705Z" style="stroke: rgb(68, 68, 68); stroke-opacity: 1; fill: rgb(255, 161, 90); fill-opacity: 0.6; stroke-width: 0; opacity: 1;"/><path class="sankey-link" d="M759.9000000000001,287.13711340206197C946.19943,287.13711340206197 946.19943,274.60515463917534 1132.49886,274.60515463917534L1132.49886,292.60515463917534C946.19943,292.60515463917534 946.19943,305.13711340206197 759.9000000000001,305.13711340206197Z" style="stroke: rgb(68, 68, 68); stroke-opacity: 1; fill: rgb(255, 161, 90); fill-opacity: 0.6; stroke-width: 0; opacity: 1;"/><path class="sankey-link" d="M759.9000000000001,332.13711340206197C946.19943,332.13711340206197 946.19943,339.6123711340207 1132.49886,339.6123711340207L1132.49886,348.6123711340207C946.19943,348.6123711340207 946.19943,341.13711340206197 759.9000000000001,341.13711340206197Z" style="stroke: rgb(68, 68, 68); stroke-opacity: 1; fill: rgb(255, 161, 90); fill-opacity: 0.6; stroke-width: 0; opacity: 1;"/><path class="sankey-link" d="M759.9000000000001,469.280412371134C946.19943,469.280412371134 946.19943,454.05154639175277 1132.49886,454.05154639175277L1132.49886,466.6515463917528C946.19943,466.6515463917528 946.19943,481.880412371134 759.9000000000001,481.880412371134Z" style="stroke: rgb(68, 68, 68); stroke-opacity: 1; fill: rgb(255, 161, 90); fill-opacity: 0.6; stroke-width: 0; opacity: 1;"/><path class="sankey-link" d="M759.9000000000001,526.8804123711341C946.19943,526.8804123711341 946.19943,537.0371134020619 1132.49886,537.0371134020619L1132.49886,564.0371134020619C946.19943,564.0371134020619 946.19943,553.8804123711341 759.9000000000001,553.8804123711341Z" style="stroke: rgb(68, 68, 68); stroke-opacity: 1; fill: rgb(255, 161, 90); fill-opacity: 0.6; stroke-width: 0; opacity: 1;"/><path class="sankey-link" d="M759.9000000000001,636.3835051546394C946.19943,636.3835051546394 946.19943,623.7896907216495 1132.49886,623.7896907216495L1132.49886,634.5896907216495C946.19943,634.5896907216495 946.19943,647.1835051546393 759.9000000000001,647.1835051546393Z" style="stroke: rgb(68, 68, 68); stroke-opacity: 1; fill: rgb(255, 161, 90); fill-opacity: 0.6; stroke-width: 0; opacity: 1;"/><path class="sankey-link" d="M759.9000000000001,670.583505154639C946.19943,670.583505154639 946.19943,677.6536082474225 1132.49886,677.6536082474225L1132.49886,699.2536082474224C946.19943,699.2536082474224 946.19943,692.183505154639 759.9000000000001,692.183505154639Z" style="stroke: rgb(68, 68, 68); stroke-opacity: 1; fill: rgb(255, 161, 90); fill-opacity: 0.6; stroke-width: 0; opacity: 1;"/><path class="sankey-link" d="M759.9000000000001,111.34020618556701C946.19943,111.34020618556701 946.19943,95.26391752577322 1132.49886,95.26391752577322L1132.49886,100.66391752577323C946.19943,100.66391752577323 946.19943,116.74020618556702 759.9000000000001,116.74020618556702Z" style="stroke: rgb(68, 68, 68); stroke-opacity: 1; fill: rgb(255, 151, 255); fill-opacity: 0.6; stroke-width: 0; opacity: 1;"/><path class="sankey-link" d="M759.9000000000001,206.74020618556705C946.19943,206.74020618556705 946.19943,216.50721649484544 1132.49886,216.50721649484544L1132.49886,223.70721649484543C946.19943,223.70721649484543 946.19943,213.94020618556704 759.9000000000001,213.94020618556704Z" style="stroke: rgb(68, 68, 68); stroke-opacity: 1; fill: rgb(255, 151, 255); fill-opacity: 0.6; stroke-width: 0; opacity: 1;"/><path class="sankey-link" d="M759.9000000000001,305.13711340206197C946.19943,305.13711340206197 946.19943,292.60515463917534 1132.49886,292.60515463917534L1132.49886,298.0051546391753C946.19943,298.0051546391753 946.19943,310.53711340206195 759.9000000000001,310.53711340206195Z" style="stroke: rgb(68, 68, 68); stroke-opacity: 1; fill: rgb(255, 151, 255); fill-opacity: 0.6; stroke-width: 0; opacity: 1;"/><path class="sankey-link" d="M759.9000000000001,341.13711340206197C946.19943,341.13711340206197 946.19943,348.6123711340207 1132.49886,348.6123711340207L1132.49886,354.01237113402067C946.19943,354.01237113402067 946.19943,346.53711340206195 759.9000000000001,346.53711340206195Z" style="stroke: rgb(68, 68, 68); stroke-opacity: 1; fill: rgb(255, 151, 255); fill-opacity: 0.6; stroke-width: 0; opacity: 1;"/><path class="sankey-link" d="M759.9000000000001,481.880412371134C946.19943,481.880412371134 946.19943,466.6515463917528 1132.49886,466.6515463917528L1132.49886,472.05154639175277C946.19943,472.05154639175277 946.19943,487.280412371134 759.9000000000001,487.280412371134Z" style="stroke: rgb(68, 68, 68); stroke-opacity: 1; fill: rgb(255, 151, 255); fill-opacity: 0.6; stroke-width: 0; opacity: 1;"/><path class="sankey-link" d="M759.9000000000001,553.8804123711341C946.19943,553.8804123711341 946.19943,564.0371134020619 1132.49886,564.0371134020619L1132.49886,569.437113402062C946.19943,569.437113402062 946.19943,559.2804123711342 759.9000000000001,559.2804123711342Z" style="stroke: rgb(68, 68, 68); stroke-opacity: 1; fill: rgb(255, 151, 255); fill-opacity: 0.6; stroke-width: 0; opacity: 1;"/><path class="sankey-link" d="M759.9000000000001,647.1835051546393C946.19943,647.1835051546393 946.19943,634.5896907216495 1132.49886,634.5896907216495L1132.49886,638.1896907216494C946.19943,638.1896907216494 946.19943,650.7835051546392 759.9000000000001,650.7835051546392Z" style="stroke: rgb(68, 68, 68); stroke-opacity: 1; fill: rgb(255, 151, 255); fill-opacity: 0.6; stroke-width: 0; opacity: 1;"/><path class="sankey-link" d="M759.9000000000001,213.94020618556704C946.19943,213.94020618556704 946.19943,223.70721649484543 1132.49886,223.70721649484543L1132.49886,225.50721649484544C946.19943,225.50721649484544 946.19943,215.74020618556705 759.9000000000001,215.74020618556705Z" style="stroke: rgb(68, 68, 68); stroke-opacity: 1; fill: rgb(255, 102, 146); fill-opacity: 0.6; stroke-width: 0; opacity: 1;"/><path class="sankey-link" d="M759.9000000000001,310.53711340206195C946.19943,310.53711340206195 946.19943,298.0051546391753 1132.49886,298.0051546391753L1132.49886,301.60515463917534C946.19943,301.60515463917534 946.19943,314.13711340206197 759.9000000000001,314.13711340206197Z" style="stroke: rgb(68, 68, 68); stroke-opacity: 1; fill: rgb(255, 102, 146); fill-opacity: 0.6; stroke-width: 0; opacity: 1;"/><path class="sankey-link" d="M759.9000000000001,346.53711340206195C946.19943,346.53711340206195 946.19943,354.01237113402067 1132.49886,354.01237113402067L1132.49886,357.6123711340207C946.19943,357.6123711340207 946.19943,350.13711340206197 759.9000000000001,350.13711340206197Z" style="stroke: rgb(68, 68, 68); stroke-opacity: 1; fill: rgb(255, 102, 146); fill-opacity: 0.6; stroke-width: 0; opacity: 1;"/><path class="sankey-link" d="M759.9000000000001,487.280412371134C946.19943,487.280412371134 946.19943,472.05154639175277 1132.49886,472.05154639175277L1132.49886,473.8515463917527C946.19943,473.8515463917527 946.19943,489.08041237113395 759.9000000000001,489.08041237113395Z" style="stroke: rgb(68, 68, 68); stroke-opacity: 1; fill: rgb(255, 102, 146); fill-opacity: 0.6; stroke-width: 0; opacity: 1;"/><path class="sankey-link" d="M759.9000000000001,559.280412371134C946.19943,559.280412371134 946.19943,569.4371134020619 1132.49886,569.4371134020619L1132.49886,574.837113402062C946.19943,574.837113402062 946.19943,564.6804123711341 759.9000000000001,564.6804123711341Z" style="stroke: rgb(68, 68, 68); stroke-opacity: 1; fill: rgb(255, 102, 146); fill-opacity: 0.6; stroke-width: 0; opacity: 1;"/><path class="sankey-link" d="M759.9000000000001,650.7835051546393C946.19943,650.7835051546393 946.19943,638.1896907216495 1132.49886,638.1896907216495L1132.49886,639.9896907216495C946.19943,639.9896907216495 946.19943,652.5835051546393 759.9000000000001,652.5835051546393Z" style="stroke: rgb(68, 68, 68); stroke-opacity: 1; fill: rgb(255, 102, 146); fill-opacity: 0.6; stroke-width: 0; opacity: 1;"/><path class="sankey-link" d="M759.9000000000001,692.1835051546391C946.19943,692.1835051546391 946.19943,699.2536082474226 1132.49886,699.2536082474226L1132.49886,702.8536082474225C946.19943,702.8536082474225 946.19943,695.783505154639 759.9000000000001,695.783505154639Z" style="stroke: rgb(68, 68, 68); stroke-opacity: 1; fill: rgb(255, 102, 146); fill-opacity: 0.6; stroke-width: 0; opacity: 1;"/><path class="sankey-link" d="M759.9000000000001,116.74020618556702C946.19943,116.74020618556702 946.19943,100.66391752577323 1132.49886,100.66391752577323L1132.49886,102.46391752577324C946.19943,102.46391752577324 946.19943,118.54020618556703 759.9000000000001,118.54020618556703Z" style="stroke: rgb(68, 68, 68); stroke-opacity: 1; fill: rgb(182, 232, 128); fill-opacity: 0.6; stroke-width: 0; opacity: 1;"/><path class="sankey-link" d="M759.9000000000001,564.680412371134C946.19943,564.680412371134 946.19943,574.8371134020618 1132.49886,574.8371134020618L1132.49886,578.4371134020618C946.19943,578.4371134020618 946.19943,568.2804123711339 759.9000000000001,568.2804123711339Z" style="stroke: rgb(68, 68, 68); stroke-opacity: 1; fill: rgb(182, 232, 128); fill-opacity: 0.6; stroke-width: 0; opacity: 1;"/></g><g class="sankey-node-set" style="cursor: ns-resize;"><g class="sankey-node" transform="translate(-7.499,15.825)" style="opacity: 1;"><rect class="node-rect" width="15" height="30.600000000000133" style="stroke-width: 0.5; stroke: rgb(0, 0, 0); stroke-opacity: 1; fill: rgb(128, 128, 128); fill-opacity: 1;"/><text class="node-label" data-notex="1" x="0" y="0" text-anchor="start" transform="translate(18.25,19.500000000000064)" style="cursor: default; font-family: 'Open Sans', verdana, arial, sans-serif; font-size: 12px; fill: rgb(42, 63, 95); fill-opacity: 1; white-space: pre; text-shadow: white 1px 1px 1px, white -1px -1px 1px, white 1px -1px 1px, white -1px 1px 1px;">21271R</text></g><g class="sankey-node" transform="translate(-7.499,72.816)" style="opacity: 1;"><rect class="node-rect" width="15" height="226.8" style="stroke-width: 0.5; stroke: rgb(0, 0, 0); stroke-opacity: 1; fill: rgb(128, 128, 128); fill-opacity: 1;"/><text class="node-label" data-notex="1" x="0" y="0" text-anchor="start" transform="translate(18.25,117.60000000000001)" style="cursor: default; font-family: 'Open Sans', verdana, arial, sans-serif; font-size: 12px; fill: rgb(42, 63, 95); fill-opacity: 1; white-space: pre; text-shadow: white 1px 1px 1px, white -1px -1px 1px, white 1px -1px 1px, white -1px 1px 1px;">21272R</text></g><g class="sankey-node" transform="translate(-7.499,327.348)" style="opacity: 1;"><rect class="node-rect" width="15" height="59.39999999999998" style="stroke-width: 0.5; stroke: rgb(0, 0, 0); stroke-opacity: 1; fill: rgb(128, 128, 128); fill-opacity: 1;"/><text class="node-label" data-notex="1" x="0" y="0" text-anchor="start" transform="translate(18.25,33.89999999999999)" style="cursor: default; font-family: 'Open Sans', verdana, arial, sans-serif; font-size: 12px; fill: rgb(42, 63, 95); fill-opacity: 1; white-space: pre; text-shadow: white 1px 1px 1px, white -1px -1px 1px, white 1px -1px 1px, white -1px 1px 1px;">21965RL</text></g><g class="sankey-node" transform="translate(-7.499,410.037)" style="opacity: 1;"><rect class="node-rect" width="15" height="131.39999999999998" style="stroke-width: 0.5; stroke: rgb(0, 0, 0); stroke-opacity: 1; fill: rgb(128, 128, 128); fill-opacity: 1;"/><text class="node-label" data-notex="1" x="0" y="0" text-anchor="start" transform="translate(18.25,69.89999999999999)" style="cursor: default; font-family: 'Open Sans', verdana, arial, sans-serif; font-size: 12px; fill: rgb(42, 63, 95); fill-opacity: 1; white-space: pre; text-shadow: white 1px 1px 1px, white -1px -1px 1px, white 1px -1px 1px, white -1px 1px 1px;">22384</text></g><g class="sankey-node" transform="translate(-7.499,568.079)" style="opacity: 1;"><rect class="node-rect" width="15" height="131.40000000000032" style="stroke-width: 0.5; stroke: rgb(0, 0, 0); stroke-opacity: 1; fill: rgb(128, 128, 128); fill-opacity: 1;"/><text class="node-label" data-notex="1" x="0" y="0" text-anchor="start" transform="translate(18.25,69.90000000000016)" style="cursor: default; font-family: 'Open Sans', verdana, arial, sans-serif; font-size: 12px; fill: rgb(42, 63, 95); fill-opacity: 1; white-space: pre; text-shadow: white 1px 1px 1px, white -1px -1px 1px, white 1px -1px 1px, white -1px 1px 1px;">22670</text></g><g class="sankey-node" transform="translate(744.900,35.740)" style="opacity: 1;"><rect class="node-rect" width="15" height="179.99999999999997" style="stroke-width: 0.5; stroke: rgb(0, 0, 0); stroke-opacity: 1; fill: rgb(128, 128, 128); fill-opacity: 1;"/><text class="node-label" data-notex="1" x="0" y="0" text-anchor="start" transform="translate(18.25,94.19999999999999)" style="cursor: default; font-family: 'Open Sans', verdana, arial, sans-serif; font-size: 12px; fill: rgb(42, 63, 95); fill-opacity: 1; white-space: pre; text-shadow: white 1px 1px 1px, white -1px -1px 1px, white 1px -1px 1px, white -1px 1px 1px;">dig</text></g><g class="sankey-node" transform="translate(744.900,261.937)" style="opacity: 1;"><rect class="node-rect" width="15" height="88.19999999999993" style="stroke-width: 0.5; stroke: rgb(0, 0, 0); stroke-opacity: 1; fill: rgb(128, 128, 128); fill-opacity: 1;"/><text class="node-label" data-notex="1" x="0" y="0" text-anchor="start" transform="translate(18.25,48.29999999999997)" style="cursor: default; font-family: 'Open Sans', verdana, arial, sans-serif; font-size: 12px; fill: rgb(42, 63, 95); fill-opacity: 1; white-space: pre; text-shadow: white 1px 1px 1px, white -1px -1px 1px, white 1px -1px 1px, white -1px 1px 1px;">groom</text></g><g class="sankey-node" transform="translate(744.900,395.480)" style="opacity: 1;"><rect class="node-rect" width="15" height="172.80000000000018" style="stroke-width: 0.5; stroke: rgb(0, 0, 0); stroke-opacity: 1; fill: rgb(128, 128, 128); fill-opacity: 1;"/><text class="node-label" data-notex="1" x="0" y="0" text-anchor="start" transform="translate(18.25,90.6000000000001)" style="cursor: default; font-family: 'Open Sans', verdana, arial, sans-serif; font-size: 12px; fill: rgb(42, 63, 95); fill-opacity: 1; white-space: pre; text-shadow: white 1px 1px 1px, white -1px -1px 1px, white 1px -1px 1px, white -1px 1px 1px;">move</text></g><g class="sankey-node" transform="translate(744.900,612.984)" style="opacity: 1;"><rect class="node-rect" width="15" height="82.79999999999973" style="stroke-width: 0.5; stroke: rgb(0, 0, 0); stroke-opacity: 1; fill: rgb(128, 128, 128); fill-opacity: 1;"/><text class="node-label" data-notex="1" x="0" y="0" text-anchor="start" transform="translate(18.25,45.599999999999866)" style="cursor: default; font-family: 'Open Sans', verdana, arial, sans-serif; font-size: 12px; fill: rgb(42, 63, 95); fill-opacity: 1; white-space: pre; text-shadow: white 1px 1px 1px, white -1px -1px 1px, white 1px -1px 1px, white -1px 1px 1px;">still</text></g><g class="sankey-node" transform="translate(1132.499,19.664)" style="opacity: 1;"><rect class="node-rect" width="15" height="82.79999999999995" style="stroke-width: 0.5; stroke: rgb(0, 0, 0); stroke-opacity: 1; fill: rgb(128, 128, 128); fill-opacity: 1;"/><text class="node-label" data-notex="1" x="0" y="0" text-anchor="end" transform="translate(-3.25,45.59999999999998)" style="cursor: default; font-family: 'Open Sans', verdana, arial, sans-serif; font-size: 12px; fill: rgb(42, 63, 95); fill-opacity: 1; white-space: pre; text-shadow: white 1px 1px 1px, white -1px -1px 1px, white 1px -1px 1px, white -1px 1px 1px;">dig-activated</text></g><g class="sankey-node" transform="translate(1132.499,128.307)" style="opacity: 1;"><rect class="node-rect" width="15" height="97.19999999999999" style="stroke-width: 0.5; stroke: rgb(0, 0, 0); stroke-opacity: 1; fill: rgb(128, 128, 128); fill-opacity: 1;"/><text class="node-label" data-notex="1" x="0" y="0" text-anchor="end" transform="translate(-3.25,52.8)" style="cursor: default; font-family: 'Open Sans', verdana, arial, sans-serif; font-size: 12px; fill: rgb(42, 63, 95); fill-opacity: 1; white-space: pre; text-shadow: white 1px 1px 1px, white -1px -1px 1px, white 1px -1px 1px, white -1px 1px 1px;">dig-suppressed</text></g><g class="sankey-node" transform="translate(1132.499,249.405)" style="opacity: 1;"><rect class="node-rect" width="15" height="52.200000000000045" style="stroke-width: 0.5; stroke: rgb(0, 0, 0); stroke-opacity: 1; fill: rgb(128, 128, 128); fill-opacity: 1;"/><text class="node-label" data-notex="1" x="0" y="0" text-anchor="end" transform="translate(-3.25,30.300000000000022)" style="cursor: default; font-family: 'Open Sans', verdana, arial, sans-serif; font-size: 12px; fill: rgb(42, 63, 95); fill-opacity: 1; white-space: pre; text-shadow: white 1px 1px 1px, white -1px -1px 1px, white 1px -1px 1px, white -1px 1px 1px;">groom-activated</text></g><g class="sankey-node" transform="translate(1132.499,321.612)" style="opacity: 1;"><rect class="node-rect" width="15" height="36.000000000000114" style="stroke-width: 0.5; stroke: rgb(0, 0, 0); stroke-opacity: 1; fill: rgb(128, 128, 128); fill-opacity: 1;"/><text class="node-label" data-notex="1" x="0" y="0" text-anchor="end" transform="translate(-3.25,22.200000000000056)" style="cursor: default; font-family: 'Open Sans', verdana, arial, sans-serif; font-size: 12px; fill: rgb(42, 63, 95); fill-opacity: 1; white-space: pre; text-shadow: white 1px 1px 1px, white -1px -1px 1px, white 1px -1px 1px, white -1px 1px 1px;">groom-suppressed</text></g><g class="sankey-node" transform="translate(1132.499,380.252)" style="opacity: 1;"><rect class="node-rect" width="15" height="93.60000000000002" style="stroke-width: 0.5; stroke: rgb(0, 0, 0); stroke-opacity: 1; fill: rgb(128, 128, 128); fill-opacity: 1;"/><text class="node-label" data-notex="1" x="0" y="0" text-anchor="end" transform="translate(-3.25,51.000000000000014)" style="cursor: default; font-family: 'Open Sans', verdana, arial, sans-serif; font-size: 12px; fill: rgb(42, 63, 95); fill-opacity: 1; white-space: pre; text-shadow: white 1px 1px 1px, white -1px -1px 1px, white 1px -1px 1px, white -1px 1px 1px;">move-activated</text></g><g class="sankey-node" transform="translate(1132.499,499.237)" style="opacity: 1;"><rect class="node-rect" width="15" height="79.2000000000005" style="stroke-width: 0.5; stroke: rgb(0, 0, 0); stroke-opacity: 1; fill: rgb(128, 128, 128); fill-opacity: 1;"/><text class="node-label" data-notex="1" x="0" y="0" text-anchor="end" transform="translate(-3.25,43.80000000000025)" style="cursor: default; font-family: 'Open Sans', verdana, arial, sans-serif; font-size: 12px; fill: rgb(42, 63, 95); fill-opacity: 1; white-space: pre; text-shadow: white 1px 1px 1px, white -1px -1px 1px, white 1px -1px 1px, white -1px 1px 1px;">move-suppressed</text></g><g class="sankey-node" transform="translate(1132.499,600.390)" style="opacity: 1;"><rect class="node-rect" width="15" height="39.600000000000136" style="stroke-width: 0.5; stroke: rgb(0, 0, 0); stroke-opacity: 1; fill: rgb(128, 128, 128); fill-opacity: 1;"/><text class="node-label" data-notex="1" x="0" y="0" text-anchor="end" transform="translate(-3.25,24.000000000000068)" style="cursor: default; font-family: 'Open Sans', verdana, arial, sans-serif; font-size: 12px; fill: rgb(42, 63, 95); fill-opacity: 1; white-space: pre; text-shadow: white 1px 1px 1px, white -1px -1px 1px, white 1px -1px 1px, white -1px 1px 1px;">still-activated</text></g><g class="sankey-node" transform="translate(1132.499,659.654)" style="opacity: 1;"><rect class="node-rect" width="15" height="43.200000000000045" style="stroke-width: 0.5; stroke: rgb(0, 0, 0); stroke-opacity: 1; fill: rgb(128, 128, 128); fill-opacity: 1;"/><text class="node-label" data-notex="1" x="0" y="0" text-anchor="end" transform="translate(-3.25,25.800000000000022)" style="cursor: default; font-family: 'Open Sans', verdana, arial, sans-serif; font-size: 12px; fill: rgb(42, 63, 95); fill-opacity: 1; white-space: pre; text-shadow: white 1px 1px 1px, white -1px -1px 1px, white 1px -1px 1px, white -1px 1px 1px;">still-suppressed</text></g><g class="sankey-node" transform="translate(368.700,13.752)" style="opacity: 1;"><rect class="node-rect" width="15" height="32.40000000000012" style="stroke-width: 0.5; stroke: rgb(0, 0, 0); stroke-opacity: 1; fill: rgb(25, 211, 243); fill-opacity: 1;"/><text class="node-label" data-notex="1" x="0" y="0" text-anchor="start" transform="translate(18.25,20.40000000000006)" style="cursor: default; font-family: 'Open Sans', verdana, arial, sans-serif; font-size: 12px; fill: rgb(42, 63, 95); fill-opacity: 1; white-space: pre; text-shadow: white 1px 1px 1px, white -1px -1px 1px, white 1px -1px 1px, white -1px 1px 1px;">BLA</text></g><g class="sankey-node" transform="translate(368.700,58.032)" style="opacity: 1;"><rect class="node-rect" width="15" height="93.60000000000012" style="stroke-width: 0.5; stroke: rgb(0, 0, 0); stroke-opacity: 1; fill: rgb(99, 110, 250); fill-opacity: 1;"/><text class="node-label" data-notex="1" x="0" y="0" text-anchor="start" transform="translate(18.25,51.00000000000006)" style="cursor: default; font-family: 'Open Sans', verdana, arial, sans-serif; font-size: 12px; fill: rgb(42, 63, 95); fill-opacity: 1; white-space: pre; text-shadow: white 1px 1px 1px, white -1px -1px 1px, white 1px -1px 1px, white -1px 1px 1px;">Cla</text></g><g class="sankey-node" transform="translate(368.700,162.792)" style="opacity: 1;"><rect class="node-rect" width="15" height="68.39999999999998" style="stroke-width: 0.5; stroke: rgb(0, 0, 0); stroke-opacity: 1; fill: rgb(239, 85, 59); fill-opacity: 1;"/><text class="node-label" data-notex="1" x="0" y="0" text-anchor="start" transform="translate(18.25,38.39999999999999)" style="cursor: default; font-family: 'Open Sans', verdana, arial, sans-serif; font-size: 12px; fill: rgb(42, 63, 95); fill-opacity: 1; white-space: pre; text-shadow: white 1px 1px 1px, white -1px -1px 1px, white 1px -1px 1px, white -1px 1px 1px;">LC</text></g><g class="sankey-node" transform="translate(368.700,243.612)" style="opacity: 1;"><rect class="node-rect" width="15" height="30.59999999999968" style="stroke-width: 0.5; stroke: rgb(0, 0, 0); stroke-opacity: 1; fill: rgb(254, 203, 82); fill-opacity: 1;"/><text class="node-label" data-notex="1" x="0" y="0" text-anchor="start" transform="translate(18.25,19.49999999999984)" style="cursor: default; font-family: 'Open Sans', verdana, arial, sans-serif; font-size: 12px; fill: rgb(42, 63, 95); fill-opacity: 1; white-space: pre; text-shadow: white 1px 1px 1px, white -1px -1px 1px, white 1px -1px 1px, white -1px 1px 1px;">LHyp</text></g><g class="sankey-node" transform="translate(368.700,287.136)" style="opacity: 1;"><rect class="node-rect" width="15" height="43.200000000000045" style="stroke-width: 0.5; stroke: rgb(0, 0, 0); stroke-opacity: 1; fill: rgb(171, 99, 250); fill-opacity: 1;"/><text class="node-label" data-notex="1" x="0" y="0" text-anchor="start" transform="translate(18.25,25.800000000000022)" style="cursor: default; font-family: 'Open Sans', verdana, arial, sans-serif; font-size: 12px; fill: rgb(42, 63, 95); fill-opacity: 1; white-space: pre; text-shadow: white 1px 1px 1px, white -1px -1px 1px, white 1px -1px 1px, white -1px 1px 1px;">NAc</text></g><g class="sankey-node" transform="translate(368.700,342.072)" style="opacity: 1;"><rect class="node-rect" width="15" height="90.00000000000011" style="stroke-width: 0.5; stroke: rgb(0, 0, 0); stroke-opacity: 1; fill: rgb(0, 204, 150); fill-opacity: 1;"/><text class="node-label" data-notex="1" x="0" y="0" text-anchor="start" transform="translate(18.25,49.20000000000006)" style="cursor: default; font-family: 'Open Sans', verdana, arial, sans-serif; font-size: 12px; fill: rgb(42, 63, 95); fill-opacity: 1; white-space: pre; text-shadow: white 1px 1px 1px, white -1px -1px 1px, white 1px -1px 1px, white -1px 1px 1px;">Str</text></g><g class="sankey-node" transform="translate(368.700,441.864)" style="opacity: 1;"><rect class="node-rect" width="15" height="140.3999999999997" style="stroke-width: 0.5; stroke: rgb(0, 0, 0); stroke-opacity: 1; fill: rgb(255, 161, 90); fill-opacity: 1;"/><text class="node-label" data-notex="1" x="0" y="0" text-anchor="start" transform="translate(18.25,74.39999999999985)" style="cursor: default; font-family: 'Open Sans', verdana, arial, sans-serif; font-size: 12px; fill: rgb(42, 63, 95); fill-opacity: 1; white-space: pre; text-shadow: white 1px 1px 1px, white -1px -1px 1px, white 1px -1px 1px, white -1px 1px 1px;">VTA</text></g><g class="sankey-node" transform="translate(368.700,592.812)" style="opacity: 1;"><rect class="node-rect" width="15" height="52.200000000000045" style="stroke-width: 0.5; stroke: rgb(0, 0, 0); stroke-opacity: 1; fill: rgb(255, 151, 255); fill-opacity: 1;"/><text class="node-label" data-notex="1" x="0" y="0" text-anchor="start" transform="translate(18.25,30.300000000000022)" style="cursor: default; font-family: 'Open Sans', verdana, arial, sans-serif; font-size: 12px; fill: rgb(42, 63, 95); fill-opacity: 1; white-space: pre; text-shadow: white 1px 1px 1px, white -1px -1px 1px, white 1px -1px 1px, white -1px 1px 1px;">cPFC</text></g><g class="sankey-node" transform="translate(368.700,657.828)" style="opacity: 1;"><rect class="node-rect" width="15" height="27.000000000000455" style="stroke-width: 0.5; stroke: rgb(0, 0, 0); stroke-opacity: 1; fill: rgb(255, 102, 146); fill-opacity: 1;"/><text class="node-label" data-notex="1" x="0" y="0" text-anchor="start" transform="translate(18.25,17.700000000000227)" style="cursor: default; font-family: 'Open Sans', verdana, arial, sans-serif; font-size: 12px; fill: rgb(42, 63, 95); fill-opacity: 1; white-space: pre; text-shadow: white 1px 1px 1px, white -1px -1px 1px, white 1px -1px 1px, white -1px 1px 1px;">dPAG</text></g><g class="sankey-node" transform="translate(368.700,698.544)" style="opacity: 1;"><rect class="node-rect" width="15" height="7.2000000000000455" style="stroke-width: 0.5; stroke: rgb(0, 0, 0); stroke-opacity: 1; fill: rgb(182, 232, 128); fill-opacity: 1;"/><text class="node-label" data-notex="1" x="0" y="0" text-anchor="start" transform="translate(18.25,7.800000000000022)" style="cursor: default; font-family: 'Open Sans', verdana, arial, sans-serif; font-size: 12px; fill: rgb(42, 63, 95); fill-opacity: 1; white-space: pre; text-shadow: white 1px 1px 1px, white -1px -1px 1px, white 1px -1px 1px, white -1px 1px 1px;">lHb</text></g></g></g><defs id="topdefs-95d919"><g class="clips"/></defs><g class="layer-above"><g class="imagelayer"/><g class="shapelayer"/></g><g class="infolayer"><g class="g-gtitle"/><g class="first-render"/></g></svg>