<svg class="main-svg" xmlns="http://www.w3.org/2000/svg" xmlns:xlink="http://www.w3.org/1999/xlink" width="1300" height="900" viewBox="0 0 1300 900" style=""><rect x="0" y="0" width="1300" height="900" style="fill: rgb(255, 255, 255); fill-opacity: 1;"/><defs id="defs-84d294"><g class="clips"/><g class="gradients"/><g class="patterns"/></defs><g class="bglayer"/><g class="layer-below"><g class="imagelayer"/><g class="shapelayer"/></g><g class="cartesianlayer"/><g class="polarlayer"/><g class="smithlayer"/><g class="ternarylayer"/><g class="geolayer"/><g class="funnelarealayer"/><g class="pielayer"/><g class="iciclelayer"/><g class="treemaplayer"/><g class="sunburstlayer"/><g class="glimages"/><g class="sankey" transform="translate(80,100)matrix(1 0 0 1 0 0)" style="box-sizing: content-box; position: absolute; left: 0px; shape-rendering: geometricprecision; pointer-events: none;"><g class="sankey-links" style="fill: none;"><path class="sankey-link" d="M7.50114,19.480266775277446C188.10057000000003,19.480266775277446 188.10057000000003,59.95433255269345 368.70000000000005,59.95433255269345L368.70000000000005,69.54449648711969C188.10057000000003,69.54449648711969 188.10057000000003,29.070430709703675 7.50114,29.070430709703675Z" style="stroke: rgb(68, 68, 68); stroke-opacity: 1; fill: rgb(99, 110, 250); fill-opacity: 0.6; stroke-width: 0; opacity: 1;"/><path class="sankey-link" d="M7.50114,29.070430709703675C188.10057000000003,29.070430709703675 188.10057000000003,157.73395784543334 368.70000000000005,157.73395784543334L368.70000000000005,161.8440281030446C188.10057000000003,161.8440281030446 188.10057000000003,33.18050096731491 7.50114,33.18050096731491Z" style="stroke: rgb(68, 68, 68); stroke-opacity: 1; fill: rgb(239, 85, 59); fill-opacity: 0.6; stroke-width: 0; opacity: 1;"/><path class="sankey-link" d="M7.50114,33.18050096731491C188.10057000000003,33.18050096731491 188.10057000000003,270.90000000000003 368.70000000000005,270.90000000000003L368.70000000000005,275.0100702576113C188.10057000000003,275.0100702576113 188.10057000000003,37.290571224926154 7.50114,37.290571224926154Z" style="stroke: rgb(68, 68, 68); stroke-opacity: 1; fill: rgb(171, 99, 250); fill-opacity: 0.6; stroke-width: 0; opacity: 1;"/><path class="sankey-link" d="M7.50114,37.290571224926154C188.10057000000003,37.290571224926154 188.10057000000003,332.9494145199064 368.70000000000005,332.9494145199064L368.70000000000005,337.05948477751764C188.10057000000003,337.05948477751764 188.10057000000003,41.400641482537395 7.50114,41.400641482537395Z" style="stroke: rgb(68, 68, 68); stroke-opacity: 1; fill: rgb(0, 204, 150); fill-opacity: 0.6; stroke-width: 0; opacity: 1;"/><path class="sankey-link" d="M7.50114,41.400641482537395C188.10057000000003,41.400641482537395 188.10057000000003,443.7716627634661 368.70000000000005,443.7716627634661L368.70000000000005,445.1416861826699C188.10057000000003,445.1416861826699 188.10057000000003,42.77066490174114 7.50114,42.77066490174114Z" style="stroke: rgb(68, 68, 68); stroke-opacity: 1; fill: rgb(255, 161, 90); fill-opacity: 0.6; stroke-width: 0; opacity: 1;"/><path class="sankey-link" d="M7.50114,99.90467365848701C188.10057000000003,99.90467365848701 188.10057000000003,13.714988290398278 368.70000000000005,13.714988290398278L368.70000000000005,34.26533957845449C188.10057000000003,34.26533957845449 188.10057000000003,120.45502494654323 7.50114,120.45502494654323Z" style="stroke: rgb(68, 68, 68); stroke-opacity: 1; fill: rgb(25, 211, 243); fill-opacity: 0.6; stroke-width: 0; opacity: 1;"/><path class="sankey-link" d="M7.50114,120.4550249465432C188.10057000000003,120.4550249465432 188.10057000000003,69.54449648711969 368.70000000000005,69.54449648711969L368.70000000000005,96.94496487119463C188.10057000000003,96.94496487119463 188.10057000000003,147.85549333061815 7.50114,147.85549333061815Z" style="stroke: rgb(68, 68, 68); stroke-opacity: 1; fill: rgb(99, 110, 250); fill-opacity: 0.6; stroke-width: 0; opacity: 1;"/><path class="sankey-link" d="M7.50114,147.85549333061817C188.10057000000003,147.85549333061817 188.10057000000003,161.8440281030446 368.70000000000005,161.8440281030446L368.70000000000005,191.98454332552706C188.10057000000003,191.98454332552706 188.10057000000003,177.99600855310064 7.50114,177.99600855310064Z" style="stroke: rgb(68, 68, 68); stroke-opacity: 1; fill: rgb(239, 85, 59); fill-opacity: 0.6; stroke-width: 0; opacity: 1;"/><path class="sankey-link" d="M7.50114,177.9960085531006C188.10057000000003,177.9960085531006 188.10057000000003,275.0100702576113 368.70000000000005,275.0100702576113L368.70000000000005,292.82037470726C188.10057000000003,292.82037470726 188.10057000000003,195.8063130027493 7.50114,195.8063130027493Z" style="stroke: rgb(68, 68, 68); stroke-opacity: 1; fill: rgb(171, 99, 250); fill-opacity: 0.6; stroke-width: 0; opacity: 1;"/><path class="sankey-link" d="M7.50114,195.80631300274933C188.10057000000003,195.80631300274933 188.10057000000003,337.05948477751764 368.70000000000005,337.05948477751764L368.70000000000005,372.68009367681503C188.10057000000003,372.68009367681503 188.10057000000003,231.42692190204673 7.50114,231.42692190204673Z" style="stroke: rgb(68, 68, 68); stroke-opacity: 1; fill: rgb(0, 204, 150); fill-opacity: 0.6; stroke-width: 0; opacity: 1;"/><path class="sankey-link" d="M7.50114,231.42692190204676C188.10057000000003,231.42692190204676 188.10057000000003,445.14168618266984 368.70000000000005,445.14168618266984L368.70000000000005,454.73185011709603C188.10057000000003,454.73185011709603 188.10057000000003,241.017085836473 7.50114,241.017085836473Z" style="stroke: rgb(68, 68, 68); stroke-opacity: 1; fill: rgb(255, 161, 90); fill-opacity: 0.6; stroke-width: 0; opacity: 1;"/><path class="sankey-link" d="M7.50114,241.01708583647297C188.10057000000003,241.01708583647297 188.10057000000003,600.8733021077287 368.70000000000005,600.8733021077287L368.70000000000005,617.3135831381737C188.10057000000003,617.3135831381737 188.10057000000003,257.45736686691794 7.50114,257.45736686691794Z" style="stroke: rgb(68, 68, 68); stroke-opacity: 1; fill: rgb(255, 151, 255); fill-opacity: 0.6; stroke-width: 0; opacity: 1;"/><path class="sankey-link" d="M7.50114,257.45736686691794C188.10057000000003,257.45736686691794 188.10057000000003,661.8540983606558 368.70000000000005,661.8540983606558L368.70000000000005,671.4442622950821C188.10057000000003,671.4442622950821 188.10057000000003,267.0475308013441 7.50114,267.0475308013441Z" style="stroke: rgb(68, 68, 68); stroke-opacity: 1; fill: rgb(255, 102, 146); fill-opacity: 0.6; stroke-width: 0; opacity: 1;"/><path class="sankey-link" d="M7.50114,267.04753080134424C188.10057000000003,267.04753080134424 188.10057000000003,696.2016393442626 368.70000000000005,696.2016393442626L368.70000000000005,701.6817330210775C188.10057000000003,701.6817330210775 188.10057000000003,272.52762447815917 7.50114,272.52762447815917Z" style="stroke: rgb(68, 68, 68); stroke-opacity: 1; fill: rgb(182, 232, 128); fill-opacity: 0.6; stroke-width: 0; opacity: 1;"/><path class="sankey-link" d="M7.50114,334.4430607881071C188.10057000000003,334.4430607881071 188.10057000000003,34.26533957845449 368.70000000000005,34.26533957845449L368.70000000000005,38.37540983606573C188.10057000000003,38.37540983606573 188.10057000000003,338.5531310457184 7.50114,338.5531310457184Z" style="stroke: rgb(68, 68, 68); stroke-opacity: 1; fill: rgb(25, 211, 243); fill-opacity: 0.6; stroke-width: 0; opacity: 1;"/><path class="sankey-link" d="M7.50114,338.5531310457184C188.10057000000003,338.5531310457184 188.10057000000003,96.94496487119463 368.70000000000005,96.94496487119463L368.70000000000005,109.27517564402834C188.10057000000003,109.27517564402834 188.10057000000003,350.88334181855214 7.50114,350.88334181855214Z" style="stroke: rgb(68, 68, 68); stroke-opacity: 1; fill: rgb(99, 110, 250); fill-opacity: 0.6; stroke-width: 0; opacity: 1;"/><path class="sankey-link" d="M7.50114,350.8833418185521C188.10057000000003,350.8833418185521 188.10057000000003,191.98454332552703 368.70000000000005,191.98454332552703L368.70000000000005,196.09461358313828C188.10057000000003,196.09461358313828 188.10057000000003,354.99341207616334 7.50114,354.99341207616334Z" style="stroke: rgb(68, 68, 68); stroke-opacity: 1; fill: rgb(239, 85, 59); fill-opacity: 0.6; stroke-width: 0; opacity: 1;"/><path class="sankey-link" d="M7.50114,354.99341207616334C188.10057000000003,354.99341207616334 188.10057000000003,292.82037470726 368.70000000000005,292.82037470726L368.70000000000005,301.0405152224825C188.10057000000003,301.0405152224825 188.10057000000003,363.21355259138585 7.50114,363.21355259138585Z" style="stroke: rgb(68, 68, 68); stroke-opacity: 1; fill: rgb(171, 99, 250); fill-opacity: 0.6; stroke-width: 0; opacity: 1;"/><path class="sankey-link" d="M7.50114,363.2135525913858C188.10057000000003,363.2135525913858 188.10057000000003,372.6800936768151 368.70000000000005,372.6800936768151L368.70000000000005,376.79016393442635C188.10057000000003,376.79016393442635 188.10057000000003,367.32362284899705 7.50114,367.32362284899705Z" style="stroke: rgb(68, 68, 68); stroke-opacity: 1; fill: rgb(0, 204, 150); fill-opacity: 0.6; stroke-width: 0; opacity: 1;"/><path class="sankey-link" d="M7.50114,367.32362284899705C188.10057000000003,367.32362284899705 188.10057000000003,454.7318501170961 368.70000000000005,454.7318501170961L368.70000000000005,457.47189695550355C188.10057000000003,457.47189695550355 188.10057000000003,370.0636696874045 7.50114,370.0636696874045Z" style="stroke: rgb(68, 68, 68); stroke-opacity: 1; fill: rgb(255, 161, 90); fill-opacity: 0.6; stroke-width: 0; opacity: 1;"/><path class="sankey-link" d="M7.50114,370.0636696874045C188.10057000000003,370.0636696874045 188.10057000000003,617.3135831381737 368.70000000000005,617.3135831381737L368.70000000000005,621.4236533957849C188.10057000000003,621.4236533957849 188.10057000000003,374.17373994501577 7.50114,374.17373994501577Z" style="stroke: rgb(68, 68, 68); stroke-opacity: 1; fill: rgb(255, 151, 255); fill-opacity: 0.6; stroke-width: 0; opacity: 1;"/><path class="sankey-link" d="M7.50114,374.17373994501577C188.10057000000003,374.17373994501577 188.10057000000003,671.444262295082 368.70000000000005,671.444262295082L368.70000000000005,676.924355971897C188.10057000000003,676.924355971897 188.10057000000003,379.6538336218307 7.50114,379.6538336218307Z" style="stroke: rgb(68, 68, 68); stroke-opacity: 1; fill: rgb(255, 102, 146); fill-opacity: 0.6; stroke-width: 0; opacity: 1;"/><path class="sankey-link" d="M7.50114,425.7307911617962C188.10057000000003,425.7307911617962 188.10057000000003,109.27517564402835 368.70000000000005,109.27517564402835L368.70000000000005,120.23536299765833C188.10057000000003,120.23536299765833 188.10057000000003,436.6909785154262 7.50114,436.6909785154262Z" style="stroke: rgb(68, 68, 68); stroke-opacity: 1; fill: rgb(99, 110, 250); fill-opacity: 0.6; stroke-width: 0; opacity: 1;"/><path class="sankey-link" d="M7.50114,436.6909785154262C188.10057000000003,436.6909785154262 188.10057000000003,196.09461358313825 368.70000000000005,196.09461358313825L368.70000000000005,202.94473067915698C188.10057000000003,202.94473067915698 188.10057000000003,443.5410956114449 7.50114,443.5410956114449Z" style="stroke: rgb(68, 68, 68); stroke-opacity: 1; fill: rgb(239, 85, 59); fill-opacity: 0.6; stroke-width: 0; opacity: 1;"/><path class="sankey-link" d="M7.50114,443.5410956114449C188.10057000000003,443.5410956114449 188.10057000000003,230.6613583138174 368.70000000000005,230.6613583138174L368.70000000000005,241.62154566744738C188.10057000000003,241.62154566744738 188.10057000000003,454.5012829650749 7.50114,454.5012829650749Z" style="stroke: rgb(68, 68, 68); stroke-opacity: 1; fill: rgb(254, 203, 82); fill-opacity: 0.6; stroke-width: 0; opacity: 1;"/><path class="sankey-link" d="M7.50114,454.5012829650749C188.10057000000003,454.5012829650749 188.10057000000003,376.79016393442635 368.70000000000005,376.79016393442635L368.70000000000005,389.1203747072601C188.10057000000003,389.1203747072601 188.10057000000003,466.83149373790866 7.50114,466.83149373790866Z" style="stroke: rgb(68, 68, 68); stroke-opacity: 1; fill: rgb(0, 204, 150); fill-opacity: 0.6; stroke-width: 0; opacity: 1;"/><path class="sankey-link" d="M7.50114,466.8314937379086C188.10057000000003,466.8314937379086 188.10057000000003,457.47189695550355 368.70000000000005,457.47189695550355L368.70000000000005,504.0526932084309C188.10057000000003,504.0526932084309 188.10057000000003,513.412289990836 7.50114,513.412289990836Z" style="stroke: rgb(68, 68, 68); stroke-opacity: 1; fill: rgb(255, 161, 90); fill-opacity: 0.6; stroke-width: 0; opacity: 1;"/><path class="sankey-link" d="M7.50114,513.412289990836C188.10057000000003,513.412289990836 188.10057000000003,621.423653395785 368.70000000000005,621.423653395785L368.70000000000005,631.0138173302113C188.10057000000003,631.0138173302113 188.10057000000003,523.0024539252623 7.50114,523.0024539252623Z" style="stroke: rgb(68, 68, 68); stroke-opacity: 1; fill: rgb(255, 151, 255); fill-opacity: 0.6; stroke-width: 0; opacity: 1;"/><path class="sankey-link" d="M7.50114,523.0024539252622C188.10057000000003,523.0024539252622 188.10057000000003,676.9243559718971 368.70000000000005,676.9243559718971L368.70000000000005,679.6644028103046C188.10057000000003,679.6644028103046 188.10057000000003,525.7425007636698 7.50114,525.7425007636698Z" style="stroke: rgb(68, 68, 68); stroke-opacity: 1; fill: rgb(255, 102, 146); fill-opacity: 0.6; stroke-width: 0; opacity: 1;"/><path class="sankey-link" d="M7.50114,583.773027186641C188.10057000000003,583.773027186641 188.10057000000003,120.23536299765833 368.70000000000005,120.23536299765833L368.70000000000005,131.19555035128832C188.10057000000003,131.19555035128832 188.10057000000003,594.7332145402709 7.50114,594.7332145402709Z" style="stroke: rgb(68, 68, 68); stroke-opacity: 1; fill: rgb(99, 110, 250); fill-opacity: 0.6; stroke-width: 0; opacity: 1;"/><path class="sankey-link" d="M7.50114,594.7332145402709C188.10057000000003,594.7332145402709 188.10057000000003,202.94473067915698 368.70000000000005,202.94473067915698L368.70000000000005,209.7948477751757C188.10057000000003,209.7948477751757 188.10057000000003,601.5833316362896 7.50114,601.5833316362896Z" style="stroke: rgb(68, 68, 68); stroke-opacity: 1; fill: rgb(239, 85, 59); fill-opacity: 0.6; stroke-width: 0; opacity: 1;"/><path class="sankey-link" d="M7.50114,601.5833316362896C188.10057000000003,601.5833316362896 188.10057000000003,241.62154566744738 368.70000000000005,241.62154566744738L368.70000000000005,252.58173302107735C188.10057000000003,252.58173302107735 188.10057000000003,612.5435189899194 7.50114,612.5435189899194Z" style="stroke: rgb(68, 68, 68); stroke-opacity: 1; fill: rgb(254, 203, 82); fill-opacity: 0.6; stroke-width: 0; opacity: 1;"/><path class="sankey-link" d="M7.50114,612.5435189899196C188.10057000000003,612.5435189899196 188.10057000000003,389.12037470726005 368.70000000000005,389.12037470726005L368.70000000000005,401.4505854800938C188.10057000000003,401.4505854800938 188.10057000000003,624.8737297627532 7.50114,624.8737297627532Z" style="stroke: rgb(68, 68, 68); stroke-opacity: 1; fill: rgb(0, 204, 150); fill-opacity: 0.6; stroke-width: 0; opacity: 1;"/><path class="sankey-link" d="M7.50114,624.8737297627533C188.10057000000003,624.8737297627533 188.10057000000003,504.052693208431 368.70000000000005,504.052693208431L368.70000000000005,550.6334894613584C188.10057000000003,550.6334894613584 188.10057000000003,671.4545260156808 7.50114,671.4545260156808Z" style="stroke: rgb(68, 68, 68); stroke-opacity: 1; fill: rgb(255, 161, 90); fill-opacity: 0.6; stroke-width: 0; opacity: 1;"/><path class="sankey-link" d="M7.50114,671.4545260156807C188.10057000000003,671.4545260156807 188.10057000000003,631.0138173302112 368.70000000000005,631.0138173302112L368.70000000000005,640.6039812646375C188.10057000000003,640.6039812646375 188.10057000000003,681.044689950107 7.50114,681.044689950107Z" style="stroke: rgb(68, 68, 68); stroke-opacity: 1; fill: rgb(255, 151, 255); fill-opacity: 0.6; stroke-width: 0; opacity: 1;"/><path class="sankey-link" d="M7.50114,681.0446899501069C188.10057000000003,681.0446899501069 188.10057000000003,679.6644028103045 368.70000000000005,679.6644028103045L368.70000000000005,682.4044496487121C188.10057000000003,682.4044496487121 188.10057000000003,683.7847367885145 7.50114,683.7847367885145Z" style="stroke: rgb(68, 68, 68); stroke-opacity: 1; fill: rgb(255, 102, 146); fill-opacity: 0.6; stroke-width: 0; opacity: 1;"/><path class="sankey-link" d="M383.70000000000005,13.714988290398278C564.3000000000001,13.714988290398278 564.3000000000001,20.030425173994814 744.9000000000001,20.030425173994814L744.9000000000001,29.620589108421044C564.3000000000001,29.620589108421044 564.3000000000001,23.305152224824507 383.70000000000005,23.305152224824507Z" style="stroke: rgb(68, 68, 68); stroke-opacity: 1; fill: rgb(25, 211, 243); fill-opacity: 0.6; stroke-width: 0; opacity: 1;"/><path class="sankey-link" d="M383.70000000000005,23.305152224824507C564.3000000000001,23.305152224824507 564.3000000000001,260.01390968763405 744.9000000000001,260.01390968763405L744.9000000000001,261.38393310683784C564.3000000000001,261.38393310683784 564.3000000000001,24.675175644028254 383.70000000000005,24.675175644028254Z" style="stroke: rgb(68, 68, 68); stroke-opacity: 1; fill: rgb(25, 211, 243); fill-opacity: 0.6; stroke-width: 0; opacity: 1;"/><path class="sankey-link" d="M383.70000000000005,24.67517564402825C564.3000000000001,24.67517564402825 564.3000000000001,347.32581389979254 744.9000000000001,347.32581389979254L744.9000000000001,362.39607151103377C564.3000000000001,362.39607151103377 564.3000000000001,39.74543325526947 383.70000000000005,39.74543325526947Z" style="stroke: rgb(68, 68, 68); stroke-opacity: 1; fill: rgb(25, 211, 243); fill-opacity: 0.6; stroke-width: 0; opacity: 1;"/><path class="sankey-link" d="M383.70000000000005,39.745433255269475C564.3000000000001,39.745433255269475 564.3000000000001,577.0193686710428 744.9000000000001,577.0193686710428L744.9000000000001,585.2395091862653C564.3000000000001,585.2395091862653 564.3000000000001,47.96557377049196 383.70000000000005,47.96557377049196Z" style="stroke: rgb(68, 68, 68); stroke-opacity: 1; fill: rgb(25, 211, 243); fill-opacity: 0.6; stroke-width: 0; opacity: 1;"/><path class="sankey-link" d="M383.70000000000005,59.954332552693465C564.3000000000001,59.954332552693465 564.3000000000001,29.620589108421044 744.9000000000001,29.620589108421044L744.9000000000001,47.430893558069755C564.3000000000001,47.430893558069755 564.3000000000001,77.76463700234217 383.70000000000005,77.76463700234217Z" style="stroke: rgb(68, 68, 68); stroke-opacity: 1; fill: rgb(99, 110, 250); fill-opacity: 0.6; stroke-width: 0; opacity: 1;"/><path class="sankey-link" d="M383.70000000000005,77.76463700234217C564.3000000000001,77.76463700234217 564.3000000000001,174.3983111785468 744.9000000000001,174.3983111785468L744.9000000000001,186.72852195138051C564.3000000000001,186.72852195138051 564.3000000000001,90.09484777517588 383.70000000000005,90.09484777517588Z" style="stroke: rgb(68, 68, 68); stroke-opacity: 1; fill: rgb(99, 110, 250); fill-opacity: 0.6; stroke-width: 0; opacity: 1;"/><path class="sankey-link" d="M383.70000000000005,90.09484777517591C564.3000000000001,90.09484777517591 564.3000000000001,261.3839331068378 744.9000000000001,261.3839331068378L744.9000000000001,268.2340502028565C564.3000000000001,268.2340502028565 564.3000000000001,96.94496487119463 383.70000000000005,96.94496487119463Z" style="stroke: rgb(68, 68, 68); stroke-opacity: 1; fill: rgb(99, 110, 250); fill-opacity: 0.6; stroke-width: 0; opacity: 1;"/><path class="sankey-link" d="M383.70000000000005,96.94496487119463C564.3000000000001,96.94496487119463 564.3000000000001,362.39607151103377 744.9000000000001,362.39607151103377L744.9000000000001,391.16656331431244C564.3000000000001,391.16656331431244 564.3000000000001,125.7154566744733 383.70000000000005,125.7154566744733Z" style="stroke: rgb(68, 68, 68); stroke-opacity: 1; fill: rgb(99, 110, 250); fill-opacity: 0.6; stroke-width: 0; opacity: 1;"/><path class="sankey-link" d="M383.70000000000005,125.7154566744733C564.3000000000001,125.7154566744733 564.3000000000001,585.2395091862653 744.9000000000001,585.2395091862653L744.9000000000001,605.7898604743215C564.3000000000001,605.7898604743215 564.3000000000001,146.26580796252952 383.70000000000005,146.26580796252952Z" style="stroke: rgb(68, 68, 68); stroke-opacity: 1; fill: rgb(99, 110, 250); fill-opacity: 0.6; stroke-width: 0; opacity: 1;"/><path class="sankey-link" d="M383.70000000000005,157.73395784543334C564.3000000000001,157.73395784543334 564.3000000000001,47.430893558069755 744.9000000000001,47.430893558069755L744.9000000000001,65.24119800771847C564.3000000000001,65.24119800771847 564.3000000000001,175.54426229508204 383.70000000000005,175.54426229508204Z" style="stroke: rgb(68, 68, 68); stroke-opacity: 1; fill: rgb(239, 85, 59); fill-opacity: 0.6; stroke-width: 0; opacity: 1;"/><path class="sankey-link" d="M383.70000000000005,175.54426229508204C564.3000000000001,175.54426229508204 564.3000000000001,186.72852195138051 744.9000000000001,186.72852195138051L744.9000000000001,193.57863904739924C564.3000000000001,193.57863904739924 564.3000000000001,182.39437939110076 383.70000000000005,182.39437939110076Z" style="stroke: rgb(68, 68, 68); stroke-opacity: 1; fill: rgb(239, 85, 59); fill-opacity: 0.6; stroke-width: 0; opacity: 1;"/><path class="sankey-link" d="M383.70000000000005,182.39437939110076C564.3000000000001,182.39437939110076 564.3000000000001,268.2340502028565 744.9000000000001,268.2340502028565L744.9000000000001,270.974097041264C564.3000000000001,270.974097041264 564.3000000000001,185.13442622950822 383.70000000000005,185.13442622950822Z" style="stroke: rgb(68, 68, 68); stroke-opacity: 1; fill: rgb(239, 85, 59); fill-opacity: 0.6; stroke-width: 0; opacity: 1;"/><path class="sankey-link" d="M383.70000000000005,185.13442622950825C564.3000000000001,185.13442622950825 564.3000000000001,391.16656331431244 744.9000000000001,391.16656331431244L744.9000000000001,414.4569614407762C564.3000000000001,414.4569614407762 564.3000000000001,208.42482435597194 383.70000000000005,208.42482435597194Z" style="stroke: rgb(68, 68, 68); stroke-opacity: 1; fill: rgb(239, 85, 59); fill-opacity: 0.6; stroke-width: 0; opacity: 1;"/><path class="sankey-link" d="M383.70000000000005,208.42482435597196C564.3000000000001,208.42482435597196 564.3000000000001,605.7898604743215 744.9000000000001,605.7898604743215L744.9000000000001,615.3800244087478C564.3000000000001,615.3800244087478 564.3000000000001,218.0149882903982 383.70000000000005,218.0149882903982Z" style="stroke: rgb(68, 68, 68); stroke-opacity: 1; fill: rgb(239, 85, 59); fill-opacity: 0.6; stroke-width: 0; opacity: 1;"/><path class="sankey-link" d="M383.70000000000005,230.6613583138174C564.3000000000001,230.6613583138174 564.3000000000001,65.24119800771847 744.9000000000001,65.24119800771847L744.9000000000001,73.46133852294095C564.3000000000001,73.46133852294095 564.3000000000001,238.8814988290399 383.70000000000005,238.8814988290399Z" style="stroke: rgb(68, 68, 68); stroke-opacity: 1; fill: rgb(254, 203, 82); fill-opacity: 0.6; stroke-width: 0; opacity: 1;"/><path class="sankey-link" d="M383.70000000000005,238.88149882903988C564.3000000000001,238.88149882903988 564.3000000000001,193.57863904739924 744.9000000000001,193.57863904739924L744.9000000000001,197.6887093050105C564.3000000000001,197.6887093050105 564.3000000000001,242.99156908665114 383.70000000000005,242.99156908665114Z" style="stroke: rgb(68, 68, 68); stroke-opacity: 1; fill: rgb(254, 203, 82); fill-opacity: 0.6; stroke-width: 0; opacity: 1;"/><path class="sankey-link" d="M383.70000000000005,242.9915690866511C564.3000000000001,242.9915690866511 564.3000000000001,270.97409704126403 744.9000000000001,270.97409704126403L744.9000000000001,277.82421413728275C564.3000000000001,277.82421413728275 564.3000000000001,249.84168618266983 383.70000000000005,249.84168618266983Z" style="stroke: rgb(68, 68, 68); stroke-opacity: 1; fill: rgb(254, 203, 82); fill-opacity: 0.6; stroke-width: 0; opacity: 1;"/><path class="sankey-link" d="M383.70000000000005,249.84168618266983C564.3000000000001,249.84168618266983 564.3000000000001,414.4569614407761 744.9000000000001,414.4569614407761L744.9000000000001,422.67710195599864C564.3000000000001,422.67710195599864 564.3000000000001,258.06182669789234 383.70000000000005,258.06182669789234Z" style="stroke: rgb(68, 68, 68); stroke-opacity: 1; fill: rgb(254, 203, 82); fill-opacity: 0.6; stroke-width: 0; opacity: 1;"/><path class="sankey-link" d="M383.70000000000005,270.90000000000003C564.3000000000001,270.90000000000003 564.3000000000001,73.46133852294095 744.9000000000001,73.46133852294095L744.9000000000001,87.16157271497842C564.3000000000001,87.16157271497842 564.3000000000001,284.6002341920375 383.70000000000005,284.6002341920375Z" style="stroke: rgb(68, 68, 68); stroke-opacity: 1; fill: rgb(171, 99, 250); fill-opacity: 0.6; stroke-width: 0; opacity: 1;"/><path class="sankey-link" d="M383.70000000000005,284.60023419203753C564.3000000000001,284.60023419203753 564.3000000000001,197.6887093050105 744.9000000000001,197.6887093050105L744.9000000000001,201.79877956262175C564.3000000000001,201.79877956262175 564.3000000000001,288.7103044496488 383.70000000000005,288.7103044496488Z" style="stroke: rgb(68, 68, 68); stroke-opacity: 1; fill: rgb(171, 99, 250); fill-opacity: 0.6; stroke-width: 0; opacity: 1;"/><path class="sankey-link" d="M383.70000000000005,288.7103044496488C564.3000000000001,288.7103044496488 564.3000000000001,277.82421413728275 744.9000000000001,277.82421413728275L744.9000000000001,283.3043078140977C564.3000000000001,283.3043078140977 564.3000000000001,294.1903981264637 383.70000000000005,294.1903981264637Z" style="stroke: rgb(68, 68, 68); stroke-opacity: 1; fill: rgb(171, 99, 250); fill-opacity: 0.6; stroke-width: 0; opacity: 1;"/><path class="sankey-link" d="M383.70000000000005,294.1903981264638C564.3000000000001,294.1903981264638 564.3000000000001,422.67710195599864 744.9000000000001,422.67710195599864L744.9000000000001,440.48740640564733C564.3000000000001,440.48740640564733 564.3000000000001,312.0007025761125 383.70000000000005,312.0007025761125Z" style="stroke: rgb(68, 68, 68); stroke-opacity: 1; fill: rgb(171, 99, 250); fill-opacity: 0.6; stroke-width: 0; opacity: 1;"/><path class="sankey-link" d="M383.70000000000005,312.0007025761125C564.3000000000001,312.0007025761125 564.3000000000001,615.3800244087477 744.9000000000001,615.3800244087477L744.9000000000001,624.970188343174C564.3000000000001,624.970188343174 564.3000000000001,321.59086651053866 383.70000000000005,321.59086651053866Z" style="stroke: rgb(68, 68, 68); stroke-opacity: 1; fill: rgb(171, 99, 250); fill-opacity: 0.6; stroke-width: 0; opacity: 1;"/><path class="sankey-link" d="M383.70000000000005,332.9494145199064C564.3000000000001,332.9494145199064 564.3000000000001,87.16157271497842 744.9000000000001,87.16157271497842L744.9000000000001,109.08194742223837C564.3000000000001,109.08194742223837 564.3000000000001,354.86978922716634 383.70000000000005,354.86978922716634Z" style="stroke: rgb(68, 68, 68); stroke-opacity: 1; fill: rgb(0, 204, 150); fill-opacity: 0.6; stroke-width: 0; opacity: 1;"/><path class="sankey-link" d="M383.70000000000005,354.8697892271664C564.3000000000001,354.8697892271664 564.3000000000001,201.79877956262175 744.9000000000001,201.79877956262175L744.9000000000001,207.27887323943673C564.3000000000001,207.27887323943673 564.3000000000001,360.3498829039813 383.70000000000005,360.3498829039813Z" style="stroke: rgb(68, 68, 68); stroke-opacity: 1; fill: rgb(0, 204, 150); fill-opacity: 0.6; stroke-width: 0; opacity: 1;"/><path class="sankey-link" d="M383.70000000000005,360.3498829039813C564.3000000000001,360.3498829039813 564.3000000000001,283.30430781409774 744.9000000000001,283.30430781409774L744.9000000000001,290.15442491011646C564.3000000000001,290.15442491011646 564.3000000000001,367.20000000000005 383.70000000000005,367.20000000000005Z" style="stroke: rgb(68, 68, 68); stroke-opacity: 1; fill: rgb(0, 204, 150); fill-opacity: 0.6; stroke-width: 0; opacity: 1;"/><path class="sankey-link" d="M383.70000000000005,367.20000000000005C564.3000000000001,367.20000000000005 564.3000000000001,440.48740640564733 744.9000000000001,440.48740640564733L744.9000000000001,484.32815582016724C564.3000000000001,484.32815582016724 564.3000000000001,411.04074941451995 383.70000000000005,411.04074941451995Z" style="stroke: rgb(68, 68, 68); stroke-opacity: 1; fill: rgb(0, 204, 150); fill-opacity: 0.6; stroke-width: 0; opacity: 1;"/><path class="sankey-link" d="M383.70000000000005,411.04074941451995C564.3000000000001,411.04074941451995 564.3000000000001,624.9701883431738 744.9000000000001,624.9701883431738L744.9000000000001,648.2605864696376C564.3000000000001,648.2605864696376 564.3000000000001,434.3311475409837 383.70000000000005,434.3311475409837Z" style="stroke: rgb(68, 68, 68); stroke-opacity: 1; fill: rgb(0, 204, 150); fill-opacity: 0.6; stroke-width: 0; opacity: 1;"/><path class="sankey-link" d="M383.70000000000005,443.7716627634661C564.3000000000001,443.7716627634661 564.3000000000001,109.08194742223837 744.9000000000001,109.08194742223837L744.9000000000001,139.2224626447208C564.3000000000001,139.2224626447208 564.3000000000001,473.9121779859486 383.70000000000005,473.9121779859486Z" style="stroke: rgb(68, 68, 68); stroke-opacity: 1; fill: rgb(255, 161, 90); fill-opacity: 0.6; stroke-width: 0; opacity: 1;"/><path class="sankey-link" d="M383.70000000000005,473.9121779859486C564.3000000000001,473.9121779859486 564.3000000000001,207.27887323943673 744.9000000000001,207.27887323943673L744.9000000000001,227.82922452749295C564.3000000000001,227.82922452749295 564.3000000000001,494.46252927400474 383.70000000000005,494.46252927400474Z" style="stroke: rgb(68, 68, 68); stroke-opacity: 1; fill: rgb(255, 161, 90); fill-opacity: 0.6; stroke-width: 0; opacity: 1;"/><path class="sankey-link" d="M383.70000000000005,494.4625292740048C564.3000000000001,494.4625292740048 564.3000000000001,290.15442491011646 744.9000000000001,290.15442491011646L744.9000000000001,314.8148464557839C564.3000000000001,314.8148464557839 564.3000000000001,519.1229508196723 383.70000000000005,519.1229508196723Z" style="stroke: rgb(68, 68, 68); stroke-opacity: 1; fill: rgb(255, 161, 90); fill-opacity: 0.6; stroke-width: 0; opacity: 1;"/><path class="sankey-link" d="M383.70000000000005,519.1229508196723C564.3000000000001,519.1229508196723 564.3000000000001,484.32815582016724 744.9000000000001,484.32815582016724L744.9000000000001,525.4288583962797C564.3000000000001,525.4288583962797 564.3000000000001,560.2236533957846 383.70000000000005,560.2236533957846Z" style="stroke: rgb(68, 68, 68); stroke-opacity: 1; fill: rgb(255, 161, 90); fill-opacity: 0.6; stroke-width: 0; opacity: 1;"/><path class="sankey-link" d="M383.70000000000005,560.2236533957847C564.3000000000001,560.2236533957847 564.3000000000001,648.2605864696376 744.9000000000001,648.2605864696376L744.9000000000001,678.40110169212C564.3000000000001,678.40110169212 564.3000000000001,590.3641686182672 383.70000000000005,590.3641686182672Z" style="stroke: rgb(68, 68, 68); stroke-opacity: 1; fill: rgb(255, 161, 90); fill-opacity: 0.6; stroke-width: 0; opacity: 1;"/><path class="sankey-link" d="M383.70000000000005,600.8733021077287C564.3000000000001,600.8733021077287 564.3000000000001,139.2224626447208 744.9000000000001,139.2224626447208L744.9000000000001,148.81262657914704C564.3000000000001,148.81262657914704 564.3000000000001,610.463466042155 383.70000000000005,610.463466042155Z" style="stroke: rgb(68, 68, 68); stroke-opacity: 1; fill: rgb(255, 151, 255); fill-opacity: 0.6; stroke-width: 0; opacity: 1;"/><path class="sankey-link" d="M383.70000000000005,610.4634660421549C564.3000000000001,610.4634660421549 564.3000000000001,227.82922452749295 744.9000000000001,227.82922452749295L744.9000000000001,236.04936504271546C564.3000000000001,236.04936504271546 564.3000000000001,618.6836065573774 383.70000000000005,618.6836065573774Z" style="stroke: rgb(68, 68, 68); stroke-opacity: 1; fill: rgb(255, 151, 255); fill-opacity: 0.6; stroke-width: 0; opacity: 1;"/><path class="sankey-link" d="M383.70000000000005,618.6836065573774C564.3000000000001,618.6836065573774 564.3000000000001,314.81484645578394 744.9000000000001,314.81484645578394L744.9000000000001,317.5548932941914C564.3000000000001,317.5548932941914 564.3000000000001,621.423653395785 383.70000000000005,621.423653395785Z" style="stroke: rgb(68, 68, 68); stroke-opacity: 1; fill: rgb(255, 151, 255); fill-opacity: 0.6; stroke-width: 0; opacity: 1;"/><path class="sankey-link" d="M383.70000000000005,621.4236533957849C564.3000000000001,621.4236533957849 564.3000000000001,525.4288583962797 744.9000000000001,525.4288583962797L744.9000000000001,539.1290925883171C564.3000000000001,539.1290925883171 564.3000000000001,635.1238875878223 383.70000000000005,635.1238875878223Z" style="stroke: rgb(68, 68, 68); stroke-opacity: 1; fill: rgb(255, 151, 255); fill-opacity: 0.6; stroke-width: 0; opacity: 1;"/><path class="sankey-link" d="M383.70000000000005,635.1238875878223C564.3000000000001,635.1238875878223 564.3000000000001,678.40110169212 744.9000000000001,678.40110169212L744.9000000000001,692.1013358841575C564.3000000000001,692.1013358841575 564.3000000000001,648.8241217798598 383.70000000000005,648.8241217798598Z" style="stroke: rgb(68, 68, 68); stroke-opacity: 1; fill: rgb(255, 151, 255); fill-opacity: 0.6; stroke-width: 0; opacity: 1;"/><path class="sankey-link" d="M383.70000000000005,661.8540983606558C564.3000000000001,661.8540983606558 564.3000000000001,148.81262657914704 744.9000000000001,148.81262657914704L744.9000000000001,150.18264999835077C564.3000000000001,150.18264999835077 564.3000000000001,663.2241217798596 383.70000000000005,663.2241217798596Z" style="stroke: rgb(68, 68, 68); stroke-opacity: 1; fill: rgb(255, 102, 146); fill-opacity: 0.6; stroke-width: 0; opacity: 1;"/><path class="sankey-link" d="M383.70000000000005,663.2241217798596C564.3000000000001,663.2241217798596 564.3000000000001,236.04936504271544 744.9000000000001,236.04936504271544L744.9000000000001,240.1594353003267C564.3000000000001,240.1594353003267 564.3000000000001,667.3341920374708 383.70000000000005,667.3341920374708Z" style="stroke: rgb(68, 68, 68); stroke-opacity: 1; fill: rgb(255, 102, 146); fill-opacity: 0.6; stroke-width: 0; opacity: 1;"/><path class="sankey-link" d="M383.70000000000005,667.3341920374709C564.3000000000001,667.3341920374709 564.3000000000001,317.5548932941914 744.9000000000001,317.5548932941914L744.9000000000001,321.66496355180266C564.3000000000001,321.66496355180266 564.3000000000001,671.444262295082 383.70000000000005,671.444262295082Z" style="stroke: rgb(68, 68, 68); stroke-opacity: 1; fill: rgb(255, 102, 146); fill-opacity: 0.6; stroke-width: 0; opacity: 1;"/><path class="sankey-link" d="M383.70000000000005,671.4442622950821C564.3000000000001,671.4442622950821 564.3000000000001,539.1290925883171 744.9000000000001,539.1290925883171L744.9000000000001,544.609186265132C564.3000000000001,544.609186265132 564.3000000000001,676.9243559718971 383.70000000000005,676.9243559718971Z" style="stroke: rgb(68, 68, 68); stroke-opacity: 1; fill: rgb(255, 102, 146); fill-opacity: 0.6; stroke-width: 0; opacity: 1;"/><path class="sankey-link" d="M383.70000000000005,676.9243559718971C564.3000000000001,676.9243559718971 564.3000000000001,692.1013358841575 744.9000000000001,692.1013358841575L744.9000000000001,696.2114061417686C564.3000000000001,696.2114061417686 564.3000000000001,681.0344262295082 383.70000000000005,681.0344262295082Z" style="stroke: rgb(68, 68, 68); stroke-opacity: 1; fill: rgb(255, 102, 146); fill-opacity: 0.6; stroke-width: 0; opacity: 1;"/><path class="sankey-link" d="M383.70000000000005,696.2016393442626C564.3000000000001,696.2016393442626 564.3000000000001,150.18264999835077 744.9000000000001,150.18264999835077L744.9000000000001,151.5526734175545C564.3000000000001,151.5526734175545 564.3000000000001,697.5716627634664 383.70000000000005,697.5716627634664Z" style="stroke: rgb(68, 68, 68); stroke-opacity: 1; fill: rgb(182, 232, 128); fill-opacity: 0.6; stroke-width: 0; opacity: 1;"/><path class="sankey-link" d="M383.70000000000005,697.5716627634664C564.3000000000001,697.5716627634664 564.3000000000001,544.6091862651322 744.9000000000001,544.6091862651322L744.9000000000001,548.7192565227433C564.3000000000001,548.7192565227433 564.3000000000001,701.6817330210775 383.70000000000005,701.6817330210775Z" style="stroke: rgb(68, 68, 68); stroke-opacity: 1; fill: rgb(182, 232, 128); fill-opacity: 0.6; stroke-width: 0; opacity: 1;"/><path class="sankey-link" d="M383.70000000000005,701.6817330210777C564.3000000000001,701.6817330210777 564.3000000000001,696.2114061417687 744.9000000000001,696.2114061417687L744.9000000000001,700.3214763993799C564.3000000000001,700.3214763993799 564.3000000000001,705.7918032786888 383.70000000000005,705.7918032786888Z" style="stroke: rgb(68, 68, 68); stroke-opacity: 1; fill: rgb(182, 232, 128); fill-opacity: 0.6; stroke-width: 0; opacity: 1;"/><path class="sankey-link" d="M759.9000000000001,20.030425173994814C946.19943,20.030425173994814 946.19943,13.288158458950456 1132.49886,13.288158458950456L1132.49886,14.658181878154203C946.19943,14.658181878154203 946.19943,21.40044859319856 759.9000000000001,21.40044859319856Z" style="stroke: rgb(68, 68, 68); stroke-opacity: 1; fill: rgb(25, 211, 243); fill-opacity: 0.6; stroke-width: 0; opacity: 1;"/><path class="sankey-link" d="M759.9000000000001,78.94143219975594C946.19943,78.94143219975594 946.19943,84.11691460236831 1132.49886,84.11691460236831L1132.49886,92.3370551175908C946.19943,92.3370551175908 946.19943,87.16157271497842 759.9000000000001,87.16157271497842Z" style="stroke: rgb(68, 68, 68); stroke-opacity: 1; fill: rgb(25, 211, 243); fill-opacity: 0.6; stroke-width: 0; opacity: 1;"/><path class="sankey-link" d="M759.9000000000001,288.78440149091267C946.19943,288.78440149091267 946.19943,303.3005640399777 1132.49886,303.3005640399777L1132.49886,304.6705874591815C946.19943,304.6705874591815 946.19943,290.15442491011646 759.9000000000001,290.15442491011646Z" style="stroke: rgb(68, 68, 68); stroke-opacity: 1; fill: rgb(25, 211, 243); fill-opacity: 0.6; stroke-width: 0; opacity: 1;"/><path class="sankey-link" d="M759.9000000000001,347.32581389979254C946.19943,347.32581389979254 946.19943,347.53002605798713 1132.49886,347.53002605798713L1132.49886,358.4902134116171C946.19943,358.4902134116171 946.19943,358.2860012534225 759.9000000000001,358.2860012534225Z" style="stroke: rgb(68, 68, 68); stroke-opacity: 1; fill: rgb(25, 211, 243); fill-opacity: 0.6; stroke-width: 0; opacity: 1;"/><path class="sankey-link" d="M759.9000000000001,476.10801530494473C946.19943,476.10801530494473 946.19943,486.9112807995515 1132.49886,486.9112807995515L1132.49886,491.02135105716275C946.19943,491.02135105716275 946.19943,480.218085562556 759.9000000000001,480.218085562556Z" style="stroke: rgb(68, 68, 68); stroke-opacity: 1; fill: rgb(25, 211, 243); fill-opacity: 0.6; stroke-width: 0; opacity: 1;"/><path class="sankey-link" d="M759.9000000000001,577.0193686710428C946.19943,577.0193686710428 946.19943,571.4144143549825 1132.49886,571.4144143549825L1132.49886,576.8945080317974C946.19943,576.8945080317974 946.19943,582.4994623478577 759.9000000000001,582.4994623478577Z" style="stroke: rgb(68, 68, 68); stroke-opacity: 1; fill: rgb(25, 211, 243); fill-opacity: 0.6; stroke-width: 0; opacity: 1;"/><path class="sankey-link" d="M759.9000000000001,637.3003991160077C946.19943,637.3003991160077 946.19943,643.7683345977506 1132.49886,643.7683345977506L1132.49886,646.5083814361582C946.19943,646.5083814361582 946.19943,640.0404459544153 759.9000000000001,640.0404459544153Z" style="stroke: rgb(68, 68, 68); stroke-opacity: 1; fill: rgb(25, 211, 243); fill-opacity: 0.6; stroke-width: 0; opacity: 1;"/><path class="sankey-link" d="M759.9000000000001,21.40044859319856C946.19943,21.40044859319856 946.19943,14.658181878154203 1132.49886,14.658181878154203L1132.49886,22.878322393376685C946.19943,22.878322393376685 946.19943,29.620589108421044 759.9000000000001,29.620589108421044Z" style="stroke: rgb(68, 68, 68); stroke-opacity: 1; fill: rgb(99, 110, 250); fill-opacity: 0.6; stroke-width: 0; opacity: 1;"/><path class="sankey-link" d="M759.9000000000001,87.1615727149784C946.19943,87.1615727149784 946.19943,92.33705511759078 1132.49886,92.33705511759078L1132.49886,101.92721905201702C946.19943,101.92721905201702 946.19943,96.75173664940465 759.9000000000001,96.75173664940465Z" style="stroke: rgb(68, 68, 68); stroke-opacity: 1; fill: rgb(99, 110, 250); fill-opacity: 0.6; stroke-width: 0; opacity: 1;"/><path class="sankey-link" d="M759.9000000000001,174.3983111785468C946.19943,174.3983111785468 946.19943,169.0078998581655 1132.49886,169.0078998581655L1132.49886,177.228040373388C946.19943,177.228040373388 946.19943,182.61845169376932 759.9000000000001,182.61845169376932Z" style="stroke: rgb(68, 68, 68); stroke-opacity: 1; fill: rgb(99, 110, 250); fill-opacity: 0.6; stroke-width: 0; opacity: 1;"/><path class="sankey-link" d="M759.9000000000001,214.12899033545548C946.19943,214.12899033545548 946.19943,221.89745357390234 1132.49886,221.89745357390234L1132.49886,226.0075238315136C946.19943,226.0075238315136 946.19943,218.23906059306674 759.9000000000001,218.23906059306674Z" style="stroke: rgb(68, 68, 68); stroke-opacity: 1; fill: rgb(99, 110, 250); fill-opacity: 0.6; stroke-width: 0; opacity: 1;"/><path class="sankey-link" d="M759.9000000000001,260.01390968763405C946.19943,260.01390968763405 946.19943,261.2936273377973 1132.49886,261.2936273377973L1132.49886,264.0336741762048C946.19943,264.0336741762048 946.19943,262.7539565260415 759.9000000000001,262.7539565260415Z" style="stroke: rgb(68, 68, 68); stroke-opacity: 1; fill: rgb(99, 110, 250); fill-opacity: 0.6; stroke-width: 0; opacity: 1;"/><path class="sankey-link" d="M759.9000000000001,290.1544249101164C946.19943,290.1544249101164 946.19943,304.67058745918143 1132.49886,304.67058745918143L1132.49886,308.7806577167927C946.19943,308.7806577167927 946.19943,294.26449516772766 759.9000000000001,294.26449516772766Z" style="stroke: rgb(68, 68, 68); stroke-opacity: 1; fill: rgb(99, 110, 250); fill-opacity: 0.6; stroke-width: 0; opacity: 1;"/><path class="sankey-link" d="M759.9000000000001,358.2860012534225C946.19943,358.2860012534225 946.19943,358.4902134116171 1132.49886,358.4902134116171L1132.49886,380.41058811887706C946.19943,380.41058811887706 946.19943,380.20637596068246 759.9000000000001,380.20637596068246Z" style="stroke: rgb(68, 68, 68); stroke-opacity: 1; fill: rgb(99, 110, 250); fill-opacity: 0.6; stroke-width: 0; opacity: 1;"/><path class="sankey-link" d="M759.9000000000001,480.218085562556C946.19943,480.218085562556 946.19943,491.02135105716275 1132.49886,491.02135105716275L1132.49886,497.87146815318147C946.19943,497.87146815318147 946.19943,487.0682026585747 759.9000000000001,487.0682026585747Z" style="stroke: rgb(68, 68, 68); stroke-opacity: 1; fill: rgb(99, 110, 250); fill-opacity: 0.6; stroke-width: 0; opacity: 1;"/><path class="sankey-link" d="M759.9000000000001,582.4994623478578C946.19943,582.4994623478578 946.19943,576.8945080317974 1132.49886,576.8945080317974L1132.49886,585.1146485470199C946.19943,585.1146485470199 946.19943,590.7196028630804 759.9000000000001,590.7196028630804Z" style="stroke: rgb(68, 68, 68); stroke-opacity: 1; fill: rgb(99, 110, 250); fill-opacity: 0.6; stroke-width: 0; opacity: 1;"/><path class="sankey-link" d="M759.9000000000001,640.0404459544152C946.19943,640.0404459544152 946.19943,646.5083814361581 1132.49886,646.5083814361581L1132.49886,658.8385922089917C946.19943,658.8385922089917 946.19943,652.3706567272488 759.9000000000001,652.3706567272488Z" style="stroke: rgb(68, 68, 68); stroke-opacity: 1; fill: rgb(99, 110, 250); fill-opacity: 0.6; stroke-width: 0; opacity: 1;"/><path class="sankey-link" d="M759.9000000000001,29.620589108421044C946.19943,29.620589108421044 946.19943,22.878322393376685 1132.49886,22.878322393376685L1132.49886,26.988392650987926C946.19943,26.988392650987926 946.19943,33.730659366032285 759.9000000000001,33.730659366032285Z" style="stroke: rgb(68, 68, 68); stroke-opacity: 1; fill: rgb(239, 85, 59); fill-opacity: 0.6; stroke-width: 0; opacity: 1;"/><path class="sankey-link" d="M759.9000000000001,96.75173664940465C946.19943,96.75173664940465 946.19943,101.92721905201702 1132.49886,101.92721905201702L1132.49886,115.6274532440545C946.19943,115.6274532440545 946.19943,110.45197084144212 759.9000000000001,110.45197084144212Z" style="stroke: rgb(68, 68, 68); stroke-opacity: 1; fill: rgb(239, 85, 59); fill-opacity: 0.6; stroke-width: 0; opacity: 1;"/><path class="sankey-link" d="M759.9000000000001,182.61845169376932C946.19943,182.61845169376932 946.19943,177.228040373388 1132.49886,177.228040373388L1132.49886,179.96808721179548C946.19943,179.96808721179548 946.19943,185.35849853217678 759.9000000000001,185.35849853217678Z" style="stroke: rgb(68, 68, 68); stroke-opacity: 1; fill: rgb(239, 85, 59); fill-opacity: 0.6; stroke-width: 0; opacity: 1;"/><path class="sankey-link" d="M759.9000000000001,218.2390605930667C946.19943,218.2390605930667 946.19943,226.0075238315136 1132.49886,226.0075238315136L1132.49886,230.11759408912485C946.19943,230.11759408912485 946.19943,222.34913085067797 759.9000000000001,222.34913085067797Z" style="stroke: rgb(68, 68, 68); stroke-opacity: 1; fill: rgb(239, 85, 59); fill-opacity: 0.6; stroke-width: 0; opacity: 1;"/><path class="sankey-link" d="M759.9000000000001,262.7539565260415C946.19943,262.7539565260415 946.19943,264.03367417620484 1132.49886,264.03367417620484L1132.49886,265.40369759540863C946.19943,265.40369759540863 946.19943,264.1239799452453 759.9000000000001,264.1239799452453Z" style="stroke: rgb(68, 68, 68); stroke-opacity: 1; fill: rgb(239, 85, 59); fill-opacity: 0.6; stroke-width: 0; opacity: 1;"/><path class="sankey-link" d="M759.9000000000001,294.26449516772766C946.19943,294.26449516772766 946.19943,308.7806577167927 1132.49886,308.7806577167927L1132.49886,310.1506811359965C946.19943,310.1506811359965 946.19943,295.63451858693145 759.9000000000001,295.63451858693145Z" style="stroke: rgb(68, 68, 68); stroke-opacity: 1; fill: rgb(239, 85, 59); fill-opacity: 0.6; stroke-width: 0; opacity: 1;"/><path class="sankey-link" d="M759.9000000000001,380.2063759606824C946.19943,380.2063759606824 946.19943,380.41058811887706 1132.49886,380.41058811887706L1132.49886,396.8508691493221C946.19943,396.8508691493221 946.19943,396.64665699112743 759.9000000000001,396.64665699112743Z" style="stroke: rgb(68, 68, 68); stroke-opacity: 1; fill: rgb(239, 85, 59); fill-opacity: 0.6; stroke-width: 0; opacity: 1;"/><path class="sankey-link" d="M759.9000000000001,487.0682026585747C946.19943,487.0682026585747 946.19943,497.87146815318147 1132.49886,497.87146815318147L1132.49886,504.7215852492002C946.19943,504.7215852492002 946.19943,493.9183197545934 759.9000000000001,493.9183197545934Z" style="stroke: rgb(68, 68, 68); stroke-opacity: 1; fill: rgb(239, 85, 59); fill-opacity: 0.6; stroke-width: 0; opacity: 1;"/><path class="sankey-link" d="M759.9000000000001,590.7196028630804C946.19943,590.7196028630804 946.19943,585.1146485470199 1132.49886,585.1146485470199L1132.49886,589.224718804631C946.19943,589.224718804631 946.19943,594.8296731206915 759.9000000000001,594.8296731206915Z" style="stroke: rgb(68, 68, 68); stroke-opacity: 1; fill: rgb(239, 85, 59); fill-opacity: 0.6; stroke-width: 0; opacity: 1;"/><path class="sankey-link" d="M759.9000000000001,652.370656727249C946.19943,652.370656727249 946.19943,658.8385922089918 1132.49886,658.8385922089918L1132.49886,664.3186858858068C946.19943,664.3186858858068 946.19943,657.8507504040639 759.9000000000001,657.8507504040639Z" style="stroke: rgb(68, 68, 68); stroke-opacity: 1; fill: rgb(239, 85, 59); fill-opacity: 0.6; stroke-width: 0; opacity: 1;"/><path class="sankey-link" d="M759.9000000000001,33.730659366032285C946.19943,33.730659366032285 946.19943,26.988392650987926 1132.49886,26.988392650987926L1132.49886,33.83850974700666C946.19943,33.83850974700666 946.19943,40.58077646205102 759.9000000000001,40.58077646205102Z" style="stroke: rgb(68, 68, 68); stroke-opacity: 1; fill: rgb(254, 203, 82); fill-opacity: 0.6; stroke-width: 0; opacity: 1;"/><path class="sankey-link" d="M759.9000000000001,110.45197084144212C946.19943,110.45197084144212 946.19943,115.6274532440545 1132.49886,115.6274532440545L1132.49886,116.99747666325823C946.19943,116.99747666325823 946.19943,111.82199426064585 759.9000000000001,111.82199426064585Z" style="stroke: rgb(68, 68, 68); stroke-opacity: 1; fill: rgb(254, 203, 82); fill-opacity: 0.6; stroke-width: 0; opacity: 1;"/><path class="sankey-link" d="M759.9000000000001,185.35849853217678C946.19943,185.35849853217678 946.19943,179.96808721179548 1132.49886,179.96808721179548L1132.49886,182.70813405020294C946.19943,182.70813405020294 946.19943,188.09854537058425 759.9000000000001,188.09854537058425Z" style="stroke: rgb(68, 68, 68); stroke-opacity: 1; fill: rgb(254, 203, 82); fill-opacity: 0.6; stroke-width: 0; opacity: 1;"/><path class="sankey-link" d="M759.9000000000001,222.34913085067797C946.19943,222.34913085067797 946.19943,230.11759408912485 1132.49886,230.11759408912485L1132.49886,231.48761750832858C946.19943,231.48761750832858 946.19943,223.7191542698817 759.9000000000001,223.7191542698817Z" style="stroke: rgb(68, 68, 68); stroke-opacity: 1; fill: rgb(254, 203, 82); fill-opacity: 0.6; stroke-width: 0; opacity: 1;"/><path class="sankey-link" d="M759.9000000000001,264.12397994524525C946.19943,264.12397994524525 946.19943,265.4036975954086 1132.49886,265.4036975954086L1132.49886,268.14374443381604C946.19943,268.14374443381604 946.19943,266.8640267836527 759.9000000000001,266.8640267836527Z" style="stroke: rgb(68, 68, 68); stroke-opacity: 1; fill: rgb(254, 203, 82); fill-opacity: 0.6; stroke-width: 0; opacity: 1;"/><path class="sankey-link" d="M759.9000000000001,295.6345185869314C946.19943,295.6345185869314 946.19943,310.1506811359964 1132.49886,310.1506811359964L1132.49886,314.2607513936077C946.19943,314.2607513936077 946.19943,299.74458884454265 759.9000000000001,299.74458884454265Z" style="stroke: rgb(68, 68, 68); stroke-opacity: 1; fill: rgb(254, 203, 82); fill-opacity: 0.6; stroke-width: 0; opacity: 1;"/><path class="sankey-link" d="M759.9000000000001,396.64665699112743C946.19943,396.64665699112743 946.19943,396.850869149322 1132.49886,396.850869149322L1132.49886,403.70098624534074C946.19943,403.70098624534074 946.19943,403.49677408714615 759.9000000000001,403.49677408714615Z" style="stroke: rgb(68, 68, 68); stroke-opacity: 1; fill: rgb(254, 203, 82); fill-opacity: 0.6; stroke-width: 0; opacity: 1;"/><path class="sankey-link" d="M759.9000000000001,493.9183197545934C946.19943,493.9183197545934 946.19943,504.7215852492002 1132.49886,504.7215852492002L1132.49886,506.091608668404C946.19943,506.091608668404 946.19943,495.2883431737972 759.9000000000001,495.2883431737972Z" style="stroke: rgb(68, 68, 68); stroke-opacity: 1; fill: rgb(254, 203, 82); fill-opacity: 0.6; stroke-width: 0; opacity: 1;"/><path class="sankey-link" d="M759.9000000000001,40.58077646205102C946.19943,40.58077646205102 946.19943,33.83850974700666 1132.49886,33.83850974700666L1132.49886,40.688626843025396C946.19943,40.688626843025396 946.19943,47.430893558069755 759.9000000000001,47.430893558069755Z" style="stroke: rgb(68, 68, 68); stroke-opacity: 1; fill: rgb(171, 99, 250); fill-opacity: 0.6; stroke-width: 0; opacity: 1;"/><path class="sankey-link" d="M759.9000000000001,111.82199426064588C946.19943,111.82199426064588 946.19943,116.99747666325825 1132.49886,116.99747666325825L1132.49886,123.84759375927698C946.19943,123.84759375927698 946.19943,118.6721113566646 759.9000000000001,118.6721113566646Z" style="stroke: rgb(68, 68, 68); stroke-opacity: 1; fill: rgb(171, 99, 250); fill-opacity: 0.6; stroke-width: 0; opacity: 1;"/><path class="sankey-link" d="M759.9000000000001,188.09854537058428C946.19943,188.09854537058428 946.19943,182.70813405020297 1132.49886,182.70813405020297L1132.49886,184.0781574694067C946.19943,184.0781574694067 946.19943,189.468568789788 759.9000000000001,189.468568789788Z" style="stroke: rgb(68, 68, 68); stroke-opacity: 1; fill: rgb(171, 99, 250); fill-opacity: 0.6; stroke-width: 0; opacity: 1;"/><path class="sankey-link" d="M759.9000000000001,223.7191542698817C946.19943,223.7191542698817 946.19943,231.48761750832858 1132.49886,231.48761750832858L1132.49886,234.22766434673605C946.19943,234.22766434673605 946.19943,226.45920110828916 759.9000000000001,226.45920110828916Z" style="stroke: rgb(68, 68, 68); stroke-opacity: 1; fill: rgb(171, 99, 250); fill-opacity: 0.6; stroke-width: 0; opacity: 1;"/><path class="sankey-link" d="M759.9000000000001,266.8640267836528C946.19943,266.8640267836528 946.19943,268.1437444338161 1132.49886,268.1437444338161L1132.49886,272.25381469142735C946.19943,272.25381469142735 946.19943,270.97409704126403 759.9000000000001,270.97409704126403Z" style="stroke: rgb(68, 68, 68); stroke-opacity: 1; fill: rgb(171, 99, 250); fill-opacity: 0.6; stroke-width: 0; opacity: 1;"/><path class="sankey-link" d="M759.9000000000001,299.74458884454265C946.19943,299.74458884454265 946.19943,314.2607513936077 1132.49886,314.2607513936077L1132.49886,315.63077481281147C946.19943,315.63077481281147 946.19943,301.11461226374644 759.9000000000001,301.11461226374644Z" style="stroke: rgb(68, 68, 68); stroke-opacity: 1; fill: rgb(171, 99, 250); fill-opacity: 0.6; stroke-width: 0; opacity: 1;"/><path class="sankey-link" d="M759.9000000000001,403.49677408714615C946.19943,403.49677408714615 946.19943,403.70098624534074 1132.49886,403.70098624534074L1132.49886,416.0311970181745C946.19943,416.0311970181745 946.19943,415.8269848599799 759.9000000000001,415.8269848599799Z" style="stroke: rgb(68, 68, 68); stroke-opacity: 1; fill: rgb(171, 99, 250); fill-opacity: 0.6; stroke-width: 0; opacity: 1;"/><path class="sankey-link" d="M759.9000000000001,495.2883431737972C946.19943,495.2883431737972 946.19943,506.091608668404 1132.49886,506.091608668404L1132.49886,511.5717023452189C946.19943,511.5717023452189 946.19943,500.76843685061215 759.9000000000001,500.76843685061215Z" style="stroke: rgb(68, 68, 68); stroke-opacity: 1; fill: rgb(171, 99, 250); fill-opacity: 0.6; stroke-width: 0; opacity: 1;"/><path class="sankey-link" d="M759.9000000000001,594.8296731206916C946.19943,594.8296731206916 946.19943,589.2247188046312 1132.49886,589.2247188046312L1132.49886,594.7048124814461C946.19943,594.7048124814461 946.19943,600.3097667975065 759.9000000000001,600.3097667975065Z" style="stroke: rgb(68, 68, 68); stroke-opacity: 1; fill: rgb(171, 99, 250); fill-opacity: 0.6; stroke-width: 0; opacity: 1;"/><path class="sankey-link" d="M759.9000000000001,657.850750404064C946.19943,657.850750404064 946.19943,664.3186858858069 1132.49886,664.3186858858069L1132.49886,668.428756143418C946.19943,668.428756143418 946.19943,661.9608206616751 759.9000000000001,661.9608206616751Z" style="stroke: rgb(68, 68, 68); stroke-opacity: 1; fill: rgb(171, 99, 250); fill-opacity: 0.6; stroke-width: 0; opacity: 1;"/><path class="sankey-link" d="M759.9000000000001,47.430893558069755C946.19943,47.430893558069755 946.19943,40.688626843025396 1132.49886,40.688626843025396L1132.49886,51.64881419665537C946.19943,51.64881419665537 946.19943,58.39108091169973 759.9000000000001,58.39108091169973Z" style="stroke: rgb(68, 68, 68); stroke-opacity: 1; fill: rgb(0, 204, 150); fill-opacity: 0.6; stroke-width: 0; opacity: 1;"/><path class="sankey-link" d="M759.9000000000001,118.6721113566646C946.19943,118.6721113566646 946.19943,123.84759375927698 1132.49886,123.84759375927698L1132.49886,134.80778111290695C946.19943,134.80778111290695 946.19943,129.63229871029458 759.9000000000001,129.63229871029458Z" style="stroke: rgb(68, 68, 68); stroke-opacity: 1; fill: rgb(0, 204, 150); fill-opacity: 0.6; stroke-width: 0; opacity: 1;"/><path class="sankey-link" d="M759.9000000000001,189.46856878978804C946.19943,189.46856878978804 946.19943,184.07815746940673 1132.49886,184.07815746940673L1132.49886,188.188227727018C946.19943,188.188227727018 946.19943,193.5786390473993 759.9000000000001,193.5786390473993Z" style="stroke: rgb(68, 68, 68); stroke-opacity: 1; fill: rgb(0, 204, 150); fill-opacity: 0.6; stroke-width: 0; opacity: 1;"/><path class="sankey-link" d="M759.9000000000001,226.4592011082892C946.19943,226.4592011082892 946.19943,234.22766434673608 1132.49886,234.22766434673608L1132.49886,235.5976877659398C946.19943,235.5976877659398 946.19943,227.82922452749293 759.9000000000001,227.82922452749293Z" style="stroke: rgb(68, 68, 68); stroke-opacity: 1; fill: rgb(0, 204, 150); fill-opacity: 0.6; stroke-width: 0; opacity: 1;"/><path class="sankey-link" d="M759.9000000000001,270.97409704126403C946.19943,270.97409704126403 946.19943,272.25381469142735 1132.49886,272.25381469142735L1132.49886,277.7339083682423C946.19943,277.7339083682423 946.19943,276.45419071807896 759.9000000000001,276.45419071807896Z" style="stroke: rgb(68, 68, 68); stroke-opacity: 1; fill: rgb(0, 204, 150); fill-opacity: 0.6; stroke-width: 0; opacity: 1;"/><path class="sankey-link" d="M759.9000000000001,301.1146122637464C946.19943,301.1146122637464 946.19943,315.6307748128114 1132.49886,315.6307748128114L1132.49886,317.0007982320152C946.19943,317.0007982320152 946.19943,302.48463568295017 759.9000000000001,302.48463568295017Z" style="stroke: rgb(68, 68, 68); stroke-opacity: 1; fill: rgb(0, 204, 150); fill-opacity: 0.6; stroke-width: 0; opacity: 1;"/><path class="sankey-link" d="M759.9000000000001,415.82698485997986C946.19943,415.82698485997986 946.19943,416.03119701817445 1132.49886,416.03119701817445L1132.49886,444.8016888214531C946.19943,444.8016888214531 946.19943,444.59747666325853 759.9000000000001,444.59747666325853Z" style="stroke: rgb(68, 68, 68); stroke-opacity: 1; fill: rgb(0, 204, 150); fill-opacity: 0.6; stroke-width: 0; opacity: 1;"/><path class="sankey-link" d="M759.9000000000001,500.76843685061215C946.19943,500.76843685061215 946.19943,511.5717023452189 1132.49886,511.5717023452189L1132.49886,526.6419599564601C946.19943,526.6419599564601 946.19943,515.8386944618534 759.9000000000001,515.8386944618534Z" style="stroke: rgb(68, 68, 68); stroke-opacity: 1; fill: rgb(0, 204, 150); fill-opacity: 0.6; stroke-width: 0; opacity: 1;"/><path class="sankey-link" d="M759.9000000000001,600.3097667975067C946.19943,600.3097667975067 946.19943,594.7048124814462 1132.49886,594.7048124814462L1132.49886,602.9249529966687C946.19943,602.9249529966687 946.19943,608.5299073127292 759.9000000000001,608.5299073127292Z" style="stroke: rgb(68, 68, 68); stroke-opacity: 1; fill: rgb(0, 204, 150); fill-opacity: 0.6; stroke-width: 0; opacity: 1;"/><path class="sankey-link" d="M759.9000000000001,661.9608206616753C946.19943,661.9608206616753 946.19943,668.4287561434181 1132.49886,668.4287561434181L1132.49886,683.4990137546594C946.19943,683.4990137546594 946.19943,677.0310782729165 759.9000000000001,677.0310782729165Z" style="stroke: rgb(68, 68, 68); stroke-opacity: 1; fill: rgb(0, 204, 150); fill-opacity: 0.6; stroke-width: 0; opacity: 1;"/><path class="sankey-link" d="M759.9000000000001,58.39108091169974C946.19943,58.39108091169974 946.19943,51.64881419665537 1132.49886,51.64881419665537L1132.49886,66.7190718078966C946.19943,66.7190718078966 946.19943,73.46133852294096 759.9000000000001,73.46133852294096Z" style="stroke: rgb(68, 68, 68); stroke-opacity: 1; fill: rgb(255, 161, 90); fill-opacity: 0.6; stroke-width: 0; opacity: 1;"/><path class="sankey-link" d="M759.9000000000001,129.63229871029458C946.19943,129.63229871029458 946.19943,134.80778111290695 1132.49886,134.80778111290695L1132.49886,149.87803872414818C946.19943,149.87803872414818 946.19943,144.7025563215358 759.9000000000001,144.7025563215358Z" style="stroke: rgb(68, 68, 68); stroke-opacity: 1; fill: rgb(255, 161, 90); fill-opacity: 0.6; stroke-width: 0; opacity: 1;"/><path class="sankey-link" d="M759.9000000000001,193.5786390473993C946.19943,193.5786390473993 946.19943,188.188227727018 1132.49886,188.188227727018L1132.49886,201.88846191905543C946.19943,201.88846191905543 946.19943,207.27887323943673 759.9000000000001,207.27887323943673Z" style="stroke: rgb(68, 68, 68); stroke-opacity: 1; fill: rgb(255, 161, 90); fill-opacity: 0.6; stroke-width: 0; opacity: 1;"/><path class="sankey-link" d="M759.9000000000001,227.82922452749295C946.19943,227.82922452749295 946.19943,235.59768776593984 1132.49886,235.59768776593984L1132.49886,242.44780486195856C946.19943,242.44780486195856 946.19943,234.67934162351168 759.9000000000001,234.67934162351168Z" style="stroke: rgb(68, 68, 68); stroke-opacity: 1; fill: rgb(255, 161, 90); fill-opacity: 0.6; stroke-width: 0; opacity: 1;"/><path class="sankey-link" d="M759.9000000000001,276.454190718079C946.19943,276.454190718079 946.19943,277.73390836824234 1132.49886,277.73390836824234L1132.49886,285.95404888346485C946.19943,285.95404888346485 946.19943,284.67433123330153 759.9000000000001,284.67433123330153Z" style="stroke: rgb(68, 68, 68); stroke-opacity: 1; fill: rgb(255, 161, 90); fill-opacity: 0.6; stroke-width: 0; opacity: 1;"/><path class="sankey-link" d="M759.9000000000001,302.48463568295006C946.19943,302.48463568295006 946.19943,317.0007982320151 1132.49886,317.0007982320151L1132.49886,333.4410792624601C946.19943,333.4410792624601 946.19943,318.9249167133951 759.9000000000001,318.9249167133951Z" style="stroke: rgb(68, 68, 68); stroke-opacity: 1; fill: rgb(255, 161, 90); fill-opacity: 0.6; stroke-width: 0; opacity: 1;"/><path class="sankey-link" d="M759.9000000000001,444.59747666325853C946.19943,444.59747666325853 946.19943,444.8016888214531 1132.49886,444.8016888214531L1132.49886,470.83213378632433C946.19943,470.83213378632433 946.19943,470.62792162812974 759.9000000000001,470.62792162812974Z" style="stroke: rgb(68, 68, 68); stroke-opacity: 1; fill: rgb(255, 161, 90); fill-opacity: 0.6; stroke-width: 0; opacity: 1;"/><path class="sankey-link" d="M759.9000000000001,515.8386944618534C946.19943,515.8386944618534 946.19943,526.6419599564601 1132.49886,526.6419599564601L1132.49886,541.7122175677014C946.19943,541.7122175677014 946.19943,530.9089520730946 759.9000000000001,530.9089520730946Z" style="stroke: rgb(68, 68, 68); stroke-opacity: 1; fill: rgb(255, 161, 90); fill-opacity: 0.6; stroke-width: 0; opacity: 1;"/><path class="sankey-link" d="M759.9000000000001,608.5299073127292C946.19943,608.5299073127292 946.19943,602.9249529966687 1132.49886,602.9249529966687L1132.49886,616.6251871887061C946.19943,616.6251871887061 946.19943,622.2301415047666 759.9000000000001,622.2301415047666Z" style="stroke: rgb(68, 68, 68); stroke-opacity: 1; fill: rgb(255, 161, 90); fill-opacity: 0.6; stroke-width: 0; opacity: 1;"/><path class="sankey-link" d="M759.9000000000001,677.0310782729165C946.19943,677.0310782729165 946.19943,683.4990137546594 1132.49886,683.4990137546594L1132.49886,699.9392947851044C946.19943,699.9392947851044 946.19943,693.4713593033615 759.9000000000001,693.4713593033615Z" style="stroke: rgb(68, 68, 68); stroke-opacity: 1; fill: rgb(255, 161, 90); fill-opacity: 0.6; stroke-width: 0; opacity: 1;"/><path class="sankey-link" d="M759.9000000000001,73.46133852294093C946.19943,73.46133852294093 946.19943,66.7190718078966 1132.49886,66.7190718078966L1132.49886,70.82914206550785C946.19943,70.82914206550785 946.19943,77.57140878055219 759.9000000000001,77.57140878055219Z" style="stroke: rgb(68, 68, 68); stroke-opacity: 1; fill: rgb(255, 151, 255); fill-opacity: 0.6; stroke-width: 0; opacity: 1;"/><path class="sankey-link" d="M759.9000000000001,144.70255632153578C946.19943,144.70255632153578 946.19943,149.87803872414815 1132.49886,149.87803872414815L1132.49886,155.35813240096314C946.19943,155.35813240096314 946.19943,150.18264999835077 759.9000000000001,150.18264999835077Z" style="stroke: rgb(68, 68, 68); stroke-opacity: 1; fill: rgb(255, 151, 255); fill-opacity: 0.6; stroke-width: 0; opacity: 1;"/><path class="sankey-link" d="M759.9000000000001,207.27887323943676C946.19943,207.27887323943676 946.19943,201.88846191905546 1132.49886,201.88846191905546L1132.49886,205.9985321766667C946.19943,205.9985321766667 946.19943,211.38894349704802 759.9000000000001,211.38894349704802Z" style="stroke: rgb(68, 68, 68); stroke-opacity: 1; fill: rgb(255, 151, 255); fill-opacity: 0.6; stroke-width: 0; opacity: 1;"/><path class="sankey-link" d="M759.9000000000001,234.67934162351168C946.19943,234.67934162351168 946.19943,242.44780486195856 1132.49886,242.44780486195856L1132.49886,246.55787511956981C946.19943,246.55787511956981 946.19943,238.78941188112293 759.9000000000001,238.78941188112293Z" style="stroke: rgb(68, 68, 68); stroke-opacity: 1; fill: rgb(255, 151, 255); fill-opacity: 0.6; stroke-width: 0; opacity: 1;"/><path class="sankey-link" d="M759.9000000000001,284.6743312333015C946.19943,284.6743312333015 946.19943,285.9540488834648 1132.49886,285.9540488834648L1132.49886,288.69409572187226C946.19943,288.69409572187226 946.19943,287.41437807170894 759.9000000000001,287.41437807170894Z" style="stroke: rgb(68, 68, 68); stroke-opacity: 1; fill: rgb(255, 151, 255); fill-opacity: 0.6; stroke-width: 0; opacity: 1;"/><path class="sankey-link" d="M759.9000000000001,470.62792162812974C946.19943,470.62792162812974 946.19943,470.83213378632433 1132.49886,470.83213378632433L1132.49886,474.9422040439356C946.19943,474.9422040439356 946.19943,474.737991885741 759.9000000000001,474.737991885741Z" style="stroke: rgb(68, 68, 68); stroke-opacity: 1; fill: rgb(255, 151, 255); fill-opacity: 0.6; stroke-width: 0; opacity: 1;"/><path class="sankey-link" d="M759.9000000000001,530.9089520730946C946.19943,530.9089520730946 946.19943,541.7122175677014 1132.49886,541.7122175677014L1132.49886,551.3023815021277C946.19943,551.3023815021277 946.19943,540.4991160075209 759.9000000000001,540.4991160075209Z" style="stroke: rgb(68, 68, 68); stroke-opacity: 1; fill: rgb(255, 151, 255); fill-opacity: 0.6; stroke-width: 0; opacity: 1;"/><path class="sankey-link" d="M759.9000000000001,622.2301415047666C946.19943,622.2301415047666 946.19943,616.6251871887061 1132.49886,616.6251871887061L1132.49886,626.2153511231325C946.19943,626.2153511231325 946.19943,631.8203054391929 759.9000000000001,631.8203054391929Z" style="stroke: rgb(68, 68, 68); stroke-opacity: 1; fill: rgb(255, 151, 255); fill-opacity: 0.6; stroke-width: 0; opacity: 1;"/><path class="sankey-link" d="M759.9000000000001,693.4713593033614C946.19943,693.4713593033614 946.19943,699.9392947851043 1132.49886,699.9392947851043L1132.49886,704.0493650427154C946.19943,704.0493650427154 946.19943,697.5814295609725 759.9000000000001,697.5814295609725Z" style="stroke: rgb(68, 68, 68); stroke-opacity: 1; fill: rgb(255, 151, 255); fill-opacity: 0.6; stroke-width: 0; opacity: 1;"/><path class="sankey-link" d="M759.9000000000001,150.18264999835077C946.19943,150.18264999835077 946.19943,155.35813240096314 1132.49886,155.35813240096314L1132.49886,156.72815582016688C946.19943,156.72815582016688 946.19943,151.5526734175545 759.9000000000001,151.5526734175545Z" style="stroke: rgb(68, 68, 68); stroke-opacity: 1; fill: rgb(255, 102, 146); fill-opacity: 0.6; stroke-width: 0; opacity: 1;"/><path class="sankey-link" d="M759.9000000000001,211.388943497048C946.19943,211.388943497048 946.19943,205.99853217666669 1132.49886,205.99853217666669L1132.49886,208.73857901507415C946.19943,208.73857901507415 946.19943,214.12899033545546 759.9000000000001,214.12899033545546Z" style="stroke: rgb(68, 68, 68); stroke-opacity: 1; fill: rgb(255, 102, 146); fill-opacity: 0.6; stroke-width: 0; opacity: 1;"/><path class="sankey-link" d="M759.9000000000001,238.78941188112293C946.19943,238.78941188112293 946.19943,246.55787511956981 1132.49886,246.55787511956981L1132.49886,247.92789853877355C946.19943,247.92789853877355 946.19943,240.15943530032666 759.9000000000001,240.15943530032666Z" style="stroke: rgb(68, 68, 68); stroke-opacity: 1; fill: rgb(255, 102, 146); fill-opacity: 0.6; stroke-width: 0; opacity: 1;"/><path class="sankey-link" d="M759.9000000000001,287.41437807170894C946.19943,287.41437807170894 946.19943,288.69409572187226 1132.49886,288.69409572187226L1132.49886,290.06411914107605C946.19943,290.06411914107605 946.19943,288.7844014909127 759.9000000000001,288.7844014909127Z" style="stroke: rgb(68, 68, 68); stroke-opacity: 1; fill: rgb(255, 102, 146); fill-opacity: 0.6; stroke-width: 0; opacity: 1;"/><path class="sankey-link" d="M759.9000000000001,318.9249167133951C946.19943,318.9249167133951 946.19943,333.4410792624601 1132.49886,333.4410792624601L1132.49886,336.1811261008676C946.19943,336.1811261008676 946.19943,321.66496355180254 759.9000000000001,321.66496355180254Z" style="stroke: rgb(68, 68, 68); stroke-opacity: 1; fill: rgb(255, 102, 146); fill-opacity: 0.6; stroke-width: 0; opacity: 1;"/><path class="sankey-link" d="M759.9000000000001,474.737991885741C946.19943,474.737991885741 946.19943,474.9422040439356 1132.49886,474.9422040439356L1132.49886,476.3122274631394C946.19943,476.3122274631394 946.19943,476.1080153049448 759.9000000000001,476.1080153049448Z" style="stroke: rgb(68, 68, 68); stroke-opacity: 1; fill: rgb(255, 102, 146); fill-opacity: 0.6; stroke-width: 0; opacity: 1;"/><path class="sankey-link" d="M759.9000000000001,540.4991160075208C946.19943,540.4991160075208 946.19943,551.3023815021276 1132.49886,551.3023815021276L1132.49886,555.4124517597387C946.19943,555.4124517597387 946.19943,544.6091862651319 759.9000000000001,544.6091862651319Z" style="stroke: rgb(68, 68, 68); stroke-opacity: 1; fill: rgb(255, 102, 146); fill-opacity: 0.6; stroke-width: 0; opacity: 1;"/><path class="sankey-link" d="M759.9000000000001,631.8203054391928C946.19943,631.8203054391928 946.19943,626.2153511231323 1132.49886,626.2153511231323L1132.49886,628.9553979615399C946.19943,628.9553979615399 946.19943,634.5603522776004 759.9000000000001,634.5603522776004Z" style="stroke: rgb(68, 68, 68); stroke-opacity: 1; fill: rgb(255, 102, 146); fill-opacity: 0.6; stroke-width: 0; opacity: 1;"/><path class="sankey-link" d="M759.9000000000001,697.5814295609727C946.19943,697.5814295609727 946.19943,704.0493650427155 1132.49886,704.0493650427155L1132.49886,705.4193884619193C946.19943,705.4193884619193 946.19943,698.9514529801764 759.9000000000001,698.9514529801764Z" style="stroke: rgb(68, 68, 68); stroke-opacity: 1; fill: rgb(255, 102, 146); fill-opacity: 0.6; stroke-width: 0; opacity: 1;"/><path class="sankey-link" d="M759.9000000000001,77.57140878055219C946.19943,77.57140878055219 946.19943,70.82914206550785 1132.49886,70.82914206550785L1132.49886,72.19916548471159C946.19943,72.19916548471159 946.19943,78.94143219975592 759.9000000000001,78.94143219975592Z" style="stroke: rgb(68, 68, 68); stroke-opacity: 1; fill: rgb(182, 232, 128); fill-opacity: 0.6; stroke-width: 0; opacity: 1;"/><path class="sankey-link" d="M759.9000000000001,544.609186265132C946.19943,544.609186265132 946.19943,555.4124517597388 1132.49886,555.4124517597388L1132.49886,559.52252201735C946.19943,559.52252201735 946.19943,548.7192565227432 759.9000000000001,548.7192565227432Z" style="stroke: rgb(68, 68, 68); stroke-opacity: 1; fill: rgb(182, 232, 128); fill-opacity: 0.6; stroke-width: 0; opacity: 1;"/><path class="sankey-link" d="M759.9000000000001,634.5603522776003C946.19943,634.5603522776003 946.19943,628.9553979615398 1132.49886,628.9553979615398L1132.49886,631.6954447999474C946.19943,631.6954447999474 946.19943,637.3003991160078 759.9000000000001,637.3003991160078Z" style="stroke: rgb(68, 68, 68); stroke-opacity: 1; fill: rgb(182, 232, 128); fill-opacity: 0.6; stroke-width: 0; opacity: 1;"/><path class="sankey-link" d="M759.9000000000001,698.9514529801764C946.19943,698.9514529801764 946.19943,705.4193884619193 1132.49886,705.4193884619193L1132.49886,706.7894118811231C946.19943,706.7894118811231 946.19943,700.3214763993802 759.9000000000001,700.3214763993802Z" style="stroke: rgb(68, 68, 68); stroke-opacity: 1; fill: rgb(182, 232, 128); fill-opacity: 0.6; stroke-width: 0; opacity: 1;"/></g><g class="sankey-node-set" style="cursor: ns-resize;"><g class="sankey-node" transform="translate(-7.499,19.480)" style="opacity: 1;"><rect class="node-rect" width="15" height="23.29039812646374" style="stroke-width: 0.5; stroke: rgb(0, 0, 0); stroke-opacity: 1; fill: rgb(128, 128, 128); fill-opacity: 1;"/><text class="node-label" data-notex="1" x="0" y="0" text-anchor="start" transform="translate(18.25,15.845199063231869)" style="cursor: default; font-family: 'Open Sans', verdana, arial, sans-serif; font-size: 12px; fill: rgb(42, 63, 95); fill-opacity: 1; white-space: pre; text-shadow: white 1px 1px 1px, white -1px -1px 1px, white 1px -1px 1px, white -1px 1px 1px;">21271R</text></g><g class="sankey-node" transform="translate(-7.499,99.905)" style="opacity: 1;"><rect class="node-rect" width="15" height="172.62295081967198" style="stroke-width: 0.5; stroke: rgb(0, 0, 0); stroke-opacity: 1; fill: rgb(128, 128, 128); fill-opacity: 1;"/><text class="node-label" data-notex="1" x="0" y="0" text-anchor="start" transform="translate(18.25,90.511475409836)" style="cursor: default; font-family: 'Open Sans', verdana, arial, sans-serif; font-size: 12px; fill: rgb(42, 63, 95); fill-opacity: 1; white-space: pre; text-shadow: white 1px 1px 1px, white -1px -1px 1px, white 1px -1px 1px, white -1px 1px 1px;">21272R</text></g><g class="sankey-node" transform="translate(-7.499,334.443)" style="opacity: 1;"><rect class="node-rect" width="15" height="45.210772833723695" style="stroke-width: 0.5; stroke: rgb(0, 0, 0); stroke-opacity: 1; fill: rgb(128, 128, 128); fill-opacity: 1;"/><text class="node-label" data-notex="1" x="0" y="0" text-anchor="start" transform="translate(18.25,26.805386416861847)" style="cursor: default; font-family: 'Open Sans', verdana, arial, sans-serif; font-size: 12px; fill: rgb(42, 63, 95); fill-opacity: 1; white-space: pre; text-shadow: white 1px 1px 1px, white -1px -1px 1px, white 1px -1px 1px, white -1px 1px 1px;">21965RL</text></g><g class="sankey-node" transform="translate(-7.499,425.731)" style="opacity: 1;"><rect class="node-rect" width="15" height="100.01170960187358" style="stroke-width: 0.5; stroke: rgb(0, 0, 0); stroke-opacity: 1; fill: rgb(128, 128, 128); fill-opacity: 1;"/><text class="node-label" data-notex="1" x="0" y="0" text-anchor="start" transform="translate(18.25,54.20585480093679)" style="cursor: default; font-family: 'Open Sans', verdana, arial, sans-serif; font-size: 12px; fill: rgb(42, 63, 95); fill-opacity: 1; white-space: pre; text-shadow: white 1px 1px 1px, white -1px -1px 1px, white 1px -1px 1px, white -1px 1px 1px;">22384</text></g><g class="sankey-node" transform="translate(-7.499,583.773)" style="opacity: 1;"><rect class="node-rect" width="15" height="100.01170960187346" style="stroke-width: 0.5; stroke: rgb(0, 0, 0); stroke-opacity: 1; fill: rgb(128, 128, 128); fill-opacity: 1;"/><text class="node-label" data-notex="1" x="0" y="0" text-anchor="start" transform="translate(18.25,54.205854800936734)" style="cursor: default; font-family: 'Open Sans', verdana, arial, sans-serif; font-size: 12px; fill: rgb(42, 63, 95); fill-opacity: 1; white-space: pre; text-shadow: white 1px 1px 1px, white -1px -1px 1px, white 1px -1px 1px, white -1px 1px 1px;">22670</text></g><g class="sankey-node" transform="translate(744.900,20.030)" style="opacity: 1;"><rect class="node-rect" width="15" height="131.52224824355966" style="stroke-width: 0.5; stroke: rgb(0, 0, 0); stroke-opacity: 1; fill: rgb(128, 128, 128); fill-opacity: 1;"/><text class="node-label" data-notex="1" x="0" y="0" text-anchor="start" transform="translate(18.25,69.96112412177983)" style="cursor: default; font-family: 'Open Sans', verdana, arial, sans-serif; font-size: 12px; fill: rgb(42, 63, 95); fill-opacity: 1; white-space: pre; text-shadow: white 1px 1px 1px, white -1px -1px 1px, white 1px -1px 1px, white -1px 1px 1px;">dig</text></g><g class="sankey-node" transform="translate(744.900,174.398)" style="opacity: 1;"><rect class="node-rect" width="15" height="65.76112412177963" style="stroke-width: 0.5; stroke: rgb(0, 0, 0); stroke-opacity: 1; fill: rgb(128, 128, 128); fill-opacity: 1;"/><text class="node-label" data-notex="1" x="0" y="0" text-anchor="start" transform="translate(18.25,37.08056206088982)" style="cursor: default; font-family: 'Open Sans', verdana, arial, sans-serif; font-size: 12px; fill: rgb(42, 63, 95); fill-opacity: 1; white-space: pre; text-shadow: white 1px 1px 1px, white -1px -1px 1px, white 1px -1px 1px, white -1px 1px 1px;">groom_front</text></g><g class="sankey-node" transform="translate(744.900,260.014)" style="opacity: 1;"><rect class="node-rect" width="15" height="61.65105386416849" style="stroke-width: 0.5; stroke: rgb(0, 0, 0); stroke-opacity: 1; fill: rgb(128, 128, 128); fill-opacity: 1;"/><text class="node-label" data-notex="1" x="0" y="0" text-anchor="start" transform="translate(18.25,35.02552693208425)" style="cursor: default; font-family: 'Open Sans', verdana, arial, sans-serif; font-size: 12px; fill: rgb(42, 63, 95); fill-opacity: 1; white-space: pre; text-shadow: white 1px 1px 1px, white -1px -1px 1px, white 1px -1px 1px, white -1px 1px 1px;">still</text></g><g class="sankey-node" transform="translate(744.900,347.326)" style="opacity: 1;"><rect class="node-rect" width="15" height="201.3934426229501" style="stroke-width: 0.5; stroke: rgb(0, 0, 0); stroke-opacity: 1; fill: rgb(128, 128, 128); fill-opacity: 1;"/><text class="node-label" data-notex="1" x="0" y="0" text-anchor="start" transform="translate(18.25,104.89672131147505)" style="cursor: default; font-family: 'Open Sans', verdana, arial, sans-serif; font-size: 12px; fill: rgb(42, 63, 95); fill-opacity: 1; white-space: pre; text-shadow: white 1px 1px 1px, white -1px -1px 1px, white 1px -1px 1px, white -1px 1px 1px;">walk</text></g><g class="sankey-node" transform="translate(744.900,577.019)" style="opacity: 1;"><rect class="node-rect" width="15" height="123.30210772833698" style="stroke-width: 0.5; stroke: rgb(0, 0, 0); stroke-opacity: 1; fill: rgb(128, 128, 128); fill-opacity: 1;"/><text class="node-label" data-notex="1" x="0" y="0" text-anchor="start" transform="translate(18.25,65.85105386416849)" style="cursor: default; font-family: 'Open Sans', verdana, arial, sans-serif; font-size: 12px; fill: rgb(42, 63, 95); fill-opacity: 1; white-space: pre; text-shadow: white 1px 1px 1px, white -1px -1px 1px, white 1px -1px 1px, white -1px 1px 1px;">wallclimb</text></g><g class="sankey-node" transform="translate(1132.499,13.288)" style="opacity: 1;"><rect class="node-rect" width="15" height="58.911007025761045" style="stroke-width: 0.5; stroke: rgb(0, 0, 0); stroke-opacity: 1; fill: rgb(128, 128, 128); fill-opacity: 1;"/><text class="node-label" data-notex="1" x="0" y="0" text-anchor="end" transform="translate(-3.25,33.65550351288052)" style="cursor: default; font-family: 'Open Sans', verdana, arial, sans-serif; font-size: 12px; fill: rgb(42, 63, 95); fill-opacity: 1; white-space: pre; text-shadow: white 1px 1px 1px, white -1px -1px 1px, white 1px -1px 1px, white -1px 1px 1px;">dig-activated</text></g><g class="sankey-node" transform="translate(1132.499,84.117)" style="opacity: 1;"><rect class="node-rect" width="15" height="72.61124121779856" style="stroke-width: 0.5; stroke: rgb(0, 0, 0); stroke-opacity: 1; fill: rgb(128, 128, 128); fill-opacity: 1;"/><text class="node-label" data-notex="1" x="0" y="0" text-anchor="end" transform="translate(-3.25,40.50562060889928)" style="cursor: default; font-family: 'Open Sans', verdana, arial, sans-serif; font-size: 12px; fill: rgb(42, 63, 95); fill-opacity: 1; white-space: pre; text-shadow: white 1px 1px 1px, white -1px -1px 1px, white 1px -1px 1px, white -1px 1px 1px;">dig-suppressed</text></g><g class="sankey-node" transform="translate(1132.499,169.008)" style="opacity: 1;"><rect class="node-rect" width="15" height="39.73067915690848" style="stroke-width: 0.5; stroke: rgb(0, 0, 0); stroke-opacity: 1; fill: rgb(128, 128, 128); fill-opacity: 1;"/><text class="node-label" data-notex="1" x="0" y="0" text-anchor="end" transform="translate(-3.25,24.06533957845424)" style="cursor: default; font-family: 'Open Sans', verdana, arial, sans-serif; font-size: 12px; fill: rgb(42, 63, 95); fill-opacity: 1; white-space: pre; text-shadow: white 1px 1px 1px, white -1px -1px 1px, white 1px -1px 1px, white -1px 1px 1px;">groom_front-activated</text></g><g class="sankey-node" transform="translate(1132.499,221.897)" style="opacity: 1;"><rect class="node-rect" width="15" height="26.030444964871435" style="stroke-width: 0.5; stroke: rgb(0, 0, 0); stroke-opacity: 1; fill: rgb(128, 128, 128); fill-opacity: 1;"/><text class="node-label" data-notex="1" x="0" y="0" text-anchor="end" transform="translate(-3.25,17.215222482435717)" style="cursor: default; font-family: 'Open Sans', verdana, arial, sans-serif; font-size: 12px; fill: rgb(42, 63, 95); fill-opacity: 1; white-space: pre; text-shadow: white 1px 1px 1px, white -1px -1px 1px, white 1px -1px 1px, white -1px 1px 1px;">groom_front-suppressed</text></g><g class="sankey-node" transform="translate(1132.499,261.294)" style="opacity: 1;"><rect class="node-rect" width="15" height="28.770491803278674" style="stroke-width: 0.5; stroke: rgb(0, 0, 0); stroke-opacity: 1; fill: rgb(128, 128, 128); fill-opacity: 1;"/><text class="node-label" data-notex="1" x="0" y="0" text-anchor="end" transform="translate(-3.25,18.585245901639336)" style="cursor: default; font-family: 'Open Sans', verdana, arial, sans-serif; font-size: 12px; fill: rgb(42, 63, 95); fill-opacity: 1; white-space: pre; text-shadow: white 1px 1px 1px, white -1px -1px 1px, white 1px -1px 1px, white -1px 1px 1px;">still-activated</text></g><g class="sankey-node" transform="translate(1132.499,303.301)" style="opacity: 1;"><rect class="node-rect" width="15" height="32.880562060889815" style="stroke-width: 0.5; stroke: rgb(0, 0, 0); stroke-opacity: 1; fill: rgb(128, 128, 128); fill-opacity: 1;"/><text class="node-label" data-notex="1" x="0" y="0" text-anchor="end" transform="translate(-3.25,20.640281030444907)" style="cursor: default; font-family: 'Open Sans', verdana, arial, sans-serif; font-size: 12px; fill: rgb(42, 63, 95); fill-opacity: 1; white-space: pre; text-shadow: white 1px 1px 1px, white -1px -1px 1px, white 1px -1px 1px, white -1px 1px 1px;">still-suppressed</text></g><g class="sankey-node" transform="translate(1132.499,347.530)" style="opacity: 1;"><rect class="node-rect" width="15" height="128.7822014051526" style="stroke-width: 0.5; stroke: rgb(0, 0, 0); stroke-opacity: 1; fill: rgb(128, 128, 128); fill-opacity: 1;"/><text class="node-label" data-notex="1" x="0" y="0" text-anchor="end" transform="translate(-3.25,68.5911007025763)" style="cursor: default; font-family: 'Open Sans', verdana, arial, sans-serif; font-size: 12px; fill: rgb(42, 63, 95); fill-opacity: 1; white-space: pre; text-shadow: white 1px 1px 1px, white -1px -1px 1px, white 1px -1px 1px, white -1px 1px 1px;">walk-activated</text></g><g class="sankey-node" transform="translate(1132.499,486.911)" style="opacity: 1;"><rect class="node-rect" width="15" height="72.61124121779858" style="stroke-width: 0.5; stroke: rgb(0, 0, 0); stroke-opacity: 1; fill: rgb(128, 128, 128); fill-opacity: 1;"/><text class="node-label" data-notex="1" x="0" y="0" text-anchor="end" transform="translate(-3.25,40.50562060889929)" style="cursor: default; font-family: 'Open Sans', verdana, arial, sans-serif; font-size: 12px; fill: rgb(42, 63, 95); fill-opacity: 1; white-space: pre; text-shadow: white 1px 1px 1px, white -1px -1px 1px, white 1px -1px 1px, white -1px 1px 1px;">walk-suppressed</text></g><g class="sankey-node" transform="translate(1132.499,571.414)" style="opacity: 1;"><rect class="node-rect" width="15" height="60.28103044496493" style="stroke-width: 0.5; stroke: rgb(0, 0, 0); stroke-opacity: 1; fill: rgb(128, 128, 128); fill-opacity: 1;"/><text class="node-label" data-notex="1" x="0" y="0" text-anchor="end" transform="translate(-3.25,34.340515222482466)" style="cursor: default; font-family: 'Open Sans', verdana, arial, sans-serif; font-size: 12px; fill: rgb(42, 63, 95); fill-opacity: 1; white-space: pre; text-shadow: white 1px 1px 1px, white -1px -1px 1px, white 1px -1px 1px, white -1px 1px 1px;">wallclimb-activated</text></g><g class="sankey-node" transform="translate(1132.499,643.768)" style="opacity: 1;"><rect class="node-rect" width="15" height="63.02107728337228" style="stroke-width: 0.5; stroke: rgb(0, 0, 0); stroke-opacity: 1; fill: rgb(128, 128, 128); fill-opacity: 1;"/><text class="node-label" data-notex="1" x="0" y="0" text-anchor="end" transform="translate(-3.25,35.71053864168614)" style="cursor: default; font-family: 'Open Sans', verdana, arial, sans-serif; font-size: 12px; fill: rgb(42, 63, 95); fill-opacity: 1; white-space: pre; text-shadow: white 1px 1px 1px, white -1px -1px 1px, white 1px -1px 1px, white -1px 1px 1px;">wallclimb-suppressed</text></g><g class="sankey-node" transform="translate(368.700,13.715)" style="opacity: 1;"><rect class="node-rect" width="15" height="34.25058548009338" style="stroke-width: 0.5; stroke: rgb(0, 0, 0); stroke-opacity: 1; fill: rgb(25, 211, 243); fill-opacity: 1;"/><text class="node-label" data-notex="1" x="0" y="0" text-anchor="start" transform="translate(18.25,21.325292740046688)" style="cursor: default; font-family: 'Open Sans', verdana, arial, sans-serif; font-size: 12px; fill: rgb(42, 63, 95); fill-opacity: 1; white-space: pre; text-shadow: white 1px 1px 1px, white -1px -1px 1px, white 1px -1px 1px, white -1px 1px 1px;">BLA</text></g><g class="sankey-node" transform="translate(368.700,59.954)" style="opacity: 1;"><rect class="node-rect" width="15" height="86.31147540983558" style="stroke-width: 0.5; stroke: rgb(0, 0, 0); stroke-opacity: 1; fill: rgb(99, 110, 250); fill-opacity: 1;"/><text class="node-label" data-notex="1" x="0" y="0" text-anchor="start" transform="translate(18.25,47.355737704917786)" style="cursor: default; font-family: 'Open Sans', verdana, arial, sans-serif; font-size: 12px; fill: rgb(42, 63, 95); fill-opacity: 1; white-space: pre; text-shadow: white 1px 1px 1px, white -1px -1px 1px, white 1px -1px 1px, white -1px 1px 1px;">Cla</text></g><g class="sankey-node" transform="translate(368.700,157.734)" style="opacity: 1;"><rect class="node-rect" width="15" height="60.281030444964756" style="stroke-width: 0.5; stroke: rgb(0, 0, 0); stroke-opacity: 1; fill: rgb(239, 85, 59); fill-opacity: 1;"/><text class="node-label" data-notex="1" x="0" y="0" text-anchor="start" transform="translate(18.25,34.34051522248238)" style="cursor: default; font-family: 'Open Sans', verdana, arial, sans-serif; font-size: 12px; fill: rgb(42, 63, 95); fill-opacity: 1; white-space: pre; text-shadow: white 1px 1px 1px, white -1px -1px 1px, white 1px -1px 1px, white -1px 1px 1px;">LC</text></g><g class="sankey-node" transform="translate(368.700,230.661)" style="opacity: 1;"><rect class="node-rect" width="15" height="27.400468384074884" style="stroke-width: 0.5; stroke: rgb(0, 0, 0); stroke-opacity: 1; fill: rgb(254, 203, 82); fill-opacity: 1;"/><text class="node-label" data-notex="1" x="0" y="0" text-anchor="start" transform="translate(18.25,17.90023419203744)" style="cursor: default; font-family: 'Open Sans', verdana, arial, sans-serif; font-size: 12px; fill: rgb(42, 63, 95); fill-opacity: 1; white-space: pre; text-shadow: white 1px 1px 1px, white -1px -1px 1px, white 1px -1px 1px, white -1px 1px 1px;">LHyp</text></g><g class="sankey-node" transform="translate(368.700,270.900)" style="opacity: 1;"><rect class="node-rect" width="15" height="50.690866510538626" style="stroke-width: 0.5; stroke: rgb(0, 0, 0); stroke-opacity: 1; fill: rgb(171, 99, 250); fill-opacity: 1;"/><text class="node-label" data-notex="1" x="0" y="0" text-anchor="start" transform="translate(18.25,29.545433255269312)" style="cursor: default; font-family: 'Open Sans', verdana, arial, sans-serif; font-size: 12px; fill: rgb(42, 63, 95); fill-opacity: 1; white-space: pre; text-shadow: white 1px 1px 1px, white -1px -1px 1px, white 1px -1px 1px, white -1px 1px 1px;">NAc</text></g><g class="sankey-node" transform="translate(368.700,332.949)" style="opacity: 1;"><rect class="node-rect" width="15" height="101.38173302107725" style="stroke-width: 0.5; stroke: rgb(0, 0, 0); stroke-opacity: 1; fill: rgb(0, 204, 150); fill-opacity: 1;"/><text class="node-label" data-notex="1" x="0" y="0" text-anchor="start" transform="translate(18.25,54.89086651053863)" style="cursor: default; font-family: 'Open Sans', verdana, arial, sans-serif; font-size: 12px; fill: rgb(42, 63, 95); fill-opacity: 1; white-space: pre; text-shadow: white 1px 1px 1px, white -1px -1px 1px, white 1px -1px 1px, white -1px 1px 1px;">Str</text></g><g class="sankey-node" transform="translate(368.700,443.772)" style="opacity: 1;"><rect class="node-rect" width="15" height="146.59250585480095" style="stroke-width: 0.5; stroke: rgb(0, 0, 0); stroke-opacity: 1; fill: rgb(255, 161, 90); fill-opacity: 1;"/><text class="node-label" data-notex="1" x="0" y="0" text-anchor="start" transform="translate(18.25,77.49625292740048)" style="cursor: default; font-family: 'Open Sans', verdana, arial, sans-serif; font-size: 12px; fill: rgb(42, 63, 95); fill-opacity: 1; white-space: pre; text-shadow: white 1px 1px 1px, white -1px -1px 1px, white 1px -1px 1px, white -1px 1px 1px;">VTA</text></g><g class="sankey-node" transform="translate(368.700,600.873)" style="opacity: 1;"><rect class="node-rect" width="15" height="47.95081967213082" style="stroke-width: 0.5; stroke: rgb(0, 0, 0); stroke-opacity: 1; fill: rgb(255, 151, 255); fill-opacity: 1;"/><text class="node-label" data-notex="1" x="0" y="0" text-anchor="start" transform="translate(18.25,28.17540983606541)" style="cursor: default; font-family: 'Open Sans', verdana, arial, sans-serif; font-size: 12px; fill: rgb(42, 63, 95); fill-opacity: 1; white-space: pre; text-shadow: white 1px 1px 1px, white -1px -1px 1px, white 1px -1px 1px, white -1px 1px 1px;">cPFC</text></g><g class="sankey-node" transform="translate(368.700,661.854)" style="opacity: 1;"><rect class="node-rect" width="15" height="20.55035128805639" style="stroke-width: 0.5; stroke: rgb(0, 0, 0); stroke-opacity: 1; fill: rgb(255, 102, 146); fill-opacity: 1;"/><text class="node-label" data-notex="1" x="0" y="0" text-anchor="start" transform="translate(18.25,14.475175644028194)" style="cursor: default; font-family: 'Open Sans', verdana, arial, sans-serif; font-size: 12px; fill: rgb(42, 63, 95); fill-opacity: 1; white-space: pre; text-shadow: white 1px 1px 1px, white -1px -1px 1px, white 1px -1px 1px, white -1px 1px 1px;">dPAG</text></g><g class="sankey-node" transform="translate(368.700,696.202)" style="opacity: 1;"><rect class="node-rect" width="15" height="9.590163934426073" style="stroke-width: 0.5; stroke: rgb(0, 0, 0); stroke-opacity: 1; fill: rgb(182, 232, 128); fill-opacity: 1;"/><text class="node-label" data-notex="1" x="0" y="0" text-anchor="start" transform="translate(18.25,8.995081967213036)" style="cursor: default; font-family: 'Open Sans', verdana, arial, sans-serif; font-size: 12px; fill: rgb(42, 63, 95); fill-opacity: 1; white-space: pre; text-shadow: white 1px 1px 1px, white -1px -1px 1px, white 1px -1px 1px, white -1px 1px 1px;">lHb</text></g></g></g><defs id="topdefs-84d294"><g class="clips"/></defs><g class="layer-above"><g class="imagelayer"/><g class="shapelayer"/></g><g class="infolayer"><g class="g-gtitle"/><g class="first-render"/></g></svg>