<svg class="main-svg" xmlns="http://www.w3.org/2000/svg" xmlns:xlink="http://www.w3.org/1999/xlink" width="1300" height="900" style="" viewBox="0 0 1300 900"><rect x="0" y="0" width="1300" height="900" style="fill: rgb(255, 255, 255); fill-opacity: 1;"/><defs id="defs-5101c1"><g class="clips"/><g class="gradients"/><g class="patterns"/></defs><g class="bglayer"/><g class="layer-below"><g class="imagelayer"/><g class="shapelayer"/></g><g class="cartesianlayer"/><g class="polarlayer"/><g class="smithlayer"/><g class="ternarylayer"/><g class="geolayer"/><g class="funnelarealayer"/><g class="pielayer"/><g class="iciclelayer"/><g class="treemaplayer"/><g class="sunburstlayer"/><g class="glimages"/><g class="sankey" transform="translate(80,100)matrix(1 0 0 1 0 0)" style="box-sizing: content-box; position: absolute; left: 0px; shape-rendering: geometricprecision; pointer-events: none;"><g class="sankey-links" style="fill: none;"><path class="sankey-link" d="M7.50114,15.682919254658405C188.10057000000003,15.682919254658405 188.10057000000003,58.30434782608679 368.70000000000005,58.30434782608679L368.70000000000005,71.02173913043461C188.10057000000003,71.02173913043461 188.10057000000003,28.400310559006233 7.50114,28.400310559006233Z" style="stroke: rgb(68, 68, 68); stroke-opacity: 1; fill: rgb(99, 110, 250); fill-opacity: 0.6; stroke-width: 0; opacity: 1;"/><path class="sankey-link" d="M7.50114,28.40031055900623C188.10057000000003,28.40031055900623 188.10057000000003,163.9062111801243 368.70000000000005,163.9062111801243L368.70000000000005,169.3565217391305C188.10057000000003,169.3565217391305 188.10057000000003,33.85062111801244 7.50114,33.85062111801244Z" style="stroke: rgb(68, 68, 68); stroke-opacity: 1; fill: rgb(239, 85, 59); fill-opacity: 0.6; stroke-width: 0; opacity: 1;"/><path class="sankey-link" d="M7.50114,33.85062111801244C188.10057000000003,33.85062111801244 188.10057000000003,287.46894409937903 368.70000000000005,287.46894409937903L368.70000000000005,292.9192546583852C188.10057000000003,292.9192546583852 188.10057000000003,39.30093167701865 7.50114,39.30093167701865Z" style="stroke: rgb(68, 68, 68); stroke-opacity: 1; fill: rgb(171, 99, 250); fill-opacity: 0.6; stroke-width: 0; opacity: 1;"/><path class="sankey-link" d="M7.50114,39.30093167701865C188.10057000000003,39.30093167701865 188.10057000000003,339.2217391304349 368.70000000000005,339.2217391304349L368.70000000000005,344.6720496894411C188.10057000000003,344.6720496894411 188.10057000000003,44.751242236024865 7.50114,44.751242236024865Z" style="stroke: rgb(68, 68, 68); stroke-opacity: 1; fill: rgb(0, 204, 150); fill-opacity: 0.6; stroke-width: 0; opacity: 1;"/><path class="sankey-link" d="M7.50114,44.751242236024865C188.10057000000003,44.751242236024865 188.10057000000003,439.8093167701862 368.70000000000005,439.8093167701862L368.70000000000005,441.62608695652153C188.10057000000003,441.62608695652153 188.10057000000003,46.56801242236027 7.50114,46.56801242236027Z" style="stroke: rgb(68, 68, 68); stroke-opacity: 1; fill: rgb(255, 161, 90); fill-opacity: 0.6; stroke-width: 0; opacity: 1;"/><path class="sankey-link" d="M7.50114,71.7596273291925C188.10057000000003,71.7596273291925 188.10057000000003,13.745962732919326 368.70000000000005,13.745962732919326L368.70000000000005,40.997515527950384C188.10057000000003,40.997515527950384 188.10057000000003,99.01118012422354 7.50114,99.01118012422354Z" style="stroke: rgb(68, 68, 68); stroke-opacity: 1; fill: rgb(25, 211, 243); fill-opacity: 0.6; stroke-width: 0; opacity: 1;"/><path class="sankey-link" d="M7.50114,99.01118012422356C188.10057000000003,99.01118012422356 188.10057000000003,71.02173913043463 368.70000000000005,71.02173913043463L368.70000000000005,107.3571428571427C188.10057000000003,107.3571428571427 188.10057000000003,135.34658385093164 7.50114,135.34658385093164Z" style="stroke: rgb(68, 68, 68); stroke-opacity: 1; fill: rgb(99, 110, 250); fill-opacity: 0.6; stroke-width: 0; opacity: 1;"/><path class="sankey-link" d="M7.50114,135.34658385093164C188.10057000000003,135.34658385093164 188.10057000000003,169.3565217391305 368.70000000000005,169.3565217391305L368.70000000000005,209.32546583850936C188.10057000000003,209.32546583850936 188.10057000000003,175.3155279503105 7.50114,175.3155279503105Z" style="stroke: rgb(68, 68, 68); stroke-opacity: 1; fill: rgb(239, 85, 59); fill-opacity: 0.6; stroke-width: 0; opacity: 1;"/><path class="sankey-link" d="M7.50114,175.31552795031052C188.10057000000003,175.31552795031052 188.10057000000003,292.9192546583852 368.70000000000005,292.9192546583852L368.70000000000005,316.5372670807455C188.10057000000003,316.5372670807455 188.10057000000003,198.9335403726708 7.50114,198.9335403726708Z" style="stroke: rgb(68, 68, 68); stroke-opacity: 1; fill: rgb(171, 99, 250); fill-opacity: 0.6; stroke-width: 0; opacity: 1;"/><path class="sankey-link" d="M7.50114,198.93354037267076C188.10057000000003,198.93354037267076 188.10057000000003,344.6720496894411 368.70000000000005,344.6720496894411L368.70000000000005,391.90807453416164C188.10057000000003,391.90807453416164 188.10057000000003,246.16956521739124 7.50114,246.16956521739124Z" style="stroke: rgb(68, 68, 68); stroke-opacity: 1; fill: rgb(0, 204, 150); fill-opacity: 0.6; stroke-width: 0; opacity: 1;"/><path class="sankey-link" d="M7.50114,246.16956521739127C188.10057000000003,246.16956521739127 188.10057000000003,441.6260869565216 368.70000000000005,441.6260869565216L368.70000000000005,454.34347826086946C188.10057000000003,454.34347826086946 188.10057000000003,258.8869565217391 7.50114,258.8869565217391Z" style="stroke: rgb(68, 68, 68); stroke-opacity: 1; fill: rgb(255, 161, 90); fill-opacity: 0.6; stroke-width: 0; opacity: 1;"/><path class="sankey-link" d="M7.50114,258.8869565217391C188.10057000000003,258.8869565217391 188.10057000000003,592.0295031055898 368.70000000000005,592.0295031055898L368.70000000000005,613.8307453416146C188.10057000000003,613.8307453416146 188.10057000000003,280.68819875776387 7.50114,280.68819875776387Z" style="stroke: rgb(68, 68, 68); stroke-opacity: 1; fill: rgb(255, 151, 255); fill-opacity: 0.6; stroke-width: 0; opacity: 1;"/><path class="sankey-link" d="M7.50114,280.6881987577639C188.10057000000003,280.6881987577639 188.10057000000003,657.5170807453416 368.70000000000005,657.5170807453416L368.70000000000005,670.2344720496893C188.10057000000003,670.2344720496893 188.10057000000003,293.4055900621118 7.50114,293.4055900621118Z" style="stroke: rgb(68, 68, 68); stroke-opacity: 1; fill: rgb(255, 102, 146); fill-opacity: 0.6; stroke-width: 0; opacity: 1;"/><path class="sankey-link" d="M7.50114,293.40559006211174C188.10057000000003,293.40559006211174 188.10057000000003,698.4782608695654 368.70000000000005,698.4782608695654L368.70000000000005,705.745341614907C188.10057000000003,705.745341614907 188.10057000000003,300.6726708074533 7.50114,300.6726708074533Z" style="stroke: rgb(68, 68, 68); stroke-opacity: 1; fill: rgb(182, 232, 128); fill-opacity: 0.6; stroke-width: 0; opacity: 1;"/><path class="sankey-link" d="M7.50114,327.07173913043476C188.10057000000003,327.07173913043476 188.10057000000003,40.997515527950384 368.70000000000005,40.997515527950384L368.70000000000005,46.447826086956596C188.10057000000003,46.447826086956596 188.10057000000003,332.52204968944096 7.50114,332.52204968944096Z" style="stroke: rgb(68, 68, 68); stroke-opacity: 1; fill: rgb(25, 211, 243); fill-opacity: 0.6; stroke-width: 0; opacity: 1;"/><path class="sankey-link" d="M7.50114,332.52204968944096C188.10057000000003,332.52204968944096 188.10057000000003,107.35714285714269 368.70000000000005,107.35714285714269L368.70000000000005,123.70807453416131C188.10057000000003,123.70807453416131 188.10057000000003,348.87298136645956 7.50114,348.87298136645956Z" style="stroke: rgb(68, 68, 68); stroke-opacity: 1; fill: rgb(99, 110, 250); fill-opacity: 0.6; stroke-width: 0; opacity: 1;"/><path class="sankey-link" d="M7.50114,348.8729813664596C188.10057000000003,348.8729813664596 188.10057000000003,209.3254658385094 368.70000000000005,209.3254658385094L368.70000000000005,214.77577639751559C188.10057000000003,214.77577639751559 188.10057000000003,354.3232919254658 7.50114,354.3232919254658Z" style="stroke: rgb(68, 68, 68); stroke-opacity: 1; fill: rgb(239, 85, 59); fill-opacity: 0.6; stroke-width: 0; opacity: 1;"/><path class="sankey-link" d="M7.50114,354.3232919254658C188.10057000000003,354.3232919254658 188.10057000000003,316.5372670807455 368.70000000000005,316.5372670807455L368.70000000000005,327.4378881987579C188.10057000000003,327.4378881987579 188.10057000000003,365.2239130434782 7.50114,365.2239130434782Z" style="stroke: rgb(68, 68, 68); stroke-opacity: 1; fill: rgb(171, 99, 250); fill-opacity: 0.6; stroke-width: 0; opacity: 1;"/><path class="sankey-link" d="M7.50114,365.2239130434782C188.10057000000003,365.2239130434782 188.10057000000003,391.9080745341616 368.70000000000005,391.9080745341616L368.70000000000005,397.3583850931678C188.10057000000003,397.3583850931678 188.10057000000003,370.6742236024844 7.50114,370.6742236024844Z" style="stroke: rgb(68, 68, 68); stroke-opacity: 1; fill: rgb(0, 204, 150); fill-opacity: 0.6; stroke-width: 0; opacity: 1;"/><path class="sankey-link" d="M7.50114,370.6742236024844C188.10057000000003,370.6742236024844 188.10057000000003,454.3434782608694 368.70000000000005,454.3434782608694L368.70000000000005,457.97701863354024C188.10057000000003,457.97701863354024 188.10057000000003,374.30776397515524 7.50114,374.30776397515524Z" style="stroke: rgb(68, 68, 68); stroke-opacity: 1; fill: rgb(255, 161, 90); fill-opacity: 0.6; stroke-width: 0; opacity: 1;"/><path class="sankey-link" d="M7.50114,374.3077639751552C188.10057000000003,374.3077639751552 188.10057000000003,613.8307453416146 368.70000000000005,613.8307453416146L368.70000000000005,619.2810559006209C188.10057000000003,619.2810559006209 188.10057000000003,379.7580745341614 7.50114,379.7580745341614Z" style="stroke: rgb(68, 68, 68); stroke-opacity: 1; fill: rgb(255, 151, 255); fill-opacity: 0.6; stroke-width: 0; opacity: 1;"/><path class="sankey-link" d="M7.50114,379.7580745341614C188.10057000000003,379.7580745341614 188.10057000000003,670.2344720496894 368.70000000000005,670.2344720496894L368.70000000000005,677.5015527950311C188.10057000000003,677.5015527950311 188.10057000000003,387.02515527950294 7.50114,387.02515527950294Z" style="stroke: rgb(68, 68, 68); stroke-opacity: 1; fill: rgb(255, 102, 146); fill-opacity: 0.6; stroke-width: 0; opacity: 1;"/><path class="sankey-link" d="M7.50114,409.4245341614908C188.10057000000003,409.4245341614908 188.10057000000003,123.70807453416131 368.70000000000005,123.70807453416131L368.70000000000005,138.24223602484454C188.10057000000003,138.24223602484454 188.10057000000003,423.958695652174 7.50114,423.958695652174Z" style="stroke: rgb(68, 68, 68); stroke-opacity: 1; fill: rgb(99, 110, 250); fill-opacity: 0.6; stroke-width: 0; opacity: 1;"/><path class="sankey-link" d="M7.50114,423.958695652174C188.10057000000003,423.958695652174 188.10057000000003,214.77577639751559 368.70000000000005,214.77577639751559L368.70000000000005,223.85962732919262C188.10057000000003,223.85962732919262 188.10057000000003,433.04254658385105 7.50114,433.04254658385105Z" style="stroke: rgb(68, 68, 68); stroke-opacity: 1; fill: rgb(239, 85, 59); fill-opacity: 0.6; stroke-width: 0; opacity: 1;"/><path class="sankey-link" d="M7.50114,433.04254658385105C188.10057000000003,433.04254658385105 188.10057000000003,245.3813664596275 368.70000000000005,245.3813664596275L368.70000000000005,259.9155279503107C188.10057000000003,259.9155279503107 188.10057000000003,447.5767080745343 7.50114,447.5767080745343Z" style="stroke: rgb(68, 68, 68); stroke-opacity: 1; fill: rgb(254, 203, 82); fill-opacity: 0.6; stroke-width: 0; opacity: 1;"/><path class="sankey-link" d="M7.50114,447.5767080745343C188.10057000000003,447.5767080745343 188.10057000000003,397.3583850931678 368.70000000000005,397.3583850931678L368.70000000000005,413.7093167701864C188.10057000000003,413.7093167701864 188.10057000000003,463.9276397515529 7.50114,463.9276397515529Z" style="stroke: rgb(68, 68, 68); stroke-opacity: 1; fill: rgb(0, 204, 150); fill-opacity: 0.6; stroke-width: 0; opacity: 1;"/><path class="sankey-link" d="M7.50114,463.92763975155293C188.10057000000003,463.92763975155293 188.10057000000003,457.9770186335402 368.70000000000005,457.9770186335402L368.70000000000005,519.747204968944C188.10057000000003,519.747204968944 188.10057000000003,525.6978260869566 7.50114,525.6978260869566Z" style="stroke: rgb(68, 68, 68); stroke-opacity: 1; fill: rgb(255, 161, 90); fill-opacity: 0.6; stroke-width: 0; opacity: 1;"/><path class="sankey-link" d="M7.50114,525.6978260869566C188.10057000000003,525.6978260869566 188.10057000000003,619.2810559006208 368.70000000000005,619.2810559006208L368.70000000000005,631.9984472049686C188.10057000000003,631.9984472049686 188.10057000000003,538.4152173913044 7.50114,538.4152173913044Z" style="stroke: rgb(68, 68, 68); stroke-opacity: 1; fill: rgb(255, 151, 255); fill-opacity: 0.6; stroke-width: 0; opacity: 1;"/><path class="sankey-link" d="M7.50114,538.4152173913045C188.10057000000003,538.4152173913045 188.10057000000003,677.501552795031 368.70000000000005,677.501552795031L368.70000000000005,681.1350931677017C188.10057000000003,681.1350931677017 188.10057000000003,542.0487577639752 7.50114,542.0487577639752Z" style="stroke: rgb(68, 68, 68); stroke-opacity: 1; fill: rgb(255, 102, 146); fill-opacity: 0.6; stroke-width: 0; opacity: 1;"/><path class="sankey-link" d="M7.50114,567.4667701863353C188.10057000000003,567.4667701863353 188.10057000000003,138.24223602484454 368.70000000000005,138.24223602484454L368.70000000000005,152.77639751552778C188.10057000000003,152.77639751552778 188.10057000000003,582.0009316770185 7.50114,582.0009316770185Z" style="stroke: rgb(68, 68, 68); stroke-opacity: 1; fill: rgb(99, 110, 250); fill-opacity: 0.6; stroke-width: 0; opacity: 1;"/><path class="sankey-link" d="M7.50114,582.0009316770186C188.10057000000003,582.0009316770186 188.10057000000003,223.8596273291926 368.70000000000005,223.8596273291926L368.70000000000005,232.94347826086963C188.10057000000003,232.94347826086963 188.10057000000003,591.0847826086956 7.50114,591.0847826086956Z" style="stroke: rgb(68, 68, 68); stroke-opacity: 1; fill: rgb(239, 85, 59); fill-opacity: 0.6; stroke-width: 0; opacity: 1;"/><path class="sankey-link" d="M7.50114,591.0847826086956C188.10057000000003,591.0847826086956 188.10057000000003,259.9155279503107 368.70000000000005,259.9155279503107L368.70000000000005,274.44968944099395C188.10057000000003,274.44968944099395 188.10057000000003,605.6189440993787 7.50114,605.6189440993787Z" style="stroke: rgb(68, 68, 68); stroke-opacity: 1; fill: rgb(254, 203, 82); fill-opacity: 0.6; stroke-width: 0; opacity: 1;"/><path class="sankey-link" d="M7.50114,605.6189440993788C188.10057000000003,605.6189440993788 188.10057000000003,413.70931677018643 368.70000000000005,413.70931677018643L368.70000000000005,430.060248447205C188.10057000000003,430.060248447205 188.10057000000003,621.9698757763975 7.50114,621.9698757763975Z" style="stroke: rgb(68, 68, 68); stroke-opacity: 1; fill: rgb(0, 204, 150); fill-opacity: 0.6; stroke-width: 0; opacity: 1;"/><path class="sankey-link" d="M7.50114,621.9698757763974C188.10057000000003,621.9698757763974 188.10057000000003,519.747204968944 368.70000000000005,519.747204968944L368.70000000000005,581.5173913043476C188.10057000000003,581.5173913043476 188.10057000000003,683.7400621118011 7.50114,683.7400621118011Z" style="stroke: rgb(68, 68, 68); stroke-opacity: 1; fill: rgb(255, 161, 90); fill-opacity: 0.6; stroke-width: 0; opacity: 1;"/><path class="sankey-link" d="M7.50114,683.7400621118012C188.10057000000003,683.7400621118012 188.10057000000003,631.9984472049687 368.70000000000005,631.9984472049687L368.70000000000005,644.7158385093164C188.10057000000003,644.7158385093164 188.10057000000003,696.457453416149 7.50114,696.457453416149Z" style="stroke: rgb(68, 68, 68); stroke-opacity: 1; fill: rgb(255, 151, 255); fill-opacity: 0.6; stroke-width: 0; opacity: 1;"/><path class="sankey-link" d="M7.50114,696.4574534161491C188.10057000000003,696.4574534161491 188.10057000000003,681.1350931677018 368.70000000000005,681.1350931677018L368.70000000000005,684.7686335403725C188.10057000000003,684.7686335403725 188.10057000000003,700.0909937888198 7.50114,700.0909937888198Z" style="stroke: rgb(68, 68, 68); stroke-opacity: 1; fill: rgb(255, 102, 146); fill-opacity: 0.6; stroke-width: 0; opacity: 1;"/><path class="sankey-link" d="M383.70000000000005,13.745962732919324C564.3000000000001,13.745962732919324 564.3000000000001,145.586956521739 744.9000000000001,145.586956521739L744.9000000000001,154.67080745341605C564.3000000000001,154.67080745341605 564.3000000000001,22.829813664596344 383.70000000000005,22.829813664596344Z" style="stroke: rgb(68, 68, 68); stroke-opacity: 1; fill: rgb(25, 211, 243); fill-opacity: 0.6; stroke-width: 0; opacity: 1;"/><path class="sankey-link" d="M383.70000000000005,22.829813664596344C564.3000000000001,22.829813664596344 564.3000000000001,532.9055900621117 744.9000000000001,532.9055900621117L744.9000000000001,536.5391304347825C564.3000000000001,536.5391304347825 564.3000000000001,26.463354037267152 383.70000000000005,26.463354037267152Z" style="stroke: rgb(68, 68, 68); stroke-opacity: 1; fill: rgb(25, 211, 243); fill-opacity: 0.6; stroke-width: 0; opacity: 1;"/><path class="sankey-link" d="M383.70000000000005,58.3043478260868C564.3000000000001,58.3043478260868 564.3000000000001,154.67080745341602 744.9000000000001,154.67080745341602L744.9000000000001,176.47204968944087C564.3000000000001,176.47204968944087 564.3000000000001,80.10559006211165 383.70000000000005,80.10559006211165Z" style="stroke: rgb(68, 68, 68); stroke-opacity: 1; fill: rgb(99, 110, 250); fill-opacity: 0.6; stroke-width: 0; opacity: 1;"/><path class="sankey-link" d="M383.70000000000005,80.10559006211165C564.3000000000001,80.10559006211165 564.3000000000001,536.5391304347826 744.9000000000001,536.5391304347826L744.9000000000001,549.2565217391303C564.3000000000001,549.2565217391303 564.3000000000001,92.82298136645946 383.70000000000005,92.82298136645946Z" style="stroke: rgb(68, 68, 68); stroke-opacity: 1; fill: rgb(99, 110, 250); fill-opacity: 0.6; stroke-width: 0; opacity: 1;"/><path class="sankey-link" d="M383.70000000000005,163.9062111801243C564.3000000000001,163.9062111801243 564.3000000000001,176.47204968944087 744.9000000000001,176.47204968944087L744.9000000000001,198.2732919254657C564.3000000000001,198.2732919254657 564.3000000000001,185.70745341614915 383.70000000000005,185.70745341614915Z" style="stroke: rgb(68, 68, 68); stroke-opacity: 1; fill: rgb(239, 85, 59); fill-opacity: 0.6; stroke-width: 0; opacity: 1;"/><path class="sankey-link" d="M383.70000000000005,185.70745341614915C564.3000000000001,185.70745341614915 564.3000000000001,549.2565217391304 744.9000000000001,549.2565217391304L744.9000000000001,552.8900621118012C564.3000000000001,552.8900621118012 564.3000000000001,189.34099378881993 383.70000000000005,189.34099378881993Z" style="stroke: rgb(68, 68, 68); stroke-opacity: 1; fill: rgb(239, 85, 59); fill-opacity: 0.6; stroke-width: 0; opacity: 1;"/><path class="sankey-link" d="M383.70000000000005,245.3813664596275C564.3000000000001,245.3813664596275 564.3000000000001,198.2732919254657 744.9000000000001,198.2732919254657L744.9000000000001,207.35714285714275C564.3000000000001,207.35714285714275 564.3000000000001,254.46521739130452 383.70000000000005,254.46521739130452Z" style="stroke: rgb(68, 68, 68); stroke-opacity: 1; fill: rgb(254, 203, 82); fill-opacity: 0.6; stroke-width: 0; opacity: 1;"/><path class="sankey-link" d="M383.70000000000005,254.46521739130446C564.3000000000001,254.46521739130446 564.3000000000001,552.8900621118013 744.9000000000001,552.8900621118013L744.9000000000001,561.9739130434783C564.3000000000001,561.9739130434783 564.3000000000001,263.5490683229815 383.70000000000005,263.5490683229815Z" style="stroke: rgb(68, 68, 68); stroke-opacity: 1; fill: rgb(254, 203, 82); fill-opacity: 0.6; stroke-width: 0; opacity: 1;"/><path class="sankey-link" d="M383.70000000000005,287.46894409937903C564.3000000000001,287.46894409937903 564.3000000000001,207.35714285714272 744.9000000000001,207.35714285714272L744.9000000000001,223.70807453416137C564.3000000000001,223.70807453416137 564.3000000000001,303.8198757763976 383.70000000000005,303.8198757763976Z" style="stroke: rgb(68, 68, 68); stroke-opacity: 1; fill: rgb(171, 99, 250); fill-opacity: 0.6; stroke-width: 0; opacity: 1;"/><path class="sankey-link" d="M383.70000000000005,303.8198757763977C564.3000000000001,303.8198757763977 564.3000000000001,561.9739130434783 744.9000000000001,561.9739130434783L744.9000000000001,571.0577639751554C564.3000000000001,571.0577639751554 564.3000000000001,312.9037267080747 383.70000000000005,312.9037267080747Z" style="stroke: rgb(68, 68, 68); stroke-opacity: 1; fill: rgb(171, 99, 250); fill-opacity: 0.6; stroke-width: 0; opacity: 1;"/><path class="sankey-link" d="M383.70000000000005,339.2217391304349C564.3000000000001,339.2217391304349 564.3000000000001,223.70807453416134 744.9000000000001,223.70807453416134L744.9000000000001,261.8602484472048C564.3000000000001,261.8602484472048 564.3000000000001,377.3739130434784 383.70000000000005,377.3739130434784Z" style="stroke: rgb(68, 68, 68); stroke-opacity: 1; fill: rgb(0, 204, 150); fill-opacity: 0.6; stroke-width: 0; opacity: 1;"/><path class="sankey-link" d="M383.70000000000005,377.3739130434784C564.3000000000001,377.3739130434784 564.3000000000001,571.0577639751554 744.9000000000001,571.0577639751554L744.9000000000001,580.1416149068324C564.3000000000001,580.1416149068324 564.3000000000001,386.45776397515544 383.70000000000005,386.45776397515544Z" style="stroke: rgb(68, 68, 68); stroke-opacity: 1; fill: rgb(0, 204, 150); fill-opacity: 0.6; stroke-width: 0; opacity: 1;"/><path class="sankey-link" d="M383.70000000000005,439.8093167701862C564.3000000000001,439.8093167701862 564.3000000000001,261.8602484472048 744.9000000000001,261.8602484472048L744.9000000000001,289.1118012422359C564.3000000000001,289.1118012422359 564.3000000000001,467.0608695652173 383.70000000000005,467.0608695652173Z" style="stroke: rgb(68, 68, 68); stroke-opacity: 1; fill: rgb(255, 161, 90); fill-opacity: 0.6; stroke-width: 0; opacity: 1;"/><path class="sankey-link" d="M383.70000000000005,467.0608695652172C564.3000000000001,467.0608695652172 564.3000000000001,580.1416149068324 744.9000000000001,580.1416149068324L744.9000000000001,618.2937888198759C564.3000000000001,618.2937888198759 564.3000000000001,505.2130434782607 383.70000000000005,505.2130434782607Z" style="stroke: rgb(68, 68, 68); stroke-opacity: 1; fill: rgb(255, 161, 90); fill-opacity: 0.6; stroke-width: 0; opacity: 1;"/><path class="sankey-link" d="M383.70000000000005,592.0295031055898C564.3000000000001,592.0295031055898 564.3000000000001,289.11180124223586 744.9000000000001,289.11180124223586L744.9000000000001,298.1956521739129C564.3000000000001,298.1956521739129 564.3000000000001,601.1133540372668 383.70000000000005,601.1133540372668Z" style="stroke: rgb(68, 68, 68); stroke-opacity: 1; fill: rgb(255, 151, 255); fill-opacity: 0.6; stroke-width: 0; opacity: 1;"/><path class="sankey-link" d="M383.70000000000005,601.1133540372668C564.3000000000001,601.1133540372668 564.3000000000001,618.2937888198759 744.9000000000001,618.2937888198759L744.9000000000001,623.7440993788822C564.3000000000001,623.7440993788822 564.3000000000001,606.5636645962732 383.70000000000005,606.5636645962732Z" style="stroke: rgb(68, 68, 68); stroke-opacity: 1; fill: rgb(255, 151, 255); fill-opacity: 0.6; stroke-width: 0; opacity: 1;"/><path class="sankey-link" d="M383.70000000000005,657.5170807453416C564.3000000000001,657.5170807453416 564.3000000000001,298.1956521739129 744.9000000000001,298.1956521739129L744.9000000000001,309.0962732919253C564.3000000000001,309.0962732919253 564.3000000000001,668.417701863354 383.70000000000005,668.417701863354Z" style="stroke: rgb(68, 68, 68); stroke-opacity: 1; fill: rgb(255, 102, 146); fill-opacity: 0.6; stroke-width: 0; opacity: 1;"/><path class="sankey-link" d="M383.70000000000005,668.417701863354C564.3000000000001,668.417701863354 564.3000000000001,623.7440993788821 744.9000000000001,623.7440993788821L744.9000000000001,629.1944099378884C564.3000000000001,629.1944099378884 564.3000000000001,673.8680124223603 383.70000000000005,673.8680124223603Z" style="stroke: rgb(68, 68, 68); stroke-opacity: 1; fill: rgb(255, 102, 146); fill-opacity: 0.6; stroke-width: 0; opacity: 1;"/><path class="sankey-link" d="M383.70000000000005,698.4782608695654C564.3000000000001,698.4782608695654 564.3000000000001,309.0962732919253 744.9000000000001,309.0962732919253L744.9000000000001,310.91304347826065C564.3000000000001,310.91304347826065 564.3000000000001,700.2950310559007 383.70000000000005,700.2950310559007Z" style="stroke: rgb(68, 68, 68); stroke-opacity: 1; fill: rgb(182, 232, 128); fill-opacity: 0.6; stroke-width: 0; opacity: 1;"/><path class="sankey-link" d="M759.9000000000001,145.586956521739C946.19943,145.586956521739 946.19943,85.50559006211168 1132.49886,85.50559006211168L1132.49886,89.13913043478249C946.19943,89.13913043478249 946.19943,149.2204968944098 759.9000000000001,149.2204968944098Z" style="stroke: rgb(68, 68, 68); stroke-opacity: 1; fill: rgb(25, 211, 243); fill-opacity: 0.6; stroke-width: 0; opacity: 1;"/><path class="sankey-link" d="M759.9000000000001,241.87577639751538C946.19943,241.87577639751538 946.19943,318.28136645962763 1132.49886,318.28136645962763L1132.49886,323.73167701863383C946.19943,323.73167701863383 946.19943,247.32608695652158 759.9000000000001,247.32608695652158Z" style="stroke: rgb(68, 68, 68); stroke-opacity: 1; fill: rgb(25, 211, 243); fill-opacity: 0.6; stroke-width: 0; opacity: 1;"/><path class="sankey-link" d="M759.9000000000001,532.9055900621117C946.19943,532.9055900621117 946.19943,483.557142857143 1132.49886,483.557142857143L1132.49886,485.37391304347835C946.19943,485.37391304347835 946.19943,534.7223602484471 759.9000000000001,534.7223602484471Z" style="stroke: rgb(68, 68, 68); stroke-opacity: 1; fill: rgb(25, 211, 243); fill-opacity: 0.6; stroke-width: 0; opacity: 1;"/><path class="sankey-link" d="M759.9000000000001,574.691304347826C946.19943,574.691304347826 946.19943,610.848447204969 1132.49886,610.848447204969L1132.49886,612.6652173913044C946.19943,612.6652173913044 946.19943,576.5080745341613 759.9000000000001,576.5080745341613Z" style="stroke: rgb(68, 68, 68); stroke-opacity: 1; fill: rgb(25, 211, 243); fill-opacity: 0.6; stroke-width: 0; opacity: 1;"/><path class="sankey-link" d="M759.9000000000001,149.22049689440982C946.19943,149.22049689440982 946.19943,89.13913043478249 1132.49886,89.13913043478249L1132.49886,107.30683229813653C946.19943,107.30683229813653 946.19943,167.38819875776383 759.9000000000001,167.38819875776383Z" style="stroke: rgb(68, 68, 68); stroke-opacity: 1; fill: rgb(99, 110, 250); fill-opacity: 0.6; stroke-width: 0; opacity: 1;"/><path class="sankey-link" d="M759.9000000000001,247.32608695652158C946.19943,247.32608695652158 946.19943,323.73167701863383 1132.49886,323.73167701863383L1132.49886,327.36521739130467C946.19943,327.36521739130467 946.19943,250.95962732919236 759.9000000000001,250.95962732919236Z" style="stroke: rgb(68, 68, 68); stroke-opacity: 1; fill: rgb(99, 110, 250); fill-opacity: 0.6; stroke-width: 0; opacity: 1;"/><path class="sankey-link" d="M759.9000000000001,534.7223602484471C946.19943,534.7223602484471 946.19943,485.3739130434784 1132.49886,485.3739130434784L1132.49886,489.00745341614925C946.19943,489.00745341614925 946.19943,538.3559006211178 759.9000000000001,538.3559006211178Z" style="stroke: rgb(68, 68, 68); stroke-opacity: 1; fill: rgb(99, 110, 250); fill-opacity: 0.6; stroke-width: 0; opacity: 1;"/><path class="sankey-link" d="M759.9000000000001,576.5080745341613C946.19943,576.5080745341613 946.19943,612.6652173913044 1132.49886,612.6652173913044L1132.49886,621.7490683229814C946.19943,621.7490683229814 946.19943,585.5919254658384 759.9000000000001,585.5919254658384Z" style="stroke: rgb(68, 68, 68); stroke-opacity: 1; fill: rgb(99, 110, 250); fill-opacity: 0.6; stroke-width: 0; opacity: 1;"/><path class="sankey-link" d="M759.9000000000001,167.38819875776386C946.19943,167.38819875776386 946.19943,107.30683229813653 1132.49886,107.30683229813653L1132.49886,118.20745341614895C946.19943,118.20745341614895 946.19943,178.28881987577626 759.9000000000001,178.28881987577626Z" style="stroke: rgb(68, 68, 68); stroke-opacity: 1; fill: rgb(239, 85, 59); fill-opacity: 0.6; stroke-width: 0; opacity: 1;"/><path class="sankey-link" d="M759.9000000000001,250.95962732919241C946.19943,250.95962732919241 946.19943,327.3652173913046 1132.49886,327.3652173913046L1132.49886,338.265838509317C946.19943,338.265838509317 946.19943,261.8602484472048 759.9000000000001,261.8602484472048Z" style="stroke: rgb(68, 68, 68); stroke-opacity: 1; fill: rgb(239, 85, 59); fill-opacity: 0.6; stroke-width: 0; opacity: 1;"/><path class="sankey-link" d="M759.9000000000001,538.3559006211179C946.19943,538.3559006211179 946.19943,489.0074534161492 1132.49886,489.0074534161492L1132.49886,490.82422360248455C946.19943,490.82422360248455 946.19943,540.1726708074533 759.9000000000001,540.1726708074533Z" style="stroke: rgb(68, 68, 68); stroke-opacity: 1; fill: rgb(239, 85, 59); fill-opacity: 0.6; stroke-width: 0; opacity: 1;"/><path class="sankey-link" d="M759.9000000000001,585.5919254658384C946.19943,585.5919254658384 946.19943,621.7490683229814 1132.49886,621.7490683229814L1132.49886,623.5658385093168C946.19943,623.5658385093168 946.19943,587.4086956521737 759.9000000000001,587.4086956521737Z" style="stroke: rgb(68, 68, 68); stroke-opacity: 1; fill: rgb(239, 85, 59); fill-opacity: 0.6; stroke-width: 0; opacity: 1;"/><path class="sankey-link" d="M759.9000000000001,178.28881987577628C946.19943,178.28881987577628 946.19943,118.20745341614895 1132.49886,118.20745341614895L1132.49886,123.65776397515515C946.19943,123.65776397515515 946.19943,183.73913043478248 759.9000000000001,183.73913043478248Z" style="stroke: rgb(68, 68, 68); stroke-opacity: 1; fill: rgb(254, 203, 82); fill-opacity: 0.6; stroke-width: 0; opacity: 1;"/><path class="sankey-link" d="M759.9000000000001,261.8602484472048C946.19943,261.8602484472048 946.19943,338.265838509317 1132.49886,338.265838509317L1132.49886,341.89937888198784C946.19943,341.89937888198784 946.19943,265.49378881987565 759.9000000000001,265.49378881987565Z" style="stroke: rgb(68, 68, 68); stroke-opacity: 1; fill: rgb(254, 203, 82); fill-opacity: 0.6; stroke-width: 0; opacity: 1;"/><path class="sankey-link" d="M759.9000000000001,540.1726708074533C946.19943,540.1726708074533 946.19943,490.8242236024846 1132.49886,490.8242236024846L1132.49886,494.45776397515544C946.19943,494.45776397515544 946.19943,543.806211180124 759.9000000000001,543.806211180124Z" style="stroke: rgb(68, 68, 68); stroke-opacity: 1; fill: rgb(254, 203, 82); fill-opacity: 0.6; stroke-width: 0; opacity: 1;"/><path class="sankey-link" d="M759.9000000000001,587.4086956521737C946.19943,587.4086956521737 946.19943,623.5658385093168 1132.49886,623.5658385093168L1132.49886,629.0161490683231C946.19943,629.0161490683231 946.19943,592.85900621118 759.9000000000001,592.85900621118Z" style="stroke: rgb(68, 68, 68); stroke-opacity: 1; fill: rgb(254, 203, 82); fill-opacity: 0.6; stroke-width: 0; opacity: 1;"/><path class="sankey-link" d="M759.9000000000001,183.73913043478248C946.19943,183.73913043478248 946.19943,123.65776397515516 1132.49886,123.65776397515516L1132.49886,134.55838509316757C946.19943,134.55838509316757 946.19943,194.63975155279488 759.9000000000001,194.63975155279488Z" style="stroke: rgb(68, 68, 68); stroke-opacity: 1; fill: rgb(171, 99, 250); fill-opacity: 0.6; stroke-width: 0; opacity: 1;"/><path class="sankey-link" d="M759.9000000000001,265.4937888198756C946.19943,265.4937888198756 946.19943,341.8993788819878 1132.49886,341.8993788819878L1132.49886,347.349689440994C946.19943,347.349689440994 946.19943,270.9440993788818 759.9000000000001,270.9440993788818Z" style="stroke: rgb(68, 68, 68); stroke-opacity: 1; fill: rgb(171, 99, 250); fill-opacity: 0.6; stroke-width: 0; opacity: 1;"/><path class="sankey-link" d="M759.9000000000001,543.8062111801241C946.19943,543.8062111801241 946.19943,494.4577639751554 1132.49886,494.4577639751554L1132.49886,499.9080745341616C946.19943,499.9080745341616 946.19943,549.2565217391304 759.9000000000001,549.2565217391304Z" style="stroke: rgb(68, 68, 68); stroke-opacity: 1; fill: rgb(171, 99, 250); fill-opacity: 0.6; stroke-width: 0; opacity: 1;"/><path class="sankey-link" d="M759.9000000000001,592.8590062111799C946.19943,592.8590062111799 946.19943,629.016149068323 1132.49886,629.016149068323L1132.49886,632.6496894409937C946.19943,632.6496894409937 946.19943,596.4925465838506 759.9000000000001,596.4925465838506Z" style="stroke: rgb(68, 68, 68); stroke-opacity: 1; fill: rgb(171, 99, 250); fill-opacity: 0.6; stroke-width: 0; opacity: 1;"/><path class="sankey-link" d="M759.9000000000001,194.6397515527949C946.19943,194.6397515527949 946.19943,134.55838509316757 1132.49886,134.55838509316757L1132.49886,158.17639751552784C946.19943,158.17639751552784 946.19943,218.25776397515517 759.9000000000001,218.25776397515517Z" style="stroke: rgb(68, 68, 68); stroke-opacity: 1; fill: rgb(0, 204, 150); fill-opacity: 0.6; stroke-width: 0; opacity: 1;"/><path class="sankey-link" d="M759.9000000000001,270.9440993788818C946.19943,270.9440993788818 946.19943,347.349689440994 1132.49886,347.349689440994L1132.49886,361.8838509316772C946.19943,361.8838509316772 946.19943,285.478260869565 759.9000000000001,285.478260869565Z" style="stroke: rgb(68, 68, 68); stroke-opacity: 1; fill: rgb(0, 204, 150); fill-opacity: 0.6; stroke-width: 0; opacity: 1;"/><path class="sankey-link" d="M759.9000000000001,549.2565217391303C946.19943,549.2565217391303 946.19943,499.9080745341616 1132.49886,499.9080745341616L1132.49886,507.17515527950314C946.19943,507.17515527950314 946.19943,556.523602484472 759.9000000000001,556.523602484472Z" style="stroke: rgb(68, 68, 68); stroke-opacity: 1; fill: rgb(0, 204, 150); fill-opacity: 0.6; stroke-width: 0; opacity: 1;"/><path class="sankey-link" d="M759.9000000000001,596.4925465838508C946.19943,596.4925465838508 946.19943,632.6496894409938 1132.49886,632.6496894409938L1132.49886,634.4664596273292C946.19943,634.4664596273292 946.19943,598.3093167701861 759.9000000000001,598.3093167701861Z" style="stroke: rgb(68, 68, 68); stroke-opacity: 1; fill: rgb(0, 204, 150); fill-opacity: 0.6; stroke-width: 0; opacity: 1;"/><path class="sankey-link" d="M759.9000000000001,218.25776397515514C946.19943,218.25776397515514 946.19943,158.1763975155278 1132.49886,158.1763975155278L1132.49886,172.71055900621104C946.19943,172.71055900621104 946.19943,232.79192546583837 759.9000000000001,232.79192546583837Z" style="stroke: rgb(68, 68, 68); stroke-opacity: 1; fill: rgb(255, 161, 90); fill-opacity: 0.6; stroke-width: 0; opacity: 1;"/><path class="sankey-link" d="M759.9000000000001,285.478260869565C946.19943,285.478260869565 946.19943,361.8838509316772 1132.49886,361.8838509316772L1132.49886,374.6012422360251C946.19943,374.6012422360251 946.19943,298.1956521739129 759.9000000000001,298.1956521739129Z" style="stroke: rgb(68, 68, 68); stroke-opacity: 1; fill: rgb(255, 161, 90); fill-opacity: 0.6; stroke-width: 0; opacity: 1;"/><path class="sankey-link" d="M759.9000000000001,556.5236024844719C946.19943,556.5236024844719 946.19943,507.17515527950314 1132.49886,507.17515527950314L1132.49886,519.892546583851C946.19943,519.892546583851 946.19943,569.2409937888197 759.9000000000001,569.2409937888197Z" style="stroke: rgb(68, 68, 68); stroke-opacity: 1; fill: rgb(255, 161, 90); fill-opacity: 0.6; stroke-width: 0; opacity: 1;"/><path class="sankey-link" d="M759.9000000000001,598.3093167701861C946.19943,598.3093167701861 946.19943,634.4664596273292 1132.49886,634.4664596273292L1132.49886,659.9012422360249C946.19943,659.9012422360249 946.19943,623.7440993788819 759.9000000000001,623.7440993788819Z" style="stroke: rgb(68, 68, 68); stroke-opacity: 1; fill: rgb(255, 161, 90); fill-opacity: 0.6; stroke-width: 0; opacity: 1;"/><path class="sankey-link" d="M759.9000000000001,232.79192546583837C946.19943,232.79192546583837 946.19943,172.71055900621104 1132.49886,172.71055900621104L1132.49886,178.16086956521724C946.19943,178.16086956521724 946.19943,238.24223602484457 759.9000000000001,238.24223602484457Z" style="stroke: rgb(68, 68, 68); stroke-opacity: 1; fill: rgb(255, 151, 255); fill-opacity: 0.6; stroke-width: 0; opacity: 1;"/><path class="sankey-link" d="M759.9000000000001,298.19565217391283C946.19943,298.19565217391283 946.19943,374.60124223602503 1132.49886,374.60124223602503L1132.49886,378.23478260869587C946.19943,378.23478260869587 946.19943,301.82919254658367 759.9000000000001,301.82919254658367Z" style="stroke: rgb(68, 68, 68); stroke-opacity: 1; fill: rgb(255, 151, 255); fill-opacity: 0.6; stroke-width: 0; opacity: 1;"/><path class="sankey-link" d="M759.9000000000001,569.2409937888198C946.19943,569.2409937888198 946.19943,519.8925465838511 1132.49886,519.8925465838511L1132.49886,523.5260869565218C946.19943,523.5260869565218 946.19943,572.8745341614905 759.9000000000001,572.8745341614905Z" style="stroke: rgb(68, 68, 68); stroke-opacity: 1; fill: rgb(255, 151, 255); fill-opacity: 0.6; stroke-width: 0; opacity: 1;"/><path class="sankey-link" d="M759.9000000000001,623.7440993788817C946.19943,623.7440993788817 946.19943,659.9012422360248 1132.49886,659.9012422360248L1132.49886,661.7180124223602C946.19943,661.7180124223602 946.19943,625.5608695652171 759.9000000000001,625.5608695652171Z" style="stroke: rgb(68, 68, 68); stroke-opacity: 1; fill: rgb(255, 151, 255); fill-opacity: 0.6; stroke-width: 0; opacity: 1;"/><path class="sankey-link" d="M759.9000000000001,238.24223602484457C946.19943,238.24223602484457 946.19943,178.16086956521724 1132.49886,178.16086956521724L1132.49886,181.79440993788802C946.19943,181.79440993788802 946.19943,241.87577639751535 759.9000000000001,241.87577639751535Z" style="stroke: rgb(68, 68, 68); stroke-opacity: 1; fill: rgb(255, 102, 146); fill-opacity: 0.6; stroke-width: 0; opacity: 1;"/><path class="sankey-link" d="M759.9000000000001,301.8291925465836C946.19943,301.8291925465836 946.19943,378.2347826086958 1132.49886,378.2347826086958L1132.49886,385.50186335403737C946.19943,385.50186335403737 946.19943,309.0962732919252 759.9000000000001,309.0962732919252Z" style="stroke: rgb(68, 68, 68); stroke-opacity: 1; fill: rgb(255, 102, 146); fill-opacity: 0.6; stroke-width: 0; opacity: 1;"/><path class="sankey-link" d="M759.9000000000001,572.8745341614906C946.19943,572.8745341614906 946.19943,523.5260869565219 1132.49886,523.5260869565219L1132.49886,525.3428571428573C946.19943,525.3428571428573 946.19943,574.691304347826 759.9000000000001,574.691304347826Z" style="stroke: rgb(68, 68, 68); stroke-opacity: 1; fill: rgb(255, 102, 146); fill-opacity: 0.6; stroke-width: 0; opacity: 1;"/><path class="sankey-link" d="M759.9000000000001,625.5608695652171C946.19943,625.5608695652171 946.19943,661.7180124223602 1132.49886,661.7180124223602L1132.49886,665.3515527950309C946.19943,665.3515527950309 946.19943,629.1944099378878 759.9000000000001,629.1944099378878Z" style="stroke: rgb(68, 68, 68); stroke-opacity: 1; fill: rgb(255, 102, 146); fill-opacity: 0.6; stroke-width: 0; opacity: 1;"/><path class="sankey-link" d="M759.9000000000001,309.09627329192523C946.19943,309.09627329192523 946.19943,385.5018633540374 1132.49886,385.5018633540374L1132.49886,387.3186335403728C946.19943,387.3186335403728 946.19943,310.9130434782606 759.9000000000001,310.9130434782606Z" style="stroke: rgb(68, 68, 68); stroke-opacity: 1; fill: rgb(182, 232, 128); fill-opacity: 0.6; stroke-width: 0; opacity: 1;"/></g><g class="sankey-node-set" style="cursor: ns-resize;"><g class="sankey-node" transform="translate(-7.499,15.683)" style="opacity: 1;"><rect class="node-rect" width="15" height="30.88509316770182" style="stroke-width: 0.5; stroke: rgb(0, 0, 0); stroke-opacity: 1; fill: rgb(128, 128, 128); fill-opacity: 1;"/><text class="node-label" data-notex="1" x="0" y="0" text-anchor="start" transform="translate(18.25,19.64254658385091)" style="cursor: default; font-family: 'Open Sans', verdana, arial, sans-serif; font-size: 12px; fill: rgb(42, 63, 95); fill-opacity: 1; white-space: pre; text-shadow: white 1px 1px 1px, white -1px -1px 1px, white 1px -1px 1px, white -1px 1px 1px;">21271R</text></g><g class="sankey-node" transform="translate(-7.499,71.760)" style="opacity: 1;"><rect class="node-rect" width="15" height="228.91304347826105" style="stroke-width: 0.5; stroke: rgb(0, 0, 0); stroke-opacity: 1; fill: rgb(128, 128, 128); fill-opacity: 1;"/><text class="node-label" data-notex="1" x="0" y="0" text-anchor="start" transform="translate(18.25,118.65652173913053)" style="cursor: default; font-family: 'Open Sans', verdana, arial, sans-serif; font-size: 12px; fill: rgb(42, 63, 95); fill-opacity: 1; white-space: pre; text-shadow: white 1px 1px 1px, white -1px -1px 1px, white 1px -1px 1px, white -1px 1px 1px;">21272R</text></g><g class="sankey-node" transform="translate(-7.499,327.072)" style="opacity: 1;"><rect class="node-rect" width="15" height="59.9534161490684" style="stroke-width: 0.5; stroke: rgb(0, 0, 0); stroke-opacity: 1; fill: rgb(128, 128, 128); fill-opacity: 1;"/><text class="node-label" data-notex="1" x="0" y="0" text-anchor="start" transform="translate(18.25,34.176708074534204)" style="cursor: default; font-family: 'Open Sans', verdana, arial, sans-serif; font-size: 12px; fill: rgb(42, 63, 95); fill-opacity: 1; white-space: pre; text-shadow: white 1px 1px 1px, white -1px -1px 1px, white 1px -1px 1px, white -1px 1px 1px;">21965RL</text></g><g class="sankey-node" transform="translate(-7.499,409.425)" style="opacity: 1;"><rect class="node-rect" width="15" height="132.62422360248445" style="stroke-width: 0.5; stroke: rgb(0, 0, 0); stroke-opacity: 1; fill: rgb(128, 128, 128); fill-opacity: 1;"/><text class="node-label" data-notex="1" x="0" y="0" text-anchor="start" transform="translate(18.25,70.51211180124223)" style="cursor: default; font-family: 'Open Sans', verdana, arial, sans-serif; font-size: 12px; fill: rgb(42, 63, 95); fill-opacity: 1; white-space: pre; text-shadow: white 1px 1px 1px, white -1px -1px 1px, white 1px -1px 1px, white -1px 1px 1px;">22384</text></g><g class="sankey-node" transform="translate(-7.499,567.467)" style="opacity: 1;"><rect class="node-rect" width="15" height="132.62422360248456" style="stroke-width: 0.5; stroke: rgb(0, 0, 0); stroke-opacity: 1; fill: rgb(128, 128, 128); fill-opacity: 1;"/><text class="node-label" data-notex="1" x="0" y="0" text-anchor="start" transform="translate(18.25,70.51211180124228)" style="cursor: default; font-family: 'Open Sans', verdana, arial, sans-serif; font-size: 12px; fill: rgb(42, 63, 95); fill-opacity: 1; white-space: pre; text-shadow: white 1px 1px 1px, white -1px -1px 1px, white 1px -1px 1px, white -1px 1px 1px;">22670</text></g><g class="sankey-node" transform="translate(744.900,145.587)" style="opacity: 1;"><rect class="node-rect" width="15" height="165.32608695652198" style="stroke-width: 0.5; stroke: rgb(0, 0, 0); stroke-opacity: 1; fill: rgb(128, 128, 128); fill-opacity: 1;"/><text class="node-label" data-notex="1" x="0" y="0" text-anchor="start" transform="translate(18.25,86.86304347826099)" style="cursor: default; font-family: 'Open Sans', verdana, arial, sans-serif; font-size: 12px; fill: rgb(42, 63, 95); fill-opacity: 1; white-space: pre; text-shadow: white 1px 1px 1px, white -1px -1px 1px, white 1px -1px 1px, white -1px 1px 1px;">Active</text></g><g class="sankey-node" transform="translate(744.900,532.906)" style="opacity: 1;"><rect class="node-rect" width="15" height="96.28881987577665" style="stroke-width: 0.5; stroke: rgb(0, 0, 0); stroke-opacity: 1; fill: rgb(128, 128, 128); fill-opacity: 1;"/><text class="node-label" data-notex="1" x="0" y="0" text-anchor="start" transform="translate(18.25,52.34440993788833)" style="cursor: default; font-family: 'Open Sans', verdana, arial, sans-serif; font-size: 12px; fill: rgb(42, 63, 95); fill-opacity: 1; white-space: pre; text-shadow: white 1px 1px 1px, white -1px -1px 1px, white 1px -1px 1px, white -1px 1px 1px;">NonActive</text></g><g class="sankey-node" transform="translate(1132.499,85.506)" style="opacity: 1;"><rect class="node-rect" width="15" height="96.28881987577665" style="stroke-width: 0.5; stroke: rgb(0, 0, 0); stroke-opacity: 1; fill: rgb(128, 128, 128); fill-opacity: 1;"/><text class="node-label" data-notex="1" x="0" y="0" text-anchor="end" transform="translate(-3.25,52.34440993788833)" style="cursor: default; font-family: 'Open Sans', verdana, arial, sans-serif; font-size: 12px; fill: rgb(42, 63, 95); fill-opacity: 1; white-space: pre; text-shadow: white 1px 1px 1px, white -1px -1px 1px, white 1px -1px 1px, white -1px 1px 1px;">Active-activated</text></g><g class="sankey-node" transform="translate(1132.499,318.281)" style="opacity: 1;"><rect class="node-rect" width="15" height="69.03726708074487" style="stroke-width: 0.5; stroke: rgb(0, 0, 0); stroke-opacity: 1; fill: rgb(128, 128, 128); fill-opacity: 1;"/><text class="node-label" data-notex="1" x="0" y="0" text-anchor="end" transform="translate(-3.25,38.71863354037244)" style="cursor: default; font-family: 'Open Sans', verdana, arial, sans-serif; font-size: 12px; fill: rgb(42, 63, 95); fill-opacity: 1; white-space: pre; text-shadow: white 1px 1px 1px, white -1px -1px 1px, white 1px -1px 1px, white -1px 1px 1px;">Active-suppressed</text></g><g class="sankey-node" transform="translate(1132.499,483.557)" style="opacity: 1;"><rect class="node-rect" width="15" height="41.785714285714164" style="stroke-width: 0.5; stroke: rgb(0, 0, 0); stroke-opacity: 1; fill: rgb(128, 128, 128); fill-opacity: 1;"/><text class="node-label" data-notex="1" x="0" y="0" text-anchor="end" transform="translate(-3.25,25.09285714285708)" style="cursor: default; font-family: 'Open Sans', verdana, arial, sans-serif; font-size: 12px; fill: rgb(42, 63, 95); fill-opacity: 1; white-space: pre; text-shadow: white 1px 1px 1px, white -1px -1px 1px, white 1px -1px 1px, white -1px 1px 1px;">NonActive-activated</text></g><g class="sankey-node" transform="translate(1132.499,610.848)" style="opacity: 1;"><rect class="node-rect" width="15" height="54.503105590062205" style="stroke-width: 0.5; stroke: rgb(0, 0, 0); stroke-opacity: 1; fill: rgb(128, 128, 128); fill-opacity: 1;"/><text class="node-label" data-notex="1" x="0" y="0" text-anchor="end" transform="translate(-3.25,31.451552795031102)" style="cursor: default; font-family: 'Open Sans', verdana, arial, sans-serif; font-size: 12px; fill: rgb(42, 63, 95); fill-opacity: 1; white-space: pre; text-shadow: white 1px 1px 1px, white -1px -1px 1px, white 1px -1px 1px, white -1px 1px 1px;">NonActive-suppressed</text></g><g class="sankey-node" transform="translate(368.700,13.746)" style="opacity: 1;"><rect class="node-rect" width="15" height="32.70186335403713" style="stroke-width: 0.5; stroke: rgb(0, 0, 0); stroke-opacity: 1; fill: rgb(25, 211, 243); fill-opacity: 1;"/><text class="node-label" data-notex="1" x="0" y="0" text-anchor="start" transform="translate(18.25,20.550931677018564)" style="cursor: default; font-family: 'Open Sans', verdana, arial, sans-serif; font-size: 12px; fill: rgb(42, 63, 95); fill-opacity: 1; white-space: pre; text-shadow: white 1px 1px 1px, white -1px -1px 1px, white 1px -1px 1px, white -1px 1px 1px;">BLA</text></g><g class="sankey-node" transform="translate(368.700,58.304)" style="opacity: 1;"><rect class="node-rect" width="15" height="94.47204968944129" style="stroke-width: 0.5; stroke: rgb(0, 0, 0); stroke-opacity: 1; fill: rgb(99, 110, 250); fill-opacity: 1;"/><text class="node-label" data-notex="1" x="0" y="0" text-anchor="start" transform="translate(18.25,51.43602484472065)" style="cursor: default; font-family: 'Open Sans', verdana, arial, sans-serif; font-size: 12px; fill: rgb(42, 63, 95); fill-opacity: 1; white-space: pre; text-shadow: white 1px 1px 1px, white -1px -1px 1px, white 1px -1px 1px, white -1px 1px 1px;">Cla</text></g><g class="sankey-node" transform="translate(368.700,163.906)" style="opacity: 1;"><rect class="node-rect" width="15" height="69.03726708074521" style="stroke-width: 0.5; stroke: rgb(0, 0, 0); stroke-opacity: 1; fill: rgb(239, 85, 59); fill-opacity: 1;"/><text class="node-label" data-notex="1" x="0" y="0" text-anchor="start" transform="translate(18.25,38.71863354037261)" style="cursor: default; font-family: 'Open Sans', verdana, arial, sans-serif; font-size: 12px; fill: rgb(42, 63, 95); fill-opacity: 1; white-space: pre; text-shadow: white 1px 1px 1px, white -1px -1px 1px, white 1px -1px 1px, white -1px 1px 1px;">LC</text></g><g class="sankey-node" transform="translate(368.700,245.381)" style="opacity: 1;"><rect class="node-rect" width="15" height="29.068322981366236" style="stroke-width: 0.5; stroke: rgb(0, 0, 0); stroke-opacity: 1; fill: rgb(254, 203, 82); fill-opacity: 1;"/><text class="node-label" data-notex="1" x="0" y="0" text-anchor="start" transform="translate(18.25,18.734161490683118)" style="cursor: default; font-family: 'Open Sans', verdana, arial, sans-serif; font-size: 12px; fill: rgb(42, 63, 95); fill-opacity: 1; white-space: pre; text-shadow: white 1px 1px 1px, white -1px -1px 1px, white 1px -1px 1px, white -1px 1px 1px;">LHyp</text></g><g class="sankey-node" transform="translate(368.700,287.469)" style="opacity: 1;"><rect class="node-rect" width="15" height="39.96894409937863" style="stroke-width: 0.5; stroke: rgb(0, 0, 0); stroke-opacity: 1; fill: rgb(171, 99, 250); fill-opacity: 1;"/><text class="node-label" data-notex="1" x="0" y="0" text-anchor="start" transform="translate(18.25,24.184472049689315)" style="cursor: default; font-family: 'Open Sans', verdana, arial, sans-serif; font-size: 12px; fill: rgb(42, 63, 95); fill-opacity: 1; white-space: pre; text-shadow: white 1px 1px 1px, white -1px -1px 1px, white 1px -1px 1px, white -1px 1px 1px;">NAc</text></g><g class="sankey-node" transform="translate(368.700,339.222)" style="opacity: 1;"><rect class="node-rect" width="15" height="90.83850931677" style="stroke-width: 0.5; stroke: rgb(0, 0, 0); stroke-opacity: 1; fill: rgb(0, 204, 150); fill-opacity: 1;"/><text class="node-label" data-notex="1" x="0" y="0" text-anchor="start" transform="translate(18.25,49.619254658385)" style="cursor: default; font-family: 'Open Sans', verdana, arial, sans-serif; font-size: 12px; fill: rgb(42, 63, 95); fill-opacity: 1; white-space: pre; text-shadow: white 1px 1px 1px, white -1px -1px 1px, white 1px -1px 1px, white -1px 1px 1px;">Str</text></g><g class="sankey-node" transform="translate(368.700,439.809)" style="opacity: 1;"><rect class="node-rect" width="15" height="141.708074534162" style="stroke-width: 0.5; stroke: rgb(0, 0, 0); stroke-opacity: 1; fill: rgb(255, 161, 90); fill-opacity: 1;"/><text class="node-label" data-notex="1" x="0" y="0" text-anchor="start" transform="translate(18.25,75.054037267081)" style="cursor: default; font-family: 'Open Sans', verdana, arial, sans-serif; font-size: 12px; fill: rgb(42, 63, 95); fill-opacity: 1; white-space: pre; text-shadow: white 1px 1px 1px, white -1px -1px 1px, white 1px -1px 1px, white -1px 1px 1px;">VTA</text></g><g class="sankey-node" transform="translate(368.700,592.030)" style="opacity: 1;"><rect class="node-rect" width="15" height="52.6863354037273" style="stroke-width: 0.5; stroke: rgb(0, 0, 0); stroke-opacity: 1; fill: rgb(255, 151, 255); fill-opacity: 1;"/><text class="node-label" data-notex="1" x="0" y="0" text-anchor="start" transform="translate(18.25,30.54316770186365)" style="cursor: default; font-family: 'Open Sans', verdana, arial, sans-serif; font-size: 12px; fill: rgb(42, 63, 95); fill-opacity: 1; white-space: pre; text-shadow: white 1px 1px 1px, white -1px -1px 1px, white 1px -1px 1px, white -1px 1px 1px;">cPFC</text></g><g class="sankey-node" transform="translate(368.700,657.517)" style="opacity: 1;"><rect class="node-rect" width="15" height="27.25155279503133" style="stroke-width: 0.5; stroke: rgb(0, 0, 0); stroke-opacity: 1; fill: rgb(255, 102, 146); fill-opacity: 1;"/><text class="node-label" data-notex="1" x="0" y="0" text-anchor="start" transform="translate(18.25,17.825776397515664)" style="cursor: default; font-family: 'Open Sans', verdana, arial, sans-serif; font-size: 12px; fill: rgb(42, 63, 95); fill-opacity: 1; white-space: pre; text-shadow: white 1px 1px 1px, white -1px -1px 1px, white 1px -1px 1px, white -1px 1px 1px;">dPAG</text></g><g class="sankey-node" transform="translate(368.700,698.478)" style="opacity: 1;"><rect class="node-rect" width="15" height="7.267080745341673" style="stroke-width: 0.5; stroke: rgb(0, 0, 0); stroke-opacity: 1; fill: rgb(182, 232, 128); fill-opacity: 1;"/><text class="node-label" data-notex="1" x="0" y="0" text-anchor="start" transform="translate(18.25,7.833540372670836)" style="cursor: default; font-family: 'Open Sans', verdana, arial, sans-serif; font-size: 12px; fill: rgb(42, 63, 95); fill-opacity: 1; white-space: pre; text-shadow: white 1px 1px 1px, white -1px -1px 1px, white 1px -1px 1px, white -1px 1px 1px;">lHb</text></g></g></g><defs id="topdefs-5101c1"><g class="clips"/></defs><g class="layer-above"><g class="imagelayer"/><g class="shapelayer"/></g><g class="infolayer"><g class="g-gtitle"/><g class="first-render"/></g></svg>