<svg class="main-svg" xmlns="http://www.w3.org/2000/svg" xmlns:xlink="http://www.w3.org/1999/xlink" width="1300" height="900" viewBox="0 0 1300 900" style=""><rect x="0" y="0" width="1300" height="900" style="fill: rgb(255, 255, 255); fill-opacity: 1;"/><defs id="defs-865ebf"><g class="clips"/><g class="gradients"/><g class="patterns"/></defs><g class="bglayer"/><g class="layer-below"><g class="imagelayer"/><g class="shapelayer"/></g><g class="cartesianlayer"/><g class="polarlayer"/><g class="smithlayer"/><g class="ternarylayer"/><g class="geolayer"/><g class="funnelarealayer"/><g class="pielayer"/><g class="iciclelayer"/><g class="treemaplayer"/><g class="sunburstlayer"/><g class="glimages"/><g class="sankey" transform="translate(80,100)matrix(1 0 0 1 0 0)" style="box-sizing: content-box; position: absolute; left: 0px; shape-rendering: geometricprecision; pointer-events: none;"><g class="sankey-links" style="fill: none;"><path class="sankey-link" d="M15,650.1990632318501C195,650.1990632318501 195,542.1077283372374 375,542.1077283372374L375,551.6978922716637C195,551.6978922716637 195,659.7892271662764 15,659.7892271662764Z" style="stroke: rgb(68, 68, 68); stroke-opacity: 1; fill: rgb(99, 110, 250); fill-opacity: 0.6; stroke-width: 0; opacity: 1;"/><path class="sankey-link" d="M15,640.6088992974238C195,640.6088992974238 195,234.0632318501182 375,234.0632318501182L375,238.17330210772946C195,238.17330210772946 195,644.718969555035 15,644.718969555035Z" style="stroke: rgb(68, 68, 68); stroke-opacity: 1; fill: rgb(239, 85, 59); fill-opacity: 0.6; stroke-width: 0; opacity: 1;"/><path class="sankey-link" d="M15,646.0889929742389C195,646.0889929742389 195,444.90632318501264 375,444.90632318501264L375,449.0163934426239C195,449.0163934426239 195,650.19906323185 15,650.19906323185Z" style="stroke: rgb(68, 68, 68); stroke-opacity: 1; fill: rgb(171, 99, 250); fill-opacity: 0.6; stroke-width: 0; opacity: 1;"/><path class="sankey-link" d="M15,636.4988290398126C195,636.4988290398126 195,109.53161592505961 375,109.53161592505961L375,113.64168618267087C195,113.64168618267087 195,640.6088992974237 15,640.6088992974237Z" style="stroke: rgb(68, 68, 68); stroke-opacity: 1; fill: rgb(0, 204, 150); fill-opacity: 0.6; stroke-width: 0; opacity: 1;"/><path class="sankey-link" d="M15,644.7189695550351C195,644.7189695550351 195,368.25526932084404 375,368.25526932084404L375,369.6252927400478C195,369.6252927400478 195,646.0889929742389 15,646.0889929742389Z" style="stroke: rgb(68, 68, 68); stroke-opacity: 1; fill: rgb(255, 161, 90); fill-opacity: 0.6; stroke-width: 0; opacity: 1;"/><path class="sankey-link" d="M15,218.85245901639325C195,218.85245901639325 195,8.526512829121202e-13 375,8.526512829121202e-13L375,20.55035128805706C195,20.55035128805706 195,239.40281030444947 15,239.40281030444947Z" style="stroke: rgb(68, 68, 68); stroke-opacity: 1; fill: rgb(25, 211, 243); fill-opacity: 0.6; stroke-width: 0; opacity: 1;"/><path class="sankey-link" d="M15,338.0444964871193C195,338.0444964871193 195,492.78688524590257 375,492.78688524590257L375,520.1873536299775C195,520.1873536299775 195,365.4449648711942 15,365.4449648711942Z" style="stroke: rgb(68, 68, 68); stroke-opacity: 1; fill: rgb(99, 110, 250); fill-opacity: 0.6; stroke-width: 0; opacity: 1;"/><path class="sankey-link" d="M15,280.5035128805619C195,280.5035128805619 195,190.2224824355983 375,190.2224824355983L375,220.36299765808076C195,220.36299765808076 195,310.6440281030444 15,310.6440281030444Z" style="stroke: rgb(68, 68, 68); stroke-opacity: 1; fill: rgb(239, 85, 59); fill-opacity: 0.6; stroke-width: 0; opacity: 1;"/><path class="sankey-link" d="M15,320.23419203747056C195,320.23419203747056 195,427.09601873536394 375,427.09601873536394L375,444.90632318501264C195,444.90632318501264 195,338.04449648711926 15,338.04449648711926Z" style="stroke: rgb(68, 68, 68); stroke-opacity: 1; fill: rgb(171, 99, 250); fill-opacity: 0.6; stroke-width: 0; opacity: 1;"/><path class="sankey-link" d="M15,239.40281030444947C195,239.40281030444947 195,49.25058548009474 375,49.25058548009474L375,84.87119437939216C195,84.87119437939216 195,275.02341920374687 15,275.02341920374687Z" style="stroke: rgb(68, 68, 68); stroke-opacity: 1; fill: rgb(0, 204, 150); fill-opacity: 0.6; stroke-width: 0; opacity: 1;"/><path class="sankey-link" d="M15,310.6440281030443C195,310.6440281030443 195,265.503512880563 375,265.503512880563L375,275.0936768149892C195,275.0936768149892 195,320.2341920374705 15,320.2341920374705Z" style="stroke: rgb(68, 68, 68); stroke-opacity: 1; fill: rgb(255, 161, 90); fill-opacity: 0.6; stroke-width: 0; opacity: 1;"/><path class="sankey-link" d="M15,365.4449648711942C195,365.4449648711942 195,594.0983606557386 375,594.0983606557386L375,610.5386416861836C195,610.5386416861836 195,381.8852459016392 15,381.8852459016392Z" style="stroke: rgb(68, 68, 68); stroke-opacity: 1; fill: rgb(255, 151, 255); fill-opacity: 0.6; stroke-width: 0; opacity: 1;"/><path class="sankey-link" d="M15,381.88524590163917C195,381.88524590163917 195,657.0491803278694 375,657.0491803278694L375,666.6393442622957C195,666.6393442622957 195,391.47540983606535 15,391.47540983606535Z" style="stroke: rgb(68, 68, 68); stroke-opacity: 1; fill: rgb(255, 102, 146); fill-opacity: 0.6; stroke-width: 0; opacity: 1;"/><path class="sankey-link" d="M15,275.0234192037469C195,275.0234192037469 195,165.632318501172 375,165.632318501172L375,171.11241217798698C195,171.11241217798698 195,280.50351288056186 15,280.50351288056186Z" style="stroke: rgb(68, 68, 68); stroke-opacity: 1; fill: rgb(182, 232, 128); fill-opacity: 0.6; stroke-width: 0; opacity: 1;"/><path class="sankey-link" d="M15,674.7892271662763C195,674.7892271662763 195,20.55035128805706 375,20.55035128805706L375,24.6604215456683C195,24.6604215456683 195,678.8992974238874 15,678.8992974238874Z" style="stroke: rgb(68, 68, 68); stroke-opacity: 1; fill: rgb(25, 211, 243); fill-opacity: 0.6; stroke-width: 0; opacity: 1;"/><path class="sankey-link" d="M15,698.07962529274C195,698.07962529274 195,551.6978922716636 375,551.6978922716636L375,564.0281030444972C195,564.0281030444972 195,710.4098360655737 15,710.4098360655737Z" style="stroke: rgb(68, 68, 68); stroke-opacity: 1; fill: rgb(99, 110, 250); fill-opacity: 0.6; stroke-width: 0; opacity: 1;"/><path class="sankey-link" d="M15,683.0093676814988C195,683.0093676814988 195,238.17330210772946 375,238.17330210772946L375,242.2833723653407C195,242.2833723653407 195,687.11943793911 15,687.11943793911Z" style="stroke: rgb(68, 68, 68); stroke-opacity: 1; fill: rgb(239, 85, 59); fill-opacity: 0.6; stroke-width: 0; opacity: 1;"/><path class="sankey-link" d="M15,689.8594847775175C195,689.8594847775175 195,449.0163934426239 375,449.0163934426239L375,457.2365339578464C195,457.2365339578464 195,698.07962529274 15,698.07962529274Z" style="stroke: rgb(68, 68, 68); stroke-opacity: 1; fill: rgb(171, 99, 250); fill-opacity: 0.6; stroke-width: 0; opacity: 1;"/><path class="sankey-link" d="M15,678.8992974238876C195,678.8992974238876 195,113.64168618267084 375,113.64168618267084L375,117.7517564402821C195,117.7517564402821 195,683.0093676814987 15,683.0093676814987Z" style="stroke: rgb(68, 68, 68); stroke-opacity: 1; fill: rgb(0, 204, 150); fill-opacity: 0.6; stroke-width: 0; opacity: 1;"/><path class="sankey-link" d="M15,687.1194379391101C195,687.1194379391101 195,369.62529274004777 375,369.62529274004777L375,372.36533957845523C195,372.36533957845523 195,689.8594847775177 15,689.8594847775177Z" style="stroke: rgb(68, 68, 68); stroke-opacity: 1; fill: rgb(255, 161, 90); fill-opacity: 0.6; stroke-width: 0; opacity: 1;"/><path class="sankey-link" d="M15,710.4098360655738C195,710.4098360655738 195,629.718969555036 375,629.718969555036L375,633.8290398126471C195,633.8290398126471 195,714.519906323185 15,714.519906323185Z" style="stroke: rgb(68, 68, 68); stroke-opacity: 1; fill: rgb(255, 151, 255); fill-opacity: 0.6; stroke-width: 0; opacity: 1;"/><path class="sankey-link" d="M15,714.5199063231851C195,714.5199063231851 195,672.1194379391105 375,672.1194379391105L375,677.5995316159255C195,677.5995316159255 195,720 15,720Z" style="stroke: rgb(68, 68, 68); stroke-opacity: 1; fill: rgb(255, 102, 146); fill-opacity: 0.6; stroke-width: 0; opacity: 1;"/><path class="sankey-link" d="M15,472.23653395784515C195,472.23653395784515 195,520.1873536299775 375,520.1873536299775L375,531.1475409836073C195,531.1475409836073 195,483.19672131147513 15,483.19672131147513Z" style="stroke: rgb(68, 68, 68); stroke-opacity: 1; fill: rgb(99, 110, 250); fill-opacity: 0.6; stroke-width: 0; opacity: 1;"/><path class="sankey-link" d="M15,418.805620608899C195,418.805620608899 195,220.36299765808073 375,220.36299765808073L375,227.21311475409945C195,227.21311475409945 195,425.6557377049177 15,425.6557377049177Z" style="stroke: rgb(68, 68, 68); stroke-opacity: 1; fill: rgb(239, 85, 59); fill-opacity: 0.6; stroke-width: 0; opacity: 1;"/><path class="sankey-link" d="M15,495.5269320843089C195,495.5269320843089 195,692.5995316159253 375,692.5995316159253L375,703.5597189695552C195,703.5597189695552 195,506.4871194379389 15,506.4871194379389Z" style="stroke: rgb(68, 68, 68); stroke-opacity: 1; fill: rgb(254, 203, 82); fill-opacity: 0.6; stroke-width: 0; opacity: 1;"/><path class="sankey-link" d="M15,406.4754098360653C195,406.4754098360653 195,84.87119437939216 375,84.87119437939216L375,97.20140515222587C195,97.20140515222587 195,418.80562060889906 15,418.80562060889906Z" style="stroke: rgb(68, 68, 68); stroke-opacity: 1; fill: rgb(0, 204, 150); fill-opacity: 0.6; stroke-width: 0; opacity: 1;"/><path class="sankey-link" d="M15,425.6557377049177C195,425.6557377049177 195,275.09367681498924 375,275.09367681498924L375,321.6744730679166C195,321.6744730679166 195,472.2365339578451 15,472.2365339578451Z" style="stroke: rgb(68, 68, 68); stroke-opacity: 1; fill: rgb(255, 161, 90); fill-opacity: 0.6; stroke-width: 0; opacity: 1;"/><path class="sankey-link" d="M15,483.19672131147513C195,483.19672131147513 195,610.5386416861836 375,610.5386416861836L375,620.1288056206099C195,620.1288056206099 195,492.7868852459013 15,492.7868852459013Z" style="stroke: rgb(68, 68, 68); stroke-opacity: 1; fill: rgb(255, 151, 255); fill-opacity: 0.6; stroke-width: 0; opacity: 1;"/><path class="sankey-link" d="M15,492.7868852459014C195,492.7868852459014 195,666.6393442622956 375,666.6393442622956L375,669.3793911007032C195,669.3793911007032 195,495.52693208430884 15,495.52693208430884Z" style="stroke: rgb(68, 68, 68); stroke-opacity: 1; fill: rgb(255, 102, 146); fill-opacity: 0.6; stroke-width: 0; opacity: 1;"/><path class="sankey-link" d="M15,587.248243559719C195,587.248243559719 195,531.1475409836075 375,531.1475409836075L375,542.1077283372374C195,542.1077283372374 195,598.2084309133488 15,598.2084309133488Z" style="stroke: rgb(68, 68, 68); stroke-opacity: 1; fill: rgb(99, 110, 250); fill-opacity: 0.6; stroke-width: 0; opacity: 1;"/><path class="sankey-link" d="M15,533.8173302107729C195,533.8173302107729 195,227.21311475409948 375,227.21311475409948L375,234.0632318501182C195,234.0632318501182 195,540.6674473067916 15,540.6674473067916Z" style="stroke: rgb(68, 68, 68); stroke-opacity: 1; fill: rgb(239, 85, 59); fill-opacity: 0.6; stroke-width: 0; opacity: 1;"/><path class="sankey-link" d="M15,610.5386416861827C195,610.5386416861827 195,703.5597189695554 375,703.5597189695554L375,714.5199063231853C195,714.5199063231853 195,621.4988290398126 15,621.4988290398126Z" style="stroke: rgb(68, 68, 68); stroke-opacity: 1; fill: rgb(254, 203, 82); fill-opacity: 0.6; stroke-width: 0; opacity: 1;"/><path class="sankey-link" d="M15,521.4871194379391C195,521.4871194379391 195,97.2014051522259 375,97.2014051522259L375,109.53161592505961C195,109.53161592505961 195,533.8173302107728 15,533.8173302107728Z" style="stroke: rgb(68, 68, 68); stroke-opacity: 1; fill: rgb(0, 204, 150); fill-opacity: 0.6; stroke-width: 0; opacity: 1;"/><path class="sankey-link" d="M15,540.6674473067916C195,540.6674473067916 195,321.67447306791667 375,321.67447306791667L375,368.25526932084404C195,368.25526932084404 195,587.2482435597191 15,587.2482435597191Z" style="stroke: rgb(68, 68, 68); stroke-opacity: 1; fill: rgb(255, 161, 90); fill-opacity: 0.6; stroke-width: 0; opacity: 1;"/><path class="sankey-link" d="M15,598.2084309133489C195,598.2084309133489 195,620.1288056206098 375,620.1288056206098L375,629.7189695550361C195,629.7189695550361 195,607.7985948477752 15,607.7985948477752Z" style="stroke: rgb(68, 68, 68); stroke-opacity: 1; fill: rgb(255, 151, 255); fill-opacity: 0.6; stroke-width: 0; opacity: 1;"/><path class="sankey-link" d="M15,607.7985948477751C195,607.7985948477751 195,669.3793911007031 375,669.3793911007031L375,672.1194379391106C195,672.1194379391106 195,610.5386416861827 15,610.5386416861827Z" style="stroke: rgb(68, 68, 68); stroke-opacity: 1; fill: rgb(255, 102, 146); fill-opacity: 0.6; stroke-width: 0; opacity: 1;"/><path class="sankey-link" d="M390,8.526512829121202e-13C570,8.526512829121202e-13 570,76.37002341920379 750,76.37002341920379L750,85.96018735363003C570,85.96018735363003 570,9.590163934427082 390,9.590163934427082Z" style="stroke: rgb(68, 68, 68); stroke-opacity: 1; fill: rgb(25, 211, 243); fill-opacity: 0.6; stroke-width: 0; opacity: 1;"/><path class="sankey-link" d="M390,32.88056206089078C570,32.88056206089078 570,658.3489461358313 750,658.3489461358313L750,659.7189695550351C570,659.7189695550351 570,34.25058548009453 390,34.25058548009453Z" style="stroke: rgb(68, 68, 68); stroke-opacity: 1; fill: rgb(25, 211, 243); fill-opacity: 0.6; stroke-width: 0; opacity: 1;"/><path class="sankey-link" d="M390,9.590163934427082C570,9.590163934427082 570,222.89227166276385 750,222.89227166276385L750,237.96252927400508C570,237.96252927400508 570,24.6604215456683 390,24.6604215456683Z" style="stroke: rgb(68, 68, 68); stroke-opacity: 1; fill: rgb(25, 211, 243); fill-opacity: 0.6; stroke-width: 0; opacity: 1;"/><path class="sankey-link" d="M390,24.6604215456683C570,24.6604215456683 570,439.2857142857147 750,439.2857142857147L750,447.5058548009372C570,447.5058548009372 570,32.88056206089078 390,32.88056206089078Z" style="stroke: rgb(68, 68, 68); stroke-opacity: 1; fill: rgb(25, 211, 243); fill-opacity: 0.6; stroke-width: 0; opacity: 1;"/><path class="sankey-link" d="M390,492.78688524590257C570,492.78688524590257 570,170.90163934426235 750,170.90163934426235L750,188.71194379391105C570,188.71194379391105 570,510.59718969555126 390,510.59718969555126Z" style="stroke: rgb(68, 68, 68); stroke-opacity: 1; fill: rgb(99, 110, 250); fill-opacity: 0.6; stroke-width: 0; opacity: 1;"/><path class="sankey-link" d="M390,559.9180327868861C570,559.9180327868861 570,614.5784543325523 750,614.5784543325523L750,626.9086651053859C570,626.9086651053859 570,572.2482435597198 390,572.2482435597198Z" style="stroke: rgb(68, 68, 68); stroke-opacity: 1; fill: rgb(99, 110, 250); fill-opacity: 0.6; stroke-width: 0; opacity: 1;"/><path class="sankey-link" d="M390,572.2482435597199C570,572.2482435597199 570,699.4496487119436 750,699.4496487119436L750,706.2997658079623C570,706.2997658079623 570,579.0983606557386 390,579.0983606557386Z" style="stroke: rgb(68, 68, 68); stroke-opacity: 1; fill: rgb(99, 110, 250); fill-opacity: 0.6; stroke-width: 0; opacity: 1;"/><path class="sankey-link" d="M390,510.59718969555126C570,510.59718969555126 570,368.114754098361 750,368.114754098361L750,396.8852459016397C570,396.8852459016397 570,539.3676814988299 390,539.3676814988299Z" style="stroke: rgb(68, 68, 68); stroke-opacity: 1; fill: rgb(99, 110, 250); fill-opacity: 0.6; stroke-width: 0; opacity: 1;"/><path class="sankey-link" d="M390,539.3676814988299C570,539.3676814988299 570,524.227166276347 750,524.227166276347L750,544.7775175644032C570,544.7775175644032 570,559.9180327868861 390,559.9180327868861Z" style="stroke: rgb(68, 68, 68); stroke-opacity: 1; fill: rgb(99, 110, 250); fill-opacity: 0.6; stroke-width: 0; opacity: 1;"/><path class="sankey-link" d="M390,190.2224824355983C570,190.2224824355983 570,109.25058548009372 750,109.25058548009372L750,127.06088992974242C570,127.06088992974242 570,208.032786885247 390,208.032786885247Z" style="stroke: rgb(68, 68, 68); stroke-opacity: 1; fill: rgb(239, 85, 59); fill-opacity: 0.6; stroke-width: 0; opacity: 1;"/><path class="sankey-link" d="M390,240.91334894613692C570,240.91334894613692 570,583.0679156908661 750,583.0679156908661L750,589.9180327868849C570,589.9180327868849 570,247.76346604215564 390,247.76346604215564Z" style="stroke: rgb(68, 68, 68); stroke-opacity: 1; fill: rgb(239, 85, 59); fill-opacity: 0.6; stroke-width: 0; opacity: 1;"/><path class="sankey-link" d="M390,247.76346604215564C570,247.76346604215564 570,666.5690866510538 750,666.5690866510538L750,669.3091334894614C570,669.3091334894614 570,250.5035128805631 390,250.5035128805631Z" style="stroke: rgb(68, 68, 68); stroke-opacity: 1; fill: rgb(239, 85, 59); fill-opacity: 0.6; stroke-width: 0; opacity: 1;"/><path class="sankey-link" d="M390,208.032786885247C570,208.032786885247 570,285.91334894613624 750,285.91334894613624L750,309.2037470726C570,309.2037470726 570,231.32318501171068 390,231.32318501171068Z" style="stroke: rgb(68, 68, 68); stroke-opacity: 1; fill: rgb(239, 85, 59); fill-opacity: 0.6; stroke-width: 0; opacity: 1;"/><path class="sankey-link" d="M390,231.32318501171068C570,231.32318501171068 570,474.9063231850121 750,474.9063231850121L750,484.4964871194383C570,484.4964871194383 570,240.91334894613692 390,240.91334894613692Z" style="stroke: rgb(68, 68, 68); stroke-opacity: 1; fill: rgb(239, 85, 59); fill-opacity: 0.6; stroke-width: 0; opacity: 1;"/><path class="sankey-link" d="M390,692.5995316159253C570,692.5995316159253 570,199.67213114754105 750,199.67213114754105L750,207.89227166276356C570,207.89227166276356 570,700.8196721311479 390,700.8196721311479Z" style="stroke: rgb(68, 68, 68); stroke-opacity: 1; fill: rgb(254, 203, 82); fill-opacity: 0.6; stroke-width: 0; opacity: 1;"/><path class="sankey-link" d="M390,709.0398126463704C570,709.0398126463704 570,639.2388758782198 750,639.2388758782198L750,643.3489461358309C570,643.3489461358309 570,713.1498829039815 390,713.1498829039815Z" style="stroke: rgb(68, 68, 68); stroke-opacity: 1; fill: rgb(254, 203, 82); fill-opacity: 0.6; stroke-width: 0; opacity: 1;"/><path class="sankey-link" d="M390,713.1498829039816C570,713.1498829039816 570,713.149882903981 750,713.149882903981L750,719.9999999999998C570,719.9999999999998 570,720.0000000000003 390,720.0000000000003Z" style="stroke: rgb(68, 68, 68); stroke-opacity: 1; fill: rgb(254, 203, 82); fill-opacity: 0.6; stroke-width: 0; opacity: 1;"/><path class="sankey-link" d="M390,700.8196721311479C570,700.8196721311479 570,416.0655737704921 750,416.0655737704921L750,424.2857142857146C570,424.2857142857146 570,709.0398126463704 390,709.0398126463704Z" style="stroke: rgb(68, 68, 68); stroke-opacity: 1; fill: rgb(254, 203, 82); fill-opacity: 0.6; stroke-width: 0; opacity: 1;"/><path class="sankey-link" d="M390,427.09601873536394C570,427.09601873536394 570,157.20140515222488 750,157.20140515222488L750,170.90163934426232C570,170.90163934426232 570,440.7962529274014 390,440.7962529274014Z" style="stroke: rgb(68, 68, 68); stroke-opacity: 1; fill: rgb(171, 99, 250); fill-opacity: 0.6; stroke-width: 0; opacity: 1;"/><path class="sankey-link" d="M390,468.1967213114763C570,468.1967213114763 570,610.468384074941 750,610.468384074941L750,614.5784543325522C570,614.5784543325522 570,472.3067915690876 390,472.3067915690876Z" style="stroke: rgb(68, 68, 68); stroke-opacity: 1; fill: rgb(171, 99, 250); fill-opacity: 0.6; stroke-width: 0; opacity: 1;"/><path class="sankey-link" d="M390,472.30679156908764C570,472.30679156908764 570,693.9695550351287 750,693.9695550351287L750,699.4496487119436C570,699.4496487119436 570,477.78688524590257 390,477.78688524590257Z" style="stroke: rgb(68, 68, 68); stroke-opacity: 1; fill: rgb(171, 99, 250); fill-opacity: 0.6; stroke-width: 0; opacity: 1;"/><path class="sankey-link" d="M390,440.7962529274014C570,440.7962529274014 570,350.3044496487123 750,350.3044496487123L750,368.114754098361C570,368.114754098361 570,458.6065573770501 390,458.6065573770501Z" style="stroke: rgb(68, 68, 68); stroke-opacity: 1; fill: rgb(171, 99, 250); fill-opacity: 0.6; stroke-width: 0; opacity: 1;"/><path class="sankey-link" d="M390,458.6065573770501C570,458.6065573770501 570,514.6370023419208 750,514.6370023419208L750,524.2271662763471C570,524.2271662763471 570,468.19672131147627 390,468.19672131147627Z" style="stroke: rgb(68, 68, 68); stroke-opacity: 1; fill: rgb(171, 99, 250); fill-opacity: 0.6; stroke-width: 0; opacity: 1;"/><path class="sankey-link" d="M390,49.25058548009474C570,49.25058548009474 570,85.96018735363002 750,85.96018735363002L750,107.88056206088997C570,107.88056206088997 570,71.1709601873547 390,71.1709601873547Z" style="stroke: rgb(68, 68, 68); stroke-opacity: 1; fill: rgb(0, 204, 150); fill-opacity: 0.6; stroke-width: 0; opacity: 1;"/><path class="sankey-link" d="M390,138.30210772833829C570,138.30210772833829 570,577.5878220140512 750,577.5878220140512L750,583.0679156908661C570,583.0679156908661 570,143.78220140515327 390,143.78220140515327Z" style="stroke: rgb(68, 68, 68); stroke-opacity: 1; fill: rgb(0, 204, 150); fill-opacity: 0.6; stroke-width: 0; opacity: 1;"/><path class="sankey-link" d="M390,143.78220140515327C570,143.78220140515327 570,659.7189695550351 750,659.7189695550351L750,666.5690866510538C570,666.5690866510538 570,150.632318501172 390,150.632318501172Z" style="stroke: rgb(68, 68, 68); stroke-opacity: 1; fill: rgb(0, 204, 150); fill-opacity: 0.6; stroke-width: 0; opacity: 1;"/><path class="sankey-link" d="M390,71.1709601873547C570,71.1709601873547 570,237.96252927400508 750,237.96252927400508L750,281.803278688525C570,281.803278688525 570,115.0117096018746 390,115.0117096018746Z" style="stroke: rgb(68, 68, 68); stroke-opacity: 1; fill: rgb(0, 204, 150); fill-opacity: 0.6; stroke-width: 0; opacity: 1;"/><path class="sankey-link" d="M390,115.0117096018746C570,115.0117096018746 570,447.5058548009372 750,447.5058548009372L750,470.79625292740093C570,470.79625292740093 570,138.30210772833829 390,138.30210772833829Z" style="stroke: rgb(68, 68, 68); stroke-opacity: 1; fill: rgb(0, 204, 150); fill-opacity: 0.6; stroke-width: 0; opacity: 1;"/><path class="sankey-link" d="M390,265.503512880563C570,265.503512880563 570,127.06088992974243 750,127.06088992974243L750,157.20140515222488C570,157.20140515222488 570,295.64402810304546 390,295.64402810304546Z" style="stroke: rgb(68, 68, 68); stroke-opacity: 1; fill: rgb(255, 161, 90); fill-opacity: 0.6; stroke-width: 0; opacity: 1;"/><path class="sankey-link" d="M390,366.88524590164036C570,366.88524590164036 570,589.9180327868849 750,589.9180327868849L750,610.468384074941C570,610.468384074941 570,387.4355971896965 390,387.4355971896965Z" style="stroke: rgb(68, 68, 68); stroke-opacity: 1; fill: rgb(255, 161, 90); fill-opacity: 0.6; stroke-width: 0; opacity: 1;"/><path class="sankey-link" d="M390,387.4355971896966C570,387.4355971896966 570,669.3091334894613 750,669.3091334894613L750,693.9695550351288C570,693.9695550351288 570,412.096018735364 390,412.096018735364Z" style="stroke: rgb(68, 68, 68); stroke-opacity: 1; fill: rgb(255, 161, 90); fill-opacity: 0.6; stroke-width: 0; opacity: 1;"/><path class="sankey-link" d="M390,295.64402810304546C570,295.64402810304546 570,309.2037470725999 750,309.2037470725999L750,350.30444964871236C570,350.30444964871236 570,336.7447306791579 390,336.7447306791579Z" style="stroke: rgb(68, 68, 68); stroke-opacity: 1; fill: rgb(255, 161, 90); fill-opacity: 0.6; stroke-width: 0; opacity: 1;"/><path class="sankey-link" d="M390,336.7447306791579C570,336.7447306791579 570,484.49648711943837 750,484.49648711943837L750,514.6370023419208C570,514.6370023419208 570,366.88524590164036 390,366.88524590164036Z" style="stroke: rgb(68, 68, 68); stroke-opacity: 1; fill: rgb(255, 161, 90); fill-opacity: 0.6; stroke-width: 0; opacity: 1;"/><path class="sankey-link" d="M390,594.0983606557386C570,594.0983606557386 570,188.71194379391108 750,188.71194379391108L750,198.30210772833732C570,198.30210772833732 570,603.6885245901649 390,603.6885245901649Z" style="stroke: rgb(68, 68, 68); stroke-opacity: 1; fill: rgb(255, 151, 255); fill-opacity: 0.6; stroke-width: 0; opacity: 1;"/><path class="sankey-link" d="M390,631.0889929742397C570,631.0889929742397 570,626.908665105386 750,626.908665105386L750,635.1288056206085C570,635.1288056206085 570,639.3091334894622 390,639.3091334894622Z" style="stroke: rgb(68, 68, 68); stroke-opacity: 1; fill: rgb(255, 151, 255); fill-opacity: 0.6; stroke-width: 0; opacity: 1;"/><path class="sankey-link" d="M390,639.3091334894622C570,639.3091334894622 570,706.2997658079623 750,706.2997658079623L750,709.0398126463699C570,709.0398126463699 570,642.0491803278697 390,642.0491803278697Z" style="stroke: rgb(68, 68, 68); stroke-opacity: 1; fill: rgb(255, 151, 255); fill-opacity: 0.6; stroke-width: 0; opacity: 1;"/><path class="sankey-link" d="M390,603.6885245901648C570,603.6885245901648 570,396.8852459016397 750,396.8852459016397L750,410.5854800936771C570,410.5854800936771 570,617.3887587822022 390,617.3887587822022Z" style="stroke: rgb(68, 68, 68); stroke-opacity: 1; fill: rgb(255, 151, 255); fill-opacity: 0.6; stroke-width: 0; opacity: 1;"/><path class="sankey-link" d="M390,617.3887587822022C570,617.3887587822022 570,544.7775175644032 750,544.7775175644032L750,558.4777517564406C570,558.4777517564406 570,631.0889929742397 390,631.0889929742397Z" style="stroke: rgb(68, 68, 68); stroke-opacity: 1; fill: rgb(255, 151, 255); fill-opacity: 0.6; stroke-width: 0; opacity: 1;"/><path class="sankey-link" d="M390,657.0491803278694C570,657.0491803278694 570,198.30210772833732 750,198.30210772833732L750,199.67213114754105C570,199.67213114754105 570,658.4192037470732 390,658.4192037470732Z" style="stroke: rgb(68, 68, 68); stroke-opacity: 1; fill: rgb(255, 102, 146); fill-opacity: 0.6; stroke-width: 0; opacity: 1;"/><path class="sankey-link" d="M390,668.0093676814994C570,668.0093676814994 570,635.1288056206085 750,635.1288056206085L750,639.2388758782197C570,639.2388758782197 570,672.1194379391105 390,672.1194379391105Z" style="stroke: rgb(68, 68, 68); stroke-opacity: 1; fill: rgb(255, 102, 146); fill-opacity: 0.6; stroke-width: 0; opacity: 1;"/><path class="sankey-link" d="M390,672.1194379391106C570,672.1194379391106 570,709.0398126463698 750,709.0398126463698L750,713.1498829039809C570,713.1498829039809 570,676.2295081967218 390,676.2295081967218Z" style="stroke: rgb(68, 68, 68); stroke-opacity: 1; fill: rgb(255, 102, 146); fill-opacity: 0.6; stroke-width: 0; opacity: 1;"/><path class="sankey-link" d="M390,658.4192037470732C570,658.4192037470732 570,410.5854800936771 750,410.5854800936771L750,416.06557377049205C570,416.06557377049205 570,663.8992974238881 390,663.8992974238881Z" style="stroke: rgb(68, 68, 68); stroke-opacity: 1; fill: rgb(255, 102, 146); fill-opacity: 0.6; stroke-width: 0; opacity: 1;"/><path class="sankey-link" d="M390,663.8992974238881C570,663.8992974238881 570,558.4777517564406 750,558.4777517564406L750,562.5878220140518C570,562.5878220140518 570,668.0093676814993 390,668.0093676814993Z" style="stroke: rgb(68, 68, 68); stroke-opacity: 1; fill: rgb(255, 102, 146); fill-opacity: 0.6; stroke-width: 0; opacity: 1;"/><path class="sankey-link" d="M390,165.632318501172C570,165.632318501172 570,107.88056206088999 750,107.88056206088999L750,109.25058548009372C570,109.25058548009372 570,167.00234192037573 390,167.00234192037573Z" style="stroke: rgb(68, 68, 68); stroke-opacity: 1; fill: rgb(182, 232, 128); fill-opacity: 0.6; stroke-width: 0; opacity: 1;"/><path class="sankey-link" d="M390,167.00234192037573C570,167.00234192037573 570,281.803278688525 750,281.803278688525L750,285.91334894613624C570,285.91334894613624 570,171.11241217798698 390,171.11241217798698Z" style="stroke: rgb(68, 68, 68); stroke-opacity: 1; fill: rgb(182, 232, 128); fill-opacity: 0.6; stroke-width: 0; opacity: 1;"/><path class="sankey-link" d="M390,171.11241217798698C570,171.11241217798698 570,470.7962529274009 750,470.7962529274009L750,474.9063231850121C570,474.9063231850121 570,175.22248243559824 390,175.22248243559824Z" style="stroke: rgb(68, 68, 68); stroke-opacity: 1; fill: rgb(182, 232, 128); fill-opacity: 0.6; stroke-width: 0; opacity: 1;"/><path class="sankey-link" d="M765,148.98126463700237C945,148.98126463700237 945,88.98126463700194 1125,88.98126463700194L1125,90.35128805620568C945,90.35128805620568 945,150.3512880562061 765,150.3512880562061Z" style="stroke: rgb(68, 68, 68); stroke-opacity: 1; fill: rgb(25, 211, 243); fill-opacity: 0.6; stroke-width: 0; opacity: 1;"/><path class="sankey-link" d="M765,76.37002341920379C945,76.37002341920379 945,1.3700234192033278 1125,1.3700234192033278L1125,9.59016393442581C945,9.59016393442581 945,84.59016393442627 765,84.59016393442627Z" style="stroke: rgb(68, 68, 68); stroke-opacity: 1; fill: rgb(25, 211, 243); fill-opacity: 0.6; stroke-width: 0; opacity: 1;"/><path class="sankey-link" d="M765,658.3489461358313C945,658.3489461358313 945,643.3489461358313 1125,643.3489461358313L1125,644.7189695550351C945,644.7189695550351 945,659.7189695550351 765,659.7189695550351Z" style="stroke: rgb(68, 68, 68); stroke-opacity: 1; fill: rgb(25, 211, 243); fill-opacity: 0.6; stroke-width: 0; opacity: 1;"/><path class="sankey-link" d="M765,222.89227166276385C945,222.89227166276385 945,162.892271662763 1125,162.892271662763L1125,173.85245901639297C945,173.85245901639297 945,233.85245901639382 765,233.85245901639382Z" style="stroke: rgb(68, 68, 68); stroke-opacity: 1; fill: rgb(25, 211, 243); fill-opacity: 0.6; stroke-width: 0; opacity: 1;"/><path class="sankey-link" d="M765,351.67447306791604C945,351.67447306791604 945,306.67447306791524 1125,306.67447306791524L1125,310.7845433255265C945,310.7845433255265 945,355.7845433255273 765,355.7845433255273Z" style="stroke: rgb(68, 68, 68); stroke-opacity: 1; fill: rgb(25, 211, 243); fill-opacity: 0.6; stroke-width: 0; opacity: 1;"/><path class="sankey-link" d="M765,502.30679156908707C945,502.30679156908707 945,472.3067915690865 1125,472.3067915690865L1125,477.78688524590143C945,477.78688524590143 945,507.786885245902 765,507.786885245902Z" style="stroke: rgb(68, 68, 68); stroke-opacity: 1; fill: rgb(25, 211, 243); fill-opacity: 0.6; stroke-width: 0; opacity: 1;"/><path class="sankey-link" d="M765,439.2857142857147C945,439.2857142857147 945,394.28571428571394 1125,394.28571428571394L1125,397.0257611241214C945,397.0257611241214 945,442.02576112412214 765,442.02576112412214Z" style="stroke: rgb(68, 68, 68); stroke-opacity: 1; fill: rgb(25, 211, 243); fill-opacity: 0.6; stroke-width: 0; opacity: 1;"/><path class="sankey-link" d="M765,150.3512880562061C945,150.3512880562061 945,90.35128805620569 1125,90.35128805620569L1125,98.57142857142817C945,98.57142857142817 945,158.5714285714286 765,158.5714285714286Z" style="stroke: rgb(68, 68, 68); stroke-opacity: 1; fill: rgb(99, 110, 250); fill-opacity: 0.6; stroke-width: 0; opacity: 1;"/><path class="sankey-link" d="M765,84.59016393442627C945,84.59016393442627 945,9.59016393442581 1125,9.59016393442581L1125,19.18032786885204C945,19.18032786885204 945,94.18032786885252 765,94.18032786885252Z" style="stroke: rgb(68, 68, 68); stroke-opacity: 1; fill: rgb(99, 110, 250); fill-opacity: 0.6; stroke-width: 0; opacity: 1;"/><path class="sankey-link" d="M765,577.5878220140512C945,577.5878220140512 945,547.5878220140512 1125,547.5878220140512L1125,555.8079625292737C945,555.8079625292737 945,585.8079625292737 765,585.8079625292737Z" style="stroke: rgb(68, 68, 68); stroke-opacity: 1; fill: rgb(99, 110, 250); fill-opacity: 0.6; stroke-width: 0; opacity: 1;"/><path class="sankey-link" d="M765,617.3185011709598C945,617.3185011709598 945,602.31850117096 1125,602.31850117096L1125,606.4285714285711C945,606.4285714285711 945,621.428571428571 765,621.428571428571Z" style="stroke: rgb(68, 68, 68); stroke-opacity: 1; fill: rgb(99, 110, 250); fill-opacity: 0.6; stroke-width: 0; opacity: 1;"/><path class="sankey-link" d="M765,691.2295081967214C945,691.2295081967214 945,691.2295081967213 1125,691.2295081967213L1125,693.9695550351289C945,693.9695550351289 945,693.969555035129 765,693.969555035129Z" style="stroke: rgb(68, 68, 68); stroke-opacity: 1; fill: rgb(99, 110, 250); fill-opacity: 0.6; stroke-width: 0; opacity: 1;"/><path class="sankey-link" d="M765,659.7189695550351C945,659.7189695550351 945,644.7189695550351 1125,644.7189695550351L1125,648.8290398126462C945,648.8290398126462 945,663.8290398126462 765,663.8290398126462Z" style="stroke: rgb(68, 68, 68); stroke-opacity: 1; fill: rgb(99, 110, 250); fill-opacity: 0.6; stroke-width: 0; opacity: 1;"/><path class="sankey-link" d="M765,233.85245901639382C945,233.85245901639382 945,173.85245901639297 1125,173.85245901639297L1125,195.77283372365292C945,195.77283372365292 945,255.77283372365378 765,255.77283372365378Z" style="stroke: rgb(68, 68, 68); stroke-opacity: 1; fill: rgb(99, 110, 250); fill-opacity: 0.6; stroke-width: 0; opacity: 1;"/><path class="sankey-link" d="M765,355.7845433255273C945,355.7845433255273 945,310.7845433255265 1125,310.7845433255265L1125,317.6346604215452C945,317.6346604215452 945,362.634660421546 765,362.634660421546Z" style="stroke: rgb(68, 68, 68); stroke-opacity: 1; fill: rgb(99, 110, 250); fill-opacity: 0.6; stroke-width: 0; opacity: 1;"/><path class="sankey-link" d="M765,507.786885245902C945,507.786885245902 945,477.78688524590143 1125,477.78688524590143L1125,486.00702576112394C945,486.00702576112394 945,516.0070257611245 765,516.0070257611245Z" style="stroke: rgb(68, 68, 68); stroke-opacity: 1; fill: rgb(99, 110, 250); fill-opacity: 0.6; stroke-width: 0; opacity: 1;"/><path class="sankey-link" d="M765,442.02576112412214C945,442.02576112412214 945,397.02576112412146 1125,397.02576112412146L1125,409.3559718969552C945,409.3559718969552 945,454.3559718969559 765,454.3559718969559Z" style="stroke: rgb(68, 68, 68); stroke-opacity: 1; fill: rgb(99, 110, 250); fill-opacity: 0.6; stroke-width: 0; opacity: 1;"/><path class="sankey-link" d="M765,158.57142857142858C945,158.57142857142858 945,98.57142857142816 1125,98.57142857142816L1125,102.68149882903941C945,102.68149882903941 945,162.68149882903984 765,162.68149882903984Z" style="stroke: rgb(68, 68, 68); stroke-opacity: 1; fill: rgb(239, 85, 59); fill-opacity: 0.6; stroke-width: 0; opacity: 1;"/><path class="sankey-link" d="M765,94.1803278688525C945,94.1803278688525 945,19.18032786885204 1125,19.18032786885204L1125,32.88056206088951C945,32.88056206088951 945,107.88056206088997 765,107.88056206088997Z" style="stroke: rgb(68, 68, 68); stroke-opacity: 1; fill: rgb(239, 85, 59); fill-opacity: 0.6; stroke-width: 0; opacity: 1;"/><path class="sankey-link" d="M765,585.8079625292737C945,585.8079625292737 945,555.8079625292737 1125,555.8079625292737L1125,558.5480093676813C945,558.5480093676813 945,588.5480093676813 765,588.5480093676813Z" style="stroke: rgb(68, 68, 68); stroke-opacity: 1; fill: rgb(239, 85, 59); fill-opacity: 0.6; stroke-width: 0; opacity: 1;"/><path class="sankey-link" d="M765,621.4285714285711C945,621.4285714285711 945,606.4285714285712 1125,606.4285714285712L1125,610.5386416861824C945,610.5386416861824 945,625.5386416861822 765,625.5386416861822Z" style="stroke: rgb(68, 68, 68); stroke-opacity: 1; fill: rgb(239, 85, 59); fill-opacity: 0.6; stroke-width: 0; opacity: 1;"/><path class="sankey-link" d="M765,693.9695550351289C945,693.9695550351289 945,693.9695550351288 1125,693.9695550351288L1125,695.3395784543326C945,695.3395784543326 945,695.3395784543327 765,695.3395784543327Z" style="stroke: rgb(68, 68, 68); stroke-opacity: 1; fill: rgb(239, 85, 59); fill-opacity: 0.6; stroke-width: 0; opacity: 1;"/><path class="sankey-link" d="M765,663.8290398126463C945,663.8290398126463 945,648.8290398126463 1125,648.8290398126463L1125,650.1990632318501C945,650.1990632318501 945,665.1990632318501 765,665.1990632318501Z" style="stroke: rgb(68, 68, 68); stroke-opacity: 1; fill: rgb(239, 85, 59); fill-opacity: 0.6; stroke-width: 0; opacity: 1;"/><path class="sankey-link" d="M765,255.7728337236538C945,255.7728337236538 945,195.77283372365292 1125,195.77283372365292L1125,212.2131147540979C945,212.2131147540979 945,272.2131147540988 765,272.2131147540988Z" style="stroke: rgb(68, 68, 68); stroke-opacity: 1; fill: rgb(239, 85, 59); fill-opacity: 0.6; stroke-width: 0; opacity: 1;"/><path class="sankey-link" d="M765,362.634660421546C945,362.634660421546 945,317.6346604215452 1125,317.6346604215452L1125,324.48477751756394C945,324.48477751756394 945,369.48477751756474 765,369.48477751756474Z" style="stroke: rgb(68, 68, 68); stroke-opacity: 1; fill: rgb(239, 85, 59); fill-opacity: 0.6; stroke-width: 0; opacity: 1;"/><path class="sankey-link" d="M765,516.0070257611245C945,516.0070257611245 945,486.00702576112394 1125,486.00702576112394L1125,490.1170960187352C945,490.1170960187352 945,520.1170960187357 765,520.1170960187357Z" style="stroke: rgb(68, 68, 68); stroke-opacity: 1; fill: rgb(239, 85, 59); fill-opacity: 0.6; stroke-width: 0; opacity: 1;"/><path class="sankey-link" d="M765,454.3559718969559C945,454.3559718969559 945,409.3559718969552 1125,409.3559718969552L1125,414.83606557377016C945,414.83606557377016 945,459.83606557377084 765,459.83606557377084Z" style="stroke: rgb(68, 68, 68); stroke-opacity: 1; fill: rgb(239, 85, 59); fill-opacity: 0.6; stroke-width: 0; opacity: 1;"/><path class="sankey-link" d="M765,162.6814988290398C945,162.6814988290398 945,102.68149882903941 1125,102.68149882903941L1125,109.53161592505813C945,109.53161592505813 945,169.53161592505853 765,169.53161592505853Z" style="stroke: rgb(68, 68, 68); stroke-opacity: 1; fill: rgb(254, 203, 82); fill-opacity: 0.6; stroke-width: 0; opacity: 1;"/><path class="sankey-link" d="M765,107.88056206088999C945,107.88056206088999 945,32.88056206088951 1125,32.88056206088951L1125,34.25058548009326C945,34.25058548009326 945,109.25058548009372 765,109.25058548009372Z" style="stroke: rgb(68, 68, 68); stroke-opacity: 1; fill: rgb(254, 203, 82); fill-opacity: 0.6; stroke-width: 0; opacity: 1;"/><path class="sankey-link" d="M765,588.5480093676812C945,588.5480093676812 945,558.5480093676812 1125,558.5480093676812L1125,561.2880562060888C945,561.2880562060888 945,591.2880562060888 765,591.2880562060888Z" style="stroke: rgb(68, 68, 68); stroke-opacity: 1; fill: rgb(254, 203, 82); fill-opacity: 0.6; stroke-width: 0; opacity: 1;"/><path class="sankey-link" d="M765,625.5386416861824C945,625.5386416861824 945,610.5386416861825 1125,610.5386416861825L1125,611.9086651053863C945,611.9086651053863 945,626.9086651053861 765,626.9086651053861Z" style="stroke: rgb(68, 68, 68); stroke-opacity: 1; fill: rgb(254, 203, 82); fill-opacity: 0.6; stroke-width: 0; opacity: 1;"/><path class="sankey-link" d="M765,695.3395784543327C945,695.3395784543327 945,695.3395784543326 1125,695.3395784543326L1125,698.0796252927402C945,698.0796252927402 945,698.0796252927403 765,698.0796252927403Z" style="stroke: rgb(68, 68, 68); stroke-opacity: 1; fill: rgb(254, 203, 82); fill-opacity: 0.6; stroke-width: 0; opacity: 1;"/><path class="sankey-link" d="M765,665.1990632318501C945,665.1990632318501 945,650.1990632318501 1125,650.1990632318501L1125,654.3091334894613C945,654.3091334894613 945,669.3091334894613 765,669.3091334894613Z" style="stroke: rgb(68, 68, 68); stroke-opacity: 1; fill: rgb(254, 203, 82); fill-opacity: 0.6; stroke-width: 0; opacity: 1;"/><path class="sankey-link" d="M765,272.21311475409874C945,272.21311475409874 945,212.2131147540979 1125,212.2131147540979L1125,219.0632318501166C945,219.0632318501166 945,279.06323185011746 765,279.06323185011746Z" style="stroke: rgb(68, 68, 68); stroke-opacity: 1; fill: rgb(254, 203, 82); fill-opacity: 0.6; stroke-width: 0; opacity: 1;"/><path class="sankey-link" d="M765,369.48477751756474C945,369.48477751756474 945,324.48477751756394 1125,324.48477751756394L1125,325.85480093676773C945,325.85480093676773 945,370.8548009367685 765,370.8548009367685Z" style="stroke: rgb(68, 68, 68); stroke-opacity: 1; fill: rgb(254, 203, 82); fill-opacity: 0.6; stroke-width: 0; opacity: 1;"/><path class="sankey-link" d="M765,169.53161592505853C945,169.53161592505853 945,109.53161592505816 1125,109.53161592505816L1125,116.38173302107688C945,116.38173302107688 945,176.38173302107725 765,176.38173302107725Z" style="stroke: rgb(68, 68, 68); stroke-opacity: 1; fill: rgb(171, 99, 250); fill-opacity: 0.6; stroke-width: 0; opacity: 1;"/><path class="sankey-link" d="M765,109.25058548009372C945,109.25058548009372 945,34.25058548009326 1125,34.25058548009326L1125,41.10070257611199C945,41.10070257611199 945,116.10070257611244 765,116.10070257611244Z" style="stroke: rgb(68, 68, 68); stroke-opacity: 1; fill: rgb(171, 99, 250); fill-opacity: 0.6; stroke-width: 0; opacity: 1;"/><path class="sankey-link" d="M765,591.2880562060886C945,591.2880562060886 945,561.2880562060886 1125,561.2880562060886L1125,562.6580796252924C945,562.6580796252924 945,592.6580796252924 765,592.6580796252924Z" style="stroke: rgb(68, 68, 68); stroke-opacity: 1; fill: rgb(171, 99, 250); fill-opacity: 0.6; stroke-width: 0; opacity: 1;"/><path class="sankey-link" d="M765,626.9086651053861C945,626.9086651053861 945,611.9086651053863 1125,611.9086651053863L1125,614.6487119437938C945,614.6487119437938 945,629.6487119437937 765,629.6487119437937Z" style="stroke: rgb(68, 68, 68); stroke-opacity: 1; fill: rgb(171, 99, 250); fill-opacity: 0.6; stroke-width: 0; opacity: 1;"/><path class="sankey-link" d="M765,698.0796252927402C945,698.0796252927402 945,698.07962529274 1125,698.07962529274L1125,702.1896955503512C945,702.1896955503512 945,702.1896955503513 765,702.1896955503513Z" style="stroke: rgb(68, 68, 68); stroke-opacity: 1; fill: rgb(171, 99, 250); fill-opacity: 0.6; stroke-width: 0; opacity: 1;"/><path class="sankey-link" d="M765,669.3091334894614C945,669.3091334894614 945,654.3091334894614 1125,654.3091334894614L1125,655.6791569086652C945,655.6791569086652 945,670.6791569086652 765,670.6791569086652Z" style="stroke: rgb(68, 68, 68); stroke-opacity: 1; fill: rgb(171, 99, 250); fill-opacity: 0.6; stroke-width: 0; opacity: 1;"/><path class="sankey-link" d="M765,279.06323185011746C945,279.06323185011746 945,219.0632318501166 1125,219.0632318501166L1125,231.39344262295032C945,231.39344262295032 945,291.3934426229512 765,291.3934426229512Z" style="stroke: rgb(68, 68, 68); stroke-opacity: 1; fill: rgb(171, 99, 250); fill-opacity: 0.6; stroke-width: 0; opacity: 1;"/><path class="sankey-link" d="M765,370.85480093676847C945,370.85480093676847 945,325.8548009367677 1125,325.8548009367677L1125,331.3348946135826C945,331.3348946135826 945,376.3348946135834 765,376.3348946135834Z" style="stroke: rgb(68, 68, 68); stroke-opacity: 1; fill: rgb(171, 99, 250); fill-opacity: 0.6; stroke-width: 0; opacity: 1;"/><path class="sankey-link" d="M765,520.1170960187358C945,520.1170960187358 945,490.1170960187352 1125,490.1170960187352L1125,495.5971896955501C945,495.5971896955501 945,525.5971896955507 765,525.5971896955507Z" style="stroke: rgb(68, 68, 68); stroke-opacity: 1; fill: rgb(171, 99, 250); fill-opacity: 0.6; stroke-width: 0; opacity: 1;"/><path class="sankey-link" d="M765,459.83606557377084C945,459.83606557377084 945,414.83606557377016 1125,414.83606557377016L1125,418.9461358313814C945,418.9461358313814 945,463.9461358313821 765,463.9461358313821Z" style="stroke: rgb(68, 68, 68); stroke-opacity: 1; fill: rgb(171, 99, 250); fill-opacity: 0.6; stroke-width: 0; opacity: 1;"/><path class="sankey-link" d="M765,176.38173302107725C945,176.38173302107725 945,116.38173302107688 1125,116.38173302107688L1125,127.34192037470686C945,127.34192037470686 945,187.34192037470723 765,187.34192037470723Z" style="stroke: rgb(68, 68, 68); stroke-opacity: 1; fill: rgb(0, 204, 150); fill-opacity: 0.6; stroke-width: 0; opacity: 1;"/><path class="sankey-link" d="M765,116.10070257611245C945,116.10070257611245 945,41.10070257611199 1125,41.10070257611199L1125,52.06088992974197C945,52.06088992974197 945,127.06088992974243 765,127.06088992974243Z" style="stroke: rgb(68, 68, 68); stroke-opacity: 1; fill: rgb(0, 204, 150); fill-opacity: 0.6; stroke-width: 0; opacity: 1;"/><path class="sankey-link" d="M765,592.6580796252924C945,592.6580796252924 945,562.6580796252924 1125,562.6580796252924L1125,566.7681498829036C945,566.7681498829036 945,596.7681498829036 765,596.7681498829036Z" style="stroke: rgb(68, 68, 68); stroke-opacity: 1; fill: rgb(0, 204, 150); fill-opacity: 0.6; stroke-width: 0; opacity: 1;"/><path class="sankey-link" d="M765,629.6487119437936C945,629.6487119437936 945,614.6487119437937 1125,614.6487119437937L1125,616.0187353629975C945,616.0187353629975 945,631.0187353629974 765,631.0187353629974Z" style="stroke: rgb(68, 68, 68); stroke-opacity: 1; fill: rgb(0, 204, 150); fill-opacity: 0.6; stroke-width: 0; opacity: 1;"/><path class="sankey-link" d="M765,702.1896955503514C945,702.1896955503514 945,702.1896955503513 1125,702.1896955503513L1125,707.6697892271662C945,707.6697892271662 945,707.6697892271663 765,707.6697892271663Z" style="stroke: rgb(68, 68, 68); stroke-opacity: 1; fill: rgb(0, 204, 150); fill-opacity: 0.6; stroke-width: 0; opacity: 1;"/><path class="sankey-link" d="M765,670.6791569086652C945,670.6791569086652 945,655.6791569086652 1125,655.6791569086652L1125,657.049180327869C945,657.049180327869 945,672.049180327869 765,672.049180327869Z" style="stroke: rgb(68, 68, 68); stroke-opacity: 1; fill: rgb(0, 204, 150); fill-opacity: 0.6; stroke-width: 0; opacity: 1;"/><path class="sankey-link" d="M765,291.39344262295117C945,291.39344262295117 945,231.39344262295032 1125,231.39344262295032L1125,260.163934426229C945,260.163934426229 945,320.16393442622984 765,320.16393442622984Z" style="stroke: rgb(68, 68, 68); stroke-opacity: 1; fill: rgb(0, 204, 150); fill-opacity: 0.6; stroke-width: 0; opacity: 1;"/><path class="sankey-link" d="M765,376.33489461358346C945,376.33489461358346 945,331.33489461358266 1125,331.33489461358266L1125,346.4051522248239C945,346.4051522248239 945,391.4051522248247 765,391.4051522248247Z" style="stroke: rgb(68, 68, 68); stroke-opacity: 1; fill: rgb(0, 204, 150); fill-opacity: 0.6; stroke-width: 0; opacity: 1;"/><path class="sankey-link" d="M765,525.5971896955507C945,525.5971896955507 945,495.5971896955502 1125,495.5971896955502L1125,503.8173302107727C945,503.8173302107727 945,533.8173302107732 765,533.8173302107732Z" style="stroke: rgb(68, 68, 68); stroke-opacity: 1; fill: rgb(0, 204, 150); fill-opacity: 0.6; stroke-width: 0; opacity: 1;"/><path class="sankey-link" d="M765,463.9461358313821C945,463.9461358313821 945,418.9461358313814 1125,418.9461358313814L1125,434.01639344262264C945,434.01639344262264 945,479.0163934426233 765,479.0163934426233Z" style="stroke: rgb(68, 68, 68); stroke-opacity: 1; fill: rgb(0, 204, 150); fill-opacity: 0.6; stroke-width: 0; opacity: 1;"/><path class="sankey-link" d="M765,187.34192037470723C945,187.34192037470723 945,127.34192037470686 1125,127.34192037470686L1125,142.4121779859481C945,142.4121779859481 945,202.41217798594846 765,202.41217798594846Z" style="stroke: rgb(68, 68, 68); stroke-opacity: 1; fill: rgb(255, 161, 90); fill-opacity: 0.6; stroke-width: 0; opacity: 1;"/><path class="sankey-link" d="M765,127.06088992974242C945,127.06088992974242 945,52.06088992974197 1125,52.06088992974197L1125,67.13114754098319C945,67.13114754098319 945,142.13114754098365 765,142.13114754098365Z" style="stroke: rgb(68, 68, 68); stroke-opacity: 1; fill: rgb(255, 161, 90); fill-opacity: 0.6; stroke-width: 0; opacity: 1;"/><path class="sankey-link" d="M765,596.7681498829037C945,596.7681498829037 945,566.7681498829037 1125,566.7681498829037L1125,580.4683840749411C945,580.4683840749411 945,610.4683840749411 765,610.4683840749411Z" style="stroke: rgb(68, 68, 68); stroke-opacity: 1; fill: rgb(255, 161, 90); fill-opacity: 0.6; stroke-width: 0; opacity: 1;"/><path class="sankey-link" d="M765,631.0187353629974C945,631.0187353629974 945,616.0187353629975 1125,616.0187353629975L1125,622.8688524590162C945,622.8688524590162 945,637.8688524590161 765,637.8688524590161Z" style="stroke: rgb(68, 68, 68); stroke-opacity: 1; fill: rgb(255, 161, 90); fill-opacity: 0.6; stroke-width: 0; opacity: 1;"/><path class="sankey-link" d="M765,707.6697892271663C945,707.6697892271663 945,707.6697892271663 1125,707.6697892271663L1125,715.8899297423889C945,715.8899297423889 945,715.8899297423889 765,715.8899297423889Z" style="stroke: rgb(68, 68, 68); stroke-opacity: 1; fill: rgb(255, 161, 90); fill-opacity: 0.6; stroke-width: 0; opacity: 1;"/><path class="sankey-link" d="M765,672.049180327869C945,672.049180327869 945,657.049180327869 1125,657.049180327869L1125,673.489461358314C945,673.489461358314 945,688.489461358314 765,688.489461358314Z" style="stroke: rgb(68, 68, 68); stroke-opacity: 1; fill: rgb(255, 161, 90); fill-opacity: 0.6; stroke-width: 0; opacity: 1;"/><path class="sankey-link" d="M765,320.16393442622984C945,320.16393442622984 945,260.163934426229 1125,260.163934426229L1125,286.1943793911002C945,286.1943793911002 945,346.19437939110105 765,346.19437939110105Z" style="stroke: rgb(68, 68, 68); stroke-opacity: 1; fill: rgb(255, 161, 90); fill-opacity: 0.6; stroke-width: 0; opacity: 1;"/><path class="sankey-link" d="M765,391.4051522248247C945,391.4051522248247 945,346.4051522248239 1125,346.4051522248239L1125,361.4754098360651C945,361.4754098360651 945,406.4754098360659 765,406.4754098360659Z" style="stroke: rgb(68, 68, 68); stroke-opacity: 1; fill: rgb(255, 161, 90); fill-opacity: 0.6; stroke-width: 0; opacity: 1;"/><path class="sankey-link" d="M765,533.8173302107732C945,533.8173302107732 945,503.81733021077264 1125,503.81733021077264L1125,517.5175644028101C945,517.5175644028101 945,547.5175644028106 765,547.5175644028106Z" style="stroke: rgb(68, 68, 68); stroke-opacity: 1; fill: rgb(255, 161, 90); fill-opacity: 0.6; stroke-width: 0; opacity: 1;"/><path class="sankey-link" d="M765,479.0163934426233C945,479.0163934426233 945,434.01639344262264 1125,434.01639344262264L1125,450.45667447306766C945,450.45667447306766 945,495.45667447306835 765,495.45667447306835Z" style="stroke: rgb(68, 68, 68); stroke-opacity: 1; fill: rgb(255, 161, 90); fill-opacity: 0.6; stroke-width: 0; opacity: 1;"/><path class="sankey-link" d="M765,202.41217798594846C945,202.41217798594846 945,142.41217798594806 1125,142.41217798594806L1125,146.52224824355932C945,146.52224824355932 945,206.52224824355972 765,206.52224824355972Z" style="stroke: rgb(68, 68, 68); stroke-opacity: 1; fill: rgb(255, 151, 255); fill-opacity: 0.6; stroke-width: 0; opacity: 1;"/><path class="sankey-link" d="M765,142.13114754098365C945,142.13114754098365 945,67.13114754098319 1125,67.13114754098319L1125,72.61124121779818C945,72.61124121779818 945,147.61124121779864 765,147.61124121779864Z" style="stroke: rgb(68, 68, 68); stroke-opacity: 1; fill: rgb(255, 151, 255); fill-opacity: 0.6; stroke-width: 0; opacity: 1;"/><path class="sankey-link" d="M765,610.4683840749411C945,610.4683840749411 945,580.4683840749411 1125,580.4683840749411L1125,584.5784543325523C945,584.5784543325523 945,614.5784543325523 765,614.5784543325523Z" style="stroke: rgb(68, 68, 68); stroke-opacity: 1; fill: rgb(255, 151, 255); fill-opacity: 0.6; stroke-width: 0; opacity: 1;"/><path class="sankey-link" d="M765,637.8688524590161C945,637.8688524590161 945,622.8688524590162 1125,622.8688524590162L1125,626.9789227166274C945,626.9789227166274 945,641.9789227166273 765,641.9789227166273Z" style="stroke: rgb(68, 68, 68); stroke-opacity: 1; fill: rgb(255, 151, 255); fill-opacity: 0.6; stroke-width: 0; opacity: 1;"/><path class="sankey-link" d="M765,715.8899297423889C945,715.8899297423889 945,715.8899297423889 1125,715.8899297423889L1125,718.6299765807964C945,718.6299765807964 945,718.6299765807964 765,718.6299765807964Z" style="stroke: rgb(68, 68, 68); stroke-opacity: 1; fill: rgb(255, 151, 255); fill-opacity: 0.6; stroke-width: 0; opacity: 1;"/><path class="sankey-link" d="M765,346.19437939110105C945,346.19437939110105 945,286.1943793911002 1125,286.1943793911002L1125,290.30444964871145C945,290.30444964871145 945,350.3044496487123 765,350.3044496487123Z" style="stroke: rgb(68, 68, 68); stroke-opacity: 1; fill: rgb(255, 151, 255); fill-opacity: 0.6; stroke-width: 0; opacity: 1;"/><path class="sankey-link" d="M765,406.4754098360659C945,406.4754098360659 945,361.4754098360651 1125,361.4754098360651L1125,371.0655737704913C945,371.0655737704913 945,416.0655737704921 765,416.0655737704921Z" style="stroke: rgb(68, 68, 68); stroke-opacity: 1; fill: rgb(255, 151, 255); fill-opacity: 0.6; stroke-width: 0; opacity: 1;"/><path class="sankey-link" d="M765,547.5175644028106C945,547.5175644028106 945,517.5175644028101 1125,517.5175644028101L1125,527.1077283372364C945,527.1077283372364 945,557.107728337237 765,557.107728337237Z" style="stroke: rgb(68, 68, 68); stroke-opacity: 1; fill: rgb(255, 151, 255); fill-opacity: 0.6; stroke-width: 0; opacity: 1;"/><path class="sankey-link" d="M765,495.4566744730683C945,495.4566744730683 945,450.4566744730676 1125,450.4566744730676L1125,454.56674473067886C945,454.56674473067886 945,499.56674473067955 765,499.56674473067955Z" style="stroke: rgb(68, 68, 68); stroke-opacity: 1; fill: rgb(255, 151, 255); fill-opacity: 0.6; stroke-width: 0; opacity: 1;"/><path class="sankey-link" d="M765,147.61124121779864C945,147.61124121779864 945,72.61124121779818 1125,72.61124121779818L1125,73.98126463700191C945,73.98126463700191 945,148.98126463700237 765,148.98126463700237Z" style="stroke: rgb(68, 68, 68); stroke-opacity: 1; fill: rgb(255, 102, 146); fill-opacity: 0.6; stroke-width: 0; opacity: 1;"/><path class="sankey-link" d="M765,614.5784543325524C945,614.5784543325524 945,584.5784543325524 1125,584.5784543325524L1125,587.31850117096C945,587.31850117096 945,617.31850117096 765,617.31850117096Z" style="stroke: rgb(68, 68, 68); stroke-opacity: 1; fill: rgb(255, 102, 146); fill-opacity: 0.6; stroke-width: 0; opacity: 1;"/><path class="sankey-link" d="M765,641.9789227166274C945,641.9789227166274 945,626.9789227166275 1125,626.9789227166275L1125,628.3489461358313C945,628.3489461358313 945,643.3489461358312 765,643.3489461358312Z" style="stroke: rgb(68, 68, 68); stroke-opacity: 1; fill: rgb(255, 102, 146); fill-opacity: 0.6; stroke-width: 0; opacity: 1;"/><path class="sankey-link" d="M765,718.6299765807963C945,718.6299765807963 945,718.6299765807963 1125,718.6299765807963L1125,720.0000000000001C945,720.0000000000001 945,720.0000000000001 765,720.0000000000001Z" style="stroke: rgb(68, 68, 68); stroke-opacity: 1; fill: rgb(255, 102, 146); fill-opacity: 0.6; stroke-width: 0; opacity: 1;"/><path class="sankey-link" d="M765,688.489461358314C945,688.489461358314 945,673.489461358314 1125,673.489461358314L1125,676.2295081967216C945,676.2295081967216 945,691.2295081967216 765,691.2295081967216Z" style="stroke: rgb(68, 68, 68); stroke-opacity: 1; fill: rgb(255, 102, 146); fill-opacity: 0.6; stroke-width: 0; opacity: 1;"/><path class="sankey-link" d="M765,350.3044496487123C945,350.3044496487123 945,290.30444964871145 1125,290.30444964871145L1125,291.67447306791524C945,291.67447306791524 945,351.6744730679161 765,351.6744730679161Z" style="stroke: rgb(68, 68, 68); stroke-opacity: 1; fill: rgb(255, 102, 146); fill-opacity: 0.6; stroke-width: 0; opacity: 1;"/><path class="sankey-link" d="M765,416.06557377049216C945,416.06557377049216 945,371.06557377049137 1125,371.06557377049137L1125,375.1756440281026C945,375.1756440281026 945,420.1756440281034 765,420.1756440281034Z" style="stroke: rgb(68, 68, 68); stroke-opacity: 1; fill: rgb(255, 102, 146); fill-opacity: 0.6; stroke-width: 0; opacity: 1;"/><path class="sankey-link" d="M765,557.1077283372368C945,557.1077283372368 945,527.1077283372363 1125,527.1077283372363L1125,529.8477751756438C945,529.8477751756438 945,559.8477751756444 765,559.8477751756444Z" style="stroke: rgb(68, 68, 68); stroke-opacity: 1; fill: rgb(255, 102, 146); fill-opacity: 0.6; stroke-width: 0; opacity: 1;"/><path class="sankey-link" d="M765,499.56674473067955C945,499.56674473067955 945,454.56674473067886 1125,454.56674473067886L1125,455.93676814988265C945,455.93676814988265 945,500.93676814988333 765,500.93676814988333Z" style="stroke: rgb(68, 68, 68); stroke-opacity: 1; fill: rgb(255, 102, 146); fill-opacity: 0.6; stroke-width: 0; opacity: 1;"/><path class="sankey-link" d="M765,206.52224824355972C945,206.52224824355972 945,146.52224824355932 1125,146.52224824355932L1125,147.89227166276305C945,147.89227166276305 945,207.89227166276345 765,207.89227166276345Z" style="stroke: rgb(68, 68, 68); stroke-opacity: 1; fill: rgb(182, 232, 128); fill-opacity: 0.6; stroke-width: 0; opacity: 1;"/><path class="sankey-link" d="M765,420.1756440281034C945,420.1756440281034 945,375.1756440281026 1125,375.1756440281026L1125,379.2857142857139C945,379.2857142857139 945,424.2857142857147 765,424.2857142857147Z" style="stroke: rgb(68, 68, 68); stroke-opacity: 1; fill: rgb(182, 232, 128); fill-opacity: 0.6; stroke-width: 0; opacity: 1;"/><path class="sankey-link" d="M765,559.8477751756443C945,559.8477751756443 945,529.8477751756437 1125,529.8477751756437L1125,532.5878220140513C945,532.5878220140513 945,562.5878220140519 765,562.5878220140519Z" style="stroke: rgb(68, 68, 68); stroke-opacity: 1; fill: rgb(182, 232, 128); fill-opacity: 0.6; stroke-width: 0; opacity: 1;"/><path class="sankey-link" d="M765,500.9367681498833C945,500.9367681498833 945,455.9367681498826 1125,455.9367681498826L1125,457.3067915690864C945,457.3067915690864 945,502.30679156908707 765,502.30679156908707Z" style="stroke: rgb(68, 68, 68); stroke-opacity: 1; fill: rgb(182, 232, 128); fill-opacity: 0.6; stroke-width: 0; opacity: 1;"/></g><g class="sankey-node-set" style="cursor: move;"><g class="sankey-node" transform="translate(0.000,636.499)" style="opacity: 1;"><rect class="node-rect" width="15" height="23.290398126463742" style="stroke-width: 0.5; stroke: rgb(0, 0, 0); stroke-opacity: 1; fill: rgb(128, 128, 128); fill-opacity: 1;"/><text class="node-label" data-notex="1" x="0" y="0" text-anchor="start" transform="translate(18.25,15.84519906323187)" style="cursor: default; font-family: 'Open Sans', verdana, arial, sans-serif; font-size: 12px; fill: rgb(42, 63, 95); fill-opacity: 1; white-space: pre; text-shadow: white 1px 1px 1px, white -1px -1px 1px, white 1px -1px 1px, white -1px 1px 1px;">21271R</text></g><g class="sankey-node" transform="translate(0.000,218.852)" style="opacity: 1;"><rect class="node-rect" width="15" height="172.62295081967204" style="stroke-width: 0.5; stroke: rgb(0, 0, 0); stroke-opacity: 1; fill: rgb(128, 128, 128); fill-opacity: 1;"/><text class="node-label" data-notex="1" x="0" y="0" text-anchor="start" transform="translate(18.25,90.51147540983602)" style="cursor: default; font-family: 'Open Sans', verdana, arial, sans-serif; font-size: 12px; fill: rgb(42, 63, 95); fill-opacity: 1; white-space: pre; text-shadow: white 1px 1px 1px, white -1px -1px 1px, white 1px -1px 1px, white -1px 1px 1px;">21272R</text></g><g class="sankey-node" transform="translate(0.000,674.789)" style="opacity: 1;"><rect class="node-rect" width="15" height="45.210772833723695" style="stroke-width: 0.5; stroke: rgb(0, 0, 0); stroke-opacity: 1; fill: rgb(128, 128, 128); fill-opacity: 1;"/><text class="node-label" data-notex="1" x="0" y="0" text-anchor="start" transform="translate(18.25,26.805386416861847)" style="cursor: default; font-family: 'Open Sans', verdana, arial, sans-serif; font-size: 12px; fill: rgb(42, 63, 95); fill-opacity: 1; white-space: pre; text-shadow: white 1px 1px 1px, white -1px -1px 1px, white 1px -1px 1px, white -1px 1px 1px;">21965RL</text></g><g class="sankey-node" transform="translate(0.000,406.475)" style="opacity: 1;"><rect class="node-rect" width="15" height="100.0117096018738" style="stroke-width: 0.5; stroke: rgb(0, 0, 0); stroke-opacity: 1; fill: rgb(128, 128, 128); fill-opacity: 1;"/><text class="node-label" data-notex="1" x="0" y="0" text-anchor="start" transform="translate(18.25,54.205854800936905)" style="cursor: default; font-family: 'Open Sans', verdana, arial, sans-serif; font-size: 12px; fill: rgb(42, 63, 95); fill-opacity: 1; white-space: pre; text-shadow: white 1px 1px 1px, white -1px -1px 1px, white 1px -1px 1px, white -1px 1px 1px;">22384</text></g><g class="sankey-node" transform="translate(0.000,521.487)" style="opacity: 1;"><rect class="node-rect" width="15" height="100.01170960187346" style="stroke-width: 0.5; stroke: rgb(0, 0, 0); stroke-opacity: 1; fill: rgb(128, 128, 128); fill-opacity: 1;"/><text class="node-label" data-notex="1" x="0" y="0" text-anchor="start" transform="translate(18.25,54.205854800936734)" style="cursor: default; font-family: 'Open Sans', verdana, arial, sans-serif; font-size: 12px; fill: rgb(42, 63, 95); fill-opacity: 1; white-space: pre; text-shadow: white 1px 1px 1px, white -1px -1px 1px, white 1px -1px 1px, white -1px 1px 1px;">22670</text></g><g class="sankey-node" transform="translate(750.000,76.370)" style="opacity: 1;"><rect class="node-rect" width="15" height="131.52224824356006" style="stroke-width: 0.5; stroke: rgb(0, 0, 0); stroke-opacity: 1; fill: rgb(128, 128, 128); fill-opacity: 1;"/><text class="node-label" data-notex="1" x="0" y="0" text-anchor="start" transform="translate(18.25,69.96112412178003)" style="cursor: default; font-family: 'Open Sans', verdana, arial, sans-serif; font-size: 12px; fill: rgb(42, 63, 95); fill-opacity: 1; white-space: pre; text-shadow: white 1px 1px 1px, white -1px -1px 1px, white 1px -1px 1px, white -1px 1px 1px;">dig</text></g><g class="sankey-node" transform="translate(750.000,222.892)" style="opacity: 1;"><rect class="node-rect" width="15" height="201.39344262295083" style="stroke-width: 0.5; stroke: rgb(0, 0, 0); stroke-opacity: 1; fill: rgb(128, 128, 128); fill-opacity: 1;"/><text class="node-label" data-notex="1" x="0" y="0" text-anchor="start" transform="translate(18.25,104.89672131147542)" style="cursor: default; font-family: 'Open Sans', verdana, arial, sans-serif; font-size: 12px; fill: rgb(42, 63, 95); fill-opacity: 1; white-space: pre; text-shadow: white 1px 1px 1px, white -1px -1px 1px, white 1px -1px 1px, white -1px 1px 1px;">walk</text></g><g class="sankey-node" transform="translate(750.000,439.286)" style="opacity: 1;"><rect class="node-rect" width="15" height="123.30210772833652" style="stroke-width: 0.5; stroke: rgb(0, 0, 0); stroke-opacity: 1; fill: rgb(128, 128, 128); fill-opacity: 1;"/><text class="node-label" data-notex="1" x="0" y="0" text-anchor="start" transform="translate(18.25,65.85105386416826)" style="cursor: default; font-family: 'Open Sans', verdana, arial, sans-serif; font-size: 12px; fill: rgb(42, 63, 95); fill-opacity: 1; white-space: pre; text-shadow: white 1px 1px 1px, white -1px -1px 1px, white 1px -1px 1px, white -1px 1px 1px;">wallclimb</text></g><g class="sankey-node" transform="translate(750.000,577.588)" style="opacity: 1;"><rect class="node-rect" width="15" height="65.76112412178009" style="stroke-width: 0.5; stroke: rgb(0, 0, 0); stroke-opacity: 1; fill: rgb(128, 128, 128); fill-opacity: 1;"/><text class="node-label" data-notex="1" x="0" y="0" text-anchor="start" transform="translate(18.25,37.080562060890045)" style="cursor: default; font-family: 'Open Sans', verdana, arial, sans-serif; font-size: 12px; fill: rgb(42, 63, 95); fill-opacity: 1; white-space: pre; text-shadow: white 1px 1px 1px, white -1px -1px 1px, white 1px -1px 1px, white -1px 1px 1px;">groom_front</text></g><g class="sankey-node" transform="translate(750.000,658.349)" style="opacity: 1;"><rect class="node-rect" width="15" height="61.651053864168716" style="stroke-width: 0.5; stroke: rgb(0, 0, 0); stroke-opacity: 1; fill: rgb(128, 128, 128); fill-opacity: 1;"/><text class="node-label" data-notex="1" x="0" y="0" text-anchor="start" transform="translate(18.25,35.02552693208436)" style="cursor: default; font-family: 'Open Sans', verdana, arial, sans-serif; font-size: 12px; fill: rgb(42, 63, 95); fill-opacity: 1; white-space: pre; text-shadow: white 1px 1px 1px, white -1px -1px 1px, white 1px -1px 1px, white -1px 1px 1px;">still</text></g><g class="sankey-node" transform="translate(1125.000,88.981)" style="opacity: 1;"><rect class="node-rect" width="15" height="58.91100702576105" style="stroke-width: 0.5; stroke: rgb(0, 0, 0); stroke-opacity: 1; fill: rgb(128, 128, 128); fill-opacity: 1;"/><text class="node-label" data-notex="1" x="0" y="0" text-anchor="end" transform="translate(-3.25,33.65550351288053)" style="cursor: default; font-family: 'Open Sans', verdana, arial, sans-serif; font-size: 12px; fill: rgb(42, 63, 95); fill-opacity: 1; white-space: pre; text-shadow: white 1px 1px 1px, white -1px -1px 1px, white 1px -1px 1px, white -1px 1px 1px;">dig-activated</text></g><g class="sankey-node" transform="translate(1125.000,162.892)" style="opacity: 1;"><rect class="node-rect" width="15" height="128.78220140515225" style="stroke-width: 0.5; stroke: rgb(0, 0, 0); stroke-opacity: 1; fill: rgb(128, 128, 128); fill-opacity: 1;"/><text class="node-label" data-notex="1" x="0" y="0" text-anchor="end" transform="translate(-3.25,68.59110070257613)" style="cursor: default; font-family: 'Open Sans', verdana, arial, sans-serif; font-size: 12px; fill: rgb(42, 63, 95); fill-opacity: 1; white-space: pre; text-shadow: white 1px 1px 1px, white -1px -1px 1px, white 1px -1px 1px, white -1px 1px 1px;">walk-activated</text></g><g class="sankey-node" transform="translate(1125.000,394.286)" style="opacity: 1;"><rect class="node-rect" width="15" height="63.021077283372506" style="stroke-width: 0.5; stroke: rgb(0, 0, 0); stroke-opacity: 1; fill: rgb(128, 128, 128); fill-opacity: 1;"/><text class="node-label" data-notex="1" x="0" y="0" text-anchor="end" transform="translate(-3.25,35.710538641686256)" style="cursor: default; font-family: 'Open Sans', verdana, arial, sans-serif; font-size: 12px; fill: rgb(42, 63, 95); fill-opacity: 1; white-space: pre; text-shadow: white 1px 1px 1px, white -1px -1px 1px, white 1px -1px 1px, white -1px 1px 1px;">wallclimb-suppressed</text></g><g class="sankey-node" transform="translate(1125.000,1.370)" style="opacity: 1;"><rect class="node-rect" width="15" height="72.61124121779861" style="stroke-width: 0.5; stroke: rgb(0, 0, 0); stroke-opacity: 1; fill: rgb(128, 128, 128); fill-opacity: 1;"/><text class="node-label" data-notex="1" x="0" y="0" text-anchor="end" transform="translate(-3.25,40.50562060889931)" style="cursor: default; font-family: 'Open Sans', verdana, arial, sans-serif; font-size: 12px; fill: rgb(42, 63, 95); fill-opacity: 1; white-space: pre; text-shadow: white 1px 1px 1px, white -1px -1px 1px, white 1px -1px 1px, white -1px 1px 1px;">dig-suppressed</text></g><g class="sankey-node" transform="translate(1125.000,472.307)" style="opacity: 1;"><rect class="node-rect" width="15" height="60.281030444964756" style="stroke-width: 0.5; stroke: rgb(0, 0, 0); stroke-opacity: 1; fill: rgb(128, 128, 128); fill-opacity: 1;"/><text class="node-label" data-notex="1" x="0" y="0" text-anchor="end" transform="translate(-3.25,34.34051522248238)" style="cursor: default; font-family: 'Open Sans', verdana, arial, sans-serif; font-size: 12px; fill: rgb(42, 63, 95); fill-opacity: 1; white-space: pre; text-shadow: white 1px 1px 1px, white -1px -1px 1px, white 1px -1px 1px, white -1px 1px 1px;">wallclimb-activated</text></g><g class="sankey-node" transform="translate(1125.000,306.674)" style="opacity: 1;"><rect class="node-rect" width="15" height="72.61124121779869" style="stroke-width: 0.5; stroke: rgb(0, 0, 0); stroke-opacity: 1; fill: rgb(128, 128, 128); fill-opacity: 1;"/><text class="node-label" data-notex="1" x="0" y="0" text-anchor="end" transform="translate(-3.25,40.50562060889935)" style="cursor: default; font-family: 'Open Sans', verdana, arial, sans-serif; font-size: 12px; fill: rgb(42, 63, 95); fill-opacity: 1; white-space: pre; text-shadow: white 1px 1px 1px, white -1px -1px 1px, white 1px -1px 1px, white -1px 1px 1px;">walk-suppressed</text></g><g class="sankey-node" transform="translate(1125.000,547.588)" style="opacity: 1;"><rect class="node-rect" width="15" height="39.730679156908764" style="stroke-width: 0.5; stroke: rgb(0, 0, 0); stroke-opacity: 1; fill: rgb(128, 128, 128); fill-opacity: 1;"/><text class="node-label" data-notex="1" x="0" y="0" text-anchor="end" transform="translate(-3.25,24.06533957845438)" style="cursor: default; font-family: 'Open Sans', verdana, arial, sans-serif; font-size: 12px; fill: rgb(42, 63, 95); fill-opacity: 1; white-space: pre; text-shadow: white 1px 1px 1px, white -1px -1px 1px, white 1px -1px 1px, white -1px 1px 1px;">groom_front-activated</text></g><g class="sankey-node" transform="translate(1125.000,643.349)" style="opacity: 1;"><rect class="node-rect" width="15" height="32.88056206089004" style="stroke-width: 0.5; stroke: rgb(0, 0, 0); stroke-opacity: 1; fill: rgb(128, 128, 128); fill-opacity: 1;"/><text class="node-label" data-notex="1" x="0" y="0" text-anchor="end" transform="translate(-3.25,20.64028103044502)" style="cursor: default; font-family: 'Open Sans', verdana, arial, sans-serif; font-size: 12px; fill: rgb(42, 63, 95); fill-opacity: 1; white-space: pre; text-shadow: white 1px 1px 1px, white -1px -1px 1px, white 1px -1px 1px, white -1px 1px 1px;">still-suppressed</text></g><g class="sankey-node" transform="translate(1125.000,602.319)" style="opacity: 1;"><rect class="node-rect" width="15" height="26.03044496487132" style="stroke-width: 0.5; stroke: rgb(0, 0, 0); stroke-opacity: 1; fill: rgb(128, 128, 128); fill-opacity: 1;"/><text class="node-label" data-notex="1" x="0" y="0" text-anchor="end" transform="translate(-3.25,17.21522248243566)" style="cursor: default; font-family: 'Open Sans', verdana, arial, sans-serif; font-size: 12px; fill: rgb(42, 63, 95); fill-opacity: 1; white-space: pre; text-shadow: white 1px 1px 1px, white -1px -1px 1px, white 1px -1px 1px, white -1px 1px 1px;">groom_front-suppressed</text></g><g class="sankey-node" transform="translate(1125.000,691.230)" style="opacity: 1;"><rect class="node-rect" width="15" height="28.770491803278674" style="stroke-width: 0.5; stroke: rgb(0, 0, 0); stroke-opacity: 1; fill: rgb(128, 128, 128); fill-opacity: 1;"/><text class="node-label" data-notex="1" x="0" y="0" text-anchor="end" transform="translate(-3.25,18.585245901639336)" style="cursor: default; font-family: 'Open Sans', verdana, arial, sans-serif; font-size: 12px; fill: rgb(42, 63, 95); fill-opacity: 1; white-space: pre; text-shadow: white 1px 1px 1px, white -1px -1px 1px, white 1px -1px 1px, white -1px 1px 1px;">still-activated</text></g><g class="sankey-node" transform="translate(375.000,492.787)" style="opacity: 1;"><rect class="node-rect" width="15" height="86.31147540983602" style="stroke-width: 0.5; stroke: rgb(0, 0, 0); stroke-opacity: 1; fill: rgb(99, 110, 250); fill-opacity: 1;"/><text class="node-label" data-notex="1" x="0" y="0" text-anchor="start" transform="translate(18.25,47.35573770491801)" style="cursor: default; font-family: 'Open Sans', verdana, arial, sans-serif; font-size: 12px; fill: rgb(42, 63, 95); fill-opacity: 1; white-space: pre; text-shadow: white 1px 1px 1px, white -1px -1px 1px, white 1px -1px 1px, white -1px 1px 1px;">Cla</text></g><g class="sankey-node" transform="translate(375.000,190.222)" style="opacity: 1;"><rect class="node-rect" width="15" height="60.2810304449647" style="stroke-width: 0.5; stroke: rgb(0, 0, 0); stroke-opacity: 1; fill: rgb(239, 85, 59); fill-opacity: 1;"/><text class="node-label" data-notex="1" x="0" y="0" text-anchor="start" transform="translate(18.25,34.34051522248235)" style="cursor: default; font-family: 'Open Sans', verdana, arial, sans-serif; font-size: 12px; fill: rgb(42, 63, 95); fill-opacity: 1; white-space: pre; text-shadow: white 1px 1px 1px, white -1px -1px 1px, white 1px -1px 1px, white -1px 1px 1px;">LC</text></g><g class="sankey-node" transform="translate(375.000,49.251)" style="opacity: 1;"><rect class="node-rect" width="15" height="101.38173302107725" style="stroke-width: 0.5; stroke: rgb(0, 0, 0); stroke-opacity: 1; fill: rgb(0, 204, 150); fill-opacity: 1;"/><text class="node-label" data-notex="1" x="0" y="0" text-anchor="start" transform="translate(18.25,54.89086651053863)" style="cursor: default; font-family: 'Open Sans', verdana, arial, sans-serif; font-size: 12px; fill: rgb(42, 63, 95); fill-opacity: 1; white-space: pre; text-shadow: white 1px 1px 1px, white -1px -1px 1px, white 1px -1px 1px, white -1px 1px 1px;">Str</text></g><g class="sankey-node" transform="translate(375.000,427.096)" style="opacity: 1;"><rect class="node-rect" width="15" height="50.690866510538626" style="stroke-width: 0.5; stroke: rgb(0, 0, 0); stroke-opacity: 1; fill: rgb(171, 99, 250); fill-opacity: 1;"/><text class="node-label" data-notex="1" x="0" y="0" text-anchor="start" transform="translate(18.25,29.545433255269312)" style="cursor: default; font-family: 'Open Sans', verdana, arial, sans-serif; font-size: 12px; fill: rgb(42, 63, 95); fill-opacity: 1; white-space: pre; text-shadow: white 1px 1px 1px, white -1px -1px 1px, white 1px -1px 1px, white -1px 1px 1px;">NAc</text></g><g class="sankey-node" transform="translate(375.000,265.504)" style="opacity: 1;"><rect class="node-rect" width="15" height="146.59250585480095" style="stroke-width: 0.5; stroke: rgb(0, 0, 0); stroke-opacity: 1; fill: rgb(255, 161, 90); fill-opacity: 1;"/><text class="node-label" data-notex="1" x="0" y="0" text-anchor="start" transform="translate(18.25,77.49625292740048)" style="cursor: default; font-family: 'Open Sans', verdana, arial, sans-serif; font-size: 12px; fill: rgb(42, 63, 95); fill-opacity: 1; white-space: pre; text-shadow: white 1px 1px 1px, white -1px -1px 1px, white 1px -1px 1px, white -1px 1px 1px;">VTA</text></g><g class="sankey-node" transform="translate(375.000,0.000)" style="opacity: 1;"><rect class="node-rect" width="15" height="34.25058548009386" style="stroke-width: 0.5; stroke: rgb(0, 0, 0); stroke-opacity: 1; fill: rgb(25, 211, 243); fill-opacity: 1;"/><text class="node-label" data-notex="1" x="0" y="0" text-anchor="start" transform="translate(18.25,21.32529274004693)" style="cursor: default; font-family: 'Open Sans', verdana, arial, sans-serif; font-size: 12px; fill: rgb(42, 63, 95); fill-opacity: 1; white-space: pre; text-shadow: white 1px 1px 1px, white -1px -1px 1px, white 1px -1px 1px, white -1px 1px 1px;">BLA</text></g><g class="sankey-node" transform="translate(375.000,657.049)" style="opacity: 1;"><rect class="node-rect" width="15" height="20.550351288055936" style="stroke-width: 0.5; stroke: rgb(0, 0, 0); stroke-opacity: 1; fill: rgb(255, 102, 146); fill-opacity: 1;"/><text class="node-label" data-notex="1" x="0" y="0" text-anchor="start" transform="translate(18.25,14.475175644027967)" style="cursor: default; font-family: 'Open Sans', verdana, arial, sans-serif; font-size: 12px; fill: rgb(42, 63, 95); fill-opacity: 1; white-space: pre; text-shadow: white 1px 1px 1px, white -1px -1px 1px, white 1px -1px 1px, white -1px 1px 1px;">dPAG</text></g><g class="sankey-node" transform="translate(375.000,165.632)" style="opacity: 1;"><rect class="node-rect" width="15" height="9.5901639344263" style="stroke-width: 0.5; stroke: rgb(0, 0, 0); stroke-opacity: 1; fill: rgb(182, 232, 128); fill-opacity: 1;"/><text class="node-label" data-notex="1" x="0" y="0" text-anchor="start" transform="translate(18.25,8.99508196721315)" style="cursor: default; font-family: 'Open Sans', verdana, arial, sans-serif; font-size: 12px; fill: rgb(42, 63, 95); fill-opacity: 1; white-space: pre; text-shadow: white 1px 1px 1px, white -1px -1px 1px, white 1px -1px 1px, white -1px 1px 1px;">lHb</text></g><g class="sankey-node" transform="translate(375.000,594.098)" style="opacity: 1;"><rect class="node-rect" width="15" height="47.95081967213082" style="stroke-width: 0.5; stroke: rgb(0, 0, 0); stroke-opacity: 1; fill: rgb(255, 151, 255); fill-opacity: 1;"/><text class="node-label" data-notex="1" x="0" y="0" text-anchor="start" transform="translate(18.25,28.17540983606541)" style="cursor: default; font-family: 'Open Sans', verdana, arial, sans-serif; font-size: 12px; fill: rgb(42, 63, 95); fill-opacity: 1; white-space: pre; text-shadow: white 1px 1px 1px, white -1px -1px 1px, white 1px -1px 1px, white -1px 1px 1px;">cPFC</text></g><g class="sankey-node" transform="translate(375.000,692.600)" style="opacity: 1;"><rect class="node-rect" width="15" height="27.400468384074657" style="stroke-width: 0.5; stroke: rgb(0, 0, 0); stroke-opacity: 1; fill: rgb(254, 203, 82); fill-opacity: 1;"/><text class="node-label" data-notex="1" x="0" y="0" text-anchor="start" transform="translate(18.25,17.900234192037328)" style="cursor: default; font-family: 'Open Sans', verdana, arial, sans-serif; font-size: 12px; fill: rgb(42, 63, 95); fill-opacity: 1; white-space: pre; text-shadow: white 1px 1px 1px, white -1px -1px 1px, white 1px -1px 1px, white -1px 1px 1px;">LHyp</text></g></g></g><defs id="topdefs-865ebf"><g class="clips"/></defs><g class="layer-above"><g class="imagelayer"/><g class="shapelayer"/></g><g class="infolayer"><g class="g-gtitle"/><g class="first-render"/></g></svg>