<svg class="main-svg" xmlns="http://www.w3.org/2000/svg" xmlns:xlink="http://www.w3.org/1999/xlink" width="1300" height="900" style="" viewBox="0 0 1300 900"><rect x="0" y="0" width="1300" height="900" style="fill: rgb(255, 255, 255); fill-opacity: 1;"/><defs id="defs-a7f9c2"><g class="clips"/><g class="gradients"/><g class="patterns"/></defs><g class="bglayer"/><g class="layer-below"><g class="imagelayer"/><g class="shapelayer"/></g><g class="cartesianlayer"/><g class="polarlayer"/><g class="smithlayer"/><g class="ternarylayer"/><g class="geolayer"/><g class="funnelarealayer"/><g class="pielayer"/><g class="iciclelayer"/><g class="treemaplayer"/><g class="sunburstlayer"/><g class="glimages"/><g class="sankey" transform="translate(80,100)matrix(1 0 0 1 0 0)" style="box-sizing: content-box; position: absolute; left: 0px; shape-rendering: geometricprecision; pointer-events: none;"><g class="sankey-links" style="fill: none;"><path class="sankey-link" d="M7.50114,14.464766355140242C188.10057000000003,14.464766355140242 188.10057000000003,35.1415463041629 368.70000000000005,35.1415463041629L368.70000000000005,58.132200509770385C188.10057000000003,58.132200509770385 188.10057000000003,37.45542056074772 7.50114,37.45542056074772Z" style="stroke: rgb(68, 68, 68); stroke-opacity: 1; fill: rgb(99, 110, 250); fill-opacity: 0.6; stroke-width: 0; opacity: 1;"/><path class="sankey-link" d="M7.50114,37.45542056074772C188.10057000000003,37.45542056074772 188.10057000000003,156.14610025488514 368.70000000000005,156.14610025488514L368.70000000000005,161.89376380628698C188.10057000000003,161.89376380628698 188.10057000000003,43.20308411214959 7.50114,43.20308411214959Z" style="stroke: rgb(68, 68, 68); stroke-opacity: 1; fill: rgb(0, 204, 150); fill-opacity: 0.6; stroke-width: 0; opacity: 1;"/><path class="sankey-link" d="M7.50114,43.20308411214959C188.10057000000003,43.20308411214959 188.10057000000003,256.5830161427357 368.70000000000005,256.5830161427357L368.70000000000005,270.95217502124035C188.10057000000003,270.95217502124035 188.10057000000003,57.57224299065427 7.50114,57.57224299065427Z" style="stroke: rgb(68, 68, 68); stroke-opacity: 1; fill: rgb(255, 161, 90); fill-opacity: 0.6; stroke-width: 0; opacity: 1;"/><path class="sankey-link" d="M7.50114,57.57224299065425C188.10057000000003,57.57224299065425 188.10057000000003,296.6547323704336 368.70000000000005,296.6547323704336L368.70000000000005,311.02389124893824C188.10057000000003,311.02389124893824 188.10057000000003,71.94140186915892 7.50114,71.94140186915892Z" style="stroke: rgb(68, 68, 68); stroke-opacity: 1; fill: rgb(171, 99, 250); fill-opacity: 0.6; stroke-width: 0; opacity: 1;"/><path class="sankey-link" d="M7.50114,71.94140186915894C188.10057000000003,71.94140186915894 188.10057000000003,368.4347153780799 368.70000000000005,368.4347153780799L368.70000000000005,371.30854715378086C188.10057000000003,371.30854715378086 188.10057000000003,74.81523364485986 7.50114,74.81523364485986Z" style="stroke: rgb(68, 68, 68); stroke-opacity: 1; fill: rgb(239, 85, 59); fill-opacity: 0.6; stroke-width: 0; opacity: 1;"/><path class="sankey-link" d="M7.50114,89.32934579439262C188.10057000000003,89.32934579439262 188.10057000000003,13.59723874256602 368.70000000000005,13.59723874256602L368.70000000000005,19.34490229396789C188.10057000000003,19.34490229396789 188.10057000000003,95.0770093457945 7.50114,95.0770093457945Z" style="stroke: rgb(68, 68, 68); stroke-opacity: 1; fill: rgb(25, 211, 243); fill-opacity: 0.6; stroke-width: 0; opacity: 1;"/><path class="sankey-link" d="M7.50114,95.0770093457945C188.10057000000003,95.0770093457945 188.10057000000003,58.13220050977038 368.70000000000005,58.13220050977038L368.70000000000005,61.00603228547131C188.10057000000003,61.00603228547131 188.10057000000003,97.95084112149542 7.50114,97.95084112149542Z" style="stroke: rgb(68, 68, 68); stroke-opacity: 1; fill: rgb(99, 110, 250); fill-opacity: 0.6; stroke-width: 0; opacity: 1;"/><path class="sankey-link" d="M7.50114,97.95084112149543C188.10057000000003,97.95084112149543 188.10057000000003,161.893763806287 368.70000000000005,161.893763806287L368.70000000000005,167.64142735768885C188.10057000000003,167.64142735768885 188.10057000000003,103.6985046728973 7.50114,103.6985046728973Z" style="stroke: rgb(68, 68, 68); stroke-opacity: 1; fill: rgb(0, 204, 150); fill-opacity: 0.6; stroke-width: 0; opacity: 1;"/><path class="sankey-link" d="M7.50114,103.6985046728973C188.10057000000003,103.6985046728973 188.10057000000003,270.95217502124035 368.70000000000005,270.95217502124035L368.70000000000005,282.44750212404404C188.10057000000003,282.44750212404404 188.10057000000003,115.19383177570104 7.50114,115.19383177570104Z" style="stroke: rgb(68, 68, 68); stroke-opacity: 1; fill: rgb(255, 161, 90); fill-opacity: 0.6; stroke-width: 0; opacity: 1;"/><path class="sankey-link" d="M7.50114,115.19383177570104C188.10057000000003,115.19383177570104 188.10057000000003,311.02389124893824 368.70000000000005,311.02389124893824L368.70000000000005,316.7715548003401C188.10057000000003,316.7715548003401 188.10057000000003,120.94149532710291 7.50114,120.94149532710291Z" style="stroke: rgb(68, 68, 68); stroke-opacity: 1; fill: rgb(171, 99, 250); fill-opacity: 0.6; stroke-width: 0; opacity: 1;"/><path class="sankey-link" d="M7.50114,120.94149532710291C188.10057000000003,120.94149532710291 188.10057000000003,371.3085471537808 368.70000000000005,371.3085471537808L368.70000000000005,374.1823789294818C188.10057000000003,374.1823789294818 188.10057000000003,123.81532710280383 7.50114,123.81532710280383Z" style="stroke: rgb(68, 68, 68); stroke-opacity: 1; fill: rgb(239, 85, 59); fill-opacity: 0.6; stroke-width: 0; opacity: 1;"/><path class="sankey-link" d="M7.50114,123.81532710280386C188.10057000000003,123.81532710280386 188.10057000000003,601.7914868309263 368.70000000000005,601.7914868309263L368.70000000000005,610.4129821580291C188.10057000000003,610.4129821580291 188.10057000000003,132.43682242990667 7.50114,132.43682242990667Z" style="stroke: rgb(68, 68, 68); stroke-opacity: 1; fill: rgb(182, 232, 128); fill-opacity: 0.6; stroke-width: 0; opacity: 1;"/><path class="sankey-link" d="M7.50114,132.43682242990664C188.10057000000003,132.43682242990664 188.10057000000003,702.886720475786 368.70000000000005,702.886720475786L368.70000000000005,705.7605522514868C188.10057000000003,705.7605522514868 188.10057000000003,135.31065420560756 7.50114,135.31065420560756Z" style="stroke: rgb(68, 68, 68); stroke-opacity: 1; fill: rgb(255, 102, 146); fill-opacity: 0.6; stroke-width: 0; opacity: 1;"/><path class="sankey-link" d="M7.50114,149.81551401869166C188.10057000000003,149.81551401869166 188.10057000000003,19.34490229396789 368.70000000000005,19.34490229396789L368.70000000000005,27.966397621070698C188.10057000000003,27.966397621070698 188.10057000000003,158.43700934579448 7.50114,158.43700934579448Z" style="stroke: rgb(68, 68, 68); stroke-opacity: 1; fill: rgb(25, 211, 243); fill-opacity: 0.6; stroke-width: 0; opacity: 1;"/><path class="sankey-link" d="M7.50114,158.43700934579445C188.10057000000003,158.43700934579445 188.10057000000003,61.00603228547131 368.70000000000005,61.00603228547131L368.70000000000005,75.37519116397598C188.10057000000003,75.37519116397598 188.10057000000003,172.8061682242991 7.50114,172.8061682242991Z" style="stroke: rgb(68, 68, 68); stroke-opacity: 1; fill: rgb(99, 110, 250); fill-opacity: 0.6; stroke-width: 0; opacity: 1;"/><path class="sankey-link" d="M7.50114,172.8061682242991C188.10057000000003,172.8061682242991 188.10057000000003,282.4475021240441 368.70000000000005,282.4475021240441L368.70000000000005,288.19516567544593C188.10057000000003,288.19516567544593 188.10057000000003,178.55383177570096 7.50114,178.55383177570096Z" style="stroke: rgb(68, 68, 68); stroke-opacity: 1; fill: rgb(255, 161, 90); fill-opacity: 0.6; stroke-width: 0; opacity: 1;"/><path class="sankey-link" d="M7.50114,178.55383177570098C188.10057000000003,178.55383177570098 188.10057000000003,316.7715548003401 368.70000000000005,316.7715548003401L368.70000000000005,325.3930501274429C188.10057000000003,325.3930501274429 188.10057000000003,187.1753271028038 7.50114,187.1753271028038Z" style="stroke: rgb(68, 68, 68); stroke-opacity: 1; fill: rgb(171, 99, 250); fill-opacity: 0.6; stroke-width: 0; opacity: 1;"/><path class="sankey-link" d="M7.50114,187.17532710280378C188.10057000000003,187.17532710280378 188.10057000000003,374.18237892948173 368.70000000000005,374.18237892948173L368.70000000000005,377.0562107051827C188.10057000000003,377.0562107051827 188.10057000000003,190.0491588785047 7.50114,190.0491588785047Z" style="stroke: rgb(68, 68, 68); stroke-opacity: 1; fill: rgb(239, 85, 59); fill-opacity: 0.6; stroke-width: 0; opacity: 1;"/><path class="sankey-link" d="M7.50114,190.0491588785047C188.10057000000003,190.0491588785047 188.10057000000003,610.4129821580291 368.70000000000005,610.4129821580291L368.70000000000005,613.28681393373C188.10057000000003,613.28681393373 188.10057000000003,192.92299065420562 7.50114,192.92299065420562Z" style="stroke: rgb(68, 68, 68); stroke-opacity: 1; fill: rgb(182, 232, 128); fill-opacity: 0.6; stroke-width: 0; opacity: 1;"/><path class="sankey-link" d="M7.50114,192.92299065420562C188.10057000000003,192.92299065420562 188.10057000000003,675.0808751062023 368.70000000000005,675.0808751062023L368.70000000000005,683.7023704333051C188.10057000000003,683.7023704333051 188.10057000000003,201.54448598130844 7.50114,201.54448598130844Z" style="stroke: rgb(68, 68, 68); stroke-opacity: 1; fill: rgb(255, 151, 255); fill-opacity: 0.6; stroke-width: 0; opacity: 1;"/><path class="sankey-link" d="M7.50114,216.25289719626164C188.10057000000003,216.25289719626164 188.10057000000003,75.37519116397598 368.70000000000005,75.37519116397598L368.70000000000005,112.73500424808813C188.10057000000003,112.73500424808813 188.10057000000003,253.6127102803738 7.50114,253.6127102803738Z" style="stroke: rgb(68, 68, 68); stroke-opacity: 1; fill: rgb(99, 110, 250); fill-opacity: 0.6; stroke-width: 0; opacity: 1;"/><path class="sankey-link" d="M7.50114,253.61271028037376C188.10057000000003,253.61271028037376 188.10057000000003,167.64142735768888 368.70000000000005,167.64142735768888L368.70000000000005,179.13675446049263C188.10057000000003,179.13675446049263 188.10057000000003,265.1080373831775 7.50114,265.1080373831775Z" style="stroke: rgb(68, 68, 68); stroke-opacity: 1; fill: rgb(0, 204, 150); fill-opacity: 0.6; stroke-width: 0; opacity: 1;"/><path class="sankey-link" d="M7.50114,265.10803738317753C188.10057000000003,265.10803738317753 188.10057000000003,200.53661852166533 368.70000000000005,200.53661852166533L368.70000000000005,223.52727272727282C188.10057000000003,223.52727272727282 188.10057000000003,288.098691588785 7.50114,288.098691588785Z" style="stroke: rgb(68, 68, 68); stroke-opacity: 1; fill: rgb(254, 203, 82); fill-opacity: 0.6; stroke-width: 0; opacity: 1;"/><path class="sankey-link" d="M7.50114,288.098691588785C188.10057000000003,288.098691588785 188.10057000000003,325.3930501274429 368.70000000000005,325.3930501274429L368.70000000000005,348.3837043330504C188.10057000000003,348.3837043330504 188.10057000000003,311.0893457943925 7.50114,311.0893457943925Z" style="stroke: rgb(68, 68, 68); stroke-opacity: 1; fill: rgb(171, 99, 250); fill-opacity: 0.6; stroke-width: 0; opacity: 1;"/><path class="sankey-link" d="M7.50114,311.0893457943925C188.10057000000003,311.0893457943925 188.10057000000003,377.05621070518265 368.70000000000005,377.05621070518265L368.70000000000005,489.1356499575191C188.10057000000003,489.1356499575191 188.10057000000003,423.16878504672894 7.50114,423.16878504672894Z" style="stroke: rgb(68, 68, 68); stroke-opacity: 1; fill: rgb(239, 85, 59); fill-opacity: 0.6; stroke-width: 0; opacity: 1;"/><path class="sankey-link" d="M7.50114,423.16878504672894C188.10057000000003,423.16878504672894 188.10057000000003,613.2868139337301 368.70000000000005,613.2868139337301L368.70000000000005,639.1512999150385C188.10057000000003,639.1512999150385 188.10057000000003,449.0332710280374 7.50114,449.0332710280374Z" style="stroke: rgb(68, 68, 68); stroke-opacity: 1; fill: rgb(182, 232, 128); fill-opacity: 0.6; stroke-width: 0; opacity: 1;"/><path class="sankey-link" d="M7.50114,449.03327102803735C188.10057000000003,449.03327102803735 188.10057000000003,683.7023704333051 368.70000000000005,683.7023704333051L368.70000000000005,686.5762022090059C188.10057000000003,686.5762022090059 188.10057000000003,451.9071028037383 7.50114,451.9071028037383Z" style="stroke: rgb(68, 68, 68); stroke-opacity: 1; fill: rgb(255, 151, 255); fill-opacity: 0.6; stroke-width: 0; opacity: 1;"/><path class="sankey-link" d="M7.50114,466.8159813084111C188.10057000000003,466.8159813084111 188.10057000000003,112.73500424808813 368.70000000000005,112.73500424808813L368.70000000000005,150.09481733220028C188.10057000000003,150.09481733220028 188.10057000000003,504.17579439252324 7.50114,504.17579439252324Z" style="stroke: rgb(68, 68, 68); stroke-opacity: 1; fill: rgb(99, 110, 250); fill-opacity: 0.6; stroke-width: 0; opacity: 1;"/><path class="sankey-link" d="M7.50114,504.17579439252324C188.10057000000003,504.17579439252324 188.10057000000003,179.13675446049263 368.70000000000005,179.13675446049263L368.70000000000005,190.63208156329637C188.10057000000003,190.63208156329637 188.10057000000003,515.6711214953269 7.50114,515.6711214953269Z" style="stroke: rgb(68, 68, 68); stroke-opacity: 1; fill: rgb(0, 204, 150); fill-opacity: 0.6; stroke-width: 0; opacity: 1;"/><path class="sankey-link" d="M7.50114,515.6711214953269C188.10057000000003,515.6711214953269 188.10057000000003,223.52727272727282 368.70000000000005,223.52727272727282L368.70000000000005,246.5179269328803C188.10057000000003,246.5179269328803 188.10057000000003,538.6617757009343 7.50114,538.6617757009343Z" style="stroke: rgb(68, 68, 68); stroke-opacity: 1; fill: rgb(254, 203, 82); fill-opacity: 0.6; stroke-width: 0; opacity: 1;"/><path class="sankey-link" d="M7.50114,538.6617757009344C188.10057000000003,538.6617757009344 188.10057000000003,348.3837043330504 368.70000000000005,348.3837043330504L368.70000000000005,371.3743585386579C188.10057000000003,371.3743585386579 188.10057000000003,561.6524299065418 7.50114,561.6524299065418Z" style="stroke: rgb(68, 68, 68); stroke-opacity: 1; fill: rgb(171, 99, 250); fill-opacity: 0.6; stroke-width: 0; opacity: 1;"/><path class="sankey-link" d="M7.50114,561.6524299065419C188.10057000000003,561.6524299065419 188.10057000000003,489.1356499575191 368.70000000000005,489.1356499575191L368.70000000000005,604.0889209855565C188.10057000000003,604.0889209855565 188.10057000000003,676.6057009345792 7.50114,676.6057009345792Z" style="stroke: rgb(68, 68, 68); stroke-opacity: 1; fill: rgb(239, 85, 59); fill-opacity: 0.6; stroke-width: 0; opacity: 1;"/><path class="sankey-link" d="M7.50114,676.6057009345793C188.10057000000003,676.6057009345793 188.10057000000003,639.1512999150385 368.70000000000005,639.1512999150385L368.70000000000005,665.015785896347C188.10057000000003,665.015785896347 188.10057000000003,702.4701869158878 7.50114,702.4701869158878Z" style="stroke: rgb(68, 68, 68); stroke-opacity: 1; fill: rgb(182, 232, 128); fill-opacity: 0.6; stroke-width: 0; opacity: 1;"/><path class="sankey-link" d="M7.50114,702.4701869158878C188.10057000000003,702.4701869158878 188.10057000000003,686.576202209006 368.70000000000005,686.576202209006L368.70000000000005,689.4500339847069C188.10057000000003,689.4500339847069 188.10057000000003,705.3440186915886 7.50114,705.3440186915886Z" style="stroke: rgb(68, 68, 68); stroke-opacity: 1; fill: rgb(255, 151, 255); fill-opacity: 0.6; stroke-width: 0; opacity: 1;"/><path class="sankey-link" d="M383.70000000000005,13.59723874256602C564.3000000000001,13.59723874256602 564.3000000000001,113.05255212077645 744.9000000000001,113.05255212077645L744.9000000000001,115.92638389647738C564.3000000000001,115.92638389647738 564.3000000000001,16.471070518266956 383.70000000000005,16.471070518266956Z" style="stroke: rgb(68, 68, 68); stroke-opacity: 1; fill: rgb(25, 211, 243); fill-opacity: 0.6; stroke-width: 0; opacity: 1;"/><path class="sankey-link" d="M383.70000000000005,35.1415463041629C564.3000000000001,35.1415463041629 564.3000000000001,115.92638389647739 744.9000000000001,115.92638389647739L744.9000000000001,127.42171099928113C564.3000000000001,127.42171099928113 564.3000000000001,46.63687340696664 383.70000000000005,46.63687340696664Z" style="stroke: rgb(68, 68, 68); stroke-opacity: 1; fill: rgb(99, 110, 250); fill-opacity: 0.6; stroke-width: 0; opacity: 1;"/><path class="sankey-link" d="M383.70000000000005,46.63687340696664C564.3000000000001,46.63687340696664 564.3000000000001,451.48339324227186 744.9000000000001,451.48339324227186L744.9000000000001,471.60021567217836C564.3000000000001,471.60021567217836 564.3000000000001,66.75369583687318 383.70000000000005,66.75369583687318Z" style="stroke: rgb(68, 68, 68); stroke-opacity: 1; fill: rgb(99, 110, 250); fill-opacity: 0.6; stroke-width: 0; opacity: 1;"/><path class="sankey-link" d="M383.70000000000005,156.14610025488514C564.3000000000001,156.14610025488514 564.3000000000001,127.42171099928113 744.9000000000001,127.42171099928113L744.9000000000001,133.169374550683C564.3000000000001,133.169374550683 564.3000000000001,161.89376380628698 383.70000000000005,161.89376380628698Z" style="stroke: rgb(68, 68, 68); stroke-opacity: 1; fill: rgb(0, 204, 150); fill-opacity: 0.6; stroke-width: 0; opacity: 1;"/><path class="sankey-link" d="M383.70000000000005,161.893763806287C564.3000000000001,161.893763806287 564.3000000000001,471.6002156721784 744.9000000000001,471.6002156721784L744.9000000000001,480.22171099928124C564.3000000000001,480.22171099928124 564.3000000000001,170.51525913338983 383.70000000000005,170.51525913338983Z" style="stroke: rgb(68, 68, 68); stroke-opacity: 1; fill: rgb(0, 204, 150); fill-opacity: 0.6; stroke-width: 0; opacity: 1;"/><path class="sankey-link" d="M383.70000000000005,200.53661852166533C564.3000000000001,200.53661852166533 564.3000000000001,133.169374550683 744.9000000000001,133.169374550683L744.9000000000001,150.41236520488857C564.3000000000001,150.41236520488857 564.3000000000001,217.77960917587092 383.70000000000005,217.77960917587092Z" style="stroke: rgb(68, 68, 68); stroke-opacity: 1; fill: rgb(254, 203, 82); fill-opacity: 0.6; stroke-width: 0; opacity: 1;"/><path class="sankey-link" d="M383.70000000000005,217.77960917587095C564.3000000000001,217.77960917587095 564.3000000000001,480.22171099928124 744.9000000000001,480.22171099928124L744.9000000000001,494.5908698777859C564.3000000000001,494.5908698777859 564.3000000000001,232.1487680543756 383.70000000000005,232.1487680543756Z" style="stroke: rgb(68, 68, 68); stroke-opacity: 1; fill: rgb(254, 203, 82); fill-opacity: 0.6; stroke-width: 0; opacity: 1;"/><path class="sankey-link" d="M383.70000000000005,256.5830161427357C564.3000000000001,256.5830161427357 564.3000000000001,150.4123652048886 744.9000000000001,150.4123652048886L744.9000000000001,153.28619698058952C564.3000000000001,153.28619698058952 564.3000000000001,259.45684791843667 383.70000000000005,259.45684791843667Z" style="stroke: rgb(68, 68, 68); stroke-opacity: 1; fill: rgb(255, 161, 90); fill-opacity: 0.6; stroke-width: 0; opacity: 1;"/><path class="sankey-link" d="M383.70000000000005,296.6547323704336C564.3000000000001,296.6547323704336 564.3000000000001,153.28619698058952 744.9000000000001,153.28619698058952L744.9000000000001,164.78152408339326C564.3000000000001,164.78152408339326 564.3000000000001,308.15005947323726 383.70000000000005,308.15005947323726Z" style="stroke: rgb(68, 68, 68); stroke-opacity: 1; fill: rgb(171, 99, 250); fill-opacity: 0.6; stroke-width: 0; opacity: 1;"/><path class="sankey-link" d="M383.70000000000005,308.1500594732373C564.3000000000001,308.1500594732373 564.3000000000001,494.5908698777859 744.9000000000001,494.5908698777859L744.9000000000001,511.83386053199155C564.3000000000001,511.83386053199155 564.3000000000001,325.39305012744296 383.70000000000005,325.39305012744296Z" style="stroke: rgb(68, 68, 68); stroke-opacity: 1; fill: rgb(171, 99, 250); fill-opacity: 0.6; stroke-width: 0; opacity: 1;"/><path class="sankey-link" d="M383.70000000000005,368.4347153780799C564.3000000000001,368.4347153780799 564.3000000000001,164.78152408339326 744.9000000000001,164.78152408339326L744.9000000000001,205.01516894320633C564.3000000000001,205.01516894320633 564.3000000000001,408.668360237893 383.70000000000005,408.668360237893Z" style="stroke: rgb(68, 68, 68); stroke-opacity: 1; fill: rgb(239, 85, 59); fill-opacity: 0.6; stroke-width: 0; opacity: 1;"/><path class="sankey-link" d="M383.70000000000005,408.66836023789295C564.3000000000001,408.66836023789295 564.3000000000001,511.83386053199143 744.9000000000001,511.83386053199143L744.9000000000001,572.184327821711C564.3000000000001,572.184327821711 564.3000000000001,469.0188275276126 383.70000000000005,469.0188275276126Z" style="stroke: rgb(68, 68, 68); stroke-opacity: 1; fill: rgb(239, 85, 59); fill-opacity: 0.6; stroke-width: 0; opacity: 1;"/><path class="sankey-link" d="M383.70000000000005,601.7914868309263C564.3000000000001,601.7914868309263 564.3000000000001,205.01516894320633 744.9000000000001,205.01516894320633L744.9000000000001,210.76283249460818C564.3000000000001,210.76283249460818 564.3000000000001,607.5391503823282 383.70000000000005,607.5391503823282Z" style="stroke: rgb(68, 68, 68); stroke-opacity: 1; fill: rgb(182, 232, 128); fill-opacity: 0.6; stroke-width: 0; opacity: 1;"/><path class="sankey-link" d="M383.70000000000005,607.5391503823281C564.3000000000001,607.5391503823281 564.3000000000001,572.1843278217111 744.9000000000001,572.1843278217111L744.9000000000001,577.9319913731131C564.3000000000001,577.9319913731131 564.3000000000001,613.2868139337301 383.70000000000005,613.2868139337301Z" style="stroke: rgb(68, 68, 68); stroke-opacity: 1; fill: rgb(182, 232, 128); fill-opacity: 0.6; stroke-width: 0; opacity: 1;"/><path class="sankey-link" d="M759.9000000000001,113.05255212077645C946.19943,113.05255212077645 946.19943,66.02167505391802 1132.49886,66.02167505391802L1132.49886,68.89550682961894C946.19943,68.89550682961894 946.19943,115.92638389647738 759.9000000000001,115.92638389647738Z" style="stroke: rgb(68, 68, 68); stroke-opacity: 1; fill: rgb(25, 211, 243); fill-opacity: 0.6; stroke-width: 0; opacity: 1;"/><path class="sankey-link" d="M759.9000000000001,115.92638389647739C946.19943,115.92638389647739 946.19943,68.89550682961895 1132.49886,68.89550682961895L1132.49886,80.3908339324227C946.19943,80.3908339324227 946.19943,127.42171099928113 759.9000000000001,127.42171099928113Z" style="stroke: rgb(68, 68, 68); stroke-opacity: 1; fill: rgb(99, 110, 250); fill-opacity: 0.6; stroke-width: 0; opacity: 1;"/><path class="sankey-link" d="M759.9000000000001,451.48339324227186C946.19943,451.48339324227186 946.19943,344.68005032350834 1132.49886,344.68005032350834L1132.49886,350.4277138749102C946.19943,350.4277138749102 946.19943,457.2310567936737 759.9000000000001,457.2310567936737Z" style="stroke: rgb(68, 68, 68); stroke-opacity: 1; fill: rgb(99, 110, 250); fill-opacity: 0.6; stroke-width: 0; opacity: 1;"/><path class="sankey-link" d="M759.9000000000001,471.60021567217836C946.19943,471.60021567217836 946.19943,498.74180445722516 1132.49886,498.74180445722516L1132.49886,513.1109633357298C946.19943,513.1109633357298 946.19943,485.969374550683 759.9000000000001,485.969374550683Z" style="stroke: rgb(68, 68, 68); stroke-opacity: 1; fill: rgb(99, 110, 250); fill-opacity: 0.6; stroke-width: 0; opacity: 1;"/><path class="sankey-link" d="M759.9000000000001,127.42171099928113C946.19943,127.42171099928113 946.19943,80.3908339324227 1132.49886,80.3908339324227L1132.49886,86.13849748382457C946.19943,86.13849748382457 946.19943,133.169374550683 759.9000000000001,133.169374550683Z" style="stroke: rgb(68, 68, 68); stroke-opacity: 1; fill: rgb(0, 204, 150); fill-opacity: 0.6; stroke-width: 0; opacity: 1;"/><path class="sankey-link" d="M759.9000000000001,457.2310567936737C946.19943,457.2310567936737 946.19943,350.4277138749102 1132.49886,350.4277138749102L1132.49886,353.30154565061116C946.19943,353.30154565061116 946.19943,460.1048885693747 759.9000000000001,460.1048885693747Z" style="stroke: rgb(68, 68, 68); stroke-opacity: 1; fill: rgb(0, 204, 150); fill-opacity: 0.6; stroke-width: 0; opacity: 1;"/><path class="sankey-link" d="M759.9000000000001,485.969374550683C946.19943,485.969374550683 946.19943,513.1109633357298 1132.49886,513.1109633357298L1132.49886,518.8586268871318C946.19943,518.8586268871318 946.19943,491.71703810208487 759.9000000000001,491.71703810208487Z" style="stroke: rgb(68, 68, 68); stroke-opacity: 1; fill: rgb(0, 204, 150); fill-opacity: 0.6; stroke-width: 0; opacity: 1;"/><path class="sankey-link" d="M759.9000000000001,133.169374550683C946.19943,133.169374550683 946.19943,86.13849748382457 1132.49886,86.13849748382457L1132.49886,94.75999281092736C946.19943,94.75999281092736 946.19943,141.7908698777858 759.9000000000001,141.7908698777858Z" style="stroke: rgb(68, 68, 68); stroke-opacity: 1; fill: rgb(254, 203, 82); fill-opacity: 0.6; stroke-width: 0; opacity: 1;"/><path class="sankey-link" d="M759.9000000000001,167.6553558590942C946.19943,167.6553558590942 946.19943,227.40010783608932 1132.49886,227.40010783608932L1132.49886,236.02160316319214C946.19943,236.02160316319214 946.19943,176.276851186197 759.9000000000001,176.276851186197Z" style="stroke: rgb(68, 68, 68); stroke-opacity: 1; fill: rgb(254, 203, 82); fill-opacity: 0.6; stroke-width: 0; opacity: 1;"/><path class="sankey-link" d="M759.9000000000001,491.71703810208487C946.19943,491.71703810208487 946.19943,518.8586268871317 1132.49886,518.8586268871317L1132.49886,533.2277857656364C946.19943,533.2277857656364 946.19943,506.08619698058953 759.9000000000001,506.08619698058953Z" style="stroke: rgb(68, 68, 68); stroke-opacity: 1; fill: rgb(254, 203, 82); fill-opacity: 0.6; stroke-width: 0; opacity: 1;"/><path class="sankey-link" d="M759.9000000000001,176.27685118619698C946.19943,176.27685118619698 946.19943,236.0216031631921 1132.49886,236.0216031631921L1132.49886,238.89543493889303C946.19943,238.89543493889303 946.19943,179.1506829618979 759.9000000000001,179.1506829618979Z" style="stroke: rgb(68, 68, 68); stroke-opacity: 1; fill: rgb(255, 161, 90); fill-opacity: 0.6; stroke-width: 0; opacity: 1;"/><path class="sankey-link" d="M759.9000000000001,141.79086987778578C946.19943,141.79086987778578 946.19943,94.75999281092737 1132.49886,94.75999281092737L1132.49886,100.50765636232924C946.19943,100.50765636232924 946.19943,147.53853342918762 759.9000000000001,147.53853342918762Z" style="stroke: rgb(68, 68, 68); stroke-opacity: 1; fill: rgb(171, 99, 250); fill-opacity: 0.6; stroke-width: 0; opacity: 1;"/><path class="sankey-link" d="M759.9000000000001,179.1506829618979C946.19943,179.1506829618979 946.19943,238.89543493889303 1132.49886,238.89543493889303L1132.49886,244.64309849029488C946.19943,244.64309849029488 946.19943,184.89834651329974 759.9000000000001,184.89834651329974Z" style="stroke: rgb(68, 68, 68); stroke-opacity: 1; fill: rgb(171, 99, 250); fill-opacity: 0.6; stroke-width: 0; opacity: 1;"/><path class="sankey-link" d="M759.9000000000001,460.1048885693746C946.19943,460.1048885693746 946.19943,353.3015456506111 1132.49886,353.3015456506111L1132.49886,356.1753774263121C946.19943,356.1753774263121 946.19943,462.9787203450756 759.9000000000001,462.9787203450756Z" style="stroke: rgb(68, 68, 68); stroke-opacity: 1; fill: rgb(171, 99, 250); fill-opacity: 0.6; stroke-width: 0; opacity: 1;"/><path class="sankey-link" d="M759.9000000000001,506.0861969805896C946.19943,506.0861969805896 946.19943,533.2277857656363 1132.49886,533.2277857656363L1132.49886,547.5969446441411C946.19943,547.5969446441411 946.19943,520.4553558590943 759.9000000000001,520.4553558590943Z" style="stroke: rgb(68, 68, 68); stroke-opacity: 1; fill: rgb(171, 99, 250); fill-opacity: 0.6; stroke-width: 0; opacity: 1;"/><path class="sankey-link" d="M759.9000000000001,147.53853342918765C946.19943,147.53853342918765 946.19943,100.50765636232924 1132.49886,100.50765636232924L1132.49886,120.62447879223578C946.19943,120.62447879223578 946.19943,167.65535585909421 759.9000000000001,167.65535585909421Z" style="stroke: rgb(68, 68, 68); stroke-opacity: 1; fill: rgb(239, 85, 59); fill-opacity: 0.6; stroke-width: 0; opacity: 1;"/><path class="sankey-link" d="M759.9000000000001,184.89834651329977C946.19943,184.89834651329977 946.19943,244.6430984902949 1132.49886,244.6430984902949L1132.49886,264.75992092020147C946.19943,264.75992092020147 946.19943,205.01516894320633 759.9000000000001,205.01516894320633Z" style="stroke: rgb(68, 68, 68); stroke-opacity: 1; fill: rgb(239, 85, 59); fill-opacity: 0.6; stroke-width: 0; opacity: 1;"/><path class="sankey-link" d="M759.9000000000001,462.97872034507554C946.19943,462.97872034507554 946.19943,356.175377426312 1132.49886,356.175377426312L1132.49886,364.79687275341485C946.19943,364.79687275341485 946.19943,471.60021567217836 759.9000000000001,471.60021567217836Z" style="stroke: rgb(68, 68, 68); stroke-opacity: 1; fill: rgb(239, 85, 59); fill-opacity: 0.6; stroke-width: 0; opacity: 1;"/><path class="sankey-link" d="M759.9000000000001,520.4553558590942C946.19943,520.4553558590942 946.19943,547.596944644141 1132.49886,547.596944644141L1132.49886,599.3259166067579C946.19943,599.3259166067579 946.19943,572.1843278217111 759.9000000000001,572.1843278217111Z" style="stroke: rgb(68, 68, 68); stroke-opacity: 1; fill: rgb(239, 85, 59); fill-opacity: 0.6; stroke-width: 0; opacity: 1;"/><path class="sankey-link" d="M759.9000000000001,205.0151689432063C946.19943,205.0151689432063 946.19943,264.75992092020147 1132.49886,264.75992092020147L1132.49886,270.5075844716033C946.19943,270.5075844716033 946.19943,210.76283249460815 759.9000000000001,210.76283249460815Z" style="stroke: rgb(68, 68, 68); stroke-opacity: 1; fill: rgb(182, 232, 128); fill-opacity: 0.6; stroke-width: 0; opacity: 1;"/><path class="sankey-link" d="M759.9000000000001,572.184327821711C946.19943,572.184327821711 946.19943,599.3259166067578 1132.49886,599.3259166067578L1132.49886,605.0735801581598C946.19943,605.0735801581598 946.19943,577.931991373113 759.9000000000001,577.931991373113Z" style="stroke: rgb(68, 68, 68); stroke-opacity: 1; fill: rgb(182, 232, 128); fill-opacity: 0.6; stroke-width: 0; opacity: 1;"/></g><g class="sankey-node-set" style="cursor: ns-resize;"><g class="sankey-node" transform="translate(-7.499,14.465)" style="opacity: 1;"><rect class="node-rect" width="15" height="60.35046728971952" style="stroke-width: 0.5; stroke: rgb(0, 0, 0); stroke-opacity: 1; fill: rgb(128, 128, 128); fill-opacity: 1;"/><text class="node-label" data-notex="1" x="0" y="0" text-anchor="start" transform="translate(18.25,34.37523364485976)" style="cursor: default; font-family: 'Open Sans', verdana, arial, sans-serif; font-size: 12px; fill: rgb(42, 63, 95); fill-opacity: 1; white-space: pre; text-shadow: white 1px 1px 1px, white -1px -1px 1px, white 1px -1px 1px, white -1px 1px 1px;">21271R</text></g><g class="sankey-node" transform="translate(-7.499,89.329)" style="opacity: 1;"><rect class="node-rect" width="15" height="45.98130841121474" style="stroke-width: 0.5; stroke: rgb(0, 0, 0); stroke-opacity: 1; fill: rgb(128, 128, 128); fill-opacity: 1;"/><text class="node-label" data-notex="1" x="0" y="0" text-anchor="start" transform="translate(18.25,27.19065420560737)" style="cursor: default; font-family: 'Open Sans', verdana, arial, sans-serif; font-size: 12px; fill: rgb(42, 63, 95); fill-opacity: 1; white-space: pre; text-shadow: white 1px 1px 1px, white -1px -1px 1px, white 1px -1px 1px, white -1px 1px 1px;">21272R</text></g><g class="sankey-node" transform="translate(-7.499,149.816)" style="opacity: 1;"><rect class="node-rect" width="15" height="51.7289719626167" style="stroke-width: 0.5; stroke: rgb(0, 0, 0); stroke-opacity: 1; fill: rgb(128, 128, 128); fill-opacity: 1;"/><text class="node-label" data-notex="1" x="0" y="0" text-anchor="start" transform="translate(18.25,30.064485981308348)" style="cursor: default; font-family: 'Open Sans', verdana, arial, sans-serif; font-size: 12px; fill: rgb(42, 63, 95); fill-opacity: 1; white-space: pre; text-shadow: white 1px 1px 1px, white -1px -1px 1px, white 1px -1px 1px, white -1px 1px 1px;">21965RL</text></g><g class="sankey-node" transform="translate(-7.499,216.253)" style="opacity: 1;"><rect class="node-rect" width="15" height="235.65420560747668" style="stroke-width: 0.5; stroke: rgb(0, 0, 0); stroke-opacity: 1; fill: rgb(128, 128, 128); fill-opacity: 1;"/><text class="node-label" data-notex="1" x="0" y="0" text-anchor="start" transform="translate(18.25,122.02710280373834)" style="cursor: default; font-family: 'Open Sans', verdana, arial, sans-serif; font-size: 12px; fill: rgb(42, 63, 95); fill-opacity: 1; white-space: pre; text-shadow: white 1px 1px 1px, white -1px -1px 1px, white 1px -1px 1px, white -1px 1px 1px;">22384</text></g><g class="sankey-node" transform="translate(-7.499,466.816)" style="opacity: 1;"><rect class="node-rect" width="15" height="238.5280373831779" style="stroke-width: 0.5; stroke: rgb(0, 0, 0); stroke-opacity: 1; fill: rgb(128, 128, 128); fill-opacity: 1;"/><text class="node-label" data-notex="1" x="0" y="0" text-anchor="start" transform="translate(18.25,123.46401869158895)" style="cursor: default; font-family: 'Open Sans', verdana, arial, sans-serif; font-size: 12px; fill: rgb(42, 63, 95); fill-opacity: 1; white-space: pre; text-shadow: white 1px 1px 1px, white -1px -1px 1px, white 1px -1px 1px, white -1px 1px 1px;">22670</text></g><g class="sankey-node" transform="translate(744.900,113.053)" style="opacity: 1;"><rect class="node-rect" width="15" height="97.71028037383167" style="stroke-width: 0.5; stroke: rgb(0, 0, 0); stroke-opacity: 1; fill: rgb(128, 128, 128); fill-opacity: 1;"/><text class="node-label" data-notex="1" x="0" y="0" text-anchor="start" transform="translate(18.25,53.055140186915835)" style="cursor: default; font-family: 'Open Sans', verdana, arial, sans-serif; font-size: 12px; fill: rgb(42, 63, 95); fill-opacity: 1; white-space: pre; text-shadow: white 1px 1px 1px, white -1px -1px 1px, white 1px -1px 1px, white -1px 1px 1px;">Active</text></g><g class="sankey-node" transform="translate(744.900,451.483)" style="opacity: 1;"><rect class="node-rect" width="15" height="126.44859813084099" style="stroke-width: 0.5; stroke: rgb(0, 0, 0); stroke-opacity: 1; fill: rgb(128, 128, 128); fill-opacity: 1;"/><text class="node-label" data-notex="1" x="0" y="0" text-anchor="start" transform="translate(18.25,67.4242990654205)" style="cursor: default; font-family: 'Open Sans', verdana, arial, sans-serif; font-size: 12px; fill: rgb(42, 63, 95); fill-opacity: 1; white-space: pre; text-shadow: white 1px 1px 1px, white -1px -1px 1px, white 1px -1px 1px, white -1px 1px 1px;">NonActive</text></g><g class="sankey-node" transform="translate(1132.499,66.022)" style="opacity: 1;"><rect class="node-rect" width="15" height="54.60280373831779" style="stroke-width: 0.5; stroke: rgb(0, 0, 0); stroke-opacity: 1; fill: rgb(128, 128, 128); fill-opacity: 1;"/><text class="node-label" data-notex="1" x="0" y="0" text-anchor="end" transform="translate(-3.25,31.501401869158894)" style="cursor: default; font-family: 'Open Sans', verdana, arial, sans-serif; font-size: 12px; fill: rgb(42, 63, 95); fill-opacity: 1; white-space: pre; text-shadow: white 1px 1px 1px, white -1px -1px 1px, white 1px -1px 1px, white -1px 1px 1px;">Active-activated</text></g><g class="sankey-node" transform="translate(1132.499,227.400)" style="opacity: 1;"><rect class="node-rect" width="15" height="43.10747663551365" style="stroke-width: 0.5; stroke: rgb(0, 0, 0); stroke-opacity: 1; fill: rgb(128, 128, 128); fill-opacity: 1;"/><text class="node-label" data-notex="1" x="0" y="0" text-anchor="end" transform="translate(-3.25,25.753738317756824)" style="cursor: default; font-family: 'Open Sans', verdana, arial, sans-serif; font-size: 12px; fill: rgb(42, 63, 95); fill-opacity: 1; white-space: pre; text-shadow: white 1px 1px 1px, white -1px -1px 1px, white 1px -1px 1px, white -1px 1px 1px;">Active-suppressed</text></g><g class="sankey-node" transform="translate(1132.499,344.680)" style="opacity: 1;"><rect class="node-rect" width="15" height="20.116822429906506" style="stroke-width: 0.5; stroke: rgb(0, 0, 0); stroke-opacity: 1; fill: rgb(128, 128, 128); fill-opacity: 1;"/><text class="node-label" data-notex="1" x="0" y="0" text-anchor="end" transform="translate(-3.25,14.258411214953252)" style="cursor: default; font-family: 'Open Sans', verdana, arial, sans-serif; font-size: 12px; fill: rgb(42, 63, 95); fill-opacity: 1; white-space: pre; text-shadow: white 1px 1px 1px, white -1px -1px 1px, white 1px -1px 1px, white -1px 1px 1px;">NonActive-activated</text></g><g class="sankey-node" transform="translate(1132.499,498.742)" style="opacity: 1;"><rect class="node-rect" width="15" height="106.33177570093449" style="stroke-width: 0.5; stroke: rgb(0, 0, 0); stroke-opacity: 1; fill: rgb(128, 128, 128); fill-opacity: 1;"/><text class="node-label" data-notex="1" x="0" y="0" text-anchor="end" transform="translate(-3.25,57.365887850467246)" style="cursor: default; font-family: 'Open Sans', verdana, arial, sans-serif; font-size: 12px; fill: rgb(42, 63, 95); fill-opacity: 1; white-space: pre; text-shadow: white 1px 1px 1px, white -1px -1px 1px, white 1px -1px 1px, white -1px 1px 1px;">NonActive-suppressed</text></g><g class="sankey-node" transform="translate(368.700,13.597)" style="opacity: 1;"><rect class="node-rect" width="15" height="14.369158878504322" style="stroke-width: 0.5; stroke: rgb(0, 0, 0); stroke-opacity: 1; fill: rgb(25, 211, 243); fill-opacity: 1;"/><text class="node-label" data-notex="1" x="0" y="0" text-anchor="start" transform="translate(18.25,11.38457943925216)" style="cursor: default; font-family: 'Open Sans', verdana, arial, sans-serif; font-size: 12px; fill: rgb(42, 63, 95); fill-opacity: 1; white-space: pre; text-shadow: white 1px 1px 1px, white -1px -1px 1px, white 1px -1px 1px, white -1px 1px 1px;">BLA</text></g><g class="sankey-node" transform="translate(368.700,35.142)" style="opacity: 1;"><rect class="node-rect" width="15" height="114.9532710280378" style="stroke-width: 0.5; stroke: rgb(0, 0, 0); stroke-opacity: 1; fill: rgb(99, 110, 250); fill-opacity: 1;"/><text class="node-label" data-notex="1" x="0" y="0" text-anchor="start" transform="translate(18.25,61.6766355140189)" style="cursor: default; font-family: 'Open Sans', verdana, arial, sans-serif; font-size: 12px; fill: rgb(42, 63, 95); fill-opacity: 1; white-space: pre; text-shadow: white 1px 1px 1px, white -1px -1px 1px, white 1px -1px 1px, white -1px 1px 1px;">Cla</text></g><g class="sankey-node" transform="translate(368.700,156.146)" style="opacity: 1;"><rect class="node-rect" width="15" height="34.48598130841151" style="stroke-width: 0.5; stroke: rgb(0, 0, 0); stroke-opacity: 1; fill: rgb(0, 204, 150); fill-opacity: 1;"/><text class="node-label" data-notex="1" x="0" y="0" text-anchor="start" transform="translate(18.25,21.442990654205754)" style="cursor: default; font-family: 'Open Sans', verdana, arial, sans-serif; font-size: 12px; fill: rgb(42, 63, 95); fill-opacity: 1; white-space: pre; text-shadow: white 1px 1px 1px, white -1px -1px 1px, white 1px -1px 1px, white -1px 1px 1px;">LC</text></g><g class="sankey-node" transform="translate(368.700,200.537)" style="opacity: 1;"><rect class="node-rect" width="15" height="45.98130841121474" style="stroke-width: 0.5; stroke: rgb(0, 0, 0); stroke-opacity: 1; fill: rgb(254, 203, 82); fill-opacity: 1;"/><text class="node-label" data-notex="1" x="0" y="0" text-anchor="start" transform="translate(18.25,27.19065420560737)" style="cursor: default; font-family: 'Open Sans', verdana, arial, sans-serif; font-size: 12px; fill: rgb(42, 63, 95); fill-opacity: 1; white-space: pre; text-shadow: white 1px 1px 1px, white -1px -1px 1px, white 1px -1px 1px, white -1px 1px 1px;">LHyp</text></g><g class="sankey-node" transform="translate(368.700,256.583)" style="opacity: 1;"><rect class="node-rect" width="15" height="31.61214953271042" style="stroke-width: 0.5; stroke: rgb(0, 0, 0); stroke-opacity: 1; fill: rgb(255, 161, 90); fill-opacity: 1;"/><text class="node-label" data-notex="1" x="0" y="0" text-anchor="start" transform="translate(18.25,20.00607476635521)" style="cursor: default; font-family: 'Open Sans', verdana, arial, sans-serif; font-size: 12px; fill: rgb(42, 63, 95); fill-opacity: 1; white-space: pre; text-shadow: white 1px 1px 1px, white -1px -1px 1px, white 1px -1px 1px, white -1px 1px 1px;">NAc</text></g><g class="sankey-node" transform="translate(368.700,296.655)" style="opacity: 1;"><rect class="node-rect" width="15" height="74.71962616822384" style="stroke-width: 0.5; stroke: rgb(0, 0, 0); stroke-opacity: 1; fill: rgb(171, 99, 250); fill-opacity: 1;"/><text class="node-label" data-notex="1" x="0" y="0" text-anchor="start" transform="translate(18.25,41.55981308411192)" style="cursor: default; font-family: 'Open Sans', verdana, arial, sans-serif; font-size: 12px; fill: rgb(42, 63, 95); fill-opacity: 1; white-space: pre; text-shadow: white 1px 1px 1px, white -1px -1px 1px, white 1px -1px 1px, white -1px 1px 1px;">Str</text></g><g class="sankey-node" transform="translate(368.700,368.435)" style="opacity: 1;"><rect class="node-rect" width="15" height="235.65420560747657" style="stroke-width: 0.5; stroke: rgb(0, 0, 0); stroke-opacity: 1; fill: rgb(239, 85, 59); fill-opacity: 1;"/><text class="node-label" data-notex="1" x="0" y="0" text-anchor="start" transform="translate(18.25,122.02710280373829)" style="cursor: default; font-family: 'Open Sans', verdana, arial, sans-serif; font-size: 12px; fill: rgb(42, 63, 95); fill-opacity: 1; white-space: pre; text-shadow: white 1px 1px 1px, white -1px -1px 1px, white 1px -1px 1px, white -1px 1px 1px;">VTA</text></g><g class="sankey-node" transform="translate(368.700,601.791)" style="opacity: 1;"><rect class="node-rect" width="15" height="63.22429906542038" style="stroke-width: 0.5; stroke: rgb(0, 0, 0); stroke-opacity: 1; fill: rgb(182, 232, 128); fill-opacity: 1;"/><text class="node-label" data-notex="1" x="0" y="0" text-anchor="start" transform="translate(18.25,35.812149532710194)" style="cursor: default; font-family: 'Open Sans', verdana, arial, sans-serif; font-size: 12px; fill: rgb(42, 63, 95); fill-opacity: 1; white-space: pre; text-shadow: white 1px 1px 1px, white -1px -1px 1px, white 1px -1px 1px, white -1px 1px 1px;">cPFC</text></g><g class="sankey-node" transform="translate(368.700,675.081)" style="opacity: 1;"><rect class="node-rect" width="15" height="14.369158878504777" style="stroke-width: 0.5; stroke: rgb(0, 0, 0); stroke-opacity: 1; fill: rgb(255, 151, 255); fill-opacity: 1;"/><text class="node-label" data-notex="1" x="0" y="0" text-anchor="start" transform="translate(18.25,11.384579439252388)" style="cursor: default; font-family: 'Open Sans', verdana, arial, sans-serif; font-size: 12px; fill: rgb(42, 63, 95); fill-opacity: 1; white-space: pre; text-shadow: white 1px 1px 1px, white -1px -1px 1px, white 1px -1px 1px, white -1px 1px 1px;">dPAG</text></g><g class="sankey-node" transform="translate(368.700,702.887)" style="opacity: 1;"><rect class="node-rect" width="15" height="2.873831775701092" style="stroke-width: 0.5; stroke: rgb(0, 0, 0); stroke-opacity: 1; fill: rgb(255, 102, 146); fill-opacity: 1;"/><text class="node-label" data-notex="1" x="0" y="0" text-anchor="start" transform="translate(18.25,5.636915887850545)" style="cursor: default; font-family: 'Open Sans', verdana, arial, sans-serif; font-size: 12px; fill: rgb(42, 63, 95); fill-opacity: 1; white-space: pre; text-shadow: white 1px 1px 1px, white -1px -1px 1px, white 1px -1px 1px, white -1px 1px 1px;">lHb</text></g></g></g><defs id="topdefs-a7f9c2"><g class="clips"/></defs><g class="layer-above"><g class="imagelayer"/><g class="shapelayer"/></g><g class="infolayer"><g class="g-gtitle"/><g class="first-render"/></g></svg>