<svg class="main-svg" xmlns="http://www.w3.org/2000/svg" xmlns:xlink="http://www.w3.org/1999/xlink" width="1300" height="900" style="" viewBox="0 0 1300 900"><rect x="0" y="0" width="1300" height="900" style="fill: rgb(255, 255, 255); fill-opacity: 1;"/><defs id="defs-65301b"><g class="clips"/><g class="gradients"/><g class="patterns"/></defs><g class="bglayer"/><g class="layer-below"><g class="imagelayer"/><g class="shapelayer"/></g><g class="cartesianlayer"/><g class="polarlayer"/><g class="smithlayer"/><g class="ternarylayer"/><g class="geolayer"/><g class="funnelarealayer"/><g class="pielayer"/><g class="iciclelayer"/><g class="treemaplayer"/><g class="sunburstlayer"/><g class="glimages"/><g class="sankey" transform="translate(80,100)matrix(1 0 0 1 0 0)" style="box-sizing: content-box; position: absolute; left: 0px; shape-rendering: geometricprecision; pointer-events: none;"><g class="sankey-links" style="fill: none;"><path class="sankey-link" d="M7.50114,16.003636363636375C188.10057000000003,16.003636363636375 188.10057000000003,37.783957219251434 368.70000000000005,37.783957219251434L368.70000000000005,59.60213903743325C188.10057000000003,59.60213903743325 188.10057000000003,37.82181818181819 7.50114,37.82181818181819Z" style="stroke: rgb(68, 68, 68); stroke-opacity: 1; fill: rgb(99, 110, 250); fill-opacity: 0.6; stroke-width: 0; opacity: 1;"/><path class="sankey-link" d="M7.50114,37.82181818181819C188.10057000000003,37.82181818181819 188.10057000000003,156.4363636363636 368.70000000000005,156.4363636363636L368.70000000000005,161.89090909090905C188.10057000000003,161.89090909090905 188.10057000000003,43.27636363636364 7.50114,43.27636363636364Z" style="stroke: rgb(68, 68, 68); stroke-opacity: 1; fill: rgb(0, 204, 150); fill-opacity: 0.6; stroke-width: 0; opacity: 1;"/><path class="sankey-link" d="M7.50114,43.27636363636364C188.10057000000003,43.27636363636364 188.10057000000003,256.48235294117654 368.70000000000005,256.48235294117654L368.70000000000005,270.11871657754017C188.10057000000003,270.11871657754017 188.10057000000003,56.91272727272728 7.50114,56.91272727272728Z" style="stroke: rgb(68, 68, 68); stroke-opacity: 1; fill: rgb(255, 161, 90); fill-opacity: 0.6; stroke-width: 0; opacity: 1;"/><path class="sankey-link" d="M7.50114,56.912727272727274C188.10057000000003,56.912727272727274 188.10057000000003,297.4395721925134 368.70000000000005,297.4395721925134L368.70000000000005,311.07593582887705C188.10057000000003,311.07593582887705 188.10057000000003,70.5490909090909 7.50114,70.5490909090909Z" style="stroke: rgb(68, 68, 68); stroke-opacity: 1; fill: rgb(171, 99, 250); fill-opacity: 0.6; stroke-width: 0; opacity: 1;"/><path class="sankey-link" d="M7.50114,70.5490909090909C188.10057000000003,70.5490909090909 188.10057000000003,372.69946524064187 368.70000000000005,372.69946524064187L368.70000000000005,375.4267379679146C188.10057000000003,375.4267379679146 188.10057000000003,73.27636363636363 7.50114,73.27636363636363Z" style="stroke: rgb(68, 68, 68); stroke-opacity: 1; fill: rgb(239, 85, 59); fill-opacity: 0.6; stroke-width: 0; opacity: 1;"/><path class="sankey-link" d="M7.50114,90.50181818181818C188.10057000000003,90.50181818181818 188.10057000000003,13.93475935828872 368.70000000000005,13.93475935828872L368.70000000000005,19.389304812834173C188.10057000000003,19.389304812834173 188.10057000000003,95.95636363636365 7.50114,95.95636363636365Z" style="stroke: rgb(68, 68, 68); stroke-opacity: 1; fill: rgb(25, 211, 243); fill-opacity: 0.6; stroke-width: 0; opacity: 1;"/><path class="sankey-link" d="M7.50114,95.95636363636363C188.10057000000003,95.95636363636363 188.10057000000003,59.60213903743325 368.70000000000005,59.60213903743325L368.70000000000005,62.32941176470598C188.10057000000003,62.32941176470598 188.10057000000003,98.68363636363635 7.50114,98.68363636363635Z" style="stroke: rgb(68, 68, 68); stroke-opacity: 1; fill: rgb(99, 110, 250); fill-opacity: 0.6; stroke-width: 0; opacity: 1;"/><path class="sankey-link" d="M7.50114,98.68363636363637C188.10057000000003,98.68363636363637 188.10057000000003,161.89090909090908 368.70000000000005,161.89090909090908L368.70000000000005,167.34545454545452C188.10057000000003,167.34545454545452 188.10057000000003,104.13818181818183 7.50114,104.13818181818183Z" style="stroke: rgb(68, 68, 68); stroke-opacity: 1; fill: rgb(0, 204, 150); fill-opacity: 0.6; stroke-width: 0; opacity: 1;"/><path class="sankey-link" d="M7.50114,104.13818181818182C188.10057000000003,104.13818181818182 188.10057000000003,270.11871657754017 368.70000000000005,270.11871657754017L368.70000000000005,281.02780748663105C188.10057000000003,281.02780748663105 188.10057000000003,115.04727272727273 7.50114,115.04727272727273Z" style="stroke: rgb(68, 68, 68); stroke-opacity: 1; fill: rgb(255, 161, 90); fill-opacity: 0.6; stroke-width: 0; opacity: 1;"/><path class="sankey-link" d="M7.50114,115.04727272727273C188.10057000000003,115.04727272727273 188.10057000000003,311.07593582887705 368.70000000000005,311.07593582887705L368.70000000000005,316.53048128342255C188.10057000000003,316.53048128342255 188.10057000000003,120.5018181818182 7.50114,120.5018181818182Z" style="stroke: rgb(68, 68, 68); stroke-opacity: 1; fill: rgb(171, 99, 250); fill-opacity: 0.6; stroke-width: 0; opacity: 1;"/><path class="sankey-link" d="M7.50114,120.50181818181818C188.10057000000003,120.50181818181818 188.10057000000003,375.4267379679146 368.70000000000005,375.4267379679146L368.70000000000005,378.15401069518737C188.10057000000003,378.15401069518737 188.10057000000003,123.2290909090909 7.50114,123.2290909090909Z" style="stroke: rgb(68, 68, 68); stroke-opacity: 1; fill: rgb(239, 85, 59); fill-opacity: 0.6; stroke-width: 0; opacity: 1;"/><path class="sankey-link" d="M7.50114,123.22909090909091C188.10057000000003,123.22909090909091 188.10057000000003,601.0588235294119 368.70000000000005,601.0588235294119L368.70000000000005,609.2406417112302C188.10057000000003,609.2406417112302 188.10057000000003,131.4109090909091 7.50114,131.4109090909091Z" style="stroke: rgb(68, 68, 68); stroke-opacity: 1; fill: rgb(182, 232, 128); fill-opacity: 0.6; stroke-width: 0; opacity: 1;"/><path class="sankey-link" d="M7.50114,131.4109090909091C188.10057000000003,131.4109090909091 188.10057000000003,702.9657754010697 368.70000000000005,702.9657754010697L368.70000000000005,705.6930481283424C188.10057000000003,705.6930481283424 188.10057000000003,134.13818181818183 7.50114,134.13818181818183Z" style="stroke: rgb(68, 68, 68); stroke-opacity: 1; fill: rgb(255, 102, 146); fill-opacity: 0.6; stroke-width: 0; opacity: 1;"/><path class="sankey-link" d="M7.50114,151.13454545454556C188.10057000000003,151.13454545454556 188.10057000000003,19.389304812834173 368.70000000000005,19.389304812834173L368.70000000000005,27.571122994652352C188.10057000000003,27.571122994652352 188.10057000000003,159.31636363636375 7.50114,159.31636363636375Z" style="stroke: rgb(68, 68, 68); stroke-opacity: 1; fill: rgb(25, 211, 243); fill-opacity: 0.6; stroke-width: 0; opacity: 1;"/><path class="sankey-link" d="M7.50114,159.31636363636375C188.10057000000003,159.31636363636375 188.10057000000003,62.329411764705974 368.70000000000005,62.329411764705974L368.70000000000005,75.9657754010696C188.10057000000003,75.9657754010696 188.10057000000003,172.95272727272737 7.50114,172.95272727272737Z" style="stroke: rgb(68, 68, 68); stroke-opacity: 1; fill: rgb(99, 110, 250); fill-opacity: 0.6; stroke-width: 0; opacity: 1;"/><path class="sankey-link" d="M7.50114,172.95272727272737C188.10057000000003,172.95272727272737 188.10057000000003,281.0278074866311 368.70000000000005,281.0278074866311L368.70000000000005,286.4823529411766C188.10057000000003,286.4823529411766 188.10057000000003,178.4072727272728 7.50114,178.4072727272728Z" style="stroke: rgb(68, 68, 68); stroke-opacity: 1; fill: rgb(255, 161, 90); fill-opacity: 0.6; stroke-width: 0; opacity: 1;"/><path class="sankey-link" d="M7.50114,178.40727272727284C188.10057000000003,178.40727272727284 188.10057000000003,316.5304812834225 368.70000000000005,316.5304812834225L368.70000000000005,324.7122994652406C188.10057000000003,324.7122994652406 188.10057000000003,186.58909090909103 7.50114,186.58909090909103Z" style="stroke: rgb(68, 68, 68); stroke-opacity: 1; fill: rgb(171, 99, 250); fill-opacity: 0.6; stroke-width: 0; opacity: 1;"/><path class="sankey-link" d="M7.50114,186.58909090909103C188.10057000000003,186.58909090909103 188.10057000000003,378.15401069518737 368.70000000000005,378.15401069518737L368.70000000000005,380.8812834224601C188.10057000000003,380.8812834224601 188.10057000000003,189.31636363636377 7.50114,189.31636363636377Z" style="stroke: rgb(68, 68, 68); stroke-opacity: 1; fill: rgb(239, 85, 59); fill-opacity: 0.6; stroke-width: 0; opacity: 1;"/><path class="sankey-link" d="M7.50114,189.31636363636375C188.10057000000003,189.31636363636375 188.10057000000003,609.2406417112301 368.70000000000005,609.2406417112301L368.70000000000005,611.9679144385028C188.10057000000003,611.9679144385028 188.10057000000003,192.0436363636365 7.50114,192.0436363636365Z" style="stroke: rgb(68, 68, 68); stroke-opacity: 1; fill: rgb(182, 232, 128); fill-opacity: 0.6; stroke-width: 0; opacity: 1;"/><path class="sankey-link" d="M7.50114,192.04363636363647C188.10057000000003,192.04363636363647 188.10057000000003,672.8534759358292 368.70000000000005,672.8534759358292L368.70000000000005,681.0352941176475C188.10057000000003,681.0352941176475 188.10057000000003,200.22545454545465 7.50114,200.22545454545465Z" style="stroke: rgb(68, 68, 68); stroke-opacity: 1; fill: rgb(255, 151, 255); fill-opacity: 0.6; stroke-width: 0; opacity: 1;"/><path class="sankey-link" d="M7.50114,222.26181818181814C188.10057000000003,222.26181818181814 188.10057000000003,75.9657754010696 368.70000000000005,75.9657754010696L368.70000000000005,111.42032085561505C188.10057000000003,111.42032085561505 188.10057000000003,257.7163636363636 7.50114,257.7163636363636Z" style="stroke: rgb(68, 68, 68); stroke-opacity: 1; fill: rgb(99, 110, 250); fill-opacity: 0.6; stroke-width: 0; opacity: 1;"/><path class="sankey-link" d="M7.50114,257.7163636363636C188.10057000000003,257.7163636363636 188.10057000000003,167.34545454545454 368.70000000000005,167.34545454545454L368.70000000000005,178.25454545454548C188.10057000000003,178.25454545454548 188.10057000000003,268.6254545454545 7.50114,268.6254545454545Z" style="stroke: rgb(68, 68, 68); stroke-opacity: 1; fill: rgb(0, 204, 150); fill-opacity: 0.6; stroke-width: 0; opacity: 1;"/><path class="sankey-link" d="M7.50114,268.62545454545455C188.10057000000003,268.62545454545455 188.10057000000003,200.95828877005357 368.70000000000005,200.95828877005357L368.70000000000005,222.77647058823538C188.10057000000003,222.77647058823538 188.10057000000003,290.4436363636364 7.50114,290.4436363636364Z" style="stroke: rgb(68, 68, 68); stroke-opacity: 1; fill: rgb(254, 203, 82); fill-opacity: 0.6; stroke-width: 0; opacity: 1;"/><path class="sankey-link" d="M7.50114,290.44363636363636C188.10057000000003,290.44363636363636 188.10057000000003,324.7122994652407 368.70000000000005,324.7122994652407L368.70000000000005,346.53048128342255C188.10057000000003,346.53048128342255 188.10057000000003,312.2618181818182 7.50114,312.2618181818182Z" style="stroke: rgb(68, 68, 68); stroke-opacity: 1; fill: rgb(171, 99, 250); fill-opacity: 0.6; stroke-width: 0; opacity: 1;"/><path class="sankey-link" d="M7.50114,312.26181818181817C188.10057000000003,312.26181818181817 188.10057000000003,380.8812834224601 368.70000000000005,380.8812834224601L368.70000000000005,487.2449197860965C188.10057000000003,487.2449197860965 188.10057000000003,418.62545454545455 7.50114,418.62545454545455Z" style="stroke: rgb(68, 68, 68); stroke-opacity: 1; fill: rgb(239, 85, 59); fill-opacity: 0.6; stroke-width: 0; opacity: 1;"/><path class="sankey-link" d="M7.50114,418.62545454545455C188.10057000000003,418.62545454545455 188.10057000000003,611.9679144385028 368.70000000000005,611.9679144385028L368.70000000000005,636.5133689839573C188.10057000000003,636.5133689839573 188.10057000000003,443.17090909090905 7.50114,443.17090909090905Z" style="stroke: rgb(68, 68, 68); stroke-opacity: 1; fill: rgb(182, 232, 128); fill-opacity: 0.6; stroke-width: 0; opacity: 1;"/><path class="sankey-link" d="M7.50114,443.1709090909091C188.10057000000003,443.1709090909091 188.10057000000003,681.0352941176474 368.70000000000005,681.0352941176474L368.70000000000005,683.7625668449201C188.10057000000003,683.7625668449201 188.10057000000003,445.89818181818185 7.50114,445.89818181818185Z" style="stroke: rgb(68, 68, 68); stroke-opacity: 1; fill: rgb(255, 151, 255); fill-opacity: 0.6; stroke-width: 0; opacity: 1;"/><path class="sankey-link" d="M7.50114,472.8981818181819C188.10057000000003,472.8981818181819 188.10057000000003,111.42032085561507 368.70000000000005,111.42032085561507L368.70000000000005,146.8748663101605C188.10057000000003,146.8748663101605 188.10057000000003,508.3527272727274 7.50114,508.3527272727274Z" style="stroke: rgb(68, 68, 68); stroke-opacity: 1; fill: rgb(99, 110, 250); fill-opacity: 0.6; stroke-width: 0; opacity: 1;"/><path class="sankey-link" d="M7.50114,508.35272727272735C188.10057000000003,508.35272727272735 188.10057000000003,178.25454545454545 368.70000000000005,178.25454545454545L368.70000000000005,189.16363636363639C188.10057000000003,189.16363636363639 188.10057000000003,519.2618181818183 7.50114,519.2618181818183Z" style="stroke: rgb(68, 68, 68); stroke-opacity: 1; fill: rgb(0, 204, 150); fill-opacity: 0.6; stroke-width: 0; opacity: 1;"/><path class="sankey-link" d="M7.50114,519.2618181818183C188.10057000000003,519.2618181818183 188.10057000000003,222.77647058823538 368.70000000000005,222.77647058823538L368.70000000000005,244.5946524064172C188.10057000000003,244.5946524064172 188.10057000000003,541.08 7.50114,541.08Z" style="stroke: rgb(68, 68, 68); stroke-opacity: 1; fill: rgb(254, 203, 82); fill-opacity: 0.6; stroke-width: 0; opacity: 1;"/><path class="sankey-link" d="M7.50114,541.0800000000002C188.10057000000003,541.0800000000002 188.10057000000003,346.5304812834225 368.70000000000005,346.5304812834225L368.70000000000005,368.34866310160436C188.10057000000003,368.34866310160436 188.10057000000003,562.8981818181819 7.50114,562.8981818181819Z" style="stroke: rgb(68, 68, 68); stroke-opacity: 1; fill: rgb(171, 99, 250); fill-opacity: 0.6; stroke-width: 0; opacity: 1;"/><path class="sankey-link" d="M7.50114,562.898181818182C188.10057000000003,562.898181818182 188.10057000000003,487.24491978609643 368.70000000000005,487.24491978609643L368.70000000000005,596.3358288770055C188.10057000000003,596.3358288770055 188.10057000000003,671.989090909091 7.50114,671.989090909091Z" style="stroke: rgb(68, 68, 68); stroke-opacity: 1; fill: rgb(239, 85, 59); fill-opacity: 0.6; stroke-width: 0; opacity: 1;"/><path class="sankey-link" d="M7.50114,671.9890909090911C188.10057000000003,671.9890909090911 188.10057000000003,636.5133689839573 368.70000000000005,636.5133689839573L368.70000000000005,661.0588235294118C188.10057000000003,661.0588235294118 188.10057000000003,696.5345454545457 7.50114,696.5345454545457Z" style="stroke: rgb(68, 68, 68); stroke-opacity: 1; fill: rgb(182, 232, 128); fill-opacity: 0.6; stroke-width: 0; opacity: 1;"/><path class="sankey-link" d="M7.50114,696.5345454545457C188.10057000000003,696.5345454545457 188.10057000000003,683.7625668449201 368.70000000000005,683.7625668449201L368.70000000000005,686.4898395721929C188.10057000000003,686.4898395721929 188.10057000000003,699.2618181818184 7.50114,699.2618181818184Z" style="stroke: rgb(68, 68, 68); stroke-opacity: 1; fill: rgb(255, 151, 255); fill-opacity: 0.6; stroke-width: 0; opacity: 1;"/><path class="sankey-link" d="M383.70000000000005,13.93475935828872C564.3000000000001,13.93475935828872 564.3000000000001,278.21425061425055 744.9000000000001,278.21425061425055L744.9000000000001,280.9415233415233C564.3000000000001,280.9415233415233 564.3000000000001,16.662032085561446 383.70000000000005,16.662032085561446Z" style="stroke: rgb(68, 68, 68); stroke-opacity: 1; fill: rgb(25, 211, 243); fill-opacity: 0.6; stroke-width: 0; opacity: 1;"/><path class="sankey-link" d="M383.70000000000005,37.783957219251434C564.3000000000001,37.783957219251434 564.3000000000001,40.376904176904105 744.9000000000001,40.376904176904105L744.9000000000001,73.10417690417682C564.3000000000001,73.10417690417682 564.3000000000001,70.51122994652415 383.70000000000005,70.51122994652415Z" style="stroke: rgb(68, 68, 68); stroke-opacity: 1; fill: rgb(99, 110, 250); fill-opacity: 0.6; stroke-width: 0; opacity: 1;"/><path class="sankey-link" d="M383.70000000000005,70.51122994652417C564.3000000000001,70.51122994652417 564.3000000000001,280.9415233415233 744.9000000000001,280.9415233415233L744.9000000000001,297.30515970515967C564.3000000000001,297.30515970515967 564.3000000000001,86.87486631016054 383.70000000000005,86.87486631016054Z" style="stroke: rgb(68, 68, 68); stroke-opacity: 1; fill: rgb(99, 110, 250); fill-opacity: 0.6; stroke-width: 0; opacity: 1;"/><path class="sankey-link" d="M383.70000000000005,86.87486631016053C564.3000000000001,86.87486631016053 564.3000000000001,426.49238329238324 744.9000000000001,426.49238329238324L744.9000000000001,442.8560196560196C564.3000000000001,442.8560196560196 564.3000000000001,103.2385026737969 383.70000000000005,103.2385026737969Z" style="stroke: rgb(68, 68, 68); stroke-opacity: 1; fill: rgb(99, 110, 250); fill-opacity: 0.6; stroke-width: 0; opacity: 1;"/><path class="sankey-link" d="M383.70000000000005,103.23850267379689C564.3000000000001,103.23850267379689 564.3000000000001,581.0004914004913 744.9000000000001,581.0004914004913L744.9000000000001,600.0914004914003C564.3000000000001,600.0914004914003 564.3000000000001,122.32941176470598 383.70000000000005,122.32941176470598Z" style="stroke: rgb(68, 68, 68); stroke-opacity: 1; fill: rgb(99, 110, 250); fill-opacity: 0.6; stroke-width: 0; opacity: 1;"/><path class="sankey-link" d="M383.70000000000005,156.4363636363636C564.3000000000001,156.4363636363636 564.3000000000001,73.10417690417682 744.9000000000001,73.10417690417682L744.9000000000001,78.55872235872229C564.3000000000001,78.55872235872229 564.3000000000001,161.89090909090905 383.70000000000005,161.89090909090905Z" style="stroke: rgb(68, 68, 68); stroke-opacity: 1; fill: rgb(0, 204, 150); fill-opacity: 0.6; stroke-width: 0; opacity: 1;"/><path class="sankey-link" d="M383.70000000000005,161.89090909090908C564.3000000000001,161.89090909090908 564.3000000000001,297.30515970515967 744.9000000000001,297.30515970515967L744.9000000000001,302.75970515970516C564.3000000000001,302.75970515970516 564.3000000000001,167.34545454545452 383.70000000000005,167.34545454545452Z" style="stroke: rgb(68, 68, 68); stroke-opacity: 1; fill: rgb(0, 204, 150); fill-opacity: 0.6; stroke-width: 0; opacity: 1;"/><path class="sankey-link" d="M383.70000000000005,167.34545454545454C564.3000000000001,167.34545454545454 564.3000000000001,442.8560196560196 744.9000000000001,442.8560196560196L744.9000000000001,453.7651105651105C564.3000000000001,453.7651105651105 564.3000000000001,178.25454545454548 383.70000000000005,178.25454545454548Z" style="stroke: rgb(68, 68, 68); stroke-opacity: 1; fill: rgb(0, 204, 150); fill-opacity: 0.6; stroke-width: 0; opacity: 1;"/><path class="sankey-link" d="M383.70000000000005,178.25454545454545C564.3000000000001,178.25454545454545 564.3000000000001,600.0914004914005 744.9000000000001,600.0914004914005L744.9000000000001,608.2732186732187C564.3000000000001,608.2732186732187 564.3000000000001,186.43636363636364 383.70000000000005,186.43636363636364Z" style="stroke: rgb(68, 68, 68); stroke-opacity: 1; fill: rgb(0, 204, 150); fill-opacity: 0.6; stroke-width: 0; opacity: 1;"/><path class="sankey-link" d="M383.70000000000005,200.95828877005357C564.3000000000001,200.95828877005357 564.3000000000001,78.55872235872228 744.9000000000001,78.55872235872228L744.9000000000001,97.64963144963137C564.3000000000001,97.64963144963137 564.3000000000001,220.04919786096264 383.70000000000005,220.04919786096264Z" style="stroke: rgb(68, 68, 68); stroke-opacity: 1; fill: rgb(254, 203, 82); fill-opacity: 0.6; stroke-width: 0; opacity: 1;"/><path class="sankey-link" d="M383.70000000000005,220.04919786096266C564.3000000000001,220.04919786096266 564.3000000000001,302.7597051597051 744.9000000000001,302.7597051597051L744.9000000000001,305.48697788697785C564.3000000000001,305.48697788697785 564.3000000000001,222.7764705882354 383.70000000000005,222.7764705882354Z" style="stroke: rgb(68, 68, 68); stroke-opacity: 1; fill: rgb(254, 203, 82); fill-opacity: 0.6; stroke-width: 0; opacity: 1;"/><path class="sankey-link" d="M383.70000000000005,222.77647058823538C564.3000000000001,222.77647058823538 564.3000000000001,453.76511056511055 744.9000000000001,453.76511056511055L744.9000000000001,464.6742014742014C564.3000000000001,464.6742014742014 564.3000000000001,233.68556149732632 383.70000000000005,233.68556149732632Z" style="stroke: rgb(68, 68, 68); stroke-opacity: 1; fill: rgb(254, 203, 82); fill-opacity: 0.6; stroke-width: 0; opacity: 1;"/><path class="sankey-link" d="M383.70000000000005,233.6855614973263C564.3000000000001,233.6855614973263 564.3000000000001,608.2732186732186 744.9000000000001,608.2732186732186L744.9000000000001,619.1823095823096C564.3000000000001,619.1823095823096 564.3000000000001,244.59465240641723 383.70000000000005,244.59465240641723Z" style="stroke: rgb(68, 68, 68); stroke-opacity: 1; fill: rgb(254, 203, 82); fill-opacity: 0.6; stroke-width: 0; opacity: 1;"/><path class="sankey-link" d="M383.70000000000005,256.48235294117654C564.3000000000001,256.48235294117654 564.3000000000001,97.64963144963137 744.9000000000001,97.64963144963137L744.9000000000001,105.83144963144956C564.3000000000001,105.83144963144956 564.3000000000001,264.6641711229947 383.70000000000005,264.6641711229947Z" style="stroke: rgb(68, 68, 68); stroke-opacity: 1; fill: rgb(255, 161, 90); fill-opacity: 0.6; stroke-width: 0; opacity: 1;"/><path class="sankey-link" d="M383.70000000000005,264.66417112299473C564.3000000000001,264.66417112299473 564.3000000000001,305.48697788697785 744.9000000000001,305.48697788697785L744.9000000000001,308.2142506142506C564.3000000000001,308.2142506142506 564.3000000000001,267.3914438502675 383.70000000000005,267.3914438502675Z" style="stroke: rgb(68, 68, 68); stroke-opacity: 1; fill: rgb(255, 161, 90); fill-opacity: 0.6; stroke-width: 0; opacity: 1;"/><path class="sankey-link" d="M383.70000000000005,297.4395721925134C564.3000000000001,297.4395721925134 564.3000000000001,105.83144963144956 744.9000000000001,105.83144963144956L744.9000000000001,130.3769041769041C564.3000000000001,130.3769041769041 564.3000000000001,321.9850267379679 383.70000000000005,321.9850267379679Z" style="stroke: rgb(68, 68, 68); stroke-opacity: 1; fill: rgb(171, 99, 250); fill-opacity: 0.6; stroke-width: 0; opacity: 1;"/><path class="sankey-link" d="M383.70000000000005,321.985026737968C564.3000000000001,321.985026737968 564.3000000000001,308.2142506142506 744.9000000000001,308.2142506142506L744.9000000000001,319.1233415233415C564.3000000000001,319.1233415233415 564.3000000000001,332.89411764705886 383.70000000000005,332.89411764705886Z" style="stroke: rgb(68, 68, 68); stroke-opacity: 1; fill: rgb(171, 99, 250); fill-opacity: 0.6; stroke-width: 0; opacity: 1;"/><path class="sankey-link" d="M383.70000000000005,332.8941176470589C564.3000000000001,332.8941176470589 564.3000000000001,464.6742014742015 744.9000000000001,464.6742014742015L744.9000000000001,475.58329238329236C564.3000000000001,475.58329238329236 564.3000000000001,343.8032085561498 383.70000000000005,343.8032085561498Z" style="stroke: rgb(68, 68, 68); stroke-opacity: 1; fill: rgb(171, 99, 250); fill-opacity: 0.6; stroke-width: 0; opacity: 1;"/><path class="sankey-link" d="M383.70000000000005,343.80320855614985C564.3000000000001,343.80320855614985 564.3000000000001,619.1823095823095 744.9000000000001,619.1823095823095L744.9000000000001,632.8186732186732C564.3000000000001,632.8186732186732 564.3000000000001,357.4395721925135 383.70000000000005,357.4395721925135Z" style="stroke: rgb(68, 68, 68); stroke-opacity: 1; fill: rgb(171, 99, 250); fill-opacity: 0.6; stroke-width: 0; opacity: 1;"/><path class="sankey-link" d="M383.70000000000005,372.69946524064187C564.3000000000001,372.69946524064187 564.3000000000001,130.3769041769041 744.9000000000001,130.3769041769041L744.9000000000001,204.01326781326773C564.3000000000001,204.01326781326773 564.3000000000001,446.3358288770055 383.70000000000005,446.3358288770055Z" style="stroke: rgb(68, 68, 68); stroke-opacity: 1; fill: rgb(239, 85, 59); fill-opacity: 0.6; stroke-width: 0; opacity: 1;"/><path class="sankey-link" d="M383.70000000000005,446.3358288770055C564.3000000000001,446.3358288770055 564.3000000000001,319.12334152334154 744.9000000000001,319.12334152334154L744.9000000000001,360.0324324324324C564.3000000000001,360.0324324324324 564.3000000000001,487.2449197860964 383.70000000000005,487.2449197860964Z" style="stroke: rgb(68, 68, 68); stroke-opacity: 1; fill: rgb(239, 85, 59); fill-opacity: 0.6; stroke-width: 0; opacity: 1;"/><path class="sankey-link" d="M383.70000000000005,487.2449197860964C564.3000000000001,487.2449197860964 564.3000000000001,475.5832923832924 744.9000000000001,475.5832923832924L744.9000000000001,524.6742014742015C564.3000000000001,524.6742014742015 564.3000000000001,536.3358288770055 383.70000000000005,536.3358288770055Z" style="stroke: rgb(68, 68, 68); stroke-opacity: 1; fill: rgb(239, 85, 59); fill-opacity: 0.6; stroke-width: 0; opacity: 1;"/><path class="sankey-link" d="M383.70000000000005,536.3358288770055C564.3000000000001,536.3358288770055 564.3000000000001,632.8186732186731 744.9000000000001,632.8186732186731L744.9000000000001,684.6368550368549C564.3000000000001,684.6368550368549 564.3000000000001,588.1540106951873 383.70000000000005,588.1540106951873Z" style="stroke: rgb(68, 68, 68); stroke-opacity: 1; fill: rgb(239, 85, 59); fill-opacity: 0.6; stroke-width: 0; opacity: 1;"/><path class="sankey-link" d="M383.70000000000005,601.0588235294119C564.3000000000001,601.0588235294119 564.3000000000001,204.01326781326773 744.9000000000001,204.01326781326773L744.9000000000001,217.64963144963136C564.3000000000001,217.64963144963136 564.3000000000001,614.6951871657757 383.70000000000005,614.6951871657757Z" style="stroke: rgb(68, 68, 68); stroke-opacity: 1; fill: rgb(182, 232, 128); fill-opacity: 0.6; stroke-width: 0; opacity: 1;"/><path class="sankey-link" d="M383.70000000000005,614.6951871657756C564.3000000000001,614.6951871657756 564.3000000000001,360.0324324324324 744.9000000000001,360.0324324324324L744.9000000000001,376.3960687960688C564.3000000000001,376.3960687960688 564.3000000000001,631.0588235294118 383.70000000000005,631.0588235294118Z" style="stroke: rgb(68, 68, 68); stroke-opacity: 1; fill: rgb(182, 232, 128); fill-opacity: 0.6; stroke-width: 0; opacity: 1;"/><path class="sankey-link" d="M383.70000000000005,631.0588235294119C564.3000000000001,631.0588235294119 564.3000000000001,524.6742014742015 744.9000000000001,524.6742014742015L744.9000000000001,530.128746928747C564.3000000000001,530.128746928747 564.3000000000001,636.5133689839574 383.70000000000005,636.5133689839574Z" style="stroke: rgb(68, 68, 68); stroke-opacity: 1; fill: rgb(182, 232, 128); fill-opacity: 0.6; stroke-width: 0; opacity: 1;"/><path class="sankey-link" d="M383.70000000000005,636.5133689839574C564.3000000000001,636.5133689839574 564.3000000000001,684.636855036855 744.9000000000001,684.636855036855L744.9000000000001,690.0914004914005C564.3000000000001,690.0914004914005 564.3000000000001,641.9679144385029 383.70000000000005,641.9679144385029Z" style="stroke: rgb(68, 68, 68); stroke-opacity: 1; fill: rgb(182, 232, 128); fill-opacity: 0.6; stroke-width: 0; opacity: 1;"/><path class="sankey-link" d="M383.70000000000005,672.8534759358292C564.3000000000001,672.8534759358292 564.3000000000001,217.64963144963136 744.9000000000001,217.64963144963136L744.9000000000001,223.1041769041768C564.3000000000001,223.1041769041768 564.3000000000001,678.3080213903747 383.70000000000005,678.3080213903747Z" style="stroke: rgb(68, 68, 68); stroke-opacity: 1; fill: rgb(255, 151, 255); fill-opacity: 0.6; stroke-width: 0; opacity: 1;"/><path class="sankey-link" d="M383.70000000000005,678.3080213903747C564.3000000000001,678.3080213903747 564.3000000000001,376.3960687960688 744.9000000000001,376.3960687960688L744.9000000000001,381.8506142506143C564.3000000000001,381.8506142506143 564.3000000000001,683.7625668449202 383.70000000000005,683.7625668449202Z" style="stroke: rgb(68, 68, 68); stroke-opacity: 1; fill: rgb(255, 151, 255); fill-opacity: 0.6; stroke-width: 0; opacity: 1;"/><path class="sankey-link" d="M383.70000000000005,683.7625668449202C564.3000000000001,683.7625668449202 564.3000000000001,530.128746928747 744.9000000000001,530.128746928747L744.9000000000001,535.5832923832925C564.3000000000001,535.5832923832925 564.3000000000001,689.2171122994657 383.70000000000005,689.2171122994657Z" style="stroke: rgb(68, 68, 68); stroke-opacity: 1; fill: rgb(255, 151, 255); fill-opacity: 0.6; stroke-width: 0; opacity: 1;"/><path class="sankey-link" d="M759.9000000000001,327.3051597051597C946.19943,327.3051597051597 946.19943,333.50565110565117 1132.49886,333.50565110565117L1132.49886,336.2329238329239C946.19943,336.2329238329239 946.19943,330.0324324324325 759.9000000000001,330.0324324324325Z" style="stroke: rgb(68, 68, 68); stroke-opacity: 1; fill: rgb(25, 211, 243); fill-opacity: 0.6; stroke-width: 0; opacity: 1;"/><path class="sankey-link" d="M759.9000000000001,40.376904176904105C946.19943,40.376904176904105 946.19943,23.217493857493864 1132.49886,23.217493857493864L1132.49886,47.76294840294841C946.19943,47.76294840294841 946.19943,64.92235872235865 759.9000000000001,64.92235872235865Z" style="stroke: rgb(68, 68, 68); stroke-opacity: 1; fill: rgb(99, 110, 250); fill-opacity: 0.6; stroke-width: 0; opacity: 1;"/><path class="sankey-link" d="M759.9000000000001,144.01326781326773C946.19943,144.01326781326773 946.19943,156.80049140049147 1132.49886,156.80049140049147L1132.49886,164.98230958230965C946.19943,164.98230958230965 946.19943,152.19508599508592 759.9000000000001,152.19508599508592Z" style="stroke: rgb(68, 68, 68); stroke-opacity: 1; fill: rgb(99, 110, 250); fill-opacity: 0.6; stroke-width: 0; opacity: 1;"/><path class="sankey-link" d="M759.9000000000001,278.21425061425055C946.19943,278.21425061425055 946.19943,261.1972481572483 1132.49886,261.1972481572483L1132.49886,272.10633906633916C946.19943,272.10633906633916 946.19943,289.1233415233414 759.9000000000001,289.1233415233414Z" style="stroke: rgb(68, 68, 68); stroke-opacity: 1; fill: rgb(99, 110, 250); fill-opacity: 0.6; stroke-width: 0; opacity: 1;"/><path class="sankey-link" d="M759.9000000000001,330.0324324324325C946.19943,330.0324324324325 946.19943,336.2329238329239 1132.49886,336.2329238329239L1132.49886,341.6874692874694C946.19943,341.6874692874694 946.19943,335.48697788697797 759.9000000000001,335.48697788697797Z" style="stroke: rgb(68, 68, 68); stroke-opacity: 1; fill: rgb(99, 110, 250); fill-opacity: 0.6; stroke-width: 0; opacity: 1;"/><path class="sankey-link" d="M759.9000000000001,426.49238329238324C946.19943,426.49238329238324 946.19943,414.74918918918945 1132.49886,414.74918918918945L1132.49886,431.1128255528258C946.19943,431.1128255528258 946.19943,442.8560196560196 759.9000000000001,442.8560196560196Z" style="stroke: rgb(68, 68, 68); stroke-opacity: 1; fill: rgb(99, 110, 250); fill-opacity: 0.6; stroke-width: 0; opacity: 1;"/><path class="sankey-link" d="M759.9000000000001,581.0004914004913C946.19943,581.0004914004913 946.19943,564.7061425061426 1132.49886,564.7061425061426L1132.49886,570.160687960688C946.19943,570.160687960688 946.19943,586.4550368550368 759.9000000000001,586.4550368550368Z" style="stroke: rgb(68, 68, 68); stroke-opacity: 1; fill: rgb(99, 110, 250); fill-opacity: 0.6; stroke-width: 0; opacity: 1;"/><path class="sankey-link" d="M759.9000000000001,594.6368550368551C946.19943,594.6368550368551 946.19943,602.0240786240787 1132.49886,602.0240786240787L1132.49886,615.6604422604424C946.19943,615.6604422604424 946.19943,608.2732186732188 759.9000000000001,608.2732186732188Z" style="stroke: rgb(68, 68, 68); stroke-opacity: 1; fill: rgb(99, 110, 250); fill-opacity: 0.6; stroke-width: 0; opacity: 1;"/><path class="sankey-link" d="M759.9000000000001,64.92235872235865C946.19943,64.92235872235865 946.19943,47.76294840294841 1132.49886,47.76294840294841L1132.49886,50.490221130221144C946.19943,50.490221130221144 946.19943,67.64963144963137 759.9000000000001,67.64963144963137Z" style="stroke: rgb(68, 68, 68); stroke-opacity: 1; fill: rgb(0, 204, 150); fill-opacity: 0.6; stroke-width: 0; opacity: 1;"/><path class="sankey-link" d="M759.9000000000001,152.19508599508592C946.19943,152.19508599508592 946.19943,164.98230958230965 1132.49886,164.98230958230965L1132.49886,167.7095823095824C946.19943,167.7095823095824 946.19943,154.92235872235867 759.9000000000001,154.92235872235867Z" style="stroke: rgb(68, 68, 68); stroke-opacity: 1; fill: rgb(0, 204, 150); fill-opacity: 0.6; stroke-width: 0; opacity: 1;"/><path class="sankey-link" d="M759.9000000000001,289.1233415233415C946.19943,289.1233415233415 946.19943,272.1063390663392 1132.49886,272.1063390663392L1132.49886,274.83361179361196C946.19943,274.83361179361196 946.19943,291.8506142506142 759.9000000000001,291.8506142506142Z" style="stroke: rgb(68, 68, 68); stroke-opacity: 1; fill: rgb(0, 204, 150); fill-opacity: 0.6; stroke-width: 0; opacity: 1;"/><path class="sankey-link" d="M759.9000000000001,335.4869778869779C946.19943,335.4869778869779 946.19943,341.68746928746936 1132.49886,341.68746928746936L1132.49886,344.4147420147421C946.19943,344.4147420147421 946.19943,338.21425061425066 759.9000000000001,338.21425061425066Z" style="stroke: rgb(68, 68, 68); stroke-opacity: 1; fill: rgb(0, 204, 150); fill-opacity: 0.6; stroke-width: 0; opacity: 1;"/><path class="sankey-link" d="M759.9000000000001,442.8560196560196C946.19943,442.8560196560196 946.19943,431.1128255528258 1132.49886,431.1128255528258L1132.49886,439.29464373464396C946.19943,439.29464373464396 946.19943,451.03783783783774 759.9000000000001,451.03783783783774Z" style="stroke: rgb(68, 68, 68); stroke-opacity: 1; fill: rgb(0, 204, 150); fill-opacity: 0.6; stroke-width: 0; opacity: 1;"/><path class="sankey-link" d="M759.9000000000001,516.4923832923832C946.19943,516.4923832923832 946.19943,528.4307616707616 1132.49886,528.4307616707616L1132.49886,531.1580343980344C946.19943,531.1580343980344 946.19943,519.219656019656 759.9000000000001,519.219656019656Z" style="stroke: rgb(68, 68, 68); stroke-opacity: 1; fill: rgb(0, 204, 150); fill-opacity: 0.6; stroke-width: 0; opacity: 1;"/><path class="sankey-link" d="M759.9000000000001,586.4550368550368C946.19943,586.4550368550368 946.19943,570.160687960688 1132.49886,570.160687960688L1132.49886,572.8879606879608C946.19943,572.8879606879608 946.19943,589.1823095823096 759.9000000000001,589.1823095823096Z" style="stroke: rgb(68, 68, 68); stroke-opacity: 1; fill: rgb(0, 204, 150); fill-opacity: 0.6; stroke-width: 0; opacity: 1;"/><path class="sankey-link" d="M759.9000000000001,608.2732186732187C946.19943,608.2732186732187 946.19943,615.6604422604423 1132.49886,615.6604422604423L1132.49886,621.1149877149878C946.19943,621.1149877149878 946.19943,613.7277641277642 759.9000000000001,613.7277641277642Z" style="stroke: rgb(68, 68, 68); stroke-opacity: 1; fill: rgb(0, 204, 150); fill-opacity: 0.6; stroke-width: 0; opacity: 1;"/><path class="sankey-link" d="M759.9000000000001,67.64963144963139C946.19943,67.64963144963139 946.19943,50.49022113022114 1132.49886,50.49022113022114L1132.49886,61.39931203931204C946.19943,61.39931203931204 946.19943,78.55872235872229 759.9000000000001,78.55872235872229Z" style="stroke: rgb(68, 68, 68); stroke-opacity: 1; fill: rgb(254, 203, 82); fill-opacity: 0.6; stroke-width: 0; opacity: 1;"/><path class="sankey-link" d="M759.9000000000001,154.92235872235864C946.19943,154.92235872235864 946.19943,167.70958230958237 1132.49886,167.70958230958237L1132.49886,175.89140049140056C946.19943,175.89140049140056 946.19943,163.10417690417682 759.9000000000001,163.10417690417682Z" style="stroke: rgb(68, 68, 68); stroke-opacity: 1; fill: rgb(254, 203, 82); fill-opacity: 0.6; stroke-width: 0; opacity: 1;"/><path class="sankey-link" d="M759.9000000000001,291.8506142506142C946.19943,291.8506142506142 946.19943,274.83361179361196 1132.49886,274.83361179361196L1132.49886,277.5608845208847C946.19943,277.5608845208847 946.19943,294.577886977887 759.9000000000001,294.577886977887Z" style="stroke: rgb(68, 68, 68); stroke-opacity: 1; fill: rgb(254, 203, 82); fill-opacity: 0.6; stroke-width: 0; opacity: 1;"/><path class="sankey-link" d="M759.9000000000001,451.0378378378378C946.19943,451.0378378378378 946.19943,439.294643734644 1132.49886,439.294643734644L1132.49886,450.2037346437349C946.19943,450.2037346437349 946.19943,461.9469287469287 759.9000000000001,461.9469287469287Z" style="stroke: rgb(68, 68, 68); stroke-opacity: 1; fill: rgb(254, 203, 82); fill-opacity: 0.6; stroke-width: 0; opacity: 1;"/><path class="sankey-link" d="M759.9000000000001,613.7277641277642C946.19943,613.7277641277642 946.19943,621.1149877149878 1132.49886,621.1149877149878L1132.49886,632.0240786240788C946.19943,632.0240786240788 946.19943,624.6368550368552 759.9000000000001,624.6368550368552Z" style="stroke: rgb(68, 68, 68); stroke-opacity: 1; fill: rgb(254, 203, 82); fill-opacity: 0.6; stroke-width: 0; opacity: 1;"/><path class="sankey-link" d="M759.9000000000001,163.10417690417682C946.19943,163.10417690417682 946.19943,175.89140049140056 1132.49886,175.89140049140056L1132.49886,184.07321867321875C946.19943,184.07321867321875 946.19943,171.285995085995 759.9000000000001,171.285995085995Z" style="stroke: rgb(68, 68, 68); stroke-opacity: 1; fill: rgb(255, 161, 90); fill-opacity: 0.6; stroke-width: 0; opacity: 1;"/><path class="sankey-link" d="M759.9000000000001,338.21425061425066C946.19943,338.21425061425066 946.19943,344.4147420147421 1132.49886,344.4147420147421L1132.49886,347.14201474201485C946.19943,347.14201474201485 946.19943,340.9415233415234 759.9000000000001,340.9415233415234Z" style="stroke: rgb(68, 68, 68); stroke-opacity: 1; fill: rgb(255, 161, 90); fill-opacity: 0.6; stroke-width: 0; opacity: 1;"/><path class="sankey-link" d="M759.9000000000001,78.55872235872229C946.19943,78.55872235872229 946.19943,61.39931203931204 1132.49886,61.39931203931204L1132.49886,77.76294840294841C946.19943,77.76294840294841 946.19943,94.92235872235867 759.9000000000001,94.92235872235867Z" style="stroke: rgb(68, 68, 68); stroke-opacity: 1; fill: rgb(171, 99, 250); fill-opacity: 0.6; stroke-width: 0; opacity: 1;"/><path class="sankey-link" d="M759.9000000000001,171.285995085995C946.19943,171.285995085995 946.19943,184.07321867321875 1132.49886,184.07321867321875L1132.49886,192.25503685503693C946.19943,192.25503685503693 946.19943,179.4678132678132 759.9000000000001,179.4678132678132Z" style="stroke: rgb(68, 68, 68); stroke-opacity: 1; fill: rgb(171, 99, 250); fill-opacity: 0.6; stroke-width: 0; opacity: 1;"/><path class="sankey-link" d="M759.9000000000001,294.577886977887C946.19943,294.577886977887 946.19943,277.5608845208847 1132.49886,277.5608845208847L1132.49886,283.0154299754302C946.19943,283.0154299754302 946.19943,300.0324324324325 759.9000000000001,300.0324324324325Z" style="stroke: rgb(68, 68, 68); stroke-opacity: 1; fill: rgb(171, 99, 250); fill-opacity: 0.6; stroke-width: 0; opacity: 1;"/><path class="sankey-link" d="M759.9000000000001,340.9415233415234C946.19943,340.9415233415234 946.19943,347.14201474201485 1132.49886,347.14201474201485L1132.49886,352.59656019656035C946.19943,352.59656019656035 946.19943,346.3960687960689 759.9000000000001,346.3960687960689Z" style="stroke: rgb(68, 68, 68); stroke-opacity: 1; fill: rgb(171, 99, 250); fill-opacity: 0.6; stroke-width: 0; opacity: 1;"/><path class="sankey-link" d="M759.9000000000001,461.94692874692873C946.19943,461.94692874692873 946.19943,450.20373464373495 1132.49886,450.20373464373495L1132.49886,458.3855528255531C946.19943,458.3855528255531 946.19943,470.12874692874686 759.9000000000001,470.12874692874686Z" style="stroke: rgb(68, 68, 68); stroke-opacity: 1; fill: rgb(171, 99, 250); fill-opacity: 0.6; stroke-width: 0; opacity: 1;"/><path class="sankey-link" d="M759.9000000000001,519.219656019656C946.19943,519.219656019656 946.19943,531.1580343980344 1132.49886,531.1580343980344L1132.49886,533.8853071253071C946.19943,533.8853071253071 946.19943,521.9469287469287 759.9000000000001,521.9469287469287Z" style="stroke: rgb(68, 68, 68); stroke-opacity: 1; fill: rgb(171, 99, 250); fill-opacity: 0.6; stroke-width: 0; opacity: 1;"/><path class="sankey-link" d="M759.9000000000001,624.6368550368551C946.19943,624.6368550368551 946.19943,632.0240786240787 1132.49886,632.0240786240787L1132.49886,645.6604422604424C946.19943,645.6604422604424 946.19943,638.2732186732188 759.9000000000001,638.2732186732188Z" style="stroke: rgb(68, 68, 68); stroke-opacity: 1; fill: rgb(171, 99, 250); fill-opacity: 0.6; stroke-width: 0; opacity: 1;"/><path class="sankey-link" d="M759.9000000000001,94.92235872235865C946.19943,94.92235872235865 946.19943,77.76294840294841 1132.49886,77.76294840294841L1132.49886,115.9447665847666C946.19943,115.9447665847666 946.19943,133.10417690417682 759.9000000000001,133.10417690417682Z" style="stroke: rgb(68, 68, 68); stroke-opacity: 1; fill: rgb(239, 85, 59); fill-opacity: 0.6; stroke-width: 0; opacity: 1;"/><path class="sankey-link" d="M759.9000000000001,179.4678132678132C946.19943,179.4678132678132 946.19943,192.25503685503693 1132.49886,192.25503685503693L1132.49886,227.70958230958237C946.19943,227.70958230958237 946.19943,214.92235872235864 759.9000000000001,214.92235872235864Z" style="stroke: rgb(68, 68, 68); stroke-opacity: 1; fill: rgb(239, 85, 59); fill-opacity: 0.6; stroke-width: 0; opacity: 1;"/><path class="sankey-link" d="M759.9000000000001,300.0324324324324C946.19943,300.0324324324324 946.19943,283.01542997543015 1132.49886,283.01542997543015L1132.49886,299.3790663390665C946.19943,299.3790663390665 946.19943,316.3960687960688 759.9000000000001,316.3960687960688Z" style="stroke: rgb(68, 68, 68); stroke-opacity: 1; fill: rgb(239, 85, 59); fill-opacity: 0.6; stroke-width: 0; opacity: 1;"/><path class="sankey-link" d="M759.9000000000001,346.39606879606885C946.19943,346.39606879606885 946.19943,352.5965601965603 1132.49886,352.5965601965603L1132.49886,377.1420147420148C946.19943,377.1420147420148 946.19943,370.94152334152335 759.9000000000001,370.94152334152335Z" style="stroke: rgb(68, 68, 68); stroke-opacity: 1; fill: rgb(239, 85, 59); fill-opacity: 0.6; stroke-width: 0; opacity: 1;"/><path class="sankey-link" d="M759.9000000000001,470.1287469287469C946.19943,470.1287469287469 946.19943,458.38555282555313 1132.49886,458.38555282555313L1132.49886,493.84009828009863C946.19943,493.84009828009863 946.19943,505.5832923832924 759.9000000000001,505.5832923832924Z" style="stroke: rgb(68, 68, 68); stroke-opacity: 1; fill: rgb(239, 85, 59); fill-opacity: 0.6; stroke-width: 0; opacity: 1;"/><path class="sankey-link" d="M759.9000000000001,521.9469287469287C946.19943,521.9469287469287 946.19943,533.8853071253071 1132.49886,533.8853071253071L1132.49886,547.5216707616709C946.19943,547.5216707616709 946.19943,535.5832923832925 759.9000000000001,535.5832923832925Z" style="stroke: rgb(68, 68, 68); stroke-opacity: 1; fill: rgb(239, 85, 59); fill-opacity: 0.6; stroke-width: 0; opacity: 1;"/><path class="sankey-link" d="M759.9000000000001,589.1823095823096C946.19943,589.1823095823096 946.19943,572.8879606879608 1132.49886,572.8879606879608L1132.49886,578.3425061425063C946.19943,578.3425061425063 946.19943,594.6368550368551 759.9000000000001,594.6368550368551Z" style="stroke: rgb(68, 68, 68); stroke-opacity: 1; fill: rgb(239, 85, 59); fill-opacity: 0.6; stroke-width: 0; opacity: 1;"/><path class="sankey-link" d="M759.9000000000001,638.2732186732187C946.19943,638.2732186732187 946.19943,645.6604422604423 1132.49886,645.6604422604423L1132.49886,692.0240786240786C946.19943,692.0240786240786 946.19943,684.636855036855 759.9000000000001,684.636855036855Z" style="stroke: rgb(68, 68, 68); stroke-opacity: 1; fill: rgb(239, 85, 59); fill-opacity: 0.6; stroke-width: 0; opacity: 1;"/><path class="sankey-link" d="M759.9000000000001,133.10417690417682C946.19943,133.10417690417682 946.19943,115.9447665847666 1132.49886,115.9447665847666L1132.49886,124.12658476658478C946.19943,124.12658476658478 946.19943,141.285995085995 759.9000000000001,141.285995085995Z" style="stroke: rgb(68, 68, 68); stroke-opacity: 1; fill: rgb(182, 232, 128); fill-opacity: 0.6; stroke-width: 0; opacity: 1;"/><path class="sankey-link" d="M759.9000000000001,214.92235872235864C946.19943,214.92235872235864 946.19943,227.7095823095824 1132.49886,227.7095823095824L1132.49886,233.16412776412784C946.19943,233.16412776412784 946.19943,220.37690417690408 759.9000000000001,220.37690417690408Z" style="stroke: rgb(68, 68, 68); stroke-opacity: 1; fill: rgb(182, 232, 128); fill-opacity: 0.6; stroke-width: 0; opacity: 1;"/><path class="sankey-link" d="M759.9000000000001,316.3960687960688C946.19943,316.3960687960688 946.19943,299.3790663390665 1132.49886,299.3790663390665L1132.49886,307.56088452088466C946.19943,307.56088452088466 946.19943,324.5778869778869 759.9000000000001,324.5778869778869Z" style="stroke: rgb(68, 68, 68); stroke-opacity: 1; fill: rgb(182, 232, 128); fill-opacity: 0.6; stroke-width: 0; opacity: 1;"/><path class="sankey-link" d="M759.9000000000001,370.9415233415234C946.19943,370.9415233415234 946.19943,377.14201474201485 1132.49886,377.14201474201485L1132.49886,385.323832923833C946.19943,385.323832923833 946.19943,379.12334152334154 759.9000000000001,379.12334152334154Z" style="stroke: rgb(68, 68, 68); stroke-opacity: 1; fill: rgb(182, 232, 128); fill-opacity: 0.6; stroke-width: 0; opacity: 1;"/><path class="sankey-link" d="M759.9000000000001,505.58329238329236C946.19943,505.58329238329236 946.19943,493.8400982800986 1132.49886,493.8400982800986L1132.49886,499.29464373464407C946.19943,499.29464373464407 946.19943,511.03783783783786 759.9000000000001,511.03783783783786Z" style="stroke: rgb(68, 68, 68); stroke-opacity: 1; fill: rgb(182, 232, 128); fill-opacity: 0.6; stroke-width: 0; opacity: 1;"/><path class="sankey-link" d="M759.9000000000001,684.6368550368551C946.19943,684.6368550368551 946.19943,692.0240786240787 1132.49886,692.0240786240787L1132.49886,697.4786240786242C946.19943,697.4786240786242 946.19943,690.0914004914006 759.9000000000001,690.0914004914006Z" style="stroke: rgb(68, 68, 68); stroke-opacity: 1; fill: rgb(182, 232, 128); fill-opacity: 0.6; stroke-width: 0; opacity: 1;"/><path class="sankey-link" d="M759.9000000000001,141.285995085995C946.19943,141.285995085995 946.19943,124.12658476658478 1132.49886,124.12658476658478L1132.49886,126.8538574938575C946.19943,126.8538574938575 946.19943,144.01326781326776 759.9000000000001,144.01326781326776Z" style="stroke: rgb(68, 68, 68); stroke-opacity: 1; fill: rgb(255, 151, 255); fill-opacity: 0.6; stroke-width: 0; opacity: 1;"/><path class="sankey-link" d="M759.9000000000001,220.3769041769041C946.19943,220.3769041769041 946.19943,233.16412776412787 1132.49886,233.16412776412787L1132.49886,235.89140049140062C946.19943,235.89140049140062 946.19943,223.10417690417685 759.9000000000001,223.10417690417685Z" style="stroke: rgb(68, 68, 68); stroke-opacity: 1; fill: rgb(255, 151, 255); fill-opacity: 0.6; stroke-width: 0; opacity: 1;"/><path class="sankey-link" d="M759.9000000000001,324.577886977887C946.19943,324.577886977887 946.19943,307.5608845208847 1132.49886,307.5608845208847L1132.49886,310.28815724815746C946.19943,310.28815724815746 946.19943,327.3051597051597 759.9000000000001,327.3051597051597Z" style="stroke: rgb(68, 68, 68); stroke-opacity: 1; fill: rgb(255, 151, 255); fill-opacity: 0.6; stroke-width: 0; opacity: 1;"/><path class="sankey-link" d="M759.9000000000001,379.1233415233416C946.19943,379.1233415233416 946.19943,385.32383292383304 1132.49886,385.32383292383304L1132.49886,388.0511056511058C946.19943,388.0511056511058 946.19943,381.85061425061434 759.9000000000001,381.85061425061434Z" style="stroke: rgb(68, 68, 68); stroke-opacity: 1; fill: rgb(255, 151, 255); fill-opacity: 0.6; stroke-width: 0; opacity: 1;"/><path class="sankey-link" d="M759.9000000000001,511.03783783783774C946.19943,511.03783783783774 946.19943,499.294643734644 1132.49886,499.294643734644L1132.49886,504.7491891891895C946.19943,504.7491891891895 946.19943,516.4923832923832 759.9000000000001,516.4923832923832Z" style="stroke: rgb(68, 68, 68); stroke-opacity: 1; fill: rgb(255, 151, 255); fill-opacity: 0.6; stroke-width: 0; opacity: 1;"/></g><g class="sankey-node-set" style="cursor: ns-resize;"><g class="sankey-node" transform="translate(-7.499,16.004)" style="opacity: 1;"><rect class="node-rect" width="15" height="57.27272727272725" style="stroke-width: 0.5; stroke: rgb(0, 0, 0); stroke-opacity: 1; fill: rgb(128, 128, 128); fill-opacity: 1;"/><text class="node-label" data-notex="1" x="0" y="0" text-anchor="start" transform="translate(18.25,32.83636363636363)" style="cursor: default; font-family: 'Open Sans', verdana, arial, sans-serif; font-size: 12px; fill: rgb(42, 63, 95); fill-opacity: 1; white-space: pre; text-shadow: white 1px 1px 1px, white -1px -1px 1px, white 1px -1px 1px, white -1px 1px 1px;">21271R</text></g><g class="sankey-node" transform="translate(-7.499,90.502)" style="opacity: 1;"><rect class="node-rect" width="15" height="43.636363636363626" style="stroke-width: 0.5; stroke: rgb(0, 0, 0); stroke-opacity: 1; fill: rgb(128, 128, 128); fill-opacity: 1;"/><text class="node-label" data-notex="1" x="0" y="0" text-anchor="start" transform="translate(18.25,26.018181818181812)" style="cursor: default; font-family: 'Open Sans', verdana, arial, sans-serif; font-size: 12px; fill: rgb(42, 63, 95); fill-opacity: 1; white-space: pre; text-shadow: white 1px 1px 1px, white -1px -1px 1px, white 1px -1px 1px, white -1px 1px 1px;">21272R</text></g><g class="sankey-node" transform="translate(-7.499,151.135)" style="opacity: 1;"><rect class="node-rect" width="15" height="49.090909090908895" style="stroke-width: 0.5; stroke: rgb(0, 0, 0); stroke-opacity: 1; fill: rgb(128, 128, 128); fill-opacity: 1;"/><text class="node-label" data-notex="1" x="0" y="0" text-anchor="start" transform="translate(18.25,28.745454545454447)" style="cursor: default; font-family: 'Open Sans', verdana, arial, sans-serif; font-size: 12px; fill: rgb(42, 63, 95); fill-opacity: 1; white-space: pre; text-shadow: white 1px 1px 1px, white -1px -1px 1px, white 1px -1px 1px, white -1px 1px 1px;">21965RL</text></g><g class="sankey-node" transform="translate(-7.499,222.262)" style="opacity: 1;"><rect class="node-rect" width="15" height="223.63636363636365" style="stroke-width: 0.5; stroke: rgb(0, 0, 0); stroke-opacity: 1; fill: rgb(128, 128, 128); fill-opacity: 1;"/><text class="node-label" data-notex="1" x="0" y="0" text-anchor="start" transform="translate(18.25,116.01818181818183)" style="cursor: default; font-family: 'Open Sans', verdana, arial, sans-serif; font-size: 12px; fill: rgb(42, 63, 95); fill-opacity: 1; white-space: pre; text-shadow: white 1px 1px 1px, white -1px -1px 1px, white 1px -1px 1px, white -1px 1px 1px;">22384</text></g><g class="sankey-node" transform="translate(-7.499,472.898)" style="opacity: 1;"><rect class="node-rect" width="15" height="226.36363636363626" style="stroke-width: 0.5; stroke: rgb(0, 0, 0); stroke-opacity: 1; fill: rgb(128, 128, 128); fill-opacity: 1;"/><text class="node-label" data-notex="1" x="0" y="0" text-anchor="start" transform="translate(18.25,117.38181818181813)" style="cursor: default; font-family: 'Open Sans', verdana, arial, sans-serif; font-size: 12px; fill: rgb(42, 63, 95); fill-opacity: 1; white-space: pre; text-shadow: white 1px 1px 1px, white -1px -1px 1px, white 1px -1px 1px, white -1px 1px 1px;">22670</text></g><g class="sankey-node" transform="translate(744.900,40.377)" style="opacity: 1;"><rect class="node-rect" width="15" height="182.72727272727286" style="stroke-width: 0.5; stroke: rgb(0, 0, 0); stroke-opacity: 1; fill: rgb(128, 128, 128); fill-opacity: 1;"/><text class="node-label" data-notex="1" x="0" y="0" text-anchor="start" transform="translate(18.25,95.56363636363643)" style="cursor: default; font-family: 'Open Sans', verdana, arial, sans-serif; font-size: 12px; fill: rgb(42, 63, 95); fill-opacity: 1; white-space: pre; text-shadow: white 1px 1px 1px, white -1px -1px 1px, white 1px -1px 1px, white -1px 1px 1px;">dig</text></g><g class="sankey-node" transform="translate(744.900,278.214)" style="opacity: 1;"><rect class="node-rect" width="15" height="103.63636363636385" style="stroke-width: 0.5; stroke: rgb(0, 0, 0); stroke-opacity: 1; fill: rgb(128, 128, 128); fill-opacity: 1;"/><text class="node-label" data-notex="1" x="0" y="0" text-anchor="start" transform="translate(18.25,56.01818181818193)" style="cursor: default; font-family: 'Open Sans', verdana, arial, sans-serif; font-size: 12px; fill: rgb(42, 63, 95); fill-opacity: 1; white-space: pre; text-shadow: white 1px 1px 1px, white -1px -1px 1px, white 1px -1px 1px, white -1px 1px 1px;">groom</text></g><g class="sankey-node" transform="translate(744.900,426.492)" style="opacity: 1;"><rect class="node-rect" width="15" height="109.09090909090924" style="stroke-width: 0.5; stroke: rgb(0, 0, 0); stroke-opacity: 1; fill: rgb(128, 128, 128); fill-opacity: 1;"/><text class="node-label" data-notex="1" x="0" y="0" text-anchor="start" transform="translate(18.25,58.74545454545462)" style="cursor: default; font-family: 'Open Sans', verdana, arial, sans-serif; font-size: 12px; fill: rgb(42, 63, 95); fill-opacity: 1; white-space: pre; text-shadow: white 1px 1px 1px, white -1px -1px 1px, white 1px -1px 1px, white -1px 1px 1px;">move</text></g><g class="sankey-node" transform="translate(744.900,581.000)" style="opacity: 1;"><rect class="node-rect" width="15" height="109.09090909090924" style="stroke-width: 0.5; stroke: rgb(0, 0, 0); stroke-opacity: 1; fill: rgb(128, 128, 128); fill-opacity: 1;"/><text class="node-label" data-notex="1" x="0" y="0" text-anchor="start" transform="translate(18.25,58.74545454545462)" style="cursor: default; font-family: 'Open Sans', verdana, arial, sans-serif; font-size: 12px; fill: rgb(42, 63, 95); fill-opacity: 1; white-space: pre; text-shadow: white 1px 1px 1px, white -1px -1px 1px, white 1px -1px 1px, white -1px 1px 1px;">still</text></g><g class="sankey-node" transform="translate(1132.499,23.217)" style="opacity: 1;"><rect class="node-rect" width="15" height="103.63636363636363" style="stroke-width: 0.5; stroke: rgb(0, 0, 0); stroke-opacity: 1; fill: rgb(128, 128, 128); fill-opacity: 1;"/><text class="node-label" data-notex="1" x="0" y="0" text-anchor="end" transform="translate(-3.25,56.018181818181816)" style="cursor: default; font-family: 'Open Sans', verdana, arial, sans-serif; font-size: 12px; fill: rgb(42, 63, 95); fill-opacity: 1; white-space: pre; text-shadow: white 1px 1px 1px, white -1px -1px 1px, white 1px -1px 1px, white -1px 1px 1px;">dig-activated</text></g><g class="sankey-node" transform="translate(1132.499,156.800)" style="opacity: 1;"><rect class="node-rect" width="15" height="79.09090909090901" style="stroke-width: 0.5; stroke: rgb(0, 0, 0); stroke-opacity: 1; fill: rgb(128, 128, 128); fill-opacity: 1;"/><text class="node-label" data-notex="1" x="0" y="0" text-anchor="end" transform="translate(-3.25,43.74545454545451)" style="cursor: default; font-family: 'Open Sans', verdana, arial, sans-serif; font-size: 12px; fill: rgb(42, 63, 95); fill-opacity: 1; white-space: pre; text-shadow: white 1px 1px 1px, white -1px -1px 1px, white 1px -1px 1px, white -1px 1px 1px;">dig-suppressed</text></g><g class="sankey-node" transform="translate(1132.499,261.197)" style="opacity: 1;"><rect class="node-rect" width="15" height="49.09090909090901" style="stroke-width: 0.5; stroke: rgb(0, 0, 0); stroke-opacity: 1; fill: rgb(128, 128, 128); fill-opacity: 1;"/><text class="node-label" data-notex="1" x="0" y="0" text-anchor="end" transform="translate(-3.25,28.745454545454503)" style="cursor: default; font-family: 'Open Sans', verdana, arial, sans-serif; font-size: 12px; fill: rgb(42, 63, 95); fill-opacity: 1; white-space: pre; text-shadow: white 1px 1px 1px, white -1px -1px 1px, white 1px -1px 1px, white -1px 1px 1px;">groom-activated</text></g><g class="sankey-node" transform="translate(1132.499,333.506)" style="opacity: 1;"><rect class="node-rect" width="15" height="54.54545454545462" style="stroke-width: 0.5; stroke: rgb(0, 0, 0); stroke-opacity: 1; fill: rgb(128, 128, 128); fill-opacity: 1;"/><text class="node-label" data-notex="1" x="0" y="0" text-anchor="end" transform="translate(-3.25,31.472727272727308)" style="cursor: default; font-family: 'Open Sans', verdana, arial, sans-serif; font-size: 12px; fill: rgb(42, 63, 95); fill-opacity: 1; white-space: pre; text-shadow: white 1px 1px 1px, white -1px -1px 1px, white 1px -1px 1px, white -1px 1px 1px;">groom-suppressed</text></g><g class="sankey-node" transform="translate(1132.499,414.749)" style="opacity: 1;"><rect class="node-rect" width="15" height="89.99999999999966" style="stroke-width: 0.5; stroke: rgb(0, 0, 0); stroke-opacity: 1; fill: rgb(128, 128, 128); fill-opacity: 1;"/><text class="node-label" data-notex="1" x="0" y="0" text-anchor="end" transform="translate(-3.25,49.19999999999983)" style="cursor: default; font-family: 'Open Sans', verdana, arial, sans-serif; font-size: 12px; fill: rgb(42, 63, 95); fill-opacity: 1; white-space: pre; text-shadow: white 1px 1px 1px, white -1px -1px 1px, white 1px -1px 1px, white -1px 1px 1px;">move-activated</text></g><g class="sankey-node" transform="translate(1132.499,528.431)" style="opacity: 1;"><rect class="node-rect" width="15" height="19.090909090909236" style="stroke-width: 0.5; stroke: rgb(0, 0, 0); stroke-opacity: 1; fill: rgb(128, 128, 128); fill-opacity: 1;"/><text class="node-label" data-notex="1" x="0" y="0" text-anchor="end" transform="translate(-3.25,13.745454545454617)" style="cursor: default; font-family: 'Open Sans', verdana, arial, sans-serif; font-size: 12px; fill: rgb(42, 63, 95); fill-opacity: 1; white-space: pre; text-shadow: white 1px 1px 1px, white -1px -1px 1px, white 1px -1px 1px, white -1px 1px 1px;">move-suppressed</text></g><g class="sankey-node" transform="translate(1132.499,564.706)" style="opacity: 1;"><rect class="node-rect" width="15" height="13.63636363636374" style="stroke-width: 0.5; stroke: rgb(0, 0, 0); stroke-opacity: 1; fill: rgb(128, 128, 128); fill-opacity: 1;"/><text class="node-label" data-notex="1" x="0" y="0" text-anchor="end" transform="translate(-3.25,11.01818181818187)" style="cursor: default; font-family: 'Open Sans', verdana, arial, sans-serif; font-size: 12px; fill: rgb(42, 63, 95); fill-opacity: 1; white-space: pre; text-shadow: white 1px 1px 1px, white -1px -1px 1px, white 1px -1px 1px, white -1px 1px 1px;">still-activated</text></g><g class="sankey-node" transform="translate(1132.499,602.024)" style="opacity: 1;"><rect class="node-rect" width="15" height="95.4545454545455" style="stroke-width: 0.5; stroke: rgb(0, 0, 0); stroke-opacity: 1; fill: rgb(128, 128, 128); fill-opacity: 1;"/><text class="node-label" data-notex="1" x="0" y="0" text-anchor="end" transform="translate(-3.25,51.92727272727275)" style="cursor: default; font-family: 'Open Sans', verdana, arial, sans-serif; font-size: 12px; fill: rgb(42, 63, 95); fill-opacity: 1; white-space: pre; text-shadow: white 1px 1px 1px, white -1px -1px 1px, white 1px -1px 1px, white -1px 1px 1px;">still-suppressed</text></g><g class="sankey-node" transform="translate(368.700,13.935)" style="opacity: 1;"><rect class="node-rect" width="15" height="13.63636363636374" style="stroke-width: 0.5; stroke: rgb(0, 0, 0); stroke-opacity: 1; fill: rgb(25, 211, 243); fill-opacity: 1;"/><text class="node-label" data-notex="1" x="0" y="0" text-anchor="start" transform="translate(18.25,11.01818181818187)" style="cursor: default; font-family: 'Open Sans', verdana, arial, sans-serif; font-size: 12px; fill: rgb(42, 63, 95); fill-opacity: 1; white-space: pre; text-shadow: white 1px 1px 1px, white -1px -1px 1px, white 1px -1px 1px, white -1px 1px 1px;">BLA</text></g><g class="sankey-node" transform="translate(368.700,37.784)" style="opacity: 1;"><rect class="node-rect" width="15" height="109.09090909090888" style="stroke-width: 0.5; stroke: rgb(0, 0, 0); stroke-opacity: 1; fill: rgb(99, 110, 250); fill-opacity: 1;"/><text class="node-label" data-notex="1" x="0" y="0" text-anchor="start" transform="translate(18.25,58.745454545454436)" style="cursor: default; font-family: 'Open Sans', verdana, arial, sans-serif; font-size: 12px; fill: rgb(42, 63, 95); fill-opacity: 1; white-space: pre; text-shadow: white 1px 1px 1px, white -1px -1px 1px, white 1px -1px 1px, white -1px 1px 1px;">Cla</text></g><g class="sankey-node" transform="translate(368.700,156.436)" style="opacity: 1;"><rect class="node-rect" width="15" height="32.72727272727275" style="stroke-width: 0.5; stroke: rgb(0, 0, 0); stroke-opacity: 1; fill: rgb(0, 204, 150); fill-opacity: 1;"/><text class="node-label" data-notex="1" x="0" y="0" text-anchor="start" transform="translate(18.25,20.563636363636373)" style="cursor: default; font-family: 'Open Sans', verdana, arial, sans-serif; font-size: 12px; fill: rgb(42, 63, 95); fill-opacity: 1; white-space: pre; text-shadow: white 1px 1px 1px, white -1px -1px 1px, white 1px -1px 1px, white -1px 1px 1px;">LC</text></g><g class="sankey-node" transform="translate(368.700,200.958)" style="opacity: 1;"><rect class="node-rect" width="15" height="43.63636363636351" style="stroke-width: 0.5; stroke: rgb(0, 0, 0); stroke-opacity: 1; fill: rgb(254, 203, 82); fill-opacity: 1;"/><text class="node-label" data-notex="1" x="0" y="0" text-anchor="start" transform="translate(18.25,26.018181818181755)" style="cursor: default; font-family: 'Open Sans', verdana, arial, sans-serif; font-size: 12px; fill: rgb(42, 63, 95); fill-opacity: 1; white-space: pre; text-shadow: white 1px 1px 1px, white -1px -1px 1px, white 1px -1px 1px, white -1px 1px 1px;">LHyp</text></g><g class="sankey-node" transform="translate(368.700,256.482)" style="opacity: 1;"><rect class="node-rect" width="15" height="30" style="stroke-width: 0.5; stroke: rgb(0, 0, 0); stroke-opacity: 1; fill: rgb(255, 161, 90); fill-opacity: 1;"/><text class="node-label" data-notex="1" x="0" y="0" text-anchor="start" transform="translate(18.25,19.2)" style="cursor: default; font-family: 'Open Sans', verdana, arial, sans-serif; font-size: 12px; fill: rgb(42, 63, 95); fill-opacity: 1; white-space: pre; text-shadow: white 1px 1px 1px, white -1px -1px 1px, white 1px -1px 1px, white -1px 1px 1px;">NAc</text></g><g class="sankey-node" transform="translate(368.700,297.440)" style="opacity: 1;"><rect class="node-rect" width="15" height="70.90909090909099" style="stroke-width: 0.5; stroke: rgb(0, 0, 0); stroke-opacity: 1; fill: rgb(171, 99, 250); fill-opacity: 1;"/><text class="node-label" data-notex="1" x="0" y="0" text-anchor="start" transform="translate(18.25,39.6545454545455)" style="cursor: default; font-family: 'Open Sans', verdana, arial, sans-serif; font-size: 12px; fill: rgb(42, 63, 95); fill-opacity: 1; white-space: pre; text-shadow: white 1px 1px 1px, white -1px -1px 1px, white 1px -1px 1px, white -1px 1px 1px;">Str</text></g><g class="sankey-node" transform="translate(368.700,372.699)" style="opacity: 1;"><rect class="node-rect" width="15" height="223.6363636363635" style="stroke-width: 0.5; stroke: rgb(0, 0, 0); stroke-opacity: 1; fill: rgb(239, 85, 59); fill-opacity: 1;"/><text class="node-label" data-notex="1" x="0" y="0" text-anchor="start" transform="translate(18.25,116.01818181818176)" style="cursor: default; font-family: 'Open Sans', verdana, arial, sans-serif; font-size: 12px; fill: rgb(42, 63, 95); fill-opacity: 1; white-space: pre; text-shadow: white 1px 1px 1px, white -1px -1px 1px, white 1px -1px 1px, white -1px 1px 1px;">VTA</text></g><g class="sankey-node" transform="translate(368.700,601.059)" style="opacity: 1;"><rect class="node-rect" width="15" height="60" style="stroke-width: 0.5; stroke: rgb(0, 0, 0); stroke-opacity: 1; fill: rgb(182, 232, 128); fill-opacity: 1;"/><text class="node-label" data-notex="1" x="0" y="0" text-anchor="start" transform="translate(18.25,34.2)" style="cursor: default; font-family: 'Open Sans', verdana, arial, sans-serif; font-size: 12px; fill: rgb(42, 63, 95); fill-opacity: 1; white-space: pre; text-shadow: white 1px 1px 1px, white -1px -1px 1px, white 1px -1px 1px, white -1px 1px 1px;">cPFC</text></g><g class="sankey-node" transform="translate(368.700,672.853)" style="opacity: 1;"><rect class="node-rect" width="15" height="16.363636363636033" style="stroke-width: 0.5; stroke: rgb(0, 0, 0); stroke-opacity: 1; fill: rgb(255, 151, 255); fill-opacity: 1;"/><text class="node-label" data-notex="1" x="0" y="0" text-anchor="start" transform="translate(18.25,12.381818181818016)" style="cursor: default; font-family: 'Open Sans', verdana, arial, sans-serif; font-size: 12px; fill: rgb(42, 63, 95); fill-opacity: 1; white-space: pre; text-shadow: white 1px 1px 1px, white -1px -1px 1px, white 1px -1px 1px, white -1px 1px 1px;">dPAG</text></g><g class="sankey-node" transform="translate(368.700,702.966)" style="opacity: 1;"><rect class="node-rect" width="15" height="2.727272727272748" style="stroke-width: 0.5; stroke: rgb(0, 0, 0); stroke-opacity: 1; fill: rgb(255, 102, 146); fill-opacity: 1;"/><text class="node-label" data-notex="1" x="0" y="0" text-anchor="start" transform="translate(18.25,5.563636363636373)" style="cursor: default; font-family: 'Open Sans', verdana, arial, sans-serif; font-size: 12px; fill: rgb(42, 63, 95); fill-opacity: 1; white-space: pre; text-shadow: white 1px 1px 1px, white -1px -1px 1px, white 1px -1px 1px, white -1px 1px 1px;">lHb</text></g></g></g><defs id="topdefs-65301b"><g class="clips"/></defs><g class="layer-above"><g class="imagelayer"/><g class="shapelayer"/></g><g class="infolayer"><g class="g-gtitle"/><g class="first-render"/></g></svg>