<svg class="main-svg" xmlns="http://www.w3.org/2000/svg" xmlns:xlink="http://www.w3.org/1999/xlink" width="1300" height="900" viewBox="0 0 1300 900" style=""><rect x="0" y="0" width="1300" height="900" style="fill: rgb(255, 255, 255); fill-opacity: 1;"/><defs id="defs-55755d"><g class="clips"/><g class="gradients"/><g class="patterns"/></defs><g class="bglayer"/><g class="layer-below"><g class="imagelayer"/><g class="shapelayer"/></g><g class="cartesianlayer"/><g class="polarlayer"/><g class="smithlayer"/><g class="ternarylayer"/><g class="geolayer"/><g class="funnelarealayer"/><g class="pielayer"/><g class="iciclelayer"/><g class="treemaplayer"/><g class="sunburstlayer"/><g class="glimages"/><g class="sankey" transform="translate(80,100)matrix(1 0 0 1 0 0)" style="box-sizing: content-box; position: absolute; left: 0px; shape-rendering: geometricprecision; pointer-events: none;"><g class="sankey-links" style="fill: none;"><path class="sankey-link" d="M7.50114,21.969545454545496C188.10057000000003,21.969545454545496 188.10057000000003,38.06315117466788 368.70000000000005,38.06315117466788L368.70000000000005,55.33587844739516C188.10057000000003,55.33587844739516 188.10057000000003,39.24227272727277 7.50114,39.24227272727277Z" style="stroke: rgb(68, 68, 68); stroke-opacity: 1; fill: rgb(99, 110, 250); fill-opacity: 0.6; stroke-width: 0; opacity: 1;"/><path class="sankey-link" d="M7.50114,39.24227272727277C188.10057000000003,39.24227272727277 188.10057000000003,148.00635852911137 368.70000000000005,148.00635852911137L368.70000000000005,152.32454034729318C188.10057000000003,152.32454034729318 188.10057000000003,43.56045454545458 7.50114,43.56045454545458Z" style="stroke: rgb(68, 68, 68); stroke-opacity: 1; fill: rgb(0, 204, 150); fill-opacity: 0.6; stroke-width: 0; opacity: 1;"/><path class="sankey-link" d="M7.50114,43.56045454545459C188.10057000000003,43.56045454545459 188.10057000000003,244.16994382022472 368.70000000000005,244.16994382022472L368.70000000000005,254.96539836567928C188.10057000000003,254.96539836567928 188.10057000000003,54.35590909090914 7.50114,54.35590909090914Z" style="stroke: rgb(68, 68, 68); stroke-opacity: 1; fill: rgb(255, 161, 90); fill-opacity: 0.6; stroke-width: 0; opacity: 1;"/><path class="sankey-link" d="M7.50114,54.35590909090914C188.10057000000003,54.35590909090914 188.10057000000003,281.2891215526047 368.70000000000005,281.2891215526047L368.70000000000005,292.0845760980592C188.10057000000003,292.0845760980592 188.10057000000003,65.15136363636368 7.50114,65.15136363636368Z" style="stroke: rgb(68, 68, 68); stroke-opacity: 1; fill: rgb(171, 99, 250); fill-opacity: 0.6; stroke-width: 0; opacity: 1;"/><path class="sankey-link" d="M7.50114,65.15136363636368C188.10057000000003,65.15136363636368 188.10057000000003,347.86935648621045 368.70000000000005,347.86935648621045L368.70000000000005,350.0284473953013C188.10057000000003,350.0284473953013 188.10057000000003,67.31045454545459 7.50114,67.31045454545459Z" style="stroke: rgb(68, 68, 68); stroke-opacity: 1; fill: rgb(239, 85, 59); fill-opacity: 0.6; stroke-width: 0; opacity: 1;"/><path class="sankey-link" d="M7.50114,95.04727272727263C188.10057000000003,95.04727272727263 188.10057000000003,14.260699693564884 368.70000000000005,14.260699693564884L368.70000000000005,18.578881511746705C188.10057000000003,18.578881511746705 188.10057000000003,99.36545454545444 7.50114,99.36545454545444Z" style="stroke: rgb(68, 68, 68); stroke-opacity: 1; fill: rgb(25, 211, 243); fill-opacity: 0.6; stroke-width: 0; opacity: 1;"/><path class="sankey-link" d="M7.50114,99.36545454545444C188.10057000000003,99.36545454545444 188.10057000000003,55.33587844739515 368.70000000000005,55.33587844739515L368.70000000000005,57.49496935648606C188.10057000000003,57.49496935648606 188.10057000000003,101.52454545454535 7.50114,101.52454545454535Z" style="stroke: rgb(68, 68, 68); stroke-opacity: 1; fill: rgb(99, 110, 250); fill-opacity: 0.6; stroke-width: 0; opacity: 1;"/><path class="sankey-link" d="M7.50114,101.52454545454535C188.10057000000003,101.52454545454535 188.10057000000003,152.32454034729318 368.70000000000005,152.32454034729318L368.70000000000005,156.642722165475C188.10057000000003,156.642722165475 188.10057000000003,105.84272727272716 7.50114,105.84272727272716Z" style="stroke: rgb(68, 68, 68); stroke-opacity: 1; fill: rgb(0, 204, 150); fill-opacity: 0.6; stroke-width: 0; opacity: 1;"/><path class="sankey-link" d="M7.50114,105.84272727272716C188.10057000000003,105.84272727272716 188.10057000000003,254.96539836567928 368.70000000000005,254.96539836567928L368.70000000000005,263.6017620020429C188.10057000000003,263.6017620020429 188.10057000000003,114.47909090909079 7.50114,114.47909090909079Z" style="stroke: rgb(68, 68, 68); stroke-opacity: 1; fill: rgb(255, 161, 90); fill-opacity: 0.6; stroke-width: 0; opacity: 1;"/><path class="sankey-link" d="M7.50114,114.4790909090908C188.10057000000003,114.4790909090908 188.10057000000003,292.08457609805924 368.70000000000005,292.08457609805924L368.70000000000005,296.4027579162411C188.10057000000003,296.4027579162411 188.10057000000003,118.79727272727261 7.50114,118.79727272727261Z" style="stroke: rgb(68, 68, 68); stroke-opacity: 1; fill: rgb(171, 99, 250); fill-opacity: 0.6; stroke-width: 0; opacity: 1;"/><path class="sankey-link" d="M7.50114,118.79727272727261C188.10057000000003,118.79727272727261 188.10057000000003,350.0284473953014 368.70000000000005,350.0284473953014L368.70000000000005,352.18753830439226C188.10057000000003,352.18753830439226 188.10057000000003,120.95636363636352 7.50114,120.95636363636352Z" style="stroke: rgb(68, 68, 68); stroke-opacity: 1; fill: rgb(239, 85, 59); fill-opacity: 0.6; stroke-width: 0; opacity: 1;"/><path class="sankey-link" d="M7.50114,120.95636363636352C188.10057000000003,120.95636363636352 188.10057000000003,608.8792134831463 368.70000000000005,608.8792134831463L368.70000000000005,615.356486210419C188.10057000000003,615.356486210419 188.10057000000003,127.43363636363624 7.50114,127.43363636363624Z" style="stroke: rgb(68, 68, 68); stroke-opacity: 1; fill: rgb(182, 232, 128); fill-opacity: 0.6; stroke-width: 0; opacity: 1;"/><path class="sankey-link" d="M7.50114,127.43363636363627C188.10057000000003,127.43363636363627 188.10057000000003,703.4687691521963 368.70000000000005,703.4687691521963L368.70000000000005,705.6278600612873C188.10057000000003,705.6278600612873 188.10057000000003,129.5927272727272 7.50114,129.5927272727272Z" style="stroke: rgb(68, 68, 68); stroke-opacity: 1; fill: rgb(255, 102, 146); fill-opacity: 0.6; stroke-width: 0; opacity: 1;"/><path class="sankey-link" d="M7.50114,156.24818181818188C188.10057000000003,156.24818181818188 188.10057000000003,18.5788815117467 368.70000000000005,18.5788815117467L368.70000000000005,25.056154239019428C188.10057000000003,25.056154239019428 188.10057000000003,162.72545454545462 7.50114,162.72545454545462Z" style="stroke: rgb(68, 68, 68); stroke-opacity: 1; fill: rgb(25, 211, 243); fill-opacity: 0.6; stroke-width: 0; opacity: 1;"/><path class="sankey-link" d="M7.50114,162.7254545454546C188.10057000000003,162.7254545454546 188.10057000000003,57.49496935648606 368.70000000000005,57.49496935648606L368.70000000000005,68.29042390194061C188.10057000000003,68.29042390194061 188.10057000000003,173.52090909090916 7.50114,173.52090909090916Z" style="stroke: rgb(68, 68, 68); stroke-opacity: 1; fill: rgb(99, 110, 250); fill-opacity: 0.6; stroke-width: 0; opacity: 1;"/><path class="sankey-link" d="M7.50114,173.52090909090913C188.10057000000003,173.52090909090913 188.10057000000003,263.6017620020429 368.70000000000005,263.6017620020429L368.70000000000005,267.9199438202248C188.10057000000003,267.9199438202248 188.10057000000003,177.83909090909094 7.50114,177.83909090909094Z" style="stroke: rgb(68, 68, 68); stroke-opacity: 1; fill: rgb(255, 161, 90); fill-opacity: 0.6; stroke-width: 0; opacity: 1;"/><path class="sankey-link" d="M7.50114,177.83909090909094C188.10057000000003,177.83909090909094 188.10057000000003,296.40275791624106 368.70000000000005,296.40275791624106L368.70000000000005,302.8800306435138C188.10057000000003,302.8800306435138 188.10057000000003,184.3163636363637 7.50114,184.3163636363637Z" style="stroke: rgb(68, 68, 68); stroke-opacity: 1; fill: rgb(171, 99, 250); fill-opacity: 0.6; stroke-width: 0; opacity: 1;"/><path class="sankey-link" d="M7.50114,184.31636363636366C188.10057000000003,184.31636363636366 188.10057000000003,352.1875383043923 368.70000000000005,352.1875383043923L368.70000000000005,354.3466292134832C188.10057000000003,354.3466292134832 188.10057000000003,186.4754545454546 7.50114,186.4754545454546Z" style="stroke: rgb(68, 68, 68); stroke-opacity: 1; fill: rgb(239, 85, 59); fill-opacity: 0.6; stroke-width: 0; opacity: 1;"/><path class="sankey-link" d="M7.50114,186.47545454545457C188.10057000000003,186.47545454545457 188.10057000000003,615.356486210419 368.70000000000005,615.356486210419L368.70000000000005,617.51557711951C188.10057000000003,617.51557711951 188.10057000000003,188.6345454545455 7.50114,188.6345454545455Z" style="stroke: rgb(68, 68, 68); stroke-opacity: 1; fill: rgb(182, 232, 128); fill-opacity: 0.6; stroke-width: 0; opacity: 1;"/><path class="sankey-link" d="M7.50114,188.63454545454547C188.10057000000003,188.63454545454547 188.10057000000003,669.9155515832485 368.70000000000005,669.9155515832485L368.70000000000005,676.3928243105213C188.10057000000003,676.3928243105213 188.10057000000003,195.11181818181822 7.50114,195.11181818181822Z" style="stroke: rgb(68, 68, 68); stroke-opacity: 1; fill: rgb(255, 151, 255); fill-opacity: 0.6; stroke-width: 0; opacity: 1;"/><path class="sankey-link" d="M7.50114,245.55727272727265C188.10057000000003,245.55727272727265 188.10057000000003,68.29042390194061 368.70000000000005,68.29042390194061L368.70000000000005,96.35860572012243C188.10057000000003,96.35860572012243 188.10057000000003,273.6254545454545 7.50114,273.6254545454545Z" style="stroke: rgb(68, 68, 68); stroke-opacity: 1; fill: rgb(99, 110, 250); fill-opacity: 0.6; stroke-width: 0; opacity: 1;"/><path class="sankey-link" d="M7.50114,273.6254545454545C188.10057000000003,273.6254545454545 188.10057000000003,156.642722165475 368.70000000000005,156.642722165475L368.70000000000005,165.27908580183862C188.10057000000003,165.27908580183862 188.10057000000003,282.2618181818181 7.50114,282.2618181818181Z" style="stroke: rgb(68, 68, 68); stroke-opacity: 1; fill: rgb(0, 204, 150); fill-opacity: 0.6; stroke-width: 0; opacity: 1;"/><path class="sankey-link" d="M7.50114,282.2618181818181C188.10057000000003,282.2618181818181 188.10057000000003,189.5830183861084 368.70000000000005,189.5830183861084L368.70000000000005,206.85574565883564C188.10057000000003,206.85574565883564 188.10057000000003,299.53454545454537 7.50114,299.53454545454537Z" style="stroke: rgb(68, 68, 68); stroke-opacity: 1; fill: rgb(254, 203, 82); fill-opacity: 0.6; stroke-width: 0; opacity: 1;"/><path class="sankey-link" d="M7.50114,299.53454545454537C188.10057000000003,299.53454545454537 188.10057000000003,302.8800306435138 368.70000000000005,302.8800306435138L368.70000000000005,320.15275791624106C188.10057000000003,320.15275791624106 188.10057000000003,316.8072727272726 7.50114,316.8072727272726Z" style="stroke: rgb(68, 68, 68); stroke-opacity: 1; fill: rgb(171, 99, 250); fill-opacity: 0.6; stroke-width: 0; opacity: 1;"/><path class="sankey-link" d="M7.50114,316.8072727272726C188.10057000000003,316.8072727272726 188.10057000000003,354.34662921348325 368.70000000000005,354.34662921348325L368.70000000000005,438.55117466802875C188.10057000000003,438.55117466802875 188.10057000000003,401.0118181818181 7.50114,401.0118181818181Z" style="stroke: rgb(68, 68, 68); stroke-opacity: 1; fill: rgb(239, 85, 59); fill-opacity: 0.6; stroke-width: 0; opacity: 1;"/><path class="sankey-link" d="M7.50114,401.01181818181806C188.10057000000003,401.01181818181806 188.10057000000003,617.5155771195099 368.70000000000005,617.5155771195099L368.70000000000005,636.9473953013281C188.10057000000003,636.9473953013281 188.10057000000003,420.4436363636362 7.50114,420.4436363636362Z" style="stroke: rgb(68, 68, 68); stroke-opacity: 1; fill: rgb(182, 232, 128); fill-opacity: 0.6; stroke-width: 0; opacity: 1;"/><path class="sankey-link" d="M7.50114,420.44363636363624C188.10057000000003,420.44363636363624 188.10057000000003,676.3928243105213 368.70000000000005,676.3928243105213L368.70000000000005,678.5519152196123C188.10057000000003,678.5519152196123 188.10057000000003,422.6027272727271 7.50114,422.6027272727271Z" style="stroke: rgb(68, 68, 68); stroke-opacity: 1; fill: rgb(255, 151, 255); fill-opacity: 0.6; stroke-width: 0; opacity: 1;"/><path class="sankey-link" d="M7.50114,496.47772727272724C188.10057000000003,496.47772727272724 188.10057000000003,96.35860572012243 368.70000000000005,96.35860572012243L368.70000000000005,124.42678753830424C188.10057000000003,124.42678753830424 188.10057000000003,524.545909090909 7.50114,524.545909090909Z" style="stroke: rgb(68, 68, 68); stroke-opacity: 1; fill: rgb(99, 110, 250); fill-opacity: 0.6; stroke-width: 0; opacity: 1;"/><path class="sankey-link" d="M7.50114,524.545909090909C188.10057000000003,524.545909090909 188.10057000000003,165.27908580183862 368.70000000000005,165.27908580183862L368.70000000000005,173.91544943820224C188.10057000000003,173.91544943820224 188.10057000000003,533.1822727272728 7.50114,533.1822727272728Z" style="stroke: rgb(68, 68, 68); stroke-opacity: 1; fill: rgb(0, 204, 150); fill-opacity: 0.6; stroke-width: 0; opacity: 1;"/><path class="sankey-link" d="M7.50114,533.1822727272727C188.10057000000003,533.1822727272727 188.10057000000003,206.85574565883567 368.70000000000005,206.85574565883567L368.70000000000005,224.12847293156292C188.10057000000003,224.12847293156292 188.10057000000003,550.4549999999999 7.50114,550.4549999999999Z" style="stroke: rgb(68, 68, 68); stroke-opacity: 1; fill: rgb(254, 203, 82); fill-opacity: 0.6; stroke-width: 0; opacity: 1;"/><path class="sankey-link" d="M7.50114,550.4549999999999C188.10057000000003,550.4549999999999 188.10057000000003,320.15275791624106 368.70000000000005,320.15275791624106L368.70000000000005,337.4254851889683C188.10057000000003,337.4254851889683 188.10057000000003,567.7277272727272 7.50114,567.7277272727272Z" style="stroke: rgb(68, 68, 68); stroke-opacity: 1; fill: rgb(171, 99, 250); fill-opacity: 0.6; stroke-width: 0; opacity: 1;"/><path class="sankey-link" d="M7.50114,567.7277272727272C188.10057000000003,567.7277272727272 188.10057000000003,438.5511746680287 368.70000000000005,438.5511746680287L368.70000000000005,524.9148110316651C188.10057000000003,524.9148110316651 188.10057000000003,654.0913636363637 7.50114,654.0913636363637Z" style="stroke: rgb(68, 68, 68); stroke-opacity: 1; fill: rgb(239, 85, 59); fill-opacity: 0.6; stroke-width: 0; opacity: 1;"/><path class="sankey-link" d="M7.50114,654.0913636363636C188.10057000000003,654.0913636363636 188.10057000000003,636.947395301328 368.70000000000005,636.947395301328L368.70000000000005,656.3792134831463C188.10057000000003,656.3792134831463 188.10057000000003,673.5231818181818 7.50114,673.5231818181818Z" style="stroke: rgb(68, 68, 68); stroke-opacity: 1; fill: rgb(182, 232, 128); fill-opacity: 0.6; stroke-width: 0; opacity: 1;"/><path class="sankey-link" d="M7.50114,673.5231818181817C188.10057000000003,673.5231818181817 188.10057000000003,678.5519152196122 368.70000000000005,678.5519152196122L368.70000000000005,680.7110061287032C188.10057000000003,680.7110061287032 188.10057000000003,675.6822727272727 7.50114,675.6822727272727Z" style="stroke: rgb(68, 68, 68); stroke-opacity: 1; fill: rgb(255, 151, 255); fill-opacity: 0.6; stroke-width: 0; opacity: 1;"/><path class="sankey-link" d="M383.70000000000005,14.260699693564884C564.3000000000001,14.260699693564884 564.3000000000001,184.82549256826832 744.9000000000001,184.82549256826832L744.9000000000001,186.98458347735925C564.3000000000001,186.98458347735925 564.3000000000001,16.419790602655794 383.70000000000005,16.419790602655794Z" style="stroke: rgb(68, 68, 68); stroke-opacity: 1; fill: rgb(25, 211, 243); fill-opacity: 0.6; stroke-width: 0; opacity: 1;"/><path class="sankey-link" d="M383.70000000000005,16.419790602655794C564.3000000000001,16.419790602655794 564.3000000000001,393.7422398893883 744.9000000000001,393.7422398893883L744.9000000000001,395.9013307984792C564.3000000000001,395.9013307984792 564.3000000000001,18.5788815117467 383.70000000000005,18.5788815117467Z" style="stroke: rgb(68, 68, 68); stroke-opacity: 1; fill: rgb(25, 211, 243); fill-opacity: 0.6; stroke-width: 0; opacity: 1;"/><path class="sankey-link" d="M383.70000000000005,18.578881511746705C564.3000000000001,18.578881511746705 564.3000000000001,570.8376166609055 744.9000000000001,570.8376166609055L744.9000000000001,577.3148893881782C564.3000000000001,577.3148893881782 564.3000000000001,25.05615423901943 383.70000000000005,25.05615423901943Z" style="stroke: rgb(68, 68, 68); stroke-opacity: 1; fill: rgb(25, 211, 243); fill-opacity: 0.6; stroke-width: 0; opacity: 1;"/><path class="sankey-link" d="M383.70000000000005,38.06315117466788C564.3000000000001,38.06315117466788 564.3000000000001,22.276088835119424 744.9000000000001,22.276088835119424L744.9000000000001,43.86699792602852C564.3000000000001,43.86699792602852 564.3000000000001,59.65406026557697 383.70000000000005,59.65406026557697Z" style="stroke: rgb(68, 68, 68); stroke-opacity: 1; fill: rgb(99, 110, 250); fill-opacity: 0.6; stroke-width: 0; opacity: 1;"/><path class="sankey-link" d="M383.70000000000005,59.65406026557697C564.3000000000001,59.65406026557697 564.3000000000001,186.98458347735922 744.9000000000001,186.98458347735922L744.9000000000001,195.62094711372285C564.3000000000001,195.62094711372285 564.3000000000001,68.29042390194061 383.70000000000005,68.29042390194061Z" style="stroke: rgb(68, 68, 68); stroke-opacity: 1; fill: rgb(99, 110, 250); fill-opacity: 0.6; stroke-width: 0; opacity: 1;"/><path class="sankey-link" d="M383.70000000000005,68.29042390194061C564.3000000000001,68.29042390194061 564.3000000000001,281.7608451434498 744.9000000000001,281.7608451434498L744.9000000000001,296.87448150708616C564.3000000000001,296.87448150708616 564.3000000000001,83.40406026557699 383.70000000000005,83.40406026557699Z" style="stroke: rgb(68, 68, 68); stroke-opacity: 1; fill: rgb(99, 110, 250); fill-opacity: 0.6; stroke-width: 0; opacity: 1;"/><path class="sankey-link" d="M383.70000000000005,83.40406026557697C564.3000000000001,83.40406026557697 564.3000000000001,395.90133079847925 744.9000000000001,395.90133079847925L744.9000000000001,423.9695126166611C564.3000000000001,423.9695126166611 564.3000000000001,111.47224208375879 383.70000000000005,111.47224208375879Z" style="stroke: rgb(68, 68, 68); stroke-opacity: 1; fill: rgb(99, 110, 250); fill-opacity: 0.6; stroke-width: 0; opacity: 1;"/><path class="sankey-link" d="M383.70000000000005,111.4722420837588C564.3000000000001,111.4722420837588 564.3000000000001,577.3148893881782 744.9000000000001,577.3148893881782L744.9000000000001,601.0648893881782C564.3000000000001,601.0648893881782 564.3000000000001,135.2222420837588 383.70000000000005,135.2222420837588Z" style="stroke: rgb(68, 68, 68); stroke-opacity: 1; fill: rgb(99, 110, 250); fill-opacity: 0.6; stroke-width: 0; opacity: 1;"/><path class="sankey-link" d="M383.70000000000005,148.00635852911137C564.3000000000001,148.00635852911137 564.3000000000001,43.86699792602852 744.9000000000001,43.86699792602852L744.9000000000001,46.026088835119424C564.3000000000001,46.026088835119424 564.3000000000001,150.1654494382023 383.70000000000005,150.1654494382023Z" style="stroke: rgb(68, 68, 68); stroke-opacity: 1; fill: rgb(0, 204, 150); fill-opacity: 0.6; stroke-width: 0; opacity: 1;"/><path class="sankey-link" d="M383.70000000000005,150.16544943820227C564.3000000000001,150.16544943820227 564.3000000000001,195.62094711372285 744.9000000000001,195.62094711372285L744.9000000000001,199.93912893190466C564.3000000000001,199.93912893190466 564.3000000000001,154.4836312563841 383.70000000000005,154.4836312563841Z" style="stroke: rgb(68, 68, 68); stroke-opacity: 1; fill: rgb(0, 204, 150); fill-opacity: 0.6; stroke-width: 0; opacity: 1;"/><path class="sankey-link" d="M383.70000000000005,154.4836312563841C564.3000000000001,154.4836312563841 564.3000000000001,296.87448150708616 744.9000000000001,296.87448150708616L744.9000000000001,303.3517542343589C564.3000000000001,303.3517542343589 564.3000000000001,160.96090398365683 383.70000000000005,160.96090398365683Z" style="stroke: rgb(68, 68, 68); stroke-opacity: 1; fill: rgb(0, 204, 150); fill-opacity: 0.6; stroke-width: 0; opacity: 1;"/><path class="sankey-link" d="M383.70000000000005,160.9609039836568C564.3000000000001,160.9609039836568 564.3000000000001,423.96951261666106 744.9000000000001,423.96951261666106L744.9000000000001,430.4467853439338C564.3000000000001,430.4467853439338 564.3000000000001,167.43817671092955 383.70000000000005,167.43817671092955Z" style="stroke: rgb(68, 68, 68); stroke-opacity: 1; fill: rgb(0, 204, 150); fill-opacity: 0.6; stroke-width: 0; opacity: 1;"/><path class="sankey-link" d="M383.70000000000005,167.43817671092953C564.3000000000001,167.43817671092953 564.3000000000001,601.0648893881782 744.9000000000001,601.0648893881782L744.9000000000001,609.701253024542C564.3000000000001,609.701253024542 564.3000000000001,176.07454034729315 383.70000000000005,176.07454034729315Z" style="stroke: rgb(68, 68, 68); stroke-opacity: 1; fill: rgb(0, 204, 150); fill-opacity: 0.6; stroke-width: 0; opacity: 1;"/><path class="sankey-link" d="M383.70000000000005,189.5830183861084C564.3000000000001,189.5830183861084 564.3000000000001,46.026088835119424 744.9000000000001,46.026088835119424L744.9000000000001,58.98063428966488C564.3000000000001,58.98063428966488 564.3000000000001,202.53756384065383 383.70000000000005,202.53756384065383Z" style="stroke: rgb(68, 68, 68); stroke-opacity: 1; fill: rgb(254, 203, 82); fill-opacity: 0.6; stroke-width: 0; opacity: 1;"/><path class="sankey-link" d="M383.70000000000005,202.53756384065386C564.3000000000001,202.53756384065386 564.3000000000001,199.93912893190466 744.9000000000001,199.93912893190466L744.9000000000001,202.0982198409956C564.3000000000001,202.0982198409956 564.3000000000001,204.6966547497448 383.70000000000005,204.6966547497448Z" style="stroke: rgb(68, 68, 68); stroke-opacity: 1; fill: rgb(254, 203, 82); fill-opacity: 0.6; stroke-width: 0; opacity: 1;"/><path class="sankey-link" d="M383.70000000000005,204.69665474974477C564.3000000000001,204.69665474974477 564.3000000000001,303.3517542343589 744.9000000000001,303.3517542343589L744.9000000000001,311.98811787072253C564.3000000000001,311.98811787072253 564.3000000000001,213.3330183861084 383.70000000000005,213.3330183861084Z" style="stroke: rgb(68, 68, 68); stroke-opacity: 1; fill: rgb(254, 203, 82); fill-opacity: 0.6; stroke-width: 0; opacity: 1;"/><path class="sankey-link" d="M383.70000000000005,213.3330183861084C564.3000000000001,213.3330183861084 564.3000000000001,430.4467853439338 744.9000000000001,430.4467853439338L744.9000000000001,441.2422398893883C564.3000000000001,441.2422398893883 564.3000000000001,224.12847293156295 383.70000000000005,224.12847293156295Z" style="stroke: rgb(68, 68, 68); stroke-opacity: 1; fill: rgb(254, 203, 82); fill-opacity: 0.6; stroke-width: 0; opacity: 1;"/><path class="sankey-link" d="M383.70000000000005,224.12847293156295C564.3000000000001,224.12847293156295 564.3000000000001,609.7012530245419 744.9000000000001,609.7012530245419L744.9000000000001,616.1785257518146C564.3000000000001,616.1785257518146 564.3000000000001,230.6057456588357 383.70000000000005,230.6057456588357Z" style="stroke: rgb(68, 68, 68); stroke-opacity: 1; fill: rgb(254, 203, 82); fill-opacity: 0.6; stroke-width: 0; opacity: 1;"/><path class="sankey-link" d="M383.70000000000005,244.16994382022472C564.3000000000001,244.16994382022472 564.3000000000001,58.98063428966488 744.9000000000001,58.98063428966488L744.9000000000001,65.45790701693761C564.3000000000001,65.45790701693761 564.3000000000001,250.64721654749746 383.70000000000005,250.64721654749746Z" style="stroke: rgb(68, 68, 68); stroke-opacity: 1; fill: rgb(255, 161, 90); fill-opacity: 0.6; stroke-width: 0; opacity: 1;"/><path class="sankey-link" d="M383.70000000000005,250.64721654749744C564.3000000000001,250.64721654749744 564.3000000000001,202.09821984099557 744.9000000000001,202.09821984099557L744.9000000000001,204.2573107500865C564.3000000000001,204.2573107500865 564.3000000000001,252.80630745658837 383.70000000000005,252.80630745658837Z" style="stroke: rgb(68, 68, 68); stroke-opacity: 1; fill: rgb(255, 161, 90); fill-opacity: 0.6; stroke-width: 0; opacity: 1;"/><path class="sankey-link" d="M383.70000000000005,252.8063074565883C564.3000000000001,252.8063074565883 564.3000000000001,616.1785257518146 744.9000000000001,616.1785257518146L744.9000000000001,626.9739802972691C564.3000000000001,626.9739802972691 564.3000000000001,263.60176200204285 383.70000000000005,263.60176200204285Z" style="stroke: rgb(68, 68, 68); stroke-opacity: 1; fill: rgb(255, 161, 90); fill-opacity: 0.6; stroke-width: 0; opacity: 1;"/><path class="sankey-link" d="M383.70000000000005,281.2891215526047C564.3000000000001,281.2891215526047 564.3000000000001,65.45790701693761 744.9000000000001,65.45790701693761L744.9000000000001,84.8897251987558C564.3000000000001,84.8897251987558 564.3000000000001,300.7209397344228 383.70000000000005,300.7209397344228Z" style="stroke: rgb(68, 68, 68); stroke-opacity: 1; fill: rgb(171, 99, 250); fill-opacity: 0.6; stroke-width: 0; opacity: 1;"/><path class="sankey-link" d="M383.70000000000005,300.72093973442287C564.3000000000001,300.72093973442287 564.3000000000001,204.25731075008648 744.9000000000001,204.25731075008648L744.9000000000001,210.73458347735922C564.3000000000001,210.73458347735922 564.3000000000001,307.1982124616956 383.70000000000005,307.1982124616956Z" style="stroke: rgb(68, 68, 68); stroke-opacity: 1; fill: rgb(171, 99, 250); fill-opacity: 0.6; stroke-width: 0; opacity: 1;"/><path class="sankey-link" d="M383.70000000000005,307.1982124616956C564.3000000000001,307.1982124616956 564.3000000000001,311.98811787072253 744.9000000000001,311.98811787072253L744.9000000000001,322.78357241617704C564.3000000000001,322.78357241617704 564.3000000000001,317.9936670071501 383.70000000000005,317.9936670071501Z" style="stroke: rgb(68, 68, 68); stroke-opacity: 1; fill: rgb(171, 99, 250); fill-opacity: 0.6; stroke-width: 0; opacity: 1;"/><path class="sankey-link" d="M383.70000000000005,317.9936670071502C564.3000000000001,317.9936670071502 564.3000000000001,441.2422398893884 744.9000000000001,441.2422398893884L744.9000000000001,452.0376944348429C564.3000000000001,452.0376944348429 564.3000000000001,328.7891215526047 383.70000000000005,328.7891215526047Z" style="stroke: rgb(68, 68, 68); stroke-opacity: 1; fill: rgb(171, 99, 250); fill-opacity: 0.6; stroke-width: 0; opacity: 1;"/><path class="sankey-link" d="M383.70000000000005,328.78912155260474C564.3000000000001,328.78912155260474 564.3000000000001,626.9739802972691 744.9000000000001,626.9739802972691L744.9000000000001,633.4512530245419C564.3000000000001,633.4512530245419 564.3000000000001,335.2663942798775 383.70000000000005,335.2663942798775Z" style="stroke: rgb(68, 68, 68); stroke-opacity: 1; fill: rgb(171, 99, 250); fill-opacity: 0.6; stroke-width: 0; opacity: 1;"/><path class="sankey-link" d="M383.70000000000005,347.86935648621045C564.3000000000001,347.86935648621045 564.3000000000001,84.8897251987558 744.9000000000001,84.8897251987558L744.9000000000001,143.18517974421036C564.3000000000001,143.18517974421036 564.3000000000001,406.16481103166495 383.70000000000005,406.16481103166495Z" style="stroke: rgb(68, 68, 68); stroke-opacity: 1; fill: rgb(239, 85, 59); fill-opacity: 0.6; stroke-width: 0; opacity: 1;"/><path class="sankey-link" d="M383.70000000000005,406.164811031665C564.3000000000001,406.164811031665 564.3000000000001,210.7345834773592 744.9000000000001,210.7345834773592L744.9000000000001,243.12094711372282C564.3000000000001,243.12094711372282 564.3000000000001,438.55117466802864 383.70000000000005,438.55117466802864Z" style="stroke: rgb(68, 68, 68); stroke-opacity: 1; fill: rgb(239, 85, 59); fill-opacity: 0.6; stroke-width: 0; opacity: 1;"/><path class="sankey-link" d="M383.70000000000005,438.55117466802864C564.3000000000001,438.55117466802864 564.3000000000001,322.7835724161771 744.9000000000001,322.7835724161771L744.9000000000001,363.80629968890435C564.3000000000001,363.80629968890435 564.3000000000001,479.5739019407559 383.70000000000005,479.5739019407559Z" style="stroke: rgb(68, 68, 68); stroke-opacity: 1; fill: rgb(239, 85, 59); fill-opacity: 0.6; stroke-width: 0; opacity: 1;"/><path class="sankey-link" d="M383.70000000000005,479.5739019407559C564.3000000000001,479.5739019407559 564.3000000000001,452.03769443484293 744.9000000000001,452.03769443484293L744.9000000000001,521.128603525752C564.3000000000001,521.128603525752 564.3000000000001,548.664811031665 383.70000000000005,548.664811031665Z" style="stroke: rgb(68, 68, 68); stroke-opacity: 1; fill: rgb(239, 85, 59); fill-opacity: 0.6; stroke-width: 0; opacity: 1;"/><path class="sankey-link" d="M383.70000000000005,548.664811031665C564.3000000000001,548.664811031665 564.3000000000001,633.4512530245419 744.9000000000001,633.4512530245419L744.9000000000001,683.1103439336329C564.3000000000001,683.1103439336329 564.3000000000001,598.323901940756 383.70000000000005,598.323901940756Z" style="stroke: rgb(68, 68, 68); stroke-opacity: 1; fill: rgb(239, 85, 59); fill-opacity: 0.6; stroke-width: 0; opacity: 1;"/><path class="sankey-link" d="M383.70000000000005,608.8792134831463C564.3000000000001,608.8792134831463 564.3000000000001,143.18517974421036 744.9000000000001,143.18517974421036L744.9000000000001,153.98063428966492C564.3000000000001,153.98063428966492 564.3000000000001,619.6746680286008 383.70000000000005,619.6746680286008Z" style="stroke: rgb(68, 68, 68); stroke-opacity: 1; fill: rgb(182, 232, 128); fill-opacity: 0.6; stroke-width: 0; opacity: 1;"/><path class="sankey-link" d="M383.70000000000005,619.6746680286008C564.3000000000001,619.6746680286008 564.3000000000001,243.12094711372282 744.9000000000001,243.12094711372282L744.9000000000001,253.91640165917738C564.3000000000001,253.91640165917738 564.3000000000001,630.4701225740553 383.70000000000005,630.4701225740553Z" style="stroke: rgb(68, 68, 68); stroke-opacity: 1; fill: rgb(182, 232, 128); fill-opacity: 0.6; stroke-width: 0; opacity: 1;"/><path class="sankey-link" d="M383.70000000000005,630.4701225740553C564.3000000000001,630.4701225740553 564.3000000000001,363.80629968890435 744.9000000000001,363.80629968890435L744.9000000000001,365.9653905979952C564.3000000000001,365.9653905979952 564.3000000000001,632.6292134831463 383.70000000000005,632.6292134831463Z" style="stroke: rgb(68, 68, 68); stroke-opacity: 1; fill: rgb(182, 232, 128); fill-opacity: 0.6; stroke-width: 0; opacity: 1;"/><path class="sankey-link" d="M383.70000000000005,632.6292134831461C564.3000000000001,632.6292134831461 564.3000000000001,521.128603525752 744.9000000000001,521.128603525752L744.9000000000001,534.0831489802976C564.3000000000001,534.0831489802976 564.3000000000001,645.5837589376916 383.70000000000005,645.5837589376916Z" style="stroke: rgb(68, 68, 68); stroke-opacity: 1; fill: rgb(182, 232, 128); fill-opacity: 0.6; stroke-width: 0; opacity: 1;"/><path class="sankey-link" d="M383.70000000000005,645.5837589376916C564.3000000000001,645.5837589376916 564.3000000000001,683.1103439336327 744.9000000000001,683.1103439336327L744.9000000000001,693.9057984790873C564.3000000000001,693.9057984790873 564.3000000000001,656.3792134831461 383.70000000000005,656.3792134831461Z" style="stroke: rgb(68, 68, 68); stroke-opacity: 1; fill: rgb(182, 232, 128); fill-opacity: 0.6; stroke-width: 0; opacity: 1;"/><path class="sankey-link" d="M383.70000000000005,669.9155515832485C564.3000000000001,669.9155515832485 564.3000000000001,153.98063428966492 744.9000000000001,153.98063428966492L744.9000000000001,158.29881610784673C564.3000000000001,158.29881610784673 564.3000000000001,674.2337334014303 383.70000000000005,674.2337334014303Z" style="stroke: rgb(68, 68, 68); stroke-opacity: 1; fill: rgb(255, 151, 255); fill-opacity: 0.6; stroke-width: 0; opacity: 1;"/><path class="sankey-link" d="M383.70000000000005,674.2337334014304C564.3000000000001,674.2337334014304 564.3000000000001,253.9164016591774 744.9000000000001,253.9164016591774L744.9000000000001,258.23458347735925C564.3000000000001,258.23458347735925 564.3000000000001,678.5519152196122 383.70000000000005,678.5519152196122Z" style="stroke: rgb(68, 68, 68); stroke-opacity: 1; fill: rgb(255, 151, 255); fill-opacity: 0.6; stroke-width: 0; opacity: 1;"/><path class="sankey-link" d="M383.70000000000005,678.5519152196123C564.3000000000001,678.5519152196123 564.3000000000001,534.0831489802976 744.9000000000001,534.0831489802976L744.9000000000001,540.5604217075703C564.3000000000001,540.5604217075703 564.3000000000001,685.029187946885 383.70000000000005,685.029187946885Z" style="stroke: rgb(68, 68, 68); stroke-opacity: 1; fill: rgb(255, 151, 255); fill-opacity: 0.6; stroke-width: 0; opacity: 1;"/><path class="sankey-link" d="M383.70000000000005,685.029187946885C564.3000000000001,685.029187946885 564.3000000000001,693.9057984790873 744.9000000000001,693.9057984790873L744.9000000000001,698.223980297269C564.3000000000001,698.223980297269 564.3000000000001,689.3473697650668 383.70000000000005,689.3473697650668Z" style="stroke: rgb(68, 68, 68); stroke-opacity: 1; fill: rgb(255, 151, 255); fill-opacity: 0.6; stroke-width: 0; opacity: 1;"/><path class="sankey-link" d="M759.9000000000001,217.21185620463194C946.19943,217.21185620463194 946.19943,223.9327428275147 1132.49886,223.9327428275147L1132.49886,226.09183373660562C946.19943,226.09183373660562 946.19943,219.37094711372288 759.9000000000001,219.37094711372288Z" style="stroke: rgb(68, 68, 68); stroke-opacity: 1; fill: rgb(25, 211, 243); fill-opacity: 0.6; stroke-width: 0; opacity: 1;"/><path class="sankey-link" d="M759.9000000000001,393.7422398893883C946.19943,393.7422398893883 946.19943,390.6396128586243 1132.49886,390.6396128586243L1132.49886,392.79870376771515C946.19943,392.79870376771515 946.19943,395.9013307984792 759.9000000000001,395.9013307984792Z" style="stroke: rgb(68, 68, 68); stroke-opacity: 1; fill: rgb(25, 211, 243); fill-opacity: 0.6; stroke-width: 0; opacity: 1;"/><path class="sankey-link" d="M759.9000000000001,570.8376166609055C946.19943,570.8376166609055 946.19943,564.8577428275148 1132.49886,564.8577428275148L1132.49886,569.1759246456966C946.19943,569.1759246456966 946.19943,575.1557984790873 759.9000000000001,575.1557984790873Z" style="stroke: rgb(68, 68, 68); stroke-opacity: 1; fill: rgb(25, 211, 243); fill-opacity: 0.6; stroke-width: 0; opacity: 1;"/><path class="sankey-link" d="M759.9000000000001,635.610343933633C946.19943,635.610343933633 946.19943,643.3304441755963 1132.49886,643.3304441755963L1132.49886,645.4895350846873C946.19943,645.4895350846873 946.19943,637.769434842724 759.9000000000001,637.769434842724Z" style="stroke: rgb(68, 68, 68); stroke-opacity: 1; fill: rgb(25, 211, 243); fill-opacity: 0.6; stroke-width: 0; opacity: 1;"/><path class="sankey-link" d="M759.9000000000001,22.276088835119424C946.19943,22.276088835119424 946.19943,13.972865537504326 1132.49886,13.972865537504326L1132.49886,31.2455928102316C946.19943,31.2455928102316 946.19943,39.5488161078467 759.9000000000001,39.5488161078467Z" style="stroke: rgb(68, 68, 68); stroke-opacity: 1; fill: rgb(99, 110, 250); fill-opacity: 0.6; stroke-width: 0; opacity: 1;"/><path class="sankey-link" d="M759.9000000000001,100.00336156239216C946.19943,100.00336156239216 946.19943,105.35265295540964 1132.49886,105.35265295540964L1132.49886,109.67083477359145C946.19943,109.67083477359145 946.19943,104.32154338057397 759.9000000000001,104.32154338057397Z" style="stroke: rgb(68, 68, 68); stroke-opacity: 1; fill: rgb(99, 110, 250); fill-opacity: 0.6; stroke-width: 0; opacity: 1;"/><path class="sankey-link" d="M759.9000000000001,184.82549256826832C946.19943,184.82549256826832 946.19943,177.5497839612858 1132.49886,177.5497839612858L1132.49886,181.86796577946762C946.19943,181.86796577946762 946.19943,189.14367438645013 759.9000000000001,189.14367438645013Z" style="stroke: rgb(68, 68, 68); stroke-opacity: 1; fill: rgb(99, 110, 250); fill-opacity: 0.6; stroke-width: 0; opacity: 1;"/><path class="sankey-link" d="M759.9000000000001,219.37094711372285C946.19943,219.37094711372285 946.19943,226.0918337366056 1132.49886,226.0918337366056L1132.49886,230.4100155547874C946.19943,230.4100155547874 946.19943,223.68912893190466 759.9000000000001,223.68912893190466Z" style="stroke: rgb(68, 68, 68); stroke-opacity: 1; fill: rgb(99, 110, 250); fill-opacity: 0.6; stroke-width: 0; opacity: 1;"/><path class="sankey-link" d="M759.9000000000001,281.7608451434498C946.19943,281.7608451434498 946.19943,279.0707137919115 1132.49886,279.0707137919115L1132.49886,283.38889561009336C946.19943,283.38889561009336 946.19943,286.07902696163166 759.9000000000001,286.07902696163166Z" style="stroke: rgb(68, 68, 68); stroke-opacity: 1; fill: rgb(99, 110, 250); fill-opacity: 0.6; stroke-width: 0; opacity: 1;"/><path class="sankey-link" d="M759.9000000000001,292.55629968890435C946.19943,292.55629968890435 946.19943,303.8034393363291 1132.49886,303.8034393363291L1132.49886,314.5988938817836C946.19943,314.5988938817836 946.19943,303.35175423435885 759.9000000000001,303.35175423435885Z" style="stroke: rgb(68, 68, 68); stroke-opacity: 1; fill: rgb(99, 110, 250); fill-opacity: 0.6; stroke-width: 0; opacity: 1;"/><path class="sankey-link" d="M759.9000000000001,395.90133079847925C946.19943,395.90133079847925 946.19943,392.7987037677152 1132.49886,392.7987037677152L1132.49886,412.23052194953334C946.19943,412.23052194953334 946.19943,415.3331489802974 759.9000000000001,415.3331489802974Z" style="stroke: rgb(68, 68, 68); stroke-opacity: 1; fill: rgb(99, 110, 250); fill-opacity: 0.6; stroke-width: 0; opacity: 1;"/><path class="sankey-link" d="M759.9000000000001,497.37860352575206C946.19943,497.37860352575206 946.19943,507.8691669547184 1132.49886,507.8691669547184L1132.49886,516.5055305910821C946.19943,516.5055305910821 946.19943,506.0149671621157 759.9000000000001,506.0149671621157Z" style="stroke: rgb(68, 68, 68); stroke-opacity: 1; fill: rgb(99, 110, 250); fill-opacity: 0.6; stroke-width: 0; opacity: 1;"/><path class="sankey-link" d="M759.9000000000001,575.1557984790874C946.19943,575.1557984790874 946.19943,569.1759246456967 1132.49886,569.1759246456967L1132.49886,582.1304701002422C946.19943,582.1304701002422 946.19943,588.1103439336329 759.9000000000001,588.1103439336329Z" style="stroke: rgb(68, 68, 68); stroke-opacity: 1; fill: rgb(99, 110, 250); fill-opacity: 0.6; stroke-width: 0; opacity: 1;"/><path class="sankey-link" d="M759.9000000000001,637.7694348427239C946.19943,637.7694348427239 946.19943,645.4895350846872 1132.49886,645.4895350846872L1132.49886,656.2849896301417C946.19943,656.2849896301417 946.19943,648.5648893881784 759.9000000000001,648.5648893881784Z" style="stroke: rgb(68, 68, 68); stroke-opacity: 1; fill: rgb(99, 110, 250); fill-opacity: 0.6; stroke-width: 0; opacity: 1;"/><path class="sankey-link" d="M759.9000000000001,39.5488161078467C946.19943,39.5488161078467 946.19943,31.2455928102316 1132.49886,31.2455928102316L1132.49886,33.404683719322506C946.19943,33.404683719322506 946.19943,41.707907016937604 759.9000000000001,41.707907016937604Z" style="stroke: rgb(68, 68, 68); stroke-opacity: 1; fill: rgb(0, 204, 150); fill-opacity: 0.6; stroke-width: 0; opacity: 1;"/><path class="sankey-link" d="M759.9000000000001,189.14367438645013C946.19943,189.14367438645013 946.19943,181.86796577946762 1132.49886,181.86796577946762L1132.49886,184.02705668855856C946.19943,184.02705668855856 946.19943,191.30276529554106 759.9000000000001,191.30276529554106Z" style="stroke: rgb(68, 68, 68); stroke-opacity: 1; fill: rgb(0, 204, 150); fill-opacity: 0.6; stroke-width: 0; opacity: 1;"/><path class="sankey-link" d="M759.9000000000001,223.68912893190466C946.19943,223.68912893190466 946.19943,230.4100155547874 1132.49886,230.4100155547874L1132.49886,232.56910646387834C946.19943,232.56910646387834 946.19943,225.8482198409956 759.9000000000001,225.8482198409956Z" style="stroke: rgb(68, 68, 68); stroke-opacity: 1; fill: rgb(0, 204, 150); fill-opacity: 0.6; stroke-width: 0; opacity: 1;"/><path class="sankey-link" d="M759.9000000000001,286.0790269616316C946.19943,286.0790269616316 946.19943,283.3888956100933 1132.49886,283.3888956100933L1132.49886,285.5479865191842C946.19943,285.5479865191842 946.19943,288.2381178707225 759.9000000000001,288.2381178707225Z" style="stroke: rgb(68, 68, 68); stroke-opacity: 1; fill: rgb(0, 204, 150); fill-opacity: 0.6; stroke-width: 0; opacity: 1;"/><path class="sankey-link" d="M759.9000000000001,303.3517542343589C946.19943,303.3517542343589 946.19943,314.5988938817837 1132.49886,314.5988938817837L1132.49886,318.91707569996555C946.19943,318.91707569996555 946.19943,307.6699360525408 759.9000000000001,307.6699360525408Z" style="stroke: rgb(68, 68, 68); stroke-opacity: 1; fill: rgb(0, 204, 150); fill-opacity: 0.6; stroke-width: 0; opacity: 1;"/><path class="sankey-link" d="M759.9000000000001,415.33314898029744C946.19943,415.33314898029744 946.19943,412.2305219495334 1132.49886,412.2305219495334L1132.49886,416.54870376771527C946.19943,416.54870376771527 946.19943,419.6513307984793 759.9000000000001,419.6513307984793Z" style="stroke: rgb(68, 68, 68); stroke-opacity: 1; fill: rgb(0, 204, 150); fill-opacity: 0.6; stroke-width: 0; opacity: 1;"/><path class="sankey-link" d="M759.9000000000001,506.0149671621157C946.19943,506.0149671621157 946.19943,516.5055305910821 1132.49886,516.5055305910821L1132.49886,518.6646215001731C946.19943,518.6646215001731 946.19943,508.17405807120656 759.9000000000001,508.17405807120656Z" style="stroke: rgb(68, 68, 68); stroke-opacity: 1; fill: rgb(0, 204, 150); fill-opacity: 0.6; stroke-width: 0; opacity: 1;"/><path class="sankey-link" d="M759.9000000000001,588.1103439336329C946.19943,588.1103439336329 946.19943,582.1304701002422 1132.49886,582.1304701002422L1132.49886,588.6077428275149C946.19943,588.6077428275149 946.19943,594.5876166609056 759.9000000000001,594.5876166609056Z" style="stroke: rgb(68, 68, 68); stroke-opacity: 1; fill: rgb(0, 204, 150); fill-opacity: 0.6; stroke-width: 0; opacity: 1;"/><path class="sankey-link" d="M759.9000000000001,648.5648893881784C946.19943,648.5648893881784 946.19943,656.2849896301417 1132.49886,656.2849896301417L1132.49886,658.4440805392327C946.19943,658.4440805392327 946.19943,650.7239802972693 759.9000000000001,650.7239802972693Z" style="stroke: rgb(68, 68, 68); stroke-opacity: 1; fill: rgb(0, 204, 150); fill-opacity: 0.6; stroke-width: 0; opacity: 1;"/><path class="sankey-link" d="M759.9000000000001,41.707907016937604C946.19943,41.707907016937604 946.19943,33.404683719322506 1132.49886,33.404683719322506L1132.49886,39.88195644659524C946.19943,39.88195644659524 946.19943,48.18517974421034 759.9000000000001,48.18517974421034Z" style="stroke: rgb(68, 68, 68); stroke-opacity: 1; fill: rgb(254, 203, 82); fill-opacity: 0.6; stroke-width: 0; opacity: 1;"/><path class="sankey-link" d="M759.9000000000001,104.32154338057397C946.19943,104.32154338057397 946.19943,109.67083477359145 1132.49886,109.67083477359145L1132.49886,116.14810750086417C946.19943,116.14810750086417 946.19943,110.79881610784669 759.9000000000001,110.79881610784669Z" style="stroke: rgb(68, 68, 68); stroke-opacity: 1; fill: rgb(254, 203, 82); fill-opacity: 0.6; stroke-width: 0; opacity: 1;"/><path class="sankey-link" d="M759.9000000000001,191.30276529554104C946.19943,191.30276529554104 946.19943,184.02705668855853 1132.49886,184.02705668855853L1132.49886,186.18614759764947C946.19943,186.18614759764947 946.19943,193.46185620463197 759.9000000000001,193.46185620463197Z" style="stroke: rgb(68, 68, 68); stroke-opacity: 1; fill: rgb(254, 203, 82); fill-opacity: 0.6; stroke-width: 0; opacity: 1;"/><path class="sankey-link" d="M759.9000000000001,307.6699360525407C946.19943,307.6699360525407 946.19943,318.9170756999655 1132.49886,318.9170756999655L1132.49886,327.5534393363291C946.19943,327.5534393363291 946.19943,316.30629968890435 759.9000000000001,316.30629968890435Z" style="stroke: rgb(68, 68, 68); stroke-opacity: 1; fill: rgb(254, 203, 82); fill-opacity: 0.6; stroke-width: 0; opacity: 1;"/><path class="sankey-link" d="M759.9000000000001,419.65133079847925C946.19943,419.65133079847925 946.19943,416.5487037677152 1132.49886,416.5487037677152L1132.49886,427.3441583131697C946.19943,427.3441583131697 946.19943,430.44678534393375 759.9000000000001,430.44678534393375Z" style="stroke: rgb(68, 68, 68); stroke-opacity: 1; fill: rgb(254, 203, 82); fill-opacity: 0.6; stroke-width: 0; opacity: 1;"/><path class="sankey-link" d="M759.9000000000001,594.5876166609056C946.19943,594.5876166609056 946.19943,588.6077428275149 1132.49886,588.6077428275149L1132.49886,592.9259246456967C946.19943,592.9259246456967 946.19943,598.9057984790874 759.9000000000001,598.9057984790874Z" style="stroke: rgb(68, 68, 68); stroke-opacity: 1; fill: rgb(254, 203, 82); fill-opacity: 0.6; stroke-width: 0; opacity: 1;"/><path class="sankey-link" d="M759.9000000000001,650.7239802972692C946.19943,650.7239802972692 946.19943,658.4440805392326 1132.49886,658.4440805392326L1132.49886,660.6031714483236C946.19943,660.6031714483236 946.19943,652.8830712063602 759.9000000000001,652.8830712063602Z" style="stroke: rgb(68, 68, 68); stroke-opacity: 1; fill: rgb(254, 203, 82); fill-opacity: 0.6; stroke-width: 0; opacity: 1;"/><path class="sankey-link" d="M759.9000000000001,110.7988161078467C946.19943,110.7988161078467 946.19943,116.14810750086419 1132.49886,116.14810750086419L1132.49886,122.6253802281369C946.19943,122.6253802281369 946.19943,117.27608883511942 759.9000000000001,117.27608883511942Z" style="stroke: rgb(68, 68, 68); stroke-opacity: 1; fill: rgb(255, 161, 90); fill-opacity: 0.6; stroke-width: 0; opacity: 1;"/><path class="sankey-link" d="M759.9000000000001,225.84821984099557C946.19943,225.84821984099557 946.19943,232.5691064638783 1132.49886,232.5691064638783L1132.49886,234.72819737296925C946.19943,234.72819737296925 946.19943,228.0073107500865 759.9000000000001,228.0073107500865Z" style="stroke: rgb(68, 68, 68); stroke-opacity: 1; fill: rgb(255, 161, 90); fill-opacity: 0.6; stroke-width: 0; opacity: 1;"/><path class="sankey-link" d="M759.9000000000001,598.9057984790875C946.19943,598.9057984790875 946.19943,592.9259246456968 1132.49886,592.9259246456968L1132.49886,597.2441064638786C946.19943,597.2441064638786 946.19943,603.2239802972692 759.9000000000001,603.2239802972692Z" style="stroke: rgb(68, 68, 68); stroke-opacity: 1; fill: rgb(255, 161, 90); fill-opacity: 0.6; stroke-width: 0; opacity: 1;"/><path class="sankey-link" d="M759.9000000000001,652.8830712063601C946.19943,652.8830712063601 946.19943,660.6031714483235 1132.49886,660.6031714483235L1132.49886,667.0804441755962C946.19943,667.0804441755962 946.19943,659.3603439336329 759.9000000000001,659.3603439336329Z" style="stroke: rgb(68, 68, 68); stroke-opacity: 1; fill: rgb(255, 161, 90); fill-opacity: 0.6; stroke-width: 0; opacity: 1;"/><path class="sankey-link" d="M759.9000000000001,48.18517974421033C946.19943,48.18517974421033 946.19943,39.88195644659523 1132.49886,39.88195644659523L1132.49886,52.836501901140686C946.19943,52.836501901140686 946.19943,61.139725198755784 759.9000000000001,61.139725198755784Z" style="stroke: rgb(68, 68, 68); stroke-opacity: 1; fill: rgb(171, 99, 250); fill-opacity: 0.6; stroke-width: 0; opacity: 1;"/><path class="sankey-link" d="M759.9000000000001,117.27608883511944C946.19943,117.27608883511944 946.19943,122.62538022813692 1132.49886,122.62538022813692L1132.49886,129.10265295540964C946.19943,129.10265295540964 946.19943,123.75336156239216 759.9000000000001,123.75336156239216Z" style="stroke: rgb(68, 68, 68); stroke-opacity: 1; fill: rgb(171, 99, 250); fill-opacity: 0.6; stroke-width: 0; opacity: 1;"/><path class="sankey-link" d="M759.9000000000001,193.46185620463194C946.19943,193.46185620463194 946.19943,186.18614759764944 1132.49886,186.18614759764944L1132.49886,188.34523850674037C946.19943,188.34523850674037 946.19943,195.62094711372288 759.9000000000001,195.62094711372288Z" style="stroke: rgb(68, 68, 68); stroke-opacity: 1; fill: rgb(171, 99, 250); fill-opacity: 0.6; stroke-width: 0; opacity: 1;"/><path class="sankey-link" d="M759.9000000000001,228.00731075008648C946.19943,228.00731075008648 946.19943,234.72819737296922 1132.49886,234.72819737296922L1132.49886,239.04637919115103C946.19943,239.04637919115103 946.19943,232.3254925682683 759.9000000000001,232.3254925682683Z" style="stroke: rgb(68, 68, 68); stroke-opacity: 1; fill: rgb(171, 99, 250); fill-opacity: 0.6; stroke-width: 0; opacity: 1;"/><path class="sankey-link" d="M759.9000000000001,316.30629968890435C946.19943,316.30629968890435 946.19943,327.5534393363291 1132.49886,327.5534393363291L1132.49886,338.3488938817836C946.19943,338.3488938817836 946.19943,327.10175423435885 759.9000000000001,327.10175423435885Z" style="stroke: rgb(68, 68, 68); stroke-opacity: 1; fill: rgb(171, 99, 250); fill-opacity: 0.6; stroke-width: 0; opacity: 1;"/><path class="sankey-link" d="M759.9000000000001,430.4467853439338C946.19943,430.4467853439338 946.19943,427.34415831316977 1132.49886,427.34415831316977L1132.49886,433.8214310404425C946.19943,433.8214310404425 946.19943,436.92405807120656 759.9000000000001,436.92405807120656Z" style="stroke: rgb(68, 68, 68); stroke-opacity: 1; fill: rgb(171, 99, 250); fill-opacity: 0.6; stroke-width: 0; opacity: 1;"/><path class="sankey-link" d="M759.9000000000001,508.1740580712066C946.19943,508.1740580712066 946.19943,518.664621500173 1132.49886,518.664621500173L1132.49886,522.9828033183547C946.19943,522.9828033183547 946.19943,512.4922398893884 759.9000000000001,512.4922398893884Z" style="stroke: rgb(68, 68, 68); stroke-opacity: 1; fill: rgb(171, 99, 250); fill-opacity: 0.6; stroke-width: 0; opacity: 1;"/><path class="sankey-link" d="M759.9000000000001,603.2239802972693C946.19943,603.2239802972693 946.19943,597.2441064638787 1132.49886,597.2441064638787L1132.49886,599.4031973729697C946.19943,599.4031973729697 946.19943,605.3830712063603 759.9000000000001,605.3830712063603Z" style="stroke: rgb(68, 68, 68); stroke-opacity: 1; fill: rgb(171, 99, 250); fill-opacity: 0.6; stroke-width: 0; opacity: 1;"/><path class="sankey-link" d="M759.9000000000001,659.3603439336329C946.19943,659.3603439336329 946.19943,667.0804441755962 1132.49886,667.0804441755962L1132.49886,671.398625993778C946.19943,671.398625993778 946.19943,663.6785257518146 759.9000000000001,663.6785257518146Z" style="stroke: rgb(68, 68, 68); stroke-opacity: 1; fill: rgb(171, 99, 250); fill-opacity: 0.6; stroke-width: 0; opacity: 1;"/><path class="sankey-link" d="M759.9000000000001,61.139725198755784C946.19943,61.139725198755784 946.19943,52.83650190114069 1132.49886,52.83650190114069L1132.49886,83.06377462841341C946.19943,83.06377462841341 946.19943,91.3669979260285 759.9000000000001,91.3669979260285Z" style="stroke: rgb(68, 68, 68); stroke-opacity: 1; fill: rgb(239, 85, 59); fill-opacity: 0.6; stroke-width: 0; opacity: 1;"/><path class="sankey-link" d="M759.9000000000001,123.75336156239217C946.19943,123.75336156239217 946.19943,129.10265295540964 1132.49886,129.10265295540964L1132.49886,157.17083477359145C946.19943,157.17083477359145 946.19943,151.82154338057398 759.9000000000001,151.82154338057398Z" style="stroke: rgb(68, 68, 68); stroke-opacity: 1; fill: rgb(239, 85, 59); fill-opacity: 0.6; stroke-width: 0; opacity: 1;"/><path class="sankey-link" d="M759.9000000000001,195.62094711372285C946.19943,195.62094711372285 946.19943,188.34523850674034 1132.49886,188.34523850674034L1132.49886,201.29978396128578C946.19943,201.29978396128578 946.19943,208.5754925682683 759.9000000000001,208.5754925682683Z" style="stroke: rgb(68, 68, 68); stroke-opacity: 1; fill: rgb(239, 85, 59); fill-opacity: 0.6; stroke-width: 0; opacity: 1;"/><path class="sankey-link" d="M759.9000000000001,232.3254925682683C946.19943,232.3254925682683 946.19943,239.04637919115103 1132.49886,239.04637919115103L1132.49886,258.4781973729692C946.19943,258.4781973729692 946.19943,251.75731075008648 759.9000000000001,251.75731075008648Z" style="stroke: rgb(68, 68, 68); stroke-opacity: 1; fill: rgb(239, 85, 59); fill-opacity: 0.6; stroke-width: 0; opacity: 1;"/><path class="sankey-link" d="M759.9000000000001,288.23811787072253C946.19943,288.23811787072253 946.19943,285.54798651918424 1132.49886,285.54798651918424L1132.49886,289.8661683373661C946.19943,289.8661683373661 946.19943,292.5562996889044 759.9000000000001,292.5562996889044Z" style="stroke: rgb(68, 68, 68); stroke-opacity: 1; fill: rgb(239, 85, 59); fill-opacity: 0.6; stroke-width: 0; opacity: 1;"/><path class="sankey-link" d="M759.9000000000001,327.1017542343589C946.19943,327.1017542343589 946.19943,338.3488938817837 1132.49886,338.3488938817837L1132.49886,375.0534393363292C946.19943,375.0534393363292 946.19943,363.8062996889044 759.9000000000001,363.8062996889044Z" style="stroke: rgb(68, 68, 68); stroke-opacity: 1; fill: rgb(239, 85, 59); fill-opacity: 0.6; stroke-width: 0; opacity: 1;"/><path class="sankey-link" d="M759.9000000000001,436.92405807120656C946.19943,436.92405807120656 946.19943,433.82143104044246 1132.49886,433.82143104044246L1132.49886,477.0032492222607C946.19943,477.0032492222607 946.19943,480.1058762530248 759.9000000000001,480.1058762530248Z" style="stroke: rgb(68, 68, 68); stroke-opacity: 1; fill: rgb(239, 85, 59); fill-opacity: 0.6; stroke-width: 0; opacity: 1;"/><path class="sankey-link" d="M759.9000000000001,512.4922398893884C946.19943,512.4922398893884 946.19943,522.9828033183549 1132.49886,522.9828033183549L1132.49886,548.8918942274458C946.19943,548.8918942274458 946.19943,538.4013307984794 759.9000000000001,538.4013307984794Z" style="stroke: rgb(68, 68, 68); stroke-opacity: 1; fill: rgb(239, 85, 59); fill-opacity: 0.6; stroke-width: 0; opacity: 1;"/><path class="sankey-link" d="M759.9000000000001,605.3830712063602C946.19943,605.3830712063602 946.19943,599.4031973729695 1132.49886,599.4031973729695L1132.49886,623.1531973729695C946.19943,623.1531973729695 946.19943,629.1330712063602 759.9000000000001,629.1330712063602Z" style="stroke: rgb(68, 68, 68); stroke-opacity: 1; fill: rgb(239, 85, 59); fill-opacity: 0.6; stroke-width: 0; opacity: 1;"/><path class="sankey-link" d="M759.9000000000001,663.6785257518147C946.19943,663.6785257518147 946.19943,671.3986259937781 1132.49886,671.3986259937781L1132.49886,697.3077169028691C946.19943,697.3077169028691 946.19943,689.5876166609057 759.9000000000001,689.5876166609057Z" style="stroke: rgb(68, 68, 68); stroke-opacity: 1; fill: rgb(239, 85, 59); fill-opacity: 0.6; stroke-width: 0; opacity: 1;"/><path class="sankey-link" d="M759.9000000000001,91.36699792602852C946.19943,91.36699792602852 946.19943,83.06377462841341 1132.49886,83.06377462841341L1132.49886,89.54104735568613C946.19943,89.54104735568613 946.19943,97.84427065330124 759.9000000000001,97.84427065330124Z" style="stroke: rgb(68, 68, 68); stroke-opacity: 1; fill: rgb(182, 232, 128); fill-opacity: 0.6; stroke-width: 0; opacity: 1;"/><path class="sankey-link" d="M759.9000000000001,151.82154338057398C946.19943,151.82154338057398 946.19943,157.17083477359145 1132.49886,157.17083477359145L1132.49886,161.48901659177326C946.19943,161.48901659177326 946.19943,156.1397251987558 759.9000000000001,156.1397251987558Z" style="stroke: rgb(68, 68, 68); stroke-opacity: 1; fill: rgb(182, 232, 128); fill-opacity: 0.6; stroke-width: 0; opacity: 1;"/><path class="sankey-link" d="M759.9000000000001,208.57549256826832C946.19943,208.57549256826832 946.19943,201.2997839612858 1132.49886,201.2997839612858L1132.49886,207.77705668855856C946.19943,207.77705668855856 946.19943,215.05276529554106 759.9000000000001,215.05276529554106Z" style="stroke: rgb(68, 68, 68); stroke-opacity: 1; fill: rgb(182, 232, 128); fill-opacity: 0.6; stroke-width: 0; opacity: 1;"/><path class="sankey-link" d="M759.9000000000001,251.75731075008648C946.19943,251.75731075008648 946.19943,258.4781973729692 1132.49886,258.4781973729692L1132.49886,262.79637919115106C946.19943,262.79637919115106 946.19943,256.0754925682683 759.9000000000001,256.0754925682683Z" style="stroke: rgb(68, 68, 68); stroke-opacity: 1; fill: rgb(182, 232, 128); fill-opacity: 0.6; stroke-width: 0; opacity: 1;"/><path class="sankey-link" d="M759.9000000000001,363.80629968890435C946.19943,363.80629968890435 946.19943,375.0534393363291 1132.49886,375.0534393363291L1132.49886,377.21253024542C946.19943,377.21253024542 946.19943,365.9653905979952 759.9000000000001,365.9653905979952Z" style="stroke: rgb(68, 68, 68); stroke-opacity: 1; fill: rgb(182, 232, 128); fill-opacity: 0.6; stroke-width: 0; opacity: 1;"/><path class="sankey-link" d="M759.9000000000001,480.10587625302475C946.19943,480.10587625302475 946.19943,477.0032492222607 1132.49886,477.0032492222607L1132.49886,487.7987037677152C946.19943,487.7987037677152 946.19943,490.90133079847925 759.9000000000001,490.90133079847925Z" style="stroke: rgb(68, 68, 68); stroke-opacity: 1; fill: rgb(182, 232, 128); fill-opacity: 0.6; stroke-width: 0; opacity: 1;"/><path class="sankey-link" d="M759.9000000000001,538.4013307984793C946.19943,538.4013307984793 946.19943,548.8918942274457 1132.49886,548.8918942274457L1132.49886,551.0509851365367C946.19943,551.0509851365367 946.19943,540.5604217075703 759.9000000000001,540.5604217075703Z" style="stroke: rgb(68, 68, 68); stroke-opacity: 1; fill: rgb(182, 232, 128); fill-opacity: 0.6; stroke-width: 0; opacity: 1;"/><path class="sankey-link" d="M759.9000000000001,629.1330712063602C946.19943,629.1330712063602 946.19943,623.1531973729695 1132.49886,623.1531973729695L1132.49886,629.6304701002423C946.19943,629.6304701002423 946.19943,635.610343933633 759.9000000000001,635.610343933633Z" style="stroke: rgb(68, 68, 68); stroke-opacity: 1; fill: rgb(182, 232, 128); fill-opacity: 0.6; stroke-width: 0; opacity: 1;"/><path class="sankey-link" d="M759.9000000000001,689.5876166609056C946.19943,689.5876166609056 946.19943,697.307716902869 1132.49886,697.307716902869L1132.49886,701.6258987210507C946.19943,701.6258987210507 946.19943,693.9057984790874 759.9000000000001,693.9057984790874Z" style="stroke: rgb(68, 68, 68); stroke-opacity: 1; fill: rgb(182, 232, 128); fill-opacity: 0.6; stroke-width: 0; opacity: 1;"/><path class="sankey-link" d="M759.9000000000001,97.84427065330125C946.19943,97.84427065330125 946.19943,89.54104735568615 1132.49886,89.54104735568615L1132.49886,91.70013826477705C946.19943,91.70013826477705 946.19943,100.00336156239216 759.9000000000001,100.00336156239216Z" style="stroke: rgb(68, 68, 68); stroke-opacity: 1; fill: rgb(255, 151, 255); fill-opacity: 0.6; stroke-width: 0; opacity: 1;"/><path class="sankey-link" d="M759.9000000000001,156.1397251987558C946.19943,156.1397251987558 946.19943,161.48901659177326 1132.49886,161.48901659177326L1132.49886,163.6481075008642C946.19943,163.6481075008642 946.19943,158.29881610784673 759.9000000000001,158.29881610784673Z" style="stroke: rgb(68, 68, 68); stroke-opacity: 1; fill: rgb(255, 151, 255); fill-opacity: 0.6; stroke-width: 0; opacity: 1;"/><path class="sankey-link" d="M759.9000000000001,215.05276529554104C946.19943,215.05276529554104 946.19943,207.77705668855853 1132.49886,207.77705668855853L1132.49886,209.93614759764947C946.19943,209.93614759764947 946.19943,217.21185620463197 759.9000000000001,217.21185620463197Z" style="stroke: rgb(68, 68, 68); stroke-opacity: 1; fill: rgb(255, 151, 255); fill-opacity: 0.6; stroke-width: 0; opacity: 1;"/><path class="sankey-link" d="M759.9000000000001,256.0754925682683C946.19943,256.0754925682683 946.19943,262.796379191151 1132.49886,262.796379191151L1132.49886,264.9554701002419C946.19943,264.9554701002419 946.19943,258.2345834773592 759.9000000000001,258.2345834773592Z" style="stroke: rgb(68, 68, 68); stroke-opacity: 1; fill: rgb(255, 151, 255); fill-opacity: 0.6; stroke-width: 0; opacity: 1;"/><path class="sankey-link" d="M759.9000000000001,490.9013307984793C946.19943,490.9013307984793 946.19943,487.79870376771527 1132.49886,487.79870376771527L1132.49886,494.275976494988C946.19943,494.275976494988 946.19943,497.37860352575206 759.9000000000001,497.37860352575206Z" style="stroke: rgb(68, 68, 68); stroke-opacity: 1; fill: rgb(255, 151, 255); fill-opacity: 0.6; stroke-width: 0; opacity: 1;"/><path class="sankey-link" d="M759.9000000000001,693.9057984790875C946.19943,693.9057984790875 946.19943,701.6258987210508 1132.49886,701.6258987210508L1132.49886,705.9440805392326C946.19943,705.9440805392326 946.19943,698.2239802972692 759.9000000000001,698.2239802972692Z" style="stroke: rgb(68, 68, 68); stroke-opacity: 1; fill: rgb(255, 151, 255); fill-opacity: 0.6; stroke-width: 0; opacity: 1;"/></g><g class="sankey-node-set" style="cursor: ns-resize;"><g class="sankey-node" transform="translate(-7.499,21.970)" style="opacity: 1;"><rect class="node-rect" width="15" height="45.34090909090901" style="stroke-width: 0.5; stroke: rgb(0, 0, 0); stroke-opacity: 1; fill: rgb(128, 128, 128); fill-opacity: 1;"/><text class="node-label" data-notex="1" x="0" y="0" text-anchor="start" transform="translate(18.25,26.870454545454503)" style="cursor: default; font-family: 'Open Sans', verdana, arial, sans-serif; font-size: 12px; fill: rgb(42, 63, 95); fill-opacity: 1; white-space: pre; text-shadow: white 1px 1px 1px, white -1px -1px 1px, white 1px -1px 1px, white -1px 1px 1px;">21271R</text></g><g class="sankey-node" transform="translate(-7.499,95.047)" style="opacity: 1;"><rect class="node-rect" width="15" height="34.54545454545473" style="stroke-width: 0.5; stroke: rgb(0, 0, 0); stroke-opacity: 1; fill: rgb(128, 128, 128); fill-opacity: 1;"/><text class="node-label" data-notex="1" x="0" y="0" text-anchor="start" transform="translate(18.25,21.472727272727365)" style="cursor: default; font-family: 'Open Sans', verdana, arial, sans-serif; font-size: 12px; fill: rgb(42, 63, 95); fill-opacity: 1; white-space: pre; text-shadow: white 1px 1px 1px, white -1px -1px 1px, white 1px -1px 1px, white -1px 1px 1px;">21272R</text></g><g class="sankey-node" transform="translate(-7.499,156.248)" style="opacity: 1;"><rect class="node-rect" width="15" height="38.86363636363626" style="stroke-width: 0.5; stroke: rgb(0, 0, 0); stroke-opacity: 1; fill: rgb(128, 128, 128); fill-opacity: 1;"/><text class="node-label" data-notex="1" x="0" y="0" text-anchor="start" transform="translate(18.25,23.63181818181813)" style="cursor: default; font-family: 'Open Sans', verdana, arial, sans-serif; font-size: 12px; fill: rgb(42, 63, 95); fill-opacity: 1; white-space: pre; text-shadow: white 1px 1px 1px, white -1px -1px 1px, white 1px -1px 1px, white -1px 1px 1px;">21965RL</text></g><g class="sankey-node" transform="translate(-7.499,245.557)" style="opacity: 1;"><rect class="node-rect" width="15" height="177.04545454545465" style="stroke-width: 0.5; stroke: rgb(0, 0, 0); stroke-opacity: 1; fill: rgb(128, 128, 128); fill-opacity: 1;"/><text class="node-label" data-notex="1" x="0" y="0" text-anchor="start" transform="translate(18.25,92.72272727272733)" style="cursor: default; font-family: 'Open Sans', verdana, arial, sans-serif; font-size: 12px; fill: rgb(42, 63, 95); fill-opacity: 1; white-space: pre; text-shadow: white 1px 1px 1px, white -1px -1px 1px, white 1px -1px 1px, white -1px 1px 1px;">22384</text></g><g class="sankey-node" transform="translate(-7.499,496.478)" style="opacity: 1;"><rect class="node-rect" width="15" height="179.20454545454567" style="stroke-width: 0.5; stroke: rgb(0, 0, 0); stroke-opacity: 1; fill: rgb(128, 128, 128); fill-opacity: 1;"/><text class="node-label" data-notex="1" x="0" y="0" text-anchor="start" transform="translate(18.25,93.80227272727284)" style="cursor: default; font-family: 'Open Sans', verdana, arial, sans-serif; font-size: 12px; fill: rgb(42, 63, 95); fill-opacity: 1; white-space: pre; text-shadow: white 1px 1px 1px, white -1px -1px 1px, white 1px -1px 1px, white -1px 1px 1px;">22670</text></g><g class="sankey-node" transform="translate(744.900,22.276)" style="opacity: 1;"><rect class="node-rect" width="15" height="136.0227272727269" style="stroke-width: 0.5; stroke: rgb(0, 0, 0); stroke-opacity: 1; fill: rgb(128, 128, 128); fill-opacity: 1;"/><text class="node-label" data-notex="1" x="0" y="0" text-anchor="start" transform="translate(18.25,72.21136363636346)" style="cursor: default; font-family: 'Open Sans', verdana, arial, sans-serif; font-size: 12px; fill: rgb(42, 63, 95); fill-opacity: 1; white-space: pre; text-shadow: white 1px 1px 1px, white -1px -1px 1px, white 1px -1px 1px, white -1px 1px 1px;">dig</text></g><g class="sankey-node" transform="translate(744.900,184.825)" style="opacity: 1;"><rect class="node-rect" width="15" height="73.40909090909076" style="stroke-width: 0.5; stroke: rgb(0, 0, 0); stroke-opacity: 1; fill: rgb(128, 128, 128); fill-opacity: 1;"/><text class="node-label" data-notex="1" x="0" y="0" text-anchor="start" transform="translate(18.25,40.904545454545385)" style="cursor: default; font-family: 'Open Sans', verdana, arial, sans-serif; font-size: 12px; fill: rgb(42, 63, 95); fill-opacity: 1; white-space: pre; text-shadow: white 1px 1px 1px, white -1px -1px 1px, white 1px -1px 1px, white -1px 1px 1px;">groom_front</text></g><g class="sankey-node" transform="translate(744.900,281.761)" style="opacity: 1;"><rect class="node-rect" width="15" height="84.20454545454538" style="stroke-width: 0.5; stroke: rgb(0, 0, 0); stroke-opacity: 1; fill: rgb(128, 128, 128); fill-opacity: 1;"/><text class="node-label" data-notex="1" x="0" y="0" text-anchor="start" transform="translate(18.25,46.302272727272694)" style="cursor: default; font-family: 'Open Sans', verdana, arial, sans-serif; font-size: 12px; fill: rgb(42, 63, 95); fill-opacity: 1; white-space: pre; text-shadow: white 1px 1px 1px, white -1px -1px 1px, white 1px -1px 1px, white -1px 1px 1px;">still</text></g><g class="sankey-node" transform="translate(744.900,393.742)" style="opacity: 1;"><rect class="node-rect" width="15" height="146.81818181818153" style="stroke-width: 0.5; stroke: rgb(0, 0, 0); stroke-opacity: 1; fill: rgb(128, 128, 128); fill-opacity: 1;"/><text class="node-label" data-notex="1" x="0" y="0" text-anchor="start" transform="translate(18.25,77.60909090909077)" style="cursor: default; font-family: 'Open Sans', verdana, arial, sans-serif; font-size: 12px; fill: rgb(42, 63, 95); fill-opacity: 1; white-space: pre; text-shadow: white 1px 1px 1px, white -1px -1px 1px, white 1px -1px 1px, white -1px 1px 1px;">walk</text></g><g class="sankey-node" transform="translate(744.900,570.838)" style="opacity: 1;"><rect class="node-rect" width="15" height="127.38636363636397" style="stroke-width: 0.5; stroke: rgb(0, 0, 0); stroke-opacity: 1; fill: rgb(128, 128, 128); fill-opacity: 1;"/><text class="node-label" data-notex="1" x="0" y="0" text-anchor="start" transform="translate(18.25,67.89318181818199)" style="cursor: default; font-family: 'Open Sans', verdana, arial, sans-serif; font-size: 12px; fill: rgb(42, 63, 95); fill-opacity: 1; white-space: pre; text-shadow: white 1px 1px 1px, white -1px -1px 1px, white 1px -1px 1px, white -1px 1px 1px;">wallclimb</text></g><g class="sankey-node" transform="translate(1132.499,13.973)" style="opacity: 1;"><rect class="node-rect" width="15" height="77.72727272727272" style="stroke-width: 0.5; stroke: rgb(0, 0, 0); stroke-opacity: 1; fill: rgb(128, 128, 128); fill-opacity: 1;"/><text class="node-label" data-notex="1" x="0" y="0" text-anchor="end" transform="translate(-3.25,43.06363636363636)" style="cursor: default; font-family: 'Open Sans', verdana, arial, sans-serif; font-size: 12px; fill: rgb(42, 63, 95); fill-opacity: 1; white-space: pre; text-shadow: white 1px 1px 1px, white -1px -1px 1px, white 1px -1px 1px, white -1px 1px 1px;">dig-activated</text></g><g class="sankey-node" transform="translate(1132.499,105.353)" style="opacity: 1;"><rect class="node-rect" width="15" height="58.295454545454504" style="stroke-width: 0.5; stroke: rgb(0, 0, 0); stroke-opacity: 1; fill: rgb(128, 128, 128); fill-opacity: 1;"/><text class="node-label" data-notex="1" x="0" y="0" text-anchor="end" transform="translate(-3.25,33.347727272727255)" style="cursor: default; font-family: 'Open Sans', verdana, arial, sans-serif; font-size: 12px; fill: rgb(42, 63, 95); fill-opacity: 1; white-space: pre; text-shadow: white 1px 1px 1px, white -1px -1px 1px, white 1px -1px 1px, white -1px 1px 1px;">dig-suppressed</text></g><g class="sankey-node" transform="translate(1132.499,177.550)" style="opacity: 1;"><rect class="node-rect" width="15" height="32.38636363636368" style="stroke-width: 0.5; stroke: rgb(0, 0, 0); stroke-opacity: 1; fill: rgb(128, 128, 128); fill-opacity: 1;"/><text class="node-label" data-notex="1" x="0" y="0" text-anchor="end" transform="translate(-3.25,20.39318181818184)" style="cursor: default; font-family: 'Open Sans', verdana, arial, sans-serif; font-size: 12px; fill: rgb(42, 63, 95); fill-opacity: 1; white-space: pre; text-shadow: white 1px 1px 1px, white -1px -1px 1px, white 1px -1px 1px, white -1px 1px 1px;">groom_front-activated</text></g><g class="sankey-node" transform="translate(1132.499,223.933)" style="opacity: 1;"><rect class="node-rect" width="15" height="41.02272727272725" style="stroke-width: 0.5; stroke: rgb(0, 0, 0); stroke-opacity: 1; fill: rgb(128, 128, 128); fill-opacity: 1;"/><text class="node-label" data-notex="1" x="0" y="0" text-anchor="end" transform="translate(-3.25,24.711363636363625)" style="cursor: default; font-family: 'Open Sans', verdana, arial, sans-serif; font-size: 12px; fill: rgb(42, 63, 95); fill-opacity: 1; white-space: pre; text-shadow: white 1px 1px 1px, white -1px -1px 1px, white 1px -1px 1px, white -1px 1px 1px;">groom_front-suppressed</text></g><g class="sankey-node" transform="translate(1132.499,279.071)" style="opacity: 1;"><rect class="node-rect" width="15" height="10.795454545454618" style="stroke-width: 0.5; stroke: rgb(0, 0, 0); stroke-opacity: 1; fill: rgb(128, 128, 128); fill-opacity: 1;"/><text class="node-label" data-notex="1" x="0" y="0" text-anchor="end" transform="translate(-3.25,9.597727272727308)" style="cursor: default; font-family: 'Open Sans', verdana, arial, sans-serif; font-size: 12px; fill: rgb(42, 63, 95); fill-opacity: 1; white-space: pre; text-shadow: white 1px 1px 1px, white -1px -1px 1px, white 1px -1px 1px, white -1px 1px 1px;">still-activated</text></g><g class="sankey-node" transform="translate(1132.499,303.803)" style="opacity: 1;"><rect class="node-rect" width="15" height="73.40909090909088" style="stroke-width: 0.5; stroke: rgb(0, 0, 0); stroke-opacity: 1; fill: rgb(128, 128, 128); fill-opacity: 1;"/><text class="node-label" data-notex="1" x="0" y="0" text-anchor="end" transform="translate(-3.25,40.90454545454544)" style="cursor: default; font-family: 'Open Sans', verdana, arial, sans-serif; font-size: 12px; fill: rgb(42, 63, 95); fill-opacity: 1; white-space: pre; text-shadow: white 1px 1px 1px, white -1px -1px 1px, white 1px -1px 1px, white -1px 1px 1px;">still-suppressed</text></g><g class="sankey-node" transform="translate(1132.499,390.640)" style="opacity: 1;"><rect class="node-rect" width="15" height="103.63636363636385" style="stroke-width: 0.5; stroke: rgb(0, 0, 0); stroke-opacity: 1; fill: rgb(128, 128, 128); fill-opacity: 1;"/><text class="node-label" data-notex="1" x="0" y="0" text-anchor="end" transform="translate(-3.25,56.01818181818193)" style="cursor: default; font-family: 'Open Sans', verdana, arial, sans-serif; font-size: 12px; fill: rgb(42, 63, 95); fill-opacity: 1; white-space: pre; text-shadow: white 1px 1px 1px, white -1px -1px 1px, white 1px -1px 1px, white -1px 1px 1px;">walk-activated</text></g><g class="sankey-node" transform="translate(1132.499,507.869)" style="opacity: 1;"><rect class="node-rect" width="15" height="43.18181818181819" style="stroke-width: 0.5; stroke: rgb(0, 0, 0); stroke-opacity: 1; fill: rgb(128, 128, 128); fill-opacity: 1;"/><text class="node-label" data-notex="1" x="0" y="0" text-anchor="end" transform="translate(-3.25,25.790909090909093)" style="cursor: default; font-family: 'Open Sans', verdana, arial, sans-serif; font-size: 12px; fill: rgb(42, 63, 95); fill-opacity: 1; white-space: pre; text-shadow: white 1px 1px 1px, white -1px -1px 1px, white 1px -1px 1px, white -1px 1px 1px;">walk-suppressed</text></g><g class="sankey-node" transform="translate(1132.499,564.858)" style="opacity: 1;"><rect class="node-rect" width="15" height="64.77272727272725" style="stroke-width: 0.5; stroke: rgb(0, 0, 0); stroke-opacity: 1; fill: rgb(128, 128, 128); fill-opacity: 1;"/><text class="node-label" data-notex="1" x="0" y="0" text-anchor="end" transform="translate(-3.25,36.58636363636363)" style="cursor: default; font-family: 'Open Sans', verdana, arial, sans-serif; font-size: 12px; fill: rgb(42, 63, 95); fill-opacity: 1; white-space: pre; text-shadow: white 1px 1px 1px, white -1px -1px 1px, white 1px -1px 1px, white -1px 1px 1px;">wallclimb-activated</text></g><g class="sankey-node" transform="translate(1132.499,643.330)" style="opacity: 1;"><rect class="node-rect" width="15" height="62.61363636363649" style="stroke-width: 0.5; stroke: rgb(0, 0, 0); stroke-opacity: 1; fill: rgb(128, 128, 128); fill-opacity: 1;"/><text class="node-label" data-notex="1" x="0" y="0" text-anchor="end" transform="translate(-3.25,35.50681818181825)" style="cursor: default; font-family: 'Open Sans', verdana, arial, sans-serif; font-size: 12px; fill: rgb(42, 63, 95); fill-opacity: 1; white-space: pre; text-shadow: white 1px 1px 1px, white -1px -1px 1px, white 1px -1px 1px, white -1px 1px 1px;">wallclimb-suppressed</text></g><g class="sankey-node" transform="translate(368.700,14.261)" style="opacity: 1;"><rect class="node-rect" width="15" height="10.795454545454504" style="stroke-width: 0.5; stroke: rgb(0, 0, 0); stroke-opacity: 1; fill: rgb(25, 211, 243); fill-opacity: 1;"/><text class="node-label" data-notex="1" x="0" y="0" text-anchor="start" transform="translate(18.25,9.597727272727251)" style="cursor: default; font-family: 'Open Sans', verdana, arial, sans-serif; font-size: 12px; fill: rgb(42, 63, 95); fill-opacity: 1; white-space: pre; text-shadow: white 1px 1px 1px, white -1px -1px 1px, white 1px -1px 1px, white -1px 1px 1px;">BLA</text></g><g class="sankey-node" transform="translate(368.700,38.063)" style="opacity: 1;"><rect class="node-rect" width="15" height="97.15909090909123" style="stroke-width: 0.5; stroke: rgb(0, 0, 0); stroke-opacity: 1; fill: rgb(99, 110, 250); fill-opacity: 1;"/><text class="node-label" data-notex="1" x="0" y="0" text-anchor="start" transform="translate(18.25,52.77954545454561)" style="cursor: default; font-family: 'Open Sans', verdana, arial, sans-serif; font-size: 12px; fill: rgb(42, 63, 95); fill-opacity: 1; white-space: pre; text-shadow: white 1px 1px 1px, white -1px -1px 1px, white 1px -1px 1px, white -1px 1px 1px;">Cla</text></g><g class="sankey-node" transform="translate(368.700,148.006)" style="opacity: 1;"><rect class="node-rect" width="15" height="28.068181818181756" style="stroke-width: 0.5; stroke: rgb(0, 0, 0); stroke-opacity: 1; fill: rgb(0, 204, 150); fill-opacity: 1;"/><text class="node-label" data-notex="1" x="0" y="0" text-anchor="start" transform="translate(18.25,18.234090909090877)" style="cursor: default; font-family: 'Open Sans', verdana, arial, sans-serif; font-size: 12px; fill: rgb(42, 63, 95); fill-opacity: 1; white-space: pre; text-shadow: white 1px 1px 1px, white -1px -1px 1px, white 1px -1px 1px, white -1px 1px 1px;">LC</text></g><g class="sankey-node" transform="translate(368.700,189.583)" style="opacity: 1;"><rect class="node-rect" width="15" height="41.02272727272708" style="stroke-width: 0.5; stroke: rgb(0, 0, 0); stroke-opacity: 1; fill: rgb(254, 203, 82); fill-opacity: 1;"/><text class="node-label" data-notex="1" x="0" y="0" text-anchor="start" transform="translate(18.25,24.71136363636354)" style="cursor: default; font-family: 'Open Sans', verdana, arial, sans-serif; font-size: 12px; fill: rgb(42, 63, 95); fill-opacity: 1; white-space: pre; text-shadow: white 1px 1px 1px, white -1px -1px 1px, white 1px -1px 1px, white -1px 1px 1px;">LHyp</text></g><g class="sankey-node" transform="translate(368.700,244.170)" style="opacity: 1;"><rect class="node-rect" width="15" height="23.750000000000114" style="stroke-width: 0.5; stroke: rgb(0, 0, 0); stroke-opacity: 1; fill: rgb(255, 161, 90); fill-opacity: 1;"/><text class="node-label" data-notex="1" x="0" y="0" text-anchor="start" transform="translate(18.25,16.075000000000056)" style="cursor: default; font-family: 'Open Sans', verdana, arial, sans-serif; font-size: 12px; fill: rgb(42, 63, 95); fill-opacity: 1; white-space: pre; text-shadow: white 1px 1px 1px, white -1px -1px 1px, white 1px -1px 1px, white -1px 1px 1px;">NAc</text></g><g class="sankey-node" transform="translate(368.700,281.289)" style="opacity: 1;"><rect class="node-rect" width="15" height="56.13636363636374" style="stroke-width: 0.5; stroke: rgb(0, 0, 0); stroke-opacity: 1; fill: rgb(171, 99, 250); fill-opacity: 1;"/><text class="node-label" data-notex="1" x="0" y="0" text-anchor="start" transform="translate(18.25,32.26818181818187)" style="cursor: default; font-family: 'Open Sans', verdana, arial, sans-serif; font-size: 12px; fill: rgb(42, 63, 95); fill-opacity: 1; white-space: pre; text-shadow: white 1px 1px 1px, white -1px -1px 1px, white 1px -1px 1px, white -1px 1px 1px;">Str</text></g><g class="sankey-node" transform="translate(368.700,347.869)" style="opacity: 1;"><rect class="node-rect" width="15" height="250.4545454545455" style="stroke-width: 0.5; stroke: rgb(0, 0, 0); stroke-opacity: 1; fill: rgb(239, 85, 59); fill-opacity: 1;"/><text class="node-label" data-notex="1" x="0" y="0" text-anchor="start" transform="translate(18.25,129.42727272727274)" style="cursor: default; font-family: 'Open Sans', verdana, arial, sans-serif; font-size: 12px; fill: rgb(42, 63, 95); fill-opacity: 1; white-space: pre; text-shadow: white 1px 1px 1px, white -1px -1px 1px, white 1px -1px 1px, white -1px 1px 1px;">VTA</text></g><g class="sankey-node" transform="translate(368.700,608.879)" style="opacity: 1;"><rect class="node-rect" width="15" height="47.5" style="stroke-width: 0.5; stroke: rgb(0, 0, 0); stroke-opacity: 1; fill: rgb(182, 232, 128); fill-opacity: 1;"/><text class="node-label" data-notex="1" x="0" y="0" text-anchor="start" transform="translate(18.25,27.95)" style="cursor: default; font-family: 'Open Sans', verdana, arial, sans-serif; font-size: 12px; fill: rgb(42, 63, 95); fill-opacity: 1; white-space: pre; text-shadow: white 1px 1px 1px, white -1px -1px 1px, white 1px -1px 1px, white -1px 1px 1px;">cPFC</text></g><g class="sankey-node" transform="translate(368.700,669.916)" style="opacity: 1;"><rect class="node-rect" width="15" height="19.431818181818016" style="stroke-width: 0.5; stroke: rgb(0, 0, 0); stroke-opacity: 1; fill: rgb(255, 151, 255); fill-opacity: 1;"/><text class="node-label" data-notex="1" x="0" y="0" text-anchor="start" transform="translate(18.25,13.915909090909008)" style="cursor: default; font-family: 'Open Sans', verdana, arial, sans-serif; font-size: 12px; fill: rgb(42, 63, 95); fill-opacity: 1; white-space: pre; text-shadow: white 1px 1px 1px, white -1px -1px 1px, white 1px -1px 1px, white -1px 1px 1px;">dPAG</text></g><g class="sankey-node" transform="translate(368.700,703.469)" style="opacity: 1;"><rect class="node-rect" width="15" height="2.1590909090909918" style="stroke-width: 0.5; stroke: rgb(0, 0, 0); stroke-opacity: 1; fill: rgb(255, 102, 146); fill-opacity: 1;"/><text class="node-label" data-notex="1" x="0" y="0" text-anchor="start" transform="translate(18.25,5.279545454545495)" style="cursor: default; font-family: 'Open Sans', verdana, arial, sans-serif; font-size: 12px; fill: rgb(42, 63, 95); fill-opacity: 1; white-space: pre; text-shadow: white 1px 1px 1px, white -1px -1px 1px, white 1px -1px 1px, white -1px 1px 1px;">lHb</text></g></g></g><defs id="topdefs-55755d"><g class="clips"/></defs><g class="layer-above"><g class="imagelayer"/><g class="shapelayer"/></g><g class="infolayer"><g class="g-gtitle"/><g class="first-render"/></g></svg>