<svg class="main-svg" xmlns="http://www.w3.org/2000/svg" xmlns:xlink="http://www.w3.org/1999/xlink" width="1300" height="900" style="" viewBox="0 0 1300 900"><rect x="0" y="0" width="1300" height="900" style="fill: rgb(255, 255, 255); fill-opacity: 1;"/><defs id="defs-93b83b"><g class="clips"/><g class="gradients"/><g class="patterns"/></defs><g class="bglayer"/><g class="layer-below"><g class="imagelayer"/><g class="shapelayer"/></g><g class="cartesianlayer"/><g class="polarlayer"/><g class="smithlayer"/><g class="ternarylayer"/><g class="geolayer"/><g class="funnelarealayer"/><g class="pielayer"/><g class="iciclelayer"/><g class="treemaplayer"/><g class="sunburstlayer"/><g class="glimages"/><g class="sankey" transform="translate(80,100)matrix(1 0 0 1 0 0)" style="box-sizing: content-box; position: absolute; left: 0px; shape-rendering: geometricprecision; pointer-events: none;"><g class="sankey-links" style="fill: none;"><path class="sankey-link" d="M15,534.8130841121496C195,534.8130841121496 195,464.5794392523368 375,464.5794392523368L375,487.57009345794427C195,487.57009345794427 195,557.8037383177569 15,557.8037383177569Z" style="stroke: rgb(68, 68, 68); stroke-opacity: 1; fill: rgb(99, 110, 250); fill-opacity: 0.6; stroke-width: 0; opacity: 1;"/><path class="sankey-link" d="M15,572.1728971962617C195,572.1728971962617 195,632.5233644859811 375,632.5233644859811L375,638.2710280373831C195,638.2710280373831 195,577.9205607476637 15,577.9205607476637Z" style="stroke: rgb(68, 68, 68); stroke-opacity: 1; fill: rgb(0, 204, 150); fill-opacity: 0.6; stroke-width: 0; opacity: 1;"/><path class="sankey-link" d="M15,577.9205607476636C195,577.9205607476636 195,659.018691588785 375,659.018691588785L375,673.3878504672898C195,673.3878504672898 195,592.2897196261683 15,592.2897196261683Z" style="stroke: rgb(68, 68, 68); stroke-opacity: 1; fill: rgb(255, 161, 90); fill-opacity: 0.6; stroke-width: 0; opacity: 1;"/><path class="sankey-link" d="M15,557.803738317757C195,557.803738317757 195,565.7943925233646 375,565.7943925233646L375,580.1635514018694C195,580.1635514018694 195,572.1728971962618 15,572.1728971962618Z" style="stroke: rgb(68, 68, 68); stroke-opacity: 1; fill: rgb(171, 99, 250); fill-opacity: 0.6; stroke-width: 0; opacity: 1;"/><path class="sankey-link" d="M15,531.9392523364486C195,531.9392523364486 195,227.03271028037446 375,227.03271028037446L375,229.90654205607538C195,229.90654205607538 195,534.8130841121495 15,534.8130841121495Z" style="stroke: rgb(68, 68, 68); stroke-opacity: 1; fill: rgb(239, 85, 59); fill-opacity: 0.6; stroke-width: 0; opacity: 1;"/><path class="sankey-link" d="M15,647.5233644859815C195,647.5233644859815 195,705.6308411214955 375,705.6308411214955L375,711.3785046728974C195,711.3785046728974 195,653.2710280373834 15,653.2710280373834Z" style="stroke: rgb(68, 68, 68); stroke-opacity: 1; fill: rgb(25, 211, 243); fill-opacity: 0.6; stroke-width: 0; opacity: 1;"/><path class="sankey-link" d="M15,618.7850467289721C195,618.7850467289721 195,487.57009345794427 375,487.57009345794427L375,490.44392523364525C195,490.44392523364525 195,621.658878504673 15,621.658878504673Z" style="stroke: rgb(68, 68, 68); stroke-opacity: 1; fill: rgb(99, 110, 250); fill-opacity: 0.6; stroke-width: 0; opacity: 1;"/><path class="sankey-link" d="M15,627.406542056075C195,627.406542056075 195,638.271028037383 375,638.271028037383L375,644.0186915887849C195,644.0186915887849 195,633.1542056074769 15,633.1542056074769Z" style="stroke: rgb(68, 68, 68); stroke-opacity: 1; fill: rgb(0, 204, 150); fill-opacity: 0.6; stroke-width: 0; opacity: 1;"/><path class="sankey-link" d="M15,633.1542056074768C195,633.1542056074768 195,673.3878504672897 375,673.3878504672897L375,684.8831775700934C195,684.8831775700934 195,644.6495327102805 15,644.6495327102805Z" style="stroke: rgb(68, 68, 68); stroke-opacity: 1; fill: rgb(255, 161, 90); fill-opacity: 0.6; stroke-width: 0; opacity: 1;"/><path class="sankey-link" d="M15,621.6588785046731C195,621.6588785046731 195,580.1635514018693 375,580.1635514018693L375,585.9112149532713C195,585.9112149532713 195,627.4065420560751 15,627.4065420560751Z" style="stroke: rgb(68, 68, 68); stroke-opacity: 1; fill: rgb(171, 99, 250); fill-opacity: 0.6; stroke-width: 0; opacity: 1;"/><path class="sankey-link" d="M15,607.2897196261683C195,607.2897196261683 195,229.90654205607538 375,229.90654205607538L375,232.7803738317763C195,232.7803738317763 195,610.1635514018692 15,610.1635514018692Z" style="stroke: rgb(68, 68, 68); stroke-opacity: 1; fill: rgb(239, 85, 59); fill-opacity: 0.6; stroke-width: 0; opacity: 1;"/><path class="sankey-link" d="M15,610.1635514018693C195,610.1635514018693 195,363.3644859813088 375,363.3644859813088L375,371.9859813084116C195,371.9859813084116 195,618.7850467289721 15,618.7850467289721Z" style="stroke: rgb(68, 68, 68); stroke-opacity: 1; fill: rgb(182, 232, 128); fill-opacity: 0.6; stroke-width: 0; opacity: 1;"/><path class="sankey-link" d="M15,644.6495327102805C570,644.6495327102805 570,703.7683336055611 1125,703.7683336055611L1125,706.642165381262C570,706.642165381262 570,647.5233644859813 15,647.5233644859813Z" style="stroke: rgb(68, 68, 68); stroke-opacity: 1; fill: rgb(255, 102, 146); fill-opacity: 0.6; stroke-width: 0; opacity: 1;"/><path class="sankey-link" d="M15,711.3785046728974C195,711.3785046728974 195,711.3785046728973 375,711.3785046728973L375,720.0000000000001C195,720.0000000000001 195,720.0000000000002 15,720.0000000000002Z" style="stroke: rgb(68, 68, 68); stroke-opacity: 1; fill: rgb(25, 211, 243); fill-opacity: 0.6; stroke-width: 0; opacity: 1;"/><path class="sankey-link" d="M15,674.0186915887853C195,674.0186915887853 195,490.4439252336452 375,490.4439252336452L375,504.81308411214985C195,504.81308411214985 195,688.38785046729 15,688.38785046729Z" style="stroke: rgb(68, 68, 68); stroke-opacity: 1; fill: rgb(99, 110, 250); fill-opacity: 0.6; stroke-width: 0; opacity: 1;"/><path class="sankey-link" d="M15,705.6308411214956C195,705.6308411214956 195,684.8831775700934 375,684.8831775700934L375,690.6308411214953C195,690.6308411214953 195,711.3785046728975 15,711.3785046728975Z" style="stroke: rgb(68, 68, 68); stroke-opacity: 1; fill: rgb(255, 161, 90); fill-opacity: 0.6; stroke-width: 0; opacity: 1;"/><path class="sankey-link" d="M15,697.0093457943927C195,697.0093457943927 195,585.9112149532712 375,585.9112149532712L375,594.532710280374C195,594.532710280374 195,705.6308411214956 15,705.6308411214956Z" style="stroke: rgb(68, 68, 68); stroke-opacity: 1; fill: rgb(171, 99, 250); fill-opacity: 0.6; stroke-width: 0; opacity: 1;"/><path class="sankey-link" d="M15,668.2710280373833C195,668.2710280373833 195,232.7803738317763 375,232.7803738317763L375,235.65420560747722C195,235.65420560747722 195,671.1448598130842 15,671.1448598130842Z" style="stroke: rgb(68, 68, 68); stroke-opacity: 1; fill: rgb(239, 85, 59); fill-opacity: 0.6; stroke-width: 0; opacity: 1;"/><path class="sankey-link" d="M15,671.1448598130843C195,671.1448598130843 195,371.9859813084116 375,371.9859813084116L375,374.8598130841126C195,374.8598130841126 195,674.0186915887851 15,674.0186915887851Z" style="stroke: rgb(68, 68, 68); stroke-opacity: 1; fill: rgb(182, 232, 128); fill-opacity: 0.6; stroke-width: 0; opacity: 1;"/><path class="sankey-link" d="M15,688.3878504672899C570,688.3878504672899 570,523.6982401476176 1125,523.6982401476176L1125,532.3197354747205C570,532.3197354747205 570,697.0093457943927 15,697.0093457943927Z" style="stroke: rgb(68, 68, 68); stroke-opacity: 1; fill: rgb(255, 151, 255); fill-opacity: 0.6; stroke-width: 0; opacity: 1;"/><path class="sankey-link" d="M15,188.6915887850472C195,188.6915887850472 195,389.8598130841125 375,389.8598130841125L375,427.21962616822464C195,427.21962616822464 195,226.05140186915935 15,226.05140186915935Z" style="stroke: rgb(68, 68, 68); stroke-opacity: 1; fill: rgb(99, 110, 250); fill-opacity: 0.6; stroke-width: 0; opacity: 1;"/><path class="sankey-link" d="M15,251.91588785046773C195,251.91588785046773 195,609.5327102803737 375,609.5327102803737L375,621.0280373831774C195,621.0280373831774 195,263.41121495327144 15,263.41121495327144Z" style="stroke: rgb(68, 68, 68); stroke-opacity: 1; fill: rgb(0, 204, 150); fill-opacity: 0.6; stroke-width: 0; opacity: 1;"/><path class="sankey-link" d="M15,139.8364485981313C195,139.8364485981313 195,250.65420560747725 375,250.65420560747725L375,273.64485981308474C195,273.64485981308474 195,162.8271028037388 15,162.8271028037388Z" style="stroke: rgb(68, 68, 68); stroke-opacity: 1; fill: rgb(254, 203, 82); fill-opacity: 0.6; stroke-width: 0; opacity: 1;"/><path class="sankey-link" d="M15,228.92523364486027C195,228.92523364486027 195,519.8130841121497 375,519.8130841121497L375,542.803738317757C195,542.803738317757 195,251.91588785046775 15,251.91588785046775Z" style="stroke: rgb(68, 68, 68); stroke-opacity: 1; fill: rgb(171, 99, 250); fill-opacity: 0.6; stroke-width: 0; opacity: 1;"/><path class="sankey-link" d="M15,27.757009345794835C195,27.757009345794835 195,6.110667527536862e-13 375,6.110667527536862e-13L375,112.07943925233707C195,112.07943925233707 195,139.83644859813128 15,139.83644859813128Z" style="stroke: rgb(68, 68, 68); stroke-opacity: 1; fill: rgb(239, 85, 59); fill-opacity: 0.6; stroke-width: 0; opacity: 1;"/><path class="sankey-link" d="M15,162.8271028037388C195,162.8271028037388 195,311.635514018692 375,311.635514018692L375,337.50000000000045C195,337.50000000000045 195,188.6915887850472 15,188.6915887850472Z" style="stroke: rgb(68, 68, 68); stroke-opacity: 1; fill: rgb(182, 232, 128); fill-opacity: 0.6; stroke-width: 0; opacity: 1;"/><path class="sankey-link" d="M15,226.05140186915935C570,226.05140186915935 570,517.9505765962157 1125,517.9505765962157L1125,520.8244083719165C570,520.8244083719165 570,228.92523364486027 15,228.92523364486027Z" style="stroke: rgb(68, 68, 68); stroke-opacity: 1; fill: rgb(255, 151, 255); fill-opacity: 0.6; stroke-width: 0; opacity: 1;"/><path class="sankey-link" d="M15,442.2196261682248C195,442.2196261682248 195,427.21962616822464 375,427.21962616822464L375,464.5794392523368C195,464.5794392523368 195,479.57943925233695 15,479.57943925233695Z" style="stroke: rgb(68, 68, 68); stroke-opacity: 1; fill: rgb(99, 110, 250); fill-opacity: 0.6; stroke-width: 0; opacity: 1;"/><path class="sankey-link" d="M15,505.44392523364536C195,505.44392523364536 195,621.0280373831774 375,621.0280373831774L375,632.5233644859811C195,632.5233644859811 195,516.939252336449 15,516.939252336449Z" style="stroke: rgb(68, 68, 68); stroke-opacity: 1; fill: rgb(0, 204, 150); fill-opacity: 0.6; stroke-width: 0; opacity: 1;"/><path class="sankey-link" d="M15,393.3644859813089C195,393.3644859813089 195,273.64485981308474 375,273.64485981308474L375,296.6355140186922C195,296.6355140186922 195,416.3551401869164 15,416.3551401869164Z" style="stroke: rgb(68, 68, 68); stroke-opacity: 1; fill: rgb(254, 203, 82); fill-opacity: 0.6; stroke-width: 0; opacity: 1;"/><path class="sankey-link" d="M15,482.4532710280379C195,482.4532710280379 195,542.8037383177572 375,542.8037383177572L375,565.7943925233645C195,565.7943925233645 195,505.44392523364536 15,505.44392523364536Z" style="stroke: rgb(68, 68, 68); stroke-opacity: 1; fill: rgb(171, 99, 250); fill-opacity: 0.6; stroke-width: 0; opacity: 1;"/><path class="sankey-link" d="M15,278.4112149532715C195,278.4112149532715 195,112.07943925233708 375,112.07943925233708L375,227.0327102803745C195,227.0327102803745 195,393.3644859813089 15,393.3644859813089Z" style="stroke: rgb(68, 68, 68); stroke-opacity: 1; fill: rgb(239, 85, 59); fill-opacity: 0.6; stroke-width: 0; opacity: 1;"/><path class="sankey-link" d="M15,416.3551401869164C195,416.3551401869164 195,337.5000000000004 375,337.5000000000004L375,363.36448598130886C195,363.36448598130886 195,442.21962616822486 15,442.21962616822486Z" style="stroke: rgb(68, 68, 68); stroke-opacity: 1; fill: rgb(182, 232, 128); fill-opacity: 0.6; stroke-width: 0; opacity: 1;"/><path class="sankey-link" d="M15,479.57943925233695C570,479.57943925233695 570,520.8244083719167 1125,520.8244083719167L1125,523.6982401476175C570,523.6982401476175 570,482.45327102803793 15,482.45327102803793Z" style="stroke: rgb(68, 68, 68); stroke-opacity: 1; fill: rgb(255, 151, 255); fill-opacity: 0.6; stroke-width: 0; opacity: 1;"/><path class="sankey-link" d="M390,705.6308411214955C570,705.6308411214955 570,406.206389246013 750,406.206389246013L750,409.08022102171395C570,409.08022102171395 570,708.5046728971963 390,708.5046728971963Z" style="stroke: rgb(68, 68, 68); stroke-opacity: 1; fill: rgb(25, 211, 243); fill-opacity: 0.6; stroke-width: 0; opacity: 1;"/><path class="sankey-link" d="M390,389.8598130841125C570,389.8598130841125 570,374.5942397133027 750,374.5942397133027L750,386.0895668161064C570,386.0895668161064 570,401.3551401869162 390,401.3551401869162Z" style="stroke: rgb(68, 68, 68); stroke-opacity: 1; fill: rgb(99, 110, 250); fill-opacity: 0.6; stroke-width: 0; opacity: 1;"/><path class="sankey-link" d="M390,401.35514018691623C570,401.35514018691623 570,504.5475107413404 750,504.5475107413404L750,524.6643331712469C570,524.6643331712469 570,421.47196261682274 390,421.47196261682274Z" style="stroke: rgb(68, 68, 68); stroke-opacity: 1; fill: rgb(99, 110, 250); fill-opacity: 0.6; stroke-width: 0; opacity: 1;"/><path class="sankey-link" d="M390,609.5327102803737C570,609.5327102803737 570,397.5848939189102 750,397.5848939189102L750,403.33255747031205C570,403.33255747031205 570,615.2803738317757 390,615.2803738317757Z" style="stroke: rgb(68, 68, 68); stroke-opacity: 1; fill: rgb(0, 204, 150); fill-opacity: 0.6; stroke-width: 0; opacity: 1;"/><path class="sankey-link" d="M390,615.2803738317756C570,615.2803738317756 570,541.9073238254525 750,541.9073238254525L750,550.5288191525553C570,550.5288191525553 570,623.9018691588784 390,623.9018691588784Z" style="stroke: rgb(68, 68, 68); stroke-opacity: 1; fill: rgb(0, 204, 150); fill-opacity: 0.6; stroke-width: 0; opacity: 1;"/><path class="sankey-link" d="M390,250.65420560747728C570,250.65420560747728 570,351.6035855076953 750,351.6035855076953L750,368.84657616190094C570,368.84657616190094 570,267.8971962616829 390,267.8971962616829Z" style="stroke: rgb(68, 68, 68); stroke-opacity: 1; fill: rgb(254, 203, 82); fill-opacity: 0.6; stroke-width: 0; opacity: 1;"/><path class="sankey-link" d="M390,267.89719626168284C570,267.89719626168284 570,484.43068831143387 750,484.43068831143387L750,498.79984718993853C570,498.79984718993853 570,282.2663551401875 390,282.2663551401875Z" style="stroke: rgb(68, 68, 68); stroke-opacity: 1; fill: rgb(254, 203, 82); fill-opacity: 0.6; stroke-width: 0; opacity: 1;"/><path class="sankey-link" d="M390,659.018691588785C570,659.018691588785 570,403.33255747031205 750,403.33255747031205L750,406.20638924601303C570,406.20638924601303 570,661.8925233644859 390,661.8925233644859Z" style="stroke: rgb(68, 68, 68); stroke-opacity: 1; fill: rgb(255, 161, 90); fill-opacity: 0.6; stroke-width: 0; opacity: 1;"/><path class="sankey-link" d="M390,519.8130841121497C570,519.8130841121497 570,386.08956681610647 750,386.08956681610647L750,397.58489391891015C570,397.58489391891015 570,531.3084112149534 390,531.3084112149534Z" style="stroke: rgb(68, 68, 68); stroke-opacity: 1; fill: rgb(171, 99, 250); fill-opacity: 0.6; stroke-width: 0; opacity: 1;"/><path class="sankey-link" d="M390,531.3084112149534C570,531.3084112149534 570,524.6643331712469 750,524.6643331712469L750,541.9073238254525C570,541.9073238254525 570,548.551401869159 390,548.551401869159Z" style="stroke: rgb(68, 68, 68); stroke-opacity: 1; fill: rgb(171, 99, 250); fill-opacity: 0.6; stroke-width: 0; opacity: 1;"/><path class="sankey-link" d="M390,6.110667527536862e-13C570,6.110667527536862e-13 570,311.36994064788223 750,311.36994064788223L750,351.60358550769536C570,351.60358550769536 570,40.233644859813694 390,40.233644859813694Z" style="stroke: rgb(68, 68, 68); stroke-opacity: 1; fill: rgb(239, 85, 59); fill-opacity: 0.6; stroke-width: 0; opacity: 1;"/><path class="sankey-link" d="M390,40.233644859813694C570,40.233644859813694 570,424.08022102171424 750,424.08022102171424L750,484.43068831143387C570,484.43068831143387 570,100.58411214953333 390,100.58411214953333Z" style="stroke: rgb(68, 68, 68); stroke-opacity: 1; fill: rgb(239, 85, 59); fill-opacity: 0.6; stroke-width: 0; opacity: 1;"/><path class="sankey-link" d="M390,311.635514018692C570,311.635514018692 570,368.8465761619009 750,368.8465761619009L750,374.5942397133027C570,374.5942397133027 570,317.38317757009384 390,317.38317757009384Z" style="stroke: rgb(68, 68, 68); stroke-opacity: 1; fill: rgb(182, 232, 128); fill-opacity: 0.6; stroke-width: 0; opacity: 1;"/><path class="sankey-link" d="M390,317.38317757009384C570,317.38317757009384 570,498.79984718993853 750,498.79984718993853L750,504.5475107413404C570,504.5475107413404 570,323.1308411214957 390,323.1308411214957Z" style="stroke: rgb(68, 68, 68); stroke-opacity: 1; fill: rgb(182, 232, 128); fill-opacity: 0.6; stroke-width: 0; opacity: 1;"/><path class="sankey-link" d="M765,311.36994064788223C945,311.36994064788223 945,380.9706577639708 1125,380.9706577639708L1125,383.84448953967177C945,383.84448953967177 945,314.2437724235832 765,314.2437724235832Z" style="stroke: rgb(68, 68, 68); stroke-opacity: 1; fill: rgb(25, 211, 243); fill-opacity: 0.6; stroke-width: 0; opacity: 1;"/><path class="sankey-link" d="M765,314.24377242358315C945,314.24377242358315 945,383.8444895396717 1125,383.8444895396717L1125,395.3398166424754C945,395.3398166424754 945,325.73909952638684 765,325.73909952638684Z" style="stroke: rgb(68, 68, 68); stroke-opacity: 1; fill: rgb(99, 110, 250); fill-opacity: 0.6; stroke-width: 0; opacity: 1;"/><path class="sankey-link" d="M765,530.4119967226487C945,530.4119967226487 945,668.6515111756546 1125,668.6515111756546L1125,674.3991747270566C945,674.3991747270566 945,536.1596602740507 765,536.1596602740507Z" style="stroke: rgb(68, 68, 68); stroke-opacity: 1; fill: rgb(99, 110, 250); fill-opacity: 0.6; stroke-width: 0; opacity: 1;"/><path class="sankey-link" d="M765,424.08022102171424C945,424.08022102171424 945,547.3197354747202 1125,547.3197354747202L1125,561.688894353225C945,561.688894353225 945,438.4493799002189 765,438.4493799002189Z" style="stroke: rgb(68, 68, 68); stroke-opacity: 1; fill: rgb(99, 110, 250); fill-opacity: 0.6; stroke-width: 0; opacity: 1;"/><path class="sankey-link" d="M765,325.7390995263869C945,325.7390995263869 945,395.33981664247545 1125,395.33981664247545L1125,401.0874801938773C945,401.0874801938773 945,331.48676307778874 765,331.48676307778874Z" style="stroke: rgb(68, 68, 68); stroke-opacity: 1; fill: rgb(0, 204, 150); fill-opacity: 0.6; stroke-width: 0; opacity: 1;"/><path class="sankey-link" d="M765,536.1596602740506C945,536.1596602740506 945,674.3991747270564 1125,674.3991747270564L1125,677.2730065027573C945,677.2730065027573 945,539.0334920497514 765,539.0334920497514Z" style="stroke: rgb(68, 68, 68); stroke-opacity: 1; fill: rgb(0, 204, 150); fill-opacity: 0.6; stroke-width: 0; opacity: 1;"/><path class="sankey-link" d="M765,438.4493799002189C945,438.4493799002189 945,561.6888943532249 1125,561.6888943532249L1125,567.4365579046269C945,567.4365579046269 945,444.19704345162074 765,444.19704345162074Z" style="stroke: rgb(68, 68, 68); stroke-opacity: 1; fill: rgb(0, 204, 150); fill-opacity: 0.6; stroke-width: 0; opacity: 1;"/><path class="sankey-link" d="M765,331.48676307778874C945,331.48676307778874 945,401.0874801938773 1125,401.0874801938773L1125,409.7089755209801C945,409.7089755209801 945,340.10825840489156 765,340.10825840489156Z" style="stroke: rgb(68, 68, 68); stroke-opacity: 1; fill: rgb(254, 203, 82); fill-opacity: 0.6; stroke-width: 0; opacity: 1;"/><path class="sankey-link" d="M765,365.97274438619996C945,365.97274438619996 945,450.57346150228847 1125,450.57346150228847L1125,459.1949568293913C945,459.1949568293913 945,374.5942397133028 765,374.5942397133028Z" style="stroke: rgb(68, 68, 68); stroke-opacity: 1; fill: rgb(254, 203, 82); fill-opacity: 0.6; stroke-width: 0; opacity: 1;"/><path class="sankey-link" d="M765,444.19704345162074C945,444.19704345162074 945,567.4365579046267 1125,567.4365579046267L1125,581.8057167831315C945,581.8057167831315 945,458.5662023301254 765,458.5662023301254Z" style="stroke: rgb(68, 68, 68); stroke-opacity: 1; fill: rgb(254, 203, 82); fill-opacity: 0.6; stroke-width: 0; opacity: 1;"/><path class="sankey-link" d="M765,374.5942397133028C945,374.5942397133028 945,459.1949568293913 1125,459.1949568293913L1125,462.06878860509227C945,462.06878860509227 945,377.46807148900376 765,377.46807148900376Z" style="stroke: rgb(68, 68, 68); stroke-opacity: 1; fill: rgb(255, 161, 90); fill-opacity: 0.6; stroke-width: 0; opacity: 1;"/><path class="sankey-link" d="M765,340.10825840489156C945,340.10825840489156 945,409.7089755209801 1125,409.7089755209801L1125,415.45663907238196C945,415.45663907238196 945,345.8559219562934 765,345.8559219562934Z" style="stroke: rgb(68, 68, 68); stroke-opacity: 1; fill: rgb(171, 99, 250); fill-opacity: 0.6; stroke-width: 0; opacity: 1;"/><path class="sankey-link" d="M765,377.4680714890037C945,377.4680714890037 945,462.0687886050922 1125,462.0687886050922L1125,467.81645215649405C945,467.81645215649405 945,383.21573504040555 765,383.21573504040555Z" style="stroke: rgb(68, 68, 68); stroke-opacity: 1; fill: rgb(171, 99, 250); fill-opacity: 0.6; stroke-width: 0; opacity: 1;"/><path class="sankey-link" d="M765,539.0334920497515C945,539.0334920497515 945,677.2730065027574 1125,677.2730065027574L1125,680.1468382784583C945,680.1468382784583 945,541.9073238254524 765,541.9073238254524Z" style="stroke: rgb(68, 68, 68); stroke-opacity: 1; fill: rgb(171, 99, 250); fill-opacity: 0.6; stroke-width: 0; opacity: 1;"/><path class="sankey-link" d="M765,458.5662023301254C945,458.5662023301254 945,581.8057167831314 1125,581.8057167831314L1125,596.1748756616362C945,596.1748756616362 945,472.93536120863007 765,472.93536120863007Z" style="stroke: rgb(68, 68, 68); stroke-opacity: 1; fill: rgb(171, 99, 250); fill-opacity: 0.6; stroke-width: 0; opacity: 1;"/><path class="sankey-link" d="M765,345.8559219562934C945,345.8559219562934 945,415.45663907238196 1125,415.45663907238196L1125,435.57346150228847C945,435.57346150228847 945,365.9727443861999 765,365.9727443861999Z" style="stroke: rgb(68, 68, 68); stroke-opacity: 1; fill: rgb(239, 85, 59); fill-opacity: 0.6; stroke-width: 0; opacity: 1;"/><path class="sankey-link" d="M765,383.21573504040555C945,383.21573504040555 945,467.81645215649405 1125,467.81645215649405L1125,487.93327458640056C945,487.93327458640056 945,403.33255747031205 765,403.33255747031205Z" style="stroke: rgb(68, 68, 68); stroke-opacity: 1; fill: rgb(239, 85, 59); fill-opacity: 0.6; stroke-width: 0; opacity: 1;"/><path class="sankey-link" d="M765,541.9073238254525C945,541.9073238254525 945,680.1468382784584 1125,680.1468382784584L1125,688.7683336055612C945,688.7683336055612 945,550.5288191525553 765,550.5288191525553Z" style="stroke: rgb(68, 68, 68); stroke-opacity: 1; fill: rgb(239, 85, 59); fill-opacity: 0.6; stroke-width: 0; opacity: 1;"/><path class="sankey-link" d="M765,472.93536120863007C945,472.93536120863007 945,596.1748756616361 1125,596.1748756616361L1125,647.903847624253C945,647.903847624253 945,524.6643331712469 765,524.6643331712469Z" style="stroke: rgb(68, 68, 68); stroke-opacity: 1; fill: rgb(239, 85, 59); fill-opacity: 0.6; stroke-width: 0; opacity: 1;"/><path class="sankey-link" d="M765,403.3325574703121C945,403.3325574703121 945,487.9332745864006 1125,487.9332745864006L1125,493.68093813780246C945,493.68093813780246 945,409.08022102171395 765,409.08022102171395Z" style="stroke: rgb(68, 68, 68); stroke-opacity: 1; fill: rgb(182, 232, 128); fill-opacity: 0.6; stroke-width: 0; opacity: 1;"/><path class="sankey-link" d="M765,524.6643331712469C945,524.6643331712469 945,647.9038476242529 1125,647.9038476242529L1125,653.6515111756548C945,653.6515111756548 945,530.4119967226488 765,530.4119967226488Z" style="stroke: rgb(68, 68, 68); stroke-opacity: 1; fill: rgb(182, 232, 128); fill-opacity: 0.6; stroke-width: 0; opacity: 1;"/></g><g class="sankey-node-set" style="cursor: move;"><g class="sankey-node" transform="translate(0.000,531.939)" style="opacity: 1;"><rect class="node-rect" width="15" height="60.350467289719745" style="stroke-width: 0.5; stroke: rgb(0, 0, 0); stroke-opacity: 1; fill: rgb(128, 128, 128); fill-opacity: 1;"/><text class="node-label" data-notex="1" x="0" y="0" text-anchor="start" transform="translate(18.25,34.375233644859875)" style="cursor: default; font-family: 'Open Sans', verdana, arial, sans-serif; font-size: 12px; fill: rgb(42, 63, 95); fill-opacity: 1; white-space: pre; text-shadow: white 1px 1px 1px, white -1px -1px 1px, white 1px -1px 1px, white -1px 1px 1px;">21271R</text></g><g class="sankey-node" transform="translate(0.000,607.290)" style="opacity: 1;"><rect class="node-rect" width="15" height="45.98130841121497" style="stroke-width: 0.5; stroke: rgb(0, 0, 0); stroke-opacity: 1; fill: rgb(128, 128, 128); fill-opacity: 1;"/><text class="node-label" data-notex="1" x="0" y="0" text-anchor="start" transform="translate(18.25,27.190654205607483)" style="cursor: default; font-family: 'Open Sans', verdana, arial, sans-serif; font-size: 12px; fill: rgb(42, 63, 95); fill-opacity: 1; white-space: pre; text-shadow: white 1px 1px 1px, white -1px -1px 1px, white 1px -1px 1px, white -1px 1px 1px;">21272R</text></g><g class="sankey-node" transform="translate(0.000,668.271)" style="opacity: 1;"><rect class="node-rect" width="15" height="51.7289719626167" style="stroke-width: 0.5; stroke: rgb(0, 0, 0); stroke-opacity: 1; fill: rgb(128, 128, 128); fill-opacity: 1;"/><text class="node-label" data-notex="1" x="0" y="0" text-anchor="start" transform="translate(18.25,30.064485981308348)" style="cursor: default; font-family: 'Open Sans', verdana, arial, sans-serif; font-size: 12px; fill: rgb(42, 63, 95); fill-opacity: 1; white-space: pre; text-shadow: white 1px 1px 1px, white -1px -1px 1px, white 1px -1px 1px, white -1px 1px 1px;">21965RL</text></g><g class="sankey-node" transform="translate(0.000,27.757)" style="opacity: 1;"><rect class="node-rect" width="15" height="235.65420560747665" style="stroke-width: 0.5; stroke: rgb(0, 0, 0); stroke-opacity: 1; fill: rgb(128, 128, 128); fill-opacity: 1;"/><text class="node-label" data-notex="1" x="0" y="0" text-anchor="start" transform="translate(18.25,122.02710280373833)" style="cursor: default; font-family: 'Open Sans', verdana, arial, sans-serif; font-size: 12px; fill: rgb(42, 63, 95); fill-opacity: 1; white-space: pre; text-shadow: white 1px 1px 1px, white -1px -1px 1px, white 1px -1px 1px, white -1px 1px 1px;">22384</text></g><g class="sankey-node" transform="translate(0.000,278.411)" style="opacity: 1;"><rect class="node-rect" width="15" height="238.5280373831771" style="stroke-width: 0.5; stroke: rgb(0, 0, 0); stroke-opacity: 1; fill: rgb(128, 128, 128); fill-opacity: 1;"/><text class="node-label" data-notex="1" x="0" y="0" text-anchor="start" transform="translate(18.25,123.46401869158855)" style="cursor: default; font-family: 'Open Sans', verdana, arial, sans-serif; font-size: 12px; fill: rgb(42, 63, 95); fill-opacity: 1; white-space: pre; text-shadow: white 1px 1px 1px, white -1px -1px 1px, white 1px -1px 1px, white -1px 1px 1px;">22670</text></g><g class="sankey-node" transform="translate(750.000,311.370)" style="opacity: 1;"><rect class="node-rect" width="15" height="97.710280373832" style="stroke-width: 0.5; stroke: rgb(0, 0, 0); stroke-opacity: 1; fill: rgb(128, 128, 128); fill-opacity: 1;"/><text class="node-label" data-notex="1" x="0" y="0" text-anchor="start" transform="translate(18.25,53.055140186916006)" style="cursor: default; font-family: 'Open Sans', verdana, arial, sans-serif; font-size: 12px; fill: rgb(42, 63, 95); fill-opacity: 1; white-space: pre; text-shadow: white 1px 1px 1px, white -1px -1px 1px, white 1px -1px 1px, white -1px 1px 1px;">Active</text></g><g class="sankey-node" transform="translate(750.000,424.080)" style="opacity: 1;"><rect class="node-rect" width="15" height="126.44859813084088" style="stroke-width: 0.5; stroke: rgb(0, 0, 0); stroke-opacity: 1; fill: rgb(128, 128, 128); fill-opacity: 1;"/><text class="node-label" data-notex="1" x="0" y="0" text-anchor="start" transform="translate(18.25,67.42429906542044)" style="cursor: default; font-family: 'Open Sans', verdana, arial, sans-serif; font-size: 12px; fill: rgb(42, 63, 95); fill-opacity: 1; white-space: pre; text-shadow: white 1px 1px 1px, white -1px -1px 1px, white 1px -1px 1px, white -1px 1px 1px;">NonActive</text></g><g class="sankey-node" transform="translate(1125.000,450.573)" style="opacity: 1;"><rect class="node-rect" width="15" height="43.10747663551399" style="stroke-width: 0.5; stroke: rgb(0, 0, 0); stroke-opacity: 1; fill: rgb(128, 128, 128); fill-opacity: 1;"/><text class="node-label" data-notex="1" x="0" y="0" text-anchor="end" transform="translate(-3.25,25.753738317756994)" style="cursor: default; font-family: 'Open Sans', verdana, arial, sans-serif; font-size: 12px; fill: rgb(42, 63, 95); fill-opacity: 1; white-space: pre; text-shadow: white 1px 1px 1px, white -1px -1px 1px, white 1px -1px 1px, white -1px 1px 1px;">Active-suppressed</text></g><g class="sankey-node" transform="translate(1125.000,380.971)" style="opacity: 1;"><rect class="node-rect" width="15" height="54.602803738317675" style="stroke-width: 0.5; stroke: rgb(0, 0, 0); stroke-opacity: 1; fill: rgb(128, 128, 128); fill-opacity: 1;"/><text class="node-label" data-notex="1" x="0" y="0" text-anchor="end" transform="translate(-3.25,31.501401869158837)" style="cursor: default; font-family: 'Open Sans', verdana, arial, sans-serif; font-size: 12px; fill: rgb(42, 63, 95); fill-opacity: 1; white-space: pre; text-shadow: white 1px 1px 1px, white -1px -1px 1px, white 1px -1px 1px, white -1px 1px 1px;">Active-activated</text></g><g class="sankey-node" transform="translate(1125.000,547.320)" style="opacity: 1;"><rect class="node-rect" width="15" height="106.33177570093437" style="stroke-width: 0.5; stroke: rgb(0, 0, 0); stroke-opacity: 1; fill: rgb(128, 128, 128); fill-opacity: 1;"/><text class="node-label" data-notex="1" x="0" y="0" text-anchor="end" transform="translate(-3.25,57.36588785046719)" style="cursor: default; font-family: 'Open Sans', verdana, arial, sans-serif; font-size: 12px; fill: rgb(42, 63, 95); fill-opacity: 1; white-space: pre; text-shadow: white 1px 1px 1px, white -1px -1px 1px, white 1px -1px 1px, white -1px 1px 1px;">NonActive-suppressed</text></g><g class="sankey-node" transform="translate(1125.000,668.652)" style="opacity: 1;"><rect class="node-rect" width="15" height="20.116822429906506" style="stroke-width: 0.5; stroke: rgb(0, 0, 0); stroke-opacity: 1; fill: rgb(128, 128, 128); fill-opacity: 1;"/><text class="node-label" data-notex="1" x="0" y="0" text-anchor="end" transform="translate(-3.25,14.258411214953252)" style="cursor: default; font-family: 'Open Sans', verdana, arial, sans-serif; font-size: 12px; fill: rgb(42, 63, 95); fill-opacity: 1; white-space: pre; text-shadow: white 1px 1px 1px, white -1px -1px 1px, white 1px -1px 1px, white -1px 1px 1px;">NonActive-activated</text></g><g class="sankey-node" transform="translate(375.000,389.860)" style="opacity: 1;"><rect class="node-rect" width="15" height="114.9532710280372" style="stroke-width: 0.5; stroke: rgb(0, 0, 0); stroke-opacity: 1; fill: rgb(99, 110, 250); fill-opacity: 1;"/><text class="node-label" data-notex="1" x="0" y="0" text-anchor="start" transform="translate(18.25,61.6766355140186)" style="cursor: default; font-family: 'Open Sans', verdana, arial, sans-serif; font-size: 12px; fill: rgb(42, 63, 95); fill-opacity: 1; white-space: pre; text-shadow: white 1px 1px 1px, white -1px -1px 1px, white 1px -1px 1px, white -1px 1px 1px;">Cla</text></g><g class="sankey-node" transform="translate(375.000,0.000)" style="opacity: 1;"><rect class="node-rect" width="15" height="235.65420560747663" style="stroke-width: 0.5; stroke: rgb(0, 0, 0); stroke-opacity: 1; fill: rgb(239, 85, 59); fill-opacity: 1;"/><text class="node-label" data-notex="1" x="0" y="0" text-anchor="start" transform="translate(18.25,122.02710280373832)" style="cursor: default; font-family: 'Open Sans', verdana, arial, sans-serif; font-size: 12px; fill: rgb(42, 63, 95); fill-opacity: 1; white-space: pre; text-shadow: white 1px 1px 1px, white -1px -1px 1px, white 1px -1px 1px, white -1px 1px 1px;">VTA</text></g><g class="sankey-node" transform="translate(375.000,609.533)" style="opacity: 1;"><rect class="node-rect" width="15" height="34.48598130841128" style="stroke-width: 0.5; stroke: rgb(0, 0, 0); stroke-opacity: 1; fill: rgb(0, 204, 150); fill-opacity: 1;"/><text class="node-label" data-notex="1" x="0" y="0" text-anchor="start" transform="translate(18.25,21.44299065420564)" style="cursor: default; font-family: 'Open Sans', verdana, arial, sans-serif; font-size: 12px; fill: rgb(42, 63, 95); fill-opacity: 1; white-space: pre; text-shadow: white 1px 1px 1px, white -1px -1px 1px, white 1px -1px 1px, white -1px 1px 1px;">LC</text></g><g class="sankey-node" transform="translate(375.000,519.813)" style="opacity: 1;"><rect class="node-rect" width="15" height="74.71962616822407" style="stroke-width: 0.5; stroke: rgb(0, 0, 0); stroke-opacity: 1; fill: rgb(171, 99, 250); fill-opacity: 1;"/><text class="node-label" data-notex="1" x="0" y="0" text-anchor="start" transform="translate(18.25,41.55981308411204)" style="cursor: default; font-family: 'Open Sans', verdana, arial, sans-serif; font-size: 12px; fill: rgb(42, 63, 95); fill-opacity: 1; white-space: pre; text-shadow: white 1px 1px 1px, white -1px -1px 1px, white 1px -1px 1px, white -1px 1px 1px;">Str</text></g><g class="sankey-node" transform="translate(375.000,659.019)" style="opacity: 1;"><rect class="node-rect" width="15" height="31.61214953271042" style="stroke-width: 0.5; stroke: rgb(0, 0, 0); stroke-opacity: 1; fill: rgb(255, 161, 90); fill-opacity: 1;"/><text class="node-label" data-notex="1" x="0" y="0" text-anchor="start" transform="translate(18.25,20.00607476635521)" style="cursor: default; font-family: 'Open Sans', verdana, arial, sans-serif; font-size: 12px; fill: rgb(42, 63, 95); fill-opacity: 1; white-space: pre; text-shadow: white 1px 1px 1px, white -1px -1px 1px, white 1px -1px 1px, white -1px 1px 1px;">NAc</text></g><g class="sankey-node" transform="translate(375.000,705.631)" style="opacity: 1;"><rect class="node-rect" width="15" height="14.36915887850455" style="stroke-width: 0.5; stroke: rgb(0, 0, 0); stroke-opacity: 1; fill: rgb(25, 211, 243); fill-opacity: 1;"/><text class="node-label" data-notex="1" x="0" y="0" text-anchor="start" transform="translate(18.25,11.384579439252274)" style="cursor: default; font-family: 'Open Sans', verdana, arial, sans-serif; font-size: 12px; fill: rgb(42, 63, 95); fill-opacity: 1; white-space: pre; text-shadow: white 1px 1px 1px, white -1px -1px 1px, white 1px -1px 1px, white -1px 1px 1px;">BLA</text></g><g class="sankey-node" transform="translate(1125.000,703.768)" style="opacity: 1;"><rect class="node-rect" width="15" height="2.873831775701092" style="stroke-width: 0.5; stroke: rgb(0, 0, 0); stroke-opacity: 1; fill: rgb(255, 102, 146); fill-opacity: 1;"/><text class="node-label" data-notex="1" x="0" y="0" text-anchor="end" transform="translate(-3.25,5.636915887850545)" style="cursor: default; font-family: 'Open Sans', verdana, arial, sans-serif; font-size: 12px; fill: rgb(42, 63, 95); fill-opacity: 1; white-space: pre; text-shadow: white 1px 1px 1px, white -1px -1px 1px, white 1px -1px 1px, white -1px 1px 1px;">lHb</text></g><g class="sankey-node" transform="translate(375.000,311.636)" style="opacity: 1;"><rect class="node-rect" width="15" height="63.224299065420496" style="stroke-width: 0.5; stroke: rgb(0, 0, 0); stroke-opacity: 1; fill: rgb(182, 232, 128); fill-opacity: 1;"/><text class="node-label" data-notex="1" x="0" y="0" text-anchor="start" transform="translate(18.25,35.81214953271025)" style="cursor: default; font-family: 'Open Sans', verdana, arial, sans-serif; font-size: 12px; fill: rgb(42, 63, 95); fill-opacity: 1; white-space: pre; text-shadow: white 1px 1px 1px, white -1px -1px 1px, white 1px -1px 1px, white -1px 1px 1px;">cPFC</text></g><g class="sankey-node" transform="translate(1125.000,517.951)" style="opacity: 1;"><rect class="node-rect" width="15" height="14.36915887850455" style="stroke-width: 0.5; stroke: rgb(0, 0, 0); stroke-opacity: 1; fill: rgb(255, 151, 255); fill-opacity: 1;"/><text class="node-label" data-notex="1" x="0" y="0" text-anchor="end" transform="translate(-3.25,11.384579439252274)" style="cursor: default; font-family: 'Open Sans', verdana, arial, sans-serif; font-size: 12px; fill: rgb(42, 63, 95); fill-opacity: 1; white-space: pre; text-shadow: white 1px 1px 1px, white -1px -1px 1px, white 1px -1px 1px, white -1px 1px 1px;">dPAG</text></g><g class="sankey-node" transform="translate(375.000,250.654)" style="opacity: 1;"><rect class="node-rect" width="15" height="45.98130841121474" style="stroke-width: 0.5; stroke: rgb(0, 0, 0); stroke-opacity: 1; fill: rgb(254, 203, 82); fill-opacity: 1;"/><text class="node-label" data-notex="1" x="0" y="0" text-anchor="start" transform="translate(18.25,27.19065420560737)" style="cursor: default; font-family: 'Open Sans', verdana, arial, sans-serif; font-size: 12px; fill: rgb(42, 63, 95); fill-opacity: 1; white-space: pre; text-shadow: white 1px 1px 1px, white -1px -1px 1px, white 1px -1px 1px, white -1px 1px 1px;">LHyp</text></g></g></g><defs id="topdefs-93b83b"><g class="clips"/></defs><g class="layer-above"><g class="imagelayer"/><g class="shapelayer"/></g><g class="infolayer"><g class="g-gtitle"/><g class="first-render"/></g></svg>