<svg class="main-svg" xmlns="http://www.w3.org/2000/svg" xmlns:xlink="http://www.w3.org/1999/xlink" width="1300" height="900" style="" viewBox="0 0 1300 900"><rect x="0" y="0" width="1300" height="900" style="fill: rgb(255, 255, 255); fill-opacity: 1;"/><defs id="defs-a27f53"><g class="clips"/><g class="gradients"/><g class="patterns"/></defs><g class="bglayer"/><g class="layer-below"><g class="imagelayer"/><g class="shapelayer"/></g><g class="cartesianlayer"/><g class="polarlayer"/><g class="smithlayer"/><g class="ternarylayer"/><g class="geolayer"/><g class="funnelarealayer"/><g class="pielayer"/><g class="iciclelayer"/><g class="treemaplayer"/><g class="sunburstlayer"/><g class="glimages"/><g class="sankey" transform="translate(80,100)matrix(1 0 0 1 0 0)" style="box-sizing: content-box; position: absolute; left: 0px; shape-rendering: geometricprecision; pointer-events: none;"><g class="sankey-links" style="fill: none;"><path class="sankey-link" d="M7.50114,17.99704375246356C188.10057000000003,17.99704375246356 188.10057000000003,13.838135593220379 368.70000000000005,13.838135593220379L368.70000000000005,15.490677966101735C188.10057000000003,15.490677966101735 188.10057000000003,19.649586125344918 7.50114,19.649586125344918Z" style="stroke: rgb(68, 68, 68); stroke-opacity: 1; fill: rgb(25, 211, 243); fill-opacity: 0.6; stroke-width: 0; opacity: 1;"/><path class="sankey-link" d="M7.50114,19.649586125344918C188.10057000000003,19.649586125344918 188.10057000000003,54.05084745762704 368.70000000000005,54.05084745762704L368.70000000000005,73.88135593220332C188.10057000000003,73.88135593220332 188.10057000000003,39.48009459992119 7.50114,39.48009459992119Z" style="stroke: rgb(68, 68, 68); stroke-opacity: 1; fill: rgb(0, 204, 150); fill-opacity: 0.6; stroke-width: 0; opacity: 1;"/><path class="sankey-link" d="M7.50114,39.48009459992119C188.10057000000003,39.48009459992119 188.10057000000003,151.24322033898295 368.70000000000005,151.24322033898295L368.70000000000005,159.5059322033897C188.10057000000003,159.5059322033897 188.10057000000003,47.74280646432797 7.50114,47.74280646432797Z" style="stroke: rgb(68, 68, 68); stroke-opacity: 1; fill: rgb(239, 85, 59); fill-opacity: 0.6; stroke-width: 0; opacity: 1;"/><path class="sankey-link" d="M7.50114,47.74280646432797C188.10057000000003,47.74280646432797 188.10057000000003,282.33559322033904 368.70000000000005,282.33559322033904L368.70000000000005,292.2508474576271C188.10057000000003,292.2508474576271 188.10057000000003,57.65806070161611 7.50114,57.65806070161611Z" style="stroke: rgb(68, 68, 68); stroke-opacity: 1; fill: rgb(255, 161, 90); fill-opacity: 0.6; stroke-width: 0; opacity: 1;"/><path class="sankey-link" d="M7.50114,57.65806070161611C188.10057000000003,57.65806070161611 188.10057000000003,326.97711864406756 368.70000000000005,326.97711864406756L368.70000000000005,343.50254237288107C188.10057000000003,343.50254237288107 188.10057000000003,74.18348443042967 7.50114,74.18348443042967Z" style="stroke: rgb(68, 68, 68); stroke-opacity: 1; fill: rgb(171, 99, 250); fill-opacity: 0.6; stroke-width: 0; opacity: 1;"/><path class="sankey-link" d="M7.50114,74.18348443042967C188.10057000000003,74.18348443042967 188.10057000000003,443.8677966101695 368.70000000000005,443.8677966101695L368.70000000000005,447.17288135593213C188.10057000000003,447.17288135593213 188.10057000000003,77.48856917619239 7.50114,77.48856917619239Z" style="stroke: rgb(68, 68, 68); stroke-opacity: 1; fill: rgb(99, 110, 250); fill-opacity: 0.6; stroke-width: 0; opacity: 1;"/><path class="sankey-link" d="M7.50114,77.48856917619239C188.10057000000003,77.48856917619239 188.10057000000003,697.5025423728814 368.70000000000005,697.5025423728814L368.70000000000005,700.8076271186442C188.10057000000003,700.8076271186442 188.10057000000003,80.7936539219551 7.50114,80.7936539219551Z" style="stroke: rgb(68, 68, 68); stroke-opacity: 1; fill: rgb(255, 102, 146); fill-opacity: 0.6; stroke-width: 0; opacity: 1;"/><path class="sankey-link" d="M7.50114,113.46284982262517C188.10057000000003,113.46284982262517 188.10057000000003,15.490677966101735 368.70000000000005,15.490677966101735L368.70000000000005,40.278813559322074C188.10057000000003,40.278813559322074 188.10057000000003,138.25098541584552 7.50114,138.25098541584552Z" style="stroke: rgb(68, 68, 68); stroke-opacity: 1; fill: rgb(25, 211, 243); fill-opacity: 0.6; stroke-width: 0; opacity: 1;"/><path class="sankey-link" d="M7.50114,138.25098541584552C188.10057000000003,138.25098541584552 188.10057000000003,73.88135593220332 368.70000000000005,73.88135593220332L368.70000000000005,115.1949152542372C188.10057000000003,115.1949152542372 188.10057000000003,179.5645447378794 7.50114,179.5645447378794Z" style="stroke: rgb(68, 68, 68); stroke-opacity: 1; fill: rgb(0, 204, 150); fill-opacity: 0.6; stroke-width: 0; opacity: 1;"/><path class="sankey-link" d="M7.50114,179.56454473787943C188.10057000000003,179.56454473787943 188.10057000000003,159.50593220338973 368.70000000000005,159.50593220338973L368.70000000000005,202.472033898305C188.10057000000003,202.472033898305 188.10057000000003,222.5306464327947 7.50114,222.5306464327947Z" style="stroke: rgb(68, 68, 68); stroke-opacity: 1; fill: rgb(239, 85, 59); fill-opacity: 0.6; stroke-width: 0; opacity: 1;"/><path class="sankey-link" d="M7.50114,222.5306464327947C188.10057000000003,222.5306464327947 188.10057000000003,292.2508474576272 368.70000000000005,292.2508474576272L368.70000000000005,313.73389830508484C188.10057000000003,313.73389830508484 188.10057000000003,244.0136972802523 7.50114,244.0136972802523Z" style="stroke: rgb(68, 68, 68); stroke-opacity: 1; fill: rgb(255, 161, 90); fill-opacity: 0.6; stroke-width: 0; opacity: 1;"/><path class="sankey-link" d="M7.50114,244.0136972802523C188.10057000000003,244.0136972802523 188.10057000000003,343.5025423728811 368.70000000000005,343.5025423728811L368.70000000000005,402.99406779660995C188.10057000000003,402.99406779660995 188.10057000000003,303.50522270398113 7.50114,303.50522270398113Z" style="stroke: rgb(68, 68, 68); stroke-opacity: 1; fill: rgb(171, 99, 250); fill-opacity: 0.6; stroke-width: 0; opacity: 1;"/><path class="sankey-link" d="M7.50114,303.50522270398113C188.10057000000003,303.50522270398113 188.10057000000003,447.1728813559322 368.70000000000005,447.1728813559322L368.70000000000005,462.0457627118644C188.10057000000003,462.0457627118644 188.10057000000003,318.37810405991337 7.50114,318.37810405991337Z" style="stroke: rgb(68, 68, 68); stroke-opacity: 1; fill: rgb(99, 110, 250); fill-opacity: 0.6; stroke-width: 0; opacity: 1;"/><path class="sankey-link" d="M7.50114,318.3781040599133C188.10057000000003,318.3781040599133 188.10057000000003,593.2144067796611 368.70000000000005,593.2144067796611L368.70000000000005,621.3076271186441C188.10057000000003,621.3076271186441 188.10057000000003,346.4713243988964 7.50114,346.4713243988964Z" style="stroke: rgb(68, 68, 68); stroke-opacity: 1; fill: rgb(255, 151, 255); fill-opacity: 0.6; stroke-width: 0; opacity: 1;"/><path class="sankey-link" d="M7.50114,346.47132439889634C188.10057000000003,346.47132439889634 188.10057000000003,660.5949152542374 368.70000000000005,660.5949152542374L368.70000000000005,678.7728813559323C188.10057000000003,678.7728813559323 188.10057000000003,364.64929050059123 7.50114,364.64929050059123Z" style="stroke: rgb(68, 68, 68); stroke-opacity: 1; fill: rgb(182, 232, 128); fill-opacity: 0.6; stroke-width: 0; opacity: 1;"/><path class="sankey-link" d="M7.50114,364.64929050059123C188.10057000000003,364.64929050059123 188.10057000000003,700.8076271186441 368.70000000000005,700.8076271186441L368.70000000000005,705.7652542372881C188.10057000000003,705.7652542372881 188.10057000000003,369.6069176192353 7.50114,369.6069176192353Z" style="stroke: rgb(68, 68, 68); stroke-opacity: 1; fill: rgb(255, 102, 146); fill-opacity: 0.6; stroke-width: 0; opacity: 1;"/><path class="sankey-link" d="M7.50114,399.53100118249904C188.10057000000003,399.53100118249904 188.10057000000003,40.278813559322074 368.70000000000005,40.278813559322074L368.70000000000005,41.93135593220343C188.10057000000003,41.93135593220343 188.10057000000003,401.1835435553804 7.50114,401.1835435553804Z" style="stroke: rgb(68, 68, 68); stroke-opacity: 1; fill: rgb(25, 211, 243); fill-opacity: 0.6; stroke-width: 0; opacity: 1;"/><path class="sankey-link" d="M7.50114,401.18354355538037C188.10057000000003,401.18354355538037 188.10057000000003,115.19491525423722 368.70000000000005,115.19491525423722L368.70000000000005,120.15254237288129C188.10057000000003,120.15254237288129 188.10057000000003,406.1411706740244 7.50114,406.1411706740244Z" style="stroke: rgb(68, 68, 68); stroke-opacity: 1; fill: rgb(0, 204, 150); fill-opacity: 0.6; stroke-width: 0; opacity: 1;"/><path class="sankey-link" d="M7.50114,406.1411706740244C188.10057000000003,406.1411706740244 188.10057000000003,313.7338983050848 368.70000000000005,313.7338983050848L368.70000000000005,315.38644067796616C188.10057000000003,315.38644067796616 188.10057000000003,407.7937130469058 7.50114,407.7937130469058Z" style="stroke: rgb(68, 68, 68); stroke-opacity: 1; fill: rgb(255, 161, 90); fill-opacity: 0.6; stroke-width: 0; opacity: 1;"/><path class="sankey-link" d="M7.50114,407.79371304690574C188.10057000000003,407.79371304690574 188.10057000000003,402.99406779660995 368.70000000000005,402.99406779660995L368.70000000000005,404.64661016949134C188.10057000000003,404.64661016949134 188.10057000000003,409.4462554197871 7.50114,409.4462554197871Z" style="stroke: rgb(68, 68, 68); stroke-opacity: 1; fill: rgb(171, 99, 250); fill-opacity: 0.6; stroke-width: 0; opacity: 1;"/><path class="sankey-link" d="M7.50114,409.44625541978706C188.10057000000003,409.44625541978706 188.10057000000003,621.3076271186442 368.70000000000005,621.3076271186442L368.70000000000005,624.612711864407C188.10057000000003,624.612711864407 188.10057000000003,412.7513401655497 7.50114,412.7513401655497Z" style="stroke: rgb(68, 68, 68); stroke-opacity: 1; fill: rgb(255, 151, 255); fill-opacity: 0.6; stroke-width: 0; opacity: 1;"/><path class="sankey-link" d="M7.50114,412.7513401655498C188.10057000000003,412.7513401655498 188.10057000000003,678.7728813559323 368.70000000000005,678.7728813559323L368.70000000000005,680.4254237288136C188.10057000000003,680.4254237288136 188.10057000000003,414.40388253843116 7.50114,414.40388253843116Z" style="stroke: rgb(68, 68, 68); stroke-opacity: 1; fill: rgb(182, 232, 128); fill-opacity: 0.6; stroke-width: 0; opacity: 1;"/><path class="sankey-link" d="M7.50114,436.37660622782823C188.10057000000003,436.37660622782823 188.10057000000003,120.15254237288129 368.70000000000005,120.15254237288129L368.70000000000005,130.0677966101694C188.10057000000003,130.0677966101694 188.10057000000003,446.2918604651163 7.50114,446.2918604651163Z" style="stroke: rgb(68, 68, 68); stroke-opacity: 1; fill: rgb(0, 204, 150); fill-opacity: 0.6; stroke-width: 0; opacity: 1;"/><path class="sankey-link" d="M7.50114,446.2918604651164C188.10057000000003,446.2918604651164 188.10057000000003,202.47203389830497 368.70000000000005,202.47203389830497L368.70000000000005,210.73474576271173C188.10057000000003,210.73474576271173 188.10057000000003,454.5545723295232 7.50114,454.5545723295232Z" style="stroke: rgb(68, 68, 68); stroke-opacity: 1; fill: rgb(239, 85, 59); fill-opacity: 0.6; stroke-width: 0; opacity: 1;"/><path class="sankey-link" d="M7.50114,454.5545723295231C188.10057000000003,454.5545723295231 188.10057000000003,234.58728813559333 368.70000000000005,234.58728813559333L368.70000000000005,247.80762711864418C188.10057000000003,247.80762711864418 188.10057000000003,467.774911312574 7.50114,467.774911312574Z" style="stroke: rgb(68, 68, 68); stroke-opacity: 1; fill: rgb(254, 203, 82); fill-opacity: 0.6; stroke-width: 0; opacity: 1;"/><path class="sankey-link" d="M7.50114,467.774911312574C188.10057000000003,467.774911312574 188.10057000000003,404.6466101694913 368.70000000000005,404.6466101694913L368.70000000000005,419.5194915254235C188.10057000000003,419.5194915254235 188.10057000000003,482.6477926685062 7.50114,482.6477926685062Z" style="stroke: rgb(68, 68, 68); stroke-opacity: 1; fill: rgb(171, 99, 250); fill-opacity: 0.6; stroke-width: 0; opacity: 1;"/><path class="sankey-link" d="M7.50114,482.64779266850616C188.10057000000003,482.64779266850616 188.10057000000003,462.04576271186437 368.70000000000005,462.04576271186437L368.70000000000005,519.8847457627119C188.10057000000003,519.8847457627119 188.10057000000003,540.4867757193537 7.50114,540.4867757193537Z" style="stroke: rgb(68, 68, 68); stroke-opacity: 1; fill: rgb(99, 110, 250); fill-opacity: 0.6; stroke-width: 0; opacity: 1;"/><path class="sankey-link" d="M7.50114,540.4867757193537C188.10057000000003,540.4867757193537 188.10057000000003,624.6127118644068 368.70000000000005,624.6127118644068L368.70000000000005,636.1805084745764C188.10057000000003,636.1805084745764 188.10057000000003,552.0545723295232 7.50114,552.0545723295232Z" style="stroke: rgb(68, 68, 68); stroke-opacity: 1; fill: rgb(255, 151, 255); fill-opacity: 0.6; stroke-width: 0; opacity: 1;"/><path class="sankey-link" d="M7.50114,552.0545723295231C188.10057000000003,552.0545723295231 188.10057000000003,680.4254237288137 368.70000000000005,680.4254237288137L368.70000000000005,682.077966101695C188.10057000000003,682.077966101695 188.10057000000003,553.7071147024044 7.50114,553.7071147024044Z" style="stroke: rgb(68, 68, 68); stroke-opacity: 1; fill: rgb(182, 232, 128); fill-opacity: 0.6; stroke-width: 0; opacity: 1;"/><path class="sankey-link" d="M7.50114,581.5486992510841C188.10057000000003,581.5486992510841 188.10057000000003,130.0677966101694 368.70000000000005,130.0677966101694L368.70000000000005,139.98305084745755C188.10057000000003,139.98305084745755 188.10057000000003,591.4639534883722 7.50114,591.4639534883722Z" style="stroke: rgb(68, 68, 68); stroke-opacity: 1; fill: rgb(0, 204, 150); fill-opacity: 0.6; stroke-width: 0; opacity: 1;"/><path class="sankey-link" d="M7.50114,591.4639534883722C188.10057000000003,591.4639534883722 188.10057000000003,210.73474576271175 368.70000000000005,210.73474576271175L368.70000000000005,218.9974576271185C188.10057000000003,218.9974576271185 188.10057000000003,599.726665352779 7.50114,599.726665352779Z" style="stroke: rgb(68, 68, 68); stroke-opacity: 1; fill: rgb(239, 85, 59); fill-opacity: 0.6; stroke-width: 0; opacity: 1;"/><path class="sankey-link" d="M7.50114,599.726665352779C188.10057000000003,599.726665352779 188.10057000000003,247.80762711864418 368.70000000000005,247.80762711864418L368.70000000000005,261.02796610169503C188.10057000000003,261.02796610169503 188.10057000000003,612.9470043358299 7.50114,612.9470043358299Z" style="stroke: rgb(68, 68, 68); stroke-opacity: 1; fill: rgb(254, 203, 82); fill-opacity: 0.6; stroke-width: 0; opacity: 1;"/><path class="sankey-link" d="M7.50114,612.9470043358299C188.10057000000003,612.9470043358299 188.10057000000003,419.51949152542346 368.70000000000005,419.51949152542346L368.70000000000005,434.3923728813557C188.10057000000003,434.3923728813557 188.10057000000003,627.819885691762 7.50114,627.819885691762Z" style="stroke: rgb(68, 68, 68); stroke-opacity: 1; fill: rgb(171, 99, 250); fill-opacity: 0.6; stroke-width: 0; opacity: 1;"/><path class="sankey-link" d="M7.50114,627.8198856917621C188.10057000000003,627.8198856917621 188.10057000000003,519.8847457627119 368.70000000000005,519.8847457627119L368.70000000000005,577.7237288135593C188.10057000000003,577.7237288135593 188.10057000000003,685.6588687426096 7.50114,685.6588687426096Z" style="stroke: rgb(68, 68, 68); stroke-opacity: 1; fill: rgb(99, 110, 250); fill-opacity: 0.6; stroke-width: 0; opacity: 1;"/><path class="sankey-link" d="M7.50114,685.6588687426096C188.10057000000003,685.6588687426096 188.10057000000003,636.1805084745763 368.70000000000005,636.1805084745763L368.70000000000005,647.7483050847459C188.10057000000003,647.7483050847459 188.10057000000003,697.2266653527792 7.50114,697.2266653527792Z" style="stroke: rgb(68, 68, 68); stroke-opacity: 1; fill: rgb(255, 151, 255); fill-opacity: 0.6; stroke-width: 0; opacity: 1;"/><path class="sankey-link" d="M7.50114,697.226665352779C188.10057000000003,697.226665352779 188.10057000000003,682.0779661016951 368.70000000000005,682.0779661016951L368.70000000000005,683.7305084745764C188.10057000000003,683.7305084745764 188.10057000000003,698.8792077256603 7.50114,698.8792077256603Z" style="stroke: rgb(68, 68, 68); stroke-opacity: 1; fill: rgb(182, 232, 128); fill-opacity: 0.6; stroke-width: 0; opacity: 1;"/><path class="sankey-link" d="M383.70000000000005,13.83813559322038C564.3000000000001,13.83813559322038 564.3000000000001,42.250819672131215 744.9000000000001,42.250819672131215L744.9000000000001,52.16607390941935C564.3000000000001,52.16607390941935 564.3000000000001,23.753389830508517 383.70000000000005,23.753389830508517Z" style="stroke: rgb(68, 68, 68); stroke-opacity: 1; fill: rgb(25, 211, 243); fill-opacity: 0.6; stroke-width: 0; opacity: 1;"/><path class="sankey-link" d="M383.70000000000005,23.753389830508514C564.3000000000001,23.753389830508514 564.3000000000001,396.82118644067793 744.9000000000001,396.82118644067793L744.9000000000001,405.08389830508474C564.3000000000001,405.08389830508474 564.3000000000001,32.01610169491529 383.70000000000005,32.01610169491529Z" style="stroke: rgb(68, 68, 68); stroke-opacity: 1; fill: rgb(25, 211, 243); fill-opacity: 0.6; stroke-width: 0; opacity: 1;"/><path class="sankey-link" d="M383.70000000000005,54.05084745762704C564.3000000000001,54.05084745762704 564.3000000000001,52.16607390941935 744.9000000000001,52.16607390941935L744.9000000000001,81.91183662128377C564.3000000000001,81.91183662128377 564.3000000000001,83.79661016949146 383.70000000000005,83.79661016949146Z" style="stroke: rgb(68, 68, 68); stroke-opacity: 1; fill: rgb(0, 204, 150); fill-opacity: 0.6; stroke-width: 0; opacity: 1;"/><path class="sankey-link" d="M383.70000000000005,83.79661016949146C564.3000000000001,83.79661016949146 564.3000000000001,287.7624756876911 744.9000000000001,287.7624756876911L744.9000000000001,291.06756043345376C564.3000000000001,291.06756043345376 564.3000000000001,87.10169491525417 383.70000000000005,87.10169491525417Z" style="stroke: rgb(68, 68, 68); stroke-opacity: 1; fill: rgb(0, 204, 150); fill-opacity: 0.6; stroke-width: 0; opacity: 1;"/><path class="sankey-link" d="M383.70000000000005,87.10169491525417C564.3000000000001,87.10169491525417 564.3000000000001,405.0838983050847 744.9000000000001,405.0838983050847L744.9000000000001,434.82966101694905C564.3000000000001,434.82966101694905 564.3000000000001,116.84745762711859 383.70000000000005,116.84745762711859Z" style="stroke: rgb(68, 68, 68); stroke-opacity: 1; fill: rgb(0, 204, 150); fill-opacity: 0.6; stroke-width: 0; opacity: 1;"/><path class="sankey-link" d="M383.70000000000005,116.84745762711859C564.3000000000001,116.84745762711859 564.3000000000001,647.0544456793556 744.9000000000001,647.0544456793556L744.9000000000001,650.3595304251184C564.3000000000001,650.3595304251184 564.3000000000001,120.1525423728813 383.70000000000005,120.1525423728813Z" style="stroke: rgb(68, 68, 68); stroke-opacity: 1; fill: rgb(0, 204, 150); fill-opacity: 0.6; stroke-width: 0; opacity: 1;"/><path class="sankey-link" d="M383.70000000000005,151.24322033898295C564.3000000000001,151.24322033898295 564.3000000000001,81.91183662128375 744.9000000000001,81.91183662128375L744.9000000000001,113.31014170602953C564.3000000000001,113.31014170602953 564.3000000000001,182.6415254237287 383.70000000000005,182.6415254237287Z" style="stroke: rgb(68, 68, 68); stroke-opacity: 1; fill: rgb(239, 85, 59); fill-opacity: 0.6; stroke-width: 0; opacity: 1;"/><path class="sankey-link" d="M383.70000000000005,182.64152542372872C564.3000000000001,182.64152542372872 564.3000000000001,291.0675604334538 744.9000000000001,291.0675604334538L744.9000000000001,296.02518755209786C564.3000000000001,296.02518755209786 564.3000000000001,187.59915254237276 383.70000000000005,187.59915254237276Z" style="stroke: rgb(68, 68, 68); stroke-opacity: 1; fill: rgb(239, 85, 59); fill-opacity: 0.6; stroke-width: 0; opacity: 1;"/><path class="sankey-link" d="M383.70000000000005,187.5991525423728C564.3000000000001,187.5991525423728 564.3000000000001,434.8296610169491 744.9000000000001,434.8296610169491L744.9000000000001,466.22796610169485C564.3000000000001,466.22796610169485 564.3000000000001,218.99745762711854 383.70000000000005,218.99745762711854Z" style="stroke: rgb(68, 68, 68); stroke-opacity: 1; fill: rgb(239, 85, 59); fill-opacity: 0.6; stroke-width: 0; opacity: 1;"/><path class="sankey-link" d="M383.70000000000005,218.99745762711856C564.3000000000001,218.99745762711856 564.3000000000001,650.3595304251182 744.9000000000001,650.3595304251182L744.9000000000001,653.664615170881C564.3000000000001,653.664615170881 564.3000000000001,222.30254237288128 383.70000000000005,222.30254237288128Z" style="stroke: rgb(68, 68, 68); stroke-opacity: 1; fill: rgb(239, 85, 59); fill-opacity: 0.6; stroke-width: 0; opacity: 1;"/><path class="sankey-link" d="M383.70000000000005,234.58728813559333C564.3000000000001,234.58728813559333 564.3000000000001,113.31014170602953 744.9000000000001,113.31014170602953L744.9000000000001,126.53048068908038C564.3000000000001,126.53048068908038 564.3000000000001,247.80762711864418 383.70000000000005,247.80762711864418Z" style="stroke: rgb(68, 68, 68); stroke-opacity: 1; fill: rgb(254, 203, 82); fill-opacity: 0.6; stroke-width: 0; opacity: 1;"/><path class="sankey-link" d="M383.70000000000005,247.80762711864418C564.3000000000001,247.80762711864418 564.3000000000001,296.02518755209786 744.9000000000001,296.02518755209786L744.9000000000001,305.94044178938594C564.3000000000001,305.94044178938594 564.3000000000001,257.7228813559323 383.70000000000005,257.7228813559323Z" style="stroke: rgb(68, 68, 68); stroke-opacity: 1; fill: rgb(254, 203, 82); fill-opacity: 0.6; stroke-width: 0; opacity: 1;"/><path class="sankey-link" d="M383.70000000000005,257.7228813559323C564.3000000000001,257.7228813559323 564.3000000000001,466.22796610169485 744.9000000000001,466.22796610169485L744.9000000000001,474.49067796610166C564.3000000000001,474.49067796610166 564.3000000000001,265.9855932203391 383.70000000000005,265.9855932203391Z" style="stroke: rgb(68, 68, 68); stroke-opacity: 1; fill: rgb(254, 203, 82); fill-opacity: 0.6; stroke-width: 0; opacity: 1;"/><path class="sankey-link" d="M383.70000000000005,265.98559322033907C564.3000000000001,265.98559322033907 564.3000000000001,653.6646151708809 744.9000000000001,653.6646151708809L744.9000000000001,656.9696999166437C564.3000000000001,656.9696999166437 564.3000000000001,269.2906779661017 383.70000000000005,269.2906779661017Z" style="stroke: rgb(68, 68, 68); stroke-opacity: 1; fill: rgb(254, 203, 82); fill-opacity: 0.6; stroke-width: 0; opacity: 1;"/><path class="sankey-link" d="M383.70000000000005,282.33559322033904C564.3000000000001,282.33559322033904 564.3000000000001,126.53048068908036 744.9000000000001,126.53048068908036L744.9000000000001,138.09827729924984C564.3000000000001,138.09827729924984 564.3000000000001,293.9033898305085 383.70000000000005,293.9033898305085Z" style="stroke: rgb(68, 68, 68); stroke-opacity: 1; fill: rgb(255, 161, 90); fill-opacity: 0.6; stroke-width: 0; opacity: 1;"/><path class="sankey-link" d="M383.70000000000005,293.9033898305085C564.3000000000001,293.9033898305085 564.3000000000001,474.4906779661016 744.9000000000001,474.4906779661016L744.9000000000001,487.71101694915245C564.3000000000001,487.71101694915245 564.3000000000001,307.12372881355935 383.70000000000005,307.12372881355935Z" style="stroke: rgb(68, 68, 68); stroke-opacity: 1; fill: rgb(255, 161, 90); fill-opacity: 0.6; stroke-width: 0; opacity: 1;"/><path class="sankey-link" d="M383.70000000000005,307.12372881355935C564.3000000000001,307.12372881355935 564.3000000000001,656.9696999166435 744.9000000000001,656.9696999166435L744.9000000000001,658.6222422895248C564.3000000000001,658.6222422895248 564.3000000000001,308.77627118644074 383.70000000000005,308.77627118644074Z" style="stroke: rgb(68, 68, 68); stroke-opacity: 1; fill: rgb(255, 161, 90); fill-opacity: 0.6; stroke-width: 0; opacity: 1;"/><path class="sankey-link" d="M383.70000000000005,326.97711864406756C564.3000000000001,326.97711864406756 564.3000000000001,138.09827729924987 744.9000000000001,138.09827729924987L744.9000000000001,172.80166712975833C564.3000000000001,172.80166712975833 564.3000000000001,361.6805084745761 383.70000000000005,361.6805084745761Z" style="stroke: rgb(68, 68, 68); stroke-opacity: 1; fill: rgb(171, 99, 250); fill-opacity: 0.6; stroke-width: 0; opacity: 1;"/><path class="sankey-link" d="M383.70000000000005,361.680508474576C564.3000000000001,361.680508474576 564.3000000000001,305.940441789386 744.9000000000001,305.940441789386L744.9000000000001,309.24552653514866C564.3000000000001,309.24552653514866 564.3000000000001,364.98559322033867 383.70000000000005,364.98559322033867Z" style="stroke: rgb(68, 68, 68); stroke-opacity: 1; fill: rgb(171, 99, 250); fill-opacity: 0.6; stroke-width: 0; opacity: 1;"/><path class="sankey-link" d="M383.70000000000005,364.9855932203387C564.3000000000001,364.9855932203387 564.3000000000001,487.71101694915245 744.9000000000001,487.71101694915245L744.9000000000001,529.0245762711863C564.3000000000001,529.0245762711863 564.3000000000001,406.29915254237267 383.70000000000005,406.29915254237267Z" style="stroke: rgb(68, 68, 68); stroke-opacity: 1; fill: rgb(171, 99, 250); fill-opacity: 0.6; stroke-width: 0; opacity: 1;"/><path class="sankey-link" d="M383.70000000000005,406.2991525423726C564.3000000000001,406.2991525423726 564.3000000000001,658.6222422895249 744.9000000000001,658.6222422895249L744.9000000000001,665.2324117810502C564.3000000000001,665.2324117810502 564.3000000000001,412.90932203389804 383.70000000000005,412.90932203389804Z" style="stroke: rgb(68, 68, 68); stroke-opacity: 1; fill: rgb(171, 99, 250); fill-opacity: 0.6; stroke-width: 0; opacity: 1;"/><path class="sankey-link" d="M383.70000000000005,443.8677966101695C564.3000000000001,443.8677966101695 564.3000000000001,172.80166712975836 744.9000000000001,172.80166712975836L744.9000000000001,217.42031119755495C564.3000000000001,217.42031119755495 564.3000000000001,488.4864406779661 383.70000000000005,488.4864406779661Z" style="stroke: rgb(68, 68, 68); stroke-opacity: 1; fill: rgb(99, 110, 250); fill-opacity: 0.6; stroke-width: 0; opacity: 1;"/><path class="sankey-link" d="M383.70000000000005,488.4864406779661C564.3000000000001,488.4864406779661 564.3000000000001,309.2455265351487 744.9000000000001,309.2455265351487L744.9000000000001,338.99128924701307C564.3000000000001,338.99128924701307 564.3000000000001,518.2322033898305 383.70000000000005,518.2322033898305Z" style="stroke: rgb(68, 68, 68); stroke-opacity: 1; fill: rgb(99, 110, 250); fill-opacity: 0.6; stroke-width: 0; opacity: 1;"/><path class="sankey-link" d="M383.70000000000005,518.2322033898305C564.3000000000001,518.2322033898305 564.3000000000001,529.0245762711863 744.9000000000001,529.0245762711863L744.9000000000001,571.9906779661017C564.3000000000001,571.9906779661017 564.3000000000001,561.1983050847458 383.70000000000005,561.1983050847458Z" style="stroke: rgb(68, 68, 68); stroke-opacity: 1; fill: rgb(99, 110, 250); fill-opacity: 0.6; stroke-width: 0; opacity: 1;"/><path class="sankey-link" d="M383.70000000000005,561.1983050847457C564.3000000000001,561.1983050847457 564.3000000000001,665.2324117810504 744.9000000000001,665.2324117810504L744.9000000000001,686.715462628508C564.3000000000001,686.715462628508 564.3000000000001,582.6813559322034 383.70000000000005,582.6813559322034Z" style="stroke: rgb(68, 68, 68); stroke-opacity: 1; fill: rgb(99, 110, 250); fill-opacity: 0.6; stroke-width: 0; opacity: 1;"/><path class="sankey-link" d="M383.70000000000005,593.2144067796611C564.3000000000001,593.2144067796611 564.3000000000001,217.42031119755495 744.9000000000001,217.42031119755495L744.9000000000001,230.6406501806058C564.3000000000001,230.6406501806058 564.3000000000001,606.4347457627119 383.70000000000005,606.4347457627119Z" style="stroke: rgb(68, 68, 68); stroke-opacity: 1; fill: rgb(255, 151, 255); fill-opacity: 0.6; stroke-width: 0; opacity: 1;"/><path class="sankey-link" d="M383.70000000000005,606.4347457627119C564.3000000000001,606.4347457627119 564.3000000000001,338.9912892470131 744.9000000000001,338.9912892470131L744.9000000000001,345.60145873853855C564.3000000000001,345.60145873853855 564.3000000000001,613.0449152542373 383.70000000000005,613.0449152542373Z" style="stroke: rgb(68, 68, 68); stroke-opacity: 1; fill: rgb(255, 151, 255); fill-opacity: 0.6; stroke-width: 0; opacity: 1;"/><path class="sankey-link" d="M383.70000000000005,613.0449152542374C564.3000000000001,613.0449152542374 564.3000000000001,571.9906779661015 744.9000000000001,571.9906779661015L744.9000000000001,581.9059322033896C564.3000000000001,581.9059322033896 564.3000000000001,622.9601694915254 383.70000000000005,622.9601694915254Z" style="stroke: rgb(68, 68, 68); stroke-opacity: 1; fill: rgb(255, 151, 255); fill-opacity: 0.6; stroke-width: 0; opacity: 1;"/><path class="sankey-link" d="M383.70000000000005,622.9601694915254C564.3000000000001,622.9601694915254 564.3000000000001,686.715462628508 744.9000000000001,686.715462628508L744.9000000000001,694.9781744929148C564.3000000000001,694.9781744929148 564.3000000000001,631.2228813559323 383.70000000000005,631.2228813559323Z" style="stroke: rgb(68, 68, 68); stroke-opacity: 1; fill: rgb(255, 151, 255); fill-opacity: 0.6; stroke-width: 0; opacity: 1;"/><path class="sankey-link" d="M383.70000000000005,660.5949152542374C564.3000000000001,660.5949152542374 564.3000000000001,230.6406501806058 744.9000000000001,230.6406501806058L744.9000000000001,233.94573492636852C564.3000000000001,233.94573492636852 564.3000000000001,663.9000000000002 383.70000000000005,663.9000000000002Z" style="stroke: rgb(68, 68, 68); stroke-opacity: 1; fill: rgb(182, 232, 128); fill-opacity: 0.6; stroke-width: 0; opacity: 1;"/><path class="sankey-link" d="M383.70000000000005,663.9000000000001C564.3000000000001,663.9000000000001 564.3000000000001,581.9059322033896 744.9000000000001,581.9059322033896L744.9000000000001,591.8211864406777C564.3000000000001,591.8211864406777 564.3000000000001,673.8152542372882 383.70000000000005,673.8152542372882Z" style="stroke: rgb(68, 68, 68); stroke-opacity: 1; fill: rgb(182, 232, 128); fill-opacity: 0.6; stroke-width: 0; opacity: 1;"/><path class="sankey-link" d="M383.70000000000005,673.8152542372882C564.3000000000001,673.8152542372882 564.3000000000001,694.9781744929148 744.9000000000001,694.9781744929148L744.9000000000001,698.2832592386776C564.3000000000001,698.2832592386776 564.3000000000001,677.1203389830509 383.70000000000005,677.1203389830509Z" style="stroke: rgb(68, 68, 68); stroke-opacity: 1; fill: rgb(182, 232, 128); fill-opacity: 0.6; stroke-width: 0; opacity: 1;"/><path class="sankey-link" d="M383.70000000000005,697.5025423728814C564.3000000000001,697.5025423728814 564.3000000000001,233.94573492636852 744.9000000000001,233.94573492636852L744.9000000000001,237.25081967213123C564.3000000000001,237.25081967213123 564.3000000000001,700.8076271186442 383.70000000000005,700.8076271186442Z" style="stroke: rgb(68, 68, 68); stroke-opacity: 1; fill: rgb(255, 102, 146); fill-opacity: 0.6; stroke-width: 0; opacity: 1;"/><path class="sankey-link" d="M383.70000000000005,700.8076271186441C564.3000000000001,700.8076271186441 564.3000000000001,591.8211864406777 744.9000000000001,591.8211864406777L744.9000000000001,596.7788135593217C564.3000000000001,596.7788135593217 564.3000000000001,705.7652542372881 383.70000000000005,705.7652542372881Z" style="stroke: rgb(68, 68, 68); stroke-opacity: 1; fill: rgb(255, 102, 146); fill-opacity: 0.6; stroke-width: 0; opacity: 1;"/><path class="sankey-link" d="M759.9000000000001,42.250819672131215C946.19943,42.250819672131215 946.19943,23.037457627118556 1132.49886,23.037457627118556L1132.49886,27.995084745762625C946.19943,27.995084745762625 946.19943,47.208446790775284 759.9000000000001,47.208446790775284Z" style="stroke: rgb(68, 68, 68); stroke-opacity: 1; fill: rgb(25, 211, 243); fill-opacity: 0.6; stroke-width: 0; opacity: 1;"/><path class="sankey-link" d="M759.9000000000001,143.05590441789394C946.19943,143.05590441789394 946.19943,154.95106696304532 1132.49886,154.95106696304532L1132.49886,159.90869408168936C946.19943,159.90869408168936 946.19943,148.01353153653798 759.9000000000001,148.01353153653798Z" style="stroke: rgb(68, 68, 68); stroke-opacity: 1; fill: rgb(25, 211, 243); fill-opacity: 0.6; stroke-width: 0; opacity: 1;"/><path class="sankey-link" d="M759.9000000000001,396.82118644067793C946.19943,396.82118644067793 946.19943,376.8053264795776 1132.49886,376.8053264795776L1132.49886,381.76295359822166C946.19943,381.76295359822166 946.19943,401.778813559322 759.9000000000001,401.778813559322Z" style="stroke: rgb(68, 68, 68); stroke-opacity: 1; fill: rgb(25, 211, 243); fill-opacity: 0.6; stroke-width: 0; opacity: 1;"/><path class="sankey-link" d="M759.9000000000001,497.62627118644053C946.19943,497.62627118644053 946.19943,509.1437288135595 1132.49886,509.1437288135595L1132.49886,512.4488135593222C946.19943,512.4488135593222 946.19943,500.9313559322032 759.9000000000001,500.9313559322032Z" style="stroke: rgb(68, 68, 68); stroke-opacity: 1; fill: rgb(25, 211, 243); fill-opacity: 0.6; stroke-width: 0; opacity: 1;"/><path class="sankey-link" d="M759.9000000000001,47.208446790775284C946.19943,47.208446790775284 946.19943,27.99508474576263 1132.49886,27.99508474576263L1132.49886,49.47813559322026C946.19943,49.47813559322026 946.19943,68.69149763823292 759.9000000000001,68.69149763823292Z" style="stroke: rgb(68, 68, 68); stroke-opacity: 1; fill: rgb(0, 204, 150); fill-opacity: 0.6; stroke-width: 0; opacity: 1;"/><path class="sankey-link" d="M759.9000000000001,148.013531536538C946.19943,148.013531536538 946.19943,159.9086940816894 1132.49886,159.9086940816894L1132.49886,168.17140594609614C946.19943,168.17140594609614 946.19943,156.27624340094476 759.9000000000001,156.27624340094476Z" style="stroke: rgb(68, 68, 68); stroke-opacity: 1; fill: rgb(0, 204, 150); fill-opacity: 0.6; stroke-width: 0; opacity: 1;"/><path class="sankey-link" d="M759.9000000000001,287.7624756876911C946.19943,287.7624756876911 946.19943,274.16580716865815 1132.49886,274.16580716865815L1132.49886,275.81834954153953C946.19943,275.81834954153953 946.19943,289.4150180605725 759.9000000000001,289.4150180605725Z" style="stroke: rgb(68, 68, 68); stroke-opacity: 1; fill: rgb(0, 204, 150); fill-opacity: 0.6; stroke-width: 0; opacity: 1;"/><path class="sankey-link" d="M759.9000000000001,317.5082383995554C946.19943,317.5082383995554 946.19943,323.2674881911644 1132.49886,323.2674881911644L1132.49886,324.92003056404576C946.19943,324.92003056404576 946.19943,319.1607807724368 759.9000000000001,319.1607807724368Z" style="stroke: rgb(68, 68, 68); stroke-opacity: 1; fill: rgb(0, 204, 150); fill-opacity: 0.6; stroke-width: 0; opacity: 1;"/><path class="sankey-link" d="M759.9000000000001,401.778813559322C946.19943,401.778813559322 946.19943,381.76295359822166 1132.49886,381.76295359822166L1132.49886,391.67820783550974C946.19943,391.67820783550974 946.19943,411.69406779661006 759.9000000000001,411.69406779661006Z" style="stroke: rgb(68, 68, 68); stroke-opacity: 1; fill: rgb(0, 204, 150); fill-opacity: 0.6; stroke-width: 0; opacity: 1;"/><path class="sankey-link" d="M759.9000000000001,500.93135593220325C946.19943,500.93135593220325 946.19943,512.4488135593222 1132.49886,512.4488135593222L1132.49886,532.2793220338983C946.19943,532.2793220338983 946.19943,520.7618644067795 759.9000000000001,520.7618644067795Z" style="stroke: rgb(68, 68, 68); stroke-opacity: 1; fill: rgb(0, 204, 150); fill-opacity: 0.6; stroke-width: 0; opacity: 1;"/><path class="sankey-link" d="M759.9000000000001,671.8425812725758C946.19943,671.8425812725758 946.19943,676.8937593776052 1132.49886,676.8937593776052L1132.49886,680.198844123368C946.19943,680.198844123368 946.19943,675.1476660183386 759.9000000000001,675.1476660183386Z" style="stroke: rgb(68, 68, 68); stroke-opacity: 1; fill: rgb(0, 204, 150); fill-opacity: 0.6; stroke-width: 0; opacity: 1;"/><path class="sankey-link" d="M759.9000000000001,68.6914976382329C946.19943,68.6914976382329 946.19943,49.47813559322025 1132.49886,49.47813559322025L1132.49886,62.6984745762711C946.19943,62.6984745762711 946.19943,81.91183662128375 759.9000000000001,81.91183662128375Z" style="stroke: rgb(68, 68, 68); stroke-opacity: 1; fill: rgb(239, 85, 59); fill-opacity: 0.6; stroke-width: 0; opacity: 1;"/><path class="sankey-link" d="M759.9000000000001,156.2762434009448C946.19943,156.2762434009448 946.19943,168.17140594609617 1132.49886,168.17140594609617L1132.49886,186.34937204779106C946.19943,186.34937204779106 946.19943,174.45420950263969 759.9000000000001,174.45420950263969Z" style="stroke: rgb(68, 68, 68); stroke-opacity: 1; fill: rgb(239, 85, 59); fill-opacity: 0.6; stroke-width: 0; opacity: 1;"/><path class="sankey-link" d="M759.9000000000001,289.41501806057244C946.19943,289.41501806057244 946.19943,275.8183495415395 1132.49886,275.8183495415395L1132.49886,277.47089191442086C946.19943,277.47089191442086 946.19943,291.0675604334538 759.9000000000001,291.0675604334538Z" style="stroke: rgb(68, 68, 68); stroke-opacity: 1; fill: rgb(239, 85, 59); fill-opacity: 0.6; stroke-width: 0; opacity: 1;"/><path class="sankey-link" d="M759.9000000000001,319.16078077243674C946.19943,319.16078077243674 946.19943,324.9200305640457 1132.49886,324.9200305640457L1132.49886,328.22511530980836C946.19943,328.22511530980836 946.19943,322.4658655181994 759.9000000000001,322.4658655181994Z" style="stroke: rgb(68, 68, 68); stroke-opacity: 1; fill: rgb(239, 85, 59); fill-opacity: 0.6; stroke-width: 0; opacity: 1;"/><path class="sankey-link" d="M759.9000000000001,411.6940677966101C946.19943,411.6940677966101 946.19943,391.6782078355098 1132.49886,391.6782078355098L1132.49886,408.2036315643233C946.19943,408.2036315643233 946.19943,428.2194915254236 759.9000000000001,428.2194915254236Z" style="stroke: rgb(68, 68, 68); stroke-opacity: 1; fill: rgb(239, 85, 59); fill-opacity: 0.6; stroke-width: 0; opacity: 1;"/><path class="sankey-link" d="M759.9000000000001,520.7618644067795C946.19943,520.7618644067795 946.19943,532.2793220338984 1132.49886,532.2793220338984L1132.49886,547.1522033898306C946.19943,547.1522033898306 946.19943,535.6347457627116 759.9000000000001,535.6347457627116Z" style="stroke: rgb(68, 68, 68); stroke-opacity: 1; fill: rgb(239, 85, 59); fill-opacity: 0.6; stroke-width: 0; opacity: 1;"/><path class="sankey-link" d="M759.9000000000001,647.0544456793556C946.19943,647.0544456793556 946.19943,633.3160961378164 1132.49886,633.3160961378164L1132.49886,634.9686385106977C946.19943,634.9686385106977 946.19943,648.7069880522369 759.9000000000001,648.7069880522369Z" style="stroke: rgb(68, 68, 68); stroke-opacity: 1; fill: rgb(239, 85, 59); fill-opacity: 0.6; stroke-width: 0; opacity: 1;"/><path class="sankey-link" d="M759.9000000000001,675.1476660183384C946.19943,675.1476660183384 946.19943,680.1988441233678 1132.49886,680.1988441233678L1132.49886,681.8513864962491C946.19943,681.8513864962491 946.19943,676.8002083912197 759.9000000000001,676.8002083912197Z" style="stroke: rgb(68, 68, 68); stroke-opacity: 1; fill: rgb(239, 85, 59); fill-opacity: 0.6; stroke-width: 0; opacity: 1;"/><path class="sankey-link" d="M759.9000000000001,81.91183662128375C946.19943,81.91183662128375 946.19943,62.698474576271096 1132.49886,62.698474576271096L1132.49886,69.30864406779652C946.19943,69.30864406779652 946.19943,88.52200611280918 759.9000000000001,88.52200611280918Z" style="stroke: rgb(68, 68, 68); stroke-opacity: 1; fill: rgb(254, 203, 82); fill-opacity: 0.6; stroke-width: 0; opacity: 1;"/><path class="sankey-link" d="M759.9000000000001,174.4542095026397C946.19943,174.4542095026397 946.19943,186.3493720477911 1132.49886,186.3493720477911L1132.49886,192.95954153931652C946.19943,192.95954153931652 946.19943,181.06437899416514 759.9000000000001,181.06437899416514Z" style="stroke: rgb(68, 68, 68); stroke-opacity: 1; fill: rgb(254, 203, 82); fill-opacity: 0.6; stroke-width: 0; opacity: 1;"/><path class="sankey-link" d="M759.9000000000001,291.06756043345376C946.19943,291.06756043345376 946.19943,277.4708919144208 1132.49886,277.4708919144208L1132.49886,284.08106140594623C946.19943,284.08106140594623 946.19943,297.6777299249792 759.9000000000001,297.6777299249792Z" style="stroke: rgb(68, 68, 68); stroke-opacity: 1; fill: rgb(254, 203, 82); fill-opacity: 0.6; stroke-width: 0; opacity: 1;"/><path class="sankey-link" d="M759.9000000000001,322.46586551819945C946.19943,322.46586551819945 946.19943,328.2251153098084 1132.49886,328.2251153098084L1132.49886,331.5302000555711C946.19943,331.5302000555711 946.19943,325.7709502639621 759.9000000000001,325.7709502639621Z" style="stroke: rgb(68, 68, 68); stroke-opacity: 1; fill: rgb(254, 203, 82); fill-opacity: 0.6; stroke-width: 0; opacity: 1;"/><path class="sankey-link" d="M759.9000000000001,428.2194915254237C946.19943,428.2194915254237 946.19943,408.20363156432336 1132.49886,408.20363156432336L1132.49886,409.85617393720474C946.19943,409.85617393720474 946.19943,429.87203389830506 759.9000000000001,429.87203389830506Z" style="stroke: rgb(68, 68, 68); stroke-opacity: 1; fill: rgb(254, 203, 82); fill-opacity: 0.6; stroke-width: 0; opacity: 1;"/><path class="sankey-link" d="M759.9000000000001,535.6347457627118C946.19943,535.6347457627118 946.19943,547.1522033898307 1132.49886,547.1522033898307L1132.49886,553.762372881356C946.19943,553.762372881356 946.19943,542.2449152542371 759.9000000000001,542.2449152542371Z" style="stroke: rgb(68, 68, 68); stroke-opacity: 1; fill: rgb(254, 203, 82); fill-opacity: 0.6; stroke-width: 0; opacity: 1;"/><path class="sankey-link" d="M759.9000000000001,648.706988052237C946.19943,648.706988052237 946.19943,634.9686385106978 1132.49886,634.9686385106978L1132.49886,638.2737232564606C946.19943,638.2737232564606 946.19943,652.0120727979997 759.9000000000001,652.0120727979997Z" style="stroke: rgb(68, 68, 68); stroke-opacity: 1; fill: rgb(254, 203, 82); fill-opacity: 0.6; stroke-width: 0; opacity: 1;"/><path class="sankey-link" d="M759.9000000000001,88.52200611280918C946.19943,88.52200611280918 946.19943,69.30864406779652 1132.49886,69.30864406779652L1132.49886,77.5713559322033C946.19943,77.5713559322033 946.19943,96.78471797721596 759.9000000000001,96.78471797721596Z" style="stroke: rgb(68, 68, 68); stroke-opacity: 1; fill: rgb(255, 161, 90); fill-opacity: 0.6; stroke-width: 0; opacity: 1;"/><path class="sankey-link" d="M759.9000000000001,181.06437899416514C946.19943,181.06437899416514 946.19943,192.95954153931652 1132.49886,192.95954153931652L1132.49886,196.26462628507923C946.19943,196.26462628507923 946.19943,184.36946373992785 759.9000000000001,184.36946373992785Z" style="stroke: rgb(68, 68, 68); stroke-opacity: 1; fill: rgb(255, 161, 90); fill-opacity: 0.6; stroke-width: 0; opacity: 1;"/><path class="sankey-link" d="M759.9000000000001,429.872033898305C946.19943,429.872033898305 946.19943,409.8561739372047 1132.49886,409.8561739372047L1132.49886,414.8138010558487C946.19943,414.8138010558487 946.19943,434.82966101694905 759.9000000000001,434.82966101694905Z" style="stroke: rgb(68, 68, 68); stroke-opacity: 1; fill: rgb(255, 161, 90); fill-opacity: 0.6; stroke-width: 0; opacity: 1;"/><path class="sankey-link" d="M759.9000000000001,542.2449152542372C946.19943,542.2449152542372 946.19943,553.7623728813561 1132.49886,553.7623728813561L1132.49886,562.0250847457629C946.19943,562.0250847457629 946.19943,550.507627118644 759.9000000000001,550.507627118644Z" style="stroke: rgb(68, 68, 68); stroke-opacity: 1; fill: rgb(255, 161, 90); fill-opacity: 0.6; stroke-width: 0; opacity: 1;"/><path class="sankey-link" d="M759.9000000000001,676.8002083912198C946.19943,676.8002083912198 946.19943,681.8513864962492 1132.49886,681.8513864962492L1132.49886,683.5039288691305C946.19943,683.5039288691305 946.19943,678.4527507641011 759.9000000000001,678.4527507641011Z" style="stroke: rgb(68, 68, 68); stroke-opacity: 1; fill: rgb(255, 161, 90); fill-opacity: 0.6; stroke-width: 0; opacity: 1;"/><path class="sankey-link" d="M759.9000000000001,96.78471797721596C946.19943,96.78471797721596 946.19943,77.5713559322033 1132.49886,77.5713559322033L1132.49886,90.79169491525415C946.19943,90.79169491525415 946.19943,110.00505696026681 759.9000000000001,110.00505696026681Z" style="stroke: rgb(68, 68, 68); stroke-opacity: 1; fill: rgb(171, 99, 250); fill-opacity: 0.6; stroke-width: 0; opacity: 1;"/><path class="sankey-link" d="M759.9000000000001,184.36946373992785C946.19943,184.36946373992785 946.19943,196.26462628507923 1132.49886,196.26462628507923L1132.49886,217.74767713253684C946.19943,217.74767713253684 946.19943,205.85251458738546 759.9000000000001,205.85251458738546Z" style="stroke: rgb(68, 68, 68); stroke-opacity: 1; fill: rgb(171, 99, 250); fill-opacity: 0.6; stroke-width: 0; opacity: 1;"/><path class="sankey-link" d="M759.9000000000001,297.6777299249792C946.19943,297.6777299249792 946.19943,284.08106140594623 1132.49886,284.08106140594623L1132.49886,287.3861461517089C946.19943,287.3861461517089 946.19943,300.98281467074185 759.9000000000001,300.98281467074185Z" style="stroke: rgb(68, 68, 68); stroke-opacity: 1; fill: rgb(171, 99, 250); fill-opacity: 0.6; stroke-width: 0; opacity: 1;"/><path class="sankey-link" d="M759.9000000000001,434.82966101694905C946.19943,434.82966101694905 946.19943,414.8138010558487 1132.49886,414.8138010558487L1132.49886,436.2968519033064C946.19943,436.2968519033064 946.19943,456.3127118644067 759.9000000000001,456.3127118644067Z" style="stroke: rgb(68, 68, 68); stroke-opacity: 1; fill: rgb(171, 99, 250); fill-opacity: 0.6; stroke-width: 0; opacity: 1;"/><path class="sankey-link" d="M759.9000000000001,550.507627118644C946.19943,550.507627118644 946.19943,562.0250847457629 1132.49886,562.0250847457629L1132.49886,581.8555932203391C946.19943,581.8555932203391 946.19943,570.3381355932202 759.9000000000001,570.3381355932202Z" style="stroke: rgb(68, 68, 68); stroke-opacity: 1; fill: rgb(171, 99, 250); fill-opacity: 0.6; stroke-width: 0; opacity: 1;"/><path class="sankey-link" d="M759.9000000000001,652.0120727979996C946.19943,652.0120727979996 946.19943,638.2737232564605 1132.49886,638.2737232564605L1132.49886,641.5788080022232C946.19943,641.5788080022232 946.19943,655.3171575437624 759.9000000000001,655.3171575437624Z" style="stroke: rgb(68, 68, 68); stroke-opacity: 1; fill: rgb(171, 99, 250); fill-opacity: 0.6; stroke-width: 0; opacity: 1;"/><path class="sankey-link" d="M759.9000000000001,678.4527507641012C946.19943,678.4527507641012 946.19943,683.5039288691306 1132.49886,683.5039288691306L1132.49886,686.8090136148934C946.19943,686.8090136148934 946.19943,681.757835509864 759.9000000000001,681.757835509864Z" style="stroke: rgb(68, 68, 68); stroke-opacity: 1; fill: rgb(171, 99, 250); fill-opacity: 0.6; stroke-width: 0; opacity: 1;"/><path class="sankey-link" d="M759.9000000000001,110.00505696026681C946.19943,110.00505696026681 946.19943,90.79169491525415 1132.49886,90.79169491525415L1132.49886,113.92728813559314C946.19943,113.92728813559314 946.19943,133.1406501806058 759.9000000000001,133.1406501806058Z" style="stroke: rgb(68, 68, 68); stroke-opacity: 1; fill: rgb(99, 110, 250); fill-opacity: 0.6; stroke-width: 0; opacity: 1;"/><path class="sankey-link" d="M759.9000000000001,205.85251458738549C946.19943,205.85251458738549 946.19943,217.74767713253686 1132.49886,217.74767713253686L1132.49886,239.23072797999447C946.19943,239.23072797999447 946.19943,227.3355654348431 759.9000000000001,227.3355654348431Z" style="stroke: rgb(68, 68, 68); stroke-opacity: 1; fill: rgb(99, 110, 250); fill-opacity: 0.6; stroke-width: 0; opacity: 1;"/><path class="sankey-link" d="M759.9000000000001,300.9828146707419C946.19943,300.9828146707419 946.19943,287.38614615170894 1132.49886,287.38614615170894L1132.49886,298.9539427618784C946.19943,298.9539427618784 946.19943,312.55061128091137 759.9000000000001,312.55061128091137Z" style="stroke: rgb(68, 68, 68); stroke-opacity: 1; fill: rgb(99, 110, 250); fill-opacity: 0.6; stroke-width: 0; opacity: 1;"/><path class="sankey-link" d="M759.9000000000001,325.77095026396216C946.19943,325.77095026396216 946.19943,331.53020005557113 1132.49886,331.53020005557113L1132.49886,349.708166157266C946.19943,349.708166157266 946.19943,343.94891636565706 759.9000000000001,343.94891636565706Z" style="stroke: rgb(68, 68, 68); stroke-opacity: 1; fill: rgb(99, 110, 250); fill-opacity: 0.6; stroke-width: 0; opacity: 1;"/><path class="sankey-link" d="M759.9000000000001,456.31271186440665C946.19943,456.31271186440665 946.19943,436.29685190330633 1132.49886,436.29685190330633L1132.49886,459.43244512364527C946.19943,459.43244512364527 946.19943,479.4483050847456 759.9000000000001,479.4483050847456Z" style="stroke: rgb(68, 68, 68); stroke-opacity: 1; fill: rgb(99, 110, 250); fill-opacity: 0.6; stroke-width: 0; opacity: 1;"/><path class="sankey-link" d="M759.9000000000001,570.3381355932203C946.19943,570.3381355932203 946.19943,581.8555932203392 1132.49886,581.8555932203392L1132.49886,601.6861016949154C946.19943,601.6861016949154 946.19943,590.1686440677964 759.9000000000001,590.1686440677964Z" style="stroke: rgb(68, 68, 68); stroke-opacity: 1; fill: rgb(99, 110, 250); fill-opacity: 0.6; stroke-width: 0; opacity: 1;"/><path class="sankey-link" d="M759.9000000000001,655.3171575437623C946.19943,655.3171575437623 946.19943,641.5788080022231 1132.49886,641.5788080022231L1132.49886,653.1466046123927C946.19943,653.1466046123927 946.19943,666.8849541539319 759.9000000000001,666.8849541539319Z" style="stroke: rgb(68, 68, 68); stroke-opacity: 1; fill: rgb(99, 110, 250); fill-opacity: 0.6; stroke-width: 0; opacity: 1;"/><path class="sankey-link" d="M759.9000000000001,681.7578355098639C946.19943,681.7578355098639 946.19943,686.8090136148933 1132.49886,686.8090136148933L1132.49886,696.7242678521814C946.19943,696.7242678521814 946.19943,691.673089747152 759.9000000000001,691.673089747152Z" style="stroke: rgb(68, 68, 68); stroke-opacity: 1; fill: rgb(99, 110, 250); fill-opacity: 0.6; stroke-width: 0; opacity: 1;"/><path class="sankey-link" d="M759.9000000000001,133.1406501806058C946.19943,133.1406501806058 946.19943,113.92728813559313 1132.49886,113.92728813559313L1132.49886,123.84254237288127C946.19943,123.84254237288127 946.19943,143.05590441789394 759.9000000000001,143.05590441789394Z" style="stroke: rgb(68, 68, 68); stroke-opacity: 1; fill: rgb(255, 151, 255); fill-opacity: 0.6; stroke-width: 0; opacity: 1;"/><path class="sankey-link" d="M759.9000000000001,227.33556543484312C946.19943,227.33556543484312 946.19943,239.2307279799945 1132.49886,239.2307279799945L1132.49886,242.5358127257572C946.19943,242.5358127257572 946.19943,230.64065018060583 759.9000000000001,230.64065018060583Z" style="stroke: rgb(68, 68, 68); stroke-opacity: 1; fill: rgb(255, 151, 255); fill-opacity: 0.6; stroke-width: 0; opacity: 1;"/><path class="sankey-link" d="M759.9000000000001,312.55061128091137C946.19943,312.55061128091137 946.19943,298.9539427618784 1132.49886,298.9539427618784L1132.49886,303.91156988052245C946.19943,303.91156988052245 946.19943,317.5082383995554 759.9000000000001,317.5082383995554Z" style="stroke: rgb(68, 68, 68); stroke-opacity: 1; fill: rgb(255, 151, 255); fill-opacity: 0.6; stroke-width: 0; opacity: 1;"/><path class="sankey-link" d="M759.9000000000001,343.94891636565706C946.19943,343.94891636565706 946.19943,349.708166157266 1132.49886,349.708166157266L1132.49886,351.3607085301474C946.19943,351.3607085301474 946.19943,345.60145873853844 759.9000000000001,345.60145873853844Z" style="stroke: rgb(68, 68, 68); stroke-opacity: 1; fill: rgb(255, 151, 255); fill-opacity: 0.6; stroke-width: 0; opacity: 1;"/><path class="sankey-link" d="M759.9000000000001,479.44830508474564C946.19943,479.44830508474564 946.19943,459.4324451236453 1132.49886,459.4324451236453L1132.49886,466.04261461517075C946.19943,466.04261461517075 946.19943,486.05847457627107 759.9000000000001,486.05847457627107Z" style="stroke: rgb(68, 68, 68); stroke-opacity: 1; fill: rgb(255, 151, 255); fill-opacity: 0.6; stroke-width: 0; opacity: 1;"/><path class="sankey-link" d="M759.9000000000001,590.1686440677965C946.19943,590.1686440677965 946.19943,601.6861016949155 1132.49886,601.6861016949155L1132.49886,604.9911864406782C946.19943,604.9911864406782 946.19943,593.4737288135593 759.9000000000001,593.4737288135593Z" style="stroke: rgb(68, 68, 68); stroke-opacity: 1; fill: rgb(255, 151, 255); fill-opacity: 0.6; stroke-width: 0; opacity: 1;"/><path class="sankey-link" d="M759.9000000000001,666.8849541539317C946.19943,666.8849541539317 946.19943,653.1466046123926 1132.49886,653.1466046123926L1132.49886,656.4516893581554C946.19943,656.4516893581554 946.19943,670.1900388996945 759.9000000000001,670.1900388996945Z" style="stroke: rgb(68, 68, 68); stroke-opacity: 1; fill: rgb(255, 151, 255); fill-opacity: 0.6; stroke-width: 0; opacity: 1;"/><path class="sankey-link" d="M759.9000000000001,691.673089747152C946.19943,691.673089747152 946.19943,696.7242678521814 1132.49886,696.7242678521814L1132.49886,701.6818949708254C946.19943,701.6818949708254 946.19943,696.630716865796 759.9000000000001,696.630716865796Z" style="stroke: rgb(68, 68, 68); stroke-opacity: 1; fill: rgb(255, 151, 255); fill-opacity: 0.6; stroke-width: 0; opacity: 1;"/><path class="sankey-link" d="M759.9000000000001,230.64065018060583C946.19943,230.64065018060583 946.19943,242.5358127257572 1132.49886,242.5358127257572L1132.49886,245.84089747151992C946.19943,245.84089747151992 946.19943,233.94573492636854 759.9000000000001,233.94573492636854Z" style="stroke: rgb(68, 68, 68); stroke-opacity: 1; fill: rgb(182, 232, 128); fill-opacity: 0.6; stroke-width: 0; opacity: 1;"/><path class="sankey-link" d="M759.9000000000001,486.05847457627107C946.19943,486.05847457627107 946.19943,466.04261461517075 1132.49886,466.04261461517075L1132.49886,472.6527841066962C946.19943,472.6527841066962 946.19943,492.6686440677965 759.9000000000001,492.6686440677965Z" style="stroke: rgb(68, 68, 68); stroke-opacity: 1; fill: rgb(182, 232, 128); fill-opacity: 0.6; stroke-width: 0; opacity: 1;"/><path class="sankey-link" d="M759.9000000000001,593.4737288135592C946.19943,593.4737288135592 946.19943,604.9911864406781 1132.49886,604.9911864406781L1132.49886,608.2962711864409C946.19943,608.2962711864409 946.19943,596.778813559322 759.9000000000001,596.778813559322Z" style="stroke: rgb(68, 68, 68); stroke-opacity: 1; fill: rgb(182, 232, 128); fill-opacity: 0.6; stroke-width: 0; opacity: 1;"/><path class="sankey-link" d="M759.9000000000001,670.1900388996944C946.19943,670.1900388996944 946.19943,656.4516893581552 1132.49886,656.4516893581552L1132.49886,658.1042317310365C946.19943,658.1042317310365 946.19943,671.8425812725757 759.9000000000001,671.8425812725757Z" style="stroke: rgb(68, 68, 68); stroke-opacity: 1; fill: rgb(182, 232, 128); fill-opacity: 0.6; stroke-width: 0; opacity: 1;"/><path class="sankey-link" d="M759.9000000000001,696.630716865796C946.19943,696.630716865796 946.19943,701.6818949708254 1132.49886,701.6818949708254L1132.49886,703.3344373437067C946.19943,703.3344373437067 946.19943,698.2832592386773 759.9000000000001,698.2832592386773Z" style="stroke: rgb(68, 68, 68); stroke-opacity: 1; fill: rgb(182, 232, 128); fill-opacity: 0.6; stroke-width: 0; opacity: 1;"/><path class="sankey-link" d="M759.9000000000001,233.94573492636854C946.19943,233.94573492636854 946.19943,245.84089747151992 1132.49886,245.84089747151992L1132.49886,249.14598221728264C946.19943,249.14598221728264 946.19943,237.25081967213126 759.9000000000001,237.25081967213126Z" style="stroke: rgb(68, 68, 68); stroke-opacity: 1; fill: rgb(255, 102, 146); fill-opacity: 0.6; stroke-width: 0; opacity: 1;"/><path class="sankey-link" d="M759.9000000000001,492.6686440677965C946.19943,492.6686440677965 946.19943,472.6527841066962 1132.49886,472.6527841066962L1132.49886,477.6104112253402C946.19943,477.6104112253402 946.19943,497.62627118644053 759.9000000000001,497.62627118644053Z" style="stroke: rgb(68, 68, 68); stroke-opacity: 1; fill: rgb(255, 102, 146); fill-opacity: 0.6; stroke-width: 0; opacity: 1;"/></g><g class="sankey-node-set" style="cursor: ns-resize;"><g class="sankey-node" transform="translate(-7.499,17.997)" style="opacity: 1;"><rect class="node-rect" width="15" height="62.79661016949148" style="stroke-width: 0.5; stroke: rgb(0, 0, 0); stroke-opacity: 1; fill: rgb(128, 128, 128); fill-opacity: 1;"/><text class="node-label" data-notex="1" x="0" y="0" text-anchor="start" transform="translate(18.25,35.59830508474574)" style="cursor: default; font-family: 'Open Sans', verdana, arial, sans-serif; font-size: 12px; fill: rgb(42, 63, 95); fill-opacity: 1; white-space: pre; text-shadow: white 1px 1px 1px, white -1px -1px 1px, white 1px -1px 1px, white -1px 1px 1px;">21271R</text></g><g class="sankey-node" transform="translate(-7.499,113.463)" style="opacity: 1;"><rect class="node-rect" width="15" height="256.1440677966101" style="stroke-width: 0.5; stroke: rgb(0, 0, 0); stroke-opacity: 1; fill: rgb(128, 128, 128); fill-opacity: 1;"/><text class="node-label" data-notex="1" x="0" y="0" text-anchor="start" transform="translate(18.25,132.27203389830504)" style="cursor: default; font-family: 'Open Sans', verdana, arial, sans-serif; font-size: 12px; fill: rgb(42, 63, 95); fill-opacity: 1; white-space: pre; text-shadow: white 1px 1px 1px, white -1px -1px 1px, white 1px -1px 1px, white -1px 1px 1px;">21272R</text></g><g class="sankey-node" transform="translate(-7.499,399.531)" style="opacity: 1;"><rect class="node-rect" width="15" height="14.87288135593235" style="stroke-width: 0.5; stroke: rgb(0, 0, 0); stroke-opacity: 1; fill: rgb(128, 128, 128); fill-opacity: 1;"/><text class="node-label" data-notex="1" x="0" y="0" text-anchor="start" transform="translate(18.25,11.636440677966174)" style="cursor: default; font-family: 'Open Sans', verdana, arial, sans-serif; font-size: 12px; fill: rgb(42, 63, 95); fill-opacity: 1; white-space: pre; text-shadow: white 1px 1px 1px, white -1px -1px 1px, white 1px -1px 1px, white -1px 1px 1px;">21965RL</text></g><g class="sankey-node" transform="translate(-7.499,436.377)" style="opacity: 1;"><rect class="node-rect" width="15" height="117.33050847457628" style="stroke-width: 0.5; stroke: rgb(0, 0, 0); stroke-opacity: 1; fill: rgb(128, 128, 128); fill-opacity: 1;"/><text class="node-label" data-notex="1" x="0" y="0" text-anchor="start" transform="translate(18.25,62.86525423728814)" style="cursor: default; font-family: 'Open Sans', verdana, arial, sans-serif; font-size: 12px; fill: rgb(42, 63, 95); fill-opacity: 1; white-space: pre; text-shadow: white 1px 1px 1px, white -1px -1px 1px, white 1px -1px 1px, white -1px 1px 1px;">22384</text></g><g class="sankey-node" transform="translate(-7.499,581.549)" style="opacity: 1;"><rect class="node-rect" width="15" height="117.33050847457616" style="stroke-width: 0.5; stroke: rgb(0, 0, 0); stroke-opacity: 1; fill: rgb(128, 128, 128); fill-opacity: 1;"/><text class="node-label" data-notex="1" x="0" y="0" text-anchor="start" transform="translate(18.25,62.865254237288084)" style="cursor: default; font-family: 'Open Sans', verdana, arial, sans-serif; font-size: 12px; fill: rgb(42, 63, 95); fill-opacity: 1; white-space: pre; text-shadow: white 1px 1px 1px, white -1px -1px 1px, white 1px -1px 1px, white -1px 1px 1px;">22670</text></g><g class="sankey-node" transform="translate(744.900,42.251)" style="opacity: 1;"><rect class="node-rect" width="15" height="194.99999999999983" style="stroke-width: 0.5; stroke: rgb(0, 0, 0); stroke-opacity: 1; fill: rgb(128, 128, 128); fill-opacity: 1;"/><text class="node-label" data-notex="1" x="0" y="0" text-anchor="start" transform="translate(18.25,101.69999999999992)" style="cursor: default; font-family: 'Open Sans', verdana, arial, sans-serif; font-size: 12px; fill: rgb(42, 63, 95); fill-opacity: 1; white-space: pre; text-shadow: white 1px 1px 1px, white -1px -1px 1px, white 1px -1px 1px, white -1px 1px 1px;">dig</text></g><g class="sankey-node" transform="translate(744.900,287.762)" style="opacity: 1;"><rect class="node-rect" width="15" height="57.83898305084733" style="stroke-width: 0.5; stroke: rgb(0, 0, 0); stroke-opacity: 1; fill: rgb(128, 128, 128); fill-opacity: 1;"/><text class="node-label" data-notex="1" x="0" y="0" text-anchor="start" transform="translate(18.25,33.11949152542367)" style="cursor: default; font-family: 'Open Sans', verdana, arial, sans-serif; font-size: 12px; fill: rgb(42, 63, 95); fill-opacity: 1; white-space: pre; text-shadow: white 1px 1px 1px, white -1px -1px 1px, white 1px -1px 1px, white -1px 1px 1px;">groom</text></g><g class="sankey-node" transform="translate(744.900,396.821)" style="opacity: 1;"><rect class="node-rect" width="15" height="199.95762711864427" style="stroke-width: 0.5; stroke: rgb(0, 0, 0); stroke-opacity: 1; fill: rgb(128, 128, 128); fill-opacity: 1;"/><text class="node-label" data-notex="1" x="0" y="0" text-anchor="start" transform="translate(18.25,104.17881355932214)" style="cursor: default; font-family: 'Open Sans', verdana, arial, sans-serif; font-size: 12px; fill: rgb(42, 63, 95); fill-opacity: 1; white-space: pre; text-shadow: white 1px 1px 1px, white -1px -1px 1px, white 1px -1px 1px, white -1px 1px 1px;">move</text></g><g class="sankey-node" transform="translate(744.900,647.054)" style="opacity: 1;"><rect class="node-rect" width="15" height="51.22881355932168" style="stroke-width: 0.5; stroke: rgb(0, 0, 0); stroke-opacity: 1; fill: rgb(128, 128, 128); fill-opacity: 1;"/><text class="node-label" data-notex="1" x="0" y="0" text-anchor="start" transform="translate(18.25,29.81440677966084)" style="cursor: default; font-family: 'Open Sans', verdana, arial, sans-serif; font-size: 12px; fill: rgb(42, 63, 95); fill-opacity: 1; white-space: pre; text-shadow: white 1px 1px 1px, white -1px -1px 1px, white 1px -1px 1px, white -1px 1px 1px;">still</text></g><g class="sankey-node" transform="translate(1132.499,23.037)" style="opacity: 1;"><rect class="node-rect" width="15" height="100.80508474576291" style="stroke-width: 0.5; stroke: rgb(0, 0, 0); stroke-opacity: 1; fill: rgb(128, 128, 128); fill-opacity: 1;"/><text class="node-label" data-notex="1" x="0" y="0" text-anchor="end" transform="translate(-3.25,54.60254237288146)" style="cursor: default; font-family: 'Open Sans', verdana, arial, sans-serif; font-size: 12px; fill: rgb(42, 63, 95); fill-opacity: 1; white-space: pre; text-shadow: white 1px 1px 1px, white -1px -1px 1px, white 1px -1px 1px, white -1px 1px 1px;">dig-activated</text></g><g class="sankey-node" transform="translate(1132.499,154.951)" style="opacity: 1;"><rect class="node-rect" width="15" height="94.19491525423734" style="stroke-width: 0.5; stroke: rgb(0, 0, 0); stroke-opacity: 1; fill: rgb(128, 128, 128); fill-opacity: 1;"/><text class="node-label" data-notex="1" x="0" y="0" text-anchor="end" transform="translate(-3.25,51.297457627118675)" style="cursor: default; font-family: 'Open Sans', verdana, arial, sans-serif; font-size: 12px; fill: rgb(42, 63, 95); fill-opacity: 1; white-space: pre; text-shadow: white 1px 1px 1px, white -1px -1px 1px, white 1px -1px 1px, white -1px 1px 1px;">dig-suppressed</text></g><g class="sankey-node" transform="translate(1132.499,274.166)" style="opacity: 1;"><rect class="node-rect" width="15" height="29.745762711864245" style="stroke-width: 0.5; stroke: rgb(0, 0, 0); stroke-opacity: 1; fill: rgb(128, 128, 128); fill-opacity: 1;"/><text class="node-label" data-notex="1" x="0" y="0" text-anchor="end" transform="translate(-3.25,19.07288135593212)" style="cursor: default; font-family: 'Open Sans', verdana, arial, sans-serif; font-size: 12px; fill: rgb(42, 63, 95); fill-opacity: 1; white-space: pre; text-shadow: white 1px 1px 1px, white -1px -1px 1px, white 1px -1px 1px, white -1px 1px 1px;">groom-activated</text></g><g class="sankey-node" transform="translate(1132.499,323.267)" style="opacity: 1;"><rect class="node-rect" width="15" height="28.093220338982974" style="stroke-width: 0.5; stroke: rgb(0, 0, 0); stroke-opacity: 1; fill: rgb(128, 128, 128); fill-opacity: 1;"/><text class="node-label" data-notex="1" x="0" y="0" text-anchor="end" transform="translate(-3.25,18.246610169491486)" style="cursor: default; font-family: 'Open Sans', verdana, arial, sans-serif; font-size: 12px; fill: rgb(42, 63, 95); fill-opacity: 1; white-space: pre; text-shadow: white 1px 1px 1px, white -1px -1px 1px, white 1px -1px 1px, white -1px 1px 1px;">groom-suppressed</text></g><g class="sankey-node" transform="translate(1132.499,376.805)" style="opacity: 1;"><rect class="node-rect" width="15" height="100.80508474576311" style="stroke-width: 0.5; stroke: rgb(0, 0, 0); stroke-opacity: 1; fill: rgb(128, 128, 128); fill-opacity: 1;"/><text class="node-label" data-notex="1" x="0" y="0" text-anchor="end" transform="translate(-3.25,54.60254237288156)" style="cursor: default; font-family: 'Open Sans', verdana, arial, sans-serif; font-size: 12px; fill: rgb(42, 63, 95); fill-opacity: 1; white-space: pre; text-shadow: white 1px 1px 1px, white -1px -1px 1px, white 1px -1px 1px, white -1px 1px 1px;">move-activated</text></g><g class="sankey-node" transform="translate(1132.499,509.144)" style="opacity: 1;"><rect class="node-rect" width="15" height="99.1525423728815" style="stroke-width: 0.5; stroke: rgb(0, 0, 0); stroke-opacity: 1; fill: rgb(128, 128, 128); fill-opacity: 1;"/><text class="node-label" data-notex="1" x="0" y="0" text-anchor="end" transform="translate(-3.25,53.77627118644075)" style="cursor: default; font-family: 'Open Sans', verdana, arial, sans-serif; font-size: 12px; fill: rgb(42, 63, 95); fill-opacity: 1; white-space: pre; text-shadow: white 1px 1px 1px, white -1px -1px 1px, white 1px -1px 1px, white -1px 1px 1px;">move-suppressed</text></g><g class="sankey-node" transform="translate(1132.499,633.316)" style="opacity: 1;"><rect class="node-rect" width="15" height="24.788135593220204" style="stroke-width: 0.5; stroke: rgb(0, 0, 0); stroke-opacity: 1; fill: rgb(128, 128, 128); fill-opacity: 1;"/><text class="node-label" data-notex="1" x="0" y="0" text-anchor="end" transform="translate(-3.25,16.5940677966101)" style="cursor: default; font-family: 'Open Sans', verdana, arial, sans-serif; font-size: 12px; fill: rgb(42, 63, 95); fill-opacity: 1; white-space: pre; text-shadow: white 1px 1px 1px, white -1px -1px 1px, white 1px -1px 1px, white -1px 1px 1px;">still-activated</text></g><g class="sankey-node" transform="translate(1132.499,676.894)" style="opacity: 1;"><rect class="node-rect" width="15" height="26.440677966101703" style="stroke-width: 0.5; stroke: rgb(0, 0, 0); stroke-opacity: 1; fill: rgb(128, 128, 128); fill-opacity: 1;"/><text class="node-label" data-notex="1" x="0" y="0" text-anchor="end" transform="translate(-3.25,17.42033898305085)" style="cursor: default; font-family: 'Open Sans', verdana, arial, sans-serif; font-size: 12px; fill: rgb(42, 63, 95); fill-opacity: 1; white-space: pre; text-shadow: white 1px 1px 1px, white -1px -1px 1px, white 1px -1px 1px, white -1px 1px 1px;">still-suppressed</text></g><g class="sankey-node" transform="translate(368.700,13.838)" style="opacity: 1;"><rect class="node-rect" width="15" height="28.093220338982974" style="stroke-width: 0.5; stroke: rgb(0, 0, 0); stroke-opacity: 1; fill: rgb(25, 211, 243); fill-opacity: 1;"/><text class="node-label" data-notex="1" x="0" y="0" text-anchor="start" transform="translate(18.25,18.246610169491486)" style="cursor: default; font-family: 'Open Sans', verdana, arial, sans-serif; font-size: 12px; fill: rgb(42, 63, 95); fill-opacity: 1; white-space: pre; text-shadow: white 1px 1px 1px, white -1px -1px 1px, white 1px -1px 1px, white -1px 1px 1px;">BLA</text></g><g class="sankey-node" transform="translate(368.700,54.051)" style="opacity: 1;"><rect class="node-rect" width="15" height="85.93220338983065" style="stroke-width: 0.5; stroke: rgb(0, 0, 0); stroke-opacity: 1; fill: rgb(0, 204, 150); fill-opacity: 1;"/><text class="node-label" data-notex="1" x="0" y="0" text-anchor="start" transform="translate(18.25,47.16610169491533)" style="cursor: default; font-family: 'Open Sans', verdana, arial, sans-serif; font-size: 12px; fill: rgb(42, 63, 95); fill-opacity: 1; white-space: pre; text-shadow: white 1px 1px 1px, white -1px -1px 1px, white 1px -1px 1px, white -1px 1px 1px;">Cla</text></g><g class="sankey-node" transform="translate(368.700,151.243)" style="opacity: 1;"><rect class="node-rect" width="15" height="71.05932203389847" style="stroke-width: 0.5; stroke: rgb(0, 0, 0); stroke-opacity: 1; fill: rgb(239, 85, 59); fill-opacity: 1;"/><text class="node-label" data-notex="1" x="0" y="0" text-anchor="start" transform="translate(18.25,39.72966101694924)" style="cursor: default; font-family: 'Open Sans', verdana, arial, sans-serif; font-size: 12px; fill: rgb(42, 63, 95); fill-opacity: 1; white-space: pre; text-shadow: white 1px 1px 1px, white -1px -1px 1px, white 1px -1px 1px, white -1px 1px 1px;">LC</text></g><g class="sankey-node" transform="translate(368.700,234.587)" style="opacity: 1;"><rect class="node-rect" width="15" height="34.703389830508286" style="stroke-width: 0.5; stroke: rgb(0, 0, 0); stroke-opacity: 1; fill: rgb(254, 203, 82); fill-opacity: 1;"/><text class="node-label" data-notex="1" x="0" y="0" text-anchor="start" transform="translate(18.25,21.551694915254142)" style="cursor: default; font-family: 'Open Sans', verdana, arial, sans-serif; font-size: 12px; fill: rgb(42, 63, 95); fill-opacity: 1; white-space: pre; text-shadow: white 1px 1px 1px, white -1px -1px 1px, white 1px -1px 1px, white -1px 1px 1px;">LHyp</text></g><g class="sankey-node" transform="translate(368.700,282.336)" style="opacity: 1;"><rect class="node-rect" width="15" height="33.050847457627015" style="stroke-width: 0.5; stroke: rgb(0, 0, 0); stroke-opacity: 1; fill: rgb(255, 161, 90); fill-opacity: 1;"/><text class="node-label" data-notex="1" x="0" y="0" text-anchor="start" transform="translate(18.25,20.725423728813507)" style="cursor: default; font-family: 'Open Sans', verdana, arial, sans-serif; font-size: 12px; fill: rgb(42, 63, 95); fill-opacity: 1; white-space: pre; text-shadow: white 1px 1px 1px, white -1px -1px 1px, white 1px -1px 1px, white -1px 1px 1px;">NAc</text></g><g class="sankey-node" transform="translate(368.700,326.977)" style="opacity: 1;"><rect class="node-rect" width="15" height="107.41525423728854" style="stroke-width: 0.5; stroke: rgb(0, 0, 0); stroke-opacity: 1; fill: rgb(171, 99, 250); fill-opacity: 1;"/><text class="node-label" data-notex="1" x="0" y="0" text-anchor="start" transform="translate(18.25,57.90762711864427)" style="cursor: default; font-family: 'Open Sans', verdana, arial, sans-serif; font-size: 12px; fill: rgb(42, 63, 95); fill-opacity: 1; white-space: pre; text-shadow: white 1px 1px 1px, white -1px -1px 1px, white 1px -1px 1px, white -1px 1px 1px;">Str</text></g><g class="sankey-node" transform="translate(368.700,443.868)" style="opacity: 1;"><rect class="node-rect" width="15" height="138.81355932203388" style="stroke-width: 0.5; stroke: rgb(0, 0, 0); stroke-opacity: 1; fill: rgb(99, 110, 250); fill-opacity: 1;"/><text class="node-label" data-notex="1" x="0" y="0" text-anchor="start" transform="translate(18.25,73.60677966101694)" style="cursor: default; font-family: 'Open Sans', verdana, arial, sans-serif; font-size: 12px; fill: rgb(42, 63, 95); fill-opacity: 1; white-space: pre; text-shadow: white 1px 1px 1px, white -1px -1px 1px, white 1px -1px 1px, white -1px 1px 1px;">VTA</text></g><g class="sankey-node" transform="translate(368.700,593.214)" style="opacity: 1;"><rect class="node-rect" width="15" height="54.533898305084676" style="stroke-width: 0.5; stroke: rgb(0, 0, 0); stroke-opacity: 1; fill: rgb(255, 151, 255); fill-opacity: 1;"/><text class="node-label" data-notex="1" x="0" y="0" text-anchor="start" transform="translate(18.25,31.466949152542337)" style="cursor: default; font-family: 'Open Sans', verdana, arial, sans-serif; font-size: 12px; fill: rgb(42, 63, 95); fill-opacity: 1; white-space: pre; text-shadow: white 1px 1px 1px, white -1px -1px 1px, white 1px -1px 1px, white -1px 1px 1px;">cPFC</text></g><g class="sankey-node" transform="translate(368.700,660.595)" style="opacity: 1;"><rect class="node-rect" width="15" height="23.135593220338706" style="stroke-width: 0.5; stroke: rgb(0, 0, 0); stroke-opacity: 1; fill: rgb(182, 232, 128); fill-opacity: 1;"/><text class="node-label" data-notex="1" x="0" y="0" text-anchor="start" transform="translate(18.25,15.767796610169352)" style="cursor: default; font-family: 'Open Sans', verdana, arial, sans-serif; font-size: 12px; fill: rgb(42, 63, 95); fill-opacity: 1; white-space: pre; text-shadow: white 1px 1px 1px, white -1px -1px 1px, white 1px -1px 1px, white -1px 1px 1px;">dPAG</text></g><g class="sankey-node" transform="translate(368.700,697.503)" style="opacity: 1;"><rect class="node-rect" width="15" height="8.26271186440681" style="stroke-width: 0.5; stroke: rgb(0, 0, 0); stroke-opacity: 1; fill: rgb(255, 102, 146); fill-opacity: 1;"/><text class="node-label" data-notex="1" x="0" y="0" text-anchor="start" transform="translate(18.25,8.331355932203405)" style="cursor: default; font-family: 'Open Sans', verdana, arial, sans-serif; font-size: 12px; fill: rgb(42, 63, 95); fill-opacity: 1; white-space: pre; text-shadow: white 1px 1px 1px, white -1px -1px 1px, white 1px -1px 1px, white -1px 1px 1px;">lHb</text></g></g></g><defs id="topdefs-a27f53"><g class="clips"/></defs><g class="layer-above"><g class="imagelayer"/><g class="shapelayer"/></g><g class="infolayer"><g class="g-gtitle"/><g class="first-render"/></g></svg>