<svg class="main-svg" xmlns="http://www.w3.org/2000/svg" xmlns:xlink="http://www.w3.org/1999/xlink" width="1300" height="900" style="" viewBox="0 0 1300 900"><rect x="0" y="0" width="1300" height="900" style="fill: rgb(255, 255, 255); fill-opacity: 1;"/><defs id="defs-8b6ee1"><g class="clips"/><g class="gradients"/><g class="patterns"/></defs><g class="bglayer"/><g class="layer-below"><g class="imagelayer"/><g class="shapelayer"/></g><g class="cartesianlayer"/><g class="polarlayer"/><g class="smithlayer"/><g class="ternarylayer"/><g class="geolayer"/><g class="funnelarealayer"/><g class="pielayer"/><g class="iciclelayer"/><g class="treemaplayer"/><g class="sunburstlayer"/><g class="glimages"/><g class="sankey" transform="translate(80,100)matrix(1 0 0 1 0 0)" style="box-sizing: content-box; position: absolute; left: 0px; shape-rendering: geometricprecision; pointer-events: none;"><g class="sankey-links" style="fill: none;"><path class="sankey-link" d="M7.50114,25.38886935556784C188.10057000000003,25.38886935556784 188.10057000000003,13.818790496760322 368.70000000000005,13.818790496760322L368.70000000000005,15.082289416846713C188.10057000000003,15.082289416846713 188.10057000000003,26.652368275654233 7.50114,26.652368275654233Z" style="stroke: rgb(68, 68, 68); stroke-opacity: 1; fill: rgb(25, 211, 243); fill-opacity: 0.6; stroke-width: 0; opacity: 1;"/><path class="sankey-link" d="M7.50114,26.65236827565423C188.10057000000003,26.65236827565423 188.10057000000003,55.030237580993656 368.70000000000005,55.030237580993656L368.70000000000005,70.19222462203038C188.10057000000003,70.19222462203038 188.10057000000003,41.81435531669095 7.50114,41.81435531669095Z" style="stroke: rgb(68, 68, 68); stroke-opacity: 1; fill: rgb(0, 204, 150); fill-opacity: 0.6; stroke-width: 0; opacity: 1;"/><path class="sankey-link" d="M7.50114,41.81435531669095C188.10057000000003,41.81435531669095 188.10057000000003,149.4349892008641 368.70000000000005,149.4349892008641L368.70000000000005,155.75248380129608C188.10057000000003,155.75248380129608 188.10057000000003,48.13184991712292 7.50114,48.13184991712292Z" style="stroke: rgb(68, 68, 68); stroke-opacity: 1; fill: rgb(239, 85, 59); fill-opacity: 0.6; stroke-width: 0; opacity: 1;"/><path class="sankey-link" d="M7.50114,48.13184991712291C188.10057000000003,48.13184991712291 188.10057000000003,295.6140388768898 368.70000000000005,295.6140388768898L368.70000000000005,303.1950323974082C188.10057000000003,303.1950323974082 188.10057000000003,55.712843437641276 7.50114,55.712843437641276Z" style="stroke: rgb(68, 68, 68); stroke-opacity: 1; fill: rgb(255, 161, 90); fill-opacity: 0.6; stroke-width: 0; opacity: 1;"/><path class="sankey-link" d="M7.50114,55.71284343764127C188.10057000000003,55.71284343764127 188.10057000000003,346.3775377969764 368.70000000000005,346.3775377969764L368.70000000000005,359.0125269978404C188.10057000000003,359.0125269978404 188.10057000000003,68.3478326385052 7.50114,68.3478326385052Z" style="stroke: rgb(68, 68, 68); stroke-opacity: 1; fill: rgb(171, 99, 250); fill-opacity: 0.6; stroke-width: 0; opacity: 1;"/><path class="sankey-link" d="M7.50114,68.3478326385052C188.10057000000003,68.3478326385052 188.10057000000003,457.1319654427645 368.70000000000005,457.1319654427645L368.70000000000005,459.65896328293735C188.10057000000003,459.65896328293735 188.10057000000003,70.87483047867798 7.50114,70.87483047867798Z" style="stroke: rgb(68, 68, 68); stroke-opacity: 1; fill: rgb(99, 110, 250); fill-opacity: 0.6; stroke-width: 0; opacity: 1;"/><path class="sankey-link" d="M7.50114,70.87483047867798C188.10057000000003,70.87483047867798 188.10057000000003,698.1706263498919 368.70000000000005,698.1706263498919L368.70000000000005,700.6976241900646C188.10057000000003,700.6976241900646 188.10057000000003,73.40182831885076 7.50114,73.40182831885076Z" style="stroke: rgb(68, 68, 68); stroke-opacity: 1; fill: rgb(255, 102, 146); fill-opacity: 0.6; stroke-width: 0; opacity: 1;"/><path class="sankey-link" d="M7.50114,143.61371741423466C188.10057000000003,143.61371741423466 188.10057000000003,15.082289416846713 368.70000000000005,15.082289416846713L368.70000000000005,34.03477321814261C188.10057000000003,34.03477321814261 188.10057000000003,162.56620121553055 7.50114,162.56620121553055Z" style="stroke: rgb(68, 68, 68); stroke-opacity: 1; fill: rgb(25, 211, 243); fill-opacity: 0.6; stroke-width: 0; opacity: 1;"/><path class="sankey-link" d="M7.50114,162.56620121553055C188.10057000000003,162.56620121553055 188.10057000000003,70.19222462203038 368.70000000000005,70.19222462203038L368.70000000000005,101.77969762419019C188.10057000000003,101.77969762419019 188.10057000000003,194.15367421769037 7.50114,194.15367421769037Z" style="stroke: rgb(68, 68, 68); stroke-opacity: 1; fill: rgb(0, 204, 150); fill-opacity: 0.6; stroke-width: 0; opacity: 1;"/><path class="sankey-link" d="M7.50114,194.15367421769037C188.10057000000003,194.15367421769037 188.10057000000003,155.75248380129605 368.70000000000005,155.75248380129605L368.70000000000005,188.60345572354228C188.10057000000003,188.60345572354228 188.10057000000003,227.0046461399366 7.50114,227.0046461399366Z" style="stroke: rgb(68, 68, 68); stroke-opacity: 1; fill: rgb(239, 85, 59); fill-opacity: 0.6; stroke-width: 0; opacity: 1;"/><path class="sankey-link" d="M7.50114,227.0046461399366C188.10057000000003,227.0046461399366 188.10057000000003,303.19503239740817 368.70000000000005,303.19503239740817L368.70000000000005,319.6205183585312C188.10057000000003,319.6205183585312 188.10057000000003,243.4301321010597 7.50114,243.4301321010597Z" style="stroke: rgb(68, 68, 68); stroke-opacity: 1; fill: rgb(255, 161, 90); fill-opacity: 0.6; stroke-width: 0; opacity: 1;"/><path class="sankey-link" d="M7.50114,243.43013210105974C188.10057000000003,243.43013210105974 188.10057000000003,359.0125269978403 368.70000000000005,359.0125269978403L368.70000000000005,404.4984881209505C188.10057000000003,404.4984881209505 188.10057000000003,288.9160932241699 7.50114,288.9160932241699Z" style="stroke: rgb(68, 68, 68); stroke-opacity: 1; fill: rgb(171, 99, 250); fill-opacity: 0.6; stroke-width: 0; opacity: 1;"/><path class="sankey-link" d="M7.50114,288.91609322416986C188.10057000000003,288.91609322416986 188.10057000000003,459.6589632829373 368.70000000000005,459.6589632829373L368.70000000000005,471.0304535637148C188.10057000000003,471.0304535637148 188.10057000000003,300.28758350494735 7.50114,300.28758350494735Z" style="stroke: rgb(68, 68, 68); stroke-opacity: 1; fill: rgb(99, 110, 250); fill-opacity: 0.6; stroke-width: 0; opacity: 1;"/><path class="sankey-link" d="M7.50114,300.2875835049474C188.10057000000003,300.2875835049474 188.10057000000003,603.1632829373649 368.70000000000005,603.1632829373649L368.70000000000005,624.6427645788336C188.10057000000003,624.6427645788336 188.10057000000003,321.76706514641614 7.50114,321.76706514641614Z" style="stroke: rgb(68, 68, 68); stroke-opacity: 1; fill: rgb(255, 151, 255); fill-opacity: 0.6; stroke-width: 0; opacity: 1;"/><path class="sankey-link" d="M7.50114,321.7670651464161C188.10057000000003,321.7670651464161 188.10057000000003,659.157667386609 368.70000000000005,659.157667386609L368.70000000000005,673.0561555075593C188.10057000000003,673.0561555075593 188.10057000000003,335.6655532673664 7.50114,335.6655532673664Z" style="stroke: rgb(68, 68, 68); stroke-opacity: 1; fill: rgb(182, 232, 128); fill-opacity: 0.6; stroke-width: 0; opacity: 1;"/><path class="sankey-link" d="M7.50114,335.6655532673664C188.10057000000003,335.6655532673664 188.10057000000003,700.6976241900647 368.70000000000005,700.6976241900647L368.70000000000005,704.488120950324C188.10057000000003,704.488120950324 188.10057000000003,339.4560500276256 7.50114,339.4560500276256Z" style="stroke: rgb(68, 68, 68); stroke-opacity: 1; fill: rgb(255, 102, 146); fill-opacity: 0.6; stroke-width: 0; opacity: 1;"/><path class="sankey-link" d="M7.50114,401.2816967200765C188.10057000000003,401.2816967200765 188.10057000000003,34.03477321814261 368.70000000000005,34.03477321814261L368.70000000000005,35.298272138229C188.10057000000003,35.298272138229 188.10057000000003,402.5451956401629 7.50114,402.5451956401629Z" style="stroke: rgb(68, 68, 68); stroke-opacity: 1; fill: rgb(25, 211, 243); fill-opacity: 0.6; stroke-width: 0; opacity: 1;"/><path class="sankey-link" d="M7.50114,402.54519564016294C188.10057000000003,402.54519564016294 188.10057000000003,101.7796976241902 368.70000000000005,101.7796976241902L368.70000000000005,105.57019438444938C188.10057000000003,105.57019438444938 188.10057000000003,406.33569240042215 7.50114,406.33569240042215Z" style="stroke: rgb(68, 68, 68); stroke-opacity: 1; fill: rgb(0, 204, 150); fill-opacity: 0.6; stroke-width: 0; opacity: 1;"/><path class="sankey-link" d="M7.50114,406.33569240042215C188.10057000000003,406.33569240042215 188.10057000000003,319.6205183585313 368.70000000000005,319.6205183585313L368.70000000000005,320.88401727861765C188.10057000000003,320.88401727861765 188.10057000000003,407.5991913205085 7.50114,407.5991913205085Z" style="stroke: rgb(68, 68, 68); stroke-opacity: 1; fill: rgb(255, 161, 90); fill-opacity: 0.6; stroke-width: 0; opacity: 1;"/><path class="sankey-link" d="M7.50114,407.59919132050857C188.10057000000003,407.59919132050857 188.10057000000003,404.49848812095047 368.70000000000005,404.49848812095047L368.70000000000005,405.76198704103683C188.10057000000003,405.76198704103683 188.10057000000003,408.86269024059493 7.50114,408.86269024059493Z" style="stroke: rgb(68, 68, 68); stroke-opacity: 1; fill: rgb(171, 99, 250); fill-opacity: 0.6; stroke-width: 0; opacity: 1;"/><path class="sankey-link" d="M7.50114,408.862690240595C188.10057000000003,408.862690240595 188.10057000000003,624.6427645788335 368.70000000000005,624.6427645788335L368.70000000000005,627.1697624190062C188.10057000000003,627.1697624190062 188.10057000000003,411.3896880807678 7.50114,411.3896880807678Z" style="stroke: rgb(68, 68, 68); stroke-opacity: 1; fill: rgb(255, 151, 255); fill-opacity: 0.6; stroke-width: 0; opacity: 1;"/><path class="sankey-link" d="M7.50114,411.38968808076777C188.10057000000003,411.38968808076777 188.10057000000003,673.0561555075593 368.70000000000005,673.0561555075593L368.70000000000005,674.3196544276458C188.10057000000003,674.3196544276458 188.10057000000003,412.65318700085413 7.50114,412.65318700085413Z" style="stroke: rgb(68, 68, 68); stroke-opacity: 1; fill: rgb(182, 232, 128); fill-opacity: 0.6; stroke-width: 0; opacity: 1;"/><path class="sankey-link" d="M7.50114,450.18764880204947C188.10057000000003,450.18764880204947 188.10057000000003,105.57019438444938 368.70000000000005,105.57019438444938L368.70000000000005,113.15118790496773C188.10057000000003,113.15118790496773 188.10057000000003,457.76864232256787 7.50114,457.76864232256787Z" style="stroke: rgb(68, 68, 68); stroke-opacity: 1; fill: rgb(0, 204, 150); fill-opacity: 0.6; stroke-width: 0; opacity: 1;"/><path class="sankey-link" d="M7.50114,457.7686423225678C188.10057000000003,457.7686423225678 188.10057000000003,188.60345572354225 368.70000000000005,188.60345572354225L368.70000000000005,194.92095032397424C188.10057000000003,194.92095032397424 188.10057000000003,464.08613692299974 7.50114,464.08613692299974Z" style="stroke: rgb(68, 68, 68); stroke-opacity: 1; fill: rgb(239, 85, 59); fill-opacity: 0.6; stroke-width: 0; opacity: 1;"/><path class="sankey-link" d="M7.50114,464.0861369229998C188.10057000000003,464.0861369229998 188.10057000000003,247.32699784017268 368.70000000000005,247.32699784017268L368.70000000000005,257.4349892008638C188.10057000000003,257.4349892008638 188.10057000000003,474.19412828369093 7.50114,474.19412828369093Z" style="stroke: rgb(68, 68, 68); stroke-opacity: 1; fill: rgb(254, 203, 82); fill-opacity: 0.6; stroke-width: 0; opacity: 1;"/><path class="sankey-link" d="M7.50114,474.19412828369093C188.10057000000003,474.19412828369093 188.10057000000003,405.7619870410369 368.70000000000005,405.7619870410369L368.70000000000005,417.1334773218144C188.10057000000003,417.1334773218144 188.10057000000003,485.5656185644684 7.50114,485.5656185644684Z" style="stroke: rgb(68, 68, 68); stroke-opacity: 1; fill: rgb(171, 99, 250); fill-opacity: 0.6; stroke-width: 0; opacity: 1;"/><path class="sankey-link" d="M7.50114,485.5656185644685C188.10057000000003,485.5656185644685 188.10057000000003,471.03045356371484 368.70000000000005,471.03045356371484L368.70000000000005,515.2529157667386C188.10057000000003,515.2529157667386 188.10057000000003,529.7880807674923 7.50114,529.7880807674923Z" style="stroke: rgb(68, 68, 68); stroke-opacity: 1; fill: rgb(99, 110, 250); fill-opacity: 0.6; stroke-width: 0; opacity: 1;"/><path class="sankey-link" d="M7.50114,529.7880807674923C188.10057000000003,529.7880807674923 188.10057000000003,627.1697624190064 368.70000000000005,627.1697624190064L368.70000000000005,636.014254859611C188.10057000000003,636.014254859611 188.10057000000003,538.6325732080969 7.50114,538.6325732080969Z" style="stroke: rgb(68, 68, 68); stroke-opacity: 1; fill: rgb(255, 151, 255); fill-opacity: 0.6; stroke-width: 0; opacity: 1;"/><path class="sankey-link" d="M7.50114,538.632573208097C188.10057000000003,538.632573208097 188.10057000000003,674.3196544276457 368.70000000000005,674.3196544276457L368.70000000000005,675.5831533477321C188.10057000000003,675.5831533477321 188.10057000000003,539.8960721281835 7.50114,539.8960721281835Z" style="stroke: rgb(68, 68, 68); stroke-opacity: 1; fill: rgb(182, 232, 128); fill-opacity: 0.6; stroke-width: 0; opacity: 1;"/><path class="sankey-link" d="M7.50114,595.3597418253053C188.10057000000003,595.3597418253053 188.10057000000003,113.15118790496774 368.70000000000005,113.15118790496774L368.70000000000005,120.73218142548609C188.10057000000003,120.73218142548609 188.10057000000003,602.9407353458237 7.50114,602.9407353458237Z" style="stroke: rgb(68, 68, 68); stroke-opacity: 1; fill: rgb(0, 204, 150); fill-opacity: 0.6; stroke-width: 0; opacity: 1;"/><path class="sankey-link" d="M7.50114,602.9407353458237C188.10057000000003,602.9407353458237 188.10057000000003,194.9209503239742 368.70000000000005,194.9209503239742L368.70000000000005,201.2384449244062C188.10057000000003,201.2384449244062 188.10057000000003,609.2582299462556 7.50114,609.2582299462556Z" style="stroke: rgb(68, 68, 68); stroke-opacity: 1; fill: rgb(239, 85, 59); fill-opacity: 0.6; stroke-width: 0; opacity: 1;"/><path class="sankey-link" d="M7.50114,609.2582299462556C188.10057000000003,609.2582299462556 188.10057000000003,257.4349892008638 368.70000000000005,257.4349892008638L368.70000000000005,267.54298056155494C188.10057000000003,267.54298056155494 188.10057000000003,619.3662213069467 7.50114,619.3662213069467Z" style="stroke: rgb(68, 68, 68); stroke-opacity: 1; fill: rgb(254, 203, 82); fill-opacity: 0.6; stroke-width: 0; opacity: 1;"/><path class="sankey-link" d="M7.50114,619.3662213069467C188.10057000000003,619.3662213069467 188.10057000000003,417.13347732181444 368.70000000000005,417.13347732181444L368.70000000000005,428.50496760259193C188.10057000000003,428.50496760259193 188.10057000000003,630.7377115877243 7.50114,630.7377115877243Z" style="stroke: rgb(68, 68, 68); stroke-opacity: 1; fill: rgb(171, 99, 250); fill-opacity: 0.6; stroke-width: 0; opacity: 1;"/><path class="sankey-link" d="M7.50114,630.7377115877242C188.10057000000003,630.7377115877242 188.10057000000003,515.2529157667386 368.70000000000005,515.2529157667386L368.70000000000005,559.4753779697623C188.10057000000003,559.4753779697623 188.10057000000003,674.960173790748 7.50114,674.960173790748Z" style="stroke: rgb(68, 68, 68); stroke-opacity: 1; fill: rgb(99, 110, 250); fill-opacity: 0.6; stroke-width: 0; opacity: 1;"/><path class="sankey-link" d="M7.50114,674.960173790748C188.10057000000003,674.960173790748 188.10057000000003,636.0142548596111 368.70000000000005,636.0142548596111L368.70000000000005,644.8587473002158C188.10057000000003,644.8587473002158 188.10057000000003,683.8046662313526 7.50114,683.8046662313526Z" style="stroke: rgb(68, 68, 68); stroke-opacity: 1; fill: rgb(255, 151, 255); fill-opacity: 0.6; stroke-width: 0; opacity: 1;"/><path class="sankey-link" d="M7.50114,683.8046662313527C188.10057000000003,683.8046662313527 188.10057000000003,675.583153347732 368.70000000000005,675.583153347732L368.70000000000005,676.8466522678185C188.10057000000003,676.8466522678185 188.10057000000003,685.0681651514392 7.50114,685.0681651514392Z" style="stroke: rgb(68, 68, 68); stroke-opacity: 1; fill: rgb(182, 232, 128); fill-opacity: 0.6; stroke-width: 0; opacity: 1;"/><path class="sankey-link" d="M383.70000000000005,13.818790496760322C564.3000000000001,13.818790496760322 564.3000000000001,20.120734341252884 744.9000000000001,20.120734341252884L744.9000000000001,26.438228941684848C564.3000000000001,26.438228941684848 564.3000000000001,20.136285097192285 383.70000000000005,20.136285097192285Z" style="stroke: rgb(68, 68, 68); stroke-opacity: 1; fill: rgb(25, 211, 243); fill-opacity: 0.6; stroke-width: 0; opacity: 1;"/><path class="sankey-link" d="M383.70000000000005,20.136285097192285C564.3000000000001,20.136285097192285 564.3000000000001,302.0559395248378 744.9000000000001,302.0559395248378L744.9000000000001,317.2179265658745C564.3000000000001,317.2179265658745 564.3000000000001,35.298272138229 383.70000000000005,35.298272138229Z" style="stroke: rgb(68, 68, 68); stroke-opacity: 1; fill: rgb(25, 211, 243); fill-opacity: 0.6; stroke-width: 0; opacity: 1;"/><path class="sankey-link" d="M383.70000000000005,35.298272138229C564.3000000000001,35.298272138229 564.3000000000001,550.3140388768901 744.9000000000001,550.3140388768901L744.9000000000001,557.8950323974085C564.3000000000001,557.8950323974085 564.3000000000001,42.879265658747364 383.70000000000005,42.879265658747364Z" style="stroke: rgb(68, 68, 68); stroke-opacity: 1; fill: rgb(25, 211, 243); fill-opacity: 0.6; stroke-width: 0; opacity: 1;"/><path class="sankey-link" d="M383.70000000000005,55.030237580993656C564.3000000000001,55.030237580993656 564.3000000000001,26.438228941684848 744.9000000000001,26.438228941684848L744.9000000000001,46.65421166306714C564.3000000000001,46.65421166306714 564.3000000000001,75.24622030237595 383.70000000000005,75.24622030237595Z" style="stroke: rgb(68, 68, 68); stroke-opacity: 1; fill: rgb(0, 204, 150); fill-opacity: 0.6; stroke-width: 0; opacity: 1;"/><path class="sankey-link" d="M383.70000000000005,75.24622030237595C564.3000000000001,75.24622030237595 564.3000000000001,179.6948164146868 744.9000000000001,179.6948164146868L744.9000000000001,180.95831533477323C564.3000000000001,180.95831533477323 564.3000000000001,76.50971922246234 383.70000000000005,76.50971922246234Z" style="stroke: rgb(68, 68, 68); stroke-opacity: 1; fill: rgb(0, 204, 150); fill-opacity: 0.6; stroke-width: 0; opacity: 1;"/><path class="sankey-link" d="M383.70000000000005,76.50971922246234C564.3000000000001,76.50971922246234 564.3000000000001,239.09676025917912 744.9000000000001,239.09676025917912L744.9000000000001,241.6237580993519C564.3000000000001,241.6237580993519 564.3000000000001,79.03671706263512 383.70000000000005,79.03671706263512Z" style="stroke: rgb(68, 68, 68); stroke-opacity: 1; fill: rgb(0, 204, 150); fill-opacity: 0.6; stroke-width: 0; opacity: 1;"/><path class="sankey-link" d="M383.70000000000005,79.03671706263512C564.3000000000001,79.03671706263512 564.3000000000001,317.2179265658745 744.9000000000001,317.2179265658745L744.9000000000001,348.8053995680344C564.3000000000001,348.8053995680344 564.3000000000001,110.62419006479493 383.70000000000005,110.62419006479493Z" style="stroke: rgb(68, 68, 68); stroke-opacity: 1; fill: rgb(0, 204, 150); fill-opacity: 0.6; stroke-width: 0; opacity: 1;"/><path class="sankey-link" d="M383.70000000000005,110.62419006479494C564.3000000000001,110.62419006479494 564.3000000000001,557.8950323974085 744.9000000000001,557.8950323974085L744.9000000000001,585.6920086393092C564.3000000000001,585.6920086393092 564.3000000000001,138.4211663066956 383.70000000000005,138.4211663066956Z" style="stroke: rgb(68, 68, 68); stroke-opacity: 1; fill: rgb(0, 204, 150); fill-opacity: 0.6; stroke-width: 0; opacity: 1;"/><path class="sankey-link" d="M383.70000000000005,149.4349892008641C564.3000000000001,149.4349892008641 564.3000000000001,46.65421166306714 744.9000000000001,46.65421166306714L744.9000000000001,69.39719222462222C564.3000000000001,69.39719222462222 564.3000000000001,172.1779697624192 383.70000000000005,172.1779697624192Z" style="stroke: rgb(68, 68, 68); stroke-opacity: 1; fill: rgb(239, 85, 59); fill-opacity: 0.6; stroke-width: 0; opacity: 1;"/><path class="sankey-link" d="M383.70000000000005,172.17796976241917C564.3000000000001,172.17796976241917 564.3000000000001,180.9583153347732 744.9000000000001,180.9583153347732L744.9000000000001,184.7488120950324C564.3000000000001,184.7488120950324 564.3000000000001,175.96846652267837 383.70000000000005,175.96846652267837Z" style="stroke: rgb(68, 68, 68); stroke-opacity: 1; fill: rgb(239, 85, 59); fill-opacity: 0.6; stroke-width: 0; opacity: 1;"/><path class="sankey-link" d="M383.70000000000005,175.96846652267834C564.3000000000001,175.96846652267834 564.3000000000001,241.6237580993519 744.9000000000001,241.6237580993519L744.9000000000001,244.1507559395247C564.3000000000001,244.1507559395247 564.3000000000001,178.49546436285112 383.70000000000005,178.49546436285112Z" style="stroke: rgb(68, 68, 68); stroke-opacity: 1; fill: rgb(239, 85, 59); fill-opacity: 0.6; stroke-width: 0; opacity: 1;"/><path class="sankey-link" d="M383.70000000000005,178.49546436285112C564.3000000000001,178.49546436285112 564.3000000000001,348.8053995680343 744.9000000000001,348.8053995680343L744.9000000000001,376.602375809935C564.3000000000001,376.602375809935 564.3000000000001,206.2924406047518 383.70000000000005,206.2924406047518Z" style="stroke: rgb(68, 68, 68); stroke-opacity: 1; fill: rgb(239, 85, 59); fill-opacity: 0.6; stroke-width: 0; opacity: 1;"/><path class="sankey-link" d="M383.70000000000005,206.29244060475176C564.3000000000001,206.29244060475176 564.3000000000001,585.6920086393092 744.9000000000001,585.6920086393092L744.9000000000001,614.7524838012963C564.3000000000001,614.7524838012963 564.3000000000001,235.3529157667388 383.70000000000005,235.3529157667388Z" style="stroke: rgb(68, 68, 68); stroke-opacity: 1; fill: rgb(239, 85, 59); fill-opacity: 0.6; stroke-width: 0; opacity: 1;"/><path class="sankey-link" d="M383.70000000000005,247.32699784017268C564.3000000000001,247.32699784017268 564.3000000000001,69.39719222462222 744.9000000000001,69.39719222462222L744.9000000000001,79.50518358531335C564.3000000000001,79.50518358531335 564.3000000000001,257.4349892008638 383.70000000000005,257.4349892008638Z" style="stroke: rgb(68, 68, 68); stroke-opacity: 1; fill: rgb(254, 203, 82); fill-opacity: 0.6; stroke-width: 0; opacity: 1;"/><path class="sankey-link" d="M383.70000000000005,257.4349892008638C564.3000000000001,257.4349892008638 564.3000000000001,184.74881209503238 744.9000000000001,184.74881209503238L744.9000000000001,192.32980561555073C564.3000000000001,192.32980561555073 564.3000000000001,265.0159827213822 383.70000000000005,265.0159827213822Z" style="stroke: rgb(68, 68, 68); stroke-opacity: 1; fill: rgb(254, 203, 82); fill-opacity: 0.6; stroke-width: 0; opacity: 1;"/><path class="sankey-link" d="M383.70000000000005,265.01598272138216C564.3000000000001,265.01598272138216 564.3000000000001,244.1507559395247 744.9000000000001,244.1507559395247L744.9000000000001,245.4142548596111C564.3000000000001,245.4142548596111 564.3000000000001,266.2794816414685 383.70000000000005,266.2794816414685Z" style="stroke: rgb(68, 68, 68); stroke-opacity: 1; fill: rgb(254, 203, 82); fill-opacity: 0.6; stroke-width: 0; opacity: 1;"/><path class="sankey-link" d="M383.70000000000005,266.2794816414686C564.3000000000001,266.2794816414686 564.3000000000001,376.602375809935 744.9000000000001,376.602375809935L744.9000000000001,387.9738660907125C564.3000000000001,387.9738660907125 564.3000000000001,277.6509719222461 383.70000000000005,277.6509719222461Z" style="stroke: rgb(68, 68, 68); stroke-opacity: 1; fill: rgb(254, 203, 82); fill-opacity: 0.6; stroke-width: 0; opacity: 1;"/><path class="sankey-link" d="M383.70000000000005,277.65097192224613C564.3000000000001,277.65097192224613 564.3000000000001,614.7524838012962 744.9000000000001,614.7524838012962L744.9000000000001,619.8064794816419C564.3000000000001,619.8064794816419 564.3000000000001,282.7049676025917 383.70000000000005,282.7049676025917Z" style="stroke: rgb(68, 68, 68); stroke-opacity: 1; fill: rgb(254, 203, 82); fill-opacity: 0.6; stroke-width: 0; opacity: 1;"/><path class="sankey-link" d="M383.70000000000005,295.6140388768898C564.3000000000001,295.6140388768898 564.3000000000001,79.50518358531336 744.9000000000001,79.50518358531336L744.9000000000001,88.3496760259181C564.3000000000001,88.3496760259181 564.3000000000001,304.4585313174946 383.70000000000005,304.4585313174946Z" style="stroke: rgb(68, 68, 68); stroke-opacity: 1; fill: rgb(255, 161, 90); fill-opacity: 0.6; stroke-width: 0; opacity: 1;"/><path class="sankey-link" d="M383.70000000000005,304.4585313174946C564.3000000000001,304.4585313174946 564.3000000000001,245.41425485961108 744.9000000000001,245.41425485961108L744.9000000000001,246.6777537796975C564.3000000000001,246.6777537796975 564.3000000000001,305.72203023758095 383.70000000000005,305.72203023758095Z" style="stroke: rgb(68, 68, 68); stroke-opacity: 1; fill: rgb(255, 161, 90); fill-opacity: 0.6; stroke-width: 0; opacity: 1;"/><path class="sankey-link" d="M383.70000000000005,305.722030237581C564.3000000000001,305.722030237581 564.3000000000001,387.97386609071253 744.9000000000001,387.97386609071253L744.9000000000001,406.92634989200843C564.3000000000001,406.92634989200843 564.3000000000001,324.6745140388769 383.70000000000005,324.6745140388769Z" style="stroke: rgb(68, 68, 68); stroke-opacity: 1; fill: rgb(255, 161, 90); fill-opacity: 0.6; stroke-width: 0; opacity: 1;"/><path class="sankey-link" d="M383.70000000000005,324.6745140388769C564.3000000000001,324.6745140388769 564.3000000000001,619.8064794816418 744.9000000000001,619.8064794816418L744.9000000000001,629.9144708423329C564.3000000000001,629.9144708423329 564.3000000000001,334.78250539956804 383.70000000000005,334.78250539956804Z" style="stroke: rgb(68, 68, 68); stroke-opacity: 1; fill: rgb(255, 161, 90); fill-opacity: 0.6; stroke-width: 0; opacity: 1;"/><path class="sankey-link" d="M383.70000000000005,346.3775377969764C564.3000000000001,346.3775377969764 564.3000000000001,88.34967602591811 744.9000000000001,88.34967602591811L744.9000000000001,111.09265658747319C564.3000000000001,111.09265658747319 564.3000000000001,369.1205183585315 383.70000000000005,369.1205183585315Z" style="stroke: rgb(68, 68, 68); stroke-opacity: 1; fill: rgb(171, 99, 250); fill-opacity: 0.6; stroke-width: 0; opacity: 1;"/><path class="sankey-link" d="M383.70000000000005,369.1205183585315C564.3000000000001,369.1205183585315 564.3000000000001,192.32980561555073 744.9000000000001,192.32980561555073L744.9000000000001,194.8568034557235C564.3000000000001,194.8568034557235 564.3000000000001,371.64751619870435 383.70000000000005,371.64751619870435Z" style="stroke: rgb(68, 68, 68); stroke-opacity: 1; fill: rgb(171, 99, 250); fill-opacity: 0.6; stroke-width: 0; opacity: 1;"/><path class="sankey-link" d="M383.70000000000005,371.6475161987043C564.3000000000001,371.6475161987043 564.3000000000001,246.67775377969747 744.9000000000001,246.67775377969747L744.9000000000001,251.73174946004303C564.3000000000001,251.73174946004303 564.3000000000001,376.70151187904986 383.70000000000005,376.70151187904986Z" style="stroke: rgb(68, 68, 68); stroke-opacity: 1; fill: rgb(171, 99, 250); fill-opacity: 0.6; stroke-width: 0; opacity: 1;"/><path class="sankey-link" d="M383.70000000000005,376.70151187904986C564.3000000000001,376.70151187904986 564.3000000000001,406.92634989200843 744.9000000000001,406.92634989200843L744.9000000000001,449.8853131749458C564.3000000000001,449.8853131749458 564.3000000000001,419.6604751619872 383.70000000000005,419.6604751619872Z" style="stroke: rgb(68, 68, 68); stroke-opacity: 1; fill: rgb(171, 99, 250); fill-opacity: 0.6; stroke-width: 0; opacity: 1;"/><path class="sankey-link" d="M383.70000000000005,419.6604751619872C564.3000000000001,419.6604751619872 564.3000000000001,629.9144708423329 744.9000000000001,629.9144708423329L744.9000000000001,657.7114470842336C564.3000000000001,657.7114470842336 564.3000000000001,447.4574514038879 383.70000000000005,447.4574514038879Z" style="stroke: rgb(68, 68, 68); stroke-opacity: 1; fill: rgb(171, 99, 250); fill-opacity: 0.6; stroke-width: 0; opacity: 1;"/><path class="sankey-link" d="M383.70000000000005,457.1319654427645C564.3000000000001,457.1319654427645 564.3000000000001,111.09265658747319 744.9000000000001,111.09265658747319L744.9000000000001,142.680129589633C564.3000000000001,142.680129589633 564.3000000000001,488.7194384449244 383.70000000000005,488.7194384449244Z" style="stroke: rgb(68, 68, 68); stroke-opacity: 1; fill: rgb(99, 110, 250); fill-opacity: 0.6; stroke-width: 0; opacity: 1;"/><path class="sankey-link" d="M383.70000000000005,488.7194384449243C564.3000000000001,488.7194384449243 564.3000000000001,194.8568034557235 744.9000000000001,194.8568034557235L744.9000000000001,217.5997840172786C564.3000000000001,217.5997840172786 564.3000000000001,511.4624190064794 383.70000000000005,511.4624190064794Z" style="stroke: rgb(68, 68, 68); stroke-opacity: 1; fill: rgb(99, 110, 250); fill-opacity: 0.6; stroke-width: 0; opacity: 1;"/><path class="sankey-link" d="M383.70000000000005,511.4624190064794C564.3000000000001,511.4624190064794 564.3000000000001,251.731749460043 744.9000000000001,251.731749460043L744.9000000000001,268.1572354211661C564.3000000000001,268.1572354211661 564.3000000000001,527.8879049676025 383.70000000000005,527.8879049676025Z" style="stroke: rgb(68, 68, 68); stroke-opacity: 1; fill: rgb(99, 110, 250); fill-opacity: 0.6; stroke-width: 0; opacity: 1;"/><path class="sankey-link" d="M383.70000000000005,527.8879049676025C564.3000000000001,527.8879049676025 564.3000000000001,449.8853131749458 744.9000000000001,449.8853131749458L744.9000000000001,489.05377969762395C564.3000000000001,489.05377969762395 564.3000000000001,567.0563714902808 383.70000000000005,567.0563714902808Z" style="stroke: rgb(68, 68, 68); stroke-opacity: 1; fill: rgb(99, 110, 250); fill-opacity: 0.6; stroke-width: 0; opacity: 1;"/><path class="sankey-link" d="M383.70000000000005,567.0563714902806C564.3000000000001,567.0563714902806 564.3000000000001,657.7114470842336 744.9000000000001,657.7114470842336L744.9000000000001,682.9814254859615C564.3000000000001,682.9814254859615 564.3000000000001,592.3263498920086 383.70000000000005,592.3263498920086Z" style="stroke: rgb(68, 68, 68); stroke-opacity: 1; fill: rgb(99, 110, 250); fill-opacity: 0.6; stroke-width: 0; opacity: 1;"/><path class="sankey-link" d="M383.70000000000005,603.1632829373649C564.3000000000001,603.1632829373649 564.3000000000001,142.680129589633 744.9000000000001,142.680129589633L744.9000000000001,152.78812095032413C564.3000000000001,152.78812095032413 564.3000000000001,613.271274298056 383.70000000000005,613.271274298056Z" style="stroke: rgb(68, 68, 68); stroke-opacity: 1; fill: rgb(255, 151, 255); fill-opacity: 0.6; stroke-width: 0; opacity: 1;"/><path class="sankey-link" d="M383.70000000000005,613.271274298056C564.3000000000001,613.271274298056 564.3000000000001,217.59978401727858 744.9000000000001,217.59978401727858L744.9000000000001,221.39028077753778C564.3000000000001,221.39028077753778 564.3000000000001,617.0617710583152 383.70000000000005,617.0617710583152Z" style="stroke: rgb(68, 68, 68); stroke-opacity: 1; fill: rgb(255, 151, 255); fill-opacity: 0.6; stroke-width: 0; opacity: 1;"/><path class="sankey-link" d="M383.70000000000005,617.0617710583152C564.3000000000001,617.0617710583152 564.3000000000001,268.15723542116615 744.9000000000001,268.15723542116615L744.9000000000001,274.4747300215981C564.3000000000001,274.4747300215981 564.3000000000001,623.3792656587472 383.70000000000005,623.3792656587472Z" style="stroke: rgb(68, 68, 68); stroke-opacity: 1; fill: rgb(255, 151, 255); fill-opacity: 0.6; stroke-width: 0; opacity: 1;"/><path class="sankey-link" d="M383.70000000000005,623.3792656587472C564.3000000000001,623.3792656587472 564.3000000000001,489.053779697624 744.9000000000001,489.053779697624L744.9000000000001,504.2157667386607C564.3000000000001,504.2157667386607 564.3000000000001,638.541252699784 383.70000000000005,638.541252699784Z" style="stroke: rgb(68, 68, 68); stroke-opacity: 1; fill: rgb(255, 151, 255); fill-opacity: 0.6; stroke-width: 0; opacity: 1;"/><path class="sankey-link" d="M383.70000000000005,638.5412526997839C564.3000000000001,638.5412526997839 564.3000000000001,682.9814254859614 744.9000000000001,682.9814254859614L744.9000000000001,690.5624190064798C564.3000000000001,690.5624190064798 564.3000000000001,646.1222462203023 383.70000000000005,646.1222462203023Z" style="stroke: rgb(68, 68, 68); stroke-opacity: 1; fill: rgb(255, 151, 255); fill-opacity: 0.6; stroke-width: 0; opacity: 1;"/><path class="sankey-link" d="M383.70000000000005,659.157667386609C564.3000000000001,659.157667386609 564.3000000000001,152.78812095032413 744.9000000000001,152.78812095032413L744.9000000000001,155.3151187904969C564.3000000000001,155.3151187904969 564.3000000000001,661.6846652267817 383.70000000000005,661.6846652267817Z" style="stroke: rgb(68, 68, 68); stroke-opacity: 1; fill: rgb(182, 232, 128); fill-opacity: 0.6; stroke-width: 0; opacity: 1;"/><path class="sankey-link" d="M383.70000000000005,661.6846652267818C564.3000000000001,661.6846652267818 564.3000000000001,274.47473002159813 744.9000000000001,274.47473002159813L744.9000000000001,277.001727861771C564.3000000000001,277.001727861771 564.3000000000001,664.2116630669545 383.70000000000005,664.2116630669545Z" style="stroke: rgb(68, 68, 68); stroke-opacity: 1; fill: rgb(182, 232, 128); fill-opacity: 0.6; stroke-width: 0; opacity: 1;"/><path class="sankey-link" d="M383.70000000000005,664.2116630669547C564.3000000000001,664.2116630669547 564.3000000000001,504.2157667386607 744.9000000000001,504.2157667386607L744.9000000000001,515.5872570194382C564.3000000000001,515.5872570194382 564.3000000000001,675.5831533477323 383.70000000000005,675.5831533477323Z" style="stroke: rgb(68, 68, 68); stroke-opacity: 1; fill: rgb(182, 232, 128); fill-opacity: 0.6; stroke-width: 0; opacity: 1;"/><path class="sankey-link" d="M383.70000000000005,675.5831533477321C564.3000000000001,675.5831533477321 564.3000000000001,690.5624190064798 744.9000000000001,690.5624190064798L744.9000000000001,699.4069114470844C564.3000000000001,699.4069114470844 564.3000000000001,684.4276457883368 383.70000000000005,684.4276457883368Z" style="stroke: rgb(68, 68, 68); stroke-opacity: 1; fill: rgb(182, 232, 128); fill-opacity: 0.6; stroke-width: 0; opacity: 1;"/><path class="sankey-link" d="M383.70000000000005,698.1706263498919C564.3000000000001,698.1706263498919 564.3000000000001,155.3151187904969 744.9000000000001,155.3151187904969L744.9000000000001,157.8421166306697C564.3000000000001,157.8421166306697 564.3000000000001,700.6976241900646 383.70000000000005,700.6976241900646Z" style="stroke: rgb(68, 68, 68); stroke-opacity: 1; fill: rgb(255, 102, 146); fill-opacity: 0.6; stroke-width: 0; opacity: 1;"/><path class="sankey-link" d="M383.70000000000005,700.6976241900647C564.3000000000001,700.6976241900647 564.3000000000001,515.5872570194382 744.9000000000001,515.5872570194382L744.9000000000001,520.6412526997839C564.3000000000001,520.6412526997839 564.3000000000001,705.7516198704104 383.70000000000005,705.7516198704104Z" style="stroke: rgb(68, 68, 68); stroke-opacity: 1; fill: rgb(255, 102, 146); fill-opacity: 0.6; stroke-width: 0; opacity: 1;"/><path class="sankey-link" d="M759.9000000000001,20.120734341252884C946.19943,20.120734341252884 946.19943,12.984881209503278 1132.49886,12.984881209503278L1132.49886,16.77537796976246C946.19943,16.77537796976246 946.19943,23.911231101512065 759.9000000000001,23.911231101512065Z" style="stroke: rgb(68, 68, 68); stroke-opacity: 1; fill: rgb(25, 211, 243); fill-opacity: 0.6; stroke-width: 0; opacity: 1;"/><path class="sankey-link" d="M759.9000000000001,90.87667386609091C946.19943,90.87667386609091 946.19943,95.38639308855292 1132.49886,95.38639308855292L1132.49886,97.9133909287257C946.19943,97.9133909287257 946.19943,93.4036717062637 759.9000000000001,93.4036717062637Z" style="stroke: rgb(68, 68, 68); stroke-opacity: 1; fill: rgb(25, 211, 243); fill-opacity: 0.6; stroke-width: 0; opacity: 1;"/><path class="sankey-link" d="M759.9000000000001,302.0559395248378C946.19943,302.0559395248378 946.19943,307.0030237580995 1132.49886,307.0030237580995L1132.49886,317.11101511879065C946.19943,317.11101511879065 946.19943,312.16393088552894 759.9000000000001,312.16393088552894Z" style="stroke: rgb(68, 68, 68); stroke-opacity: 1; fill: rgb(25, 211, 243); fill-opacity: 0.6; stroke-width: 0; opacity: 1;"/><path class="sankey-link" d="M759.9000000000001,423.35183585313155C946.19943,423.35183585313155 946.19943,438.32721382289424 1132.49886,438.32721382289424L1132.49886,443.3812095032398C946.19943,443.3812095032398 946.19943,428.4058315334771 759.9000000000001,428.4058315334771Z" style="stroke: rgb(68, 68, 68); stroke-opacity: 1; fill: rgb(25, 211, 243); fill-opacity: 0.6; stroke-width: 0; opacity: 1;"/><path class="sankey-link" d="M759.9000000000001,550.3140388768901C946.19943,550.3140388768901 946.19943,546.5041036717064 1132.49886,546.5041036717064L1132.49886,550.2946004319656C946.19943,550.2946004319656 946.19943,554.1045356371493 759.9000000000001,554.1045356371493Z" style="stroke: rgb(68, 68, 68); stroke-opacity: 1; fill: rgb(25, 211, 243); fill-opacity: 0.6; stroke-width: 0; opacity: 1;"/><path class="sankey-link" d="M759.9000000000001,628.6509719222465C946.19943,628.6509719222465 946.19943,636.2591792656589 1132.49886,636.2591792656589L1132.49886,640.0496760259181C946.19943,640.0496760259181 946.19943,632.4414686825057 759.9000000000001,632.4414686825057Z" style="stroke: rgb(68, 68, 68); stroke-opacity: 1; fill: rgb(25, 211, 243); fill-opacity: 0.6; stroke-width: 0; opacity: 1;"/><path class="sankey-link" d="M759.9000000000001,23.911231101512065C946.19943,23.911231101512065 946.19943,16.77537796976246 1132.49886,16.77537796976246L1132.49886,30.673866090712785C946.19943,30.673866090712785 946.19943,37.80971922246239 759.9000000000001,37.80971922246239Z" style="stroke: rgb(68, 68, 68); stroke-opacity: 1; fill: rgb(0, 204, 150); fill-opacity: 0.6; stroke-width: 0; opacity: 1;"/><path class="sankey-link" d="M759.9000000000001,93.4036717062637C946.19943,93.4036717062637 946.19943,97.9133909287257 1132.49886,97.9133909287257L1132.49886,104.23088552915766C946.19943,104.23088552915766 946.19943,99.72116630669565 759.9000000000001,99.72116630669565Z" style="stroke: rgb(68, 68, 68); stroke-opacity: 1; fill: rgb(0, 204, 150); fill-opacity: 0.6; stroke-width: 0; opacity: 1;"/><path class="sankey-link" d="M759.9000000000001,199.91079913606907C946.19943,199.91079913606907 946.19943,208.79028077753784 1132.49886,208.79028077753784L1132.49886,210.05377969762426C946.19943,210.05377969762426 946.19943,201.1742980561555 759.9000000000001,201.1742980561555Z" style="stroke: rgb(68, 68, 68); stroke-opacity: 1; fill: rgb(0, 204, 150); fill-opacity: 0.6; stroke-width: 0; opacity: 1;"/><path class="sankey-link" d="M759.9000000000001,256.7857451403886C946.19943,256.7857451403886 946.19943,275.2172786177107 1132.49886,275.2172786177107L1132.49886,277.74427645788353C946.19943,277.74427645788353 946.19943,259.31274298056144 759.9000000000001,259.31274298056144Z" style="stroke: rgb(68, 68, 68); stroke-opacity: 1; fill: rgb(0, 204, 150); fill-opacity: 0.6; stroke-width: 0; opacity: 1;"/><path class="sankey-link" d="M759.9000000000001,312.16393088552894C946.19943,312.16393088552894 946.19943,317.11101511879065 1132.49886,317.11101511879065L1132.49886,328.48250539956814C946.19943,328.48250539956814 946.19943,323.53542116630643 759.9000000000001,323.53542116630643Z" style="stroke: rgb(68, 68, 68); stroke-opacity: 1; fill: rgb(0, 204, 150); fill-opacity: 0.6; stroke-width: 0; opacity: 1;"/><path class="sankey-link" d="M759.9000000000001,428.4058315334771C946.19943,428.4058315334771 946.19943,443.3812095032398 1132.49886,443.3812095032398L1132.49886,463.59719222462206C946.19943,463.59719222462206 946.19943,448.6218142548594 759.9000000000001,448.6218142548594Z" style="stroke: rgb(68, 68, 68); stroke-opacity: 1; fill: rgb(0, 204, 150); fill-opacity: 0.6; stroke-width: 0; opacity: 1;"/><path class="sankey-link" d="M759.9000000000001,554.1045356371493C946.19943,554.1045356371493 946.19943,550.2946004319656 1132.49886,550.2946004319656L1132.49886,566.7200863930886C946.19943,566.7200863930886 946.19943,570.5300215982724 759.9000000000001,570.5300215982724Z" style="stroke: rgb(68, 68, 68); stroke-opacity: 1; fill: rgb(0, 204, 150); fill-opacity: 0.6; stroke-width: 0; opacity: 1;"/><path class="sankey-link" d="M759.9000000000001,632.4414686825057C946.19943,632.4414686825057 946.19943,640.0496760259181 1132.49886,640.0496760259181L1132.49886,651.4211663066957C946.19943,651.4211663066957 946.19943,643.8129589632833 759.9000000000001,643.8129589632833Z" style="stroke: rgb(68, 68, 68); stroke-opacity: 1; fill: rgb(0, 204, 150); fill-opacity: 0.6; stroke-width: 0; opacity: 1;"/><path class="sankey-link" d="M759.9000000000001,37.80971922246239C946.19943,37.80971922246239 946.19943,30.673866090712785 1132.49886,30.673866090712785L1132.49886,39.51835853131754C946.19943,39.51835853131754 946.19943,46.654211663067144 759.9000000000001,46.654211663067144Z" style="stroke: rgb(68, 68, 68); stroke-opacity: 1; fill: rgb(239, 85, 59); fill-opacity: 0.6; stroke-width: 0; opacity: 1;"/><path class="sankey-link" d="M759.9000000000001,99.72116630669566C946.19943,99.72116630669566 946.19943,104.23088552915767 1132.49886,104.23088552915767L1132.49886,118.12937365010801C946.19943,118.12937365010801 946.19943,113.619654427646 759.9000000000001,113.619654427646Z" style="stroke: rgb(68, 68, 68); stroke-opacity: 1; fill: rgb(239, 85, 59); fill-opacity: 0.6; stroke-width: 0; opacity: 1;"/><path class="sankey-link" d="M759.9000000000001,179.6948164146868C946.19943,179.6948164146868 946.19943,175.00820734341255 1132.49886,175.00820734341255L1132.49886,176.27170626349897C946.19943,176.27170626349897 946.19943,180.95831533477323 759.9000000000001,180.95831533477323Z" style="stroke: rgb(68, 68, 68); stroke-opacity: 1; fill: rgb(239, 85, 59); fill-opacity: 0.6; stroke-width: 0; opacity: 1;"/><path class="sankey-link" d="M759.9000000000001,201.17429805615546C946.19943,201.17429805615546 946.19943,210.05377969762424 1132.49886,210.05377969762424L1132.49886,212.58077753779702C946.19943,212.58077753779702 946.19943,203.70129589632825 759.9000000000001,203.70129589632825Z" style="stroke: rgb(68, 68, 68); stroke-opacity: 1; fill: rgb(239, 85, 59); fill-opacity: 0.6; stroke-width: 0; opacity: 1;"/><path class="sankey-link" d="M759.9000000000001,239.09676025917912C946.19943,239.09676025917912 946.19943,243.88639308855292 1132.49886,243.88639308855292L1132.49886,245.14989200863934C946.19943,245.14989200863934 946.19943,240.36025917926554 759.9000000000001,240.36025917926554Z" style="stroke: rgb(68, 68, 68); stroke-opacity: 1; fill: rgb(239, 85, 59); fill-opacity: 0.6; stroke-width: 0; opacity: 1;"/><path class="sankey-link" d="M759.9000000000001,259.3127429805614C946.19943,259.3127429805614 946.19943,277.7442764578835 1132.49886,277.7442764578835L1132.49886,279.00777537796984C946.19943,279.00777537796984 946.19943,260.57624190064774 759.9000000000001,260.57624190064774Z" style="stroke: rgb(68, 68, 68); stroke-opacity: 1; fill: rgb(239, 85, 59); fill-opacity: 0.6; stroke-width: 0; opacity: 1;"/><path class="sankey-link" d="M759.9000000000001,323.5354211663065C946.19943,323.5354211663065 946.19943,328.4825053995682 1132.49886,328.4825053995682L1132.49886,343.6444924406049C946.19943,343.6444924406049 946.19943,338.6974082073432 759.9000000000001,338.6974082073432Z" style="stroke: rgb(68, 68, 68); stroke-opacity: 1; fill: rgb(239, 85, 59); fill-opacity: 0.6; stroke-width: 0; opacity: 1;"/><path class="sankey-link" d="M759.9000000000001,448.6218142548594C946.19943,448.6218142548594 946.19943,463.59719222462206 1132.49886,463.59719222462206L1132.49886,476.23218142548603C946.19943,476.23218142548603 946.19943,461.25680345572334 759.9000000000001,461.25680345572334Z" style="stroke: rgb(68, 68, 68); stroke-opacity: 1; fill: rgb(239, 85, 59); fill-opacity: 0.6; stroke-width: 0; opacity: 1;"/><path class="sankey-link" d="M759.9000000000001,570.5300215982724C946.19943,570.5300215982724 946.19943,566.7200863930886 1132.49886,566.7200863930886L1132.49886,580.618574514039C946.19943,580.618574514039 946.19943,584.4285097192227 759.9000000000001,584.4285097192227Z" style="stroke: rgb(68, 68, 68); stroke-opacity: 1; fill: rgb(239, 85, 59); fill-opacity: 0.6; stroke-width: 0; opacity: 1;"/><path class="sankey-link" d="M759.9000000000001,643.8129589632832C946.19943,643.8129589632832 946.19943,651.4211663066956 1132.49886,651.4211663066956L1132.49886,666.5831533477324C946.19943,666.5831533477324 946.19943,658.97494600432 759.9000000000001,658.97494600432Z" style="stroke: rgb(68, 68, 68); stroke-opacity: 1; fill: rgb(239, 85, 59); fill-opacity: 0.6; stroke-width: 0; opacity: 1;"/><path class="sankey-link" d="M759.9000000000001,46.654211663067144C946.19943,46.654211663067144 946.19943,39.518358531317546 1132.49886,39.518358531317546L1132.49886,44.57235421166311C946.19943,44.57235421166311 946.19943,51.70820734341271 759.9000000000001,51.70820734341271Z" style="stroke: rgb(68, 68, 68); stroke-opacity: 1; fill: rgb(254, 203, 82); fill-opacity: 0.6; stroke-width: 0; opacity: 1;"/><path class="sankey-link" d="M759.9000000000001,113.61965442764598C946.19943,113.61965442764598 946.19943,118.129373650108 1132.49886,118.129373650108L1132.49886,123.18336933045356C946.19943,123.18336933045356 946.19943,118.67365010799155 759.9000000000001,118.67365010799155Z" style="stroke: rgb(68, 68, 68); stroke-opacity: 1; fill: rgb(254, 203, 82); fill-opacity: 0.6; stroke-width: 0; opacity: 1;"/><path class="sankey-link" d="M759.9000000000001,180.9583153347732C946.19943,180.9583153347732 946.19943,176.27170626349894 1132.49886,176.27170626349894L1132.49886,181.3257019438445C946.19943,181.3257019438445 946.19943,186.01231101511877 759.9000000000001,186.01231101511877Z" style="stroke: rgb(68, 68, 68); stroke-opacity: 1; fill: rgb(254, 203, 82); fill-opacity: 0.6; stroke-width: 0; opacity: 1;"/><path class="sankey-link" d="M759.9000000000001,203.70129589632825C946.19943,203.70129589632825 946.19943,212.58077753779702 1132.49886,212.58077753779702L1132.49886,215.1077753779698C946.19943,215.1077753779698 946.19943,206.22829373650103 759.9000000000001,206.22829373650103Z" style="stroke: rgb(68, 68, 68); stroke-opacity: 1; fill: rgb(254, 203, 82); fill-opacity: 0.6; stroke-width: 0; opacity: 1;"/><path class="sankey-link" d="M759.9000000000001,240.3602591792655C946.19943,240.3602591792655 946.19943,245.1498920086393 1132.49886,245.1498920086393L1132.49886,246.41339092872573C946.19943,246.41339092872573 946.19943,241.62375809935193 759.9000000000001,241.62375809935193Z" style="stroke: rgb(68, 68, 68); stroke-opacity: 1; fill: rgb(254, 203, 82); fill-opacity: 0.6; stroke-width: 0; opacity: 1;"/><path class="sankey-link" d="M759.9000000000001,338.6974082073432C946.19943,338.6974082073432 946.19943,343.6444924406049 1132.49886,343.6444924406049L1132.49886,347.4349892008641C946.19943,347.4349892008641 946.19943,342.4879049676024 759.9000000000001,342.4879049676024Z" style="stroke: rgb(68, 68, 68); stroke-opacity: 1; fill: rgb(254, 203, 82); fill-opacity: 0.6; stroke-width: 0; opacity: 1;"/><path class="sankey-link" d="M759.9000000000001,461.2568034557233C946.19943,461.2568034557233 946.19943,476.232181425486 1132.49886,476.232181425486L1132.49886,483.8131749460044C946.19943,483.8131749460044 946.19943,468.8377969762417 759.9000000000001,468.8377969762417Z" style="stroke: rgb(68, 68, 68); stroke-opacity: 1; fill: rgb(254, 203, 82); fill-opacity: 0.6; stroke-width: 0; opacity: 1;"/><path class="sankey-link" d="M759.9000000000001,584.4285097192227C946.19943,584.4285097192227 946.19943,580.618574514039 1132.49886,580.618574514039L1132.49886,584.4090712742982C946.19943,584.4090712742982 946.19943,588.2190064794819 759.9000000000001,588.2190064794819Z" style="stroke: rgb(68, 68, 68); stroke-opacity: 1; fill: rgb(254, 203, 82); fill-opacity: 0.6; stroke-width: 0; opacity: 1;"/><path class="sankey-link" d="M759.9000000000001,658.9749460043199C946.19943,658.9749460043199 946.19943,666.5831533477323 1132.49886,666.5831533477323L1132.49886,667.8466522678187C946.19943,667.8466522678187 946.19943,660.2384449244064 759.9000000000001,660.2384449244064Z" style="stroke: rgb(68, 68, 68); stroke-opacity: 1; fill: rgb(254, 203, 82); fill-opacity: 0.6; stroke-width: 0; opacity: 1;"/><path class="sankey-link" d="M759.9000000000001,51.70820734341272C946.19943,51.70820734341272 946.19943,44.57235421166311 1132.49886,44.57235421166311L1132.49886,50.88984881209508C946.19943,50.88984881209508 946.19943,58.02570194384469 759.9000000000001,58.02570194384469Z" style="stroke: rgb(68, 68, 68); stroke-opacity: 1; fill: rgb(255, 161, 90); fill-opacity: 0.6; stroke-width: 0; opacity: 1;"/><path class="sankey-link" d="M759.9000000000001,118.67365010799156C946.19943,118.67365010799156 946.19943,123.18336933045356 1132.49886,123.18336933045356L1132.49886,125.71036717062634C946.19943,125.71036717062634 946.19943,121.20064794816435 759.9000000000001,121.20064794816435Z" style="stroke: rgb(68, 68, 68); stroke-opacity: 1; fill: rgb(255, 161, 90); fill-opacity: 0.6; stroke-width: 0; opacity: 1;"/><path class="sankey-link" d="M759.9000000000001,260.5762419006478C946.19943,260.5762419006478 946.19943,279.0077753779699 1132.49886,279.0077753779699L1132.49886,280.27127429805626C946.19943,280.27127429805626 946.19943,261.83974082073416 759.9000000000001,261.83974082073416Z" style="stroke: rgb(68, 68, 68); stroke-opacity: 1; fill: rgb(255, 161, 90); fill-opacity: 0.6; stroke-width: 0; opacity: 1;"/><path class="sankey-link" d="M759.9000000000001,342.4879049676024C946.19943,342.4879049676024 946.19943,347.4349892008641 1132.49886,347.4349892008641L1132.49886,356.27948164146886C946.19943,356.27948164146886 946.19943,351.33239740820716 759.9000000000001,351.33239740820716Z" style="stroke: rgb(68, 68, 68); stroke-opacity: 1; fill: rgb(255, 161, 90); fill-opacity: 0.6; stroke-width: 0; opacity: 1;"/><path class="sankey-link" d="M759.9000000000001,468.83779697624163C946.19943,468.83779697624163 946.19943,483.8131749460043 1132.49886,483.8131749460043L1132.49886,493.92116630669545C946.19943,493.92116630669545 946.19943,478.94578833693276 759.9000000000001,478.94578833693276Z" style="stroke: rgb(68, 68, 68); stroke-opacity: 1; fill: rgb(255, 161, 90); fill-opacity: 0.6; stroke-width: 0; opacity: 1;"/><path class="sankey-link" d="M759.9000000000001,588.2190064794819C946.19943,588.2190064794819 946.19943,584.4090712742982 1132.49886,584.4090712742982L1132.49886,590.7265658747301C946.19943,590.7265658747301 946.19943,594.5365010799138 759.9000000000001,594.5365010799138Z" style="stroke: rgb(68, 68, 68); stroke-opacity: 1; fill: rgb(255, 161, 90); fill-opacity: 0.6; stroke-width: 0; opacity: 1;"/><path class="sankey-link" d="M759.9000000000001,660.2384449244063C946.19943,660.2384449244063 946.19943,667.8466522678186 1132.49886,667.8466522678186L1132.49886,671.6371490280778C946.19943,671.6371490280778 946.19943,664.0289416846655 759.9000000000001,664.0289416846655Z" style="stroke: rgb(68, 68, 68); stroke-opacity: 1; fill: rgb(255, 161, 90); fill-opacity: 0.6; stroke-width: 0; opacity: 1;"/><path class="sankey-link" d="M759.9000000000001,58.02570194384468C946.19943,58.02570194384468 946.19943,50.889848812095074 1132.49886,50.889848812095074L1132.49886,59.73434125269983C946.19943,59.73434125269983 946.19943,66.87019438444943 759.9000000000001,66.87019438444943Z" style="stroke: rgb(68, 68, 68); stroke-opacity: 1; fill: rgb(171, 99, 250); fill-opacity: 0.6; stroke-width: 0; opacity: 1;"/><path class="sankey-link" d="M759.9000000000001,121.20064794816435C946.19943,121.20064794816435 946.19943,125.71036717062634 1132.49886,125.71036717062634L1132.49886,139.60885529157667C946.19943,139.60885529157667 946.19943,135.09913606911468 759.9000000000001,135.09913606911468Z" style="stroke: rgb(68, 68, 68); stroke-opacity: 1; fill: rgb(171, 99, 250); fill-opacity: 0.6; stroke-width: 0; opacity: 1;"/><path class="sankey-link" d="M759.9000000000001,186.01231101511877C946.19943,186.01231101511877 946.19943,181.3257019438445 1132.49886,181.3257019438445L1132.49886,183.8526997840173C946.19943,183.8526997840173 946.19943,188.53930885529155 759.9000000000001,188.53930885529155Z" style="stroke: rgb(68, 68, 68); stroke-opacity: 1; fill: rgb(171, 99, 250); fill-opacity: 0.6; stroke-width: 0; opacity: 1;"/><path class="sankey-link" d="M759.9000000000001,241.6237580993519C946.19943,241.6237580993519 946.19943,246.4133909287257 1132.49886,246.4133909287257L1132.49886,248.9403887688985C946.19943,248.9403887688985 946.19943,244.1507559395247 759.9000000000001,244.1507559395247Z" style="stroke: rgb(68, 68, 68); stroke-opacity: 1; fill: rgb(171, 99, 250); fill-opacity: 0.6; stroke-width: 0; opacity: 1;"/><path class="sankey-link" d="M759.9000000000001,261.8397408207342C946.19943,261.8397408207342 946.19943,280.2712742980563 1132.49886,280.2712742980563L1132.49886,282.79827213822915C946.19943,282.79827213822915 946.19943,264.36673866090706 759.9000000000001,264.36673866090706Z" style="stroke: rgb(68, 68, 68); stroke-opacity: 1; fill: rgb(171, 99, 250); fill-opacity: 0.6; stroke-width: 0; opacity: 1;"/><path class="sankey-link" d="M759.9000000000001,351.33239740820716C946.19943,351.33239740820716 946.19943,356.27948164146886 1132.49886,356.27948164146886L1132.49886,380.2859611231103C946.19943,380.2859611231103 946.19943,375.3388768898486 759.9000000000001,375.3388768898486Z" style="stroke: rgb(68, 68, 68); stroke-opacity: 1; fill: rgb(171, 99, 250); fill-opacity: 0.6; stroke-width: 0; opacity: 1;"/><path class="sankey-link" d="M759.9000000000001,478.94578833693276C946.19943,478.94578833693276 946.19943,493.92116630669545 1132.49886,493.92116630669545L1132.49886,512.8736501079914C946.19943,512.8736501079914 946.19943,497.89827213822866 759.9000000000001,497.89827213822866Z" style="stroke: rgb(68, 68, 68); stroke-opacity: 1; fill: rgb(171, 99, 250); fill-opacity: 0.6; stroke-width: 0; opacity: 1;"/><path class="sankey-link" d="M759.9000000000001,594.5365010799138C946.19943,594.5365010799138 946.19943,590.7265658747301 1132.49886,590.7265658747301L1132.49886,603.361555075594C946.19943,603.361555075594 946.19943,607.1714902807777 759.9000000000001,607.1714902807777Z" style="stroke: rgb(68, 68, 68); stroke-opacity: 1; fill: rgb(171, 99, 250); fill-opacity: 0.6; stroke-width: 0; opacity: 1;"/><path class="sankey-link" d="M759.9000000000001,664.0289416846655C946.19943,664.0289416846655 946.19943,671.6371490280778 1132.49886,671.6371490280778L1132.49886,686.7991360691146C946.19943,686.7991360691146 946.19943,679.1909287257023 759.9000000000001,679.1909287257023Z" style="stroke: rgb(68, 68, 68); stroke-opacity: 1; fill: rgb(171, 99, 250); fill-opacity: 0.6; stroke-width: 0; opacity: 1;"/><path class="sankey-link" d="M759.9000000000001,66.87019438444943C946.19943,66.87019438444943 946.19943,59.73434125269982 1132.49886,59.73434125269982L1132.49886,76.15982721382294C946.19943,76.15982721382294 946.19943,83.29568034557255 759.9000000000001,83.29568034557255Z" style="stroke: rgb(68, 68, 68); stroke-opacity: 1; fill: rgb(99, 110, 250); fill-opacity: 0.6; stroke-width: 0; opacity: 1;"/><path class="sankey-link" d="M759.9000000000001,135.09913606911468C946.19943,135.09913606911468 946.19943,139.60885529157667 1132.49886,139.60885529157667L1132.49886,154.77084233261337C946.19943,154.77084233261337 946.19943,150.26112311015137 759.9000000000001,150.26112311015137Z" style="stroke: rgb(68, 68, 68); stroke-opacity: 1; fill: rgb(99, 110, 250); fill-opacity: 0.6; stroke-width: 0; opacity: 1;"/><path class="sankey-link" d="M759.9000000000001,188.53930885529155C946.19943,188.53930885529155 946.19943,183.8526997840173 1132.49886,183.8526997840173L1132.49886,192.69719222462206C946.19943,192.69719222462206 946.19943,197.38380129589632 759.9000000000001,197.38380129589632Z" style="stroke: rgb(68, 68, 68); stroke-opacity: 1; fill: rgb(99, 110, 250); fill-opacity: 0.6; stroke-width: 0; opacity: 1;"/><path class="sankey-link" d="M759.9000000000001,206.22829373650103C946.19943,206.22829373650103 946.19943,215.1077753779698 1132.49886,215.1077753779698L1132.49886,229.00626349892013C946.19943,229.00626349892013 946.19943,220.12678185745136 759.9000000000001,220.12678185745136Z" style="stroke: rgb(68, 68, 68); stroke-opacity: 1; fill: rgb(99, 110, 250); fill-opacity: 0.6; stroke-width: 0; opacity: 1;"/><path class="sankey-link" d="M759.9000000000001,244.1507559395247C946.19943,244.1507559395247 946.19943,248.9403887688985 1132.49886,248.9403887688985L1132.49886,257.7848812095032C946.19943,257.7848812095032 946.19943,252.99524838012945 759.9000000000001,252.99524838012945Z" style="stroke: rgb(68, 68, 68); stroke-opacity: 1; fill: rgb(99, 110, 250); fill-opacity: 0.6; stroke-width: 0; opacity: 1;"/><path class="sankey-link" d="M759.9000000000001,264.366738660907C946.19943,264.366738660907 946.19943,282.7982721382291 1132.49886,282.7982721382291L1132.49886,290.3792656587475C946.19943,290.3792656587475 946.19943,271.9477321814254 759.9000000000001,271.9477321814254Z" style="stroke: rgb(68, 68, 68); stroke-opacity: 1; fill: rgb(99, 110, 250); fill-opacity: 0.6; stroke-width: 0; opacity: 1;"/><path class="sankey-link" d="M759.9000000000001,375.3388768898486C946.19943,375.3388768898486 946.19943,380.2859611231103 1132.49886,380.2859611231103L1132.49886,404.2924406047518C946.19943,404.2924406047518 946.19943,399.3453563714901 759.9000000000001,399.3453563714901Z" style="stroke: rgb(68, 68, 68); stroke-opacity: 1; fill: rgb(99, 110, 250); fill-opacity: 0.6; stroke-width: 0; opacity: 1;"/><path class="sankey-link" d="M759.9000000000001,497.89827213822866C946.19943,497.89827213822866 946.19943,512.8736501079914 1132.49886,512.8736501079914L1132.49886,528.0356371490282C946.19943,528.0356371490282 946.19943,513.0602591792654 759.9000000000001,513.0602591792654Z" style="stroke: rgb(68, 68, 68); stroke-opacity: 1; fill: rgb(99, 110, 250); fill-opacity: 0.6; stroke-width: 0; opacity: 1;"/><path class="sankey-link" d="M759.9000000000001,607.1714902807778C946.19943,607.1714902807778 946.19943,603.3615550755941 1132.49886,603.3615550755941L1132.49886,617.2600431965444C946.19943,617.2600431965444 946.19943,621.0699784017281 759.9000000000001,621.0699784017281Z" style="stroke: rgb(68, 68, 68); stroke-opacity: 1; fill: rgb(99, 110, 250); fill-opacity: 0.6; stroke-width: 0; opacity: 1;"/><path class="sankey-link" d="M759.9000000000001,679.1909287257022C946.19943,679.1909287257022 946.19943,686.7991360691145 1132.49886,686.7991360691145L1132.49886,698.1706263498921C946.19943,698.1706263498921 946.19943,690.5624190064798 759.9000000000001,690.5624190064798Z" style="stroke: rgb(68, 68, 68); stroke-opacity: 1; fill: rgb(99, 110, 250); fill-opacity: 0.6; stroke-width: 0; opacity: 1;"/><path class="sankey-link" d="M759.9000000000001,83.29568034557255C946.19943,83.29568034557255 946.19943,76.15982721382294 1132.49886,76.15982721382294L1132.49886,83.74082073434128C946.19943,83.74082073434128 946.19943,90.8766738660909 759.9000000000001,90.8766738660909Z" style="stroke: rgb(68, 68, 68); stroke-opacity: 1; fill: rgb(255, 151, 255); fill-opacity: 0.6; stroke-width: 0; opacity: 1;"/><path class="sankey-link" d="M759.9000000000001,150.2611231101514C946.19943,150.2611231101514 946.19943,154.7708423326134 1132.49886,154.7708423326134L1132.49886,157.29784017278618C946.19943,157.29784017278618 946.19943,152.78812095032418 759.9000000000001,152.78812095032418Z" style="stroke: rgb(68, 68, 68); stroke-opacity: 1; fill: rgb(255, 151, 255); fill-opacity: 0.6; stroke-width: 0; opacity: 1;"/><path class="sankey-link" d="M759.9000000000001,197.3838012958963C946.19943,197.3838012958963 946.19943,192.69719222462203 1132.49886,192.69719222462203L1132.49886,195.2241900647948C946.19943,195.2241900647948 946.19943,199.91079913606907 759.9000000000001,199.91079913606907Z" style="stroke: rgb(68, 68, 68); stroke-opacity: 1; fill: rgb(255, 151, 255); fill-opacity: 0.6; stroke-width: 0; opacity: 1;"/><path class="sankey-link" d="M759.9000000000001,220.12678185745136C946.19943,220.12678185745136 946.19943,229.00626349892013 1132.49886,229.00626349892013L1132.49886,230.26976241900655C946.19943,230.26976241900655 946.19943,221.39028077753778 759.9000000000001,221.39028077753778Z" style="stroke: rgb(68, 68, 68); stroke-opacity: 1; fill: rgb(255, 151, 255); fill-opacity: 0.6; stroke-width: 0; opacity: 1;"/><path class="sankey-link" d="M759.9000000000001,252.99524838012942C946.19943,252.99524838012942 946.19943,257.7848812095032 1132.49886,257.7848812095032L1132.49886,260.31187904967607C946.19943,260.31187904967607 946.19943,255.5222462203022 759.9000000000001,255.5222462203022Z" style="stroke: rgb(68, 68, 68); stroke-opacity: 1; fill: rgb(255, 151, 255); fill-opacity: 0.6; stroke-width: 0; opacity: 1;"/><path class="sankey-link" d="M759.9000000000001,271.94773218142535C946.19943,271.94773218142535 946.19943,290.37926565874744 1132.49886,290.37926565874744L1132.49886,294.16976241900664C946.19943,294.16976241900664 946.19943,275.73822894168455 759.9000000000001,275.73822894168455Z" style="stroke: rgb(68, 68, 68); stroke-opacity: 1; fill: rgb(255, 151, 255); fill-opacity: 0.6; stroke-width: 0; opacity: 1;"/><path class="sankey-link" d="M759.9000000000001,399.3453563714901C946.19943,399.3453563714901 946.19943,404.2924406047518 1132.49886,404.2924406047518L1132.49886,416.92742980561576C946.19943,416.92742980561576 946.19943,411.98034557235405 759.9000000000001,411.98034557235405Z" style="stroke: rgb(68, 68, 68); stroke-opacity: 1; fill: rgb(255, 151, 255); fill-opacity: 0.6; stroke-width: 0; opacity: 1;"/><path class="sankey-link" d="M759.9000000000001,513.0602591792654C946.19943,513.0602591792654 946.19943,528.035637149028 1132.49886,528.035637149028L1132.49886,530.5626349892008C946.19943,530.5626349892008 946.19943,515.5872570194381 759.9000000000001,515.5872570194381Z" style="stroke: rgb(68, 68, 68); stroke-opacity: 1; fill: rgb(255, 151, 255); fill-opacity: 0.6; stroke-width: 0; opacity: 1;"/><path class="sankey-link" d="M759.9000000000001,621.0699784017281C946.19943,621.0699784017281 946.19943,617.2600431965444 1132.49886,617.2600431965444L1132.49886,619.7870410367171C946.19943,619.7870410367171 946.19943,623.5969762419008 759.9000000000001,623.5969762419008Z" style="stroke: rgb(68, 68, 68); stroke-opacity: 1; fill: rgb(255, 151, 255); fill-opacity: 0.6; stroke-width: 0; opacity: 1;"/><path class="sankey-link" d="M759.9000000000001,690.5624190064797C946.19943,690.5624190064797 946.19943,698.170626349892 1132.49886,698.170626349892L1132.49886,703.2246220302377C946.19943,703.2246220302377 946.19943,695.6164146868254 759.9000000000001,695.6164146868254Z" style="stroke: rgb(68, 68, 68); stroke-opacity: 1; fill: rgb(255, 151, 255); fill-opacity: 0.6; stroke-width: 0; opacity: 1;"/><path class="sankey-link" d="M759.9000000000001,152.78812095032418C946.19943,152.78812095032418 946.19943,157.29784017278618 1132.49886,157.29784017278618L1132.49886,159.82483801295896C946.19943,159.82483801295896 946.19943,155.31511879049697 759.9000000000001,155.31511879049697Z" style="stroke: rgb(68, 68, 68); stroke-opacity: 1; fill: rgb(182, 232, 128); fill-opacity: 0.6; stroke-width: 0; opacity: 1;"/><path class="sankey-link" d="M759.9000000000001,255.5222462203022C946.19943,255.5222462203022 946.19943,260.311879049676 1132.49886,260.311879049676L1132.49886,261.57537796976237C946.19943,261.57537796976237 946.19943,256.7857451403886 759.9000000000001,256.7857451403886Z" style="stroke: rgb(68, 68, 68); stroke-opacity: 1; fill: rgb(182, 232, 128); fill-opacity: 0.6; stroke-width: 0; opacity: 1;"/><path class="sankey-link" d="M759.9000000000001,275.73822894168455C946.19943,275.73822894168455 946.19943,294.16976241900664 1132.49886,294.16976241900664L1132.49886,295.433261339093C946.19943,295.433261339093 946.19943,277.0017278617709 759.9000000000001,277.0017278617709Z" style="stroke: rgb(68, 68, 68); stroke-opacity: 1; fill: rgb(182, 232, 128); fill-opacity: 0.6; stroke-width: 0; opacity: 1;"/><path class="sankey-link" d="M759.9000000000001,411.980345572354C946.19943,411.980345572354 946.19943,416.9274298056157 1132.49886,416.9274298056157L1132.49886,423.24492440604763C946.19943,423.24492440604763 946.19943,418.2978401727859 759.9000000000001,418.2978401727859Z" style="stroke: rgb(68, 68, 68); stroke-opacity: 1; fill: rgb(182, 232, 128); fill-opacity: 0.6; stroke-width: 0; opacity: 1;"/><path class="sankey-link" d="M759.9000000000001,515.5872570194382C946.19943,515.5872570194382 946.19943,530.5626349892009 1132.49886,530.5626349892009L1132.49886,535.6166306695466C946.19943,535.6166306695466 946.19943,520.6412526997839 759.9000000000001,520.6412526997839Z" style="stroke: rgb(68, 68, 68); stroke-opacity: 1; fill: rgb(182, 232, 128); fill-opacity: 0.6; stroke-width: 0; opacity: 1;"/><path class="sankey-link" d="M759.9000000000001,623.596976241901C946.19943,623.596976241901 946.19943,619.7870410367173 1132.49886,619.7870410367173L1132.49886,624.8410367170629C946.19943,624.8410367170629 946.19943,628.6509719222466 759.9000000000001,628.6509719222466Z" style="stroke: rgb(68, 68, 68); stroke-opacity: 1; fill: rgb(182, 232, 128); fill-opacity: 0.6; stroke-width: 0; opacity: 1;"/><path class="sankey-link" d="M759.9000000000001,695.6164146868252C946.19943,695.6164146868252 946.19943,703.2246220302376 1132.49886,703.2246220302376L1132.49886,707.0151187904968C946.19943,707.0151187904968 946.19943,699.4069114470844 759.9000000000001,699.4069114470844Z" style="stroke: rgb(68, 68, 68); stroke-opacity: 1; fill: rgb(182, 232, 128); fill-opacity: 0.6; stroke-width: 0; opacity: 1;"/><path class="sankey-link" d="M759.9000000000001,155.31511879049697C946.19943,155.31511879049697 946.19943,159.82483801295896 1132.49886,159.82483801295896L1132.49886,162.35183585313175C946.19943,162.35183585313175 946.19943,157.84211663066975 759.9000000000001,157.84211663066975Z" style="stroke: rgb(68, 68, 68); stroke-opacity: 1; fill: rgb(255, 102, 146); fill-opacity: 0.6; stroke-width: 0; opacity: 1;"/><path class="sankey-link" d="M759.9000000000001,418.297840172786C946.19943,418.297840172786 946.19943,423.2449244060477 1132.49886,423.2449244060477L1132.49886,428.29892008639325C946.19943,428.29892008639325 946.19943,423.35183585313155 759.9000000000001,423.35183585313155Z" style="stroke: rgb(68, 68, 68); stroke-opacity: 1; fill: rgb(255, 102, 146); fill-opacity: 0.6; stroke-width: 0; opacity: 1;"/></g><g class="sankey-node-set" style="cursor: ns-resize;"><g class="sankey-node" transform="translate(-7.499,25.389)" style="opacity: 1;"><rect class="node-rect" width="15" height="48.01295896328292" style="stroke-width: 0.5; stroke: rgb(0, 0, 0); stroke-opacity: 1; fill: rgb(128, 128, 128); fill-opacity: 1;"/><text class="node-label" data-notex="1" x="0" y="0" text-anchor="start" transform="translate(18.25,28.20647948164146)" style="cursor: default; font-family: 'Open Sans', verdana, arial, sans-serif; font-size: 12px; fill: rgb(42, 63, 95); fill-opacity: 1; white-space: pre; text-shadow: white 1px 1px 1px, white -1px -1px 1px, white 1px -1px 1px, white -1px 1px 1px;">21271R</text></g><g class="sankey-node" transform="translate(-7.499,143.614)" style="opacity: 1;"><rect class="node-rect" width="15" height="195.84233261339114" style="stroke-width: 0.5; stroke: rgb(0, 0, 0); stroke-opacity: 1; fill: rgb(128, 128, 128); fill-opacity: 1;"/><text class="node-label" data-notex="1" x="0" y="0" text-anchor="start" transform="translate(18.25,102.12116630669557)" style="cursor: default; font-family: 'Open Sans', verdana, arial, sans-serif; font-size: 12px; fill: rgb(42, 63, 95); fill-opacity: 1; white-space: pre; text-shadow: white 1px 1px 1px, white -1px -1px 1px, white 1px -1px 1px, white -1px 1px 1px;">21272R</text></g><g class="sankey-node" transform="translate(-7.499,401.282)" style="opacity: 1;"><rect class="node-rect" width="15" height="11.37149028077738" style="stroke-width: 0.5; stroke: rgb(0, 0, 0); stroke-opacity: 1; fill: rgb(128, 128, 128); fill-opacity: 1;"/><text class="node-label" data-notex="1" x="0" y="0" text-anchor="start" transform="translate(18.25,9.88574514038869)" style="cursor: default; font-family: 'Open Sans', verdana, arial, sans-serif; font-size: 12px; fill: rgb(42, 63, 95); fill-opacity: 1; white-space: pre; text-shadow: white 1px 1px 1px, white -1px -1px 1px, white 1px -1px 1px, white -1px 1px 1px;">21965RL</text></g><g class="sankey-node" transform="translate(-7.499,450.188)" style="opacity: 1;"><rect class="node-rect" width="15" height="89.70842332613381" style="stroke-width: 0.5; stroke: rgb(0, 0, 0); stroke-opacity: 1; fill: rgb(128, 128, 128); fill-opacity: 1;"/><text class="node-label" data-notex="1" x="0" y="0" text-anchor="start" transform="translate(18.25,49.05421166306691)" style="cursor: default; font-family: 'Open Sans', verdana, arial, sans-serif; font-size: 12px; fill: rgb(42, 63, 95); fill-opacity: 1; white-space: pre; text-shadow: white 1px 1px 1px, white -1px -1px 1px, white 1px -1px 1px, white -1px 1px 1px;">22384</text></g><g class="sankey-node" transform="translate(-7.499,595.360)" style="opacity: 1;"><rect class="node-rect" width="15" height="89.70842332613393" style="stroke-width: 0.5; stroke: rgb(0, 0, 0); stroke-opacity: 1; fill: rgb(128, 128, 128); fill-opacity: 1;"/><text class="node-label" data-notex="1" x="0" y="0" text-anchor="start" transform="translate(18.25,49.054211663066965)" style="cursor: default; font-family: 'Open Sans', verdana, arial, sans-serif; font-size: 12px; fill: rgb(42, 63, 95); fill-opacity: 1; white-space: pre; text-shadow: white 1px 1px 1px, white -1px -1px 1px, white 1px -1px 1px, white -1px 1px 1px;">22670</text></g><g class="sankey-node" transform="translate(744.900,20.121)" style="opacity: 1;"><rect class="node-rect" width="15" height="137.72138228941645" style="stroke-width: 0.5; stroke: rgb(0, 0, 0); stroke-opacity: 1; fill: rgb(128, 128, 128); fill-opacity: 1;"/><text class="node-label" data-notex="1" x="0" y="0" text-anchor="start" transform="translate(18.25,73.06069114470823)" style="cursor: default; font-family: 'Open Sans', verdana, arial, sans-serif; font-size: 12px; fill: rgb(42, 63, 95); fill-opacity: 1; white-space: pre; text-shadow: white 1px 1px 1px, white -1px -1px 1px, white 1px -1px 1px, white -1px 1px 1px;">dig</text></g><g class="sankey-node" transform="translate(744.900,179.695)" style="opacity: 1;"><rect class="node-rect" width="15" height="41.695464362851" style="stroke-width: 0.5; stroke: rgb(0, 0, 0); stroke-opacity: 1; fill: rgb(128, 128, 128); fill-opacity: 1;"/><text class="node-label" data-notex="1" x="0" y="0" text-anchor="start" transform="translate(18.25,25.0477321814255)" style="cursor: default; font-family: 'Open Sans', verdana, arial, sans-serif; font-size: 12px; fill: rgb(42, 63, 95); fill-opacity: 1; white-space: pre; text-shadow: white 1px 1px 1px, white -1px -1px 1px, white 1px -1px 1px, white -1px 1px 1px;">groom_front</text></g><g class="sankey-node" transform="translate(744.900,239.097)" style="opacity: 1;"><rect class="node-rect" width="15" height="37.90496760259202" style="stroke-width: 0.5; stroke: rgb(0, 0, 0); stroke-opacity: 1; fill: rgb(128, 128, 128); fill-opacity: 1;"/><text class="node-label" data-notex="1" x="0" y="0" text-anchor="start" transform="translate(18.25,23.15248380129601)" style="cursor: default; font-family: 'Open Sans', verdana, arial, sans-serif; font-size: 12px; fill: rgb(42, 63, 95); fill-opacity: 1; white-space: pre; text-shadow: white 1px 1px 1px, white -1px -1px 1px, white 1px -1px 1px, white -1px 1px 1px;">still</text></g><g class="sankey-node" transform="translate(744.900,302.056)" style="opacity: 1;"><rect class="node-rect" width="15" height="218.5853131749464" style="stroke-width: 0.5; stroke: rgb(0, 0, 0); stroke-opacity: 1; fill: rgb(128, 128, 128); fill-opacity: 1;"/><text class="node-label" data-notex="1" x="0" y="0" text-anchor="start" transform="translate(18.25,113.4926565874732)" style="cursor: default; font-family: 'Open Sans', verdana, arial, sans-serif; font-size: 12px; fill: rgb(42, 63, 95); fill-opacity: 1; white-space: pre; text-shadow: white 1px 1px 1px, white -1px -1px 1px, white 1px -1px 1px, white -1px 1px 1px;">walk</text></g><g class="sankey-node" transform="translate(744.900,550.314)" style="opacity: 1;"><rect class="node-rect" width="15" height="149.092872570194" style="stroke-width: 0.5; stroke: rgb(0, 0, 0); stroke-opacity: 1; fill: rgb(128, 128, 128); fill-opacity: 1;"/><text class="node-label" data-notex="1" x="0" y="0" text-anchor="start" transform="translate(18.25,78.746436285097)" style="cursor: default; font-family: 'Open Sans', verdana, arial, sans-serif; font-size: 12px; fill: rgb(42, 63, 95); fill-opacity: 1; white-space: pre; text-shadow: white 1px 1px 1px, white -1px -1px 1px, white 1px -1px 1px, white -1px 1px 1px;">wallclimb</text></g><g class="sankey-node" transform="translate(1132.499,12.985)" style="opacity: 1;"><rect class="node-rect" width="15" height="70.75593952483794" style="stroke-width: 0.5; stroke: rgb(0, 0, 0); stroke-opacity: 1; fill: rgb(128, 128, 128); fill-opacity: 1;"/><text class="node-label" data-notex="1" x="0" y="0" text-anchor="end" transform="translate(-3.25,39.577969762418974)" style="cursor: default; font-family: 'Open Sans', verdana, arial, sans-serif; font-size: 12px; fill: rgb(42, 63, 95); fill-opacity: 1; white-space: pre; text-shadow: white 1px 1px 1px, white -1px -1px 1px, white 1px -1px 1px, white -1px 1px 1px;">dig-activated</text></g><g class="sankey-node" transform="translate(1132.499,95.386)" style="opacity: 1;"><rect class="node-rect" width="15" height="66.96544276457882" style="stroke-width: 0.5; stroke: rgb(0, 0, 0); stroke-opacity: 1; fill: rgb(128, 128, 128); fill-opacity: 1;"/><text class="node-label" data-notex="1" x="0" y="0" text-anchor="end" transform="translate(-3.25,37.682721382289415)" style="cursor: default; font-family: 'Open Sans', verdana, arial, sans-serif; font-size: 12px; fill: rgb(42, 63, 95); fill-opacity: 1; white-space: pre; text-shadow: white 1px 1px 1px, white -1px -1px 1px, white 1px -1px 1px, white -1px 1px 1px;">dig-suppressed</text></g><g class="sankey-node" transform="translate(1132.499,175.008)" style="opacity: 1;"><rect class="node-rect" width="15" height="20.21598272138226" style="stroke-width: 0.5; stroke: rgb(0, 0, 0); stroke-opacity: 1; fill: rgb(128, 128, 128); fill-opacity: 1;"/><text class="node-label" data-notex="1" x="0" y="0" text-anchor="end" transform="translate(-3.25,14.30799136069113)" style="cursor: default; font-family: 'Open Sans', verdana, arial, sans-serif; font-size: 12px; fill: rgb(42, 63, 95); fill-opacity: 1; white-space: pre; text-shadow: white 1px 1px 1px, white -1px -1px 1px, white 1px -1px 1px, white -1px 1px 1px;">groom_front-activated</text></g><g class="sankey-node" transform="translate(1132.499,208.790)" style="opacity: 1;"><rect class="node-rect" width="15" height="21.479481641468624" style="stroke-width: 0.5; stroke: rgb(0, 0, 0); stroke-opacity: 1; fill: rgb(128, 128, 128); fill-opacity: 1;"/><text class="node-label" data-notex="1" x="0" y="0" text-anchor="end" transform="translate(-3.25,14.939740820734311)" style="cursor: default; font-family: 'Open Sans', verdana, arial, sans-serif; font-size: 12px; fill: rgb(42, 63, 95); fill-opacity: 1; white-space: pre; text-shadow: white 1px 1px 1px, white -1px -1px 1px, white 1px -1px 1px, white -1px 1px 1px;">groom_front-suppressed</text></g><g class="sankey-node" transform="translate(1132.499,243.886)" style="opacity: 1;"><rect class="node-rect" width="15" height="17.688984881209564" style="stroke-width: 0.5; stroke: rgb(0, 0, 0); stroke-opacity: 1; fill: rgb(128, 128, 128); fill-opacity: 1;"/><text class="node-label" data-notex="1" x="0" y="0" text-anchor="end" transform="translate(-3.25,13.044492440604781)" style="cursor: default; font-family: 'Open Sans', verdana, arial, sans-serif; font-size: 12px; fill: rgb(42, 63, 95); fill-opacity: 1; white-space: pre; text-shadow: white 1px 1px 1px, white -1px -1px 1px, white 1px -1px 1px, white -1px 1px 1px;">still-activated</text></g><g class="sankey-node" transform="translate(1132.499,275.217)" style="opacity: 1;"><rect class="node-rect" width="15" height="20.21598272138226" style="stroke-width: 0.5; stroke: rgb(0, 0, 0); stroke-opacity: 1; fill: rgb(128, 128, 128); fill-opacity: 1;"/><text class="node-label" data-notex="1" x="0" y="0" text-anchor="end" transform="translate(-3.25,14.30799136069113)" style="cursor: default; font-family: 'Open Sans', verdana, arial, sans-serif; font-size: 12px; fill: rgb(42, 63, 95); fill-opacity: 1; white-space: pre; text-shadow: white 1px 1px 1px, white -1px -1px 1px, white 1px -1px 1px, white -1px 1px 1px;">still-suppressed</text></g><g class="sankey-node" transform="translate(1132.499,307.003)" style="opacity: 1;"><rect class="node-rect" width="15" height="121.29589632829357" style="stroke-width: 0.5; stroke: rgb(0, 0, 0); stroke-opacity: 1; fill: rgb(128, 128, 128); fill-opacity: 1;"/><text class="node-label" data-notex="1" x="0" y="0" text-anchor="end" transform="translate(-3.25,64.84794816414679)" style="cursor: default; font-family: 'Open Sans', verdana, arial, sans-serif; font-size: 12px; fill: rgb(42, 63, 95); fill-opacity: 1; white-space: pre; text-shadow: white 1px 1px 1px, white -1px -1px 1px, white 1px -1px 1px, white -1px 1px 1px;">walk-activated</text></g><g class="sankey-node" transform="translate(1132.499,438.327)" style="opacity: 1;"><rect class="node-rect" width="15" height="97.28941684665222" style="stroke-width: 0.5; stroke: rgb(0, 0, 0); stroke-opacity: 1; fill: rgb(128, 128, 128); fill-opacity: 1;"/><text class="node-label" data-notex="1" x="0" y="0" text-anchor="end" transform="translate(-3.25,52.84470842332611)" style="cursor: default; font-family: 'Open Sans', verdana, arial, sans-serif; font-size: 12px; fill: rgb(42, 63, 95); fill-opacity: 1; white-space: pre; text-shadow: white 1px 1px 1px, white -1px -1px 1px, white 1px -1px 1px, white -1px 1px 1px;">walk-suppressed</text></g><g class="sankey-node" transform="translate(1132.499,546.504)" style="opacity: 1;"><rect class="node-rect" width="15" height="78.33693304535632" style="stroke-width: 0.5; stroke: rgb(0, 0, 0); stroke-opacity: 1; fill: rgb(128, 128, 128); fill-opacity: 1;"/><text class="node-label" data-notex="1" x="0" y="0" text-anchor="end" transform="translate(-3.25,43.36846652267816)" style="cursor: default; font-family: 'Open Sans', verdana, arial, sans-serif; font-size: 12px; fill: rgb(42, 63, 95); fill-opacity: 1; white-space: pre; text-shadow: white 1px 1px 1px, white -1px -1px 1px, white 1px -1px 1px, white -1px 1px 1px;">wallclimb-activated</text></g><g class="sankey-node" transform="translate(1132.499,636.259)" style="opacity: 1;"><rect class="node-rect" width="15" height="70.75593952483791" style="stroke-width: 0.5; stroke: rgb(0, 0, 0); stroke-opacity: 1; fill: rgb(128, 128, 128); fill-opacity: 1;"/><text class="node-label" data-notex="1" x="0" y="0" text-anchor="end" transform="translate(-3.25,39.57796976241896)" style="cursor: default; font-family: 'Open Sans', verdana, arial, sans-serif; font-size: 12px; fill: rgb(42, 63, 95); fill-opacity: 1; white-space: pre; text-shadow: white 1px 1px 1px, white -1px -1px 1px, white 1px -1px 1px, white -1px 1px 1px;">wallclimb-suppressed</text></g><g class="sankey-node" transform="translate(368.700,13.819)" style="opacity: 1;"><rect class="node-rect" width="15" height="29.060475161986915" style="stroke-width: 0.5; stroke: rgb(0, 0, 0); stroke-opacity: 1; fill: rgb(25, 211, 243); fill-opacity: 1;"/><text class="node-label" data-notex="1" x="0" y="0" text-anchor="start" transform="translate(18.25,18.730237580993457)" style="cursor: default; font-family: 'Open Sans', verdana, arial, sans-serif; font-size: 12px; fill: rgb(42, 63, 95); fill-opacity: 1; white-space: pre; text-shadow: white 1px 1px 1px, white -1px -1px 1px, white 1px -1px 1px, white -1px 1px 1px;">BLA</text></g><g class="sankey-node" transform="translate(368.700,55.030)" style="opacity: 1;"><rect class="node-rect" width="15" height="83.39092872570166" style="stroke-width: 0.5; stroke: rgb(0, 0, 0); stroke-opacity: 1; fill: rgb(0, 204, 150); fill-opacity: 1;"/><text class="node-label" data-notex="1" x="0" y="0" text-anchor="start" transform="translate(18.25,45.89546436285083)" style="cursor: default; font-family: 'Open Sans', verdana, arial, sans-serif; font-size: 12px; fill: rgb(42, 63, 95); fill-opacity: 1; white-space: pre; text-shadow: white 1px 1px 1px, white -1px -1px 1px, white 1px -1px 1px, white -1px 1px 1px;">Cla</text></g><g class="sankey-node" transform="translate(368.700,149.435)" style="opacity: 1;"><rect class="node-rect" width="15" height="85.91792656587438" style="stroke-width: 0.5; stroke: rgb(0, 0, 0); stroke-opacity: 1; fill: rgb(239, 85, 59); fill-opacity: 1;"/><text class="node-label" data-notex="1" x="0" y="0" text-anchor="start" transform="translate(18.25,47.158963282937194)" style="cursor: default; font-family: 'Open Sans', verdana, arial, sans-serif; font-size: 12px; fill: rgb(42, 63, 95); fill-opacity: 1; white-space: pre; text-shadow: white 1px 1px 1px, white -1px -1px 1px, white 1px -1px 1px, white -1px 1px 1px;">LC</text></g><g class="sankey-node" transform="translate(368.700,247.327)" style="opacity: 1;"><rect class="node-rect" width="15" height="35.3779697624193" style="stroke-width: 0.5; stroke: rgb(0, 0, 0); stroke-opacity: 1; fill: rgb(254, 203, 82); fill-opacity: 1;"/><text class="node-label" data-notex="1" x="0" y="0" text-anchor="start" transform="translate(18.25,21.888984881209648)" style="cursor: default; font-family: 'Open Sans', verdana, arial, sans-serif; font-size: 12px; fill: rgb(42, 63, 95); fill-opacity: 1; white-space: pre; text-shadow: white 1px 1px 1px, white -1px -1px 1px, white 1px -1px 1px, white -1px 1px 1px;">LHyp</text></g><g class="sankey-node" transform="translate(368.700,295.614)" style="opacity: 1;"><rect class="node-rect" width="15" height="39.16846652267827" style="stroke-width: 0.5; stroke: rgb(0, 0, 0); stroke-opacity: 1; fill: rgb(255, 161, 90); fill-opacity: 1;"/><text class="node-label" data-notex="1" x="0" y="0" text-anchor="start" transform="translate(18.25,23.784233261339136)" style="cursor: default; font-family: 'Open Sans', verdana, arial, sans-serif; font-size: 12px; fill: rgb(42, 63, 95); fill-opacity: 1; white-space: pre; text-shadow: white 1px 1px 1px, white -1px -1px 1px, white 1px -1px 1px, white -1px 1px 1px;">NAc</text></g><g class="sankey-node" transform="translate(368.700,346.378)" style="opacity: 1;"><rect class="node-rect" width="15" height="101.07991360691119" style="stroke-width: 0.5; stroke: rgb(0, 0, 0); stroke-opacity: 1; fill: rgb(171, 99, 250); fill-opacity: 1;"/><text class="node-label" data-notex="1" x="0" y="0" text-anchor="start" transform="translate(18.25,54.7399568034556)" style="cursor: default; font-family: 'Open Sans', verdana, arial, sans-serif; font-size: 12px; fill: rgb(42, 63, 95); fill-opacity: 1; white-space: pre; text-shadow: white 1px 1px 1px, white -1px -1px 1px, white 1px -1px 1px, white -1px 1px 1px;">Str</text></g><g class="sankey-node" transform="translate(368.700,457.132)" style="opacity: 1;"><rect class="node-rect" width="15" height="135.19438444924418" style="stroke-width: 0.5; stroke: rgb(0, 0, 0); stroke-opacity: 1; fill: rgb(99, 110, 250); fill-opacity: 1;"/><text class="node-label" data-notex="1" x="0" y="0" text-anchor="start" transform="translate(18.25,71.7971922246221)" style="cursor: default; font-family: 'Open Sans', verdana, arial, sans-serif; font-size: 12px; fill: rgb(42, 63, 95); fill-opacity: 1; white-space: pre; text-shadow: white 1px 1px 1px, white -1px -1px 1px, white 1px -1px 1px, white -1px 1px 1px;">VTA</text></g><g class="sankey-node" transform="translate(368.700,603.163)" style="opacity: 1;"><rect class="node-rect" width="15" height="42.958963282937475" style="stroke-width: 0.5; stroke: rgb(0, 0, 0); stroke-opacity: 1; fill: rgb(255, 151, 255); fill-opacity: 1;"/><text class="node-label" data-notex="1" x="0" y="0" text-anchor="start" transform="translate(18.25,25.679481641468737)" style="cursor: default; font-family: 'Open Sans', verdana, arial, sans-serif; font-size: 12px; fill: rgb(42, 63, 95); fill-opacity: 1; white-space: pre; text-shadow: white 1px 1px 1px, white -1px -1px 1px, white 1px -1px 1px, white -1px 1px 1px;">cPFC</text></g><g class="sankey-node" transform="translate(368.700,659.158)" style="opacity: 1;"><rect class="node-rect" width="15" height="25.26997840172794" style="stroke-width: 0.5; stroke: rgb(0, 0, 0); stroke-opacity: 1; fill: rgb(182, 232, 128); fill-opacity: 1;"/><text class="node-label" data-notex="1" x="0" y="0" text-anchor="start" transform="translate(18.25,16.83498920086397)" style="cursor: default; font-family: 'Open Sans', verdana, arial, sans-serif; font-size: 12px; fill: rgb(42, 63, 95); fill-opacity: 1; white-space: pre; text-shadow: white 1px 1px 1px, white -1px -1px 1px, white 1px -1px 1px, white -1px 1px 1px;">dPAG</text></g><g class="sankey-node" transform="translate(368.700,698.171)" style="opacity: 1;"><rect class="node-rect" width="15" height="7.580993520518405" style="stroke-width: 0.5; stroke: rgb(0, 0, 0); stroke-opacity: 1; fill: rgb(255, 102, 146); fill-opacity: 1;"/><text class="node-label" data-notex="1" x="0" y="0" text-anchor="start" transform="translate(18.25,7.990496760259202)" style="cursor: default; font-family: 'Open Sans', verdana, arial, sans-serif; font-size: 12px; fill: rgb(42, 63, 95); fill-opacity: 1; white-space: pre; text-shadow: white 1px 1px 1px, white -1px -1px 1px, white 1px -1px 1px, white -1px 1px 1px;">lHb</text></g></g></g><defs id="topdefs-8b6ee1"><g class="clips"/></defs><g class="layer-above"><g class="imagelayer"/><g class="shapelayer"/></g><g class="infolayer"><g class="g-gtitle"/><g class="first-render"/></g></svg>