<svg class="main-svg" xmlns="http://www.w3.org/2000/svg" xmlns:xlink="http://www.w3.org/1999/xlink" width="1300" height="900" viewBox="0 0 1300 900" style=""><rect x="0" y="0" width="1300" height="900" style="fill: rgb(255, 255, 255); fill-opacity: 1;"/><defs id="defs-d61b0c"><g class="clips"/><g class="gradients"/><g class="patterns"/></defs><g class="bglayer"/><g class="layer-below"><g class="imagelayer"/><g class="shapelayer"/></g><g class="cartesianlayer"/><g class="polarlayer"/><g class="smithlayer"/><g class="ternarylayer"/><g class="geolayer"/><g class="funnelarealayer"/><g class="pielayer"/><g class="iciclelayer"/><g class="treemaplayer"/><g class="sunburstlayer"/><g class="glimages"/><g class="sankey" transform="translate(80,100)matrix(1 0 0 1 0 0)" style="box-sizing: content-box; position: absolute; left: 0px; shape-rendering: geometricprecision; pointer-events: none;"><g class="sankey-links" style="fill: none;"><path class="sankey-link" d="M7.50114,17.08430232558141C188.10057000000003,17.08430232558141 188.10057000000003,13.821802325581285 368.70000000000005,13.821802325581285L368.70000000000005,15.522383720930122C188.10057000000003,15.522383720930122 188.10057000000003,18.784883720930246 7.50114,18.784883720930246Z" style="stroke: rgb(68, 68, 68); stroke-opacity: 1; fill: rgb(25, 211, 243); fill-opacity: 0.6; stroke-width: 0; opacity: 1;"/><path class="sankey-link" d="M7.50114,18.78488372093025C188.10057000000003,18.78488372093025 188.10057000000003,54.784883720930324 368.70000000000005,54.784883720930324L368.70000000000005,75.19186046511636C188.10057000000003,75.19186046511636 188.10057000000003,39.19186046511629 7.50114,39.19186046511629Z" style="stroke: rgb(68, 68, 68); stroke-opacity: 1; fill: rgb(0, 204, 150); fill-opacity: 0.6; stroke-width: 0; opacity: 1;"/><path class="sankey-link" d="M7.50114,39.19186046511629C188.10057000000003,39.19186046511629 188.10057000000003,154.45203488372073 368.70000000000005,154.45203488372073L368.70000000000005,162.95494186046488C188.10057000000003,162.95494186046488 188.10057000000003,47.69476744186048 7.50114,47.69476744186048Z" style="stroke: rgb(68, 68, 68); stroke-opacity: 1; fill: rgb(239, 85, 59); fill-opacity: 0.6; stroke-width: 0; opacity: 1;"/><path class="sankey-link" d="M7.50114,47.69476744186048C188.10057000000003,47.69476744186048 188.10057000000003,277.0220930232557 368.70000000000005,277.0220930232557L368.70000000000005,287.22558139534874C188.10057000000003,287.22558139534874 188.10057000000003,57.8982558139535 7.50114,57.8982558139535Z" style="stroke: rgb(68, 68, 68); stroke-opacity: 1; fill: rgb(255, 161, 90); fill-opacity: 0.6; stroke-width: 0; opacity: 1;"/><path class="sankey-link" d="M7.50114,57.8982558139535C188.10057000000003,57.8982558139535 188.10057000000003,322.5427325581395 368.70000000000005,322.5427325581395L368.70000000000005,339.5485465116278C188.10057000000003,339.5485465116278 188.10057000000003,74.90406976744187 7.50114,74.90406976744187Z" style="stroke: rgb(68, 68, 68); stroke-opacity: 1; fill: rgb(171, 99, 250); fill-opacity: 0.6; stroke-width: 0; opacity: 1;"/><path class="sankey-link" d="M7.50114,74.90406976744187C188.10057000000003,74.90406976744187 188.10057000000003,442.5148255813954 368.70000000000005,442.5148255813954L368.70000000000005,445.91598837209307C188.10057000000003,445.91598837209307 188.10057000000003,78.30523255813954 7.50114,78.30523255813954Z" style="stroke: rgb(68, 68, 68); stroke-opacity: 1; fill: rgb(99, 110, 250); fill-opacity: 0.6; stroke-width: 0; opacity: 1;"/><path class="sankey-link" d="M7.50114,78.30523255813954C188.10057000000003,78.30523255813954 188.10057000000003,697.2671511627907 368.70000000000005,697.2671511627907L368.70000000000005,700.6683139534885C188.10057000000003,700.6683139534885 188.10057000000003,81.7063953488372 7.50114,81.7063953488372Z" style="stroke: rgb(68, 68, 68); stroke-opacity: 1; fill: rgb(255, 102, 146); fill-opacity: 0.6; stroke-width: 0; opacity: 1;"/><path class="sankey-link" d="M7.50114,109.73982558139531C188.10057000000003,109.73982558139531 188.10057000000003,15.522383720930122 368.70000000000005,15.522383720930122L368.70000000000005,41.03110465116268C188.10057000000003,41.03110465116268 188.10057000000003,135.24854651162786 7.50114,135.24854651162786Z" style="stroke: rgb(68, 68, 68); stroke-opacity: 1; fill: rgb(25, 211, 243); fill-opacity: 0.6; stroke-width: 0; opacity: 1;"/><path class="sankey-link" d="M7.50114,135.24854651162786C188.10057000000003,135.24854651162786 188.10057000000003,75.19186046511638 368.70000000000005,75.19186046511638L368.70000000000005,117.7063953488373C188.10057000000003,117.7063953488373 188.10057000000003,177.76308139534876 7.50114,177.76308139534876Z" style="stroke: rgb(68, 68, 68); stroke-opacity: 1; fill: rgb(0, 204, 150); fill-opacity: 0.6; stroke-width: 0; opacity: 1;"/><path class="sankey-link" d="M7.50114,177.7630813953488C188.10057000000003,177.7630813953488 188.10057000000003,162.9549418604649 368.70000000000005,162.9549418604649L368.70000000000005,207.1700581395347C188.10057000000003,207.1700581395347 188.10057000000003,221.97819767441857 7.50114,221.97819767441857Z" style="stroke: rgb(68, 68, 68); stroke-opacity: 1; fill: rgb(239, 85, 59); fill-opacity: 0.6; stroke-width: 0; opacity: 1;"/><path class="sankey-link" d="M7.50114,221.97819767441857C188.10057000000003,221.97819767441857 188.10057000000003,287.22558139534874 368.70000000000005,287.22558139534874L368.70000000000005,309.33313953488357C188.10057000000003,309.33313953488357 188.10057000000003,244.08575581395345 7.50114,244.08575581395345Z" style="stroke: rgb(68, 68, 68); stroke-opacity: 1; fill: rgb(255, 161, 90); fill-opacity: 0.6; stroke-width: 0; opacity: 1;"/><path class="sankey-link" d="M7.50114,244.08575581395345C188.10057000000003,244.08575581395345 188.10057000000003,339.5485465116278 368.70000000000005,339.5485465116278L368.70000000000005,400.7694767441859C188.10057000000003,400.7694767441859 188.10057000000003,305.3066860465116 7.50114,305.3066860465116Z" style="stroke: rgb(68, 68, 68); stroke-opacity: 1; fill: rgb(171, 99, 250); fill-opacity: 0.6; stroke-width: 0; opacity: 1;"/><path class="sankey-link" d="M7.50114,305.3066860465116C188.10057000000003,305.3066860465116 188.10057000000003,445.9159883720931 368.70000000000005,445.9159883720931L368.70000000000005,461.2212209302327C188.10057000000003,461.2212209302327 188.10057000000003,320.6119186046511 7.50114,320.6119186046511Z" style="stroke: rgb(68, 68, 68); stroke-opacity: 1; fill: rgb(99, 110, 250); fill-opacity: 0.6; stroke-width: 0; opacity: 1;"/><path class="sankey-link" d="M7.50114,320.6119186046511C188.10057000000003,320.6119186046511 188.10057000000003,590.7845930232559 368.70000000000005,590.7845930232559L368.70000000000005,619.6944767441862C188.10057000000003,619.6944767441862 188.10057000000003,349.52180232558135 7.50114,349.52180232558135Z" style="stroke: rgb(68, 68, 68); stroke-opacity: 1; fill: rgb(255, 151, 255); fill-opacity: 0.6; stroke-width: 0; opacity: 1;"/><path class="sankey-link" d="M7.50114,349.52180232558135C188.10057000000003,349.52180232558135 188.10057000000003,659.7052325581393 368.70000000000005,659.7052325581393L368.70000000000005,678.4116279069766C188.10057000000003,678.4116279069766 188.10057000000003,368.22819767441854 7.50114,368.22819767441854Z" style="stroke: rgb(68, 68, 68); stroke-opacity: 1; fill: rgb(182, 232, 128); fill-opacity: 0.6; stroke-width: 0; opacity: 1;"/><path class="sankey-link" d="M7.50114,368.22819767441854C188.10057000000003,368.22819767441854 188.10057000000003,700.6683139534883 368.70000000000005,700.6683139534883L368.70000000000005,705.7700581395349C188.10057000000003,705.7700581395349 188.10057000000003,373.32994186046506 7.50114,373.32994186046506Z" style="stroke: rgb(68, 68, 68); stroke-opacity: 1; fill: rgb(255, 102, 146); fill-opacity: 0.6; stroke-width: 0; opacity: 1;"/><path class="sankey-link" d="M7.50114,399.31482558139544C188.10057000000003,399.31482558139544 188.10057000000003,41.03110465116268 368.70000000000005,41.03110465116268L368.70000000000005,42.73168604651151C188.10057000000003,42.73168604651151 188.10057000000003,401.0154069767443 7.50114,401.0154069767443Z" style="stroke: rgb(68, 68, 68); stroke-opacity: 1; fill: rgb(25, 211, 243); fill-opacity: 0.6; stroke-width: 0; opacity: 1;"/><path class="sankey-link" d="M7.50114,401.01540697674426C188.10057000000003,401.01540697674426 188.10057000000003,117.7063953488373 368.70000000000005,117.7063953488373L368.70000000000005,122.80813953488382C188.10057000000003,122.80813953488382 188.10057000000003,406.1171511627908 7.50114,406.1171511627908Z" style="stroke: rgb(68, 68, 68); stroke-opacity: 1; fill: rgb(0, 204, 150); fill-opacity: 0.6; stroke-width: 0; opacity: 1;"/><path class="sankey-link" d="M7.50114,406.1171511627908C188.10057000000003,406.1171511627908 188.10057000000003,309.3331395348836 368.70000000000005,309.3331395348836L368.70000000000005,311.0337209302325C188.10057000000003,311.0337209302325 188.10057000000003,407.81773255813965 7.50114,407.81773255813965Z" style="stroke: rgb(68, 68, 68); stroke-opacity: 1; fill: rgb(255, 161, 90); fill-opacity: 0.6; stroke-width: 0; opacity: 1;"/><path class="sankey-link" d="M7.50114,407.8177325581396C188.10057000000003,407.8177325581396 188.10057000000003,400.76947674418597 368.70000000000005,400.76947674418597L368.70000000000005,402.47005813953484C188.10057000000003,402.47005813953484 188.10057000000003,409.5183139534885 7.50114,409.5183139534885Z" style="stroke: rgb(68, 68, 68); stroke-opacity: 1; fill: rgb(171, 99, 250); fill-opacity: 0.6; stroke-width: 0; opacity: 1;"/><path class="sankey-link" d="M7.50114,409.5183139534884C188.10057000000003,409.5183139534884 188.10057000000003,619.6944767441861 368.70000000000005,619.6944767441861L368.70000000000005,623.0956395348838C188.10057000000003,623.0956395348838 188.10057000000003,412.91947674418606 7.50114,412.91947674418606Z" style="stroke: rgb(68, 68, 68); stroke-opacity: 1; fill: rgb(255, 151, 255); fill-opacity: 0.6; stroke-width: 0; opacity: 1;"/><path class="sankey-link" d="M7.50114,412.9194767441861C188.10057000000003,412.9194767441861 188.10057000000003,678.4116279069765 368.70000000000005,678.4116279069765L368.70000000000005,680.1122093023253C188.10057000000003,680.1122093023253 188.10057000000003,414.620058139535 7.50114,414.620058139535Z" style="stroke: rgb(68, 68, 68); stroke-opacity: 1; fill: rgb(182, 232, 128); fill-opacity: 0.6; stroke-width: 0; opacity: 1;"/><path class="sankey-link" d="M7.50114,434.6712209302327C188.10057000000003,434.6712209302327 188.10057000000003,122.80813953488382 368.70000000000005,122.80813953488382L368.70000000000005,133.01162790697686C188.10057000000003,133.01162790697686 188.10057000000003,444.87470930232575 7.50114,444.87470930232575Z" style="stroke: rgb(68, 68, 68); stroke-opacity: 1; fill: rgb(0, 204, 150); fill-opacity: 0.6; stroke-width: 0; opacity: 1;"/><path class="sankey-link" d="M7.50114,444.87470930232575C188.10057000000003,444.87470930232575 188.10057000000003,207.17005813953472 368.70000000000005,207.17005813953472L368.70000000000005,215.67296511627887C188.10057000000003,215.67296511627887 188.10057000000003,453.3776162790699 7.50114,453.3776162790699Z" style="stroke: rgb(68, 68, 68); stroke-opacity: 1; fill: rgb(239, 85, 59); fill-opacity: 0.6; stroke-width: 0; opacity: 1;"/><path class="sankey-link" d="M7.50114,453.3776162790699C188.10057000000003,453.3776162790699 188.10057000000003,236.6372093023254 368.70000000000005,236.6372093023254L368.70000000000005,250.24186046511608C188.10057000000003,250.24186046511608 188.10057000000003,466.9822674418606 7.50114,466.9822674418606Z" style="stroke: rgb(68, 68, 68); stroke-opacity: 1; fill: rgb(254, 203, 82); fill-opacity: 0.6; stroke-width: 0; opacity: 1;"/><path class="sankey-link" d="M7.50114,466.9822674418606C188.10057000000003,466.9822674418606 188.10057000000003,402.4700581395348 368.70000000000005,402.4700581395348L368.70000000000005,417.77529069767434C188.10057000000003,417.77529069767434 188.10057000000003,482.28750000000014 7.50114,482.28750000000014Z" style="stroke: rgb(68, 68, 68); stroke-opacity: 1; fill: rgb(171, 99, 250); fill-opacity: 0.6; stroke-width: 0; opacity: 1;"/><path class="sankey-link" d="M7.50114,482.2875000000001C188.10057000000003,482.2875000000001 188.10057000000003,461.2212209302327 368.70000000000005,461.2212209302327L368.70000000000005,520.741569767442C188.10057000000003,520.741569767442 188.10057000000003,541.8078488372093 7.50114,541.8078488372093Z" style="stroke: rgb(68, 68, 68); stroke-opacity: 1; fill: rgb(99, 110, 250); fill-opacity: 0.6; stroke-width: 0; opacity: 1;"/><path class="sankey-link" d="M7.50114,541.8078488372095C188.10057000000003,541.8078488372095 188.10057000000003,623.0956395348837 368.70000000000005,623.0956395348837L368.70000000000005,634.9997093023255C188.10057000000003,634.9997093023255 188.10057000000003,553.7119186046513 7.50114,553.7119186046513Z" style="stroke: rgb(68, 68, 68); stroke-opacity: 1; fill: rgb(255, 151, 255); fill-opacity: 0.6; stroke-width: 0; opacity: 1;"/><path class="sankey-link" d="M7.50114,553.7119186046514C188.10057000000003,553.7119186046514 188.10057000000003,680.1122093023254 368.70000000000005,680.1122093023254L368.70000000000005,681.8127906976741C188.10057000000003,681.8127906976741 188.10057000000003,555.4125000000001 7.50114,555.4125000000001Z" style="stroke: rgb(68, 68, 68); stroke-opacity: 1; fill: rgb(182, 232, 128); fill-opacity: 0.6; stroke-width: 0; opacity: 1;"/><path class="sankey-link" d="M7.50114,579.8433139534883C188.10057000000003,579.8433139534883 188.10057000000003,133.01162790697686 368.70000000000005,133.01162790697686L368.70000000000005,143.2151162790699C188.10057000000003,143.2151162790699 188.10057000000003,590.0468023255813 7.50114,590.0468023255813Z" style="stroke: rgb(68, 68, 68); stroke-opacity: 1; fill: rgb(0, 204, 150); fill-opacity: 0.6; stroke-width: 0; opacity: 1;"/><path class="sankey-link" d="M7.50114,590.0468023255813C188.10057000000003,590.0468023255813 188.10057000000003,215.67296511627887 368.70000000000005,215.67296511627887L368.70000000000005,224.17587209302303C188.10057000000003,224.17587209302303 188.10057000000003,598.5497093023256 7.50114,598.5497093023256Z" style="stroke: rgb(68, 68, 68); stroke-opacity: 1; fill: rgb(239, 85, 59); fill-opacity: 0.6; stroke-width: 0; opacity: 1;"/><path class="sankey-link" d="M7.50114,598.5497093023255C188.10057000000003,598.5497093023255 188.10057000000003,250.24186046511613 368.70000000000005,250.24186046511613L368.70000000000005,263.8465116279068C188.10057000000003,263.8465116279068 188.10057000000003,612.1543604651163 7.50114,612.1543604651163Z" style="stroke: rgb(68, 68, 68); stroke-opacity: 1; fill: rgb(254, 203, 82); fill-opacity: 0.6; stroke-width: 0; opacity: 1;"/><path class="sankey-link" d="M7.50114,612.1543604651162C188.10057000000003,612.1543604651162 188.10057000000003,417.77529069767434 368.70000000000005,417.77529069767434L368.70000000000005,433.0805232558139C188.10057000000003,433.0805232558139 188.10057000000003,627.4595930232557 7.50114,627.4595930232557Z" style="stroke: rgb(68, 68, 68); stroke-opacity: 1; fill: rgb(171, 99, 250); fill-opacity: 0.6; stroke-width: 0; opacity: 1;"/><path class="sankey-link" d="M7.50114,627.4595930232557C188.10057000000003,627.4595930232557 188.10057000000003,520.741569767442 368.70000000000005,520.741569767442L368.70000000000005,580.2619186046512C188.10057000000003,580.2619186046512 188.10057000000003,686.9799418604649 7.50114,686.9799418604649Z" style="stroke: rgb(68, 68, 68); stroke-opacity: 1; fill: rgb(99, 110, 250); fill-opacity: 0.6; stroke-width: 0; opacity: 1;"/><path class="sankey-link" d="M7.50114,686.979941860465C188.10057000000003,686.979941860465 188.10057000000003,634.9997093023256 368.70000000000005,634.9997093023256L368.70000000000005,646.9037790697674C188.10057000000003,646.9037790697674 188.10057000000003,698.8840116279068 7.50114,698.8840116279068Z" style="stroke: rgb(68, 68, 68); stroke-opacity: 1; fill: rgb(255, 151, 255); fill-opacity: 0.6; stroke-width: 0; opacity: 1;"/><path class="sankey-link" d="M7.50114,698.884011627907C188.10057000000003,698.884011627907 188.10057000000003,681.8127906976742 368.70000000000005,681.8127906976742L368.70000000000005,683.513372093023C188.10057000000003,683.513372093023 188.10057000000003,700.5845930232557 7.50114,700.5845930232557Z" style="stroke: rgb(68, 68, 68); stroke-opacity: 1; fill: rgb(182, 232, 128); fill-opacity: 0.6; stroke-width: 0; opacity: 1;"/><path class="sankey-link" d="M383.70000000000005,13.821802325581286C564.3000000000001,13.821802325581286 564.3000000000001,180.5945295983088 744.9000000000001,180.5945295983088L744.9000000000001,190.79801797040184C564.3000000000001,190.79801797040184 564.3000000000001,24.025290697674308 383.70000000000005,24.025290697674308Z" style="stroke: rgb(68, 68, 68); stroke-opacity: 1; fill: rgb(25, 211, 243); fill-opacity: 0.6; stroke-width: 0; opacity: 1;"/><path class="sankey-link" d="M383.70000000000005,54.784883720930324C564.3000000000001,54.784883720930324 564.3000000000001,190.79801797040184 744.9000000000001,190.79801797040184L744.9000000000001,211.2049947145879C564.3000000000001,211.2049947145879 564.3000000000001,75.19186046511636 383.70000000000005,75.19186046511636Z" style="stroke: rgb(68, 68, 68); stroke-opacity: 1; fill: rgb(0, 204, 150); fill-opacity: 0.6; stroke-width: 0; opacity: 1;"/><path class="sankey-link" d="M383.70000000000005,75.19186046511638C564.3000000000001,75.19186046511638 564.3000000000001,586.1125528541227 744.9000000000001,586.1125528541227L744.9000000000001,589.5137156448204C564.3000000000001,589.5137156448204 564.3000000000001,78.59302325581405 383.70000000000005,78.59302325581405Z" style="stroke: rgb(68, 68, 68); stroke-opacity: 1; fill: rgb(0, 204, 150); fill-opacity: 0.6; stroke-width: 0; opacity: 1;"/><path class="sankey-link" d="M383.70000000000005,154.45203488372073C564.3000000000001,154.45203488372073 564.3000000000001,211.20499471458788 744.9000000000001,211.20499471458788L744.9000000000001,231.61197145877395C564.3000000000001,231.61197145877395 564.3000000000001,174.8590116279068 383.70000000000005,174.8590116279068Z" style="stroke: rgb(68, 68, 68); stroke-opacity: 1; fill: rgb(239, 85, 59); fill-opacity: 0.6; stroke-width: 0; opacity: 1;"/><path class="sankey-link" d="M383.70000000000005,174.85901162790677C564.3000000000001,174.85901162790677 564.3000000000001,589.5137156448203 744.9000000000001,589.5137156448203L744.9000000000001,592.9148784355181C564.3000000000001,592.9148784355181 564.3000000000001,178.26017441860446 383.70000000000005,178.26017441860446Z" style="stroke: rgb(68, 68, 68); stroke-opacity: 1; fill: rgb(239, 85, 59); fill-opacity: 0.6; stroke-width: 0; opacity: 1;"/><path class="sankey-link" d="M383.70000000000005,236.6372093023254C564.3000000000001,236.6372093023254 564.3000000000001,231.61197145877392 744.9000000000001,231.61197145877392L744.9000000000001,238.41429704016926C564.3000000000001,238.41429704016926 564.3000000000001,243.43953488372074 383.70000000000005,243.43953488372074Z" style="stroke: rgb(68, 68, 68); stroke-opacity: 1; fill: rgb(254, 203, 82); fill-opacity: 0.6; stroke-width: 0; opacity: 1;"/><path class="sankey-link" d="M383.70000000000005,243.43953488372074C564.3000000000001,243.43953488372074 564.3000000000001,592.914878435518 744.9000000000001,592.914878435518L744.9000000000001,599.7172040169132C564.3000000000001,599.7172040169132 564.3000000000001,250.24186046511608 383.70000000000005,250.24186046511608Z" style="stroke: rgb(68, 68, 68); stroke-opacity: 1; fill: rgb(254, 203, 82); fill-opacity: 0.6; stroke-width: 0; opacity: 1;"/><path class="sankey-link" d="M383.70000000000005,277.0220930232557C564.3000000000001,277.0220930232557 564.3000000000001,238.41429704016926 744.9000000000001,238.41429704016926L744.9000000000001,248.6177854122623C564.3000000000001,248.6177854122623 564.3000000000001,287.22558139534874 383.70000000000005,287.22558139534874Z" style="stroke: rgb(68, 68, 68); stroke-opacity: 1; fill: rgb(255, 161, 90); fill-opacity: 0.6; stroke-width: 0; opacity: 1;"/><path class="sankey-link" d="M383.70000000000005,287.22558139534874C564.3000000000001,287.22558139534874 564.3000000000001,599.7172040169133 744.9000000000001,599.7172040169133L744.9000000000001,601.4177854122621C564.3000000000001,601.4177854122621 564.3000000000001,288.9261627906976 383.70000000000005,288.9261627906976Z" style="stroke: rgb(68, 68, 68); stroke-opacity: 1; fill: rgb(255, 161, 90); fill-opacity: 0.6; stroke-width: 0; opacity: 1;"/><path class="sankey-link" d="M383.70000000000005,322.54273255813945C564.3000000000001,322.54273255813945 564.3000000000001,248.6177854122623 744.9000000000001,248.6177854122623L744.9000000000001,284.3299947145879C564.3000000000001,284.3299947145879 564.3000000000001,358.25494186046507 383.70000000000005,358.25494186046507Z" style="stroke: rgb(68, 68, 68); stroke-opacity: 1; fill: rgb(171, 99, 250); fill-opacity: 0.6; stroke-width: 0; opacity: 1;"/><path class="sankey-link" d="M383.70000000000005,358.254941860465C564.3000000000001,358.254941860465 564.3000000000001,601.4177854122622 744.9000000000001,601.4177854122622L744.9000000000001,608.2201109936575C564.3000000000001,608.2201109936575 564.3000000000001,365.0572674418604 383.70000000000005,365.0572674418604Z" style="stroke: rgb(68, 68, 68); stroke-opacity: 1; fill: rgb(171, 99, 250); fill-opacity: 0.6; stroke-width: 0; opacity: 1;"/><path class="sankey-link" d="M383.70000000000005,442.5148255813954C564.3000000000001,442.5148255813954 564.3000000000001,284.3299947145879 744.9000000000001,284.3299947145879L744.9000000000001,321.74278541226226C564.3000000000001,321.74278541226226 564.3000000000001,479.9276162790698 383.70000000000005,479.9276162790698Z" style="stroke: rgb(68, 68, 68); stroke-opacity: 1; fill: rgb(99, 110, 250); fill-opacity: 0.6; stroke-width: 0; opacity: 1;"/><path class="sankey-link" d="M383.70000000000005,479.92761627906987C564.3000000000001,479.92761627906987 564.3000000000001,608.2201109936576 744.9000000000001,608.2201109936576L744.9000000000001,633.7288319238902C564.3000000000001,633.7288319238902 564.3000000000001,505.43633720930245 383.70000000000005,505.43633720930245Z" style="stroke: rgb(68, 68, 68); stroke-opacity: 1; fill: rgb(99, 110, 250); fill-opacity: 0.6; stroke-width: 0; opacity: 1;"/><path class="sankey-link" d="M383.70000000000005,590.7845930232559C564.3000000000001,590.7845930232559 564.3000000000001,321.7427854122623 744.9000000000001,321.7427854122623L744.9000000000001,335.347436575053C564.3000000000001,335.347436575053 564.3000000000001,604.3892441860467 383.70000000000005,604.3892441860467Z" style="stroke: rgb(68, 68, 68); stroke-opacity: 1; fill: rgb(255, 151, 255); fill-opacity: 0.6; stroke-width: 0; opacity: 1;"/><path class="sankey-link" d="M383.70000000000005,604.3892441860465C564.3000000000001,604.3892441860465 564.3000000000001,633.7288319238902 744.9000000000001,633.7288319238902L744.9000000000001,642.2317389006345C564.3000000000001,642.2317389006345 564.3000000000001,612.8921511627908 383.70000000000005,612.8921511627908Z" style="stroke: rgb(68, 68, 68); stroke-opacity: 1; fill: rgb(255, 151, 255); fill-opacity: 0.6; stroke-width: 0; opacity: 1;"/><path class="sankey-link" d="M383.70000000000005,659.7052325581393C564.3000000000001,659.7052325581393 564.3000000000001,335.347436575053 744.9000000000001,335.347436575053L744.9000000000001,342.1497621564484C564.3000000000001,342.1497621564484 564.3000000000001,666.5075581395346 383.70000000000005,666.5075581395346Z" style="stroke: rgb(68, 68, 68); stroke-opacity: 1; fill: rgb(182, 232, 128); fill-opacity: 0.6; stroke-width: 0; opacity: 1;"/><path class="sankey-link" d="M383.70000000000005,666.5075581395347C564.3000000000001,666.5075581395347 564.3000000000001,642.2317389006344 744.9000000000001,642.2317389006344L744.9000000000001,645.6329016913321C564.3000000000001,645.6329016913321 564.3000000000001,669.9087209302324 383.70000000000005,669.9087209302324Z" style="stroke: rgb(68, 68, 68); stroke-opacity: 1; fill: rgb(182, 232, 128); fill-opacity: 0.6; stroke-width: 0; opacity: 1;"/><path class="sankey-link" d="M383.70000000000005,697.2671511627907C564.3000000000001,697.2671511627907 564.3000000000001,342.14976215644833 744.9000000000001,342.14976215644833L744.9000000000001,345.550924947146C564.3000000000001,345.550924947146 564.3000000000001,700.6683139534885 383.70000000000005,700.6683139534885Z" style="stroke: rgb(68, 68, 68); stroke-opacity: 1; fill: rgb(255, 102, 146); fill-opacity: 0.6; stroke-width: 0; opacity: 1;"/><path class="sankey-link" d="M759.9000000000001,180.5945295983088C946.19943,180.5945295983088 946.19943,101.02975687103597 1132.49886,101.02975687103597L1132.49886,107.83208245243131C946.19943,107.83208245243131 946.19943,187.39685517970415 759.9000000000001,187.39685517970415Z" style="stroke: rgb(68, 68, 68); stroke-opacity: 1; fill: rgb(25, 211, 243); fill-opacity: 0.6; stroke-width: 0; opacity: 1;"/><path class="sankey-link" d="M759.9000000000001,272.42592494714603C946.19943,272.42592494714603 946.19943,362.87386363636386 1132.49886,362.87386363636386L1132.49886,366.2750264270615C946.19943,366.2750264270615 946.19943,275.82708773784367 759.9000000000001,275.82708773784367Z" style="stroke: rgb(68, 68, 68); stroke-opacity: 1; fill: rgb(25, 211, 243); fill-opacity: 0.6; stroke-width: 0; opacity: 1;"/><path class="sankey-link" d="M759.9000000000001,187.39685517970415C946.19943,187.39685517970415 946.19943,107.83208245243132 1132.49886,107.83208245243132L1132.49886,118.03557082452436C946.19943,118.03557082452436 946.19943,197.60034355179718 759.9000000000001,197.60034355179718Z" style="stroke: rgb(68, 68, 68); stroke-opacity: 1; fill: rgb(0, 204, 150); fill-opacity: 0.6; stroke-width: 0; opacity: 1;"/><path class="sankey-link" d="M759.9000000000001,275.8270877378437C946.19943,275.8270877378437 946.19943,366.27502642706156 1132.49886,366.27502642706156L1132.49886,376.4785147991546C946.19943,376.4785147991546 946.19943,286.03057610993676 759.9000000000001,286.03057610993676Z" style="stroke: rgb(68, 68, 68); stroke-opacity: 1; fill: rgb(0, 204, 150); fill-opacity: 0.6; stroke-width: 0; opacity: 1;"/><path class="sankey-link" d="M759.9000000000001,615.0224365750529C946.19943,615.0224365750529 946.19943,646.1129492600423 1132.49886,646.1129492600423L1132.49886,649.5141120507401C946.19943,649.5141120507401 946.19943,618.4235993657506 759.9000000000001,618.4235993657506Z" style="stroke: rgb(68, 68, 68); stroke-opacity: 1; fill: rgb(0, 204, 150); fill-opacity: 0.6; stroke-width: 0; opacity: 1;"/><path class="sankey-link" d="M759.9000000000001,197.60034355179718C946.19943,197.60034355179718 946.19943,118.03557082452434 1132.49886,118.03557082452434L1132.49886,128.23905919661738C946.19943,128.23905919661738 946.19943,207.80383192389021 759.9000000000001,207.80383192389021Z" style="stroke: rgb(68, 68, 68); stroke-opacity: 1; fill: rgb(239, 85, 59); fill-opacity: 0.6; stroke-width: 0; opacity: 1;"/><path class="sankey-link" d="M759.9000000000001,286.03057610993676C946.19943,286.03057610993676 946.19943,376.4785147991546 1132.49886,376.4785147991546L1132.49886,386.68200317124763C946.19943,386.68200317124763 946.19943,296.2340644820298 759.9000000000001,296.2340644820298Z" style="stroke: rgb(68, 68, 68); stroke-opacity: 1; fill: rgb(239, 85, 59); fill-opacity: 0.6; stroke-width: 0; opacity: 1;"/><path class="sankey-link" d="M759.9000000000001,586.1125528541227C946.19943,586.1125528541227 946.19943,546.6541490486258 1132.49886,546.6541490486258L1132.49886,548.3547304439745C946.19943,548.3547304439745 946.19943,587.8131342494714 759.9000000000001,587.8131342494714Z" style="stroke: rgb(68, 68, 68); stroke-opacity: 1; fill: rgb(239, 85, 59); fill-opacity: 0.6; stroke-width: 0; opacity: 1;"/><path class="sankey-link" d="M759.9000000000001,618.4235993657505C946.19943,618.4235993657505 946.19943,649.51411205074 1132.49886,649.51411205074L1132.49886,651.2146934460887C946.19943,651.2146934460887 946.19943,620.1241807610993 759.9000000000001,620.1241807610993Z" style="stroke: rgb(68, 68, 68); stroke-opacity: 1; fill: rgb(239, 85, 59); fill-opacity: 0.6; stroke-width: 0; opacity: 1;"/><path class="sankey-link" d="M759.9000000000001,207.80383192389021C946.19943,207.80383192389021 946.19943,128.23905919661738 1132.49886,128.23905919661738L1132.49886,131.64022198731507C946.19943,131.64022198731507 946.19943,211.2049947145879 759.9000000000001,211.2049947145879Z" style="stroke: rgb(68, 68, 68); stroke-opacity: 1; fill: rgb(254, 203, 82); fill-opacity: 0.6; stroke-width: 0; opacity: 1;"/><path class="sankey-link" d="M759.9000000000001,296.2340644820298C946.19943,296.2340644820298 946.19943,386.68200317124763 1132.49886,386.68200317124763L1132.49886,390.08316596194527C946.19943,390.08316596194527 946.19943,299.63522727272743 759.9000000000001,299.63522727272743Z" style="stroke: rgb(68, 68, 68); stroke-opacity: 1; fill: rgb(254, 203, 82); fill-opacity: 0.6; stroke-width: 0; opacity: 1;"/><path class="sankey-link" d="M759.9000000000001,587.8131342494715C946.19943,587.8131342494715 946.19943,548.3547304439746 1132.49886,548.3547304439746L1132.49886,553.4564746300211C946.19943,553.4564746300211 946.19943,592.9148784355181 759.9000000000001,592.9148784355181Z" style="stroke: rgb(68, 68, 68); stroke-opacity: 1; fill: rgb(254, 203, 82); fill-opacity: 0.6; stroke-width: 0; opacity: 1;"/><path class="sankey-link" d="M759.9000000000001,620.1241807610994C946.19943,620.1241807610994 946.19943,651.2146934460889 1132.49886,651.2146934460889L1132.49886,652.9152748414376C946.19943,652.9152748414376 946.19943,621.8247621564482 759.9000000000001,621.8247621564482Z" style="stroke: rgb(68, 68, 68); stroke-opacity: 1; fill: rgb(254, 203, 82); fill-opacity: 0.6; stroke-width: 0; opacity: 1;"/><path class="sankey-link" d="M759.9000000000001,211.20499471458788C946.19943,211.20499471458788 946.19943,131.64022198731504 1132.49886,131.64022198731504L1132.49886,135.04138477801274C946.19943,135.04138477801274 946.19943,214.60615750528558 759.9000000000001,214.60615750528558Z" style="stroke: rgb(68, 68, 68); stroke-opacity: 1; fill: rgb(255, 161, 90); fill-opacity: 0.6; stroke-width: 0; opacity: 1;"/><path class="sankey-link" d="M759.9000000000001,299.6352272727275C946.19943,299.6352272727275 946.19943,390.0831659619453 1132.49886,390.0831659619453L1132.49886,396.8854915433407C946.19943,396.8854915433407 946.19943,306.4375528541229 759.9000000000001,306.4375528541229Z" style="stroke: rgb(68, 68, 68); stroke-opacity: 1; fill: rgb(255, 161, 90); fill-opacity: 0.6; stroke-width: 0; opacity: 1;"/><path class="sankey-link" d="M759.9000000000001,621.8247621564483C946.19943,621.8247621564483 946.19943,652.9152748414377 1132.49886,652.9152748414377L1132.49886,654.6158562367865C946.19943,654.6158562367865 946.19943,623.525343551797 759.9000000000001,623.525343551797Z" style="stroke: rgb(68, 68, 68); stroke-opacity: 1; fill: rgb(255, 161, 90); fill-opacity: 0.6; stroke-width: 0; opacity: 1;"/><path class="sankey-link" d="M759.9000000000001,214.60615750528555C946.19943,214.60615750528555 946.19943,135.0413847780127 1132.49886,135.0413847780127L1132.49886,155.44836152219878C946.19943,155.44836152219878 946.19943,235.01313424947162 759.9000000000001,235.01313424947162Z" style="stroke: rgb(68, 68, 68); stroke-opacity: 1; fill: rgb(171, 99, 250); fill-opacity: 0.6; stroke-width: 0; opacity: 1;"/><path class="sankey-link" d="M759.9000000000001,306.4375528541228C946.19943,306.4375528541228 946.19943,396.88549154334066 1132.49886,396.88549154334066L1132.49886,412.1907241014802C946.19943,412.1907241014802 946.19943,321.7427854122624 759.9000000000001,321.7427854122624Z" style="stroke: rgb(68, 68, 68); stroke-opacity: 1; fill: rgb(171, 99, 250); fill-opacity: 0.6; stroke-width: 0; opacity: 1;"/><path class="sankey-link" d="M759.9000000000001,592.9148784355181C946.19943,592.9148784355181 946.19943,553.4564746300211 1132.49886,553.4564746300211L1132.49886,556.8576374207189C946.19943,556.8576374207189 946.19943,596.3160412262158 759.9000000000001,596.3160412262158Z" style="stroke: rgb(68, 68, 68); stroke-opacity: 1; fill: rgb(171, 99, 250); fill-opacity: 0.6; stroke-width: 0; opacity: 1;"/><path class="sankey-link" d="M759.9000000000001,623.5253435517972C946.19943,623.5253435517972 946.19943,654.6158562367866 1132.49886,654.6158562367866L1132.49886,658.0170190274844C946.19943,658.0170190274844 946.19943,626.9265063424949 759.9000000000001,626.9265063424949Z" style="stroke: rgb(68, 68, 68); stroke-opacity: 1; fill: rgb(171, 99, 250); fill-opacity: 0.6; stroke-width: 0; opacity: 1;"/><path class="sankey-link" d="M759.9000000000001,235.0131342494716C946.19943,235.0131342494716 946.19943,155.44836152219875 1132.49886,155.44836152219875L1132.49886,175.85533826638482C946.19943,175.85533826638482 946.19943,255.42011099365766 759.9000000000001,255.42011099365766Z" style="stroke: rgb(68, 68, 68); stroke-opacity: 1; fill: rgb(99, 110, 250); fill-opacity: 0.6; stroke-width: 0; opacity: 1;"/><path class="sankey-link" d="M759.9000000000001,321.7427854122624C946.19943,321.7427854122624 946.19943,412.1907241014802 1132.49886,412.1907241014802L1132.49886,429.1965380549685C946.19943,429.1965380549685 946.19943,338.7485993657507 759.9000000000001,338.7485993657507Z" style="stroke: rgb(68, 68, 68); stroke-opacity: 1; fill: rgb(99, 110, 250); fill-opacity: 0.6; stroke-width: 0; opacity: 1;"/><path class="sankey-link" d="M759.9000000000001,596.3160412262157C946.19943,596.3160412262157 946.19943,556.8576374207188 1132.49886,556.8576374207188L1132.49886,570.4622885835096C946.19943,570.4622885835096 946.19943,609.9206923890065 759.9000000000001,609.9206923890065Z" style="stroke: rgb(68, 68, 68); stroke-opacity: 1; fill: rgb(99, 110, 250); fill-opacity: 0.6; stroke-width: 0; opacity: 1;"/><path class="sankey-link" d="M759.9000000000001,626.9265063424948C946.19943,626.9265063424948 946.19943,658.0170190274843 1132.49886,658.0170190274843L1132.49886,669.921088794926C946.19943,669.921088794926 946.19943,638.8305761099366 759.9000000000001,638.8305761099366Z" style="stroke: rgb(68, 68, 68); stroke-opacity: 1; fill: rgb(99, 110, 250); fill-opacity: 0.6; stroke-width: 0; opacity: 1;"/><path class="sankey-link" d="M759.9000000000001,255.4201109936576C946.19943,255.4201109936576 946.19943,175.8553382663848 1132.49886,175.8553382663848L1132.49886,186.05882663847783C946.19943,186.05882663847783 946.19943,265.62359936575064 759.9000000000001,265.62359936575064Z" style="stroke: rgb(68, 68, 68); stroke-opacity: 1; fill: rgb(255, 151, 255); fill-opacity: 0.6; stroke-width: 0; opacity: 1;"/><path class="sankey-link" d="M759.9000000000001,338.74859936575075C946.19943,338.74859936575075 946.19943,429.1965380549686 1132.49886,429.1965380549686L1132.49886,432.5977008456662C946.19943,432.5977008456662 946.19943,342.1497621564484 759.9000000000001,342.1497621564484Z" style="stroke: rgb(68, 68, 68); stroke-opacity: 1; fill: rgb(255, 151, 255); fill-opacity: 0.6; stroke-width: 0; opacity: 1;"/><path class="sankey-link" d="M759.9000000000001,609.9206923890064C946.19943,609.9206923890064 946.19943,570.4622885835095 1132.49886,570.4622885835095L1132.49886,573.8634513742072C946.19943,573.8634513742072 946.19943,613.3218551797041 759.9000000000001,613.3218551797041Z" style="stroke: rgb(68, 68, 68); stroke-opacity: 1; fill: rgb(255, 151, 255); fill-opacity: 0.6; stroke-width: 0; opacity: 1;"/><path class="sankey-link" d="M759.9000000000001,638.8305761099367C946.19943,638.8305761099367 946.19943,669.9210887949262 1132.49886,669.9210887949262L1132.49886,675.0228329809727C946.19943,675.0228329809727 946.19943,643.9323202959832 759.9000000000001,643.9323202959832Z" style="stroke: rgb(68, 68, 68); stroke-opacity: 1; fill: rgb(255, 151, 255); fill-opacity: 0.6; stroke-width: 0; opacity: 1;"/><path class="sankey-link" d="M759.9000000000001,265.62359936575064C946.19943,265.62359936575064 946.19943,186.05882663847783 1132.49886,186.05882663847783L1132.49886,189.45998942917552C946.19943,189.45998942917552 946.19943,269.0247621564483 759.9000000000001,269.0247621564483Z" style="stroke: rgb(68, 68, 68); stroke-opacity: 1; fill: rgb(182, 232, 128); fill-opacity: 0.6; stroke-width: 0; opacity: 1;"/><path class="sankey-link" d="M759.9000000000001,342.14976215644845C946.19943,342.14976215644845 946.19943,432.5977008456663 1132.49886,432.5977008456663L1132.49886,435.9988636363639C946.19943,435.9988636363639 946.19943,345.5509249471461 759.9000000000001,345.5509249471461Z" style="stroke: rgb(68, 68, 68); stroke-opacity: 1; fill: rgb(182, 232, 128); fill-opacity: 0.6; stroke-width: 0; opacity: 1;"/><path class="sankey-link" d="M759.9000000000001,613.321855179704C946.19943,613.321855179704 946.19943,573.8634513742071 1132.49886,573.8634513742071L1132.49886,575.5640327695559C946.19943,575.5640327695559 946.19943,615.0224365750528 759.9000000000001,615.0224365750528Z" style="stroke: rgb(68, 68, 68); stroke-opacity: 1; fill: rgb(182, 232, 128); fill-opacity: 0.6; stroke-width: 0; opacity: 1;"/><path class="sankey-link" d="M759.9000000000001,643.9323202959832C946.19943,643.9323202959832 946.19943,675.0228329809727 1132.49886,675.0228329809727L1132.49886,676.7234143763214C946.19943,676.7234143763214 946.19943,645.632901691332 759.9000000000001,645.632901691332Z" style="stroke: rgb(68, 68, 68); stroke-opacity: 1; fill: rgb(182, 232, 128); fill-opacity: 0.6; stroke-width: 0; opacity: 1;"/><path class="sankey-link" d="M759.9000000000001,269.02476215644833C946.19943,269.02476215644833 946.19943,189.4599894291755 1132.49886,189.4599894291755L1132.49886,192.8611522198732C946.19943,192.8611522198732 946.19943,272.425924947146 759.9000000000001,272.425924947146Z" style="stroke: rgb(68, 68, 68); stroke-opacity: 1; fill: rgb(255, 102, 146); fill-opacity: 0.6; stroke-width: 0; opacity: 1;"/></g><g class="sankey-node-set" style="cursor: ns-resize;"><g class="sankey-node" transform="translate(-7.499,17.084)" style="opacity: 1;"><rect class="node-rect" width="15" height="64.62209302325579" style="stroke-width: 0.5; stroke: rgb(0, 0, 0); stroke-opacity: 1; fill: rgb(128, 128, 128); fill-opacity: 1;"/><text class="node-label" data-notex="1" x="0" y="0" text-anchor="start" transform="translate(18.25,36.511046511627896)" style="cursor: default; font-family: 'Open Sans', verdana, arial, sans-serif; font-size: 12px; fill: rgb(42, 63, 95); fill-opacity: 1; white-space: pre; text-shadow: white 1px 1px 1px, white -1px -1px 1px, white 1px -1px 1px, white -1px 1px 1px;">21271R</text></g><g class="sankey-node" transform="translate(-7.499,109.740)" style="opacity: 1;"><rect class="node-rect" width="15" height="263.5901162790699" style="stroke-width: 0.5; stroke: rgb(0, 0, 0); stroke-opacity: 1; fill: rgb(128, 128, 128); fill-opacity: 1;"/><text class="node-label" data-notex="1" x="0" y="0" text-anchor="start" transform="translate(18.25,135.99505813953493)" style="cursor: default; font-family: 'Open Sans', verdana, arial, sans-serif; font-size: 12px; fill: rgb(42, 63, 95); fill-opacity: 1; white-space: pre; text-shadow: white 1px 1px 1px, white -1px -1px 1px, white 1px -1px 1px, white -1px 1px 1px;">21272R</text></g><g class="sankey-node" transform="translate(-7.499,399.315)" style="opacity: 1;"><rect class="node-rect" width="15" height="15.30523255813955" style="stroke-width: 0.5; stroke: rgb(0, 0, 0); stroke-opacity: 1; fill: rgb(128, 128, 128); fill-opacity: 1;"/><text class="node-label" data-notex="1" x="0" y="0" text-anchor="start" transform="translate(18.25,11.852616279069775)" style="cursor: default; font-family: 'Open Sans', verdana, arial, sans-serif; font-size: 12px; fill: rgb(42, 63, 95); fill-opacity: 1; white-space: pre; text-shadow: white 1px 1px 1px, white -1px -1px 1px, white 1px -1px 1px, white -1px 1px 1px;">21965RL</text></g><g class="sankey-node" transform="translate(-7.499,434.671)" style="opacity: 1;"><rect class="node-rect" width="15" height="120.7412790697673" style="stroke-width: 0.5; stroke: rgb(0, 0, 0); stroke-opacity: 1; fill: rgb(128, 128, 128); fill-opacity: 1;"/><text class="node-label" data-notex="1" x="0" y="0" text-anchor="start" transform="translate(18.25,64.57063953488365)" style="cursor: default; font-family: 'Open Sans', verdana, arial, sans-serif; font-size: 12px; fill: rgb(42, 63, 95); fill-opacity: 1; white-space: pre; text-shadow: white 1px 1px 1px, white -1px -1px 1px, white 1px -1px 1px, white -1px 1px 1px;">22384</text></g><g class="sankey-node" transform="translate(-7.499,579.843)" style="opacity: 1;"><rect class="node-rect" width="15" height="120.74127906976787" style="stroke-width: 0.5; stroke: rgb(0, 0, 0); stroke-opacity: 1; fill: rgb(128, 128, 128); fill-opacity: 1;"/><text class="node-label" data-notex="1" x="0" y="0" text-anchor="start" transform="translate(18.25,64.57063953488394)" style="cursor: default; font-family: 'Open Sans', verdana, arial, sans-serif; font-size: 12px; fill: rgb(42, 63, 95); fill-opacity: 1; white-space: pre; text-shadow: white 1px 1px 1px, white -1px -1px 1px, white 1px -1px 1px, white -1px 1px 1px;">22670</text></g><g class="sankey-node" transform="translate(744.900,180.595)" style="opacity: 1;"><rect class="node-rect" width="15" height="164.95639534883693" style="stroke-width: 0.5; stroke: rgb(0, 0, 0); stroke-opacity: 1; fill: rgb(128, 128, 128); fill-opacity: 1;"/><text class="node-label" data-notex="1" x="0" y="0" text-anchor="start" transform="translate(18.25,86.67819767441847)" style="cursor: default; font-family: 'Open Sans', verdana, arial, sans-serif; font-size: 12px; fill: rgb(42, 63, 95); fill-opacity: 1; white-space: pre; text-shadow: white 1px 1px 1px, white -1px -1px 1px, white 1px -1px 1px, white -1px 1px 1px;">Active</text></g><g class="sankey-node" transform="translate(744.900,586.113)" style="opacity: 1;"><rect class="node-rect" width="15" height="59.52034883720921" style="stroke-width: 0.5; stroke: rgb(0, 0, 0); stroke-opacity: 1; fill: rgb(128, 128, 128); fill-opacity: 1;"/><text class="node-label" data-notex="1" x="0" y="0" text-anchor="start" transform="translate(18.25,33.96017441860461)" style="cursor: default; font-family: 'Open Sans', verdana, arial, sans-serif; font-size: 12px; fill: rgb(42, 63, 95); fill-opacity: 1; white-space: pre; text-shadow: white 1px 1px 1px, white -1px -1px 1px, white 1px -1px 1px, white -1px 1px 1px;">NonActive</text></g><g class="sankey-node" transform="translate(1132.499,101.030)" style="opacity: 1;"><rect class="node-rect" width="15" height="91.83139534883713" style="stroke-width: 0.5; stroke: rgb(0, 0, 0); stroke-opacity: 1; fill: rgb(128, 128, 128); fill-opacity: 1;"/><text class="node-label" data-notex="1" x="0" y="0" text-anchor="end" transform="translate(-3.25,50.11569767441857)" style="cursor: default; font-family: 'Open Sans', verdana, arial, sans-serif; font-size: 12px; fill: rgb(42, 63, 95); fill-opacity: 1; white-space: pre; text-shadow: white 1px 1px 1px, white -1px -1px 1px, white 1px -1px 1px, white -1px 1px 1px;">Active-activated</text></g><g class="sankey-node" transform="translate(1132.499,362.874)" style="opacity: 1;"><rect class="node-rect" width="15" height="73.12499999999955" style="stroke-width: 0.5; stroke: rgb(0, 0, 0); stroke-opacity: 1; fill: rgb(128, 128, 128); fill-opacity: 1;"/><text class="node-label" data-notex="1" x="0" y="0" text-anchor="end" transform="translate(-3.25,40.762499999999775)" style="cursor: default; font-family: 'Open Sans', verdana, arial, sans-serif; font-size: 12px; fill: rgb(42, 63, 95); fill-opacity: 1; white-space: pre; text-shadow: white 1px 1px 1px, white -1px -1px 1px, white 1px -1px 1px, white -1px 1px 1px;">Active-suppressed</text></g><g class="sankey-node" transform="translate(1132.499,546.654)" style="opacity: 1;"><rect class="node-rect" width="15" height="28.90988372093034" style="stroke-width: 0.5; stroke: rgb(0, 0, 0); stroke-opacity: 1; fill: rgb(128, 128, 128); fill-opacity: 1;"/><text class="node-label" data-notex="1" x="0" y="0" text-anchor="end" transform="translate(-3.25,18.65494186046517)" style="cursor: default; font-family: 'Open Sans', verdana, arial, sans-serif; font-size: 12px; fill: rgb(42, 63, 95); fill-opacity: 1; white-space: pre; text-shadow: white 1px 1px 1px, white -1px -1px 1px, white 1px -1px 1px, white -1px 1px 1px;">NonActive-activated</text></g><g class="sankey-node" transform="translate(1132.499,646.113)" style="opacity: 1;"><rect class="node-rect" width="15" height="30.6104651162791" style="stroke-width: 0.5; stroke: rgb(0, 0, 0); stroke-opacity: 1; fill: rgb(128, 128, 128); fill-opacity: 1;"/><text class="node-label" data-notex="1" x="0" y="0" text-anchor="end" transform="translate(-3.25,19.50523255813955)" style="cursor: default; font-family: 'Open Sans', verdana, arial, sans-serif; font-size: 12px; fill: rgb(42, 63, 95); fill-opacity: 1; white-space: pre; text-shadow: white 1px 1px 1px, white -1px -1px 1px, white 1px -1px 1px, white -1px 1px 1px;">NonActive-suppressed</text></g><g class="sankey-node" transform="translate(368.700,13.822)" style="opacity: 1;"><rect class="node-rect" width="15" height="28.909883720930456" style="stroke-width: 0.5; stroke: rgb(0, 0, 0); stroke-opacity: 1; fill: rgb(25, 211, 243); fill-opacity: 1;"/><text class="node-label" data-notex="1" x="0" y="0" text-anchor="start" transform="translate(18.25,18.65494186046523)" style="cursor: default; font-family: 'Open Sans', verdana, arial, sans-serif; font-size: 12px; fill: rgb(42, 63, 95); fill-opacity: 1; white-space: pre; text-shadow: white 1px 1px 1px, white -1px -1px 1px, white 1px -1px 1px, white -1px 1px 1px;">BLA</text></g><g class="sankey-node" transform="translate(368.700,54.785)" style="opacity: 1;"><rect class="node-rect" width="15" height="88.43023255813934" style="stroke-width: 0.5; stroke: rgb(0, 0, 0); stroke-opacity: 1; fill: rgb(0, 204, 150); fill-opacity: 1;"/><text class="node-label" data-notex="1" x="0" y="0" text-anchor="start" transform="translate(18.25,48.415116279069665)" style="cursor: default; font-family: 'Open Sans', verdana, arial, sans-serif; font-size: 12px; fill: rgb(42, 63, 95); fill-opacity: 1; white-space: pre; text-shadow: white 1px 1px 1px, white -1px -1px 1px, white 1px -1px 1px, white -1px 1px 1px;">Cla</text></g><g class="sankey-node" transform="translate(368.700,154.452)" style="opacity: 1;"><rect class="node-rect" width="15" height="69.7238372093027" style="stroke-width: 0.5; stroke: rgb(0, 0, 0); stroke-opacity: 1; fill: rgb(239, 85, 59); fill-opacity: 1;"/><text class="node-label" data-notex="1" x="0" y="0" text-anchor="start" transform="translate(18.25,39.06191860465135)" style="cursor: default; font-family: 'Open Sans', verdana, arial, sans-serif; font-size: 12px; fill: rgb(42, 63, 95); fill-opacity: 1; white-space: pre; text-shadow: white 1px 1px 1px, white -1px -1px 1px, white 1px -1px 1px, white -1px 1px 1px;">LC</text></g><g class="sankey-node" transform="translate(368.700,236.637)" style="opacity: 1;"><rect class="node-rect" width="15" height="27.209302325581803" style="stroke-width: 0.5; stroke: rgb(0, 0, 0); stroke-opacity: 1; fill: rgb(254, 203, 82); fill-opacity: 1;"/><text class="node-label" data-notex="1" x="0" y="0" text-anchor="start" transform="translate(18.25,17.8046511627909)" style="cursor: default; font-family: 'Open Sans', verdana, arial, sans-serif; font-size: 12px; fill: rgb(42, 63, 95); fill-opacity: 1; white-space: pre; text-shadow: white 1px 1px 1px, white -1px -1px 1px, white 1px -1px 1px, white -1px 1px 1px;">LHyp</text></g><g class="sankey-node" transform="translate(368.700,277.022)" style="opacity: 1;"><rect class="node-rect" width="15" height="34.01162790697697" style="stroke-width: 0.5; stroke: rgb(0, 0, 0); stroke-opacity: 1; fill: rgb(255, 161, 90); fill-opacity: 1;"/><text class="node-label" data-notex="1" x="0" y="0" text-anchor="start" transform="translate(18.25,21.205813953488484)" style="cursor: default; font-family: 'Open Sans', verdana, arial, sans-serif; font-size: 12px; fill: rgb(42, 63, 95); fill-opacity: 1; white-space: pre; text-shadow: white 1px 1px 1px, white -1px -1px 1px, white 1px -1px 1px, white -1px 1px 1px;">NAc</text></g><g class="sankey-node" transform="translate(368.700,322.543)" style="opacity: 1;"><rect class="node-rect" width="15" height="110.5377906976745" style="stroke-width: 0.5; stroke: rgb(0, 0, 0); stroke-opacity: 1; fill: rgb(171, 99, 250); fill-opacity: 1;"/><text class="node-label" data-notex="1" x="0" y="0" text-anchor="start" transform="translate(18.25,59.46889534883725)" style="cursor: default; font-family: 'Open Sans', verdana, arial, sans-serif; font-size: 12px; fill: rgb(42, 63, 95); fill-opacity: 1; white-space: pre; text-shadow: white 1px 1px 1px, white -1px -1px 1px, white 1px -1px 1px, white -1px 1px 1px;">Str</text></g><g class="sankey-node" transform="translate(368.700,442.515)" style="opacity: 1;"><rect class="node-rect" width="15" height="137.74709302325545" style="stroke-width: 0.5; stroke: rgb(0, 0, 0); stroke-opacity: 1; fill: rgb(99, 110, 250); fill-opacity: 1;"/><text class="node-label" data-notex="1" x="0" y="0" text-anchor="start" transform="translate(18.25,73.07354651162773)" style="cursor: default; font-family: 'Open Sans', verdana, arial, sans-serif; font-size: 12px; fill: rgb(42, 63, 95); fill-opacity: 1; white-space: pre; text-shadow: white 1px 1px 1px, white -1px -1px 1px, white 1px -1px 1px, white -1px 1px 1px;">VTA</text></g><g class="sankey-node" transform="translate(368.700,590.785)" style="opacity: 1;"><rect class="node-rect" width="15" height="56.11918604651146" style="stroke-width: 0.5; stroke: rgb(0, 0, 0); stroke-opacity: 1; fill: rgb(255, 151, 255); fill-opacity: 1;"/><text class="node-label" data-notex="1" x="0" y="0" text-anchor="start" transform="translate(18.25,32.25959302325573)" style="cursor: default; font-family: 'Open Sans', verdana, arial, sans-serif; font-size: 12px; fill: rgb(42, 63, 95); fill-opacity: 1; white-space: pre; text-shadow: white 1px 1px 1px, white -1px -1px 1px, white 1px -1px 1px, white -1px 1px 1px;">cPFC</text></g><g class="sankey-node" transform="translate(368.700,659.705)" style="opacity: 1;"><rect class="node-rect" width="15" height="23.80813953488405" style="stroke-width: 0.5; stroke: rgb(0, 0, 0); stroke-opacity: 1; fill: rgb(182, 232, 128); fill-opacity: 1;"/><text class="node-label" data-notex="1" x="0" y="0" text-anchor="start" transform="translate(18.25,16.104069767442024)" style="cursor: default; font-family: 'Open Sans', verdana, arial, sans-serif; font-size: 12px; fill: rgb(42, 63, 95); fill-opacity: 1; white-space: pre; text-shadow: white 1px 1px 1px, white -1px -1px 1px, white 1px -1px 1px, white -1px 1px 1px;">dPAG</text></g><g class="sankey-node" transform="translate(368.700,697.267)" style="opacity: 1;"><rect class="node-rect" width="15" height="8.502906976744043" style="stroke-width: 0.5; stroke: rgb(0, 0, 0); stroke-opacity: 1; fill: rgb(255, 102, 146); fill-opacity: 1;"/><text class="node-label" data-notex="1" x="0" y="0" text-anchor="start" transform="translate(18.25,8.451453488372021)" style="cursor: default; font-family: 'Open Sans', verdana, arial, sans-serif; font-size: 12px; fill: rgb(42, 63, 95); fill-opacity: 1; white-space: pre; text-shadow: white 1px 1px 1px, white -1px -1px 1px, white 1px -1px 1px, white -1px 1px 1px;">lHb</text></g></g></g><defs id="topdefs-d61b0c"><g class="clips"/></defs><g class="layer-above"><g class="imagelayer"/><g class="shapelayer"/></g><g class="infolayer"><g class="g-gtitle"/><g class="first-render"/></g></svg>