<svg class="main-svg" xmlns="http://www.w3.org/2000/svg" xmlns:xlink="http://www.w3.org/1999/xlink" width="1300" height="900" viewBox="0 0 1300 900" style=""><rect x="0" y="0" width="1300" height="900" style="fill: rgb(255, 255, 255); fill-opacity: 1;"/><defs id="defs-6312a8"><g class="clips"/><g class="gradients"/><g class="patterns"/></defs><g class="bglayer"/><g class="layer-below"><g class="imagelayer"/><g class="shapelayer"/></g><g class="cartesianlayer"/><g class="polarlayer"/><g class="smithlayer"/><g class="ternarylayer"/><g class="geolayer"/><g class="funnelarealayer"/><g class="pielayer"/><g class="iciclelayer"/><g class="treemaplayer"/><g class="sunburstlayer"/><g class="glimages"/><g class="sankey" transform="translate(80,100)matrix(1 0 0 1 0 0)" style="box-sizing: content-box; position: absolute; left: 0px; shape-rendering: geometricprecision; pointer-events: none;"><g class="sankey-links" style="fill: none;"><path class="sankey-link" d="M15,362.66949152542395C195,362.66949152542395 195,24.788135593219913 375,24.788135593219913L375,26.44067796610127C195,26.44067796610127 195,364.32203389830534 15,364.32203389830534Z" style="stroke: rgb(68, 68, 68); stroke-opacity: 1; fill: rgb(25, 211, 243); fill-opacity: 0.6; stroke-width: 0; opacity: 1;"/><path class="sankey-link" d="M15,389.1101694915256C195,389.1101694915256 195,292.8813559322031 375,292.8813559322031L375,312.7118644067794C195,312.7118644067794 195,408.9406779661019 15,408.9406779661019Z" style="stroke: rgb(68, 68, 68); stroke-opacity: 1; fill: rgb(0, 204, 150); fill-opacity: 0.6; stroke-width: 0; opacity: 1;"/><path class="sankey-link" d="M15,380.84745762711884C195,380.84745762711884 195,208.4745762711861 375,208.4745762711861L375,216.73728813559285C195,216.73728813559285 195,389.11016949152565 15,389.11016949152565Z" style="stroke: rgb(68, 68, 68); stroke-opacity: 1; fill: rgb(239, 85, 59); fill-opacity: 0.6; stroke-width: 0; opacity: 1;"/><path class="sankey-link" d="M15,408.9406779661019C195,408.9406779661019 195,373.98305084745755 375,373.98305084745755L375,383.89830508474563C195,383.89830508474563 195,418.85593220338995 15,418.85593220338995Z" style="stroke: rgb(68, 68, 68); stroke-opacity: 1; fill: rgb(255, 161, 90); fill-opacity: 0.6; stroke-width: 0; opacity: 1;"/><path class="sankey-link" d="M15,364.3220338983053C195,364.3220338983053 195,102.58474576271139 375,102.58474576271139L375,119.11016949152496C195,119.11016949152496 195,380.8474576271188 15,380.8474576271188Z" style="stroke: rgb(68, 68, 68); stroke-opacity: 1; fill: rgb(171, 99, 250); fill-opacity: 0.6; stroke-width: 0; opacity: 1;"/><path class="sankey-link" d="M15,422.1610169491527C195,422.1610169491527 195,476.82203389830505 375,476.82203389830505L375,480.1271186440677C195,480.1271186440677 195,425.4661016949154 15,425.4661016949154Z" style="stroke: rgb(68, 68, 68); stroke-opacity: 1; fill: rgb(99, 110, 250); fill-opacity: 0.6; stroke-width: 0; opacity: 1;"/><path class="sankey-link" d="M15,418.85593220339C195,418.85593220339 195,405.50847457627117 375,405.50847457627117L375,408.8135593220338C195,408.8135593220338 195,422.16101694915267 15,422.16101694915267Z" style="stroke: rgb(68, 68, 68); stroke-opacity: 1; fill: rgb(255, 102, 146); fill-opacity: 0.6; stroke-width: 0; opacity: 1;"/><path class="sankey-link" d="M15,91.5254237288137C195,91.5254237288137 195,-4.263256414560601e-13 375,-4.263256414560601e-13L375,24.788135593219913C195,24.788135593219913 195,116.31355932203405 15,116.31355932203405Z" style="stroke: rgb(68, 68, 68); stroke-opacity: 1; fill: rgb(25, 211, 243); fill-opacity: 0.6; stroke-width: 0; opacity: 1;"/><path class="sankey-link" d="M15,218.77118644067815C195,218.77118644067815 195,251.56779661016927 375,251.56779661016927L375,292.8813559322032C195,292.8813559322032 195,260.08474576271203 15,260.08474576271203Z" style="stroke: rgb(68, 68, 68); stroke-opacity: 1; fill: rgb(0, 204, 150); fill-opacity: 0.6; stroke-width: 0; opacity: 1;"/><path class="sankey-link" d="M15,175.80508474576288C195,175.80508474576288 195,165.50847457627083 375,165.50847457627083L375,208.4745762711861C195,208.4745762711861 195,218.77118644067815 15,218.77118644067815Z" style="stroke: rgb(68, 68, 68); stroke-opacity: 1; fill: rgb(239, 85, 59); fill-opacity: 0.6; stroke-width: 0; opacity: 1;"/><path class="sankey-link" d="M15,260.08474576271203C195,260.08474576271203 195,352.49999999999994 375,352.49999999999994L375,373.9830508474576C195,373.9830508474576 195,281.5677966101697 15,281.5677966101697Z" style="stroke: rgb(68, 68, 68); stroke-opacity: 1; fill: rgb(255, 161, 90); fill-opacity: 0.6; stroke-width: 0; opacity: 1;"/><path class="sankey-link" d="M15,116.31355932203405C195,116.31355932203405 195,43.09322033898258 375,43.09322033898258L375,102.5847457627114C195,102.5847457627114 195,175.80508474576288 15,175.80508474576288Z" style="stroke: rgb(68, 68, 68); stroke-opacity: 1; fill: rgb(171, 99, 250); fill-opacity: 0.6; stroke-width: 0; opacity: 1;"/><path class="sankey-link" d="M15,304.70338983050857C195,304.70338983050857 195,461.9491525423729 375,461.9491525423729L375,476.8220338983051C195,476.8220338983051 195,319.5762711864408 15,319.5762711864408Z" style="stroke: rgb(68, 68, 68); stroke-opacity: 1; fill: rgb(99, 110, 250); fill-opacity: 0.6; stroke-width: 0; opacity: 1;"/><path class="sankey-link" d="M15,319.57627118644075C195,319.57627118644075 195,615.7627118644066 375,615.7627118644066L375,643.8559322033896C195,643.8559322033896 195,347.66949152542384 15,347.66949152542384Z" style="stroke: rgb(68, 68, 68); stroke-opacity: 1; fill: rgb(255, 151, 255); fill-opacity: 0.6; stroke-width: 0; opacity: 1;"/><path class="sankey-link" d="M15,286.5254237288137C195,286.5254237288137 195,423.81355932203394 375,423.81355932203394L375,441.99152542372883C195,441.99152542372883 195,304.70338983050857 15,304.70338983050857Z" style="stroke: rgb(68, 68, 68); stroke-opacity: 1; fill: rgb(182, 232, 128); fill-opacity: 0.6; stroke-width: 0; opacity: 1;"/><path class="sankey-link" d="M15,281.56779661016964C195,281.56779661016964 195,400.5508474576271 375,400.5508474576271L375,405.50847457627117C195,405.50847457627117 195,286.5254237288137 15,286.5254237288137Z" style="stroke: rgb(68, 68, 68); stroke-opacity: 1; fill: rgb(255, 102, 146); fill-opacity: 0.6; stroke-width: 0; opacity: 1;"/><path class="sankey-link" d="M15,705.1271186440679C195,705.1271186440679 195,26.44067796610127 375,26.44067796610127L375,28.093220338982626C195,28.093220338982626 195,706.7796610169491 15,706.7796610169491Z" style="stroke: rgb(68, 68, 68); stroke-opacity: 1; fill: rgb(25, 211, 243); fill-opacity: 0.6; stroke-width: 0; opacity: 1;"/><path class="sankey-link" d="M15,708.4322033898306C195,708.4322033898306 195,332.5423728813557 375,332.5423728813557L375,337.4999999999997C195,337.4999999999997 195,713.3898305084747 15,713.3898305084747Z" style="stroke: rgb(68, 68, 68); stroke-opacity: 1; fill: rgb(0, 204, 150); fill-opacity: 0.6; stroke-width: 0; opacity: 1;"/><path class="sankey-link" d="M15,713.3898305084747C195,713.3898305084747 195,383.8983050847457 375,383.8983050847457L375,385.55084745762707C195,385.55084745762707 195,715.042372881356 15,715.042372881356Z" style="stroke: rgb(68, 68, 68); stroke-opacity: 1; fill: rgb(255, 161, 90); fill-opacity: 0.6; stroke-width: 0; opacity: 1;"/><path class="sankey-link" d="M15,706.7796610169493C195,706.7796610169493 195,148.85593220338936 375,148.85593220338936L375,150.5084745762707C195,150.5084745762707 195,708.4322033898305 15,708.4322033898305Z" style="stroke: rgb(68, 68, 68); stroke-opacity: 1; fill: rgb(171, 99, 250); fill-opacity: 0.6; stroke-width: 0; opacity: 1;"/><path class="sankey-link" d="M15,716.6949152542375C195,716.6949152542375 195,666.9915254237286 375,666.9915254237286L375,670.2966101694914C195,670.2966101694914 195,720.0000000000002 15,720.0000000000002Z" style="stroke: rgb(68, 68, 68); stroke-opacity: 1; fill: rgb(255, 151, 255); fill-opacity: 0.6; stroke-width: 0; opacity: 1;"/><path class="sankey-link" d="M15,715.0423728813561C195,715.0423728813561 195,445.2966101694915 375,445.2966101694915L375,446.9491525423729C195,446.9491525423729 195,716.6949152542373 15,716.6949152542373Z" style="stroke: rgb(68, 68, 68); stroke-opacity: 1; fill: rgb(182, 232, 128); fill-opacity: 0.6; stroke-width: 0; opacity: 1;"/><path class="sankey-link" d="M15,463.6016949152538C195,463.6016949152538 195,312.7118644067794 375,312.7118644067794L375,322.6271186440675C195,322.6271186440675 195,473.5169491525419 15,473.5169491525419Z" style="stroke: rgb(68, 68, 68); stroke-opacity: 1; fill: rgb(0, 204, 150); fill-opacity: 0.6; stroke-width: 0; opacity: 1;"/><path class="sankey-link" d="M15,455.33898305084705C195,455.33898305084705 195,216.73728813559288 375,216.73728813559288L375,224.99999999999963C195,224.99999999999963 195,463.60169491525386 15,463.60169491525386Z" style="stroke: rgb(68, 68, 68); stroke-opacity: 1; fill: rgb(239, 85, 59); fill-opacity: 0.6; stroke-width: 0; opacity: 1;"/><path class="sankey-link" d="M15,544.5762711864402C195,544.5762711864402 195,685.2966101694916 375,685.2966101694916L375,698.5169491525425C195,698.5169491525425 195,557.796610169491 15,557.796610169491Z" style="stroke: rgb(68, 68, 68); stroke-opacity: 1; fill: rgb(254, 203, 82); fill-opacity: 0.6; stroke-width: 0; opacity: 1;"/><path class="sankey-link" d="M15,440.46610169491487C195,440.46610169491487 195,119.11016949152496 375,119.11016949152496L375,133.98305084745715C195,133.98305084745715 195,455.3389830508471 15,455.3389830508471Z" style="stroke: rgb(68, 68, 68); stroke-opacity: 1; fill: rgb(171, 99, 250); fill-opacity: 0.6; stroke-width: 0; opacity: 1;"/><path class="sankey-link" d="M15,475.16949152542327C195,475.16949152542327 195,480.12711864406776 375,480.12711864406776L375,537.9661016949152C195,537.9661016949152 195,533.0084745762707 15,533.0084745762707Z" style="stroke: rgb(68, 68, 68); stroke-opacity: 1; fill: rgb(99, 110, 250); fill-opacity: 0.6; stroke-width: 0; opacity: 1;"/><path class="sankey-link" d="M15,533.0084745762707C195,533.0084745762707 195,643.8559322033897 375,643.8559322033897L375,655.4237288135593C195,655.4237288135593 195,544.5762711864403 15,544.5762711864403Z" style="stroke: rgb(68, 68, 68); stroke-opacity: 1; fill: rgb(255, 151, 255); fill-opacity: 0.6; stroke-width: 0; opacity: 1;"/><path class="sankey-link" d="M15,473.51694915254194C195,473.51694915254194 195,441.99152542372883 375,441.99152542372883L375,443.6440677966102C195,443.6440677966102 195,475.1694915254233 15,475.1694915254233Z" style="stroke: rgb(68, 68, 68); stroke-opacity: 1; fill: rgb(182, 232, 128); fill-opacity: 0.6; stroke-width: 0; opacity: 1;"/><path class="sankey-link" d="M15,595.9322033898308C195,595.9322033898308 195,322.62711864406754 375,322.62711864406754L375,332.5423728813556C195,332.5423728813556 195,605.8474576271188 15,605.8474576271188Z" style="stroke: rgb(68, 68, 68); stroke-opacity: 1; fill: rgb(0, 204, 150); fill-opacity: 0.6; stroke-width: 0; opacity: 1;"/><path class="sankey-link" d="M15,587.669491525424C195,587.669491525424 195,224.99999999999966 375,224.99999999999966L375,233.2627118644064C195,233.2627118644064 195,595.9322033898308 15,595.9322033898308Z" style="stroke: rgb(68, 68, 68); stroke-opacity: 1; fill: rgb(239, 85, 59); fill-opacity: 0.6; stroke-width: 0; opacity: 1;"/><path class="sankey-link" d="M15,676.9067796610171C195,676.9067796610171 195,698.5169491525425 375,698.5169491525425L375,711.7372881355933C195,711.7372881355933 195,690.127118644068 15,690.127118644068Z" style="stroke: rgb(68, 68, 68); stroke-opacity: 1; fill: rgb(254, 203, 82); fill-opacity: 0.6; stroke-width: 0; opacity: 1;"/><path class="sankey-link" d="M15,572.7966101694917C195,572.7966101694917 195,133.98305084745715 375,133.98305084745715L375,148.85593220338933C195,148.85593220338933 195,587.6694915254238 15,587.6694915254238Z" style="stroke: rgb(68, 68, 68); stroke-opacity: 1; fill: rgb(171, 99, 250); fill-opacity: 0.6; stroke-width: 0; opacity: 1;"/><path class="sankey-link" d="M15,607.5000000000002C195,607.5000000000002 195,537.9661016949152 375,537.9661016949152L375,595.8050847457627C195,595.8050847457627 195,665.3389830508477 15,665.3389830508477Z" style="stroke: rgb(68, 68, 68); stroke-opacity: 1; fill: rgb(99, 110, 250); fill-opacity: 0.6; stroke-width: 0; opacity: 1;"/><path class="sankey-link" d="M15,665.3389830508477C195,665.3389830508477 195,655.4237288135591 375,655.4237288135591L375,666.9915254237287C195,666.9915254237287 195,676.9067796610173 15,676.9067796610173Z" style="stroke: rgb(68, 68, 68); stroke-opacity: 1; fill: rgb(255, 151, 255); fill-opacity: 0.6; stroke-width: 0; opacity: 1;"/><path class="sankey-link" d="M15,605.8474576271188C195,605.8474576271188 195,443.64406779661016 375,443.64406779661016L375,445.29661016949154C195,445.29661016949154 195,607.5000000000001 15,607.5000000000001Z" style="stroke: rgb(68, 68, 68); stroke-opacity: 1; fill: rgb(182, 232, 128); fill-opacity: 0.6; stroke-width: 0; opacity: 1;"/><path class="sankey-link" d="M390,-4.263256414560601e-13C570,-4.263256414560601e-13 570,170.97457627118675 750,170.97457627118675L750,180.8898305084749C570,180.8898305084749 570,9.915254237287709 390,9.915254237287709Z" style="stroke: rgb(68, 68, 68); stroke-opacity: 1; fill: rgb(25, 211, 243); fill-opacity: 0.6; stroke-width: 0; opacity: 1;"/><path class="sankey-link" d="M390,9.915254237287709C570,9.915254237287709 570,380.97457627118655 750,380.97457627118655L750,389.23728813559336C570,389.23728813559336 570,18.17796610169449 390,18.17796610169449Z" style="stroke: rgb(68, 68, 68); stroke-opacity: 1; fill: rgb(25, 211, 243); fill-opacity: 0.6; stroke-width: 0; opacity: 1;"/><path class="sankey-link" d="M390,251.5677966101692C570,251.5677966101692 570,246.99152542372914 750,246.99152542372914L750,276.73728813559353C570,276.73728813559353 570,281.3135593220336 390,281.3135593220336Z" style="stroke: rgb(68, 68, 68); stroke-opacity: 1; fill: rgb(0, 204, 150); fill-opacity: 0.6; stroke-width: 0; opacity: 1;"/><path class="sankey-link" d="M390,311.05932203389807C570,311.05932203389807 570,604.1949152542373 750,604.1949152542373L750,607.5000000000001C570,607.5000000000001 570,314.3644067796607 390,314.3644067796607Z" style="stroke: rgb(68, 68, 68); stroke-opacity: 1; fill: rgb(0, 204, 150); fill-opacity: 0.6; stroke-width: 0; opacity: 1;"/><path class="sankey-link" d="M390,281.31355932203365C570,281.31355932203365 570,461.94915254237293 750,461.94915254237293L750,491.6949152542373C570,491.6949152542373 570,311.059322033898 390,311.059322033898Z" style="stroke: rgb(68, 68, 68); stroke-opacity: 1; fill: rgb(0, 204, 150); fill-opacity: 0.6; stroke-width: 0; opacity: 1;"/><path class="sankey-link" d="M390,314.3644067796608C570,314.3644067796608 570,678.6864406779662 750,678.6864406779662L750,681.991525423729C570,681.991525423729 570,317.66949152542344 390,317.66949152542344Z" style="stroke: rgb(68, 68, 68); stroke-opacity: 1; fill: rgb(0, 204, 150); fill-opacity: 0.6; stroke-width: 0; opacity: 1;"/><path class="sankey-link" d="M390,165.50847457627083C570,165.50847457627083 570,215.59322033898337 750,215.59322033898337L750,246.99152542372912C570,246.99152542372912 570,196.90677966101657 390,196.90677966101657Z" style="stroke: rgb(68, 68, 68); stroke-opacity: 1; fill: rgb(239, 85, 59); fill-opacity: 0.6; stroke-width: 0; opacity: 1;"/><path class="sankey-link" d="M390,228.30508474576237C570,228.30508474576237 570,599.2372881355933 750,599.2372881355933L750,604.1949152542373C570,604.1949152542373 570,233.2627118644064 390,233.2627118644064Z" style="stroke: rgb(68, 68, 68); stroke-opacity: 1; fill: rgb(239, 85, 59); fill-opacity: 0.6; stroke-width: 0; opacity: 1;"/><path class="sankey-link" d="M390,196.9067796610166C570,196.9067796610166 570,430.5508474576272 750,430.5508474576272L750,461.94915254237293C570,461.94915254237293 570,228.30508474576234 390,228.30508474576234Z" style="stroke: rgb(68, 68, 68); stroke-opacity: 1; fill: rgb(239, 85, 59); fill-opacity: 0.6; stroke-width: 0; opacity: 1;"/><path class="sankey-link" d="M390,233.26271186440644C570,233.26271186440644 570,675.3813559322035 750,675.3813559322035L750,678.6864406779663C570,678.6864406779663 570,236.56779661016915 390,236.56779661016915Z" style="stroke: rgb(68, 68, 68); stroke-opacity: 1; fill: rgb(239, 85, 59); fill-opacity: 0.6; stroke-width: 0; opacity: 1;"/><path class="sankey-link" d="M390,685.2966101694916C570,685.2966101694916 570,352.75423728813587 750,352.75423728813587L750,365.9745762711867C570,365.9745762711867 570,698.5169491525425 390,698.5169491525425Z" style="stroke: rgb(68, 68, 68); stroke-opacity: 1; fill: rgb(254, 203, 82); fill-opacity: 0.6; stroke-width: 0; opacity: 1;"/><path class="sankey-link" d="M390,706.7796610169493C570,706.7796610169493 570,643.8559322033898 750,643.8559322033898L750,653.7711864406779C570,653.7711864406779 570,716.6949152542373 390,716.6949152542373Z" style="stroke: rgb(68, 68, 68); stroke-opacity: 1; fill: rgb(254, 203, 82); fill-opacity: 0.6; stroke-width: 0; opacity: 1;"/><path class="sankey-link" d="M390,698.5169491525425C570,698.5169491525425 570,572.6694915254236 750,572.6694915254236L750,580.9322033898304C570,580.9322033898304 570,706.7796610169493 390,706.7796610169493Z" style="stroke: rgb(68, 68, 68); stroke-opacity: 1; fill: rgb(254, 203, 82); fill-opacity: 0.6; stroke-width: 0; opacity: 1;"/><path class="sankey-link" d="M390,716.6949152542373C570,716.6949152542373 570,716.6949152542373 750,716.6949152542373L750,720.0000000000001C570,720.0000000000001 570,720.0000000000001 390,720.0000000000001Z" style="stroke: rgb(68, 68, 68); stroke-opacity: 1; fill: rgb(254, 203, 82); fill-opacity: 0.6; stroke-width: 0; opacity: 1;"/><path class="sankey-link" d="M390,352.49999999999994C570,352.49999999999994 570,276.73728813559353 750,276.73728813559353L750,288.305084745763C570,288.305084745763 570,364.0677966101694 390,364.0677966101694Z" style="stroke: rgb(68, 68, 68); stroke-opacity: 1; fill: rgb(255, 161, 90); fill-opacity: 0.6; stroke-width: 0; opacity: 1;"/><path class="sankey-link" d="M390,364.0677966101694C570,364.0677966101694 570,491.69491525423734 750,491.69491525423734L750,504.9152542372882C570,504.9152542372882 570,377.28813559322026 390,377.28813559322026Z" style="stroke: rgb(68, 68, 68); stroke-opacity: 1; fill: rgb(255, 161, 90); fill-opacity: 0.6; stroke-width: 0; opacity: 1;"/><path class="sankey-link" d="M390,377.28813559322026C570,377.28813559322026 570,681.9915254237288 750,681.9915254237288L750,683.6440677966101C570,683.6440677966101 570,378.94067796610165 390,378.94067796610165Z" style="stroke: rgb(68, 68, 68); stroke-opacity: 1; fill: rgb(255, 161, 90); fill-opacity: 0.6; stroke-width: 0; opacity: 1;"/><path class="sankey-link" d="M390,43.093220338982576C570,43.093220338982576 570,180.8898305084749 750,180.8898305084749L750,215.59322033898334C570,215.59322033898334 570,77.79661016949106 390,77.79661016949106Z" style="stroke: rgb(68, 68, 68); stroke-opacity: 1; fill: rgb(171, 99, 250); fill-opacity: 0.6; stroke-width: 0; opacity: 1;"/><path class="sankey-link" d="M390,119.11016949152496C570,119.11016949152496 570,595.9322033898306 750,595.9322033898306L750,599.2372881355934C570,599.2372881355934 570,122.41525423728767 390,122.41525423728767Z" style="stroke: rgb(68, 68, 68); stroke-opacity: 1; fill: rgb(171, 99, 250); fill-opacity: 0.6; stroke-width: 0; opacity: 1;"/><path class="sankey-link" d="M390,77.79661016949106C570,77.79661016949106 570,389.2372881355933 750,389.2372881355933L750,430.55084745762724C570,430.55084745762724 570,119.11016949152494 390,119.11016949152494Z" style="stroke: rgb(68, 68, 68); stroke-opacity: 1; fill: rgb(171, 99, 250); fill-opacity: 0.6; stroke-width: 0; opacity: 1;"/><path class="sankey-link" d="M390,122.41525423728767C570,122.41525423728767 570,668.7711864406781 750,668.7711864406781L750,675.3813559322034C570,675.3813559322034 570,129.02542372881308 390,129.02542372881308Z" style="stroke: rgb(68, 68, 68); stroke-opacity: 1; fill: rgb(171, 99, 250); fill-opacity: 0.6; stroke-width: 0; opacity: 1;"/><path class="sankey-link" d="M390,461.9491525423729C570,461.9491525423729 570,294.9152542372884 750,294.9152542372884L750,339.533898305085C570,339.533898305085 570,506.56779661016947 390,506.56779661016947Z" style="stroke: rgb(68, 68, 68); stroke-opacity: 1; fill: rgb(99, 110, 250); fill-opacity: 0.6; stroke-width: 0; opacity: 1;"/><path class="sankey-link" d="M390,549.5338983050847C570,549.5338983050847 570,607.5 750,607.5L750,637.2457627118645C570,637.2457627118645 570,579.2796610169491 390,579.2796610169491Z" style="stroke: rgb(68, 68, 68); stroke-opacity: 1; fill: rgb(99, 110, 250); fill-opacity: 0.6; stroke-width: 0; opacity: 1;"/><path class="sankey-link" d="M390,506.5677966101695C570,506.5677966101695 570,519.7881355932203 750,519.7881355932203L750,562.7542372881356C570,562.7542372881356 570,549.5338983050848 390,549.5338983050848Z" style="stroke: rgb(68, 68, 68); stroke-opacity: 1; fill: rgb(99, 110, 250); fill-opacity: 0.6; stroke-width: 0; opacity: 1;"/><path class="sankey-link" d="M390,579.279661016949C570,579.279661016949 570,686.9491525423729 750,686.9491525423729L750,708.4322033898305C570,708.4322033898305 570,600.7627118644067 390,600.7627118644067Z" style="stroke: rgb(68, 68, 68); stroke-opacity: 1; fill: rgb(99, 110, 250); fill-opacity: 0.6; stroke-width: 0; opacity: 1;"/><path class="sankey-link" d="M390,615.7627118644066C570,615.7627118644066 570,339.533898305085 750,339.533898305085L750,352.75423728813587C570,352.75423728813587 570,628.9830508474574 390,628.9830508474574Z" style="stroke: rgb(68, 68, 68); stroke-opacity: 1; fill: rgb(255, 151, 255); fill-opacity: 0.6; stroke-width: 0; opacity: 1;"/><path class="sankey-link" d="M390,638.8983050847455C570,638.8983050847455 570,637.2457627118644 750,637.2457627118644L750,643.8559322033897C570,643.8559322033897 570,645.5084745762708 390,645.5084745762708Z" style="stroke: rgb(68, 68, 68); stroke-opacity: 1; fill: rgb(255, 151, 255); fill-opacity: 0.6; stroke-width: 0; opacity: 1;"/><path class="sankey-link" d="M390,628.9830508474574C570,628.9830508474574 570,562.7542372881355 750,562.7542372881355L750,572.6694915254236C570,572.6694915254236 570,638.8983050847455 390,638.8983050847455Z" style="stroke: rgb(68, 68, 68); stroke-opacity: 1; fill: rgb(255, 151, 255); fill-opacity: 0.6; stroke-width: 0; opacity: 1;"/><path class="sankey-link" d="M390,645.5084745762709C570,645.5084745762709 570,708.4322033898305 750,708.4322033898305L750,716.6949152542373C570,716.6949152542373 570,653.7711864406778 390,653.7711864406778Z" style="stroke: rgb(68, 68, 68); stroke-opacity: 1; fill: rgb(255, 151, 255); fill-opacity: 0.6; stroke-width: 0; opacity: 1;"/><path class="sankey-link" d="M390,423.81355932203394C570,423.81355932203394 570,291.6101694915257 750,291.6101694915257L750,294.91525423728837C570,294.91525423728837 570,427.1186440677966 390,427.1186440677966Z" style="stroke: rgb(68, 68, 68); stroke-opacity: 1; fill: rgb(182, 232, 128); fill-opacity: 0.6; stroke-width: 0; opacity: 1;"/><path class="sankey-link" d="M390,427.11864406779665C570,427.11864406779665 570,509.87288135593224 750,509.87288135593224L750,519.7881355932203C570,519.7881355932203 570,437.03389830508473 390,437.03389830508473Z" style="stroke: rgb(68, 68, 68); stroke-opacity: 1; fill: rgb(182, 232, 128); fill-opacity: 0.6; stroke-width: 0; opacity: 1;"/><path class="sankey-link" d="M390,437.0338983050848C570,437.0338983050848 570,683.6440677966102 750,683.6440677966102L750,686.949152542373C570,686.949152542373 570,440.33898305084745 390,440.33898305084745Z" style="stroke: rgb(68, 68, 68); stroke-opacity: 1; fill: rgb(182, 232, 128); fill-opacity: 0.6; stroke-width: 0; opacity: 1;"/><path class="sankey-link" d="M390,400.5508474576271C570,400.5508474576271 570,288.305084745763 750,288.305084745763L750,291.61016949152565C570,291.61016949152565 570,403.8559322033898 390,403.8559322033898Z" style="stroke: rgb(68, 68, 68); stroke-opacity: 1; fill: rgb(255, 102, 146); fill-opacity: 0.6; stroke-width: 0; opacity: 1;"/><path class="sankey-link" d="M390,403.85593220338984C570,403.85593220338984 570,504.9152542372882 750,504.9152542372882L750,509.87288135593224C570,509.87288135593224 570,408.8135593220339 390,408.8135593220339Z" style="stroke: rgb(68, 68, 68); stroke-opacity: 1; fill: rgb(255, 102, 146); fill-opacity: 0.6; stroke-width: 0; opacity: 1;"/><path class="sankey-link" d="M765,170.97457627118675C945,170.97457627118675 945,110.97457627118621 1125,110.97457627118621L1125,115.93220338983028C945,115.93220338983028 945,175.9322033898308 765,175.9322033898308Z" style="stroke: rgb(68, 68, 68); stroke-opacity: 1; fill: rgb(25, 211, 243); fill-opacity: 0.6; stroke-width: 0; opacity: 1;"/><path class="sankey-link" d="M765,271.7796610169495C945,271.7796610169495 945,226.77966101694898 1125,226.77966101694898L1125,231.73728813559302C945,231.73728813559302 945,276.73728813559353 765,276.73728813559353Z" style="stroke: rgb(68, 68, 68); stroke-opacity: 1; fill: rgb(25, 211, 243); fill-opacity: 0.6; stroke-width: 0; opacity: 1;"/><path class="sankey-link" d="M765,480.1271186440679C945,480.1271186440679 945,450.1271186440678 1125,450.1271186440678L1125,455.08474576271186C945,455.08474576271186 945,485.0847457627119 765,485.0847457627119Z" style="stroke: rgb(68, 68, 68); stroke-opacity: 1; fill: rgb(25, 211, 243); fill-opacity: 0.6; stroke-width: 0; opacity: 1;"/><path class="sankey-link" d="M765,380.97457627118655C945,380.97457627118655 945,335.97457627118644 1125,335.97457627118644L1125,339.2796610169491C945,339.2796610169491 945,384.2796610169492 765,384.2796610169492Z" style="stroke: rgb(68, 68, 68); stroke-opacity: 1; fill: rgb(25, 211, 243); fill-opacity: 0.6; stroke-width: 0; opacity: 1;"/><path class="sankey-link" d="M765,175.93220338983082C945,175.93220338983082 945,115.93220338983028 1125,115.93220338983028L1125,137.4152542372879C945,137.4152542372879 945,197.41525423728842 765,197.41525423728842Z" style="stroke: rgb(68, 68, 68); stroke-opacity: 1; fill: rgb(0, 204, 150); fill-opacity: 0.6; stroke-width: 0; opacity: 1;"/><path class="sankey-link" d="M765,276.73728813559353C945,276.73728813559353 945,231.73728813559305 1125,231.73728813559305L1125,239.9999999999998C945,239.9999999999998 945,285.00000000000034 765,285.00000000000034Z" style="stroke: rgb(68, 68, 68); stroke-opacity: 1; fill: rgb(0, 204, 150); fill-opacity: 0.6; stroke-width: 0; opacity: 1;"/><path class="sankey-link" d="M765,595.9322033898306C945,595.9322033898306 945,565.9322033898304 1125,565.9322033898304L1125,567.5847457627117C945,567.5847457627117 945,597.5847457627119 765,597.5847457627119Z" style="stroke: rgb(68, 68, 68); stroke-opacity: 1; fill: rgb(0, 204, 150); fill-opacity: 0.6; stroke-width: 0; opacity: 1;"/><path class="sankey-link" d="M765,625.677966101695C945,625.677966101695 945,610.6779661016949 1125,610.6779661016949L1125,612.3305084745762C945,612.3305084745762 945,627.3305084745763 765,627.3305084745763Z" style="stroke: rgb(68, 68, 68); stroke-opacity: 1; fill: rgb(0, 204, 150); fill-opacity: 0.6; stroke-width: 0; opacity: 1;"/><path class="sankey-link" d="M765,485.0847457627119C945,485.0847457627119 945,455.08474576271186 1125,455.08474576271186L1125,464.99999999999994C945,464.99999999999994 945,495 765,495Z" style="stroke: rgb(68, 68, 68); stroke-opacity: 1; fill: rgb(0, 204, 150); fill-opacity: 0.6; stroke-width: 0; opacity: 1;"/><path class="sankey-link" d="M765,384.27966101694926C945,384.27966101694926 945,339.27966101694915 1125,339.27966101694915L1125,359.1101694915254C945,359.1101694915254 945,404.11016949152554 765,404.11016949152554Z" style="stroke: rgb(68, 68, 68); stroke-opacity: 1; fill: rgb(0, 204, 150); fill-opacity: 0.6; stroke-width: 0; opacity: 1;"/><path class="sankey-link" d="M765,668.7711864406781C945,668.7711864406781 945,653.771186440678 1125,653.771186440678L1125,657.0762711864407C945,657.0762711864407 945,672.0762711864409 765,672.0762711864409Z" style="stroke: rgb(68, 68, 68); stroke-opacity: 1; fill: rgb(0, 204, 150); fill-opacity: 0.6; stroke-width: 0; opacity: 1;"/><path class="sankey-link" d="M765,197.41525423728845C945,197.41525423728845 945,137.4152542372879 1125,137.4152542372879L1125,150.63559322033876C945,150.63559322033876 945,210.6355932203393 765,210.6355932203393Z" style="stroke: rgb(68, 68, 68); stroke-opacity: 1; fill: rgb(239, 85, 59); fill-opacity: 0.6; stroke-width: 0; opacity: 1;"/><path class="sankey-link" d="M765,285.0000000000003C945,285.0000000000003 945,239.99999999999983 1125,239.99999999999983L1125,258.1779661016947C945,258.1779661016947 945,303.1779661016952 765,303.1779661016952Z" style="stroke: rgb(68, 68, 68); stroke-opacity: 1; fill: rgb(239, 85, 59); fill-opacity: 0.6; stroke-width: 0; opacity: 1;"/><path class="sankey-link" d="M765,597.584745762712C945,597.584745762712 945,567.5847457627118 1125,567.5847457627118L1125,569.2372881355931C945,569.2372881355931 945,599.2372881355933 765,599.2372881355933Z" style="stroke: rgb(68, 68, 68); stroke-opacity: 1; fill: rgb(239, 85, 59); fill-opacity: 0.6; stroke-width: 0; opacity: 1;"/><path class="sankey-link" d="M765,627.3305084745764C945,627.3305084745764 945,612.3305084745763 1125,612.3305084745763L1125,615.635593220339C945,615.635593220339 945,630.6355932203392 765,630.6355932203392Z" style="stroke: rgb(68, 68, 68); stroke-opacity: 1; fill: rgb(239, 85, 59); fill-opacity: 0.6; stroke-width: 0; opacity: 1;"/><path class="sankey-link" d="M765,495.00000000000006C945,495.00000000000006 945,465 1125,465L1125,481.5254237288135C945,481.5254237288135 945,511.52542372881356 765,511.52542372881356Z" style="stroke: rgb(68, 68, 68); stroke-opacity: 1; fill: rgb(239, 85, 59); fill-opacity: 0.6; stroke-width: 0; opacity: 1;"/><path class="sankey-link" d="M765,404.11016949152554C945,404.11016949152554 945,359.1101694915254 1125,359.1101694915254L1125,373.98305084745766C945,373.98305084745766 945,418.9830508474578 765,418.9830508474578Z" style="stroke: rgb(68, 68, 68); stroke-opacity: 1; fill: rgb(239, 85, 59); fill-opacity: 0.6; stroke-width: 0; opacity: 1;"/><path class="sankey-link" d="M765,695.2118644067797C945,695.2118644067797 945,695.2118644067797 1125,695.2118644067797L1125,696.864406779661C945,696.864406779661 945,696.864406779661 765,696.864406779661Z" style="stroke: rgb(68, 68, 68); stroke-opacity: 1; fill: rgb(239, 85, 59); fill-opacity: 0.6; stroke-width: 0; opacity: 1;"/><path class="sankey-link" d="M765,672.0762711864407C945,672.0762711864407 945,657.0762711864406 1125,657.0762711864406L1125,658.7288135593219C945,658.7288135593219 945,673.728813559322 765,673.728813559322Z" style="stroke: rgb(68, 68, 68); stroke-opacity: 1; fill: rgb(239, 85, 59); fill-opacity: 0.6; stroke-width: 0; opacity: 1;"/><path class="sankey-link" d="M765,210.6355932203393C945,210.6355932203393 945,150.63559322033876 1125,150.63559322033876L1125,157.2457627118642C945,157.2457627118642 945,217.24576271186473 765,217.24576271186473Z" style="stroke: rgb(68, 68, 68); stroke-opacity: 1; fill: rgb(254, 203, 82); fill-opacity: 0.6; stroke-width: 0; opacity: 1;"/><path class="sankey-link" d="M765,303.1779661016952C945,303.1779661016952 945,258.1779661016947 1125,258.1779661016947L1125,264.78813559322015C945,264.78813559322015 945,309.7881355932206 765,309.7881355932206Z" style="stroke: rgb(68, 68, 68); stroke-opacity: 1; fill: rgb(254, 203, 82); fill-opacity: 0.6; stroke-width: 0; opacity: 1;"/><path class="sankey-link" d="M765,599.2372881355934C945,599.2372881355934 945,569.2372881355932 1125,569.2372881355932L1125,575.8474576271185C945,575.8474576271185 945,605.8474576271187 765,605.8474576271187Z" style="stroke: rgb(68, 68, 68); stroke-opacity: 1; fill: rgb(254, 203, 82); fill-opacity: 0.6; stroke-width: 0; opacity: 1;"/><path class="sankey-link" d="M765,630.635593220339C945,630.635593220339 945,615.6355932203389 1125,615.6355932203389L1125,618.9406779661017C945,618.9406779661017 945,633.9406779661018 765,633.9406779661018Z" style="stroke: rgb(68, 68, 68); stroke-opacity: 1; fill: rgb(254, 203, 82); fill-opacity: 0.6; stroke-width: 0; opacity: 1;"/><path class="sankey-link" d="M765,511.52542372881356C945,511.52542372881356 945,481.52542372881356 1125,481.52542372881356L1125,483.17796610169495C945,483.17796610169495 945,513.1779661016949 765,513.1779661016949Z" style="stroke: rgb(68, 68, 68); stroke-opacity: 1; fill: rgb(254, 203, 82); fill-opacity: 0.6; stroke-width: 0; opacity: 1;"/><path class="sankey-link" d="M765,418.9830508474577C945,418.9830508474577 945,373.9830508474576 1125,373.9830508474576L1125,380.59322033898303C945,380.59322033898303 945,425.59322033898314 765,425.59322033898314Z" style="stroke: rgb(68, 68, 68); stroke-opacity: 1; fill: rgb(254, 203, 82); fill-opacity: 0.6; stroke-width: 0; opacity: 1;"/><path class="sankey-link" d="M765,696.8644067796611C945,696.8644067796611 945,696.8644067796611 1125,696.8644067796611L1125,700.1694915254238C945,700.1694915254238 945,700.1694915254238 765,700.1694915254238Z" style="stroke: rgb(68, 68, 68); stroke-opacity: 1; fill: rgb(254, 203, 82); fill-opacity: 0.6; stroke-width: 0; opacity: 1;"/><path class="sankey-link" d="M765,217.24576271186473C945,217.24576271186473 945,157.2457627118642 1125,157.2457627118642L1125,165.50847457627094C945,165.50847457627094 945,225.50847457627148 765,225.50847457627148Z" style="stroke: rgb(68, 68, 68); stroke-opacity: 1; fill: rgb(255, 161, 90); fill-opacity: 0.6; stroke-width: 0; opacity: 1;"/><path class="sankey-link" d="M765,309.7881355932206C945,309.7881355932206 945,264.78813559322015 1125,264.78813559322015L1125,268.0932203389828C945,268.0932203389828 945,313.09322033898326 765,313.09322033898326Z" style="stroke: rgb(68, 68, 68); stroke-opacity: 1; fill: rgb(255, 161, 90); fill-opacity: 0.6; stroke-width: 0; opacity: 1;"/><path class="sankey-link" d="M765,513.177966101695C945,513.177966101695 945,483.1779661016949 1125,483.1779661016949L1125,488.13559322033893C945,488.13559322033893 945,518.135593220339 765,518.135593220339Z" style="stroke: rgb(68, 68, 68); stroke-opacity: 1; fill: rgb(255, 161, 90); fill-opacity: 0.6; stroke-width: 0; opacity: 1;"/><path class="sankey-link" d="M765,425.59322033898314C945,425.59322033898314 945,380.59322033898303 1125,380.59322033898303L1125,388.85593220338984C945,388.85593220338984 945,433.85593220338995 765,433.85593220338995Z" style="stroke: rgb(68, 68, 68); stroke-opacity: 1; fill: rgb(255, 161, 90); fill-opacity: 0.6; stroke-width: 0; opacity: 1;"/><path class="sankey-link" d="M765,673.7288135593221C945,673.7288135593221 945,658.728813559322 1125,658.728813559322L1125,660.3813559322033C945,660.3813559322033 945,675.3813559322034 765,675.3813559322034Z" style="stroke: rgb(68, 68, 68); stroke-opacity: 1; fill: rgb(255, 161, 90); fill-opacity: 0.6; stroke-width: 0; opacity: 1;"/><path class="sankey-link" d="M765,225.5084745762715C945,225.5084745762715 945,165.50847457627097 1125,165.50847457627097L1125,178.72881355932182C945,178.72881355932182 945,238.72881355932236 765,238.72881355932236Z" style="stroke: rgb(68, 68, 68); stroke-opacity: 1; fill: rgb(171, 99, 250); fill-opacity: 0.6; stroke-width: 0; opacity: 1;"/><path class="sankey-link" d="M765,313.0932203389833C945,313.0932203389833 945,268.09322033898286 1125,268.09322033898286L1125,289.5762711864405C945,289.5762711864405 945,334.576271186441 765,334.576271186441Z" style="stroke: rgb(68, 68, 68); stroke-opacity: 1; fill: rgb(171, 99, 250); fill-opacity: 0.6; stroke-width: 0; opacity: 1;"/><path class="sankey-link" d="M765,605.8474576271188C945,605.8474576271188 945,575.8474576271186 1125,575.8474576271186L1125,579.1525423728814C945,579.1525423728814 945,609.1525423728816 765,609.1525423728816Z" style="stroke: rgb(68, 68, 68); stroke-opacity: 1; fill: rgb(171, 99, 250); fill-opacity: 0.6; stroke-width: 0; opacity: 1;"/><path class="sankey-link" d="M765,518.135593220339C945,518.135593220339 945,488.13559322033893 1125,488.13559322033893L1125,509.6186440677966C945,509.6186440677966 945,539.6186440677967 765,539.6186440677967Z" style="stroke: rgb(68, 68, 68); stroke-opacity: 1; fill: rgb(171, 99, 250); fill-opacity: 0.6; stroke-width: 0; opacity: 1;"/><path class="sankey-link" d="M765,433.8559322033899C945,433.8559322033899 945,388.8559322033898 1125,388.8559322033898L1125,408.68644067796606C945,408.68644067796606 945,453.6864406779662 765,453.6864406779662Z" style="stroke: rgb(68, 68, 68); stroke-opacity: 1; fill: rgb(171, 99, 250); fill-opacity: 0.6; stroke-width: 0; opacity: 1;"/><path class="sankey-link" d="M765,700.1694915254237C945,700.1694915254237 945,700.1694915254237 1125,700.1694915254237L1125,703.4745762711865C945,703.4745762711865 945,703.4745762711865 765,703.4745762711865Z" style="stroke: rgb(68, 68, 68); stroke-opacity: 1; fill: rgb(171, 99, 250); fill-opacity: 0.6; stroke-width: 0; opacity: 1;"/><path class="sankey-link" d="M765,675.3813559322035C945,675.3813559322035 945,660.3813559322034 1125,660.3813559322034L1125,663.6864406779662C945,663.6864406779662 945,678.6864406779663 765,678.6864406779663Z" style="stroke: rgb(68, 68, 68); stroke-opacity: 1; fill: rgb(171, 99, 250); fill-opacity: 0.6; stroke-width: 0; opacity: 1;"/><path class="sankey-link" d="M765,238.72881355932236C945,238.72881355932236 945,178.72881355932182 1125,178.72881355932182L1125,201.8644067796608C945,201.8644067796608 945,261.86440677966135 765,261.86440677966135Z" style="stroke: rgb(68, 68, 68); stroke-opacity: 1; fill: rgb(99, 110, 250); fill-opacity: 0.6; stroke-width: 0; opacity: 1;"/><path class="sankey-link" d="M765,334.5762711864409C945,334.5762711864409 945,289.57627118644047 1125,289.57627118644047L1125,311.0593220338981C945,311.0593220338981 945,356.0593220338986 765,356.0593220338986Z" style="stroke: rgb(68, 68, 68); stroke-opacity: 1; fill: rgb(99, 110, 250); fill-opacity: 0.6; stroke-width: 0; opacity: 1;"/><path class="sankey-link" d="M765,609.1525423728815C945,609.1525423728815 945,579.1525423728813 1125,579.1525423728813L1125,590.7203389830509C945,590.7203389830509 945,620.7203389830511 765,620.7203389830511Z" style="stroke: rgb(68, 68, 68); stroke-opacity: 1; fill: rgb(99, 110, 250); fill-opacity: 0.6; stroke-width: 0; opacity: 1;"/><path class="sankey-link" d="M765,633.9406779661017C945,633.9406779661017 945,618.9406779661016 1125,618.9406779661016L1125,637.1186440677965C945,637.1186440677965 945,652.1186440677966 765,652.1186440677966Z" style="stroke: rgb(68, 68, 68); stroke-opacity: 1; fill: rgb(99, 110, 250); fill-opacity: 0.6; stroke-width: 0; opacity: 1;"/><path class="sankey-link" d="M765,539.6186440677967C945,539.6186440677967 945,509.6186440677966 1125,509.6186440677966L1125,532.7542372881355C945,532.7542372881355 945,562.7542372881356 765,562.7542372881356Z" style="stroke: rgb(68, 68, 68); stroke-opacity: 1; fill: rgb(99, 110, 250); fill-opacity: 0.6; stroke-width: 0; opacity: 1;"/><path class="sankey-link" d="M765,453.6864406779662C945,453.6864406779662 945,408.68644067796606 1125,408.68644067796606L1125,428.51694915254234C945,428.51694915254234 945,473.51694915254245 765,473.51694915254245Z" style="stroke: rgb(68, 68, 68); stroke-opacity: 1; fill: rgb(99, 110, 250); fill-opacity: 0.6; stroke-width: 0; opacity: 1;"/><path class="sankey-link" d="M765,703.4745762711864C945,703.4745762711864 945,703.4745762711864 1125,703.4745762711864L1125,715.042372881356C945,715.042372881356 945,715.042372881356 765,715.042372881356Z" style="stroke: rgb(68, 68, 68); stroke-opacity: 1; fill: rgb(99, 110, 250); fill-opacity: 0.6; stroke-width: 0; opacity: 1;"/><path class="sankey-link" d="M765,678.6864406779662C945,678.6864406779662 945,663.6864406779661 1125,663.6864406779661L1125,673.6016949152541C945,673.6016949152541 945,688.6016949152543 765,688.6016949152543Z" style="stroke: rgb(68, 68, 68); stroke-opacity: 1; fill: rgb(99, 110, 250); fill-opacity: 0.6; stroke-width: 0; opacity: 1;"/><path class="sankey-link" d="M765,261.86440677966135C945,261.86440677966135 945,201.8644067796608 1125,201.8644067796608L1125,211.77966101694895C945,211.77966101694895 945,271.77966101694943 765,271.77966101694943Z" style="stroke: rgb(68, 68, 68); stroke-opacity: 1; fill: rgb(255, 151, 255); fill-opacity: 0.6; stroke-width: 0; opacity: 1;"/><path class="sankey-link" d="M765,356.0593220338985C945,356.0593220338985 945,311.05932203389807 1125,311.05932203389807L1125,314.3644067796607C945,314.3644067796607 945,359.3644067796612 765,359.3644067796612Z" style="stroke: rgb(68, 68, 68); stroke-opacity: 1; fill: rgb(255, 151, 255); fill-opacity: 0.6; stroke-width: 0; opacity: 1;"/><path class="sankey-link" d="M765,620.720338983051C945,620.720338983051 945,590.7203389830507 1125,590.7203389830507L1125,595.6779661016948C945,595.6779661016948 945,625.677966101695 765,625.677966101695Z" style="stroke: rgb(68, 68, 68); stroke-opacity: 1; fill: rgb(255, 151, 255); fill-opacity: 0.6; stroke-width: 0; opacity: 1;"/><path class="sankey-link" d="M765,652.1186440677966C945,652.1186440677966 945,637.1186440677965 1125,637.1186440677965L1125,638.7711864406778C945,638.7711864406778 945,653.7711864406779 765,653.7711864406779Z" style="stroke: rgb(68, 68, 68); stroke-opacity: 1; fill: rgb(255, 151, 255); fill-opacity: 0.6; stroke-width: 0; opacity: 1;"/><path class="sankey-link" d="M765,562.7542372881356C945,562.7542372881356 945,532.7542372881355 1125,532.7542372881355L1125,539.3644067796608C945,539.3644067796608 945,569.364406779661 765,569.364406779661Z" style="stroke: rgb(68, 68, 68); stroke-opacity: 1; fill: rgb(255, 151, 255); fill-opacity: 0.6; stroke-width: 0; opacity: 1;"/><path class="sankey-link" d="M765,473.51694915254245C945,473.51694915254245 945,428.51694915254234 1125,428.51694915254234L1125,431.822033898305C945,431.822033898305 945,476.8220338983051 765,476.8220338983051Z" style="stroke: rgb(68, 68, 68); stroke-opacity: 1; fill: rgb(255, 151, 255); fill-opacity: 0.6; stroke-width: 0; opacity: 1;"/><path class="sankey-link" d="M765,715.0423728813558C945,715.0423728813558 945,715.0423728813558 1125,715.0423728813558L1125,718.3474576271186C945,718.3474576271186 945,718.3474576271186 765,718.3474576271186Z" style="stroke: rgb(68, 68, 68); stroke-opacity: 1; fill: rgb(255, 151, 255); fill-opacity: 0.6; stroke-width: 0; opacity: 1;"/><path class="sankey-link" d="M765,688.6016949152543C945,688.6016949152543 945,673.6016949152541 1125,673.6016949152541L1125,678.5593220338982C945,678.5593220338982 945,693.5593220338983 765,693.5593220338983Z" style="stroke: rgb(68, 68, 68); stroke-opacity: 1; fill: rgb(255, 151, 255); fill-opacity: 0.6; stroke-width: 0; opacity: 1;"/><path class="sankey-link" d="M765,359.36440677966124C945,359.36440677966124 945,314.3644067796608 1125,314.3644067796608L1125,317.66949152542344C945,317.66949152542344 945,362.6694915254239 765,362.6694915254239Z" style="stroke: rgb(68, 68, 68); stroke-opacity: 1; fill: rgb(182, 232, 128); fill-opacity: 0.6; stroke-width: 0; opacity: 1;"/><path class="sankey-link" d="M765,569.3644067796611C945,569.3644067796611 945,539.364406779661 1125,539.364406779661L1125,545.9745762711863C945,545.9745762711863 945,575.9745762711864 765,575.9745762711864Z" style="stroke: rgb(68, 68, 68); stroke-opacity: 1; fill: rgb(182, 232, 128); fill-opacity: 0.6; stroke-width: 0; opacity: 1;"/><path class="sankey-link" d="M765,476.82203389830516C945,476.82203389830516 945,431.82203389830505 1125,431.82203389830505L1125,435.1271186440677C945,435.1271186440677 945,480.1271186440678 765,480.1271186440678Z" style="stroke: rgb(68, 68, 68); stroke-opacity: 1; fill: rgb(182, 232, 128); fill-opacity: 0.6; stroke-width: 0; opacity: 1;"/><path class="sankey-link" d="M765,718.3474576271185C945,718.3474576271185 945,718.3474576271185 1125,718.3474576271185L1125,719.9999999999998C945,719.9999999999998 945,719.9999999999998 765,719.9999999999998Z" style="stroke: rgb(68, 68, 68); stroke-opacity: 1; fill: rgb(182, 232, 128); fill-opacity: 0.6; stroke-width: 0; opacity: 1;"/><path class="sankey-link" d="M765,693.5593220338983C945,693.5593220338983 945,678.5593220338982 1125,678.5593220338982L1125,680.2118644067795C945,680.2118644067795 945,695.2118644067796 765,695.2118644067796Z" style="stroke: rgb(68, 68, 68); stroke-opacity: 1; fill: rgb(182, 232, 128); fill-opacity: 0.6; stroke-width: 0; opacity: 1;"/><path class="sankey-link" d="M765,362.66949152542395C945,362.66949152542395 945,317.6694915254235 1125,317.6694915254235L1125,320.97457627118615C945,320.97457627118615 945,365.9745762711866 765,365.9745762711866Z" style="stroke: rgb(68, 68, 68); stroke-opacity: 1; fill: rgb(255, 102, 146); fill-opacity: 0.6; stroke-width: 0; opacity: 1;"/><path class="sankey-link" d="M765,575.9745762711865C945,575.9745762711865 945,545.9745762711864 1125,545.9745762711864L1125,550.9322033898304C945,550.9322033898304 945,580.9322033898305 765,580.9322033898305Z" style="stroke: rgb(68, 68, 68); stroke-opacity: 1; fill: rgb(255, 102, 146); fill-opacity: 0.6; stroke-width: 0; opacity: 1;"/></g><g class="sankey-node-set" style="cursor: move;"><g class="sankey-node" transform="translate(0.000,362.669)" style="opacity: 1;"><rect class="node-rect" width="15" height="62.79661016949092" style="stroke-width: 0.5; stroke: rgb(0, 0, 0); stroke-opacity: 1; fill: rgb(128, 128, 128); fill-opacity: 1;"/><text class="node-label" data-notex="1" x="0" y="0" text-anchor="start" transform="translate(18.25,35.59830508474546)" style="cursor: default; font-family: 'Open Sans', verdana, arial, sans-serif; font-size: 12px; fill: rgb(42, 63, 95); fill-opacity: 1; white-space: pre; text-shadow: white 1px 1px 1px, white -1px -1px 1px, white 1px -1px 1px, white -1px 1px 1px;">21271R</text></g><g class="sankey-node" transform="translate(0.000,91.525)" style="opacity: 1;"><rect class="node-rect" width="15" height="256.1440677966102" style="stroke-width: 0.5; stroke: rgb(0, 0, 0); stroke-opacity: 1; fill: rgb(128, 128, 128); fill-opacity: 1;"/><text class="node-label" data-notex="1" x="0" y="0" text-anchor="start" transform="translate(18.25,132.2720338983051)" style="cursor: default; font-family: 'Open Sans', verdana, arial, sans-serif; font-size: 12px; fill: rgb(42, 63, 95); fill-opacity: 1; white-space: pre; text-shadow: white 1px 1px 1px, white -1px -1px 1px, white 1px -1px 1px, white -1px 1px 1px;">21272R</text></g><g class="sankey-node" transform="translate(0.000,705.127)" style="opacity: 1;"><rect class="node-rect" width="15" height="14.872881355932122" style="stroke-width: 0.5; stroke: rgb(0, 0, 0); stroke-opacity: 1; fill: rgb(128, 128, 128); fill-opacity: 1;"/><text class="node-label" data-notex="1" x="0" y="0" text-anchor="start" transform="translate(18.25,11.63644067796606)" style="cursor: default; font-family: 'Open Sans', verdana, arial, sans-serif; font-size: 12px; fill: rgb(42, 63, 95); fill-opacity: 1; white-space: pre; text-shadow: white 1px 1px 1px, white -1px -1px 1px, white 1px -1px 1px, white -1px 1px 1px;">21965RL</text></g><g class="sankey-node" transform="translate(0.000,440.466)" style="opacity: 1;"><rect class="node-rect" width="15" height="117.33050847457685" style="stroke-width: 0.5; stroke: rgb(0, 0, 0); stroke-opacity: 1; fill: rgb(128, 128, 128); fill-opacity: 1;"/><text class="node-label" data-notex="1" x="0" y="0" text-anchor="start" transform="translate(18.25,62.865254237288426)" style="cursor: default; font-family: 'Open Sans', verdana, arial, sans-serif; font-size: 12px; fill: rgb(42, 63, 95); fill-opacity: 1; white-space: pre; text-shadow: white 1px 1px 1px, white -1px -1px 1px, white 1px -1px 1px, white -1px 1px 1px;">22384</text></g><g class="sankey-node" transform="translate(0.000,572.797)" style="opacity: 1;"><rect class="node-rect" width="15" height="117.33050847457616" style="stroke-width: 0.5; stroke: rgb(0, 0, 0); stroke-opacity: 1; fill: rgb(128, 128, 128); fill-opacity: 1;"/><text class="node-label" data-notex="1" x="0" y="0" text-anchor="start" transform="translate(18.25,62.865254237288084)" style="cursor: default; font-family: 'Open Sans', verdana, arial, sans-serif; font-size: 12px; fill: rgb(42, 63, 95); fill-opacity: 1; white-space: pre; text-shadow: white 1px 1px 1px, white -1px -1px 1px, white 1px -1px 1px, white -1px 1px 1px;">22670</text></g><g class="sankey-node" transform="translate(750.000,170.975)" style="opacity: 1;"><rect class="node-rect" width="15" height="194.9999999999998" style="stroke-width: 0.5; stroke: rgb(0, 0, 0); stroke-opacity: 1; fill: rgb(128, 128, 128); fill-opacity: 1;"/><text class="node-label" data-notex="1" x="0" y="0" text-anchor="start" transform="translate(18.25,101.6999999999999)" style="cursor: default; font-family: 'Open Sans', verdana, arial, sans-serif; font-size: 12px; fill: rgb(42, 63, 95); fill-opacity: 1; white-space: pre; text-shadow: white 1px 1px 1px, white -1px -1px 1px, white 1px -1px 1px, white -1px 1px 1px;">dig</text></g><g class="sankey-node" transform="translate(750.000,380.975)" style="opacity: 1;"><rect class="node-rect" width="15" height="199.9576271186441" style="stroke-width: 0.5; stroke: rgb(0, 0, 0); stroke-opacity: 1; fill: rgb(128, 128, 128); fill-opacity: 1;"/><text class="node-label" data-notex="1" x="0" y="0" text-anchor="start" transform="translate(18.25,104.17881355932205)" style="cursor: default; font-family: 'Open Sans', verdana, arial, sans-serif; font-size: 12px; fill: rgb(42, 63, 95); fill-opacity: 1; white-space: pre; text-shadow: white 1px 1px 1px, white -1px -1px 1px, white 1px -1px 1px, white -1px 1px 1px;">move</text></g><g class="sankey-node" transform="translate(750.000,595.932)" style="opacity: 1;"><rect class="node-rect" width="15" height="57.838983050847446" style="stroke-width: 0.5; stroke: rgb(0, 0, 0); stroke-opacity: 1; fill: rgb(128, 128, 128); fill-opacity: 1;"/><text class="node-label" data-notex="1" x="0" y="0" text-anchor="start" transform="translate(18.25,33.119491525423726)" style="cursor: default; font-family: 'Open Sans', verdana, arial, sans-serif; font-size: 12px; fill: rgb(42, 63, 95); fill-opacity: 1; white-space: pre; text-shadow: white 1px 1px 1px, white -1px -1px 1px, white 1px -1px 1px, white -1px 1px 1px;">groom</text></g><g class="sankey-node" transform="translate(750.000,668.771)" style="opacity: 1;"><rect class="node-rect" width="15" height="51.22881355932191" style="stroke-width: 0.5; stroke: rgb(0, 0, 0); stroke-opacity: 1; fill: rgb(128, 128, 128); fill-opacity: 1;"/><text class="node-label" data-notex="1" x="0" y="0" text-anchor="start" transform="translate(18.25,29.814406779660953)" style="cursor: default; font-family: 'Open Sans', verdana, arial, sans-serif; font-size: 12px; fill: rgb(42, 63, 95); fill-opacity: 1; white-space: pre; text-shadow: white 1px 1px 1px, white -1px -1px 1px, white 1px -1px 1px, white -1px 1px 1px;">still</text></g><g class="sankey-node" transform="translate(1125.000,110.975)" style="opacity: 1;"><rect class="node-rect" width="15" height="100.80508474576277" style="stroke-width: 0.5; stroke: rgb(0, 0, 0); stroke-opacity: 1; fill: rgb(128, 128, 128); fill-opacity: 1;"/><text class="node-label" data-notex="1" x="0" y="0" text-anchor="end" transform="translate(-3.25,54.60254237288139)" style="cursor: default; font-family: 'Open Sans', verdana, arial, sans-serif; font-size: 12px; fill: rgb(42, 63, 95); fill-opacity: 1; white-space: pre; text-shadow: white 1px 1px 1px, white -1px -1px 1px, white 1px -1px 1px, white -1px 1px 1px;">dig-activated</text></g><g class="sankey-node" transform="translate(1125.000,335.975)" style="opacity: 1;"><rect class="node-rect" width="15" height="99.15254237288138" style="stroke-width: 0.5; stroke: rgb(0, 0, 0); stroke-opacity: 1; fill: rgb(128, 128, 128); fill-opacity: 1;"/><text class="node-label" data-notex="1" x="0" y="0" text-anchor="end" transform="translate(-3.25,53.776271186440695)" style="cursor: default; font-family: 'Open Sans', verdana, arial, sans-serif; font-size: 12px; fill: rgb(42, 63, 95); fill-opacity: 1; white-space: pre; text-shadow: white 1px 1px 1px, white -1px -1px 1px, white 1px -1px 1px, white -1px 1px 1px;">move-suppressed</text></g><g class="sankey-node" transform="translate(1125.000,226.780)" style="opacity: 1;"><rect class="node-rect" width="15" height="94.19491525423746" style="stroke-width: 0.5; stroke: rgb(0, 0, 0); stroke-opacity: 1; fill: rgb(128, 128, 128); fill-opacity: 1;"/><text class="node-label" data-notex="1" x="0" y="0" text-anchor="end" transform="translate(-3.25,51.29745762711873)" style="cursor: default; font-family: 'Open Sans', verdana, arial, sans-serif; font-size: 12px; fill: rgb(42, 63, 95); fill-opacity: 1; white-space: pre; text-shadow: white 1px 1px 1px, white -1px -1px 1px, white 1px -1px 1px, white -1px 1px 1px;">dig-suppressed</text></g><g class="sankey-node" transform="translate(1125.000,450.127)" style="opacity: 1;"><rect class="node-rect" width="15" height="100.8050847457626" style="stroke-width: 0.5; stroke: rgb(0, 0, 0); stroke-opacity: 1; fill: rgb(128, 128, 128); fill-opacity: 1;"/><text class="node-label" data-notex="1" x="0" y="0" text-anchor="end" transform="translate(-3.25,54.6025423728813)" style="cursor: default; font-family: 'Open Sans', verdana, arial, sans-serif; font-size: 12px; fill: rgb(42, 63, 95); fill-opacity: 1; white-space: pre; text-shadow: white 1px 1px 1px, white -1px -1px 1px, white 1px -1px 1px, white -1px 1px 1px;">move-activated</text></g><g class="sankey-node" transform="translate(1125.000,565.932)" style="opacity: 1;"><rect class="node-rect" width="15" height="29.745762711864472" style="stroke-width: 0.5; stroke: rgb(0, 0, 0); stroke-opacity: 1; fill: rgb(128, 128, 128); fill-opacity: 1;"/><text class="node-label" data-notex="1" x="0" y="0" text-anchor="end" transform="translate(-3.25,19.072881355932235)" style="cursor: default; font-family: 'Open Sans', verdana, arial, sans-serif; font-size: 12px; fill: rgb(42, 63, 95); fill-opacity: 1; white-space: pre; text-shadow: white 1px 1px 1px, white -1px -1px 1px, white 1px -1px 1px, white -1px 1px 1px;">groom-activated</text></g><g class="sankey-node" transform="translate(1125.000,653.771)" style="opacity: 1;"><rect class="node-rect" width="15" height="26.440677966101703" style="stroke-width: 0.5; stroke: rgb(0, 0, 0); stroke-opacity: 1; fill: rgb(128, 128, 128); fill-opacity: 1;"/><text class="node-label" data-notex="1" x="0" y="0" text-anchor="end" transform="translate(-3.25,17.42033898305085)" style="cursor: default; font-family: 'Open Sans', verdana, arial, sans-serif; font-size: 12px; fill: rgb(42, 63, 95); fill-opacity: 1; white-space: pre; text-shadow: white 1px 1px 1px, white -1px -1px 1px, white 1px -1px 1px, white -1px 1px 1px;">still-suppressed</text></g><g class="sankey-node" transform="translate(1125.000,695.212)" style="opacity: 1;"><rect class="node-rect" width="15" height="24.788135593220318" style="stroke-width: 0.5; stroke: rgb(0, 0, 0); stroke-opacity: 1; fill: rgb(128, 128, 128); fill-opacity: 1;"/><text class="node-label" data-notex="1" x="0" y="0" text-anchor="end" transform="translate(-3.25,16.594067796610158)" style="cursor: default; font-family: 'Open Sans', verdana, arial, sans-serif; font-size: 12px; fill: rgb(42, 63, 95); fill-opacity: 1; white-space: pre; text-shadow: white 1px 1px 1px, white -1px -1px 1px, white 1px -1px 1px, white -1px 1px 1px;">still-activated</text></g><g class="sankey-node" transform="translate(1125.000,610.678)" style="opacity: 1;"><rect class="node-rect" width="15" height="28.093220338983087" style="stroke-width: 0.5; stroke: rgb(0, 0, 0); stroke-opacity: 1; fill: rgb(128, 128, 128); fill-opacity: 1;"/><text class="node-label" data-notex="1" x="0" y="0" text-anchor="end" transform="translate(-3.25,18.246610169491543)" style="cursor: default; font-family: 'Open Sans', verdana, arial, sans-serif; font-size: 12px; fill: rgb(42, 63, 95); fill-opacity: 1; white-space: pre; text-shadow: white 1px 1px 1px, white -1px -1px 1px, white 1px -1px 1px, white -1px 1px 1px;">groom-suppressed</text></g><g class="sankey-node" transform="translate(375.000,461.949)" style="opacity: 1;"><rect class="node-rect" width="15" height="138.8135593220337" style="stroke-width: 0.5; stroke: rgb(0, 0, 0); stroke-opacity: 1; fill: rgb(99, 110, 250); fill-opacity: 1;"/><text class="node-label" data-notex="1" x="0" y="0" text-anchor="start" transform="translate(18.25,73.60677966101686)" style="cursor: default; font-family: 'Open Sans', verdana, arial, sans-serif; font-size: 12px; fill: rgb(42, 63, 95); fill-opacity: 1; white-space: pre; text-shadow: white 1px 1px 1px, white -1px -1px 1px, white 1px -1px 1px, white -1px 1px 1px;">VTA</text></g><g class="sankey-node" transform="translate(375.000,165.508)" style="opacity: 1;"><rect class="node-rect" width="15" height="71.05932203389841" style="stroke-width: 0.5; stroke: rgb(0, 0, 0); stroke-opacity: 1; fill: rgb(239, 85, 59); fill-opacity: 1;"/><text class="node-label" data-notex="1" x="0" y="0" text-anchor="start" transform="translate(18.25,39.72966101694921)" style="cursor: default; font-family: 'Open Sans', verdana, arial, sans-serif; font-size: 12px; fill: rgb(42, 63, 95); fill-opacity: 1; white-space: pre; text-shadow: white 1px 1px 1px, white -1px -1px 1px, white 1px -1px 1px, white -1px 1px 1px;">LC</text></g><g class="sankey-node" transform="translate(375.000,251.568)" style="opacity: 1;"><rect class="node-rect" width="15" height="85.9322033898307" style="stroke-width: 0.5; stroke: rgb(0, 0, 0); stroke-opacity: 1; fill: rgb(0, 204, 150); fill-opacity: 1;"/><text class="node-label" data-notex="1" x="0" y="0" text-anchor="start" transform="translate(18.25,47.166101694915355)" style="cursor: default; font-family: 'Open Sans', verdana, arial, sans-serif; font-size: 12px; fill: rgb(42, 63, 95); fill-opacity: 1; white-space: pre; text-shadow: white 1px 1px 1px, white -1px -1px 1px, white 1px -1px 1px, white -1px 1px 1px;">Cla</text></g><g class="sankey-node" transform="translate(375.000,43.093)" style="opacity: 1;"><rect class="node-rect" width="15" height="107.41525423728825" style="stroke-width: 0.5; stroke: rgb(0, 0, 0); stroke-opacity: 1; fill: rgb(171, 99, 250); fill-opacity: 1;"/><text class="node-label" data-notex="1" x="0" y="0" text-anchor="start" transform="translate(18.25,57.90762711864413)" style="cursor: default; font-family: 'Open Sans', verdana, arial, sans-serif; font-size: 12px; fill: rgb(42, 63, 95); fill-opacity: 1; white-space: pre; text-shadow: white 1px 1px 1px, white -1px -1px 1px, white 1px -1px 1px, white -1px 1px 1px;">Str</text></g><g class="sankey-node" transform="translate(375.000,352.500)" style="opacity: 1;"><rect class="node-rect" width="15" height="33.050847457627185" style="stroke-width: 0.5; stroke: rgb(0, 0, 0); stroke-opacity: 1; fill: rgb(255, 161, 90); fill-opacity: 1;"/><text class="node-label" data-notex="1" x="0" y="0" text-anchor="start" transform="translate(18.25,20.725423728813592)" style="cursor: default; font-family: 'Open Sans', verdana, arial, sans-serif; font-size: 12px; fill: rgb(42, 63, 95); fill-opacity: 1; white-space: pre; text-shadow: white 1px 1px 1px, white -1px -1px 1px, white 1px -1px 1px, white -1px 1px 1px;">NAc</text></g><g class="sankey-node" transform="translate(375.000,-0.000)" style="opacity: 1;"><rect class="node-rect" width="15" height="28.093220338983002" style="stroke-width: 0.5; stroke: rgb(0, 0, 0); stroke-opacity: 1; fill: rgb(25, 211, 243); fill-opacity: 1;"/><text class="node-label" data-notex="1" x="0" y="0" text-anchor="start" transform="translate(18.25,18.2466101694915)" style="cursor: default; font-family: 'Open Sans', verdana, arial, sans-serif; font-size: 12px; fill: rgb(42, 63, 95); fill-opacity: 1; white-space: pre; text-shadow: white 1px 1px 1px, white -1px -1px 1px, white 1px -1px 1px, white -1px 1px 1px;">BLA</text></g><g class="sankey-node" transform="translate(375.000,400.551)" style="opacity: 1;"><rect class="node-rect" width="15" height="8.26271186440681" style="stroke-width: 0.5; stroke: rgb(0, 0, 0); stroke-opacity: 1; fill: rgb(255, 102, 146); fill-opacity: 1;"/><text class="node-label" data-notex="1" x="0" y="0" text-anchor="start" transform="translate(18.25,8.331355932203405)" style="cursor: default; font-family: 'Open Sans', verdana, arial, sans-serif; font-size: 12px; fill: rgb(42, 63, 95); fill-opacity: 1; white-space: pre; text-shadow: white 1px 1px 1px, white -1px -1px 1px, white 1px -1px 1px, white -1px 1px 1px;">lHb</text></g><g class="sankey-node" transform="translate(375.000,423.814)" style="opacity: 1;"><rect class="node-rect" width="15" height="23.135593220338933" style="stroke-width: 0.5; stroke: rgb(0, 0, 0); stroke-opacity: 1; fill: rgb(182, 232, 128); fill-opacity: 1;"/><text class="node-label" data-notex="1" x="0" y="0" text-anchor="start" transform="translate(18.25,15.767796610169466)" style="cursor: default; font-family: 'Open Sans', verdana, arial, sans-serif; font-size: 12px; fill: rgb(42, 63, 95); fill-opacity: 1; white-space: pre; text-shadow: white 1px 1px 1px, white -1px -1px 1px, white 1px -1px 1px, white -1px 1px 1px;">dPAG</text></g><g class="sankey-node" transform="translate(375.000,615.763)" style="opacity: 1;"><rect class="node-rect" width="15" height="54.53389830508502" style="stroke-width: 0.5; stroke: rgb(0, 0, 0); stroke-opacity: 1; fill: rgb(255, 151, 255); fill-opacity: 1;"/><text class="node-label" data-notex="1" x="0" y="0" text-anchor="start" transform="translate(18.25,31.466949152542508)" style="cursor: default; font-family: 'Open Sans', verdana, arial, sans-serif; font-size: 12px; fill: rgb(42, 63, 95); fill-opacity: 1; white-space: pre; text-shadow: white 1px 1px 1px, white -1px -1px 1px, white 1px -1px 1px, white -1px 1px 1px;">cPFC</text></g><g class="sankey-node" transform="translate(375.000,685.297)" style="opacity: 1;"><rect class="node-rect" width="15" height="34.7033898305084" style="stroke-width: 0.5; stroke: rgb(0, 0, 0); stroke-opacity: 1; fill: rgb(254, 203, 82); fill-opacity: 1;"/><text class="node-label" data-notex="1" x="0" y="0" text-anchor="start" transform="translate(18.25,21.5516949152542)" style="cursor: default; font-family: 'Open Sans', verdana, arial, sans-serif; font-size: 12px; fill: rgb(42, 63, 95); fill-opacity: 1; white-space: pre; text-shadow: white 1px 1px 1px, white -1px -1px 1px, white 1px -1px 1px, white -1px 1px 1px;">LHyp</text></g></g></g><defs id="topdefs-6312a8"><g class="clips"/></defs><g class="layer-above"><g class="imagelayer"/><g class="shapelayer"/></g><g class="infolayer"><g class="g-gtitle"/><g class="first-render"/></g></svg>