<svg class="main-svg" xmlns="http://www.w3.org/2000/svg" xmlns:xlink="http://www.w3.org/1999/xlink" width="1300" height="900" style="" viewBox="0 0 1300 900"><rect x="0" y="0" width="1300" height="900" style="fill: rgb(255, 255, 255); fill-opacity: 1;"/><defs id="defs-7aa51a"><g class="clips"/><g class="gradients"/><g class="patterns"/></defs><g class="bglayer"/><g class="layer-below"><g class="imagelayer"/><g class="shapelayer"/></g><g class="cartesianlayer"/><g class="polarlayer"/><g class="smithlayer"/><g class="ternarylayer"/><g class="geolayer"/><g class="funnelarealayer"/><g class="pielayer"/><g class="iciclelayer"/><g class="treemaplayer"/><g class="sunburstlayer"/><g class="glimages"/><g class="sankey" transform="translate(80,100)matrix(1 0 0 1 0 0)" style="box-sizing: content-box; position: absolute; left: 0px; shape-rendering: geometricprecision; pointer-events: none;"><g class="sankey-links" style="fill: none;"><path class="sankey-link" d="M15,370.5959302325585C195,370.5959302325585 195,151.04651162790705 375,151.04651162790705L375,152.74709302325587C195,152.74709302325587 195,372.29651162790736 15,372.29651162790736Z" style="stroke: rgb(68, 68, 68); stroke-opacity: 1; fill: rgb(25, 211, 243); fill-opacity: 0.6; stroke-width: 0; opacity: 1;"/><path class="sankey-link" d="M15,380.79941860465146C195,380.79941860465146 195,296.68604651162786 375,296.68604651162786L375,317.09302325581393C195,317.09302325581393 195,401.20639534883753 15,401.20639534883753Z" style="stroke: rgb(68, 68, 68); stroke-opacity: 1; fill: rgb(0, 204, 150); fill-opacity: 0.6; stroke-width: 0; opacity: 1;"/><path class="sankey-link" d="M15,372.2965116279073C195,372.2965116279073 195,213.6627906976746 375,213.6627906976746L375,222.16569767441877C195,222.16569767441877 195,380.79941860465146 15,380.79941860465146Z" style="stroke: rgb(68, 68, 68); stroke-opacity: 1; fill: rgb(239, 85, 59); fill-opacity: 0.6; stroke-width: 0; opacity: 1;"/><path class="sankey-link" d="M15,401.20639534883753C195,401.20639534883753 195,379.70930232558186 375,379.70930232558186L375,389.9127906976749C195,389.9127906976749 195,411.40988372093057 15,411.40988372093057Z" style="stroke: rgb(68, 68, 68); stroke-opacity: 1; fill: rgb(255, 161, 90); fill-opacity: 0.6; stroke-width: 0; opacity: 1;"/><path class="sankey-link" d="M15,353.5901162790701C195,353.5901162790701 195,61.220930232558516 375,61.220930232558516L375,78.22674418604689C195,78.22674418604689 195,370.59593023255843 15,370.59593023255843Z" style="stroke: rgb(68, 68, 68); stroke-opacity: 1; fill: rgb(171, 99, 250); fill-opacity: 0.6; stroke-width: 0; opacity: 1;"/><path class="sankey-link" d="M15,414.81104651162826C195,414.81104651162826 195,555.3488372093026 375,555.3488372093026L375,558.7500000000003C195,558.7500000000003 195,418.2122093023259 15,418.2122093023259Z" style="stroke: rgb(68, 68, 68); stroke-opacity: 1; fill: rgb(99, 110, 250); fill-opacity: 0.6; stroke-width: 0; opacity: 1;"/><path class="sankey-link" d="M15,411.40988372093057C195,411.40988372093057 195,411.71511627907023 375,411.71511627907023L375,415.11627906976787C195,415.11627906976787 195,414.8110465116282 15,414.8110465116282Z" style="stroke: rgb(68, 68, 68); stroke-opacity: 1; fill: rgb(255, 102, 146); fill-opacity: 0.6; stroke-width: 0; opacity: 1;"/><path class="sankey-link" d="M15,136.22093023255837C195,136.22093023255837 195,125.53779069767451 375,125.53779069767451L375,151.04651162790708C195,151.04651162790708 195,161.72965116279096 15,161.72965116279096Z" style="stroke: rgb(68, 68, 68); stroke-opacity: 1; fill: rgb(25, 211, 243); fill-opacity: 0.6; stroke-width: 0; opacity: 1;"/><path class="sankey-link" d="M15,205.94476744186073C195,205.94476744186073 195,254.17151162790697 375,254.17151162790697L375,296.68604651162786C195,296.68604651162786 195,248.45930232558163 15,248.45930232558163Z" style="stroke: rgb(68, 68, 68); stroke-opacity: 1; fill: rgb(0, 204, 150); fill-opacity: 0.6; stroke-width: 0; opacity: 1;"/><path class="sankey-link" d="M15,161.72965116279093C195,161.72965116279093 195,169.44767441860483 375,169.44767441860483L375,213.6627906976746C195,213.6627906976746 195,205.9447674418607 15,205.9447674418607Z" style="stroke: rgb(68, 68, 68); stroke-opacity: 1; fill: rgb(239, 85, 59); fill-opacity: 0.6; stroke-width: 0; opacity: 1;"/><path class="sankey-link" d="M15,248.4593023255816C195,248.4593023255816 195,357.601744186047 375,357.601744186047L375,379.7093023255818C195,379.7093023255818 195,270.56686046511646 15,270.56686046511646Z" style="stroke: rgb(68, 68, 68); stroke-opacity: 1; fill: rgb(255, 161, 90); fill-opacity: 0.6; stroke-width: 0; opacity: 1;"/><path class="sankey-link" d="M15,75.00000000000023C195,75.00000000000023 195,3.694822225952521e-13 375,3.694822225952521e-13L375,61.22093023255851C195,61.22093023255851 195,136.22093023255837 15,136.22093023255837Z" style="stroke: rgb(68, 68, 68); stroke-opacity: 1; fill: rgb(171, 99, 250); fill-opacity: 0.6; stroke-width: 0; opacity: 1;"/><path class="sankey-link" d="M15,323.28488372093045C195,323.28488372093045 195,540.043604651163 375,540.043604651163L375,555.3488372093026C195,555.3488372093026 195,338.59011627907 15,338.59011627907Z" style="stroke: rgb(68, 68, 68); stroke-opacity: 1; fill: rgb(99, 110, 250); fill-opacity: 0.6; stroke-width: 0; opacity: 1;"/><path class="sankey-link" d="M15,294.3750000000002C195,294.3750000000002 195,468.92441860465146 375,468.92441860465146L375,497.8343023255817C195,497.8343023255817 195,323.28488372093045 15,323.28488372093045Z" style="stroke: rgb(68, 68, 68); stroke-opacity: 1; fill: rgb(255, 151, 255); fill-opacity: 0.6; stroke-width: 0; opacity: 1;"/><path class="sankey-link" d="M15,275.66860465116304C195,275.66860465116304 195,430.11627906976787 375,430.11627906976787L375,448.82267441860506C195,448.82267441860506 195,294.3750000000002 15,294.3750000000002Z" style="stroke: rgb(68, 68, 68); stroke-opacity: 1; fill: rgb(182, 232, 128); fill-opacity: 0.6; stroke-width: 0; opacity: 1;"/><path class="sankey-link" d="M15,270.5668604651165C195,270.5668604651165 195,406.6133720930237 375,406.6133720930237L375,411.71511627907023C195,411.71511627907023 195,275.66860465116304 15,275.66860465116304Z" style="stroke: rgb(68, 68, 68); stroke-opacity: 1; fill: rgb(255, 102, 146); fill-opacity: 0.6; stroke-width: 0; opacity: 1;"/><path class="sankey-link" d="M15,706.3953488372093C195,706.3953488372093 195,152.7470930232559 375,152.7470930232559L375,154.44767441860472C195,154.44767441860472 195,708.0959302325581 15,708.0959302325581Z" style="stroke: rgb(68, 68, 68); stroke-opacity: 1; fill: rgb(25, 211, 243); fill-opacity: 0.6; stroke-width: 0; opacity: 1;"/><path class="sankey-link" d="M15,708.0959302325582C195,708.0959302325582 195,337.5 375,337.5L375,342.6017441860465C195,342.6017441860465 195,713.1976744186047 15,713.1976744186047Z" style="stroke: rgb(68, 68, 68); stroke-opacity: 1; fill: rgb(0, 204, 150); fill-opacity: 0.6; stroke-width: 0; opacity: 1;"/><path class="sankey-link" d="M15,713.1976744186047C195,713.1976744186047 195,389.9127906976749 375,389.9127906976749L375,391.61337209302377C195,391.61337209302377 195,714.8982558139535 15,714.8982558139535Z" style="stroke: rgb(68, 68, 68); stroke-opacity: 1; fill: rgb(255, 161, 90); fill-opacity: 0.6; stroke-width: 0; opacity: 1;"/><path class="sankey-link" d="M15,704.6947674418604C195,704.6947674418604 195,108.83720930232596 375,108.83720930232596L375,110.53779069767481C195,110.53779069767481 195,706.3953488372092 15,706.3953488372092Z" style="stroke: rgb(68, 68, 68); stroke-opacity: 1; fill: rgb(171, 99, 250); fill-opacity: 0.6; stroke-width: 0; opacity: 1;"/><path class="sankey-link" d="M15,716.5988372093025C195,716.5988372093025 195,521.6424418604654 375,521.6424418604654L375,525.0436046511632C195,525.0436046511632 195,720.0000000000002 15,720.0000000000002Z" style="stroke: rgb(68, 68, 68); stroke-opacity: 1; fill: rgb(255, 151, 255); fill-opacity: 0.6; stroke-width: 0; opacity: 1;"/><path class="sankey-link" d="M15,714.8982558139536C195,714.8982558139536 195,452.2238372093027 375,452.2238372093027L375,453.9244186046516C195,453.9244186046516 195,716.5988372093024 15,716.5988372093024Z" style="stroke: rgb(68, 68, 68); stroke-opacity: 1; fill: rgb(182, 232, 128); fill-opacity: 0.6; stroke-width: 0; opacity: 1;"/><path class="sankey-link" d="M15,457.02034883720967C195,457.02034883720967 195,317.09302325581393 375,317.09302325581393L375,327.29651162790697C195,327.29651162790697 195,467.2238372093027 15,467.2238372093027Z" style="stroke: rgb(68, 68, 68); stroke-opacity: 1; fill: rgb(0, 204, 150); fill-opacity: 0.6; stroke-width: 0; opacity: 1;"/><path class="sankey-link" d="M15,448.5174418604655C195,448.5174418604655 195,222.16569767441882 375,222.16569767441882L375,230.66860465116298C195,230.66860465116298 195,457.02034883720967 15,457.02034883720967Z" style="stroke: rgb(68, 68, 68); stroke-opacity: 1; fill: rgb(239, 85, 59); fill-opacity: 0.6; stroke-width: 0; opacity: 1;"/><path class="sankey-link" d="M15,540.3488372093027C195,540.3488372093027 195,692.7906976744189 375,692.7906976744189L375,706.3953488372097C195,706.3953488372097 195,553.9534883720935 15,553.9534883720935Z" style="stroke: rgb(68, 68, 68); stroke-opacity: 1; fill: rgb(254, 203, 82); fill-opacity: 0.6; stroke-width: 0; opacity: 1;"/><path class="sankey-link" d="M15,433.21220930232596C195,433.21220930232596 195,78.22674418604689 375,78.22674418604689L375,93.53197674418641C195,93.53197674418641 195,448.5174418604655 15,448.5174418604655Z" style="stroke: rgb(68, 68, 68); stroke-opacity: 1; fill: rgb(171, 99, 250); fill-opacity: 0.6; stroke-width: 0; opacity: 1;"/><path class="sankey-link" d="M15,480.8284883720934C195,480.8284883720934 195,558.7500000000002 375,558.7500000000002L375,618.2703488372094C195,618.2703488372094 195,540.3488372093027 15,540.3488372093027Z" style="stroke: rgb(68, 68, 68); stroke-opacity: 1; fill: rgb(99, 110, 250); fill-opacity: 0.6; stroke-width: 0; opacity: 1;"/><path class="sankey-link" d="M15,468.9244186046515C195,468.9244186046515 195,497.8343023255817 375,497.8343023255817L375,509.7383720930236C195,509.7383720930236 195,480.82848837209343 15,480.82848837209343Z" style="stroke: rgb(68, 68, 68); stroke-opacity: 1; fill: rgb(255, 151, 255); fill-opacity: 0.6; stroke-width: 0; opacity: 1;"/><path class="sankey-link" d="M15,467.2238372093027C195,467.2238372093027 195,448.82267441860506 375,448.82267441860506L375,450.52325581395394C195,450.52325581395394 195,468.9244186046516 15,468.9244186046516Z" style="stroke: rgb(68, 68, 68); stroke-opacity: 1; fill: rgb(182, 232, 128); fill-opacity: 0.6; stroke-width: 0; opacity: 1;"/><path class="sankey-link" d="M15,592.761627906977C195,592.761627906977 195,327.29651162790697 375,327.29651162790697L375,337.5C195,337.5 195,602.96511627907 15,602.96511627907Z" style="stroke: rgb(68, 68, 68); stroke-opacity: 1; fill: rgb(0, 204, 150); fill-opacity: 0.6; stroke-width: 0; opacity: 1;"/><path class="sankey-link" d="M15,584.2587209302328C195,584.2587209302328 195,230.66860465116298 375,230.66860465116298L375,239.17151162790714C195,239.17151162790714 195,592.7616279069771 15,592.7616279069771Z" style="stroke: rgb(68, 68, 68); stroke-opacity: 1; fill: rgb(239, 85, 59); fill-opacity: 0.6; stroke-width: 0; opacity: 1;"/><path class="sankey-link" d="M15,676.0901162790701C195,676.0901162790701 195,706.3953488372096 375,706.3953488372096L375,720.0000000000003C195,720.0000000000003 195,689.6947674418609 15,689.6947674418609Z" style="stroke: rgb(68, 68, 68); stroke-opacity: 1; fill: rgb(254, 203, 82); fill-opacity: 0.6; stroke-width: 0; opacity: 1;"/><path class="sankey-link" d="M15,568.9534883720933C195,568.9534883720933 195,93.53197674418642 375,93.53197674418642L375,108.83720930232595C195,108.83720930232595 195,584.2587209302328 15,584.2587209302328Z" style="stroke: rgb(68, 68, 68); stroke-opacity: 1; fill: rgb(171, 99, 250); fill-opacity: 0.6; stroke-width: 0; opacity: 1;"/><path class="sankey-link" d="M15,616.5697674418608C195,616.5697674418608 195,618.2703488372096 375,618.2703488372096L375,677.7906976744188C195,677.7906976744188 195,676.09011627907 15,676.09011627907Z" style="stroke: rgb(68, 68, 68); stroke-opacity: 1; fill: rgb(99, 110, 250); fill-opacity: 0.6; stroke-width: 0; opacity: 1;"/><path class="sankey-link" d="M15,604.6656976744189C195,604.6656976744189 195,509.73837209302354 375,509.73837209302354L375,521.6424418604654C195,521.6424418604654 195,616.5697674418607 15,616.5697674418607Z" style="stroke: rgb(68, 68, 68); stroke-opacity: 1; fill: rgb(255, 151, 255); fill-opacity: 0.6; stroke-width: 0; opacity: 1;"/><path class="sankey-link" d="M15,602.96511627907C195,602.96511627907 195,450.5232558139539 375,450.5232558139539L375,452.22383720930276C195,452.22383720930276 195,604.6656976744188 15,604.6656976744188Z" style="stroke: rgb(68, 68, 68); stroke-opacity: 1; fill: rgb(182, 232, 128); fill-opacity: 0.6; stroke-width: 0; opacity: 1;"/><path class="sankey-link" d="M390,125.5377906976745C570,125.5377906976745 570,364.29857160496397 750,364.29857160496397L750,374.502059977057C570,374.502059977057 570,135.74127906976753 390,135.74127906976753Z" style="stroke: rgb(68, 68, 68); stroke-opacity: 1; fill: rgb(25, 211, 243); fill-opacity: 0.6; stroke-width: 0; opacity: 1;"/><path class="sankey-link" d="M390,254.17151162790697C570,254.17151162790697 570,394.90903672124307 750,394.90903672124307L750,415.31601346542914C570,415.31601346542914 570,274.57848837209303 390,274.57848837209303Z" style="stroke: rgb(68, 68, 68); stroke-opacity: 1; fill: rgb(0, 204, 150); fill-opacity: 0.6; stroke-width: 0; opacity: 1;"/><path class="sankey-link" d="M390,274.57848837209303C570,274.57848837209303 570,518.7462460235688 750,518.7462460235688L750,522.1474088142666C570,522.1474088142666 570,277.9796511627907 390,277.9796511627907Z" style="stroke: rgb(68, 68, 68); stroke-opacity: 1; fill: rgb(0, 204, 150); fill-opacity: 0.6; stroke-width: 0; opacity: 1;"/><path class="sankey-link" d="M390,169.44767441860483C570,169.44767441860483 570,374.502059977057 750,374.502059977057L750,394.90903672124307C570,394.90903672124307 570,189.8546511627909 390,189.8546511627909Z" style="stroke: rgb(68, 68, 68); stroke-opacity: 1; fill: rgb(239, 85, 59); fill-opacity: 0.6; stroke-width: 0; opacity: 1;"/><path class="sankey-link" d="M390,189.85465116279087C570,189.85465116279087 570,515.3450832328712 750,515.3450832328712L750,518.7462460235689C570,518.7462460235689 570,193.25581395348857 390,193.25581395348857Z" style="stroke: rgb(68, 68, 68); stroke-opacity: 1; fill: rgb(239, 85, 59); fill-opacity: 0.6; stroke-width: 0; opacity: 1;"/><path class="sankey-link" d="M390,692.7906976744189C570,692.7906976744189 570,486.7404320700803 750,486.7404320700803L750,493.5427576514757C570,493.5427576514757 570,699.5930232558142 390,699.5930232558142Z" style="stroke: rgb(68, 68, 68); stroke-opacity: 1; fill: rgb(254, 203, 82); fill-opacity: 0.6; stroke-width: 0; opacity: 1;"/><path class="sankey-link" d="M390,699.5930232558143C570,699.5930232558143 570,561.2607809072897 750,561.2607809072897L750,568.063106488685C570,568.063106488685 570,706.3953488372096 390,706.3953488372096Z" style="stroke: rgb(68, 68, 68); stroke-opacity: 1; fill: rgb(254, 203, 82); fill-opacity: 0.6; stroke-width: 0; opacity: 1;"/><path class="sankey-link" d="M390,357.601744186047C570,357.601744186047 570,415.31601346542914 750,415.31601346542914L750,425.51950183752217C570,425.51950183752217 570,367.80523255814 390,367.80523255814Z" style="stroke: rgb(68, 68, 68); stroke-opacity: 1; fill: rgb(255, 161, 90); fill-opacity: 0.6; stroke-width: 0; opacity: 1;"/><path class="sankey-link" d="M390,367.80523255814C570,367.80523255814 570,522.1474088142664 750,522.1474088142664L750,523.8479902096152C570,523.8479902096152 570,369.5058139534889 390,369.5058139534889Z" style="stroke: rgb(68, 68, 68); stroke-opacity: 1; fill: rgb(255, 161, 90); fill-opacity: 0.6; stroke-width: 0; opacity: 1;"/><path class="sankey-link" d="M390,3.694822225952521e-13C570,3.694822225952521e-13 570,328.5863623026384 750,328.5863623026384L750,364.298571604964C570,364.298571604964 570,35.71220930232595 390,35.71220930232595Z" style="stroke: rgb(68, 68, 68); stroke-opacity: 1; fill: rgb(171, 99, 250); fill-opacity: 0.6; stroke-width: 0; opacity: 1;"/><path class="sankey-link" d="M390,35.71220930232595C570,35.71220930232595 570,508.5427576514758 750,508.5427576514758L750,515.3450832328712C570,515.3450832328712 570,42.5145348837213 390,42.5145348837213Z" style="stroke: rgb(68, 68, 68); stroke-opacity: 1; fill: rgb(171, 99, 250); fill-opacity: 0.6; stroke-width: 0; opacity: 1;"/><path class="sankey-link" d="M390,540.043604651163C570,540.043604651163 570,449.3276413724059 750,449.3276413724059L750,486.74043207008026C570,486.74043207008026 570,577.4563953488374 390,577.4563953488374Z" style="stroke: rgb(68, 68, 68); stroke-opacity: 1; fill: rgb(99, 110, 250); fill-opacity: 0.6; stroke-width: 0; opacity: 1;"/><path class="sankey-link" d="M390,577.4563953488374C570,577.4563953488374 570,535.7520599770571 750,535.7520599770571L750,561.2607809072897C570,561.2607809072897 570,602.96511627907 390,602.96511627907Z" style="stroke: rgb(68, 68, 68); stroke-opacity: 1; fill: rgb(99, 110, 250); fill-opacity: 0.6; stroke-width: 0; opacity: 1;"/><path class="sankey-link" d="M390,468.92441860465146C570,468.92441860465146 570,435.7229902096152 750,435.7229902096152L750,449.3276413724059C570,449.3276413724059 570,482.52906976744214 390,482.52906976744214Z" style="stroke: rgb(68, 68, 68); stroke-opacity: 1; fill: rgb(255, 151, 255); fill-opacity: 0.6; stroke-width: 0; opacity: 1;"/><path class="sankey-link" d="M390,482.52906976744214C570,482.52906976744214 570,527.249153000313 750,527.249153000313L750,535.7520599770572C570,535.7520599770572 570,491.0319767441863 390,491.0319767441863Z" style="stroke: rgb(68, 68, 68); stroke-opacity: 1; fill: rgb(255, 151, 255); fill-opacity: 0.6; stroke-width: 0; opacity: 1;"/><path class="sankey-link" d="M390,430.11627906976787C570,430.11627906976787 570,428.92066462821987 750,428.92066462821987L750,435.72299020961526C570,435.72299020961526 570,436.91860465116326 390,436.91860465116326Z" style="stroke: rgb(68, 68, 68); stroke-opacity: 1; fill: rgb(182, 232, 128); fill-opacity: 0.6; stroke-width: 0; opacity: 1;"/><path class="sankey-link" d="M390,436.9186046511632C570,436.9186046511632 570,523.8479902096153 750,523.8479902096153L750,527.2491530003131C570,527.2491530003131 570,440.31976744186085 390,440.31976744186085Z" style="stroke: rgb(68, 68, 68); stroke-opacity: 1; fill: rgb(182, 232, 128); fill-opacity: 0.6; stroke-width: 0; opacity: 1;"/><path class="sankey-link" d="M390,406.6133720930237C570,406.6133720930237 570,425.51950183752217 750,425.51950183752217L750,428.9206646282198C570,428.9206646282198 570,410.01453488372135 390,410.01453488372135Z" style="stroke: rgb(68, 68, 68); stroke-opacity: 1; fill: rgb(255, 102, 146); fill-opacity: 0.6; stroke-width: 0; opacity: 1;"/><path class="sankey-link" d="M765,328.5863623026384C945,328.5863623026384 945,437.09915528496833 1125,437.09915528496833L1125,443.9014808663637C945,443.9014808663637 945,335.3886878840338 765,335.3886878840338Z" style="stroke: rgb(68, 68, 68); stroke-opacity: 1; fill: rgb(25, 211, 243); fill-opacity: 0.6; stroke-width: 0; opacity: 1;"/><path class="sankey-link" d="M765,420.41775765147577C945,420.41775765147577 945,543.9305506338051 1125,543.9305506338051L1125,547.3317134245028C945,547.3317134245028 945,423.8189204421734 765,423.8189204421734Z" style="stroke: rgb(68, 68, 68); stroke-opacity: 1; fill: rgb(25, 211, 243); fill-opacity: 0.6; stroke-width: 0; opacity: 1;"/><path class="sankey-link" d="M765,335.38868788403374C945,335.38868788403374 945,443.90148086636367 1125,443.90148086636367L1125,454.1049692384567C945,454.1049692384567 945,345.5921762561268 765,345.5921762561268Z" style="stroke: rgb(68, 68, 68); stroke-opacity: 1; fill: rgb(0, 204, 150); fill-opacity: 0.6; stroke-width: 0; opacity: 1;"/><path class="sankey-link" d="M765,423.81892044217346C945,423.81892044217346 945,547.3317134245027 1125,547.3317134245027L1125,557.5352017965957C945,557.5352017965957 945,434.0224088142665 765,434.0224088142665Z" style="stroke: rgb(68, 68, 68); stroke-opacity: 1; fill: rgb(0, 204, 150); fill-opacity: 0.6; stroke-width: 0; opacity: 1;"/><path class="sankey-link" d="M765,508.5427576514758C945,508.5427576514758 945,632.0555506338052 1125,632.0555506338052L1125,635.4567134245029C945,635.4567134245029 945,511.94392044217346 765,511.94392044217346Z" style="stroke: rgb(68, 68, 68); stroke-opacity: 1; fill: rgb(0, 204, 150); fill-opacity: 0.6; stroke-width: 0; opacity: 1;"/><path class="sankey-link" d="M765,345.5921762561268C945,345.5921762561268 945,454.1049692384567 1125,454.1049692384567L1125,464.30845761054974C945,464.30845761054974 945,355.7956646282198 765,355.7956646282198Z" style="stroke: rgb(68, 68, 68); stroke-opacity: 1; fill: rgb(239, 85, 59); fill-opacity: 0.6; stroke-width: 0; opacity: 1;"/><path class="sankey-link" d="M765,434.0224088142665C945,434.0224088142665 945,557.5352017965957 1125,557.5352017965957L1125,567.7386901686888C945,567.7386901686888 945,444.22589718635953 765,444.22589718635953Z" style="stroke: rgb(68, 68, 68); stroke-opacity: 1; fill: rgb(239, 85, 59); fill-opacity: 0.6; stroke-width: 0; opacity: 1;"/><path class="sankey-link" d="M765,539.1532227677551C945,539.1532227677551 945,677.6660157500842 1125,677.6660157500842L1125,679.3665971454329C945,679.3665971454329 945,540.8538041631039 765,540.8538041631039Z" style="stroke: rgb(68, 68, 68); stroke-opacity: 1; fill: rgb(239, 85, 59); fill-opacity: 0.6; stroke-width: 0; opacity: 1;"/><path class="sankey-link" d="M765,511.94392044217346C945,511.94392044217346 945,635.4567134245028 1125,635.4567134245028L1125,637.1572948198516C945,637.1572948198516 945,513.6445018375223 765,513.6445018375223Z" style="stroke: rgb(68, 68, 68); stroke-opacity: 1; fill: rgb(239, 85, 59); fill-opacity: 0.6; stroke-width: 0; opacity: 1;"/><path class="sankey-link" d="M765,355.7956646282198C945,355.7956646282198 945,464.30845761054974 1125,464.30845761054974L1125,467.7096204012474C945,467.7096204012474 945,359.19682741891745 765,359.19682741891745Z" style="stroke: rgb(68, 68, 68); stroke-opacity: 1; fill: rgb(254, 203, 82); fill-opacity: 0.6; stroke-width: 0; opacity: 1;"/><path class="sankey-link" d="M765,444.22589718635953C945,444.22589718635953 945,567.7386901686888 1125,567.7386901686888L1125,571.1398529593865C945,571.1398529593865 945,447.6270599770572 765,447.6270599770572Z" style="stroke: rgb(68, 68, 68); stroke-opacity: 1; fill: rgb(254, 203, 82); fill-opacity: 0.6; stroke-width: 0; opacity: 1;"/><path class="sankey-link" d="M765,540.853804163104C945,540.853804163104 945,679.366597145433 1125,679.366597145433L1125,684.4683413314796C945,684.4683413314796 945,545.9555483491505 765,545.9555483491505Z" style="stroke: rgb(68, 68, 68); stroke-opacity: 1; fill: rgb(254, 203, 82); fill-opacity: 0.6; stroke-width: 0; opacity: 1;"/><path class="sankey-link" d="M765,513.6445018375224C945,513.6445018375224 945,637.1572948198517 1125,637.1572948198517L1125,638.8578762152005C945,638.8578762152005 945,515.3450832328712 765,515.3450832328712Z" style="stroke: rgb(68, 68, 68); stroke-opacity: 1; fill: rgb(254, 203, 82); fill-opacity: 0.6; stroke-width: 0; opacity: 1;"/><path class="sankey-link" d="M765,359.1968274189175C945,359.1968274189175 945,467.70962040124743 1125,467.70962040124743L1125,471.1107831919451C945,471.1107831919451 945,362.59799020961515 765,362.59799020961515Z" style="stroke: rgb(68, 68, 68); stroke-opacity: 1; fill: rgb(255, 161, 90); fill-opacity: 0.6; stroke-width: 0; opacity: 1;"/><path class="sankey-link" d="M765,447.62705997705723C945,447.62705997705723 945,571.1398529593864 1125,571.1398529593864L1125,577.9421785407817C945,577.9421785407817 945,454.4293855584526 765,454.4293855584526Z" style="stroke: rgb(68, 68, 68); stroke-opacity: 1; fill: rgb(255, 161, 90); fill-opacity: 0.6; stroke-width: 0; opacity: 1;"/><path class="sankey-link" d="M765,515.3450832328713C945,515.3450832328713 945,638.8578762152006 1125,638.8578762152006L1125,640.5584576105493C945,640.5584576105493 945,517.04566462822 765,517.04566462822Z" style="stroke: rgb(68, 68, 68); stroke-opacity: 1; fill: rgb(255, 161, 90); fill-opacity: 0.6; stroke-width: 0; opacity: 1;"/><path class="sankey-link" d="M765,362.5979902096152C945,362.5979902096152 945,471.11078319194513 1125,471.11078319194513L1125,491.5177599361312C945,491.5177599361312 945,383.0049669538013 765,383.0049669538013Z" style="stroke: rgb(68, 68, 68); stroke-opacity: 1; fill: rgb(171, 99, 250); fill-opacity: 0.6; stroke-width: 0; opacity: 1;"/><path class="sankey-link" d="M765,454.42938555845257C945,454.42938555845257 945,577.9421785407818 1125,577.9421785407818L1125,593.2474110989214C945,593.2474110989214 945,469.7346181165921 765,469.7346181165921Z" style="stroke: rgb(68, 68, 68); stroke-opacity: 1; fill: rgb(171, 99, 250); fill-opacity: 0.6; stroke-width: 0; opacity: 1;"/><path class="sankey-link" d="M765,545.9555483491505C945,545.9555483491505 945,684.4683413314796 1125,684.4683413314796L1125,687.8695041221773C945,687.8695041221773 945,549.3567111398482 765,549.3567111398482Z" style="stroke: rgb(68, 68, 68); stroke-opacity: 1; fill: rgb(171, 99, 250); fill-opacity: 0.6; stroke-width: 0; opacity: 1;"/><path class="sankey-link" d="M765,517.0456646282202C945,517.0456646282202 945,640.5584576105495 1125,640.5584576105495L1125,643.9596204012472C945,643.9596204012472 945,520.4468274189179 765,520.4468274189179Z" style="stroke: rgb(68, 68, 68); stroke-opacity: 1; fill: rgb(171, 99, 250); fill-opacity: 0.6; stroke-width: 0; opacity: 1;"/><path class="sankey-link" d="M765,383.0049669538013C945,383.0049669538013 945,491.5177599361312 1125,491.5177599361312L1125,511.92473668031727C945,511.92473668031727 945,403.41194369798734 765,403.41194369798734Z" style="stroke: rgb(68, 68, 68); stroke-opacity: 1; fill: rgb(99, 110, 250); fill-opacity: 0.6; stroke-width: 0; opacity: 1;"/><path class="sankey-link" d="M765,469.7346181165922C945,469.7346181165922 945,593.2474110989214 1125,593.2474110989214L1125,610.2532250524097C945,610.2532250524097 945,486.7404320700805 765,486.7404320700805Z" style="stroke: rgb(68, 68, 68); stroke-opacity: 1; fill: rgb(99, 110, 250); fill-opacity: 0.6; stroke-width: 0; opacity: 1;"/><path class="sankey-link" d="M765,549.3567111398481C945,549.3567111398481 945,687.8695041221772 1125,687.8695041221772L1125,701.474155284968C945,701.474155284968 945,562.9613623026389 765,562.9613623026389Z" style="stroke: rgb(68, 68, 68); stroke-opacity: 1; fill: rgb(99, 110, 250); fill-opacity: 0.6; stroke-width: 0; opacity: 1;"/><path class="sankey-link" d="M765,520.4468274189178C945,520.4468274189178 945,643.9596204012471 1125,643.9596204012471L1125,655.8636901686889C945,655.8636901686889 945,532.3508971863596 765,532.3508971863596Z" style="stroke: rgb(68, 68, 68); stroke-opacity: 1; fill: rgb(99, 110, 250); fill-opacity: 0.6; stroke-width: 0; opacity: 1;"/><path class="sankey-link" d="M765,403.41194369798734C945,403.41194369798734 945,511.9247366803172 1125,511.9247366803172L1125,522.1282250524102C945,522.1282250524102 945,413.6154320700804 765,413.6154320700804Z" style="stroke: rgb(68, 68, 68); stroke-opacity: 1; fill: rgb(255, 151, 255); fill-opacity: 0.6; stroke-width: 0; opacity: 1;"/><path class="sankey-link" d="M765,486.7404320700805C945,486.7404320700805 945,610.2532250524098 1125,610.2532250524098L1125,613.6543878431075C945,613.6543878431075 945,490.1415948607781 765,490.1415948607781Z" style="stroke: rgb(68, 68, 68); stroke-opacity: 1; fill: rgb(255, 151, 255); fill-opacity: 0.6; stroke-width: 0; opacity: 1;"/><path class="sankey-link" d="M765,562.9613623026388C945,562.9613623026388 945,701.4741552849679 1125,701.4741552849679L1125,704.8753180756656C945,704.8753180756656 945,566.3625250933366 765,566.3625250933366Z" style="stroke: rgb(68, 68, 68); stroke-opacity: 1; fill: rgb(255, 151, 255); fill-opacity: 0.6; stroke-width: 0; opacity: 1;"/><path class="sankey-link" d="M765,532.3508971863597C945,532.3508971863597 945,655.863690168689 1125,655.863690168689L1125,660.9654343547355C945,660.9654343547355 945,537.4526413724062 765,537.4526413724062Z" style="stroke: rgb(68, 68, 68); stroke-opacity: 1; fill: rgb(255, 151, 255); fill-opacity: 0.6; stroke-width: 0; opacity: 1;"/><path class="sankey-link" d="M765,413.6154320700804C945,413.6154320700804 945,522.1282250524102 1125,522.1282250524102L1125,525.529387843108C945,525.529387843108 945,417.016594860778 765,417.016594860778Z" style="stroke: rgb(68, 68, 68); stroke-opacity: 1; fill: rgb(182, 232, 128); fill-opacity: 0.6; stroke-width: 0; opacity: 1;"/><path class="sankey-link" d="M765,490.1415948607782C945,490.1415948607782 945,613.6543878431074 1125,613.6543878431074L1125,617.0555506338052C945,617.0555506338052 945,493.5427576514758 765,493.5427576514758Z" style="stroke: rgb(68, 68, 68); stroke-opacity: 1; fill: rgb(182, 232, 128); fill-opacity: 0.6; stroke-width: 0; opacity: 1;"/><path class="sankey-link" d="M765,566.3625250933364C945,566.3625250933364 945,704.8753180756655 1125,704.8753180756655L1125,706.5758994710143C945,706.5758994710143 945,568.0631064886852 765,568.0631064886852Z" style="stroke: rgb(68, 68, 68); stroke-opacity: 1; fill: rgb(182, 232, 128); fill-opacity: 0.6; stroke-width: 0; opacity: 1;"/><path class="sankey-link" d="M765,537.4526413724062C945,537.4526413724062 945,660.9654343547355 1125,660.9654343547355L1125,662.6660157500843C945,662.6660157500843 945,539.153222767755 765,539.153222767755Z" style="stroke: rgb(68, 68, 68); stroke-opacity: 1; fill: rgb(182, 232, 128); fill-opacity: 0.6; stroke-width: 0; opacity: 1;"/><path class="sankey-link" d="M765,417.01659486077807C945,417.01659486077807 945,525.5293878431079 1125,525.5293878431079L1125,528.9305506338056C945,528.9305506338056 945,420.4177576514757 765,420.4177576514757Z" style="stroke: rgb(68, 68, 68); stroke-opacity: 1; fill: rgb(255, 102, 146); fill-opacity: 0.6; stroke-width: 0; opacity: 1;"/></g><g class="sankey-node-set" style="cursor: move;"><g class="sankey-node" transform="translate(0.000,353.590)" style="opacity: 1;"><rect class="node-rect" width="15" height="64.62209302325584" style="stroke-width: 0.5; stroke: rgb(0, 0, 0); stroke-opacity: 1; fill: rgb(128, 128, 128); fill-opacity: 1;"/><text class="node-label" data-notex="1" x="0" y="0" text-anchor="start" transform="translate(18.25,36.511046511627924)" style="cursor: default; font-family: 'Open Sans', verdana, arial, sans-serif; font-size: 12px; fill: rgb(42, 63, 95); fill-opacity: 1; white-space: pre; text-shadow: white 1px 1px 1px, white -1px -1px 1px, white 1px -1px 1px, white -1px 1px 1px;">21271R</text></g><g class="sankey-node" transform="translate(0.000,75.000)" style="opacity: 1;"><rect class="node-rect" width="15" height="263.5901162790699" style="stroke-width: 0.5; stroke: rgb(0, 0, 0); stroke-opacity: 1; fill: rgb(128, 128, 128); fill-opacity: 1;"/><text class="node-label" data-notex="1" x="0" y="0" text-anchor="start" transform="translate(18.25,135.99505813953493)" style="cursor: default; font-family: 'Open Sans', verdana, arial, sans-serif; font-size: 12px; fill: rgb(42, 63, 95); fill-opacity: 1; white-space: pre; text-shadow: white 1px 1px 1px, white -1px -1px 1px, white 1px -1px 1px, white -1px 1px 1px;">21272R</text></g><g class="sankey-node" transform="translate(0.000,704.695)" style="opacity: 1;"><rect class="node-rect" width="15" height="15.30523255813955" style="stroke-width: 0.5; stroke: rgb(0, 0, 0); stroke-opacity: 1; fill: rgb(128, 128, 128); fill-opacity: 1;"/><text class="node-label" data-notex="1" x="0" y="0" text-anchor="start" transform="translate(18.25,11.852616279069775)" style="cursor: default; font-family: 'Open Sans', verdana, arial, sans-serif; font-size: 12px; fill: rgb(42, 63, 95); fill-opacity: 1; white-space: pre; text-shadow: white 1px 1px 1px, white -1px -1px 1px, white 1px -1px 1px, white -1px 1px 1px;">21965RL</text></g><g class="sankey-node" transform="translate(0.000,433.212)" style="opacity: 1;"><rect class="node-rect" width="15" height="120.7412790697673" style="stroke-width: 0.5; stroke: rgb(0, 0, 0); stroke-opacity: 1; fill: rgb(128, 128, 128); fill-opacity: 1;"/><text class="node-label" data-notex="1" x="0" y="0" text-anchor="start" transform="translate(18.25,64.57063953488365)" style="cursor: default; font-family: 'Open Sans', verdana, arial, sans-serif; font-size: 12px; fill: rgb(42, 63, 95); fill-opacity: 1; white-space: pre; text-shadow: white 1px 1px 1px, white -1px -1px 1px, white 1px -1px 1px, white -1px 1px 1px;">22384</text></g><g class="sankey-node" transform="translate(0.000,568.953)" style="opacity: 1;"><rect class="node-rect" width="15" height="120.74127906976719" style="stroke-width: 0.5; stroke: rgb(0, 0, 0); stroke-opacity: 1; fill: rgb(128, 128, 128); fill-opacity: 1;"/><text class="node-label" data-notex="1" x="0" y="0" text-anchor="start" transform="translate(18.25,64.5706395348836)" style="cursor: default; font-family: 'Open Sans', verdana, arial, sans-serif; font-size: 12px; fill: rgb(42, 63, 95); fill-opacity: 1; white-space: pre; text-shadow: white 1px 1px 1px, white -1px -1px 1px, white 1px -1px 1px, white -1px 1px 1px;">22670</text></g><g class="sankey-node" transform="translate(750.000,328.586)" style="opacity: 1;"><rect class="node-rect" width="15" height="164.95639534883742" style="stroke-width: 0.5; stroke: rgb(0, 0, 0); stroke-opacity: 1; fill: rgb(128, 128, 128); fill-opacity: 1;"/><text class="node-label" data-notex="1" x="0" y="0" text-anchor="start" transform="translate(18.25,86.67819767441871)" style="cursor: default; font-family: 'Open Sans', verdana, arial, sans-serif; font-size: 12px; fill: rgb(42, 63, 95); fill-opacity: 1; white-space: pre; text-shadow: white 1px 1px 1px, white -1px -1px 1px, white 1px -1px 1px, white -1px 1px 1px;">Active</text></g><g class="sankey-node" transform="translate(750.000,508.543)" style="opacity: 1;"><rect class="node-rect" width="15" height="59.52034883720927" style="stroke-width: 0.5; stroke: rgb(0, 0, 0); stroke-opacity: 1; fill: rgb(128, 128, 128); fill-opacity: 1;"/><text class="node-label" data-notex="1" x="0" y="0" text-anchor="start" transform="translate(18.25,33.96017441860464)" style="cursor: default; font-family: 'Open Sans', verdana, arial, sans-serif; font-size: 12px; fill: rgb(42, 63, 95); fill-opacity: 1; white-space: pre; text-shadow: white 1px 1px 1px, white -1px -1px 1px, white 1px -1px 1px, white -1px 1px 1px;">NonActive</text></g><g class="sankey-node" transform="translate(1125.000,437.099)" style="opacity: 1;"><rect class="node-rect" width="15" height="91.83139534883674" style="stroke-width: 0.5; stroke: rgb(0, 0, 0); stroke-opacity: 1; fill: rgb(128, 128, 128); fill-opacity: 1;"/><text class="node-label" data-notex="1" x="0" y="0" text-anchor="end" transform="translate(-3.25,50.11569767441837)" style="cursor: default; font-family: 'Open Sans', verdana, arial, sans-serif; font-size: 12px; fill: rgb(42, 63, 95); fill-opacity: 1; white-space: pre; text-shadow: white 1px 1px 1px, white -1px -1px 1px, white 1px -1px 1px, white -1px 1px 1px;">Active-activated</text></g><g class="sankey-node" transform="translate(1125.000,543.931)" style="opacity: 1;"><rect class="node-rect" width="15" height="73.12500000000011" style="stroke-width: 0.5; stroke: rgb(0, 0, 0); stroke-opacity: 1; fill: rgb(128, 128, 128); fill-opacity: 1;"/><text class="node-label" data-notex="1" x="0" y="0" text-anchor="end" transform="translate(-3.25,40.76250000000006)" style="cursor: default; font-family: 'Open Sans', verdana, arial, sans-serif; font-size: 12px; fill: rgb(42, 63, 95); fill-opacity: 1; white-space: pre; text-shadow: white 1px 1px 1px, white -1px -1px 1px, white 1px -1px 1px, white -1px 1px 1px;">Active-suppressed</text></g><g class="sankey-node" transform="translate(1125.000,632.056)" style="opacity: 1;"><rect class="node-rect" width="15" height="30.610465116278988" style="stroke-width: 0.5; stroke: rgb(0, 0, 0); stroke-opacity: 1; fill: rgb(128, 128, 128); fill-opacity: 1;"/><text class="node-label" data-notex="1" x="0" y="0" text-anchor="end" transform="translate(-3.25,19.505232558139493)" style="cursor: default; font-family: 'Open Sans', verdana, arial, sans-serif; font-size: 12px; fill: rgb(42, 63, 95); fill-opacity: 1; white-space: pre; text-shadow: white 1px 1px 1px, white -1px -1px 1px, white 1px -1px 1px, white -1px 1px 1px;">NonActive-suppressed</text></g><g class="sankey-node" transform="translate(1125.000,677.666)" style="opacity: 1;"><rect class="node-rect" width="15" height="28.90988372093034" style="stroke-width: 0.5; stroke: rgb(0, 0, 0); stroke-opacity: 1; fill: rgb(128, 128, 128); fill-opacity: 1;"/><text class="node-label" data-notex="1" x="0" y="0" text-anchor="end" transform="translate(-3.25,18.65494186046517)" style="cursor: default; font-family: 'Open Sans', verdana, arial, sans-serif; font-size: 12px; fill: rgb(42, 63, 95); fill-opacity: 1; white-space: pre; text-shadow: white 1px 1px 1px, white -1px -1px 1px, white 1px -1px 1px, white -1px 1px 1px;">NonActive-activated</text></g><g class="sankey-node" transform="translate(375.000,540.044)" style="opacity: 1;"><rect class="node-rect" width="15" height="137.74709302325584" style="stroke-width: 0.5; stroke: rgb(0, 0, 0); stroke-opacity: 1; fill: rgb(99, 110, 250); fill-opacity: 1;"/><text class="node-label" data-notex="1" x="0" y="0" text-anchor="start" transform="translate(18.25,73.07354651162792)" style="cursor: default; font-family: 'Open Sans', verdana, arial, sans-serif; font-size: 12px; fill: rgb(42, 63, 95); fill-opacity: 1; white-space: pre; text-shadow: white 1px 1px 1px, white -1px -1px 1px, white 1px -1px 1px, white -1px 1px 1px;">VTA</text></g><g class="sankey-node" transform="translate(375.000,169.448)" style="opacity: 1;"><rect class="node-rect" width="15" height="69.72383720930213" style="stroke-width: 0.5; stroke: rgb(0, 0, 0); stroke-opacity: 1; fill: rgb(239, 85, 59); fill-opacity: 1;"/><text class="node-label" data-notex="1" x="0" y="0" text-anchor="start" transform="translate(18.25,39.06191860465107)" style="cursor: default; font-family: 'Open Sans', verdana, arial, sans-serif; font-size: 12px; fill: rgb(42, 63, 95); fill-opacity: 1; white-space: pre; text-shadow: white 1px 1px 1px, white -1px -1px 1px, white 1px -1px 1px, white -1px 1px 1px;">LC</text></g><g class="sankey-node" transform="translate(375.000,254.172)" style="opacity: 1;"><rect class="node-rect" width="15" height="88.43023255814" style="stroke-width: 0.5; stroke: rgb(0, 0, 0); stroke-opacity: 1; fill: rgb(0, 204, 150); fill-opacity: 1;"/><text class="node-label" data-notex="1" x="0" y="0" text-anchor="start" transform="translate(18.25,48.415116279070006)" style="cursor: default; font-family: 'Open Sans', verdana, arial, sans-serif; font-size: 12px; fill: rgb(42, 63, 95); fill-opacity: 1; white-space: pre; text-shadow: white 1px 1px 1px, white -1px -1px 1px, white 1px -1px 1px, white -1px 1px 1px;">Cla</text></g><g class="sankey-node" transform="translate(375.000,0.000)" style="opacity: 1;"><rect class="node-rect" width="15" height="110.53779069767413" style="stroke-width: 0.5; stroke: rgb(0, 0, 0); stroke-opacity: 1; fill: rgb(171, 99, 250); fill-opacity: 1;"/><text class="node-label" data-notex="1" x="0" y="0" text-anchor="start" transform="translate(18.25,59.468895348837066)" style="cursor: default; font-family: 'Open Sans', verdana, arial, sans-serif; font-size: 12px; fill: rgb(42, 63, 95); fill-opacity: 1; white-space: pre; text-shadow: white 1px 1px 1px, white -1px -1px 1px, white 1px -1px 1px, white -1px 1px 1px;">Str</text></g><g class="sankey-node" transform="translate(375.000,357.602)" style="opacity: 1;"><rect class="node-rect" width="15" height="34.01162790697674" style="stroke-width: 0.5; stroke: rgb(0, 0, 0); stroke-opacity: 1; fill: rgb(255, 161, 90); fill-opacity: 1;"/><text class="node-label" data-notex="1" x="0" y="0" text-anchor="start" transform="translate(18.25,21.20581395348837)" style="cursor: default; font-family: 'Open Sans', verdana, arial, sans-serif; font-size: 12px; fill: rgb(42, 63, 95); fill-opacity: 1; white-space: pre; text-shadow: white 1px 1px 1px, white -1px -1px 1px, white 1px -1px 1px, white -1px 1px 1px;">NAc</text></g><g class="sankey-node" transform="translate(375.000,125.538)" style="opacity: 1;"><rect class="node-rect" width="15" height="28.90988372093034" style="stroke-width: 0.5; stroke: rgb(0, 0, 0); stroke-opacity: 1; fill: rgb(25, 211, 243); fill-opacity: 1;"/><text class="node-label" data-notex="1" x="0" y="0" text-anchor="start" transform="translate(18.25,18.65494186046517)" style="cursor: default; font-family: 'Open Sans', verdana, arial, sans-serif; font-size: 12px; fill: rgb(42, 63, 95); fill-opacity: 1; white-space: pre; text-shadow: white 1px 1px 1px, white -1px -1px 1px, white 1px -1px 1px, white -1px 1px 1px;">BLA</text></g><g class="sankey-node" transform="translate(375.000,406.613)" style="opacity: 1;"><rect class="node-rect" width="15" height="8.502906976744157" style="stroke-width: 0.5; stroke: rgb(0, 0, 0); stroke-opacity: 1; fill: rgb(255, 102, 146); fill-opacity: 1;"/><text class="node-label" data-notex="1" x="0" y="0" text-anchor="start" transform="translate(18.25,8.451453488372078)" style="cursor: default; font-family: 'Open Sans', verdana, arial, sans-serif; font-size: 12px; fill: rgb(42, 63, 95); fill-opacity: 1; white-space: pre; text-shadow: white 1px 1px 1px, white -1px -1px 1px, white 1px -1px 1px, white -1px 1px 1px;">lHb</text></g><g class="sankey-node" transform="translate(375.000,430.116)" style="opacity: 1;"><rect class="node-rect" width="15" height="23.808139534883594" style="stroke-width: 0.5; stroke: rgb(0, 0, 0); stroke-opacity: 1; fill: rgb(182, 232, 128); fill-opacity: 1;"/><text class="node-label" data-notex="1" x="0" y="0" text-anchor="start" transform="translate(18.25,16.104069767441796)" style="cursor: default; font-family: 'Open Sans', verdana, arial, sans-serif; font-size: 12px; fill: rgb(42, 63, 95); fill-opacity: 1; white-space: pre; text-shadow: white 1px 1px 1px, white -1px -1px 1px, white 1px -1px 1px, white -1px 1px 1px;">dPAG</text></g><g class="sankey-node" transform="translate(375.000,468.924)" style="opacity: 1;"><rect class="node-rect" width="15" height="56.11918604651157" style="stroke-width: 0.5; stroke: rgb(0, 0, 0); stroke-opacity: 1; fill: rgb(255, 151, 255); fill-opacity: 1;"/><text class="node-label" data-notex="1" x="0" y="0" text-anchor="start" transform="translate(18.25,32.25959302325579)" style="cursor: default; font-family: 'Open Sans', verdana, arial, sans-serif; font-size: 12px; fill: rgb(42, 63, 95); fill-opacity: 1; white-space: pre; text-shadow: white 1px 1px 1px, white -1px -1px 1px, white 1px -1px 1px, white -1px 1px 1px;">cPFC</text></g><g class="sankey-node" transform="translate(375.000,692.791)" style="opacity: 1;"><rect class="node-rect" width="15" height="27.20930232558112" style="stroke-width: 0.5; stroke: rgb(0, 0, 0); stroke-opacity: 1; fill: rgb(254, 203, 82); fill-opacity: 1;"/><text class="node-label" data-notex="1" x="0" y="0" text-anchor="start" transform="translate(18.25,17.80465116279056)" style="cursor: default; font-family: 'Open Sans', verdana, arial, sans-serif; font-size: 12px; fill: rgb(42, 63, 95); fill-opacity: 1; white-space: pre; text-shadow: white 1px 1px 1px, white -1px -1px 1px, white 1px -1px 1px, white -1px 1px 1px;">LHyp</text></g></g></g><defs id="topdefs-7aa51a"><g class="clips"/></defs><g class="layer-above"><g class="imagelayer"/><g class="shapelayer"/></g><g class="infolayer"><g class="g-gtitle"/><g class="first-render"/></g></svg>