<svg class="main-svg" xmlns="http://www.w3.org/2000/svg" xmlns:xlink="http://www.w3.org/1999/xlink" width="1300" height="900" viewBox="0 0 1300 900" style=""><rect x="0" y="0" width="1300" height="900" style="fill: rgb(255, 255, 255); fill-opacity: 1;"/><defs id="defs-52088b"><g class="clips"/><g class="gradients"/><g class="patterns"/></defs><g class="bglayer"/><g class="layer-below"><g class="imagelayer"/><g class="shapelayer"/></g><g class="cartesianlayer"/><g class="polarlayer"/><g class="smithlayer"/><g class="ternarylayer"/><g class="geolayer"/><g class="funnelarealayer"/><g class="pielayer"/><g class="iciclelayer"/><g class="treemaplayer"/><g class="sunburstlayer"/><g class="glimages"/><g class="sankey" transform="translate(80,100)matrix(1 0 0 1 0 0)" style="box-sizing: content-box; position: absolute; left: 0px; shape-rendering: geometricprecision; pointer-events: none;"><g class="sankey-links" style="fill: none;"><path class="sankey-link" d="M7.50114,25.875550122249322C188.10057000000003,25.875550122249322 188.10057000000003,13.656234718826418 368.70000000000005,13.656234718826418L368.70000000000005,40.83227383863082C188.10057000000003,40.83227383863082 188.10057000000003,53.05158924205372 7.50114,53.05158924205372Z" style="stroke: rgb(68, 68, 68); stroke-opacity: 1; fill: rgb(99, 110, 250); fill-opacity: 0.6; stroke-width: 0; opacity: 1;"/><path class="sankey-link" d="M7.50114,53.05158924205372C188.10057000000003,53.05158924205372 188.10057000000003,62.66992665036675 368.70000000000005,62.66992665036675L368.70000000000005,95.56723716381417C188.10057000000003,95.56723716381417 188.10057000000003,85.94889975550115 7.50114,85.94889975550115Z" style="stroke: rgb(68, 68, 68); stroke-opacity: 1; fill: rgb(25, 211, 243); fill-opacity: 0.6; stroke-width: 0; opacity: 1;"/><path class="sankey-link" d="M7.50114,85.94889975550115C188.10057000000003,85.94889975550115 188.10057000000003,165.66381418092934 368.70000000000005,165.66381418092934L368.70000000000005,205.71271393643056C188.10057000000003,205.71271393643056 188.10057000000003,125.99779951100237 7.50114,125.99779951100237Z" style="stroke: rgb(68, 68, 68); stroke-opacity: 1; fill: rgb(239, 85, 59); fill-opacity: 0.6; stroke-width: 0; opacity: 1;"/><path class="sankey-link" d="M7.50114,125.99779951100237C188.10057000000003,125.99779951100237 188.10057000000003,280.054034229829 368.70000000000005,280.054034229829L368.70000000000005,298.64816625916893C188.10057000000003,298.64816625916893 188.10057000000003,144.59193154034222 7.50114,144.59193154034222Z" style="stroke: rgb(68, 68, 68); stroke-opacity: 1; fill: rgb(182, 232, 128); fill-opacity: 0.6; stroke-width: 0; opacity: 1;"/><path class="sankey-link" d="M7.50114,144.59193154034222C188.10057000000003,144.59193154034222 188.10057000000003,324.7481662591688 368.70000000000005,324.7481662591688L368.70000000000005,366.2273838630807C188.10057000000003,366.2273838630807 188.10057000000003,186.0711491442542 7.50114,186.0711491442542Z" style="stroke: rgb(68, 68, 68); stroke-opacity: 1; fill: rgb(255, 161, 90); fill-opacity: 0.6; stroke-width: 0; opacity: 1;"/><path class="sankey-link" d="M7.50114,186.0711491442542C188.10057000000003,186.0711491442542 188.10057000000003,431.5753056234722 368.70000000000005,431.5753056234722L368.70000000000005,440.1572127139368C188.10057000000003,440.1572127139368 188.10057000000003,194.65305623471875 7.50114,194.65305623471875Z" style="stroke: rgb(68, 68, 68); stroke-opacity: 1; fill: rgb(255, 151, 255); fill-opacity: 0.6; stroke-width: 0; opacity: 1;"/><path class="sankey-link" d="M7.50114,194.65305623471875C188.10057000000003,194.65305623471875 188.10057000000003,586.5469437652807 368.70000000000005,586.5469437652807L368.70000000000005,609.4320293398528C188.10057000000003,609.4320293398528 188.10057000000003,217.5381418092909 7.50114,217.5381418092909Z" style="stroke: rgb(68, 68, 68); stroke-opacity: 1; fill: rgb(255, 102, 146); fill-opacity: 0.6; stroke-width: 0; opacity: 1;"/><path class="sankey-link" d="M7.50114,217.53814180929086C188.10057000000003,217.53814180929086 188.10057000000003,649.291687041565 368.70000000000005,649.291687041565L368.70000000000005,663.5948655256725C188.10057000000003,663.5948655256725 188.10057000000003,231.84132029339847 7.50114,231.84132029339847Z" style="stroke: rgb(68, 68, 68); stroke-opacity: 1; fill: rgb(0, 204, 150); fill-opacity: 0.6; stroke-width: 0; opacity: 1;"/><path class="sankey-link" d="M7.50114,231.84132029339844C188.10057000000003,231.84132029339844 188.10057000000003,698.5914425427873 368.70000000000005,698.5914425427873L368.70000000000005,705.7430317848412C188.10057000000003,705.7430317848412 188.10057000000003,238.9929095354522 7.50114,238.9929095354522Z" style="stroke: rgb(68, 68, 68); stroke-opacity: 1; fill: rgb(171, 99, 250); fill-opacity: 0.6; stroke-width: 0; opacity: 1;"/><path class="sankey-link" d="M7.50114,270.02860635696817C188.10057000000003,270.02860635696817 188.10057000000003,40.83227383863082 368.70000000000005,40.83227383863082L368.70000000000005,50.844498777506125C188.10057000000003,50.844498777506125 188.10057000000003,280.0408312958435 7.50114,280.0408312958435Z" style="stroke: rgb(68, 68, 68); stroke-opacity: 1; fill: rgb(99, 110, 250); fill-opacity: 0.6; stroke-width: 0; opacity: 1;"/><path class="sankey-link" d="M7.50114,280.0408312958435C188.10057000000003,280.0408312958435 188.10057000000003,95.56723716381418 368.70000000000005,95.56723716381418L368.70000000000005,131.32518337408314C188.10057000000003,131.32518337408314 188.10057000000003,315.79877750611246 7.50114,315.79877750611246Z" style="stroke: rgb(68, 68, 68); stroke-opacity: 1; fill: rgb(25, 211, 243); fill-opacity: 0.6; stroke-width: 0; opacity: 1;"/><path class="sankey-link" d="M7.50114,315.7987775061124C188.10057000000003,315.7987775061124 188.10057000000003,205.71271393643056 368.70000000000005,205.71271393643056L368.70000000000005,207.14303178484133C188.10057000000003,207.14303178484133 188.10057000000003,317.2290953545231 7.50114,317.2290953545231Z" style="stroke: rgb(68, 68, 68); stroke-opacity: 1; fill: rgb(239, 85, 59); fill-opacity: 0.6; stroke-width: 0; opacity: 1;"/><path class="sankey-link" d="M7.50114,317.22909535452317C188.10057000000003,317.22909535452317 188.10057000000003,298.6481662591689 368.70000000000005,298.6481662591689L368.70000000000005,312.9513447432764C188.10057000000003,312.9513447432764 188.10057000000003,331.5322738386307 7.50114,331.5322738386307Z" style="stroke: rgb(68, 68, 68); stroke-opacity: 1; fill: rgb(182, 232, 128); fill-opacity: 0.6; stroke-width: 0; opacity: 1;"/><path class="sankey-link" d="M7.50114,331.5322738386308C188.10057000000003,331.5322738386308 188.10057000000003,366.2273838630808 368.70000000000005,366.2273838630808L368.70000000000005,376.2396088019561C188.10057000000003,376.2396088019561 188.10057000000003,341.5444987775061 7.50114,341.5444987775061Z" style="stroke: rgb(68, 68, 68); stroke-opacity: 1; fill: rgb(255, 161, 90); fill-opacity: 0.6; stroke-width: 0; opacity: 1;"/><path class="sankey-link" d="M7.50114,341.5444987775061C188.10057000000003,341.5444987775061 188.10057000000003,440.15721271393676 368.70000000000005,440.15721271393676L368.70000000000005,444.448166259169C188.10057000000003,444.448166259169 188.10057000000003,345.8354523227383 7.50114,345.8354523227383Z" style="stroke: rgb(68, 68, 68); stroke-opacity: 1; fill: rgb(255, 151, 255); fill-opacity: 0.6; stroke-width: 0; opacity: 1;"/><path class="sankey-link" d="M7.50114,345.8354523227384C188.10057000000003,345.8354523227384 188.10057000000003,609.4320293398529 368.70000000000005,609.4320293398529L368.70000000000005,616.5836185819068C188.10057000000003,616.5836185819068 188.10057000000003,352.98704156479215 7.50114,352.98704156479215Z" style="stroke: rgb(68, 68, 68); stroke-opacity: 1; fill: rgb(255, 102, 146); fill-opacity: 0.6; stroke-width: 0; opacity: 1;"/><path class="sankey-link" d="M7.50114,352.98704156479215C188.10057000000003,352.98704156479215 188.10057000000003,663.5948655256725 368.70000000000005,663.5948655256725L368.70000000000005,676.4677261613692C188.10057000000003,676.4677261613692 188.10057000000003,365.859902200489 7.50114,365.859902200489Z" style="stroke: rgb(68, 68, 68); stroke-opacity: 1; fill: rgb(0, 204, 150); fill-opacity: 0.6; stroke-width: 0; opacity: 1;"/><path class="sankey-link" d="M7.50114,392.8136919315401C188.10057000000003,392.8136919315401 188.10057000000003,131.32518337408314 368.70000000000005,131.32518337408314L368.70000000000005,142.7677261613692C188.10057000000003,142.7677261613692 188.10057000000003,404.25623471882614 7.50114,404.25623471882614Z" style="stroke: rgb(68, 68, 68); stroke-opacity: 1; fill: rgb(25, 211, 243); fill-opacity: 0.6; stroke-width: 0; opacity: 1;"/><path class="sankey-link" d="M7.50114,404.2562347188262C188.10057000000003,404.2562347188262 188.10057000000003,207.14303178484133 368.70000000000005,207.14303178484133L368.70000000000005,214.2946210268951C188.10057000000003,214.2946210268951 188.10057000000003,411.40782396087997 7.50114,411.40782396087997Z" style="stroke: rgb(68, 68, 68); stroke-opacity: 1; fill: rgb(239, 85, 59); fill-opacity: 0.6; stroke-width: 0; opacity: 1;"/><path class="sankey-link" d="M7.50114,411.40782396087997C188.10057000000003,411.40782396087997 188.10057000000003,234.07261613691938 368.70000000000005,234.07261613691938L368.70000000000005,249.8061124694377C188.10057000000003,249.8061124694377 188.10057000000003,427.14132029339834 7.50114,427.14132029339834Z" style="stroke: rgb(68, 68, 68); stroke-opacity: 1; fill: rgb(254, 203, 82); fill-opacity: 0.6; stroke-width: 0; opacity: 1;"/><path class="sankey-link" d="M7.50114,427.1413202933983C188.10057000000003,427.1413202933983 188.10057000000003,376.2396088019561 368.70000000000005,376.2396088019561L368.70000000000005,399.1246943765282C188.10057000000003,399.1246943765282 188.10057000000003,450.0264058679704 7.50114,450.0264058679704Z" style="stroke: rgb(68, 68, 68); stroke-opacity: 1; fill: rgb(255, 161, 90); fill-opacity: 0.6; stroke-width: 0; opacity: 1;"/><path class="sankey-link" d="M7.50114,450.0264058679704C188.10057000000003,450.0264058679704 188.10057000000003,444.44816625916906 368.70000000000005,444.44816625916906L368.70000000000005,510.24278728606396C188.10057000000003,510.24278728606396 188.10057000000003,515.8210268948653 7.50114,515.8210268948653Z" style="stroke: rgb(68, 68, 68); stroke-opacity: 1; fill: rgb(255, 151, 255); fill-opacity: 0.6; stroke-width: 0; opacity: 1;"/><path class="sankey-link" d="M7.50114,515.8210268948653C188.10057000000003,515.8210268948653 188.10057000000003,616.5836185819066 368.70000000000005,616.5836185819066L368.70000000000005,626.595843520782C188.10057000000003,626.595843520782 188.10057000000003,525.8332518337406 7.50114,525.8332518337406Z" style="stroke: rgb(68, 68, 68); stroke-opacity: 1; fill: rgb(255, 102, 146); fill-opacity: 0.6; stroke-width: 0; opacity: 1;"/><path class="sankey-link" d="M7.50114,525.8332518337406C188.10057000000003,525.8332518337406 188.10057000000003,676.4677261613693 368.70000000000005,676.4677261613693L368.70000000000005,680.7586797066016C188.10057000000003,680.7586797066016 188.10057000000003,530.1242053789729 7.50114,530.1242053789729Z" style="stroke: rgb(68, 68, 68); stroke-opacity: 1; fill: rgb(0, 204, 150); fill-opacity: 0.6; stroke-width: 0; opacity: 1;"/><path class="sankey-link" d="M7.50114,559.3885085574568C188.10057000000003,559.3885085574568 188.10057000000003,142.7677261613692 368.70000000000005,142.7677261613692L368.70000000000005,154.21026894865528C188.10057000000003,154.21026894865528 188.10057000000003,570.831051344743 7.50114,570.831051344743Z" style="stroke: rgb(68, 68, 68); stroke-opacity: 1; fill: rgb(25, 211, 243); fill-opacity: 0.6; stroke-width: 0; opacity: 1;"/><path class="sankey-link" d="M7.50114,570.8310513447428C188.10057000000003,570.8310513447428 188.10057000000003,214.29462102689513 368.70000000000005,214.29462102689513L368.70000000000005,221.4462102689489C188.10057000000003,221.4462102689489 188.10057000000003,577.9826405867967 7.50114,577.9826405867967Z" style="stroke: rgb(68, 68, 68); stroke-opacity: 1; fill: rgb(239, 85, 59); fill-opacity: 0.6; stroke-width: 0; opacity: 1;"/><path class="sankey-link" d="M7.50114,577.9826405867966C188.10057000000003,577.9826405867966 188.10057000000003,249.80611246943772 368.70000000000005,249.80611246943772L368.70000000000005,266.9699266503668C188.10057000000003,266.9699266503668 188.10057000000003,595.1464547677258 7.50114,595.1464547677258Z" style="stroke: rgb(68, 68, 68); stroke-opacity: 1; fill: rgb(254, 203, 82); fill-opacity: 0.6; stroke-width: 0; opacity: 1;"/><path class="sankey-link" d="M7.50114,595.1464547677257C188.10057000000003,595.1464547677257 188.10057000000003,399.1246943765282 368.70000000000005,399.1246943765282L368.70000000000005,422.00977995110037C188.10057000000003,422.00977995110037 188.10057000000003,618.0315403422977 7.50114,618.0315403422977Z" style="stroke: rgb(68, 68, 68); stroke-opacity: 1; fill: rgb(255, 161, 90); fill-opacity: 0.6; stroke-width: 0; opacity: 1;"/><path class="sankey-link" d="M7.50114,618.0315403422978C188.10057000000003,618.0315403422978 188.10057000000003,510.24278728606384 368.70000000000005,510.24278728606384L368.70000000000005,576.0374083129587C188.10057000000003,576.0374083129587 188.10057000000003,683.8261613691927 7.50114,683.8261613691927Z" style="stroke: rgb(68, 68, 68); stroke-opacity: 1; fill: rgb(255, 151, 255); fill-opacity: 0.6; stroke-width: 0; opacity: 1;"/><path class="sankey-link" d="M7.50114,683.8261613691927C188.10057000000003,683.8261613691927 188.10057000000003,626.595843520782 368.70000000000005,626.595843520782L368.70000000000005,636.6080684596573C188.10057000000003,636.6080684596573 188.10057000000003,693.838386308068 7.50114,693.838386308068Z" style="stroke: rgb(68, 68, 68); stroke-opacity: 1; fill: rgb(255, 102, 146); fill-opacity: 0.6; stroke-width: 0; opacity: 1;"/><path class="sankey-link" d="M7.50114,693.838386308068C188.10057000000003,693.838386308068 188.10057000000003,680.7586797066016 368.70000000000005,680.7586797066016L368.70000000000005,685.0496332518338C188.10057000000003,685.0496332518338 188.10057000000003,698.1293398533003 7.50114,698.1293398533003Z" style="stroke: rgb(68, 68, 68); stroke-opacity: 1; fill: rgb(0, 204, 150); fill-opacity: 0.6; stroke-width: 0; opacity: 1;"/><path class="sankey-link" d="M383.70000000000005,13.656234718826418C564.3000000000001,13.656234718826418 564.3000000000001,181.48123975262484 744.9000000000001,181.48123975262484L744.9000000000001,197.21473608514316C564.3000000000001,197.21473608514316 564.3000000000001,29.389731051344754 383.70000000000005,29.389731051344754Z" style="stroke: rgb(68, 68, 68); stroke-opacity: 1; fill: rgb(99, 110, 250); fill-opacity: 0.6; stroke-width: 0; opacity: 1;"/><path class="sankey-link" d="M383.70000000000005,62.66992665036675C564.3000000000001,62.66992665036675 564.3000000000001,197.2147360851432 744.9000000000001,197.2147360851432L744.9000000000001,221.5301395081261C564.3000000000001,221.5301395081261 564.3000000000001,86.98533007334963 383.70000000000005,86.98533007334963Z" style="stroke: rgb(68, 68, 68); stroke-opacity: 1; fill: rgb(25, 211, 243); fill-opacity: 0.6; stroke-width: 0; opacity: 1;"/><path class="sankey-link" d="M383.70000000000005,86.98533007334963C564.3000000000001,86.98533007334963 564.3000000000001,600.0758607795198 744.9000000000001,600.0758607795198L744.9000000000001,605.7971321731628C564.3000000000001,605.7971321731628 564.3000000000001,92.70660146699267 383.70000000000005,92.70660146699267Z" style="stroke: rgb(68, 68, 68); stroke-opacity: 1; fill: rgb(25, 211, 243); fill-opacity: 0.6; stroke-width: 0; opacity: 1;"/><path class="sankey-link" d="M383.70000000000005,165.66381418092934C564.3000000000001,165.66381418092934 564.3000000000001,221.53013950812607 744.9000000000001,221.53013950812607L744.9000000000001,244.4152250826982C564.3000000000001,244.4152250826982 564.3000000000001,188.54889975550148 383.70000000000005,188.54889975550148Z" style="stroke: rgb(68, 68, 68); stroke-opacity: 1; fill: rgb(239, 85, 59); fill-opacity: 0.6; stroke-width: 0; opacity: 1;"/><path class="sankey-link" d="M383.70000000000005,188.54889975550145C564.3000000000001,188.54889975550145 564.3000000000001,605.7971321731628 744.9000000000001,605.7971321731628L744.9000000000001,610.0880857183951C564.3000000000001,610.0880857183951 564.3000000000001,192.83985330073375 383.70000000000005,192.83985330073375Z" style="stroke: rgb(68, 68, 68); stroke-opacity: 1; fill: rgb(239, 85, 59); fill-opacity: 0.6; stroke-width: 0; opacity: 1;"/><path class="sankey-link" d="M383.70000000000005,234.07261613691938C564.3000000000001,234.07261613691938 564.3000000000001,244.41522508269819 744.9000000000001,244.41522508269819L744.9000000000001,257.288085718395C564.3000000000001,257.288085718395 564.3000000000001,246.94547677261622 383.70000000000005,246.94547677261622Z" style="stroke: rgb(68, 68, 68); stroke-opacity: 1; fill: rgb(254, 203, 82); fill-opacity: 0.6; stroke-width: 0; opacity: 1;"/><path class="sankey-link" d="M383.70000000000005,246.9454767726162C564.3000000000001,246.9454767726162 564.3000000000001,610.0880857183951 744.9000000000001,610.0880857183951L744.9000000000001,612.9487214152165C564.3000000000001,612.9487214152165 564.3000000000001,249.80611246943772 383.70000000000005,249.80611246943772Z" style="stroke: rgb(68, 68, 68); stroke-opacity: 1; fill: rgb(254, 203, 82); fill-opacity: 0.6; stroke-width: 0; opacity: 1;"/><path class="sankey-link" d="M383.70000000000005,280.054034229829C564.3000000000001,280.054034229829 564.3000000000001,257.288085718395 744.9000000000001,257.288085718395L744.9000000000001,273.02158205091337C564.3000000000001,273.02158205091337 564.3000000000001,295.7875305623474 383.70000000000005,295.7875305623474Z" style="stroke: rgb(68, 68, 68); stroke-opacity: 1; fill: rgb(182, 232, 128); fill-opacity: 0.6; stroke-width: 0; opacity: 1;"/><path class="sankey-link" d="M383.70000000000005,324.7481662591688C564.3000000000001,324.7481662591688 564.3000000000001,273.0215820509133 744.9000000000001,273.0215820509133L744.9000000000001,310.209846109593C564.3000000000001,310.209846109593 564.3000000000001,361.9364303178485 383.70000000000005,361.9364303178485Z" style="stroke: rgb(68, 68, 68); stroke-opacity: 1; fill: rgb(255, 161, 90); fill-opacity: 0.6; stroke-width: 0; opacity: 1;"/><path class="sankey-link" d="M383.70000000000005,361.9364303178485C564.3000000000001,361.9364303178485 564.3000000000001,612.9487214152166 744.9000000000001,612.9487214152166L744.9000000000001,620.1003106572705C564.3000000000001,620.1003106572705 564.3000000000001,369.08801955990225 383.70000000000005,369.08801955990225Z" style="stroke: rgb(68, 68, 68); stroke-opacity: 1; fill: rgb(255, 161, 90); fill-opacity: 0.6; stroke-width: 0; opacity: 1;"/><path class="sankey-link" d="M383.70000000000005,431.5753056234722C564.3000000000001,431.5753056234722 564.3000000000001,310.209846109593 744.9000000000001,310.209846109593L744.9000000000001,343.10715662304045C564.3000000000001,343.10715662304045 564.3000000000001,464.47261613691967 383.70000000000005,464.47261613691967Z" style="stroke: rgb(68, 68, 68); stroke-opacity: 1; fill: rgb(255, 151, 255); fill-opacity: 0.6; stroke-width: 0; opacity: 1;"/><path class="sankey-link" d="M383.70000000000005,464.47261613691967C564.3000000000001,464.47261613691967 564.3000000000001,620.1003106572704 744.9000000000001,620.1003106572704L744.9000000000001,648.7066676254855C564.3000000000001,648.7066676254855 564.3000000000001,493.0789731051349 383.70000000000005,493.0789731051349Z" style="stroke: rgb(68, 68, 68); stroke-opacity: 1; fill: rgb(255, 151, 255); fill-opacity: 0.6; stroke-width: 0; opacity: 1;"/><path class="sankey-link" d="M383.70000000000005,586.5469437652807C564.3000000000001,586.5469437652807 564.3000000000001,343.10715662304045 744.9000000000001,343.10715662304045L744.9000000000001,355.9800172587373C564.3000000000001,355.9800172587373 564.3000000000001,599.4198044009775 383.70000000000005,599.4198044009775Z" style="stroke: rgb(68, 68, 68); stroke-opacity: 1; fill: rgb(255, 102, 146); fill-opacity: 0.6; stroke-width: 0; opacity: 1;"/><path class="sankey-link" d="M383.70000000000005,599.4198044009776C564.3000000000001,599.4198044009776 564.3000000000001,648.7066676254856 744.9000000000001,648.7066676254856L744.9000000000001,652.9976211707178C564.3000000000001,652.9976211707178 564.3000000000001,603.7107579462098 383.70000000000005,603.7107579462098Z" style="stroke: rgb(68, 68, 68); stroke-opacity: 1; fill: rgb(255, 102, 146); fill-opacity: 0.6; stroke-width: 0; opacity: 1;"/><path class="sankey-link" d="M383.70000000000005,649.291687041565C564.3000000000001,649.291687041565 564.3000000000001,355.9800172587373 744.9000000000001,355.9800172587373L744.9000000000001,364.5619243492019C564.3000000000001,364.5619243492019 564.3000000000001,657.8735941320294 383.70000000000005,657.8735941320294Z" style="stroke: rgb(68, 68, 68); stroke-opacity: 1; fill: rgb(0, 204, 150); fill-opacity: 0.6; stroke-width: 0; opacity: 1;"/><path class="sankey-link" d="M383.70000000000005,657.8735941320296C564.3000000000001,657.8735941320296 564.3000000000001,652.9976211707178 744.9000000000001,652.9976211707178L744.9000000000001,655.8582568675392C564.3000000000001,655.8582568675392 564.3000000000001,660.734229828851 383.70000000000005,660.734229828851Z" style="stroke: rgb(68, 68, 68); stroke-opacity: 1; fill: rgb(0, 204, 150); fill-opacity: 0.6; stroke-width: 0; opacity: 1;"/><path class="sankey-link" d="M383.70000000000005,698.5914425427873C564.3000000000001,698.5914425427873 564.3000000000001,364.56192434920183 744.9000000000001,364.56192434920183L744.9000000000001,368.8528778944341C564.3000000000001,368.8528778944341 564.3000000000001,702.8823960880195 383.70000000000005,702.8823960880195Z" style="stroke: rgb(68, 68, 68); stroke-opacity: 1; fill: rgb(171, 99, 250); fill-opacity: 0.6; stroke-width: 0; opacity: 1;"/><path class="sankey-link" d="M759.9000000000001,181.48123975262484C946.19943,181.48123975262484 946.19943,92.98774629656273 1132.49886,92.98774629656273L1132.49886,98.70901769020577C946.19943,98.70901769020577 946.19943,187.20251114626785 759.9000000000001,187.20251114626785Z" style="stroke: rgb(68, 68, 68); stroke-opacity: 1; fill: rgb(99, 110, 250); fill-opacity: 0.6; stroke-width: 0; opacity: 1;"/><path class="sankey-link" d="M759.9000000000001,275.8822177477349C946.19943,275.8822177477349 946.19943,357.77349345606234 1132.49886,357.77349345606234L1132.49886,367.78571839493765C946.19943,367.78571839493765 946.19943,285.8944426866102 759.9000000000001,285.8944426866102Z" style="stroke: rgb(68, 68, 68); stroke-opacity: 1; fill: rgb(99, 110, 250); fill-opacity: 0.6; stroke-width: 0; opacity: 1;"/><path class="sankey-link" d="M759.9000000000001,187.20251114626788C946.19943,187.20251114626788 946.19943,98.70901769020577 1132.49886,98.70901769020577L1132.49886,110.15156047749184C946.19943,110.15156047749184 946.19943,198.64505393355395 759.9000000000001,198.64505393355395Z" style="stroke: rgb(68, 68, 68); stroke-opacity: 1; fill: rgb(25, 211, 243); fill-opacity: 0.6; stroke-width: 0; opacity: 1;"/><path class="sankey-link" d="M759.9000000000001,285.8944426866102C946.19943,285.8944426866102 946.19943,367.78571839493765 1132.49886,367.78571839493765L1132.49886,380.6585790306345C946.19943,380.6585790306345 946.19943,298.76730332230704 759.9000000000001,298.76730332230704Z" style="stroke: rgb(68, 68, 68); stroke-opacity: 1; fill: rgb(25, 211, 243); fill-opacity: 0.6; stroke-width: 0; opacity: 1;"/><path class="sankey-link" d="M759.9000000000001,600.0758607795198C946.19943,600.0758607795198 946.19943,553.2576873292105 1132.49886,553.2576873292105L1132.49886,554.6880051776213C946.19943,554.6880051776213 946.19943,601.5061786279306 759.9000000000001,601.5061786279306Z" style="stroke: rgb(68, 68, 68); stroke-opacity: 1; fill: rgb(25, 211, 243); fill-opacity: 0.6; stroke-width: 0; opacity: 1;"/><path class="sankey-link" d="M759.9000000000001,612.9487214152164C946.19943,612.9487214152164 946.19943,626.9687616856035 1132.49886,626.9687616856035L1132.49886,631.2597152308357C946.19943,631.2597152308357 946.19943,617.2396749604486 759.9000000000001,617.2396749604486Z" style="stroke: rgb(68, 68, 68); stroke-opacity: 1; fill: rgb(25, 211, 243); fill-opacity: 0.6; stroke-width: 0; opacity: 1;"/><path class="sankey-link" d="M759.9000000000001,198.64505393355395C946.19943,198.64505393355395 946.19943,110.15156047749183 1132.49886,110.15156047749183L1132.49886,123.02442111318864C946.19943,123.02442111318864 946.19943,211.5179145692508 759.9000000000001,211.5179145692508Z" style="stroke: rgb(68, 68, 68); stroke-opacity: 1; fill: rgb(239, 85, 59); fill-opacity: 0.6; stroke-width: 0; opacity: 1;"/><path class="sankey-link" d="M759.9000000000001,298.76730332230704C946.19943,298.76730332230704 946.19943,380.6585790306345 1132.49886,380.6585790306345L1132.49886,390.6708039695098C946.19943,390.6708039695098 946.19943,308.77952826118235 759.9000000000001,308.77952826118235Z" style="stroke: rgb(68, 68, 68); stroke-opacity: 1; fill: rgb(239, 85, 59); fill-opacity: 0.6; stroke-width: 0; opacity: 1;"/><path class="sankey-link" d="M759.9000000000001,617.2396749604486C946.19943,617.2396749604486 946.19943,631.2597152308357 1132.49886,631.2597152308357L1132.49886,635.5506687760679C946.19943,635.5506687760679 946.19943,621.5306285056809 759.9000000000001,621.5306285056809Z" style="stroke: rgb(68, 68, 68); stroke-opacity: 1; fill: rgb(239, 85, 59); fill-opacity: 0.6; stroke-width: 0; opacity: 1;"/><path class="sankey-link" d="M759.9000000000001,211.51791456925076C946.19943,211.51791456925076 946.19943,123.02442111318865 1132.49886,123.02442111318865L1132.49886,131.6063282036532C946.19943,131.6063282036532 946.19943,220.0998216597153 759.9000000000001,220.0998216597153Z" style="stroke: rgb(68, 68, 68); stroke-opacity: 1; fill: rgb(254, 203, 82); fill-opacity: 0.6; stroke-width: 0; opacity: 1;"/><path class="sankey-link" d="M759.9000000000001,308.77952826118235C946.19943,308.77952826118235 946.19943,390.6708039695098 1132.49886,390.6708039695098L1132.49886,394.96175751474203C946.19943,394.96175751474203 946.19943,313.0704818064146 759.9000000000001,313.0704818064146Z" style="stroke: rgb(68, 68, 68); stroke-opacity: 1; fill: rgb(254, 203, 82); fill-opacity: 0.6; stroke-width: 0; opacity: 1;"/><path class="sankey-link" d="M759.9000000000001,601.5061786279305C946.19943,601.5061786279305 946.19943,554.6880051776212 1132.49886,554.6880051776212L1132.49886,556.118323026032C946.19943,556.118323026032 946.19943,602.9364964763413 759.9000000000001,602.9364964763413Z" style="stroke: rgb(68, 68, 68); stroke-opacity: 1; fill: rgb(254, 203, 82); fill-opacity: 0.6; stroke-width: 0; opacity: 1;"/><path class="sankey-link" d="M759.9000000000001,621.5306285056809C946.19943,621.5306285056809 946.19943,635.5506687760679 1132.49886,635.5506687760679L1132.49886,636.9809866244788C946.19943,636.9809866244788 946.19943,622.9609463540917 759.9000000000001,622.9609463540917Z" style="stroke: rgb(68, 68, 68); stroke-opacity: 1; fill: rgb(254, 203, 82); fill-opacity: 0.6; stroke-width: 0; opacity: 1;"/><path class="sankey-link" d="M759.9000000000001,220.0998216597153C946.19943,220.0998216597153 946.19943,131.6063282036532 1132.49886,131.6063282036532L1132.49886,137.3275995972962C946.19943,137.3275995972962 946.19943,225.8210930533583 759.9000000000001,225.8210930533583Z" style="stroke: rgb(68, 68, 68); stroke-opacity: 1; fill: rgb(182, 232, 128); fill-opacity: 0.6; stroke-width: 0; opacity: 1;"/><path class="sankey-link" d="M759.9000000000001,313.07048180641465C946.19943,313.07048180641465 946.19943,394.9617575147421 1132.49886,394.9617575147421L1132.49886,404.9739824536174C946.19943,404.9739824536174 946.19943,323.08270674528995 759.9000000000001,323.08270674528995Z" style="stroke: rgb(68, 68, 68); stroke-opacity: 1; fill: rgb(182, 232, 128); fill-opacity: 0.6; stroke-width: 0; opacity: 1;"/><path class="sankey-link" d="M759.9000000000001,225.82109305335834C946.19943,225.82109305335834 946.19943,137.32759959729623 1132.49886,137.32759959729623L1132.49886,157.35204947504684C946.19943,157.35204947504684 946.19943,245.84554293110895 759.9000000000001,245.84554293110895Z" style="stroke: rgb(68, 68, 68); stroke-opacity: 1; fill: rgb(255, 161, 90); fill-opacity: 0.6; stroke-width: 0; opacity: 1;"/><path class="sankey-link" d="M759.9000000000001,323.08270674528995C946.19943,323.08270674528995 946.19943,404.9739824536174 1132.49886,404.9739824536174L1132.49886,422.1377966345465C946.19943,422.1377966345465 946.19943,340.24652092621903 759.9000000000001,340.24652092621903Z" style="stroke: rgb(68, 68, 68); stroke-opacity: 1; fill: rgb(255, 161, 90); fill-opacity: 0.6; stroke-width: 0; opacity: 1;"/><path class="sankey-link" d="M759.9000000000001,622.9609463540916C946.19943,622.9609463540916 946.19943,636.9809866244786 1132.49886,636.9809866244786L1132.49886,644.1325758665325C946.19943,644.1325758665325 946.19943,630.1125355961454 759.9000000000001,630.1125355961454Z" style="stroke: rgb(68, 68, 68); stroke-opacity: 1; fill: rgb(255, 161, 90); fill-opacity: 0.6; stroke-width: 0; opacity: 1;"/><path class="sankey-link" d="M759.9000000000001,245.84554293110895C946.19943,245.84554293110895 946.19943,157.35204947504684 1132.49886,157.35204947504684L1132.49886,178.80681720120822C946.19943,178.80681720120822 946.19943,267.3003106572703 759.9000000000001,267.3003106572703Z" style="stroke: rgb(68, 68, 68); stroke-opacity: 1; fill: rgb(255, 151, 255); fill-opacity: 0.6; stroke-width: 0; opacity: 1;"/><path class="sankey-link" d="M759.9000000000001,340.24652092621903C946.19943,340.24652092621903 946.19943,422.1377966345465 1132.49886,422.1377966345465L1132.49886,433.5803394218325C946.19943,433.5803394218325 946.19943,351.68906371350505 759.9000000000001,351.68906371350505Z" style="stroke: rgb(68, 68, 68); stroke-opacity: 1; fill: rgb(255, 151, 255); fill-opacity: 0.6; stroke-width: 0; opacity: 1;"/><path class="sankey-link" d="M759.9000000000001,602.9364964763412C946.19943,602.9364964763412 946.19943,556.1183230260319 1132.49886,556.1183230260319L1132.49886,563.2699122680858C946.19943,563.2699122680858 946.19943,610.0880857183951 759.9000000000001,610.0880857183951Z" style="stroke: rgb(68, 68, 68); stroke-opacity: 1; fill: rgb(255, 151, 255); fill-opacity: 0.6; stroke-width: 0; opacity: 1;"/><path class="sankey-link" d="M759.9000000000001,630.1125355961453C946.19943,630.1125355961453 946.19943,644.1325758665324 1132.49886,644.1325758665324L1132.49886,665.5873435926939C946.19943,665.5873435926939 946.19943,651.5673033223068 759.9000000000001,651.5673033223068Z" style="stroke: rgb(68, 68, 68); stroke-opacity: 1; fill: rgb(255, 151, 255); fill-opacity: 0.6; stroke-width: 0; opacity: 1;"/><path class="sankey-link" d="M759.9000000000001,267.3003106572703C946.19943,267.3003106572703 946.19943,178.80681720120822 1132.49886,178.80681720120822L1132.49886,183.09777074644052C946.19943,183.09777074644052 946.19943,271.59126420250254 759.9000000000001,271.59126420250254Z" style="stroke: rgb(68, 68, 68); stroke-opacity: 1; fill: rgb(255, 102, 146); fill-opacity: 0.6; stroke-width: 0; opacity: 1;"/><path class="sankey-link" d="M759.9000000000001,351.6890637135051C946.19943,351.6890637135051 946.19943,433.58033942183255 1132.49886,433.58033942183255L1132.49886,442.16224651229714C946.19943,442.16224651229714 946.19943,360.2709708039697 759.9000000000001,360.2709708039697Z" style="stroke: rgb(68, 68, 68); stroke-opacity: 1; fill: rgb(255, 102, 146); fill-opacity: 0.6; stroke-width: 0; opacity: 1;"/><path class="sankey-link" d="M759.9000000000001,610.088085718395C946.19943,610.088085718395 946.19943,563.2699122680857 1132.49886,563.2699122680857L1132.49886,564.7002301164965C946.19943,564.7002301164965 946.19943,611.5184035668058 759.9000000000001,611.5184035668058Z" style="stroke: rgb(68, 68, 68); stroke-opacity: 1; fill: rgb(255, 102, 146); fill-opacity: 0.6; stroke-width: 0; opacity: 1;"/><path class="sankey-link" d="M759.9000000000001,651.5673033223067C946.19943,651.5673033223067 946.19943,665.5873435926937 1132.49886,665.5873435926937L1132.49886,668.4479792895152C946.19943,668.4479792895152 946.19943,654.4279390191281 759.9000000000001,654.4279390191281Z" style="stroke: rgb(68, 68, 68); stroke-opacity: 1; fill: rgb(255, 102, 146); fill-opacity: 0.6; stroke-width: 0; opacity: 1;"/><path class="sankey-link" d="M759.9000000000001,271.5912642025026C946.19943,271.5912642025026 946.19943,183.0977707464405 1132.49886,183.0977707464405L1132.49886,185.95840644326202C946.19943,185.95840644326202 946.19943,274.45189989932413 759.9000000000001,274.45189989932413Z" style="stroke: rgb(68, 68, 68); stroke-opacity: 1; fill: rgb(0, 204, 150); fill-opacity: 0.6; stroke-width: 0; opacity: 1;"/><path class="sankey-link" d="M759.9000000000001,360.27097080396965C946.19943,360.27097080396965 946.19943,442.1622465122971 1132.49886,442.1622465122971L1132.49886,447.88351790594015C946.19943,447.88351790594015 946.19943,365.9922421976127 759.9000000000001,365.9922421976127Z" style="stroke: rgb(68, 68, 68); stroke-opacity: 1; fill: rgb(0, 204, 150); fill-opacity: 0.6; stroke-width: 0; opacity: 1;"/><path class="sankey-link" d="M759.9000000000001,611.5184035668057C946.19943,611.5184035668057 946.19943,564.7002301164964 1132.49886,564.7002301164964L1132.49886,566.1305479649072C946.19943,566.1305479649072 946.19943,612.9487214152165 759.9000000000001,612.9487214152165Z" style="stroke: rgb(68, 68, 68); stroke-opacity: 1; fill: rgb(0, 204, 150); fill-opacity: 0.6; stroke-width: 0; opacity: 1;"/><path class="sankey-link" d="M759.9000000000001,654.4279390191282C946.19943,654.4279390191282 946.19943,668.4479792895153 1132.49886,668.4479792895153L1132.49886,669.8782971379261C946.19943,669.8782971379261 946.19943,655.858256867539 759.9000000000001,655.858256867539Z" style="stroke: rgb(68, 68, 68); stroke-opacity: 1; fill: rgb(0, 204, 150); fill-opacity: 0.6; stroke-width: 0; opacity: 1;"/><path class="sankey-link" d="M759.9000000000001,274.45189989932413C946.19943,274.45189989932413 946.19943,185.958406443262 1132.49886,185.958406443262L1132.49886,187.38872429167276C946.19943,187.38872429167276 946.19943,275.88221774773484 759.9000000000001,275.88221774773484Z" style="stroke: rgb(68, 68, 68); stroke-opacity: 1; fill: rgb(171, 99, 250); fill-opacity: 0.6; stroke-width: 0; opacity: 1;"/><path class="sankey-link" d="M759.9000000000001,365.99224219761265C946.19943,365.99224219761265 946.19943,447.8835179059401 1132.49886,447.8835179059401L1132.49886,450.7441536027616C946.19943,450.7441536027616 946.19943,368.8528778944342 759.9000000000001,368.8528778944342Z" style="stroke: rgb(68, 68, 68); stroke-opacity: 1; fill: rgb(171, 99, 250); fill-opacity: 0.6; stroke-width: 0; opacity: 1;"/></g><g class="sankey-node-set" style="cursor: ns-resize;"><g class="sankey-node" transform="translate(-7.499,25.876)" style="opacity: 1;"><rect class="node-rect" width="15" height="213.11735941320308" style="stroke-width: 0.5; stroke: rgb(0, 0, 0); stroke-opacity: 1; fill: rgb(128, 128, 128); fill-opacity: 1;"/><text class="node-label" data-notex="1" x="0" y="0" text-anchor="start" transform="translate(18.25,110.75867970660154)" style="cursor: default; font-family: 'Open Sans', verdana, arial, sans-serif; font-size: 12px; fill: rgb(42, 63, 95); fill-opacity: 1; white-space: pre; text-shadow: white 1px 1px 1px, white -1px -1px 1px, white 1px -1px 1px, white -1px 1px 1px;">21272R</text></g><g class="sankey-node" transform="translate(-7.499,270.029)" style="opacity: 1;"><rect class="node-rect" width="15" height="95.83129584352082" style="stroke-width: 0.5; stroke: rgb(0, 0, 0); stroke-opacity: 1; fill: rgb(128, 128, 128); fill-opacity: 1;"/><text class="node-label" data-notex="1" x="0" y="0" text-anchor="start" transform="translate(18.25,52.11564792176041)" style="cursor: default; font-family: 'Open Sans', verdana, arial, sans-serif; font-size: 12px; fill: rgb(42, 63, 95); fill-opacity: 1; white-space: pre; text-shadow: white 1px 1px 1px, white -1px -1px 1px, white 1px -1px 1px, white -1px 1px 1px;">21965RL</text></g><g class="sankey-node" transform="translate(-7.499,392.814)" style="opacity: 1;"><rect class="node-rect" width="15" height="137.3105134474331" style="stroke-width: 0.5; stroke: rgb(0, 0, 0); stroke-opacity: 1; fill: rgb(128, 128, 128); fill-opacity: 1;"/><text class="node-label" data-notex="1" x="0" y="0" text-anchor="start" transform="translate(18.25,72.85525672371655)" style="cursor: default; font-family: 'Open Sans', verdana, arial, sans-serif; font-size: 12px; fill: rgb(42, 63, 95); fill-opacity: 1; white-space: pre; text-shadow: white 1px 1px 1px, white -1px -1px 1px, white 1px -1px 1px, white -1px 1px 1px;">22384</text></g><g class="sankey-node" transform="translate(-7.499,559.389)" style="opacity: 1;"><rect class="node-rect" width="15" height="138.74083129584415" style="stroke-width: 0.5; stroke: rgb(0, 0, 0); stroke-opacity: 1; fill: rgb(128, 128, 128); fill-opacity: 1;"/><text class="node-label" data-notex="1" x="0" y="0" text-anchor="start" transform="translate(18.25,73.57041564792208)" style="cursor: default; font-family: 'Open Sans', verdana, arial, sans-serif; font-size: 12px; fill: rgb(42, 63, 95); fill-opacity: 1; white-space: pre; text-shadow: white 1px 1px 1px, white -1px -1px 1px, white 1px -1px 1px, white -1px 1px 1px;">22670</text></g><g class="sankey-node" transform="translate(744.900,181.481)" style="opacity: 1;"><rect class="node-rect" width="15" height="187.37163814180917" style="stroke-width: 0.5; stroke: rgb(0, 0, 0); stroke-opacity: 1; fill: rgb(128, 128, 128); fill-opacity: 1;"/><text class="node-label" data-notex="1" x="0" y="0" text-anchor="start" transform="translate(18.25,97.88581907090459)" style="cursor: default; font-family: 'Open Sans', verdana, arial, sans-serif; font-size: 12px; fill: rgb(42, 63, 95); fill-opacity: 1; white-space: pre; text-shadow: white 1px 1px 1px, white -1px -1px 1px, white 1px -1px 1px, white -1px 1px 1px;">Active</text></g><g class="sankey-node" transform="translate(744.900,600.076)" style="opacity: 1;"><rect class="node-rect" width="15" height="55.78239608801914" style="stroke-width: 0.5; stroke: rgb(0, 0, 0); stroke-opacity: 1; fill: rgb(128, 128, 128); fill-opacity: 1;"/><text class="node-label" data-notex="1" x="0" y="0" text-anchor="start" transform="translate(18.25,32.09119804400957)" style="cursor: default; font-family: 'Open Sans', verdana, arial, sans-serif; font-size: 12px; fill: rgb(42, 63, 95); fill-opacity: 1; white-space: pre; text-shadow: white 1px 1px 1px, white -1px -1px 1px, white 1px -1px 1px, white -1px 1px 1px;">NonActive</text></g><g class="sankey-node" transform="translate(1132.499,92.988)" style="opacity: 1;"><rect class="node-rect" width="15" height="94.40097799510983" style="stroke-width: 0.5; stroke: rgb(0, 0, 0); stroke-opacity: 1; fill: rgb(128, 128, 128); fill-opacity: 1;"/><text class="node-label" data-notex="1" x="0" y="0" text-anchor="end" transform="translate(-3.25,51.400488997554916)" style="cursor: default; font-family: 'Open Sans', verdana, arial, sans-serif; font-size: 12px; fill: rgb(42, 63, 95); fill-opacity: 1; white-space: pre; text-shadow: white 1px 1px 1px, white -1px -1px 1px, white 1px -1px 1px, white -1px 1px 1px;">Active-activated</text></g><g class="sankey-node" transform="translate(1132.499,357.773)" style="opacity: 1;"><rect class="node-rect" width="15" height="92.97066014669895" style="stroke-width: 0.5; stroke: rgb(0, 0, 0); stroke-opacity: 1; fill: rgb(128, 128, 128); fill-opacity: 1;"/><text class="node-label" data-notex="1" x="0" y="0" text-anchor="end" transform="translate(-3.25,50.685330073349476)" style="cursor: default; font-family: 'Open Sans', verdana, arial, sans-serif; font-size: 12px; fill: rgb(42, 63, 95); fill-opacity: 1; white-space: pre; text-shadow: white 1px 1px 1px, white -1px -1px 1px, white 1px -1px 1px, white -1px 1px 1px;">Active-suppressed</text></g><g class="sankey-node" transform="translate(1132.499,553.258)" style="opacity: 1;"><rect class="node-rect" width="15" height="12.872860635696725" style="stroke-width: 0.5; stroke: rgb(0, 0, 0); stroke-opacity: 1; fill: rgb(128, 128, 128); fill-opacity: 1;"/><text class="node-label" data-notex="1" x="0" y="0" text-anchor="end" transform="translate(-3.25,10.636430317848362)" style="cursor: default; font-family: 'Open Sans', verdana, arial, sans-serif; font-size: 12px; fill: rgb(42, 63, 95); fill-opacity: 1; white-space: pre; text-shadow: white 1px 1px 1px, white -1px -1px 1px, white 1px -1px 1px, white -1px 1px 1px;">NonActive-activated</text></g><g class="sankey-node" transform="translate(1132.499,626.969)" style="opacity: 1;"><rect class="node-rect" width="15" height="42.90953545232264" style="stroke-width: 0.5; stroke: rgb(0, 0, 0); stroke-opacity: 1; fill: rgb(128, 128, 128); fill-opacity: 1;"/><text class="node-label" data-notex="1" x="0" y="0" text-anchor="end" transform="translate(-3.25,25.65476772616132)" style="cursor: default; font-family: 'Open Sans', verdana, arial, sans-serif; font-size: 12px; fill: rgb(42, 63, 95); fill-opacity: 1; white-space: pre; text-shadow: white 1px 1px 1px, white -1px -1px 1px, white 1px -1px 1px, white -1px 1px 1px;">NonActive-suppressed</text></g><g class="sankey-node" transform="translate(368.700,13.656)" style="opacity: 1;"><rect class="node-rect" width="15" height="37.18826405867969" style="stroke-width: 0.5; stroke: rgb(0, 0, 0); stroke-opacity: 1; fill: rgb(99, 110, 250); fill-opacity: 1;"/><text class="node-label" data-notex="1" x="0" y="0" text-anchor="start" transform="translate(18.25,22.794132029339846)" style="cursor: default; font-family: 'Open Sans', verdana, arial, sans-serif; font-size: 12px; fill: rgb(42, 63, 95); fill-opacity: 1; white-space: pre; text-shadow: white 1px 1px 1px, white -1px -1px 1px, white 1px -1px 1px, white -1px 1px 1px;">BLA</text></g><g class="sankey-node" transform="translate(368.700,62.670)" style="opacity: 1;"><rect class="node-rect" width="15" height="91.54034229828851" style="stroke-width: 0.5; stroke: rgb(0, 0, 0); stroke-opacity: 1; fill: rgb(25, 211, 243); fill-opacity: 1;"/><text class="node-label" data-notex="1" x="0" y="0" text-anchor="start" transform="translate(18.25,49.97017114914425)" style="cursor: default; font-family: 'Open Sans', verdana, arial, sans-serif; font-size: 12px; fill: rgb(42, 63, 95); fill-opacity: 1; white-space: pre; text-shadow: white 1px 1px 1px, white -1px -1px 1px, white 1px -1px 1px, white -1px 1px 1px;">Cla</text></g><g class="sankey-node" transform="translate(368.700,165.664)" style="opacity: 1;"><rect class="node-rect" width="15" height="55.78239608801914" style="stroke-width: 0.5; stroke: rgb(0, 0, 0); stroke-opacity: 1; fill: rgb(239, 85, 59); fill-opacity: 1;"/><text class="node-label" data-notex="1" x="0" y="0" text-anchor="start" transform="translate(18.25,32.09119804400957)" style="cursor: default; font-family: 'Open Sans', verdana, arial, sans-serif; font-size: 12px; fill: rgb(42, 63, 95); fill-opacity: 1; white-space: pre; text-shadow: white 1px 1px 1px, white -1px -1px 1px, white 1px -1px 1px, white -1px 1px 1px;">LC</text></g><g class="sankey-node" transform="translate(368.700,234.073)" style="opacity: 1;"><rect class="node-rect" width="15" height="32.89731051344731" style="stroke-width: 0.5; stroke: rgb(0, 0, 0); stroke-opacity: 1; fill: rgb(254, 203, 82); fill-opacity: 1;"/><text class="node-label" data-notex="1" x="0" y="0" text-anchor="start" transform="translate(18.25,20.648655256723654)" style="cursor: default; font-family: 'Open Sans', verdana, arial, sans-serif; font-size: 12px; fill: rgb(42, 63, 95); fill-opacity: 1; white-space: pre; text-shadow: white 1px 1px 1px, white -1px -1px 1px, white 1px -1px 1px, white -1px 1px 1px;">LHyp</text></g><g class="sankey-node" transform="translate(368.700,280.054)" style="opacity: 1;"><rect class="node-rect" width="15" height="32.89731051344711" style="stroke-width: 0.5; stroke: rgb(0, 0, 0); stroke-opacity: 1; fill: rgb(182, 232, 128); fill-opacity: 1;"/><text class="node-label" data-notex="1" x="0" y="0" text-anchor="start" transform="translate(18.25,20.648655256723554)" style="cursor: default; font-family: 'Open Sans', verdana, arial, sans-serif; font-size: 12px; fill: rgb(42, 63, 95); fill-opacity: 1; white-space: pre; text-shadow: white 1px 1px 1px, white -1px -1px 1px, white 1px -1px 1px, white -1px 1px 1px;">NAc</text></g><g class="sankey-node" transform="translate(368.700,324.748)" style="opacity: 1;"><rect class="node-rect" width="15" height="97.2616136919313" style="stroke-width: 0.5; stroke: rgb(0, 0, 0); stroke-opacity: 1; fill: rgb(255, 161, 90); fill-opacity: 1;"/><text class="node-label" data-notex="1" x="0" y="0" text-anchor="start" transform="translate(18.25,52.830806845965654)" style="cursor: default; font-family: 'Open Sans', verdana, arial, sans-serif; font-size: 12px; fill: rgb(42, 63, 95); fill-opacity: 1; white-space: pre; text-shadow: white 1px 1px 1px, white -1px -1px 1px, white 1px -1px 1px, white -1px 1px 1px;">Str</text></g><g class="sankey-node" transform="translate(368.700,431.575)" style="opacity: 1;"><rect class="node-rect" width="15" height="144.46210268948585" style="stroke-width: 0.5; stroke: rgb(0, 0, 0); stroke-opacity: 1; fill: rgb(255, 151, 255); fill-opacity: 1;"/><text class="node-label" data-notex="1" x="0" y="0" text-anchor="start" transform="translate(18.25,76.43105134474293)" style="cursor: default; font-family: 'Open Sans', verdana, arial, sans-serif; font-size: 12px; fill: rgb(42, 63, 95); fill-opacity: 1; white-space: pre; text-shadow: white 1px 1px 1px, white -1px -1px 1px, white 1px -1px 1px, white -1px 1px 1px;">VTA</text></g><g class="sankey-node" transform="translate(368.700,586.547)" style="opacity: 1;"><rect class="node-rect" width="15" height="50.06112469437721" style="stroke-width: 0.5; stroke: rgb(0, 0, 0); stroke-opacity: 1; fill: rgb(255, 102, 146); fill-opacity: 1;"/><text class="node-label" data-notex="1" x="0" y="0" text-anchor="start" transform="translate(18.25,29.230562347188606)" style="cursor: default; font-family: 'Open Sans', verdana, arial, sans-serif; font-size: 12px; fill: rgb(42, 63, 95); fill-opacity: 1; white-space: pre; text-shadow: white 1px 1px 1px, white -1px -1px 1px, white 1px -1px 1px, white -1px 1px 1px;">cPFC</text></g><g class="sankey-node" transform="translate(368.700,649.292)" style="opacity: 1;"><rect class="node-rect" width="15" height="35.75794621026853" style="stroke-width: 0.5; stroke: rgb(0, 0, 0); stroke-opacity: 1; fill: rgb(0, 204, 150); fill-opacity: 1;"/><text class="node-label" data-notex="1" x="0" y="0" text-anchor="start" transform="translate(18.25,22.078973105134263)" style="cursor: default; font-family: 'Open Sans', verdana, arial, sans-serif; font-size: 12px; fill: rgb(42, 63, 95); fill-opacity: 1; white-space: pre; text-shadow: white 1px 1px 1px, white -1px -1px 1px, white 1px -1px 1px, white -1px 1px 1px;">dPAG</text></g><g class="sankey-node" transform="translate(368.700,698.591)" style="opacity: 1;"><rect class="node-rect" width="15" height="7.151589242053888" style="stroke-width: 0.5; stroke: rgb(0, 0, 0); stroke-opacity: 1; fill: rgb(171, 99, 250); fill-opacity: 1;"/><text class="node-label" data-notex="1" x="0" y="0" text-anchor="start" transform="translate(18.25,7.775794621026943)" style="cursor: default; font-family: 'Open Sans', verdana, arial, sans-serif; font-size: 12px; fill: rgb(42, 63, 95); fill-opacity: 1; white-space: pre; text-shadow: white 1px 1px 1px, white -1px -1px 1px, white 1px -1px 1px, white -1px 1px 1px;">lHb</text></g></g></g><defs id="topdefs-52088b"><g class="clips"/></defs><g class="layer-above"><g class="imagelayer"/><g class="shapelayer"/></g><g class="infolayer"><g class="g-gtitle"/><g class="first-render"/></g></svg>