<svg class="main-svg" xmlns="http://www.w3.org/2000/svg" xmlns:xlink="http://www.w3.org/1999/xlink" width="1300" height="900" viewBox="0 0 1300 900" style=""><rect x="0" y="0" width="1300" height="900" style="fill: rgb(255, 255, 255); fill-opacity: 1;"/><defs id="defs-637a77"><g class="clips"/><g class="gradients"/><g class="patterns"/></defs><g class="bglayer"/><g class="layer-below"><g class="imagelayer"/><g class="shapelayer"/></g><g class="cartesianlayer"/><g class="polarlayer"/><g class="smithlayer"/><g class="ternarylayer"/><g class="geolayer"/><g class="funnelarealayer"/><g class="pielayer"/><g class="iciclelayer"/><g class="treemaplayer"/><g class="sunburstlayer"/><g class="glimages"/><g class="sankey" transform="translate(80,100)matrix(1 0 0 1 0 0)" style="box-sizing: content-box; position: absolute; left: 0px; shape-rendering: geometricprecision; pointer-events: none;"><g class="sankey-links" style="fill: none;"><path class="sankey-link" d="M7.50114,53.33713364010313C188.10057000000003,53.33713364010313 188.10057000000003,13.61433756805814 368.70000000000005,13.61433756805814L368.70000000000005,33.78675136116159C188.10057000000003,33.78675136116159 188.10057000000003,73.50954743320659 7.50114,73.50954743320659Z" style="stroke: rgb(68, 68, 68); stroke-opacity: 1; fill: rgb(99, 110, 250); fill-opacity: 0.6; stroke-width: 0; opacity: 1;"/><path class="sankey-link" d="M7.50114,73.50954743320659C188.10057000000003,73.50954743320659 188.10057000000003,64.70689655172379 368.70000000000005,64.70689655172379L368.70000000000005,89.12613430127007C188.10057000000003,89.12613430127007 188.10057000000003,97.92878518275288 7.50114,97.92878518275288Z" style="stroke: rgb(68, 68, 68); stroke-opacity: 1; fill: rgb(25, 211, 243); fill-opacity: 0.6; stroke-width: 0; opacity: 1;"/><path class="sankey-link" d="M7.50114,97.92878518275288C188.10057000000003,97.92878518275288 188.10057000000003,166.29419237749545 368.70000000000005,166.29419237749545L368.70000000000005,196.02196007259528C188.10057000000003,196.02196007259528 188.10057000000003,127.6565528778527 7.50114,127.6565528778527Z" style="stroke: rgb(68, 68, 68); stroke-opacity: 1; fill: rgb(239, 85, 59); fill-opacity: 0.6; stroke-width: 0; opacity: 1;"/><path class="sankey-link" d="M7.50114,127.65655287785272C188.10057000000003,127.65655287785272 188.10057000000003,289.54355716878405 368.70000000000005,289.54355716878405L368.70000000000005,303.34573502722327C188.10057000000003,303.34573502722327 188.10057000000003,141.45873073629193 7.50114,141.45873073629193Z" style="stroke: rgb(68, 68, 68); stroke-opacity: 1; fill: rgb(182, 232, 128); fill-opacity: 0.6; stroke-width: 0; opacity: 1;"/><path class="sankey-link" d="M7.50114,141.4587307362919C188.10057000000003,141.4587307362919 188.10057000000003,330.10399274047177 368.70000000000005,330.10399274047177L368.70000000000005,360.8934664246823C188.10057000000003,360.8934664246823 188.10057000000003,172.24820442050242 7.50114,172.24820442050242Z" style="stroke: rgb(68, 68, 68); stroke-opacity: 1; fill: rgb(255, 161, 90); fill-opacity: 0.6; stroke-width: 0; opacity: 1;"/><path class="sankey-link" d="M7.50114,172.24820442050242C188.10057000000003,172.24820442050242 188.10057000000003,436.38402903811294 368.70000000000005,436.38402903811294L368.70000000000005,442.7542649727772C188.10057000000003,442.7542649727772 188.10057000000003,178.61844035516668 7.50114,178.61844035516668Z" style="stroke: rgb(68, 68, 68); stroke-opacity: 1; fill: rgb(255, 151, 255); fill-opacity: 0.6; stroke-width: 0; opacity: 1;"/><path class="sankey-link" d="M7.50114,178.61844035516668C188.10057000000003,178.61844035516668 188.10057000000003,587.1283121597097 368.70000000000005,587.1283121597097L368.70000000000005,604.115607985481C188.10057000000003,604.115607985481 188.10057000000003,195.60573618093798 7.50114,195.60573618093798Z" style="stroke: rgb(68, 68, 68); stroke-opacity: 1; fill: rgb(255, 102, 146); fill-opacity: 0.6; stroke-width: 0; opacity: 1;"/><path class="sankey-link" d="M7.50114,195.60573618093798C188.10057000000003,195.60573618093798 188.10057000000003,649.7934664246828 368.70000000000005,649.7934664246828L368.70000000000005,660.41052631579C188.10057000000003,660.41052631579 188.10057000000003,206.22279607204507 7.50114,206.22279607204507Z" style="stroke: rgb(68, 68, 68); stroke-opacity: 1; fill: rgb(0, 204, 150); fill-opacity: 0.6; stroke-width: 0; opacity: 1;"/><path class="sankey-link" d="M7.50114,206.22279607204507C188.10057000000003,206.22279607204507 188.10057000000003,695.1952813067153 368.70000000000005,695.1952813067153L368.70000000000005,700.5038112522689C188.10057000000003,700.5038112522689 188.10057000000003,211.5313260175986 7.50114,211.5313260175986Z" style="stroke: rgb(68, 68, 68); stroke-opacity: 1; fill: rgb(171, 99, 250); fill-opacity: 0.6; stroke-width: 0; opacity: 1;"/><path class="sankey-link" d="M7.50114,282.3771036435199C188.10057000000003,282.3771036435199 188.10057000000003,33.78675136116159 368.70000000000005,33.78675136116159L368.70000000000005,41.21869328493655C188.10057000000003,41.21869328493655 188.10057000000003,289.80904556729485 7.50114,289.80904556729485Z" style="stroke: rgb(68, 68, 68); stroke-opacity: 1; fill: rgb(99, 110, 250); fill-opacity: 0.6; stroke-width: 0; opacity: 1;"/><path class="sankey-link" d="M7.50114,289.8090455672949C188.10057000000003,289.8090455672949 188.10057000000003,89.12613430127007 368.70000000000005,89.12613430127007L368.70000000000005,115.66878402903777C188.10057000000003,115.66878402903777 188.10057000000003,316.35169529506254 7.50114,316.35169529506254Z" style="stroke: rgb(68, 68, 68); stroke-opacity: 1; fill: rgb(25, 211, 243); fill-opacity: 0.6; stroke-width: 0; opacity: 1;"/><path class="sankey-link" d="M7.50114,316.35169529506254C188.10057000000003,316.35169529506254 188.10057000000003,196.02196007259528 368.70000000000005,196.02196007259528L368.70000000000005,197.08366606170597C188.10057000000003,197.08366606170597 188.10057000000003,317.41340128417323 7.50114,317.41340128417323Z" style="stroke: rgb(68, 68, 68); stroke-opacity: 1; fill: rgb(239, 85, 59); fill-opacity: 0.6; stroke-width: 0; opacity: 1;"/><path class="sankey-link" d="M7.50114,317.41340128417323C188.10057000000003,317.41340128417323 188.10057000000003,303.34573502722327 368.70000000000005,303.34573502722327L368.70000000000005,313.9627949183303C188.10057000000003,313.9627949183303 188.10057000000003,328.03046117528027 7.50114,328.03046117528027Z" style="stroke: rgb(68, 68, 68); stroke-opacity: 1; fill: rgb(182, 232, 128); fill-opacity: 0.6; stroke-width: 0; opacity: 1;"/><path class="sankey-link" d="M7.50114,328.0304611752803C188.10057000000003,328.0304611752803 188.10057000000003,360.8934664246823 368.70000000000005,360.8934664246823L368.70000000000005,368.32540834845724C188.10057000000003,368.32540834845724 188.10057000000003,335.4624030990553 7.50114,335.4624030990553Z" style="stroke: rgb(68, 68, 68); stroke-opacity: 1; fill: rgb(255, 161, 90); fill-opacity: 0.6; stroke-width: 0; opacity: 1;"/><path class="sankey-link" d="M7.50114,335.4624030990553C188.10057000000003,335.4624030990553 188.10057000000003,442.7542649727772 368.70000000000005,442.7542649727772L368.70000000000005,445.9393829401093C188.10057000000003,445.9393829401093 188.10057000000003,338.64752106638736 7.50114,338.64752106638736Z" style="stroke: rgb(68, 68, 68); stroke-opacity: 1; fill: rgb(255, 151, 255); fill-opacity: 0.6; stroke-width: 0; opacity: 1;"/><path class="sankey-link" d="M7.50114,338.6475210663874C188.10057000000003,338.6475210663874 188.10057000000003,604.115607985481 368.70000000000005,604.115607985481L368.70000000000005,609.4241379310346C188.10057000000003,609.4241379310346 188.10057000000003,343.956051011941 7.50114,343.956051011941Z" style="stroke: rgb(68, 68, 68); stroke-opacity: 1; fill: rgb(255, 102, 146); fill-opacity: 0.6; stroke-width: 0; opacity: 1;"/><path class="sankey-link" d="M7.50114,343.95605101194093C188.10057000000003,343.95605101194093 188.10057000000003,660.4105263157899 368.70000000000005,660.4105263157899L368.70000000000005,669.9658802177862C188.10057000000003,669.9658802177862 188.10057000000003,353.51140491393727 7.50114,353.51140491393727Z" style="stroke: rgb(68, 68, 68); stroke-opacity: 1; fill: rgb(0, 204, 150); fill-opacity: 0.6; stroke-width: 0; opacity: 1;"/><path class="sankey-link" d="M7.50114,410.50706117794266C188.10057000000003,410.50706117794266 188.10057000000003,115.66878402903777 368.70000000000005,115.66878402903777L368.70000000000005,124.16243194192342C188.10057000000003,124.16243194192342 188.10057000000003,419.0007090908283 7.50114,419.0007090908283Z" style="stroke: rgb(68, 68, 68); stroke-opacity: 1; fill: rgb(25, 211, 243); fill-opacity: 0.6; stroke-width: 0; opacity: 1;"/><path class="sankey-link" d="M7.50114,419.0007090908283C188.10057000000003,419.0007090908283 188.10057000000003,197.083666061706 368.70000000000005,197.083666061706L368.70000000000005,202.3921960072595C188.10057000000003,202.3921960072595 188.10057000000003,424.3092390363819 7.50114,424.3092390363819Z" style="stroke: rgb(68, 68, 68); stroke-opacity: 1; fill: rgb(239, 85, 59); fill-opacity: 0.6; stroke-width: 0; opacity: 1;"/><path class="sankey-link" d="M7.50114,424.3092390363818C188.10057000000003,424.3092390363818 188.10057000000003,241.38130671506366 368.70000000000005,241.38130671506366L368.70000000000005,253.06007259528144C188.10057000000003,253.06007259528144 188.10057000000003,435.98800491659966 7.50114,435.98800491659966Z" style="stroke: rgb(68, 68, 68); stroke-opacity: 1; fill: rgb(254, 203, 82); fill-opacity: 0.6; stroke-width: 0; opacity: 1;"/><path class="sankey-link" d="M7.50114,435.9880049165996C188.10057000000003,435.9880049165996 188.10057000000003,368.32540834845724 368.70000000000005,368.32540834845724L368.70000000000005,385.31270417422854C188.10057000000003,385.31270417422854 188.10057000000003,452.9753007423709 7.50114,452.9753007423709Z" style="stroke: rgb(68, 68, 68); stroke-opacity: 1; fill: rgb(255, 161, 90); fill-opacity: 0.6; stroke-width: 0; opacity: 1;"/><path class="sankey-link" d="M7.50114,452.9753007423709C188.10057000000003,452.9753007423709 188.10057000000003,445.93938294010934 368.70000000000005,445.93938294010934L368.70000000000005,494.77785843920185C188.10057000000003,494.77785843920185 188.10057000000003,501.8137762414634 7.50114,501.8137762414634Z" style="stroke: rgb(68, 68, 68); stroke-opacity: 1; fill: rgb(255, 151, 255); fill-opacity: 0.6; stroke-width: 0; opacity: 1;"/><path class="sankey-link" d="M7.50114,501.8137762414635C188.10057000000003,501.8137762414635 188.10057000000003,609.4241379310346 368.70000000000005,609.4241379310346L368.70000000000005,616.8560798548095C188.10057000000003,616.8560798548095 188.10057000000003,509.24571816523843 7.50114,509.24571816523843Z" style="stroke: rgb(68, 68, 68); stroke-opacity: 1; fill: rgb(255, 102, 146); fill-opacity: 0.6; stroke-width: 0; opacity: 1;"/><path class="sankey-link" d="M7.50114,509.24571816523843C188.10057000000003,509.24571816523843 188.10057000000003,669.9658802177862 368.70000000000005,669.9658802177862L368.70000000000005,673.1509981851184C188.10057000000003,673.1509981851184 188.10057000000003,512.4308361325706 7.50114,512.4308361325706Z" style="stroke: rgb(68, 68, 68); stroke-opacity: 1; fill: rgb(0, 204, 150); fill-opacity: 0.6; stroke-width: 0; opacity: 1;"/><path class="sankey-link" d="M7.50114,577.2661837335096C188.10057000000003,577.2661837335096 188.10057000000003,124.16243194192344 368.70000000000005,124.16243194192344L368.70000000000005,132.6560798548091C188.10057000000003,132.6560798548091 188.10057000000003,585.7598316463954 7.50114,585.7598316463954Z" style="stroke: rgb(68, 68, 68); stroke-opacity: 1; fill: rgb(25, 211, 243); fill-opacity: 0.6; stroke-width: 0; opacity: 1;"/><path class="sankey-link" d="M7.50114,585.7598316463952C188.10057000000003,585.7598316463952 188.10057000000003,202.39219600725954 368.70000000000005,202.39219600725954L368.70000000000005,207.70072595281306C188.10057000000003,207.70072595281306 188.10057000000003,591.0683615919488 7.50114,591.0683615919488Z" style="stroke: rgb(68, 68, 68); stroke-opacity: 1; fill: rgb(239, 85, 59); fill-opacity: 0.6; stroke-width: 0; opacity: 1;"/><path class="sankey-link" d="M7.50114,591.0683615919488C188.10057000000003,591.0683615919488 188.10057000000003,253.06007259528147 368.70000000000005,253.06007259528147L368.70000000000005,265.80054446460997C188.10057000000003,265.80054446460997 188.10057000000003,603.8088334612773 7.50114,603.8088334612773Z" style="stroke: rgb(68, 68, 68); stroke-opacity: 1; fill: rgb(254, 203, 82); fill-opacity: 0.6; stroke-width: 0; opacity: 1;"/><path class="sankey-link" d="M7.50114,603.8088334612773C188.10057000000003,603.8088334612773 188.10057000000003,385.31270417422854 368.70000000000005,385.31270417422854L368.70000000000005,402.29999999999984C188.10057000000003,402.29999999999984 188.10057000000003,620.7961292870486 7.50114,620.7961292870486Z" style="stroke: rgb(68, 68, 68); stroke-opacity: 1; fill: rgb(255, 161, 90); fill-opacity: 0.6; stroke-width: 0; opacity: 1;"/><path class="sankey-link" d="M7.50114,620.7961292870486C188.10057000000003,620.7961292870486 188.10057000000003,494.77785843920196 368.70000000000005,494.77785843920196L368.70000000000005,543.6163339382945C188.10057000000003,543.6163339382945 188.10057000000003,669.6346047861412 7.50114,669.6346047861412Z" style="stroke: rgb(68, 68, 68); stroke-opacity: 1; fill: rgb(255, 151, 255); fill-opacity: 0.6; stroke-width: 0; opacity: 1;"/><path class="sankey-link" d="M7.50114,669.6346047861412C188.10057000000003,669.6346047861412 188.10057000000003,616.8560798548095 368.70000000000005,616.8560798548095L368.70000000000005,624.2880217785845C188.10057000000003,624.2880217785845 188.10057000000003,677.0665467099161 7.50114,677.0665467099161Z" style="stroke: rgb(68, 68, 68); stroke-opacity: 1; fill: rgb(255, 102, 146); fill-opacity: 0.6; stroke-width: 0; opacity: 1;"/><path class="sankey-link" d="M7.50114,677.0665467099161C188.10057000000003,677.0665467099161 188.10057000000003,673.1509981851183 368.70000000000005,673.1509981851183L368.70000000000005,676.3361161524505C188.10057000000003,676.3361161524505 188.10057000000003,680.2516646772483 7.50114,680.2516646772483Z" style="stroke: rgb(68, 68, 68); stroke-opacity: 1; fill: rgb(0, 204, 150); fill-opacity: 0.6; stroke-width: 0; opacity: 1;"/><path class="sankey-link" d="M383.70000000000005,13.61433756805814C564.3000000000001,13.61433756805814 564.3000000000001,19.07477313974597 744.9000000000001,19.07477313974597L744.9000000000001,26.50671506352093C564.3000000000001,26.50671506352093 564.3000000000001,21.046279491833097 383.70000000000005,21.046279491833097Z" style="stroke: rgb(68, 68, 68); stroke-opacity: 1; fill: rgb(99, 110, 250); fill-opacity: 0.6; stroke-width: 0; opacity: 1;"/><path class="sankey-link" d="M383.70000000000005,21.046279491833097C564.3000000000001,21.046279491833097 564.3000000000001,306.57495462794896 744.9000000000001,306.57495462794896L744.9000000000001,326.74736842105244C564.3000000000001,326.74736842105244 564.3000000000001,41.21869328493655 383.70000000000005,41.21869328493655Z" style="stroke: rgb(68, 68, 68); stroke-opacity: 1; fill: rgb(99, 110, 250); fill-opacity: 0.6; stroke-width: 0; opacity: 1;"/><path class="sankey-link" d="M383.70000000000005,41.21869328493655C564.3000000000001,41.21869328493655 564.3000000000001,544.1520871143377 744.9000000000001,544.1520871143377L744.9000000000001,555.8308529945555C564.3000000000001,555.8308529945555 564.3000000000001,52.89745916515433 383.70000000000005,52.89745916515433Z" style="stroke: rgb(68, 68, 68); stroke-opacity: 1; fill: rgb(99, 110, 250); fill-opacity: 0.6; stroke-width: 0; opacity: 1;"/><path class="sankey-link" d="M383.70000000000005,64.70689655172379C564.3000000000001,64.70689655172379 564.3000000000001,26.50671506352093 744.9000000000001,26.50671506352093L744.9000000000001,44.55571687840296C564.3000000000001,44.55571687840296 564.3000000000001,82.75589836660583 383.70000000000005,82.75589836660583Z" style="stroke: rgb(68, 68, 68); stroke-opacity: 1; fill: rgb(25, 211, 243); fill-opacity: 0.6; stroke-width: 0; opacity: 1;"/><path class="sankey-link" d="M383.70000000000005,82.75589836660583C564.3000000000001,82.75589836660583 564.3000000000001,153.7333938294011 744.9000000000001,153.7333938294011L744.9000000000001,162.22704174228676C564.3000000000001,162.22704174228676 564.3000000000001,91.24954627949148 383.70000000000005,91.24954627949148Z" style="stroke: rgb(68, 68, 68); stroke-opacity: 1; fill: rgb(25, 211, 243); fill-opacity: 0.6; stroke-width: 0; opacity: 1;"/><path class="sankey-link" d="M383.70000000000005,91.24954627949148C564.3000000000001,91.24954627949148 564.3000000000001,245.93357531760432 744.9000000000001,245.93357531760432L744.9000000000001,249.11869328493646C564.3000000000001,249.11869328493646 564.3000000000001,94.43466424682362 383.70000000000005,94.43466424682362Z" style="stroke: rgb(68, 68, 68); stroke-opacity: 1; fill: rgb(25, 211, 243); fill-opacity: 0.6; stroke-width: 0; opacity: 1;"/><path class="sankey-link" d="M383.70000000000005,94.4346642468236C564.3000000000001,94.4346642468236 564.3000000000001,326.7473684210524 744.9000000000001,326.7473684210524L744.9000000000001,357.5368421052629C564.3000000000001,357.5368421052629 564.3000000000001,125.22413793103412 383.70000000000005,125.22413793103412Z" style="stroke: rgb(68, 68, 68); stroke-opacity: 1; fill: rgb(25, 211, 243); fill-opacity: 0.6; stroke-width: 0; opacity: 1;"/><path class="sankey-link" d="M383.70000000000005,125.22413793103414C564.3000000000001,125.22413793103414 564.3000000000001,555.8308529945556 744.9000000000001,555.8308529945556L744.9000000000001,585.5586206896554C564.3000000000001,585.5586206896554 564.3000000000001,154.95190562613396 383.70000000000005,154.95190562613396Z" style="stroke: rgb(68, 68, 68); stroke-opacity: 1; fill: rgb(25, 211, 243); fill-opacity: 0.6; stroke-width: 0; opacity: 1;"/><path class="sankey-link" d="M383.70000000000005,166.29419237749545C564.3000000000001,166.29419237749545 564.3000000000001,44.55571687840296 744.9000000000001,44.55571687840296L744.9000000000001,57.29618874773146C564.3000000000001,57.29618874773146 564.3000000000001,179.03466424682392 383.70000000000005,179.03466424682392Z" style="stroke: rgb(68, 68, 68); stroke-opacity: 1; fill: rgb(239, 85, 59); fill-opacity: 0.6; stroke-width: 0; opacity: 1;"/><path class="sankey-link" d="M383.70000000000005,179.03466424682395C564.3000000000001,179.03466424682395 564.3000000000001,162.22704174228676 744.9000000000001,162.22704174228676L744.9000000000001,167.53557168784027C564.3000000000001,167.53557168784027 564.3000000000001,184.34319419237747 383.70000000000005,184.34319419237747Z" style="stroke: rgb(68, 68, 68); stroke-opacity: 1; fill: rgb(239, 85, 59); fill-opacity: 0.6; stroke-width: 0; opacity: 1;"/><path class="sankey-link" d="M383.70000000000005,184.3431941923775C564.3000000000001,184.3431941923775 564.3000000000001,249.11869328493646 744.9000000000001,249.11869328493646L744.9000000000001,252.3038112522686C564.3000000000001,252.3038112522686 564.3000000000001,187.52831215970963 383.70000000000005,187.52831215970963Z" style="stroke: rgb(68, 68, 68); stroke-opacity: 1; fill: rgb(239, 85, 59); fill-opacity: 0.6; stroke-width: 0; opacity: 1;"/><path class="sankey-link" d="M383.70000000000005,187.52831215970963C564.3000000000001,187.52831215970963 564.3000000000001,357.5368421052629 744.9000000000001,357.5368421052629L744.9000000000001,383.01778584391985C564.3000000000001,383.01778584391985 564.3000000000001,213.00925589836663 383.70000000000005,213.00925589836663Z" style="stroke: rgb(68, 68, 68); stroke-opacity: 1; fill: rgb(239, 85, 59); fill-opacity: 0.6; stroke-width: 0; opacity: 1;"/><path class="sankey-link" d="M383.70000000000005,213.00925589836663C564.3000000000001,213.00925589836663 564.3000000000001,585.5586206896554 744.9000000000001,585.5586206896554L744.9000000000001,601.4842105263161C564.3000000000001,601.4842105263161 564.3000000000001,228.93484573502724 383.70000000000005,228.93484573502724Z" style="stroke: rgb(68, 68, 68); stroke-opacity: 1; fill: rgb(239, 85, 59); fill-opacity: 0.6; stroke-width: 0; opacity: 1;"/><path class="sankey-link" d="M383.70000000000005,241.38130671506366C564.3000000000001,241.38130671506366 564.3000000000001,57.296188747731456 744.9000000000001,57.296188747731456L744.9000000000001,60.481306715063575C564.3000000000001,60.481306715063575 564.3000000000001,244.5664246823958 383.70000000000005,244.5664246823958Z" style="stroke: rgb(68, 68, 68); stroke-opacity: 1; fill: rgb(254, 203, 82); fill-opacity: 0.6; stroke-width: 0; opacity: 1;"/><path class="sankey-link" d="M383.70000000000005,244.5664246823958C564.3000000000001,244.5664246823958 564.3000000000001,167.5355716878403 744.9000000000001,167.5355716878403L744.9000000000001,174.96751361161526C564.3000000000001,174.96751361161526 564.3000000000001,251.99836660617075 383.70000000000005,251.99836660617075Z" style="stroke: rgb(68, 68, 68); stroke-opacity: 1; fill: rgb(254, 203, 82); fill-opacity: 0.6; stroke-width: 0; opacity: 1;"/><path class="sankey-link" d="M383.70000000000005,251.99836660617075C564.3000000000001,251.99836660617075 564.3000000000001,252.3038112522686 744.9000000000001,252.3038112522686L744.9000000000001,254.42722323049003C564.3000000000001,254.42722323049003 564.3000000000001,254.1217785843922 383.70000000000005,254.1217785843922Z" style="stroke: rgb(68, 68, 68); stroke-opacity: 1; fill: rgb(254, 203, 82); fill-opacity: 0.6; stroke-width: 0; opacity: 1;"/><path class="sankey-link" d="M383.70000000000005,254.12177858439216C564.3000000000001,254.12177858439216 564.3000000000001,383.0177858439199 744.9000000000001,383.0177858439199L744.9000000000001,394.69655172413775C564.3000000000001,394.69655172413775 564.3000000000001,265.80054446460997 383.70000000000005,265.80054446460997Z" style="stroke: rgb(68, 68, 68); stroke-opacity: 1; fill: rgb(254, 203, 82); fill-opacity: 0.6; stroke-width: 0; opacity: 1;"/><path class="sankey-link" d="M383.70000000000005,265.80054446460997C564.3000000000001,265.80054446460997 564.3000000000001,601.484210526316 744.9000000000001,601.484210526316L744.9000000000001,612.1012704174232C564.3000000000001,612.1012704174232 564.3000000000001,276.417604355717 383.70000000000005,276.417604355717Z" style="stroke: rgb(68, 68, 68); stroke-opacity: 1; fill: rgb(254, 203, 82); fill-opacity: 0.6; stroke-width: 0; opacity: 1;"/><path class="sankey-link" d="M383.70000000000005,289.54355716878405C564.3000000000001,289.54355716878405 564.3000000000001,60.48130671506358 744.9000000000001,60.48130671506358L744.9000000000001,65.78983666061713C564.3000000000001,65.78983666061713 564.3000000000001,294.8520871143376 383.70000000000005,294.8520871143376Z" style="stroke: rgb(68, 68, 68); stroke-opacity: 1; fill: rgb(182, 232, 128); fill-opacity: 0.6; stroke-width: 0; opacity: 1;"/><path class="sankey-link" d="M383.70000000000005,294.85208711433756C564.3000000000001,294.85208711433756 564.3000000000001,174.96751361161526 744.9000000000001,174.96751361161526L744.9000000000001,178.1526315789474C564.3000000000001,178.1526315789474 564.3000000000001,298.03720508166964 383.70000000000005,298.03720508166964Z" style="stroke: rgb(68, 68, 68); stroke-opacity: 1; fill: rgb(182, 232, 128); fill-opacity: 0.6; stroke-width: 0; opacity: 1;"/><path class="sankey-link" d="M383.70000000000005,298.0372050816697C564.3000000000001,298.0372050816697 564.3000000000001,394.6965517241377 744.9000000000001,394.6965517241377L744.9000000000001,405.3136116152447C564.3000000000001,405.3136116152447 564.3000000000001,308.65426497277673 383.70000000000005,308.65426497277673Z" style="stroke: rgb(68, 68, 68); stroke-opacity: 1; fill: rgb(182, 232, 128); fill-opacity: 0.6; stroke-width: 0; opacity: 1;"/><path class="sankey-link" d="M383.70000000000005,308.6542649727768C564.3000000000001,308.6542649727768 564.3000000000001,612.101270417423 744.9000000000001,612.101270417423L744.9000000000001,621.6566243194194C564.3000000000001,621.6566243194194 564.3000000000001,318.2096188747731 383.70000000000005,318.2096188747731Z" style="stroke: rgb(68, 68, 68); stroke-opacity: 1; fill: rgb(182, 232, 128); fill-opacity: 0.6; stroke-width: 0; opacity: 1;"/><path class="sankey-link" d="M383.70000000000005,330.10399274047177C564.3000000000001,330.10399274047177 564.3000000000001,65.78983666061713 744.9000000000001,65.78983666061713L744.9000000000001,82.77713248638845C564.3000000000001,82.77713248638845 564.3000000000001,347.09128856624307 383.70000000000005,347.09128856624307Z" style="stroke: rgb(68, 68, 68); stroke-opacity: 1; fill: rgb(255, 161, 90); fill-opacity: 0.6; stroke-width: 0; opacity: 1;"/><path class="sankey-link" d="M383.70000000000005,347.09128856624307C564.3000000000001,347.09128856624307 564.3000000000001,178.1526315789474 744.9000000000001,178.1526315789474L744.9000000000001,196.20163339382944C564.3000000000001,196.20163339382944 564.3000000000001,365.14029038112506 383.70000000000005,365.14029038112506Z" style="stroke: rgb(68, 68, 68); stroke-opacity: 1; fill: rgb(255, 161, 90); fill-opacity: 0.6; stroke-width: 0; opacity: 1;"/><path class="sankey-link" d="M383.70000000000005,365.1402903811251C564.3000000000001,365.1402903811251 564.3000000000001,254.42722323049 744.9000000000001,254.42722323049L744.9000000000001,258.67404718693285C564.3000000000001,258.67404718693285 564.3000000000001,369.387114337568 383.70000000000005,369.387114337568Z" style="stroke: rgb(68, 68, 68); stroke-opacity: 1; fill: rgb(255, 161, 90); fill-opacity: 0.6; stroke-width: 0; opacity: 1;"/><path class="sankey-link" d="M383.70000000000005,369.38711433756794C564.3000000000001,369.38711433756794 564.3000000000001,405.3136116152448 744.9000000000001,405.3136116152448L744.9000000000001,439.2882032667874C564.3000000000001,439.2882032667874 564.3000000000001,403.36170598911053 383.70000000000005,403.36170598911053Z" style="stroke: rgb(68, 68, 68); stroke-opacity: 1; fill: rgb(255, 161, 90); fill-opacity: 0.6; stroke-width: 0; opacity: 1;"/><path class="sankey-link" d="M383.70000000000005,403.3617059891106C564.3000000000001,403.3617059891106 564.3000000000001,621.6566243194194 744.9000000000001,621.6566243194194L744.9000000000001,645.0141560798551C564.3000000000001,645.0141560798551 564.3000000000001,426.71923774954615 383.70000000000005,426.71923774954615Z" style="stroke: rgb(68, 68, 68); stroke-opacity: 1; fill: rgb(255, 161, 90); fill-opacity: 0.6; stroke-width: 0; opacity: 1;"/><path class="sankey-link" d="M383.70000000000005,436.38402903811294C564.3000000000001,436.38402903811294 564.3000000000001,82.77713248638845 744.9000000000001,82.77713248638845L744.9000000000001,112.50490018148828C564.3000000000001,112.50490018148828 564.3000000000001,466.11179673321277 383.70000000000005,466.11179673321277Z" style="stroke: rgb(68, 68, 68); stroke-opacity: 1; fill: rgb(255, 151, 255); fill-opacity: 0.6; stroke-width: 0; opacity: 1;"/><path class="sankey-link" d="M383.70000000000005,466.11179673321277C564.3000000000001,466.11179673321277 564.3000000000001,196.2016333938294 744.9000000000001,196.2016333938294L744.9000000000001,217.4357531760436C564.3000000000001,217.4357531760436 564.3000000000001,487.34591651542695 383.70000000000005,487.34591651542695Z" style="stroke: rgb(68, 68, 68); stroke-opacity: 1; fill: rgb(255, 151, 255); fill-opacity: 0.6; stroke-width: 0; opacity: 1;"/><path class="sankey-link" d="M383.70000000000005,487.34591651542695C564.3000000000001,487.34591651542695 564.3000000000001,258.67404718693285 744.9000000000001,258.67404718693285L744.9000000000001,277.78475499092565C564.3000000000001,277.78475499092565 564.3000000000001,506.45662431941975 383.70000000000005,506.45662431941975Z" style="stroke: rgb(68, 68, 68); stroke-opacity: 1; fill: rgb(255, 151, 255); fill-opacity: 0.6; stroke-width: 0; opacity: 1;"/><path class="sankey-link" d="M383.70000000000005,506.45662431941963C564.3000000000001,506.45662431941963 564.3000000000001,439.28820326678743 744.9000000000001,439.28820326678743L744.9000000000001,475.3862068965515C564.3000000000001,475.3862068965515 564.3000000000001,542.5546279491837 383.70000000000005,542.5546279491837Z" style="stroke: rgb(68, 68, 68); stroke-opacity: 1; fill: rgb(255, 151, 255); fill-opacity: 0.6; stroke-width: 0; opacity: 1;"/><path class="sankey-link" d="M383.70000000000005,542.5546279491838C564.3000000000001,542.5546279491838 564.3000000000001,645.014156079855 744.9000000000001,645.014156079855L744.9000000000001,678.9887477313976C564.3000000000001,678.9887477313976 564.3000000000001,576.5292196007264 383.70000000000005,576.5292196007264Z" style="stroke: rgb(68, 68, 68); stroke-opacity: 1; fill: rgb(255, 151, 255); fill-opacity: 0.6; stroke-width: 0; opacity: 1;"/><path class="sankey-link" d="M383.70000000000005,587.1283121597097C564.3000000000001,587.1283121597097 564.3000000000001,112.50490018148827 744.9000000000001,112.50490018148827L744.9000000000001,123.12196007259536C564.3000000000001,123.12196007259536 564.3000000000001,597.7453720508169 383.70000000000005,597.7453720508169Z" style="stroke: rgb(68, 68, 68); stroke-opacity: 1; fill: rgb(255, 102, 146); fill-opacity: 0.6; stroke-width: 0; opacity: 1;"/><path class="sankey-link" d="M383.70000000000005,597.7453720508167C564.3000000000001,597.7453720508167 564.3000000000001,217.43575317604356 744.9000000000001,217.43575317604356L744.9000000000001,222.74428312159708C564.3000000000001,222.74428312159708 564.3000000000001,603.0539019963703 383.70000000000005,603.0539019963703Z" style="stroke: rgb(68, 68, 68); stroke-opacity: 1; fill: rgb(255, 102, 146); fill-opacity: 0.6; stroke-width: 0; opacity: 1;"/><path class="sankey-link" d="M383.70000000000005,603.0539019963703C564.3000000000001,603.0539019963703 564.3000000000001,277.7847549909256 744.9000000000001,277.7847549909256L744.9000000000001,280.96987295825767C564.3000000000001,280.96987295825767 564.3000000000001,606.2390199637025 383.70000000000005,606.2390199637025Z" style="stroke: rgb(68, 68, 68); stroke-opacity: 1; fill: rgb(255, 102, 146); fill-opacity: 0.6; stroke-width: 0; opacity: 1;"/><path class="sankey-link" d="M383.70000000000005,606.2390199637024C564.3000000000001,606.2390199637024 564.3000000000001,475.38620689655147 744.9000000000001,475.38620689655147L744.9000000000001,495.55862068965496C564.3000000000001,495.55862068965496 564.3000000000001,626.4114337568059 383.70000000000005,626.4114337568059Z" style="stroke: rgb(68, 68, 68); stroke-opacity: 1; fill: rgb(255, 102, 146); fill-opacity: 0.6; stroke-width: 0; opacity: 1;"/><path class="sankey-link" d="M383.70000000000005,626.4114337568059C564.3000000000001,626.4114337568059 564.3000000000001,678.9887477313976 744.9000000000001,678.9887477313976L744.9000000000001,689.6058076225047C564.3000000000001,689.6058076225047 564.3000000000001,637.028493647913 383.70000000000005,637.028493647913Z" style="stroke: rgb(68, 68, 68); stroke-opacity: 1; fill: rgb(255, 102, 146); fill-opacity: 0.6; stroke-width: 0; opacity: 1;"/><path class="sankey-link" d="M383.70000000000005,649.7934664246828C564.3000000000001,649.7934664246828 564.3000000000001,123.12196007259534 744.9000000000001,123.12196007259534L744.9000000000001,129.4921960072596C564.3000000000001,129.4921960072596 564.3000000000001,656.163702359347 383.70000000000005,656.163702359347Z" style="stroke: rgb(68, 68, 68); stroke-opacity: 1; fill: rgb(0, 204, 150); fill-opacity: 0.6; stroke-width: 0; opacity: 1;"/><path class="sankey-link" d="M383.70000000000005,656.1637023593471C564.3000000000001,656.1637023593471 564.3000000000001,222.7442831215971 744.9000000000001,222.7442831215971L744.9000000000001,226.99110707803993C564.3000000000001,226.99110707803993 564.3000000000001,660.4105263157899 383.70000000000005,660.4105263157899Z" style="stroke: rgb(68, 68, 68); stroke-opacity: 1; fill: rgb(0, 204, 150); fill-opacity: 0.6; stroke-width: 0; opacity: 1;"/><path class="sankey-link" d="M383.70000000000005,660.41052631579C564.3000000000001,660.41052631579 564.3000000000001,280.9698729582577 744.9000000000001,280.9698729582577L744.9000000000001,282.0315789473684C564.3000000000001,282.0315789473684 564.3000000000001,661.4722323049008 383.70000000000005,661.4722323049008Z" style="stroke: rgb(68, 68, 68); stroke-opacity: 1; fill: rgb(0, 204, 150); fill-opacity: 0.6; stroke-width: 0; opacity: 1;"/><path class="sankey-link" d="M383.70000000000005,661.4722323049007C564.3000000000001,661.4722323049007 564.3000000000001,495.5586206896549 744.9000000000001,495.5586206896549L744.9000000000001,509.3607985480941C564.3000000000001,509.3607985480941 564.3000000000001,675.2744101633398 383.70000000000005,675.2744101633398Z" style="stroke: rgb(68, 68, 68); stroke-opacity: 1; fill: rgb(0, 204, 150); fill-opacity: 0.6; stroke-width: 0; opacity: 1;"/><path class="sankey-link" d="M383.70000000000005,675.2744101633399C564.3000000000001,675.2744101633399 564.3000000000001,689.6058076225046 744.9000000000001,689.6058076225046L744.9000000000001,695.9760435571687C564.3000000000001,695.9760435571687 564.3000000000001,681.644646098004 383.70000000000005,681.644646098004Z" style="stroke: rgb(68, 68, 68); stroke-opacity: 1; fill: rgb(0, 204, 150); fill-opacity: 0.6; stroke-width: 0; opacity: 1;"/><path class="sankey-link" d="M383.70000000000005,695.1952813067153C564.3000000000001,695.1952813067153 564.3000000000001,129.4921960072596 744.9000000000001,129.4921960072596L744.9000000000001,131.61560798548103C564.3000000000001,131.61560798548103 564.3000000000001,697.3186932849367 383.70000000000005,697.3186932849367Z" style="stroke: rgb(68, 68, 68); stroke-opacity: 1; fill: rgb(171, 99, 250); fill-opacity: 0.6; stroke-width: 0; opacity: 1;"/><path class="sankey-link" d="M383.70000000000005,697.3186932849367C564.3000000000001,697.3186932849367 564.3000000000001,509.36079854809407 744.9000000000001,509.36079854809407L744.9000000000001,514.6693284936476C564.3000000000001,514.6693284936476 564.3000000000001,702.6272232304902 383.70000000000005,702.6272232304902Z" style="stroke: rgb(68, 68, 68); stroke-opacity: 1; fill: rgb(171, 99, 250); fill-opacity: 0.6; stroke-width: 0; opacity: 1;"/><path class="sankey-link" d="M383.70000000000005,702.6272232304902C564.3000000000001,702.6272232304902 564.3000000000001,695.9760435571689 744.9000000000001,695.9760435571689L744.9000000000001,699.161161524501C564.3000000000001,699.161161524501 564.3000000000001,705.8123411978224 383.70000000000005,705.8123411978224Z" style="stroke: rgb(68, 68, 68); stroke-opacity: 1; fill: rgb(171, 99, 250); fill-opacity: 0.6; stroke-width: 0; opacity: 1;"/><path class="sankey-link" d="M759.9000000000001,19.07477313974597C946.19943,19.07477313974597 946.19943,13.14718693284936 1132.49886,13.14718693284936L1132.49886,19.51742286751361C946.19943,19.51742286751361 946.19943,25.445009074410223 759.9000000000001,25.445009074410223Z" style="stroke: rgb(68, 68, 68); stroke-opacity: 1; fill: rgb(99, 110, 250); fill-opacity: 0.6; stroke-width: 0; opacity: 1;"/><path class="sankey-link" d="M759.9000000000001,81.71542649727775C946.19943,81.71542649727775 946.19943,87.93702359346644 1132.49886,87.93702359346644L1132.49886,88.99872958257716C946.19943,88.99872958257716 946.19943,82.77713248638847 759.9000000000001,82.77713248638847Z" style="stroke: rgb(68, 68, 68); stroke-opacity: 1; fill: rgb(99, 110, 250); fill-opacity: 0.6; stroke-width: 0; opacity: 1;"/><path class="sankey-link" d="M759.9000000000001,306.57495462794896C946.19943,306.57495462794896 946.19943,311.95208711433753 1132.49886,311.95208711433753L1132.49886,316.1989110707804C946.19943,316.1989110707804 946.19943,310.82177858439184 759.9000000000001,310.82177858439184Z" style="stroke: rgb(68, 68, 68); stroke-opacity: 1; fill: rgb(99, 110, 250); fill-opacity: 0.6; stroke-width: 0; opacity: 1;"/><path class="sankey-link" d="M759.9000000000001,400.0050816696913C946.19943,400.0050816696913 946.19943,415.6203266787658 1132.49886,415.6203266787658L1132.49886,431.5459165154264C946.19943,431.5459165154264 946.19943,415.9306715063519 759.9000000000001,415.9306715063519Z" style="stroke: rgb(68, 68, 68); stroke-opacity: 1; fill: rgb(99, 110, 250); fill-opacity: 0.6; stroke-width: 0; opacity: 1;"/><path class="sankey-link" d="M759.9000000000001,544.1520871143377C946.19943,544.1520871143377 946.19943,540.6500907441014 1132.49886,540.6500907441014L1132.49886,550.2054446460977C946.19943,550.2054446460977 946.19943,553.7074410163341 759.9000000000001,553.7074410163341Z" style="stroke: rgb(68, 68, 68); stroke-opacity: 1; fill: rgb(99, 110, 250); fill-opacity: 0.6; stroke-width: 0; opacity: 1;"/><path class="sankey-link" d="M759.9000000000001,631.2119782214157C946.19943,631.2119782214157 946.19943,639.0098003629764 1132.49886,639.0098003629764L1132.49886,641.1332123411978C946.19943,641.1332123411978 946.19943,633.3353901996371 759.9000000000001,633.3353901996371Z" style="stroke: rgb(68, 68, 68); stroke-opacity: 1; fill: rgb(99, 110, 250); fill-opacity: 0.6; stroke-width: 0; opacity: 1;"/><path class="sankey-link" d="M759.9000000000001,25.44500907441022C946.19943,25.44500907441022 946.19943,19.517422867513606 1132.49886,19.517422867513606L1132.49886,29.072776769509975C946.19943,29.072776769509975 946.19943,35.00036297640659 759.9000000000001,35.00036297640659Z" style="stroke: rgb(68, 68, 68); stroke-opacity: 1; fill: rgb(25, 211, 243); fill-opacity: 0.6; stroke-width: 0; opacity: 1;"/><path class="sankey-link" d="M759.9000000000001,82.77713248638847C946.19943,82.77713248638847 946.19943,88.99872958257714 1132.49886,88.99872958257714L1132.49886,97.49237749546279C946.19943,97.49237749546279 946.19943,91.27078039927412 759.9000000000001,91.27078039927412Z" style="stroke: rgb(68, 68, 68); stroke-opacity: 1; fill: rgb(25, 211, 243); fill-opacity: 0.6; stroke-width: 0; opacity: 1;"/><path class="sankey-link" d="M759.9000000000001,153.7333938294011C946.19943,153.7333938294011 946.19943,150.4535390199637 1132.49886,150.4535390199637L1132.49886,154.70036297640652C946.19943,154.70036297640652 946.19943,157.98021778584393 759.9000000000001,157.98021778584393Z" style="stroke: rgb(68, 68, 68); stroke-opacity: 1; fill: rgb(25, 211, 243); fill-opacity: 0.6; stroke-width: 0; opacity: 1;"/><path class="sankey-link" d="M759.9000000000001,193.0165154264973C946.19943,193.0165154264973 946.19943,202.67150635208708 1132.49886,202.67150635208708L1132.49886,206.9183303085299C946.19943,206.9183303085299 946.19943,197.26333938294013 759.9000000000001,197.26333938294013Z" style="stroke: rgb(68, 68, 68); stroke-opacity: 1; fill: rgb(25, 211, 243); fill-opacity: 0.6; stroke-width: 0; opacity: 1;"/><path class="sankey-link" d="M759.9000000000001,245.93357531760432C946.19943,245.93357531760432 946.19943,250.175499092559 1132.49886,250.175499092559L1132.49886,251.23720508166969C946.19943,251.23720508166969 946.19943,246.99528130671501 759.9000000000001,246.99528130671501Z" style="stroke: rgb(68, 68, 68); stroke-opacity: 1; fill: rgb(25, 211, 243); fill-opacity: 0.6; stroke-width: 0; opacity: 1;"/><path class="sankey-link" d="M759.9000000000001,255.48892921960075C946.19943,255.48892921960075 946.19943,273.40889292195993 1132.49886,273.40889292195993L1132.49886,275.5323049001813C946.19943,275.5323049001813 946.19943,257.61234119782216 759.9000000000001,257.61234119782216Z" style="stroke: rgb(68, 68, 68); stroke-opacity: 1; fill: rgb(25, 211, 243); fill-opacity: 0.6; stroke-width: 0; opacity: 1;"/><path class="sankey-link" d="M759.9000000000001,310.8217785843918C946.19943,310.8217785843918 946.19943,316.19891107078035 1132.49886,316.19891107078035L1132.49886,330.0010889292196C946.19943,330.0010889292196 946.19943,324.623956442831 759.9000000000001,324.623956442831Z" style="stroke: rgb(68, 68, 68); stroke-opacity: 1; fill: rgb(25, 211, 243); fill-opacity: 0.6; stroke-width: 0; opacity: 1;"/><path class="sankey-link" d="M759.9000000000001,415.9306715063519C946.19943,415.9306715063519 946.19943,431.5459165154264 1132.49886,431.5459165154264L1132.49886,448.5332123411977C946.19943,448.5332123411977 946.19943,432.9179673321232 759.9000000000001,432.9179673321232Z" style="stroke: rgb(68, 68, 68); stroke-opacity: 1; fill: rgb(25, 211, 243); fill-opacity: 0.6; stroke-width: 0; opacity: 1;"/><path class="sankey-link" d="M759.9000000000001,553.7074410163341C946.19943,553.7074410163341 946.19943,550.2054446460977 1132.49886,550.2054446460977L1132.49886,567.192740471869C946.19943,567.192740471869 946.19943,570.6947368421054 759.9000000000001,570.6947368421054Z" style="stroke: rgb(68, 68, 68); stroke-opacity: 1; fill: rgb(25, 211, 243); fill-opacity: 0.6; stroke-width: 0; opacity: 1;"/><path class="sankey-link" d="M759.9000000000001,633.3353901996371C946.19943,633.3353901996371 946.19943,641.1332123411978 1132.49886,641.1332123411978L1132.49886,653.8736842105263C946.19943,653.8736842105263 946.19943,646.0758620689656 759.9000000000001,646.0758620689656Z" style="stroke: rgb(68, 68, 68); stroke-opacity: 1; fill: rgb(25, 211, 243); fill-opacity: 0.6; stroke-width: 0; opacity: 1;"/><path class="sankey-link" d="M759.9000000000001,35.00036297640659C946.19943,35.00036297640659 946.19943,29.07277676950998 1132.49886,29.07277676950998L1132.49886,35.44301270417423C946.19943,35.44301270417423 946.19943,41.37059891107084 759.9000000000001,41.37059891107084Z" style="stroke: rgb(68, 68, 68); stroke-opacity: 1; fill: rgb(239, 85, 59); fill-opacity: 0.6; stroke-width: 0; opacity: 1;"/><path class="sankey-link" d="M759.9000000000001,91.27078039927412C946.19943,91.27078039927412 946.19943,97.4923774954628 1132.49886,97.4923774954628L1132.49886,103.86261343012704C946.19943,103.86261343012704 946.19943,97.64101633393835 759.9000000000001,97.64101633393835Z" style="stroke: rgb(68, 68, 68); stroke-opacity: 1; fill: rgb(239, 85, 59); fill-opacity: 0.6; stroke-width: 0; opacity: 1;"/><path class="sankey-link" d="M759.9000000000001,157.98021778584393C946.19943,157.98021778584393 946.19943,154.70036297640652 1132.49886,154.70036297640652L1132.49886,158.94718693284935C946.19943,158.94718693284935 946.19943,162.22704174228676 759.9000000000001,162.22704174228676Z" style="stroke: rgb(68, 68, 68); stroke-opacity: 1; fill: rgb(239, 85, 59); fill-opacity: 0.6; stroke-width: 0; opacity: 1;"/><path class="sankey-link" d="M759.9000000000001,197.26333938294013C946.19943,197.26333938294013 946.19943,206.9183303085299 1132.49886,206.9183303085299L1132.49886,207.9800362976406C946.19943,207.9800362976406 946.19943,198.32504537205082 759.9000000000001,198.32504537205082Z" style="stroke: rgb(68, 68, 68); stroke-opacity: 1; fill: rgb(239, 85, 59); fill-opacity: 0.6; stroke-width: 0; opacity: 1;"/><path class="sankey-link" d="M759.9000000000001,257.61234119782216C946.19943,257.61234119782216 946.19943,275.5323049001814 1132.49886,275.5323049001814L1132.49886,278.71742286751345C946.19943,278.71742286751345 946.19943,260.79745916515424 759.9000000000001,260.79745916515424Z" style="stroke: rgb(68, 68, 68); stroke-opacity: 1; fill: rgb(239, 85, 59); fill-opacity: 0.6; stroke-width: 0; opacity: 1;"/><path class="sankey-link" d="M759.9000000000001,324.623956442831C946.19943,324.623956442831 946.19943,330.0010889292196 1132.49886,330.0010889292196L1132.49886,340.6181488203266C946.19943,340.6181488203266 946.19943,335.24101633393803 759.9000000000001,335.24101633393803Z" style="stroke: rgb(68, 68, 68); stroke-opacity: 1; fill: rgb(239, 85, 59); fill-opacity: 0.6; stroke-width: 0; opacity: 1;"/><path class="sankey-link" d="M759.9000000000001,432.9179673321232C946.19943,432.9179673321232 946.19943,448.5332123411978 1132.49886,448.5332123411978L1132.49886,463.3970961887477C946.19943,463.3970961887477 946.19943,447.78185117967314 759.9000000000001,447.78185117967314Z" style="stroke: rgb(68, 68, 68); stroke-opacity: 1; fill: rgb(239, 85, 59); fill-opacity: 0.6; stroke-width: 0; opacity: 1;"/><path class="sankey-link" d="M759.9000000000001,570.6947368421054C946.19943,570.6947368421054 946.19943,567.192740471869 1132.49886,567.192740471869L1132.49886,579.9332123411975C946.19943,579.9332123411975 946.19943,583.4352087114339 759.9000000000001,583.4352087114339Z" style="stroke: rgb(68, 68, 68); stroke-opacity: 1; fill: rgb(239, 85, 59); fill-opacity: 0.6; stroke-width: 0; opacity: 1;"/><path class="sankey-link" d="M759.9000000000001,646.0758620689656C946.19943,646.0758620689656 946.19943,653.8736842105263 1132.49886,653.8736842105263L1132.49886,657.0588021778585C946.19943,657.0588021778585 946.19943,649.2609800362978 759.9000000000001,649.2609800362978Z" style="stroke: rgb(68, 68, 68); stroke-opacity: 1; fill: rgb(239, 85, 59); fill-opacity: 0.6; stroke-width: 0; opacity: 1;"/><path class="sankey-link" d="M759.9000000000001,41.37059891107084C946.19943,41.37059891107084 946.19943,35.44301270417422 1132.49886,35.44301270417422L1132.49886,37.566424682395635C946.19943,37.566424682395635 946.19943,43.494010889292255 759.9000000000001,43.494010889292255Z" style="stroke: rgb(68, 68, 68); stroke-opacity: 1; fill: rgb(254, 203, 82); fill-opacity: 0.6; stroke-width: 0; opacity: 1;"/><path class="sankey-link" d="M759.9000000000001,97.64101633393837C946.19943,97.64101633393837 946.19943,103.86261343012706 1132.49886,103.86261343012706L1132.49886,104.92431941923778C946.19943,104.92431941923778 946.19943,98.70272232304909 759.9000000000001,98.70272232304909Z" style="stroke: rgb(68, 68, 68); stroke-opacity: 1; fill: rgb(254, 203, 82); fill-opacity: 0.6; stroke-width: 0; opacity: 1;"/><path class="sankey-link" d="M759.9000000000001,162.22704174228676C946.19943,162.22704174228676 946.19943,158.94718693284935 1132.49886,158.94718693284935L1132.49886,162.13230490018148C946.19943,162.13230490018148 946.19943,165.4121597096189 759.9000000000001,165.4121597096189Z" style="stroke: rgb(68, 68, 68); stroke-opacity: 1; fill: rgb(254, 203, 82); fill-opacity: 0.6; stroke-width: 0; opacity: 1;"/><path class="sankey-link" d="M759.9000000000001,198.32504537205085C946.19943,198.32504537205085 946.19943,207.98003629764062 1132.49886,207.98003629764062L1132.49886,212.22686025408345C946.19943,212.22686025408345 946.19943,202.57186932849368 759.9000000000001,202.57186932849368Z" style="stroke: rgb(68, 68, 68); stroke-opacity: 1; fill: rgb(254, 203, 82); fill-opacity: 0.6; stroke-width: 0; opacity: 1;"/><path class="sankey-link" d="M759.9000000000001,246.99528130671504C946.19943,246.99528130671504 946.19943,251.2372050816697 1132.49886,251.2372050816697L1132.49886,252.2989110707804C946.19943,252.2989110707804 946.19943,248.05698729582573 759.9000000000001,248.05698729582573Z" style="stroke: rgb(68, 68, 68); stroke-opacity: 1; fill: rgb(254, 203, 82); fill-opacity: 0.6; stroke-width: 0; opacity: 1;"/><path class="sankey-link" d="M759.9000000000001,260.7974591651543C946.19943,260.7974591651543 946.19943,278.7174228675135 1132.49886,278.7174228675135L1132.49886,279.7791288566242C946.19943,279.7791288566242 946.19943,261.859165154265 759.9000000000001,261.859165154265Z" style="stroke: rgb(68, 68, 68); stroke-opacity: 1; fill: rgb(254, 203, 82); fill-opacity: 0.6; stroke-width: 0; opacity: 1;"/><path class="sankey-link" d="M759.9000000000001,335.2410163339381C946.19943,335.2410163339381 946.19943,340.61814882032667 1132.49886,340.61814882032667L1132.49886,346.98838475499093C946.19943,346.98838475499093 946.19943,341.61125226860236 759.9000000000001,341.61125226860236Z" style="stroke: rgb(68, 68, 68); stroke-opacity: 1; fill: rgb(254, 203, 82); fill-opacity: 0.6; stroke-width: 0; opacity: 1;"/><path class="sankey-link" d="M759.9000000000001,447.78185117967314C946.19943,447.78185117967314 946.19943,463.3970961887477 1132.49886,463.3970961887477L1132.49886,468.70562613430127C946.19943,468.70562613430127 946.19943,453.0903811252267 759.9000000000001,453.0903811252267Z" style="stroke: rgb(68, 68, 68); stroke-opacity: 1; fill: rgb(254, 203, 82); fill-opacity: 0.6; stroke-width: 0; opacity: 1;"/><path class="sankey-link" d="M759.9000000000001,583.4352087114339C946.19943,583.4352087114339 946.19943,579.9332123411975 1132.49886,579.9332123411975L1132.49886,583.1183303085297C946.19943,583.1183303085297 946.19943,586.6203266787661 759.9000000000001,586.6203266787661Z" style="stroke: rgb(68, 68, 68); stroke-opacity: 1; fill: rgb(254, 203, 82); fill-opacity: 0.6; stroke-width: 0; opacity: 1;"/><path class="sankey-link" d="M759.9000000000001,649.2609800362977C946.19943,649.2609800362977 946.19943,657.0588021778584 1132.49886,657.0588021778584L1132.49886,664.4907441016334C946.19943,664.4907441016334 946.19943,656.6929219600727 759.9000000000001,656.6929219600727Z" style="stroke: rgb(68, 68, 68); stroke-opacity: 1; fill: rgb(254, 203, 82); fill-opacity: 0.6; stroke-width: 0; opacity: 1;"/><path class="sankey-link" d="M759.9000000000001,43.494010889292255C946.19943,43.494010889292255 946.19943,37.566424682395635 1132.49886,37.566424682395635L1132.49886,42.87495462794918C946.19943,42.87495462794918 946.19943,48.8025408348458 759.9000000000001,48.8025408348458Z" style="stroke: rgb(68, 68, 68); stroke-opacity: 1; fill: rgb(182, 232, 128); fill-opacity: 0.6; stroke-width: 0; opacity: 1;"/><path class="sankey-link" d="M759.9000000000001,202.57186932849368C946.19943,202.57186932849368 946.19943,212.22686025408345 1132.49886,212.22686025408345L1132.49886,215.41197822141558C946.19943,215.41197822141558 946.19943,205.7569872958258 759.9000000000001,205.7569872958258Z" style="stroke: rgb(68, 68, 68); stroke-opacity: 1; fill: rgb(182, 232, 128); fill-opacity: 0.6; stroke-width: 0; opacity: 1;"/><path class="sankey-link" d="M759.9000000000001,341.61125226860236C946.19943,341.61125226860236 946.19943,346.98838475499093 1132.49886,346.98838475499093L1132.49886,351.2352087114338C946.19943,351.2352087114338 946.19943,345.85807622504524 759.9000000000001,345.85807622504524Z" style="stroke: rgb(68, 68, 68); stroke-opacity: 1; fill: rgb(182, 232, 128); fill-opacity: 0.6; stroke-width: 0; opacity: 1;"/><path class="sankey-link" d="M759.9000000000001,453.09038112522666C946.19943,453.09038112522666 946.19943,468.7056261343012 1132.49886,468.7056261343012L1132.49886,475.0758620689655C946.19943,475.0758620689655 946.19943,459.4606170598909 759.9000000000001,459.4606170598909Z" style="stroke: rgb(68, 68, 68); stroke-opacity: 1; fill: rgb(182, 232, 128); fill-opacity: 0.6; stroke-width: 0; opacity: 1;"/><path class="sankey-link" d="M759.9000000000001,586.620326678766C946.19943,586.620326678766 946.19943,583.1183303085296 1132.49886,583.1183303085296L1132.49886,588.4268602540832C946.19943,588.4268602540832 946.19943,591.9288566243196 759.9000000000001,591.9288566243196Z" style="stroke: rgb(68, 68, 68); stroke-opacity: 1; fill: rgb(182, 232, 128); fill-opacity: 0.6; stroke-width: 0; opacity: 1;"/><path class="sankey-link" d="M759.9000000000001,656.6929219600727C946.19943,656.6929219600727 946.19943,664.4907441016334 1132.49886,664.4907441016334L1132.49886,668.7375680580761C946.19943,668.7375680580761 946.19943,660.9397459165154 759.9000000000001,660.9397459165154Z" style="stroke: rgb(68, 68, 68); stroke-opacity: 1; fill: rgb(182, 232, 128); fill-opacity: 0.6; stroke-width: 0; opacity: 1;"/><path class="sankey-link" d="M759.9000000000001,48.80254083484579C946.19943,48.80254083484579 946.19943,42.87495462794917 1132.49886,42.87495462794917L1132.49886,52.43030852994554C946.19943,52.43030852994554 946.19943,58.35789473684216 759.9000000000001,58.35789473684216Z" style="stroke: rgb(68, 68, 68); stroke-opacity: 1; fill: rgb(255, 161, 90); fill-opacity: 0.6; stroke-width: 0; opacity: 1;"/><path class="sankey-link" d="M759.9000000000001,98.70272232304907C946.19943,98.70272232304907 946.19943,104.92431941923776 1132.49886,104.92431941923776L1132.49886,112.35626134301272C946.19943,112.35626134301272 946.19943,106.13466424682403 759.9000000000001,106.13466424682403Z" style="stroke: rgb(68, 68, 68); stroke-opacity: 1; fill: rgb(255, 161, 90); fill-opacity: 0.6; stroke-width: 0; opacity: 1;"/><path class="sankey-link" d="M759.9000000000001,165.4121597096189C946.19943,165.4121597096189 946.19943,162.13230490018148 1132.49886,162.13230490018148L1132.49886,171.68765880217788C946.19943,171.68765880217788 946.19943,174.9675136116153 759.9000000000001,174.9675136116153Z" style="stroke: rgb(68, 68, 68); stroke-opacity: 1; fill: rgb(255, 161, 90); fill-opacity: 0.6; stroke-width: 0; opacity: 1;"/><path class="sankey-link" d="M759.9000000000001,205.7569872958258C946.19943,205.7569872958258 946.19943,215.41197822141558 1132.49886,215.41197822141558L1132.49886,223.90562613430123C946.19943,223.90562613430123 946.19943,214.25063520871146 759.9000000000001,214.25063520871146Z" style="stroke: rgb(68, 68, 68); stroke-opacity: 1; fill: rgb(255, 161, 90); fill-opacity: 0.6; stroke-width: 0; opacity: 1;"/><path class="sankey-link" d="M759.9000000000001,261.859165154265C946.19943,261.859165154265 946.19943,279.7791288566242 1132.49886,279.7791288566242L1132.49886,284.0259528130671C946.19943,284.0259528130671 946.19943,266.10598911070787 759.9000000000001,266.10598911070787Z" style="stroke: rgb(68, 68, 68); stroke-opacity: 1; fill: rgb(255, 161, 90); fill-opacity: 0.6; stroke-width: 0; opacity: 1;"/><path class="sankey-link" d="M759.9000000000001,345.8580762250452C946.19943,345.8580762250452 946.19943,351.23520871143376 1132.49886,351.23520871143376L1132.49886,369.28421052631575C946.19943,369.28421052631575 946.19943,363.90707803992717 759.9000000000001,363.90707803992717Z" style="stroke: rgb(68, 68, 68); stroke-opacity: 1; fill: rgb(255, 161, 90); fill-opacity: 0.6; stroke-width: 0; opacity: 1;"/><path class="sankey-link" d="M759.9000000000001,459.4606170598909C946.19943,459.4606170598909 946.19943,475.0758620689655 1132.49886,475.0758620689655L1132.49886,491.0014519056261C946.19943,491.0014519056261 946.19943,475.3862068965515 759.9000000000001,475.3862068965515Z" style="stroke: rgb(68, 68, 68); stroke-opacity: 1; fill: rgb(255, 161, 90); fill-opacity: 0.6; stroke-width: 0; opacity: 1;"/><path class="sankey-link" d="M759.9000000000001,591.9288566243196C946.19943,591.9288566243196 946.19943,588.4268602540832 1132.49886,588.4268602540832L1132.49886,602.2290381125223C946.19943,602.2290381125223 946.19943,605.7310344827587 759.9000000000001,605.7310344827587Z" style="stroke: rgb(68, 68, 68); stroke-opacity: 1; fill: rgb(255, 161, 90); fill-opacity: 0.6; stroke-width: 0; opacity: 1;"/><path class="sankey-link" d="M759.9000000000001,660.9397459165156C946.19943,660.9397459165156 946.19943,668.7375680580762 1132.49886,668.7375680580762L1132.49886,678.2929219600726C946.19943,678.2929219600726 946.19943,670.4950998185119 759.9000000000001,670.4950998185119Z" style="stroke: rgb(68, 68, 68); stroke-opacity: 1; fill: rgb(255, 161, 90); fill-opacity: 0.6; stroke-width: 0; opacity: 1;"/><path class="sankey-link" d="M759.9000000000001,58.35789473684217C946.19943,58.35789473684217 946.19943,52.43030852994554 1132.49886,52.43030852994554L1132.49886,64.10907441016333C946.19943,64.10907441016333 946.19943,70.03666061705995 759.9000000000001,70.03666061705995Z" style="stroke: rgb(68, 68, 68); stroke-opacity: 1; fill: rgb(255, 151, 255); fill-opacity: 0.6; stroke-width: 0; opacity: 1;"/><path class="sankey-link" d="M759.9000000000001,106.13466424682403C946.19943,106.13466424682403 946.19943,112.3562613430127 1132.49886,112.3562613430127L1132.49886,130.40526315789475C946.19943,130.40526315789475 946.19943,124.18366606170608 759.9000000000001,124.18366606170608Z" style="stroke: rgb(68, 68, 68); stroke-opacity: 1; fill: rgb(255, 151, 255); fill-opacity: 0.6; stroke-width: 0; opacity: 1;"/><path class="sankey-link" d="M759.9000000000001,174.96751361161526C946.19943,174.96751361161526 946.19943,171.68765880217785 1132.49886,171.68765880217785L1132.49886,186.55154264972776C946.19943,186.55154264972776 946.19943,189.83139745916517 759.9000000000001,189.83139745916517Z" style="stroke: rgb(68, 68, 68); stroke-opacity: 1; fill: rgb(255, 151, 255); fill-opacity: 0.6; stroke-width: 0; opacity: 1;"/><path class="sankey-link" d="M759.9000000000001,214.25063520871146C946.19943,214.25063520871146 946.19943,223.90562613430126 1132.49886,223.90562613430126L1132.49886,230.27586206896552C946.19943,230.27586206896552 946.19943,220.62087114337572 759.9000000000001,220.62087114337572Z" style="stroke: rgb(68, 68, 68); stroke-opacity: 1; fill: rgb(255, 151, 255); fill-opacity: 0.6; stroke-width: 0; opacity: 1;"/><path class="sankey-link" d="M759.9000000000001,248.05698729582576C946.19943,248.05698729582576 946.19943,252.29891107078043 1132.49886,252.29891107078043L1132.49886,257.60744101633395C946.19943,257.60744101633395 946.19943,253.36551724137928 759.9000000000001,253.36551724137928Z" style="stroke: rgb(68, 68, 68); stroke-opacity: 1; fill: rgb(255, 151, 255); fill-opacity: 0.6; stroke-width: 0; opacity: 1;"/><path class="sankey-link" d="M759.9000000000001,266.1059891107078C946.19943,266.1059891107078 946.19943,284.025952813067 1132.49886,284.025952813067L1132.49886,297.82813067150624C946.19943,297.82813067150624 946.19943,279.90816696914703 759.9000000000001,279.90816696914703Z" style="stroke: rgb(68, 68, 68); stroke-opacity: 1; fill: rgb(255, 151, 255); fill-opacity: 0.6; stroke-width: 0; opacity: 1;"/><path class="sankey-link" d="M759.9000000000001,363.9070780399272C946.19943,363.9070780399272 946.19943,369.2842105263158 1132.49886,369.2842105263158L1132.49886,388.3949183303086C946.19943,388.3949183303086 946.19943,383.01778584392 759.9000000000001,383.01778584392Z" style="stroke: rgb(68, 68, 68); stroke-opacity: 1; fill: rgb(255, 151, 255); fill-opacity: 0.6; stroke-width: 0; opacity: 1;"/><path class="sankey-link" d="M759.9000000000001,475.3862068965515C946.19943,475.3862068965515 946.19943,491.0014519056261 1132.49886,491.0014519056261L1132.49886,507.9887477313974C946.19943,507.9887477313974 946.19943,492.3735027223228 759.9000000000001,492.3735027223228Z" style="stroke: rgb(68, 68, 68); stroke-opacity: 1; fill: rgb(255, 151, 255); fill-opacity: 0.6; stroke-width: 0; opacity: 1;"/><path class="sankey-link" d="M759.9000000000001,605.7310344827588C946.19943,605.7310344827588 946.19943,602.2290381125224 1132.49886,602.2290381125224L1132.49886,619.2163339382937C946.19943,619.2163339382937 946.19943,622.7183303085301 759.9000000000001,622.7183303085301Z" style="stroke: rgb(68, 68, 68); stroke-opacity: 1; fill: rgb(255, 151, 255); fill-opacity: 0.6; stroke-width: 0; opacity: 1;"/><path class="sankey-link" d="M759.9000000000001,670.4950998185119C946.19943,670.4950998185119 946.19943,678.2929219600726 1132.49886,678.2929219600726L1132.49886,695.2802177858439C946.19943,695.2802177858439 946.19943,687.4823956442832 759.9000000000001,687.4823956442832Z" style="stroke: rgb(68, 68, 68); stroke-opacity: 1; fill: rgb(255, 151, 255); fill-opacity: 0.6; stroke-width: 0; opacity: 1;"/><path class="sankey-link" d="M759.9000000000001,70.03666061705995C946.19943,70.03666061705995 946.19943,64.10907441016333 1132.49886,64.10907441016333L1132.49886,68.35589836660616C946.19943,68.35589836660616 946.19943,74.28348457350278 759.9000000000001,74.28348457350278Z" style="stroke: rgb(68, 68, 68); stroke-opacity: 1; fill: rgb(255, 102, 146); fill-opacity: 0.6; stroke-width: 0; opacity: 1;"/><path class="sankey-link" d="M759.9000000000001,124.18366606170606C946.19943,124.18366606170606 946.19943,130.40526315789475 1132.49886,130.40526315789475L1132.49886,136.77549909255902C946.19943,136.77549909255902 946.19943,130.5539019963703 759.9000000000001,130.5539019963703Z" style="stroke: rgb(68, 68, 68); stroke-opacity: 1; fill: rgb(255, 102, 146); fill-opacity: 0.6; stroke-width: 0; opacity: 1;"/><path class="sankey-link" d="M759.9000000000001,189.83139745916517C946.19943,189.83139745916517 946.19943,186.55154264972776 1132.49886,186.55154264972776L1132.49886,188.6749546279492C946.19943,188.6749546279492 946.19943,191.95480943738661 759.9000000000001,191.95480943738661Z" style="stroke: rgb(68, 68, 68); stroke-opacity: 1; fill: rgb(255, 102, 146); fill-opacity: 0.6; stroke-width: 0; opacity: 1;"/><path class="sankey-link" d="M759.9000000000001,220.6208711433757C946.19943,220.6208711433757 946.19943,230.2758620689655 1132.49886,230.2758620689655L1132.49886,233.46098003629763C946.19943,233.46098003629763 946.19943,223.80598911070783 759.9000000000001,223.80598911070783Z" style="stroke: rgb(68, 68, 68); stroke-opacity: 1; fill: rgb(255, 102, 146); fill-opacity: 0.6; stroke-width: 0; opacity: 1;"/><path class="sankey-link" d="M759.9000000000001,253.3655172413793C946.19943,253.3655172413793 946.19943,257.60744101633395 1132.49886,257.60744101633395L1132.49886,258.66914700544464C946.19943,258.66914700544464 946.19943,254.42722323049 759.9000000000001,254.42722323049Z" style="stroke: rgb(68, 68, 68); stroke-opacity: 1; fill: rgb(255, 102, 146); fill-opacity: 0.6; stroke-width: 0; opacity: 1;"/><path class="sankey-link" d="M759.9000000000001,279.90816696914703C946.19943,279.90816696914703 946.19943,297.82813067150624 1132.49886,297.82813067150624L1132.49886,299.9515426497276C946.19943,299.9515426497276 946.19943,282.0315789473684 759.9000000000001,282.0315789473684Z" style="stroke: rgb(68, 68, 68); stroke-opacity: 1; fill: rgb(255, 102, 146); fill-opacity: 0.6; stroke-width: 0; opacity: 1;"/><path class="sankey-link" d="M759.9000000000001,383.01778584391997C946.19943,383.01778584391997 946.19943,388.39491833030854 1132.49886,388.39491833030854L1132.49886,399.0119782214156C946.19943,399.0119782214156 946.19943,393.634845735027 759.9000000000001,393.634845735027Z" style="stroke: rgb(68, 68, 68); stroke-opacity: 1; fill: rgb(255, 102, 146); fill-opacity: 0.6; stroke-width: 0; opacity: 1;"/><path class="sankey-link" d="M759.9000000000001,492.3735027223229C946.19943,492.3735027223229 946.19943,507.98874773139744 1132.49886,507.98874773139744L1132.49886,517.5441016333938C946.19943,517.5441016333938 946.19943,501.9288566243192 759.9000000000001,501.9288566243192Z" style="stroke: rgb(68, 68, 68); stroke-opacity: 1; fill: rgb(255, 102, 146); fill-opacity: 0.6; stroke-width: 0; opacity: 1;"/><path class="sankey-link" d="M759.9000000000001,622.7183303085301C946.19943,622.7183303085301 946.19943,619.2163339382937 1132.49886,619.2163339382937L1132.49886,623.4631578947365C946.19943,623.4631578947365 946.19943,626.9651542649729 759.9000000000001,626.9651542649729Z" style="stroke: rgb(68, 68, 68); stroke-opacity: 1; fill: rgb(255, 102, 146); fill-opacity: 0.6; stroke-width: 0; opacity: 1;"/><path class="sankey-link" d="M759.9000000000001,687.4823956442832C946.19943,687.4823956442832 946.19943,695.2802177858439 1132.49886,695.2802177858439L1132.49886,701.650453720508C946.19943,701.650453720508 946.19943,693.8526315789474 759.9000000000001,693.8526315789474Z" style="stroke: rgb(68, 68, 68); stroke-opacity: 1; fill: rgb(255, 102, 146); fill-opacity: 0.6; stroke-width: 0; opacity: 1;"/><path class="sankey-link" d="M759.9000000000001,74.28348457350279C946.19943,74.28348457350279 946.19943,68.35589836660617 1132.49886,68.35589836660617L1132.49886,74.7261343012704C946.19943,74.7261343012704 946.19943,80.65372050816703 759.9000000000001,80.65372050816703Z" style="stroke: rgb(68, 68, 68); stroke-opacity: 1; fill: rgb(0, 204, 150); fill-opacity: 0.6; stroke-width: 0; opacity: 1;"/><path class="sankey-link" d="M759.9000000000001,191.9548094373866C946.19943,191.9548094373866 946.19943,188.67495462794918 1132.49886,188.67495462794918L1132.49886,189.73666061705987C946.19943,189.73666061705987 946.19943,193.01651542649728 759.9000000000001,193.01651542649728Z" style="stroke: rgb(68, 68, 68); stroke-opacity: 1; fill: rgb(0, 204, 150); fill-opacity: 0.6; stroke-width: 0; opacity: 1;"/><path class="sankey-link" d="M759.9000000000001,223.80598911070783C946.19943,223.80598911070783 946.19943,233.46098003629763 1132.49886,233.46098003629763L1132.49886,236.64609800362976C946.19943,236.64609800362976 946.19943,226.99110707803996 759.9000000000001,226.99110707803996Z" style="stroke: rgb(68, 68, 68); stroke-opacity: 1; fill: rgb(0, 204, 150); fill-opacity: 0.6; stroke-width: 0; opacity: 1;"/><path class="sankey-link" d="M759.9000000000001,254.42722323049003C946.19943,254.42722323049003 946.19943,258.66914700544464 1132.49886,258.66914700544464L1132.49886,259.73085299455533C946.19943,259.73085299455533 946.19943,255.48892921960072 759.9000000000001,255.48892921960072Z" style="stroke: rgb(68, 68, 68); stroke-opacity: 1; fill: rgb(0, 204, 150); fill-opacity: 0.6; stroke-width: 0; opacity: 1;"/><path class="sankey-link" d="M759.9000000000001,393.63484573502706C946.19943,393.63484573502706 946.19943,399.01197822141563 1132.49886,399.01197822141563L1132.49886,403.2588021778585C946.19943,403.2588021778585 946.19943,397.88166969146994 759.9000000000001,397.88166969146994Z" style="stroke: rgb(68, 68, 68); stroke-opacity: 1; fill: rgb(0, 204, 150); fill-opacity: 0.6; stroke-width: 0; opacity: 1;"/><path class="sankey-link" d="M759.9000000000001,501.9288566243193C946.19943,501.9288566243193 946.19943,517.5441016333938 1132.49886,517.5441016333938L1132.49886,527.0994555353901C946.19943,527.0994555353901 946.19943,511.4842105263156 759.9000000000001,511.4842105263156Z" style="stroke: rgb(68, 68, 68); stroke-opacity: 1; fill: rgb(0, 204, 150); fill-opacity: 0.6; stroke-width: 0; opacity: 1;"/><path class="sankey-link" d="M759.9000000000001,626.965154264973C946.19943,626.965154264973 946.19943,623.4631578947366 1132.49886,623.4631578947366L1132.49886,625.586569872958C946.19943,625.586569872958 946.19943,629.0885662431944 759.9000000000001,629.0885662431944Z" style="stroke: rgb(68, 68, 68); stroke-opacity: 1; fill: rgb(0, 204, 150); fill-opacity: 0.6; stroke-width: 0; opacity: 1;"/><path class="sankey-link" d="M759.9000000000001,693.8526315789475C946.19943,693.8526315789475 946.19943,701.6504537205082 1132.49886,701.6504537205082L1132.49886,705.8972776769509C946.19943,705.8972776769509 946.19943,698.0994555353902 759.9000000000001,698.0994555353902Z" style="stroke: rgb(68, 68, 68); stroke-opacity: 1; fill: rgb(0, 204, 150); fill-opacity: 0.6; stroke-width: 0; opacity: 1;"/><path class="sankey-link" d="M759.9000000000001,80.65372050816704C946.19943,80.65372050816704 946.19943,74.72613430127042 1132.49886,74.72613430127042L1132.49886,75.78784029038114C946.19943,75.78784029038114 946.19943,81.71542649727776 759.9000000000001,81.71542649727776Z" style="stroke: rgb(68, 68, 68); stroke-opacity: 1; fill: rgb(171, 99, 250); fill-opacity: 0.6; stroke-width: 0; opacity: 1;"/><path class="sankey-link" d="M759.9000000000001,130.5539019963703C946.19943,130.5539019963703 946.19943,136.775499092559 1132.49886,136.775499092559L1132.49886,137.83720508166968C946.19943,137.83720508166968 946.19943,131.615607985481 759.9000000000001,131.615607985481Z" style="stroke: rgb(68, 68, 68); stroke-opacity: 1; fill: rgb(171, 99, 250); fill-opacity: 0.6; stroke-width: 0; opacity: 1;"/><path class="sankey-link" d="M759.9000000000001,397.8816696914699C946.19943,397.8816696914699 946.19943,403.25880217785846 1132.49886,403.25880217785846L1132.49886,405.38221415607984C946.19943,405.38221415607984 946.19943,400.00508166969126 759.9000000000001,400.00508166969126Z" style="stroke: rgb(68, 68, 68); stroke-opacity: 1; fill: rgb(171, 99, 250); fill-opacity: 0.6; stroke-width: 0; opacity: 1;"/><path class="sankey-link" d="M759.9000000000001,511.48421052631574C946.19943,511.48421052631574 946.19943,527.0994555353901 1132.49886,527.0994555353901L1132.49886,530.2845735027223C946.19943,530.2845735027223 946.19943,514.6693284936479 759.9000000000001,514.6693284936479Z" style="stroke: rgb(68, 68, 68); stroke-opacity: 1; fill: rgb(171, 99, 250); fill-opacity: 0.6; stroke-width: 0; opacity: 1;"/><path class="sankey-link" d="M759.9000000000001,629.0885662431944C946.19943,629.0885662431944 946.19943,625.586569872958 1132.49886,625.586569872958L1132.49886,627.7099818511794C946.19943,627.7099818511794 946.19943,631.2119782214157 759.9000000000001,631.2119782214157Z" style="stroke: rgb(68, 68, 68); stroke-opacity: 1; fill: rgb(171, 99, 250); fill-opacity: 0.6; stroke-width: 0; opacity: 1;"/><path class="sankey-link" d="M759.9000000000001,698.0994555353903C946.19943,698.0994555353903 946.19943,705.897277676951 1132.49886,705.897277676951L1132.49886,706.9589836660618C946.19943,706.9589836660618 946.19943,699.1611615245012 759.9000000000001,699.1611615245012Z" style="stroke: rgb(68, 68, 68); stroke-opacity: 1; fill: rgb(171, 99, 250); fill-opacity: 0.6; stroke-width: 0; opacity: 1;"/></g><g class="sankey-node-set" style="cursor: ns-resize;"><g class="sankey-node" transform="translate(-7.499,53.337)" style="opacity: 1;"><rect class="node-rect" width="15" height="158.19419237749543" style="stroke-width: 0.5; stroke: rgb(0, 0, 0); stroke-opacity: 1; fill: rgb(128, 128, 128); fill-opacity: 1;"/><text class="node-label" data-notex="1" x="0" y="0" text-anchor="start" transform="translate(18.25,83.29709618874772)" style="cursor: default; font-family: 'Open Sans', verdana, arial, sans-serif; font-size: 12px; fill: rgb(42, 63, 95); fill-opacity: 1; white-space: pre; text-shadow: white 1px 1px 1px, white -1px -1px 1px, white 1px -1px 1px, white -1px 1px 1px;">21272R</text></g><g class="sankey-node" transform="translate(-7.499,282.377)" style="opacity: 1;"><rect class="node-rect" width="15" height="71.13430127041738" style="stroke-width: 0.5; stroke: rgb(0, 0, 0); stroke-opacity: 1; fill: rgb(128, 128, 128); fill-opacity: 1;"/><text class="node-label" data-notex="1" x="0" y="0" text-anchor="start" transform="translate(18.25,39.767150635208694)" style="cursor: default; font-family: 'Open Sans', verdana, arial, sans-serif; font-size: 12px; fill: rgb(42, 63, 95); fill-opacity: 1; white-space: pre; text-shadow: white 1px 1px 1px, white -1px -1px 1px, white 1px -1px 1px, white -1px 1px 1px;">21965RL</text></g><g class="sankey-node" transform="translate(-7.499,410.507)" style="opacity: 1;"><rect class="node-rect" width="15" height="101.92377495462802" style="stroke-width: 0.5; stroke: rgb(0, 0, 0); stroke-opacity: 1; fill: rgb(128, 128, 128); fill-opacity: 1;"/><text class="node-label" data-notex="1" x="0" y="0" text-anchor="start" transform="translate(18.25,55.16188747731401)" style="cursor: default; font-family: 'Open Sans', verdana, arial, sans-serif; font-size: 12px; fill: rgb(42, 63, 95); fill-opacity: 1; white-space: pre; text-shadow: white 1px 1px 1px, white -1px -1px 1px, white 1px -1px 1px, white -1px 1px 1px;">22384</text></g><g class="sankey-node" transform="translate(-7.499,577.266)" style="opacity: 1;"><rect class="node-rect" width="15" height="102.9854809437386" style="stroke-width: 0.5; stroke: rgb(0, 0, 0); stroke-opacity: 1; fill: rgb(128, 128, 128); fill-opacity: 1;"/><text class="node-label" data-notex="1" x="0" y="0" text-anchor="start" transform="translate(18.25,55.6927404718693)" style="cursor: default; font-family: 'Open Sans', verdana, arial, sans-serif; font-size: 12px; fill: rgb(42, 63, 95); fill-opacity: 1; white-space: pre; text-shadow: white 1px 1px 1px, white -1px -1px 1px, white 1px -1px 1px, white -1px 1px 1px;">22670</text></g><g class="sankey-node" transform="translate(744.900,19.075)" style="opacity: 1;"><rect class="node-rect" width="15" height="112.54083484573492" style="stroke-width: 0.5; stroke: rgb(0, 0, 0); stroke-opacity: 1; fill: rgb(128, 128, 128); fill-opacity: 1;"/><text class="node-label" data-notex="1" x="0" y="0" text-anchor="start" transform="translate(18.25,60.470417422867456)" style="cursor: default; font-family: 'Open Sans', verdana, arial, sans-serif; font-size: 12px; fill: rgb(42, 63, 95); fill-opacity: 1; white-space: pre; text-shadow: white 1px 1px 1px, white -1px -1px 1px, white 1px -1px 1px, white -1px 1px 1px;">dig</text></g><g class="sankey-node" transform="translate(744.900,153.733)" style="opacity: 1;"><rect class="node-rect" width="15" height="73.25771324863888" style="stroke-width: 0.5; stroke: rgb(0, 0, 0); stroke-opacity: 1; fill: rgb(128, 128, 128); fill-opacity: 1;"/><text class="node-label" data-notex="1" x="0" y="0" text-anchor="start" transform="translate(18.25,40.82885662431944)" style="cursor: default; font-family: 'Open Sans', verdana, arial, sans-serif; font-size: 12px; fill: rgb(42, 63, 95); fill-opacity: 1; white-space: pre; text-shadow: white 1px 1px 1px, white -1px -1px 1px, white 1px -1px 1px, white -1px 1px 1px;">groom_front</text></g><g class="sankey-node" transform="translate(744.900,245.934)" style="opacity: 1;"><rect class="node-rect" width="15" height="36.09800362976421" style="stroke-width: 0.5; stroke: rgb(0, 0, 0); stroke-opacity: 1; fill: rgb(128, 128, 128); fill-opacity: 1;"/><text class="node-label" data-notex="1" x="0" y="0" text-anchor="start" transform="translate(18.25,22.249001814882103)" style="cursor: default; font-family: 'Open Sans', verdana, arial, sans-serif; font-size: 12px; fill: rgb(42, 63, 95); fill-opacity: 1; white-space: pre; text-shadow: white 1px 1px 1px, white -1px -1px 1px, white 1px -1px 1px, white -1px 1px 1px;">still</text></g><g class="sankey-node" transform="translate(744.900,306.575)" style="opacity: 1;"><rect class="node-rect" width="15" height="208.09437386569925" style="stroke-width: 0.5; stroke: rgb(0, 0, 0); stroke-opacity: 1; fill: rgb(128, 128, 128); fill-opacity: 1;"/><text class="node-label" data-notex="1" x="0" y="0" text-anchor="start" transform="translate(18.25,108.24718693284963)" style="cursor: default; font-family: 'Open Sans', verdana, arial, sans-serif; font-size: 12px; fill: rgb(42, 63, 95); fill-opacity: 1; white-space: pre; text-shadow: white 1px 1px 1px, white -1px -1px 1px, white 1px -1px 1px, white -1px 1px 1px;">walk</text></g><g class="sankey-node" transform="translate(744.900,544.152)" style="opacity: 1;"><rect class="node-rect" width="15" height="155.00907441016307" style="stroke-width: 0.5; stroke: rgb(0, 0, 0); stroke-opacity: 1; fill: rgb(128, 128, 128); fill-opacity: 1;"/><text class="node-label" data-notex="1" x="0" y="0" text-anchor="start" transform="translate(18.25,81.70453720508154)" style="cursor: default; font-family: 'Open Sans', verdana, arial, sans-serif; font-size: 12px; fill: rgb(42, 63, 95); fill-opacity: 1; white-space: pre; text-shadow: white 1px 1px 1px, white -1px -1px 1px, white 1px -1px 1px, white -1px 1px 1px;">wallclimb</text></g><g class="sankey-node" transform="translate(1132.499,13.147)" style="opacity: 1;"><rect class="node-rect" width="15" height="62.64065335753177" style="stroke-width: 0.5; stroke: rgb(0, 0, 0); stroke-opacity: 1; fill: rgb(128, 128, 128); fill-opacity: 1;"/><text class="node-label" data-notex="1" x="0" y="0" text-anchor="end" transform="translate(-3.25,35.52032667876588)" style="cursor: default; font-family: 'Open Sans', verdana, arial, sans-serif; font-size: 12px; fill: rgb(42, 63, 95); fill-opacity: 1; white-space: pre; text-shadow: white 1px 1px 1px, white -1px -1px 1px, white 1px -1px 1px, white -1px 1px 1px;">dig-activated</text></g><g class="sankey-node" transform="translate(1132.499,87.937)" style="opacity: 1;"><rect class="node-rect" width="15" height="49.900181488203216" style="stroke-width: 0.5; stroke: rgb(0, 0, 0); stroke-opacity: 1; fill: rgb(128, 128, 128); fill-opacity: 1;"/><text class="node-label" data-notex="1" x="0" y="0" text-anchor="end" transform="translate(-3.25,29.150090744101607)" style="cursor: default; font-family: 'Open Sans', verdana, arial, sans-serif; font-size: 12px; fill: rgb(42, 63, 95); fill-opacity: 1; white-space: pre; text-shadow: white 1px 1px 1px, white -1px -1px 1px, white 1px -1px 1px, white -1px 1px 1px;">dig-suppressed</text></g><g class="sankey-node" transform="translate(1132.499,150.454)" style="opacity: 1;"><rect class="node-rect" width="15" height="39.28312159709617" style="stroke-width: 0.5; stroke: rgb(0, 0, 0); stroke-opacity: 1; fill: rgb(128, 128, 128); fill-opacity: 1;"/><text class="node-label" data-notex="1" x="0" y="0" text-anchor="end" transform="translate(-3.25,23.841560798548084)" style="cursor: default; font-family: 'Open Sans', verdana, arial, sans-serif; font-size: 12px; fill: rgb(42, 63, 95); fill-opacity: 1; white-space: pre; text-shadow: white 1px 1px 1px, white -1px -1px 1px, white 1px -1px 1px, white -1px 1px 1px;">groom_front-activated</text></g><g class="sankey-node" transform="translate(1132.499,202.672)" style="opacity: 1;"><rect class="node-rect" width="15" height="33.97459165154271" style="stroke-width: 0.5; stroke: rgb(0, 0, 0); stroke-opacity: 1; fill: rgb(128, 128, 128); fill-opacity: 1;"/><text class="node-label" data-notex="1" x="0" y="0" text-anchor="end" transform="translate(-3.25,21.187295825771354)" style="cursor: default; font-family: 'Open Sans', verdana, arial, sans-serif; font-size: 12px; fill: rgb(42, 63, 95); fill-opacity: 1; white-space: pre; text-shadow: white 1px 1px 1px, white -1px -1px 1px, white 1px -1px 1px, white -1px 1px 1px;">groom_front-suppressed</text></g><g class="sankey-node" transform="translate(1132.499,250.175)" style="opacity: 1;"><rect class="node-rect" width="15" height="9.555353901996341" style="stroke-width: 0.5; stroke: rgb(0, 0, 0); stroke-opacity: 1; fill: rgb(128, 128, 128); fill-opacity: 1;"/><text class="node-label" data-notex="1" x="0" y="0" text-anchor="end" transform="translate(-3.25,8.97767695099817)" style="cursor: default; font-family: 'Open Sans', verdana, arial, sans-serif; font-size: 12px; fill: rgb(42, 63, 95); fill-opacity: 1; white-space: pre; text-shadow: white 1px 1px 1px, white -1px -1px 1px, white 1px -1px 1px, white -1px 1px 1px;">still-activated</text></g><g class="sankey-node" transform="translate(1132.499,273.409)" style="opacity: 1;"><rect class="node-rect" width="15" height="26.54264972776798" style="stroke-width: 0.5; stroke: rgb(0, 0, 0); stroke-opacity: 1; fill: rgb(128, 128, 128); fill-opacity: 1;"/><text class="node-label" data-notex="1" x="0" y="0" text-anchor="end" transform="translate(-3.25,17.47132486388399)" style="cursor: default; font-family: 'Open Sans', verdana, arial, sans-serif; font-size: 12px; fill: rgb(42, 63, 95); fill-opacity: 1; white-space: pre; text-shadow: white 1px 1px 1px, white -1px -1px 1px, white 1px -1px 1px, white -1px 1px 1px;">still-suppressed</text></g><g class="sankey-node" transform="translate(1132.499,311.952)" style="opacity: 1;"><rect class="node-rect" width="15" height="93.43012704174237" style="stroke-width: 0.5; stroke: rgb(0, 0, 0); stroke-opacity: 1; fill: rgb(128, 128, 128); fill-opacity: 1;"/><text class="node-label" data-notex="1" x="0" y="0" text-anchor="end" transform="translate(-3.25,50.915063520871186)" style="cursor: default; font-family: 'Open Sans', verdana, arial, sans-serif; font-size: 12px; fill: rgb(42, 63, 95); fill-opacity: 1; white-space: pre; text-shadow: white 1px 1px 1px, white -1px -1px 1px, white 1px -1px 1px, white -1px 1px 1px;">walk-activated</text></g><g class="sankey-node" transform="translate(1132.499,415.620)" style="opacity: 1;"><rect class="node-rect" width="15" height="114.6642468239566" style="stroke-width: 0.5; stroke: rgb(0, 0, 0); stroke-opacity: 1; fill: rgb(128, 128, 128); fill-opacity: 1;"/><text class="node-label" data-notex="1" x="0" y="0" text-anchor="end" transform="translate(-3.25,61.532123411978304)" style="cursor: default; font-family: 'Open Sans', verdana, arial, sans-serif; font-size: 12px; fill: rgb(42, 63, 95); fill-opacity: 1; white-space: pre; text-shadow: white 1px 1px 1px, white -1px -1px 1px, white 1px -1px 1px, white -1px 1px 1px;">walk-suppressed</text></g><g class="sankey-node" transform="translate(1132.499,540.650)" style="opacity: 1;"><rect class="node-rect" width="15" height="87.05989110707856" style="stroke-width: 0.5; stroke: rgb(0, 0, 0); stroke-opacity: 1; fill: rgb(128, 128, 128); fill-opacity: 1;"/><text class="node-label" data-notex="1" x="0" y="0" text-anchor="end" transform="translate(-3.25,47.72994555353928)" style="cursor: default; font-family: 'Open Sans', verdana, arial, sans-serif; font-size: 12px; fill: rgb(42, 63, 95); fill-opacity: 1; white-space: pre; text-shadow: white 1px 1px 1px, white -1px -1px 1px, white 1px -1px 1px, white -1px 1px 1px;">wallclimb-activated</text></g><g class="sankey-node" transform="translate(1132.499,639.010)" style="opacity: 1;"><rect class="node-rect" width="15" height="67.94918330308519" style="stroke-width: 0.5; stroke: rgb(0, 0, 0); stroke-opacity: 1; fill: rgb(128, 128, 128); fill-opacity: 1;"/><text class="node-label" data-notex="1" x="0" y="0" text-anchor="end" transform="translate(-3.25,38.1745916515426)" style="cursor: default; font-family: 'Open Sans', verdana, arial, sans-serif; font-size: 12px; fill: rgb(42, 63, 95); fill-opacity: 1; white-space: pre; text-shadow: white 1px 1px 1px, white -1px -1px 1px, white 1px -1px 1px, white -1px 1px 1px;">wallclimb-suppressed</text></g><g class="sankey-node" transform="translate(368.700,13.614)" style="opacity: 1;"><rect class="node-rect" width="15" height="39.283121597096056" style="stroke-width: 0.5; stroke: rgb(0, 0, 0); stroke-opacity: 1; fill: rgb(99, 110, 250); fill-opacity: 1;"/><text class="node-label" data-notex="1" x="0" y="0" text-anchor="start" transform="translate(18.25,23.841560798548027)" style="cursor: default; font-family: 'Open Sans', verdana, arial, sans-serif; font-size: 12px; fill: rgb(42, 63, 95); fill-opacity: 1; white-space: pre; text-shadow: white 1px 1px 1px, white -1px -1px 1px, white 1px -1px 1px, white -1px 1px 1px;">BLA</text></g><g class="sankey-node" transform="translate(368.700,64.707)" style="opacity: 1;"><rect class="node-rect" width="15" height="90.24500907441086" style="stroke-width: 0.5; stroke: rgb(0, 0, 0); stroke-opacity: 1; fill: rgb(25, 211, 243); fill-opacity: 1;"/><text class="node-label" data-notex="1" x="0" y="0" text-anchor="start" transform="translate(18.25,49.32250453720543)" style="cursor: default; font-family: 'Open Sans', verdana, arial, sans-serif; font-size: 12px; fill: rgb(42, 63, 95); fill-opacity: 1; white-space: pre; text-shadow: white 1px 1px 1px, white -1px -1px 1px, white 1px -1px 1px, white -1px 1px 1px;">Cla</text></g><g class="sankey-node" transform="translate(368.700,166.294)" style="opacity: 1;"><rect class="node-rect" width="15" height="62.64065335753179" style="stroke-width: 0.5; stroke: rgb(0, 0, 0); stroke-opacity: 1; fill: rgb(239, 85, 59); fill-opacity: 1;"/><text class="node-label" data-notex="1" x="0" y="0" text-anchor="start" transform="translate(18.25,35.5203266787659)" style="cursor: default; font-family: 'Open Sans', verdana, arial, sans-serif; font-size: 12px; fill: rgb(42, 63, 95); fill-opacity: 1; white-space: pre; text-shadow: white 1px 1px 1px, white -1px -1px 1px, white 1px -1px 1px, white -1px 1px 1px;">LC</text></g><g class="sankey-node" transform="translate(368.700,241.381)" style="opacity: 1;"><rect class="node-rect" width="15" height="35.036297640653174" style="stroke-width: 0.5; stroke: rgb(0, 0, 0); stroke-opacity: 1; fill: rgb(254, 203, 82); fill-opacity: 1;"/><text class="node-label" data-notex="1" x="0" y="0" text-anchor="start" transform="translate(18.25,21.718148820326586)" style="cursor: default; font-family: 'Open Sans', verdana, arial, sans-serif; font-size: 12px; fill: rgb(42, 63, 95); fill-opacity: 1; white-space: pre; text-shadow: white 1px 1px 1px, white -1px -1px 1px, white 1px -1px 1px, white -1px 1px 1px;">LHyp</text></g><g class="sankey-node" transform="translate(368.700,289.544)" style="opacity: 1;"><rect class="node-rect" width="15" height="28.66606170598925" style="stroke-width: 0.5; stroke: rgb(0, 0, 0); stroke-opacity: 1; fill: rgb(182, 232, 128); fill-opacity: 1;"/><text class="node-label" data-notex="1" x="0" y="0" text-anchor="start" transform="translate(18.25,18.533030852994624)" style="cursor: default; font-family: 'Open Sans', verdana, arial, sans-serif; font-size: 12px; fill: rgb(42, 63, 95); fill-opacity: 1; white-space: pre; text-shadow: white 1px 1px 1px, white -1px -1px 1px, white 1px -1px 1px, white -1px 1px 1px;">NAc</text></g><g class="sankey-node" transform="translate(368.700,330.104)" style="opacity: 1;"><rect class="node-rect" width="15" height="96.61524500907478" style="stroke-width: 0.5; stroke: rgb(0, 0, 0); stroke-opacity: 1; fill: rgb(255, 161, 90); fill-opacity: 1;"/><text class="node-label" data-notex="1" x="0" y="0" text-anchor="start" transform="translate(18.25,52.507622504537395)" style="cursor: default; font-family: 'Open Sans', verdana, arial, sans-serif; font-size: 12px; fill: rgb(42, 63, 95); fill-opacity: 1; white-space: pre; text-shadow: white 1px 1px 1px, white -1px -1px 1px, white 1px -1px 1px, white -1px 1px 1px;">Str</text></g><g class="sankey-node" transform="translate(368.700,436.384)" style="opacity: 1;"><rect class="node-rect" width="15" height="140.14519056261287" style="stroke-width: 0.5; stroke: rgb(0, 0, 0); stroke-opacity: 1; fill: rgb(255, 151, 255); fill-opacity: 1;"/><text class="node-label" data-notex="1" x="0" y="0" text-anchor="start" transform="translate(18.25,74.27259528130644)" style="cursor: default; font-family: 'Open Sans', verdana, arial, sans-serif; font-size: 12px; fill: rgb(42, 63, 95); fill-opacity: 1; white-space: pre; text-shadow: white 1px 1px 1px, white -1px -1px 1px, white 1px -1px 1px, white -1px 1px 1px;">VTA</text></g><g class="sankey-node" transform="translate(368.700,587.128)" style="opacity: 1;"><rect class="node-rect" width="15" height="49.900181488203316" style="stroke-width: 0.5; stroke: rgb(0, 0, 0); stroke-opacity: 1; fill: rgb(255, 102, 146); fill-opacity: 1;"/><text class="node-label" data-notex="1" x="0" y="0" text-anchor="start" transform="translate(18.25,29.150090744101657)" style="cursor: default; font-family: 'Open Sans', verdana, arial, sans-serif; font-size: 12px; fill: rgb(42, 63, 95); fill-opacity: 1; white-space: pre; text-shadow: white 1px 1px 1px, white -1px -1px 1px, white 1px -1px 1px, white -1px 1px 1px;">cPFC</text></g><g class="sankey-node" transform="translate(368.700,649.793)" style="opacity: 1;"><rect class="node-rect" width="15" height="31.85117967332053" style="stroke-width: 0.5; stroke: rgb(0, 0, 0); stroke-opacity: 1; fill: rgb(0, 204, 150); fill-opacity: 1;"/><text class="node-label" data-notex="1" x="0" y="0" text-anchor="start" transform="translate(18.25,20.125589836660264)" style="cursor: default; font-family: 'Open Sans', verdana, arial, sans-serif; font-size: 12px; fill: rgb(42, 63, 95); fill-opacity: 1; white-space: pre; text-shadow: white 1px 1px 1px, white -1px -1px 1px, white 1px -1px 1px, white -1px 1px 1px;">dPAG</text></g><g class="sankey-node" transform="translate(368.700,695.195)" style="opacity: 1;"><rect class="node-rect" width="15" height="10.61705989110692" style="stroke-width: 0.5; stroke: rgb(0, 0, 0); stroke-opacity: 1; fill: rgb(171, 99, 250); fill-opacity: 1;"/><text class="node-label" data-notex="1" x="0" y="0" text-anchor="start" transform="translate(18.25,9.508529945553459)" style="cursor: default; font-family: 'Open Sans', verdana, arial, sans-serif; font-size: 12px; fill: rgb(42, 63, 95); fill-opacity: 1; white-space: pre; text-shadow: white 1px 1px 1px, white -1px -1px 1px, white 1px -1px 1px, white -1px 1px 1px;">lHb</text></g></g></g><defs id="topdefs-637a77"><g class="clips"/></defs><g class="layer-above"><g class="imagelayer"/><g class="shapelayer"/></g><g class="infolayer"><g class="g-gtitle"/><g class="first-render"/></g></svg>