<svg class="main-svg" xmlns="http://www.w3.org/2000/svg" xmlns:xlink="http://www.w3.org/1999/xlink" width="1300" height="900" style="" viewBox="0 0 1300 900"><rect x="0" y="0" width="1300" height="900" style="fill: rgb(255, 255, 255); fill-opacity: 1;"/><defs id="defs-029498"><g class="clips"/><g class="gradients"/><g class="patterns"/></defs><g class="bglayer"/><g class="layer-below"><g class="imagelayer"/><g class="shapelayer"/></g><g class="cartesianlayer"/><g class="polarlayer"/><g class="smithlayer"/><g class="ternarylayer"/><g class="geolayer"/><g class="funnelarealayer"/><g class="pielayer"/><g class="iciclelayer"/><g class="treemaplayer"/><g class="sunburstlayer"/><g class="glimages"/><g class="sankey" transform="translate(80,100)matrix(1 0 0 1 0 0)" style="box-sizing: content-box; position: absolute; left: 0px; shape-rendering: geometricprecision; pointer-events: none;"><g class="sankey-links" style="fill: none;"><path class="sankey-link" d="M15,104.13043478260906C195,104.13043478260906 195,23.47826086956582 375,23.47826086956582L375,50.326086956522346C195,50.326086956522346 195,130.9782608695656 15,130.9782608695656Z" style="stroke: rgb(68, 68, 68); stroke-opacity: 1; fill: rgb(99, 110, 250); fill-opacity: 0.6; stroke-width: 0; opacity: 1;"/><path class="sankey-link" d="M15,188.91304347826124C195,188.91304347826124 195,194.2391304347828 375,194.2391304347828L375,226.7391304347828C195,226.7391304347828 195,221.41304347826124 15,221.41304347826124Z" style="stroke: rgb(68, 68, 68); stroke-opacity: 1; fill: rgb(25, 211, 243); fill-opacity: 0.6; stroke-width: 0; opacity: 1;"/><path class="sankey-link" d="M15,149.3478260869569C195,149.3478260869569 195,122.71739130434814 375,122.71739130434814L375,162.2826086956525C195,162.2826086956525 195,188.91304347826127 15,188.91304347826127Z" style="stroke: rgb(68, 68, 68); stroke-opacity: 1; fill: rgb(239, 85, 59); fill-opacity: 0.6; stroke-width: 0; opacity: 1;"/><path class="sankey-link" d="M15,130.9782608695656C195,130.9782608695656 195,75.21739130434818 375,75.21739130434818L375,93.5869565217395C195,93.5869565217395 195,149.3478260869569 15,149.3478260869569Z" style="stroke: rgb(68, 68, 68); stroke-opacity: 1; fill: rgb(182, 232, 128); fill-opacity: 0.6; stroke-width: 0; opacity: 1;"/><path class="sankey-link" d="M15,221.41304347826122C195,221.41304347826122 195,299.6739130434784 375,299.6739130434784L375,340.65217391304367C195,340.65217391304367 195,262.39130434782646 15,262.39130434782646Z" style="stroke: rgb(68, 68, 68); stroke-opacity: 1; fill: rgb(255, 161, 90); fill-opacity: 0.6; stroke-width: 0; opacity: 1;"/><path class="sankey-link" d="M15,299.1304347826091C195,299.1304347826091 195,525.5434782608698 375,525.5434782608698L375,534.0217391304351C195,534.0217391304351 195,307.60869565217433 15,307.60869565217433Z" style="stroke: rgb(68, 68, 68); stroke-opacity: 1; fill: rgb(255, 151, 255); fill-opacity: 0.6; stroke-width: 0; opacity: 1;"/><path class="sankey-link" d="M15,262.39130434782646C195,262.39130434782646 195,410.7608695652176 375,410.7608695652176L375,433.3695652173915C195,433.3695652173915 195,285.00000000000034 15,285.00000000000034Z" style="stroke: rgb(68, 68, 68); stroke-opacity: 1; fill: rgb(255, 102, 146); fill-opacity: 0.6; stroke-width: 0; opacity: 1;"/><path class="sankey-link" d="M15,285.0000000000004C195,285.0000000000004 195,475.2173913043481 375,475.2173913043481L375,489.34782608695684C195,489.34782608695684 195,299.13043478260914 15,299.13043478260914Z" style="stroke: rgb(68, 68, 68); stroke-opacity: 1; fill: rgb(0, 204, 150); fill-opacity: 0.6; stroke-width: 0; opacity: 1;"/><path class="sankey-link" d="M15,97.06521739130471C195,97.06521739130471 195,6.110667527536862e-13 375,6.110667527536862e-13L375,7.065217391304959C195,7.065217391304959 195,104.13043478260906 15,104.13043478260906Z" style="stroke: rgb(68, 68, 68); stroke-opacity: 1; fill: rgb(171, 99, 250); fill-opacity: 0.6; stroke-width: 0; opacity: 1;"/><path class="sankey-link" d="M15,322.608695652174C195,322.608695652174 195,50.32608695652234 375,50.32608695652234L375,60.21739130434843C195,60.21739130434843 195,332.5000000000001 15,332.5000000000001Z" style="stroke: rgb(68, 68, 68); stroke-opacity: 1; fill: rgb(99, 110, 250); fill-opacity: 0.6; stroke-width: 0; opacity: 1;"/><path class="sankey-link" d="M15,348.0434782608696C195,348.0434782608696 195,226.7391304347828 375,226.7391304347828L375,262.06521739130454C195,262.06521739130454 195,383.36956521739137 15,383.36956521739137Z" style="stroke: rgb(68, 68, 68); stroke-opacity: 1; fill: rgb(25, 211, 243); fill-opacity: 0.6; stroke-width: 0; opacity: 1;"/><path class="sankey-link" d="M15,346.63043478260875C195,346.63043478260875 195,162.28260869565247 375,162.28260869565247L375,163.69565217391334C195,163.69565217391334 195,348.0434782608696 15,348.0434782608696Z" style="stroke: rgb(68, 68, 68); stroke-opacity: 1; fill: rgb(239, 85, 59); fill-opacity: 0.6; stroke-width: 0; opacity: 1;"/><path class="sankey-link" d="M15,332.50000000000006C195,332.50000000000006 195,93.5869565217395 375,93.5869565217395L375,107.71739130434818C195,107.71739130434818 195,346.6304347826088 15,346.6304347826088Z" style="stroke: rgb(68, 68, 68); stroke-opacity: 1; fill: rgb(182, 232, 128); fill-opacity: 0.6; stroke-width: 0; opacity: 1;"/><path class="sankey-link" d="M15,383.36956521739137C195,383.36956521739137 195,340.6521739130436 375,340.6521739130436L375,350.54347826086973C195,350.54347826086973 195,393.2608695652175 15,393.2608695652175Z" style="stroke: rgb(68, 68, 68); stroke-opacity: 1; fill: rgb(255, 161, 90); fill-opacity: 0.6; stroke-width: 0; opacity: 1;"/><path class="sankey-link" d="M15,413.0434782608696C195,413.0434782608696 195,534.0217391304351 375,534.0217391304351L375,538.2608695652176C195,538.2608695652176 195,417.28260869565224 15,417.28260869565224Z" style="stroke: rgb(68, 68, 68); stroke-opacity: 1; fill: rgb(255, 151, 255); fill-opacity: 0.6; stroke-width: 0; opacity: 1;"/><path class="sankey-link" d="M15,393.26086956521743C195,393.26086956521743 195,433.36956521739154 375,433.36956521739154L375,440.4347826086959C195,440.4347826086959 195,400.3260869565218 15,400.3260869565218Z" style="stroke: rgb(68, 68, 68); stroke-opacity: 1; fill: rgb(255, 102, 146); fill-opacity: 0.6; stroke-width: 0; opacity: 1;"/><path class="sankey-link" d="M15,400.3260869565218C195,400.3260869565218 195,489.3478260869568 375,489.3478260869568L375,502.06521739130466C195,502.06521739130466 195,413.0434782608697 15,413.0434782608697Z" style="stroke: rgb(68, 68, 68); stroke-opacity: 1; fill: rgb(0, 204, 150); fill-opacity: 0.6; stroke-width: 0; opacity: 1;"/><path class="sankey-link" d="M15,439.34782608695673C195,439.34782608695673 195,262.06521739130454 375,262.06521739130454L375,273.36956521739154C195,273.36956521739154 195,450.6521739130437 15,450.6521739130437Z" style="stroke: rgb(68, 68, 68); stroke-opacity: 1; fill: rgb(25, 211, 243); fill-opacity: 0.6; stroke-width: 0; opacity: 1;"/><path class="sankey-link" d="M15,432.28260869565236C195,432.28260869565236 195,163.69565217391334 375,163.69565217391334L375,170.76086956521772C195,170.76086956521772 195,439.34782608695673 15,439.34782608695673Z" style="stroke: rgb(68, 68, 68); stroke-opacity: 1; fill: rgb(239, 85, 59); fill-opacity: 0.6; stroke-width: 0; opacity: 1;"/><path class="sankey-link" d="M15,552.3913043478262C195,552.3913043478262 195,687.5 375,687.5L375,703.0434782608695C195,703.0434782608695 195,567.9347826086957 15,567.9347826086957Z" style="stroke: rgb(68, 68, 68); stroke-opacity: 1; fill: rgb(254, 203, 82); fill-opacity: 0.6; stroke-width: 0; opacity: 1;"/><path class="sankey-link" d="M15,450.65217391304367C195,450.65217391304367 195,350.5434782608697 375,350.5434782608697L375,373.15217391304355C195,373.15217391304355 195,473.26086956521755 15,473.26086956521755Z" style="stroke: rgb(68, 68, 68); stroke-opacity: 1; fill: rgb(255, 161, 90); fill-opacity: 0.6; stroke-width: 0; opacity: 1;"/><path class="sankey-link" d="M15,487.39130434782624C195,487.39130434782624 195,538.2608695652177 375,538.2608695652177L375,603.2608695652177C195,603.2608695652177 195,552.3913043478262 15,552.3913043478262Z" style="stroke: rgb(68, 68, 68); stroke-opacity: 1; fill: rgb(255, 151, 255); fill-opacity: 0.6; stroke-width: 0; opacity: 1;"/><path class="sankey-link" d="M15,473.2608695652176C195,473.2608695652176 195,440.4347826086959 375,440.4347826086959L375,450.32608695652203C195,450.32608695652203 195,483.1521739130437 15,483.1521739130437Z" style="stroke: rgb(68, 68, 68); stroke-opacity: 1; fill: rgb(255, 102, 146); fill-opacity: 0.6; stroke-width: 0; opacity: 1;"/><path class="sankey-link" d="M15,483.15217391304367C195,483.15217391304367 195,502.0652173913046 375,502.0652173913046L375,506.3043478260872C195,506.3043478260872 195,487.3913043478263 15,487.3913043478263Z" style="stroke: rgb(68, 68, 68); stroke-opacity: 1; fill: rgb(0, 204, 150); fill-opacity: 0.6; stroke-width: 0; opacity: 1;"/><path class="sankey-link" d="M15,590.0000000000001C195,590.0000000000001 195,273.3695652173915 375,273.3695652173915L375,284.6739130434785C195,284.6739130434785 195,601.3043478260871 15,601.3043478260871Z" style="stroke: rgb(68, 68, 68); stroke-opacity: 1; fill: rgb(25, 211, 243); fill-opacity: 0.6; stroke-width: 0; opacity: 1;"/><path class="sankey-link" d="M15,582.9347826086957C195,582.9347826086957 195,170.7608695652177 375,170.7608695652177L375,177.82608695652206C195,177.82608695652206 195,590 15,590Z" style="stroke: rgb(68, 68, 68); stroke-opacity: 1; fill: rgb(239, 85, 59); fill-opacity: 0.6; stroke-width: 0; opacity: 1;"/><path class="sankey-link" d="M15,703.0434782608697C195,703.0434782608697 195,703.0434782608696 375,703.0434782608696L375,720.0000000000001C195,720.0000000000001 195,720.0000000000002 15,720.0000000000002Z" style="stroke: rgb(68, 68, 68); stroke-opacity: 1; fill: rgb(254, 203, 82); fill-opacity: 0.6; stroke-width: 0; opacity: 1;"/><path class="sankey-link" d="M15,601.3043478260871C195,601.3043478260871 195,373.1521739130436 375,373.1521739130436L375,395.7608695652175C195,395.7608695652175 195,623.9130434782611 15,623.9130434782611Z" style="stroke: rgb(68, 68, 68); stroke-opacity: 1; fill: rgb(255, 161, 90); fill-opacity: 0.6; stroke-width: 0; opacity: 1;"/><path class="sankey-link" d="M15,638.0434782608697C195,638.0434782608697 195,603.2608695652177 375,603.2608695652177L375,668.2608695652177C195,668.2608695652177 195,703.0434782608697 15,703.0434782608697Z" style="stroke: rgb(68, 68, 68); stroke-opacity: 1; fill: rgb(255, 151, 255); fill-opacity: 0.6; stroke-width: 0; opacity: 1;"/><path class="sankey-link" d="M15,623.913043478261C195,623.913043478261 195,450.326086956522 375,450.326086956522L375,460.2173913043481C195,460.2173913043481 195,633.804347826087 15,633.804347826087Z" style="stroke: rgb(68, 68, 68); stroke-opacity: 1; fill: rgb(255, 102, 146); fill-opacity: 0.6; stroke-width: 0; opacity: 1;"/><path class="sankey-link" d="M15,633.8043478260871C195,633.8043478260871 195,506.3043478260872 375,506.3043478260872L375,510.54347826086985C195,510.54347826086985 195,638.0434782608696 15,638.0434782608696Z" style="stroke: rgb(68, 68, 68); stroke-opacity: 1; fill: rgb(0, 204, 150); fill-opacity: 0.6; stroke-width: 0; opacity: 1;"/><path class="sankey-link" d="M390,41.84782608695712C570,41.84782608695712 570,381.95652173913004 750,381.95652173913004L750,393.26086956521704C570,393.26086956521704 570,53.152173913044074 390,53.152173913044074Z" style="stroke: rgb(68, 68, 68); stroke-opacity: 1; fill: rgb(99, 110, 250); fill-opacity: 0.6; stroke-width: 0; opacity: 1;"/><path class="sankey-link" d="M390,23.47826086956582C570,23.47826086956582 570,147.93478260869514 750,147.93478260869514L750,166.30434782608646C570,166.30434782608646 570,41.84782608695713 390,41.84782608695713Z" style="stroke: rgb(68, 68, 68); stroke-opacity: 1; fill: rgb(99, 110, 250); fill-opacity: 0.6; stroke-width: 0; opacity: 1;"/><path class="sankey-link" d="M390,215.43478260869583C570,215.43478260869583 570,417.2826086956518 750,417.2826086956518L750,441.30434782608654C570,441.30434782608654 570,239.45652173913064 390,239.45652173913064Z" style="stroke: rgb(68, 68, 68); stroke-opacity: 1; fill: rgb(25, 211, 243); fill-opacity: 0.6; stroke-width: 0; opacity: 1;"/><path class="sankey-link" d="M390,239.4565217391306C570,239.4565217391306 570,565.1086956521735 750,565.1086956521735L750,577.8260869565213C570,577.8260869565213 570,252.17391304347842 390,252.17391304347842Z" style="stroke: rgb(68, 68, 68); stroke-opacity: 1; fill: rgb(25, 211, 243); fill-opacity: 0.6; stroke-width: 0; opacity: 1;"/><path class="sankey-link" d="M390,194.2391304347828C570,194.2391304347828 570,210.10869565217342 750,210.10869565217342L750,231.30434782608648C570,231.30434782608648 570,215.43478260869585 390,215.43478260869585Z" style="stroke: rgb(68, 68, 68); stroke-opacity: 1; fill: rgb(25, 211, 243); fill-opacity: 0.6; stroke-width: 0; opacity: 1;"/><path class="sankey-link" d="M390,252.17391304347842C570,252.17391304347842 570,673.3695652173911 750,673.3695652173911L750,679.0217391304346C570,679.0217391304346 570,257.8260869565219 390,257.8260869565219Z" style="stroke: rgb(68, 68, 68); stroke-opacity: 1; fill: rgb(25, 211, 243); fill-opacity: 0.6; stroke-width: 0; opacity: 1;"/><path class="sankey-link" d="M390,150.97826086956553C570,150.97826086956553 570,400.3260869565213 750,400.3260869565213L750,417.2826086956518C570,417.2826086956518 570,167.93478260869597 390,167.93478260869597Z" style="stroke: rgb(68, 68, 68); stroke-opacity: 1; fill: rgb(239, 85, 59); fill-opacity: 0.6; stroke-width: 0; opacity: 1;"/><path class="sankey-link" d="M390,167.93478260869597C570,167.93478260869597 570,558.0434782608692 750,558.0434782608692L750,565.1086956521734C570,565.1086956521734 570,175.00000000000034 390,175.00000000000034Z" style="stroke: rgb(68, 68, 68); stroke-opacity: 1; fill: rgb(239, 85, 59); fill-opacity: 0.6; stroke-width: 0; opacity: 1;"/><path class="sankey-link" d="M390,122.71739130434813C570,122.71739130434813 570,181.84782608695602 750,181.84782608695602L750,210.1086956521734C570,210.1086956521734 570,150.9782608695655 390,150.9782608695655Z" style="stroke: rgb(68, 68, 68); stroke-opacity: 1; fill: rgb(239, 85, 59); fill-opacity: 0.6; stroke-width: 0; opacity: 1;"/><path class="sankey-link" d="M390,175.0000000000003C570,175.0000000000003 570,669.1304347826085 750,669.1304347826085L750,673.369565217391C570,673.369565217391 570,179.23913043478294 390,179.23913043478294Z" style="stroke: rgb(68, 68, 68); stroke-opacity: 1; fill: rgb(239, 85, 59); fill-opacity: 0.6; stroke-width: 0; opacity: 1;"/><path class="sankey-link" d="M390,695.9782608695652C570,695.9782608695652 570,533.152173913043 750,533.152173913043L750,538.8043478260865C570,538.8043478260865 570,701.6304347826087 390,701.6304347826087Z" style="stroke: rgb(68, 68, 68); stroke-opacity: 1; fill: rgb(254, 203, 82); fill-opacity: 0.6; stroke-width: 0; opacity: 1;"/><path class="sankey-link" d="M390,701.6304347826087C570,701.6304347826087 570,644.2391304347823 750,644.2391304347823L750,654.1304347826083C570,654.1304347826083 570,711.5217391304348 390,711.5217391304348Z" style="stroke: rgb(68, 68, 68); stroke-opacity: 1; fill: rgb(254, 203, 82); fill-opacity: 0.6; stroke-width: 0; opacity: 1;"/><path class="sankey-link" d="M390,687.5C570,687.5 570,355.652173913043 750,355.652173913043L750,364.13043478260823C570,364.13043478260823 570,695.9782608695652 390,695.9782608695652Z" style="stroke: rgb(68, 68, 68); stroke-opacity: 1; fill: rgb(254, 203, 82); fill-opacity: 0.6; stroke-width: 0; opacity: 1;"/><path class="sankey-link" d="M390,711.5217391304349C570,711.5217391304349 570,717.1739130434781 750,717.1739130434781L750,719.9999999999999C570,719.9999999999999 570,714.3478260869566 390,714.3478260869566Z" style="stroke: rgb(68, 68, 68); stroke-opacity: 1; fill: rgb(254, 203, 82); fill-opacity: 0.6; stroke-width: 0; opacity: 1;"/><path class="sankey-link" d="M390,90.76086956521775C570,90.76086956521775 570,393.260869565217 750,393.260869565217L750,400.32608695652135C570,400.32608695652135 570,97.82608695652209 390,97.82608695652209Z" style="stroke: rgb(68, 68, 68); stroke-opacity: 1; fill: rgb(182, 232, 128); fill-opacity: 0.6; stroke-width: 0; opacity: 1;"/><path class="sankey-link" d="M390,97.82608695652209C570,97.82608695652209 570,553.8043478260865 750,553.8043478260865L750,558.043478260869C570,558.043478260869 570,102.06521739130471 390,102.06521739130471Z" style="stroke: rgb(68, 68, 68); stroke-opacity: 1; fill: rgb(182, 232, 128); fill-opacity: 0.6; stroke-width: 0; opacity: 1;"/><path class="sankey-link" d="M390,75.21739130434818C570,75.21739130434818 570,166.30434782608646 750,166.30434782608646L750,181.84782608695602C570,181.84782608695602 570,90.76086956521775 390,90.76086956521775Z" style="stroke: rgb(68, 68, 68); stroke-opacity: 1; fill: rgb(182, 232, 128); fill-opacity: 0.6; stroke-width: 0; opacity: 1;"/><path class="sankey-link" d="M390,340.6521739130436C570,340.6521739130436 570,441.3043478260866 750,441.3043478260866L750,466.7391304347822C570,466.7391304347822 570,366.08695652173924 390,366.08695652173924Z" style="stroke: rgb(68, 68, 68); stroke-opacity: 1; fill: rgb(255, 161, 90); fill-opacity: 0.6; stroke-width: 0; opacity: 1;"/><path class="sankey-link" d="M390,366.08695652173924C570,366.08695652173924 570,577.8260869565214 750,577.8260869565214L750,601.8478260869562C570,601.8478260869562 570,390.108695652174 390,390.108695652174Z" style="stroke: rgb(68, 68, 68); stroke-opacity: 1; fill: rgb(255, 161, 90); fill-opacity: 0.6; stroke-width: 0; opacity: 1;"/><path class="sankey-link" d="M390,299.6739130434784C570,299.6739130434784 570,231.30434782608643 750,231.30434782608643L750,272.2826086956517C570,272.2826086956517 570,340.65217391304367 390,340.65217391304367Z" style="stroke: rgb(68, 68, 68); stroke-opacity: 1; fill: rgb(255, 161, 90); fill-opacity: 0.6; stroke-width: 0; opacity: 1;"/><path class="sankey-link" d="M390,390.10869565217405C570,390.10869565217405 570,679.0217391304346 750,679.0217391304346L750,684.6739130434781C570,684.6739130434781 570,395.76086956521755 390,395.76086956521755Z" style="stroke: rgb(68, 68, 68); stroke-opacity: 1; fill: rgb(255, 161, 90); fill-opacity: 0.6; stroke-width: 0; opacity: 1;"/><path class="sankey-link" d="M390,576.4130434782611C570,576.4130434782611 570,492.1739130434778 750,492.1739130434778L750,533.152173913043C570,533.152173913043 570,617.3913043478263 390,617.3913043478263Z" style="stroke: rgb(68, 68, 68); stroke-opacity: 1; fill: rgb(255, 151, 255); fill-opacity: 0.6; stroke-width: 0; opacity: 1;"/><path class="sankey-link" d="M390,617.3913043478263C570,617.3913043478263 570,614.565217391304 750,614.565217391304L750,644.2391304347823C570,644.2391304347823 570,647.0652173913046 390,647.0652173913046Z" style="stroke: rgb(68, 68, 68); stroke-opacity: 1; fill: rgb(255, 151, 255); fill-opacity: 0.6; stroke-width: 0; opacity: 1;"/><path class="sankey-link" d="M390,525.5434782608698C570,525.5434782608698 570,304.7826086956517 750,304.7826086956517L750,355.65217391304293C570,355.65217391304293 570,576.4130434782611 390,576.4130434782611Z" style="stroke: rgb(68, 68, 68); stroke-opacity: 1; fill: rgb(255, 151, 255); fill-opacity: 0.6; stroke-width: 0; opacity: 1;"/><path class="sankey-link" d="M390,647.0652173913046C570,647.0652173913046 570,691.7391304347825 750,691.7391304347825L750,717.1739130434783C570,717.1739130434783 570,672.5000000000003 390,672.5000000000003Z" style="stroke: rgb(68, 68, 68); stroke-opacity: 1; fill: rgb(255, 151, 255); fill-opacity: 0.6; stroke-width: 0; opacity: 1;"/><path class="sankey-link" d="M390,430.5434782608698C570,430.5434782608698 570,466.7391304347822 750,466.7391304347822L750,482.28260869565185C570,482.28260869565185 570,446.0869565217394 390,446.0869565217394Z" style="stroke: rgb(68, 68, 68); stroke-opacity: 1; fill: rgb(255, 102, 146); fill-opacity: 0.6; stroke-width: 0; opacity: 1;"/><path class="sankey-link" d="M390,446.08695652173935C570,446.08695652173935 570,601.8478260869562 750,601.8478260869562L750,608.9130434782604C570,608.9130434782604 570,453.1521739130437 390,453.1521739130437Z" style="stroke: rgb(68, 68, 68); stroke-opacity: 1; fill: rgb(255, 102, 146); fill-opacity: 0.6; stroke-width: 0; opacity: 1;"/><path class="sankey-link" d="M390,410.7608695652176C570,410.7608695652176 570,272.2826086956517 750,272.2826086956517L750,292.0652173913038C570,292.0652173913038 570,430.54347826086973 390,430.54347826086973Z" style="stroke: rgb(68, 68, 68); stroke-opacity: 1; fill: rgb(255, 102, 146); fill-opacity: 0.6; stroke-width: 0; opacity: 1;"/><path class="sankey-link" d="M390,453.1521739130437C570,453.1521739130437 570,684.6739130434781 750,684.6739130434781L750,688.9130434782606C570,688.9130434782606 570,457.39130434782635 390,457.39130434782635Z" style="stroke: rgb(68, 68, 68); stroke-opacity: 1; fill: rgb(255, 102, 146); fill-opacity: 0.6; stroke-width: 0; opacity: 1;"/><path class="sankey-link" d="M390,487.9347826086959C570,487.9347826086959 570,482.2826086956518 750,482.2826086956518L750,492.1739130434779C570,492.1739130434779 570,497.82608695652203 390,497.82608695652203Z" style="stroke: rgb(68, 68, 68); stroke-opacity: 1; fill: rgb(0, 204, 150); fill-opacity: 0.6; stroke-width: 0; opacity: 1;"/><path class="sankey-link" d="M390,497.826086956522C570,497.826086956522 570,608.9130434782605 750,608.9130434782605L750,614.565217391304C570,614.565217391304 570,503.4782608695655 390,503.4782608695655Z" style="stroke: rgb(68, 68, 68); stroke-opacity: 1; fill: rgb(0, 204, 150); fill-opacity: 0.6; stroke-width: 0; opacity: 1;"/><path class="sankey-link" d="M390,475.2173913043481C570,475.2173913043481 570,292.06521739130386 750,292.06521739130386L750,304.78260869565173C570,304.78260869565173 570,487.93478260869597 390,487.93478260869597Z" style="stroke: rgb(68, 68, 68); stroke-opacity: 1; fill: rgb(0, 204, 150); fill-opacity: 0.6; stroke-width: 0; opacity: 1;"/><path class="sankey-link" d="M390,503.4782608695655C570,503.4782608695655 570,688.9130434782608 750,688.9130434782608L750,691.7391304347825C570,691.7391304347825 570,506.3043478260872 390,506.3043478260872Z" style="stroke: rgb(68, 68, 68); stroke-opacity: 1; fill: rgb(0, 204, 150); fill-opacity: 0.6; stroke-width: 0; opacity: 1;"/><path class="sankey-link" d="M390,5.65217391304409C570,5.65217391304409 570,379.1304347826083 750,379.1304347826083L750,381.95652173913004C570,381.95652173913004 570,8.478260869565828 390,8.478260869565828Z" style="stroke: rgb(68, 68, 68); stroke-opacity: 1; fill: rgb(171, 99, 250); fill-opacity: 0.6; stroke-width: 0; opacity: 1;"/><path class="sankey-link" d="M390,6.110667527536862e-13C570,6.110667527536862e-13 570,142.28260869565167 750,142.28260869565167L750,147.93478260869517C570,147.93478260869517 570,5.65217391304409 390,5.65217391304409Z" style="stroke: rgb(68, 68, 68); stroke-opacity: 1; fill: rgb(171, 99, 250); fill-opacity: 0.6; stroke-width: 0; opacity: 1;"/><path class="sankey-link" d="M765,379.1304347826083C945,379.1304347826083 945,334.1304347826092 1125,334.1304347826092L1125,344.0217391304353C945,344.0217391304353 945,389.0217391304344 765,389.0217391304344Z" style="stroke: rgb(68, 68, 68); stroke-opacity: 1; fill: rgb(99, 110, 250); fill-opacity: 0.6; stroke-width: 0; opacity: 1;"/><path class="sankey-link" d="M765,468.1521739130431C945,468.1521739130431 945,438.15217391304395 1125,438.15217391304395L1125,439.5652173913048C945,439.5652173913048 945,469.565217391304 765,469.565217391304Z" style="stroke: rgb(68, 68, 68); stroke-opacity: 1; fill: rgb(99, 110, 250); fill-opacity: 0.6; stroke-width: 0; opacity: 1;"/><path class="sankey-link" d="M765,263.8043478260864C945,263.8043478260864 945,218.8043478260878 1125,218.8043478260878L1125,223.04347826087042C945,223.04347826087042 945,268.04347826086905 765,268.04347826086905Z" style="stroke: rgb(68, 68, 68); stroke-opacity: 1; fill: rgb(99, 110, 250); fill-opacity: 0.6; stroke-width: 0; opacity: 1;"/><path class="sankey-link" d="M765,142.28260869565167C945,142.28260869565167 945,82.28260869565284 1125,82.28260869565284L1125,96.41304347826153C945,96.41304347826153 945,156.41304347826036 765,156.41304347826036Z" style="stroke: rgb(68, 68, 68); stroke-opacity: 1; fill: rgb(99, 110, 250); fill-opacity: 0.6; stroke-width: 0; opacity: 1;"/><path class="sankey-link" d="M765,389.02173913043436C945,389.02173913043436 945,344.02173913043526 1125,344.02173913043526L1125,356.73913043478314C945,356.73913043478314 945,401.7391304347822 765,401.7391304347822Z" style="stroke: rgb(68, 68, 68); stroke-opacity: 1; fill: rgb(25, 211, 243); fill-opacity: 0.6; stroke-width: 0; opacity: 1;"/><path class="sankey-link" d="M765,469.565217391304C945,469.565217391304 945,439.5652173913048 1125,439.5652173913048L1125,450.8695652173918C945,450.8695652173918 945,480.86956521739097 765,480.86956521739097Z" style="stroke: rgb(68, 68, 68); stroke-opacity: 1; fill: rgb(25, 211, 243); fill-opacity: 0.6; stroke-width: 0; opacity: 1;"/><path class="sankey-link" d="M765,553.8043478260865C945,553.8043478260865 945,523.804347826087 1125,523.804347826087L1125,530.8695652173913C945,530.8695652173913 945,560.8695652173908 765,560.8695652173908Z" style="stroke: rgb(68, 68, 68); stroke-opacity: 1; fill: rgb(25, 211, 243); fill-opacity: 0.6; stroke-width: 0; opacity: 1;"/><path class="sankey-link" d="M765,607.4999999999997C945,607.4999999999997 945,592.5 1125,592.5L1125,598.1521739130435C945,598.1521739130435 945,613.1521739130432 765,613.1521739130432Z" style="stroke: rgb(68, 68, 68); stroke-opacity: 1; fill: rgb(25, 211, 243); fill-opacity: 0.6; stroke-width: 0; opacity: 1;"/><path class="sankey-link" d="M765,268.04347826086905C945,268.04347826086905 945,223.04347826087042 1125,223.04347826087042L1125,231.52173913043566C945,231.52173913043566 945,276.5217391304343 765,276.5217391304343Z" style="stroke: rgb(68, 68, 68); stroke-opacity: 1; fill: rgb(25, 211, 243); fill-opacity: 0.6; stroke-width: 0; opacity: 1;"/><path class="sankey-link" d="M765,156.41304347826036C945,156.41304347826036 945,96.41304347826153 1125,96.41304347826153L1125,109.13043478260934C945,109.13043478260934 945,169.13043478260818 765,169.13043478260818Z" style="stroke: rgb(68, 68, 68); stroke-opacity: 1; fill: rgb(25, 211, 243); fill-opacity: 0.6; stroke-width: 0; opacity: 1;"/><path class="sankey-link" d="M765,707.282608695652C945,707.282608695652 945,707.2826086956522 1125,707.2826086956522L1125,708.695652173913C945,708.695652173913 945,708.6956521739128 765,708.6956521739128Z" style="stroke: rgb(68, 68, 68); stroke-opacity: 1; fill: rgb(25, 211, 243); fill-opacity: 0.6; stroke-width: 0; opacity: 1;"/><path class="sankey-link" d="M765,669.1304347826085C945,669.1304347826085 945,654.1304347826087 1125,654.1304347826087L1125,658.3695652173913C945,658.3695652173913 945,673.369565217391 765,673.369565217391Z" style="stroke: rgb(68, 68, 68); stroke-opacity: 1; fill: rgb(25, 211, 243); fill-opacity: 0.6; stroke-width: 0; opacity: 1;"/><path class="sankey-link" d="M765,401.73913043478217C945,401.73913043478217 945,356.7391304347831 1125,356.7391304347831L1125,365.2173913043483C945,365.2173913043483 945,410.2173913043474 765,410.2173913043474Z" style="stroke: rgb(68, 68, 68); stroke-opacity: 1; fill: rgb(239, 85, 59); fill-opacity: 0.6; stroke-width: 0; opacity: 1;"/><path class="sankey-link" d="M765,480.8695652173909C945,480.8695652173909 945,450.86956521739177 1125,450.86956521739177L1125,459.347826086957C945,459.347826086957 945,489.34782608695616 765,489.34782608695616Z" style="stroke: rgb(68, 68, 68); stroke-opacity: 1; fill: rgb(239, 85, 59); fill-opacity: 0.6; stroke-width: 0; opacity: 1;"/><path class="sankey-link" d="M765,560.8695652173909C945,560.8695652173909 945,530.8695652173914 1125,530.8695652173914L1125,536.5217391304349C945,536.5217391304349 945,566.5217391304344 765,566.5217391304344Z" style="stroke: rgb(68, 68, 68); stroke-opacity: 1; fill: rgb(239, 85, 59); fill-opacity: 0.6; stroke-width: 0; opacity: 1;"/><path class="sankey-link" d="M765,613.1521739130432C945,613.1521739130432 945,598.1521739130435 1125,598.1521739130435L1125,599.5652173913043C945,599.5652173913043 945,614.5652173913039 765,614.5652173913039Z" style="stroke: rgb(68, 68, 68); stroke-opacity: 1; fill: rgb(239, 85, 59); fill-opacity: 0.6; stroke-width: 0; opacity: 1;"/><path class="sankey-link" d="M765,276.5217391304343C945,276.5217391304343 945,231.52173913043563 1125,231.52173913043563L1125,244.23913043478345C945,244.23913043478345 945,289.23913043478217 765,289.23913043478217Z" style="stroke: rgb(68, 68, 68); stroke-opacity: 1; fill: rgb(239, 85, 59); fill-opacity: 0.6; stroke-width: 0; opacity: 1;"/><path class="sankey-link" d="M765,169.13043478260818C945,169.13043478260818 945,109.13043478260936 1125,109.13043478260936L1125,124.67391304347892C945,124.67391304347892 945,184.67391304347774 765,184.67391304347774Z" style="stroke: rgb(68, 68, 68); stroke-opacity: 1; fill: rgb(239, 85, 59); fill-opacity: 0.6; stroke-width: 0; opacity: 1;"/><path class="sankey-link" d="M765,673.3695652173911C945,673.3695652173911 945,658.3695652173914 1125,658.3695652173914L1125,662.6086956521739C945,662.6086956521739 945,677.6086956521737 765,677.6086956521737Z" style="stroke: rgb(68, 68, 68); stroke-opacity: 1; fill: rgb(239, 85, 59); fill-opacity: 0.6; stroke-width: 0; opacity: 1;"/><path class="sankey-link" d="M765,410.2173913043474C945,410.2173913043474 945,365.2173913043483 1125,365.2173913043483L1125,369.45652173913095C945,369.45652173913095 945,414.45652173913004 765,414.45652173913004Z" style="stroke: rgb(68, 68, 68); stroke-opacity: 1; fill: rgb(254, 203, 82); fill-opacity: 0.6; stroke-width: 0; opacity: 1;"/><path class="sankey-link" d="M765,489.34782608695616C945,489.34782608695616 945,459.34782608695696 1125,459.34782608695696L1125,460.76086956521783C945,460.76086956521783 945,490.76086956521704 765,490.76086956521704Z" style="stroke: rgb(68, 68, 68); stroke-opacity: 1; fill: rgb(254, 203, 82); fill-opacity: 0.6; stroke-width: 0; opacity: 1;"/><path class="sankey-link" d="M765,566.5217391304344C945,566.5217391304344 945,536.5217391304349 1125,536.5217391304349L1125,540.7608695652174C945,540.7608695652174 945,570.7608695652169 765,570.7608695652169Z" style="stroke: rgb(68, 68, 68); stroke-opacity: 1; fill: rgb(254, 203, 82); fill-opacity: 0.6; stroke-width: 0; opacity: 1;"/><path class="sankey-link" d="M765,614.565217391304C945,614.565217391304 945,599.5652173913044 1125,599.5652173913044L1125,605.2173913043479C945,605.2173913043479 945,620.2173913043475 765,620.2173913043475Z" style="stroke: rgb(68, 68, 68); stroke-opacity: 1; fill: rgb(254, 203, 82); fill-opacity: 0.6; stroke-width: 0; opacity: 1;"/><path class="sankey-link" d="M765,289.2391304347821C945,289.2391304347821 945,244.23913043478345 1125,244.23913043478345L1125,248.47826086956607C945,248.47826086956607 945,293.47826086956474 765,293.47826086956474Z" style="stroke: rgb(68, 68, 68); stroke-opacity: 1; fill: rgb(254, 203, 82); fill-opacity: 0.6; stroke-width: 0; opacity: 1;"/><path class="sankey-link" d="M765,184.67391304347774C945,184.67391304347774 945,124.6739130434789 1125,124.6739130434789L1125,128.91304347826153C945,128.91304347826153 945,188.91304347826036 765,188.91304347826036Z" style="stroke: rgb(68, 68, 68); stroke-opacity: 1; fill: rgb(254, 203, 82); fill-opacity: 0.6; stroke-width: 0; opacity: 1;"/><path class="sankey-link" d="M765,708.6956521739129C945,708.6956521739129 945,708.6956521739131 1125,708.6956521739131L1125,710.1086956521739C945,710.1086956521739 945,710.1086956521737 765,710.1086956521737Z" style="stroke: rgb(68, 68, 68); stroke-opacity: 1; fill: rgb(254, 203, 82); fill-opacity: 0.6; stroke-width: 0; opacity: 1;"/><path class="sankey-link" d="M765,677.6086956521738C945,677.6086956521738 945,662.608695652174 1125,662.608695652174L1125,664.0217391304348C945,664.0217391304348 945,679.0217391304345 765,679.0217391304345Z" style="stroke: rgb(68, 68, 68); stroke-opacity: 1; fill: rgb(254, 203, 82); fill-opacity: 0.6; stroke-width: 0; opacity: 1;"/><path class="sankey-link" d="M765,414.45652173913004C945,414.45652173913004 945,369.45652173913095 1125,369.45652173913095L1125,376.5217391304353C945,376.5217391304353 945,421.5217391304344 765,421.5217391304344Z" style="stroke: rgb(68, 68, 68); stroke-opacity: 1; fill: rgb(182, 232, 128); fill-opacity: 0.6; stroke-width: 0; opacity: 1;"/><path class="sankey-link" d="M765,620.2173913043475C945,620.2173913043475 945,605.2173913043479 1125,605.2173913043479L1125,609.4565217391304C945,609.4565217391304 945,624.45652173913 765,624.45652173913Z" style="stroke: rgb(68, 68, 68); stroke-opacity: 1; fill: rgb(182, 232, 128); fill-opacity: 0.6; stroke-width: 0; opacity: 1;"/><path class="sankey-link" d="M765,293.47826086956474C945,293.47826086956474 945,248.47826086956604 1125,248.47826086956604L1125,256.9565217391313C945,256.9565217391313 945,301.95652173913 765,301.95652173913Z" style="stroke: rgb(68, 68, 68); stroke-opacity: 1; fill: rgb(182, 232, 128); fill-opacity: 0.6; stroke-width: 0; opacity: 1;"/><path class="sankey-link" d="M765,188.91304347826036C945,188.91304347826036 945,128.91304347826153 1125,128.91304347826153L1125,135.9782608695659C945,135.9782608695659 945,195.97826086956474 765,195.97826086956474Z" style="stroke: rgb(68, 68, 68); stroke-opacity: 1; fill: rgb(182, 232, 128); fill-opacity: 0.6; stroke-width: 0; opacity: 1;"/><path class="sankey-link" d="M765,421.5217391304344C945,421.5217391304344 945,376.5217391304353 1125,376.5217391304353L1125,389.2391304347832C945,389.2391304347832 945,434.2391304347823 765,434.2391304347823Z" style="stroke: rgb(68, 68, 68); stroke-opacity: 1; fill: rgb(255, 161, 90); fill-opacity: 0.6; stroke-width: 0; opacity: 1;"/><path class="sankey-link" d="M765,490.76086956521704C945,490.76086956521704 945,460.76086956521783 1125,460.76086956521783L1125,473.4782608695657C945,473.4782608695657 945,503.4782608695649 765,503.4782608695649Z" style="stroke: rgb(68, 68, 68); stroke-opacity: 1; fill: rgb(255, 161, 90); fill-opacity: 0.6; stroke-width: 0; opacity: 1;"/><path class="sankey-link" d="M765,570.760869565217C945,570.760869565217 945,540.7608695652175 1125,540.7608695652175L1125,553.4782608695652C945,553.4782608695652 945,583.4782608695648 765,583.4782608695648Z" style="stroke: rgb(68, 68, 68); stroke-opacity: 1; fill: rgb(255, 161, 90); fill-opacity: 0.6; stroke-width: 0; opacity: 1;"/><path class="sankey-link" d="M765,624.4565217391302C945,624.4565217391302 945,609.4565217391305 1125,609.4565217391305L1125,620.7608695652175C945,620.7608695652175 945,635.7608695652171 765,635.7608695652171Z" style="stroke: rgb(68, 68, 68); stroke-opacity: 1; fill: rgb(255, 161, 90); fill-opacity: 0.6; stroke-width: 0; opacity: 1;"/><path class="sankey-link" d="M765,301.9565217391299C945,301.9565217391299 945,256.9565217391313 1125,256.9565217391313L1125,280.97826086956604C945,280.97826086956604 945,325.9782608695647 765,325.9782608695647Z" style="stroke: rgb(68, 68, 68); stroke-opacity: 1; fill: rgb(255, 161, 90); fill-opacity: 0.6; stroke-width: 0; opacity: 1;"/><path class="sankey-link" d="M765,195.9782608695647C945,195.9782608695647 945,135.97826086956587 1125,135.97826086956587L1125,152.9347826086963C945,152.9347826086963 945,212.93478260869514 765,212.93478260869514Z" style="stroke: rgb(68, 68, 68); stroke-opacity: 1; fill: rgb(255, 161, 90); fill-opacity: 0.6; stroke-width: 0; opacity: 1;"/><path class="sankey-link" d="M765,679.0217391304346C945,679.0217391304346 945,664.0217391304349 1125,664.0217391304349L1125,669.6739130434784C945,669.6739130434784 945,684.6739130434781 765,684.6739130434781Z" style="stroke: rgb(68, 68, 68); stroke-opacity: 1; fill: rgb(255, 161, 90); fill-opacity: 0.6; stroke-width: 0; opacity: 1;"/><path class="sankey-link" d="M765,434.2391304347822C945,434.2391304347822 945,389.23913043478314 1125,389.23913043478314L1125,404.78260869565275C945,404.78260869565275 945,449.78260869565185 765,449.78260869565185Z" style="stroke: rgb(68, 68, 68); stroke-opacity: 1; fill: rgb(255, 151, 255); fill-opacity: 0.6; stroke-width: 0; opacity: 1;"/><path class="sankey-link" d="M765,503.47826086956485C945,503.47826086956485 945,473.47826086956564 1125,473.47826086956564L1125,498.9130434782613C945,498.9130434782613 945,528.9130434782605 765,528.9130434782605Z" style="stroke: rgb(68, 68, 68); stroke-opacity: 1; fill: rgb(255, 151, 255); fill-opacity: 0.6; stroke-width: 0; opacity: 1;"/><path class="sankey-link" d="M765,583.4782608695649C945,583.4782608695649 945,553.4782608695654 1125,553.4782608695654L1125,573.2608695652176C945,573.2608695652176 945,603.2608695652171 765,603.2608695652171Z" style="stroke: rgb(68, 68, 68); stroke-opacity: 1; fill: rgb(255, 151, 255); fill-opacity: 0.6; stroke-width: 0; opacity: 1;"/><path class="sankey-link" d="M765,635.7608695652171C945,635.7608695652171 945,620.7608695652175 1125,620.7608695652175L1125,630.6521739130435C945,630.6521739130435 945,645.6521739130432 765,645.6521739130432Z" style="stroke: rgb(68, 68, 68); stroke-opacity: 1; fill: rgb(255, 151, 255); fill-opacity: 0.6; stroke-width: 0; opacity: 1;"/><path class="sankey-link" d="M765,325.97826086956474C945,325.97826086956474 945,280.9782608695661 1125,280.9782608695661L1125,307.8260869565226C945,307.8260869565226 945,352.82608695652124 765,352.82608695652124Z" style="stroke: rgb(68, 68, 68); stroke-opacity: 1; fill: rgb(255, 151, 255); fill-opacity: 0.6; stroke-width: 0; opacity: 1;"/><path class="sankey-link" d="M765,212.93478260869514C945,212.93478260869514 945,152.9347826086963 1125,152.9347826086963L1125,176.95652173913112C945,176.95652173913112 945,236.95652173912995 765,236.95652173912995Z" style="stroke: rgb(68, 68, 68); stroke-opacity: 1; fill: rgb(255, 151, 255); fill-opacity: 0.6; stroke-width: 0; opacity: 1;"/><path class="sankey-link" d="M765,710.1086956521738C945,710.1086956521738 945,710.108695652174 1125,710.108695652174L1125,717.1739130434783C945,717.1739130434783 945,717.173913043478 765,717.173913043478Z" style="stroke: rgb(68, 68, 68); stroke-opacity: 1; fill: rgb(255, 151, 255); fill-opacity: 0.6; stroke-width: 0; opacity: 1;"/><path class="sankey-link" d="M765,684.6739130434781C945,684.6739130434781 945,669.6739130434784 1125,669.6739130434784L1125,688.0434782608696C945,688.0434782608696 945,703.0434782608694 765,703.0434782608694Z" style="stroke: rgb(68, 68, 68); stroke-opacity: 1; fill: rgb(255, 151, 255); fill-opacity: 0.6; stroke-width: 0; opacity: 1;"/><path class="sankey-link" d="M765,449.7826086956518C945,449.7826086956518 945,404.7826086956527 1125,404.7826086956527L1125,411.84782608695707C945,411.84782608695707 945,456.84782608695616 765,456.84782608695616Z" style="stroke: rgb(68, 68, 68); stroke-opacity: 1; fill: rgb(255, 102, 146); fill-opacity: 0.6; stroke-width: 0; opacity: 1;"/><path class="sankey-link" d="M765,528.9130434782605C945,528.9130434782605 945,498.9130434782613 1125,498.9130434782613L1125,507.3913043478265C945,507.3913043478265 945,537.3913043478258 765,537.3913043478258Z" style="stroke: rgb(68, 68, 68); stroke-opacity: 1; fill: rgb(255, 102, 146); fill-opacity: 0.6; stroke-width: 0; opacity: 1;"/><path class="sankey-link" d="M765,603.260869565217C945,603.260869565217 945,573.2608695652175 1125,573.2608695652175L1125,576.0869565217392C945,576.0869565217392 945,606.0869565217388 765,606.0869565217388Z" style="stroke: rgb(68, 68, 68); stroke-opacity: 1; fill: rgb(255, 102, 146); fill-opacity: 0.6; stroke-width: 0; opacity: 1;"/><path class="sankey-link" d="M765,645.6521739130433C945,645.6521739130433 945,630.6521739130436 1125,630.6521739130436L1125,634.8913043478261C945,634.8913043478261 945,649.8913043478258 765,649.8913043478258Z" style="stroke: rgb(68, 68, 68); stroke-opacity: 1; fill: rgb(255, 102, 146); fill-opacity: 0.6; stroke-width: 0; opacity: 1;"/><path class="sankey-link" d="M765,352.82608695652124C945,352.82608695652124 945,307.8260869565226 1125,307.8260869565226L1125,313.4782608695661C945,313.4782608695661 945,358.47826086956474 765,358.47826086956474Z" style="stroke: rgb(68, 68, 68); stroke-opacity: 1; fill: rgb(255, 102, 146); fill-opacity: 0.6; stroke-width: 0; opacity: 1;"/><path class="sankey-link" d="M765,236.95652173912993C945,236.95652173912993 945,176.9565217391311 1125,176.9565217391311L1125,191.08695652173978C945,191.08695652173978 945,251.0869565217386 765,251.0869565217386Z" style="stroke: rgb(68, 68, 68); stroke-opacity: 1; fill: rgb(255, 102, 146); fill-opacity: 0.6; stroke-width: 0; opacity: 1;"/><path class="sankey-link" d="M765,717.1739130434781C945,717.1739130434781 945,717.1739130434784 1125,717.1739130434784L1125,718.5869565217391C945,718.5869565217391 945,718.5869565217389 765,718.5869565217389Z" style="stroke: rgb(68, 68, 68); stroke-opacity: 1; fill: rgb(255, 102, 146); fill-opacity: 0.6; stroke-width: 0; opacity: 1;"/><path class="sankey-link" d="M765,703.0434782608694C945,703.0434782608694 945,688.0434782608696 1125,688.0434782608696L1125,690.8695652173914C945,690.8695652173914 945,705.8695652173911 765,705.8695652173911Z" style="stroke: rgb(68, 68, 68); stroke-opacity: 1; fill: rgb(255, 102, 146); fill-opacity: 0.6; stroke-width: 0; opacity: 1;"/><path class="sankey-link" d="M765,456.84782608695616C945,456.84782608695616 945,411.84782608695707 1125,411.84782608695707L1125,421.7391304347832C945,421.7391304347832 945,466.7391304347823 765,466.7391304347823Z" style="stroke: rgb(68, 68, 68); stroke-opacity: 1; fill: rgb(0, 204, 150); fill-opacity: 0.6; stroke-width: 0; opacity: 1;"/><path class="sankey-link" d="M765,606.0869565217388C945,606.0869565217388 945,576.0869565217392 1125,576.0869565217392L1125,577.5C945,577.5 945,607.4999999999995 765,607.4999999999995Z" style="stroke: rgb(68, 68, 68); stroke-opacity: 1; fill: rgb(0, 204, 150); fill-opacity: 0.6; stroke-width: 0; opacity: 1;"/><path class="sankey-link" d="M765,649.8913043478259C945,649.8913043478259 945,634.8913043478262 1125,634.8913043478262L1125,639.1304347826087C945,639.1304347826087 945,654.1304347826084 765,654.1304347826084Z" style="stroke: rgb(68, 68, 68); stroke-opacity: 1; fill: rgb(0, 204, 150); fill-opacity: 0.6; stroke-width: 0; opacity: 1;"/><path class="sankey-link" d="M765,358.47826086956474C945,358.47826086956474 945,313.4782608695661 1125,313.4782608695661L1125,316.30434782608785C945,316.30434782608785 945,361.3043478260865 765,361.3043478260865Z" style="stroke: rgb(68, 68, 68); stroke-opacity: 1; fill: rgb(0, 204, 150); fill-opacity: 0.6; stroke-width: 0; opacity: 1;"/><path class="sankey-link" d="M765,251.08695652173864C945,251.08695652173864 945,191.08695652173978 1125,191.08695652173978L1125,200.97826086956584C945,200.97826086956584 945,260.97826086956474 765,260.97826086956474Z" style="stroke: rgb(68, 68, 68); stroke-opacity: 1; fill: rgb(0, 204, 150); fill-opacity: 0.6; stroke-width: 0; opacity: 1;"/><path class="sankey-link" d="M765,718.586956521739C945,718.586956521739 945,718.5869565217392 1125,718.5869565217392L1125,720C945,720 945,719.9999999999998 765,719.9999999999998Z" style="stroke: rgb(68, 68, 68); stroke-opacity: 1; fill: rgb(0, 204, 150); fill-opacity: 0.6; stroke-width: 0; opacity: 1;"/><path class="sankey-link" d="M765,705.8695652173911C945,705.8695652173911 945,690.8695652173914 1125,690.8695652173914L1125,692.2826086956521C945,692.2826086956521 945,707.2826086956519 765,707.2826086956519Z" style="stroke: rgb(68, 68, 68); stroke-opacity: 1; fill: rgb(0, 204, 150); fill-opacity: 0.6; stroke-width: 0; opacity: 1;"/><path class="sankey-link" d="M765,466.7391304347822C945,466.7391304347822 945,421.73913043478314 1125,421.73913043478314L1125,423.152173913044C945,423.152173913044 945,468.1521739130431 765,468.1521739130431Z" style="stroke: rgb(68, 68, 68); stroke-opacity: 1; fill: rgb(171, 99, 250); fill-opacity: 0.6; stroke-width: 0; opacity: 1;"/><path class="sankey-link" d="M765,537.3913043478258C945,537.3913043478258 945,507.39130434782646 1125,507.39130434782646L1125,508.80434782608734C945,508.80434782608734 945,538.8043478260865 765,538.8043478260865Z" style="stroke: rgb(68, 68, 68); stroke-opacity: 1; fill: rgb(171, 99, 250); fill-opacity: 0.6; stroke-width: 0; opacity: 1;"/><path class="sankey-link" d="M765,361.3043478260865C945,361.3043478260865 945,316.30434782608785 1125,316.30434782608785L1125,319.1304347826096C945,319.1304347826096 945,364.13043478260823 765,364.13043478260823Z" style="stroke: rgb(68, 68, 68); stroke-opacity: 1; fill: rgb(171, 99, 250); fill-opacity: 0.6; stroke-width: 0; opacity: 1;"/><path class="sankey-link" d="M765,260.9782608695647C945,260.9782608695647 945,200.97826086956587 1125,200.97826086956587L1125,203.80434782608762C945,203.80434782608762 945,263.8043478260864 765,263.8043478260864Z" style="stroke: rgb(68, 68, 68); stroke-opacity: 1; fill: rgb(171, 99, 250); fill-opacity: 0.6; stroke-width: 0; opacity: 1;"/></g><g class="sankey-node-set" style="cursor: move;"><g class="sankey-node" transform="translate(0.000,97.065)" style="opacity: 1;"><rect class="node-rect" width="15" height="210.54347826086928" style="stroke-width: 0.5; stroke: rgb(0, 0, 0); stroke-opacity: 1; fill: rgb(128, 128, 128); fill-opacity: 1;"/><text class="node-label" data-notex="1" x="0" y="0" text-anchor="start" transform="translate(18.25,109.47173913043464)" style="cursor: default; font-family: 'Open Sans', verdana, arial, sans-serif; font-size: 12px; fill: rgb(42, 63, 95); fill-opacity: 1; white-space: pre; text-shadow: white 1px 1px 1px, white -1px -1px 1px, white 1px -1px 1px, white -1px 1px 1px;">21272R</text></g><g class="sankey-node" transform="translate(0.000,322.609)" style="opacity: 1;"><rect class="node-rect" width="15" height="94.67391304347836" style="stroke-width: 0.5; stroke: rgb(0, 0, 0); stroke-opacity: 1; fill: rgb(128, 128, 128); fill-opacity: 1;"/><text class="node-label" data-notex="1" x="0" y="0" text-anchor="start" transform="translate(18.25,51.536956521739185)" style="cursor: default; font-family: 'Open Sans', verdana, arial, sans-serif; font-size: 12px; fill: rgb(42, 63, 95); fill-opacity: 1; white-space: pre; text-shadow: white 1px 1px 1px, white -1px -1px 1px, white 1px -1px 1px, white -1px 1px 1px;">21965RL</text></g><g class="sankey-node" transform="translate(0.000,432.283)" style="opacity: 1;"><rect class="node-rect" width="15" height="135.65217391304338" style="stroke-width: 0.5; stroke: rgb(0, 0, 0); stroke-opacity: 1; fill: rgb(128, 128, 128); fill-opacity: 1;"/><text class="node-label" data-notex="1" x="0" y="0" text-anchor="start" transform="translate(18.25,72.0260869565217)" style="cursor: default; font-family: 'Open Sans', verdana, arial, sans-serif; font-size: 12px; fill: rgb(42, 63, 95); fill-opacity: 1; white-space: pre; text-shadow: white 1px 1px 1px, white -1px -1px 1px, white 1px -1px 1px, white -1px 1px 1px;">22384</text></g><g class="sankey-node" transform="translate(0.000,582.935)" style="opacity: 1;"><rect class="node-rect" width="15" height="137.06521739130426" style="stroke-width: 0.5; stroke: rgb(0, 0, 0); stroke-opacity: 1; fill: rgb(128, 128, 128); fill-opacity: 1;"/><text class="node-label" data-notex="1" x="0" y="0" text-anchor="start" transform="translate(18.25,72.73260869565213)" style="cursor: default; font-family: 'Open Sans', verdana, arial, sans-serif; font-size: 12px; fill: rgb(42, 63, 95); fill-opacity: 1; white-space: pre; text-shadow: white 1px 1px 1px, white -1px -1px 1px, white 1px -1px 1px, white -1px 1px 1px;">22670</text></g><g class="sankey-node" transform="translate(750.000,379.130)" style="opacity: 1;"><rect class="node-rect" width="15" height="159.67391304347825" style="stroke-width: 0.5; stroke: rgb(0, 0, 0); stroke-opacity: 1; fill: rgb(128, 128, 128); fill-opacity: 1;"/><text class="node-label" data-notex="1" x="0" y="0" text-anchor="start" transform="translate(18.25,84.03695652173913)" style="cursor: default; font-family: 'Open Sans', verdana, arial, sans-serif; font-size: 12px; fill: rgb(42, 63, 95); fill-opacity: 1; white-space: pre; text-shadow: white 1px 1px 1px, white -1px -1px 1px, white 1px -1px 1px, white -1px 1px 1px;">dig</text></g><g class="sankey-node" transform="translate(750.000,142.283)" style="opacity: 1;"><rect class="node-rect" width="15" height="221.84782608695662" style="stroke-width: 0.5; stroke: rgb(0, 0, 0); stroke-opacity: 1; fill: rgb(128, 128, 128); fill-opacity: 1;"/><text class="node-label" data-notex="1" x="0" y="0" text-anchor="start" transform="translate(18.25,115.12391304347831)" style="cursor: default; font-family: 'Open Sans', verdana, arial, sans-serif; font-size: 12px; fill: rgb(42, 63, 95); fill-opacity: 1; white-space: pre; text-shadow: white 1px 1px 1px, white -1px -1px 1px, white 1px -1px 1px, white -1px 1px 1px;">move</text></g><g class="sankey-node" transform="translate(750.000,553.804)" style="opacity: 1;"><rect class="node-rect" width="15" height="100.32608695652198" style="stroke-width: 0.5; stroke: rgb(0, 0, 0); stroke-opacity: 1; fill: rgb(128, 128, 128); fill-opacity: 1;"/><text class="node-label" data-notex="1" x="0" y="0" text-anchor="start" transform="translate(18.25,54.36304347826099)" style="cursor: default; font-family: 'Open Sans', verdana, arial, sans-serif; font-size: 12px; fill: rgb(42, 63, 95); fill-opacity: 1; white-space: pre; text-shadow: white 1px 1px 1px, white -1px -1px 1px, white 1px -1px 1px, white -1px 1px 1px;">groom</text></g><g class="sankey-node" transform="translate(750.000,669.130)" style="opacity: 1;"><rect class="node-rect" width="15" height="50.86956521739148" style="stroke-width: 0.5; stroke: rgb(0, 0, 0); stroke-opacity: 1; fill: rgb(128, 128, 128); fill-opacity: 1;"/><text class="node-label" data-notex="1" x="0" y="0" text-anchor="start" transform="translate(18.25,29.63478260869574)" style="cursor: default; font-family: 'Open Sans', verdana, arial, sans-serif; font-size: 12px; fill: rgb(42, 63, 95); fill-opacity: 1; white-space: pre; text-shadow: white 1px 1px 1px, white -1px -1px 1px, white 1px -1px 1px, white -1px 1px 1px;">still</text></g><g class="sankey-node" transform="translate(1125.000,334.130)" style="opacity: 1;"><rect class="node-rect" width="15" height="89.02173913043475" style="stroke-width: 0.5; stroke: rgb(0, 0, 0); stroke-opacity: 1; fill: rgb(128, 128, 128); fill-opacity: 1;"/><text class="node-label" data-notex="1" x="0" y="0" text-anchor="end" transform="translate(-3.25,48.71086956521738)" style="cursor: default; font-family: 'Open Sans', verdana, arial, sans-serif; font-size: 12px; fill: rgb(42, 63, 95); fill-opacity: 1; white-space: pre; text-shadow: white 1px 1px 1px, white -1px -1px 1px, white 1px -1px 1px, white -1px 1px 1px;">dig-activated</text></g><g class="sankey-node" transform="translate(1125.000,82.283)" style="opacity: 1;"><rect class="node-rect" width="15" height="121.52173913043492" style="stroke-width: 0.5; stroke: rgb(0, 0, 0); stroke-opacity: 1; fill: rgb(128, 128, 128); fill-opacity: 1;"/><text class="node-label" data-notex="1" x="0" y="0" text-anchor="end" transform="translate(-3.25,64.96086956521746)" style="cursor: default; font-family: 'Open Sans', verdana, arial, sans-serif; font-size: 12px; fill: rgb(42, 63, 95); fill-opacity: 1; white-space: pre; text-shadow: white 1px 1px 1px, white -1px -1px 1px, white 1px -1px 1px, white -1px 1px 1px;">move-suppressed</text></g><g class="sankey-node" transform="translate(1125.000,218.804)" style="opacity: 1;"><rect class="node-rect" width="15" height="100.32608695652141" style="stroke-width: 0.5; stroke: rgb(0, 0, 0); stroke-opacity: 1; fill: rgb(128, 128, 128); fill-opacity: 1;"/><text class="node-label" data-notex="1" x="0" y="0" text-anchor="end" transform="translate(-3.25,54.36304347826071)" style="cursor: default; font-family: 'Open Sans', verdana, arial, sans-serif; font-size: 12px; fill: rgb(42, 63, 95); fill-opacity: 1; white-space: pre; text-shadow: white 1px 1px 1px, white -1px -1px 1px, white 1px -1px 1px, white -1px 1px 1px;">move-activated</text></g><g class="sankey-node" transform="translate(1125.000,438.152)" style="opacity: 1;"><rect class="node-rect" width="15" height="70.65217391304304" style="stroke-width: 0.5; stroke: rgb(0, 0, 0); stroke-opacity: 1; fill: rgb(128, 128, 128); fill-opacity: 1;"/><text class="node-label" data-notex="1" x="0" y="0" text-anchor="end" transform="translate(-3.25,39.526086956521524)" style="cursor: default; font-family: 'Open Sans', verdana, arial, sans-serif; font-size: 12px; fill: rgb(42, 63, 95); fill-opacity: 1; white-space: pre; text-shadow: white 1px 1px 1px, white -1px -1px 1px, white 1px -1px 1px, white -1px 1px 1px;">dig-suppressed</text></g><g class="sankey-node" transform="translate(1125.000,592.500)" style="opacity: 1;"><rect class="node-rect" width="15" height="46.630434782608745" style="stroke-width: 0.5; stroke: rgb(0, 0, 0); stroke-opacity: 1; fill: rgb(128, 128, 128); fill-opacity: 1;"/><text class="node-label" data-notex="1" x="0" y="0" text-anchor="end" transform="translate(-3.25,27.515217391304372)" style="cursor: default; font-family: 'Open Sans', verdana, arial, sans-serif; font-size: 12px; fill: rgb(42, 63, 95); fill-opacity: 1; white-space: pre; text-shadow: white 1px 1px 1px, white -1px -1px 1px, white 1px -1px 1px, white -1px 1px 1px;">groom-suppressed</text></g><g class="sankey-node" transform="translate(1125.000,523.804)" style="opacity: 1;"><rect class="node-rect" width="15" height="53.695652173913004" style="stroke-width: 0.5; stroke: rgb(0, 0, 0); stroke-opacity: 1; fill: rgb(128, 128, 128); fill-opacity: 1;"/><text class="node-label" data-notex="1" x="0" y="0" text-anchor="end" transform="translate(-3.25,31.0478260869565)" style="cursor: default; font-family: 'Open Sans', verdana, arial, sans-serif; font-size: 12px; fill: rgb(42, 63, 95); fill-opacity: 1; white-space: pre; text-shadow: white 1px 1px 1px, white -1px -1px 1px, white 1px -1px 1px, white -1px 1px 1px;">groom-activated</text></g><g class="sankey-node" transform="translate(1125.000,707.283)" style="opacity: 1;"><rect class="node-rect" width="15" height="12.717391304347757" style="stroke-width: 0.5; stroke: rgb(0, 0, 0); stroke-opacity: 1; fill: rgb(128, 128, 128); fill-opacity: 1;"/><text class="node-label" data-notex="1" x="0" y="0" text-anchor="end" transform="translate(-3.25,10.558695652173878)" style="cursor: default; font-family: 'Open Sans', verdana, arial, sans-serif; font-size: 12px; fill: rgb(42, 63, 95); fill-opacity: 1; white-space: pre; text-shadow: white 1px 1px 1px, white -1px -1px 1px, white 1px -1px 1px, white -1px 1px 1px;">still-activated</text></g><g class="sankey-node" transform="translate(1125.000,654.130)" style="opacity: 1;"><rect class="node-rect" width="15" height="38.1521739130435" style="stroke-width: 0.5; stroke: rgb(0, 0, 0); stroke-opacity: 1; fill: rgb(128, 128, 128); fill-opacity: 1;"/><text class="node-label" data-notex="1" x="0" y="0" text-anchor="end" transform="translate(-3.25,23.27608695652175)" style="cursor: default; font-family: 'Open Sans', verdana, arial, sans-serif; font-size: 12px; fill: rgb(42, 63, 95); fill-opacity: 1; white-space: pre; text-shadow: white 1px 1px 1px, white -1px -1px 1px, white 1px -1px 1px, white -1px 1px 1px;">still-suppressed</text></g><g class="sankey-node" transform="translate(375.000,23.478)" style="opacity: 1;"><rect class="node-rect" width="15" height="36.73913043478237" style="stroke-width: 0.5; stroke: rgb(0, 0, 0); stroke-opacity: 1; fill: rgb(99, 110, 250); fill-opacity: 1;"/><text class="node-label" data-notex="1" x="0" y="0" text-anchor="start" transform="translate(18.25,22.569565217391183)" style="cursor: default; font-family: 'Open Sans', verdana, arial, sans-serif; font-size: 12px; fill: rgb(42, 63, 95); fill-opacity: 1; white-space: pre; text-shadow: white 1px 1px 1px, white -1px -1px 1px, white 1px -1px 1px, white -1px 1px 1px;">BLA</text></g><g class="sankey-node" transform="translate(375.000,122.717)" style="opacity: 1;"><rect class="node-rect" width="15" height="56.52173913043467" style="stroke-width: 0.5; stroke: rgb(0, 0, 0); stroke-opacity: 1; fill: rgb(239, 85, 59); fill-opacity: 1;"/><text class="node-label" data-notex="1" x="0" y="0" text-anchor="start" transform="translate(18.25,32.46086956521734)" style="cursor: default; font-family: 'Open Sans', verdana, arial, sans-serif; font-size: 12px; fill: rgb(42, 63, 95); fill-opacity: 1; white-space: pre; text-shadow: white 1px 1px 1px, white -1px -1px 1px, white 1px -1px 1px, white -1px 1px 1px;">LC</text></g><g class="sankey-node" transform="translate(375.000,475.217)" style="opacity: 1;"><rect class="node-rect" width="15" height="35.32608695652175" style="stroke-width: 0.5; stroke: rgb(0, 0, 0); stroke-opacity: 1; fill: rgb(0, 204, 150); fill-opacity: 1;"/><text class="node-label" data-notex="1" x="0" y="0" text-anchor="start" transform="translate(18.25,21.863043478260874)" style="cursor: default; font-family: 'Open Sans', verdana, arial, sans-serif; font-size: 12px; fill: rgb(42, 63, 95); fill-opacity: 1; white-space: pre; text-shadow: white 1px 1px 1px, white -1px -1px 1px, white 1px -1px 1px, white -1px 1px 1px;">dPAG</text></g><g class="sankey-node" transform="translate(375.000,0.000)" style="opacity: 1;"><rect class="node-rect" width="15" height="8.478260869565204" style="stroke-width: 0.5; stroke: rgb(0, 0, 0); stroke-opacity: 1; fill: rgb(171, 99, 250); fill-opacity: 1;"/><text class="node-label" data-notex="1" x="0" y="0" text-anchor="start" transform="translate(18.25,8.439130434782601)" style="cursor: default; font-family: 'Open Sans', verdana, arial, sans-serif; font-size: 12px; fill: rgb(42, 63, 95); fill-opacity: 1; white-space: pre; text-shadow: white 1px 1px 1px, white -1px -1px 1px, white 1px -1px 1px, white -1px 1px 1px;">lHb</text></g><g class="sankey-node" transform="translate(375.000,299.674)" style="opacity: 1;"><rect class="node-rect" width="15" height="96.08695652173918" style="stroke-width: 0.5; stroke: rgb(0, 0, 0); stroke-opacity: 1; fill: rgb(255, 161, 90); fill-opacity: 1;"/><text class="node-label" data-notex="1" x="0" y="0" text-anchor="start" transform="translate(18.25,52.243478260869594)" style="cursor: default; font-family: 'Open Sans', verdana, arial, sans-serif; font-size: 12px; fill: rgb(42, 63, 95); fill-opacity: 1; white-space: pre; text-shadow: white 1px 1px 1px, white -1px -1px 1px, white 1px -1px 1px, white -1px 1px 1px;">Str</text></g><g class="sankey-node" transform="translate(375.000,194.239)" style="opacity: 1;"><rect class="node-rect" width="15" height="90.43478260869563" style="stroke-width: 0.5; stroke: rgb(0, 0, 0); stroke-opacity: 1; fill: rgb(25, 211, 243); fill-opacity: 1;"/><text class="node-label" data-notex="1" x="0" y="0" text-anchor="start" transform="translate(18.25,49.41739130434782)" style="cursor: default; font-family: 'Open Sans', verdana, arial, sans-serif; font-size: 12px; fill: rgb(42, 63, 95); fill-opacity: 1; white-space: pre; text-shadow: white 1px 1px 1px, white -1px -1px 1px, white 1px -1px 1px, white -1px 1px 1px;">Cla</text></g><g class="sankey-node" transform="translate(375.000,410.761)" style="opacity: 1;"><rect class="node-rect" width="15" height="49.456521739130494" style="stroke-width: 0.5; stroke: rgb(0, 0, 0); stroke-opacity: 1; fill: rgb(255, 102, 146); fill-opacity: 1;"/><text class="node-label" data-notex="1" x="0" y="0" text-anchor="start" transform="translate(18.25,28.928260869565246)" style="cursor: default; font-family: 'Open Sans', verdana, arial, sans-serif; font-size: 12px; fill: rgb(42, 63, 95); fill-opacity: 1; white-space: pre; text-shadow: white 1px 1px 1px, white -1px -1px 1px, white 1px -1px 1px, white -1px 1px 1px;">cPFC</text></g><g class="sankey-node" transform="translate(375.000,75.217)" style="opacity: 1;"><rect class="node-rect" width="15" height="32.49999999999994" style="stroke-width: 0.5; stroke: rgb(0, 0, 0); stroke-opacity: 1; fill: rgb(182, 232, 128); fill-opacity: 1;"/><text class="node-label" data-notex="1" x="0" y="0" text-anchor="start" transform="translate(18.25,20.44999999999997)" style="cursor: default; font-family: 'Open Sans', verdana, arial, sans-serif; font-size: 12px; fill: rgb(42, 63, 95); fill-opacity: 1; white-space: pre; text-shadow: white 1px 1px 1px, white -1px -1px 1px, white 1px -1px 1px, white -1px 1px 1px;">NAc</text></g><g class="sankey-node" transform="translate(375.000,525.543)" style="opacity: 1;"><rect class="node-rect" width="15" height="146.95652173913015" style="stroke-width: 0.5; stroke: rgb(0, 0, 0); stroke-opacity: 1; fill: rgb(255, 151, 255); fill-opacity: 1;"/><text class="node-label" data-notex="1" x="0" y="0" text-anchor="start" transform="translate(18.25,77.67826086956508)" style="cursor: default; font-family: 'Open Sans', verdana, arial, sans-serif; font-size: 12px; fill: rgb(42, 63, 95); fill-opacity: 1; white-space: pre; text-shadow: white 1px 1px 1px, white -1px -1px 1px, white 1px -1px 1px, white -1px 1px 1px;">VTA</text></g><g class="sankey-node" transform="translate(375.000,687.500)" style="opacity: 1;"><rect class="node-rect" width="15" height="32.5" style="stroke-width: 0.5; stroke: rgb(0, 0, 0); stroke-opacity: 1; fill: rgb(254, 203, 82); fill-opacity: 1;"/><text class="node-label" data-notex="1" x="0" y="0" text-anchor="start" transform="translate(18.25,20.45)" style="cursor: default; font-family: 'Open Sans', verdana, arial, sans-serif; font-size: 12px; fill: rgb(42, 63, 95); fill-opacity: 1; white-space: pre; text-shadow: white 1px 1px 1px, white -1px -1px 1px, white 1px -1px 1px, white -1px 1px 1px;">LHyp</text></g></g></g><defs id="topdefs-029498"><g class="clips"/></defs><g class="layer-above"><g class="imagelayer"/><g class="shapelayer"/></g><g class="infolayer"><g class="g-gtitle"/><g class="first-render"/></g></svg>