<svg class="main-svg" xmlns="http://www.w3.org/2000/svg" xmlns:xlink="http://www.w3.org/1999/xlink" width="1300" height="900" style="" viewBox="0 0 1300 900"><rect x="0" y="0" width="1300" height="900" style="fill: rgb(255, 255, 255); fill-opacity: 1;"/><defs id="defs-7b7f67"><g class="clips"/><g class="gradients"/><g class="patterns"/></defs><g class="bglayer"/><g class="layer-below"><g class="imagelayer"/><g class="shapelayer"/></g><g class="cartesianlayer"/><g class="polarlayer"/><g class="smithlayer"/><g class="ternarylayer"/><g class="geolayer"/><g class="funnelarealayer"/><g class="pielayer"/><g class="iciclelayer"/><g class="treemaplayer"/><g class="sunburstlayer"/><g class="glimages"/><g class="sankey" transform="translate(80,100)matrix(1 0 0 1 0 0)" style="box-sizing: content-box; position: absolute; left: 0px; shape-rendering: geometricprecision; pointer-events: none;"><g class="sankey-links" style="fill: none;"><path class="sankey-link" d="M7.50114,27.162490698416068C188.10057000000003,27.162490698416068 188.10057000000003,13.665217391304282 368.70000000000005,13.665217391304282L368.70000000000005,40.513043478260805C188.10057000000003,40.513043478260805 188.10057000000003,54.010316785372595 7.50114,54.010316785372595Z" style="stroke: rgb(68, 68, 68); stroke-opacity: 1; fill: rgb(99, 110, 250); fill-opacity: 0.6; stroke-width: 0; opacity: 1;"/><path class="sankey-link" d="M7.50114,54.010316785372595C188.10057000000003,54.010316785372595 188.10057000000003,62.260869565217476 368.70000000000005,62.260869565217476L368.70000000000005,94.76086956521748C188.10057000000003,94.76086956521748 188.10057000000003,86.5103167853726 7.50114,86.5103167853726Z" style="stroke: rgb(68, 68, 68); stroke-opacity: 1; fill: rgb(25, 211, 243); fill-opacity: 0.6; stroke-width: 0; opacity: 1;"/><path class="sankey-link" d="M7.50114,86.5103167853726C188.10057000000003,86.5103167853726 188.10057000000003,164.1565217391304 368.70000000000005,164.1565217391304L368.70000000000005,203.72173913043477C188.10057000000003,203.72173913043477 188.10057000000003,126.07553417667694 7.50114,126.07553417667694Z" style="stroke: rgb(68, 68, 68); stroke-opacity: 1; fill: rgb(239, 85, 59); fill-opacity: 0.6; stroke-width: 0; opacity: 1;"/><path class="sankey-link" d="M7.50114,126.07553417667694C188.10057000000003,126.07553417667694 188.10057000000003,278.89782608695657 368.70000000000005,278.89782608695657L368.70000000000005,297.2673913043478C188.10057000000003,297.2673913043478 188.10057000000003,144.44509939406825 7.50114,144.44509939406825Z" style="stroke: rgb(68, 68, 68); stroke-opacity: 1; fill: rgb(182, 232, 128); fill-opacity: 0.6; stroke-width: 0; opacity: 1;"/><path class="sankey-link" d="M7.50114,144.44509939406822C188.10057000000003,144.44509939406822 188.10057000000003,323.2260869565216 368.70000000000005,323.2260869565216L368.70000000000005,364.20434782608686C188.10057000000003,364.20434782608686 188.10057000000003,185.42336026363347 7.50114,185.42336026363347Z" style="stroke: rgb(68, 68, 68); stroke-opacity: 1; fill: rgb(255, 161, 90); fill-opacity: 0.6; stroke-width: 0; opacity: 1;"/><path class="sankey-link" d="M7.50114,185.42336026363347C188.10057000000003,185.42336026363347 188.10057000000003,428.85217391304354 368.70000000000005,428.85217391304354L368.70000000000005,437.3304347826088C188.10057000000003,437.3304347826088 188.10057000000003,193.90162113319872 7.50114,193.90162113319872Z" style="stroke: rgb(68, 68, 68); stroke-opacity: 1; fill: rgb(255, 151, 255); fill-opacity: 0.6; stroke-width: 0; opacity: 1;"/><path class="sankey-link" d="M7.50114,193.9016211331987C188.10057000000003,193.9016211331987 188.10057000000003,586.2804347826086 368.70000000000005,586.2804347826086L368.70000000000005,608.8891304347826C188.10057000000003,608.8891304347826 188.10057000000003,216.51031678537262 7.50114,216.51031678537262Z" style="stroke: rgb(68, 68, 68); stroke-opacity: 1; fill: rgb(255, 102, 146); fill-opacity: 0.6; stroke-width: 0; opacity: 1;"/><path class="sankey-link" d="M7.50114,216.5103167853726C188.10057000000003,216.5103167853726 188.10057000000003,648.4413043478261 368.70000000000005,648.4413043478261L368.70000000000005,662.5717391304348C188.10057000000003,662.5717391304348 188.10057000000003,230.64075156798128 7.50114,230.64075156798128Z" style="stroke: rgb(68, 68, 68); stroke-opacity: 1; fill: rgb(0, 204, 150); fill-opacity: 0.6; stroke-width: 0; opacity: 1;"/><path class="sankey-link" d="M7.50114,230.64075156798128C188.10057000000003,230.64075156798128 188.10057000000003,697.2913043478261 368.70000000000005,697.2913043478261L368.70000000000005,704.3565217391304C188.10057000000003,704.3565217391304 188.10057000000003,237.70596895928566 7.50114,237.70596895928566Z" style="stroke: rgb(68, 68, 68); stroke-opacity: 1; fill: rgb(171, 99, 250); fill-opacity: 0.6; stroke-width: 0; opacity: 1;"/><path class="sankey-link" d="M7.50114,270.60729775698945C188.10057000000003,270.60729775698945 188.10057000000003,40.513043478260805 368.70000000000005,40.513043478260805L368.70000000000005,50.4043478260869C188.10057000000003,50.4043478260869 188.10057000000003,280.4986021048156 7.50114,280.4986021048156Z" style="stroke: rgb(68, 68, 68); stroke-opacity: 1; fill: rgb(99, 110, 250); fill-opacity: 0.6; stroke-width: 0; opacity: 1;"/><path class="sankey-link" d="M7.50114,280.4986021048155C188.10057000000003,280.4986021048155 188.10057000000003,94.76086956521748 368.70000000000005,94.76086956521748L368.70000000000005,130.0869565217392C188.10057000000003,130.0869565217392 188.10057000000003,315.82468906133727 7.50114,315.82468906133727Z" style="stroke: rgb(68, 68, 68); stroke-opacity: 1; fill: rgb(25, 211, 243); fill-opacity: 0.6; stroke-width: 0; opacity: 1;"/><path class="sankey-link" d="M7.50114,315.82468906133727C188.10057000000003,315.82468906133727 188.10057000000003,203.72173913043474 368.70000000000005,203.72173913043474L368.70000000000005,205.13478260869562C188.10057000000003,205.13478260869562 188.10057000000003,317.23773253959814 7.50114,317.23773253959814Z" style="stroke: rgb(68, 68, 68); stroke-opacity: 1; fill: rgb(239, 85, 59); fill-opacity: 0.6; stroke-width: 0; opacity: 1;"/><path class="sankey-link" d="M7.50114,317.23773253959814C188.10057000000003,317.23773253959814 188.10057000000003,297.2673913043479 368.70000000000005,297.2673913043479L368.70000000000005,311.3978260869566C188.10057000000003,311.3978260869566 188.10057000000003,331.3681673222069 7.50114,331.3681673222069Z" style="stroke: rgb(68, 68, 68); stroke-opacity: 1; fill: rgb(182, 232, 128); fill-opacity: 0.6; stroke-width: 0; opacity: 1;"/><path class="sankey-link" d="M7.50114,331.36816732220683C188.10057000000003,331.36816732220683 188.10057000000003,364.20434782608686 368.70000000000005,364.20434782608686L368.70000000000005,374.095652173913C188.10057000000003,374.095652173913 188.10057000000003,341.25947167003295 7.50114,341.25947167003295Z" style="stroke: rgb(68, 68, 68); stroke-opacity: 1; fill: rgb(255, 161, 90); fill-opacity: 0.6; stroke-width: 0; opacity: 1;"/><path class="sankey-link" d="M7.50114,341.2594716700329C188.10057000000003,341.2594716700329 188.10057000000003,437.3304347826088 368.70000000000005,437.3304347826088L368.70000000000005,441.5695652173914C188.10057000000003,441.5695652173914 188.10057000000003,345.4986021048155 7.50114,345.4986021048155Z" style="stroke: rgb(68, 68, 68); stroke-opacity: 1; fill: rgb(255, 151, 255); fill-opacity: 0.6; stroke-width: 0; opacity: 1;"/><path class="sankey-link" d="M7.50114,345.4986021048155C188.10057000000003,345.4986021048155 188.10057000000003,608.8891304347825 368.70000000000005,608.8891304347825L368.70000000000005,615.9543478260867C188.10057000000003,615.9543478260867 188.10057000000003,352.5638194961199 7.50114,352.5638194961199Z" style="stroke: rgb(68, 68, 68); stroke-opacity: 1; fill: rgb(255, 102, 146); fill-opacity: 0.6; stroke-width: 0; opacity: 1;"/><path class="sankey-link" d="M7.50114,352.5638194961199C188.10057000000003,352.5638194961199 188.10057000000003,662.5717391304348 368.70000000000005,662.5717391304348L368.70000000000005,675.2891304347826C188.10057000000003,675.2891304347826 188.10057000000003,365.28121080046776 7.50114,365.28121080046776Z" style="stroke: rgb(68, 68, 68); stroke-opacity: 1; fill: rgb(0, 204, 150); fill-opacity: 0.6; stroke-width: 0; opacity: 1;"/><path class="sankey-link" d="M7.50114,393.64286169873503C188.10057000000003,393.64286169873503 188.10057000000003,130.0869565217392 368.70000000000005,130.0869565217392L368.70000000000005,141.39130434782615C188.10057000000003,141.39130434782615 188.10057000000003,404.94720952482203 7.50114,404.94720952482203Z" style="stroke: rgb(68, 68, 68); stroke-opacity: 1; fill: rgb(25, 211, 243); fill-opacity: 0.6; stroke-width: 0; opacity: 1;"/><path class="sankey-link" d="M7.50114,404.947209524822C188.10057000000003,404.947209524822 188.10057000000003,205.13478260869562 368.70000000000005,205.13478260869562L368.70000000000005,212.2C188.10057000000003,212.2 188.10057000000003,412.01242691612634 7.50114,412.01242691612634Z" style="stroke: rgb(68, 68, 68); stroke-opacity: 1; fill: rgb(239, 85, 59); fill-opacity: 0.6; stroke-width: 0; opacity: 1;"/><path class="sankey-link" d="M7.50114,412.01242691612634C188.10057000000003,412.01242691612634 188.10057000000003,233.29782608695643 368.70000000000005,233.29782608695643L368.70000000000005,248.841304347826C188.10057000000003,248.841304347826 188.10057000000003,427.55590517699596 7.50114,427.55590517699596Z" style="stroke: rgb(68, 68, 68); stroke-opacity: 1; fill: rgb(254, 203, 82); fill-opacity: 0.6; stroke-width: 0; opacity: 1;"/><path class="sankey-link" d="M7.50114,427.5559051769959C188.10057000000003,427.5559051769959 188.10057000000003,374.0956521739129 368.70000000000005,374.0956521739129L368.70000000000005,396.7043478260868C188.10057000000003,396.7043478260868 188.10057000000003,450.1646008291698 7.50114,450.1646008291698Z" style="stroke: rgb(68, 68, 68); stroke-opacity: 1; fill: rgb(255, 161, 90); fill-opacity: 0.6; stroke-width: 0; opacity: 1;"/><path class="sankey-link" d="M7.50114,450.16460082916984C188.10057000000003,450.16460082916984 188.10057000000003,441.5695652173914 368.70000000000005,441.5695652173914L368.70000000000005,506.5695652173914C188.10057000000003,506.5695652173914 188.10057000000003,515.1646008291698 7.50114,515.1646008291698Z" style="stroke: rgb(68, 68, 68); stroke-opacity: 1; fill: rgb(255, 151, 255); fill-opacity: 0.6; stroke-width: 0; opacity: 1;"/><path class="sankey-link" d="M7.50114,515.1646008291698C188.10057000000003,515.1646008291698 188.10057000000003,615.9543478260869 368.70000000000005,615.9543478260869L368.70000000000005,625.8456521739129C188.10057000000003,625.8456521739129 188.10057000000003,525.0559051769958 7.50114,525.0559051769958Z" style="stroke: rgb(68, 68, 68); stroke-opacity: 1; fill: rgb(255, 102, 146); fill-opacity: 0.6; stroke-width: 0; opacity: 1;"/><path class="sankey-link" d="M7.50114,525.0559051769959C188.10057000000003,525.0559051769959 188.10057000000003,675.2891304347827 368.70000000000005,675.2891304347827L368.70000000000005,679.5282608695652C188.10057000000003,679.5282608695652 188.10057000000003,529.2950356117784 7.50114,529.2950356117784Z" style="stroke: rgb(68, 68, 68); stroke-opacity: 1; fill: rgb(0, 204, 150); fill-opacity: 0.6; stroke-width: 0; opacity: 1;"/><path class="sankey-link" d="M7.50114,560.2263155097266C188.10057000000003,560.2263155097266 188.10057000000003,141.39130434782618 368.70000000000005,141.39130434782618L368.70000000000005,152.69565217391312C188.10057000000003,152.69565217391312 188.10057000000003,571.5306633358136 7.50114,571.5306633358136Z" style="stroke: rgb(68, 68, 68); stroke-opacity: 1; fill: rgb(25, 211, 243); fill-opacity: 0.6; stroke-width: 0; opacity: 1;"/><path class="sankey-link" d="M7.50114,571.5306633358136C188.10057000000003,571.5306633358136 188.10057000000003,212.19999999999996 368.70000000000005,212.19999999999996L368.70000000000005,219.26521739130433C188.10057000000003,219.26521739130433 188.10057000000003,578.5958807271179 7.50114,578.5958807271179Z" style="stroke: rgb(68, 68, 68); stroke-opacity: 1; fill: rgb(239, 85, 59); fill-opacity: 0.6; stroke-width: 0; opacity: 1;"/><path class="sankey-link" d="M7.50114,578.595880727118C188.10057000000003,578.595880727118 188.10057000000003,248.84130434782597 368.70000000000005,248.84130434782597L368.70000000000005,265.79782608695643C188.10057000000003,265.79782608695643 188.10057000000003,595.5524024662485 7.50114,595.5524024662485Z" style="stroke: rgb(68, 68, 68); stroke-opacity: 1; fill: rgb(254, 203, 82); fill-opacity: 0.6; stroke-width: 0; opacity: 1;"/><path class="sankey-link" d="M7.50114,595.5524024662484C188.10057000000003,595.5524024662484 188.10057000000003,396.70434782608686 368.70000000000005,396.70434782608686L368.70000000000005,419.31304347826074C188.10057000000003,419.31304347826074 188.10057000000003,618.1610981184224 7.50114,618.1610981184224Z" style="stroke: rgb(68, 68, 68); stroke-opacity: 1; fill: rgb(255, 161, 90); fill-opacity: 0.6; stroke-width: 0; opacity: 1;"/><path class="sankey-link" d="M7.50114,618.1610981184223C188.10057000000003,618.1610981184223 188.10057000000003,506.5695652173914 368.70000000000005,506.5695652173914L368.70000000000005,571.5695652173914C188.10057000000003,571.5695652173914 188.10057000000003,683.1610981184223 7.50114,683.1610981184223Z" style="stroke: rgb(68, 68, 68); stroke-opacity: 1; fill: rgb(255, 151, 255); fill-opacity: 0.6; stroke-width: 0; opacity: 1;"/><path class="sankey-link" d="M7.50114,683.1610981184223C188.10057000000003,683.1610981184223 188.10057000000003,625.845652173913 368.70000000000005,625.845652173913L368.70000000000005,635.736956521739C188.10057000000003,635.736956521739 188.10057000000003,693.0524024662483 7.50114,693.0524024662483Z" style="stroke: rgb(68, 68, 68); stroke-opacity: 1; fill: rgb(255, 102, 146); fill-opacity: 0.6; stroke-width: 0; opacity: 1;"/><path class="sankey-link" d="M7.50114,693.0524024662484C188.10057000000003,693.0524024662484 188.10057000000003,679.5282608695653 368.70000000000005,679.5282608695653L368.70000000000005,683.7673913043478C188.10057000000003,683.7673913043478 188.10057000000003,697.2915329010309 7.50114,697.2915329010309Z" style="stroke: rgb(68, 68, 68); stroke-opacity: 1; fill: rgb(0, 204, 150); fill-opacity: 0.6; stroke-width: 0; opacity: 1;"/><path class="sankey-link" d="M383.70000000000005,13.66521739130428C564.3000000000001,13.66521739130428 564.3000000000001,31.677101833698487 744.9000000000001,31.677101833698487L744.9000000000001,42.98144965978544C564.3000000000001,42.98144965978544 564.3000000000001,24.969565217391235 383.70000000000005,24.969565217391235Z" style="stroke: rgb(68, 68, 68); stroke-opacity: 1; fill: rgb(99, 110, 250); fill-opacity: 0.6; stroke-width: 0; opacity: 1;"/><path class="sankey-link" d="M383.70000000000005,24.96956521739124C564.3000000000001,24.96956521739124 564.3000000000001,383.4697209087764 744.9000000000001,383.4697209087764L744.9000000000001,401.8392861261677C564.3000000000001,401.8392861261677 564.3000000000001,43.33913043478255 383.70000000000005,43.33913043478255Z" style="stroke: rgb(68, 68, 68); stroke-opacity: 1; fill: rgb(99, 110, 250); fill-opacity: 0.6; stroke-width: 0; opacity: 1;"/><path class="sankey-link" d="M383.70000000000005,62.260869565217476C564.3000000000001,62.260869565217476 564.3000000000001,42.98144965978544 744.9000000000001,42.98144965978544L744.9000000000001,67.00318879022022C564.3000000000001,67.00318879022022 564.3000000000001,86.28260869565226 383.70000000000005,86.28260869565226Z" style="stroke: rgb(68, 68, 68); stroke-opacity: 1; fill: rgb(25, 211, 243); fill-opacity: 0.6; stroke-width: 0; opacity: 1;"/><path class="sankey-link" d="M383.70000000000005,86.28260869565226C564.3000000000001,86.28260869565226 564.3000000000001,233.88364087187182 744.9000000000001,233.88364087187182L744.9000000000001,246.60103217621963C564.3000000000001,246.60103217621963 564.3000000000001,99.00000000000007 383.70000000000005,99.00000000000007Z" style="stroke: rgb(68, 68, 68); stroke-opacity: 1; fill: rgb(25, 211, 243); fill-opacity: 0.6; stroke-width: 0; opacity: 1;"/><path class="sankey-link" d="M383.70000000000005,99.00000000000009C564.3000000000001,99.00000000000009 564.3000000000001,401.83928612616774 744.9000000000001,401.83928612616774L744.9000000000001,423.03493830008074C564.3000000000001,423.03493830008074 564.3000000000001,120.19565217391312 383.70000000000005,120.19565217391312Z" style="stroke: rgb(68, 68, 68); stroke-opacity: 1; fill: rgb(25, 211, 243); fill-opacity: 0.6; stroke-width: 0; opacity: 1;"/><path class="sankey-link" d="M383.70000000000005,120.19565217391313C564.3000000000001,120.19565217391313 564.3000000000001,649.226225348864 744.9000000000001,649.226225348864L744.9000000000001,654.8783992619075C564.3000000000001,654.8783992619075 564.3000000000001,125.8478260869566 383.70000000000005,125.8478260869566Z" style="stroke: rgb(68, 68, 68); stroke-opacity: 1; fill: rgb(25, 211, 243); fill-opacity: 0.6; stroke-width: 0; opacity: 1;"/><path class="sankey-link" d="M383.70000000000005,164.1565217391304C564.3000000000001,164.1565217391304 564.3000000000001,67.00318879022022 744.9000000000001,67.00318879022022L744.9000000000001,83.95971052935066C564.3000000000001,83.95971052935066 564.3000000000001,181.11304347826083 383.70000000000005,181.11304347826083Z" style="stroke: rgb(68, 68, 68); stroke-opacity: 1; fill: rgb(239, 85, 59); fill-opacity: 0.6; stroke-width: 0; opacity: 1;"/><path class="sankey-link" d="M383.70000000000005,181.11304347826083C564.3000000000001,181.11304347826083 564.3000000000001,246.60103217621963 744.9000000000001,246.60103217621963L744.9000000000001,253.666249567524C564.3000000000001,253.666249567524 564.3000000000001,188.1782608695652 383.70000000000005,188.1782608695652Z" style="stroke: rgb(68, 68, 68); stroke-opacity: 1; fill: rgb(239, 85, 59); fill-opacity: 0.6; stroke-width: 0; opacity: 1;"/><path class="sankey-link" d="M383.70000000000005,188.17826086956518C564.3000000000001,188.17826086956518 564.3000000000001,423.0349383000808 744.9000000000001,423.0349383000808L744.9000000000001,451.2958078652982C564.3000000000001,451.2958078652982 564.3000000000001,216.43913043478256 383.70000000000005,216.43913043478256Z" style="stroke: rgb(68, 68, 68); stroke-opacity: 1; fill: rgb(239, 85, 59); fill-opacity: 0.6; stroke-width: 0; opacity: 1;"/><path class="sankey-link" d="M383.70000000000005,216.43913043478256C564.3000000000001,216.43913043478256 564.3000000000001,654.8783992619075 744.9000000000001,654.8783992619075L744.9000000000001,659.11752969669C564.3000000000001,659.11752969669 564.3000000000001,220.67826086956518 383.70000000000005,220.67826086956518Z" style="stroke: rgb(68, 68, 68); stroke-opacity: 1; fill: rgb(239, 85, 59); fill-opacity: 0.6; stroke-width: 0; opacity: 1;"/><path class="sankey-link" d="M383.70000000000005,233.29782608695643C564.3000000000001,233.29782608695643 564.3000000000001,83.95971052935066 744.9000000000001,83.95971052935066L744.9000000000001,89.61188444239413C564.3000000000001,89.61188444239413 564.3000000000001,238.94999999999993 383.70000000000005,238.94999999999993Z" style="stroke: rgb(68, 68, 68); stroke-opacity: 1; fill: rgb(254, 203, 82); fill-opacity: 0.6; stroke-width: 0; opacity: 1;"/><path class="sankey-link" d="M383.70000000000005,238.9499999999999C564.3000000000001,238.9499999999999 564.3000000000001,253.66624956752398 744.9000000000001,253.66624956752398L744.9000000000001,263.55755391535007C564.3000000000001,263.55755391535007 564.3000000000001,248.84130434782597 383.70000000000005,248.84130434782597Z" style="stroke: rgb(68, 68, 68); stroke-opacity: 1; fill: rgb(254, 203, 82); fill-opacity: 0.6; stroke-width: 0; opacity: 1;"/><path class="sankey-link" d="M383.70000000000005,248.841304347826C564.3000000000001,248.841304347826 564.3000000000001,451.2958078652982 744.9000000000001,451.2958078652982L744.9000000000001,459.7740687348634C564.3000000000001,459.7740687348634 564.3000000000001,257.31956521739124 383.70000000000005,257.31956521739124Z" style="stroke: rgb(68, 68, 68); stroke-opacity: 1; fill: rgb(254, 203, 82); fill-opacity: 0.6; stroke-width: 0; opacity: 1;"/><path class="sankey-link" d="M383.70000000000005,257.3195652173912C564.3000000000001,257.3195652173912 564.3000000000001,659.1175296966901 744.9000000000001,659.1175296966901L744.9000000000001,661.9436166532118C564.3000000000001,661.9436166532118 564.3000000000001,260.14565217391294 383.70000000000005,260.14565217391294Z" style="stroke: rgb(68, 68, 68); stroke-opacity: 1; fill: rgb(254, 203, 82); fill-opacity: 0.6; stroke-width: 0; opacity: 1;"/><path class="sankey-link" d="M383.70000000000005,278.89782608695657C564.3000000000001,278.89782608695657 564.3000000000001,89.61188444239414 744.9000000000001,89.61188444239414L744.9000000000001,96.67710183369849C564.3000000000001,96.67710183369849 564.3000000000001,285.96304347826094 383.70000000000005,285.96304347826094Z" style="stroke: rgb(68, 68, 68); stroke-opacity: 1; fill: rgb(182, 232, 128); fill-opacity: 0.6; stroke-width: 0; opacity: 1;"/><path class="sankey-link" d="M383.70000000000005,285.96304347826094C564.3000000000001,285.96304347826094 564.3000000000001,263.55755391535007 744.9000000000001,263.55755391535007L744.9000000000001,267.7966843501327C564.3000000000001,267.7966843501327 564.3000000000001,290.20217391304357 383.70000000000005,290.20217391304357Z" style="stroke: rgb(68, 68, 68); stroke-opacity: 1; fill: rgb(182, 232, 128); fill-opacity: 0.6; stroke-width: 0; opacity: 1;"/><path class="sankey-link" d="M383.70000000000005,290.20217391304357C564.3000000000001,290.20217391304357 564.3000000000001,459.77406873486336 744.9000000000001,459.77406873486336L744.9000000000001,475.317546995733C564.3000000000001,475.317546995733 564.3000000000001,305.7456521739132 383.70000000000005,305.7456521739132Z" style="stroke: rgb(68, 68, 68); stroke-opacity: 1; fill: rgb(182, 232, 128); fill-opacity: 0.6; stroke-width: 0; opacity: 1;"/><path class="sankey-link" d="M383.70000000000005,323.2260869565216C564.3000000000001,323.2260869565216 564.3000000000001,96.67710183369849 744.9000000000001,96.67710183369849L744.9000000000001,122.11188444239414C564.3000000000001,122.11188444239414 564.3000000000001,348.66086956521724 383.70000000000005,348.66086956521724Z" style="stroke: rgb(68, 68, 68); stroke-opacity: 1; fill: rgb(255, 161, 90); fill-opacity: 0.6; stroke-width: 0; opacity: 1;"/><path class="sankey-link" d="M383.70000000000005,348.66086956521724C564.3000000000001,348.66086956521724 564.3000000000001,267.7966843501327 744.9000000000001,267.7966843501327L744.9000000000001,291.81842348056745C564.3000000000001,291.81842348056745 564.3000000000001,372.682608695652 383.70000000000005,372.682608695652Z" style="stroke: rgb(68, 68, 68); stroke-opacity: 1; fill: rgb(255, 161, 90); fill-opacity: 0.6; stroke-width: 0; opacity: 1;"/><path class="sankey-link" d="M383.70000000000005,372.68260869565205C564.3000000000001,372.68260869565205 564.3000000000001,475.3175469957329 744.9000000000001,475.3175469957329L744.9000000000001,516.2958078652981C564.3000000000001,516.2958078652981 564.3000000000001,413.6608695652173 383.70000000000005,413.6608695652173Z" style="stroke: rgb(68, 68, 68); stroke-opacity: 1; fill: rgb(255, 161, 90); fill-opacity: 0.6; stroke-width: 0; opacity: 1;"/><path class="sankey-link" d="M383.70000000000005,413.66086956521724C564.3000000000001,413.66086956521724 564.3000000000001,661.9436166532118 744.9000000000001,661.9436166532118L744.9000000000001,667.5957905662553C564.3000000000001,667.5957905662553 564.3000000000001,419.31304347826074 383.70000000000005,419.31304347826074Z" style="stroke: rgb(68, 68, 68); stroke-opacity: 1; fill: rgb(255, 161, 90); fill-opacity: 0.6; stroke-width: 0; opacity: 1;"/><path class="sankey-link" d="M383.70000000000005,428.85217391304354C564.3000000000001,428.85217391304354 564.3000000000001,122.11188444239413 744.9000000000001,122.11188444239413L744.9000000000001,163.09014531195936C564.3000000000001,163.09014531195936 564.3000000000001,469.8304347826088 383.70000000000005,469.8304347826088Z" style="stroke: rgb(68, 68, 68); stroke-opacity: 1; fill: rgb(255, 151, 255); fill-opacity: 0.6; stroke-width: 0; opacity: 1;"/><path class="sankey-link" d="M383.70000000000005,469.8304347826088C564.3000000000001,469.8304347826088 564.3000000000001,291.8184234805675 744.9000000000001,291.8184234805675L744.9000000000001,321.49233652404575C564.3000000000001,321.49233652404575 564.3000000000001,499.50434782608704 383.70000000000005,499.50434782608704Z" style="stroke: rgb(68, 68, 68); stroke-opacity: 1; fill: rgb(255, 151, 255); fill-opacity: 0.6; stroke-width: 0; opacity: 1;"/><path class="sankey-link" d="M383.70000000000005,499.50434782608704C564.3000000000001,499.50434782608704 564.3000000000001,516.2958078652981 744.9000000000001,516.2958078652981L744.9000000000001,567.1653730826894C564.3000000000001,567.1653730826894 564.3000000000001,550.3739130434783 383.70000000000005,550.3739130434783Z" style="stroke: rgb(68, 68, 68); stroke-opacity: 1; fill: rgb(255, 151, 255); fill-opacity: 0.6; stroke-width: 0; opacity: 1;"/><path class="sankey-link" d="M383.70000000000005,550.3739130434783C564.3000000000001,550.3739130434783 564.3000000000001,667.5957905662553 744.9000000000001,667.5957905662553L744.9000000000001,693.0305731749511C564.3000000000001,693.0305731749511 564.3000000000001,575.808695652174 383.70000000000005,575.808695652174Z" style="stroke: rgb(68, 68, 68); stroke-opacity: 1; fill: rgb(255, 151, 255); fill-opacity: 0.6; stroke-width: 0; opacity: 1;"/><path class="sankey-link" d="M383.70000000000005,586.2804347826086C564.3000000000001,586.2804347826086 564.3000000000001,163.09014531195936 744.9000000000001,163.09014531195936L744.9000000000001,178.63362357282892C564.3000000000001,178.63362357282892 564.3000000000001,601.8239130434781 383.70000000000005,601.8239130434781Z" style="stroke: rgb(68, 68, 68); stroke-opacity: 1; fill: rgb(255, 102, 146); fill-opacity: 0.6; stroke-width: 0; opacity: 1;"/><path class="sankey-link" d="M383.70000000000005,601.8239130434782C564.3000000000001,601.8239130434782 564.3000000000001,321.49233652404575 744.9000000000001,321.49233652404575L744.9000000000001,328.5575539153501C564.3000000000001,328.5575539153501 564.3000000000001,608.8891304347825 383.70000000000005,608.8891304347825Z" style="stroke: rgb(68, 68, 68); stroke-opacity: 1; fill: rgb(255, 102, 146); fill-opacity: 0.6; stroke-width: 0; opacity: 1;"/><path class="sankey-link" d="M383.70000000000005,608.8891304347826C564.3000000000001,608.8891304347826 564.3000000000001,567.1653730826894 744.9000000000001,567.1653730826894L744.9000000000001,586.9479817783416C564.3000000000001,586.9479817783416 564.3000000000001,628.6717391304348 383.70000000000005,628.6717391304348Z" style="stroke: rgb(68, 68, 68); stroke-opacity: 1; fill: rgb(255, 102, 146); fill-opacity: 0.6; stroke-width: 0; opacity: 1;"/><path class="sankey-link" d="M383.70000000000005,628.6717391304347C564.3000000000001,628.6717391304347 564.3000000000001,693.030573174951 744.9000000000001,693.030573174951L744.9000000000001,697.2697036097335C564.3000000000001,697.2697036097335 564.3000000000001,632.9108695652172 383.70000000000005,632.9108695652172Z" style="stroke: rgb(68, 68, 68); stroke-opacity: 1; fill: rgb(255, 102, 146); fill-opacity: 0.6; stroke-width: 0; opacity: 1;"/><path class="sankey-link" d="M383.70000000000005,648.4413043478261C564.3000000000001,648.4413043478261 564.3000000000001,178.63362357282892 744.9000000000001,178.63362357282892L744.9000000000001,188.524927920655C564.3000000000001,188.524927920655 564.3000000000001,658.3326086956521 383.70000000000005,658.3326086956521Z" style="stroke: rgb(68, 68, 68); stroke-opacity: 1; fill: rgb(0, 204, 150); fill-opacity: 0.6; stroke-width: 0; opacity: 1;"/><path class="sankey-link" d="M383.70000000000005,658.3326086956522C564.3000000000001,658.3326086956522 564.3000000000001,328.5575539153501 744.9000000000001,328.5575539153501L744.9000000000001,334.2097278283936C564.3000000000001,334.2097278283936 564.3000000000001,663.9847826086957 383.70000000000005,663.9847826086957Z" style="stroke: rgb(68, 68, 68); stroke-opacity: 1; fill: rgb(0, 204, 150); fill-opacity: 0.6; stroke-width: 0; opacity: 1;"/><path class="sankey-link" d="M383.70000000000005,663.9847826086957C564.3000000000001,663.9847826086957 564.3000000000001,586.9479817783415 744.9000000000001,586.9479817783415L744.9000000000001,599.6653730826893C564.3000000000001,599.6653730826893 564.3000000000001,676.7021739130435 383.70000000000005,676.7021739130435Z" style="stroke: rgb(68, 68, 68); stroke-opacity: 1; fill: rgb(0, 204, 150); fill-opacity: 0.6; stroke-width: 0; opacity: 1;"/><path class="sankey-link" d="M383.70000000000005,676.7021739130436C564.3000000000001,676.7021739130436 564.3000000000001,697.2697036097336 744.9000000000001,697.2697036097336L744.9000000000001,700.0957905662553C564.3000000000001,700.0957905662553 564.3000000000001,679.5282608695653 383.70000000000005,679.5282608695653Z" style="stroke: rgb(68, 68, 68); stroke-opacity: 1; fill: rgb(0, 204, 150); fill-opacity: 0.6; stroke-width: 0; opacity: 1;"/><path class="sankey-link" d="M383.70000000000005,697.2913043478261C564.3000000000001,697.2913043478261 564.3000000000001,188.52492792065502 744.9000000000001,188.52492792065502L744.9000000000001,191.35101487717677C564.3000000000001,191.35101487717677 564.3000000000001,700.1173913043478 383.70000000000005,700.1173913043478Z" style="stroke: rgb(68, 68, 68); stroke-opacity: 1; fill: rgb(171, 99, 250); fill-opacity: 0.6; stroke-width: 0; opacity: 1;"/><path class="sankey-link" d="M383.70000000000005,700.1173913043478C564.3000000000001,700.1173913043478 564.3000000000001,599.6653730826894 744.9000000000001,599.6653730826894L744.9000000000001,605.3175469957329C564.3000000000001,605.3175469957329 564.3000000000001,705.7695652173913 383.70000000000005,705.7695652173913Z" style="stroke: rgb(68, 68, 68); stroke-opacity: 1; fill: rgb(171, 99, 250); fill-opacity: 0.6; stroke-width: 0; opacity: 1;"/><path class="sankey-link" d="M759.9000000000001,31.67710183369849C946.19943,31.67710183369849 946.19943,19.219634413562453 1132.49886,19.219634413562453L1132.49886,29.11093876138854C946.19943,29.11093876138854 946.19943,41.56840618152458 759.9000000000001,41.56840618152458Z" style="stroke: rgb(68, 68, 68); stroke-opacity: 1; fill: rgb(99, 110, 250); fill-opacity: 0.6; stroke-width: 0; opacity: 1;"/><path class="sankey-link" d="M759.9000000000001,120.69884096413328C946.19943,120.69884096413328 946.19943,131.2861146349902 1132.49886,131.2861146349902L1132.49886,132.6991581132511C946.19943,132.6991581132511 946.19943,122.11188444239416 759.9000000000001,122.11188444239416Z" style="stroke: rgb(68, 68, 68); stroke-opacity: 1; fill: rgb(99, 110, 250); fill-opacity: 0.6; stroke-width: 0; opacity: 1;"/><path class="sankey-link" d="M759.9000000000001,383.4697209087764C946.19943,383.4697209087764 946.19943,365.5844366278401 1132.49886,365.5844366278401L1132.49886,369.8235670626227C946.19943,369.8235670626227 946.19943,387.70885134355905 759.9000000000001,387.70885134355905Z" style="stroke: rgb(68, 68, 68); stroke-opacity: 1; fill: rgb(99, 110, 250); fill-opacity: 0.6; stroke-width: 0; opacity: 1;"/><path class="sankey-link" d="M759.9000000000001,483.7958078652982C946.19943,483.7958078652982 946.19943,492.32135855149346 1132.49886,492.32135855149346L1132.49886,506.4517933341022C946.19943,506.4517933341022 946.19943,497.9262426479069 759.9000000000001,497.9262426479069Z" style="stroke: rgb(68, 68, 68); stroke-opacity: 1; fill: rgb(99, 110, 250); fill-opacity: 0.6; stroke-width: 0; opacity: 1;"/><path class="sankey-link" d="M759.9000000000001,41.56840618152457C946.19943,41.56840618152457 946.19943,29.11093876138854 1132.49886,29.11093876138854L1132.49886,41.82833006573637C946.19943,41.82833006573637 946.19943,54.2857974858724 759.9000000000001,54.2857974858724Z" style="stroke: rgb(68, 68, 68); stroke-opacity: 1; fill: rgb(25, 211, 243); fill-opacity: 0.6; stroke-width: 0; opacity: 1;"/><path class="sankey-link" d="M759.9000000000001,122.11188444239416C946.19943,122.11188444239416 946.19943,132.6991581132511 1132.49886,132.6991581132511L1132.49886,144.00350593933803C946.19943,144.00350593933803 946.19943,133.4162322684811 759.9000000000001,133.4162322684811Z" style="stroke: rgb(68, 68, 68); stroke-opacity: 1; fill: rgb(25, 211, 243); fill-opacity: 0.6; stroke-width: 0; opacity: 1;"/><path class="sankey-link" d="M759.9000000000001,233.88364087187182C946.19943,233.88364087187182 946.19943,223.07047630031147 1132.49886,223.07047630031147L1132.49886,230.13569369161584C946.19943,230.13569369161584 946.19943,240.9488582631762 759.9000000000001,240.9488582631762Z" style="stroke: rgb(68, 68, 68); stroke-opacity: 1; fill: rgb(25, 211, 243); fill-opacity: 0.6; stroke-width: 0; opacity: 1;"/><path class="sankey-link" d="M759.9000000000001,287.5792930457849C946.19943,287.5792930457849 946.19943,296.5977799561758 1132.49886,296.5977799561758L1132.49886,302.2499538692193C946.19943,302.2499538692193 946.19943,293.2314669588284 759.9000000000001,293.2314669588284Z" style="stroke: rgb(68, 68, 68); stroke-opacity: 1; fill: rgb(25, 211, 243); fill-opacity: 0.6; stroke-width: 0; opacity: 1;"/><path class="sankey-link" d="M759.9000000000001,387.70885134355905C946.19943,387.70885134355905 946.19943,369.8235670626227 1132.49886,369.8235670626227L1132.49886,378.30182793218796C946.19943,378.30182793218796 946.19943,396.1871122131243 759.9000000000001,396.1871122131243Z" style="stroke: rgb(68, 68, 68); stroke-opacity: 1; fill: rgb(25, 211, 243); fill-opacity: 0.6; stroke-width: 0; opacity: 1;"/><path class="sankey-link" d="M759.9000000000001,497.92624264790686C946.19943,497.92624264790686 946.19943,506.4517933341021 1132.49886,506.4517933341021L1132.49886,519.1691846384499C946.19943,519.1691846384499 946.19943,510.64363395225473 759.9000000000001,510.64363395225473Z" style="stroke: rgb(68, 68, 68); stroke-opacity: 1; fill: rgb(25, 211, 243); fill-opacity: 0.6; stroke-width: 0; opacity: 1;"/><path class="sankey-link" d="M759.9000000000001,649.226225348864C946.19943,649.226225348864 946.19943,635.5108003690464 1132.49886,635.5108003690464L1132.49886,636.9238438473071C946.19943,636.9238438473071 946.19943,650.6392688271247 759.9000000000001,650.6392688271247Z" style="stroke: rgb(68, 68, 68); stroke-opacity: 1; fill: rgb(25, 211, 243); fill-opacity: 0.6; stroke-width: 0; opacity: 1;"/><path class="sankey-link" d="M759.9000000000001,661.9436166532118C946.19943,661.9436166532118 946.19943,665.3822684811443 1132.49886,665.3822684811443L1132.49886,669.6213989159268C946.19943,669.6213989159268 946.19943,666.1827470879944 759.9000000000001,666.1827470879944Z" style="stroke: rgb(68, 68, 68); stroke-opacity: 1; fill: rgb(25, 211, 243); fill-opacity: 0.6; stroke-width: 0; opacity: 1;"/><path class="sankey-link" d="M759.9000000000001,54.2857974858724C946.19943,54.2857974858724 946.19943,41.82833006573637 1132.49886,41.82833006573637L1132.49886,50.306590935301585C946.19943,50.306590935301585 946.19943,62.76405835543762 759.9000000000001,62.76405835543762Z" style="stroke: rgb(68, 68, 68); stroke-opacity: 1; fill: rgb(239, 85, 59); fill-opacity: 0.6; stroke-width: 0; opacity: 1;"/><path class="sankey-link" d="M759.9000000000001,133.4162322684811C946.19943,133.4162322684811 946.19943,144.00350593933803 1132.49886,144.00350593933803L1132.49886,152.48176680890327C946.19943,152.48176680890327 946.19943,141.89449313804636 759.9000000000001,141.89449313804636Z" style="stroke: rgb(68, 68, 68); stroke-opacity: 1; fill: rgb(239, 85, 59); fill-opacity: 0.6; stroke-width: 0; opacity: 1;"/><path class="sankey-link" d="M759.9000000000001,240.94885826317616C946.19943,240.94885826317616 946.19943,230.1356936916158 1132.49886,230.1356936916158L1132.49886,235.7878676046593C946.19943,235.7878676046593 946.19943,246.60103217621966 759.9000000000001,246.60103217621966Z" style="stroke: rgb(68, 68, 68); stroke-opacity: 1; fill: rgb(239, 85, 59); fill-opacity: 0.6; stroke-width: 0; opacity: 1;"/><path class="sankey-link" d="M759.9000000000001,293.2314669588284C946.19943,293.2314669588284 946.19943,302.2499538692193 1132.49886,302.2499538692193L1132.49886,303.6629973474802C946.19943,303.6629973474802 946.19943,294.64451043708925 759.9000000000001,294.64451043708925Z" style="stroke: rgb(68, 68, 68); stroke-opacity: 1; fill: rgb(239, 85, 59); fill-opacity: 0.6; stroke-width: 0; opacity: 1;"/><path class="sankey-link" d="M759.9000000000001,396.18711221312424C946.19943,396.18711221312424 946.19943,378.30182793218796 1132.49886,378.30182793218796L1132.49886,391.01921923653583C946.19943,391.01921923653583 946.19943,408.9045035174721 759.9000000000001,408.9045035174721Z" style="stroke: rgb(68, 68, 68); stroke-opacity: 1; fill: rgb(239, 85, 59); fill-opacity: 0.6; stroke-width: 0; opacity: 1;"/><path class="sankey-link" d="M759.9000000000001,510.6436339522547C946.19943,510.6436339522547 946.19943,519.16918463845 1132.49886,519.16918463845L1132.49886,534.7126628993195C946.19943,534.7126628993195 946.19943,526.1871122131242 759.9000000000001,526.1871122131242Z" style="stroke: rgb(68, 68, 68); stroke-opacity: 1; fill: rgb(239, 85, 59); fill-opacity: 0.6; stroke-width: 0; opacity: 1;"/><path class="sankey-link" d="M759.9000000000001,666.1827470879945C946.19943,666.1827470879945 946.19943,669.6213989159269 1132.49886,669.6213989159269L1132.49886,673.8605293507094C946.19943,673.8605293507094 946.19943,670.421877522777 759.9000000000001,670.421877522777Z" style="stroke: rgb(68, 68, 68); stroke-opacity: 1; fill: rgb(239, 85, 59); fill-opacity: 0.6; stroke-width: 0; opacity: 1;"/><path class="sankey-link" d="M759.9000000000001,62.76405835543762C946.19943,62.76405835543762 946.19943,50.306590935301585 1132.49886,50.306590935301585L1132.49886,54.545721370084195C946.19943,54.545721370084195 946.19943,67.00318879022024 759.9000000000001,67.00318879022024Z" style="stroke: rgb(68, 68, 68); stroke-opacity: 1; fill: rgb(254, 203, 82); fill-opacity: 0.6; stroke-width: 0; opacity: 1;"/><path class="sankey-link" d="M759.9000000000001,141.89449313804633C946.19943,141.89449313804633 946.19943,152.48176680890327 1132.49886,152.48176680890327L1132.49886,153.89481028716415C946.19943,153.89481028716415 946.19943,143.3075366163072 759.9000000000001,143.3075366163072Z" style="stroke: rgb(68, 68, 68); stroke-opacity: 1; fill: rgb(254, 203, 82); fill-opacity: 0.6; stroke-width: 0; opacity: 1;"/><path class="sankey-link" d="M759.9000000000001,246.60103217621963C946.19943,246.60103217621963 946.19943,235.78786760465928 1132.49886,235.78786760465928L1132.49886,240.0269980394419C946.19943,240.0269980394419 946.19943,250.84016261100226 759.9000000000001,250.84016261100226Z" style="stroke: rgb(68, 68, 68); stroke-opacity: 1; fill: rgb(254, 203, 82); fill-opacity: 0.6; stroke-width: 0; opacity: 1;"/><path class="sankey-link" d="M759.9000000000001,294.64451043708925C946.19943,294.64451043708925 946.19943,303.6629973474802 1132.49886,303.6629973474802L1132.49886,309.3151712605237C946.19943,309.3151712605237 946.19943,300.29668435013275 759.9000000000001,300.29668435013275Z" style="stroke: rgb(68, 68, 68); stroke-opacity: 1; fill: rgb(254, 203, 82); fill-opacity: 0.6; stroke-width: 0; opacity: 1;"/><path class="sankey-link" d="M759.9000000000001,408.90450351747205C946.19943,408.90450351747205 946.19943,391.0192192365358 1132.49886,391.0192192365358L1132.49886,395.2583496713184C946.19943,395.2583496713184 946.19943,413.1436339522547 759.9000000000001,413.1436339522547Z" style="stroke: rgb(68, 68, 68); stroke-opacity: 1; fill: rgb(254, 203, 82); fill-opacity: 0.6; stroke-width: 0; opacity: 1;"/><path class="sankey-link" d="M759.9000000000001,526.1871122131242C946.19943,526.1871122131242 946.19943,534.7126628993196 1132.49886,534.7126628993196L1132.49886,538.9517933341021C946.19943,538.9517933341021 946.19943,530.4262426479067 759.9000000000001,530.4262426479067Z" style="stroke: rgb(68, 68, 68); stroke-opacity: 1; fill: rgb(254, 203, 82); fill-opacity: 0.6; stroke-width: 0; opacity: 1;"/><path class="sankey-link" d="M759.9000000000001,650.6392688271249C946.19943,650.6392688271249 946.19943,636.9238438473072 1132.49886,636.9238438473072L1132.49886,638.336887325568C946.19943,638.336887325568 946.19943,652.0523123053856 759.9000000000001,652.0523123053856Z" style="stroke: rgb(68, 68, 68); stroke-opacity: 1; fill: rgb(254, 203, 82); fill-opacity: 0.6; stroke-width: 0; opacity: 1;"/><path class="sankey-link" d="M759.9000000000001,670.4218775227771C946.19943,670.4218775227771 946.19943,673.8605293507095 1132.49886,673.8605293507095L1132.49886,675.2735728289703C946.19943,675.2735728289703 946.19943,671.8349210010379 759.9000000000001,671.8349210010379Z" style="stroke: rgb(68, 68, 68); stroke-opacity: 1; fill: rgb(254, 203, 82); fill-opacity: 0.6; stroke-width: 0; opacity: 1;"/><path class="sankey-link" d="M759.9000000000001,67.00318879022024C946.19943,67.00318879022024 946.19943,54.545721370084195 1132.49886,54.545721370084195L1132.49886,61.61093876138854C946.19943,61.61093876138854 946.19943,74.06840618152458 759.9000000000001,74.06840618152458Z" style="stroke: rgb(68, 68, 68); stroke-opacity: 1; fill: rgb(182, 232, 128); fill-opacity: 0.6; stroke-width: 0; opacity: 1;"/><path class="sankey-link" d="M759.9000000000001,300.29668435013275C946.19943,300.29668435013275 946.19943,309.3151712605237 1132.49886,309.3151712605237L1132.49886,313.5543016953063C946.19943,313.5543016953063 946.19943,304.5358147849154 759.9000000000001,304.5358147849154Z" style="stroke: rgb(68, 68, 68); stroke-opacity: 1; fill: rgb(182, 232, 128); fill-opacity: 0.6; stroke-width: 0; opacity: 1;"/><path class="sankey-link" d="M759.9000000000001,413.1436339522547C946.19943,413.1436339522547 946.19943,395.2583496713184 1132.49886,395.2583496713184L1132.49886,403.73661054088365C946.19943,403.73661054088365 946.19943,421.6218948218199 759.9000000000001,421.6218948218199Z" style="stroke: rgb(68, 68, 68); stroke-opacity: 1; fill: rgb(182, 232, 128); fill-opacity: 0.6; stroke-width: 0; opacity: 1;"/><path class="sankey-link" d="M759.9000000000001,530.4262426479069C946.19943,530.4262426479069 946.19943,538.9517933341023 1132.49886,538.9517933341023L1132.49886,546.0170107254065C946.19943,546.0170107254065 946.19943,537.4914600392111 759.9000000000001,537.4914600392111Z" style="stroke: rgb(68, 68, 68); stroke-opacity: 1; fill: rgb(182, 232, 128); fill-opacity: 0.6; stroke-width: 0; opacity: 1;"/><path class="sankey-link" d="M759.9000000000001,74.06840618152458C946.19943,74.06840618152458 946.19943,61.61093876138853 1132.49886,61.61093876138853L1132.49886,74.32833006573635C946.19943,74.32833006573635 946.19943,86.7857974858724 759.9000000000001,86.7857974858724Z" style="stroke: rgb(68, 68, 68); stroke-opacity: 1; fill: rgb(255, 161, 90); fill-opacity: 0.6; stroke-width: 0; opacity: 1;"/><path class="sankey-link" d="M759.9000000000001,143.3075366163072C946.19943,143.3075366163072 946.19943,153.89481028716415 1132.49886,153.89481028716415L1132.49886,166.61220159151196C946.19943,166.61220159151196 946.19943,156.02492792065502 759.9000000000001,156.02492792065502Z" style="stroke: rgb(68, 68, 68); stroke-opacity: 1; fill: rgb(255, 161, 90); fill-opacity: 0.6; stroke-width: 0; opacity: 1;"/><path class="sankey-link" d="M759.9000000000001,250.84016261100228C946.19943,250.84016261100228 946.19943,240.02699803944188 1132.49886,240.02699803944188L1132.49886,252.7443893437897C946.19943,252.7443893437897 946.19943,263.5575539153501 759.9000000000001,263.5575539153501Z" style="stroke: rgb(68, 68, 68); stroke-opacity: 1; fill: rgb(255, 161, 90); fill-opacity: 0.6; stroke-width: 0; opacity: 1;"/><path class="sankey-link" d="M759.9000000000001,304.5358147849154C946.19943,304.5358147849154 946.19943,313.5543016953063 1132.49886,313.5543016953063L1132.49886,324.8586495213933C946.19943,324.8586495213933 946.19943,315.84016261100237 759.9000000000001,315.84016261100237Z" style="stroke: rgb(68, 68, 68); stroke-opacity: 1; fill: rgb(255, 161, 90); fill-opacity: 0.6; stroke-width: 0; opacity: 1;"/><path class="sankey-link" d="M759.9000000000001,421.62189482181986C946.19943,421.62189482181986 946.19943,403.7366105408836 1132.49886,403.7366105408836L1132.49886,427.75834967131834C946.19943,427.75834967131834 946.19943,445.6436339522546 759.9000000000001,445.6436339522546Z" style="stroke: rgb(68, 68, 68); stroke-opacity: 1; fill: rgb(255, 161, 90); fill-opacity: 0.6; stroke-width: 0; opacity: 1;"/><path class="sankey-link" d="M759.9000000000001,537.4914600392112C946.19943,537.4914600392112 946.19943,546.0170107254066 1132.49886,546.0170107254066L1132.49886,562.9735324645371C946.19943,562.9735324645371 946.19943,554.4479817783417 759.9000000000001,554.4479817783417Z" style="stroke: rgb(68, 68, 68); stroke-opacity: 1; fill: rgb(255, 161, 90); fill-opacity: 0.6; stroke-width: 0; opacity: 1;"/><path class="sankey-link" d="M759.9000000000001,671.834921001038C946.19943,671.834921001038 946.19943,675.2735728289704 1132.49886,675.2735728289704L1132.49886,680.9257467420139C946.19943,680.9257467420139 946.19943,677.4870949140815 759.9000000000001,677.4870949140815Z" style="stroke: rgb(68, 68, 68); stroke-opacity: 1; fill: rgb(255, 161, 90); fill-opacity: 0.6; stroke-width: 0; opacity: 1;"/><path class="sankey-link" d="M759.9000000000001,86.78579748587241C946.19943,86.78579748587241 946.19943,74.32833006573637 1132.49886,74.32833006573637L1132.49886,89.87180832660593C946.19943,89.87180832660593 946.19943,102.32927574674197 759.9000000000001,102.32927574674197Z" style="stroke: rgb(68, 68, 68); stroke-opacity: 1; fill: rgb(255, 151, 255); fill-opacity: 0.6; stroke-width: 0; opacity: 1;"/><path class="sankey-link" d="M759.9000000000001,156.02492792065502C946.19943,156.02492792065502 946.19943,166.61220159151196 1132.49886,166.61220159151196L1132.49886,192.0469842002076C946.19943,192.0469842002076 946.19943,181.45971052935064 759.9000000000001,181.45971052935064Z" style="stroke: rgb(68, 68, 68); stroke-opacity: 1; fill: rgb(255, 151, 255); fill-opacity: 0.6; stroke-width: 0; opacity: 1;"/><path class="sankey-link" d="M759.9000000000001,263.55755391535007C946.19943,263.55755391535007 946.19943,252.74438934378966 1132.49886,252.74438934378966L1132.49886,272.5269980394418C946.19943,272.5269980394418 946.19943,283.3401626110022 759.9000000000001,283.3401626110022Z" style="stroke: rgb(68, 68, 68); stroke-opacity: 1; fill: rgb(255, 151, 255); fill-opacity: 0.6; stroke-width: 0; opacity: 1;"/><path class="sankey-link" d="M759.9000000000001,315.8401626110023C946.19943,315.8401626110023 946.19943,324.85864952139326 1132.49886,324.85864952139326L1132.49886,334.7499538692194C946.19943,334.7499538692194 946.19943,325.73146695882843 759.9000000000001,325.73146695882843Z" style="stroke: rgb(68, 68, 68); stroke-opacity: 1; fill: rgb(255, 151, 255); fill-opacity: 0.6; stroke-width: 0; opacity: 1;"/><path class="sankey-link" d="M759.9000000000001,445.6436339522547C946.19943,445.6436339522547 946.19943,427.7583496713184 1132.49886,427.7583496713184L1132.49886,454.6061757582749C946.19943,454.6061757582749 946.19943,472.4914600392112 759.9000000000001,472.4914600392112Z" style="stroke: rgb(68, 68, 68); stroke-opacity: 1; fill: rgb(255, 151, 255); fill-opacity: 0.6; stroke-width: 0; opacity: 1;"/><path class="sankey-link" d="M759.9000000000001,554.4479817783417C946.19943,554.4479817783417 946.19943,562.9735324645371 1132.49886,562.9735324645371L1132.49886,586.9952715949719C946.19943,586.9952715949719 946.19943,578.4697209087765 759.9000000000001,578.4697209087765Z" style="stroke: rgb(68, 68, 68); stroke-opacity: 1; fill: rgb(255, 151, 255); fill-opacity: 0.6; stroke-width: 0; opacity: 1;"/><path class="sankey-link" d="M759.9000000000001,652.0523123053857C946.19943,652.0523123053857 946.19943,638.3368873255681 1132.49886,638.3368873255681L1132.49886,645.4021047168724C946.19943,645.4021047168724 946.19943,659.11752969669 759.9000000000001,659.11752969669Z" style="stroke: rgb(68, 68, 68); stroke-opacity: 1; fill: rgb(255, 151, 255); fill-opacity: 0.6; stroke-width: 0; opacity: 1;"/><path class="sankey-link" d="M759.9000000000001,677.4870949140815C946.19943,677.4870949140815 946.19943,680.9257467420139 1132.49886,680.9257467420139L1132.49886,699.2953119594051C946.19943,699.2953119594051 946.19943,695.8566601314727 759.9000000000001,695.8566601314727Z" style="stroke: rgb(68, 68, 68); stroke-opacity: 1; fill: rgb(255, 151, 255); fill-opacity: 0.6; stroke-width: 0; opacity: 1;"/><path class="sankey-link" d="M759.9000000000001,102.32927574674197C946.19943,102.32927574674197 946.19943,89.87180832660593 1132.49886,89.87180832660593L1132.49886,96.93702571791027C946.19943,96.93702571791027 946.19943,109.39449313804631 759.9000000000001,109.39449313804631Z" style="stroke: rgb(68, 68, 68); stroke-opacity: 1; fill: rgb(255, 102, 146); fill-opacity: 0.6; stroke-width: 0; opacity: 1;"/><path class="sankey-link" d="M759.9000000000001,181.45971052935067C946.19943,181.45971052935067 946.19943,192.0469842002076 1132.49886,192.0469842002076L1132.49886,200.52524506977284C946.19943,200.52524506977284 946.19943,189.93797139891592 759.9000000000001,189.93797139891592Z" style="stroke: rgb(68, 68, 68); stroke-opacity: 1; fill: rgb(255, 102, 146); fill-opacity: 0.6; stroke-width: 0; opacity: 1;"/><path class="sankey-link" d="M759.9000000000001,283.34016261100226C946.19943,283.34016261100226 946.19943,272.5269980394419 1132.49886,272.5269980394419L1132.49886,275.3530849959636C946.19943,275.3530849959636 946.19943,286.166249567524 759.9000000000001,286.166249567524Z" style="stroke: rgb(68, 68, 68); stroke-opacity: 1; fill: rgb(255, 102, 146); fill-opacity: 0.6; stroke-width: 0; opacity: 1;"/><path class="sankey-link" d="M759.9000000000001,325.7314669588284C946.19943,325.7314669588284 946.19943,334.7499538692193 1132.49886,334.7499538692193L1132.49886,338.98908430400195C946.19943,338.98908430400195 946.19943,329.970597393611 759.9000000000001,329.970597393611Z" style="stroke: rgb(68, 68, 68); stroke-opacity: 1; fill: rgb(255, 102, 146); fill-opacity: 0.6; stroke-width: 0; opacity: 1;"/><path class="sankey-link" d="M759.9000000000001,472.4914600392112C946.19943,472.4914600392112 946.19943,454.6061757582749 1132.49886,454.6061757582749L1132.49886,460.2583496713184C946.19943,460.2583496713184 946.19943,478.1436339522547 759.9000000000001,478.1436339522547Z" style="stroke: rgb(68, 68, 68); stroke-opacity: 1; fill: rgb(255, 102, 146); fill-opacity: 0.6; stroke-width: 0; opacity: 1;"/><path class="sankey-link" d="M759.9000000000001,578.4697209087765C946.19943,578.4697209087765 946.19943,586.9952715949719 1132.49886,586.9952715949719L1132.49886,601.1257063775806C946.19943,601.1257063775806 946.19943,592.6001556913852 759.9000000000001,592.6001556913852Z" style="stroke: rgb(68, 68, 68); stroke-opacity: 1; fill: rgb(255, 102, 146); fill-opacity: 0.6; stroke-width: 0; opacity: 1;"/><path class="sankey-link" d="M759.9000000000001,659.1175296966901C946.19943,659.1175296966901 946.19943,645.4021047168725 1132.49886,645.4021047168725L1132.49886,646.8151481951332C946.19943,646.8151481951332 946.19943,660.5305731749509 759.9000000000001,660.5305731749509Z" style="stroke: rgb(68, 68, 68); stroke-opacity: 1; fill: rgb(255, 102, 146); fill-opacity: 0.6; stroke-width: 0; opacity: 1;"/><path class="sankey-link" d="M759.9000000000001,695.8566601314727C946.19943,695.8566601314727 946.19943,699.2953119594051 1132.49886,699.2953119594051L1132.49886,702.1213989159269C946.19943,702.1213989159269 946.19943,698.6827470879945 759.9000000000001,698.6827470879945Z" style="stroke: rgb(68, 68, 68); stroke-opacity: 1; fill: rgb(255, 102, 146); fill-opacity: 0.6; stroke-width: 0; opacity: 1;"/><path class="sankey-link" d="M759.9000000000001,109.39449313804631C946.19943,109.39449313804631 946.19943,96.93702571791027 1132.49886,96.93702571791027L1132.49886,106.82833006573637C946.19943,106.82833006573637 946.19943,119.28579748587241 759.9000000000001,119.28579748587241Z" style="stroke: rgb(68, 68, 68); stroke-opacity: 1; fill: rgb(0, 204, 150); fill-opacity: 0.6; stroke-width: 0; opacity: 1;"/><path class="sankey-link" d="M759.9000000000001,286.166249567524C946.19943,286.166249567524 946.19943,275.3530849959636 1132.49886,275.3530849959636L1132.49886,276.7661284742245C946.19943,276.7661284742245 946.19943,287.5792930457849 759.9000000000001,287.5792930457849Z" style="stroke: rgb(68, 68, 68); stroke-opacity: 1; fill: rgb(0, 204, 150); fill-opacity: 0.6; stroke-width: 0; opacity: 1;"/><path class="sankey-link" d="M759.9000000000001,329.970597393611C946.19943,329.970597393611 946.19943,338.98908430400195 1132.49886,338.98908430400195L1132.49886,343.2282147387846C946.19943,343.2282147387846 946.19943,334.2097278283936 759.9000000000001,334.2097278283936Z" style="stroke: rgb(68, 68, 68); stroke-opacity: 1; fill: rgb(0, 204, 150); fill-opacity: 0.6; stroke-width: 0; opacity: 1;"/><path class="sankey-link" d="M759.9000000000001,478.1436339522547C946.19943,478.1436339522547 946.19943,460.2583496713184 1132.49886,460.2583496713184L1132.49886,463.08443662784015C946.19943,463.08443662784015 946.19943,480.9697209087764 759.9000000000001,480.9697209087764Z" style="stroke: rgb(68, 68, 68); stroke-opacity: 1; fill: rgb(0, 204, 150); fill-opacity: 0.6; stroke-width: 0; opacity: 1;"/><path class="sankey-link" d="M759.9000000000001,592.6001556913852C946.19943,592.6001556913852 946.19943,601.1257063775806 1132.49886,601.1257063775806L1132.49886,611.0170107254066C946.19943,611.0170107254066 946.19943,602.4914600392112 759.9000000000001,602.4914600392112Z" style="stroke: rgb(68, 68, 68); stroke-opacity: 1; fill: rgb(0, 204, 150); fill-opacity: 0.6; stroke-width: 0; opacity: 1;"/><path class="sankey-link" d="M759.9000000000001,660.530573174951C946.19943,660.530573174951 946.19943,646.8151481951334 1132.49886,646.8151481951334L1132.49886,648.2281916733941C946.19943,648.2281916733941 946.19943,661.9436166532117 759.9000000000001,661.9436166532117Z" style="stroke: rgb(68, 68, 68); stroke-opacity: 1; fill: rgb(0, 204, 150); fill-opacity: 0.6; stroke-width: 0; opacity: 1;"/><path class="sankey-link" d="M759.9000000000001,698.6827470879945C946.19943,698.6827470879945 946.19943,702.1213989159269 1132.49886,702.1213989159269L1132.49886,703.5344423941876C946.19943,703.5344423941876 946.19943,700.0957905662552 759.9000000000001,700.0957905662552Z" style="stroke: rgb(68, 68, 68); stroke-opacity: 1; fill: rgb(0, 204, 150); fill-opacity: 0.6; stroke-width: 0; opacity: 1;"/><path class="sankey-link" d="M759.9000000000001,119.28579748587241C946.19943,119.28579748587241 946.19943,106.82833006573637 1132.49886,106.82833006573637L1132.49886,108.24137354399724C946.19943,108.24137354399724 946.19943,120.69884096413328 759.9000000000001,120.69884096413328Z" style="stroke: rgb(68, 68, 68); stroke-opacity: 1; fill: rgb(171, 99, 250); fill-opacity: 0.6; stroke-width: 0; opacity: 1;"/><path class="sankey-link" d="M759.9000000000001,189.9379713989159C946.19943,189.9379713989159 946.19943,200.52524506977284 1132.49886,200.52524506977284L1132.49886,201.9382885480337C946.19943,201.9382885480337 946.19943,191.35101487717677 759.9000000000001,191.35101487717677Z" style="stroke: rgb(68, 68, 68); stroke-opacity: 1; fill: rgb(171, 99, 250); fill-opacity: 0.6; stroke-width: 0; opacity: 1;"/><path class="sankey-link" d="M759.9000000000001,480.9697209087764C946.19943,480.9697209087764 946.19943,463.08443662784015 1132.49886,463.08443662784015L1132.49886,465.9105235843619C946.19943,465.9105235843619 946.19943,483.7958078652982 759.9000000000001,483.7958078652982Z" style="stroke: rgb(68, 68, 68); stroke-opacity: 1; fill: rgb(171, 99, 250); fill-opacity: 0.6; stroke-width: 0; opacity: 1;"/><path class="sankey-link" d="M759.9000000000001,602.4914600392113C946.19943,602.4914600392113 946.19943,611.0170107254067 1132.49886,611.0170107254067L1132.49886,613.8430976819285C946.19943,613.8430976819285 946.19943,605.3175469957331 759.9000000000001,605.3175469957331Z" style="stroke: rgb(68, 68, 68); stroke-opacity: 1; fill: rgb(171, 99, 250); fill-opacity: 0.6; stroke-width: 0; opacity: 1;"/></g><g class="sankey-node-set" style="cursor: ns-resize;"><g class="sankey-node" transform="translate(-7.499,27.162)" style="opacity: 1;"><rect class="node-rect" width="15" height="210.54347826086956" style="stroke-width: 0.5; stroke: rgb(0, 0, 0); stroke-opacity: 1; fill: rgb(128, 128, 128); fill-opacity: 1;"/><text class="node-label" data-notex="1" x="0" y="0" text-anchor="start" transform="translate(18.25,109.47173913043478)" style="cursor: default; font-family: 'Open Sans', verdana, arial, sans-serif; font-size: 12px; fill: rgb(42, 63, 95); fill-opacity: 1; white-space: pre; text-shadow: white 1px 1px 1px, white -1px -1px 1px, white 1px -1px 1px, white -1px 1px 1px;">21272R</text></g><g class="sankey-node" transform="translate(-7.499,270.607)" style="opacity: 1;"><rect class="node-rect" width="15" height="94.67391304347825" style="stroke-width: 0.5; stroke: rgb(0, 0, 0); stroke-opacity: 1; fill: rgb(128, 128, 128); fill-opacity: 1;"/><text class="node-label" data-notex="1" x="0" y="0" text-anchor="start" transform="translate(18.25,51.53695652173913)" style="cursor: default; font-family: 'Open Sans', verdana, arial, sans-serif; font-size: 12px; fill: rgb(42, 63, 95); fill-opacity: 1; white-space: pre; text-shadow: white 1px 1px 1px, white -1px -1px 1px, white 1px -1px 1px, white -1px 1px 1px;">21965RL</text></g><g class="sankey-node" transform="translate(-7.499,393.643)" style="opacity: 1;"><rect class="node-rect" width="15" height="135.65217391304327" style="stroke-width: 0.5; stroke: rgb(0, 0, 0); stroke-opacity: 1; fill: rgb(128, 128, 128); fill-opacity: 1;"/><text class="node-label" data-notex="1" x="0" y="0" text-anchor="start" transform="translate(18.25,72.02608695652164)" style="cursor: default; font-family: 'Open Sans', verdana, arial, sans-serif; font-size: 12px; fill: rgb(42, 63, 95); fill-opacity: 1; white-space: pre; text-shadow: white 1px 1px 1px, white -1px -1px 1px, white 1px -1px 1px, white -1px 1px 1px;">22384</text></g><g class="sankey-node" transform="translate(-7.499,560.226)" style="opacity: 1;"><rect class="node-rect" width="15" height="137.0652173913045" style="stroke-width: 0.5; stroke: rgb(0, 0, 0); stroke-opacity: 1; fill: rgb(128, 128, 128); fill-opacity: 1;"/><text class="node-label" data-notex="1" x="0" y="0" text-anchor="start" transform="translate(18.25,72.73260869565225)" style="cursor: default; font-family: 'Open Sans', verdana, arial, sans-serif; font-size: 12px; fill: rgb(42, 63, 95); fill-opacity: 1; white-space: pre; text-shadow: white 1px 1px 1px, white -1px -1px 1px, white 1px -1px 1px, white -1px 1px 1px;">22670</text></g><g class="sankey-node" transform="translate(744.900,31.677)" style="opacity: 1;"><rect class="node-rect" width="15" height="159.67391304347834" style="stroke-width: 0.5; stroke: rgb(0, 0, 0); stroke-opacity: 1; fill: rgb(128, 128, 128); fill-opacity: 1;"/><text class="node-label" data-notex="1" x="0" y="0" text-anchor="start" transform="translate(18.25,84.03695652173917)" style="cursor: default; font-family: 'Open Sans', verdana, arial, sans-serif; font-size: 12px; fill: rgb(42, 63, 95); fill-opacity: 1; white-space: pre; text-shadow: white 1px 1px 1px, white -1px -1px 1px, white 1px -1px 1px, white -1px 1px 1px;">dig</text></g><g class="sankey-node" transform="translate(744.900,233.884)" style="opacity: 1;"><rect class="node-rect" width="15" height="100.32608695652164" style="stroke-width: 0.5; stroke: rgb(0, 0, 0); stroke-opacity: 1; fill: rgb(128, 128, 128); fill-opacity: 1;"/><text class="node-label" data-notex="1" x="0" y="0" text-anchor="start" transform="translate(18.25,54.36304347826082)" style="cursor: default; font-family: 'Open Sans', verdana, arial, sans-serif; font-size: 12px; fill: rgb(42, 63, 95); fill-opacity: 1; white-space: pre; text-shadow: white 1px 1px 1px, white -1px -1px 1px, white 1px -1px 1px, white -1px 1px 1px;">groom</text></g><g class="sankey-node" transform="translate(744.900,383.470)" style="opacity: 1;"><rect class="node-rect" width="15" height="221.84782608695633" style="stroke-width: 0.5; stroke: rgb(0, 0, 0); stroke-opacity: 1; fill: rgb(128, 128, 128); fill-opacity: 1;"/><text class="node-label" data-notex="1" x="0" y="0" text-anchor="start" transform="translate(18.25,115.12391304347817)" style="cursor: default; font-family: 'Open Sans', verdana, arial, sans-serif; font-size: 12px; fill: rgb(42, 63, 95); fill-opacity: 1; white-space: pre; text-shadow: white 1px 1px 1px, white -1px -1px 1px, white 1px -1px 1px, white -1px 1px 1px;">move</text></g><g class="sankey-node" transform="translate(744.900,649.226)" style="opacity: 1;"><rect class="node-rect" width="15" height="50.86956521739148" style="stroke-width: 0.5; stroke: rgb(0, 0, 0); stroke-opacity: 1; fill: rgb(128, 128, 128); fill-opacity: 1;"/><text class="node-label" data-notex="1" x="0" y="0" text-anchor="start" transform="translate(18.25,29.63478260869574)" style="cursor: default; font-family: 'Open Sans', verdana, arial, sans-serif; font-size: 12px; fill: rgb(42, 63, 95); fill-opacity: 1; white-space: pre; text-shadow: white 1px 1px 1px, white -1px -1px 1px, white 1px -1px 1px, white -1px 1px 1px;">still</text></g><g class="sankey-node" transform="translate(1132.499,19.220)" style="opacity: 1;"><rect class="node-rect" width="15" height="89.02173913043478" style="stroke-width: 0.5; stroke: rgb(0, 0, 0); stroke-opacity: 1; fill: rgb(128, 128, 128); fill-opacity: 1;"/><text class="node-label" data-notex="1" x="0" y="0" text-anchor="end" transform="translate(-3.25,48.71086956521739)" style="cursor: default; font-family: 'Open Sans', verdana, arial, sans-serif; font-size: 12px; fill: rgb(42, 63, 95); fill-opacity: 1; white-space: pre; text-shadow: white 1px 1px 1px, white -1px -1px 1px, white 1px -1px 1px, white -1px 1px 1px;">dig-activated</text></g><g class="sankey-node" transform="translate(1132.499,131.286)" style="opacity: 1;"><rect class="node-rect" width="15" height="70.65217391304344" style="stroke-width: 0.5; stroke: rgb(0, 0, 0); stroke-opacity: 1; fill: rgb(128, 128, 128); fill-opacity: 1;"/><text class="node-label" data-notex="1" x="0" y="0" text-anchor="end" transform="translate(-3.25,39.52608695652172)" style="cursor: default; font-family: 'Open Sans', verdana, arial, sans-serif; font-size: 12px; fill: rgb(42, 63, 95); fill-opacity: 1; white-space: pre; text-shadow: white 1px 1px 1px, white -1px -1px 1px, white 1px -1px 1px, white -1px 1px 1px;">dig-suppressed</text></g><g class="sankey-node" transform="translate(1132.499,223.070)" style="opacity: 1;"><rect class="node-rect" width="15" height="53.69565217391303" style="stroke-width: 0.5; stroke: rgb(0, 0, 0); stroke-opacity: 1; fill: rgb(128, 128, 128); fill-opacity: 1;"/><text class="node-label" data-notex="1" x="0" y="0" text-anchor="end" transform="translate(-3.25,31.047826086956515)" style="cursor: default; font-family: 'Open Sans', verdana, arial, sans-serif; font-size: 12px; fill: rgb(42, 63, 95); fill-opacity: 1; white-space: pre; text-shadow: white 1px 1px 1px, white -1px -1px 1px, white 1px -1px 1px, white -1px 1px 1px;">groom-activated</text></g><g class="sankey-node" transform="translate(1132.499,296.598)" style="opacity: 1;"><rect class="node-rect" width="15" height="46.63043478260863" style="stroke-width: 0.5; stroke: rgb(0, 0, 0); stroke-opacity: 1; fill: rgb(128, 128, 128); fill-opacity: 1;"/><text class="node-label" data-notex="1" x="0" y="0" text-anchor="end" transform="translate(-3.25,27.515217391304315)" style="cursor: default; font-family: 'Open Sans', verdana, arial, sans-serif; font-size: 12px; fill: rgb(42, 63, 95); fill-opacity: 1; white-space: pre; text-shadow: white 1px 1px 1px, white -1px -1px 1px, white 1px -1px 1px, white -1px 1px 1px;">groom-suppressed</text></g><g class="sankey-node" transform="translate(1132.499,365.584)" style="opacity: 1;"><rect class="node-rect" width="15" height="100.32608695652152" style="stroke-width: 0.5; stroke: rgb(0, 0, 0); stroke-opacity: 1; fill: rgb(128, 128, 128); fill-opacity: 1;"/><text class="node-label" data-notex="1" x="0" y="0" text-anchor="end" transform="translate(-3.25,54.363043478260764)" style="cursor: default; font-family: 'Open Sans', verdana, arial, sans-serif; font-size: 12px; fill: rgb(42, 63, 95); fill-opacity: 1; white-space: pre; text-shadow: white 1px 1px 1px, white -1px -1px 1px, white 1px -1px 1px, white -1px 1px 1px;">move-activated</text></g><g class="sankey-node" transform="translate(1132.499,492.321)" style="opacity: 1;"><rect class="node-rect" width="15" height="121.52173913043515" style="stroke-width: 0.5; stroke: rgb(0, 0, 0); stroke-opacity: 1; fill: rgb(128, 128, 128); fill-opacity: 1;"/><text class="node-label" data-notex="1" x="0" y="0" text-anchor="end" transform="translate(-3.25,64.96086956521758)" style="cursor: default; font-family: 'Open Sans', verdana, arial, sans-serif; font-size: 12px; fill: rgb(42, 63, 95); fill-opacity: 1; white-space: pre; text-shadow: white 1px 1px 1px, white -1px -1px 1px, white 1px -1px 1px, white -1px 1px 1px;">move-suppressed</text></g><g class="sankey-node" transform="translate(1132.499,635.511)" style="opacity: 1;"><rect class="node-rect" width="15" height="12.717391304347984" style="stroke-width: 0.5; stroke: rgb(0, 0, 0); stroke-opacity: 1; fill: rgb(128, 128, 128); fill-opacity: 1;"/><text class="node-label" data-notex="1" x="0" y="0" text-anchor="end" transform="translate(-3.25,10.558695652173991)" style="cursor: default; font-family: 'Open Sans', verdana, arial, sans-serif; font-size: 12px; fill: rgb(42, 63, 95); fill-opacity: 1; white-space: pre; text-shadow: white 1px 1px 1px, white -1px -1px 1px, white 1px -1px 1px, white -1px 1px 1px;">still-activated</text></g><g class="sankey-node" transform="translate(1132.499,665.382)" style="opacity: 1;"><rect class="node-rect" width="15" height="38.1521739130435" style="stroke-width: 0.5; stroke: rgb(0, 0, 0); stroke-opacity: 1; fill: rgb(128, 128, 128); fill-opacity: 1;"/><text class="node-label" data-notex="1" x="0" y="0" text-anchor="end" transform="translate(-3.25,23.27608695652175)" style="cursor: default; font-family: 'Open Sans', verdana, arial, sans-serif; font-size: 12px; fill: rgb(42, 63, 95); fill-opacity: 1; white-space: pre; text-shadow: white 1px 1px 1px, white -1px -1px 1px, white 1px -1px 1px, white -1px 1px 1px;">still-suppressed</text></g><g class="sankey-node" transform="translate(368.700,13.665)" style="opacity: 1;"><rect class="node-rect" width="15" height="36.73913043478274" style="stroke-width: 0.5; stroke: rgb(0, 0, 0); stroke-opacity: 1; fill: rgb(99, 110, 250); fill-opacity: 1;"/><text class="node-label" data-notex="1" x="0" y="0" text-anchor="start" transform="translate(18.25,22.569565217391368)" style="cursor: default; font-family: 'Open Sans', verdana, arial, sans-serif; font-size: 12px; fill: rgb(42, 63, 95); fill-opacity: 1; white-space: pre; text-shadow: white 1px 1px 1px, white -1px -1px 1px, white 1px -1px 1px, white -1px 1px 1px;">BLA</text></g><g class="sankey-node" transform="translate(368.700,62.261)" style="opacity: 1;"><rect class="node-rect" width="15" height="90.43478260869547" style="stroke-width: 0.5; stroke: rgb(0, 0, 0); stroke-opacity: 1; fill: rgb(25, 211, 243); fill-opacity: 1;"/><text class="node-label" data-notex="1" x="0" y="0" text-anchor="start" transform="translate(18.25,49.41739130434773)" style="cursor: default; font-family: 'Open Sans', verdana, arial, sans-serif; font-size: 12px; fill: rgb(42, 63, 95); fill-opacity: 1; white-space: pre; text-shadow: white 1px 1px 1px, white -1px -1px 1px, white 1px -1px 1px, white -1px 1px 1px;">Cla</text></g><g class="sankey-node" transform="translate(368.700,164.157)" style="opacity: 1;"><rect class="node-rect" width="15" height="56.52173913043481" style="stroke-width: 0.5; stroke: rgb(0, 0, 0); stroke-opacity: 1; fill: rgb(239, 85, 59); fill-opacity: 1;"/><text class="node-label" data-notex="1" x="0" y="0" text-anchor="start" transform="translate(18.25,32.46086956521741)" style="cursor: default; font-family: 'Open Sans', verdana, arial, sans-serif; font-size: 12px; fill: rgb(42, 63, 95); fill-opacity: 1; white-space: pre; text-shadow: white 1px 1px 1px, white -1px -1px 1px, white 1px -1px 1px, white -1px 1px 1px;">LC</text></g><g class="sankey-node" transform="translate(368.700,233.298)" style="opacity: 1;"><rect class="node-rect" width="15" height="32.50000000000023" style="stroke-width: 0.5; stroke: rgb(0, 0, 0); stroke-opacity: 1; fill: rgb(254, 203, 82); fill-opacity: 1;"/><text class="node-label" data-notex="1" x="0" y="0" text-anchor="start" transform="translate(18.25,20.450000000000113)" style="cursor: default; font-family: 'Open Sans', verdana, arial, sans-serif; font-size: 12px; fill: rgb(42, 63, 95); fill-opacity: 1; white-space: pre; text-shadow: white 1px 1px 1px, white -1px -1px 1px, white 1px -1px 1px, white -1px 1px 1px;">LHyp</text></g><g class="sankey-node" transform="translate(368.700,278.898)" style="opacity: 1;"><rect class="node-rect" width="15" height="32.5" style="stroke-width: 0.5; stroke: rgb(0, 0, 0); stroke-opacity: 1; fill: rgb(182, 232, 128); fill-opacity: 1;"/><text class="node-label" data-notex="1" x="0" y="0" text-anchor="start" transform="translate(18.25,20.45)" style="cursor: default; font-family: 'Open Sans', verdana, arial, sans-serif; font-size: 12px; fill: rgb(42, 63, 95); fill-opacity: 1; white-space: pre; text-shadow: white 1px 1px 1px, white -1px -1px 1px, white 1px -1px 1px, white -1px 1px 1px;">NAc</text></g><g class="sankey-node" transform="translate(368.700,323.226)" style="opacity: 1;"><rect class="node-rect" width="15" height="96.08695652173947" style="stroke-width: 0.5; stroke: rgb(0, 0, 0); stroke-opacity: 1; fill: rgb(255, 161, 90); fill-opacity: 1;"/><text class="node-label" data-notex="1" x="0" y="0" text-anchor="start" transform="translate(18.25,52.243478260869736)" style="cursor: default; font-family: 'Open Sans', verdana, arial, sans-serif; font-size: 12px; fill: rgb(42, 63, 95); fill-opacity: 1; white-space: pre; text-shadow: white 1px 1px 1px, white -1px -1px 1px, white 1px -1px 1px, white -1px 1px 1px;">Str</text></g><g class="sankey-node" transform="translate(368.700,428.852)" style="opacity: 1;"><rect class="node-rect" width="15" height="146.95652173913027" style="stroke-width: 0.5; stroke: rgb(0, 0, 0); stroke-opacity: 1; fill: rgb(255, 151, 255); fill-opacity: 1;"/><text class="node-label" data-notex="1" x="0" y="0" text-anchor="start" transform="translate(18.25,77.67826086956514)" style="cursor: default; font-family: 'Open Sans', verdana, arial, sans-serif; font-size: 12px; fill: rgb(42, 63, 95); fill-opacity: 1; white-space: pre; text-shadow: white 1px 1px 1px, white -1px -1px 1px, white 1px -1px 1px, white -1px 1px 1px;">VTA</text></g><g class="sankey-node" transform="translate(368.700,586.280)" style="opacity: 1;"><rect class="node-rect" width="15" height="49.456521739130494" style="stroke-width: 0.5; stroke: rgb(0, 0, 0); stroke-opacity: 1; fill: rgb(255, 102, 146); fill-opacity: 1;"/><text class="node-label" data-notex="1" x="0" y="0" text-anchor="start" transform="translate(18.25,28.928260869565246)" style="cursor: default; font-family: 'Open Sans', verdana, arial, sans-serif; font-size: 12px; fill: rgb(42, 63, 95); fill-opacity: 1; white-space: pre; text-shadow: white 1px 1px 1px, white -1px -1px 1px, white 1px -1px 1px, white -1px 1px 1px;">cPFC</text></g><g class="sankey-node" transform="translate(368.700,648.441)" style="opacity: 1;"><rect class="node-rect" width="15" height="35.32608695652175" style="stroke-width: 0.5; stroke: rgb(0, 0, 0); stroke-opacity: 1; fill: rgb(0, 204, 150); fill-opacity: 1;"/><text class="node-label" data-notex="1" x="0" y="0" text-anchor="start" transform="translate(18.25,21.863043478260874)" style="cursor: default; font-family: 'Open Sans', verdana, arial, sans-serif; font-size: 12px; fill: rgb(42, 63, 95); fill-opacity: 1; white-space: pre; text-shadow: white 1px 1px 1px, white -1px -1px 1px, white 1px -1px 1px, white -1px 1px 1px;">dPAG</text></g><g class="sankey-node" transform="translate(368.700,697.291)" style="opacity: 1;"><rect class="node-rect" width="15" height="8.478260869565247" style="stroke-width: 0.5; stroke: rgb(0, 0, 0); stroke-opacity: 1; fill: rgb(171, 99, 250); fill-opacity: 1;"/><text class="node-label" data-notex="1" x="0" y="0" text-anchor="start" transform="translate(18.25,8.439130434782623)" style="cursor: default; font-family: 'Open Sans', verdana, arial, sans-serif; font-size: 12px; fill: rgb(42, 63, 95); fill-opacity: 1; white-space: pre; text-shadow: white 1px 1px 1px, white -1px -1px 1px, white 1px -1px 1px, white -1px 1px 1px;">lHb</text></g></g></g><defs id="topdefs-7b7f67"><g class="clips"/></defs><g class="layer-above"><g class="imagelayer"/><g class="shapelayer"/></g><g class="infolayer"><g class="g-gtitle"/><g class="first-render"/></g></svg>