<svg class="main-svg" xmlns="http://www.w3.org/2000/svg" xmlns:xlink="http://www.w3.org/1999/xlink" width="1300" height="900" viewBox="0 0 1300 900" style=""><rect x="0" y="0" width="1300" height="900" style="fill: rgb(255, 255, 255); fill-opacity: 1;"/><defs id="defs-51b133"><g class="clips"/><g class="gradients"/><g class="patterns"/></defs><g class="bglayer"/><g class="layer-below"><g class="imagelayer"/><g class="shapelayer"/></g><g class="cartesianlayer"/><g class="polarlayer"/><g class="smithlayer"/><g class="ternarylayer"/><g class="geolayer"/><g class="funnelarealayer"/><g class="pielayer"/><g class="iciclelayer"/><g class="treemaplayer"/><g class="sunburstlayer"/><g class="glimages"/><g class="sankey" transform="translate(80,100)matrix(1 0 0 1 0 0)" style="box-sizing: content-box; position: absolute; left: 0px; shape-rendering: geometricprecision; pointer-events: none;"><g class="sankey-links" style="fill: none;"><path class="sankey-link" d="M7.50114,17.973333333333372C188.10057000000003,17.973333333333372 188.10057000000003,49.75260471295729 368.70000000000005,49.75260471295729L368.70000000000005,70.07006503041761C188.10057000000003,70.07006503041761 188.10057000000003,38.29079365079369 7.50114,38.29079365079369Z" style="stroke: rgb(68, 68, 68); stroke-opacity: 1; fill: rgb(99, 110, 250); fill-opacity: 0.6; stroke-width: 0; opacity: 1;"/><path class="sankey-link" d="M7.50114,38.29079365079369C188.10057000000003,38.29079365079369 188.10057000000003,164.03238934340274 368.70000000000005,164.03238934340274L368.70000000000005,169.1117544227678C188.10057000000003,169.1117544227678 188.10057000000003,43.370158730158764 7.50114,43.370158730158764Z" style="stroke: rgb(68, 68, 68); stroke-opacity: 1; fill: rgb(0, 204, 150); fill-opacity: 0.6; stroke-width: 0; opacity: 1;"/><path class="sankey-link" d="M7.50114,43.370158730158764C188.10057000000003,43.370158730158764 188.10057000000003,262.0389623103281 368.70000000000005,262.0389623103281L368.70000000000005,274.73737500874074C188.10057000000003,274.73737500874074 188.10057000000003,56.06857142857146 7.50114,56.06857142857146Z" style="stroke: rgb(68, 68, 68); stroke-opacity: 1; fill: rgb(255, 161, 90); fill-opacity: 0.6; stroke-width: 0; opacity: 1;"/><path class="sankey-link" d="M7.50114,56.06857142857146C188.10057000000003,56.06857142857146 188.10057000000003,310.6810432836865 368.70000000000005,310.6810432836865L368.70000000000005,323.37945598209916C188.10057000000003,323.37945598209916 188.10057000000003,68.76698412698416 7.50114,68.76698412698416Z" style="stroke: rgb(68, 68, 68); stroke-opacity: 1; fill: rgb(171, 99, 250); fill-opacity: 0.6; stroke-width: 0; opacity: 1;"/><path class="sankey-link" d="M7.50114,68.76698412698416C188.10057000000003,68.76698412698416 188.10057000000003,387.56640794350056 368.70000000000005,387.56640794350056L368.70000000000005,390.1060904831831C188.10057000000003,390.1060904831831 188.10057000000003,71.30666666666669 7.50114,71.30666666666669Z" style="stroke: rgb(68, 68, 68); stroke-opacity: 1; fill: rgb(239, 85, 59); fill-opacity: 0.6; stroke-width: 0; opacity: 1;"/><path class="sankey-link" d="M7.50114,92.00253968253963C188.10057000000003,92.00253968253963 188.10057000000003,14.104468219005652 368.70000000000005,14.104468219005652L368.70000000000005,19.18383329837073C188.10057000000003,19.18383329837073 188.10057000000003,97.08190476190472 7.50114,97.08190476190472Z" style="stroke: rgb(68, 68, 68); stroke-opacity: 1; fill: rgb(25, 211, 243); fill-opacity: 0.6; stroke-width: 0; opacity: 1;"/><path class="sankey-link" d="M7.50114,97.08190476190471C188.10057000000003,97.08190476190471 188.10057000000003,70.07006503041761 368.70000000000005,70.07006503041761L368.70000000000005,72.60974757010014C188.10057000000003,72.60974757010014 188.10057000000003,99.62158730158724 7.50114,99.62158730158724Z" style="stroke: rgb(68, 68, 68); stroke-opacity: 1; fill: rgb(99, 110, 250); fill-opacity: 0.6; stroke-width: 0; opacity: 1;"/><path class="sankey-link" d="M7.50114,99.62158730158725C188.10057000000003,99.62158730158725 188.10057000000003,169.11175442276783 368.70000000000005,169.11175442276783L368.70000000000005,174.1911195021329C188.10057000000003,174.1911195021329 188.10057000000003,104.70095238095234 7.50114,104.70095238095234Z" style="stroke: rgb(68, 68, 68); stroke-opacity: 1; fill: rgb(0, 204, 150); fill-opacity: 0.6; stroke-width: 0; opacity: 1;"/><path class="sankey-link" d="M7.50114,104.70095238095233C188.10057000000003,104.70095238095233 188.10057000000003,274.7373750087408 368.70000000000005,274.7373750087408L368.70000000000005,284.8961051674709C188.10057000000003,284.8961051674709 188.10057000000003,114.85968253968248 7.50114,114.85968253968248Z" style="stroke: rgb(68, 68, 68); stroke-opacity: 1; fill: rgb(255, 161, 90); fill-opacity: 0.6; stroke-width: 0; opacity: 1;"/><path class="sankey-link" d="M7.50114,114.8596825396825C188.10057000000003,114.8596825396825 188.10057000000003,323.3794559820992 368.70000000000005,323.3794559820992L368.70000000000005,328.4588210614643C188.10057000000003,328.4588210614643 188.10057000000003,119.93904761904759 7.50114,119.93904761904759Z" style="stroke: rgb(68, 68, 68); stroke-opacity: 1; fill: rgb(171, 99, 250); fill-opacity: 0.6; stroke-width: 0; opacity: 1;"/><path class="sankey-link" d="M7.50114,119.93904761904757C188.10057000000003,119.93904761904757 188.10057000000003,390.1060904831831 368.70000000000005,390.1060904831831L368.70000000000005,392.6457730228656C188.10057000000003,392.6457730228656 188.10057000000003,122.4787301587301 7.50114,122.4787301587301Z" style="stroke: rgb(68, 68, 68); stroke-opacity: 1; fill: rgb(239, 85, 59); fill-opacity: 0.6; stroke-width: 0; opacity: 1;"/><path class="sankey-link" d="M7.50114,122.47873015873012C188.10057000000003,122.47873015873012 188.10057000000003,606.8053422837563 368.70000000000005,606.8053422837563L368.70000000000005,614.424389902804C188.10057000000003,614.424389902804 188.10057000000003,130.09777777777774 7.50114,130.09777777777774Z" style="stroke: rgb(68, 68, 68); stroke-opacity: 1; fill: rgb(182, 232, 128); fill-opacity: 0.6; stroke-width: 0; opacity: 1;"/><path class="sankey-link" d="M7.50114,130.09777777777774C188.10057000000003,130.09777777777774 188.10057000000003,703.0931543248726 368.70000000000005,703.0931543248726L368.70000000000005,705.6328368645552C188.10057000000003,705.6328368645552 188.10057000000003,132.63746031746027 7.50114,132.63746031746027Z" style="stroke: rgb(68, 68, 68); stroke-opacity: 1; fill: rgb(255, 102, 146); fill-opacity: 0.6; stroke-width: 0; opacity: 1;"/><path class="sankey-link" d="M7.50114,152.8228571428573C188.10057000000003,152.8228571428573 188.10057000000003,19.183833298370732 368.70000000000005,19.183833298370732L368.70000000000005,26.802880917418353C188.10057000000003,26.802880917418353 188.10057000000003,160.44190476190488 7.50114,160.44190476190488Z" style="stroke: rgb(68, 68, 68); stroke-opacity: 1; fill: rgb(25, 211, 243); fill-opacity: 0.6; stroke-width: 0; opacity: 1;"/><path class="sankey-link" d="M7.50114,160.4419047619049C188.10057000000003,160.4419047619049 188.10057000000003,72.60974757010015 368.70000000000005,72.60974757010015L368.70000000000005,85.30816026851286C188.10057000000003,85.30816026851286 188.10057000000003,173.14031746031762 7.50114,173.14031746031762Z" style="stroke: rgb(68, 68, 68); stroke-opacity: 1; fill: rgb(99, 110, 250); fill-opacity: 0.6; stroke-width: 0; opacity: 1;"/><path class="sankey-link" d="M7.50114,173.14031746031762C188.10057000000003,173.14031746031762 188.10057000000003,284.896105167471 368.70000000000005,284.896105167471L368.70000000000005,289.97547024683604C188.10057000000003,289.97547024683604 188.10057000000003,178.21968253968268 7.50114,178.21968253968268Z" style="stroke: rgb(68, 68, 68); stroke-opacity: 1; fill: rgb(255, 161, 90); fill-opacity: 0.6; stroke-width: 0; opacity: 1;"/><path class="sankey-link" d="M7.50114,178.2196825396827C188.10057000000003,178.2196825396827 188.10057000000003,328.4588210614643 368.70000000000005,328.4588210614643L368.70000000000005,336.07786868051187C188.10057000000003,336.07786868051187 188.10057000000003,185.8387301587303 7.50114,185.8387301587303Z" style="stroke: rgb(68, 68, 68); stroke-opacity: 1; fill: rgb(171, 99, 250); fill-opacity: 0.6; stroke-width: 0; opacity: 1;"/><path class="sankey-link" d="M7.50114,185.83873015873033C188.10057000000003,185.83873015873033 188.10057000000003,392.6457730228656 368.70000000000005,392.6457730228656L368.70000000000005,395.18545556254816C188.10057000000003,395.18545556254816 188.10057000000003,188.37841269841286 7.50114,188.37841269841286Z" style="stroke: rgb(68, 68, 68); stroke-opacity: 1; fill: rgb(239, 85, 59); fill-opacity: 0.6; stroke-width: 0; opacity: 1;"/><path class="sankey-link" d="M7.50114,188.37841269841286C188.10057000000003,188.37841269841286 188.10057000000003,614.4243899028039 368.70000000000005,614.4243899028039L368.70000000000005,616.9640724424866C188.10057000000003,616.9640724424866 188.10057000000003,190.9180952380954 7.50114,190.9180952380954Z" style="stroke: rgb(68, 68, 68); stroke-opacity: 1; fill: rgb(182, 232, 128); fill-opacity: 0.6; stroke-width: 0; opacity: 1;"/><path class="sankey-link" d="M7.50114,190.9180952380954C188.10057000000003,190.9180952380954 188.10057000000003,676.1917628137892 368.70000000000005,676.1917628137892L368.70000000000005,683.8108104328369C188.10057000000003,683.8108104328369 188.10057000000003,198.53714285714298 7.50114,198.53714285714298Z" style="stroke: rgb(68, 68, 68); stroke-opacity: 1; fill: rgb(255, 151, 255); fill-opacity: 0.6; stroke-width: 0; opacity: 1;"/><path class="sankey-link" d="M7.50114,229.9530158730159C188.10057000000003,229.9530158730159 188.10057000000003,85.30816026851285 368.70000000000005,85.30816026851285L368.70000000000005,118.32403328438586C188.10057000000003,118.32403328438586 188.10057000000003,262.9688888888889 7.50114,262.9688888888889Z" style="stroke: rgb(68, 68, 68); stroke-opacity: 1; fill: rgb(99, 110, 250); fill-opacity: 0.6; stroke-width: 0; opacity: 1;"/><path class="sankey-link" d="M7.50114,262.9688888888889C188.10057000000003,262.9688888888889 188.10057000000003,174.19111950213292 368.70000000000005,174.19111950213292L368.70000000000005,184.3498496608631C188.10057000000003,184.3498496608631 188.10057000000003,273.127619047619 7.50114,273.127619047619Z" style="stroke: rgb(68, 68, 68); stroke-opacity: 1; fill: rgb(0, 204, 150); fill-opacity: 0.6; stroke-width: 0; opacity: 1;"/><path class="sankey-link" d="M7.50114,273.1276190476191C188.10057000000003,273.1276190476191 188.10057000000003,207.9891476120551 368.70000000000005,207.9891476120551L368.70000000000005,228.3066079295154C188.10057000000003,228.3066079295154 188.10057000000003,293.44507936507944 7.50114,293.44507936507944Z" style="stroke: rgb(68, 68, 68); stroke-opacity: 1; fill: rgb(254, 203, 82); fill-opacity: 0.6; stroke-width: 0; opacity: 1;"/><path class="sankey-link" d="M7.50114,293.4450793650794C188.10057000000003,293.4450793650794 188.10057000000003,336.07786868051187 368.70000000000005,336.07786868051187L368.70000000000005,356.39532899797223C188.10057000000003,356.39532899797223 188.10057000000003,313.76253968253974 7.50114,313.76253968253974Z" style="stroke: rgb(68, 68, 68); stroke-opacity: 1; fill: rgb(171, 99, 250); fill-opacity: 0.6; stroke-width: 0; opacity: 1;"/><path class="sankey-link" d="M7.50114,313.7625396825397C188.10057000000003,313.7625396825397 188.10057000000003,395.18545556254816 368.70000000000005,395.18545556254816L368.70000000000005,494.2330746101672C188.10057000000003,494.2330746101672 188.10057000000003,412.8101587301587 7.50114,412.8101587301587Z" style="stroke: rgb(68, 68, 68); stroke-opacity: 1; fill: rgb(239, 85, 59); fill-opacity: 0.6; stroke-width: 0; opacity: 1;"/><path class="sankey-link" d="M7.50114,412.8101587301587C188.10057000000003,412.8101587301587 188.10057000000003,616.9640724424864 368.70000000000005,616.9640724424864L368.70000000000005,639.8212152996293C188.10057000000003,639.8212152996293 188.10057000000003,435.6673015873016 7.50114,435.6673015873016Z" style="stroke: rgb(68, 68, 68); stroke-opacity: 1; fill: rgb(182, 232, 128); fill-opacity: 0.6; stroke-width: 0; opacity: 1;"/><path class="sankey-link" d="M7.50114,435.66730158730155C188.10057000000003,435.66730158730155 188.10057000000003,683.8108104328368 368.70000000000005,683.8108104328368L368.70000000000005,686.3504929725194C188.10057000000003,686.3504929725194 188.10057000000003,438.2069841269841 7.50114,438.2069841269841Z" style="stroke: rgb(68, 68, 68); stroke-opacity: 1; fill: rgb(255, 151, 255); fill-opacity: 0.6; stroke-width: 0; opacity: 1;"/><path class="sankey-link" d="M7.50114,480.6831746031748C188.10057000000003,480.6831746031748 188.10057000000003,118.32403328438585 368.70000000000005,118.32403328438585L368.70000000000005,151.33990630025886C188.10057000000003,151.33990630025886 188.10057000000003,513.6990476190479 7.50114,513.6990476190479Z" style="stroke: rgb(68, 68, 68); stroke-opacity: 1; fill: rgb(99, 110, 250); fill-opacity: 0.6; stroke-width: 0; opacity: 1;"/><path class="sankey-link" d="M7.50114,513.6990476190479C188.10057000000003,513.6990476190479 188.10057000000003,184.34984966086307 368.70000000000005,184.34984966086307L368.70000000000005,194.50857981959325C188.10057000000003,194.50857981959325 188.10057000000003,523.857777777778 7.50114,523.857777777778Z" style="stroke: rgb(68, 68, 68); stroke-opacity: 1; fill: rgb(0, 204, 150); fill-opacity: 0.6; stroke-width: 0; opacity: 1;"/><path class="sankey-link" d="M7.50114,523.857777777778C188.10057000000003,523.857777777778 188.10057000000003,228.3066079295154 368.70000000000005,228.3066079295154L368.70000000000005,248.6240682469757C188.10057000000003,248.6240682469757 188.10057000000003,544.1752380952382 7.50114,544.1752380952382Z" style="stroke: rgb(68, 68, 68); stroke-opacity: 1; fill: rgb(254, 203, 82); fill-opacity: 0.6; stroke-width: 0; opacity: 1;"/><path class="sankey-link" d="M7.50114,544.1752380952383C188.10057000000003,544.1752380952383 188.10057000000003,356.3953289979722 368.70000000000005,356.3953289979722L368.70000000000005,376.71278931543253C188.10057000000003,376.71278931543253 188.10057000000003,564.4926984126986 7.50114,564.4926984126986Z" style="stroke: rgb(68, 68, 68); stroke-opacity: 1; fill: rgb(171, 99, 250); fill-opacity: 0.6; stroke-width: 0; opacity: 1;"/><path class="sankey-link" d="M7.50114,564.4926984126987C188.10057000000003,564.4926984126987 188.10057000000003,494.2330746101672 368.70000000000005,494.2330746101672L368.70000000000005,595.8203761974688C188.10057000000003,595.8203761974688 188.10057000000003,666.0800000000004 7.50114,666.0800000000004Z" style="stroke: rgb(68, 68, 68); stroke-opacity: 1; fill: rgb(239, 85, 59); fill-opacity: 0.6; stroke-width: 0; opacity: 1;"/><path class="sankey-link" d="M7.50114,666.0800000000003C188.10057000000003,666.0800000000003 188.10057000000003,639.8212152996293 368.70000000000005,639.8212152996293L368.70000000000005,662.6783581567722C188.10057000000003,662.6783581567722 188.10057000000003,688.9371428571432 7.50114,688.9371428571432Z" style="stroke: rgb(68, 68, 68); stroke-opacity: 1; fill: rgb(182, 232, 128); fill-opacity: 0.6; stroke-width: 0; opacity: 1;"/><path class="sankey-link" d="M7.50114,688.9371428571432C188.10057000000003,688.9371428571432 188.10057000000003,686.3504929725193 368.70000000000005,686.3504929725193L368.70000000000005,688.890175512202C188.10057000000003,688.890175512202 188.10057000000003,691.4768253968258 7.50114,691.4768253968258Z" style="stroke: rgb(68, 68, 68); stroke-opacity: 1; fill: rgb(255, 151, 255); fill-opacity: 0.6; stroke-width: 0; opacity: 1;"/><path class="sankey-link" d="M383.70000000000005,14.104468219005653C564.3000000000001,14.104468219005653 564.3000000000001,25.773222912353447 744.9000000000001,25.773222912353447L744.9000000000001,28.312905452035984C564.3000000000001,28.312905452035984 564.3000000000001,16.64415075868819 383.70000000000005,16.64415075868819Z" style="stroke: rgb(68, 68, 68); stroke-opacity: 1; fill: rgb(25, 211, 243); fill-opacity: 0.6; stroke-width: 0; opacity: 1;"/><path class="sankey-link" d="M383.70000000000005,16.64415075868819C564.3000000000001,16.64415075868819 564.3000000000001,221.3507936507936 744.9000000000001,221.3507936507936L744.9000000000001,223.89047619047614C564.3000000000001,223.89047619047614 564.3000000000001,19.18383329837073 383.70000000000005,19.18383329837073Z" style="stroke: rgb(68, 68, 68); stroke-opacity: 1; fill: rgb(25, 211, 243); fill-opacity: 0.6; stroke-width: 0; opacity: 1;"/><path class="sankey-link" d="M383.70000000000005,19.18383329837073C564.3000000000001,19.18383329837073 564.3000000000001,295.4816425120772 744.9000000000001,295.4816425120772L744.9000000000001,303.1006901311248C564.3000000000001,303.1006901311248 564.3000000000001,26.80288091741835 383.70000000000005,26.80288091741835Z" style="stroke: rgb(68, 68, 68); stroke-opacity: 1; fill: rgb(25, 211, 243); fill-opacity: 0.6; stroke-width: 0; opacity: 1;"/><path class="sankey-link" d="M383.70000000000005,26.80288091741835C564.3000000000001,26.80288091741835 564.3000000000001,419.84444444444466 744.9000000000001,419.84444444444466L744.9000000000001,422.3841269841272C564.3000000000001,422.3841269841272 564.3000000000001,29.342563457100887 383.70000000000005,29.342563457100887Z" style="stroke: rgb(68, 68, 68); stroke-opacity: 1; fill: rgb(25, 211, 243); fill-opacity: 0.6; stroke-width: 0; opacity: 1;"/><path class="sankey-link" d="M383.70000000000005,29.342563457100887C564.3000000000001,29.342563457100887 564.3000000000001,531.1125603864735 744.9000000000001,531.1125603864735L744.9000000000001,536.1919254658386C564.3000000000001,536.1919254658386 564.3000000000001,34.42192853646596 383.70000000000005,34.42192853646596Z" style="stroke: rgb(68, 68, 68); stroke-opacity: 1; fill: rgb(25, 211, 243); fill-opacity: 0.6; stroke-width: 0; opacity: 1;"/><path class="sankey-link" d="M383.70000000000005,34.42192853646597C564.3000000000001,34.42192853646597 564.3000000000001,688.3548654244308 744.9000000000001,688.3548654244308L744.9000000000001,690.8945479641135C564.3000000000001,690.8945479641135 564.3000000000001,36.961611076148515 383.70000000000005,36.961611076148515Z" style="stroke: rgb(68, 68, 68); stroke-opacity: 1; fill: rgb(25, 211, 243); fill-opacity: 0.6; stroke-width: 0; opacity: 1;"/><path class="sankey-link" d="M383.70000000000005,49.75260471295729C564.3000000000001,49.75260471295729 564.3000000000001,28.312905452035984 744.9000000000001,28.312905452035984L744.9000000000001,43.551000690131225C564.3000000000001,43.551000690131225 564.3000000000001,64.99069995105253 383.70000000000005,64.99069995105253Z" style="stroke: rgb(68, 68, 68); stroke-opacity: 1; fill: rgb(99, 110, 250); fill-opacity: 0.6; stroke-width: 0; opacity: 1;"/><path class="sankey-link" d="M383.70000000000005,64.99069995105253C564.3000000000001,64.99069995105253 564.3000000000001,144.92028985507238 744.9000000000001,144.92028985507238L744.9000000000001,147.4599723947549C564.3000000000001,147.4599723947549 564.3000000000001,67.53038249073506 383.70000000000005,67.53038249073506Z" style="stroke: rgb(68, 68, 68); stroke-opacity: 1; fill: rgb(99, 110, 250); fill-opacity: 0.6; stroke-width: 0; opacity: 1;"/><path class="sankey-link" d="M383.70000000000005,67.53038249073508C564.3000000000001,67.53038249073508 564.3000000000001,223.89047619047614 744.9000000000001,223.89047619047614L744.9000000000001,226.43015873015867C564.3000000000001,226.43015873015867 564.3000000000001,70.07006503041761 383.70000000000005,70.07006503041761Z" style="stroke: rgb(68, 68, 68); stroke-opacity: 1; fill: rgb(99, 110, 250); fill-opacity: 0.6; stroke-width: 0; opacity: 1;"/><path class="sankey-link" d="M383.70000000000005,70.07006503041762C564.3000000000001,70.07006503041762 564.3000000000001,252.1287784679089 744.9000000000001,252.1287784679089L744.9000000000001,257.20814354727395C564.3000000000001,257.20814354727395 564.3000000000001,75.14943010978271 383.70000000000005,75.14943010978271Z" style="stroke: rgb(68, 68, 68); stroke-opacity: 1; fill: rgb(99, 110, 250); fill-opacity: 0.6; stroke-width: 0; opacity: 1;"/><path class="sankey-link" d="M383.70000000000005,75.1494301097827C564.3000000000001,75.1494301097827 564.3000000000001,303.1006901311248 744.9000000000001,303.1006901311248L744.9000000000001,328.4975155279502C564.3000000000001,328.4975155279502 564.3000000000001,100.54625550660809 383.70000000000005,100.54625550660809Z" style="stroke: rgb(68, 68, 68); stroke-opacity: 1; fill: rgb(99, 110, 250); fill-opacity: 0.6; stroke-width: 0; opacity: 1;"/><path class="sankey-link" d="M383.70000000000005,100.54625550660809C564.3000000000001,100.54625550660809 564.3000000000001,422.3841269841272 744.9000000000001,422.3841269841272L744.9000000000001,440.161904761905C564.3000000000001,440.161904761905 564.3000000000001,118.32403328438586 383.70000000000005,118.32403328438586Z" style="stroke: rgb(68, 68, 68); stroke-opacity: 1; fill: rgb(99, 110, 250); fill-opacity: 0.6; stroke-width: 0; opacity: 1;"/><path class="sankey-link" d="M383.70000000000005,118.32403328438588C564.3000000000001,118.32403328438588 564.3000000000001,536.1919254658386 744.9000000000001,536.1919254658386L744.9000000000001,556.5093857832989C564.3000000000001,556.5093857832989 564.3000000000001,138.64149360184618 383.70000000000005,138.64149360184618Z" style="stroke: rgb(68, 68, 68); stroke-opacity: 1; fill: rgb(99, 110, 250); fill-opacity: 0.6; stroke-width: 0; opacity: 1;"/><path class="sankey-link" d="M383.70000000000005,138.6414936018462C564.3000000000001,138.6414936018462 564.3000000000001,690.8945479641134 744.9000000000001,690.8945479641134L744.9000000000001,693.434230503796C564.3000000000001,693.434230503796 564.3000000000001,141.18117614152874 383.70000000000005,141.18117614152874Z" style="stroke: rgb(68, 68, 68); stroke-opacity: 1; fill: rgb(99, 110, 250); fill-opacity: 0.6; stroke-width: 0; opacity: 1;"/><path class="sankey-link" d="M383.70000000000005,164.03238934340274C564.3000000000001,164.03238934340274 564.3000000000001,43.55100069013122 744.9000000000001,43.55100069013122L744.9000000000001,46.09068322981376C564.3000000000001,46.09068322981376 564.3000000000001,166.57207188308527 383.70000000000005,166.57207188308527Z" style="stroke: rgb(68, 68, 68); stroke-opacity: 1; fill: rgb(0, 204, 150); fill-opacity: 0.6; stroke-width: 0; opacity: 1;"/><path class="sankey-link" d="M383.70000000000005,166.57207188308527C564.3000000000001,166.57207188308527 564.3000000000001,147.4599723947549 744.9000000000001,147.4599723947549L744.9000000000001,149.99965493443744C564.3000000000001,149.99965493443744 564.3000000000001,169.1117544227678 383.70000000000005,169.1117544227678Z" style="stroke: rgb(68, 68, 68); stroke-opacity: 1; fill: rgb(0, 204, 150); fill-opacity: 0.6; stroke-width: 0; opacity: 1;"/><path class="sankey-link" d="M383.70000000000005,169.1117544227678C564.3000000000001,169.1117544227678 564.3000000000001,328.4975155279502 744.9000000000001,328.4975155279502L744.9000000000001,333.5768806073153C564.3000000000001,333.5768806073153 564.3000000000001,174.19111950213286 383.70000000000005,174.19111950213286Z" style="stroke: rgb(68, 68, 68); stroke-opacity: 1; fill: rgb(0, 204, 150); fill-opacity: 0.6; stroke-width: 0; opacity: 1;"/><path class="sankey-link" d="M383.70000000000005,174.1911195021329C564.3000000000001,174.1911195021329 564.3000000000001,440.16190476190496 744.9000000000001,440.16190476190496L744.9000000000001,442.7015873015875C564.3000000000001,442.7015873015875 564.3000000000001,176.73080204181542 383.70000000000005,176.73080204181542Z" style="stroke: rgb(68, 68, 68); stroke-opacity: 1; fill: rgb(0, 204, 150); fill-opacity: 0.6; stroke-width: 0; opacity: 1;"/><path class="sankey-link" d="M383.70000000000005,176.73080204181542C564.3000000000001,176.73080204181542 564.3000000000001,556.509385783299 744.9000000000001,556.509385783299L744.9000000000001,564.1284334023467C564.3000000000001,564.1284334023467 564.3000000000001,184.34984966086301 383.70000000000005,184.34984966086301Z" style="stroke: rgb(68, 68, 68); stroke-opacity: 1; fill: rgb(0, 204, 150); fill-opacity: 0.6; stroke-width: 0; opacity: 1;"/><path class="sankey-link" d="M383.70000000000005,184.34984966086304C564.3000000000001,184.34984966086304 564.3000000000001,693.4342305037959 744.9000000000001,693.4342305037959L744.9000000000001,698.513595583161C564.3000000000001,698.513595583161 564.3000000000001,189.4292147402281 383.70000000000005,189.4292147402281Z" style="stroke: rgb(68, 68, 68); stroke-opacity: 1; fill: rgb(0, 204, 150); fill-opacity: 0.6; stroke-width: 0; opacity: 1;"/><path class="sankey-link" d="M383.70000000000005,207.9891476120551C564.3000000000001,207.9891476120551 564.3000000000001,46.090683229813756 744.9000000000001,46.090683229813756L744.9000000000001,48.6303657694963C564.3000000000001,48.6303657694963 564.3000000000001,210.52883015173762 383.70000000000005,210.52883015173762Z" style="stroke: rgb(68, 68, 68); stroke-opacity: 1; fill: rgb(254, 203, 82); fill-opacity: 0.6; stroke-width: 0; opacity: 1;"/><path class="sankey-link" d="M383.70000000000005,210.52883015173762C564.3000000000001,210.52883015173762 564.3000000000001,149.99965493443744 744.9000000000001,149.99965493443744L744.9000000000001,157.61870255348504C564.3000000000001,157.61870255348504 564.3000000000001,218.14787777078521 383.70000000000005,218.14787777078521Z" style="stroke: rgb(68, 68, 68); stroke-opacity: 1; fill: rgb(254, 203, 82); fill-opacity: 0.6; stroke-width: 0; opacity: 1;"/><path class="sankey-link" d="M383.70000000000005,218.14787777078524C564.3000000000001,218.14787777078524 564.3000000000001,333.5768806073153 744.9000000000001,333.5768806073153L744.9000000000001,336.1165631469978C564.3000000000001,336.1165631469978 564.3000000000001,220.68756031046777 383.70000000000005,220.68756031046777Z" style="stroke: rgb(68, 68, 68); stroke-opacity: 1; fill: rgb(254, 203, 82); fill-opacity: 0.6; stroke-width: 0; opacity: 1;"/><path class="sankey-link" d="M383.70000000000005,220.68756031046777C564.3000000000001,220.68756031046777 564.3000000000001,442.7015873015875 744.9000000000001,442.7015873015875L744.9000000000001,447.78095238095256C564.3000000000001,447.78095238095256 564.3000000000001,225.76692538983283 383.70000000000005,225.76692538983283Z" style="stroke: rgb(68, 68, 68); stroke-opacity: 1; fill: rgb(254, 203, 82); fill-opacity: 0.6; stroke-width: 0; opacity: 1;"/><path class="sankey-link" d="M383.70000000000005,225.76692538983286C564.3000000000001,225.76692538983286 564.3000000000001,564.1284334023466 744.9000000000001,564.1284334023466L744.9000000000001,571.7474810213943C564.3000000000001,571.7474810213943 564.3000000000001,233.38597300888046 383.70000000000005,233.38597300888046Z" style="stroke: rgb(68, 68, 68); stroke-opacity: 1; fill: rgb(254, 203, 82); fill-opacity: 0.6; stroke-width: 0; opacity: 1;"/><path class="sankey-link" d="M383.70000000000005,262.0389623103281C564.3000000000001,262.0389623103281 564.3000000000001,48.630365769496294 744.9000000000001,48.630365769496294L744.9000000000001,53.70973084886137C564.3000000000001,53.70973084886137 564.3000000000001,267.11832738969315 383.70000000000005,267.11832738969315Z" style="stroke: rgb(68, 68, 68); stroke-opacity: 1; fill: rgb(255, 161, 90); fill-opacity: 0.6; stroke-width: 0; opacity: 1;"/><path class="sankey-link" d="M383.70000000000005,267.11832738969315C564.3000000000001,267.11832738969315 564.3000000000001,226.43015873015867 744.9000000000001,226.43015873015867L744.9000000000001,228.9698412698412C564.3000000000001,228.9698412698412 564.3000000000001,269.6580099293757 383.70000000000005,269.6580099293757Z" style="stroke: rgb(68, 68, 68); stroke-opacity: 1; fill: rgb(255, 161, 90); fill-opacity: 0.6; stroke-width: 0; opacity: 1;"/><path class="sankey-link" d="M383.70000000000005,269.6580099293757C564.3000000000001,269.6580099293757 564.3000000000001,257.20814354727395 744.9000000000001,257.20814354727395L744.9000000000001,262.287508626639C564.3000000000001,262.287508626639 564.3000000000001,274.73737500874074 383.70000000000005,274.73737500874074Z" style="stroke: rgb(68, 68, 68); stroke-opacity: 1; fill: rgb(255, 161, 90); fill-opacity: 0.6; stroke-width: 0; opacity: 1;"/><path class="sankey-link" d="M383.70000000000005,274.73737500874074C564.3000000000001,274.73737500874074 564.3000000000001,336.1165631469978 744.9000000000001,336.1165631469978L744.9000000000001,346.2752933057279C564.3000000000001,346.2752933057279 564.3000000000001,284.89610516747086 383.70000000000005,284.89610516747086Z" style="stroke: rgb(68, 68, 68); stroke-opacity: 1; fill: rgb(255, 161, 90); fill-opacity: 0.6; stroke-width: 0; opacity: 1;"/><path class="sankey-link" d="M383.70000000000005,284.8961051674709C564.3000000000001,284.8961051674709 564.3000000000001,447.78095238095256 744.9000000000001,447.78095238095256L744.9000000000001,452.8603174603176C564.3000000000001,452.8603174603176 564.3000000000001,289.975470246836 383.70000000000005,289.975470246836Z" style="stroke: rgb(68, 68, 68); stroke-opacity: 1; fill: rgb(255, 161, 90); fill-opacity: 0.6; stroke-width: 0; opacity: 1;"/><path class="sankey-link" d="M383.70000000000005,289.975470246836C564.3000000000001,289.975470246836 564.3000000000001,571.7474810213942 744.9000000000001,571.7474810213942L744.9000000000001,579.3665286404419C564.3000000000001,579.3665286404419 564.3000000000001,297.5945178658836 383.70000000000005,297.5945178658836Z" style="stroke: rgb(68, 68, 68); stroke-opacity: 1; fill: rgb(255, 161, 90); fill-opacity: 0.6; stroke-width: 0; opacity: 1;"/><path class="sankey-link" d="M383.70000000000005,310.6810432836865C564.3000000000001,310.6810432836865 564.3000000000001,53.70973084886137 744.9000000000001,53.70973084886137L744.9000000000001,63.86846100759152C564.3000000000001,63.86846100759152 564.3000000000001,320.83977344241663 383.70000000000005,320.83977344241663Z" style="stroke: rgb(68, 68, 68); stroke-opacity: 1; fill: rgb(171, 99, 250); fill-opacity: 0.6; stroke-width: 0; opacity: 1;"/><path class="sankey-link" d="M383.70000000000005,320.8397734424167C564.3000000000001,320.8397734424167 564.3000000000001,157.61870255348506 744.9000000000001,157.61870255348506L744.9000000000001,167.77743271221524C564.3000000000001,167.77743271221524 564.3000000000001,330.9985036011468 383.70000000000005,330.9985036011468Z" style="stroke: rgb(68, 68, 68); stroke-opacity: 1; fill: rgb(171, 99, 250); fill-opacity: 0.6; stroke-width: 0; opacity: 1;"/><path class="sankey-link" d="M383.70000000000005,330.99850360114687C564.3000000000001,330.99850360114687 564.3000000000001,228.9698412698412 744.9000000000001,228.9698412698412L744.9000000000001,231.50952380952373C564.3000000000001,231.50952380952373 564.3000000000001,333.5381861408294 383.70000000000005,333.5381861408294Z" style="stroke: rgb(68, 68, 68); stroke-opacity: 1; fill: rgb(171, 99, 250); fill-opacity: 0.6; stroke-width: 0; opacity: 1;"/><path class="sankey-link" d="M383.70000000000005,333.5381861408294C564.3000000000001,333.5381861408294 564.3000000000001,262.287508626639 744.9000000000001,262.287508626639L744.9000000000001,264.82719116632154C564.3000000000001,264.82719116632154 564.3000000000001,336.0778686805119 383.70000000000005,336.0778686805119Z" style="stroke: rgb(68, 68, 68); stroke-opacity: 1; fill: rgb(171, 99, 250); fill-opacity: 0.6; stroke-width: 0; opacity: 1;"/><path class="sankey-link" d="M383.70000000000005,336.0778686805119C564.3000000000001,336.0778686805119 564.3000000000001,346.275293305728 744.9000000000001,346.275293305728L744.9000000000001,353.8943409247756C564.3000000000001,353.8943409247756 564.3000000000001,343.6969162995595 383.70000000000005,343.6969162995595Z" style="stroke: rgb(68, 68, 68); stroke-opacity: 1; fill: rgb(171, 99, 250); fill-opacity: 0.6; stroke-width: 0; opacity: 1;"/><path class="sankey-link" d="M383.70000000000005,343.6969162995595C564.3000000000001,343.6969162995595 564.3000000000001,452.8603174603176 744.9000000000001,452.8603174603176L744.9000000000001,468.0984126984128C564.3000000000001,468.0984126984128 564.3000000000001,358.9350115376547 383.70000000000005,358.9350115376547Z" style="stroke: rgb(68, 68, 68); stroke-opacity: 1; fill: rgb(171, 99, 250); fill-opacity: 0.6; stroke-width: 0; opacity: 1;"/><path class="sankey-link" d="M383.70000000000005,358.93501153765476C564.3000000000001,358.93501153765476 564.3000000000001,579.3665286404417 744.9000000000001,579.3665286404417L744.9000000000001,592.0649413388545C564.3000000000001,592.0649413388545 564.3000000000001,371.6334242360674 383.70000000000005,371.6334242360674Z" style="stroke: rgb(68, 68, 68); stroke-opacity: 1; fill: rgb(171, 99, 250); fill-opacity: 0.6; stroke-width: 0; opacity: 1;"/><path class="sankey-link" d="M383.70000000000005,371.63342423606747C564.3000000000001,371.63342423606747 564.3000000000001,698.513595583161 744.9000000000001,698.513595583161L744.9000000000001,701.0532781228436C564.3000000000001,701.0532781228436 564.3000000000001,374.17310677575 383.70000000000005,374.17310677575Z" style="stroke: rgb(68, 68, 68); stroke-opacity: 1; fill: rgb(171, 99, 250); fill-opacity: 0.6; stroke-width: 0; opacity: 1;"/><path class="sankey-link" d="M383.70000000000005,387.56640794350056C564.3000000000001,387.56640794350056 564.3000000000001,63.86846100759153 744.9000000000001,63.86846100759153L744.9000000000001,109.58274672187724C564.3000000000001,109.58274672187724 564.3000000000001,433.28069365778623 383.70000000000005,433.28069365778623Z" style="stroke: rgb(68, 68, 68); stroke-opacity: 1; fill: rgb(239, 85, 59); fill-opacity: 0.6; stroke-width: 0; opacity: 1;"/><path class="sankey-link" d="M383.70000000000005,433.2806936577863C564.3000000000001,433.2806936577863 564.3000000000001,167.77743271221522 744.9000000000001,167.77743271221522L744.9000000000001,193.17425810904064C564.3000000000001,193.17425810904064 564.3000000000001,458.6775190546117 383.70000000000005,458.6775190546117Z" style="stroke: rgb(68, 68, 68); stroke-opacity: 1; fill: rgb(239, 85, 59); fill-opacity: 0.6; stroke-width: 0; opacity: 1;"/><path class="sankey-link" d="M383.70000000000005,458.6775190546117C564.3000000000001,458.6775190546117 564.3000000000001,353.8943409247756 744.9000000000001,353.8943409247756L744.9000000000001,374.21180124223594C564.3000000000001,374.21180124223594 564.3000000000001,478.99497937207207 383.70000000000005,478.99497937207207Z" style="stroke: rgb(68, 68, 68); stroke-opacity: 1; fill: rgb(239, 85, 59); fill-opacity: 0.6; stroke-width: 0; opacity: 1;"/><path class="sankey-link" d="M383.70000000000005,478.994979372072C564.3000000000001,478.994979372072 564.3000000000001,468.09841269841286 744.9000000000001,468.09841269841286L744.9000000000001,488.4158730158732C564.3000000000001,488.4158730158732 564.3000000000001,499.31243968953237 383.70000000000005,499.31243968953237Z" style="stroke: rgb(68, 68, 68); stroke-opacity: 1; fill: rgb(239, 85, 59); fill-opacity: 0.6; stroke-width: 0; opacity: 1;"/><path class="sankey-link" d="M383.70000000000005,499.3124396895323C564.3000000000001,499.3124396895323 564.3000000000001,592.0649413388544 744.9000000000001,592.0649413388544L744.9000000000001,640.3189095928226C564.3000000000001,640.3189095928226 564.3000000000001,547.5664079435005 383.70000000000005,547.5664079435005Z" style="stroke: rgb(68, 68, 68); stroke-opacity: 1; fill: rgb(239, 85, 59); fill-opacity: 0.6; stroke-width: 0; opacity: 1;"/><path class="sankey-link" d="M383.70000000000005,547.5664079435005C564.3000000000001,547.5664079435005 564.3000000000001,701.0532781228435 744.9000000000001,701.0532781228435L744.9000000000001,703.5929606625261C564.3000000000001,703.5929606625261 564.3000000000001,550.1060904831832 383.70000000000005,550.1060904831832Z" style="stroke: rgb(68, 68, 68); stroke-opacity: 1; fill: rgb(239, 85, 59); fill-opacity: 0.6; stroke-width: 0; opacity: 1;"/><path class="sankey-link" d="M383.70000000000005,606.8053422837563C564.3000000000001,606.8053422837563 564.3000000000001,109.58274672187724 744.9000000000001,109.58274672187724L744.9000000000001,112.12242926155977C564.3000000000001,112.12242926155977 564.3000000000001,609.345024823439 383.70000000000005,609.345024823439Z" style="stroke: rgb(68, 68, 68); stroke-opacity: 1; fill: rgb(182, 232, 128); fill-opacity: 0.6; stroke-width: 0; opacity: 1;"/><path class="sankey-link" d="M383.70000000000005,609.3450248234388C564.3000000000001,609.3450248234388 564.3000000000001,193.1742581090406 744.9000000000001,193.1742581090406L744.9000000000001,198.25362318840567C564.3000000000001,198.25362318840567 564.3000000000001,614.4243899028039 383.70000000000005,614.4243899028039Z" style="stroke: rgb(68, 68, 68); stroke-opacity: 1; fill: rgb(182, 232, 128); fill-opacity: 0.6; stroke-width: 0; opacity: 1;"/><path class="sankey-link" d="M383.70000000000005,614.4243899028039C564.3000000000001,614.4243899028039 564.3000000000001,264.82719116632154 744.9000000000001,264.82719116632154L744.9000000000001,267.36687370600407C564.3000000000001,267.36687370600407 564.3000000000001,616.9640724424866 383.70000000000005,616.9640724424866Z" style="stroke: rgb(68, 68, 68); stroke-opacity: 1; fill: rgb(182, 232, 128); fill-opacity: 0.6; stroke-width: 0; opacity: 1;"/><path class="sankey-link" d="M383.70000000000005,616.9640724424864C564.3000000000001,616.9640724424864 564.3000000000001,374.2118012422359 744.9000000000001,374.2118012422359L744.9000000000001,384.370531400966C564.3000000000001,384.370531400966 564.3000000000001,627.1228026012166 383.70000000000005,627.1228026012166Z" style="stroke: rgb(68, 68, 68); stroke-opacity: 1; fill: rgb(182, 232, 128); fill-opacity: 0.6; stroke-width: 0; opacity: 1;"/><path class="sankey-link" d="M383.70000000000005,627.1228026012166C564.3000000000001,627.1228026012166 564.3000000000001,488.41587301587316 744.9000000000001,488.41587301587316L744.9000000000001,490.9555555555557C564.3000000000001,490.9555555555557 564.3000000000001,629.6624851408992 383.70000000000005,629.6624851408992Z" style="stroke: rgb(68, 68, 68); stroke-opacity: 1; fill: rgb(182, 232, 128); fill-opacity: 0.6; stroke-width: 0; opacity: 1;"/><path class="sankey-link" d="M383.70000000000005,629.6624851408991C564.3000000000001,629.6624851408991 564.3000000000001,640.3189095928226 744.9000000000001,640.3189095928226L744.9000000000001,655.5570048309178C564.3000000000001,655.5570048309178 564.3000000000001,644.9005803789943 383.70000000000005,644.9005803789943Z" style="stroke: rgb(68, 68, 68); stroke-opacity: 1; fill: rgb(182, 232, 128); fill-opacity: 0.6; stroke-width: 0; opacity: 1;"/><path class="sankey-link" d="M383.70000000000005,703.0931543248726C564.3000000000001,703.0931543248726 564.3000000000001,231.50952380952373 744.9000000000001,231.50952380952373L744.9000000000001,234.04920634920626C564.3000000000001,234.04920634920626 564.3000000000001,705.6328368645552 383.70000000000005,705.6328368645552Z" style="stroke: rgb(68, 68, 68); stroke-opacity: 1; fill: rgb(255, 102, 146); fill-opacity: 0.6; stroke-width: 0; opacity: 1;"/><path class="sankey-link" d="M759.9000000000001,25.773222912353447C946.19943,25.773222912353447 946.19943,14.87218771566597 1132.49886,14.87218771566597L1132.49886,17.411870255348507C946.19943,17.411870255348507 946.19943,28.312905452035984 759.9000000000001,28.312905452035984Z" style="stroke: rgb(68, 68, 68); stroke-opacity: 1; fill: rgb(25, 211, 243); fill-opacity: 0.6; stroke-width: 0; opacity: 1;"/><path class="sankey-link" d="M759.9000000000001,221.3507936507936C946.19943,221.3507936507936 946.19943,214.10786749482395 1132.49886,214.10786749482395L1132.49886,216.64755003450648C946.19943,216.64755003450648 946.19943,223.89047619047614 759.9000000000001,223.89047619047614Z" style="stroke: rgb(68, 68, 68); stroke-opacity: 1; fill: rgb(25, 211, 243); fill-opacity: 0.6; stroke-width: 0; opacity: 1;"/><path class="sankey-link" d="M759.9000000000001,295.4816425120772C946.19943,295.4816425120772 946.19943,300.43850931677025 1132.49886,300.43850931677025L1132.49886,302.9781918564528C946.19943,302.9781918564528 946.19943,298.02132505175973 759.9000000000001,298.02132505175973Z" style="stroke: rgb(68, 68, 68); stroke-opacity: 1; fill: rgb(25, 211, 243); fill-opacity: 0.6; stroke-width: 0; opacity: 1;"/><path class="sankey-link" d="M759.9000000000001,341.19592822636287C946.19943,341.19592822636287 946.19943,361.30400276052455 1132.49886,361.30400276052455L1132.49886,366.3833678398896C946.19943,366.3833678398896 946.19943,346.2752933057279 759.9000000000001,346.2752933057279Z" style="stroke: rgb(68, 68, 68); stroke-opacity: 1; fill: rgb(25, 211, 243); fill-opacity: 0.6; stroke-width: 0; opacity: 1;"/><path class="sankey-link" d="M759.9000000000001,450.3206349206351C946.19943,450.3206349206351 946.19943,464.97819185645255 1132.49886,464.97819185645255L1132.49886,467.5178743961351C946.19943,467.5178743961351 946.19943,452.8603174603176 759.9000000000001,452.8603174603176Z" style="stroke: rgb(68, 68, 68); stroke-opacity: 1; fill: rgb(25, 211, 243); fill-opacity: 0.6; stroke-width: 0; opacity: 1;"/><path class="sankey-link" d="M759.9000000000001,531.1125603864735C946.19943,531.1125603864735 946.19943,520.9574879227054 1132.49886,520.9574879227054L1132.49886,523.497170462388C946.19943,523.497170462388 946.19943,533.6522429261562 759.9000000000001,533.6522429261562Z" style="stroke: rgb(68, 68, 68); stroke-opacity: 1; fill: rgb(25, 211, 243); fill-opacity: 0.6; stroke-width: 0; opacity: 1;"/><path class="sankey-link" d="M759.9000000000001,602.2236714975845C946.19943,602.2236714975845 946.19943,607.5202898550724 1132.49886,607.5202898550724L1132.49886,610.059972394755C946.19943,610.059972394755 946.19943,604.7633540372672 759.9000000000001,604.7633540372672Z" style="stroke: rgb(68, 68, 68); stroke-opacity: 1; fill: rgb(25, 211, 243); fill-opacity: 0.6; stroke-width: 0; opacity: 1;"/><path class="sankey-link" d="M759.9000000000001,688.3548654244308C946.19943,688.3548654244308 946.19943,675.7687370600415 1132.49886,675.7687370600415L1132.49886,678.3084195997242C946.19943,678.3084195997242 946.19943,690.8945479641135 759.9000000000001,690.8945479641135Z" style="stroke: rgb(68, 68, 68); stroke-opacity: 1; fill: rgb(25, 211, 243); fill-opacity: 0.6; stroke-width: 0; opacity: 1;"/><path class="sankey-link" d="M759.9000000000001,28.312905452035984C946.19943,28.312905452035984 946.19943,17.41187025534851 1132.49886,17.41187025534851L1132.49886,25.03091787439613C946.19943,25.03091787439613 946.19943,35.931953071083605 759.9000000000001,35.931953071083605Z" style="stroke: rgb(68, 68, 68); stroke-opacity: 1; fill: rgb(99, 110, 250); fill-opacity: 0.6; stroke-width: 0; opacity: 1;"/><path class="sankey-link" d="M759.9000000000001,81.64623878536932C946.19943,81.64623878536932 946.19943,85.87494824016562 1132.49886,85.87494824016562L1132.49886,93.49399585921324C946.19943,93.49399585921324 946.19943,89.26528640441694 759.9000000000001,89.26528640441694Z" style="stroke: rgb(68, 68, 68); stroke-opacity: 1; fill: rgb(99, 110, 250); fill-opacity: 0.6; stroke-width: 0; opacity: 1;"/><path class="sankey-link" d="M759.9000000000001,162.69806763285013C946.19943,162.69806763285013 946.19943,163.78743961352663 1132.49886,163.78743961352663L1132.49886,166.32712215320916C946.19943,166.32712215320916 946.19943,165.23775017253266 759.9000000000001,165.23775017253266Z" style="stroke: rgb(68, 68, 68); stroke-opacity: 1; fill: rgb(99, 110, 250); fill-opacity: 0.6; stroke-width: 0; opacity: 1;"/><path class="sankey-link" d="M759.9000000000001,228.9698412698412C946.19943,228.9698412698412 946.19943,236.23423050379571 1132.49886,236.23423050379571L1132.49886,238.77391304347825C946.19943,238.77391304347825 946.19943,231.50952380952373 759.9000000000001,231.50952380952373Z" style="stroke: rgb(68, 68, 68); stroke-opacity: 1; fill: rgb(99, 110, 250); fill-opacity: 0.6; stroke-width: 0; opacity: 1;"/><path class="sankey-link" d="M759.9000000000001,252.1287784679089C946.19943,252.1287784679089 946.19943,255.86383712905445 1132.49886,255.86383712905445L1132.49886,260.9432022084195C946.19943,260.9432022084195 946.19943,257.20814354727395 759.9000000000001,257.20814354727395Z" style="stroke: rgb(68, 68, 68); stroke-opacity: 1; fill: rgb(99, 110, 250); fill-opacity: 0.6; stroke-width: 0; opacity: 1;"/><path class="sankey-link" d="M759.9000000000001,298.02132505175973C946.19943,298.02132505175973 946.19943,302.9781918564528 1132.49886,302.9781918564528L1132.49886,318.21628709454797C946.19943,318.21628709454797 946.19943,313.2594202898549 759.9000000000001,313.2594202898549Z" style="stroke: rgb(68, 68, 68); stroke-opacity: 1; fill: rgb(99, 110, 250); fill-opacity: 0.6; stroke-width: 0; opacity: 1;"/><path class="sankey-link" d="M759.9000000000001,346.2752933057279C946.19943,346.2752933057279 946.19943,366.3833678398896 1132.49886,366.3833678398896L1132.49886,376.54209799861974C946.19943,376.54209799861974 946.19943,356.43402346445805 759.9000000000001,356.43402346445805Z" style="stroke: rgb(68, 68, 68); stroke-opacity: 1; fill: rgb(99, 110, 250); fill-opacity: 0.6; stroke-width: 0; opacity: 1;"/><path class="sankey-link" d="M759.9000000000001,419.84444444444466C946.19943,419.84444444444466 946.19943,419.50103519668744 1132.49886,419.50103519668744L1132.49886,427.12008281573503C946.19943,427.12008281573503 946.19943,427.46349206349225 759.9000000000001,427.46349206349225Z" style="stroke: rgb(68, 68, 68); stroke-opacity: 1; fill: rgb(99, 110, 250); fill-opacity: 0.6; stroke-width: 0; opacity: 1;"/><path class="sankey-link" d="M759.9000000000001,452.8603174603176C946.19943,452.8603174603176 946.19943,467.5178743961351 1132.49886,467.5178743961351L1132.49886,477.6766045548652C946.19943,477.6766045548652 946.19943,463.01904761904774 759.9000000000001,463.01904761904774Z" style="stroke: rgb(68, 68, 68); stroke-opacity: 1; fill: rgb(99, 110, 250); fill-opacity: 0.6; stroke-width: 0; opacity: 1;"/><path class="sankey-link" d="M759.9000000000001,533.6522429261561C946.19943,533.6522429261561 946.19943,523.4971704623879 1132.49886,523.4971704623879L1132.49886,536.1955831608007C946.19943,536.1955831608007 946.19943,546.3506556245688 759.9000000000001,546.3506556245688Z" style="stroke: rgb(68, 68, 68); stroke-opacity: 1; fill: rgb(99, 110, 250); fill-opacity: 0.6; stroke-width: 0; opacity: 1;"/><path class="sankey-link" d="M759.9000000000001,604.763354037267C946.19943,604.763354037267 946.19943,610.0599723947549 1132.49886,610.0599723947549L1132.49886,617.6790200138026C946.19943,617.6790200138026 946.19943,612.3824016563148 759.9000000000001,612.3824016563148Z" style="stroke: rgb(68, 68, 68); stroke-opacity: 1; fill: rgb(99, 110, 250); fill-opacity: 0.6; stroke-width: 0; opacity: 1;"/><path class="sankey-link" d="M759.9000000000001,695.9739130434784C946.19943,695.9739130434784 946.19943,697.9165631469981 1132.49886,697.9165631469981L1132.49886,700.4562456866807C946.19943,700.4562456866807 946.19943,698.5135955831611 759.9000000000001,698.5135955831611Z" style="stroke: rgb(68, 68, 68); stroke-opacity: 1; fill: rgb(99, 110, 250); fill-opacity: 0.6; stroke-width: 0; opacity: 1;"/><path class="sankey-link" d="M759.9000000000001,35.931953071083605C946.19943,35.931953071083605 946.19943,25.03091787439613 1132.49886,25.03091787439613L1132.49886,27.57060041407867C946.19943,27.57060041407867 946.19943,38.47163561076615 759.9000000000001,38.47163561076615Z" style="stroke: rgb(68, 68, 68); stroke-opacity: 1; fill: rgb(0, 204, 150); fill-opacity: 0.6; stroke-width: 0; opacity: 1;"/><path class="sankey-link" d="M759.9000000000001,165.23775017253266C946.19943,165.23775017253266 946.19943,166.32712215320916 1132.49886,166.32712215320916L1132.49886,168.8668046928917C946.19943,168.8668046928917 946.19943,167.7774327122152 759.9000000000001,167.7774327122152Z" style="stroke: rgb(68, 68, 68); stroke-opacity: 1; fill: rgb(0, 204, 150); fill-opacity: 0.6; stroke-width: 0; opacity: 1;"/><path class="sankey-link" d="M759.9000000000001,313.259420289855C946.19943,313.259420289855 946.19943,318.216287094548 1132.49886,318.216287094548L1132.49886,320.75596963423055C946.19943,320.75596963423055 946.19943,315.7991028295375 759.9000000000001,315.7991028295375Z" style="stroke: rgb(68, 68, 68); stroke-opacity: 1; fill: rgb(0, 204, 150); fill-opacity: 0.6; stroke-width: 0; opacity: 1;"/><path class="sankey-link" d="M759.9000000000001,356.4340234644581C946.19943,356.4340234644581 946.19943,376.5420979986198 1132.49886,376.5420979986198L1132.49886,379.0817805383023C946.19943,379.0817805383023 946.19943,358.97370600414064 759.9000000000001,358.97370600414064Z" style="stroke: rgb(68, 68, 68); stroke-opacity: 1; fill: rgb(0, 204, 150); fill-opacity: 0.6; stroke-width: 0; opacity: 1;"/><path class="sankey-link" d="M759.9000000000001,463.0190476190478C946.19943,463.0190476190478 946.19943,477.67660455486526 1132.49886,477.67660455486526L1132.49886,480.2162870945478C946.19943,480.2162870945478 946.19943,465.5587301587303 759.9000000000001,465.5587301587303Z" style="stroke: rgb(68, 68, 68); stroke-opacity: 1; fill: rgb(0, 204, 150); fill-opacity: 0.6; stroke-width: 0; opacity: 1;"/><path class="sankey-link" d="M759.9000000000001,546.3506556245687C946.19943,546.3506556245687 946.19943,536.1955831608005 1132.49886,536.1955831608005L1132.49886,541.2749482401656C946.19943,541.2749482401656 946.19943,551.4300207039338 759.9000000000001,551.4300207039338Z" style="stroke: rgb(68, 68, 68); stroke-opacity: 1; fill: rgb(0, 204, 150); fill-opacity: 0.6; stroke-width: 0; opacity: 1;"/><path class="sankey-link" d="M759.9000000000001,612.3824016563146C946.19943,612.3824016563146 946.19943,617.6790200138025 1132.49886,617.6790200138025L1132.49886,620.2187025534852C946.19943,620.2187025534852 946.19943,614.9220841959973 759.9000000000001,614.9220841959973Z" style="stroke: rgb(68, 68, 68); stroke-opacity: 1; fill: rgb(0, 204, 150); fill-opacity: 0.6; stroke-width: 0; opacity: 1;"/><path class="sankey-link" d="M759.9000000000001,690.8945479641134C946.19943,690.8945479641134 946.19943,678.3084195997241 1132.49886,678.3084195997241L1132.49886,680.8481021394067C946.19943,680.8481021394067 946.19943,693.434230503796 759.9000000000001,693.434230503796Z" style="stroke: rgb(68, 68, 68); stroke-opacity: 1; fill: rgb(0, 204, 150); fill-opacity: 0.6; stroke-width: 0; opacity: 1;"/><path class="sankey-link" d="M759.9000000000001,698.513595583161C946.19943,698.513595583161 946.19943,700.4562456866806 1132.49886,700.4562456866806L1132.49886,702.9959282263633C946.19943,702.9959282263633 946.19943,701.0532781228436 759.9000000000001,701.0532781228436Z" style="stroke: rgb(68, 68, 68); stroke-opacity: 1; fill: rgb(0, 204, 150); fill-opacity: 0.6; stroke-width: 0; opacity: 1;"/><path class="sankey-link" d="M759.9000000000001,89.26528640441694C946.19943,89.26528640441694 946.19943,93.49399585921324 1132.49886,93.49399585921324L1132.49886,96.03367839889577C946.19943,96.03367839889577 946.19943,91.80496894409947 759.9000000000001,91.80496894409947Z" style="stroke: rgb(68, 68, 68); stroke-opacity: 1; fill: rgb(254, 203, 82); fill-opacity: 0.6; stroke-width: 0; opacity: 1;"/><path class="sankey-link" d="M759.9000000000001,144.92028985507238C946.19943,144.92028985507238 946.19943,131.15893719806763 1132.49886,131.15893719806763L1132.49886,133.69861973775016C946.19943,133.69861973775016 946.19943,147.4599723947549 759.9000000000001,147.4599723947549Z" style="stroke: rgb(68, 68, 68); stroke-opacity: 1; fill: rgb(254, 203, 82); fill-opacity: 0.6; stroke-width: 0; opacity: 1;"/><path class="sankey-link" d="M759.9000000000001,167.7774327122152C946.19943,167.7774327122152 946.19943,168.8668046928917 1132.49886,168.8668046928917L1132.49886,173.94616977225675C946.19943,173.94616977225675 946.19943,172.85679779158025 759.9000000000001,172.85679779158025Z" style="stroke: rgb(68, 68, 68); stroke-opacity: 1; fill: rgb(254, 203, 82); fill-opacity: 0.6; stroke-width: 0; opacity: 1;"/><path class="sankey-link" d="M759.9000000000001,315.7991028295375C946.19943,315.7991028295375 946.19943,320.75596963423055 1132.49886,320.75596963423055L1132.49886,323.2956521739131C946.19943,323.2956521739131 946.19943,318.33878536922003 759.9000000000001,318.33878536922003Z" style="stroke: rgb(68, 68, 68); stroke-opacity: 1; fill: rgb(254, 203, 82); fill-opacity: 0.6; stroke-width: 0; opacity: 1;"/><path class="sankey-link" d="M759.9000000000001,427.46349206349225C946.19943,427.46349206349225 946.19943,427.12008281573503 1132.49886,427.12008281573503L1132.49886,432.1994478951001C946.19943,432.1994478951001 946.19943,432.5428571428573 759.9000000000001,432.5428571428573Z" style="stroke: rgb(68, 68, 68); stroke-opacity: 1; fill: rgb(254, 203, 82); fill-opacity: 0.6; stroke-width: 0; opacity: 1;"/><path class="sankey-link" d="M759.9000000000001,551.4300207039338C946.19943,551.4300207039338 946.19943,541.2749482401656 1132.49886,541.2749482401656L1132.49886,548.8939958592133C946.19943,548.8939958592133 946.19943,559.0490683229815 759.9000000000001,559.0490683229815Z" style="stroke: rgb(68, 68, 68); stroke-opacity: 1; fill: rgb(254, 203, 82); fill-opacity: 0.6; stroke-width: 0; opacity: 1;"/><path class="sankey-link" d="M759.9000000000001,38.47163561076614C946.19943,38.47163561076614 946.19943,27.57060041407867 1132.49886,27.57060041407867L1132.49886,30.110282953761207C946.19943,30.110282953761207 946.19943,41.01131815044869 759.9000000000001,41.01131815044869Z" style="stroke: rgb(68, 68, 68); stroke-opacity: 1; fill: rgb(255, 161, 90); fill-opacity: 0.6; stroke-width: 0; opacity: 1;"/><path class="sankey-link" d="M759.9000000000001,91.80496894409949C946.19943,91.80496894409949 946.19943,96.03367839889579 1132.49886,96.03367839889579L1132.49886,98.57336093857832C946.19943,98.57336093857832 946.19943,94.34465148378202 759.9000000000001,94.34465148378202Z" style="stroke: rgb(68, 68, 68); stroke-opacity: 1; fill: rgb(255, 161, 90); fill-opacity: 0.6; stroke-width: 0; opacity: 1;"/><path class="sankey-link" d="M759.9000000000001,223.89047619047614C946.19943,223.89047619047614 946.19943,216.64755003450648 1132.49886,216.64755003450648L1132.49886,219.187232574189C946.19943,219.187232574189 946.19943,226.43015873015867 759.9000000000001,226.43015873015867Z" style="stroke: rgb(68, 68, 68); stroke-opacity: 1; fill: rgb(255, 161, 90); fill-opacity: 0.6; stroke-width: 0; opacity: 1;"/><path class="sankey-link" d="M759.9000000000001,257.20814354727395C946.19943,257.20814354727395 946.19943,260.9432022084195 1132.49886,260.9432022084195L1132.49886,266.02256728778457C946.19943,266.02256728778457 946.19943,262.287508626639 759.9000000000001,262.287508626639Z" style="stroke: rgb(68, 68, 68); stroke-opacity: 1; fill: rgb(255, 161, 90); fill-opacity: 0.6; stroke-width: 0; opacity: 1;"/><path class="sankey-link" d="M759.9000000000001,318.33878536922003C946.19943,318.33878536922003 946.19943,323.2956521739131 1132.49886,323.2956521739131L1132.49886,328.37501725327814C946.19943,328.37501725327814 946.19943,323.4181504485851 759.9000000000001,323.4181504485851Z" style="stroke: rgb(68, 68, 68); stroke-opacity: 1; fill: rgb(255, 161, 90); fill-opacity: 0.6; stroke-width: 0; opacity: 1;"/><path class="sankey-link" d="M759.9000000000001,358.97370600414064C946.19943,358.97370600414064 946.19943,379.0817805383023 1132.49886,379.0817805383023L1132.49886,384.1611456176674C946.19943,384.1611456176674 946.19943,364.0530710835057 759.9000000000001,364.0530710835057Z" style="stroke: rgb(68, 68, 68); stroke-opacity: 1; fill: rgb(255, 161, 90); fill-opacity: 0.6; stroke-width: 0; opacity: 1;"/><path class="sankey-link" d="M759.9000000000001,432.5428571428573C946.19943,432.5428571428573 946.19943,432.1994478951001 1132.49886,432.1994478951001L1132.49886,437.27881297446515C946.19943,437.27881297446515 946.19943,437.6222222222224 759.9000000000001,437.6222222222224Z" style="stroke: rgb(68, 68, 68); stroke-opacity: 1; fill: rgb(255, 161, 90); fill-opacity: 0.6; stroke-width: 0; opacity: 1;"/><path class="sankey-link" d="M759.9000000000001,559.0490683229814C946.19943,559.0490683229814 946.19943,548.8939958592132 1132.49886,548.8939958592132L1132.49886,551.4336783988958C946.19943,551.4336783988958 946.19943,561.588750862664 759.9000000000001,561.588750862664Z" style="stroke: rgb(68, 68, 68); stroke-opacity: 1; fill: rgb(255, 161, 90); fill-opacity: 0.6; stroke-width: 0; opacity: 1;"/><path class="sankey-link" d="M759.9000000000001,614.9220841959972C946.19943,614.9220841959972 946.19943,620.2187025534851 1132.49886,620.2187025534851L1132.49886,625.2980676328501C946.19943,625.2980676328501 946.19943,620.0014492753622 759.9000000000001,620.0014492753622Z" style="stroke: rgb(68, 68, 68); stroke-opacity: 1; fill: rgb(255, 161, 90); fill-opacity: 0.6; stroke-width: 0; opacity: 1;"/><path class="sankey-link" d="M759.9000000000001,41.01131815044868C946.19943,41.01131815044868 946.19943,30.110282953761207 1132.49886,30.110282953761207L1132.49886,32.649965493443744C946.19943,32.649965493443744 946.19943,43.551000690131225 759.9000000000001,43.551000690131225Z" style="stroke: rgb(68, 68, 68); stroke-opacity: 1; fill: rgb(171, 99, 250); fill-opacity: 0.6; stroke-width: 0; opacity: 1;"/><path class="sankey-link" d="M759.9000000000001,94.34465148378203C946.19943,94.34465148378203 946.19943,98.57336093857833 1132.49886,98.57336093857833L1132.49886,106.19240855762595C946.19943,106.19240855762595 946.19943,101.96369910282965 759.9000000000001,101.96369910282965Z" style="stroke: rgb(68, 68, 68); stroke-opacity: 1; fill: rgb(171, 99, 250); fill-opacity: 0.6; stroke-width: 0; opacity: 1;"/><path class="sankey-link" d="M759.9000000000001,147.4599723947549C946.19943,147.4599723947549 946.19943,133.69861973775016 1132.49886,133.69861973775016L1132.49886,136.2383022774327C946.19943,136.2383022774327 946.19943,149.99965493443744 759.9000000000001,149.99965493443744Z" style="stroke: rgb(68, 68, 68); stroke-opacity: 1; fill: rgb(171, 99, 250); fill-opacity: 0.6; stroke-width: 0; opacity: 1;"/><path class="sankey-link" d="M759.9000000000001,172.85679779158028C946.19943,172.85679779158028 946.19943,173.94616977225678 1132.49886,173.94616977225678L1132.49886,181.56521739130437C946.19943,181.56521739130437 946.19943,180.47584541062787 759.9000000000001,180.47584541062787Z" style="stroke: rgb(68, 68, 68); stroke-opacity: 1; fill: rgb(171, 99, 250); fill-opacity: 0.6; stroke-width: 0; opacity: 1;"/><path class="sankey-link" d="M759.9000000000001,226.43015873015867C946.19943,226.43015873015867 946.19943,219.187232574189 1132.49886,219.187232574189L1132.49886,221.72691511387154C946.19943,221.72691511387154 946.19943,228.9698412698412 759.9000000000001,228.9698412698412Z" style="stroke: rgb(68, 68, 68); stroke-opacity: 1; fill: rgb(171, 99, 250); fill-opacity: 0.6; stroke-width: 0; opacity: 1;"/><path class="sankey-link" d="M759.9000000000001,262.287508626639C946.19943,262.287508626639 946.19943,266.02256728778457 1132.49886,266.02256728778457L1132.49886,268.5622498274671C946.19943,268.5622498274671 946.19943,264.82719116632154 759.9000000000001,264.82719116632154Z" style="stroke: rgb(68, 68, 68); stroke-opacity: 1; fill: rgb(171, 99, 250); fill-opacity: 0.6; stroke-width: 0; opacity: 1;"/><path class="sankey-link" d="M759.9000000000001,323.4181504485851C946.19943,323.4181504485851 946.19943,328.37501725327814 1132.49886,328.37501725327814L1132.49886,330.9146997929607C946.19943,330.9146997929607 946.19943,325.9578329882676 759.9000000000001,325.9578329882676Z" style="stroke: rgb(68, 68, 68); stroke-opacity: 1; fill: rgb(171, 99, 250); fill-opacity: 0.6; stroke-width: 0; opacity: 1;"/><path class="sankey-link" d="M759.9000000000001,364.0530710835057C946.19943,364.0530710835057 946.19943,384.1611456176674 1132.49886,384.1611456176674L1132.49886,389.24051069703245C946.19943,389.24051069703245 946.19943,369.13243616287076 759.9000000000001,369.13243616287076Z" style="stroke: rgb(68, 68, 68); stroke-opacity: 1; fill: rgb(171, 99, 250); fill-opacity: 0.6; stroke-width: 0; opacity: 1;"/><path class="sankey-link" d="M759.9000000000001,437.6222222222224C946.19943,437.6222222222224 946.19943,437.27881297446515 1132.49886,437.27881297446515L1132.49886,439.8184955141477C946.19943,439.8184955141477 946.19943,440.1619047619049 759.9000000000001,440.1619047619049Z" style="stroke: rgb(68, 68, 68); stroke-opacity: 1; fill: rgb(171, 99, 250); fill-opacity: 0.6; stroke-width: 0; opacity: 1;"/><path class="sankey-link" d="M759.9000000000001,465.5587301587303C946.19943,465.5587301587303 946.19943,480.2162870945478 1132.49886,480.2162870945478L1132.49886,492.91469979296045C946.19943,492.91469979296045 946.19943,478.257142857143 759.9000000000001,478.257142857143Z" style="stroke: rgb(68, 68, 68); stroke-opacity: 1; fill: rgb(171, 99, 250); fill-opacity: 0.6; stroke-width: 0; opacity: 1;"/><path class="sankey-link" d="M759.9000000000001,561.5887508626639C946.19943,561.5887508626639 946.19943,551.4336783988957 1132.49886,551.4336783988957L1132.49886,556.5130434782608C946.19943,556.5130434782608 946.19943,566.668115942029 759.9000000000001,566.668115942029Z" style="stroke: rgb(68, 68, 68); stroke-opacity: 1; fill: rgb(171, 99, 250); fill-opacity: 0.6; stroke-width: 0; opacity: 1;"/><path class="sankey-link" d="M759.9000000000001,620.0014492753622C946.19943,620.0014492753622 946.19943,625.2980676328501 1132.49886,625.2980676328501L1132.49886,632.9171152518978C946.19943,632.9171152518978 946.19943,627.6204968944099 759.9000000000001,627.6204968944099Z" style="stroke: rgb(68, 68, 68); stroke-opacity: 1; fill: rgb(171, 99, 250); fill-opacity: 0.6; stroke-width: 0; opacity: 1;"/><path class="sankey-link" d="M759.9000000000001,693.4342305037959C946.19943,693.4342305037959 946.19943,680.8481021394066 1132.49886,680.8481021394066L1132.49886,683.3877846790892C946.19943,683.3877846790892 946.19943,695.9739130434785 759.9000000000001,695.9739130434785Z" style="stroke: rgb(68, 68, 68); stroke-opacity: 1; fill: rgb(171, 99, 250); fill-opacity: 0.6; stroke-width: 0; opacity: 1;"/><path class="sankey-link" d="M759.9000000000001,43.55100069013122C946.19943,43.55100069013122 946.19943,32.649965493443744 1132.49886,32.649965493443744L1132.49886,70.74520358868185C946.19943,70.74520358868185 946.19943,81.64623878536932 759.9000000000001,81.64623878536932Z" style="stroke: rgb(68, 68, 68); stroke-opacity: 1; fill: rgb(239, 85, 59); fill-opacity: 0.6; stroke-width: 0; opacity: 1;"/><path class="sankey-link" d="M759.9000000000001,101.96369910282965C946.19943,101.96369910282965 946.19943,106.19240855762595 1132.49886,106.19240855762595L1132.49886,113.81145617667357C946.19943,113.81145617667357 946.19943,109.58274672187727 759.9000000000001,109.58274672187727Z" style="stroke: rgb(68, 68, 68); stroke-opacity: 1; fill: rgb(239, 85, 59); fill-opacity: 0.6; stroke-width: 0; opacity: 1;"/><path class="sankey-link" d="M759.9000000000001,149.99965493443744C946.19943,149.99965493443744 946.19943,136.2383022774327 1132.49886,136.2383022774327L1132.49886,146.39703243616287C946.19943,146.39703243616287 946.19943,160.15838509316762 759.9000000000001,160.15838509316762Z" style="stroke: rgb(68, 68, 68); stroke-opacity: 1; fill: rgb(239, 85, 59); fill-opacity: 0.6; stroke-width: 0; opacity: 1;"/><path class="sankey-link" d="M759.9000000000001,180.4758454106279C946.19943,180.4758454106279 946.19943,181.5652173913044 1132.49886,181.5652173913044L1132.49886,196.80331262939964C946.19943,196.80331262939964 946.19943,195.71394064872314 759.9000000000001,195.71394064872314Z" style="stroke: rgb(68, 68, 68); stroke-opacity: 1; fill: rgb(239, 85, 59); fill-opacity: 0.6; stroke-width: 0; opacity: 1;"/><path class="sankey-link" d="M759.9000000000001,325.9578329882676C946.19943,325.9578329882676 946.19943,330.9146997929607 1132.49886,330.9146997929607L1132.49886,343.61311249137333C946.19943,343.61311249137333 946.19943,338.6562456866803 759.9000000000001,338.6562456866803Z" style="stroke: rgb(68, 68, 68); stroke-opacity: 1; fill: rgb(239, 85, 59); fill-opacity: 0.6; stroke-width: 0; opacity: 1;"/><path class="sankey-link" d="M759.9000000000001,369.13243616287076C946.19943,369.13243616287076 946.19943,389.24051069703245 1132.49886,389.24051069703245L1132.49886,396.85955831608004C946.19943,396.85955831608004 946.19943,376.75148378191835 759.9000000000001,376.75148378191835Z" style="stroke: rgb(68, 68, 68); stroke-opacity: 1; fill: rgb(239, 85, 59); fill-opacity: 0.6; stroke-width: 0; opacity: 1;"/><path class="sankey-link" d="M759.9000000000001,440.1619047619049C946.19943,440.1619047619049 946.19943,439.8184955141477 1132.49886,439.8184955141477L1132.49886,449.9772256728778C946.19943,449.9772256728778 946.19943,450.32063492063503 759.9000000000001,450.32063492063503Z" style="stroke: rgb(68, 68, 68); stroke-opacity: 1; fill: rgb(239, 85, 59); fill-opacity: 0.6; stroke-width: 0; opacity: 1;"/><path class="sankey-link" d="M759.9000000000001,478.25714285714304C946.19943,478.25714285714304 946.19943,492.9146997929605 1132.49886,492.9146997929605L1132.49886,503.0734299516906C946.19943,503.0734299516906 946.19943,488.41587301587316 759.9000000000001,488.41587301587316Z" style="stroke: rgb(68, 68, 68); stroke-opacity: 1; fill: rgb(239, 85, 59); fill-opacity: 0.6; stroke-width: 0; opacity: 1;"/><path class="sankey-link" d="M759.9000000000001,566.668115942029C946.19943,566.668115942029 946.19943,556.5130434782608 1132.49886,556.5130434782608L1132.49886,586.9892339544512C946.19943,586.9892339544512 946.19943,597.1443064182193 759.9000000000001,597.1443064182193Z" style="stroke: rgb(68, 68, 68); stroke-opacity: 1; fill: rgb(239, 85, 59); fill-opacity: 0.6; stroke-width: 0; opacity: 1;"/><path class="sankey-link" d="M759.9000000000001,627.6204968944098C946.19943,627.6204968944098 946.19943,632.9171152518977 1132.49886,632.9171152518977L1132.49886,650.6948930296755C946.19943,650.6948930296755 946.19943,645.3982746721877 759.9000000000001,645.3982746721877Z" style="stroke: rgb(68, 68, 68); stroke-opacity: 1; fill: rgb(239, 85, 59); fill-opacity: 0.6; stroke-width: 0; opacity: 1;"/><path class="sankey-link" d="M759.9000000000001,701.0532781228435C946.19943,701.0532781228435 946.19943,702.9959282263632 1132.49886,702.9959282263632L1132.49886,705.5356107660458C946.19943,705.5356107660458 946.19943,703.5929606625261 759.9000000000001,703.5929606625261Z" style="stroke: rgb(68, 68, 68); stroke-opacity: 1; fill: rgb(239, 85, 59); fill-opacity: 0.6; stroke-width: 0; opacity: 1;"/><path class="sankey-link" d="M759.9000000000001,109.58274672187727C946.19943,109.58274672187727 946.19943,113.81145617667357 1132.49886,113.81145617667357L1132.49886,116.3511387163561C946.19943,116.3511387163561 946.19943,112.1224292615598 759.9000000000001,112.1224292615598Z" style="stroke: rgb(68, 68, 68); stroke-opacity: 1; fill: rgb(182, 232, 128); fill-opacity: 0.6; stroke-width: 0; opacity: 1;"/><path class="sankey-link" d="M759.9000000000001,160.1583850931676C946.19943,160.1583850931676 946.19943,146.39703243616285 1132.49886,146.39703243616285L1132.49886,148.93671497584538C946.19943,148.93671497584538 946.19943,162.69806763285013 759.9000000000001,162.69806763285013Z" style="stroke: rgb(68, 68, 68); stroke-opacity: 1; fill: rgb(182, 232, 128); fill-opacity: 0.6; stroke-width: 0; opacity: 1;"/><path class="sankey-link" d="M759.9000000000001,195.71394064872314C946.19943,195.71394064872314 946.19943,196.80331262939964 1132.49886,196.80331262939964L1132.49886,199.34299516908217C946.19943,199.34299516908217 946.19943,198.25362318840567 759.9000000000001,198.25362318840567Z" style="stroke: rgb(68, 68, 68); stroke-opacity: 1; fill: rgb(182, 232, 128); fill-opacity: 0.6; stroke-width: 0; opacity: 1;"/><path class="sankey-link" d="M759.9000000000001,264.82719116632154C946.19943,264.82719116632154 946.19943,283.09102829537613 1132.49886,283.09102829537613L1132.49886,285.63071083505866C946.19943,285.63071083505866 946.19943,267.36687370600407 759.9000000000001,267.36687370600407Z" style="stroke: rgb(68, 68, 68); stroke-opacity: 1; fill: rgb(182, 232, 128); fill-opacity: 0.6; stroke-width: 0; opacity: 1;"/><path class="sankey-link" d="M759.9000000000001,338.65624568668034C946.19943,338.65624568668034 946.19943,343.6131124913734 1132.49886,343.6131124913734L1132.49886,346.1527950310559C946.19943,346.1527950310559 946.19943,341.19592822636287 759.9000000000001,341.19592822636287Z" style="stroke: rgb(68, 68, 68); stroke-opacity: 1; fill: rgb(182, 232, 128); fill-opacity: 0.6; stroke-width: 0; opacity: 1;"/><path class="sankey-link" d="M759.9000000000001,376.75148378191835C946.19943,376.75148378191835 946.19943,396.85955831608004 1132.49886,396.85955831608004L1132.49886,404.47860593512763C946.19943,404.47860593512763 946.19943,384.37053140096594 759.9000000000001,384.37053140096594Z" style="stroke: rgb(68, 68, 68); stroke-opacity: 1; fill: rgb(182, 232, 128); fill-opacity: 0.6; stroke-width: 0; opacity: 1;"/><path class="sankey-link" d="M759.9000000000001,488.4158730158732C946.19943,488.4158730158732 946.19943,503.0734299516907 1132.49886,503.0734299516907L1132.49886,505.6131124913732C946.19943,505.6131124913732 946.19943,490.95555555555575 759.9000000000001,490.95555555555575Z" style="stroke: rgb(68, 68, 68); stroke-opacity: 1; fill: rgb(182, 232, 128); fill-opacity: 0.6; stroke-width: 0; opacity: 1;"/><path class="sankey-link" d="M759.9000000000001,597.1443064182195C946.19943,597.1443064182195 946.19943,586.9892339544513 1132.49886,586.9892339544513L1132.49886,592.0685990338163C946.19943,592.0685990338163 946.19943,602.2236714975845 759.9000000000001,602.2236714975845Z" style="stroke: rgb(68, 68, 68); stroke-opacity: 1; fill: rgb(182, 232, 128); fill-opacity: 0.6; stroke-width: 0; opacity: 1;"/><path class="sankey-link" d="M759.9000000000001,645.3982746721877C946.19943,645.3982746721877 946.19943,650.6948930296755 1132.49886,650.6948930296755L1132.49886,660.8536231884057C946.19943,660.8536231884057 946.19943,655.5570048309178 759.9000000000001,655.5570048309178Z" style="stroke: rgb(68, 68, 68); stroke-opacity: 1; fill: rgb(182, 232, 128); fill-opacity: 0.6; stroke-width: 0; opacity: 1;"/><path class="sankey-link" d="M759.9000000000001,231.50952380952373C946.19943,231.50952380952373 946.19943,238.77391304347825 1132.49886,238.77391304347825L1132.49886,241.31359558316078C946.19943,241.31359558316078 946.19943,234.04920634920626 759.9000000000001,234.04920634920626Z" style="stroke: rgb(68, 68, 68); stroke-opacity: 1; fill: rgb(255, 102, 146); fill-opacity: 0.6; stroke-width: 0; opacity: 1;"/></g><g class="sankey-node-set" style="cursor: ns-resize;"><g class="sankey-node" transform="translate(-7.499,17.973)" style="opacity: 1;"><rect class="node-rect" width="15" height="53.33333333333326" style="stroke-width: 0.5; stroke: rgb(0, 0, 0); stroke-opacity: 1; fill: rgb(128, 128, 128); fill-opacity: 1;"/><text class="node-label" data-notex="1" x="0" y="0" text-anchor="start" transform="translate(18.25,30.866666666666628)" style="cursor: default; font-family: 'Open Sans', verdana, arial, sans-serif; font-size: 12px; fill: rgb(42, 63, 95); fill-opacity: 1; white-space: pre; text-shadow: white 1px 1px 1px, white -1px -1px 1px, white 1px -1px 1px, white -1px 1px 1px;">21271R</text></g><g class="sankey-node" transform="translate(-7.499,92.003)" style="opacity: 1;"><rect class="node-rect" width="15" height="40.63492063492072" style="stroke-width: 0.5; stroke: rgb(0, 0, 0); stroke-opacity: 1; fill: rgb(128, 128, 128); fill-opacity: 1;"/><text class="node-label" data-notex="1" x="0" y="0" text-anchor="start" transform="translate(18.25,24.51746031746036)" style="cursor: default; font-family: 'Open Sans', verdana, arial, sans-serif; font-size: 12px; fill: rgb(42, 63, 95); fill-opacity: 1; white-space: pre; text-shadow: white 1px 1px 1px, white -1px -1px 1px, white 1px -1px 1px, white -1px 1px 1px;">21272R</text></g><g class="sankey-node" transform="translate(-7.499,152.823)" style="opacity: 1;"><rect class="node-rect" width="15" height="45.71428571428544" style="stroke-width: 0.5; stroke: rgb(0, 0, 0); stroke-opacity: 1; fill: rgb(128, 128, 128); fill-opacity: 1;"/><text class="node-label" data-notex="1" x="0" y="0" text-anchor="start" transform="translate(18.25,27.05714285714272)" style="cursor: default; font-family: 'Open Sans', verdana, arial, sans-serif; font-size: 12px; fill: rgb(42, 63, 95); fill-opacity: 1; white-space: pre; text-shadow: white 1px 1px 1px, white -1px -1px 1px, white 1px -1px 1px, white -1px 1px 1px;">21965RL</text></g><g class="sankey-node" transform="translate(-7.499,229.953)" style="opacity: 1;"><rect class="node-rect" width="15" height="208.2539682539682" style="stroke-width: 0.5; stroke: rgb(0, 0, 0); stroke-opacity: 1; fill: rgb(128, 128, 128); fill-opacity: 1;"/><text class="node-label" data-notex="1" x="0" y="0" text-anchor="start" transform="translate(18.25,108.3269841269841)" style="cursor: default; font-family: 'Open Sans', verdana, arial, sans-serif; font-size: 12px; fill: rgb(42, 63, 95); fill-opacity: 1; white-space: pre; text-shadow: white 1px 1px 1px, white -1px -1px 1px, white 1px -1px 1px, white -1px 1px 1px;">22384</text></g><g class="sankey-node" transform="translate(-7.499,480.683)" style="opacity: 1;"><rect class="node-rect" width="15" height="210.79365079365044" style="stroke-width: 0.5; stroke: rgb(0, 0, 0); stroke-opacity: 1; fill: rgb(128, 128, 128); fill-opacity: 1;"/><text class="node-label" data-notex="1" x="0" y="0" text-anchor="start" transform="translate(18.25,109.59682539682522)" style="cursor: default; font-family: 'Open Sans', verdana, arial, sans-serif; font-size: 12px; fill: rgb(42, 63, 95); fill-opacity: 1; white-space: pre; text-shadow: white 1px 1px 1px, white -1px -1px 1px, white 1px -1px 1px, white -1px 1px 1px;">22670</text></g><g class="sankey-node" transform="translate(744.900,25.773)" style="opacity: 1;"><rect class="node-rect" width="15" height="86.34920634920616" style="stroke-width: 0.5; stroke: rgb(0, 0, 0); stroke-opacity: 1; fill: rgb(128, 128, 128); fill-opacity: 1;"/><text class="node-label" data-notex="1" x="0" y="0" text-anchor="start" transform="translate(18.25,47.37460317460308)" style="cursor: default; font-family: 'Open Sans', verdana, arial, sans-serif; font-size: 12px; fill: rgb(42, 63, 95); fill-opacity: 1; white-space: pre; text-shadow: white 1px 1px 1px, white -1px -1px 1px, white 1px -1px 1px, white -1px 1px 1px;">attacking</text></g><g class="sankey-node" transform="translate(744.900,144.920)" style="opacity: 1;"><rect class="node-rect" width="15" height="53.333333333333485" style="stroke-width: 0.5; stroke: rgb(0, 0, 0); stroke-opacity: 1; fill: rgb(128, 128, 128); fill-opacity: 1;"/><text class="node-label" data-notex="1" x="0" y="0" text-anchor="start" transform="translate(18.25,30.86666666666674)" style="cursor: default; font-family: 'Open Sans', verdana, arial, sans-serif; font-size: 12px; fill: rgb(42, 63, 95); fill-opacity: 1; white-space: pre; text-shadow: white 1px 1px 1px, white -1px -1px 1px, white 1px -1px 1px, white -1px 1px 1px;">being_attack</text></g><g class="sankey-node" transform="translate(744.900,221.351)" style="opacity: 1;"><rect class="node-rect" width="15" height="12.698412698412767" style="stroke-width: 0.5; stroke: rgb(0, 0, 0); stroke-opacity: 1; fill: rgb(128, 128, 128); fill-opacity: 1;"/><text class="node-label" data-notex="1" x="0" y="0" text-anchor="start" transform="translate(18.25,10.549206349206383)" style="cursor: default; font-family: 'Open Sans', verdana, arial, sans-serif; font-size: 12px; fill: rgb(42, 63, 95); fill-opacity: 1; white-space: pre; text-shadow: white 1px 1px 1px, white -1px -1px 1px, white 1px -1px 1px, white -1px 1px 1px;">dig</text></g><g class="sankey-node" transform="translate(744.900,252.129)" style="opacity: 1;"><rect class="node-rect" width="15" height="15.238095238095184" style="stroke-width: 0.5; stroke: rgb(0, 0, 0); stroke-opacity: 1; fill: rgb(128, 128, 128); fill-opacity: 1;"/><text class="node-label" data-notex="1" x="0" y="0" text-anchor="start" transform="translate(18.25,11.819047619047591)" style="cursor: default; font-family: 'Open Sans', verdana, arial, sans-serif; font-size: 12px; fill: rgb(42, 63, 95); fill-opacity: 1; white-space: pre; text-shadow: white 1px 1px 1px, white -1px -1px 1px, white 1px -1px 1px, white -1px 1px 1px;">groom</text></g><g class="sankey-node" transform="translate(744.900,295.482)" style="opacity: 1;"><rect class="node-rect" width="15" height="88.88888888888903" style="stroke-width: 0.5; stroke: rgb(0, 0, 0); stroke-opacity: 1; fill: rgb(128, 128, 128); fill-opacity: 1;"/><text class="node-label" data-notex="1" x="0" y="0" text-anchor="start" transform="translate(18.25,48.64444444444452)" style="cursor: default; font-family: 'Open Sans', verdana, arial, sans-serif; font-size: 12px; fill: rgb(42, 63, 95); fill-opacity: 1; white-space: pre; text-shadow: white 1px 1px 1px, white -1px -1px 1px, white 1px -1px 1px, white -1px 1px 1px;">move</text></g><g class="sankey-node" transform="translate(744.900,419.844)" style="opacity: 1;"><rect class="node-rect" width="15" height="71.11111111111074" style="stroke-width: 0.5; stroke: rgb(0, 0, 0); stroke-opacity: 1; fill: rgb(128, 128, 128); fill-opacity: 1;"/><text class="node-label" data-notex="1" x="0" y="0" text-anchor="start" transform="translate(18.25,39.755555555555375)" style="cursor: default; font-family: 'Open Sans', verdana, arial, sans-serif; font-size: 12px; fill: rgb(42, 63, 95); fill-opacity: 1; white-space: pre; text-shadow: white 1px 1px 1px, white -1px -1px 1px, white 1px -1px 1px, white -1px 1px 1px;">sniff</text></g><g class="sankey-node" transform="translate(744.900,531.113)" style="opacity: 1;"><rect class="node-rect" width="15" height="124.44444444444434" style="stroke-width: 0.5; stroke: rgb(0, 0, 0); stroke-opacity: 1; fill: rgb(128, 128, 128); fill-opacity: 1;"/><text class="node-label" data-notex="1" x="0" y="0" text-anchor="start" transform="translate(18.25,66.42222222222217)" style="cursor: default; font-family: 'Open Sans', verdana, arial, sans-serif; font-size: 12px; fill: rgb(42, 63, 95); fill-opacity: 1; white-space: pre; text-shadow: white 1px 1px 1px, white -1px -1px 1px, white 1px -1px 1px, white -1px 1px 1px;">social</text></g><g class="sankey-node" transform="translate(744.900,688.355)" style="opacity: 1;"><rect class="node-rect" width="15" height="15.238095238095184" style="stroke-width: 0.5; stroke: rgb(0, 0, 0); stroke-opacity: 1; fill: rgb(128, 128, 128); fill-opacity: 1;"/><text class="node-label" data-notex="1" x="0" y="0" text-anchor="start" transform="translate(18.25,11.819047619047591)" style="cursor: default; font-family: 'Open Sans', verdana, arial, sans-serif; font-size: 12px; fill: rgb(42, 63, 95); fill-opacity: 1; white-space: pre; text-shadow: white 1px 1px 1px, white -1px -1px 1px, white 1px -1px 1px, white -1px 1px 1px;">still</text></g><g class="sankey-node" transform="translate(1132.499,14.872)" style="opacity: 1;"><rect class="node-rect" width="15" height="55.87301587301589" style="stroke-width: 0.5; stroke: rgb(0, 0, 0); stroke-opacity: 1; fill: rgb(128, 128, 128); fill-opacity: 1;"/><text class="node-label" data-notex="1" x="0" y="0" text-anchor="end" transform="translate(-3.25,32.13650793650794)" style="cursor: default; font-family: 'Open Sans', verdana, arial, sans-serif; font-size: 12px; fill: rgb(42, 63, 95); fill-opacity: 1; white-space: pre; text-shadow: white 1px 1px 1px, white -1px -1px 1px, white 1px -1px 1px, white -1px 1px 1px;">attacking-activated</text></g><g class="sankey-node" transform="translate(1132.499,85.875)" style="opacity: 1;"><rect class="node-rect" width="15" height="30.476190476190453" style="stroke-width: 0.5; stroke: rgb(0, 0, 0); stroke-opacity: 1; fill: rgb(128, 128, 128); fill-opacity: 1;"/><text class="node-label" data-notex="1" x="0" y="0" text-anchor="end" transform="translate(-3.25,19.438095238095226)" style="cursor: default; font-family: 'Open Sans', verdana, arial, sans-serif; font-size: 12px; fill: rgb(42, 63, 95); fill-opacity: 1; white-space: pre; text-shadow: white 1px 1px 1px, white -1px -1px 1px, white 1px -1px 1px, white -1px 1px 1px;">attacking-suppressed</text></g><g class="sankey-node" transform="translate(1132.499,131.159)" style="opacity: 1;"><rect class="node-rect" width="15" height="17.77777777777777" style="stroke-width: 0.5; stroke: rgb(0, 0, 0); stroke-opacity: 1; fill: rgb(128, 128, 128); fill-opacity: 1;"/><text class="node-label" data-notex="1" x="0" y="0" text-anchor="end" transform="translate(-3.25,13.088888888888885)" style="cursor: default; font-family: 'Open Sans', verdana, arial, sans-serif; font-size: 12px; fill: rgb(42, 63, 95); fill-opacity: 1; white-space: pre; text-shadow: white 1px 1px 1px, white -1px -1px 1px, white 1px -1px 1px, white -1px 1px 1px;">being_attack-activated</text></g><g class="sankey-node" transform="translate(1132.499,163.787)" style="opacity: 1;"><rect class="node-rect" width="15" height="35.55555555555543" style="stroke-width: 0.5; stroke: rgb(0, 0, 0); stroke-opacity: 1; fill: rgb(128, 128, 128); fill-opacity: 1;"/><text class="node-label" data-notex="1" x="0" y="0" text-anchor="end" transform="translate(-3.25,21.977777777777714)" style="cursor: default; font-family: 'Open Sans', verdana, arial, sans-serif; font-size: 12px; fill: rgb(42, 63, 95); fill-opacity: 1; white-space: pre; text-shadow: white 1px 1px 1px, white -1px -1px 1px, white 1px -1px 1px, white -1px 1px 1px;">being_attack-suppressed</text></g><g class="sankey-node" transform="translate(1132.499,214.108)" style="opacity: 1;"><rect class="node-rect" width="15" height="7.619047619047706" style="stroke-width: 0.5; stroke: rgb(0, 0, 0); stroke-opacity: 1; fill: rgb(128, 128, 128); fill-opacity: 1;"/><text class="node-label" data-notex="1" x="0" y="0" text-anchor="end" transform="translate(-3.25,8.009523809523852)" style="cursor: default; font-family: 'Open Sans', verdana, arial, sans-serif; font-size: 12px; fill: rgb(42, 63, 95); fill-opacity: 1; white-space: pre; text-shadow: white 1px 1px 1px, white -1px -1px 1px, white 1px -1px 1px, white -1px 1px 1px;">dig-activated</text></g><g class="sankey-node" transform="translate(1132.499,236.234)" style="opacity: 1;"><rect class="node-rect" width="15" height="5.079365079365061" style="stroke-width: 0.5; stroke: rgb(0, 0, 0); stroke-opacity: 1; fill: rgb(128, 128, 128); fill-opacity: 1;"/><text class="node-label" data-notex="1" x="0" y="0" text-anchor="end" transform="translate(-3.25,6.73968253968253)" style="cursor: default; font-family: 'Open Sans', verdana, arial, sans-serif; font-size: 12px; fill: rgb(42, 63, 95); fill-opacity: 1; white-space: pre; text-shadow: white 1px 1px 1px, white -1px -1px 1px, white 1px -1px 1px, white -1px 1px 1px;">dig-suppressed</text></g><g class="sankey-node" transform="translate(1132.499,255.864)" style="opacity: 1;"><rect class="node-rect" width="15" height="12.698412698412767" style="stroke-width: 0.5; stroke: rgb(0, 0, 0); stroke-opacity: 1; fill: rgb(128, 128, 128); fill-opacity: 1;"/><text class="node-label" data-notex="1" x="0" y="0" text-anchor="end" transform="translate(-3.25,10.549206349206383)" style="cursor: default; font-family: 'Open Sans', verdana, arial, sans-serif; font-size: 12px; fill: rgb(42, 63, 95); fill-opacity: 1; white-space: pre; text-shadow: white 1px 1px 1px, white -1px -1px 1px, white 1px -1px 1px, white -1px 1px 1px;">groom-activated</text></g><g class="sankey-node" transform="translate(1132.499,283.091)" style="opacity: 1;"><rect class="node-rect" width="15" height="2.5396825396825307" style="stroke-width: 0.5; stroke: rgb(0, 0, 0); stroke-opacity: 1; fill: rgb(128, 128, 128); fill-opacity: 1;"/><text class="node-label" data-notex="1" x="0" y="0" text-anchor="end" transform="translate(-3.25,5.469841269841265)" style="cursor: default; font-family: 'Open Sans', verdana, arial, sans-serif; font-size: 12px; fill: rgb(42, 63, 95); fill-opacity: 1; white-space: pre; text-shadow: white 1px 1px 1px, white -1px -1px 1px, white 1px -1px 1px, white -1px 1px 1px;">groom-suppressed</text></g><g class="sankey-node" transform="translate(1132.499,300.439)" style="opacity: 1;"><rect class="node-rect" width="15" height="45.714285714285666" style="stroke-width: 0.5; stroke: rgb(0, 0, 0); stroke-opacity: 1; fill: rgb(128, 128, 128); fill-opacity: 1;"/><text class="node-label" data-notex="1" x="0" y="0" text-anchor="end" transform="translate(-3.25,27.057142857142832)" style="cursor: default; font-family: 'Open Sans', verdana, arial, sans-serif; font-size: 12px; fill: rgb(42, 63, 95); fill-opacity: 1; white-space: pre; text-shadow: white 1px 1px 1px, white -1px -1px 1px, white 1px -1px 1px, white -1px 1px 1px;">move-activated</text></g><g class="sankey-node" transform="translate(1132.499,361.304)" style="opacity: 1;"><rect class="node-rect" width="15" height="43.174603174603135" style="stroke-width: 0.5; stroke: rgb(0, 0, 0); stroke-opacity: 1; fill: rgb(128, 128, 128); fill-opacity: 1;"/><text class="node-label" data-notex="1" x="0" y="0" text-anchor="end" transform="translate(-3.25,25.787301587301567)" style="cursor: default; font-family: 'Open Sans', verdana, arial, sans-serif; font-size: 12px; fill: rgb(42, 63, 95); fill-opacity: 1; white-space: pre; text-shadow: white 1px 1px 1px, white -1px -1px 1px, white 1px -1px 1px, white -1px 1px 1px;">move-suppressed</text></g><g class="sankey-node" transform="translate(1132.499,419.501)" style="opacity: 1;"><rect class="node-rect" width="15" height="30.47619047619048" style="stroke-width: 0.5; stroke: rgb(0, 0, 0); stroke-opacity: 1; fill: rgb(128, 128, 128); fill-opacity: 1;"/><text class="node-label" data-notex="1" x="0" y="0" text-anchor="end" transform="translate(-3.25,19.43809523809524)" style="cursor: default; font-family: 'Open Sans', verdana, arial, sans-serif; font-size: 12px; fill: rgb(42, 63, 95); fill-opacity: 1; white-space: pre; text-shadow: white 1px 1px 1px, white -1px -1px 1px, white 1px -1px 1px, white -1px 1px 1px;">sniff-activated</text></g><g class="sankey-node" transform="translate(1132.499,464.978)" style="opacity: 1;"><rect class="node-rect" width="15" height="40.63492063492106" style="stroke-width: 0.5; stroke: rgb(0, 0, 0); stroke-opacity: 1; fill: rgb(128, 128, 128); fill-opacity: 1;"/><text class="node-label" data-notex="1" x="0" y="0" text-anchor="end" transform="translate(-3.25,24.51746031746053)" style="cursor: default; font-family: 'Open Sans', verdana, arial, sans-serif; font-size: 12px; fill: rgb(42, 63, 95); fill-opacity: 1; white-space: pre; text-shadow: white 1px 1px 1px, white -1px -1px 1px, white 1px -1px 1px, white -1px 1px 1px;">sniff-suppressed</text></g><g class="sankey-node" transform="translate(1132.499,520.957)" style="opacity: 1;"><rect class="node-rect" width="15" height="71.11111111111109" style="stroke-width: 0.5; stroke: rgb(0, 0, 0); stroke-opacity: 1; fill: rgb(128, 128, 128); fill-opacity: 1;"/><text class="node-label" data-notex="1" x="0" y="0" text-anchor="end" transform="translate(-3.25,39.755555555555546)" style="cursor: default; font-family: 'Open Sans', verdana, arial, sans-serif; font-size: 12px; fill: rgb(42, 63, 95); fill-opacity: 1; white-space: pre; text-shadow: white 1px 1px 1px, white -1px -1px 1px, white 1px -1px 1px, white -1px 1px 1px;">social-activated</text></g><g class="sankey-node" transform="translate(1132.499,607.520)" style="opacity: 1;"><rect class="node-rect" width="15" height="53.333333333333485" style="stroke-width: 0.5; stroke: rgb(0, 0, 0); stroke-opacity: 1; fill: rgb(128, 128, 128); fill-opacity: 1;"/><text class="node-label" data-notex="1" x="0" y="0" text-anchor="end" transform="translate(-3.25,30.86666666666674)" style="cursor: default; font-family: 'Open Sans', verdana, arial, sans-serif; font-size: 12px; fill: rgb(42, 63, 95); fill-opacity: 1; white-space: pre; text-shadow: white 1px 1px 1px, white -1px -1px 1px, white 1px -1px 1px, white -1px 1px 1px;">social-suppressed</text></g><g class="sankey-node" transform="translate(1132.499,675.769)" style="opacity: 1;"><rect class="node-rect" width="15" height="7.619047619047478" style="stroke-width: 0.5; stroke: rgb(0, 0, 0); stroke-opacity: 1; fill: rgb(128, 128, 128); fill-opacity: 1;"/><text class="node-label" data-notex="1" x="0" y="0" text-anchor="end" transform="translate(-3.25,8.009523809523738)" style="cursor: default; font-family: 'Open Sans', verdana, arial, sans-serif; font-size: 12px; fill: rgb(42, 63, 95); fill-opacity: 1; white-space: pre; text-shadow: white 1px 1px 1px, white -1px -1px 1px, white 1px -1px 1px, white -1px 1px 1px;">still-activated</text></g><g class="sankey-node" transform="translate(1132.499,697.917)" style="opacity: 1;"><rect class="node-rect" width="15" height="7.619047619047478" style="stroke-width: 0.5; stroke: rgb(0, 0, 0); stroke-opacity: 1; fill: rgb(128, 128, 128); fill-opacity: 1;"/><text class="node-label" data-notex="1" x="0" y="0" text-anchor="end" transform="translate(-3.25,8.009523809523738)" style="cursor: default; font-family: 'Open Sans', verdana, arial, sans-serif; font-size: 12px; fill: rgb(42, 63, 95); fill-opacity: 1; white-space: pre; text-shadow: white 1px 1px 1px, white -1px -1px 1px, white 1px -1px 1px, white -1px 1px 1px;">still-suppressed</text></g><g class="sankey-node" transform="translate(368.700,14.104)" style="opacity: 1;"><rect class="node-rect" width="15" height="22.85714285714289" style="stroke-width: 0.5; stroke: rgb(0, 0, 0); stroke-opacity: 1; fill: rgb(25, 211, 243); fill-opacity: 1;"/><text class="node-label" data-notex="1" x="0" y="0" text-anchor="start" transform="translate(18.25,15.628571428571444)" style="cursor: default; font-family: 'Open Sans', verdana, arial, sans-serif; font-size: 12px; fill: rgb(42, 63, 95); fill-opacity: 1; white-space: pre; text-shadow: white 1px 1px 1px, white -1px -1px 1px, white 1px -1px 1px, white -1px 1px 1px;">BLA</text></g><g class="sankey-node" transform="translate(368.700,49.753)" style="opacity: 1;"><rect class="node-rect" width="15" height="101.58730158730128" style="stroke-width: 0.5; stroke: rgb(0, 0, 0); stroke-opacity: 1; fill: rgb(99, 110, 250); fill-opacity: 1;"/><text class="node-label" data-notex="1" x="0" y="0" text-anchor="start" transform="translate(18.25,54.993650793650644)" style="cursor: default; font-family: 'Open Sans', verdana, arial, sans-serif; font-size: 12px; fill: rgb(42, 63, 95); fill-opacity: 1; white-space: pre; text-shadow: white 1px 1px 1px, white -1px -1px 1px, white 1px -1px 1px, white -1px 1px 1px;">Cla</text></g><g class="sankey-node" transform="translate(368.700,164.032)" style="opacity: 1;"><rect class="node-rect" width="15" height="30.47619047619014" style="stroke-width: 0.5; stroke: rgb(0, 0, 0); stroke-opacity: 1; fill: rgb(0, 204, 150); fill-opacity: 1;"/><text class="node-label" data-notex="1" x="0" y="0" text-anchor="start" transform="translate(18.25,19.43809523809507)" style="cursor: default; font-family: 'Open Sans', verdana, arial, sans-serif; font-size: 12px; fill: rgb(42, 63, 95); fill-opacity: 1; white-space: pre; text-shadow: white 1px 1px 1px, white -1px -1px 1px, white 1px -1px 1px, white -1px 1px 1px;">LC</text></g><g class="sankey-node" transform="translate(368.700,207.989)" style="opacity: 1;"><rect class="node-rect" width="15" height="40.63492063492072" style="stroke-width: 0.5; stroke: rgb(0, 0, 0); stroke-opacity: 1; fill: rgb(254, 203, 82); fill-opacity: 1;"/><text class="node-label" data-notex="1" x="0" y="0" text-anchor="start" transform="translate(18.25,24.51746031746036)" style="cursor: default; font-family: 'Open Sans', verdana, arial, sans-serif; font-size: 12px; fill: rgb(42, 63, 95); fill-opacity: 1; white-space: pre; text-shadow: white 1px 1px 1px, white -1px -1px 1px, white 1px -1px 1px, white -1px 1px 1px;">LHyp</text></g><g class="sankey-node" transform="translate(368.700,262.039)" style="opacity: 1;"><rect class="node-rect" width="15" height="35.555555555555316" style="stroke-width: 0.5; stroke: rgb(0, 0, 0); stroke-opacity: 1; fill: rgb(255, 161, 90); fill-opacity: 1;"/><text class="node-label" data-notex="1" x="0" y="0" text-anchor="start" transform="translate(18.25,21.977777777777657)" style="cursor: default; font-family: 'Open Sans', verdana, arial, sans-serif; font-size: 12px; fill: rgb(42, 63, 95); fill-opacity: 1; white-space: pre; text-shadow: white 1px 1px 1px, white -1px -1px 1px, white 1px -1px 1px, white -1px 1px 1px;">NAc</text></g><g class="sankey-node" transform="translate(368.700,310.681)" style="opacity: 1;"><rect class="node-rect" width="15" height="66.03174603174602" style="stroke-width: 0.5; stroke: rgb(0, 0, 0); stroke-opacity: 1; fill: rgb(171, 99, 250); fill-opacity: 1;"/><text class="node-label" data-notex="1" x="0" y="0" text-anchor="start" transform="translate(18.25,37.215873015873015)" style="cursor: default; font-family: 'Open Sans', verdana, arial, sans-serif; font-size: 12px; fill: rgb(42, 63, 95); fill-opacity: 1; white-space: pre; text-shadow: white 1px 1px 1px, white -1px -1px 1px, white 1px -1px 1px, white -1px 1px 1px;">Str</text></g><g class="sankey-node" transform="translate(368.700,387.566)" style="opacity: 1;"><rect class="node-rect" width="15" height="208.25396825396814" style="stroke-width: 0.5; stroke: rgb(0, 0, 0); stroke-opacity: 1; fill: rgb(239, 85, 59); fill-opacity: 1;"/><text class="node-label" data-notex="1" x="0" y="0" text-anchor="start" transform="translate(18.25,108.32698412698407)" style="cursor: default; font-family: 'Open Sans', verdana, arial, sans-serif; font-size: 12px; fill: rgb(42, 63, 95); fill-opacity: 1; white-space: pre; text-shadow: white 1px 1px 1px, white -1px -1px 1px, white 1px -1px 1px, white -1px 1px 1px;">VTA</text></g><g class="sankey-node" transform="translate(368.700,606.805)" style="opacity: 1;"><rect class="node-rect" width="15" height="55.87301587301613" style="stroke-width: 0.5; stroke: rgb(0, 0, 0); stroke-opacity: 1; fill: rgb(182, 232, 128); fill-opacity: 1;"/><text class="node-label" data-notex="1" x="0" y="0" text-anchor="start" transform="translate(18.25,32.13650793650807)" style="cursor: default; font-family: 'Open Sans', verdana, arial, sans-serif; font-size: 12px; fill: rgb(42, 63, 95); fill-opacity: 1; white-space: pre; text-shadow: white 1px 1px 1px, white -1px -1px 1px, white 1px -1px 1px, white -1px 1px 1px;">cPFC</text></g><g class="sankey-node" transform="translate(368.700,676.192)" style="opacity: 1;"><rect class="node-rect" width="15" height="12.698412698412994" style="stroke-width: 0.5; stroke: rgb(0, 0, 0); stroke-opacity: 1; fill: rgb(255, 151, 255); fill-opacity: 1;"/><text class="node-label" data-notex="1" x="0" y="0" text-anchor="start" transform="translate(18.25,10.549206349206496)" style="cursor: default; font-family: 'Open Sans', verdana, arial, sans-serif; font-size: 12px; fill: rgb(42, 63, 95); fill-opacity: 1; white-space: pre; text-shadow: white 1px 1px 1px, white -1px -1px 1px, white 1px -1px 1px, white -1px 1px 1px;">dPAG</text></g><g class="sankey-node" transform="translate(368.700,703.093)" style="opacity: 1;"><rect class="node-rect" width="15" height="2.539682539682417" style="stroke-width: 0.5; stroke: rgb(0, 0, 0); stroke-opacity: 1; fill: rgb(255, 102, 146); fill-opacity: 1;"/><text class="node-label" data-notex="1" x="0" y="0" text-anchor="start" transform="translate(18.25,5.469841269841208)" style="cursor: default; font-family: 'Open Sans', verdana, arial, sans-serif; font-size: 12px; fill: rgb(42, 63, 95); fill-opacity: 1; white-space: pre; text-shadow: white 1px 1px 1px, white -1px -1px 1px, white 1px -1px 1px, white -1px 1px 1px;">lHb</text></g></g></g><defs id="topdefs-51b133"><g class="clips"/></defs><g class="layer-above"><g class="imagelayer"/><g class="shapelayer"/></g><g class="infolayer"><g class="g-gtitle"/><g class="first-render"/></g></svg>