<svg class="main-svg" xmlns="http://www.w3.org/2000/svg" xmlns:xlink="http://www.w3.org/1999/xlink" width="1300" height="900" style="" viewBox="0 0 1300 900"><rect x="0" y="0" width="1300" height="900" style="fill: rgb(255, 255, 255); fill-opacity: 1;"/><defs id="defs-5c177e"><g class="clips"/><g class="gradients"/><g class="patterns"/></defs><g class="bglayer"/><g class="layer-below"><g class="imagelayer"/><g class="shapelayer"/></g><g class="cartesianlayer"/><g class="polarlayer"/><g class="smithlayer"/><g class="ternarylayer"/><g class="geolayer"/><g class="funnelarealayer"/><g class="pielayer"/><g class="iciclelayer"/><g class="treemaplayer"/><g class="sunburstlayer"/><g class="glimages"/><g class="sankey" transform="translate(80,100)matrix(1 0 0 1 0 0)" style="box-sizing: content-box; position: absolute; left: 0px; shape-rendering: geometricprecision; pointer-events: none;"><g class="sankey-links" style="fill: none;"><path class="sankey-link" d="M7.50114,16.845882352941217C188.10057000000003,16.845882352941217 188.10057000000003,41.929411764705634 368.70000000000005,41.929411764705634L368.70000000000005,63.105882352940924C188.10057000000003,63.105882352940924 188.10057000000003,38.02235294117651 7.50114,38.02235294117651Z" style="stroke: rgb(68, 68, 68); stroke-opacity: 1; fill: rgb(99, 110, 250); fill-opacity: 0.6; stroke-width: 0; opacity: 1;"/><path class="sankey-link" d="M7.50114,38.02235294117651C188.10057000000003,38.02235294117651 188.10057000000003,159.458823529412 368.70000000000005,159.458823529412L368.70000000000005,164.75294117647084C188.10057000000003,164.75294117647084 188.10057000000003,43.31647058823533 7.50114,43.31647058823533Z" style="stroke: rgb(68, 68, 68); stroke-opacity: 1; fill: rgb(0, 204, 150); fill-opacity: 0.6; stroke-width: 0; opacity: 1;"/><path class="sankey-link" d="M7.50114,43.31647058823533C188.10057000000003,43.31647058823533 188.10057000000003,259.4647058823529 368.70000000000005,259.4647058823529L368.70000000000005,272.7C188.10057000000003,272.7 188.10057000000003,56.55176470588239 7.50114,56.55176470588239Z" style="stroke: rgb(68, 68, 68); stroke-opacity: 1; fill: rgb(255, 161, 90); fill-opacity: 0.6; stroke-width: 0; opacity: 1;"/><path class="sankey-link" d="M7.50114,56.55176470588239C188.10057000000003,56.55176470588239 188.10057000000003,301.0235294117647 368.70000000000005,301.0235294117647L368.70000000000005,314.25882352941176C188.10057000000003,314.25882352941176 188.10057000000003,69.78705882352945 7.50114,69.78705882352945Z" style="stroke: rgb(68, 68, 68); stroke-opacity: 1; fill: rgb(171, 99, 250); fill-opacity: 0.6; stroke-width: 0; opacity: 1;"/><path class="sankey-link" d="M7.50114,69.78705882352945C188.10057000000003,69.78705882352945 188.10057000000003,378.5294117647061 368.70000000000005,378.5294117647061L368.70000000000005,381.1764705882355C188.10057000000003,381.1764705882355 188.10057000000003,72.43411764705887 7.50114,72.43411764705887Z" style="stroke: rgb(68, 68, 68); stroke-opacity: 1; fill: rgb(239, 85, 59); fill-opacity: 0.6; stroke-width: 0; opacity: 1;"/><path class="sankey-link" d="M7.50114,91.14352941176463C188.10057000000003,91.14352941176463 188.10057000000003,14.082352941176532 368.70000000000005,14.082352941176532L368.70000000000005,19.376470588235357C188.10057000000003,19.376470588235357 188.10057000000003,96.43764705882344 7.50114,96.43764705882344Z" style="stroke: rgb(68, 68, 68); stroke-opacity: 1; fill: rgb(25, 211, 243); fill-opacity: 0.6; stroke-width: 0; opacity: 1;"/><path class="sankey-link" d="M7.50114,96.43764705882346C188.10057000000003,96.43764705882346 188.10057000000003,63.10588235294093 368.70000000000005,63.10588235294093L368.70000000000005,65.75294117647034C188.10057000000003,65.75294117647034 188.10057000000003,99.08470588235288 7.50114,99.08470588235288Z" style="stroke: rgb(68, 68, 68); stroke-opacity: 1; fill: rgb(99, 110, 250); fill-opacity: 0.6; stroke-width: 0; opacity: 1;"/><path class="sankey-link" d="M7.50114,99.08470588235286C188.10057000000003,99.08470588235286 188.10057000000003,164.7529411764708 368.70000000000005,164.7529411764708L368.70000000000005,170.04705882352965C188.10057000000003,170.04705882352965 188.10057000000003,104.37882352941168 7.50114,104.37882352941168Z" style="stroke: rgb(68, 68, 68); stroke-opacity: 1; fill: rgb(0, 204, 150); fill-opacity: 0.6; stroke-width: 0; opacity: 1;"/><path class="sankey-link" d="M7.50114,104.37882352941169C188.10057000000003,104.37882352941169 188.10057000000003,272.7 368.70000000000005,272.7L368.70000000000005,283.28823529411767C188.10057000000003,283.28823529411767 188.10057000000003,114.96705882352934 7.50114,114.96705882352934Z" style="stroke: rgb(68, 68, 68); stroke-opacity: 1; fill: rgb(255, 161, 90); fill-opacity: 0.6; stroke-width: 0; opacity: 1;"/><path class="sankey-link" d="M7.50114,114.96705882352934C188.10057000000003,114.96705882352934 188.10057000000003,314.25882352941176 368.70000000000005,314.25882352941176L368.70000000000005,319.55294117647054C188.10057000000003,319.55294117647054 188.10057000000003,120.26117647058815 7.50114,120.26117647058815Z" style="stroke: rgb(68, 68, 68); stroke-opacity: 1; fill: rgb(171, 99, 250); fill-opacity: 0.6; stroke-width: 0; opacity: 1;"/><path class="sankey-link" d="M7.50114,120.26117647058817C188.10057000000003,120.26117647058817 188.10057000000003,381.1764705882355 368.70000000000005,381.1764705882355L368.70000000000005,383.82352941176487C188.10057000000003,383.82352941176487 188.10057000000003,122.90823529411759 7.50114,122.90823529411759Z" style="stroke: rgb(68, 68, 68); stroke-opacity: 1; fill: rgb(239, 85, 59); fill-opacity: 0.6; stroke-width: 0; opacity: 1;"/><path class="sankey-link" d="M7.50114,122.90823529411757C188.10057000000003,122.90823529411757 188.10057000000003,604.4823529411767 368.70000000000005,604.4823529411767L368.70000000000005,612.423529411765C188.10057000000003,612.423529411765 188.10057000000003,130.84941176470582 7.50114,130.84941176470582Z" style="stroke: rgb(68, 68, 68); stroke-opacity: 1; fill: rgb(182, 232, 128); fill-opacity: 0.6; stroke-width: 0; opacity: 1;"/><path class="sankey-link" d="M7.50114,130.84941176470582C188.10057000000003,130.84941176470582 188.10057000000003,703.0058823529413 368.70000000000005,703.0058823529413L368.70000000000005,705.6529411764708C188.10057000000003,705.6529411764708 188.10057000000003,133.4964705882352 7.50114,133.4964705882352Z" style="stroke: rgb(68, 68, 68); stroke-opacity: 1; fill: rgb(255, 102, 146); fill-opacity: 0.6; stroke-width: 0; opacity: 1;"/><path class="sankey-link" d="M7.50114,151.85647058823525C188.10057000000003,151.85647058823525 188.10057000000003,19.376470588235357 368.70000000000005,19.376470588235357L368.70000000000005,27.31764705882359C188.10057000000003,27.31764705882359 188.10057000000003,159.7976470588235 7.50114,159.7976470588235Z" style="stroke: rgb(68, 68, 68); stroke-opacity: 1; fill: rgb(25, 211, 243); fill-opacity: 0.6; stroke-width: 0; opacity: 1;"/><path class="sankey-link" d="M7.50114,159.7976470588235C188.10057000000003,159.7976470588235 188.10057000000003,65.75294117647033 368.70000000000005,65.75294117647033L368.70000000000005,78.9882352941174C188.10057000000003,78.9882352941174 188.10057000000003,173.03294117647056 7.50114,173.03294117647056Z" style="stroke: rgb(68, 68, 68); stroke-opacity: 1; fill: rgb(99, 110, 250); fill-opacity: 0.6; stroke-width: 0; opacity: 1;"/><path class="sankey-link" d="M7.50114,173.03294117647056C188.10057000000003,173.03294117647056 188.10057000000003,283.2882352941176 368.70000000000005,283.2882352941176L368.70000000000005,288.5823529411764C188.10057000000003,288.5823529411764 188.10057000000003,178.3270588235294 7.50114,178.3270588235294Z" style="stroke: rgb(68, 68, 68); stroke-opacity: 1; fill: rgb(255, 161, 90); fill-opacity: 0.6; stroke-width: 0; opacity: 1;"/><path class="sankey-link" d="M7.50114,178.32705882352937C188.10057000000003,178.32705882352937 188.10057000000003,319.5529411764706 368.70000000000005,319.5529411764706L368.70000000000005,327.4941176470589C188.10057000000003,327.4941176470589 188.10057000000003,186.2682352941176 7.50114,186.2682352941176Z" style="stroke: rgb(68, 68, 68); stroke-opacity: 1; fill: rgb(171, 99, 250); fill-opacity: 0.6; stroke-width: 0; opacity: 1;"/><path class="sankey-link" d="M7.50114,186.2682352941176C188.10057000000003,186.2682352941176 188.10057000000003,383.82352941176487 368.70000000000005,383.82352941176487L368.70000000000005,386.47058823529426C188.10057000000003,386.47058823529426 188.10057000000003,188.915294117647 7.50114,188.915294117647Z" style="stroke: rgb(68, 68, 68); stroke-opacity: 1; fill: rgb(239, 85, 59); fill-opacity: 0.6; stroke-width: 0; opacity: 1;"/><path class="sankey-link" d="M7.50114,188.91529411764702C188.10057000000003,188.91529411764702 188.10057000000003,612.423529411765 368.70000000000005,612.423529411765L368.70000000000005,615.0705882352945C188.10057000000003,615.0705882352945 188.10057000000003,191.5623529411764 7.50114,191.5623529411764Z" style="stroke: rgb(68, 68, 68); stroke-opacity: 1; fill: rgb(182, 232, 128); fill-opacity: 0.6; stroke-width: 0; opacity: 1;"/><path class="sankey-link" d="M7.50114,191.56235294117644C188.10057000000003,191.56235294117644 188.10057000000003,675.6882352941177 368.70000000000005,675.6882352941177L368.70000000000005,683.629411764706C188.10057000000003,683.629411764706 188.10057000000003,199.50352941176467 7.50114,199.50352941176467Z" style="stroke: rgb(68, 68, 68); stroke-opacity: 1; fill: rgb(255, 151, 255); fill-opacity: 0.6; stroke-width: 0; opacity: 1;"/><path class="sankey-link" d="M7.50114,225.55058823529413C188.10057000000003,225.55058823529413 188.10057000000003,78.98823529411739 368.70000000000005,78.98823529411739L368.70000000000005,113.39999999999974C188.10057000000003,113.39999999999974 188.10057000000003,259.9623529411765 7.50114,259.9623529411765Z" style="stroke: rgb(68, 68, 68); stroke-opacity: 1; fill: rgb(99, 110, 250); fill-opacity: 0.6; stroke-width: 0; opacity: 1;"/><path class="sankey-link" d="M7.50114,259.9623529411765C188.10057000000003,259.9623529411765 188.10057000000003,170.04705882352962 368.70000000000005,170.04705882352962L368.70000000000005,180.63529411764725C188.10057000000003,180.63529411764725 188.10057000000003,270.5505882352942 7.50114,270.5505882352942Z" style="stroke: rgb(68, 68, 68); stroke-opacity: 1; fill: rgb(0, 204, 150); fill-opacity: 0.6; stroke-width: 0; opacity: 1;"/><path class="sankey-link" d="M7.50114,270.55058823529413C188.10057000000003,270.55058823529413 188.10057000000003,204.14117647058825 368.70000000000005,204.14117647058825L368.70000000000005,225.31764705882355C188.10057000000003,225.31764705882355 188.10057000000003,291.7270588235294 7.50114,291.7270588235294Z" style="stroke: rgb(68, 68, 68); stroke-opacity: 1; fill: rgb(254, 203, 82); fill-opacity: 0.6; stroke-width: 0; opacity: 1;"/><path class="sankey-link" d="M7.50114,291.72705882352943C188.10057000000003,291.72705882352943 188.10057000000003,327.49411764705883 368.70000000000005,327.49411764705883L368.70000000000005,348.6705882352941C188.10057000000003,348.6705882352941 188.10057000000003,312.9035294117647 7.50114,312.9035294117647Z" style="stroke: rgb(68, 68, 68); stroke-opacity: 1; fill: rgb(171, 99, 250); fill-opacity: 0.6; stroke-width: 0; opacity: 1;"/><path class="sankey-link" d="M7.50114,312.90352941176474C188.10057000000003,312.90352941176474 188.10057000000003,386.47058823529426 368.70000000000005,386.47058823529426L368.70000000000005,489.70588235294133C188.10057000000003,489.70588235294133 188.10057000000003,416.1388235294118 7.50114,416.1388235294118Z" style="stroke: rgb(68, 68, 68); stroke-opacity: 1; fill: rgb(239, 85, 59); fill-opacity: 0.6; stroke-width: 0; opacity: 1;"/><path class="sankey-link" d="M7.50114,416.1388235294118C188.10057000000003,416.1388235294118 188.10057000000003,615.0705882352944 368.70000000000005,615.0705882352944L368.70000000000005,638.894117647059C188.10057000000003,638.894117647059 188.10057000000003,439.96235294117656 7.50114,439.96235294117656Z" style="stroke: rgb(68, 68, 68); stroke-opacity: 1; fill: rgb(182, 232, 128); fill-opacity: 0.6; stroke-width: 0; opacity: 1;"/><path class="sankey-link" d="M7.50114,439.9623529411765C188.10057000000003,439.9623529411765 188.10057000000003,683.629411764706 368.70000000000005,683.629411764706L368.70000000000005,686.2764705882355C188.10057000000003,686.2764705882355 188.10057000000003,442.6094117647059 7.50114,442.6094117647059Z" style="stroke: rgb(68, 68, 68); stroke-opacity: 1; fill: rgb(255, 151, 255); fill-opacity: 0.6; stroke-width: 0; opacity: 1;"/><path class="sankey-link" d="M7.50114,476.2270588235294C188.10057000000003,476.2270588235294 188.10057000000003,113.39999999999976 368.70000000000005,113.39999999999976L368.70000000000005,147.81176470588213C188.10057000000003,147.81176470588213 188.10057000000003,510.6388235294117 7.50114,510.6388235294117Z" style="stroke: rgb(68, 68, 68); stroke-opacity: 1; fill: rgb(99, 110, 250); fill-opacity: 0.6; stroke-width: 0; opacity: 1;"/><path class="sankey-link" d="M7.50114,510.6388235294117C188.10057000000003,510.6388235294117 188.10057000000003,180.63529411764728 368.70000000000005,180.63529411764728L368.70000000000005,191.2235294117649C188.10057000000003,191.2235294117649 188.10057000000003,521.2270588235293 7.50114,521.2270588235293Z" style="stroke: rgb(68, 68, 68); stroke-opacity: 1; fill: rgb(0, 204, 150); fill-opacity: 0.6; stroke-width: 0; opacity: 1;"/><path class="sankey-link" d="M7.50114,521.2270588235294C188.10057000000003,521.2270588235294 188.10057000000003,225.31764705882355 368.70000000000005,225.31764705882355L368.70000000000005,246.49411764705886C188.10057000000003,246.49411764705886 188.10057000000003,542.4035294117648 7.50114,542.4035294117648Z" style="stroke: rgb(68, 68, 68); stroke-opacity: 1; fill: rgb(254, 203, 82); fill-opacity: 0.6; stroke-width: 0; opacity: 1;"/><path class="sankey-link" d="M7.50114,542.4035294117647C188.10057000000003,542.4035294117647 188.10057000000003,348.67058823529413 368.70000000000005,348.67058823529413L368.70000000000005,369.8470588235294C188.10057000000003,369.8470588235294 188.10057000000003,563.58 7.50114,563.58Z" style="stroke: rgb(68, 68, 68); stroke-opacity: 1; fill: rgb(171, 99, 250); fill-opacity: 0.6; stroke-width: 0; opacity: 1;"/><path class="sankey-link" d="M7.50114,563.5799999999999C188.10057000000003,563.5799999999999 188.10057000000003,489.7058823529413 368.70000000000005,489.7058823529413L368.70000000000005,595.5882352941178C188.10057000000003,595.5882352941178 188.10057000000003,669.4623529411765 7.50114,669.4623529411765Z" style="stroke: rgb(68, 68, 68); stroke-opacity: 1; fill: rgb(239, 85, 59); fill-opacity: 0.6; stroke-width: 0; opacity: 1;"/><path class="sankey-link" d="M7.50114,669.4623529411764C188.10057000000003,669.4623529411764 188.10057000000003,638.8941176470591 368.70000000000005,638.8941176470591L368.70000000000005,662.7176470588238C188.10057000000003,662.7176470588238 188.10057000000003,693.285882352941 7.50114,693.285882352941Z" style="stroke: rgb(68, 68, 68); stroke-opacity: 1; fill: rgb(182, 232, 128); fill-opacity: 0.6; stroke-width: 0; opacity: 1;"/><path class="sankey-link" d="M7.50114,693.2858823529411C188.10057000000003,693.2858823529411 188.10057000000003,686.2764705882354 368.70000000000005,686.2764705882354L368.70000000000005,688.9235294117649C188.10057000000003,688.9235294117649 188.10057000000003,695.9329411764706 7.50114,695.9329411764706Z" style="stroke: rgb(68, 68, 68); stroke-opacity: 1; fill: rgb(255, 151, 255); fill-opacity: 0.6; stroke-width: 0; opacity: 1;"/><path class="sankey-link" d="M383.70000000000005,14.082352941176532C564.3000000000001,14.082352941176532 564.3000000000001,72.06714490674307 744.9000000000001,72.06714490674307L744.9000000000001,77.36126255380188C564.3000000000001,77.36126255380188 564.3000000000001,19.376470588235357 383.70000000000005,19.376470588235357Z" style="stroke: rgb(68, 68, 68); stroke-opacity: 1; fill: rgb(25, 211, 243); fill-opacity: 0.6; stroke-width: 0; opacity: 1;"/><path class="sankey-link" d="M383.70000000000005,19.376470588235353C564.3000000000001,19.376470588235353 564.3000000000001,425.0866571018651 744.9000000000001,425.0866571018651L744.9000000000001,430.3807747489239C564.3000000000001,430.3807747489239 564.3000000000001,24.67058823529418 383.70000000000005,24.67058823529418Z" style="stroke: rgb(68, 68, 68); stroke-opacity: 1; fill: rgb(25, 211, 243); fill-opacity: 0.6; stroke-width: 0; opacity: 1;"/><path class="sankey-link" d="M383.70000000000005,24.670588235294176C564.3000000000001,24.670588235294176 564.3000000000001,535.4199426111907 744.9000000000001,535.4199426111907L744.9000000000001,540.7140602582494C564.3000000000001,540.7140602582494 564.3000000000001,29.964705882353 383.70000000000005,29.964705882353Z" style="stroke: rgb(68, 68, 68); stroke-opacity: 1; fill: rgb(25, 211, 243); fill-opacity: 0.6; stroke-width: 0; opacity: 1;"/><path class="sankey-link" d="M383.70000000000005,41.929411764705634C564.3000000000001,41.929411764705634 564.3000000000001,77.3612625538019 744.9000000000001,77.3612625538019L744.9000000000001,111.77302725968424C564.3000000000001,111.77302725968424 564.3000000000001,76.34117647058798 383.70000000000005,76.34117647058798Z" style="stroke: rgb(68, 68, 68); stroke-opacity: 1; fill: rgb(99, 110, 250); fill-opacity: 0.6; stroke-width: 0; opacity: 1;"/><path class="sankey-link" d="M383.70000000000005,81.63529411764681C564.3000000000001,81.63529411764681 564.3000000000001,430.38077474892395 744.9000000000001,430.38077474892395L744.9000000000001,433.02783357245335C564.3000000000001,433.02783357245335 564.3000000000001,84.28235294117623 383.70000000000005,84.28235294117623Z" style="stroke: rgb(68, 68, 68); stroke-opacity: 1; fill: rgb(99, 110, 250); fill-opacity: 0.6; stroke-width: 0; opacity: 1;"/><path class="sankey-link" d="M383.70000000000005,84.28235294117621C564.3000000000001,84.28235294117621 564.3000000000001,540.7140602582494 744.9000000000001,540.7140602582494L744.9000000000001,564.5375896700141C564.3000000000001,564.5375896700141 564.3000000000001,108.10588235294091 383.70000000000005,108.10588235294091Z" style="stroke: rgb(68, 68, 68); stroke-opacity: 1; fill: rgb(99, 110, 250); fill-opacity: 0.6; stroke-width: 0; opacity: 1;"/><path class="sankey-link" d="M383.70000000000005,76.34117647058798C564.3000000000001,76.34117647058798 564.3000000000001,294.6809182209469 744.9000000000001,294.6809182209469L744.9000000000001,299.9750358680057C564.3000000000001,299.9750358680057 564.3000000000001,81.6352941176468 383.70000000000005,81.6352941176468Z" style="stroke: rgb(68, 68, 68); stroke-opacity: 1; fill: rgb(99, 110, 250); fill-opacity: 0.6; stroke-width: 0; opacity: 1;"/><path class="sankey-link" d="M383.70000000000005,159.458823529412C564.3000000000001,159.458823529412 564.3000000000001,111.77302725968426 744.9000000000001,111.77302725968426L744.9000000000001,119.71420373027249C564.3000000000001,119.71420373027249 564.3000000000001,167.40000000000023 383.70000000000005,167.40000000000023Z" style="stroke: rgb(68, 68, 68); stroke-opacity: 1; fill: rgb(0, 204, 150); fill-opacity: 0.6; stroke-width: 0; opacity: 1;"/><path class="sankey-link" d="M383.70000000000005,170.04705882352965C564.3000000000001,170.04705882352965 564.3000000000001,433.02783357245335 744.9000000000001,433.02783357245335L744.9000000000001,438.32195121951213C564.3000000000001,438.32195121951213 564.3000000000001,175.3411764705885 383.70000000000005,175.3411764705885Z" style="stroke: rgb(68, 68, 68); stroke-opacity: 1; fill: rgb(0, 204, 150); fill-opacity: 0.6; stroke-width: 0; opacity: 1;"/><path class="sankey-link" d="M383.70000000000005,175.34117647058847C564.3000000000001,175.34117647058847 564.3000000000001,564.5375896700142 744.9000000000001,564.5375896700142L744.9000000000001,569.831707317073C564.3000000000001,569.831707317073 564.3000000000001,180.6352941176473 383.70000000000005,180.6352941176473Z" style="stroke: rgb(68, 68, 68); stroke-opacity: 1; fill: rgb(0, 204, 150); fill-opacity: 0.6; stroke-width: 0; opacity: 1;"/><path class="sankey-link" d="M383.70000000000005,167.40000000000023C564.3000000000001,167.40000000000023 564.3000000000001,299.97503586800576 744.9000000000001,299.97503586800576L744.9000000000001,302.62209469153515C564.3000000000001,302.62209469153515 564.3000000000001,170.04705882352962 383.70000000000005,170.04705882352962Z" style="stroke: rgb(68, 68, 68); stroke-opacity: 1; fill: rgb(0, 204, 150); fill-opacity: 0.6; stroke-width: 0; opacity: 1;"/><path class="sankey-link" d="M383.70000000000005,204.14117647058825C564.3000000000001,204.14117647058825 564.3000000000001,119.71420373027249 744.9000000000001,119.71420373027249L744.9000000000001,130.30243902439014C564.3000000000001,130.30243902439014 564.3000000000001,214.72941176470587 383.70000000000005,214.72941176470587Z" style="stroke: rgb(68, 68, 68); stroke-opacity: 1; fill: rgb(254, 203, 82); fill-opacity: 0.6; stroke-width: 0; opacity: 1;"/><path class="sankey-link" d="M383.70000000000005,225.31764705882355C564.3000000000001,225.31764705882355 564.3000000000001,569.831707317073 744.9000000000001,569.831707317073L744.9000000000001,580.4199426111905C564.3000000000001,580.4199426111905 564.3000000000001,235.90588235294118 383.70000000000005,235.90588235294118Z" style="stroke: rgb(68, 68, 68); stroke-opacity: 1; fill: rgb(254, 203, 82); fill-opacity: 0.6; stroke-width: 0; opacity: 1;"/><path class="sankey-link" d="M383.70000000000005,214.7294117647059C564.3000000000001,214.7294117647059 564.3000000000001,302.62209469153515 744.9000000000001,302.62209469153515L744.9000000000001,313.21032998565283C564.3000000000001,313.21032998565283 564.3000000000001,225.31764705882352 383.70000000000005,225.31764705882352Z" style="stroke: rgb(68, 68, 68); stroke-opacity: 1; fill: rgb(254, 203, 82); fill-opacity: 0.6; stroke-width: 0; opacity: 1;"/><path class="sankey-link" d="M383.70000000000005,259.4647058823529C564.3000000000001,259.4647058823529 564.3000000000001,130.30243902439014 744.9000000000001,130.30243902439014L744.9000000000001,138.24361549497837C564.3000000000001,138.24361549497837 564.3000000000001,267.4058823529412 383.70000000000005,267.4058823529412Z" style="stroke: rgb(68, 68, 68); stroke-opacity: 1; fill: rgb(255, 161, 90); fill-opacity: 0.6; stroke-width: 0; opacity: 1;"/><path class="sankey-link" d="M383.70000000000005,267.40588235294115C564.3000000000001,267.40588235294115 564.3000000000001,438.3219512195122 744.9000000000001,438.3219512195122L744.9000000000001,443.61606886657097C564.3000000000001,443.61606886657097 564.3000000000001,272.69999999999993 383.70000000000005,272.69999999999993Z" style="stroke: rgb(68, 68, 68); stroke-opacity: 1; fill: rgb(255, 161, 90); fill-opacity: 0.6; stroke-width: 0; opacity: 1;"/><path class="sankey-link" d="M383.70000000000005,272.7C564.3000000000001,272.7 564.3000000000001,580.4199426111907 744.9000000000001,580.4199426111907L744.9000000000001,591.0081779053082C564.3000000000001,591.0081779053082 564.3000000000001,283.28823529411767 383.70000000000005,283.28823529411767Z" style="stroke: rgb(68, 68, 68); stroke-opacity: 1; fill: rgb(255, 161, 90); fill-opacity: 0.6; stroke-width: 0; opacity: 1;"/><path class="sankey-link" d="M383.70000000000005,301.0235294117647C564.3000000000001,301.0235294117647 564.3000000000001,138.24361549497837 744.9000000000001,138.24361549497837L744.9000000000001,146.1847919655666C564.3000000000001,146.1847919655666 564.3000000000001,308.964705882353 383.70000000000005,308.964705882353Z" style="stroke: rgb(68, 68, 68); stroke-opacity: 1; fill: rgb(171, 99, 250); fill-opacity: 0.6; stroke-width: 0; opacity: 1;"/><path class="sankey-link" d="M383.70000000000005,319.55294117647054C564.3000000000001,319.55294117647054 564.3000000000001,443.616068866571 744.9000000000001,443.616068866571L744.9000000000001,446.2631276901004C564.3000000000001,446.2631276901004 564.3000000000001,322.19999999999993 383.70000000000005,322.19999999999993Z" style="stroke: rgb(68, 68, 68); stroke-opacity: 1; fill: rgb(171, 99, 250); fill-opacity: 0.6; stroke-width: 0; opacity: 1;"/><path class="sankey-link" d="M383.70000000000005,322.19999999999993C564.3000000000001,322.19999999999993 564.3000000000001,591.0081779053083 744.9000000000001,591.0081779053083L744.9000000000001,604.2434720229554C564.3000000000001,604.2434720229554 564.3000000000001,335.435294117647 383.70000000000005,335.435294117647Z" style="stroke: rgb(68, 68, 68); stroke-opacity: 1; fill: rgb(171, 99, 250); fill-opacity: 0.6; stroke-width: 0; opacity: 1;"/><path class="sankey-link" d="M383.70000000000005,308.9647058823529C564.3000000000001,308.9647058823529 564.3000000000001,313.2103299856528 744.9000000000001,313.2103299856528L744.9000000000001,323.79856527977046C564.3000000000001,323.79856527977046 564.3000000000001,319.5529411764706 383.70000000000005,319.5529411764706Z" style="stroke: rgb(68, 68, 68); stroke-opacity: 1; fill: rgb(171, 99, 250); fill-opacity: 0.6; stroke-width: 0; opacity: 1;"/><path class="sankey-link" d="M383.70000000000005,378.5294117647061C564.3000000000001,378.5294117647061 564.3000000000001,146.1847919655666 744.9000000000001,146.1847919655666L744.9000000000001,183.24361549497837C564.3000000000001,183.24361549497837 564.3000000000001,415.5882352941178 383.70000000000005,415.5882352941178Z" style="stroke: rgb(68, 68, 68); stroke-opacity: 1; fill: rgb(239, 85, 59); fill-opacity: 0.6; stroke-width: 0; opacity: 1;"/><path class="sankey-link" d="M383.70000000000005,450.0000000000002C564.3000000000001,450.0000000000002 564.3000000000001,446.2631276901004 744.9000000000001,446.2631276901004L744.9000000000001,448.9101865136298C564.3000000000001,448.9101865136298 564.3000000000001,452.6470588235296 383.70000000000005,452.6470588235296Z" style="stroke: rgb(68, 68, 68); stroke-opacity: 1; fill: rgb(239, 85, 59); fill-opacity: 0.6; stroke-width: 0; opacity: 1;"/><path class="sankey-link" d="M383.70000000000005,452.6470588235296C564.3000000000001,452.6470588235296 564.3000000000001,604.2434720229554 744.9000000000001,604.2434720229554L744.9000000000001,630.7140602582496C564.3000000000001,630.7140602582496 564.3000000000001,479.11764705882376 383.70000000000005,479.11764705882376Z" style="stroke: rgb(68, 68, 68); stroke-opacity: 1; fill: rgb(239, 85, 59); fill-opacity: 0.6; stroke-width: 0; opacity: 1;"/><path class="sankey-link" d="M383.70000000000005,415.58823529411785C564.3000000000001,415.58823529411785 564.3000000000001,323.7985652797704 744.9000000000001,323.7985652797704L744.9000000000001,358.2103299856527C564.3000000000001,358.2103299856527 564.3000000000001,450.00000000000017 383.70000000000005,450.00000000000017Z" style="stroke: rgb(68, 68, 68); stroke-opacity: 1; fill: rgb(239, 85, 59); fill-opacity: 0.6; stroke-width: 0; opacity: 1;"/><path class="sankey-link" d="M383.70000000000005,604.4823529411767C564.3000000000001,604.4823529411767 564.3000000000001,183.24361549497837 744.9000000000001,183.24361549497837L744.9000000000001,188.5377331420372C564.3000000000001,188.5377331420372 564.3000000000001,609.7764705882355 383.70000000000005,609.7764705882355Z" style="stroke: rgb(68, 68, 68); stroke-opacity: 1; fill: rgb(182, 232, 128); fill-opacity: 0.6; stroke-width: 0; opacity: 1;"/><path class="sankey-link" d="M383.70000000000005,615.0705882352943C564.3000000000001,615.0705882352943 564.3000000000001,630.7140602582496 744.9000000000001,630.7140602582496L744.9000000000001,646.5964131994261C564.3000000000001,646.5964131994261 564.3000000000001,630.9529411764709 383.70000000000005,630.9529411764709Z" style="stroke: rgb(68, 68, 68); stroke-opacity: 1; fill: rgb(182, 232, 128); fill-opacity: 0.6; stroke-width: 0; opacity: 1;"/><path class="sankey-link" d="M383.70000000000005,609.7764705882355C564.3000000000001,609.7764705882355 564.3000000000001,358.2103299856528 744.9000000000001,358.2103299856528L744.9000000000001,363.50444763271156C564.3000000000001,363.50444763271156 564.3000000000001,615.0705882352943 383.70000000000005,615.0705882352943Z" style="stroke: rgb(68, 68, 68); stroke-opacity: 1; fill: rgb(182, 232, 128); fill-opacity: 0.6; stroke-width: 0; opacity: 1;"/><path class="sankey-link" d="M383.70000000000005,675.6882352941177C564.3000000000001,675.6882352941177 564.3000000000001,646.596413199426 744.9000000000001,646.596413199426L744.9000000000001,649.2434720229555C564.3000000000001,649.2434720229555 564.3000000000001,678.3352941176472 383.70000000000005,678.3352941176472Z" style="stroke: rgb(68, 68, 68); stroke-opacity: 1; fill: rgb(255, 151, 255); fill-opacity: 0.6; stroke-width: 0; opacity: 1;"/><path class="sankey-link" d="M383.70000000000005,703.0058823529413C564.3000000000001,703.0058823529413 564.3000000000001,448.9101865136298 744.9000000000001,448.9101865136298L744.9000000000001,451.5572453371592C564.3000000000001,451.5572453371592 564.3000000000001,705.6529411764708 383.70000000000005,705.6529411764708Z" style="stroke: rgb(68, 68, 68); stroke-opacity: 1; fill: rgb(255, 102, 146); fill-opacity: 0.6; stroke-width: 0; opacity: 1;"/><path class="sankey-link" d="M759.9000000000001,72.06714490674307C946.19943,72.06714490674307 946.19943,40.235294117647086 1132.49886,40.235294117647086L1132.49886,45.52941176470591C946.19943,45.52941176470591 946.19943,77.36126255380188 759.9000000000001,77.36126255380188Z" style="stroke: rgb(68, 68, 68); stroke-opacity: 1; fill: rgb(25, 211, 243); fill-opacity: 0.6; stroke-width: 0; opacity: 1;"/><path class="sankey-link" d="M759.9000000000001,425.0866571018651C946.19943,425.0866571018651 946.19943,413.3823529411766 1132.49886,413.3823529411766L1132.49886,418.67647058823536C946.19943,418.67647058823536 946.19943,430.3807747489239 759.9000000000001,430.3807747489239Z" style="stroke: rgb(68, 68, 68); stroke-opacity: 1; fill: rgb(25, 211, 243); fill-opacity: 0.6; stroke-width: 0; opacity: 1;"/><path class="sankey-link" d="M759.9000000000001,604.2434720229553C946.19943,604.2434720229553 946.19943,642.3000000000002 1132.49886,642.3000000000002L1132.49886,647.594117647059C946.19943,647.594117647059 946.19943,609.5375896700141 759.9000000000001,609.5375896700141Z" style="stroke: rgb(68, 68, 68); stroke-opacity: 1; fill: rgb(25, 211, 243); fill-opacity: 0.6; stroke-width: 0; opacity: 1;"/><path class="sankey-link" d="M759.9000000000001,77.3612625538019C946.19943,77.3612625538019 946.19943,45.52941176470591 1132.49886,45.52941176470591L1132.49886,61.411764705882376C946.19943,61.411764705882376 946.19943,93.24361549497836 759.9000000000001,93.24361549497836Z" style="stroke: rgb(68, 68, 68); stroke-opacity: 1; fill: rgb(99, 110, 250); fill-opacity: 0.6; stroke-width: 0; opacity: 1;"/><path class="sankey-link" d="M759.9000000000001,135.59655667144895C946.19943,135.59655667144895 946.19943,165.52941176470588 1132.49886,165.52941176470588L1132.49886,184.05882352941174C946.19943,184.05882352941174 946.19943,154.1259684361548 759.9000000000001,154.1259684361548Z" style="stroke: rgb(68, 68, 68); stroke-opacity: 1; fill: rgb(99, 110, 250); fill-opacity: 0.6; stroke-width: 0; opacity: 1;"/><path class="sankey-link" d="M759.9000000000001,438.32195121951213C946.19943,438.32195121951213 946.19943,451.78235294117667 1132.49886,451.78235294117667L1132.49886,454.42941176470606C946.19943,454.42941176470606 946.19943,440.9690100430415 759.9000000000001,440.9690100430415Z" style="stroke: rgb(68, 68, 68); stroke-opacity: 1; fill: rgb(99, 110, 250); fill-opacity: 0.6; stroke-width: 0; opacity: 1;"/><path class="sankey-link" d="M759.9000000000001,535.4199426111907C946.19943,535.4199426111907 946.19943,512.788235294118 1132.49886,512.788235294118L1132.49886,528.6705882352945C946.19943,528.6705882352945 946.19943,551.3022955523672 759.9000000000001,551.3022955523672Z" style="stroke: rgb(68, 68, 68); stroke-opacity: 1; fill: rgb(99, 110, 250); fill-opacity: 0.6; stroke-width: 0; opacity: 1;"/><path class="sankey-link" d="M759.9000000000001,609.5375896700141C946.19943,609.5375896700141 946.19943,647.594117647059 1132.49886,647.594117647059L1132.49886,655.5352941176473C946.19943,655.5352941176473 946.19943,617.4787661406024 759.9000000000001,617.4787661406024Z" style="stroke: rgb(68, 68, 68); stroke-opacity: 1; fill: rgb(99, 110, 250); fill-opacity: 0.6; stroke-width: 0; opacity: 1;"/><path class="sankey-link" d="M759.9000000000001,318.50444763271156C946.19943,318.50444763271156 946.19943,330.3 1132.49886,330.3L1132.49886,335.5941176470588C946.19943,335.5941176470588 946.19943,323.79856527977034 759.9000000000001,323.79856527977034Z" style="stroke: rgb(68, 68, 68); stroke-opacity: 1; fill: rgb(99, 110, 250); fill-opacity: 0.6; stroke-width: 0; opacity: 1;"/><path class="sankey-link" d="M759.9000000000001,93.24361549497837C946.19943,93.24361549497837 946.19943,61.41176470588238 1132.49886,61.41176470588238L1132.49886,66.7058823529412C946.19943,66.7058823529412 946.19943,98.53773314203718 759.9000000000001,98.53773314203718Z" style="stroke: rgb(68, 68, 68); stroke-opacity: 1; fill: rgb(0, 204, 150); fill-opacity: 0.6; stroke-width: 0; opacity: 1;"/><path class="sankey-link" d="M759.9000000000001,154.12596843615484C946.19943,154.12596843615484 946.19943,184.05882352941177 1132.49886,184.05882352941177L1132.49886,186.70588235294116C946.19943,186.70588235294116 946.19943,156.77302725968423 759.9000000000001,156.77302725968423Z" style="stroke: rgb(68, 68, 68); stroke-opacity: 1; fill: rgb(0, 204, 150); fill-opacity: 0.6; stroke-width: 0; opacity: 1;"/><path class="sankey-link" d="M759.9000000000001,430.38077474892395C946.19943,430.38077474892395 946.19943,418.6764705882354 1132.49886,418.6764705882354L1132.49886,421.3235294117648C946.19943,421.3235294117648 946.19943,433.02783357245335 759.9000000000001,433.02783357245335Z" style="stroke: rgb(68, 68, 68); stroke-opacity: 1; fill: rgb(0, 204, 150); fill-opacity: 0.6; stroke-width: 0; opacity: 1;"/><path class="sankey-link" d="M759.9000000000001,440.9690100430415C946.19943,440.9690100430415 946.19943,454.42941176470606 1132.49886,454.42941176470606L1132.49886,457.07647058823545C946.19943,457.07647058823545 946.19943,443.6160688665709 759.9000000000001,443.6160688665709Z" style="stroke: rgb(68, 68, 68); stroke-opacity: 1; fill: rgb(0, 204, 150); fill-opacity: 0.6; stroke-width: 0; opacity: 1;"/><path class="sankey-link" d="M759.9000000000001,551.3022955523671C946.19943,551.3022955523671 946.19943,528.6705882352944 1132.49886,528.6705882352944L1132.49886,531.3176470588239C946.19943,531.3176470588239 946.19943,553.9493543758966 759.9000000000001,553.9493543758966Z" style="stroke: rgb(68, 68, 68); stroke-opacity: 1; fill: rgb(0, 204, 150); fill-opacity: 0.6; stroke-width: 0; opacity: 1;"/><path class="sankey-link" d="M759.9000000000001,617.4787661406024C946.19943,617.4787661406024 946.19943,655.5352941176473 1132.49886,655.5352941176473L1132.49886,658.1823529411768C946.19943,658.1823529411768 946.19943,620.1258249641319 759.9000000000001,620.1258249641319Z" style="stroke: rgb(68, 68, 68); stroke-opacity: 1; fill: rgb(0, 204, 150); fill-opacity: 0.6; stroke-width: 0; opacity: 1;"/><path class="sankey-link" d="M759.9000000000001,323.7985652797704C946.19943,323.7985652797704 946.19943,335.59411764705885 1132.49886,335.59411764705885L1132.49886,338.24117647058824C946.19943,338.24117647058824 946.19943,326.4456241032998 759.9000000000001,326.4456241032998Z" style="stroke: rgb(68, 68, 68); stroke-opacity: 1; fill: rgb(0, 204, 150); fill-opacity: 0.6; stroke-width: 0; opacity: 1;"/><path class="sankey-link" d="M759.9000000000001,98.5377331420372C946.19943,98.5377331420372 946.19943,66.7058823529412 1132.49886,66.7058823529412L1132.49886,74.64705882352943C946.19943,74.64705882352943 946.19943,106.47890961262543 759.9000000000001,106.47890961262543Z" style="stroke: rgb(68, 68, 68); stroke-opacity: 1; fill: rgb(254, 203, 82); fill-opacity: 0.6; stroke-width: 0; opacity: 1;"/><path class="sankey-link" d="M759.9000000000001,156.77302725968426C946.19943,156.77302725968426 946.19943,186.7058823529412 1132.49886,186.7058823529412L1132.49886,189.35294117647058C946.19943,189.35294117647058 946.19943,159.42008608321365 759.9000000000001,159.42008608321365Z" style="stroke: rgb(68, 68, 68); stroke-opacity: 1; fill: rgb(254, 203, 82); fill-opacity: 0.6; stroke-width: 0; opacity: 1;"/><path class="sankey-link" d="M759.9000000000001,553.9493543758965C946.19943,553.9493543758965 946.19943,531.3176470588238 1132.49886,531.3176470588238L1132.49886,539.2588235294121C946.19943,539.2588235294121 946.19943,561.8905308464848 759.9000000000001,561.8905308464848Z" style="stroke: rgb(68, 68, 68); stroke-opacity: 1; fill: rgb(254, 203, 82); fill-opacity: 0.6; stroke-width: 0; opacity: 1;"/><path class="sankey-link" d="M759.9000000000001,620.1258249641318C946.19943,620.1258249641318 946.19943,658.1823529411766 1132.49886,658.1823529411766L1132.49886,660.8294117647062C946.19943,660.8294117647062 946.19943,622.7728837876613 759.9000000000001,622.7728837876613Z" style="stroke: rgb(68, 68, 68); stroke-opacity: 1; fill: rgb(254, 203, 82); fill-opacity: 0.6; stroke-width: 0; opacity: 1;"/><path class="sankey-link" d="M759.9000000000001,294.6809182209469C946.19943,294.6809182209469 946.19943,264.08823529411785 1132.49886,264.08823529411785L1132.49886,266.73529411764724C946.19943,266.73529411764724 946.19943,297.3279770444763 759.9000000000001,297.3279770444763Z" style="stroke: rgb(68, 68, 68); stroke-opacity: 1; fill: rgb(254, 203, 82); fill-opacity: 0.6; stroke-width: 0; opacity: 1;"/><path class="sankey-link" d="M759.9000000000001,326.4456241032998C946.19943,326.4456241032998 946.19943,338.24117647058824 1132.49886,338.24117647058824L1132.49886,346.18235294117653C946.19943,346.18235294117653 946.19943,334.3868005738881 759.9000000000001,334.3868005738881Z" style="stroke: rgb(68, 68, 68); stroke-opacity: 1; fill: rgb(254, 203, 82); fill-opacity: 0.6; stroke-width: 0; opacity: 1;"/><path class="sankey-link" d="M759.9000000000001,106.47890961262543C946.19943,106.47890961262543 946.19943,74.64705882352943 1132.49886,74.64705882352943L1132.49886,77.29411764705885C946.19943,77.29411764705885 946.19943,109.12596843615485 759.9000000000001,109.12596843615485Z" style="stroke: rgb(68, 68, 68); stroke-opacity: 1; fill: rgb(255, 161, 90); fill-opacity: 0.6; stroke-width: 0; opacity: 1;"/><path class="sankey-link" d="M759.9000000000001,159.42008608321368C946.19943,159.42008608321368 946.19943,189.3529411764706 1132.49886,189.3529411764706L1132.49886,194.64705882352945C946.19943,194.64705882352945 946.19943,164.71420373027252 759.9000000000001,164.71420373027252Z" style="stroke: rgb(68, 68, 68); stroke-opacity: 1; fill: rgb(255, 161, 90); fill-opacity: 0.6; stroke-width: 0; opacity: 1;"/><path class="sankey-link" d="M759.9000000000001,433.02783357245335C946.19943,433.02783357245335 946.19943,421.3235294117648 1132.49886,421.3235294117648L1132.49886,423.9705882352942C946.19943,423.9705882352942 946.19943,435.67489239598274 759.9000000000001,435.67489239598274Z" style="stroke: rgb(68, 68, 68); stroke-opacity: 1; fill: rgb(255, 161, 90); fill-opacity: 0.6; stroke-width: 0; opacity: 1;"/><path class="sankey-link" d="M759.9000000000001,443.6160688665709C946.19943,443.6160688665709 946.19943,457.07647058823545 1132.49886,457.07647058823545L1132.49886,459.72352941176484C946.19943,459.72352941176484 946.19943,446.2631276901003 759.9000000000001,446.2631276901003Z" style="stroke: rgb(68, 68, 68); stroke-opacity: 1; fill: rgb(255, 161, 90); fill-opacity: 0.6; stroke-width: 0; opacity: 1;"/><path class="sankey-link" d="M759.9000000000001,561.8905308464848C946.19943,561.8905308464848 946.19943,539.2588235294121 1132.49886,539.2588235294121L1132.49886,544.5529411764709C946.19943,544.5529411764709 946.19943,567.1846484935436 759.9000000000001,567.1846484935436Z" style="stroke: rgb(68, 68, 68); stroke-opacity: 1; fill: rgb(255, 161, 90); fill-opacity: 0.6; stroke-width: 0; opacity: 1;"/><path class="sankey-link" d="M759.9000000000001,622.7728837876612C946.19943,622.7728837876612 946.19943,660.829411764706 1132.49886,660.829411764706L1132.49886,666.1235294117648C946.19943,666.1235294117648 946.19943,628.0670014347199 759.9000000000001,628.0670014347199Z" style="stroke: rgb(68, 68, 68); stroke-opacity: 1; fill: rgb(255, 161, 90); fill-opacity: 0.6; stroke-width: 0; opacity: 1;"/><path class="sankey-link" d="M759.9000000000001,164.7142037302725C946.19943,164.7142037302725 946.19943,194.64705882352942 1132.49886,194.64705882352942L1132.49886,202.58823529411765C946.19943,202.58823529411765 946.19943,172.65538020086072 759.9000000000001,172.65538020086072Z" style="stroke: rgb(68, 68, 68); stroke-opacity: 1; fill: rgb(171, 99, 250); fill-opacity: 0.6; stroke-width: 0; opacity: 1;"/><path class="sankey-link" d="M759.9000000000001,435.67489239598274C946.19943,435.67489239598274 946.19943,423.9705882352942 1132.49886,423.9705882352942L1132.49886,426.6176470588236C946.19943,426.6176470588236 946.19943,438.32195121951213 759.9000000000001,438.32195121951213Z" style="stroke: rgb(68, 68, 68); stroke-opacity: 1; fill: rgb(171, 99, 250); fill-opacity: 0.6; stroke-width: 0; opacity: 1;"/><path class="sankey-link" d="M759.9000000000001,567.1846484935436C946.19943,567.1846484935436 946.19943,544.5529411764709 1132.49886,544.5529411764709L1132.49886,549.8470588235297C946.19943,549.8470588235297 946.19943,572.4787661406024 759.9000000000001,572.4787661406024Z" style="stroke: rgb(68, 68, 68); stroke-opacity: 1; fill: rgb(171, 99, 250); fill-opacity: 0.6; stroke-width: 0; opacity: 1;"/><path class="sankey-link" d="M759.9000000000001,628.0670014347199C946.19943,628.0670014347199 946.19943,666.1235294117648 1132.49886,666.1235294117648L1132.49886,674.0647058823531C946.19943,674.0647058823531 946.19943,636.0081779053082 759.9000000000001,636.0081779053082Z" style="stroke: rgb(68, 68, 68); stroke-opacity: 1; fill: rgb(171, 99, 250); fill-opacity: 0.6; stroke-width: 0; opacity: 1;"/><path class="sankey-link" d="M759.9000000000001,297.3279770444763C946.19943,297.3279770444763 946.19943,266.73529411764724 1132.49886,266.73529411764724L1132.49886,269.38235294117663C946.19943,269.38235294117663 946.19943,299.9750358680057 759.9000000000001,299.9750358680057Z" style="stroke: rgb(68, 68, 68); stroke-opacity: 1; fill: rgb(171, 99, 250); fill-opacity: 0.6; stroke-width: 0; opacity: 1;"/><path class="sankey-link" d="M759.9000000000001,334.386800573888C946.19943,334.386800573888 946.19943,346.1823529411765 1132.49886,346.1823529411765L1132.49886,354.12352941176476C946.19943,354.12352941176476 946.19943,342.3279770444763 759.9000000000001,342.3279770444763Z" style="stroke: rgb(68, 68, 68); stroke-opacity: 1; fill: rgb(171, 99, 250); fill-opacity: 0.6; stroke-width: 0; opacity: 1;"/><path class="sankey-link" d="M759.9000000000001,109.12596843615484C946.19943,109.12596843615484 946.19943,77.29411764705884 1132.49886,77.29411764705884L1132.49886,101.11764705882354C946.19943,101.11764705882354 946.19943,132.94949784791953 759.9000000000001,132.94949784791953Z" style="stroke: rgb(68, 68, 68); stroke-opacity: 1; fill: rgb(239, 85, 59); fill-opacity: 0.6; stroke-width: 0; opacity: 1;"/><path class="sankey-link" d="M759.9000000000001,172.65538020086072C946.19943,172.65538020086072 946.19943,202.58823529411765 1132.49886,202.58823529411765L1132.49886,215.82352941176472C946.19943,215.82352941176472 946.19943,185.8906743185078 759.9000000000001,185.8906743185078Z" style="stroke: rgb(68, 68, 68); stroke-opacity: 1; fill: rgb(239, 85, 59); fill-opacity: 0.6; stroke-width: 0; opacity: 1;"/><path class="sankey-link" d="M759.9000000000001,446.2631276901003C946.19943,446.2631276901003 946.19943,459.72352941176484 1132.49886,459.72352941176484L1132.49886,462.37058823529424C946.19943,462.37058823529424 946.19943,448.9101865136297 759.9000000000001,448.9101865136297Z" style="stroke: rgb(68, 68, 68); stroke-opacity: 1; fill: rgb(239, 85, 59); fill-opacity: 0.6; stroke-width: 0; opacity: 1;"/><path class="sankey-link" d="M759.9000000000001,572.4787661406024C946.19943,572.4787661406024 946.19943,549.8470588235297 1132.49886,549.8470588235297L1132.49886,571.023529411765C946.19943,571.023529411765 946.19943,593.6552367288377 759.9000000000001,593.6552367288377Z" style="stroke: rgb(68, 68, 68); stroke-opacity: 1; fill: rgb(239, 85, 59); fill-opacity: 0.6; stroke-width: 0; opacity: 1;"/><path class="sankey-link" d="M759.9000000000001,636.0081779053082C946.19943,636.0081779053082 946.19943,674.0647058823531 1132.49886,674.0647058823531L1132.49886,679.3588235294119C946.19943,679.3588235294119 946.19943,641.302295552367 759.9000000000001,641.302295552367Z" style="stroke: rgb(68, 68, 68); stroke-opacity: 1; fill: rgb(239, 85, 59); fill-opacity: 0.6; stroke-width: 0; opacity: 1;"/><path class="sankey-link" d="M759.9000000000001,299.9750358680057C946.19943,299.9750358680057 946.19943,269.38235294117663 1132.49886,269.38235294117663L1132.49886,285.2647058823531C946.19943,285.2647058823531 946.19943,315.85738880918217 759.9000000000001,315.85738880918217Z" style="stroke: rgb(68, 68, 68); stroke-opacity: 1; fill: rgb(239, 85, 59); fill-opacity: 0.6; stroke-width: 0; opacity: 1;"/><path class="sankey-link" d="M759.9000000000001,342.32797704447626C946.19943,342.32797704447626 946.19943,354.1235294117647 1132.49886,354.1235294117647L1132.49886,372.65294117647056C946.19943,372.65294117647056 946.19943,360.8573888091821 759.9000000000001,360.8573888091821Z" style="stroke: rgb(68, 68, 68); stroke-opacity: 1; fill: rgb(239, 85, 59); fill-opacity: 0.6; stroke-width: 0; opacity: 1;"/><path class="sankey-link" d="M759.9000000000001,132.94949784791953C946.19943,132.94949784791953 946.19943,101.11764705882355 1132.49886,101.11764705882355L1132.49886,103.76470588235297C946.19943,103.76470588235297 946.19943,135.59655667144892 759.9000000000001,135.59655667144892Z" style="stroke: rgb(68, 68, 68); stroke-opacity: 1; fill: rgb(182, 232, 128); fill-opacity: 0.6; stroke-width: 0; opacity: 1;"/><path class="sankey-link" d="M759.9000000000001,185.89067431850776C946.19943,185.89067431850776 946.19943,215.8235294117647 1132.49886,215.8235294117647L1132.49886,218.4705882352941C946.19943,218.4705882352941 946.19943,188.53773314203715 759.9000000000001,188.53773314203715Z" style="stroke: rgb(68, 68, 68); stroke-opacity: 1; fill: rgb(182, 232, 128); fill-opacity: 0.6; stroke-width: 0; opacity: 1;"/><path class="sankey-link" d="M759.9000000000001,593.6552367288376C946.19943,593.6552367288376 946.19943,571.0235294117649 1132.49886,571.0235294117649L1132.49886,578.9647058823532C946.19943,578.9647058823532 946.19943,601.5964131994259 759.9000000000001,601.5964131994259Z" style="stroke: rgb(68, 68, 68); stroke-opacity: 1; fill: rgb(182, 232, 128); fill-opacity: 0.6; stroke-width: 0; opacity: 1;"/><path class="sankey-link" d="M759.9000000000001,641.302295552367C946.19943,641.302295552367 946.19943,679.3588235294119 1132.49886,679.3588235294119L1132.49886,687.3000000000002C946.19943,687.3000000000002 946.19943,649.2434720229553 759.9000000000001,649.2434720229553Z" style="stroke: rgb(68, 68, 68); stroke-opacity: 1; fill: rgb(182, 232, 128); fill-opacity: 0.6; stroke-width: 0; opacity: 1;"/><path class="sankey-link" d="M759.9000000000001,315.85738880918217C946.19943,315.85738880918217 946.19943,285.2647058823531 1132.49886,285.2647058823531L1132.49886,287.9117647058825C946.19943,287.9117647058825 946.19943,318.50444763271156 759.9000000000001,318.50444763271156Z" style="stroke: rgb(68, 68, 68); stroke-opacity: 1; fill: rgb(182, 232, 128); fill-opacity: 0.6; stroke-width: 0; opacity: 1;"/><path class="sankey-link" d="M759.9000000000001,360.8573888091821C946.19943,360.8573888091821 946.19943,372.65294117647056 1132.49886,372.65294117647056L1132.49886,375.29999999999995C946.19943,375.29999999999995 946.19943,363.5044476327115 759.9000000000001,363.5044476327115Z" style="stroke: rgb(68, 68, 68); stroke-opacity: 1; fill: rgb(182, 232, 128); fill-opacity: 0.6; stroke-width: 0; opacity: 1;"/><path class="sankey-link" d="M759.9000000000001,601.5964131994259C946.19943,601.5964131994259 946.19943,578.9647058823532 1132.49886,578.9647058823532L1132.49886,581.6117647058827C946.19943,581.6117647058827 946.19943,604.2434720229554 759.9000000000001,604.2434720229554Z" style="stroke: rgb(68, 68, 68); stroke-opacity: 1; fill: rgb(255, 151, 255); fill-opacity: 0.6; stroke-width: 0; opacity: 1;"/><path class="sankey-link" d="M759.9000000000001,448.9101865136297C946.19943,448.9101865136297 946.19943,462.37058823529424 1132.49886,462.37058823529424L1132.49886,465.0176470588236C946.19943,465.0176470588236 946.19943,451.5572453371591 759.9000000000001,451.5572453371591Z" style="stroke: rgb(68, 68, 68); stroke-opacity: 1; fill: rgb(255, 102, 146); fill-opacity: 0.6; stroke-width: 0; opacity: 1;"/></g><g class="sankey-node-set" style="cursor: ns-resize;"><g class="sankey-node" transform="translate(-7.499,16.846)" style="opacity: 1;"><rect class="node-rect" width="15" height="55.58823529411757" style="stroke-width: 0.5; stroke: rgb(0, 0, 0); stroke-opacity: 1; fill: rgb(128, 128, 128); fill-opacity: 1;"/><text class="node-label" data-notex="1" x="0" y="0" text-anchor="start" transform="translate(18.25,31.994117647058783)" style="cursor: default; font-family: 'Open Sans', verdana, arial, sans-serif; font-size: 12px; fill: rgb(42, 63, 95); fill-opacity: 1; white-space: pre; text-shadow: white 1px 1px 1px, white -1px -1px 1px, white 1px -1px 1px, white -1px 1px 1px;">21271R</text></g><g class="sankey-node" transform="translate(-7.499,91.144)" style="opacity: 1;"><rect class="node-rect" width="15" height="42.35294117647072" style="stroke-width: 0.5; stroke: rgb(0, 0, 0); stroke-opacity: 1; fill: rgb(128, 128, 128); fill-opacity: 1;"/><text class="node-label" data-notex="1" x="0" y="0" text-anchor="start" transform="translate(18.25,25.37647058823536)" style="cursor: default; font-family: 'Open Sans', verdana, arial, sans-serif; font-size: 12px; fill: rgb(42, 63, 95); fill-opacity: 1; white-space: pre; text-shadow: white 1px 1px 1px, white -1px -1px 1px, white 1px -1px 1px, white -1px 1px 1px;">21272R</text></g><g class="sankey-node" transform="translate(-7.499,151.856)" style="opacity: 1;"><rect class="node-rect" width="15" height="47.647058823529505" style="stroke-width: 0.5; stroke: rgb(0, 0, 0); stroke-opacity: 1; fill: rgb(128, 128, 128); fill-opacity: 1;"/><text class="node-label" data-notex="1" x="0" y="0" text-anchor="start" transform="translate(18.25,28.023529411764752)" style="cursor: default; font-family: 'Open Sans', verdana, arial, sans-serif; font-size: 12px; fill: rgb(42, 63, 95); fill-opacity: 1; white-space: pre; text-shadow: white 1px 1px 1px, white -1px -1px 1px, white 1px -1px 1px, white -1px 1px 1px;">21965RL</text></g><g class="sankey-node" transform="translate(-7.499,225.551)" style="opacity: 1;"><rect class="node-rect" width="15" height="217.0588235294117" style="stroke-width: 0.5; stroke: rgb(0, 0, 0); stroke-opacity: 1; fill: rgb(128, 128, 128); fill-opacity: 1;"/><text class="node-label" data-notex="1" x="0" y="0" text-anchor="start" transform="translate(18.25,112.72941176470586)" style="cursor: default; font-family: 'Open Sans', verdana, arial, sans-serif; font-size: 12px; fill: rgb(42, 63, 95); fill-opacity: 1; white-space: pre; text-shadow: white 1px 1px 1px, white -1px -1px 1px, white 1px -1px 1px, white -1px 1px 1px;">22384</text></g><g class="sankey-node" transform="translate(-7.499,476.227)" style="opacity: 1;"><rect class="node-rect" width="15" height="219.70588235294127" style="stroke-width: 0.5; stroke: rgb(0, 0, 0); stroke-opacity: 1; fill: rgb(128, 128, 128); fill-opacity: 1;"/><text class="node-label" data-notex="1" x="0" y="0" text-anchor="start" transform="translate(18.25,114.05294117647064)" style="cursor: default; font-family: 'Open Sans', verdana, arial, sans-serif; font-size: 12px; fill: rgb(42, 63, 95); fill-opacity: 1; white-space: pre; text-shadow: white 1px 1px 1px, white -1px -1px 1px, white 1px -1px 1px, white -1px 1px 1px;">22670</text></g><g class="sankey-node" transform="translate(744.900,72.067)" style="opacity: 1;"><rect class="node-rect" width="15" height="116.47058823529437" style="stroke-width: 0.5; stroke: rgb(0, 0, 0); stroke-opacity: 1; fill: rgb(128, 128, 128); fill-opacity: 1;"/><text class="node-label" data-notex="1" x="0" y="0" text-anchor="start" transform="translate(18.25,62.43529411764719)" style="cursor: default; font-family: 'Open Sans', verdana, arial, sans-serif; font-size: 12px; fill: rgb(42, 63, 95); fill-opacity: 1; white-space: pre; text-shadow: white 1px 1px 1px, white -1px -1px 1px, white 1px -1px 1px, white -1px 1px 1px;">Aggressor</text></g><g class="sankey-node" transform="translate(744.900,294.681)" style="opacity: 1;"><rect class="node-rect" width="15" height="68.82352941176464" style="stroke-width: 0.5; stroke: rgb(0, 0, 0); stroke-opacity: 1; fill: rgb(128, 128, 128); fill-opacity: 1;"/><text class="node-label" data-notex="1" x="0" y="0" text-anchor="start" transform="translate(18.25,38.61176470588232)" style="cursor: default; font-family: 'Open Sans', verdana, arial, sans-serif; font-size: 12px; fill: rgb(42, 63, 95); fill-opacity: 1; white-space: pre; text-shadow: white 1px 1px 1px, white -1px -1px 1px, white 1px -1px 1px, white -1px 1px 1px;">Target of Aggression</text></g><g class="sankey-node" transform="translate(744.900,425.087)" style="opacity: 1;"><rect class="node-rect" width="15" height="26.470588235294144" style="stroke-width: 0.5; stroke: rgb(0, 0, 0); stroke-opacity: 1; fill: rgb(128, 128, 128); fill-opacity: 1;"/><text class="node-label" data-notex="1" x="0" y="0" text-anchor="start" transform="translate(18.25,17.43529411764707)" style="cursor: default; font-family: 'Open Sans', verdana, arial, sans-serif; font-size: 12px; fill: rgb(42, 63, 95); fill-opacity: 1; white-space: pre; text-shadow: white 1px 1px 1px, white -1px -1px 1px, white 1px -1px 1px, white -1px 1px 1px;">NonSocial</text></g><g class="sankey-node" transform="translate(744.900,535.420)" style="opacity: 1;"><rect class="node-rect" width="15" height="113.8235294117651" style="stroke-width: 0.5; stroke: rgb(0, 0, 0); stroke-opacity: 1; fill: rgb(128, 128, 128); fill-opacity: 1;"/><text class="node-label" data-notex="1" x="0" y="0" text-anchor="start" transform="translate(18.25,61.11176470588255)" style="cursor: default; font-family: 'Open Sans', verdana, arial, sans-serif; font-size: 12px; fill: rgb(42, 63, 95); fill-opacity: 1; white-space: pre; text-shadow: white 1px 1px 1px, white -1px -1px 1px, white 1px -1px 1px, white -1px 1px 1px;">Social</text></g><g class="sankey-node" transform="translate(1132.499,40.235)" style="opacity: 1;"><rect class="node-rect" width="15" height="63.529411764705856" style="stroke-width: 0.5; stroke: rgb(0, 0, 0); stroke-opacity: 1; fill: rgb(128, 128, 128); fill-opacity: 1;"/><text class="node-label" data-notex="1" x="0" y="0" text-anchor="end" transform="translate(-3.25,35.96470588235293)" style="cursor: default; font-family: 'Open Sans', verdana, arial, sans-serif; font-size: 12px; fill: rgb(42, 63, 95); fill-opacity: 1; white-space: pre; text-shadow: white 1px 1px 1px, white -1px -1px 1px, white 1px -1px 1px, white -1px 1px 1px;">Aggressor-activated</text></g><g class="sankey-node" transform="translate(1132.499,165.529)" style="opacity: 1;"><rect class="node-rect" width="15" height="52.94117647058829" style="stroke-width: 0.5; stroke: rgb(0, 0, 0); stroke-opacity: 1; fill: rgb(128, 128, 128); fill-opacity: 1;"/><text class="node-label" data-notex="1" x="0" y="0" text-anchor="end" transform="translate(-3.25,30.670588235294144)" style="cursor: default; font-family: 'Open Sans', verdana, arial, sans-serif; font-size: 12px; fill: rgb(42, 63, 95); fill-opacity: 1; white-space: pre; text-shadow: white 1px 1px 1px, white -1px -1px 1px, white 1px -1px 1px, white -1px 1px 1px;">Aggressor-suppressed</text></g><g class="sankey-node" transform="translate(1132.499,264.088)" style="opacity: 1;"><rect class="node-rect" width="15" height="23.82352941176441" style="stroke-width: 0.5; stroke: rgb(0, 0, 0); stroke-opacity: 1; fill: rgb(128, 128, 128); fill-opacity: 1;"/><text class="node-label" data-notex="1" x="0" y="0" text-anchor="end" transform="translate(-3.25,16.111764705882205)" style="cursor: default; font-family: 'Open Sans', verdana, arial, sans-serif; font-size: 12px; fill: rgb(42, 63, 95); fill-opacity: 1; white-space: pre; text-shadow: white 1px 1px 1px, white -1px -1px 1px, white 1px -1px 1px, white -1px 1px 1px;">Target of Aggression-activated</text></g><g class="sankey-node" transform="translate(1132.499,330.300)" style="opacity: 1;"><rect class="node-rect" width="15" height="45.000000000000114" style="stroke-width: 0.5; stroke: rgb(0, 0, 0); stroke-opacity: 1; fill: rgb(128, 128, 128); fill-opacity: 1;"/><text class="node-label" data-notex="1" x="0" y="0" text-anchor="end" transform="translate(-3.25,26.700000000000056)" style="cursor: default; font-family: 'Open Sans', verdana, arial, sans-serif; font-size: 12px; fill: rgb(42, 63, 95); fill-opacity: 1; white-space: pre; text-shadow: white 1px 1px 1px, white -1px -1px 1px, white 1px -1px 1px, white -1px 1px 1px;">Target of Aggression-suppressed</text></g><g class="sankey-node" transform="translate(1132.499,413.382)" style="opacity: 1;"><rect class="node-rect" width="15" height="13.235294117647072" style="stroke-width: 0.5; stroke: rgb(0, 0, 0); stroke-opacity: 1; fill: rgb(128, 128, 128); fill-opacity: 1;"/><text class="node-label" data-notex="1" x="0" y="0" text-anchor="end" transform="translate(-3.25,10.817647058823535)" style="cursor: default; font-family: 'Open Sans', verdana, arial, sans-serif; font-size: 12px; fill: rgb(42, 63, 95); fill-opacity: 1; white-space: pre; text-shadow: white 1px 1px 1px, white -1px -1px 1px, white 1px -1px 1px, white -1px 1px 1px;">NonSocial-activated</text></g><g class="sankey-node" transform="translate(1132.499,451.782)" style="opacity: 1;"><rect class="node-rect" width="15" height="13.235294117647072" style="stroke-width: 0.5; stroke: rgb(0, 0, 0); stroke-opacity: 1; fill: rgb(128, 128, 128); fill-opacity: 1;"/><text class="node-label" data-notex="1" x="0" y="0" text-anchor="end" transform="translate(-3.25,10.817647058823535)" style="cursor: default; font-family: 'Open Sans', verdana, arial, sans-serif; font-size: 12px; fill: rgb(42, 63, 95); fill-opacity: 1; white-space: pre; text-shadow: white 1px 1px 1px, white -1px -1px 1px, white 1px -1px 1px, white -1px 1px 1px;">NonSocial-suppressed</text></g><g class="sankey-node" transform="translate(1132.499,512.788)" style="opacity: 1;"><rect class="node-rect" width="15" height="68.82352941176464" style="stroke-width: 0.5; stroke: rgb(0, 0, 0); stroke-opacity: 1; fill: rgb(128, 128, 128); fill-opacity: 1;"/><text class="node-label" data-notex="1" x="0" y="0" text-anchor="end" transform="translate(-3.25,38.61176470588232)" style="cursor: default; font-family: 'Open Sans', verdana, arial, sans-serif; font-size: 12px; fill: rgb(42, 63, 95); fill-opacity: 1; white-space: pre; text-shadow: white 1px 1px 1px, white -1px -1px 1px, white 1px -1px 1px, white -1px 1px 1px;">Social-activated</text></g><g class="sankey-node" transform="translate(1132.499,642.300)" style="opacity: 1;"><rect class="node-rect" width="15" height="45.00000000000023" style="stroke-width: 0.5; stroke: rgb(0, 0, 0); stroke-opacity: 1; fill: rgb(128, 128, 128); fill-opacity: 1;"/><text class="node-label" data-notex="1" x="0" y="0" text-anchor="end" transform="translate(-3.25,26.700000000000113)" style="cursor: default; font-family: 'Open Sans', verdana, arial, sans-serif; font-size: 12px; fill: rgb(42, 63, 95); fill-opacity: 1; white-space: pre; text-shadow: white 1px 1px 1px, white -1px -1px 1px, white 1px -1px 1px, white -1px 1px 1px;">Social-suppressed</text></g><g class="sankey-node" transform="translate(368.700,14.082)" style="opacity: 1;"><rect class="node-rect" width="15" height="15.88235294117635" style="stroke-width: 0.5; stroke: rgb(0, 0, 0); stroke-opacity: 1; fill: rgb(25, 211, 243); fill-opacity: 1;"/><text class="node-label" data-notex="1" x="0" y="0" text-anchor="start" transform="translate(18.25,12.141176470588174)" style="cursor: default; font-family: 'Open Sans', verdana, arial, sans-serif; font-size: 12px; fill: rgb(42, 63, 95); fill-opacity: 1; white-space: pre; text-shadow: white 1px 1px 1px, white -1px -1px 1px, white 1px -1px 1px, white -1px 1px 1px;">BLA</text></g><g class="sankey-node" transform="translate(368.700,41.929)" style="opacity: 1;"><rect class="node-rect" width="15" height="105.88235294117698" style="stroke-width: 0.5; stroke: rgb(0, 0, 0); stroke-opacity: 1; fill: rgb(99, 110, 250); fill-opacity: 1;"/><text class="node-label" data-notex="1" x="0" y="0" text-anchor="start" transform="translate(18.25,57.14117647058849)" style="cursor: default; font-family: 'Open Sans', verdana, arial, sans-serif; font-size: 12px; fill: rgb(42, 63, 95); fill-opacity: 1; white-space: pre; text-shadow: white 1px 1px 1px, white -1px -1px 1px, white 1px -1px 1px, white -1px 1px 1px;">Cla</text></g><g class="sankey-node" transform="translate(368.700,159.459)" style="opacity: 1;"><rect class="node-rect" width="15" height="31.764705882352473" style="stroke-width: 0.5; stroke: rgb(0, 0, 0); stroke-opacity: 1; fill: rgb(0, 204, 150); fill-opacity: 1;"/><text class="node-label" data-notex="1" x="0" y="0" text-anchor="start" transform="translate(18.25,20.082352941176236)" style="cursor: default; font-family: 'Open Sans', verdana, arial, sans-serif; font-size: 12px; fill: rgb(42, 63, 95); fill-opacity: 1; white-space: pre; text-shadow: white 1px 1px 1px, white -1px -1px 1px, white 1px -1px 1px, white -1px 1px 1px;">LC</text></g><g class="sankey-node" transform="translate(368.700,204.141)" style="opacity: 1;"><rect class="node-rect" width="15" height="42.35294117647061" style="stroke-width: 0.5; stroke: rgb(0, 0, 0); stroke-opacity: 1; fill: rgb(254, 203, 82); fill-opacity: 1;"/><text class="node-label" data-notex="1" x="0" y="0" text-anchor="start" transform="translate(18.25,25.376470588235303)" style="cursor: default; font-family: 'Open Sans', verdana, arial, sans-serif; font-size: 12px; fill: rgb(42, 63, 95); fill-opacity: 1; white-space: pre; text-shadow: white 1px 1px 1px, white -1px -1px 1px, white 1px -1px 1px, white -1px 1px 1px;">LHyp</text></g><g class="sankey-node" transform="translate(368.700,259.465)" style="opacity: 1;"><rect class="node-rect" width="15" height="29.11764705882365" style="stroke-width: 0.5; stroke: rgb(0, 0, 0); stroke-opacity: 1; fill: rgb(255, 161, 90); fill-opacity: 1;"/><text class="node-label" data-notex="1" x="0" y="0" text-anchor="start" transform="translate(18.25,18.758823529411824)" style="cursor: default; font-family: 'Open Sans', verdana, arial, sans-serif; font-size: 12px; fill: rgb(42, 63, 95); fill-opacity: 1; white-space: pre; text-shadow: white 1px 1px 1px, white -1px -1px 1px, white 1px -1px 1px, white -1px 1px 1px;">NAc</text></g><g class="sankey-node" transform="translate(368.700,301.024)" style="opacity: 1;"><rect class="node-rect" width="15" height="68.82352941176487" style="stroke-width: 0.5; stroke: rgb(0, 0, 0); stroke-opacity: 1; fill: rgb(171, 99, 250); fill-opacity: 1;"/><text class="node-label" data-notex="1" x="0" y="0" text-anchor="start" transform="translate(18.25,38.611764705882436)" style="cursor: default; font-family: 'Open Sans', verdana, arial, sans-serif; font-size: 12px; fill: rgb(42, 63, 95); fill-opacity: 1; white-space: pre; text-shadow: white 1px 1px 1px, white -1px -1px 1px, white 1px -1px 1px, white -1px 1px 1px;">Str</text></g><g class="sankey-node" transform="translate(368.700,378.529)" style="opacity: 1;"><rect class="node-rect" width="15" height="217.05882352941137" style="stroke-width: 0.5; stroke: rgb(0, 0, 0); stroke-opacity: 1; fill: rgb(239, 85, 59); fill-opacity: 1;"/><text class="node-label" data-notex="1" x="0" y="0" text-anchor="start" transform="translate(18.25,112.72941176470569)" style="cursor: default; font-family: 'Open Sans', verdana, arial, sans-serif; font-size: 12px; fill: rgb(42, 63, 95); fill-opacity: 1; white-space: pre; text-shadow: white 1px 1px 1px, white -1px -1px 1px, white 1px -1px 1px, white -1px 1px 1px;">VTA</text></g><g class="sankey-node" transform="translate(368.700,604.482)" style="opacity: 1;"><rect class="node-rect" width="15" height="58.235294117646845" style="stroke-width: 0.5; stroke: rgb(0, 0, 0); stroke-opacity: 1; fill: rgb(182, 232, 128); fill-opacity: 1;"/><text class="node-label" data-notex="1" x="0" y="0" text-anchor="start" transform="translate(18.25,33.317647058823425)" style="cursor: default; font-family: 'Open Sans', verdana, arial, sans-serif; font-size: 12px; fill: rgb(42, 63, 95); fill-opacity: 1; white-space: pre; text-shadow: white 1px 1px 1px, white -1px -1px 1px, white 1px -1px 1px, white -1px 1px 1px;">cPFC</text></g><g class="sankey-node" transform="translate(368.700,675.688)" style="opacity: 1;"><rect class="node-rect" width="15" height="13.235294117647072" style="stroke-width: 0.5; stroke: rgb(0, 0, 0); stroke-opacity: 1; fill: rgb(255, 151, 255); fill-opacity: 1;"/><text class="node-label" data-notex="1" x="0" y="0" text-anchor="start" transform="translate(18.25,10.817647058823535)" style="cursor: default; font-family: 'Open Sans', verdana, arial, sans-serif; font-size: 12px; fill: rgb(42, 63, 95); fill-opacity: 1; white-space: pre; text-shadow: white 1px 1px 1px, white -1px -1px 1px, white 1px -1px 1px, white -1px 1px 1px;">dPAG</text></g><g class="sankey-node" transform="translate(368.700,703.006)" style="opacity: 1;"><rect class="node-rect" width="15" height="2.647058823529278" style="stroke-width: 0.5; stroke: rgb(0, 0, 0); stroke-opacity: 1; fill: rgb(255, 102, 146); fill-opacity: 1;"/><text class="node-label" data-notex="1" x="0" y="0" text-anchor="start" transform="translate(18.25,5.523529411764638)" style="cursor: default; font-family: 'Open Sans', verdana, arial, sans-serif; font-size: 12px; fill: rgb(42, 63, 95); fill-opacity: 1; white-space: pre; text-shadow: white 1px 1px 1px, white -1px -1px 1px, white 1px -1px 1px, white -1px 1px 1px;">lHb</text></g></g></g><defs id="topdefs-5c177e"><g class="clips"/></defs><g class="layer-above"><g class="imagelayer"/><g class="shapelayer"/></g><g class="infolayer"><g class="g-gtitle"/><g class="first-render"/></g></svg>