<svg class="main-svg" xmlns="http://www.w3.org/2000/svg" xmlns:xlink="http://www.w3.org/1999/xlink" width="1300" height="900" style="" viewBox="0 0 1300 900"><rect x="0" y="0" width="1300" height="900" style="fill: rgb(255, 255, 255); fill-opacity: 1;"/><defs id="defs-3c92a5"><g class="clips"/><g class="gradients"/><g class="patterns"/></defs><g class="bglayer"/><g class="layer-below"><g class="imagelayer"/><g class="shapelayer"/></g><g class="cartesianlayer"/><g class="polarlayer"/><g class="smithlayer"/><g class="ternarylayer"/><g class="geolayer"/><g class="funnelarealayer"/><g class="pielayer"/><g class="iciclelayer"/><g class="treemaplayer"/><g class="sunburstlayer"/><g class="glimages"/><g class="sankey" transform="translate(80,100)matrix(1 0 0 1 0 0)" style="box-sizing: content-box; position: absolute; left: 0px; shape-rendering: geometricprecision; pointer-events: none;"><g class="sankey-links" style="fill: none;"><path class="sankey-link" d="M7.50114,15.682919254658405C188.10057000000003,15.682919254658405 188.10057000000003,58.30434782608719 368.70000000000005,58.30434782608719L368.70000000000005,71.02173913043501C188.10057000000003,71.02173913043501 188.10057000000003,28.400310559006233 7.50114,28.400310559006233Z" style="stroke: rgb(68, 68, 68); stroke-opacity: 1; fill: rgb(99, 110, 250); fill-opacity: 0.6; stroke-width: 0; opacity: 1;"/><path class="sankey-link" d="M7.50114,28.40031055900623C188.10057000000003,28.40031055900623 188.10057000000003,163.90621118012436 368.70000000000005,163.90621118012436L368.70000000000005,169.35652173913056C188.10057000000003,169.35652173913056 188.10057000000003,33.85062111801244 7.50114,33.85062111801244Z" style="stroke: rgb(68, 68, 68); stroke-opacity: 1; fill: rgb(239, 85, 59); fill-opacity: 0.6; stroke-width: 0; opacity: 1;"/><path class="sankey-link" d="M7.50114,33.85062111801244C188.10057000000003,33.85062111801244 188.10057000000003,287.46894409937903 368.70000000000005,287.46894409937903L368.70000000000005,292.9192546583852C188.10057000000003,292.9192546583852 188.10057000000003,39.30093167701865 7.50114,39.30093167701865Z" style="stroke: rgb(68, 68, 68); stroke-opacity: 1; fill: rgb(171, 99, 250); fill-opacity: 0.6; stroke-width: 0; opacity: 1;"/><path class="sankey-link" d="M7.50114,39.30093167701865C188.10057000000003,39.30093167701865 188.10057000000003,339.2217391304349 368.70000000000005,339.2217391304349L368.70000000000005,344.6720496894411C188.10057000000003,344.6720496894411 188.10057000000003,44.751242236024865 7.50114,44.751242236024865Z" style="stroke: rgb(68, 68, 68); stroke-opacity: 1; fill: rgb(0, 204, 150); fill-opacity: 0.6; stroke-width: 0; opacity: 1;"/><path class="sankey-link" d="M7.50114,44.751242236024865C188.10057000000003,44.751242236024865 188.10057000000003,439.80931677018634 368.70000000000005,439.80931677018634L368.70000000000005,441.6260869565217C188.10057000000003,441.6260869565217 188.10057000000003,46.56801242236027 7.50114,46.56801242236027Z" style="stroke: rgb(68, 68, 68); stroke-opacity: 1; fill: rgb(255, 161, 90); fill-opacity: 0.6; stroke-width: 0; opacity: 1;"/><path class="sankey-link" d="M7.50114,71.75962732919251C188.10057000000003,71.75962732919251 188.10057000000003,13.74596273291924 368.70000000000005,13.74596273291924L368.70000000000005,40.9975155279503C188.10057000000003,40.9975155279503 188.10057000000003,99.01118012422356 7.50114,99.01118012422356Z" style="stroke: rgb(68, 68, 68); stroke-opacity: 1; fill: rgb(25, 211, 243); fill-opacity: 0.6; stroke-width: 0; opacity: 1;"/><path class="sankey-link" d="M7.50114,99.01118012422357C188.10057000000003,99.01118012422357 188.10057000000003,71.02173913043502 368.70000000000005,71.02173913043502L368.70000000000005,107.3571428571431C188.10057000000003,107.3571428571431 188.10057000000003,135.34658385093164 7.50114,135.34658385093164Z" style="stroke: rgb(68, 68, 68); stroke-opacity: 1; fill: rgb(99, 110, 250); fill-opacity: 0.6; stroke-width: 0; opacity: 1;"/><path class="sankey-link" d="M7.50114,135.34658385093164C188.10057000000003,135.34658385093164 188.10057000000003,169.35652173913056 368.70000000000005,169.35652173913056L368.70000000000005,209.32546583850942C188.10057000000003,209.32546583850942 188.10057000000003,175.3155279503105 7.50114,175.3155279503105Z" style="stroke: rgb(68, 68, 68); stroke-opacity: 1; fill: rgb(239, 85, 59); fill-opacity: 0.6; stroke-width: 0; opacity: 1;"/><path class="sankey-link" d="M7.50114,175.31552795031052C188.10057000000003,175.31552795031052 188.10057000000003,292.9192546583852 368.70000000000005,292.9192546583852L368.70000000000005,316.5372670807455C188.10057000000003,316.5372670807455 188.10057000000003,198.9335403726708 7.50114,198.9335403726708Z" style="stroke: rgb(68, 68, 68); stroke-opacity: 1; fill: rgb(171, 99, 250); fill-opacity: 0.6; stroke-width: 0; opacity: 1;"/><path class="sankey-link" d="M7.50114,198.93354037267076C188.10057000000003,198.93354037267076 188.10057000000003,344.6720496894411 368.70000000000005,344.6720496894411L368.70000000000005,391.90807453416164C188.10057000000003,391.90807453416164 188.10057000000003,246.16956521739124 7.50114,246.16956521739124Z" style="stroke: rgb(68, 68, 68); stroke-opacity: 1; fill: rgb(0, 204, 150); fill-opacity: 0.6; stroke-width: 0; opacity: 1;"/><path class="sankey-link" d="M7.50114,246.16956521739127C188.10057000000003,246.16956521739127 188.10057000000003,441.62608695652176 368.70000000000005,441.62608695652176L368.70000000000005,454.34347826086963C188.10057000000003,454.34347826086963 188.10057000000003,258.8869565217391 7.50114,258.8869565217391Z" style="stroke: rgb(68, 68, 68); stroke-opacity: 1; fill: rgb(255, 161, 90); fill-opacity: 0.6; stroke-width: 0; opacity: 1;"/><path class="sankey-link" d="M7.50114,258.8869565217391C188.10057000000003,258.8869565217391 188.10057000000003,592.02950310559 368.70000000000005,592.02950310559L368.70000000000005,613.8307453416148C188.10057000000003,613.8307453416148 188.10057000000003,280.68819875776387 7.50114,280.68819875776387Z" style="stroke: rgb(68, 68, 68); stroke-opacity: 1; fill: rgb(255, 151, 255); fill-opacity: 0.6; stroke-width: 0; opacity: 1;"/><path class="sankey-link" d="M7.50114,280.6881987577639C188.10057000000003,280.6881987577639 188.10057000000003,657.5170807453417 368.70000000000005,657.5170807453417L368.70000000000005,670.2344720496894C188.10057000000003,670.2344720496894 188.10057000000003,293.4055900621118 7.50114,293.4055900621118Z" style="stroke: rgb(68, 68, 68); stroke-opacity: 1; fill: rgb(255, 102, 146); fill-opacity: 0.6; stroke-width: 0; opacity: 1;"/><path class="sankey-link" d="M7.50114,293.40559006211174C188.10057000000003,293.40559006211174 188.10057000000003,698.4782608695655 368.70000000000005,698.4782608695655L368.70000000000005,705.7453416149071C188.10057000000003,705.7453416149071 188.10057000000003,300.6726708074533 7.50114,300.6726708074533Z" style="stroke: rgb(68, 68, 68); stroke-opacity: 1; fill: rgb(182, 232, 128); fill-opacity: 0.6; stroke-width: 0; opacity: 1;"/><path class="sankey-link" d="M7.50114,327.0717391304347C188.10057000000003,327.0717391304347 188.10057000000003,40.9975155279503 368.70000000000005,40.9975155279503L368.70000000000005,46.44782608695651C188.10057000000003,46.44782608695651 188.10057000000003,332.5220496894409 7.50114,332.5220496894409Z" style="stroke: rgb(68, 68, 68); stroke-opacity: 1; fill: rgb(25, 211, 243); fill-opacity: 0.6; stroke-width: 0; opacity: 1;"/><path class="sankey-link" d="M7.50114,332.5220496894409C188.10057000000003,332.5220496894409 188.10057000000003,107.35714285714309 368.70000000000005,107.35714285714309L368.70000000000005,123.70807453416171C188.10057000000003,123.70807453416171 188.10057000000003,348.8729813664595 7.50114,348.8729813664595Z" style="stroke: rgb(68, 68, 68); stroke-opacity: 1; fill: rgb(99, 110, 250); fill-opacity: 0.6; stroke-width: 0; opacity: 1;"/><path class="sankey-link" d="M7.50114,348.87298136645956C188.10057000000003,348.87298136645956 188.10057000000003,209.32546583850944 368.70000000000005,209.32546583850944L368.70000000000005,214.77577639751564C188.10057000000003,214.77577639751564 188.10057000000003,354.32329192546575 7.50114,354.32329192546575Z" style="stroke: rgb(68, 68, 68); stroke-opacity: 1; fill: rgb(239, 85, 59); fill-opacity: 0.6; stroke-width: 0; opacity: 1;"/><path class="sankey-link" d="M7.50114,354.32329192546575C188.10057000000003,354.32329192546575 188.10057000000003,316.5372670807455 368.70000000000005,316.5372670807455L368.70000000000005,327.4378881987579C188.10057000000003,327.4378881987579 188.10057000000003,365.22391304347815 7.50114,365.22391304347815Z" style="stroke: rgb(68, 68, 68); stroke-opacity: 1; fill: rgb(171, 99, 250); fill-opacity: 0.6; stroke-width: 0; opacity: 1;"/><path class="sankey-link" d="M7.50114,365.22391304347815C188.10057000000003,365.22391304347815 188.10057000000003,391.9080745341616 368.70000000000005,391.9080745341616L368.70000000000005,397.3583850931678C188.10057000000003,397.3583850931678 188.10057000000003,370.67422360248435 7.50114,370.67422360248435Z" style="stroke: rgb(68, 68, 68); stroke-opacity: 1; fill: rgb(0, 204, 150); fill-opacity: 0.6; stroke-width: 0; opacity: 1;"/><path class="sankey-link" d="M7.50114,370.67422360248435C188.10057000000003,370.67422360248435 188.10057000000003,454.3434782608696 368.70000000000005,454.3434782608696L368.70000000000005,457.9770186335404C188.10057000000003,457.9770186335404 188.10057000000003,374.3077639751552 7.50114,374.3077639751552Z" style="stroke: rgb(68, 68, 68); stroke-opacity: 1; fill: rgb(255, 161, 90); fill-opacity: 0.6; stroke-width: 0; opacity: 1;"/><path class="sankey-link" d="M7.50114,374.3077639751551C188.10057000000003,374.3077639751551 188.10057000000003,613.8307453416148 368.70000000000005,613.8307453416148L368.70000000000005,619.2810559006211C188.10057000000003,619.2810559006211 188.10057000000003,379.7580745341613 7.50114,379.7580745341613Z" style="stroke: rgb(68, 68, 68); stroke-opacity: 1; fill: rgb(255, 151, 255); fill-opacity: 0.6; stroke-width: 0; opacity: 1;"/><path class="sankey-link" d="M7.50114,379.7580745341613C188.10057000000003,379.7580745341613 188.10057000000003,670.2344720496895 368.70000000000005,670.2344720496895L368.70000000000005,677.5015527950312C188.10057000000003,677.5015527950312 188.10057000000003,387.0251552795029 7.50114,387.0251552795029Z" style="stroke: rgb(68, 68, 68); stroke-opacity: 1; fill: rgb(255, 102, 146); fill-opacity: 0.6; stroke-width: 0; opacity: 1;"/><path class="sankey-link" d="M7.50114,409.4245341614909C188.10057000000003,409.4245341614909 188.10057000000003,123.70807453416171 368.70000000000005,123.70807453416171L368.70000000000005,138.24223602484494C188.10057000000003,138.24223602484494 188.10057000000003,423.95869565217413 7.50114,423.95869565217413Z" style="stroke: rgb(68, 68, 68); stroke-opacity: 1; fill: rgb(99, 110, 250); fill-opacity: 0.6; stroke-width: 0; opacity: 1;"/><path class="sankey-link" d="M7.50114,423.95869565217413C188.10057000000003,423.95869565217413 188.10057000000003,214.77577639751564 368.70000000000005,214.77577639751564L368.70000000000005,223.85962732919268C188.10057000000003,223.85962732919268 188.10057000000003,433.04254658385116 7.50114,433.04254658385116Z" style="stroke: rgb(68, 68, 68); stroke-opacity: 1; fill: rgb(239, 85, 59); fill-opacity: 0.6; stroke-width: 0; opacity: 1;"/><path class="sankey-link" d="M7.50114,433.04254658385116C188.10057000000003,433.04254658385116 188.10057000000003,245.3813664596276 368.70000000000005,245.3813664596276L368.70000000000005,259.91552795031083C188.10057000000003,259.91552795031083 188.10057000000003,447.5767080745344 7.50114,447.5767080745344Z" style="stroke: rgb(68, 68, 68); stroke-opacity: 1; fill: rgb(254, 203, 82); fill-opacity: 0.6; stroke-width: 0; opacity: 1;"/><path class="sankey-link" d="M7.50114,447.5767080745344C188.10057000000003,447.5767080745344 188.10057000000003,397.3583850931678 368.70000000000005,397.3583850931678L368.70000000000005,413.7093167701864C188.10057000000003,413.7093167701864 188.10057000000003,463.927639751553 7.50114,463.927639751553Z" style="stroke: rgb(68, 68, 68); stroke-opacity: 1; fill: rgb(0, 204, 150); fill-opacity: 0.6; stroke-width: 0; opacity: 1;"/><path class="sankey-link" d="M7.50114,463.92763975155304C188.10057000000003,463.92763975155304 188.10057000000003,457.97701863354035 368.70000000000005,457.97701863354035L368.70000000000005,519.7472049689441C188.10057000000003,519.7472049689441 188.10057000000003,525.6978260869568 7.50114,525.6978260869568Z" style="stroke: rgb(68, 68, 68); stroke-opacity: 1; fill: rgb(255, 161, 90); fill-opacity: 0.6; stroke-width: 0; opacity: 1;"/><path class="sankey-link" d="M7.50114,525.6978260869568C188.10057000000003,525.6978260869568 188.10057000000003,619.281055900621 368.70000000000005,619.281055900621L368.70000000000005,631.9984472049688C188.10057000000003,631.9984472049688 188.10057000000003,538.4152173913045 7.50114,538.4152173913045Z" style="stroke: rgb(68, 68, 68); stroke-opacity: 1; fill: rgb(255, 151, 255); fill-opacity: 0.6; stroke-width: 0; opacity: 1;"/><path class="sankey-link" d="M7.50114,538.4152173913046C188.10057000000003,538.4152173913046 188.10057000000003,677.5015527950311 368.70000000000005,677.5015527950311L368.70000000000005,681.1350931677018C188.10057000000003,681.1350931677018 188.10057000000003,542.0487577639753 7.50114,542.0487577639753Z" style="stroke: rgb(68, 68, 68); stroke-opacity: 1; fill: rgb(255, 102, 146); fill-opacity: 0.6; stroke-width: 0; opacity: 1;"/><path class="sankey-link" d="M7.50114,567.4667701863355C188.10057000000003,567.4667701863355 188.10057000000003,138.24223602484494 368.70000000000005,138.24223602484494L368.70000000000005,152.77639751552817C188.10057000000003,152.77639751552817 188.10057000000003,582.0009316770186 7.50114,582.0009316770186Z" style="stroke: rgb(68, 68, 68); stroke-opacity: 1; fill: rgb(99, 110, 250); fill-opacity: 0.6; stroke-width: 0; opacity: 1;"/><path class="sankey-link" d="M7.50114,582.0009316770187C188.10057000000003,582.0009316770187 188.10057000000003,223.85962732919265 368.70000000000005,223.85962732919265L368.70000000000005,232.94347826086968C188.10057000000003,232.94347826086968 188.10057000000003,591.0847826086957 7.50114,591.0847826086957Z" style="stroke: rgb(68, 68, 68); stroke-opacity: 1; fill: rgb(239, 85, 59); fill-opacity: 0.6; stroke-width: 0; opacity: 1;"/><path class="sankey-link" d="M7.50114,591.0847826086957C188.10057000000003,591.0847826086957 188.10057000000003,259.91552795031083 368.70000000000005,259.91552795031083L368.70000000000005,274.44968944099406C188.10057000000003,274.44968944099406 188.10057000000003,605.6189440993788 7.50114,605.6189440993788Z" style="stroke: rgb(68, 68, 68); stroke-opacity: 1; fill: rgb(254, 203, 82); fill-opacity: 0.6; stroke-width: 0; opacity: 1;"/><path class="sankey-link" d="M7.50114,605.618944099379C188.10057000000003,605.618944099379 188.10057000000003,413.70931677018643 368.70000000000005,413.70931677018643L368.70000000000005,430.060248447205C188.10057000000003,430.060248447205 188.10057000000003,621.9698757763977 7.50114,621.9698757763977Z" style="stroke: rgb(68, 68, 68); stroke-opacity: 1; fill: rgb(0, 204, 150); fill-opacity: 0.6; stroke-width: 0; opacity: 1;"/><path class="sankey-link" d="M7.50114,621.9698757763975C188.10057000000003,621.9698757763975 188.10057000000003,519.7472049689441 368.70000000000005,519.7472049689441L368.70000000000005,581.5173913043477C188.10057000000003,581.5173913043477 188.10057000000003,683.7400621118012 7.50114,683.7400621118012Z" style="stroke: rgb(68, 68, 68); stroke-opacity: 1; fill: rgb(255, 161, 90); fill-opacity: 0.6; stroke-width: 0; opacity: 1;"/><path class="sankey-link" d="M7.50114,683.7400621118013C188.10057000000003,683.7400621118013 188.10057000000003,631.9984472049689 368.70000000000005,631.9984472049689L368.70000000000005,644.7158385093167C188.10057000000003,644.7158385093167 188.10057000000003,696.4574534161491 7.50114,696.4574534161491Z" style="stroke: rgb(68, 68, 68); stroke-opacity: 1; fill: rgb(255, 151, 255); fill-opacity: 0.6; stroke-width: 0; opacity: 1;"/><path class="sankey-link" d="M7.50114,696.4574534161492C188.10057000000003,696.4574534161492 188.10057000000003,681.1350931677019 368.70000000000005,681.1350931677019L368.70000000000005,684.7686335403727C188.10057000000003,684.7686335403727 188.10057000000003,700.0909937888199 7.50114,700.0909937888199Z" style="stroke: rgb(68, 68, 68); stroke-opacity: 1; fill: rgb(255, 102, 146); fill-opacity: 0.6; stroke-width: 0; opacity: 1;"/><path class="sankey-link" d="M383.70000000000005,13.745962732919239C564.3000000000001,13.745962732919239 564.3000000000001,50.148116040151734 744.9000000000001,50.148116040151734L744.9000000000001,53.78165641282254C564.3000000000001,53.78165641282254 564.3000000000001,17.379503105590047 383.70000000000005,17.379503105590047Z" style="stroke: rgb(68, 68, 68); stroke-opacity: 1; fill: rgb(25, 211, 243); fill-opacity: 0.6; stroke-width: 0; opacity: 1;"/><path class="sankey-link" d="M383.70000000000005,17.379503105590047C564.3000000000001,17.379503105590047 564.3000000000001,336.2278104854139 744.9000000000001,336.2278104854139L744.9000000000001,338.04458067174926C564.3000000000001,338.04458067174926 564.3000000000001,19.19627329192545 383.70000000000005,19.19627329192545Z" style="stroke: rgb(68, 68, 68); stroke-opacity: 1; fill: rgb(25, 211, 243); fill-opacity: 0.6; stroke-width: 0; opacity: 1;"/><path class="sankey-link" d="M383.70000000000005,19.19627329192545C564.3000000000001,19.19627329192545 564.3000000000001,522.305241235171 744.9000000000001,522.305241235171L744.9000000000001,529.5723219805127C564.3000000000001,529.5723219805127 564.3000000000001,26.463354037267067 383.70000000000005,26.463354037267067Z" style="stroke: rgb(68, 68, 68); stroke-opacity: 1; fill: rgb(25, 211, 243); fill-opacity: 0.6; stroke-width: 0; opacity: 1;"/><path class="sankey-link" d="M383.70000000000005,58.30434782608719C564.3000000000001,58.30434782608719 564.3000000000001,53.78165641282254 744.9000000000001,53.78165641282254L744.9000000000001,70.13258808984118C564.3000000000001,70.13258808984118 564.3000000000001,74.65527950310582 383.70000000000005,74.65527950310582Z" style="stroke: rgb(68, 68, 68); stroke-opacity: 1; fill: rgb(99, 110, 250); fill-opacity: 0.6; stroke-width: 0; opacity: 1;"/><path class="sankey-link" d="M383.70000000000005,81.92236024844745C564.3000000000001,81.92236024844745 564.3000000000001,338.0445806717493 744.9000000000001,338.0445806717493L744.9000000000001,354.3955123487679C564.3000000000001,354.3955123487679 564.3000000000001,98.27329192546607 383.70000000000005,98.27329192546607Z" style="stroke: rgb(68, 68, 68); stroke-opacity: 1; fill: rgb(99, 110, 250); fill-opacity: 0.6; stroke-width: 0; opacity: 1;"/><path class="sankey-link" d="M383.70000000000005,98.27329192546608C564.3000000000001,98.27329192546608 564.3000000000001,529.5723219805126 744.9000000000001,529.5723219805126L744.9000000000001,549.556794030202C564.3000000000001,549.556794030202 564.3000000000001,118.25776397515551 383.70000000000005,118.25776397515551Z" style="stroke: rgb(68, 68, 68); stroke-opacity: 1; fill: rgb(99, 110, 250); fill-opacity: 0.6; stroke-width: 0; opacity: 1;"/><path class="sankey-link" d="M383.70000000000005,74.65527950310583C564.3000000000001,74.65527950310583 564.3000000000001,221.41261075623333 744.9000000000001,221.41261075623333L744.9000000000001,228.67969150157495C564.3000000000001,228.67969150157495 564.3000000000001,81.92236024844745 383.70000000000005,81.92236024844745Z" style="stroke: rgb(68, 68, 68); stroke-opacity: 1; fill: rgb(99, 110, 250); fill-opacity: 0.6; stroke-width: 0; opacity: 1;"/><path class="sankey-link" d="M383.70000000000005,163.90621118012436C564.3000000000001,163.90621118012436 564.3000000000001,70.13258808984118 744.9000000000001,70.13258808984118L744.9000000000001,81.0332092078536C564.3000000000001,81.0332092078536 564.3000000000001,174.80683229813675 383.70000000000005,174.80683229813675Z" style="stroke: rgb(68, 68, 68); stroke-opacity: 1; fill: rgb(239, 85, 59); fill-opacity: 0.6; stroke-width: 0; opacity: 1;"/><path class="sankey-link" d="M383.70000000000005,176.62360248447217C564.3000000000001,176.62360248447217 564.3000000000001,354.39551234876797 744.9000000000001,354.39551234876797L744.9000000000001,372.56321421212203C564.3000000000001,372.56321421212203 564.3000000000001,194.79130434782618 383.70000000000005,194.79130434782618Z" style="stroke: rgb(68, 68, 68); stroke-opacity: 1; fill: rgb(239, 85, 59); fill-opacity: 0.6; stroke-width: 0; opacity: 1;"/><path class="sankey-link" d="M383.70000000000005,194.7913043478262C564.3000000000001,194.7913043478262 564.3000000000001,549.556794030202 744.9000000000001,549.556794030202L744.9000000000001,567.7244958935561C564.3000000000001,567.7244958935561 564.3000000000001,212.95900621118022 383.70000000000005,212.95900621118022Z" style="stroke: rgb(68, 68, 68); stroke-opacity: 1; fill: rgb(239, 85, 59); fill-opacity: 0.6; stroke-width: 0; opacity: 1;"/><path class="sankey-link" d="M383.70000000000005,174.80683229813678C564.3000000000001,174.80683229813678 564.3000000000001,228.67969150157495 744.9000000000001,228.67969150157495L744.9000000000001,230.49646168791037C564.3000000000001,230.49646168791037 564.3000000000001,176.6236024844722 383.70000000000005,176.6236024844722Z" style="stroke: rgb(68, 68, 68); stroke-opacity: 1; fill: rgb(239, 85, 59); fill-opacity: 0.6; stroke-width: 0; opacity: 1;"/><path class="sankey-link" d="M383.70000000000005,245.3813664596276C564.3000000000001,245.3813664596276 564.3000000000001,81.0332092078536 744.9000000000001,81.0332092078536L744.9000000000001,84.66674958052441C564.3000000000001,84.66674958052441 564.3000000000001,249.01490683229838 383.70000000000005,249.01490683229838Z" style="stroke: rgb(68, 68, 68); stroke-opacity: 1; fill: rgb(254, 203, 82); fill-opacity: 0.6; stroke-width: 0; opacity: 1;"/><path class="sankey-link" d="M383.70000000000005,256.28198757764C564.3000000000001,256.28198757764 564.3000000000001,567.7244958935561 744.9000000000001,567.7244958935561L744.9000000000001,571.3580362662268C564.3000000000001,571.3580362662268 564.3000000000001,259.91552795031083 383.70000000000005,259.91552795031083Z" style="stroke: rgb(68, 68, 68); stroke-opacity: 1; fill: rgb(254, 203, 82); fill-opacity: 0.6; stroke-width: 0; opacity: 1;"/><path class="sankey-link" d="M383.70000000000005,249.0149068322984C564.3000000000001,249.0149068322984 564.3000000000001,230.49646168791034 744.9000000000001,230.49646168791034L744.9000000000001,237.76354243325196C564.3000000000001,237.76354243325196 564.3000000000001,256.28198757764 383.70000000000005,256.28198757764Z" style="stroke: rgb(68, 68, 68); stroke-opacity: 1; fill: rgb(254, 203, 82); fill-opacity: 0.6; stroke-width: 0; opacity: 1;"/><path class="sankey-link" d="M383.70000000000005,287.46894409937903C564.3000000000001,287.46894409937903 564.3000000000001,84.66674958052441 744.9000000000001,84.66674958052441L744.9000000000001,91.93383032586603C564.3000000000001,91.93383032586603 564.3000000000001,294.7360248447206 383.70000000000005,294.7360248447206Z" style="stroke: rgb(68, 68, 68); stroke-opacity: 1; fill: rgb(171, 99, 250); fill-opacity: 0.6; stroke-width: 0; opacity: 1;"/><path class="sankey-link" d="M383.70000000000005,300.18633540372684C564.3000000000001,300.18633540372684 564.3000000000001,372.563214212122 744.9000000000001,372.563214212122L744.9000000000001,385.28060551646985C564.3000000000001,385.28060551646985 564.3000000000001,312.9037267080747 383.70000000000005,312.9037267080747Z" style="stroke: rgb(68, 68, 68); stroke-opacity: 1; fill: rgb(171, 99, 250); fill-opacity: 0.6; stroke-width: 0; opacity: 1;"/><path class="sankey-link" d="M383.70000000000005,312.90372670807466C564.3000000000001,312.90372670807466 564.3000000000001,571.3580362662269 744.9000000000001,571.3580362662269L744.9000000000001,584.0754275705747C564.3000000000001,584.0754275705747 564.3000000000001,325.6211180124225 383.70000000000005,325.6211180124225Z" style="stroke: rgb(68, 68, 68); stroke-opacity: 1; fill: rgb(171, 99, 250); fill-opacity: 0.6; stroke-width: 0; opacity: 1;"/><path class="sankey-link" d="M383.70000000000005,294.73602484472065C564.3000000000001,294.73602484472065 564.3000000000001,237.76354243325196 744.9000000000001,237.76354243325196L744.9000000000001,243.21385299225815C564.3000000000001,243.21385299225815 564.3000000000001,300.18633540372684 383.70000000000005,300.18633540372684Z" style="stroke: rgb(68, 68, 68); stroke-opacity: 1; fill: rgb(171, 99, 250); fill-opacity: 0.6; stroke-width: 0; opacity: 1;"/><path class="sankey-link" d="M383.70000000000005,339.2217391304349C564.3000000000001,339.2217391304349 564.3000000000001,91.93383032586603 744.9000000000001,91.93383032586603L744.9000000000001,106.46799181654926C564.3000000000001,106.46799181654926 564.3000000000001,353.75590062111814 383.70000000000005,353.75590062111814Z" style="stroke: rgb(68, 68, 68); stroke-opacity: 1; fill: rgb(0, 204, 150); fill-opacity: 0.6; stroke-width: 0; opacity: 1;"/><path class="sankey-link" d="M383.70000000000005,353.75590062111814C564.3000000000001,353.75590062111814 564.3000000000001,385.2806055164698 744.9000000000001,385.2806055164698L744.9000000000001,414.34892849783625C564.3000000000001,414.34892849783625 564.3000000000001,382.8242236024846 383.70000000000005,382.8242236024846Z" style="stroke: rgb(68, 68, 68); stroke-opacity: 1; fill: rgb(0, 204, 150); fill-opacity: 0.6; stroke-width: 0; opacity: 1;"/><path class="sankey-link" d="M383.70000000000005,382.8242236024846C564.3000000000001,382.8242236024846 564.3000000000001,584.0754275705748 744.9000000000001,584.0754275705748L744.9000000000001,607.6934399929349C564.3000000000001,607.6934399929349 564.3000000000001,406.4422360248449 383.70000000000005,406.4422360248449Z" style="stroke: rgb(68, 68, 68); stroke-opacity: 1; fill: rgb(0, 204, 150); fill-opacity: 0.6; stroke-width: 0; opacity: 1;"/><path class="sankey-link" d="M383.70000000000005,439.80931677018634C564.3000000000001,439.80931677018634 564.3000000000001,106.46799181654926 744.9000000000001,106.46799181654926L744.9000000000001,139.16985517058652C564.3000000000001,139.16985517058652 564.3000000000001,472.51118012422364 383.70000000000005,472.51118012422364Z" style="stroke: rgb(68, 68, 68); stroke-opacity: 1; fill: rgb(255, 161, 90); fill-opacity: 0.6; stroke-width: 0; opacity: 1;"/><path class="sankey-link" d="M383.70000000000005,496.12919254658385C564.3000000000001,496.12919254658385 564.3000000000001,414.34892849783625 744.9000000000001,414.34892849783625L744.9000000000001,419.79923905684245C564.3000000000001,419.79923905684245 564.3000000000001,501.57950310559005 383.70000000000005,501.57950310559005Z" style="stroke: rgb(68, 68, 68); stroke-opacity: 1; fill: rgb(255, 161, 90); fill-opacity: 0.6; stroke-width: 0; opacity: 1;"/><path class="sankey-link" d="M383.70000000000005,501.57950310559005C564.3000000000001,501.57950310559005 564.3000000000001,607.693439992935 744.9000000000001,607.693439992935L744.9000000000001,642.2120735333078C564.3000000000001,642.2120735333078 564.3000000000001,536.0981366459628 383.70000000000005,536.0981366459628Z" style="stroke: rgb(68, 68, 68); stroke-opacity: 1; fill: rgb(255, 161, 90); fill-opacity: 0.6; stroke-width: 0; opacity: 1;"/><path class="sankey-link" d="M383.70000000000005,472.5111801242236C564.3000000000001,472.5111801242236 564.3000000000001,243.21385299225815 744.9000000000001,243.21385299225815L744.9000000000001,266.8318654146184C564.3000000000001,266.8318654146184 564.3000000000001,496.12919254658385 383.70000000000005,496.12919254658385Z" style="stroke: rgb(68, 68, 68); stroke-opacity: 1; fill: rgb(255, 161, 90); fill-opacity: 0.6; stroke-width: 0; opacity: 1;"/><path class="sankey-link" d="M383.70000000000005,592.02950310559C564.3000000000001,592.02950310559 564.3000000000001,139.16985517058652 744.9000000000001,139.16985517058652L744.9000000000001,150.0704762885989C564.3000000000001,150.0704762885989 564.3000000000001,602.9301242236024 383.70000000000005,602.9301242236024Z" style="stroke: rgb(68, 68, 68); stroke-opacity: 1; fill: rgb(255, 151, 255); fill-opacity: 0.6; stroke-width: 0; opacity: 1;"/><path class="sankey-link" d="M383.70000000000005,608.3804347826086C564.3000000000001,608.3804347826086 564.3000000000001,419.79923905684245 744.9000000000001,419.79923905684245L744.9000000000001,423.4327794295133C564.3000000000001,423.4327794295133 564.3000000000001,612.0139751552794 383.70000000000005,612.0139751552794Z" style="stroke: rgb(68, 68, 68); stroke-opacity: 1; fill: rgb(255, 151, 255); fill-opacity: 0.6; stroke-width: 0; opacity: 1;"/><path class="sankey-link" d="M383.70000000000005,612.0139751552795C564.3000000000001,612.0139751552795 564.3000000000001,642.2120735333077 744.9000000000001,642.2120735333077L744.9000000000001,649.4791542786494C564.3000000000001,649.4791542786494 564.3000000000001,619.2810559006211 383.70000000000005,619.2810559006211Z" style="stroke: rgb(68, 68, 68); stroke-opacity: 1; fill: rgb(255, 151, 255); fill-opacity: 0.6; stroke-width: 0; opacity: 1;"/><path class="sankey-link" d="M383.70000000000005,602.9301242236024C564.3000000000001,602.9301242236024 564.3000000000001,266.8318654146184 744.9000000000001,266.8318654146184L744.9000000000001,272.2821759736246C564.3000000000001,272.2821759736246 564.3000000000001,608.3804347826087 383.70000000000005,608.3804347826087Z" style="stroke: rgb(68, 68, 68); stroke-opacity: 1; fill: rgb(255, 151, 255); fill-opacity: 0.6; stroke-width: 0; opacity: 1;"/><path class="sankey-link" d="M383.70000000000005,657.5170807453417C564.3000000000001,657.5170807453417 564.3000000000001,150.07047628859894 744.9000000000001,150.07047628859894L744.9000000000001,153.70401666126972C564.3000000000001,153.70401666126972 564.3000000000001,661.1506211180124 383.70000000000005,661.1506211180124Z" style="stroke: rgb(68, 68, 68); stroke-opacity: 1; fill: rgb(255, 102, 146); fill-opacity: 0.6; stroke-width: 0; opacity: 1;"/><path class="sankey-link" d="M383.70000000000005,661.1506211180125C564.3000000000001,661.1506211180125 564.3000000000001,423.43277942951323 744.9000000000001,423.43277942951323L744.9000000000001,428.88308998851943C564.3000000000001,428.88308998851943 564.3000000000001,666.6009316770188 383.70000000000005,666.6009316770188Z" style="stroke: rgb(68, 68, 68); stroke-opacity: 1; fill: rgb(255, 102, 146); fill-opacity: 0.6; stroke-width: 0; opacity: 1;"/><path class="sankey-link" d="M383.70000000000005,666.6009316770187C564.3000000000001,666.6009316770187 564.3000000000001,649.4791542786493 744.9000000000001,649.4791542786493L744.9000000000001,656.746235023991C564.3000000000001,656.746235023991 564.3000000000001,673.8680124223604 383.70000000000005,673.8680124223604Z" style="stroke: rgb(68, 68, 68); stroke-opacity: 1; fill: rgb(255, 102, 146); fill-opacity: 0.6; stroke-width: 0; opacity: 1;"/><path class="sankey-link" d="M383.70000000000005,698.4782608695655C564.3000000000001,698.4782608695655 564.3000000000001,656.7462350239908 744.9000000000001,656.7462350239908L744.9000000000001,658.5630052103262C564.3000000000001,658.5630052103262 564.3000000000001,700.2950310559008 383.70000000000005,700.2950310559008Z" style="stroke: rgb(68, 68, 68); stroke-opacity: 1; fill: rgb(182, 232, 128); fill-opacity: 0.6; stroke-width: 0; opacity: 1;"/><path class="sankey-link" d="M759.9000000000001,50.148116040151734C946.19943,50.148116040151734 946.19943,27.1573430278767 1132.49886,27.1573430278767L1132.49886,28.974113214212103C946.19943,28.974113214212103 946.19943,51.96488622648714 759.9000000000001,51.96488622648714Z" style="stroke: rgb(68, 68, 68); stroke-opacity: 1; fill: rgb(25, 211, 243); fill-opacity: 0.6; stroke-width: 0; opacity: 1;"/><path class="sankey-link" d="M759.9000000000001,97.38414088487224C946.19943,97.38414088487224 946.19943,116.76138912601928 1132.49886,116.76138912601928L1132.49886,118.57815931235467C946.19943,118.57815931235467 946.19943,99.20091107120763 759.9000000000001,99.20091107120763Z" style="stroke: rgb(68, 68, 68); stroke-opacity: 1; fill: rgb(25, 211, 243); fill-opacity: 0.6; stroke-width: 0; opacity: 1;"/><path class="sankey-link" d="M759.9000000000001,376.1967545847927C946.19943,376.1967545847927 946.19943,400.02650054458206 1132.49886,400.02650054458206L1132.49886,401.8432707309174C946.19943,401.8432707309174 946.19943,378.01352477112806 759.9000000000001,378.01352477112806Z" style="stroke: rgb(68, 68, 68); stroke-opacity: 1; fill: rgb(25, 211, 243); fill-opacity: 0.6; stroke-width: 0; opacity: 1;"/><path class="sankey-link" d="M759.9000000000001,591.3425083159165C946.19943,591.3425083159165 946.19943,620.2248226428425 1132.49886,620.2248226428425L1132.49886,627.4919033881841C946.19943,627.4919033881841 946.19943,598.6095890612581 759.9000000000001,598.6095890612581Z" style="stroke: rgb(68, 68, 68); stroke-opacity: 1; fill: rgb(25, 211, 243); fill-opacity: 0.6; stroke-width: 0; opacity: 1;"/><path class="sankey-link" d="M759.9000000000001,51.96488622648714C946.19943,51.96488622648714 946.19943,28.974113214212103 1132.49886,28.974113214212103L1132.49886,36.24119395955372C946.19943,36.24119395955372 946.19943,59.231966971828754 759.9000000000001,59.231966971828754Z" style="stroke: rgb(68, 68, 68); stroke-opacity: 1; fill: rgb(99, 110, 250); fill-opacity: 0.6; stroke-width: 0; opacity: 1;"/><path class="sankey-link" d="M759.9000000000001,99.20091107120764C946.19943,99.20091107120764 946.19943,118.57815931235469 1132.49886,118.57815931235469L1132.49886,127.66201024403169C946.19943,127.66201024403169 946.19943,108.28476200288465 759.9000000000001,108.28476200288465Z" style="stroke: rgb(68, 68, 68); stroke-opacity: 1; fill: rgb(99, 110, 250); fill-opacity: 0.6; stroke-width: 0; opacity: 1;"/><path class="sankey-link" d="M759.9000000000001,336.2278104854139C946.19943,336.2278104854139 946.19943,320.6335374289837 1132.49886,320.6335374289837L1132.49886,329.7173883606607C946.19943,329.7173883606607 946.19943,345.31166141709093 759.9000000000001,345.31166141709093Z" style="stroke: rgb(68, 68, 68); stroke-opacity: 1; fill: rgb(99, 110, 250); fill-opacity: 0.6; stroke-width: 0; opacity: 1;"/><path class="sankey-link" d="M759.9000000000001,378.0135247711281C946.19943,378.0135247711281 946.19943,401.8432707309175 1132.49886,401.8432707309175L1132.49886,409.11035147625904C946.19943,409.11035147625904 946.19943,385.2806055164697 759.9000000000001,385.2806055164697Z" style="stroke: rgb(68, 68, 68); stroke-opacity: 1; fill: rgb(99, 110, 250); fill-opacity: 0.6; stroke-width: 0; opacity: 1;"/><path class="sankey-link" d="M759.9000000000001,522.305241235171C946.19943,522.305241235171 946.19943,499.98752759706827 1132.49886,499.98752759706827L1132.49886,510.88814871508066C946.19943,510.88814871508066 946.19943,533.2058623531834 759.9000000000001,533.2058623531834Z" style="stroke: rgb(68, 68, 68); stroke-opacity: 1; fill: rgb(99, 110, 250); fill-opacity: 0.6; stroke-width: 0; opacity: 1;"/><path class="sankey-link" d="M759.9000000000001,598.609589061258C946.19943,598.609589061258 946.19943,627.491903388184 1132.49886,627.491903388184L1132.49886,636.5757543198611C946.19943,636.5757543198611 946.19943,607.693439992935 759.9000000000001,607.693439992935Z" style="stroke: rgb(68, 68, 68); stroke-opacity: 1; fill: rgb(99, 110, 250); fill-opacity: 0.6; stroke-width: 0; opacity: 1;"/><path class="sankey-link" d="M759.9000000000001,221.41261075623333C946.19943,221.41261075623333 946.19943,207.59861352329926 1132.49886,207.59861352329926L1132.49886,211.23215389597004C946.19943,211.23215389597004 946.19943,225.0461511289041 759.9000000000001,225.0461511289041Z" style="stroke: rgb(68, 68, 68); stroke-opacity: 1; fill: rgb(99, 110, 250); fill-opacity: 0.6; stroke-width: 0; opacity: 1;"/><path class="sankey-link" d="M759.9000000000001,239.58031261958735C946.19943,239.58031261958735 946.19943,253.90499249359755 1132.49886,253.90499249359755L1132.49886,257.5385328662683C946.19943,257.5385328662683 946.19943,243.21385299225813 759.9000000000001,243.21385299225813Z" style="stroke: rgb(68, 68, 68); stroke-opacity: 1; fill: rgb(99, 110, 250); fill-opacity: 0.6; stroke-width: 0; opacity: 1;"/><path class="sankey-link" d="M759.9000000000001,59.231966971828754C946.19943,59.231966971828754 946.19943,36.24119395955372 1132.49886,36.24119395955372L1132.49886,41.69150451855993C946.19943,41.69150451855993 946.19943,64.68227753083497 759.9000000000001,64.68227753083497Z" style="stroke: rgb(68, 68, 68); stroke-opacity: 1; fill: rgb(239, 85, 59); fill-opacity: 0.6; stroke-width: 0; opacity: 1;"/><path class="sankey-link" d="M759.9000000000001,108.28476200288466C946.19943,108.28476200288466 946.19943,127.6620102440317 1132.49886,127.6620102440317L1132.49886,133.1123208030379C946.19943,133.1123208030379 946.19943,113.73507256189086 759.9000000000001,113.73507256189086Z" style="stroke: rgb(68, 68, 68); stroke-opacity: 1; fill: rgb(239, 85, 59); fill-opacity: 0.6; stroke-width: 0; opacity: 1;"/><path class="sankey-link" d="M759.9000000000001,345.31166141709093C946.19943,345.31166141709093 946.19943,329.7173883606607 1132.49886,329.7173883606607L1132.49886,335.1676989196669C946.19943,335.1676989196669 946.19943,350.76197197609713 759.9000000000001,350.76197197609713Z" style="stroke: rgb(68, 68, 68); stroke-opacity: 1; fill: rgb(239, 85, 59); fill-opacity: 0.6; stroke-width: 0; opacity: 1;"/><path class="sankey-link" d="M759.9000000000001,385.28060551646973C946.19943,385.28060551646973 946.19943,409.1103514762591 1132.49886,409.1103514762591L1132.49886,421.82774278060697C946.19943,421.82774278060697 946.19943,397.9979968208176 759.9000000000001,397.9979968208176Z" style="stroke: rgb(68, 68, 68); stroke-opacity: 1; fill: rgb(239, 85, 59); fill-opacity: 0.6; stroke-width: 0; opacity: 1;"/><path class="sankey-link" d="M759.9000000000001,533.2058623531834C946.19943,533.2058623531834 946.19943,510.8881487150806 1132.49886,510.8881487150806L1132.49886,523.6055400194284C946.19943,523.6055400194284 946.19943,545.9232536575312 759.9000000000001,545.9232536575312Z" style="stroke: rgb(68, 68, 68); stroke-opacity: 1; fill: rgb(239, 85, 59); fill-opacity: 0.6; stroke-width: 0; opacity: 1;"/><path class="sankey-link" d="M759.9000000000001,607.693439992935C946.19943,607.693439992935 946.19943,636.5757543198611 1132.49886,636.5757543198611L1132.49886,642.0260648788674C946.19943,642.0260648788674 946.19943,613.1437505519414 759.9000000000001,613.1437505519414Z" style="stroke: rgb(68, 68, 68); stroke-opacity: 1; fill: rgb(239, 85, 59); fill-opacity: 0.6; stroke-width: 0; opacity: 1;"/><path class="sankey-link" d="M759.9000000000001,243.21385299225815C946.19943,243.21385299225815 946.19943,257.5385328662683 1132.49886,257.5385328662683L1132.49886,259.3553030526037C946.19943,259.3553030526037 946.19943,245.03062317859357 759.9000000000001,245.03062317859357Z" style="stroke: rgb(68, 68, 68); stroke-opacity: 1; fill: rgb(239, 85, 59); fill-opacity: 0.6; stroke-width: 0; opacity: 1;"/><path class="sankey-link" d="M759.9000000000001,64.68227753083497C946.19943,64.68227753083497 946.19943,41.69150451855993 1132.49886,41.69150451855993L1132.49886,43.508274704895335C946.19943,43.508274704895335 946.19943,66.49904771717036 759.9000000000001,66.49904771717036Z" style="stroke: rgb(68, 68, 68); stroke-opacity: 1; fill: rgb(254, 203, 82); fill-opacity: 0.6; stroke-width: 0; opacity: 1;"/><path class="sankey-link" d="M759.9000000000001,113.73507256189087C946.19943,113.73507256189087 946.19943,133.1123208030379 1132.49886,133.1123208030379L1132.49886,134.92909098937332C946.19943,134.92909098937332 946.19943,115.55184274822626 759.9000000000001,115.55184274822626Z" style="stroke: rgb(68, 68, 68); stroke-opacity: 1; fill: rgb(254, 203, 82); fill-opacity: 0.6; stroke-width: 0; opacity: 1;"/><path class="sankey-link" d="M759.9000000000001,545.9232536575313C946.19943,545.9232536575313 946.19943,523.6055400194285 1132.49886,523.6055400194285L1132.49886,527.2390803920993C946.19943,527.2390803920993 946.19943,549.556794030202 759.9000000000001,549.556794030202Z" style="stroke: rgb(68, 68, 68); stroke-opacity: 1; fill: rgb(254, 203, 82); fill-opacity: 0.6; stroke-width: 0; opacity: 1;"/><path class="sankey-link" d="M759.9000000000001,225.04615112890414C946.19943,225.04615112890414 946.19943,211.23215389597007 1132.49886,211.23215389597007L1132.49886,213.0489240823055C946.19943,213.0489240823055 946.19943,226.86292131523956 759.9000000000001,226.86292131523956Z" style="stroke: rgb(68, 68, 68); stroke-opacity: 1; fill: rgb(254, 203, 82); fill-opacity: 0.6; stroke-width: 0; opacity: 1;"/><path class="sankey-link" d="M759.9000000000001,245.03062317859354C946.19943,245.03062317859354 946.19943,259.35530305260374 1132.49886,259.35530305260374L1132.49886,264.80561361160994C946.19943,264.80561361160994 946.19943,250.48093373759974 759.9000000000001,250.48093373759974Z" style="stroke: rgb(68, 68, 68); stroke-opacity: 1; fill: rgb(254, 203, 82); fill-opacity: 0.6; stroke-width: 0; opacity: 1;"/><path class="sankey-link" d="M759.9000000000001,66.49904771717037C946.19943,66.49904771717037 946.19943,43.508274704895335 1132.49886,43.508274704895335L1132.49886,45.32504489123074C946.19943,45.32504489123074 946.19943,68.31581790350576 759.9000000000001,68.31581790350576Z" style="stroke: rgb(68, 68, 68); stroke-opacity: 1; fill: rgb(171, 99, 250); fill-opacity: 0.6; stroke-width: 0; opacity: 1;"/><path class="sankey-link" d="M759.9000000000001,115.55184274822628C946.19943,115.55184274822628 946.19943,134.9290909893733 1132.49886,134.9290909893733L1132.49886,140.3794015483795C946.19943,140.3794015483795 946.19943,121.00215330723248 759.9000000000001,121.00215330723248Z" style="stroke: rgb(68, 68, 68); stroke-opacity: 1; fill: rgb(171, 99, 250); fill-opacity: 0.6; stroke-width: 0; opacity: 1;"/><path class="sankey-link" d="M759.9000000000001,350.76197197609713C946.19943,350.76197197609713 946.19943,335.1676989196669 1132.49886,335.1676989196669L1132.49886,338.80123929233775C946.19943,338.80123929233775 946.19943,354.39551234876797 759.9000000000001,354.39551234876797Z" style="stroke: rgb(68, 68, 68); stroke-opacity: 1; fill: rgb(171, 99, 250); fill-opacity: 0.6; stroke-width: 0; opacity: 1;"/><path class="sankey-link" d="M759.9000000000001,397.99799682081755C946.19943,397.99799682081755 946.19943,421.8277427806069 1132.49886,421.8277427806069L1132.49886,430.91159371228395C946.19943,430.91159371228395 946.19943,407.0818477524946 759.9000000000001,407.0818477524946Z" style="stroke: rgb(68, 68, 68); stroke-opacity: 1; fill: rgb(171, 99, 250); fill-opacity: 0.6; stroke-width: 0; opacity: 1;"/><path class="sankey-link" d="M759.9000000000001,549.5567940302021C946.19943,549.5567940302021 946.19943,527.2390803920994 1132.49886,527.2390803920994L1132.49886,532.6893909511057C946.19943,532.6893909511057 946.19943,555.0071045892084 759.9000000000001,555.0071045892084Z" style="stroke: rgb(68, 68, 68); stroke-opacity: 1; fill: rgb(171, 99, 250); fill-opacity: 0.6; stroke-width: 0; opacity: 1;"/><path class="sankey-link" d="M759.9000000000001,613.1437505519413C946.19943,613.1437505519413 946.19943,642.0260648788673 1132.49886,642.0260648788673L1132.49886,649.2931456242089C946.19943,649.2931456242089 946.19943,620.4108312972829 759.9000000000001,620.4108312972829Z" style="stroke: rgb(68, 68, 68); stroke-opacity: 1; fill: rgb(171, 99, 250); fill-opacity: 0.6; stroke-width: 0; opacity: 1;"/><path class="sankey-link" d="M759.9000000000001,226.86292131523953C946.19943,226.86292131523953 946.19943,213.04892408230546 1132.49886,213.04892408230546L1132.49886,216.68246445497624C946.19943,216.68246445497624 946.19943,230.4964616879103 759.9000000000001,230.4964616879103Z" style="stroke: rgb(68, 68, 68); stroke-opacity: 1; fill: rgb(171, 99, 250); fill-opacity: 0.6; stroke-width: 0; opacity: 1;"/><path class="sankey-link" d="M759.9000000000001,250.48093373759974C946.19943,250.48093373759974 946.19943,264.80561361160994 1132.49886,264.80561361160994L1132.49886,266.6223837979453C946.19943,266.6223837979453 946.19943,252.29770392393516 759.9000000000001,252.29770392393516Z" style="stroke: rgb(68, 68, 68); stroke-opacity: 1; fill: rgb(171, 99, 250); fill-opacity: 0.6; stroke-width: 0; opacity: 1;"/><path class="sankey-link" d="M759.9000000000001,68.31581790350577C946.19943,68.31581790350577 946.19943,45.32504489123074 1132.49886,45.32504489123074L1132.49886,48.95858526390155C946.19943,48.95858526390155 946.19943,71.94935827617658 759.9000000000001,71.94935827617658Z" style="stroke: rgb(68, 68, 68); stroke-opacity: 1; fill: rgb(0, 204, 150); fill-opacity: 0.6; stroke-width: 0; opacity: 1;"/><path class="sankey-link" d="M759.9000000000001,121.00215330723249C946.19943,121.00215330723249 946.19943,140.3794015483795 1132.49886,140.3794015483795L1132.49886,151.2800226663919C946.19943,151.2800226663919 946.19943,131.9027744252449 759.9000000000001,131.9027744252449Z" style="stroke: rgb(68, 68, 68); stroke-opacity: 1; fill: rgb(0, 204, 150); fill-opacity: 0.6; stroke-width: 0; opacity: 1;"/><path class="sankey-link" d="M759.9000000000001,354.3955123487679C946.19943,354.3955123487679 946.19943,338.8012392923377 1132.49886,338.8012392923377L1132.49886,351.51863059668557C946.19943,351.51863059668557 946.19943,367.1129036531158 759.9000000000001,367.1129036531158Z" style="stroke: rgb(68, 68, 68); stroke-opacity: 1; fill: rgb(0, 204, 150); fill-opacity: 0.6; stroke-width: 0; opacity: 1;"/><path class="sankey-link" d="M759.9000000000001,407.0818477524946C946.19943,407.0818477524946 946.19943,430.91159371228395 1132.49886,430.91159371228395L1132.49886,447.26252538930254C946.19943,447.26252538930254 946.19943,423.4327794295132 759.9000000000001,423.4327794295132Z" style="stroke: rgb(68, 68, 68); stroke-opacity: 1; fill: rgb(0, 204, 150); fill-opacity: 0.6; stroke-width: 0; opacity: 1;"/><path class="sankey-link" d="M759.9000000000001,555.0071045892083C946.19943,555.0071045892083 946.19943,532.6893909511056 1132.49886,532.6893909511056L1132.49886,541.7732418827826C946.19943,541.7732418827826 946.19943,564.0909555208854 759.9000000000001,564.0909555208854Z" style="stroke: rgb(68, 68, 68); stroke-opacity: 1; fill: rgb(0, 204, 150); fill-opacity: 0.6; stroke-width: 0; opacity: 1;"/><path class="sankey-link" d="M759.9000000000001,620.4108312972828C946.19943,620.4108312972828 946.19943,649.2931456242088 1132.49886,649.2931456242088L1132.49886,663.8273071148919C946.19943,663.8273071148919 946.19943,634.9449927879659 759.9000000000001,634.9449927879659Z" style="stroke: rgb(68, 68, 68); stroke-opacity: 1; fill: rgb(0, 204, 150); fill-opacity: 0.6; stroke-width: 0; opacity: 1;"/><path class="sankey-link" d="M759.9000000000001,71.94935827617658C946.19943,71.94935827617658 946.19943,48.95858526390155 1132.49886,48.95858526390155L1132.49886,65.30951694092018C946.19943,65.30951694092018 946.19943,88.3002899531952 759.9000000000001,88.3002899531952Z" style="stroke: rgb(68, 68, 68); stroke-opacity: 1; fill: rgb(255, 161, 90); fill-opacity: 0.6; stroke-width: 0; opacity: 1;"/><path class="sankey-link" d="M759.9000000000001,131.9027744252449C946.19943,131.9027744252449 946.19943,151.28002266639191 1132.49886,151.28002266639191L1132.49886,167.63095434341056C946.19943,167.63095434341056 946.19943,148.25370610226355 759.9000000000001,148.25370610226355Z" style="stroke: rgb(68, 68, 68); stroke-opacity: 1; fill: rgb(255, 161, 90); fill-opacity: 0.6; stroke-width: 0; opacity: 1;"/><path class="sankey-link" d="M759.9000000000001,367.1129036531157C946.19943,367.1129036531157 946.19943,351.5186305966855 1132.49886,351.5186305966855L1132.49886,356.9689411556917C946.19943,356.9689411556917 946.19943,372.5632142121219 759.9000000000001,372.5632142121219Z" style="stroke: rgb(68, 68, 68); stroke-opacity: 1; fill: rgb(255, 161, 90); fill-opacity: 0.6; stroke-width: 0; opacity: 1;"/><path class="sankey-link" d="M759.9000000000001,564.0909555208854C946.19943,564.0909555208854 946.19943,541.7732418827826 1132.49886,541.7732418827826L1132.49886,559.9409437461367C946.19943,559.9409437461367 946.19943,582.2586573842394 759.9000000000001,582.2586573842394Z" style="stroke: rgb(68, 68, 68); stroke-opacity: 1; fill: rgb(255, 161, 90); fill-opacity: 0.6; stroke-width: 0; opacity: 1;"/><path class="sankey-link" d="M759.9000000000001,634.944992787966C946.19943,634.944992787966 946.19943,663.827307114892 1132.49886,663.827307114892L1132.49886,680.1782387919108C946.19943,680.1782387919108 946.19943,651.2959244649848 759.9000000000001,651.2959244649848Z" style="stroke: rgb(68, 68, 68); stroke-opacity: 1; fill: rgb(255, 161, 90); fill-opacity: 0.6; stroke-width: 0; opacity: 1;"/><path class="sankey-link" d="M759.9000000000001,230.49646168791034C946.19943,230.49646168791034 946.19943,216.68246445497627 1132.49886,216.68246445497627L1132.49886,225.7663153866533C946.19943,225.7663153866533 946.19943,239.58031261958737 759.9000000000001,239.58031261958737Z" style="stroke: rgb(68, 68, 68); stroke-opacity: 1; fill: rgb(255, 161, 90); fill-opacity: 0.6; stroke-width: 0; opacity: 1;"/><path class="sankey-link" d="M759.9000000000001,252.2977039239351C946.19943,252.2977039239351 946.19943,266.62238379794536 1132.49886,266.62238379794536L1132.49886,281.1565452886286C946.19943,281.1565452886286 946.19943,266.83186541461833 759.9000000000001,266.83186541461833Z" style="stroke: rgb(68, 68, 68); stroke-opacity: 1; fill: rgb(255, 161, 90); fill-opacity: 0.6; stroke-width: 0; opacity: 1;"/><path class="sankey-link" d="M759.9000000000001,88.30028995319522C946.19943,88.30028995319522 946.19943,65.30951694092018 1132.49886,65.30951694092018L1132.49886,70.75982749992637C946.19943,70.75982749992637 946.19943,93.75060051220142 759.9000000000001,93.75060051220142Z" style="stroke: rgb(68, 68, 68); stroke-opacity: 1; fill: rgb(255, 151, 255); fill-opacity: 0.6; stroke-width: 0; opacity: 1;"/><path class="sankey-link" d="M759.9000000000001,148.25370610226352C946.19943,148.25370610226352 946.19943,167.63095434341054 1132.49886,167.63095434341054L1132.49886,173.08126490241673C946.19943,173.08126490241673 946.19943,153.70401666126972 759.9000000000001,153.70401666126972Z" style="stroke: rgb(68, 68, 68); stroke-opacity: 1; fill: rgb(255, 151, 255); fill-opacity: 0.6; stroke-width: 0; opacity: 1;"/><path class="sankey-link" d="M759.9000000000001,423.43277942951323C946.19943,423.43277942951323 946.19943,447.2625253893026 1132.49886,447.2625253893026L1132.49886,450.89606576197343C946.19943,450.89606576197343 946.19943,427.06631980218407 759.9000000000001,427.06631980218407Z" style="stroke: rgb(68, 68, 68); stroke-opacity: 1; fill: rgb(255, 151, 255); fill-opacity: 0.6; stroke-width: 0; opacity: 1;"/><path class="sankey-link" d="M759.9000000000001,582.2586573842394C946.19943,582.2586573842394 946.19943,559.9409437461367 1132.49886,559.9409437461367L1132.49886,563.5744841188074C946.19943,563.5744841188074 946.19943,585.8921977569102 759.9000000000001,585.8921977569102Z" style="stroke: rgb(68, 68, 68); stroke-opacity: 1; fill: rgb(255, 151, 255); fill-opacity: 0.6; stroke-width: 0; opacity: 1;"/><path class="sankey-link" d="M759.9000000000001,651.2959244649846C946.19943,651.2959244649846 946.19943,680.1782387919106 1132.49886,680.1782387919106L1132.49886,683.8117791645814C946.19943,683.8117791645814 946.19943,654.9294648376554 759.9000000000001,654.9294648376554Z" style="stroke: rgb(68, 68, 68); stroke-opacity: 1; fill: rgb(255, 151, 255); fill-opacity: 0.6; stroke-width: 0; opacity: 1;"/><path class="sankey-link" d="M759.9000000000001,266.83186541461833C946.19943,266.83186541461833 946.19943,281.1565452886286 1132.49886,281.1565452886286L1132.49886,286.6068558476348C946.19943,286.6068558476348 946.19943,272.28217597362453 759.9000000000001,272.28217597362453Z" style="stroke: rgb(68, 68, 68); stroke-opacity: 1; fill: rgb(255, 151, 255); fill-opacity: 0.6; stroke-width: 0; opacity: 1;"/><path class="sankey-link" d="M759.9000000000001,93.75060051220143C946.19943,93.75060051220143 946.19943,70.75982749992639 1132.49886,70.75982749992639L1132.49886,74.3933678725972C946.19943,74.3933678725972 946.19943,97.38414088487224 759.9000000000001,97.38414088487224Z" style="stroke: rgb(68, 68, 68); stroke-opacity: 1; fill: rgb(255, 102, 146); fill-opacity: 0.6; stroke-width: 0; opacity: 1;"/><path class="sankey-link" d="M759.9000000000001,372.5632142121219C946.19943,372.5632142121219 946.19943,356.9689411556917 1132.49886,356.9689411556917L1132.49886,360.60248152836255C946.19943,360.60248152836255 946.19943,376.19675458479276 759.9000000000001,376.19675458479276Z" style="stroke: rgb(68, 68, 68); stroke-opacity: 1; fill: rgb(255, 102, 146); fill-opacity: 0.6; stroke-width: 0; opacity: 1;"/><path class="sankey-link" d="M759.9000000000001,427.066319802184C946.19943,427.066319802184 946.19943,450.8960657619734 1132.49886,450.8960657619734L1132.49886,452.71283594830874C946.19943,452.71283594830874 946.19943,428.8830899885194 759.9000000000001,428.8830899885194Z" style="stroke: rgb(68, 68, 68); stroke-opacity: 1; fill: rgb(255, 102, 146); fill-opacity: 0.6; stroke-width: 0; opacity: 1;"/><path class="sankey-link" d="M759.9000000000001,585.8921977569103C946.19943,585.8921977569103 946.19943,563.5744841188075 1132.49886,563.5744841188075L1132.49886,567.2080244914782C946.19943,567.2080244914782 946.19943,589.525738129581 759.9000000000001,589.525738129581Z" style="stroke: rgb(68, 68, 68); stroke-opacity: 1; fill: rgb(255, 102, 146); fill-opacity: 0.6; stroke-width: 0; opacity: 1;"/><path class="sankey-link" d="M759.9000000000001,654.9294648376555C946.19943,654.9294648376555 946.19943,683.8117791645815 1132.49886,683.8117791645815L1132.49886,687.4453195372522C946.19943,687.4453195372522 946.19943,658.5630052103262 759.9000000000001,658.5630052103262Z" style="stroke: rgb(68, 68, 68); stroke-opacity: 1; fill: rgb(255, 102, 146); fill-opacity: 0.6; stroke-width: 0; opacity: 1;"/><path class="sankey-link" d="M759.9000000000001,589.5257381295811C946.19943,589.5257381295811 946.19943,567.2080244914783 1132.49886,567.2080244914783L1132.49886,569.0247946778137C946.19943,569.0247946778137 946.19943,591.3425083159165 759.9000000000001,591.3425083159165Z" style="stroke: rgb(68, 68, 68); stroke-opacity: 1; fill: rgb(182, 232, 128); fill-opacity: 0.6; stroke-width: 0; opacity: 1;"/></g><g class="sankey-node-set" style="cursor: ns-resize;"><g class="sankey-node" transform="translate(-7.499,15.683)" style="opacity: 1;"><rect class="node-rect" width="15" height="30.88509316770182" style="stroke-width: 0.5; stroke: rgb(0, 0, 0); stroke-opacity: 1; fill: rgb(128, 128, 128); fill-opacity: 1;"/><text class="node-label" data-notex="1" x="0" y="0" text-anchor="start" transform="translate(18.25,19.64254658385091)" style="cursor: default; font-family: 'Open Sans', verdana, arial, sans-serif; font-size: 12px; fill: rgb(42, 63, 95); fill-opacity: 1; white-space: pre; text-shadow: white 1px 1px 1px, white -1px -1px 1px, white 1px -1px 1px, white -1px 1px 1px;">21271R</text></g><g class="sankey-node" transform="translate(-7.499,71.760)" style="opacity: 1;"><rect class="node-rect" width="15" height="228.91304347826102" style="stroke-width: 0.5; stroke: rgb(0, 0, 0); stroke-opacity: 1; fill: rgb(128, 128, 128); fill-opacity: 1;"/><text class="node-label" data-notex="1" x="0" y="0" text-anchor="start" transform="translate(18.25,118.65652173913051)" style="cursor: default; font-family: 'Open Sans', verdana, arial, sans-serif; font-size: 12px; fill: rgb(42, 63, 95); fill-opacity: 1; white-space: pre; text-shadow: white 1px 1px 1px, white -1px -1px 1px, white 1px -1px 1px, white -1px 1px 1px;">21272R</text></g><g class="sankey-node" transform="translate(-7.499,327.072)" style="opacity: 1;"><rect class="node-rect" width="15" height="59.95341614906852" style="stroke-width: 0.5; stroke: rgb(0, 0, 0); stroke-opacity: 1; fill: rgb(128, 128, 128); fill-opacity: 1;"/><text class="node-label" data-notex="1" x="0" y="0" text-anchor="start" transform="translate(18.25,34.17670807453426)" style="cursor: default; font-family: 'Open Sans', verdana, arial, sans-serif; font-size: 12px; fill: rgb(42, 63, 95); fill-opacity: 1; white-space: pre; text-shadow: white 1px 1px 1px, white -1px -1px 1px, white 1px -1px 1px, white -1px 1px 1px;">21965RL</text></g><g class="sankey-node" transform="translate(-7.499,409.425)" style="opacity: 1;"><rect class="node-rect" width="15" height="132.62422360248422" style="stroke-width: 0.5; stroke: rgb(0, 0, 0); stroke-opacity: 1; fill: rgb(128, 128, 128); fill-opacity: 1;"/><text class="node-label" data-notex="1" x="0" y="0" text-anchor="start" transform="translate(18.25,70.51211180124211)" style="cursor: default; font-family: 'Open Sans', verdana, arial, sans-serif; font-size: 12px; fill: rgb(42, 63, 95); fill-opacity: 1; white-space: pre; text-shadow: white 1px 1px 1px, white -1px -1px 1px, white 1px -1px 1px, white -1px 1px 1px;">22384</text></g><g class="sankey-node" transform="translate(-7.499,567.467)" style="opacity: 1;"><rect class="node-rect" width="15" height="132.62422360248434" style="stroke-width: 0.5; stroke: rgb(0, 0, 0); stroke-opacity: 1; fill: rgb(128, 128, 128); fill-opacity: 1;"/><text class="node-label" data-notex="1" x="0" y="0" text-anchor="start" transform="translate(18.25,70.51211180124217)" style="cursor: default; font-family: 'Open Sans', verdana, arial, sans-serif; font-size: 12px; fill: rgb(42, 63, 95); fill-opacity: 1; white-space: pre; text-shadow: white 1px 1px 1px, white -1px -1px 1px, white 1px -1px 1px, white -1px 1px 1px;">22670</text></g><g class="sankey-node" transform="translate(744.900,50.148)" style="opacity: 1;"><rect class="node-rect" width="15" height="103.55590062111833" style="stroke-width: 0.5; stroke: rgb(0, 0, 0); stroke-opacity: 1; fill: rgb(128, 128, 128); fill-opacity: 1;"/><text class="node-label" data-notex="1" x="0" y="0" text-anchor="start" transform="translate(18.25,55.977950310559166)" style="cursor: default; font-family: 'Open Sans', verdana, arial, sans-serif; font-size: 12px; fill: rgb(42, 63, 95); fill-opacity: 1; white-space: pre; text-shadow: white 1px 1px 1px, white -1px -1px 1px, white 1px -1px 1px, white -1px 1px 1px;">Aggressor</text></g><g class="sankey-node" transform="translate(744.900,221.413)" style="opacity: 1;"><rect class="node-rect" width="15" height="50.869565217391255" style="stroke-width: 0.5; stroke: rgb(0, 0, 0); stroke-opacity: 1; fill: rgb(128, 128, 128); fill-opacity: 1;"/><text class="node-label" data-notex="1" x="0" y="0" text-anchor="start" transform="translate(18.25,29.634782608695627)" style="cursor: default; font-family: 'Open Sans', verdana, arial, sans-serif; font-size: 12px; fill: rgb(42, 63, 95); fill-opacity: 1; white-space: pre; text-shadow: white 1px 1px 1px, white -1px -1px 1px, white 1px -1px 1px, white -1px 1px 1px;">Target of Aggression</text></g><g class="sankey-node" transform="translate(744.900,336.228)" style="opacity: 1;"><rect class="node-rect" width="15" height="92.65527950310593" style="stroke-width: 0.5; stroke: rgb(0, 0, 0); stroke-opacity: 1; fill: rgb(128, 128, 128); fill-opacity: 1;"/><text class="node-label" data-notex="1" x="0" y="0" text-anchor="start" transform="translate(18.25,50.52763975155297)" style="cursor: default; font-family: 'Open Sans', verdana, arial, sans-serif; font-size: 12px; fill: rgb(42, 63, 95); fill-opacity: 1; white-space: pre; text-shadow: white 1px 1px 1px, white -1px -1px 1px, white 1px -1px 1px, white -1px 1px 1px;">NonSocial</text></g><g class="sankey-node" transform="translate(744.900,522.305)" style="opacity: 1;"><rect class="node-rect" width="15" height="136.25776397515574" style="stroke-width: 0.5; stroke: rgb(0, 0, 0); stroke-opacity: 1; fill: rgb(128, 128, 128); fill-opacity: 1;"/><text class="node-label" data-notex="1" x="0" y="0" text-anchor="start" transform="translate(18.25,72.32888198757787)" style="cursor: default; font-family: 'Open Sans', verdana, arial, sans-serif; font-size: 12px; fill: rgb(42, 63, 95); fill-opacity: 1; white-space: pre; text-shadow: white 1px 1px 1px, white -1px -1px 1px, white 1px -1px 1px, white -1px 1px 1px;">Social</text></g><g class="sankey-node" transform="translate(1132.499,27.157)" style="opacity: 1;"><rect class="node-rect" width="15" height="47.236024844720525" style="stroke-width: 0.5; stroke: rgb(0, 0, 0); stroke-opacity: 1; fill: rgb(128, 128, 128); fill-opacity: 1;"/><text class="node-label" data-notex="1" x="0" y="0" text-anchor="end" transform="translate(-3.25,27.818012422360262)" style="cursor: default; font-family: 'Open Sans', verdana, arial, sans-serif; font-size: 12px; fill: rgb(42, 63, 95); fill-opacity: 1; white-space: pre; text-shadow: white 1px 1px 1px, white -1px -1px 1px, white 1px -1px 1px, white -1px 1px 1px;">Aggressor-activated</text></g><g class="sankey-node" transform="translate(1132.499,116.761)" style="opacity: 1;"><rect class="node-rect" width="15" height="56.31987577639745" style="stroke-width: 0.5; stroke: rgb(0, 0, 0); stroke-opacity: 1; fill: rgb(128, 128, 128); fill-opacity: 1;"/><text class="node-label" data-notex="1" x="0" y="0" text-anchor="end" transform="translate(-3.25,32.35993788819873)" style="cursor: default; font-family: 'Open Sans', verdana, arial, sans-serif; font-size: 12px; fill: rgb(42, 63, 95); fill-opacity: 1; white-space: pre; text-shadow: white 1px 1px 1px, white -1px -1px 1px, white 1px -1px 1px, white -1px 1px 1px;">Aggressor-suppressed</text></g><g class="sankey-node" transform="translate(1132.499,207.599)" style="opacity: 1;"><rect class="node-rect" width="15" height="18.16770186335407" style="stroke-width: 0.5; stroke: rgb(0, 0, 0); stroke-opacity: 1; fill: rgb(128, 128, 128); fill-opacity: 1;"/><text class="node-label" data-notex="1" x="0" y="0" text-anchor="end" transform="translate(-3.25,13.283850931677033)" style="cursor: default; font-family: 'Open Sans', verdana, arial, sans-serif; font-size: 12px; fill: rgb(42, 63, 95); fill-opacity: 1; white-space: pre; text-shadow: white 1px 1px 1px, white -1px -1px 1px, white 1px -1px 1px, white -1px 1px 1px;">Target of Aggression-activated</text></g><g class="sankey-node" transform="translate(1132.499,253.905)" style="opacity: 1;"><rect class="node-rect" width="15" height="32.70186335403707" style="stroke-width: 0.5; stroke: rgb(0, 0, 0); stroke-opacity: 1; fill: rgb(128, 128, 128); fill-opacity: 1;"/><text class="node-label" data-notex="1" x="0" y="0" text-anchor="end" transform="translate(-3.25,20.550931677018536)" style="cursor: default; font-family: 'Open Sans', verdana, arial, sans-serif; font-size: 12px; fill: rgb(42, 63, 95); fill-opacity: 1; white-space: pre; text-shadow: white 1px 1px 1px, white -1px -1px 1px, white 1px -1px 1px, white -1px 1px 1px;">Target of Aggression-suppressed</text></g><g class="sankey-node" transform="translate(1132.499,320.634)" style="opacity: 1;"><rect class="node-rect" width="15" height="39.96894409937863" style="stroke-width: 0.5; stroke: rgb(0, 0, 0); stroke-opacity: 1; fill: rgb(128, 128, 128); fill-opacity: 1;"/><text class="node-label" data-notex="1" x="0" y="0" text-anchor="end" transform="translate(-3.25,24.184472049689315)" style="cursor: default; font-family: 'Open Sans', verdana, arial, sans-serif; font-size: 12px; fill: rgb(42, 63, 95); fill-opacity: 1; white-space: pre; text-shadow: white 1px 1px 1px, white -1px -1px 1px, white 1px -1px 1px, white -1px 1px 1px;">NonSocial-activated</text></g><g class="sankey-node" transform="translate(1132.499,400.027)" style="opacity: 1;"><rect class="node-rect" width="15" height="52.68633540372696" style="stroke-width: 0.5; stroke: rgb(0, 0, 0); stroke-opacity: 1; fill: rgb(128, 128, 128); fill-opacity: 1;"/><text class="node-label" data-notex="1" x="0" y="0" text-anchor="end" transform="translate(-3.25,30.543167701863478)" style="cursor: default; font-family: 'Open Sans', verdana, arial, sans-serif; font-size: 12px; fill: rgb(42, 63, 95); fill-opacity: 1; white-space: pre; text-shadow: white 1px 1px 1px, white -1px -1px 1px, white 1px -1px 1px, white -1px 1px 1px;">NonSocial-suppressed</text></g><g class="sankey-node" transform="translate(1132.499,499.988)" style="opacity: 1;"><rect class="node-rect" width="15" height="69.0372670807451" style="stroke-width: 0.5; stroke: rgb(0, 0, 0); stroke-opacity: 1; fill: rgb(128, 128, 128); fill-opacity: 1;"/><text class="node-label" data-notex="1" x="0" y="0" text-anchor="end" transform="translate(-3.25,38.71863354037255)" style="cursor: default; font-family: 'Open Sans', verdana, arial, sans-serif; font-size: 12px; fill: rgb(42, 63, 95); fill-opacity: 1; white-space: pre; text-shadow: white 1px 1px 1px, white -1px -1px 1px, white 1px -1px 1px, white -1px 1px 1px;">Social-activated</text></g><g class="sankey-node" transform="translate(1132.499,620.225)" style="opacity: 1;"><rect class="node-rect" width="15" height="67.22049689440996" style="stroke-width: 0.5; stroke: rgb(0, 0, 0); stroke-opacity: 1; fill: rgb(128, 128, 128); fill-opacity: 1;"/><text class="node-label" data-notex="1" x="0" y="0" text-anchor="end" transform="translate(-3.25,37.810248447204984)" style="cursor: default; font-family: 'Open Sans', verdana, arial, sans-serif; font-size: 12px; fill: rgb(42, 63, 95); fill-opacity: 1; white-space: pre; text-shadow: white 1px 1px 1px, white -1px -1px 1px, white 1px -1px 1px, white -1px 1px 1px;">Social-suppressed</text></g><g class="sankey-node" transform="translate(368.700,13.746)" style="opacity: 1;"><rect class="node-rect" width="15" height="32.7018633540373" style="stroke-width: 0.5; stroke: rgb(0, 0, 0); stroke-opacity: 1; fill: rgb(25, 211, 243); fill-opacity: 1;"/><text class="node-label" data-notex="1" x="0" y="0" text-anchor="start" transform="translate(18.25,20.55093167701865)" style="cursor: default; font-family: 'Open Sans', verdana, arial, sans-serif; font-size: 12px; fill: rgb(42, 63, 95); fill-opacity: 1; white-space: pre; text-shadow: white 1px 1px 1px, white -1px -1px 1px, white 1px -1px 1px, white -1px 1px 1px;">BLA</text></g><g class="sankey-node" transform="translate(368.700,58.304)" style="opacity: 1;"><rect class="node-rect" width="15" height="94.4720496894405" style="stroke-width: 0.5; stroke: rgb(0, 0, 0); stroke-opacity: 1; fill: rgb(99, 110, 250); fill-opacity: 1;"/><text class="node-label" data-notex="1" x="0" y="0" text-anchor="start" transform="translate(18.25,51.43602484472025)" style="cursor: default; font-family: 'Open Sans', verdana, arial, sans-serif; font-size: 12px; fill: rgb(42, 63, 95); fill-opacity: 1; white-space: pre; text-shadow: white 1px 1px 1px, white -1px -1px 1px, white 1px -1px 1px, white -1px 1px 1px;">Cla</text></g><g class="sankey-node" transform="translate(368.700,163.906)" style="opacity: 1;"><rect class="node-rect" width="15" height="69.0372670807451" style="stroke-width: 0.5; stroke: rgb(0, 0, 0); stroke-opacity: 1; fill: rgb(239, 85, 59); fill-opacity: 1;"/><text class="node-label" data-notex="1" x="0" y="0" text-anchor="start" transform="translate(18.25,38.71863354037255)" style="cursor: default; font-family: 'Open Sans', verdana, arial, sans-serif; font-size: 12px; fill: rgb(42, 63, 95); fill-opacity: 1; white-space: pre; text-shadow: white 1px 1px 1px, white -1px -1px 1px, white 1px -1px 1px, white -1px 1px 1px;">LC</text></g><g class="sankey-node" transform="translate(368.700,245.381)" style="opacity: 1;"><rect class="node-rect" width="15" height="29.06832298136601" style="stroke-width: 0.5; stroke: rgb(0, 0, 0); stroke-opacity: 1; fill: rgb(254, 203, 82); fill-opacity: 1;"/><text class="node-label" data-notex="1" x="0" y="0" text-anchor="start" transform="translate(18.25,18.734161490683004)" style="cursor: default; font-family: 'Open Sans', verdana, arial, sans-serif; font-size: 12px; fill: rgb(42, 63, 95); fill-opacity: 1; white-space: pre; text-shadow: white 1px 1px 1px, white -1px -1px 1px, white 1px -1px 1px, white -1px 1px 1px;">LHyp</text></g><g class="sankey-node" transform="translate(368.700,287.469)" style="opacity: 1;"><rect class="node-rect" width="15" height="39.96894409937863" style="stroke-width: 0.5; stroke: rgb(0, 0, 0); stroke-opacity: 1; fill: rgb(171, 99, 250); fill-opacity: 1;"/><text class="node-label" data-notex="1" x="0" y="0" text-anchor="start" transform="translate(18.25,24.184472049689315)" style="cursor: default; font-family: 'Open Sans', verdana, arial, sans-serif; font-size: 12px; fill: rgb(42, 63, 95); fill-opacity: 1; white-space: pre; text-shadow: white 1px 1px 1px, white -1px -1px 1px, white 1px -1px 1px, white -1px 1px 1px;">NAc</text></g><g class="sankey-node" transform="translate(368.700,339.222)" style="opacity: 1;"><rect class="node-rect" width="15" height="90.83850931677" style="stroke-width: 0.5; stroke: rgb(0, 0, 0); stroke-opacity: 1; fill: rgb(0, 204, 150); fill-opacity: 1;"/><text class="node-label" data-notex="1" x="0" y="0" text-anchor="start" transform="translate(18.25,49.619254658385)" style="cursor: default; font-family: 'Open Sans', verdana, arial, sans-serif; font-size: 12px; fill: rgb(42, 63, 95); fill-opacity: 1; white-space: pre; text-shadow: white 1px 1px 1px, white -1px -1px 1px, white 1px -1px 1px, white -1px 1px 1px;">Str</text></g><g class="sankey-node" transform="translate(368.700,439.809)" style="opacity: 1;"><rect class="node-rect" width="15" height="141.7080745341616" style="stroke-width: 0.5; stroke: rgb(0, 0, 0); stroke-opacity: 1; fill: rgb(255, 161, 90); fill-opacity: 1;"/><text class="node-label" data-notex="1" x="0" y="0" text-anchor="start" transform="translate(18.25,75.0540372670808)" style="cursor: default; font-family: 'Open Sans', verdana, arial, sans-serif; font-size: 12px; fill: rgb(42, 63, 95); fill-opacity: 1; white-space: pre; text-shadow: white 1px 1px 1px, white -1px -1px 1px, white 1px -1px 1px, white -1px 1px 1px;">VTA</text></g><g class="sankey-node" transform="translate(368.700,592.030)" style="opacity: 1;"><rect class="node-rect" width="15" height="52.686335403726844" style="stroke-width: 0.5; stroke: rgb(0, 0, 0); stroke-opacity: 1; fill: rgb(255, 151, 255); fill-opacity: 1;"/><text class="node-label" data-notex="1" x="0" y="0" text-anchor="start" transform="translate(18.25,30.54316770186342)" style="cursor: default; font-family: 'Open Sans', verdana, arial, sans-serif; font-size: 12px; fill: rgb(42, 63, 95); fill-opacity: 1; white-space: pre; text-shadow: white 1px 1px 1px, white -1px -1px 1px, white 1px -1px 1px, white -1px 1px 1px;">cPFC</text></g><g class="sankey-node" transform="translate(368.700,657.517)" style="opacity: 1;"><rect class="node-rect" width="15" height="27.251552795031103" style="stroke-width: 0.5; stroke: rgb(0, 0, 0); stroke-opacity: 1; fill: rgb(255, 102, 146); fill-opacity: 1;"/><text class="node-label" data-notex="1" x="0" y="0" text-anchor="start" transform="translate(18.25,17.82577639751555)" style="cursor: default; font-family: 'Open Sans', verdana, arial, sans-serif; font-size: 12px; fill: rgb(42, 63, 95); fill-opacity: 1; white-space: pre; text-shadow: white 1px 1px 1px, white -1px -1px 1px, white 1px -1px 1px, white -1px 1px 1px;">dPAG</text></g><g class="sankey-node" transform="translate(368.700,698.478)" style="opacity: 1;"><rect class="node-rect" width="15" height="7.267080745341445" style="stroke-width: 0.5; stroke: rgb(0, 0, 0); stroke-opacity: 1; fill: rgb(182, 232, 128); fill-opacity: 1;"/><text class="node-label" data-notex="1" x="0" y="0" text-anchor="start" transform="translate(18.25,7.833540372670722)" style="cursor: default; font-family: 'Open Sans', verdana, arial, sans-serif; font-size: 12px; fill: rgb(42, 63, 95); fill-opacity: 1; white-space: pre; text-shadow: white 1px 1px 1px, white -1px -1px 1px, white 1px -1px 1px, white -1px 1px 1px;">lHb</text></g></g></g><defs id="topdefs-3c92a5"><g class="clips"/></defs><g class="layer-above"><g class="imagelayer"/><g class="shapelayer"/></g><g class="infolayer"><g class="g-gtitle"/><g class="first-render"/></g></svg>