<svg class="main-svg" xmlns="http://www.w3.org/2000/svg" xmlns:xlink="http://www.w3.org/1999/xlink" width="1300" height="900" style="" viewBox="0 0 1300 900"><rect x="0" y="0" width="1300" height="900" style="fill: rgb(255, 255, 255); fill-opacity: 1;"/><defs id="defs-53e373"><g class="clips"/><g class="gradients"/><g class="patterns"/></defs><g class="bglayer"/><g class="layer-below"><g class="imagelayer"/><g class="shapelayer"/></g><g class="cartesianlayer"/><g class="polarlayer"/><g class="smithlayer"/><g class="ternarylayer"/><g class="geolayer"/><g class="funnelarealayer"/><g class="pielayer"/><g class="iciclelayer"/><g class="treemaplayer"/><g class="sunburstlayer"/><g class="glimages"/><g class="sankey" transform="translate(80,100)matrix(1 0 0 1 0 0)" style="box-sizing: content-box; position: absolute; left: 0px; shape-rendering: geometricprecision; pointer-events: none;"><g class="sankey-links" style="fill: none;"><path class="sankey-link" d="M15,702.8856382978726C195,702.8856382978726 195,562.9787234042549 375,562.9787234042549L375,573.8696808510633C195,573.8696808510633 195,713.776595744681 15,713.776595744681Z" style="stroke: rgb(68, 68, 68); stroke-opacity: 1; fill: rgb(239, 85, 59); fill-opacity: 0.6; stroke-width: 0; opacity: 1;"/><path class="sankey-link" d="M15,699.773936170213C195,699.773936170213 195,392.95212765957405 375,392.95212765957405L375,396.0638297872336C195,396.0638297872336 195,702.8856382978726 15,702.8856382978726Z" style="stroke: rgb(68, 68, 68); stroke-opacity: 1; fill: rgb(0, 204, 150); fill-opacity: 0.6; stroke-width: 0; opacity: 1;"/><path class="sankey-link" d="M15,713.7765957446811C195,713.7765957446811 195,667.6595744680849 375,667.6595744680849L375,673.882978723404C195,673.882978723404 195,720.0000000000002 15,720.0000000000002Z" style="stroke: rgb(68, 68, 68); stroke-opacity: 1; fill: rgb(255, 161, 90); fill-opacity: 0.6; stroke-width: 0; opacity: 1;"/><path class="sankey-link" d="M15,688.8829787234044C195,688.8829787234044 195,309.4946808510633 375,309.4946808510633L375,320.3856382978719C195,320.3856382978719 195,699.7739361702129 15,699.7739361702129Z" style="stroke: rgb(68, 68, 68); stroke-opacity: 1; fill: rgb(171, 99, 250); fill-opacity: 0.6; stroke-width: 0; opacity: 1;"/><path class="sankey-link" d="M15,687.3271276595747C195,687.3271276595747 195,219.81382978723326 375,219.81382978723326L375,221.36968085106304C195,221.36968085106304 195,688.8829787234044 15,688.8829787234044Z" style="stroke: rgb(68, 68, 68); stroke-opacity: 1; fill: rgb(99, 110, 250); fill-opacity: 0.6; stroke-width: 0; opacity: 1;"/><path class="sankey-link" d="M15,75C195,75 195,-7.105427357601002e-13 375,-7.105427357601002e-13L375,29.561170212765248C195,29.561170212765248 195,104.56117021276594 15,104.56117021276594Z" style="stroke: rgb(68, 68, 68); stroke-opacity: 1; fill: rgb(25, 211, 243); fill-opacity: 0.6; stroke-width: 0; opacity: 1;"/><path class="sankey-link" d="M15,239.92021276595744C195,239.92021276595744 195,478.9627659574463 375,478.9627659574463L375,517.859042553191C195,517.859042553191 195,278.8164893617021 15,278.8164893617021Z" style="stroke: rgb(68, 68, 68); stroke-opacity: 1; fill: rgb(239, 85, 59); fill-opacity: 0.6; stroke-width: 0; opacity: 1;"/><path class="sankey-link" d="M15,177.68617021276594C195,177.68617021276594 195,335.3856382978719 375,335.3856382978719L375,371.170212765957C195,371.170212765957 195,213.47074468085106 15,213.47074468085106Z" style="stroke: rgb(68, 68, 68); stroke-opacity: 1; fill: rgb(0, 204, 150); fill-opacity: 0.6; stroke-width: 0; opacity: 1;"/><path class="sankey-link" d="M15,292.8191489361702C195,292.8191489361702 195,633.4308510638296 375,633.4308510638296L375,653.6569148936169C195,653.6569148936169 195,313.04521276595744 15,313.04521276595744Z" style="stroke: rgb(68, 68, 68); stroke-opacity: 1; fill: rgb(255, 161, 90); fill-opacity: 0.6; stroke-width: 0; opacity: 1;"/><path class="sankey-link" d="M15,131.01063829787233C195,131.01063829787233 195,236.3696808510634 375,236.3696808510634L375,283.04521276595705C195,283.04521276595705 195,177.68617021276594 15,177.68617021276594Z" style="stroke: rgb(68, 68, 68); stroke-opacity: 1; fill: rgb(171, 99, 250); fill-opacity: 0.6; stroke-width: 0; opacity: 1;"/><path class="sankey-link" d="M15,109.22872340425532C195,109.22872340425532 195,67.3404255319141 375,67.3404255319141L375,89.12234042553112C195,89.12234042553112 195,131.01063829787233 15,131.01063829787233Z" style="stroke: rgb(68, 68, 68); stroke-opacity: 1; fill: rgb(99, 110, 250); fill-opacity: 0.6; stroke-width: 0; opacity: 1;"/><path class="sankey-link" d="M15,213.47074468085106C195,213.47074468085106 195,411.0638297872338 375,411.0638297872338L375,437.5132978723401C195,437.5132978723401 195,239.92021276595744 15,239.92021276595744Z" style="stroke: rgb(68, 68, 68); stroke-opacity: 1; fill: rgb(255, 151, 255); fill-opacity: 0.6; stroke-width: 0; opacity: 1;"/><path class="sankey-link" d="M15,278.8164893617021C195,278.8164893617021 195,588.8696808510633 375,588.8696808510633L375,602.8723404255313C195,602.8723404255313 195,292.8191489361702 15,292.8191489361702Z" style="stroke: rgb(68, 68, 68); stroke-opacity: 1; fill: rgb(255, 102, 146); fill-opacity: 0.6; stroke-width: 0; opacity: 1;"/><path class="sankey-link" d="M15,104.56117021276596C195,104.56117021276596 195,47.672872340424874 375,47.672872340424874L375,52.340425531914235C195,52.340425531914235 195,109.22872340425532 15,109.22872340425532Z" style="stroke: rgb(68, 68, 68); stroke-opacity: 1; fill: rgb(182, 232, 128); fill-opacity: 0.6; stroke-width: 0; opacity: 1;"/><path class="sankey-link" d="M15,606.9813829787233C195,606.9813829787233 195,29.561170212765248 375,29.561170212765248L375,32.672872340424824C195,32.672872340424824 195,610.0930851063829 15,610.0930851063829Z" style="stroke: rgb(68, 68, 68); stroke-opacity: 1; fill: rgb(25, 211, 243); fill-opacity: 0.6; stroke-width: 0; opacity: 1;"/><path class="sankey-link" d="M15,625.6515957446807C195,625.6515957446807 195,539.6409574468081 375,539.6409574468081L375,562.978723404255C195,562.978723404255 195,648.9893617021276 15,648.9893617021276Z" style="stroke: rgb(68, 68, 68); stroke-opacity: 1; fill: rgb(239, 85, 59); fill-opacity: 0.6; stroke-width: 0; opacity: 1;"/><path class="sankey-link" d="M15,614.7606382978722C195,614.7606382978722 195,386.7287234042549 375,386.7287234042549L375,392.952127659574C195,392.952127659574 195,620.9840425531913 15,620.9840425531913Z" style="stroke: rgb(68, 68, 68); stroke-opacity: 1; fill: rgb(0, 204, 150); fill-opacity: 0.6; stroke-width: 0; opacity: 1;"/><path class="sankey-link" d="M15,658.3244680851062C195,658.3244680851062 195,653.6569148936168 375,653.6569148936168L375,667.6595744680848C195,667.6595744680848 195,672.3271276595742 15,672.3271276595742Z" style="stroke: rgb(68, 68, 68); stroke-opacity: 1; fill: rgb(255, 161, 90); fill-opacity: 0.6; stroke-width: 0; opacity: 1;"/><path class="sankey-link" d="M15,613.2047872340424C195,613.2047872340424 195,307.93882978723354 375,307.93882978723354L375,309.4946808510633C195,309.4946808510633 195,614.7606382978722 15,614.7606382978722Z" style="stroke: rgb(68, 68, 68); stroke-opacity: 1; fill: rgb(171, 99, 250); fill-opacity: 0.6; stroke-width: 0; opacity: 1;"/><path class="sankey-link" d="M15,610.0930851063829C195,610.0930851063829 195,216.70212765957368 375,216.70212765957368L375,219.81382978723323C195,219.81382978723323 195,613.2047872340424 15,613.2047872340424Z" style="stroke: rgb(68, 68, 68); stroke-opacity: 1; fill: rgb(99, 110, 250); fill-opacity: 0.6; stroke-width: 0; opacity: 1;"/><path class="sankey-link" d="M15,620.9840425531913C195,620.9840425531913 195,459.29521276595716 375,459.29521276595716L375,463.9627659574465C195,463.9627659574465 195,625.6515957446807 15,625.6515957446807Z" style="stroke: rgb(68, 68, 68); stroke-opacity: 1; fill: rgb(255, 151, 255); fill-opacity: 0.6; stroke-width: 0; opacity: 1;"/><path class="sankey-link" d="M15,648.9893617021274C195,648.9893617021274 195,609.0957446808505 375,609.0957446808505L375,618.4308510638292C195,618.4308510638292 195,658.3244680851061 15,658.3244680851061Z" style="stroke: rgb(68, 68, 68); stroke-opacity: 1; fill: rgb(255, 102, 146); fill-opacity: 0.6; stroke-width: 0; opacity: 1;"/><path class="sankey-link" d="M15,422.9521276595742C195,422.9521276595742 195,517.859042553191 375,517.859042553191L375,528.7499999999994C195,528.7499999999994 195,433.8430851063828 15,433.8430851063828Z" style="stroke: rgb(68, 68, 68); stroke-opacity: 1; fill: rgb(239, 85, 59); fill-opacity: 0.6; stroke-width: 0; opacity: 1;"/><path class="sankey-link" d="M15,404.2819148936168C195,404.2819148936168 195,371.170212765957 375,371.170212765957L375,378.9494680851059C195,378.9494680851059 195,412.06117021276566 15,412.06117021276566Z" style="stroke: rgb(68, 68, 68); stroke-opacity: 1; fill: rgb(0, 204, 150); fill-opacity: 0.6; stroke-width: 0; opacity: 1;"/><path class="sankey-link" d="M15,436.95478723404227C195,436.95478723404227 195,688.882978723404 375,688.882978723404L375,704.4414893617018C195,704.4414893617018 195,452.51329787234016 15,452.51329787234016Z" style="stroke: rgb(68, 68, 68); stroke-opacity: 1; fill: rgb(254, 203, 82); fill-opacity: 0.6; stroke-width: 0; opacity: 1;"/><path class="sankey-link" d="M15,391.8351063829785C195,391.8351063829785 195,283.045212765957 375,283.045212765957L375,295.4920212765953C195,295.4920212765953 195,404.28191489361683 15,404.28191489361683Z" style="stroke: rgb(68, 68, 68); stroke-opacity: 1; fill: rgb(171, 99, 250); fill-opacity: 0.6; stroke-width: 0; opacity: 1;"/><path class="sankey-link" d="M15,328.0452127659572C195,328.0452127659572 195,89.12234042553112 375,89.12234042553112L375,152.9122340425524C195,152.9122340425524 195,391.83510638297855 15,391.83510638297855Z" style="stroke: rgb(68, 68, 68); stroke-opacity: 1; fill: rgb(99, 110, 250); fill-opacity: 0.6; stroke-width: 0; opacity: 1;"/><path class="sankey-link" d="M15,412.0611702127657C195,412.0611702127657 195,437.51329787234016 375,437.51329787234016L375,448.4042553191487C195,448.4042553191487 195,422.9521276595743 15,422.9521276595743Z" style="stroke: rgb(68, 68, 68); stroke-opacity: 1; fill: rgb(255, 151, 255); fill-opacity: 0.6; stroke-width: 0; opacity: 1;"/><path class="sankey-link" d="M15,433.8430851063827C195,433.8430851063827 195,602.8723404255314 375,602.8723404255314L375,605.984042553191C195,605.984042553191 195,436.95478723404227 15,436.95478723404227Z" style="stroke: rgb(68, 68, 68); stroke-opacity: 1; fill: rgb(255, 102, 146); fill-opacity: 0.6; stroke-width: 0; opacity: 1;"/><path class="sankey-link" d="M15,562.4202127659573C195,562.4202127659573 195,528.7499999999995 375,528.7499999999995L375,539.640957446808C195,539.640957446808 195,573.3111702127658 15,573.3111702127658Z" style="stroke: rgb(68, 68, 68); stroke-opacity: 1; fill: rgb(239, 85, 59); fill-opacity: 0.6; stroke-width: 0; opacity: 1;"/><path class="sankey-link" d="M15,543.7499999999999C195,543.7499999999999 195,378.94946808510593 375,378.94946808510593L375,386.7287234042548C195,386.7287234042548 195,551.5292553191488 15,551.5292553191488Z" style="stroke: rgb(68, 68, 68); stroke-opacity: 1; fill: rgb(0, 204, 150); fill-opacity: 0.6; stroke-width: 0; opacity: 1;"/><path class="sankey-link" d="M15,576.4228723404254C195,576.4228723404254 195,704.4414893617019 375,704.4414893617019L375,719.9999999999997C195,719.9999999999997 195,591.9813829787232 15,591.9813829787232Z" style="stroke: rgb(68, 68, 68); stroke-opacity: 1; fill: rgb(254, 203, 82); fill-opacity: 0.6; stroke-width: 0; opacity: 1;"/><path class="sankey-link" d="M15,531.3031914893616C195,531.3031914893616 195,295.49202127659527 375,295.49202127659527L375,307.9388297872336C195,307.9388297872336 195,543.7499999999998 15,543.7499999999998Z" style="stroke: rgb(68, 68, 68); stroke-opacity: 1; fill: rgb(171, 99, 250); fill-opacity: 0.6; stroke-width: 0; opacity: 1;"/><path class="sankey-link" d="M15,467.5132978723402C195,467.5132978723402 195,152.9122340425524 375,152.9122340425524L375,216.70212765957368C195,216.70212765957368 195,531.3031914893616 15,531.3031914893616Z" style="stroke: rgb(68, 68, 68); stroke-opacity: 1; fill: rgb(99, 110, 250); fill-opacity: 0.6; stroke-width: 0; opacity: 1;"/><path class="sankey-link" d="M15,551.5292553191488C195,551.5292553191488 195,448.40425531914866 375,448.40425531914866L375,459.2952127659572C195,459.2952127659572 195,562.4202127659572 15,562.4202127659572Z" style="stroke: rgb(68, 68, 68); stroke-opacity: 1; fill: rgb(255, 151, 255); fill-opacity: 0.6; stroke-width: 0; opacity: 1;"/><path class="sankey-link" d="M15,573.3111702127659C195,573.3111702127659 195,605.984042553191 375,605.984042553191L375,609.0957446808505C195,609.0957446808505 195,576.4228723404254 15,576.4228723404254Z" style="stroke: rgb(68, 68, 68); stroke-opacity: 1; fill: rgb(255, 102, 146); fill-opacity: 0.6; stroke-width: 0; opacity: 1;"/><path class="sankey-link" d="M390,-7.105427357601002e-13C570,-7.105427357601002e-13 570,230.0265957446809 750,230.0265957446809L750,237.80585106382983C570,237.80585106382983 570,7.779255319148226 390,7.779255319148226Z" style="stroke: rgb(68, 68, 68); stroke-opacity: 1; fill: rgb(25, 211, 243); fill-opacity: 0.6; stroke-width: 0; opacity: 1;"/><path class="sankey-link" d="M390,7.779255319148226C570,7.779255319148226 570,358.60372340425533 750,358.60372340425533L750,367.9388297872341C570,367.9388297872341 570,17.11436170212695 390,17.11436170212695Z" style="stroke: rgb(68, 68, 68); stroke-opacity: 1; fill: rgb(25, 211, 243); fill-opacity: 0.6; stroke-width: 0; opacity: 1;"/><path class="sankey-link" d="M390,17.11436170212695C570,17.11436170212695 570,480.95744680851067 750,480.95744680851067L750,491.8484042553192C570,491.8484042553192 570,28.005319148935463 390,28.005319148935463Z" style="stroke: rgb(68, 68, 68); stroke-opacity: 1; fill: rgb(25, 211, 243); fill-opacity: 0.6; stroke-width: 0; opacity: 1;"/><path class="sankey-link" d="M390,478.9627659574463C570,478.9627659574463 570,309.375 750,309.375L750,328.04521276595744C570,328.04521276595744 570,497.63297872340377 390,497.63297872340377Z" style="stroke: rgb(68, 68, 68); stroke-opacity: 1; fill: rgb(239, 85, 59); fill-opacity: 0.6; stroke-width: 0; opacity: 1;"/><path class="sankey-link" d="M390,497.63297872340377C570,497.63297872340377 570,422.3936170212766 750,422.3936170212766L750,444.1755319148936C570,444.1755319148936 570,519.4148936170208 390,519.4148936170208Z" style="stroke: rgb(68, 68, 68); stroke-opacity: 1; fill: rgb(239, 85, 59); fill-opacity: 0.6; stroke-width: 0; opacity: 1;"/><path class="sankey-link" d="M390,519.4148936170208C570,519.4148936170208 570,605.4255319148936 750,605.4255319148936L750,641.2101063829787C570,641.2101063829787 570,555.1994680851059 390,555.1994680851059Z" style="stroke: rgb(68, 68, 68); stroke-opacity: 1; fill: rgb(239, 85, 59); fill-opacity: 0.6; stroke-width: 0; opacity: 1;"/><path class="sankey-link" d="M390,555.1994680851059C570,555.1994680851059 570,710.6648936170214 750,710.6648936170214L750,713.776595744681C570,713.776595744681 570,558.3111702127654 390,558.3111702127654Z" style="stroke: rgb(68, 68, 68); stroke-opacity: 1; fill: rgb(239, 85, 59); fill-opacity: 0.6; stroke-width: 0; opacity: 1;"/><path class="sankey-link" d="M390,335.3856382978719C570,335.3856382978719 570,289.1489361702128 750,289.1489361702128L750,296.92819148936167C570,296.92819148936167 570,343.16489361702077 390,343.16489361702077Z" style="stroke: rgb(68, 68, 68); stroke-opacity: 1; fill: rgb(0, 204, 150); fill-opacity: 0.6; stroke-width: 0; opacity: 1;"/><path class="sankey-link" d="M390,343.1648936170208C570,343.1648936170208 570,391.2765957446809 750,391.2765957446809L750,413.0585106382979C570,413.0585106382979 570,364.9468085106378 390,364.9468085106378Z" style="stroke: rgb(68, 68, 68); stroke-opacity: 1; fill: rgb(0, 204, 150); fill-opacity: 0.6; stroke-width: 0; opacity: 1;"/><path class="sankey-link" d="M390,364.9468085106378C570,364.9468085106378 570,563.4175531914893 750,563.4175531914893L750,586.7553191489362C570,586.7553191489362 570,388.2845744680846 390,388.2845744680846Z" style="stroke: rgb(68, 68, 68); stroke-opacity: 1; fill: rgb(0, 204, 150); fill-opacity: 0.6; stroke-width: 0; opacity: 1;"/><path class="sankey-link" d="M390,388.28457446808466C570,388.28457446808466 570,705.9973404255321 750,705.9973404255321L750,707.5531914893619C570,707.5531914893619 570,389.84042553191443 390,389.84042553191443Z" style="stroke: rgb(68, 68, 68); stroke-opacity: 1; fill: rgb(0, 204, 150); fill-opacity: 0.6; stroke-width: 0; opacity: 1;"/><path class="sankey-link" d="M390,688.882978723404C570,688.882978723404 570,338.936170212766 750,338.936170212766L750,343.60372340425533C570,343.60372340425533 570,693.5505319148933 390,693.5505319148933Z" style="stroke: rgb(68, 68, 68); stroke-opacity: 1; fill: rgb(254, 203, 82); fill-opacity: 0.6; stroke-width: 0; opacity: 1;"/><path class="sankey-link" d="M390,693.5505319148933C570,693.5505319148933 570,659.8803191489361 750,659.8803191489361L750,669.2154255319148C570,669.2154255319148 570,702.885638297872 390,702.885638297872Z" style="stroke: rgb(68, 68, 68); stroke-opacity: 1; fill: rgb(254, 203, 82); fill-opacity: 0.6; stroke-width: 0; opacity: 1;"/><path class="sankey-link" d="M390,702.8856382978721C570,702.8856382978721 570,716.8882978723406 750,716.8882978723406L750,720.0000000000001C570,720.0000000000001 570,705.9973404255317 390,705.9973404255317Z" style="stroke: rgb(68, 68, 68); stroke-opacity: 1; fill: rgb(254, 203, 82); fill-opacity: 0.6; stroke-width: 0; opacity: 1;"/><path class="sankey-link" d="M390,633.4308510638296C570,633.4308510638296 570,334.2686170212766 750,334.2686170212766L750,338.93617021276594C570,338.93617021276594 570,638.0984042553189 390,638.0984042553189Z" style="stroke: rgb(68, 68, 68); stroke-opacity: 1; fill: rgb(255, 161, 90); fill-opacity: 0.6; stroke-width: 0; opacity: 1;"/><path class="sankey-link" d="M390,638.0984042553189C570,638.0984042553189 570,450.3989361702128 750,450.3989361702128L750,465.95744680851067C570,465.95744680851067 570,653.6569148936167 390,653.6569148936167Z" style="stroke: rgb(68, 68, 68); stroke-opacity: 1; fill: rgb(255, 161, 90); fill-opacity: 0.6; stroke-width: 0; opacity: 1;"/><path class="sankey-link" d="M390,653.6569148936168C570,653.6569148936168 570,647.4335106382978 750,647.4335106382978L750,659.880319148936C570,659.880319148936 570,666.103723404255 390,666.103723404255Z" style="stroke: rgb(68, 68, 68); stroke-opacity: 1; fill: rgb(255, 161, 90); fill-opacity: 0.6; stroke-width: 0; opacity: 1;"/><path class="sankey-link" d="M390,236.36968085106338C570,236.36968085106338 570,268.92287234042556 750,268.92287234042556L750,289.1489361702128C570,289.1489361702128 570,256.5957446808506 390,256.5957446808506Z" style="stroke: rgb(68, 68, 68); stroke-opacity: 1; fill: rgb(171, 99, 250); fill-opacity: 0.6; stroke-width: 0; opacity: 1;"/><path class="sankey-link" d="M390,256.5957446808506C570,256.5957446808506 570,375.718085106383 750,375.718085106383L750,391.2765957446809C570,391.2765957446809 570,272.1542553191485 390,272.1542553191485Z" style="stroke: rgb(68, 68, 68); stroke-opacity: 1; fill: rgb(171, 99, 250); fill-opacity: 0.6; stroke-width: 0; opacity: 1;"/><path class="sankey-link" d="M390,272.1542553191485C570,272.1542553191485 570,529.188829787234 750,529.188829787234L750,563.4175531914893C570,563.4175531914893 570,306.3829787234038 390,306.3829787234038Z" style="stroke: rgb(68, 68, 68); stroke-opacity: 1; fill: rgb(171, 99, 250); fill-opacity: 0.6; stroke-width: 0; opacity: 1;"/><path class="sankey-link" d="M390,306.3829787234038C570,306.3829787234038 570,699.773936170213 750,699.773936170213L750,705.9973404255321C570,705.9973404255321 570,312.60638297872293 390,312.60638297872293Z" style="stroke: rgb(68, 68, 68); stroke-opacity: 1; fill: rgb(171, 99, 250); fill-opacity: 0.6; stroke-width: 0; opacity: 1;"/><path class="sankey-link" d="M390,67.3404255319141C570,67.3404255319141 570,237.80585106382983 750,237.80585106382983L750,268.92287234042556C570,268.92287234042556 570,98.45744680850984 390,98.45744680850984Z" style="stroke: rgb(68, 68, 68); stroke-opacity: 1; fill: rgb(99, 110, 250); fill-opacity: 0.6; stroke-width: 0; opacity: 1;"/><path class="sankey-link" d="M390,98.45744680850984C570,98.45744680850984 570,369.49468085106383 750,369.49468085106383L750,375.71808510638294C570,375.71808510638294 570,104.68085106382898 390,104.68085106382898Z" style="stroke: rgb(68, 68, 68); stroke-opacity: 1; fill: rgb(99, 110, 250); fill-opacity: 0.6; stroke-width: 0; opacity: 1;"/><path class="sankey-link" d="M390,104.680851063829C570,104.680851063829 570,493.40425531914894 750,493.40425531914894L750,529.188829787234C570,529.188829787234 570,140.4654255319141 390,140.4654255319141Z" style="stroke: rgb(68, 68, 68); stroke-opacity: 1; fill: rgb(99, 110, 250); fill-opacity: 0.6; stroke-width: 0; opacity: 1;"/><path class="sankey-link" d="M390,140.4654255319141C570,140.4654255319141 570,684.2154255319151 750,684.2154255319151L750,699.7739361702129C570,699.7739361702129 570,156.02393617021198 390,156.02393617021198Z" style="stroke: rgb(68, 68, 68); stroke-opacity: 1; fill: rgb(99, 110, 250); fill-opacity: 0.6; stroke-width: 0; opacity: 1;"/><path class="sankey-link" d="M390,411.0638297872338C570,411.0638297872338 570,296.9281914893617 750,296.9281914893617L750,309.37500000000006C570,309.37500000000006 570,423.5106382978721 390,423.5106382978721Z" style="stroke: rgb(68, 68, 68); stroke-opacity: 1; fill: rgb(255, 151, 255); fill-opacity: 0.6; stroke-width: 0; opacity: 1;"/><path class="sankey-link" d="M390,423.51063829787205C570,423.51063829787205 570,413.0585106382979 750,413.0585106382979L750,422.39361702127667C570,422.39361702127667 570,432.8457446808508 390,432.8457446808508Z" style="stroke: rgb(68, 68, 68); stroke-opacity: 1; fill: rgb(255, 151, 255); fill-opacity: 0.6; stroke-width: 0; opacity: 1;"/><path class="sankey-link" d="M390,432.84574468085077C570,432.84574468085077 570,586.7553191489361 750,586.7553191489361L750,605.4255319148937C570,605.4255319148937 570,451.5159574468082 390,451.5159574468082Z" style="stroke: rgb(68, 68, 68); stroke-opacity: 1; fill: rgb(255, 151, 255); fill-opacity: 0.6; stroke-width: 0; opacity: 1;"/><path class="sankey-link" d="M390,451.5159574468082C570,451.5159574468082 570,707.5531914893619 750,707.5531914893619L750,710.6648936170214C570,710.6648936170214 570,454.62765957446777 390,454.62765957446777Z" style="stroke: rgb(68, 68, 68); stroke-opacity: 1; fill: rgb(255, 151, 255); fill-opacity: 0.6; stroke-width: 0; opacity: 1;"/><path class="sankey-link" d="M390,588.8696808510633C570,588.8696808510633 570,328.04521276595744 750,328.04521276595744L750,334.26861702127655C570,334.26861702127655 570,595.0930851063824 390,595.0930851063824Z" style="stroke: rgb(68, 68, 68); stroke-opacity: 1; fill: rgb(255, 102, 146); fill-opacity: 0.6; stroke-width: 0; opacity: 1;"/><path class="sankey-link" d="M390,595.0930851063824C570,595.0930851063824 570,444.1755319148936 750,444.1755319148936L750,450.3989361702127C570,450.3989361702127 570,601.3164893617015 390,601.3164893617015Z" style="stroke: rgb(68, 68, 68); stroke-opacity: 1; fill: rgb(255, 102, 146); fill-opacity: 0.6; stroke-width: 0; opacity: 1;"/><path class="sankey-link" d="M390,601.3164893617015C570,601.3164893617015 570,641.2101063829787 750,641.2101063829787L750,647.4335106382978C570,647.4335106382978 570,607.5398936170207 390,607.5398936170207Z" style="stroke: rgb(68, 68, 68); stroke-opacity: 1; fill: rgb(255, 102, 146); fill-opacity: 0.6; stroke-width: 0; opacity: 1;"/><path class="sankey-link" d="M390,607.5398936170207C570,607.5398936170207 570,713.776595744681 750,713.776595744681L750,716.8882978723406C570,716.8882978723406 570,610.6515957446802 390,610.6515957446802Z" style="stroke: rgb(68, 68, 68); stroke-opacity: 1; fill: rgb(255, 102, 146); fill-opacity: 0.6; stroke-width: 0; opacity: 1;"/><path class="sankey-link" d="M390,47.672872340424874C570,47.672872340424874 570,367.93882978723406 750,367.93882978723406L750,369.49468085106383C570,369.49468085106383 570,49.228723404254666 390,49.228723404254666Z" style="stroke: rgb(68, 68, 68); stroke-opacity: 1; fill: rgb(182, 232, 128); fill-opacity: 0.6; stroke-width: 0; opacity: 1;"/><path class="sankey-link" d="M390,49.22872340425466C570,49.22872340425466 570,491.84840425531917 750,491.84840425531917L750,493.40425531914894C570,493.40425531914894 570,50.78457446808445 390,50.78457446808445Z" style="stroke: rgb(68, 68, 68); stroke-opacity: 1; fill: rgb(182, 232, 128); fill-opacity: 0.6; stroke-width: 0; opacity: 1;"/><path class="sankey-link" d="M765,230.0265957446809C945,230.0265957446809 945,170.02659574468026 1125,170.02659574468026L1125,176.24999999999943C945,176.24999999999943 945,236.25000000000006 765,236.25000000000006Z" style="stroke: rgb(68, 68, 68); stroke-opacity: 1; fill: rgb(25, 211, 243); fill-opacity: 0.6; stroke-width: 0; opacity: 1;"/><path class="sankey-link" d="M765,289.1489361702128C945,289.1489361702128 945,244.1489361702121 1125,244.1489361702121L1125,245.70478723404187C945,245.70478723404187 945,290.70478723404256 765,290.70478723404256Z" style="stroke: rgb(68, 68, 68); stroke-opacity: 1; fill: rgb(25, 211, 243); fill-opacity: 0.6; stroke-width: 0; opacity: 1;"/><path class="sankey-link" d="M765,425.5053191489363C945,425.5053191489363 945,395.50531914893565 1125,395.50531914893565L1125,398.6170212765952C945,398.6170212765952 945,428.61702127659584 765,428.61702127659584Z" style="stroke: rgb(68, 68, 68); stroke-opacity: 1; fill: rgb(25, 211, 243); fill-opacity: 0.6; stroke-width: 0; opacity: 1;"/><path class="sankey-link" d="M765,358.60372340425533C945,358.60372340425533 945,313.60372340425477 1125,313.60372340425477L1125,319.8271276595739C945,319.8271276595739 945,364.82712765957444 765,364.82712765957444Z" style="stroke: rgb(68, 68, 68); stroke-opacity: 1; fill: rgb(25, 211, 243); fill-opacity: 0.6; stroke-width: 0; opacity: 1;"/><path class="sankey-link" d="M765,582.0877659574469C945,582.0877659574469 945,567.0877659574469 1125,567.0877659574469L1125,576.4228723404256C945,576.4228723404256 945,591.4228723404256 765,591.4228723404256Z" style="stroke: rgb(68, 68, 68); stroke-opacity: 1; fill: rgb(25, 211, 243); fill-opacity: 0.6; stroke-width: 0; opacity: 1;"/><path class="sankey-link" d="M765,480.95744680851067C945,480.95744680851067 945,450.9574468085101 1125,450.9574468085101L1125,452.5132978723399C945,452.5132978723399 945,482.51329787234044 765,482.51329787234044Z" style="stroke: rgb(68, 68, 68); stroke-opacity: 1; fill: rgb(25, 211, 243); fill-opacity: 0.6; stroke-width: 0; opacity: 1;"/><path class="sankey-link" d="M765,236.25000000000003C945,236.25000000000003 945,176.2499999999994 1125,176.2499999999994L1125,190.25265957446751C945,190.25265957446751 945,250.25265957446814 765,250.25265957446814Z" style="stroke: rgb(68, 68, 68); stroke-opacity: 1; fill: rgb(239, 85, 59); fill-opacity: 0.6; stroke-width: 0; opacity: 1;"/><path class="sankey-link" d="M765,290.70478723404256C945,290.70478723404256 945,245.70478723404187 1125,245.70478723404187L1125,250.37234042553126C945,250.37234042553126 945,295.3723404255319 765,295.3723404255319Z" style="stroke: rgb(68, 68, 68); stroke-opacity: 1; fill: rgb(239, 85, 59); fill-opacity: 0.6; stroke-width: 0; opacity: 1;"/><path class="sankey-link" d="M765,428.61702127659584C945,428.61702127659584 945,398.6170212765952 1125,398.6170212765952L1125,403.28457446808454C945,403.28457446808454 945,433.28457446808517 765,433.28457446808517Z" style="stroke: rgb(68, 68, 68); stroke-opacity: 1; fill: rgb(239, 85, 59); fill-opacity: 0.6; stroke-width: 0; opacity: 1;"/><path class="sankey-link" d="M765,364.8271276595745C945,364.8271276595745 945,319.82712765957393 1125,319.82712765957393L1125,336.9414893617016C945,336.9414893617016 945,381.94148936170217 765,381.94148936170217Z" style="stroke: rgb(68, 68, 68); stroke-opacity: 1; fill: rgb(239, 85, 59); fill-opacity: 0.6; stroke-width: 0; opacity: 1;"/><path class="sankey-link" d="M765,591.4228723404257C945,591.4228723404257 945,576.4228723404257 1125,576.4228723404257L1125,593.5372340425532C945,593.5372340425532 945,608.5372340425532 765,608.5372340425532Z" style="stroke: rgb(68, 68, 68); stroke-opacity: 1; fill: rgb(239, 85, 59); fill-opacity: 0.6; stroke-width: 0; opacity: 1;"/><path class="sankey-link" d="M765,482.51329787234044C945,482.51329787234044 945,452.5132978723399 1125,452.5132978723399L1125,471.1835106382973C945,471.1835106382973 945,501.1835106382979 765,501.1835106382979Z" style="stroke: rgb(68, 68, 68); stroke-opacity: 1; fill: rgb(239, 85, 59); fill-opacity: 0.6; stroke-width: 0; opacity: 1;"/><path class="sankey-link" d="M765,705.997340425532C945,705.997340425532 945,705.9973404255319 1125,705.9973404255319L1125,709.1090425531914C945,709.1090425531914 945,709.1090425531916 765,709.1090425531916Z" style="stroke: rgb(68, 68, 68); stroke-opacity: 1; fill: rgb(239, 85, 59); fill-opacity: 0.6; stroke-width: 0; opacity: 1;"/><path class="sankey-link" d="M765,250.2526595744681C945,250.2526595744681 945,190.2526595744675 1125,190.2526595744675L1125,196.47606382978665C945,196.47606382978665 945,256.4760638297873 765,256.4760638297873Z" style="stroke: rgb(68, 68, 68); stroke-opacity: 1; fill: rgb(0, 204, 150); fill-opacity: 0.6; stroke-width: 0; opacity: 1;"/><path class="sankey-link" d="M765,295.37234042553195C945,295.37234042553195 945,250.37234042553123 1125,250.37234042553123L1125,251.928191489361C945,251.928191489361 945,296.9281914893617 765,296.9281914893617Z" style="stroke: rgb(68, 68, 68); stroke-opacity: 1; fill: rgb(0, 204, 150); fill-opacity: 0.6; stroke-width: 0; opacity: 1;"/><path class="sankey-link" d="M765,433.2845744680852C945,433.2845744680852 945,403.2845744680846 1125,403.2845744680846L1125,409.5079787234037C945,409.5079787234037 945,439.50797872340434 765,439.50797872340434Z" style="stroke: rgb(68, 68, 68); stroke-opacity: 1; fill: rgb(0, 204, 150); fill-opacity: 0.6; stroke-width: 0; opacity: 1;"/><path class="sankey-link" d="M765,381.94148936170217C945,381.94148936170217 945,336.9414893617016 1125,336.9414893617016L1125,352.4999999999995C945,352.4999999999995 945,397.50000000000006 765,397.50000000000006Z" style="stroke: rgb(68, 68, 68); stroke-opacity: 1; fill: rgb(0, 204, 150); fill-opacity: 0.6; stroke-width: 0; opacity: 1;"/><path class="sankey-link" d="M765,608.5372340425533C945,608.5372340425533 945,593.5372340425533 1125,593.5372340425533L1125,605.9840425531916C945,605.9840425531916 945,620.9840425531916 765,620.9840425531916Z" style="stroke: rgb(68, 68, 68); stroke-opacity: 1; fill: rgb(0, 204, 150); fill-opacity: 0.6; stroke-width: 0; opacity: 1;"/><path class="sankey-link" d="M765,501.1835106382979C945,501.1835106382979 945,471.1835106382973 1125,471.1835106382973L1125,482.0744680851059C945,482.0744680851059 945,512.0744680851064 765,512.0744680851064Z" style="stroke: rgb(68, 68, 68); stroke-opacity: 1; fill: rgb(0, 204, 150); fill-opacity: 0.6; stroke-width: 0; opacity: 1;"/><path class="sankey-link" d="M765,709.1090425531916C945,709.1090425531916 945,709.1090425531914 1125,709.1090425531914L1125,710.6648936170212C945,710.6648936170212 945,710.6648936170213 765,710.6648936170213Z" style="stroke: rgb(68, 68, 68); stroke-opacity: 1; fill: rgb(0, 204, 150); fill-opacity: 0.6; stroke-width: 0; opacity: 1;"/><path class="sankey-link" d="M765,256.4760638297873C945,256.4760638297873 945,196.47606382978663 1125,196.47606382978663L1125,199.58776595744618C945,199.58776595744618 945,259.58776595744683 765,259.58776595744683Z" style="stroke: rgb(68, 68, 68); stroke-opacity: 1; fill: rgb(254, 203, 82); fill-opacity: 0.6; stroke-width: 0; opacity: 1;"/><path class="sankey-link" d="M765,296.9281914893617C945,296.9281914893617 945,251.928191489361 1125,251.928191489361L1125,253.4840425531908C945,253.4840425531908 945,298.4840425531915 765,298.4840425531915Z" style="stroke: rgb(68, 68, 68); stroke-opacity: 1; fill: rgb(254, 203, 82); fill-opacity: 0.6; stroke-width: 0; opacity: 1;"/><path class="sankey-link" d="M765,620.9840425531917C945,620.9840425531917 945,605.9840425531917 1125,605.9840425531917L1125,609.0957446808512C945,609.0957446808512 945,624.0957446808512 765,624.0957446808512Z" style="stroke: rgb(68, 68, 68); stroke-opacity: 1; fill: rgb(254, 203, 82); fill-opacity: 0.6; stroke-width: 0; opacity: 1;"/><path class="sankey-link" d="M765,512.0744680851064C945,512.0744680851064 945,482.0744680851058 1125,482.0744680851058L1125,488.29787234042493C945,488.29787234042493 945,518.2978723404256 765,518.2978723404256Z" style="stroke: rgb(68, 68, 68); stroke-opacity: 1; fill: rgb(254, 203, 82); fill-opacity: 0.6; stroke-width: 0; opacity: 1;"/><path class="sankey-link" d="M765,684.2154255319151C945,684.2154255319151 945,669.2154255319148 1125,669.2154255319148L1125,672.3271276595743C945,672.3271276595743 945,687.3271276595747 765,687.3271276595747Z" style="stroke: rgb(68, 68, 68); stroke-opacity: 1; fill: rgb(254, 203, 82); fill-opacity: 0.6; stroke-width: 0; opacity: 1;"/><path class="sankey-link" d="M765,298.4840425531915C945,298.4840425531915 945,253.4840425531908 1125,253.4840425531908L1125,258.15159574468015C945,258.15159574468015 945,303.15159574468083 765,303.15159574468083Z" style="stroke: rgb(68, 68, 68); stroke-opacity: 1; fill: rgb(255, 161, 90); fill-opacity: 0.6; stroke-width: 0; opacity: 1;"/><path class="sankey-link" d="M765,439.5079787234044C945,439.5079787234044 945,409.50797872340377 1125,409.50797872340377L1125,420.3989361702123C945,420.3989361702123 945,450.39893617021295 765,450.39893617021295Z" style="stroke: rgb(68, 68, 68); stroke-opacity: 1; fill: rgb(255, 161, 90); fill-opacity: 0.6; stroke-width: 0; opacity: 1;"/><path class="sankey-link" d="M765,397.50000000000006C945,397.50000000000006 945,352.4999999999995 1125,352.4999999999995L1125,357.1675531914888C945,357.1675531914888 945,402.1675531914894 765,402.1675531914894Z" style="stroke: rgb(68, 68, 68); stroke-opacity: 1; fill: rgb(255, 161, 90); fill-opacity: 0.6; stroke-width: 0; opacity: 1;"/><path class="sankey-link" d="M765,624.0957446808512C945,624.0957446808512 945,609.0957446808512 1125,609.0957446808512L1125,612.2074468085108C945,612.2074468085108 945,627.2074468085108 765,627.2074468085108Z" style="stroke: rgb(68, 68, 68); stroke-opacity: 1; fill: rgb(255, 161, 90); fill-opacity: 0.6; stroke-width: 0; opacity: 1;"/><path class="sankey-link" d="M765,518.2978723404256C945,518.2978723404256 945,488.297872340425 1125,488.297872340425L1125,497.63297872340377C945,497.63297872340377 945,527.6329787234042 765,527.6329787234042Z" style="stroke: rgb(68, 68, 68); stroke-opacity: 1; fill: rgb(255, 161, 90); fill-opacity: 0.6; stroke-width: 0; opacity: 1;"/><path class="sankey-link" d="M765,259.58776595744683C945,259.58776595744683 945,199.5877659574462 1125,199.5877659574462L1125,208.92287234042493C945,208.92287234042493 945,268.9228723404256 765,268.9228723404256Z" style="stroke: rgb(68, 68, 68); stroke-opacity: 1; fill: rgb(171, 99, 250); fill-opacity: 0.6; stroke-width: 0; opacity: 1;"/><path class="sankey-link" d="M765,303.1515957446809C945,303.1515957446809 945,258.15159574468015 1125,258.15159574468015L1125,269.0425531914887C945,269.0425531914887 945,314.04255319148945 765,314.04255319148945Z" style="stroke: rgb(68, 68, 68); stroke-opacity: 1; fill: rgb(171, 99, 250); fill-opacity: 0.6; stroke-width: 0; opacity: 1;"/><path class="sankey-link" d="M765,450.3989361702129C945,450.3989361702129 945,420.39893617021227 1125,420.39893617021227L1125,426.6223404255314C945,426.6223404255314 945,456.622340425532 765,456.622340425532Z" style="stroke: rgb(68, 68, 68); stroke-opacity: 1; fill: rgb(171, 99, 250); fill-opacity: 0.6; stroke-width: 0; opacity: 1;"/><path class="sankey-link" d="M765,402.16755319148945C945,402.16755319148945 945,357.1675531914889 1125,357.1675531914889L1125,366.50265957446766C945,366.50265957446766 945,411.5026595744682 765,411.5026595744682Z" style="stroke: rgb(68, 68, 68); stroke-opacity: 1; fill: rgb(171, 99, 250); fill-opacity: 0.6; stroke-width: 0; opacity: 1;"/><path class="sankey-link" d="M765,627.2074468085108C945,627.2074468085108 945,612.2074468085108 1125,612.2074468085108L1125,627.7659574468086C945,627.7659574468086 945,642.7659574468086 765,642.7659574468086Z" style="stroke: rgb(68, 68, 68); stroke-opacity: 1; fill: rgb(171, 99, 250); fill-opacity: 0.6; stroke-width: 0; opacity: 1;"/><path class="sankey-link" d="M765,527.6329787234043C945,527.6329787234043 945,497.6329787234037 1125,497.6329787234037L1125,516.3031914893612C945,516.3031914893612 945,546.3031914893619 765,546.3031914893619Z" style="stroke: rgb(68, 68, 68); stroke-opacity: 1; fill: rgb(171, 99, 250); fill-opacity: 0.6; stroke-width: 0; opacity: 1;"/><path class="sankey-link" d="M765,687.3271276595747C945,687.3271276595747 945,672.3271276595743 1125,672.3271276595743L1125,676.9946808510637C945,676.9946808510637 945,691.994680851064 765,691.994680851064Z" style="stroke: rgb(68, 68, 68); stroke-opacity: 1; fill: rgb(171, 99, 250); fill-opacity: 0.6; stroke-width: 0; opacity: 1;"/><path class="sankey-link" d="M765,710.6648936170213C945,710.6648936170213 945,710.6648936170212 1125,710.6648936170212L1125,712.220744680851C945,712.220744680851 945,712.2207446808511 765,712.2207446808511Z" style="stroke: rgb(68, 68, 68); stroke-opacity: 1; fill: rgb(171, 99, 250); fill-opacity: 0.6; stroke-width: 0; opacity: 1;"/><path class="sankey-link" d="M765,268.92287234042556C945,268.92287234042556 945,208.92287234042493 1125,208.92287234042493L1125,221.3696808510632C945,221.3696808510632 945,281.3696808510639 765,281.3696808510639Z" style="stroke: rgb(68, 68, 68); stroke-opacity: 1; fill: rgb(99, 110, 250); fill-opacity: 0.6; stroke-width: 0; opacity: 1;"/><path class="sankey-link" d="M765,314.0425531914894C945,314.0425531914894 945,269.04255319148865 1125,269.04255319148865L1125,287.7127659574461C945,287.7127659574461 945,332.71276595744683 765,332.71276595744683Z" style="stroke: rgb(68, 68, 68); stroke-opacity: 1; fill: rgb(99, 110, 250); fill-opacity: 0.6; stroke-width: 0; opacity: 1;"/><path class="sankey-link" d="M765,456.62234042553206C945,456.62234042553206 945,426.62234042553143 1125,426.62234042553143L1125,429.734042553191C945,429.734042553191 945,459.7340425531916 765,459.7340425531916Z" style="stroke: rgb(68, 68, 68); stroke-opacity: 1; fill: rgb(99, 110, 250); fill-opacity: 0.6; stroke-width: 0; opacity: 1;"/><path class="sankey-link" d="M765,411.50265957446817C945,411.50265957446817 945,366.5026595744676 1125,366.5026595744676L1125,369.61436170212716C945,369.61436170212716 945,414.6143617021277 765,414.6143617021277Z" style="stroke: rgb(68, 68, 68); stroke-opacity: 1; fill: rgb(99, 110, 250); fill-opacity: 0.6; stroke-width: 0; opacity: 1;"/><path class="sankey-link" d="M765,642.7659574468087C945,642.7659574468087 945,627.7659574468087 1125,627.7659574468087L1125,643.3244680851064C945,643.3244680851064 945,658.3244680851064 765,658.3244680851064Z" style="stroke: rgb(68, 68, 68); stroke-opacity: 1; fill: rgb(99, 110, 250); fill-opacity: 0.6; stroke-width: 0; opacity: 1;"/><path class="sankey-link" d="M765,546.3031914893618C945,546.3031914893618 945,516.3031914893612 1125,516.3031914893612L1125,536.5292553191485C945,536.5292553191485 945,566.5292553191491 765,566.5292553191491Z" style="stroke: rgb(68, 68, 68); stroke-opacity: 1; fill: rgb(99, 110, 250); fill-opacity: 0.6; stroke-width: 0; opacity: 1;"/><path class="sankey-link" d="M765,691.994680851064C945,691.994680851064 945,676.9946808510637 1125,676.9946808510637L1125,684.7739361702126C945,684.7739361702126 945,699.7739361702129 765,699.7739361702129Z" style="stroke: rgb(68, 68, 68); stroke-opacity: 1; fill: rgb(99, 110, 250); fill-opacity: 0.6; stroke-width: 0; opacity: 1;"/><path class="sankey-link" d="M765,712.2207446808511C945,712.2207446808511 945,712.220744680851 1125,712.220744680851L1125,719.9999999999999C945,719.9999999999999 945,720 765,720Z" style="stroke: rgb(68, 68, 68); stroke-opacity: 1; fill: rgb(99, 110, 250); fill-opacity: 0.6; stroke-width: 0; opacity: 1;"/><path class="sankey-link" d="M765,281.36968085106383C945,281.36968085106383 945,221.36968085106324 1125,221.36968085106324L1125,227.5930851063824C945,227.5930851063824 945,287.59308510638294 765,287.59308510638294Z" style="stroke: rgb(68, 68, 68); stroke-opacity: 1; fill: rgb(255, 151, 255); fill-opacity: 0.6; stroke-width: 0; opacity: 1;"/><path class="sankey-link" d="M765,332.71276595744683C945,332.71276595744683 945,287.7127659574461 1125,287.7127659574461L1125,293.9361702127652C945,293.9361702127652 945,338.93617021276594 765,338.93617021276594Z" style="stroke: rgb(68, 68, 68); stroke-opacity: 1; fill: rgb(255, 151, 255); fill-opacity: 0.6; stroke-width: 0; opacity: 1;"/><path class="sankey-link" d="M765,459.7340425531916C945,459.7340425531916 945,429.734042553191 1125,429.734042553191L1125,434.4015957446803C945,434.4015957446803 945,464.40159574468095 765,464.40159574468095Z" style="stroke: rgb(68, 68, 68); stroke-opacity: 1; fill: rgb(255, 151, 255); fill-opacity: 0.6; stroke-width: 0; opacity: 1;"/><path class="sankey-link" d="M765,414.6143617021277C945,414.6143617021277 945,369.61436170212716 1125,369.61436170212716L1125,374.2819148936165C945,374.2819148936165 945,419.28191489361706 765,419.28191489361706Z" style="stroke: rgb(68, 68, 68); stroke-opacity: 1; fill: rgb(255, 151, 255); fill-opacity: 0.6; stroke-width: 0; opacity: 1;"/><path class="sankey-link" d="M765,658.3244680851066C945,658.3244680851066 945,643.3244680851066 1125,643.3244680851066L1125,649.5478723404257C945,649.5478723404257 945,664.5478723404257 765,664.5478723404257Z" style="stroke: rgb(68, 68, 68); stroke-opacity: 1; fill: rgb(255, 151, 255); fill-opacity: 0.6; stroke-width: 0; opacity: 1;"/><path class="sankey-link" d="M765,566.529255319149C945,566.529255319149 945,536.5292553191484 1125,536.5292553191484L1125,548.9760638297867C945,548.9760638297867 945,578.9760638297872 765,578.9760638297872Z" style="stroke: rgb(68, 68, 68); stroke-opacity: 1; fill: rgb(255, 151, 255); fill-opacity: 0.6; stroke-width: 0; opacity: 1;"/><path class="sankey-link" d="M765,699.7739361702129C945,699.7739361702129 945,684.7739361702126 1125,684.7739361702126L1125,687.8856382978721C945,687.8856382978721 945,702.8856382978724 765,702.8856382978724Z" style="stroke: rgb(68, 68, 68); stroke-opacity: 1; fill: rgb(255, 151, 255); fill-opacity: 0.6; stroke-width: 0; opacity: 1;"/><path class="sankey-link" d="M765,287.593085106383C945,287.593085106383 945,227.59308510638238 1125,227.59308510638238L1125,229.14893617021215C945,229.14893617021215 945,289.1489361702128 765,289.1489361702128Z" style="stroke: rgb(68, 68, 68); stroke-opacity: 1; fill: rgb(255, 102, 146); fill-opacity: 0.6; stroke-width: 0; opacity: 1;"/><path class="sankey-link" d="M765,338.936170212766C945,338.936170212766 945,293.93617021276526 1125,293.93617021276526L1125,298.6037234042546C945,298.6037234042546 945,343.60372340425533 765,343.60372340425533Z" style="stroke: rgb(68, 68, 68); stroke-opacity: 1; fill: rgb(255, 102, 146); fill-opacity: 0.6; stroke-width: 0; opacity: 1;"/><path class="sankey-link" d="M765,464.401595744681C945,464.401595744681 945,434.4015957446804 1125,434.4015957446804L1125,435.95744680851016C945,435.95744680851016 945,465.9574468085108 765,465.9574468085108Z" style="stroke: rgb(68, 68, 68); stroke-opacity: 1; fill: rgb(255, 102, 146); fill-opacity: 0.6; stroke-width: 0; opacity: 1;"/><path class="sankey-link" d="M765,419.2819148936171C945,419.2819148936171 945,374.28191489361654 1125,374.28191489361654L1125,378.9494680851059C945,378.9494680851059 945,423.94946808510645 765,423.94946808510645Z" style="stroke: rgb(68, 68, 68); stroke-opacity: 1; fill: rgb(255, 102, 146); fill-opacity: 0.6; stroke-width: 0; opacity: 1;"/><path class="sankey-link" d="M765,664.5478723404257C945,664.5478723404257 945,649.5478723404257 1125,649.5478723404257L1125,652.6595744680852C945,652.6595744680852 945,667.6595744680852 765,667.6595744680852Z" style="stroke: rgb(68, 68, 68); stroke-opacity: 1; fill: rgb(255, 102, 146); fill-opacity: 0.6; stroke-width: 0; opacity: 1;"/><path class="sankey-link" d="M765,578.9760638297873C945,578.9760638297873 945,548.9760638297868 1125,548.9760638297868L1125,552.0877659574463C945,552.0877659574463 945,582.0877659574469 765,582.0877659574469Z" style="stroke: rgb(68, 68, 68); stroke-opacity: 1; fill: rgb(255, 102, 146); fill-opacity: 0.6; stroke-width: 0; opacity: 1;"/><path class="sankey-link" d="M765,702.8856382978724C945,702.8856382978724 945,687.8856382978721 1125,687.8856382978721L1125,690.9973404255317C945,690.9973404255317 945,705.997340425532 765,705.997340425532Z" style="stroke: rgb(68, 68, 68); stroke-opacity: 1; fill: rgb(255, 102, 146); fill-opacity: 0.6; stroke-width: 0; opacity: 1;"/><path class="sankey-link" d="M765,423.9494680851065C945,423.9494680851065 945,378.94946808510593 1125,378.94946808510593L1125,380.5053191489357C945,380.5053191489357 945,425.5053191489363 765,425.5053191489363Z" style="stroke: rgb(68, 68, 68); stroke-opacity: 1; fill: rgb(182, 232, 128); fill-opacity: 0.6; stroke-width: 0; opacity: 1;"/><path class="sankey-link" d="M765,667.6595744680852C945,667.6595744680852 945,652.6595744680852 1125,652.6595744680852L1125,654.215425531915C945,654.215425531915 945,669.215425531915 765,669.215425531915Z" style="stroke: rgb(68, 68, 68); stroke-opacity: 1; fill: rgb(182, 232, 128); fill-opacity: 0.6; stroke-width: 0; opacity: 1;"/></g><g class="sankey-node-set" style="cursor: move;"><g class="sankey-node" transform="translate(0.000,687.327)" style="opacity: 1;"><rect class="node-rect" width="15" height="32.67287234042533" style="stroke-width: 0.5; stroke: rgb(0, 0, 0); stroke-opacity: 1; fill: rgb(128, 128, 128); fill-opacity: 1;"/><text class="node-label" data-notex="1" x="0" y="0" text-anchor="start" transform="translate(18.25,20.536436170212664)" style="cursor: default; font-family: 'Open Sans', verdana, arial, sans-serif; font-size: 12px; fill: rgb(42, 63, 95); fill-opacity: 1; white-space: pre; text-shadow: white 1px 1px 1px, white -1px -1px 1px, white 1px -1px 1px, white -1px 1px 1px;">21271R</text></g><g class="sankey-node" transform="translate(0.000,75.000)" style="opacity: 1;"><rect class="node-rect" width="15" height="238.04521276595722" style="stroke-width: 0.5; stroke: rgb(0, 0, 0); stroke-opacity: 1; fill: rgb(128, 128, 128); fill-opacity: 1;"/><text class="node-label" data-notex="1" x="0" y="0" text-anchor="start" transform="translate(18.25,123.22260638297861)" style="cursor: default; font-family: 'Open Sans', verdana, arial, sans-serif; font-size: 12px; fill: rgb(42, 63, 95); fill-opacity: 1; white-space: pre; text-shadow: white 1px 1px 1px, white -1px -1px 1px, white 1px -1px 1px, white -1px 1px 1px;">21272R</text></g><g class="sankey-node" transform="translate(0.000,606.981)" style="opacity: 1;"><rect class="node-rect" width="15" height="65.34574468085134" style="stroke-width: 0.5; stroke: rgb(0, 0, 0); stroke-opacity: 1; fill: rgb(128, 128, 128); fill-opacity: 1;"/><text class="node-label" data-notex="1" x="0" y="0" text-anchor="start" transform="translate(18.25,36.87287234042567)" style="cursor: default; font-family: 'Open Sans', verdana, arial, sans-serif; font-size: 12px; fill: rgb(42, 63, 95); fill-opacity: 1; white-space: pre; text-shadow: white 1px 1px 1px, white -1px -1px 1px, white 1px -1px 1px, white -1px 1px 1px;">21965RL</text></g><g class="sankey-node" transform="translate(0.000,328.045)" style="opacity: 1;"><rect class="node-rect" width="15" height="124.468085106383" style="stroke-width: 0.5; stroke: rgb(0, 0, 0); stroke-opacity: 1; fill: rgb(128, 128, 128); fill-opacity: 1;"/><text class="node-label" data-notex="1" x="0" y="0" text-anchor="start" transform="translate(18.25,66.4340425531915)" style="cursor: default; font-family: 'Open Sans', verdana, arial, sans-serif; font-size: 12px; fill: rgb(42, 63, 95); fill-opacity: 1; white-space: pre; text-shadow: white 1px 1px 1px, white -1px -1px 1px, white 1px -1px 1px, white -1px 1px 1px;">22384</text></g><g class="sankey-node" transform="translate(0.000,467.513)" style="opacity: 1;"><rect class="node-rect" width="15" height="124.46808510638311" style="stroke-width: 0.5; stroke: rgb(0, 0, 0); stroke-opacity: 1; fill: rgb(128, 128, 128); fill-opacity: 1;"/><text class="node-label" data-notex="1" x="0" y="0" text-anchor="start" transform="translate(18.25,66.43404255319156)" style="cursor: default; font-family: 'Open Sans', verdana, arial, sans-serif; font-size: 12px; fill: rgb(42, 63, 95); fill-opacity: 1; white-space: pre; text-shadow: white 1px 1px 1px, white -1px -1px 1px, white 1px -1px 1px, white -1px 1px 1px;">22670</text></g><g class="sankey-node" transform="translate(750.000,230.027)" style="opacity: 1;"><rect class="node-rect" width="15" height="113.57712765957444" style="stroke-width: 0.5; stroke: rgb(0, 0, 0); stroke-opacity: 1; fill: rgb(128, 128, 128); fill-opacity: 1;"/><text class="node-label" data-notex="1" x="0" y="0" text-anchor="start" transform="translate(18.25,60.988563829787225)" style="cursor: default; font-family: 'Open Sans', verdana, arial, sans-serif; font-size: 12px; fill: rgb(42, 63, 95); fill-opacity: 1; white-space: pre; text-shadow: white 1px 1px 1px, white -1px -1px 1px, white 1px -1px 1px, white -1px 1px 1px;">Aggressor</text></g><g class="sankey-node" transform="translate(750.000,358.604)" style="opacity: 1;"><rect class="node-rect" width="15" height="107.35372340425533" style="stroke-width: 0.5; stroke: rgb(0, 0, 0); stroke-opacity: 1; fill: rgb(128, 128, 128); fill-opacity: 1;"/><text class="node-label" data-notex="1" x="0" y="0" text-anchor="start" transform="translate(18.25,57.87686170212767)" style="cursor: default; font-family: 'Open Sans', verdana, arial, sans-serif; font-size: 12px; fill: rgb(42, 63, 95); fill-opacity: 1; white-space: pre; text-shadow: white 1px 1px 1px, white -1px -1px 1px, white 1px -1px 1px, white -1px 1px 1px;">NonSocial</text></g><g class="sankey-node" transform="translate(750.000,480.957)" style="opacity: 1;"><rect class="node-rect" width="15" height="188.25797872340445" style="stroke-width: 0.5; stroke: rgb(0, 0, 0); stroke-opacity: 1; fill: rgb(128, 128, 128); fill-opacity: 1;"/><text class="node-label" data-notex="1" x="0" y="0" text-anchor="start" transform="translate(18.25,98.32898936170223)" style="cursor: default; font-family: 'Open Sans', verdana, arial, sans-serif; font-size: 12px; fill: rgb(42, 63, 95); fill-opacity: 1; white-space: pre; text-shadow: white 1px 1px 1px, white -1px -1px 1px, white 1px -1px 1px, white -1px 1px 1px;">Social</text></g><g class="sankey-node" transform="translate(750.000,684.215)" style="opacity: 1;"><rect class="node-rect" width="15" height="35.784574468084884" style="stroke-width: 0.5; stroke: rgb(0, 0, 0); stroke-opacity: 1; fill: rgb(128, 128, 128); fill-opacity: 1;"/><text class="node-label" data-notex="1" x="0" y="0" text-anchor="start" transform="translate(18.25,22.09228723404244)" style="cursor: default; font-family: 'Open Sans', verdana, arial, sans-serif; font-size: 12px; fill: rgb(42, 63, 95); fill-opacity: 1; white-space: pre; text-shadow: white 1px 1px 1px, white -1px -1px 1px, white 1px -1px 1px, white -1px 1px 1px;">Target of Aggression</text></g><g class="sankey-node" transform="translate(1125.000,244.149)" style="opacity: 1;"><rect class="node-rect" width="15" height="54.45478723404267" style="stroke-width: 0.5; stroke: rgb(0, 0, 0); stroke-opacity: 1; fill: rgb(128, 128, 128); fill-opacity: 1;"/><text class="node-label" data-notex="1" x="0" y="0" text-anchor="end" transform="translate(-3.25,31.427393617021334)" style="cursor: default; font-family: 'Open Sans', verdana, arial, sans-serif; font-size: 12px; fill: rgb(42, 63, 95); fill-opacity: 1; white-space: pre; text-shadow: white 1px 1px 1px, white -1px -1px 1px, white 1px -1px 1px, white -1px 1px 1px;">Aggressor-suppressed</text></g><g class="sankey-node" transform="translate(1125.000,395.505)" style="opacity: 1;"><rect class="node-rect" width="15" height="40.452127659574444" style="stroke-width: 0.5; stroke: rgb(0, 0, 0); stroke-opacity: 1; fill: rgb(128, 128, 128); fill-opacity: 1;"/><text class="node-label" data-notex="1" x="0" y="0" text-anchor="end" transform="translate(-3.25,24.42606382978722)" style="cursor: default; font-family: 'Open Sans', verdana, arial, sans-serif; font-size: 12px; fill: rgb(42, 63, 95); fill-opacity: 1; white-space: pre; text-shadow: white 1px 1px 1px, white -1px -1px 1px, white 1px -1px 1px, white -1px 1px 1px;">NonSocial-activated</text></g><g class="sankey-node" transform="translate(1125.000,450.957)" style="opacity: 1;"><rect class="node-rect" width="15" height="101.13031914893679" style="stroke-width: 0.5; stroke: rgb(0, 0, 0); stroke-opacity: 1; fill: rgb(128, 128, 128); fill-opacity: 1;"/><text class="node-label" data-notex="1" x="0" y="0" text-anchor="end" transform="translate(-3.25,54.7651595744684)" style="cursor: default; font-family: 'Open Sans', verdana, arial, sans-serif; font-size: 12px; fill: rgb(42, 63, 95); fill-opacity: 1; white-space: pre; text-shadow: white 1px 1px 1px, white -1px -1px 1px, white 1px -1px 1px, white -1px 1px 1px;">Social-suppressed</text></g><g class="sankey-node" transform="translate(1125.000,170.027)" style="opacity: 1;"><rect class="node-rect" width="15" height="59.12234042553183" style="stroke-width: 0.5; stroke: rgb(0, 0, 0); stroke-opacity: 1; fill: rgb(128, 128, 128); fill-opacity: 1;"/><text class="node-label" data-notex="1" x="0" y="0" text-anchor="end" transform="translate(-3.25,33.76117021276592)" style="cursor: default; font-family: 'Open Sans', verdana, arial, sans-serif; font-size: 12px; fill: rgb(42, 63, 95); fill-opacity: 1; white-space: pre; text-shadow: white 1px 1px 1px, white -1px -1px 1px, white 1px -1px 1px, white -1px 1px 1px;">Aggressor-activated</text></g><g class="sankey-node" transform="translate(1125.000,313.604)" style="opacity: 1;"><rect class="node-rect" width="15" height="66.90159574468089" style="stroke-width: 0.5; stroke: rgb(0, 0, 0); stroke-opacity: 1; fill: rgb(128, 128, 128); fill-opacity: 1;"/><text class="node-label" data-notex="1" x="0" y="0" text-anchor="end" transform="translate(-3.25,37.65079787234045)" style="cursor: default; font-family: 'Open Sans', verdana, arial, sans-serif; font-size: 12px; fill: rgb(42, 63, 95); fill-opacity: 1; white-space: pre; text-shadow: white 1px 1px 1px, white -1px -1px 1px, white 1px -1px 1px, white -1px 1px 1px;">NonSocial-suppressed</text></g><g class="sankey-node" transform="translate(1125.000,567.088)" style="opacity: 1;"><rect class="node-rect" width="15" height="87.12765957446788" style="stroke-width: 0.5; stroke: rgb(0, 0, 0); stroke-opacity: 1; fill: rgb(128, 128, 128); fill-opacity: 1;"/><text class="node-label" data-notex="1" x="0" y="0" text-anchor="end" transform="translate(-3.25,47.763829787233945)" style="cursor: default; font-family: 'Open Sans', verdana, arial, sans-serif; font-size: 12px; fill: rgb(42, 63, 95); fill-opacity: 1; white-space: pre; text-shadow: white 1px 1px 1px, white -1px -1px 1px, white 1px -1px 1px, white -1px 1px 1px;">Social-activated</text></g><g class="sankey-node" transform="translate(1125.000,669.215)" style="opacity: 1;"><rect class="node-rect" width="15" height="21.781914893617113" style="stroke-width: 0.5; stroke: rgb(0, 0, 0); stroke-opacity: 1; fill: rgb(128, 128, 128); fill-opacity: 1;"/><text class="node-label" data-notex="1" x="0" y="0" text-anchor="end" transform="translate(-3.25,15.090957446808556)" style="cursor: default; font-family: 'Open Sans', verdana, arial, sans-serif; font-size: 12px; fill: rgb(42, 63, 95); fill-opacity: 1; white-space: pre; text-shadow: white 1px 1px 1px, white -1px -1px 1px, white 1px -1px 1px, white -1px 1px 1px;">Target of Aggression-activated</text></g><g class="sankey-node" transform="translate(1125.000,705.997)" style="opacity: 1;"><rect class="node-rect" width="15" height="14.002659574468112" style="stroke-width: 0.5; stroke: rgb(0, 0, 0); stroke-opacity: 1; fill: rgb(128, 128, 128); fill-opacity: 1;"/><text class="node-label" data-notex="1" x="0" y="0" text-anchor="end" transform="translate(-3.25,11.201329787234055)" style="cursor: default; font-family: 'Open Sans', verdana, arial, sans-serif; font-size: 12px; fill: rgb(42, 63, 95); fill-opacity: 1; white-space: pre; text-shadow: white 1px 1px 1px, white -1px -1px 1px, white 1px -1px 1px, white -1px 1px 1px;">Target of Aggression-suppressed</text></g><g class="sankey-node" transform="translate(375.000,67.340)" style="opacity: 1;"><rect class="node-rect" width="15" height="154.02925531914929" style="stroke-width: 0.5; stroke: rgb(0, 0, 0); stroke-opacity: 1; fill: rgb(99, 110, 250); fill-opacity: 1;"/><text class="node-label" data-notex="1" x="0" y="0" text-anchor="start" transform="translate(18.25,81.21462765957465)" style="cursor: default; font-family: 'Open Sans', verdana, arial, sans-serif; font-size: 12px; fill: rgb(42, 63, 95); fill-opacity: 1; white-space: pre; text-shadow: white 1px 1px 1px, white -1px -1px 1px, white 1px -1px 1px, white -1px 1px 1px;">VTA</text></g><g class="sankey-node" transform="translate(375.000,478.963)" style="opacity: 1;"><rect class="node-rect" width="15" height="94.906914893617" style="stroke-width: 0.5; stroke: rgb(0, 0, 0); stroke-opacity: 1; fill: rgb(239, 85, 59); fill-opacity: 1;"/><text class="node-label" data-notex="1" x="0" y="0" text-anchor="start" transform="translate(18.25,51.6534574468085)" style="cursor: default; font-family: 'Open Sans', verdana, arial, sans-serif; font-size: 12px; fill: rgb(42, 63, 95); fill-opacity: 1; white-space: pre; text-shadow: white 1px 1px 1px, white -1px -1px 1px, white 1px -1px 1px, white -1px 1px 1px;">Cla</text></g><g class="sankey-node" transform="translate(375.000,335.386)" style="opacity: 1;"><rect class="node-rect" width="15" height="60.67819148936189" style="stroke-width: 0.5; stroke: rgb(0, 0, 0); stroke-opacity: 1; fill: rgb(0, 204, 150); fill-opacity: 1;"/><text class="node-label" data-notex="1" x="0" y="0" text-anchor="start" transform="translate(18.25,34.53909574468095)" style="cursor: default; font-family: 'Open Sans', verdana, arial, sans-serif; font-size: 12px; fill: rgb(42, 63, 95); fill-opacity: 1; white-space: pre; text-shadow: white 1px 1px 1px, white -1px -1px 1px, white 1px -1px 1px, white -1px 1px 1px;">LC</text></g><g class="sankey-node" transform="translate(375.000,236.370)" style="opacity: 1;"><rect class="node-rect" width="15" height="84.0159574468085" style="stroke-width: 0.5; stroke: rgb(0, 0, 0); stroke-opacity: 1; fill: rgb(171, 99, 250); fill-opacity: 1;"/><text class="node-label" data-notex="1" x="0" y="0" text-anchor="start" transform="translate(18.25,46.20797872340425)" style="cursor: default; font-family: 'Open Sans', verdana, arial, sans-serif; font-size: 12px; fill: rgb(42, 63, 95); fill-opacity: 1; white-space: pre; text-shadow: white 1px 1px 1px, white -1px -1px 1px, white 1px -1px 1px, white -1px 1px 1px;">Str</text></g><g class="sankey-node" transform="translate(375.000,633.431)" style="opacity: 1;"><rect class="node-rect" width="15" height="40.452127659574444" style="stroke-width: 0.5; stroke: rgb(0, 0, 0); stroke-opacity: 1; fill: rgb(255, 161, 90); fill-opacity: 1;"/><text class="node-label" data-notex="1" x="0" y="0" text-anchor="start" transform="translate(18.25,24.42606382978722)" style="cursor: default; font-family: 'Open Sans', verdana, arial, sans-serif; font-size: 12px; fill: rgb(42, 63, 95); fill-opacity: 1; white-space: pre; text-shadow: white 1px 1px 1px, white -1px -1px 1px, white 1px -1px 1px, white -1px 1px 1px;">NAc</text></g><g class="sankey-node" transform="translate(375.000,-0.000)" style="opacity: 1;"><rect class="node-rect" width="15" height="32.672872340425585" style="stroke-width: 0.5; stroke: rgb(0, 0, 0); stroke-opacity: 1; fill: rgb(25, 211, 243); fill-opacity: 1;"/><text class="node-label" data-notex="1" x="0" y="0" text-anchor="start" transform="translate(18.25,20.53643617021279)" style="cursor: default; font-family: 'Open Sans', verdana, arial, sans-serif; font-size: 12px; fill: rgb(42, 63, 95); fill-opacity: 1; white-space: pre; text-shadow: white 1px 1px 1px, white -1px -1px 1px, white 1px -1px 1px, white -1px 1px 1px;">BLA</text></g><g class="sankey-node" transform="translate(375.000,588.870)" style="opacity: 1;"><rect class="node-rect" width="15" height="29.56117021276623" style="stroke-width: 0.5; stroke: rgb(0, 0, 0); stroke-opacity: 1; fill: rgb(255, 102, 146); fill-opacity: 1;"/><text class="node-label" data-notex="1" x="0" y="0" text-anchor="start" transform="translate(18.25,18.980585106383113)" style="cursor: default; font-family: 'Open Sans', verdana, arial, sans-serif; font-size: 12px; fill: rgb(42, 63, 95); fill-opacity: 1; white-space: pre; text-shadow: white 1px 1px 1px, white -1px -1px 1px, white 1px -1px 1px, white -1px 1px 1px;">dPAG</text></g><g class="sankey-node" transform="translate(375.000,47.673)" style="opacity: 1;"><rect class="node-rect" width="15" height="4.667553191489219" style="stroke-width: 0.5; stroke: rgb(0, 0, 0); stroke-opacity: 1; fill: rgb(182, 232, 128); fill-opacity: 1;"/><text class="node-label" data-notex="1" x="0" y="0" text-anchor="start" transform="translate(18.25,6.533776595744609)" style="cursor: default; font-family: 'Open Sans', verdana, arial, sans-serif; font-size: 12px; fill: rgb(42, 63, 95); fill-opacity: 1; white-space: pre; text-shadow: white 1px 1px 1px, white -1px -1px 1px, white 1px -1px 1px, white -1px 1px 1px;">lHb</text></g><g class="sankey-node" transform="translate(375.000,411.064)" style="opacity: 1;"><rect class="node-rect" width="15" height="52.89893617021255" style="stroke-width: 0.5; stroke: rgb(0, 0, 0); stroke-opacity: 1; fill: rgb(255, 151, 255); fill-opacity: 1;"/><text class="node-label" data-notex="1" x="0" y="0" text-anchor="start" transform="translate(18.25,30.649468085106275)" style="cursor: default; font-family: 'Open Sans', verdana, arial, sans-serif; font-size: 12px; fill: rgb(42, 63, 95); fill-opacity: 1; white-space: pre; text-shadow: white 1px 1px 1px, white -1px -1px 1px, white 1px -1px 1px, white -1px 1px 1px;">cPFC</text></g><g class="sankey-node" transform="translate(375.000,688.883)" style="opacity: 1;"><rect class="node-rect" width="15" height="31.117021276596006" style="stroke-width: 0.5; stroke: rgb(0, 0, 0); stroke-opacity: 1; fill: rgb(254, 203, 82); fill-opacity: 1;"/><text class="node-label" data-notex="1" x="0" y="0" text-anchor="start" transform="translate(18.25,19.758510638298002)" style="cursor: default; font-family: 'Open Sans', verdana, arial, sans-serif; font-size: 12px; fill: rgb(42, 63, 95); fill-opacity: 1; white-space: pre; text-shadow: white 1px 1px 1px, white -1px -1px 1px, white 1px -1px 1px, white -1px 1px 1px;">LHyp</text></g></g></g><defs id="topdefs-53e373"><g class="clips"/></defs><g class="layer-above"><g class="imagelayer"/><g class="shapelayer"/></g><g class="infolayer"><g class="g-gtitle"/><g class="first-render"/></g></svg>