<svg class="main-svg" xmlns="http://www.w3.org/2000/svg" xmlns:xlink="http://www.w3.org/1999/xlink" width="1300" height="900" style="" viewBox="0 0 1300 900"><rect x="0" y="0" width="1300" height="900" style="fill: rgb(255, 255, 255); fill-opacity: 1;"/><defs id="defs-fafd91"><g class="clips"/><g class="gradients"/><g class="patterns"/></defs><g class="bglayer"/><g class="layer-below"><g class="imagelayer"/><g class="shapelayer"/></g><g class="cartesianlayer"/><g class="polarlayer"/><g class="smithlayer"/><g class="ternarylayer"/><g class="geolayer"/><g class="funnelarealayer"/><g class="pielayer"/><g class="iciclelayer"/><g class="treemaplayer"/><g class="sunburstlayer"/><g class="glimages"/><g class="sankey" transform="translate(80,100)matrix(1 0 0 1 0 0)" style="box-sizing: content-box; position: absolute; left: 0px; shape-rendering: geometricprecision; pointer-events: none;"><g class="sankey-links" style="fill: none;"><path class="sankey-link" d="M7.50114,17.9731343283582C188.10057000000003,17.9731343283582 188.10057000000003,13.84119402985094 368.70000000000005,13.84119402985094L368.70000000000005,15.587462686567356C188.10057000000003,15.587462686567356 188.10057000000003,19.719402985074616 7.50114,19.719402985074616Z" style="stroke: rgb(68, 68, 68); stroke-opacity: 1; fill: rgb(25, 211, 243); fill-opacity: 0.6; stroke-width: 0; opacity: 1;"/><path class="sankey-link" d="M7.50114,19.719402985074616C188.10057000000003,19.719402985074616 188.10057000000003,53.911343283582035 368.70000000000005,53.911343283582035L368.70000000000005,74.86656716417905C188.10057000000003,74.86656716417905 188.10057000000003,40.674626865671634 7.50114,40.674626865671634Z" style="stroke: rgb(68, 68, 68); stroke-opacity: 1; fill: rgb(0, 204, 150); fill-opacity: 0.6; stroke-width: 0; opacity: 1;"/><path class="sankey-link" d="M7.50114,40.67462686567163C188.10057000000003,40.67462686567163 188.10057000000003,150.73522388059698 368.70000000000005,150.73522388059698L368.70000000000005,159.46656716417905C188.10057000000003,159.46656716417905 188.10057000000003,49.40597014925372 7.50114,49.40597014925372Z" style="stroke: rgb(68, 68, 68); stroke-opacity: 1; fill: rgb(239, 85, 59); fill-opacity: 0.6; stroke-width: 0; opacity: 1;"/><path class="sankey-link" d="M7.50114,49.40597014925372C188.10057000000003,49.40597014925372 188.10057000000003,275.8594029850748 368.70000000000005,275.8594029850748L368.70000000000005,286.3370149253733C188.10057000000003,286.3370149253733 188.10057000000003,59.88358208955222 7.50114,59.88358208955222Z" style="stroke: rgb(68, 68, 68); stroke-opacity: 1; fill: rgb(255, 161, 90); fill-opacity: 0.6; stroke-width: 0; opacity: 1;"/><path class="sankey-link" d="M7.50114,59.88358208955222C188.10057000000003,59.88358208955222 188.10057000000003,320.5397014925374 368.70000000000005,320.5397014925374L368.70000000000005,338.00238805970156C188.10057000000003,338.00238805970156 188.10057000000003,77.3462686567164 7.50114,77.3462686567164Z" style="stroke: rgb(68, 68, 68); stroke-opacity: 1; fill: rgb(171, 99, 250); fill-opacity: 0.6; stroke-width: 0; opacity: 1;"/><path class="sankey-link" d="M7.50114,77.3462686567164C188.10057000000003,77.3462686567164 188.10057000000003,441.6367164179103 368.70000000000005,441.6367164179103L368.70000000000005,445.12925373134317C188.10057000000003,445.12925373134317 188.10057000000003,80.83880597014925 7.50114,80.83880597014925Z" style="stroke: rgb(68, 68, 68); stroke-opacity: 1; fill: rgb(99, 110, 250); fill-opacity: 0.6; stroke-width: 0; opacity: 1;"/><path class="sankey-link" d="M7.50114,80.83880597014924C188.10057000000003,80.83880597014924 188.10057000000003,697.0432835820895 368.70000000000005,697.0432835820895L368.70000000000005,700.5358208955224C188.10057000000003,700.5358208955224 188.10057000000003,84.33134328358209 7.50114,84.33134328358209Z" style="stroke: rgb(68, 68, 68); stroke-opacity: 1; fill: rgb(255, 102, 146); fill-opacity: 0.6; stroke-width: 0; opacity: 1;"/><path class="sankey-link" d="M7.50114,116.87910447761193C188.10057000000003,116.87910447761193 188.10057000000003,15.587462686567356 368.70000000000005,15.587462686567356L368.70000000000005,41.781492537313625C188.10057000000003,41.781492537313625 188.10057000000003,143.0731343283582 7.50114,143.0731343283582Z" style="stroke: rgb(68, 68, 68); stroke-opacity: 1; fill: rgb(25, 211, 243); fill-opacity: 0.6; stroke-width: 0; opacity: 1;"/><path class="sankey-link" d="M7.50114,143.07313432835818C188.10057000000003,143.07313432835818 188.10057000000003,74.86656716417906 368.70000000000005,74.86656716417906L368.70000000000005,118.5232835820895C188.10057000000003,118.5232835820895 188.10057000000003,186.72985074626862 7.50114,186.72985074626862Z" style="stroke: rgb(68, 68, 68); stroke-opacity: 1; fill: rgb(0, 204, 150); fill-opacity: 0.6; stroke-width: 0; opacity: 1;"/><path class="sankey-link" d="M7.50114,186.72985074626862C188.10057000000003,186.72985074626862 188.10057000000003,159.46656716417905 368.70000000000005,159.46656716417905L368.70000000000005,204.86955223880594C188.10057000000003,204.86955223880594 188.10057000000003,232.1328358208955 7.50114,232.1328358208955Z" style="stroke: rgb(68, 68, 68); stroke-opacity: 1; fill: rgb(239, 85, 59); fill-opacity: 0.6; stroke-width: 0; opacity: 1;"/><path class="sankey-link" d="M7.50114,232.13283582089548C188.10057000000003,232.13283582089548 188.10057000000003,286.3370149253733 368.70000000000005,286.3370149253733L368.70000000000005,309.03850746268677C188.10057000000003,309.03850746268677 188.10057000000003,254.8343283582089 7.50114,254.8343283582089Z" style="stroke: rgb(68, 68, 68); stroke-opacity: 1; fill: rgb(255, 161, 90); fill-opacity: 0.6; stroke-width: 0; opacity: 1;"/><path class="sankey-link" d="M7.50114,254.83432835820892C188.10057000000003,254.83432835820892 188.10057000000003,338.0023880597015 368.70000000000005,338.0023880597015L368.70000000000005,400.8680597014926C188.10057000000003,400.8680597014926 188.10057000000003,317.69999999999993 7.50114,317.69999999999993Z" style="stroke: rgb(68, 68, 68); stroke-opacity: 1; fill: rgb(171, 99, 250); fill-opacity: 0.6; stroke-width: 0; opacity: 1;"/><path class="sankey-link" d="M7.50114,317.69999999999993C188.10057000000003,317.69999999999993 188.10057000000003,445.1292537313431 368.70000000000005,445.1292537313431L368.70000000000005,460.84567164179083C188.10057000000003,460.84567164179083 188.10057000000003,333.41641791044765 7.50114,333.41641791044765Z" style="stroke: rgb(68, 68, 68); stroke-opacity: 1; fill: rgb(99, 110, 250); fill-opacity: 0.6; stroke-width: 0; opacity: 1;"/><path class="sankey-link" d="M7.50114,333.4164179104477C188.10057000000003,333.4164179104477 188.10057000000003,593.5728358208953 368.70000000000005,593.5728358208953L368.70000000000005,623.2594029850743C188.10057000000003,623.2594029850743 188.10057000000003,363.1029850746268 7.50114,363.1029850746268Z" style="stroke: rgb(68, 68, 68); stroke-opacity: 1; fill: rgb(255, 151, 255); fill-opacity: 0.6; stroke-width: 0; opacity: 1;"/><path class="sankey-link" d="M7.50114,363.1029850746268C188.10057000000003,363.1029850746268 188.10057000000003,660.570447761194 368.70000000000005,660.570447761194L368.70000000000005,679.7794029850746C188.10057000000003,679.7794029850746 188.10057000000003,382.3119402985074 7.50114,382.3119402985074Z" style="stroke: rgb(68, 68, 68); stroke-opacity: 1; fill: rgb(182, 232, 128); fill-opacity: 0.6; stroke-width: 0; opacity: 1;"/><path class="sankey-link" d="M7.50114,382.3119402985074C188.10057000000003,382.3119402985074 188.10057000000003,700.5358208955224 368.70000000000005,700.5358208955224L368.70000000000005,705.7746268656717C188.10057000000003,705.7746268656717 188.10057000000003,387.5507462686566 7.50114,387.5507462686566Z" style="stroke: rgb(68, 68, 68); stroke-opacity: 1; fill: rgb(255, 102, 146); fill-opacity: 0.6; stroke-width: 0; opacity: 1;"/><path class="sankey-link" d="M7.50114,423.2014925373135C188.10057000000003,423.2014925373135 188.10057000000003,118.5232835820895 368.70000000000005,118.5232835820895L368.70000000000005,129.00089552238802C188.10057000000003,129.00089552238802 188.10057000000003,433.67910447761204 7.50114,433.67910447761204Z" style="stroke: rgb(68, 68, 68); stroke-opacity: 1; fill: rgb(0, 204, 150); fill-opacity: 0.6; stroke-width: 0; opacity: 1;"/><path class="sankey-link" d="M7.50114,433.67910447761204C188.10057000000003,433.67910447761204 188.10057000000003,204.8695522388059 368.70000000000005,204.8695522388059L368.70000000000005,213.600895522388C188.10057000000003,213.600895522388 188.10057000000003,442.4104477611941 7.50114,442.4104477611941Z" style="stroke: rgb(68, 68, 68); stroke-opacity: 1; fill: rgb(239, 85, 59); fill-opacity: 0.6; stroke-width: 0; opacity: 1;"/><path class="sankey-link" d="M7.50114,442.4104477611941C188.10057000000003,442.4104477611941 188.10057000000003,234.74149253731386 368.70000000000005,234.74149253731386L368.70000000000005,248.7116417910452C188.10057000000003,248.7116417910452 188.10057000000003,456.3805970149255 7.50114,456.3805970149255Z" style="stroke: rgb(68, 68, 68); stroke-opacity: 1; fill: rgb(254, 203, 82); fill-opacity: 0.6; stroke-width: 0; opacity: 1;"/><path class="sankey-link" d="M7.50114,456.38059701492546C188.10057000000003,456.38059701492546 188.10057000000003,400.8680597014926 368.70000000000005,400.8680597014926L368.70000000000005,416.5844776119403C188.10057000000003,416.5844776119403 188.10057000000003,472.0970149253732 7.50114,472.0970149253732Z" style="stroke: rgb(68, 68, 68); stroke-opacity: 1; fill: rgb(171, 99, 250); fill-opacity: 0.6; stroke-width: 0; opacity: 1;"/><path class="sankey-link" d="M7.50114,472.09701492537323C188.10057000000003,472.09701492537323 188.10057000000003,460.8456716417909 368.70000000000005,460.8456716417909L368.70000000000005,521.9650746268655C188.10057000000003,521.9650746268655 188.10057000000003,533.2164179104478 7.50114,533.2164179104478Z" style="stroke: rgb(68, 68, 68); stroke-opacity: 1; fill: rgb(99, 110, 250); fill-opacity: 0.6; stroke-width: 0; opacity: 1;"/><path class="sankey-link" d="M7.50114,533.2164179104478C188.10057000000003,533.2164179104478 188.10057000000003,623.2594029850744 368.70000000000005,623.2594029850744L368.70000000000005,635.4832835820893C188.10057000000003,635.4832835820893 188.10057000000003,545.4402985074627 7.50114,545.4402985074627Z" style="stroke: rgb(68, 68, 68); stroke-opacity: 1; fill: rgb(255, 151, 255); fill-opacity: 0.6; stroke-width: 0; opacity: 1;"/><path class="sankey-link" d="M7.50114,545.4402985074628C188.10057000000003,545.4402985074628 188.10057000000003,679.7794029850746 368.70000000000005,679.7794029850746L368.70000000000005,681.5256716417911C188.10057000000003,681.5256716417911 188.10057000000003,547.1865671641792 7.50114,547.1865671641792Z" style="stroke: rgb(68, 68, 68); stroke-opacity: 1; fill: rgb(182, 232, 128); fill-opacity: 0.6; stroke-width: 0; opacity: 1;"/><path class="sankey-link" d="M7.50114,574.9388059701494C188.10057000000003,574.9388059701494 188.10057000000003,129.00089552238802 368.70000000000005,129.00089552238802L368.70000000000005,139.47850746268654C188.10057000000003,139.47850746268654 188.10057000000003,585.4164179104478 7.50114,585.4164179104478Z" style="stroke: rgb(68, 68, 68); stroke-opacity: 1; fill: rgb(0, 204, 150); fill-opacity: 0.6; stroke-width: 0; opacity: 1;"/><path class="sankey-link" d="M7.50114,585.4164179104479C188.10057000000003,585.4164179104479 188.10057000000003,213.600895522388 368.70000000000005,213.600895522388L368.70000000000005,222.33223880597006C188.10057000000003,222.33223880597006 188.10057000000003,594.1477611940301 7.50114,594.1477611940301Z" style="stroke: rgb(68, 68, 68); stroke-opacity: 1; fill: rgb(239, 85, 59); fill-opacity: 0.6; stroke-width: 0; opacity: 1;"/><path class="sankey-link" d="M7.50114,594.14776119403C188.10057000000003,594.14776119403 188.10057000000003,248.7116417910452 368.70000000000005,248.7116417910452L368.70000000000005,262.68179104477656C188.10057000000003,262.68179104477656 188.10057000000003,608.1179104477612 7.50114,608.1179104477612Z" style="stroke: rgb(68, 68, 68); stroke-opacity: 1; fill: rgb(254, 203, 82); fill-opacity: 0.6; stroke-width: 0; opacity: 1;"/><path class="sankey-link" d="M7.50114,608.1179104477613C188.10057000000003,608.1179104477613 188.10057000000003,416.5844776119404 368.70000000000005,416.5844776119404L368.70000000000005,432.3008955223881C188.10057000000003,432.3008955223881 188.10057000000003,623.8343283582091 7.50114,623.8343283582091Z" style="stroke: rgb(68, 68, 68); stroke-opacity: 1; fill: rgb(171, 99, 250); fill-opacity: 0.6; stroke-width: 0; opacity: 1;"/><path class="sankey-link" d="M7.50114,623.8343283582091C188.10057000000003,623.8343283582091 188.10057000000003,521.9650746268655 368.70000000000005,521.9650746268655L368.70000000000005,583.0844776119402C188.10057000000003,583.0844776119402 188.10057000000003,684.9537313432837 7.50114,684.9537313432837Z" style="stroke: rgb(68, 68, 68); stroke-opacity: 1; fill: rgb(99, 110, 250); fill-opacity: 0.6; stroke-width: 0; opacity: 1;"/><path class="sankey-link" d="M7.50114,684.9537313432837C188.10057000000003,684.9537313432837 188.10057000000003,635.4832835820894 368.70000000000005,635.4832835820894L368.70000000000005,647.7071641791042C188.10057000000003,647.7071641791042 188.10057000000003,697.1776119402986 7.50114,697.1776119402986Z" style="stroke: rgb(68, 68, 68); stroke-opacity: 1; fill: rgb(255, 151, 255); fill-opacity: 0.6; stroke-width: 0; opacity: 1;"/><path class="sankey-link" d="M7.50114,697.1776119402987C188.10057000000003,697.1776119402987 188.10057000000003,681.5256716417911 368.70000000000005,681.5256716417911L368.70000000000005,683.2719402985075C188.10057000000003,683.2719402985075 188.10057000000003,698.9238805970151 7.50114,698.9238805970151Z" style="stroke: rgb(68, 68, 68); stroke-opacity: 1; fill: rgb(182, 232, 128); fill-opacity: 0.6; stroke-width: 0; opacity: 1;"/><path class="sankey-link" d="M383.70000000000005,13.841194029850937C564.3000000000001,13.841194029850937 564.3000000000001,47.98889098809752 744.9000000000001,47.98889098809752L744.9000000000001,54.97396561496319C564.3000000000001,54.97396561496319 564.3000000000001,20.826268656716607 383.70000000000005,20.826268656716607Z" style="stroke: rgb(68, 68, 68); stroke-opacity: 1; fill: rgb(25, 211, 243); fill-opacity: 0.6; stroke-width: 0; opacity: 1;"/><path class="sankey-link" d="M383.70000000000005,20.82626865671661C564.3000000000001,20.82626865671661 564.3000000000001,341.2805781220477 744.9000000000001,341.2805781220477L744.9000000000001,353.50445871906265C564.3000000000001,353.50445871906265 564.3000000000001,33.05014925373153 383.70000000000005,33.05014925373153Z" style="stroke: rgb(68, 68, 68); stroke-opacity: 1; fill: rgb(25, 211, 243); fill-opacity: 0.6; stroke-width: 0; opacity: 1;"/><path class="sankey-link" d="M383.70000000000005,33.05014925373153C564.3000000000001,33.05014925373153 564.3000000000001,530.8626109956542 744.9000000000001,530.8626109956542L744.9000000000001,534.3551483090871C564.3000000000001,534.3551483090871 564.3000000000001,36.54268656716437 383.70000000000005,36.54268656716437Z" style="stroke: rgb(68, 68, 68); stroke-opacity: 1; fill: rgb(25, 211, 243); fill-opacity: 0.6; stroke-width: 0; opacity: 1;"/><path class="sankey-link" d="M383.70000000000005,53.911343283582035C564.3000000000001,53.911343283582035 564.3000000000001,54.973965614963184 744.9000000000001,54.973965614963184L744.9000000000001,75.9291894955602C564.3000000000001,75.9291894955602 564.3000000000001,74.86656716417905 383.70000000000005,74.86656716417905Z" style="stroke: rgb(68, 68, 68); stroke-opacity: 1; fill: rgb(0, 204, 150); fill-opacity: 0.6; stroke-width: 0; opacity: 1;"/><path class="sankey-link" d="M383.70000000000005,83.59791044776115C564.3000000000001,83.59791044776115 564.3000000000001,353.50445871906265 744.9000000000001,353.50445871906265L744.9000000000001,370.9671452862268C564.3000000000001,370.9671452862268 564.3000000000001,101.06059701492534 383.70000000000005,101.06059701492534Z" style="stroke: rgb(68, 68, 68); stroke-opacity: 1; fill: rgb(0, 204, 150); fill-opacity: 0.6; stroke-width: 0; opacity: 1;"/><path class="sankey-link" d="M383.70000000000005,101.06059701492532C564.3000000000001,101.06059701492532 564.3000000000001,534.3551483090871 744.9000000000001,534.3551483090871L744.9000000000001,550.0715662195348C564.3000000000001,550.0715662195348 564.3000000000001,116.7770149253731 383.70000000000005,116.7770149253731Z" style="stroke: rgb(68, 68, 68); stroke-opacity: 1; fill: rgb(0, 204, 150); fill-opacity: 0.6; stroke-width: 0; opacity: 1;"/><path class="sankey-link" d="M383.70000000000005,74.86656716417906C564.3000000000001,74.86656716417906 564.3000000000001,229.5426790100133 744.9000000000001,229.5426790100133L744.9000000000001,238.27402229359538C564.3000000000001,238.27402229359538 564.3000000000001,83.59791044776114 383.70000000000005,83.59791044776114Z" style="stroke: rgb(68, 68, 68); stroke-opacity: 1; fill: rgb(0, 204, 150); fill-opacity: 0.6; stroke-width: 0; opacity: 1;"/><path class="sankey-link" d="M383.70000000000005,150.73522388059695C564.3000000000001,150.73522388059695 564.3000000000001,75.92918949556021 744.9000000000001,75.92918949556021L744.9000000000001,88.15307009257513C564.3000000000001,88.15307009257513 564.3000000000001,162.9591044776119 383.70000000000005,162.9591044776119Z" style="stroke: rgb(68, 68, 68); stroke-opacity: 1; fill: rgb(239, 85, 59); fill-opacity: 0.6; stroke-width: 0; opacity: 1;"/><path class="sankey-link" d="M383.70000000000005,164.7053731343283C564.3000000000001,164.7053731343283 564.3000000000001,370.9671452862268 744.9000000000001,370.9671452862268L744.9000000000001,384.9372945399582C564.3000000000001,384.9372945399582 564.3000000000001,178.67552238805965 383.70000000000005,178.67552238805965Z" style="stroke: rgb(68, 68, 68); stroke-opacity: 1; fill: rgb(239, 85, 59); fill-opacity: 0.6; stroke-width: 0; opacity: 1;"/><path class="sankey-link" d="M383.70000000000005,178.67552238805965C564.3000000000001,178.67552238805965 564.3000000000001,550.0715662195348 744.9000000000001,550.0715662195348L744.9000000000001,560.5491781598332C564.3000000000001,560.5491781598332 564.3000000000001,189.15313432835816 383.70000000000005,189.15313432835816Z" style="stroke: rgb(68, 68, 68); stroke-opacity: 1; fill: rgb(239, 85, 59); fill-opacity: 0.6; stroke-width: 0; opacity: 1;"/><path class="sankey-link" d="M383.70000000000005,162.9591044776119C564.3000000000001,162.9591044776119 564.3000000000001,238.27402229359538 744.9000000000001,238.27402229359538L744.9000000000001,240.02029095031182C564.3000000000001,240.02029095031182 564.3000000000001,164.70537313432834 383.70000000000005,164.70537313432834Z" style="stroke: rgb(68, 68, 68); stroke-opacity: 1; fill: rgb(239, 85, 59); fill-opacity: 0.6; stroke-width: 0; opacity: 1;"/><path class="sankey-link" d="M383.70000000000005,234.74149253731386C564.3000000000001,234.74149253731386 564.3000000000001,88.15307009257513 744.9000000000001,88.15307009257513L744.9000000000001,93.39187606272439C564.3000000000001,93.39187606272439 564.3000000000001,239.98029850746312 383.70000000000005,239.98029850746312Z" style="stroke: rgb(68, 68, 68); stroke-opacity: 1; fill: rgb(254, 203, 82); fill-opacity: 0.6; stroke-width: 0; opacity: 1;"/><path class="sankey-link" d="M383.70000000000005,246.9653731343288C564.3000000000001,246.9653731343288 564.3000000000001,560.5491781598333 744.9000000000001,560.5491781598333L744.9000000000001,565.7879841299826C564.3000000000001,565.7879841299826 564.3000000000001,252.20417910447804 383.70000000000005,252.20417910447804Z" style="stroke: rgb(68, 68, 68); stroke-opacity: 1; fill: rgb(254, 203, 82); fill-opacity: 0.6; stroke-width: 0; opacity: 1;"/><path class="sankey-link" d="M383.70000000000005,239.98029850746312C564.3000000000001,239.98029850746312 564.3000000000001,240.0202909503118 744.9000000000001,240.0202909503118L744.9000000000001,247.00536557717749C564.3000000000001,247.00536557717749 564.3000000000001,246.96537313432881 383.70000000000005,246.96537313432881Z" style="stroke: rgb(68, 68, 68); stroke-opacity: 1; fill: rgb(254, 203, 82); fill-opacity: 0.6; stroke-width: 0; opacity: 1;"/><path class="sankey-link" d="M383.70000000000005,275.8594029850748C564.3000000000001,275.8594029850748 564.3000000000001,93.39187606272439 744.9000000000001,93.39187606272439L744.9000000000001,103.86948800302291C564.3000000000001,103.86948800302291 564.3000000000001,286.3370149253733 383.70000000000005,286.3370149253733Z" style="stroke: rgb(68, 68, 68); stroke-opacity: 1; fill: rgb(255, 161, 90); fill-opacity: 0.6; stroke-width: 0; opacity: 1;"/><path class="sankey-link" d="M383.70000000000005,286.3370149253733C564.3000000000001,286.3370149253733 564.3000000000001,384.93729453995815 744.9000000000001,384.93729453995815L744.9000000000001,395.41490648025666C564.3000000000001,395.41490648025666 564.3000000000001,296.8146268656718 383.70000000000005,296.8146268656718Z" style="stroke: rgb(68, 68, 68); stroke-opacity: 1; fill: rgb(255, 161, 90); fill-opacity: 0.6; stroke-width: 0; opacity: 1;"/><path class="sankey-link" d="M383.70000000000005,296.8146268656718C564.3000000000001,296.8146268656718 564.3000000000001,565.7879841299825 744.9000000000001,565.7879841299825L744.9000000000001,571.0267901001318C564.3000000000001,571.0267901001318 564.3000000000001,302.053432835821 383.70000000000005,302.053432835821Z" style="stroke: rgb(68, 68, 68); stroke-opacity: 1; fill: rgb(255, 161, 90); fill-opacity: 0.6; stroke-width: 0; opacity: 1;"/><path class="sankey-link" d="M383.70000000000005,320.5397014925374C564.3000000000001,320.5397014925374 564.3000000000001,103.8694880030229 744.9000000000001,103.8694880030229L744.9000000000001,124.8247118836199C564.3000000000001,124.8247118836199 564.3000000000001,341.49492537313444 383.70000000000005,341.49492537313444Z" style="stroke: rgb(68, 68, 68); stroke-opacity: 1; fill: rgb(171, 99, 250); fill-opacity: 0.6; stroke-width: 0; opacity: 1;"/><path class="sankey-link" d="M383.70000000000005,343.2411940298509C564.3000000000001,343.2411940298509 564.3000000000001,395.41490648025666 744.9000000000001,395.41490648025666L744.9000000000001,423.35520498771933C564.3000000000001,423.35520498771933 564.3000000000001,371.18149253731355 383.70000000000005,371.18149253731355Z" style="stroke: rgb(68, 68, 68); stroke-opacity: 1; fill: rgb(171, 99, 250); fill-opacity: 0.6; stroke-width: 0; opacity: 1;"/><path class="sankey-link" d="M383.70000000000005,371.18149253731355C564.3000000000001,371.18149253731355 564.3000000000001,571.0267901001317 744.9000000000001,571.0267901001317L744.9000000000001,593.7282826374452C564.3000000000001,593.7282826374452 564.3000000000001,393.882985074627 383.70000000000005,393.882985074627Z" style="stroke: rgb(68, 68, 68); stroke-opacity: 1; fill: rgb(171, 99, 250); fill-opacity: 0.6; stroke-width: 0; opacity: 1;"/><path class="sankey-link" d="M383.70000000000005,341.49492537313444C564.3000000000001,341.49492537313444 564.3000000000001,247.00536557717746 744.9000000000001,247.00536557717746L744.9000000000001,248.7516342338939C564.3000000000001,248.7516342338939 564.3000000000001,343.2411940298509 383.70000000000005,343.2411940298509Z" style="stroke: rgb(68, 68, 68); stroke-opacity: 1; fill: rgb(171, 99, 250); fill-opacity: 0.6; stroke-width: 0; opacity: 1;"/><path class="sankey-link" d="M383.70000000000005,441.6367164179103C564.3000000000001,441.6367164179103 564.3000000000001,124.82471188361993 744.9000000000001,124.82471188361993L744.9000000000001,144.03366710750052C564.3000000000001,144.03366710750052 564.3000000000001,460.8456716417909 383.70000000000005,460.8456716417909Z" style="stroke: rgb(68, 68, 68); stroke-opacity: 1; fill: rgb(99, 110, 250); fill-opacity: 0.6; stroke-width: 0; opacity: 1;"/><path class="sankey-link" d="M383.70000000000005,487.0397014925372C564.3000000000001,487.0397014925372 564.3000000000001,423.35520498771933 744.9000000000001,423.35520498771933L744.9000000000001,430.340279614585C564.3000000000001,430.340279614585 564.3000000000001,494.0247761194028 383.70000000000005,494.0247761194028Z" style="stroke: rgb(68, 68, 68); stroke-opacity: 1; fill: rgb(99, 110, 250); fill-opacity: 0.6; stroke-width: 0; opacity: 1;"/><path class="sankey-link" d="M383.70000000000005,494.0247761194029C564.3000000000001,494.0247761194029 564.3000000000001,593.7282826374452 744.9000000000001,593.7282826374452L744.9000000000001,637.3849990553557C564.3000000000001,637.3849990553557 564.3000000000001,537.6814925373134 383.70000000000005,537.6814925373134Z" style="stroke: rgb(68, 68, 68); stroke-opacity: 1; fill: rgb(99, 110, 250); fill-opacity: 0.6; stroke-width: 0; opacity: 1;"/><path class="sankey-link" d="M383.70000000000005,460.8456716417909C564.3000000000001,460.8456716417909 564.3000000000001,248.75163423389384 744.9000000000001,248.75163423389384L744.9000000000001,274.9456640846401C564.3000000000001,274.9456640846401 564.3000000000001,487.0397014925371 383.70000000000005,487.0397014925371Z" style="stroke: rgb(68, 68, 68); stroke-opacity: 1; fill: rgb(99, 110, 250); fill-opacity: 0.6; stroke-width: 0; opacity: 1;"/><path class="sankey-link" d="M383.70000000000005,593.5728358208953C564.3000000000001,593.5728358208953 564.3000000000001,144.0336671075005 744.9000000000001,144.0336671075005L744.9000000000001,156.25754770451545C564.3000000000001,156.25754770451545 564.3000000000001,605.7967164179101 383.70000000000005,605.7967164179101Z" style="stroke: rgb(68, 68, 68); stroke-opacity: 1; fill: rgb(255, 151, 255); fill-opacity: 0.6; stroke-width: 0; opacity: 1;"/><path class="sankey-link" d="M383.70000000000005,612.7817910447759C564.3000000000001,612.7817910447759 564.3000000000001,430.34027961458503 744.9000000000001,430.34027961458503L744.9000000000001,439.0716228981671C564.3000000000001,439.0716228981671 564.3000000000001,621.5131343283581 383.70000000000005,621.5131343283581Z" style="stroke: rgb(68, 68, 68); stroke-opacity: 1; fill: rgb(255, 151, 255); fill-opacity: 0.6; stroke-width: 0; opacity: 1;"/><path class="sankey-link" d="M383.70000000000005,621.513134328358C564.3000000000001,621.513134328358 564.3000000000001,637.3849990553556 744.9000000000001,637.3849990553556L744.9000000000001,660.0864915926691C564.3000000000001,660.0864915926691 564.3000000000001,644.2146268656714 383.70000000000005,644.2146268656714Z" style="stroke: rgb(68, 68, 68); stroke-opacity: 1; fill: rgb(255, 151, 255); fill-opacity: 0.6; stroke-width: 0; opacity: 1;"/><path class="sankey-link" d="M383.70000000000005,605.7967164179103C564.3000000000001,605.7967164179103 564.3000000000001,274.94566408464016 744.9000000000001,274.94566408464016L744.9000000000001,281.9307387115058C564.3000000000001,281.9307387115058 564.3000000000001,612.781791044776 383.70000000000005,612.781791044776Z" style="stroke: rgb(68, 68, 68); stroke-opacity: 1; fill: rgb(255, 151, 255); fill-opacity: 0.6; stroke-width: 0; opacity: 1;"/><path class="sankey-link" d="M383.70000000000005,660.570447761194C564.3000000000001,660.570447761194 564.3000000000001,156.25754770451545 744.9000000000001,156.25754770451545L744.9000000000001,163.24262233138114C564.3000000000001,163.24262233138114 564.3000000000001,667.5555223880598 383.70000000000005,667.5555223880598Z" style="stroke: rgb(68, 68, 68); stroke-opacity: 1; fill: rgb(182, 232, 128); fill-opacity: 0.6; stroke-width: 0; opacity: 1;"/><path class="sankey-link" d="M383.70000000000005,667.5555223880597C564.3000000000001,667.5555223880597 564.3000000000001,439.0716228981671 744.9000000000001,439.0716228981671L744.9000000000001,446.05669752503275C564.3000000000001,446.05669752503275 564.3000000000001,674.5405970149254 383.70000000000005,674.5405970149254Z" style="stroke: rgb(68, 68, 68); stroke-opacity: 1; fill: rgb(182, 232, 128); fill-opacity: 0.6; stroke-width: 0; opacity: 1;"/><path class="sankey-link" d="M383.70000000000005,674.5405970149253C564.3000000000001,674.5405970149253 564.3000000000001,660.0864915926691 744.9000000000001,660.0864915926691L744.9000000000001,665.3252975628184C564.3000000000001,665.3252975628184 564.3000000000001,679.7794029850746 383.70000000000005,679.7794029850746Z" style="stroke: rgb(68, 68, 68); stroke-opacity: 1; fill: rgb(182, 232, 128); fill-opacity: 0.6; stroke-width: 0; opacity: 1;"/><path class="sankey-link" d="M383.70000000000005,697.0432835820895C564.3000000000001,697.0432835820895 564.3000000000001,163.2426223313811 744.9000000000001,163.2426223313811L744.9000000000001,166.73515964481393C564.3000000000001,166.73515964481393 564.3000000000001,700.5358208955224 383.70000000000005,700.5358208955224Z" style="stroke: rgb(68, 68, 68); stroke-opacity: 1; fill: rgb(255, 102, 146); fill-opacity: 0.6; stroke-width: 0; opacity: 1;"/><path class="sankey-link" d="M383.70000000000005,700.5358208955224C564.3000000000001,700.5358208955224 564.3000000000001,446.0566975250328 744.9000000000001,446.0566975250328L744.9000000000001,447.80296618174924C564.3000000000001,447.80296618174924 564.3000000000001,702.2820895522389 383.70000000000005,702.2820895522389Z" style="stroke: rgb(68, 68, 68); stroke-opacity: 1; fill: rgb(255, 102, 146); fill-opacity: 0.6; stroke-width: 0; opacity: 1;"/><path class="sankey-link" d="M383.70000000000005,702.2820895522389C564.3000000000001,702.2820895522389 564.3000000000001,665.3252975628183 744.9000000000001,665.3252975628183L744.9000000000001,667.0715662195347C564.3000000000001,667.0715662195347 564.3000000000001,704.0283582089553 383.70000000000005,704.0283582089553Z" style="stroke: rgb(68, 68, 68); stroke-opacity: 1; fill: rgb(255, 102, 146); fill-opacity: 0.6; stroke-width: 0; opacity: 1;"/><path class="sankey-link" d="M759.9000000000001,47.98889098809752C946.19943,47.98889098809752 946.19943,25.573058756848702 1132.49886,25.573058756848702L1132.49886,27.31932741356512C946.19943,27.31932741356512 946.19943,49.73515964481395 759.9000000000001,49.73515964481395Z" style="stroke: rgb(68, 68, 68); stroke-opacity: 1; fill: rgb(25, 211, 243); fill-opacity: 0.6; stroke-width: 0; opacity: 1;"/><path class="sankey-link" d="M759.9000000000001,100.37695068959005C946.19943,100.37695068959005 946.19943,117.68671830719818 1132.49886,117.68671830719818L1132.49886,122.92552427734744C946.19943,122.92552427734744 946.19943,105.6157566597393 759.9000000000001,105.6157566597393Z" style="stroke: rgb(68, 68, 68); stroke-opacity: 1; fill: rgb(25, 211, 243); fill-opacity: 0.6; stroke-width: 0; opacity: 1;"/><path class="sankey-link" d="M759.9000000000001,341.2805781220477C946.19943,341.2805781220477 946.19943,328.4220102021539 1132.49886,328.4220102021539L1132.49886,333.6608161723031C946.19943,333.6608161723031 946.19943,346.5193840921969 759.9000000000001,346.5193840921969Z" style="stroke: rgb(68, 68, 68); stroke-opacity: 1; fill: rgb(25, 211, 243); fill-opacity: 0.6; stroke-width: 0; opacity: 1;"/><path class="sankey-link" d="M759.9000000000001,398.9074437936896C946.19943,398.9074437936896 946.19943,423.1674286793881 1132.49886,423.1674286793881L1132.49886,430.1525033062537C946.19943,430.1525033062537 946.19943,405.89251842055523 759.9000000000001,405.89251842055523Z" style="stroke: rgb(68, 68, 68); stroke-opacity: 1; fill: rgb(25, 211, 243); fill-opacity: 0.6; stroke-width: 0; opacity: 1;"/><path class="sankey-link" d="M759.9000000000001,595.4745512941619C946.19943,595.4745512941619 946.19943,618.7331381069339 1132.49886,618.7331381069339L1132.49886,622.2256754203668C946.19943,622.2256754203668 946.19943,598.9670886075947 759.9000000000001,598.9670886075947Z" style="stroke: rgb(68, 68, 68); stroke-opacity: 1; fill: rgb(25, 211, 243); fill-opacity: 0.6; stroke-width: 0; opacity: 1;"/><path class="sankey-link" d="M759.9000000000001,49.73515964481394C946.19943,49.73515964481394 946.19943,27.31932741356512 1132.49886,27.31932741356512L1132.49886,36.05067069714721C946.19943,36.05067069714721 946.19943,58.46650292839603 759.9000000000001,58.46650292839603Z" style="stroke: rgb(68, 68, 68); stroke-opacity: 1; fill: rgb(0, 204, 150); fill-opacity: 0.6; stroke-width: 0; opacity: 1;"/><path class="sankey-link" d="M759.9000000000001,105.6157566597393C946.19943,105.6157566597393 946.19943,122.92552427734744 1132.49886,122.92552427734744L1132.49886,135.14940487436235C946.19943,135.14940487436235 946.19943,117.83963725675423 759.9000000000001,117.83963725675423Z" style="stroke: rgb(68, 68, 68); stroke-opacity: 1; fill: rgb(0, 204, 150); fill-opacity: 0.6; stroke-width: 0; opacity: 1;"/><path class="sankey-link" d="M759.9000000000001,346.51938409219696C946.19943,346.51938409219696 946.19943,333.66081617230316 1132.49886,333.66081617230316L1132.49886,349.3772340827509C946.19943,349.3772340827509 946.19943,362.2358020026447 759.9000000000001,362.2358020026447Z" style="stroke: rgb(68, 68, 68); stroke-opacity: 1; fill: rgb(0, 204, 150); fill-opacity: 0.6; stroke-width: 0; opacity: 1;"/><path class="sankey-link" d="M759.9000000000001,405.8925184205553C946.19943,405.8925184205553 946.19943,430.1525033062538 1132.49886,430.1525033062538L1132.49886,431.8987719629702C946.19943,431.8987719629702 946.19943,407.63878707727173 759.9000000000001,407.63878707727173Z" style="stroke: rgb(68, 68, 68); stroke-opacity: 1; fill: rgb(0, 204, 150); fill-opacity: 0.6; stroke-width: 0; opacity: 1;"/><path class="sankey-link" d="M759.9000000000001,530.8626109956542C946.19943,530.8626109956542 946.19943,510.6712450406198 1132.49886,510.6712450406198L1132.49886,521.1488569809183C946.19943,521.1488569809183 946.19943,541.3402229359526 759.9000000000001,541.3402229359526Z" style="stroke: rgb(68, 68, 68); stroke-opacity: 1; fill: rgb(0, 204, 150); fill-opacity: 0.6; stroke-width: 0; opacity: 1;"/><path class="sankey-link" d="M759.9000000000001,598.9670886075947C946.19943,598.9670886075947 946.19943,622.2256754203668 1132.49886,622.2256754203668L1132.49886,627.4644813905161C946.19943,627.4644813905161 946.19943,604.2058945777441 759.9000000000001,604.2058945777441Z" style="stroke: rgb(68, 68, 68); stroke-opacity: 1; fill: rgb(0, 204, 150); fill-opacity: 0.6; stroke-width: 0; opacity: 1;"/><path class="sankey-link" d="M759.9000000000001,229.5426790100133C946.19943,229.5426790100133 946.19943,219.30130360853963 1132.49886,219.30130360853963L1132.49886,222.79384092197245C946.19943,222.79384092197245 946.19943,233.03521632344612 759.9000000000001,233.03521632344612Z" style="stroke: rgb(68, 68, 68); stroke-opacity: 1; fill: rgb(0, 204, 150); fill-opacity: 0.6; stroke-width: 0; opacity: 1;"/><path class="sankey-link" d="M759.9000000000001,260.9755148309088C946.19943,260.9755148309088 946.19943,276.3071981862838 1132.49886,276.3071981862838L1132.49886,281.546004156433C946.19943,281.546004156433 946.19943,266.214320801058 759.9000000000001,266.214320801058Z" style="stroke: rgb(68, 68, 68); stroke-opacity: 1; fill: rgb(0, 204, 150); fill-opacity: 0.6; stroke-width: 0; opacity: 1;"/><path class="sankey-link" d="M759.9000000000001,58.466502928396025C946.19943,58.466502928396025 946.19943,36.05067069714721 1132.49886,36.05067069714721L1132.49886,39.543208010580045C946.19943,39.543208010580045 946.19943,61.95904024182886 759.9000000000001,61.95904024182886Z" style="stroke: rgb(68, 68, 68); stroke-opacity: 1; fill: rgb(239, 85, 59); fill-opacity: 0.6; stroke-width: 0; opacity: 1;"/><path class="sankey-link" d="M759.9000000000001,117.83963725675423C946.19943,117.83963725675423 946.19943,135.14940487436235 1132.49886,135.14940487436235L1132.49886,143.88074815794442C946.19943,143.88074815794442 946.19943,126.57098054033631 759.9000000000001,126.57098054033631Z" style="stroke: rgb(68, 68, 68); stroke-opacity: 1; fill: rgb(239, 85, 59); fill-opacity: 0.6; stroke-width: 0; opacity: 1;"/><path class="sankey-link" d="M759.9000000000001,362.23580200264473C946.19943,362.23580200264473 946.19943,349.37723408275093 1132.49886,349.37723408275093L1132.49886,356.36230870961657C946.19943,356.36230870961657 946.19943,369.22087662951037 759.9000000000001,369.22087662951037Z" style="stroke: rgb(68, 68, 68); stroke-opacity: 1; fill: rgb(239, 85, 59); fill-opacity: 0.6; stroke-width: 0; opacity: 1;"/><path class="sankey-link" d="M759.9000000000001,407.63878707727173C946.19943,407.63878707727173 946.19943,431.8987719629702 1132.49886,431.8987719629702L1132.49886,438.88384658983585C946.19943,438.88384658983585 946.19943,414.62386170413737 759.9000000000001,414.62386170413737Z" style="stroke: rgb(68, 68, 68); stroke-opacity: 1; fill: rgb(239, 85, 59); fill-opacity: 0.6; stroke-width: 0; opacity: 1;"/><path class="sankey-link" d="M759.9000000000001,541.3402229359527C946.19943,541.3402229359527 946.19943,521.1488569809184 1132.49886,521.1488569809184L1132.49886,529.8802002645006C946.19943,529.8802002645006 946.19943,550.0715662195349 759.9000000000001,550.0715662195349Z" style="stroke: rgb(68, 68, 68); stroke-opacity: 1; fill: rgb(239, 85, 59); fill-opacity: 0.6; stroke-width: 0; opacity: 1;"/><path class="sankey-link" d="M759.9000000000001,604.205894577744C946.19943,604.205894577744 946.19943,627.464481390516 1132.49886,627.464481390516L1132.49886,629.2107500472324C946.19943,629.2107500472324 946.19943,605.9521632344604 759.9000000000001,605.9521632344604Z" style="stroke: rgb(68, 68, 68); stroke-opacity: 1; fill: rgb(239, 85, 59); fill-opacity: 0.6; stroke-width: 0; opacity: 1;"/><path class="sankey-link" d="M759.9000000000001,233.03521632344615C946.19943,233.03521632344615 946.19943,222.79384092197247 1132.49886,222.79384092197247L1132.49886,224.5401095786889C946.19943,224.5401095786889 946.19943,234.7814849801626 759.9000000000001,234.7814849801626Z" style="stroke: rgb(68, 68, 68); stroke-opacity: 1; fill: rgb(239, 85, 59); fill-opacity: 0.6; stroke-width: 0; opacity: 1;"/><path class="sankey-link" d="M759.9000000000001,61.95904024182886C946.19943,61.95904024182886 946.19943,39.543208010580045 1132.49886,39.543208010580045L1132.49886,43.03574532401288C946.19943,43.03574532401288 946.19943,65.4515775552617 759.9000000000001,65.4515775552617Z" style="stroke: rgb(68, 68, 68); stroke-opacity: 1; fill: rgb(254, 203, 82); fill-opacity: 0.6; stroke-width: 0; opacity: 1;"/><path class="sankey-link" d="M759.9000000000001,126.57098054033632C946.19943,126.57098054033632 946.19943,143.88074815794442 1132.49886,143.88074815794442L1132.49886,145.62701681466086C946.19943,145.62701681466086 946.19943,128.31724919705275 759.9000000000001,128.31724919705275Z" style="stroke: rgb(68, 68, 68); stroke-opacity: 1; fill: rgb(254, 203, 82); fill-opacity: 0.6; stroke-width: 0; opacity: 1;"/><path class="sankey-link" d="M759.9000000000001,550.0715662195348C946.19943,550.0715662195348 946.19943,529.8802002645004 1132.49886,529.8802002645004L1132.49886,531.6264689212169C946.19943,531.6264689212169 946.19943,551.8178348762513 759.9000000000001,551.8178348762513Z" style="stroke: rgb(68, 68, 68); stroke-opacity: 1; fill: rgb(254, 203, 82); fill-opacity: 0.6; stroke-width: 0; opacity: 1;"/><path class="sankey-link" d="M759.9000000000001,605.9521632344604C946.19943,605.9521632344604 946.19943,629.2107500472324 1132.49886,629.2107500472324L1132.49886,632.7032873606653C946.19943,632.7032873606653 946.19943,609.4447005478933 759.9000000000001,609.4447005478933Z" style="stroke: rgb(68, 68, 68); stroke-opacity: 1; fill: rgb(254, 203, 82); fill-opacity: 0.6; stroke-width: 0; opacity: 1;"/><path class="sankey-link" d="M759.9000000000001,234.78148498016256C946.19943,234.78148498016256 946.19943,224.54010957868888 1132.49886,224.54010957868888L1132.49886,229.77891554883814C946.19943,229.77891554883814 946.19943,240.02029095031182 759.9000000000001,240.02029095031182Z" style="stroke: rgb(68, 68, 68); stroke-opacity: 1; fill: rgb(254, 203, 82); fill-opacity: 0.6; stroke-width: 0; opacity: 1;"/><path class="sankey-link" d="M759.9000000000001,266.2143208010581C946.19943,266.2143208010581 946.19943,281.54600415643307 1132.49886,281.54600415643307L1132.49886,283.2922728131495C946.19943,283.2922728131495 946.19943,267.9605894577745 759.9000000000001,267.9605894577745Z" style="stroke: rgb(68, 68, 68); stroke-opacity: 1; fill: rgb(254, 203, 82); fill-opacity: 0.6; stroke-width: 0; opacity: 1;"/><path class="sankey-link" d="M759.9000000000001,128.31724919705275C946.19943,128.31724919705275 946.19943,145.62701681466083 1132.49886,145.62701681466083L1132.49886,156.10462875495935C946.19943,156.10462875495935 946.19943,138.79486113735126 759.9000000000001,138.79486113735126Z" style="stroke: rgb(68, 68, 68); stroke-opacity: 1; fill: rgb(255, 161, 90); fill-opacity: 0.6; stroke-width: 0; opacity: 1;"/><path class="sankey-link" d="M759.9000000000001,369.2208766295104C946.19943,369.2208766295104 946.19943,356.3623087096166 1132.49886,356.3623087096166L1132.49886,363.34738333648227C946.19943,363.34738333648227 946.19943,376.20595125637607 759.9000000000001,376.20595125637607Z" style="stroke: rgb(68, 68, 68); stroke-opacity: 1; fill: rgb(255, 161, 90); fill-opacity: 0.6; stroke-width: 0; opacity: 1;"/><path class="sankey-link" d="M759.9000000000001,414.6238617041374C946.19943,414.6238617041374 946.19943,438.8838465898359 1132.49886,438.8838465898359L1132.49886,442.3763839032688C946.19943,442.3763839032688 946.19943,418.1163990175703 759.9000000000001,418.1163990175703Z" style="stroke: rgb(68, 68, 68); stroke-opacity: 1; fill: rgb(255, 161, 90); fill-opacity: 0.6; stroke-width: 0; opacity: 1;"/><path class="sankey-link" d="M759.9000000000001,551.8178348762513C946.19943,551.8178348762513 946.19943,531.6264689212169 1132.49886,531.6264689212169L1132.49886,533.3727375779333C946.19943,533.3727375779333 946.19943,553.5641035329677 759.9000000000001,553.5641035329677Z" style="stroke: rgb(68, 68, 68); stroke-opacity: 1; fill: rgb(255, 161, 90); fill-opacity: 0.6; stroke-width: 0; opacity: 1;"/><path class="sankey-link" d="M759.9000000000001,609.4447005478933C946.19943,609.4447005478933 946.19943,632.7032873606653 1132.49886,632.7032873606653L1132.49886,636.1958246740982C946.19943,636.1958246740982 946.19943,612.9372378613261 759.9000000000001,612.9372378613261Z" style="stroke: rgb(68, 68, 68); stroke-opacity: 1; fill: rgb(255, 161, 90); fill-opacity: 0.6; stroke-width: 0; opacity: 1;"/><path class="sankey-link" d="M759.9000000000001,65.4515775552617C946.19943,65.4515775552617 946.19943,43.03574532401288 1132.49886,43.03574532401288L1132.49886,55.259625921027805C946.19943,55.259625921027805 946.19943,77.67545815227662 759.9000000000001,77.67545815227662Z" style="stroke: rgb(68, 68, 68); stroke-opacity: 1; fill: rgb(171, 99, 250); fill-opacity: 0.6; stroke-width: 0; opacity: 1;"/><path class="sankey-link" d="M759.9000000000001,138.79486113735126C946.19943,138.79486113735126 946.19943,156.10462875495935 1132.49886,156.10462875495935L1132.49886,164.83597203854143C946.19943,164.83597203854143 946.19943,147.52620442093334 759.9000000000001,147.52620442093334Z" style="stroke: rgb(68, 68, 68); stroke-opacity: 1; fill: rgb(171, 99, 250); fill-opacity: 0.6; stroke-width: 0; opacity: 1;"/><path class="sankey-link" d="M759.9000000000001,376.2059512563761C946.19943,376.2059512563761 946.19943,363.3473833364823 1132.49886,363.3473833364823L1132.49886,375.5712639334973C946.19943,375.5712639334973 946.19943,388.4298318533911 759.9000000000001,388.4298318533911Z" style="stroke: rgb(68, 68, 68); stroke-opacity: 1; fill: rgb(171, 99, 250); fill-opacity: 0.6; stroke-width: 0; opacity: 1;"/><path class="sankey-link" d="M759.9000000000001,418.11639901757025C946.19943,418.11639901757025 946.19943,442.37638390326873 1132.49886,442.37638390326873L1132.49886,458.09280181371645C946.19943,458.09280181371645 946.19943,433.83281692801796 759.9000000000001,433.83281692801796Z" style="stroke: rgb(68, 68, 68); stroke-opacity: 1; fill: rgb(171, 99, 250); fill-opacity: 0.6; stroke-width: 0; opacity: 1;"/><path class="sankey-link" d="M759.9000000000001,553.5641035329677C946.19943,553.5641035329677 946.19943,533.3727375779333 1132.49886,533.3727375779333L1132.49886,547.3428868316646C946.19943,547.3428868316646 946.19943,567.534252786699 759.9000000000001,567.534252786699Z" style="stroke: rgb(68, 68, 68); stroke-opacity: 1; fill: rgb(171, 99, 250); fill-opacity: 0.6; stroke-width: 0; opacity: 1;"/><path class="sankey-link" d="M759.9000000000001,612.9372378613261C946.19943,612.9372378613261 946.19943,636.1958246740982 1132.49886,636.1958246740982L1132.49886,644.9271679576804C946.19943,644.9271679576804 946.19943,621.6685811449083 759.9000000000001,621.6685811449083Z" style="stroke: rgb(68, 68, 68); stroke-opacity: 1; fill: rgb(171, 99, 250); fill-opacity: 0.6; stroke-width: 0; opacity: 1;"/><path class="sankey-link" d="M759.9000000000001,240.02029095031182C946.19943,240.02029095031182 946.19943,229.77891554883814 1132.49886,229.77891554883814L1132.49886,231.52518420555458C946.19943,231.52518420555458 946.19943,241.76655960702826 759.9000000000001,241.76655960702826Z" style="stroke: rgb(68, 68, 68); stroke-opacity: 1; fill: rgb(171, 99, 250); fill-opacity: 0.6; stroke-width: 0; opacity: 1;"/><path class="sankey-link" d="M759.9000000000001,77.67545815227662C946.19943,77.67545815227662 946.19943,55.259625921027805 1132.49886,55.259625921027805L1132.49886,65.7372378613263C946.19943,65.7372378613263 946.19943,88.15307009257513 759.9000000000001,88.15307009257513Z" style="stroke: rgb(68, 68, 68); stroke-opacity: 1; fill: rgb(99, 110, 250); fill-opacity: 0.6; stroke-width: 0; opacity: 1;"/><path class="sankey-link" d="M759.9000000000001,147.52620442093334C946.19943,147.52620442093334 946.19943,164.83597203854143 1132.49886,164.83597203854143L1132.49886,173.5673153221235C946.19943,173.5673153221235 946.19943,156.25754770451542 759.9000000000001,156.25754770451542Z" style="stroke: rgb(68, 68, 68); stroke-opacity: 1; fill: rgb(99, 110, 250); fill-opacity: 0.6; stroke-width: 0; opacity: 1;"/><path class="sankey-link" d="M759.9000000000001,388.4298318533911C946.19943,388.4298318533911 946.19943,375.5712639334972 1132.49886,375.5712639334972L1132.49886,379.0638012469301C946.19943,379.0638012469301 946.19943,391.92236916682396 759.9000000000001,391.92236916682396Z" style="stroke: rgb(68, 68, 68); stroke-opacity: 1; fill: rgb(99, 110, 250); fill-opacity: 0.6; stroke-width: 0; opacity: 1;"/><path class="sankey-link" d="M759.9000000000001,433.832816928018C946.19943,433.832816928018 946.19943,458.0928018137165 1132.49886,458.0928018137165L1132.49886,461.5853391271494C946.19943,461.5853391271494 946.19943,437.3253542414509 759.9000000000001,437.3253542414509Z" style="stroke: rgb(68, 68, 68); stroke-opacity: 1; fill: rgb(99, 110, 250); fill-opacity: 0.6; stroke-width: 0; opacity: 1;"/><path class="sankey-link" d="M759.9000000000001,567.5342527866991C946.19943,567.5342527866991 946.19943,547.3428868316647 1132.49886,547.3428868316647L1132.49886,557.8204987719631C946.19943,557.8204987719631 946.19943,578.0118647269975 759.9000000000001,578.0118647269975Z" style="stroke: rgb(68, 68, 68); stroke-opacity: 1; fill: rgb(99, 110, 250); fill-opacity: 0.6; stroke-width: 0; opacity: 1;"/><path class="sankey-link" d="M759.9000000000001,621.6685811449082C946.19943,621.6685811449082 946.19943,644.9271679576802 1132.49886,644.9271679576802L1132.49886,678.1062724352921C946.19943,678.1062724352921 946.19943,654.8476856225201 759.9000000000001,654.8476856225201Z" style="stroke: rgb(68, 68, 68); stroke-opacity: 1; fill: rgb(99, 110, 250); fill-opacity: 0.6; stroke-width: 0; opacity: 1;"/><path class="sankey-link" d="M759.9000000000001,241.76655960702823C946.19943,241.76655960702823 946.19943,231.52518420555455 1132.49886,231.52518420555455L1132.49886,245.4953334592859C946.19943,245.4953334592859 946.19943,255.73670886075956 759.9000000000001,255.73670886075956Z" style="stroke: rgb(68, 68, 68); stroke-opacity: 1; fill: rgb(99, 110, 250); fill-opacity: 0.6; stroke-width: 0; opacity: 1;"/><path class="sankey-link" d="M759.9000000000001,267.9605894577745C946.19943,267.9605894577745 946.19943,283.2922728131495 1132.49886,283.2922728131495L1132.49886,295.51615341016446C946.19943,295.51615341016446 946.19943,280.1844700547895 759.9000000000001,280.1844700547895Z" style="stroke: rgb(68, 68, 68); stroke-opacity: 1; fill: rgb(99, 110, 250); fill-opacity: 0.6; stroke-width: 0; opacity: 1;"/><path class="sankey-link" d="M759.9000000000001,88.15307009257512C946.19943,88.15307009257512 946.19943,65.7372378613263 1132.49886,65.7372378613263L1132.49886,72.72231248819197C946.19943,72.72231248819197 946.19943,95.13814471944079 759.9000000000001,95.13814471944079Z" style="stroke: rgb(68, 68, 68); stroke-opacity: 1; fill: rgb(255, 151, 255); fill-opacity: 0.6; stroke-width: 0; opacity: 1;"/><path class="sankey-link" d="M759.9000000000001,156.25754770451542C946.19943,156.25754770451542 946.19943,173.5673153221235 1132.49886,173.5673153221235L1132.49886,178.80612129227276C946.19943,178.80612129227276 946.19943,161.49635367466468 759.9000000000001,161.49635367466468Z" style="stroke: rgb(68, 68, 68); stroke-opacity: 1; fill: rgb(255, 151, 255); fill-opacity: 0.6; stroke-width: 0; opacity: 1;"/><path class="sankey-link" d="M759.9000000000001,391.9223691668239C946.19943,391.9223691668239 946.19943,379.06380124693004 1132.49886,379.06380124693004L1132.49886,380.8100699036465C946.19943,380.8100699036465 946.19943,393.66863782354034 759.9000000000001,393.66863782354034Z" style="stroke: rgb(68, 68, 68); stroke-opacity: 1; fill: rgb(255, 151, 255); fill-opacity: 0.6; stroke-width: 0; opacity: 1;"/><path class="sankey-link" d="M759.9000000000001,437.32535424145084C946.19943,437.32535424145084 946.19943,461.5853391271493 1132.49886,461.5853391271493L1132.49886,468.57041375401496C946.19943,468.57041375401496 946.19943,444.3104288683165 759.9000000000001,444.3104288683165Z" style="stroke: rgb(68, 68, 68); stroke-opacity: 1; fill: rgb(255, 151, 255); fill-opacity: 0.6; stroke-width: 0; opacity: 1;"/><path class="sankey-link" d="M759.9000000000001,578.0118647269976C946.19943,578.0118647269976 946.19943,557.8204987719632 1132.49886,557.8204987719632L1132.49886,570.0443793689781C946.19943,570.0443793689781 946.19943,590.2357453240124 759.9000000000001,590.2357453240124Z" style="stroke: rgb(68, 68, 68); stroke-opacity: 1; fill: rgb(255, 151, 255); fill-opacity: 0.6; stroke-width: 0; opacity: 1;"/><path class="sankey-link" d="M759.9000000000001,654.8476856225202C946.19943,654.8476856225202 946.19943,678.1062724352922 1132.49886,678.1062724352922L1132.49886,688.5838843755906C946.19943,688.5838843755906 946.19943,665.3252975628186 759.9000000000001,665.3252975628186Z" style="stroke: rgb(68, 68, 68); stroke-opacity: 1; fill: rgb(255, 151, 255); fill-opacity: 0.6; stroke-width: 0; opacity: 1;"/><path class="sankey-link" d="M759.9000000000001,255.73670886075953C946.19943,255.73670886075953 946.19943,245.4953334592859 1132.49886,245.4953334592859L1132.49886,250.73413942943515C946.19943,250.73413942943515 946.19943,260.97551483090876 759.9000000000001,260.97551483090876Z" style="stroke: rgb(68, 68, 68); stroke-opacity: 1; fill: rgb(255, 151, 255); fill-opacity: 0.6; stroke-width: 0; opacity: 1;"/><path class="sankey-link" d="M759.9000000000001,280.1844700547895C946.19943,280.1844700547895 946.19943,295.5161534101644 1132.49886,295.5161534101644L1132.49886,297.26242206688084C946.19943,297.26242206688084 946.19943,281.9307387115059 759.9000000000001,281.9307387115059Z" style="stroke: rgb(68, 68, 68); stroke-opacity: 1; fill: rgb(255, 151, 255); fill-opacity: 0.6; stroke-width: 0; opacity: 1;"/><path class="sankey-link" d="M759.9000000000001,95.13814471944079C946.19943,95.13814471944079 946.19943,72.72231248819197 1132.49886,72.72231248819197L1132.49886,76.21484980162482C946.19943,76.21484980162482 946.19943,98.63068203287364 759.9000000000001,98.63068203287364Z" style="stroke: rgb(68, 68, 68); stroke-opacity: 1; fill: rgb(182, 232, 128); fill-opacity: 0.6; stroke-width: 0; opacity: 1;"/><path class="sankey-link" d="M759.9000000000001,161.49635367466468C946.19943,161.49635367466468 946.19943,178.80612129227276 1132.49886,178.80612129227276L1132.49886,182.29865860570558C946.19943,182.29865860570558 946.19943,164.9888909880975 759.9000000000001,164.9888909880975Z" style="stroke: rgb(68, 68, 68); stroke-opacity: 1; fill: rgb(182, 232, 128); fill-opacity: 0.6; stroke-width: 0; opacity: 1;"/><path class="sankey-link" d="M759.9000000000001,393.66863782354034C946.19943,393.66863782354034 946.19943,380.8100699036465 1132.49886,380.8100699036465L1132.49886,384.30260721707936C946.19943,384.30260721707936 946.19943,397.1611751369732 759.9000000000001,397.1611751369732Z" style="stroke: rgb(68, 68, 68); stroke-opacity: 1; fill: rgb(182, 232, 128); fill-opacity: 0.6; stroke-width: 0; opacity: 1;"/><path class="sankey-link" d="M759.9000000000001,444.31042886831654C946.19943,444.31042886831654 946.19943,468.570413754015 1132.49886,468.570413754015L1132.49886,472.0629510674479C946.19943,472.0629510674479 946.19943,447.8029661817494 759.9000000000001,447.8029661817494Z" style="stroke: rgb(68, 68, 68); stroke-opacity: 1; fill: rgb(182, 232, 128); fill-opacity: 0.6; stroke-width: 0; opacity: 1;"/><path class="sankey-link" d="M759.9000000000001,590.2357453240126C946.19943,590.2357453240126 946.19943,570.0443793689782 1132.49886,570.0443793689782L1132.49886,573.5369166824111C946.19943,573.5369166824111 946.19943,593.7282826374454 759.9000000000001,593.7282826374454Z" style="stroke: rgb(68, 68, 68); stroke-opacity: 1; fill: rgb(182, 232, 128); fill-opacity: 0.6; stroke-width: 0; opacity: 1;"/><path class="sankey-link" d="M759.9000000000001,665.3252975628187C946.19943,665.3252975628187 946.19943,688.5838843755907 1132.49886,688.5838843755907L1132.49886,690.3301530323072C946.19943,690.3301530323072 946.19943,667.0715662195352 759.9000000000001,667.0715662195352Z" style="stroke: rgb(68, 68, 68); stroke-opacity: 1; fill: rgb(182, 232, 128); fill-opacity: 0.6; stroke-width: 0; opacity: 1;"/><path class="sankey-link" d="M759.9000000000001,98.63068203287362C946.19943,98.63068203287362 946.19943,76.21484980162481 1132.49886,76.21484980162481L1132.49886,77.96111845834122C946.19943,77.96111845834122 946.19943,100.37695068959003 759.9000000000001,100.37695068959003Z" style="stroke: rgb(68, 68, 68); stroke-opacity: 1; fill: rgb(255, 102, 146); fill-opacity: 0.6; stroke-width: 0; opacity: 1;"/><path class="sankey-link" d="M759.9000000000001,164.98889098809752C946.19943,164.98889098809752 946.19943,182.2986586057056 1132.49886,182.2986586057056L1132.49886,184.04492726242205C946.19943,184.04492726242205 946.19943,166.73515964481396 759.9000000000001,166.73515964481396Z" style="stroke: rgb(68, 68, 68); stroke-opacity: 1; fill: rgb(255, 102, 146); fill-opacity: 0.6; stroke-width: 0; opacity: 1;"/><path class="sankey-link" d="M759.9000000000001,397.16117513697316C946.19943,397.16117513697316 946.19943,384.3026072170793 1132.49886,384.3026072170793L1132.49886,386.04887587379574C946.19943,386.04887587379574 946.19943,398.9074437936896 759.9000000000001,398.9074437936896Z" style="stroke: rgb(68, 68, 68); stroke-opacity: 1; fill: rgb(255, 102, 146); fill-opacity: 0.6; stroke-width: 0; opacity: 1;"/><path class="sankey-link" d="M759.9000000000001,593.7282826374454C946.19943,593.7282826374454 946.19943,573.5369166824111 1132.49886,573.5369166824111L1132.49886,575.2831853391275C946.19943,575.2831853391275 946.19943,595.4745512941619 759.9000000000001,595.4745512941619Z" style="stroke: rgb(68, 68, 68); stroke-opacity: 1; fill: rgb(255, 102, 146); fill-opacity: 0.6; stroke-width: 0; opacity: 1;"/></g><g class="sankey-node-set" style="cursor: ns-resize;"><g class="sankey-node" transform="translate(-7.499,17.973)" style="opacity: 1;"><rect class="node-rect" width="15" height="66.35820895522392" style="stroke-width: 0.5; stroke: rgb(0, 0, 0); stroke-opacity: 1; fill: rgb(128, 128, 128); fill-opacity: 1;"/><text class="node-label" data-notex="1" x="0" y="0" text-anchor="start" transform="translate(18.25,37.37910447761196)" style="cursor: default; font-family: 'Open Sans', verdana, arial, sans-serif; font-size: 12px; fill: rgb(42, 63, 95); fill-opacity: 1; white-space: pre; text-shadow: white 1px 1px 1px, white -1px -1px 1px, white 1px -1px 1px, white -1px 1px 1px;">21271R</text></g><g class="sankey-node" transform="translate(-7.499,116.879)" style="opacity: 1;"><rect class="node-rect" width="15" height="270.67164179104486" style="stroke-width: 0.5; stroke: rgb(0, 0, 0); stroke-opacity: 1; fill: rgb(128, 128, 128); fill-opacity: 1;"/><text class="node-label" data-notex="1" x="0" y="0" text-anchor="start" transform="translate(18.25,139.53582089552242)" style="cursor: default; font-family: 'Open Sans', verdana, arial, sans-serif; font-size: 12px; fill: rgb(42, 63, 95); fill-opacity: 1; white-space: pre; text-shadow: white 1px 1px 1px, white -1px -1px 1px, white 1px -1px 1px, white -1px 1px 1px;">21272R</text></g><g class="sankey-node" transform="translate(-7.499,423.201)" style="opacity: 1;"><rect class="node-rect" width="15" height="123.98507462686547" style="stroke-width: 0.5; stroke: rgb(0, 0, 0); stroke-opacity: 1; fill: rgb(128, 128, 128); fill-opacity: 1;"/><text class="node-label" data-notex="1" x="0" y="0" text-anchor="start" transform="translate(18.25,66.19253731343274)" style="cursor: default; font-family: 'Open Sans', verdana, arial, sans-serif; font-size: 12px; fill: rgb(42, 63, 95); fill-opacity: 1; white-space: pre; text-shadow: white 1px 1px 1px, white -1px -1px 1px, white 1px -1px 1px, white -1px 1px 1px;">22384</text></g><g class="sankey-node" transform="translate(-7.499,574.939)" style="opacity: 1;"><rect class="node-rect" width="15" height="123.98507462686575" style="stroke-width: 0.5; stroke: rgb(0, 0, 0); stroke-opacity: 1; fill: rgb(128, 128, 128); fill-opacity: 1;"/><text class="node-label" data-notex="1" x="0" y="0" text-anchor="start" transform="translate(18.25,66.19253731343288)" style="cursor: default; font-family: 'Open Sans', verdana, arial, sans-serif; font-size: 12px; fill: rgb(42, 63, 95); fill-opacity: 1; white-space: pre; text-shadow: white 1px 1px 1px, white -1px -1px 1px, white 1px -1px 1px, white -1px 1px 1px;">22670</text></g><g class="sankey-node" transform="translate(744.900,47.989)" style="opacity: 1;"><rect class="node-rect" width="15" height="118.74626865671632" style="stroke-width: 0.5; stroke: rgb(0, 0, 0); stroke-opacity: 1; fill: rgb(128, 128, 128); fill-opacity: 1;"/><text class="node-label" data-notex="1" x="0" y="0" text-anchor="start" transform="translate(18.25,63.573134328358165)" style="cursor: default; font-family: 'Open Sans', verdana, arial, sans-serif; font-size: 12px; fill: rgb(42, 63, 95); fill-opacity: 1; white-space: pre; text-shadow: white 1px 1px 1px, white -1px -1px 1px, white 1px -1px 1px, white -1px 1px 1px;">Aggressor</text></g><g class="sankey-node" transform="translate(744.900,229.543)" style="opacity: 1;"><rect class="node-rect" width="15" height="52.38805970149238" style="stroke-width: 0.5; stroke: rgb(0, 0, 0); stroke-opacity: 1; fill: rgb(128, 128, 128); fill-opacity: 1;"/><text class="node-label" data-notex="1" x="0" y="0" text-anchor="start" transform="translate(18.25,30.39402985074619)" style="cursor: default; font-family: 'Open Sans', verdana, arial, sans-serif; font-size: 12px; fill: rgb(42, 63, 95); fill-opacity: 1; white-space: pre; text-shadow: white 1px 1px 1px, white -1px -1px 1px, white 1px -1px 1px, white -1px 1px 1px;">Target of Aggression</text></g><g class="sankey-node" transform="translate(744.900,341.281)" style="opacity: 1;"><rect class="node-rect" width="15" height="106.52238805970205" style="stroke-width: 0.5; stroke: rgb(0, 0, 0); stroke-opacity: 1; fill: rgb(128, 128, 128); fill-opacity: 1;"/><text class="node-label" data-notex="1" x="0" y="0" text-anchor="start" transform="translate(18.25,57.46119402985103)" style="cursor: default; font-family: 'Open Sans', verdana, arial, sans-serif; font-size: 12px; fill: rgb(42, 63, 95); fill-opacity: 1; white-space: pre; text-shadow: white 1px 1px 1px, white -1px -1px 1px, white 1px -1px 1px, white -1px 1px 1px;">NonSocial</text></g><g class="sankey-node" transform="translate(744.900,530.863)" style="opacity: 1;"><rect class="node-rect" width="15" height="136.20895522388128" style="stroke-width: 0.5; stroke: rgb(0, 0, 0); stroke-opacity: 1; fill: rgb(128, 128, 128); fill-opacity: 1;"/><text class="node-label" data-notex="1" x="0" y="0" text-anchor="start" transform="translate(18.25,72.30447761194064)" style="cursor: default; font-family: 'Open Sans', verdana, arial, sans-serif; font-size: 12px; fill: rgb(42, 63, 95); fill-opacity: 1; white-space: pre; text-shadow: white 1px 1px 1px, white -1px -1px 1px, white 1px -1px 1px, white -1px 1px 1px;">Social</text></g><g class="sankey-node" transform="translate(1132.499,25.573)" style="opacity: 1;"><rect class="node-rect" width="15" height="52.38805970149246" style="stroke-width: 0.5; stroke: rgb(0, 0, 0); stroke-opacity: 1; fill: rgb(128, 128, 128); fill-opacity: 1;"/><text class="node-label" data-notex="1" x="0" y="0" text-anchor="end" transform="translate(-3.25,30.39402985074623)" style="cursor: default; font-family: 'Open Sans', verdana, arial, sans-serif; font-size: 12px; fill: rgb(42, 63, 95); fill-opacity: 1; white-space: pre; text-shadow: white 1px 1px 1px, white -1px -1px 1px, white 1px -1px 1px, white -1px 1px 1px;">Aggressor-activated</text></g><g class="sankey-node" transform="translate(1132.499,117.687)" style="opacity: 1;"><rect class="node-rect" width="15" height="66.35820895522393" style="stroke-width: 0.5; stroke: rgb(0, 0, 0); stroke-opacity: 1; fill: rgb(128, 128, 128); fill-opacity: 1;"/><text class="node-label" data-notex="1" x="0" y="0" text-anchor="end" transform="translate(-3.25,37.37910447761196)" style="cursor: default; font-family: 'Open Sans', verdana, arial, sans-serif; font-size: 12px; fill: rgb(42, 63, 95); fill-opacity: 1; white-space: pre; text-shadow: white 1px 1px 1px, white -1px -1px 1px, white 1px -1px 1px, white -1px 1px 1px;">Aggressor-suppressed</text></g><g class="sankey-node" transform="translate(1132.499,219.301)" style="opacity: 1;"><rect class="node-rect" width="15" height="31.432835820895434" style="stroke-width: 0.5; stroke: rgb(0, 0, 0); stroke-opacity: 1; fill: rgb(128, 128, 128); fill-opacity: 1;"/><text class="node-label" data-notex="1" x="0" y="0" text-anchor="end" transform="translate(-3.25,19.916417910447716)" style="cursor: default; font-family: 'Open Sans', verdana, arial, sans-serif; font-size: 12px; fill: rgb(42, 63, 95); fill-opacity: 1; white-space: pre; text-shadow: white 1px 1px 1px, white -1px -1px 1px, white 1px -1px 1px, white -1px 1px 1px;">Target of Aggression-activated</text></g><g class="sankey-node" transform="translate(1132.499,276.307)" style="opacity: 1;"><rect class="node-rect" width="15" height="20.955223880597032" style="stroke-width: 0.5; stroke: rgb(0, 0, 0); stroke-opacity: 1; fill: rgb(128, 128, 128); fill-opacity: 1;"/><text class="node-label" data-notex="1" x="0" y="0" text-anchor="end" transform="translate(-3.25,14.677611940298515)" style="cursor: default; font-family: 'Open Sans', verdana, arial, sans-serif; font-size: 12px; fill: rgb(42, 63, 95); fill-opacity: 1; white-space: pre; text-shadow: white 1px 1px 1px, white -1px -1px 1px, white 1px -1px 1px, white -1px 1px 1px;">Target of Aggression-suppressed</text></g><g class="sankey-node" transform="translate(1132.499,328.422)" style="opacity: 1;"><rect class="node-rect" width="15" height="57.62686567164167" style="stroke-width: 0.5; stroke: rgb(0, 0, 0); stroke-opacity: 1; fill: rgb(128, 128, 128); fill-opacity: 1;"/><text class="node-label" data-notex="1" x="0" y="0" text-anchor="end" transform="translate(-3.25,33.013432835820836)" style="cursor: default; font-family: 'Open Sans', verdana, arial, sans-serif; font-size: 12px; fill: rgb(42, 63, 95); fill-opacity: 1; white-space: pre; text-shadow: white 1px 1px 1px, white -1px -1px 1px, white 1px -1px 1px, white -1px 1px 1px;">NonSocial-activated</text></g><g class="sankey-node" transform="translate(1132.499,423.167)" style="opacity: 1;"><rect class="node-rect" width="15" height="48.895522388059476" style="stroke-width: 0.5; stroke: rgb(0, 0, 0); stroke-opacity: 1; fill: rgb(128, 128, 128); fill-opacity: 1;"/><text class="node-label" data-notex="1" x="0" y="0" text-anchor="end" transform="translate(-3.25,28.647761194029737)" style="cursor: default; font-family: 'Open Sans', verdana, arial, sans-serif; font-size: 12px; fill: rgb(42, 63, 95); fill-opacity: 1; white-space: pre; text-shadow: white 1px 1px 1px, white -1px -1px 1px, white 1px -1px 1px, white -1px 1px 1px;">NonSocial-suppressed</text></g><g class="sankey-node" transform="translate(1132.499,510.671)" style="opacity: 1;"><rect class="node-rect" width="15" height="64.61194029850753" style="stroke-width: 0.5; stroke: rgb(0, 0, 0); stroke-opacity: 1; fill: rgb(128, 128, 128); fill-opacity: 1;"/><text class="node-label" data-notex="1" x="0" y="0" text-anchor="end" transform="translate(-3.25,36.50597014925377)" style="cursor: default; font-family: 'Open Sans', verdana, arial, sans-serif; font-size: 12px; fill: rgb(42, 63, 95); fill-opacity: 1; white-space: pre; text-shadow: white 1px 1px 1px, white -1px -1px 1px, white 1px -1px 1px, white -1px 1px 1px;">Social-activated</text></g><g class="sankey-node" transform="translate(1132.499,618.733)" style="opacity: 1;"><rect class="node-rect" width="15" height="71.59701492537306" style="stroke-width: 0.5; stroke: rgb(0, 0, 0); stroke-opacity: 1; fill: rgb(128, 128, 128); fill-opacity: 1;"/><text class="node-label" data-notex="1" x="0" y="0" text-anchor="end" transform="translate(-3.25,39.99850746268653)" style="cursor: default; font-family: 'Open Sans', verdana, arial, sans-serif; font-size: 12px; fill: rgb(42, 63, 95); fill-opacity: 1; white-space: pre; text-shadow: white 1px 1px 1px, white -1px -1px 1px, white 1px -1px 1px, white -1px 1px 1px;">Social-suppressed</text></g><g class="sankey-node" transform="translate(368.700,13.841)" style="opacity: 1;"><rect class="node-rect" width="15" height="27.940298507462302" style="stroke-width: 0.5; stroke: rgb(0, 0, 0); stroke-opacity: 1; fill: rgb(25, 211, 243); fill-opacity: 1;"/><text class="node-label" data-notex="1" x="0" y="0" text-anchor="start" transform="translate(18.25,18.17014925373115)" style="cursor: default; font-family: 'Open Sans', verdana, arial, sans-serif; font-size: 12px; fill: rgb(42, 63, 95); fill-opacity: 1; white-space: pre; text-shadow: white 1px 1px 1px, white -1px -1px 1px, white 1px -1px 1px, white -1px 1px 1px;">BLA</text></g><g class="sankey-node" transform="translate(368.700,53.911)" style="opacity: 1;"><rect class="node-rect" width="15" height="85.56716417910455" style="stroke-width: 0.5; stroke: rgb(0, 0, 0); stroke-opacity: 1; fill: rgb(0, 204, 150); fill-opacity: 1;"/><text class="node-label" data-notex="1" x="0" y="0" text-anchor="start" transform="translate(18.25,46.98358208955227)" style="cursor: default; font-family: 'Open Sans', verdana, arial, sans-serif; font-size: 12px; fill: rgb(42, 63, 95); fill-opacity: 1; white-space: pre; text-shadow: white 1px 1px 1px, white -1px -1px 1px, white 1px -1px 1px, white -1px 1px 1px;">Cla</text></g><g class="sankey-node" transform="translate(368.700,150.735)" style="opacity: 1;"><rect class="node-rect" width="15" height="71.59701492537329" style="stroke-width: 0.5; stroke: rgb(0, 0, 0); stroke-opacity: 1; fill: rgb(239, 85, 59); fill-opacity: 1;"/><text class="node-label" data-notex="1" x="0" y="0" text-anchor="start" transform="translate(18.25,39.998507462686646)" style="cursor: default; font-family: 'Open Sans', verdana, arial, sans-serif; font-size: 12px; fill: rgb(42, 63, 95); fill-opacity: 1; white-space: pre; text-shadow: white 1px 1px 1px, white -1px -1px 1px, white 1px -1px 1px, white -1px 1px 1px;">LC</text></g><g class="sankey-node" transform="translate(368.700,234.741)" style="opacity: 1;"><rect class="node-rect" width="15" height="27.940298507461904" style="stroke-width: 0.5; stroke: rgb(0, 0, 0); stroke-opacity: 1; fill: rgb(254, 203, 82); fill-opacity: 1;"/><text class="node-label" data-notex="1" x="0" y="0" text-anchor="start" transform="translate(18.25,18.17014925373095)" style="cursor: default; font-family: 'Open Sans', verdana, arial, sans-serif; font-size: 12px; fill: rgb(42, 63, 95); fill-opacity: 1; white-space: pre; text-shadow: white 1px 1px 1px, white -1px -1px 1px, white 1px -1px 1px, white -1px 1px 1px;">LHyp</text></g><g class="sankey-node" transform="translate(368.700,275.859)" style="opacity: 1;"><rect class="node-rect" width="15" height="33.17910447761176" style="stroke-width: 0.5; stroke: rgb(0, 0, 0); stroke-opacity: 1; fill: rgb(255, 161, 90); fill-opacity: 1;"/><text class="node-label" data-notex="1" x="0" y="0" text-anchor="start" transform="translate(18.25,20.78955223880588)" style="cursor: default; font-family: 'Open Sans', verdana, arial, sans-serif; font-size: 12px; fill: rgb(42, 63, 95); fill-opacity: 1; white-space: pre; text-shadow: white 1px 1px 1px, white -1px -1px 1px, white 1px -1px 1px, white -1px 1px 1px;">NAc</text></g><g class="sankey-node" transform="translate(368.700,320.540)" style="opacity: 1;"><rect class="node-rect" width="15" height="111.76119402985069" style="stroke-width: 0.5; stroke: rgb(0, 0, 0); stroke-opacity: 1; fill: rgb(171, 99, 250); fill-opacity: 1;"/><text class="node-label" data-notex="1" x="0" y="0" text-anchor="start" transform="translate(18.25,60.080597014925345)" style="cursor: default; font-family: 'Open Sans', verdana, arial, sans-serif; font-size: 12px; fill: rgb(42, 63, 95); fill-opacity: 1; white-space: pre; text-shadow: white 1px 1px 1px, white -1px -1px 1px, white 1px -1px 1px, white -1px 1px 1px;">Str</text></g><g class="sankey-node" transform="translate(368.700,441.637)" style="opacity: 1;"><rect class="node-rect" width="15" height="141.44776119403014" style="stroke-width: 0.5; stroke: rgb(0, 0, 0); stroke-opacity: 1; fill: rgb(99, 110, 250); fill-opacity: 1;"/><text class="node-label" data-notex="1" x="0" y="0" text-anchor="start" transform="translate(18.25,74.92388059701507)" style="cursor: default; font-family: 'Open Sans', verdana, arial, sans-serif; font-size: 12px; fill: rgb(42, 63, 95); fill-opacity: 1; white-space: pre; text-shadow: white 1px 1px 1px, white -1px -1px 1px, white 1px -1px 1px, white -1px 1px 1px;">VTA</text></g><g class="sankey-node" transform="translate(368.700,593.573)" style="opacity: 1;"><rect class="node-rect" width="15" height="54.13432835820936" style="stroke-width: 0.5; stroke: rgb(0, 0, 0); stroke-opacity: 1; fill: rgb(255, 151, 255); fill-opacity: 1;"/><text class="node-label" data-notex="1" x="0" y="0" text-anchor="start" transform="translate(18.25,31.26716417910468)" style="cursor: default; font-family: 'Open Sans', verdana, arial, sans-serif; font-size: 12px; fill: rgb(42, 63, 95); fill-opacity: 1; white-space: pre; text-shadow: white 1px 1px 1px, white -1px -1px 1px, white 1px -1px 1px, white -1px 1px 1px;">cPFC</text></g><g class="sankey-node" transform="translate(368.700,660.570)" style="opacity: 1;"><rect class="node-rect" width="15" height="22.70149253731347" style="stroke-width: 0.5; stroke: rgb(0, 0, 0); stroke-opacity: 1; fill: rgb(182, 232, 128); fill-opacity: 1;"/><text class="node-label" data-notex="1" x="0" y="0" text-anchor="start" transform="translate(18.25,15.550746268656734)" style="cursor: default; font-family: 'Open Sans', verdana, arial, sans-serif; font-size: 12px; fill: rgb(42, 63, 95); fill-opacity: 1; white-space: pre; text-shadow: white 1px 1px 1px, white -1px -1px 1px, white 1px -1px 1px, white -1px 1px 1px;">dPAG</text></g><g class="sankey-node" transform="translate(368.700,697.043)" style="opacity: 1;"><rect class="node-rect" width="15" height="8.731343283581964" style="stroke-width: 0.5; stroke: rgb(0, 0, 0); stroke-opacity: 1; fill: rgb(255, 102, 146); fill-opacity: 1;"/><text class="node-label" data-notex="1" x="0" y="0" text-anchor="start" transform="translate(18.25,8.565671641790981)" style="cursor: default; font-family: 'Open Sans', verdana, arial, sans-serif; font-size: 12px; fill: rgb(42, 63, 95); fill-opacity: 1; white-space: pre; text-shadow: white 1px 1px 1px, white -1px -1px 1px, white 1px -1px 1px, white -1px 1px 1px;">lHb</text></g></g></g><defs id="topdefs-fafd91"><g class="clips"/></defs><g class="layer-above"><g class="imagelayer"/><g class="shapelayer"/></g><g class="infolayer"><g class="g-gtitle"/><g class="first-render"/></g></svg>