<svg class="main-svg" xmlns="http://www.w3.org/2000/svg" xmlns:xlink="http://www.w3.org/1999/xlink" width="1300" height="900" style="" viewBox="0 0 1300 900"><rect x="0" y="0" width="1300" height="900" style="fill: rgb(255, 255, 255); fill-opacity: 1;"/><defs id="defs-9ea595"><g class="clips"/><g class="gradients"/><g class="patterns"/></defs><g class="bglayer"/><g class="layer-below"><g class="imagelayer"/><g class="shapelayer"/></g><g class="cartesianlayer"/><g class="polarlayer"/><g class="smithlayer"/><g class="ternarylayer"/><g class="geolayer"/><g class="funnelarealayer"/><g class="pielayer"/><g class="iciclelayer"/><g class="treemaplayer"/><g class="sunburstlayer"/><g class="glimages"/><g class="sankey" transform="translate(80,100)matrix(1 0 0 1 0 0)" style="box-sizing: content-box; position: absolute; left: 0px; shape-rendering: geometricprecision; pointer-events: none;"><g class="sankey-links" style="fill: none;"><path class="sankey-link" d="M7.50114,15.757180851063938C188.10057000000003,15.757180851063938 188.10057000000003,58.2678191489363 368.70000000000005,58.2678191489363L368.70000000000005,69.15877659574481C188.10057000000003,69.15877659574481 188.10057000000003,26.64813829787245 7.50114,26.64813829787245Z" style="stroke: rgb(68, 68, 68); stroke-opacity: 1; fill: rgb(239, 85, 59); fill-opacity: 0.6; stroke-width: 0; opacity: 1;"/><path class="sankey-link" d="M7.50114,26.648138297872446C188.10057000000003,26.648138297872446 188.10057000000003,164.46303191489358 368.70000000000005,164.46303191489358L368.70000000000005,167.57473404255313C188.10057000000003,167.57473404255313 188.10057000000003,29.759840425532023 7.50114,29.759840425532023Z" style="stroke: rgb(68, 68, 68); stroke-opacity: 1; fill: rgb(0, 204, 150); fill-opacity: 0.6; stroke-width: 0; opacity: 1;"/><path class="sankey-link" d="M7.50114,29.75984042553202C188.10057000000003,29.75984042553202 188.10057000000003,281.79095744680836 368.70000000000005,281.79095744680836L368.70000000000005,288.0143617021275C188.10057000000003,288.0143617021275 188.10057000000003,35.98324468085117 7.50114,35.98324468085117Z" style="stroke: rgb(68, 68, 68); stroke-opacity: 1; fill: rgb(255, 161, 90); fill-opacity: 0.6; stroke-width: 0; opacity: 1;"/><path class="sankey-link" d="M7.50114,35.98324468085117C188.10057000000003,35.98324468085117 188.10057000000003,334.1537234042556 368.70000000000005,334.1537234042556L368.70000000000005,345.04468085106413C188.10057000000003,345.04468085106413 188.10057000000003,46.874202127659686 7.50114,46.874202127659686Z" style="stroke: rgb(68, 68, 68); stroke-opacity: 1; fill: rgb(171, 99, 250); fill-opacity: 0.6; stroke-width: 0; opacity: 1;"/><path class="sankey-link" d="M7.50114,46.874202127659686C188.10057000000003,46.874202127659686 188.10057000000003,427.80877659574486 368.70000000000005,427.80877659574486L368.70000000000005,429.36462765957464C188.10057000000003,429.36462765957464 188.10057000000003,48.43005319148948 7.50114,48.43005319148948Z" style="stroke: rgb(68, 68, 68); stroke-opacity: 1; fill: rgb(99, 110, 250); fill-opacity: 0.6; stroke-width: 0; opacity: 1;"/><path class="sankey-link" d="M7.50114,74.0752659574467C188.10057000000003,74.0752659574467 188.10057000000003,13.746542553191475 368.70000000000005,13.746542553191475L368.70000000000005,43.30771276595743C188.10057000000003,43.30771276595743 188.10057000000003,103.63643617021265 7.50114,103.63643617021265Z" style="stroke: rgb(68, 68, 68); stroke-opacity: 1; fill: rgb(25, 211, 243); fill-opacity: 0.6; stroke-width: 0; opacity: 1;"/><path class="sankey-link" d="M7.50114,103.63643617021268C188.10057000000003,103.63643617021268 188.10057000000003,69.15877659574483 368.70000000000005,69.15877659574483L368.70000000000005,108.05505319148949C188.10057000000003,108.05505319148949 188.10057000000003,142.53271276595734 7.50114,142.53271276595734Z" style="stroke: rgb(68, 68, 68); stroke-opacity: 1; fill: rgb(239, 85, 59); fill-opacity: 0.6; stroke-width: 0; opacity: 1;"/><path class="sankey-link" d="M7.50114,142.53271276595734C188.10057000000003,142.53271276595734 188.10057000000003,167.57473404255316 368.70000000000005,167.57473404255316L368.70000000000005,203.35930851063827C188.10057000000003,203.35930851063827 188.10057000000003,178.31728723404245 7.50114,178.31728723404245Z" style="stroke: rgb(68, 68, 68); stroke-opacity: 1; fill: rgb(0, 204, 150); fill-opacity: 0.6; stroke-width: 0; opacity: 1;"/><path class="sankey-link" d="M7.50114,178.31728723404245C188.10057000000003,178.31728723404245 188.10057000000003,288.01436170212753 368.70000000000005,288.01436170212753L368.70000000000005,308.24042553191475C188.10057000000003,308.24042553191475 188.10057000000003,198.54335106382968 7.50114,198.54335106382968Z" style="stroke: rgb(68, 68, 68); stroke-opacity: 1; fill: rgb(255, 161, 90); fill-opacity: 0.6; stroke-width: 0; opacity: 1;"/><path class="sankey-link" d="M7.50114,198.54335106382968C188.10057000000003,198.54335106382968 188.10057000000003,345.0446808510641 368.70000000000005,345.0446808510641L368.70000000000005,391.72021276595774C188.10057000000003,391.72021276595774 188.10057000000003,245.2188829787233 7.50114,245.2188829787233Z" style="stroke: rgb(68, 68, 68); stroke-opacity: 1; fill: rgb(171, 99, 250); fill-opacity: 0.6; stroke-width: 0; opacity: 1;"/><path class="sankey-link" d="M7.50114,245.2188829787233C188.10057000000003,245.2188829787233 188.10057000000003,429.36462765957464 368.70000000000005,429.36462765957464L368.70000000000005,451.14654255319164C188.10057000000003,451.14654255319164 188.10057000000003,267.0007978723403 7.50114,267.0007978723403Z" style="stroke: rgb(68, 68, 68); stroke-opacity: 1; fill: rgb(99, 110, 250); fill-opacity: 0.6; stroke-width: 0; opacity: 1;"/><path class="sankey-link" d="M7.50114,267.0007978723403C188.10057000000003,267.0007978723403 188.10057000000003,592.0994680851065 368.70000000000005,592.0994680851065L368.70000000000005,618.548936170213C188.10057000000003,618.548936170213 188.10057000000003,293.4502659574466 7.50114,293.4502659574466Z" style="stroke: rgb(68, 68, 68); stroke-opacity: 1; fill: rgb(255, 151, 255); fill-opacity: 0.6; stroke-width: 0; opacity: 1;"/><path class="sankey-link" d="M7.50114,293.4502659574467C188.10057000000003,293.4502659574467 188.10057000000003,657.7492021276596 368.70000000000005,657.7492021276596L368.70000000000005,671.7518617021276C188.10057000000003,671.7518617021276 188.10057000000003,307.4529255319148 7.50114,307.4529255319148Z" style="stroke: rgb(68, 68, 68); stroke-opacity: 1; fill: rgb(255, 102, 146); fill-opacity: 0.6; stroke-width: 0; opacity: 1;"/><path class="sankey-link" d="M7.50114,307.4529255319148C188.10057000000003,307.4529255319148 188.10057000000003,701.0257978723405 368.70000000000005,701.0257978723405L368.70000000000005,705.6933510638298C188.10057000000003,705.6933510638298 188.10057000000003,312.1204787234041 7.50114,312.1204787234041Z" style="stroke: rgb(68, 68, 68); stroke-opacity: 1; fill: rgb(182, 232, 128); fill-opacity: 0.6; stroke-width: 0; opacity: 1;"/><path class="sankey-link" d="M7.50114,339.1228723404256C188.10057000000003,339.1228723404256 188.10057000000003,43.30771276595743 368.70000000000005,43.30771276595743L368.70000000000005,46.419414893617C188.10057000000003,46.419414893617 188.10057000000003,342.23457446808516 7.50114,342.23457446808516Z" style="stroke: rgb(68, 68, 68); stroke-opacity: 1; fill: rgb(25, 211, 243); fill-opacity: 0.6; stroke-width: 0; opacity: 1;"/><path class="sankey-link" d="M7.50114,342.23457446808516C188.10057000000003,342.23457446808516 188.10057000000003,108.05505319148949 368.70000000000005,108.05505319148949L368.70000000000005,131.3928191489363C188.10057000000003,131.3928191489363 188.10057000000003,365.57234042553193 7.50114,365.57234042553193Z" style="stroke: rgb(68, 68, 68); stroke-opacity: 1; fill: rgb(239, 85, 59); fill-opacity: 0.6; stroke-width: 0; opacity: 1;"/><path class="sankey-link" d="M7.50114,365.572340425532C188.10057000000003,365.572340425532 188.10057000000003,203.35930851063827 368.70000000000005,203.35930851063827L368.70000000000005,209.58271276595744C188.10057000000003,209.58271276595744 188.10057000000003,371.7957446808511 7.50114,371.7957446808511Z" style="stroke: rgb(68, 68, 68); stroke-opacity: 1; fill: rgb(0, 204, 150); fill-opacity: 0.6; stroke-width: 0; opacity: 1;"/><path class="sankey-link" d="M7.50114,371.79574468085116C188.10057000000003,371.79574468085116 188.10057000000003,308.24042553191475 368.70000000000005,308.24042553191475L368.70000000000005,322.24308510638286C188.10057000000003,322.24308510638286 188.10057000000003,385.79840425531927 7.50114,385.79840425531927Z" style="stroke: rgb(68, 68, 68); stroke-opacity: 1; fill: rgb(255, 161, 90); fill-opacity: 0.6; stroke-width: 0; opacity: 1;"/><path class="sankey-link" d="M7.50114,385.79840425531927C188.10057000000003,385.79840425531927 188.10057000000003,391.7202127659577 368.70000000000005,391.7202127659577L368.70000000000005,393.27606382978746C188.10057000000003,393.27606382978746 188.10057000000003,387.35425531914905 7.50114,387.35425531914905Z" style="stroke: rgb(68, 68, 68); stroke-opacity: 1; fill: rgb(171, 99, 250); fill-opacity: 0.6; stroke-width: 0; opacity: 1;"/><path class="sankey-link" d="M7.50114,387.35425531914905C188.10057000000003,387.35425531914905 188.10057000000003,451.14654255319164 368.70000000000005,451.14654255319164L368.70000000000005,454.2582446808512C188.10057000000003,454.2582446808512 188.10057000000003,390.4659574468086 7.50114,390.4659574468086Z" style="stroke: rgb(68, 68, 68); stroke-opacity: 1; fill: rgb(99, 110, 250); fill-opacity: 0.6; stroke-width: 0; opacity: 1;"/><path class="sankey-link" d="M7.50114,390.4659574468086C188.10057000000003,390.4659574468086 188.10057000000003,618.5489361702129 368.70000000000005,618.5489361702129L368.70000000000005,623.2164893617022C188.10057000000003,623.2164893617022 188.10057000000003,395.13351063829793 7.50114,395.13351063829793Z" style="stroke: rgb(68, 68, 68); stroke-opacity: 1; fill: rgb(255, 151, 255); fill-opacity: 0.6; stroke-width: 0; opacity: 1;"/><path class="sankey-link" d="M7.50114,395.133510638298C188.10057000000003,395.133510638298 188.10057000000003,671.7518617021277 368.70000000000005,671.7518617021277L368.70000000000005,681.0869680851064C188.10057000000003,681.0869680851064 188.10057000000003,404.46861702127677 7.50114,404.46861702127677Z" style="stroke: rgb(68, 68, 68); stroke-opacity: 1; fill: rgb(255, 102, 146); fill-opacity: 0.6; stroke-width: 0; opacity: 1;"/><path class="sankey-link" d="M7.50114,426.7531914893615C188.10057000000003,426.7531914893615 188.10057000000003,131.3928191489363 368.70000000000005,131.3928191489363L368.70000000000005,142.2837765957448C188.10057000000003,142.2837765957448 188.10057000000003,437.64414893617004 7.50114,437.64414893617004Z" style="stroke: rgb(68, 68, 68); stroke-opacity: 1; fill: rgb(239, 85, 59); fill-opacity: 0.6; stroke-width: 0; opacity: 1;"/><path class="sankey-link" d="M7.50114,437.64414893617C188.10057000000003,437.64414893617 188.10057000000003,209.5827127659574 368.70000000000005,209.5827127659574L368.70000000000005,217.36196808510635C188.10057000000003,217.36196808510635 188.10057000000003,445.42340425531887 7.50114,445.42340425531887Z" style="stroke: rgb(68, 68, 68); stroke-opacity: 1; fill: rgb(0, 204, 150); fill-opacity: 0.6; stroke-width: 0; opacity: 1;"/><path class="sankey-link" d="M7.50114,445.4234042553189C188.10057000000003,445.4234042553189 188.10057000000003,237.70531914893618 368.70000000000005,237.70531914893618L368.70000000000005,253.26382978723407C188.10057000000003,253.26382978723407 188.10057000000003,460.9819148936168 7.50114,460.9819148936168Z" style="stroke: rgb(68, 68, 68); stroke-opacity: 1; fill: rgb(254, 203, 82); fill-opacity: 0.6; stroke-width: 0; opacity: 1;"/><path class="sankey-link" d="M7.50114,460.9819148936168C188.10057000000003,460.9819148936168 188.10057000000003,393.27606382978746 368.70000000000005,393.27606382978746L368.70000000000005,405.7228723404258C188.10057000000003,405.7228723404258 188.10057000000003,473.42872340425515 7.50114,473.42872340425515Z" style="stroke: rgb(68, 68, 68); stroke-opacity: 1; fill: rgb(171, 99, 250); fill-opacity: 0.6; stroke-width: 0; opacity: 1;"/><path class="sankey-link" d="M7.50114,473.42872340425504C188.10057000000003,473.42872340425504 188.10057000000003,454.25824468085113 368.70000000000005,454.25824468085113L368.70000000000005,518.0481382978725C188.10057000000003,518.0481382978725 188.10057000000003,537.2186170212764 7.50114,537.2186170212764Z" style="stroke: rgb(68, 68, 68); stroke-opacity: 1; fill: rgb(99, 110, 250); fill-opacity: 0.6; stroke-width: 0; opacity: 1;"/><path class="sankey-link" d="M7.50114,537.2186170212764C188.10057000000003,537.2186170212764 188.10057000000003,623.2164893617022 368.70000000000005,623.2164893617022L368.70000000000005,634.1074468085106C188.10057000000003,634.1074468085106 188.10057000000003,548.1095744680848 7.50114,548.1095744680848Z" style="stroke: rgb(68, 68, 68); stroke-opacity: 1; fill: rgb(255, 151, 255); fill-opacity: 0.6; stroke-width: 0; opacity: 1;"/><path class="sankey-link" d="M7.50114,548.1095744680849C188.10057000000003,548.1095744680849 188.10057000000003,681.0869680851065 368.70000000000005,681.0869680851065L368.70000000000005,684.198670212766C188.10057000000003,684.198670212766 188.10057000000003,551.2212765957445 7.50114,551.2212765957445Z" style="stroke: rgb(68, 68, 68); stroke-opacity: 1; fill: rgb(255, 102, 146); fill-opacity: 0.6; stroke-width: 0; opacity: 1;"/><path class="sankey-link" d="M7.50114,575.9617021276597C188.10057000000003,575.9617021276597 188.10057000000003,142.2837765957448 368.70000000000005,142.2837765957448L368.70000000000005,153.1747340425533C188.10057000000003,153.1747340425533 188.10057000000003,586.8526595744681 7.50114,586.8526595744681Z" style="stroke: rgb(68, 68, 68); stroke-opacity: 1; fill: rgb(239, 85, 59); fill-opacity: 0.6; stroke-width: 0; opacity: 1;"/><path class="sankey-link" d="M7.50114,586.8526595744682C188.10057000000003,586.8526595744682 188.10057000000003,217.36196808510635 368.70000000000005,217.36196808510635L368.70000000000005,225.1412234042553C188.10057000000003,225.1412234042553 188.10057000000003,594.6319148936171 7.50114,594.6319148936171Z" style="stroke: rgb(68, 68, 68); stroke-opacity: 1; fill: rgb(0, 204, 150); fill-opacity: 0.6; stroke-width: 0; opacity: 1;"/><path class="sankey-link" d="M7.50114,594.6319148936171C188.10057000000003,594.6319148936171 188.10057000000003,253.26382978723404 368.70000000000005,253.26382978723404L368.70000000000005,268.82234042553193C188.10057000000003,268.82234042553193 188.10057000000003,610.1904255319149 7.50114,610.1904255319149Z" style="stroke: rgb(68, 68, 68); stroke-opacity: 1; fill: rgb(254, 203, 82); fill-opacity: 0.6; stroke-width: 0; opacity: 1;"/><path class="sankey-link" d="M7.50114,610.190425531915C188.10057000000003,610.190425531915 188.10057000000003,405.72287234042574 368.70000000000005,405.72287234042574L368.70000000000005,418.1696808510641C188.10057000000003,418.1696808510641 188.10057000000003,622.6372340425532 7.50114,622.6372340425532Z" style="stroke: rgb(68, 68, 68); stroke-opacity: 1; fill: rgb(171, 99, 250); fill-opacity: 0.6; stroke-width: 0; opacity: 1;"/><path class="sankey-link" d="M7.50114,622.6372340425534C188.10057000000003,622.6372340425534 188.10057000000003,518.0481382978725 368.70000000000005,518.0481382978725L368.70000000000005,581.8380319148938C188.10057000000003,581.8380319148938 188.10057000000003,686.4271276595747 7.50114,686.4271276595747Z" style="stroke: rgb(68, 68, 68); stroke-opacity: 1; fill: rgb(99, 110, 250); fill-opacity: 0.6; stroke-width: 0; opacity: 1;"/><path class="sankey-link" d="M7.50114,686.4271276595746C188.10057000000003,686.4271276595746 188.10057000000003,634.1074468085108 368.70000000000005,634.1074468085108L368.70000000000005,644.9984042553192C188.10057000000003,644.9984042553192 188.10057000000003,697.318085106383 7.50114,697.318085106383Z" style="stroke: rgb(68, 68, 68); stroke-opacity: 1; fill: rgb(255, 151, 255); fill-opacity: 0.6; stroke-width: 0; opacity: 1;"/><path class="sankey-link" d="M7.50114,697.3180851063831C188.10057000000003,697.3180851063831 188.10057000000003,684.198670212766 368.70000000000005,684.198670212766L368.70000000000005,687.3103723404256C188.10057000000003,687.3103723404256 188.10057000000003,700.4297872340427 7.50114,700.4297872340427Z" style="stroke: rgb(68, 68, 68); stroke-opacity: 1; fill: rgb(255, 102, 146); fill-opacity: 0.6; stroke-width: 0; opacity: 1;"/><path class="sankey-link" d="M383.70000000000005,13.746542553191475C564.3000000000001,13.746542553191475 564.3000000000001,40.31073686951348 744.9000000000001,40.31073686951348L744.9000000000001,48.08999218866241C564.3000000000001,48.08999218866241 564.3000000000001,21.525797872340412 383.70000000000005,21.525797872340412Z" style="stroke: rgb(68, 68, 68); stroke-opacity: 1; fill: rgb(25, 211, 243); fill-opacity: 0.6; stroke-width: 0; opacity: 1;"/><path class="sankey-link" d="M383.70000000000005,21.525797872340412C564.3000000000001,21.525797872340412 564.3000000000001,285.20145997619386 744.9000000000001,285.20145997619386L744.9000000000001,294.53656635917264C564.3000000000001,294.53656635917264 564.3000000000001,30.860904255319134 383.70000000000005,30.860904255319134Z" style="stroke: rgb(68, 68, 68); stroke-opacity: 1; fill: rgb(25, 211, 243); fill-opacity: 0.6; stroke-width: 0; opacity: 1;"/><path class="sankey-link" d="M383.70000000000005,30.860904255319134C564.3000000000001,30.860904255319134 564.3000000000001,474.3940875613751 744.9000000000001,474.3940875613751L744.9000000000001,485.28504500818366C564.3000000000001,485.28504500818366 564.3000000000001,41.75186170212765 383.70000000000005,41.75186170212765Z" style="stroke: rgb(68, 68, 68); stroke-opacity: 1; fill: rgb(25, 211, 243); fill-opacity: 0.6; stroke-width: 0; opacity: 1;"/><path class="sankey-link" d="M383.70000000000005,58.2678191489363C564.3000000000001,58.2678191489363 564.3000000000001,48.089992188662414 744.9000000000001,48.089992188662414L744.9000000000001,66.76020495461987C564.3000000000001,66.76020495461987 564.3000000000001,76.93803191489374 383.70000000000005,76.93803191489374Z" style="stroke: rgb(68, 68, 68); stroke-opacity: 1; fill: rgb(239, 85, 59); fill-opacity: 0.6; stroke-width: 0; opacity: 1;"/><path class="sankey-link" d="M383.70000000000005,80.04973404255331C564.3000000000001,80.04973404255331 564.3000000000001,294.5365663591726 744.9000000000001,294.5365663591726L744.9000000000001,316.3184812527896C564.3000000000001,316.3184812527896 564.3000000000001,101.83164893617034 383.70000000000005,101.83164893617034Z" style="stroke: rgb(68, 68, 68); stroke-opacity: 1; fill: rgb(239, 85, 59); fill-opacity: 0.6; stroke-width: 0; opacity: 1;"/><path class="sankey-link" d="M383.70000000000005,101.83164893617032C564.3000000000001,101.83164893617032 564.3000000000001,485.2850450081836 744.9000000000001,485.2850450081836L744.9000000000001,521.0696194762687C564.3000000000001,521.0696194762687 564.3000000000001,137.61622340425544 383.70000000000005,137.61622340425544Z" style="stroke: rgb(68, 68, 68); stroke-opacity: 1; fill: rgb(239, 85, 59); fill-opacity: 0.6; stroke-width: 0; opacity: 1;"/><path class="sankey-link" d="M383.70000000000005,76.93803191489374C564.3000000000001,76.93803191489374 564.3000000000001,202.36225822050295 744.9000000000001,202.36225822050295L744.9000000000001,205.4739603481625C564.3000000000001,205.4739603481625 564.3000000000001,80.04973404255333 383.70000000000005,80.04973404255333Z" style="stroke: rgb(68, 68, 68); stroke-opacity: 1; fill: rgb(239, 85, 59); fill-opacity: 0.6; stroke-width: 0; opacity: 1;"/><path class="sankey-link" d="M383.70000000000005,164.46303191489358C564.3000000000001,164.46303191489358 564.3000000000001,66.76020495461987 744.9000000000001,66.76020495461987L744.9000000000001,74.53946027376881C564.3000000000001,74.53946027376881 564.3000000000001,172.24228723404252 383.70000000000005,172.24228723404252Z" style="stroke: rgb(68, 68, 68); stroke-opacity: 1; fill: rgb(0, 204, 150); fill-opacity: 0.6; stroke-width: 0; opacity: 1;"/><path class="sankey-link" d="M383.70000000000005,173.7981382978723C564.3000000000001,173.7981382978723 564.3000000000001,316.3184812527896 744.9000000000001,316.3184812527896L744.9000000000001,338.1003961464066C564.3000000000001,338.1003961464066 564.3000000000001,195.5800531914893 383.70000000000005,195.5800531914893Z" style="stroke: rgb(68, 68, 68); stroke-opacity: 1; fill: rgb(0, 204, 150); fill-opacity: 0.6; stroke-width: 0; opacity: 1;"/><path class="sankey-link" d="M383.70000000000005,195.58005319148933C564.3000000000001,195.58005319148933 564.3000000000001,521.0696194762687 744.9000000000001,521.0696194762687L744.9000000000001,544.4073854337156C564.3000000000001,544.4073854337156 564.3000000000001,218.91781914893616 383.70000000000005,218.91781914893616Z" style="stroke: rgb(68, 68, 68); stroke-opacity: 1; fill: rgb(0, 204, 150); fill-opacity: 0.6; stroke-width: 0; opacity: 1;"/><path class="sankey-link" d="M383.70000000000005,172.24228723404252C564.3000000000001,172.24228723404252 564.3000000000001,205.47396034816254 744.9000000000001,205.47396034816254L744.9000000000001,207.0298114119923C564.3000000000001,207.0298114119923 564.3000000000001,173.7981382978723 383.70000000000005,173.7981382978723Z" style="stroke: rgb(68, 68, 68); stroke-opacity: 1; fill: rgb(0, 204, 150); fill-opacity: 0.6; stroke-width: 0; opacity: 1;"/><path class="sankey-link" d="M383.70000000000005,237.70531914893618C564.3000000000001,237.70531914893618 564.3000000000001,74.5394602737688 744.9000000000001,74.5394602737688L744.9000000000001,79.20701346525816C564.3000000000001,79.20701346525816 564.3000000000001,242.37287234042557 383.70000000000005,242.37287234042557Z" style="stroke: rgb(68, 68, 68); stroke-opacity: 1; fill: rgb(254, 203, 82); fill-opacity: 0.6; stroke-width: 0; opacity: 1;"/><path class="sankey-link" d="M383.70000000000005,245.48457446808513C564.3000000000001,245.48457446808513 564.3000000000001,544.4073854337155 744.9000000000001,544.4073854337155L744.9000000000001,553.7424918166942C564.3000000000001,553.7424918166942 564.3000000000001,254.81968085106385 383.70000000000005,254.81968085106385Z" style="stroke: rgb(68, 68, 68); stroke-opacity: 1; fill: rgb(254, 203, 82); fill-opacity: 0.6; stroke-width: 0; opacity: 1;"/><path class="sankey-link" d="M383.70000000000005,242.37287234042554C564.3000000000001,242.37287234042554 564.3000000000001,207.0298114119923 744.9000000000001,207.0298114119923L744.9000000000001,210.14151353965187C564.3000000000001,210.14151353965187 564.3000000000001,245.4845744680851 383.70000000000005,245.4845744680851Z" style="stroke: rgb(68, 68, 68); stroke-opacity: 1; fill: rgb(254, 203, 82); fill-opacity: 0.6; stroke-width: 0; opacity: 1;"/><path class="sankey-link" d="M383.70000000000005,281.79095744680836C564.3000000000001,281.79095744680836 564.3000000000001,79.20701346525816 744.9000000000001,79.20701346525816L744.9000000000001,83.87456665674752C564.3000000000001,83.87456665674752 564.3000000000001,286.4585106382977 383.70000000000005,286.4585106382977Z" style="stroke: rgb(68, 68, 68); stroke-opacity: 1; fill: rgb(255, 161, 90); fill-opacity: 0.6; stroke-width: 0; opacity: 1;"/><path class="sankey-link" d="M383.70000000000005,286.45851063829775C564.3000000000001,286.45851063829775 564.3000000000001,338.1003961464066 744.9000000000001,338.1003961464066L744.9000000000001,353.65890678470447C564.3000000000001,353.65890678470447 564.3000000000001,302.01702127659564 383.70000000000005,302.01702127659564Z" style="stroke: rgb(68, 68, 68); stroke-opacity: 1; fill: rgb(255, 161, 90); fill-opacity: 0.6; stroke-width: 0; opacity: 1;"/><path class="sankey-link" d="M383.70000000000005,302.01702127659564C564.3000000000001,302.01702127659564 564.3000000000001,553.7424918166943 744.9000000000001,553.7424918166943L744.9000000000001,566.1893003273325C564.3000000000001,566.1893003273325 564.3000000000001,314.463829787234 383.70000000000005,314.463829787234Z" style="stroke: rgb(68, 68, 68); stroke-opacity: 1; fill: rgb(255, 161, 90); fill-opacity: 0.6; stroke-width: 0; opacity: 1;"/><path class="sankey-link" d="M383.70000000000005,334.1537234042556C564.3000000000001,334.1537234042556 564.3000000000001,83.87456665674753 744.9000000000001,83.87456665674753L744.9000000000001,104.10063048653475C564.3000000000001,104.10063048653475 564.3000000000001,354.3797872340428 383.70000000000005,354.3797872340428Z" style="stroke: rgb(68, 68, 68); stroke-opacity: 1; fill: rgb(171, 99, 250); fill-opacity: 0.6; stroke-width: 0; opacity: 1;"/><path class="sankey-link" d="M383.70000000000005,360.60319148936196C564.3000000000001,360.60319148936196 564.3000000000001,353.65890678470447 744.9000000000001,353.65890678470447L744.9000000000001,369.21741742300236C564.3000000000001,369.21741742300236 564.3000000000001,376.16170212765985 383.70000000000005,376.16170212765985Z" style="stroke: rgb(68, 68, 68); stroke-opacity: 1; fill: rgb(171, 99, 250); fill-opacity: 0.6; stroke-width: 0; opacity: 1;"/><path class="sankey-link" d="M383.70000000000005,376.16170212765985C564.3000000000001,376.16170212765985 564.3000000000001,566.1893003273326 744.9000000000001,566.1893003273326L744.9000000000001,600.4180237315879C564.3000000000001,600.4180237315879 564.3000000000001,410.3904255319152 383.70000000000005,410.3904255319152Z" style="stroke: rgb(68, 68, 68); stroke-opacity: 1; fill: rgb(171, 99, 250); fill-opacity: 0.6; stroke-width: 0; opacity: 1;"/><path class="sankey-link" d="M383.70000000000005,354.3797872340428C564.3000000000001,354.3797872340428 564.3000000000001,210.1415135396519 744.9000000000001,210.1415135396519L744.9000000000001,216.36491779497106C564.3000000000001,216.36491779497106 564.3000000000001,360.6031914893619 383.70000000000005,360.6031914893619Z" style="stroke: rgb(68, 68, 68); stroke-opacity: 1; fill: rgb(171, 99, 250); fill-opacity: 0.6; stroke-width: 0; opacity: 1;"/><path class="sankey-link" d="M383.70000000000005,427.80877659574486C564.3000000000001,427.80877659574486 564.3000000000001,104.10063048653475 744.9000000000001,104.10063048653475L744.9000000000001,135.2176517631305C564.3000000000001,135.2176517631305 564.3000000000001,458.92579787234064 383.70000000000005,458.92579787234064Z" style="stroke: rgb(68, 68, 68); stroke-opacity: 1; fill: rgb(99, 110, 250); fill-opacity: 0.6; stroke-width: 0; opacity: 1;"/><path class="sankey-link" d="M383.70000000000005,474.48430851063847C564.3000000000001,474.48430851063847 564.3000000000001,369.21741742300236 744.9000000000001,369.21741742300236L744.9000000000001,375.44082167832147C564.3000000000001,375.44082167832147 564.3000000000001,480.7077127659576 383.70000000000005,480.7077127659576Z" style="stroke: rgb(68, 68, 68); stroke-opacity: 1; fill: rgb(99, 110, 250); fill-opacity: 0.6; stroke-width: 0; opacity: 1;"/><path class="sankey-link" d="M383.70000000000005,480.70771276595764C564.3000000000001,480.70771276595764 564.3000000000001,600.4180237315879 744.9000000000001,600.4180237315879L744.9000000000001,636.202598199673C564.3000000000001,636.202598199673 564.3000000000001,516.4922872340428 383.70000000000005,516.4922872340428Z" style="stroke: rgb(68, 68, 68); stroke-opacity: 1; fill: rgb(99, 110, 250); fill-opacity: 0.6; stroke-width: 0; opacity: 1;"/><path class="sankey-link" d="M383.70000000000005,458.9257978723406C564.3000000000001,458.9257978723406 564.3000000000001,216.36491779497103 744.9000000000001,216.36491779497103L744.9000000000001,231.92342843326892C564.3000000000001,231.92342843326892 564.3000000000001,474.48430851063847 383.70000000000005,474.48430851063847Z" style="stroke: rgb(68, 68, 68); stroke-opacity: 1; fill: rgb(99, 110, 250); fill-opacity: 0.6; stroke-width: 0; opacity: 1;"/><path class="sankey-link" d="M383.70000000000005,592.0994680851065C564.3000000000001,592.0994680851065 564.3000000000001,135.2176517631305 744.9000000000001,135.2176517631305L744.9000000000001,147.66446027376878C564.3000000000001,147.66446027376878 564.3000000000001,604.5462765957448 383.70000000000005,604.5462765957448Z" style="stroke: rgb(68, 68, 68); stroke-opacity: 1; fill: rgb(255, 151, 255); fill-opacity: 0.6; stroke-width: 0; opacity: 1;"/><path class="sankey-link" d="M383.70000000000005,607.6579787234044C564.3000000000001,607.6579787234044 564.3000000000001,375.4408216783215 744.9000000000001,375.4408216783215L744.9000000000001,384.7759280613003C564.3000000000001,384.7759280613003 564.3000000000001,616.9930851063831 383.70000000000005,616.9930851063831Z" style="stroke: rgb(68, 68, 68); stroke-opacity: 1; fill: rgb(255, 151, 255); fill-opacity: 0.6; stroke-width: 0; opacity: 1;"/><path class="sankey-link" d="M383.70000000000005,616.9930851063832C564.3000000000001,616.9930851063832 564.3000000000001,636.202598199673 744.9000000000001,636.202598199673L744.9000000000001,654.8728109656306C564.3000000000001,654.8728109656306 564.3000000000001,635.6632978723408 383.70000000000005,635.6632978723408Z" style="stroke: rgb(68, 68, 68); stroke-opacity: 1; fill: rgb(255, 151, 255); fill-opacity: 0.6; stroke-width: 0; opacity: 1;"/><path class="sankey-link" d="M383.70000000000005,604.5462765957449C564.3000000000001,604.5462765957449 564.3000000000001,231.9234284332689 744.9000000000001,231.9234284332689L744.9000000000001,235.03513056092845C564.3000000000001,235.03513056092845 564.3000000000001,607.6579787234044 383.70000000000005,607.6579787234044Z" style="stroke: rgb(68, 68, 68); stroke-opacity: 1; fill: rgb(255, 151, 255); fill-opacity: 0.6; stroke-width: 0; opacity: 1;"/><path class="sankey-link" d="M383.70000000000005,657.7492021276596C564.3000000000001,657.7492021276596 564.3000000000001,147.6644602737688 744.9000000000001,147.6644602737688L744.9000000000001,153.88786452908798C564.3000000000001,153.88786452908798 564.3000000000001,663.9726063829787 383.70000000000005,663.9726063829787Z" style="stroke: rgb(68, 68, 68); stroke-opacity: 1; fill: rgb(255, 102, 146); fill-opacity: 0.6; stroke-width: 0; opacity: 1;"/><path class="sankey-link" d="M383.70000000000005,667.0843085106383C564.3000000000001,667.0843085106383 564.3000000000001,384.77592806130025 744.9000000000001,384.77592806130025L744.9000000000001,390.99933231661936C564.3000000000001,390.99933231661936 564.3000000000001,673.3077127659574 383.70000000000005,673.3077127659574Z" style="stroke: rgb(68, 68, 68); stroke-opacity: 1; fill: rgb(255, 102, 146); fill-opacity: 0.6; stroke-width: 0; opacity: 1;"/><path class="sankey-link" d="M383.70000000000005,673.3077127659574C564.3000000000001,673.3077127659574 564.3000000000001,654.8728109656305 744.9000000000001,654.8728109656305L744.9000000000001,661.0962152209496C564.3000000000001,661.0962152209496 564.3000000000001,679.5311170212765 383.70000000000005,679.5311170212765Z" style="stroke: rgb(68, 68, 68); stroke-opacity: 1; fill: rgb(255, 102, 146); fill-opacity: 0.6; stroke-width: 0; opacity: 1;"/><path class="sankey-link" d="M383.70000000000005,663.9726063829787C564.3000000000001,663.9726063829787 564.3000000000001,235.03513056092848 744.9000000000001,235.03513056092848L744.9000000000001,238.14683268858803C564.3000000000001,238.14683268858803 564.3000000000001,667.0843085106383 383.70000000000005,667.0843085106383Z" style="stroke: rgb(68, 68, 68); stroke-opacity: 1; fill: rgb(255, 102, 146); fill-opacity: 0.6; stroke-width: 0; opacity: 1;"/><path class="sankey-link" d="M383.70000000000005,701.0257978723405C564.3000000000001,701.0257978723405 564.3000000000001,390.9993323166194 744.9000000000001,390.9993323166194L744.9000000000001,392.5551833804492C564.3000000000001,392.5551833804492 564.3000000000001,702.5816489361703 383.70000000000005,702.5816489361703Z" style="stroke: rgb(68, 68, 68); stroke-opacity: 1; fill: rgb(182, 232, 128); fill-opacity: 0.6; stroke-width: 0; opacity: 1;"/><path class="sankey-link" d="M383.70000000000005,702.5816489361703C564.3000000000001,702.5816489361703 564.3000000000001,661.0962152209496 744.9000000000001,661.0962152209496L744.9000000000001,662.6520662847794C564.3000000000001,662.6520662847794 564.3000000000001,704.1375 383.70000000000005,704.1375Z" style="stroke: rgb(68, 68, 68); stroke-opacity: 1; fill: rgb(182, 232, 128); fill-opacity: 0.6; stroke-width: 0; opacity: 1;"/><path class="sankey-link" d="M759.9000000000001,40.31073686951348C946.19943,40.31073686951348 946.19943,24.061207409611555 1132.49886,24.061207409611555L1132.49886,30.284611664930708C946.19943,30.284611664930708 946.19943,46.53414112483263 759.9000000000001,46.53414112483263Z" style="stroke: rgb(68, 68, 68); stroke-opacity: 1; fill: rgb(25, 211, 243); fill-opacity: 0.6; stroke-width: 0; opacity: 1;"/><path class="sankey-link" d="M759.9000000000001,99.4330772950454C946.19943,99.4330772950454 946.19943,116.14323575360817 1132.49886,116.14323575360817L1132.49886,117.69908681743794C946.19943,117.69908681743794 946.19943,100.98892835887517 759.9000000000001,100.98892835887517Z" style="stroke: rgb(68, 68, 68); stroke-opacity: 1; fill: rgb(25, 211, 243); fill-opacity: 0.6; stroke-width: 0; opacity: 1;"/><path class="sankey-link" d="M759.9000000000001,285.20145997619386C946.19943,285.20145997619386 946.19943,276.7865235828003 1132.49886,276.7865235828003L1132.49886,279.8982257104599C946.19943,279.8982257104599 946.19943,288.3131621038534 759.9000000000001,288.3131621038534Z" style="stroke: rgb(68, 68, 68); stroke-opacity: 1; fill: rgb(25, 211, 243); fill-opacity: 0.6; stroke-width: 0; opacity: 1;"/><path class="sankey-link" d="M759.9000000000001,325.65358763576836C946.19943,325.65358763576836 946.19943,349.1813699598275 1132.49886,349.1813699598275L1132.49886,355.40477421514663C946.19943,355.40477421514663 946.19943,331.87699189108747 759.9000000000001,331.87699189108747Z" style="stroke: rgb(68, 68, 68); stroke-opacity: 1; fill: rgb(25, 211, 243); fill-opacity: 0.6; stroke-width: 0; opacity: 1;"/><path class="sankey-link" d="M759.9000000000001,474.3940875613751C946.19943,474.3940875613751 946.19943,455.6529534295492 1132.49886,455.6529534295492L1132.49886,464.988059812528C946.19943,464.988059812528 946.19943,483.7291939443539 759.9000000000001,483.7291939443539Z" style="stroke: rgb(68, 68, 68); stroke-opacity: 1; fill: rgb(25, 211, 243); fill-opacity: 0.6; stroke-width: 0; opacity: 1;"/><path class="sankey-link" d="M759.9000000000001,561.5217471358432C946.19943,561.5217471358432 946.19943,587.9439313346229 1132.49886,587.9439313346229L1132.49886,589.4997823984527C946.19943,589.4997823984527 946.19943,563.0775981996729 759.9000000000001,563.0775981996729Z" style="stroke: rgb(68, 68, 68); stroke-opacity: 1; fill: rgb(25, 211, 243); fill-opacity: 0.6; stroke-width: 0; opacity: 1;"/><path class="sankey-link" d="M759.9000000000001,46.53414112483263C946.19943,46.53414112483263 946.19943,30.284611664930708 1132.49886,30.284611664930708L1132.49886,44.28727123939879C946.19943,44.28727123939879 946.19943,60.53680069930071 759.9000000000001,60.53680069930071Z" style="stroke: rgb(68, 68, 68); stroke-opacity: 1; fill: rgb(239, 85, 59); fill-opacity: 0.6; stroke-width: 0; opacity: 1;"/><path class="sankey-link" d="M759.9000000000001,100.98892835887519C946.19943,100.98892835887519 946.19943,117.69908681743796 1132.49886,117.69908681743796L1132.49886,122.36664000892732C946.19943,122.36664000892732 946.19943,105.65648155036455 759.9000000000001,105.65648155036455Z" style="stroke: rgb(68, 68, 68); stroke-opacity: 1; fill: rgb(239, 85, 59); fill-opacity: 0.6; stroke-width: 0; opacity: 1;"/><path class="sankey-link" d="M759.9000000000001,288.3131621038534C946.19943,288.3131621038534 946.19943,279.8982257104599 1132.49886,279.8982257104599L1132.49886,284.5657789019492C946.19943,284.5657789019492 946.19943,292.98071529534275 759.9000000000001,292.98071529534275Z" style="stroke: rgb(68, 68, 68); stroke-opacity: 1; fill: rgb(239, 85, 59); fill-opacity: 0.6; stroke-width: 0; opacity: 1;"/><path class="sankey-link" d="M759.9000000000001,331.8769918910875C946.19943,331.8769918910875 946.19943,355.4047742151467 1132.49886,355.4047742151467L1132.49886,372.51913591727435C946.19943,372.51913591727435 946.19943,348.9913535932152 759.9000000000001,348.9913535932152Z" style="stroke: rgb(68, 68, 68); stroke-opacity: 1; fill: rgb(239, 85, 59); fill-opacity: 0.6; stroke-width: 0; opacity: 1;"/><path class="sankey-link" d="M759.9000000000001,483.7291939443538C946.19943,483.7291939443538 946.19943,464.9880598125279 1132.49886,464.9880598125279L1132.49886,482.1024215146556C946.19943,482.1024215146556 946.19943,500.8435556464815 759.9000000000001,500.8435556464815Z" style="stroke: rgb(68, 68, 68); stroke-opacity: 1; fill: rgb(239, 85, 59); fill-opacity: 0.6; stroke-width: 0; opacity: 1;"/><path class="sankey-link" d="M759.9000000000001,563.0775981996729C946.19943,563.0775981996729 946.19943,589.4997823984527 1132.49886,589.4997823984527L1132.49886,608.1699951644102C946.19943,608.1699951644102 946.19943,581.7478109656305 759.9000000000001,581.7478109656305Z" style="stroke: rgb(68, 68, 68); stroke-opacity: 1; fill: rgb(239, 85, 59); fill-opacity: 0.6; stroke-width: 0; opacity: 1;"/><path class="sankey-link" d="M759.9000000000001,224.14417311412C946.19943,224.14417311412 946.19943,239.48538349947927 1132.49886,239.48538349947927L1132.49886,242.59708562713882C946.19943,242.59708562713882 946.19943,227.25587524177956 759.9000000000001,227.25587524177956Z" style="stroke: rgb(68, 68, 68); stroke-opacity: 1; fill: rgb(239, 85, 59); fill-opacity: 0.6; stroke-width: 0; opacity: 1;"/><path class="sankey-link" d="M759.9000000000001,60.53680069930071C946.19943,60.53680069930071 946.19943,44.28727123939879 1132.49886,44.28727123939879L1132.49886,50.510675494717944C946.19943,50.510675494717944 946.19943,66.76020495461987 759.9000000000001,66.76020495461987Z" style="stroke: rgb(68, 68, 68); stroke-opacity: 1; fill: rgb(0, 204, 150); fill-opacity: 0.6; stroke-width: 0; opacity: 1;"/><path class="sankey-link" d="M759.9000000000001,105.65648155036455C946.19943,105.65648155036455 946.19943,122.36664000892732 1132.49886,122.36664000892732L1132.49886,123.9224910727571C946.19943,123.9224910727571 946.19943,107.21233261419432 759.9000000000001,107.21233261419432Z" style="stroke: rgb(68, 68, 68); stroke-opacity: 1; fill: rgb(0, 204, 150); fill-opacity: 0.6; stroke-width: 0; opacity: 1;"/><path class="sankey-link" d="M759.9000000000001,292.9807152953428C946.19943,292.9807152953428 946.19943,284.5657789019493 1132.49886,284.5657789019493L1132.49886,290.7891831572684C946.19943,290.7891831572684 946.19943,299.2041195506619 759.9000000000001,299.2041195506619Z" style="stroke: rgb(68, 68, 68); stroke-opacity: 1; fill: rgb(0, 204, 150); fill-opacity: 0.6; stroke-width: 0; opacity: 1;"/><path class="sankey-link" d="M759.9000000000001,348.9913535932152C946.19943,348.9913535932152 946.19943,372.51913591727435 1132.49886,372.51913591727435L1132.49886,388.07764655557224C946.19943,388.07764655557224 946.19943,364.5498642315131 759.9000000000001,364.5498642315131Z" style="stroke: rgb(68, 68, 68); stroke-opacity: 1; fill: rgb(0, 204, 150); fill-opacity: 0.6; stroke-width: 0; opacity: 1;"/><path class="sankey-link" d="M759.9000000000001,500.8435556464815C946.19943,500.8435556464815 946.19943,482.1024215146556 1132.49886,482.1024215146556L1132.49886,494.5492300252939C946.19943,494.5492300252939 946.19943,513.2903641571198 759.9000000000001,513.2903641571198Z" style="stroke: rgb(68, 68, 68); stroke-opacity: 1; fill: rgb(0, 204, 150); fill-opacity: 0.6; stroke-width: 0; opacity: 1;"/><path class="sankey-link" d="M759.9000000000001,581.7478109656304C946.19943,581.7478109656304 946.19943,608.1699951644101 1132.49886,608.1699951644101L1132.49886,619.0609526112186C946.19943,619.0609526112186 946.19943,592.6387684124388 759.9000000000001,592.6387684124388Z" style="stroke: rgb(68, 68, 68); stroke-opacity: 1; fill: rgb(0, 204, 150); fill-opacity: 0.6; stroke-width: 0; opacity: 1;"/><path class="sankey-link" d="M759.9000000000001,227.2558752417796C946.19943,227.2558752417796 946.19943,242.59708562713885 1132.49886,242.59708562713885L1132.49886,244.15293669096863C946.19943,244.15293669096863 946.19943,228.81172630560937 759.9000000000001,228.81172630560937Z" style="stroke: rgb(68, 68, 68); stroke-opacity: 1; fill: rgb(0, 204, 150); fill-opacity: 0.6; stroke-width: 0; opacity: 1;"/><path class="sankey-link" d="M759.9000000000001,66.76020495461987C946.19943,66.76020495461987 946.19943,50.510675494717944 1132.49886,50.510675494717944L1132.49886,53.62237762237751C946.19943,53.62237762237751 946.19943,69.87190708227945 759.9000000000001,69.87190708227945Z" style="stroke: rgb(68, 68, 68); stroke-opacity: 1; fill: rgb(254, 203, 82); fill-opacity: 0.6; stroke-width: 0; opacity: 1;"/><path class="sankey-link" d="M759.9000000000001,107.21233261419434C946.19943,107.21233261419434 946.19943,123.92249107275711 1132.49886,123.92249107275711L1132.49886,125.47834213658689C946.19943,125.47834213658689 946.19943,108.76818367802412 759.9000000000001,108.76818367802412Z" style="stroke: rgb(68, 68, 68); stroke-opacity: 1; fill: rgb(254, 203, 82); fill-opacity: 0.6; stroke-width: 0; opacity: 1;"/><path class="sankey-link" d="M759.9000000000001,513.2903641571198C946.19943,513.2903641571198 946.19943,494.54923002529387 1132.49886,494.54923002529387L1132.49886,497.6609321529534C946.19943,497.6609321529534 946.19943,516.4020662847794 759.9000000000001,516.4020662847794Z" style="stroke: rgb(68, 68, 68); stroke-opacity: 1; fill: rgb(254, 203, 82); fill-opacity: 0.6; stroke-width: 0; opacity: 1;"/><path class="sankey-link" d="M759.9000000000001,592.6387684124389C946.19943,592.6387684124389 946.19943,619.0609526112187 1132.49886,619.0609526112187L1132.49886,625.2843568665378C946.19943,625.2843568665378 946.19943,598.862172667758 759.9000000000001,598.862172667758Z" style="stroke: rgb(68, 68, 68); stroke-opacity: 1; fill: rgb(254, 203, 82); fill-opacity: 0.6; stroke-width: 0; opacity: 1;"/><path class="sankey-link" d="M759.9000000000001,202.36225822050295C946.19943,202.36225822050295 946.19943,197.45589570004466 1132.49886,197.45589570004466L1132.49886,200.56759782770422C946.19943,200.56759782770422 946.19943,205.4739603481625 759.9000000000001,205.4739603481625Z" style="stroke: rgb(68, 68, 68); stroke-opacity: 1; fill: rgb(254, 203, 82); fill-opacity: 0.6; stroke-width: 0; opacity: 1;"/><path class="sankey-link" d="M759.9000000000001,108.76818367802413C946.19943,108.76818367802413 946.19943,125.4783421365869 1132.49886,125.4783421365869L1132.49886,130.14589532807628C946.19943,130.14589532807628 946.19943,113.43573686951349 759.9000000000001,113.43573686951349Z" style="stroke: rgb(68, 68, 68); stroke-opacity: 1; fill: rgb(255, 161, 90); fill-opacity: 0.6; stroke-width: 0; opacity: 1;"/><path class="sankey-link" d="M759.9000000000001,299.20411955066197C946.19943,299.20411955066197 946.19943,290.78918315726844 1132.49886,290.78918315726844L1132.49886,301.680140604077C946.19943,301.680140604077 946.19943,310.0950769974705 759.9000000000001,310.0950769974705Z" style="stroke: rgb(68, 68, 68); stroke-opacity: 1; fill: rgb(255, 161, 90); fill-opacity: 0.6; stroke-width: 0; opacity: 1;"/><path class="sankey-link" d="M759.9000000000001,364.5498642315131C946.19943,364.5498642315131 946.19943,388.07764655557224 1132.49886,388.07764655557224L1132.49886,392.7451997470616C946.19943,392.7451997470616 946.19943,369.2174174230024 759.9000000000001,369.2174174230024Z" style="stroke: rgb(68, 68, 68); stroke-opacity: 1; fill: rgb(255, 161, 90); fill-opacity: 0.6; stroke-width: 0; opacity: 1;"/><path class="sankey-link" d="M759.9000000000001,516.4020662847794C946.19943,516.4020662847794 946.19943,497.6609321529534 1132.49886,497.6609321529534L1132.49886,500.772634280613C946.19943,500.772634280613 946.19943,519.5137684124389 759.9000000000001,519.5137684124389Z" style="stroke: rgb(68, 68, 68); stroke-opacity: 1; fill: rgb(255, 161, 90); fill-opacity: 0.6; stroke-width: 0; opacity: 1;"/><path class="sankey-link" d="M759.9000000000001,598.862172667758C946.19943,598.862172667758 946.19943,625.2843568665378 1132.49886,625.2843568665378L1132.49886,634.6194632495165C946.19943,634.6194632495165 946.19943,608.1972790507367 759.9000000000001,608.1972790507367Z" style="stroke: rgb(68, 68, 68); stroke-opacity: 1; fill: rgb(255, 161, 90); fill-opacity: 0.6; stroke-width: 0; opacity: 1;"/><path class="sankey-link" d="M759.9000000000001,69.87190708227944C946.19943,69.87190708227944 946.19943,53.62237762237752 1132.49886,53.62237762237752L1132.49886,62.95748400535624C946.19943,62.95748400535624 946.19943,79.20701346525816 759.9000000000001,79.20701346525816Z" style="stroke: rgb(68, 68, 68); stroke-opacity: 1; fill: rgb(171, 99, 250); fill-opacity: 0.6; stroke-width: 0; opacity: 1;"/><path class="sankey-link" d="M759.9000000000001,113.43573686951349C946.19943,113.43573686951349 946.19943,130.14589532807628 1132.49886,130.14589532807628L1132.49886,141.03685277488478C946.19943,141.03685277488478 946.19943,124.32669431632199 759.9000000000001,124.32669431632199Z" style="stroke: rgb(68, 68, 68); stroke-opacity: 1; fill: rgb(171, 99, 250); fill-opacity: 0.6; stroke-width: 0; opacity: 1;"/><path class="sankey-link" d="M759.9000000000001,310.09507699747047C946.19943,310.09507699747047 946.19943,301.68014060407694 1132.49886,301.68014060407694L1132.49886,307.90354485939605C946.19943,307.90354485939605 946.19943,316.3184812527896 759.9000000000001,316.3184812527896Z" style="stroke: rgb(68, 68, 68); stroke-opacity: 1; fill: rgb(171, 99, 250); fill-opacity: 0.6; stroke-width: 0; opacity: 1;"/><path class="sankey-link" d="M759.9000000000001,369.2174174230025C946.19943,369.2174174230025 946.19943,392.74519974706163 1132.49886,392.74519974706163L1132.49886,402.0803061300404C946.19943,402.0803061300404 946.19943,378.55252380598125 759.9000000000001,378.55252380598125Z" style="stroke: rgb(68, 68, 68); stroke-opacity: 1; fill: rgb(171, 99, 250); fill-opacity: 0.6; stroke-width: 0; opacity: 1;"/><path class="sankey-link" d="M759.9000000000001,519.5137684124389C946.19943,519.5137684124389 946.19943,500.772634280613 1132.49886,500.772634280613L1132.49886,516.3311449189108C946.19943,516.3311449189108 946.19943,535.0722790507367 759.9000000000001,535.0722790507367Z" style="stroke: rgb(68, 68, 68); stroke-opacity: 1; fill: rgb(171, 99, 250); fill-opacity: 0.6; stroke-width: 0; opacity: 1;"/><path class="sankey-link" d="M759.9000000000001,608.1972790507368C946.19943,608.1972790507368 946.19943,634.6194632495166 1132.49886,634.6194632495166L1132.49886,653.2896760154741C946.19943,653.2896760154741 946.19943,626.8674918166944 759.9000000000001,626.8674918166944Z" style="stroke: rgb(68, 68, 68); stroke-opacity: 1; fill: rgb(171, 99, 250); fill-opacity: 0.6; stroke-width: 0; opacity: 1;"/><path class="sankey-link" d="M759.9000000000001,205.47396034816254C946.19943,205.47396034816254 946.19943,200.56759782770425 1132.49886,200.56759782770425L1132.49886,205.23515101919364C946.19943,205.23515101919364 946.19943,210.14151353965192 759.9000000000001,210.14151353965192Z" style="stroke: rgb(68, 68, 68); stroke-opacity: 1; fill: rgb(171, 99, 250); fill-opacity: 0.6; stroke-width: 0; opacity: 1;"/><path class="sankey-link" d="M759.9000000000001,228.81172630560937C946.19943,228.81172630560937 946.19943,244.15293669096863 1132.49886,244.15293669096863L1132.49886,245.7087877547984C946.19943,245.7087877547984 946.19943,230.36757736943915 759.9000000000001,230.36757736943915Z" style="stroke: rgb(68, 68, 68); stroke-opacity: 1; fill: rgb(171, 99, 250); fill-opacity: 0.6; stroke-width: 0; opacity: 1;"/><path class="sankey-link" d="M759.9000000000001,79.20701346525816C946.19943,79.20701346525816 946.19943,62.957484005356235 1132.49886,62.957484005356235L1132.49886,75.40429251599454C946.19943,75.40429251599454 946.19943,91.65382197589646 759.9000000000001,91.65382197589646Z" style="stroke: rgb(68, 68, 68); stroke-opacity: 1; fill: rgb(99, 110, 250); fill-opacity: 0.6; stroke-width: 0; opacity: 1;"/><path class="sankey-link" d="M759.9000000000001,124.326694316322C946.19943,124.326694316322 946.19943,141.03685277488478 1132.49886,141.03685277488478L1132.49886,159.70706554084222C946.19943,159.70706554084222 946.19943,142.99690708227945 759.9000000000001,142.99690708227945Z" style="stroke: rgb(68, 68, 68); stroke-opacity: 1; fill: rgb(99, 110, 250); fill-opacity: 0.6; stroke-width: 0; opacity: 1;"/><path class="sankey-link" d="M759.9000000000001,316.31848125278964C946.19943,316.31848125278964 946.19943,307.9035448593961 1132.49886,307.9035448593961L1132.49886,311.01524698705566C946.19943,311.01524698705566 946.19943,319.4301833804492 759.9000000000001,319.4301833804492Z" style="stroke: rgb(68, 68, 68); stroke-opacity: 1; fill: rgb(99, 110, 250); fill-opacity: 0.6; stroke-width: 0; opacity: 1;"/><path class="sankey-link" d="M759.9000000000001,378.5525238059812C946.19943,378.5525238059812 946.19943,402.08030613004036 1132.49886,402.08030613004036L1132.49886,405.1920082576999C946.19943,405.1920082576999 946.19943,381.66422593364075 759.9000000000001,381.66422593364075Z" style="stroke: rgb(68, 68, 68); stroke-opacity: 1; fill: rgb(99, 110, 250); fill-opacity: 0.6; stroke-width: 0; opacity: 1;"/><path class="sankey-link" d="M759.9000000000001,535.0722790507368C946.19943,535.0722790507368 946.19943,516.3311449189108 1132.49886,516.3311449189108L1132.49886,531.8896555572086C946.19943,531.8896555572086 946.19943,550.6307896890346 759.9000000000001,550.6307896890346Z" style="stroke: rgb(68, 68, 68); stroke-opacity: 1; fill: rgb(99, 110, 250); fill-opacity: 0.6; stroke-width: 0; opacity: 1;"/><path class="sankey-link" d="M759.9000000000001,626.8674918166943C946.19943,626.8674918166943 946.19943,653.289676015474 1132.49886,653.289676015474L1132.49886,673.5157398452614C946.19943,673.5157398452614 946.19943,647.0935556464816 759.9000000000001,647.0935556464816Z" style="stroke: rgb(68, 68, 68); stroke-opacity: 1; fill: rgb(99, 110, 250); fill-opacity: 0.6; stroke-width: 0; opacity: 1;"/><path class="sankey-link" d="M759.9000000000001,210.1415135396519C946.19943,210.1415135396519 946.19943,205.2351510191936 1132.49886,205.2351510191936L1132.49886,213.01440633834255C946.19943,213.01440633834255 946.19943,217.92076885880084 759.9000000000001,217.92076885880084Z" style="stroke: rgb(68, 68, 68); stroke-opacity: 1; fill: rgb(99, 110, 250); fill-opacity: 0.6; stroke-width: 0; opacity: 1;"/><path class="sankey-link" d="M759.9000000000001,230.36757736943915C946.19943,230.36757736943915 946.19943,245.7087877547984 1132.49886,245.7087877547984L1132.49886,253.48804307394735C946.19943,253.48804307394735 946.19943,238.1468326885881 759.9000000000001,238.1468326885881Z" style="stroke: rgb(68, 68, 68); stroke-opacity: 1; fill: rgb(99, 110, 250); fill-opacity: 0.6; stroke-width: 0; opacity: 1;"/><path class="sankey-link" d="M759.9000000000001,91.65382197589645C946.19943,91.65382197589645 946.19943,75.40429251599454 1132.49886,75.40429251599454L1132.49886,81.62769677131368C946.19943,81.62769677131368 946.19943,97.87722623121559 759.9000000000001,97.87722623121559Z" style="stroke: rgb(68, 68, 68); stroke-opacity: 1; fill: rgb(255, 151, 255); fill-opacity: 0.6; stroke-width: 0; opacity: 1;"/><path class="sankey-link" d="M759.9000000000001,142.99690708227945C946.19943,142.99690708227945 946.19943,159.70706554084222 1132.49886,159.70706554084222L1132.49886,165.9304697961614C946.19943,165.9304697961614 946.19943,149.22031133759862 759.9000000000001,149.22031133759862Z" style="stroke: rgb(68, 68, 68); stroke-opacity: 1; fill: rgb(255, 151, 255); fill-opacity: 0.6; stroke-width: 0; opacity: 1;"/><path class="sankey-link" d="M759.9000000000001,319.4301833804492C946.19943,319.4301833804492 946.19943,311.01524698705566 1132.49886,311.01524698705566L1132.49886,315.682800178545C946.19943,315.682800178545 946.19943,324.0977365719385 759.9000000000001,324.0977365719385Z" style="stroke: rgb(68, 68, 68); stroke-opacity: 1; fill: rgb(255, 151, 255); fill-opacity: 0.6; stroke-width: 0; opacity: 1;"/><path class="sankey-link" d="M759.9000000000001,381.66422593364075C946.19943,381.66422593364075 946.19943,405.1920082576999 1132.49886,405.1920082576999L1132.49886,409.85956144918924C946.19943,409.85956144918924 946.19943,386.3317791251301 759.9000000000001,386.3317791251301Z" style="stroke: rgb(68, 68, 68); stroke-opacity: 1; fill: rgb(255, 151, 255); fill-opacity: 0.6; stroke-width: 0; opacity: 1;"/><path class="sankey-link" d="M759.9000000000001,550.6307896890347C946.19943,550.6307896890347 946.19943,531.8896555572087 1132.49886,531.8896555572087L1132.49886,538.1130598125278C946.19943,538.1130598125278 946.19943,556.8541939443538 759.9000000000001,556.8541939443538Z" style="stroke: rgb(68, 68, 68); stroke-opacity: 1; fill: rgb(255, 151, 255); fill-opacity: 0.6; stroke-width: 0; opacity: 1;"/><path class="sankey-link" d="M759.9000000000001,647.0935556464815C946.19943,647.0935556464815 946.19943,673.5157398452612 1132.49886,673.5157398452612L1132.49886,685.9625483558995C946.19943,685.9625483558995 946.19943,659.5403641571197 759.9000000000001,659.5403641571197Z" style="stroke: rgb(68, 68, 68); stroke-opacity: 1; fill: rgb(255, 151, 255); fill-opacity: 0.6; stroke-width: 0; opacity: 1;"/><path class="sankey-link" d="M759.9000000000001,217.92076885880084C946.19943,217.92076885880084 946.19943,213.01440633834255 1132.49886,213.01440633834255L1132.49886,216.1261084660021C946.19943,216.1261084660021 946.19943,221.0324709864604 759.9000000000001,221.0324709864604Z" style="stroke: rgb(68, 68, 68); stroke-opacity: 1; fill: rgb(255, 151, 255); fill-opacity: 0.6; stroke-width: 0; opacity: 1;"/><path class="sankey-link" d="M759.9000000000001,97.8772262312156C946.19943,97.8772262312156 946.19943,81.6276967713137 1132.49886,81.6276967713137L1132.49886,83.18354783514347C946.19943,83.18354783514347 946.19943,99.43307729504538 759.9000000000001,99.43307729504538Z" style="stroke: rgb(68, 68, 68); stroke-opacity: 1; fill: rgb(255, 102, 146); fill-opacity: 0.6; stroke-width: 0; opacity: 1;"/><path class="sankey-link" d="M759.9000000000001,149.2203113375986C946.19943,149.2203113375986 946.19943,165.93046979616136 1132.49886,165.93046979616136L1132.49886,170.59802298765075C946.19943,170.59802298765075 946.19943,153.88786452908798 759.9000000000001,153.88786452908798Z" style="stroke: rgb(68, 68, 68); stroke-opacity: 1; fill: rgb(255, 102, 146); fill-opacity: 0.6; stroke-width: 0; opacity: 1;"/><path class="sankey-link" d="M759.9000000000001,324.0977365719386C946.19943,324.0977365719386 946.19943,315.68280017854505 1132.49886,315.68280017854505L1132.49886,317.23865124237483C946.19943,317.23865124237483 946.19943,325.65358763576836 759.9000000000001,325.65358763576836Z" style="stroke: rgb(68, 68, 68); stroke-opacity: 1; fill: rgb(255, 102, 146); fill-opacity: 0.6; stroke-width: 0; opacity: 1;"/><path class="sankey-link" d="M759.9000000000001,386.33177912513014C946.19943,386.33177912513014 946.19943,409.8595614491893 1132.49886,409.8595614491893L1132.49886,414.52711464067863C946.19943,414.52711464067863 946.19943,390.9993323166195 759.9000000000001,390.9993323166195Z" style="stroke: rgb(68, 68, 68); stroke-opacity: 1; fill: rgb(255, 102, 146); fill-opacity: 0.6; stroke-width: 0; opacity: 1;"/><path class="sankey-link" d="M759.9000000000001,556.8541939443538C946.19943,556.8541939443538 946.19943,538.1130598125278 1132.49886,538.1130598125278L1132.49886,541.2247619401874C946.19943,541.2247619401874 946.19943,559.9658960720134 759.9000000000001,559.9658960720134Z" style="stroke: rgb(68, 68, 68); stroke-opacity: 1; fill: rgb(255, 102, 146); fill-opacity: 0.6; stroke-width: 0; opacity: 1;"/><path class="sankey-link" d="M759.9000000000001,659.5403641571198C946.19943,659.5403641571198 946.19943,685.9625483558996 1132.49886,685.9625483558996L1132.49886,689.0742504835591C946.19943,689.0742504835591 946.19943,662.6520662847794 759.9000000000001,662.6520662847794Z" style="stroke: rgb(68, 68, 68); stroke-opacity: 1; fill: rgb(255, 102, 146); fill-opacity: 0.6; stroke-width: 0; opacity: 1;"/><path class="sankey-link" d="M759.9000000000001,221.03247098646042C946.19943,221.03247098646042 946.19943,216.12610846600214 1132.49886,216.12610846600214L1132.49886,219.2378105936617C946.19943,219.2378105936617 946.19943,224.14417311411998 759.9000000000001,224.14417311411998Z" style="stroke: rgb(68, 68, 68); stroke-opacity: 1; fill: rgb(255, 102, 146); fill-opacity: 0.6; stroke-width: 0; opacity: 1;"/><path class="sankey-link" d="M759.9000000000001,390.99933231661953C946.19943,390.99933231661953 946.19943,414.5271146406787 1132.49886,414.5271146406787L1132.49886,416.08296570450847C946.19943,416.08296570450847 946.19943,392.5551833804493 759.9000000000001,392.5551833804493Z" style="stroke: rgb(68, 68, 68); stroke-opacity: 1; fill: rgb(182, 232, 128); fill-opacity: 0.6; stroke-width: 0; opacity: 1;"/><path class="sankey-link" d="M759.9000000000001,559.9658960720134C946.19943,559.9658960720134 946.19943,541.2247619401874 1132.49886,541.2247619401874L1132.49886,542.7806130040171C946.19943,542.7806130040171 946.19943,561.5217471358432 759.9000000000001,561.5217471358432Z" style="stroke: rgb(68, 68, 68); stroke-opacity: 1; fill: rgb(182, 232, 128); fill-opacity: 0.6; stroke-width: 0; opacity: 1;"/></g><g class="sankey-node-set" style="cursor: ns-resize;"><g class="sankey-node" transform="translate(-7.499,15.757)" style="opacity: 1;"><rect class="node-rect" width="15" height="32.67287234042533" style="stroke-width: 0.5; stroke: rgb(0, 0, 0); stroke-opacity: 1; fill: rgb(128, 128, 128); fill-opacity: 1;"/><text class="node-label" data-notex="1" x="0" y="0" text-anchor="start" transform="translate(18.25,20.536436170212664)" style="cursor: default; font-family: 'Open Sans', verdana, arial, sans-serif; font-size: 12px; fill: rgb(42, 63, 95); fill-opacity: 1; white-space: pre; text-shadow: white 1px 1px 1px, white -1px -1px 1px, white 1px -1px 1px, white -1px 1px 1px;">21271R</text></g><g class="sankey-node" transform="translate(-7.499,74.075)" style="opacity: 1;"><rect class="node-rect" width="15" height="238.0452127659576" style="stroke-width: 0.5; stroke: rgb(0, 0, 0); stroke-opacity: 1; fill: rgb(128, 128, 128); fill-opacity: 1;"/><text class="node-label" data-notex="1" x="0" y="0" text-anchor="start" transform="translate(18.25,123.2226063829788)" style="cursor: default; font-family: 'Open Sans', verdana, arial, sans-serif; font-size: 12px; fill: rgb(42, 63, 95); fill-opacity: 1; white-space: pre; text-shadow: white 1px 1px 1px, white -1px -1px 1px, white 1px -1px 1px, white -1px 1px 1px;">21272R</text></g><g class="sankey-node" transform="translate(-7.499,339.123)" style="opacity: 1;"><rect class="node-rect" width="15" height="65.34574468085088" style="stroke-width: 0.5; stroke: rgb(0, 0, 0); stroke-opacity: 1; fill: rgb(128, 128, 128); fill-opacity: 1;"/><text class="node-label" data-notex="1" x="0" y="0" text-anchor="start" transform="translate(18.25,36.872872340425445)" style="cursor: default; font-family: 'Open Sans', verdana, arial, sans-serif; font-size: 12px; fill: rgb(42, 63, 95); fill-opacity: 1; white-space: pre; text-shadow: white 1px 1px 1px, white -1px -1px 1px, white 1px -1px 1px, white -1px 1px 1px;">21965RL</text></g><g class="sankey-node" transform="translate(-7.499,426.753)" style="opacity: 1;"><rect class="node-rect" width="15" height="124.46808510638346" style="stroke-width: 0.5; stroke: rgb(0, 0, 0); stroke-opacity: 1; fill: rgb(128, 128, 128); fill-opacity: 1;"/><text class="node-label" data-notex="1" x="0" y="0" text-anchor="start" transform="translate(18.25,66.43404255319173)" style="cursor: default; font-family: 'Open Sans', verdana, arial, sans-serif; font-size: 12px; fill: rgb(42, 63, 95); fill-opacity: 1; white-space: pre; text-shadow: white 1px 1px 1px, white -1px -1px 1px, white 1px -1px 1px, white -1px 1px 1px;">22384</text></g><g class="sankey-node" transform="translate(-7.499,575.962)" style="opacity: 1;"><rect class="node-rect" width="15" height="124.46808510638289" style="stroke-width: 0.5; stroke: rgb(0, 0, 0); stroke-opacity: 1; fill: rgb(128, 128, 128); fill-opacity: 1;"/><text class="node-label" data-notex="1" x="0" y="0" text-anchor="start" transform="translate(18.25,66.43404255319145)" style="cursor: default; font-family: 'Open Sans', verdana, arial, sans-serif; font-size: 12px; fill: rgb(42, 63, 95); fill-opacity: 1; white-space: pre; text-shadow: white 1px 1px 1px, white -1px -1px 1px, white 1px -1px 1px, white -1px 1px 1px;">22670</text></g><g class="sankey-node" transform="translate(744.900,40.311)" style="opacity: 1;"><rect class="node-rect" width="15" height="113.57712765957444" style="stroke-width: 0.5; stroke: rgb(0, 0, 0); stroke-opacity: 1; fill: rgb(128, 128, 128); fill-opacity: 1;"/><text class="node-label" data-notex="1" x="0" y="0" text-anchor="start" transform="translate(18.25,60.988563829787225)" style="cursor: default; font-family: 'Open Sans', verdana, arial, sans-serif; font-size: 12px; fill: rgb(42, 63, 95); fill-opacity: 1; white-space: pre; text-shadow: white 1px 1px 1px, white -1px -1px 1px, white 1px -1px 1px, white -1px 1px 1px;">Aggressor</text></g><g class="sankey-node" transform="translate(744.900,202.362)" style="opacity: 1;"><rect class="node-rect" width="15" height="35.78457446808511" style="stroke-width: 0.5; stroke: rgb(0, 0, 0); stroke-opacity: 1; fill: rgb(128, 128, 128); fill-opacity: 1;"/><text class="node-label" data-notex="1" x="0" y="0" text-anchor="start" transform="translate(18.25,22.092287234042555)" style="cursor: default; font-family: 'Open Sans', verdana, arial, sans-serif; font-size: 12px; fill: rgb(42, 63, 95); fill-opacity: 1; white-space: pre; text-shadow: white 1px 1px 1px, white -1px -1px 1px, white 1px -1px 1px, white -1px 1px 1px;">Target of Aggression</text></g><g class="sankey-node" transform="translate(744.900,285.201)" style="opacity: 1;"><rect class="node-rect" width="15" height="107.35372340425579" style="stroke-width: 0.5; stroke: rgb(0, 0, 0); stroke-opacity: 1; fill: rgb(128, 128, 128); fill-opacity: 1;"/><text class="node-label" data-notex="1" x="0" y="0" text-anchor="start" transform="translate(18.25,57.8768617021279)" style="cursor: default; font-family: 'Open Sans', verdana, arial, sans-serif; font-size: 12px; fill: rgb(42, 63, 95); fill-opacity: 1; white-space: pre; text-shadow: white 1px 1px 1px, white -1px -1px 1px, white 1px -1px 1px, white -1px 1px 1px;">NonSocial</text></g><g class="sankey-node" transform="translate(744.900,474.394)" style="opacity: 1;"><rect class="node-rect" width="15" height="188.25797872340394" style="stroke-width: 0.5; stroke: rgb(0, 0, 0); stroke-opacity: 1; fill: rgb(128, 128, 128); fill-opacity: 1;"/><text class="node-label" data-notex="1" x="0" y="0" text-anchor="start" transform="translate(18.25,98.32898936170197)" style="cursor: default; font-family: 'Open Sans', verdana, arial, sans-serif; font-size: 12px; fill: rgb(42, 63, 95); fill-opacity: 1; white-space: pre; text-shadow: white 1px 1px 1px, white -1px -1px 1px, white 1px -1px 1px, white -1px 1px 1px;">Social</text></g><g class="sankey-node" transform="translate(1132.499,24.061)" style="opacity: 1;"><rect class="node-rect" width="15" height="59.122340425532144" style="stroke-width: 0.5; stroke: rgb(0, 0, 0); stroke-opacity: 1; fill: rgb(128, 128, 128); fill-opacity: 1;"/><text class="node-label" data-notex="1" x="0" y="0" text-anchor="end" transform="translate(-3.25,33.761170212766075)" style="cursor: default; font-family: 'Open Sans', verdana, arial, sans-serif; font-size: 12px; fill: rgb(42, 63, 95); fill-opacity: 1; white-space: pre; text-shadow: white 1px 1px 1px, white -1px -1px 1px, white 1px -1px 1px, white -1px 1px 1px;">Aggressor-activated</text></g><g class="sankey-node" transform="translate(1132.499,116.143)" style="opacity: 1;"><rect class="node-rect" width="15" height="54.45478723404244" style="stroke-width: 0.5; stroke: rgb(0, 0, 0); stroke-opacity: 1; fill: rgb(128, 128, 128); fill-opacity: 1;"/><text class="node-label" data-notex="1" x="0" y="0" text-anchor="end" transform="translate(-3.25,31.42739361702122)" style="cursor: default; font-family: 'Open Sans', verdana, arial, sans-serif; font-size: 12px; fill: rgb(42, 63, 95); fill-opacity: 1; white-space: pre; text-shadow: white 1px 1px 1px, white -1px -1px 1px, white 1px -1px 1px, white -1px 1px 1px;">Aggressor-suppressed</text></g><g class="sankey-node" transform="translate(1132.499,197.456)" style="opacity: 1;"><rect class="node-rect" width="15" height="21.781914893617" style="stroke-width: 0.5; stroke: rgb(0, 0, 0); stroke-opacity: 1; fill: rgb(128, 128, 128); fill-opacity: 1;"/><text class="node-label" data-notex="1" x="0" y="0" text-anchor="end" transform="translate(-3.25,15.090957446808499)" style="cursor: default; font-family: 'Open Sans', verdana, arial, sans-serif; font-size: 12px; fill: rgb(42, 63, 95); fill-opacity: 1; white-space: pre; text-shadow: white 1px 1px 1px, white -1px -1px 1px, white 1px -1px 1px, white -1px 1px 1px;">Target of Aggression-activated</text></g><g class="sankey-node" transform="translate(1132.499,239.485)" style="opacity: 1;"><rect class="node-rect" width="15" height="14.002659574468112" style="stroke-width: 0.5; stroke: rgb(0, 0, 0); stroke-opacity: 1; fill: rgb(128, 128, 128); fill-opacity: 1;"/><text class="node-label" data-notex="1" x="0" y="0" text-anchor="end" transform="translate(-3.25,11.201329787234055)" style="cursor: default; font-family: 'Open Sans', verdana, arial, sans-serif; font-size: 12px; fill: rgb(42, 63, 95); fill-opacity: 1; white-space: pre; text-shadow: white 1px 1px 1px, white -1px -1px 1px, white 1px -1px 1px, white -1px 1px 1px;">Target of Aggression-suppressed</text></g><g class="sankey-node" transform="translate(1132.499,276.787)" style="opacity: 1;"><rect class="node-rect" width="15" height="40.45212765957433" style="stroke-width: 0.5; stroke: rgb(0, 0, 0); stroke-opacity: 1; fill: rgb(128, 128, 128); fill-opacity: 1;"/><text class="node-label" data-notex="1" x="0" y="0" text-anchor="end" transform="translate(-3.25,24.426063829787164)" style="cursor: default; font-family: 'Open Sans', verdana, arial, sans-serif; font-size: 12px; fill: rgb(42, 63, 95); fill-opacity: 1; white-space: pre; text-shadow: white 1px 1px 1px, white -1px -1px 1px, white 1px -1px 1px, white -1px 1px 1px;">NonSocial-activated</text></g><g class="sankey-node" transform="translate(1132.499,349.181)" style="opacity: 1;"><rect class="node-rect" width="15" height="66.90159574468078" style="stroke-width: 0.5; stroke: rgb(0, 0, 0); stroke-opacity: 1; fill: rgb(128, 128, 128); fill-opacity: 1;"/><text class="node-label" data-notex="1" x="0" y="0" text-anchor="end" transform="translate(-3.25,37.65079787234039)" style="cursor: default; font-family: 'Open Sans', verdana, arial, sans-serif; font-size: 12px; fill: rgb(42, 63, 95); fill-opacity: 1; white-space: pre; text-shadow: white 1px 1px 1px, white -1px -1px 1px, white 1px -1px 1px, white -1px 1px 1px;">NonSocial-suppressed</text></g><g class="sankey-node" transform="translate(1132.499,455.653)" style="opacity: 1;"><rect class="node-rect" width="15" height="87.12765957446817" style="stroke-width: 0.5; stroke: rgb(0, 0, 0); stroke-opacity: 1; fill: rgb(128, 128, 128); fill-opacity: 1;"/><text class="node-label" data-notex="1" x="0" y="0" text-anchor="end" transform="translate(-3.25,47.76382978723409)" style="cursor: default; font-family: 'Open Sans', verdana, arial, sans-serif; font-size: 12px; fill: rgb(42, 63, 95); fill-opacity: 1; white-space: pre; text-shadow: white 1px 1px 1px, white -1px -1px 1px, white 1px -1px 1px, white -1px 1px 1px;">Social-activated</text></g><g class="sankey-node" transform="translate(1132.499,587.944)" style="opacity: 1;"><rect class="node-rect" width="15" height="101.13031914893622" style="stroke-width: 0.5; stroke: rgb(0, 0, 0); stroke-opacity: 1; fill: rgb(128, 128, 128); fill-opacity: 1;"/><text class="node-label" data-notex="1" x="0" y="0" text-anchor="end" transform="translate(-3.25,54.765159574468115)" style="cursor: default; font-family: 'Open Sans', verdana, arial, sans-serif; font-size: 12px; fill: rgb(42, 63, 95); fill-opacity: 1; white-space: pre; text-shadow: white 1px 1px 1px, white -1px -1px 1px, white 1px -1px 1px, white -1px 1px 1px;">Social-suppressed</text></g><g class="sankey-node" transform="translate(368.700,13.747)" style="opacity: 1;"><rect class="node-rect" width="15" height="32.672872340425556" style="stroke-width: 0.5; stroke: rgb(0, 0, 0); stroke-opacity: 1; fill: rgb(25, 211, 243); fill-opacity: 1;"/><text class="node-label" data-notex="1" x="0" y="0" text-anchor="start" transform="translate(18.25,20.536436170212777)" style="cursor: default; font-family: 'Open Sans', verdana, arial, sans-serif; font-size: 12px; fill: rgb(42, 63, 95); fill-opacity: 1; white-space: pre; text-shadow: white 1px 1px 1px, white -1px -1px 1px, white 1px -1px 1px, white -1px 1px 1px;">BLA</text></g><g class="sankey-node" transform="translate(368.700,58.268)" style="opacity: 1;"><rect class="node-rect" width="15" height="94.90691489361677" style="stroke-width: 0.5; stroke: rgb(0, 0, 0); stroke-opacity: 1; fill: rgb(239, 85, 59); fill-opacity: 1;"/><text class="node-label" data-notex="1" x="0" y="0" text-anchor="start" transform="translate(18.25,51.65345744680839)" style="cursor: default; font-family: 'Open Sans', verdana, arial, sans-serif; font-size: 12px; fill: rgb(42, 63, 95); fill-opacity: 1; white-space: pre; text-shadow: white 1px 1px 1px, white -1px -1px 1px, white 1px -1px 1px, white -1px 1px 1px;">Cla</text></g><g class="sankey-node" transform="translate(368.700,164.463)" style="opacity: 1;"><rect class="node-rect" width="15" height="60.67819148936178" style="stroke-width: 0.5; stroke: rgb(0, 0, 0); stroke-opacity: 1; fill: rgb(0, 204, 150); fill-opacity: 1;"/><text class="node-label" data-notex="1" x="0" y="0" text-anchor="start" transform="translate(18.25,34.53909574468089)" style="cursor: default; font-family: 'Open Sans', verdana, arial, sans-serif; font-size: 12px; fill: rgb(42, 63, 95); fill-opacity: 1; white-space: pre; text-shadow: white 1px 1px 1px, white -1px -1px 1px, white 1px -1px 1px, white -1px 1px 1px;">LC</text></g><g class="sankey-node" transform="translate(368.700,237.705)" style="opacity: 1;"><rect class="node-rect" width="15" height="31.11702127659575" style="stroke-width: 0.5; stroke: rgb(0, 0, 0); stroke-opacity: 1; fill: rgb(254, 203, 82); fill-opacity: 1;"/><text class="node-label" data-notex="1" x="0" y="0" text-anchor="start" transform="translate(18.25,19.758510638297874)" style="cursor: default; font-family: 'Open Sans', verdana, arial, sans-serif; font-size: 12px; fill: rgb(42, 63, 95); fill-opacity: 1; white-space: pre; text-shadow: white 1px 1px 1px, white -1px -1px 1px, white 1px -1px 1px, white -1px 1px 1px;">LHyp</text></g><g class="sankey-node" transform="translate(368.700,281.791)" style="opacity: 1;"><rect class="node-rect" width="15" height="40.4521276595749" style="stroke-width: 0.5; stroke: rgb(0, 0, 0); stroke-opacity: 1; fill: rgb(255, 161, 90); fill-opacity: 1;"/><text class="node-label" data-notex="1" x="0" y="0" text-anchor="start" transform="translate(18.25,24.42606382978745)" style="cursor: default; font-family: 'Open Sans', verdana, arial, sans-serif; font-size: 12px; fill: rgb(42, 63, 95); fill-opacity: 1; white-space: pre; text-shadow: white 1px 1px 1px, white -1px -1px 1px, white 1px -1px 1px, white -1px 1px 1px;">NAc</text></g><g class="sankey-node" transform="translate(368.700,334.154)" style="opacity: 1;"><rect class="node-rect" width="15" height="84.0159574468081" style="stroke-width: 0.5; stroke: rgb(0, 0, 0); stroke-opacity: 1; fill: rgb(171, 99, 250); fill-opacity: 1;"/><text class="node-label" data-notex="1" x="0" y="0" text-anchor="start" transform="translate(18.25,46.207978723404054)" style="cursor: default; font-family: 'Open Sans', verdana, arial, sans-serif; font-size: 12px; fill: rgb(42, 63, 95); fill-opacity: 1; white-space: pre; text-shadow: white 1px 1px 1px, white -1px -1px 1px, white 1px -1px 1px, white -1px 1px 1px;">Str</text></g><g class="sankey-node" transform="translate(368.700,427.809)" style="opacity: 1;"><rect class="node-rect" width="15" height="154.02925531914883" style="stroke-width: 0.5; stroke: rgb(0, 0, 0); stroke-opacity: 1; fill: rgb(99, 110, 250); fill-opacity: 1;"/><text class="node-label" data-notex="1" x="0" y="0" text-anchor="start" transform="translate(18.25,81.21462765957442)" style="cursor: default; font-family: 'Open Sans', verdana, arial, sans-serif; font-size: 12px; fill: rgb(42, 63, 95); fill-opacity: 1; white-space: pre; text-shadow: white 1px 1px 1px, white -1px -1px 1px, white 1px -1px 1px, white -1px 1px 1px;">VTA</text></g><g class="sankey-node" transform="translate(368.700,592.099)" style="opacity: 1;"><rect class="node-rect" width="15" height="52.898936170212664" style="stroke-width: 0.5; stroke: rgb(0, 0, 0); stroke-opacity: 1; fill: rgb(255, 151, 255); fill-opacity: 1;"/><text class="node-label" data-notex="1" x="0" y="0" text-anchor="start" transform="translate(18.25,30.64946808510633)" style="cursor: default; font-family: 'Open Sans', verdana, arial, sans-serif; font-size: 12px; fill: rgb(42, 63, 95); fill-opacity: 1; white-space: pre; text-shadow: white 1px 1px 1px, white -1px -1px 1px, white 1px -1px 1px, white -1px 1px 1px;">cPFC</text></g><g class="sankey-node" transform="translate(368.700,657.749)" style="opacity: 1;"><rect class="node-rect" width="15" height="29.561170212766" style="stroke-width: 0.5; stroke: rgb(0, 0, 0); stroke-opacity: 1; fill: rgb(255, 102, 146); fill-opacity: 1;"/><text class="node-label" data-notex="1" x="0" y="0" text-anchor="start" transform="translate(18.25,18.980585106383)" style="cursor: default; font-family: 'Open Sans', verdana, arial, sans-serif; font-size: 12px; fill: rgb(42, 63, 95); fill-opacity: 1; white-space: pre; text-shadow: white 1px 1px 1px, white -1px -1px 1px, white 1px -1px 1px, white -1px 1px 1px;">dPAG</text></g><g class="sankey-node" transform="translate(368.700,701.026)" style="opacity: 1;"><rect class="node-rect" width="15" height="4.667553191489333" style="stroke-width: 0.5; stroke: rgb(0, 0, 0); stroke-opacity: 1; fill: rgb(182, 232, 128); fill-opacity: 1;"/><text class="node-label" data-notex="1" x="0" y="0" text-anchor="start" transform="translate(18.25,6.533776595744666)" style="cursor: default; font-family: 'Open Sans', verdana, arial, sans-serif; font-size: 12px; fill: rgb(42, 63, 95); fill-opacity: 1; white-space: pre; text-shadow: white 1px 1px 1px, white -1px -1px 1px, white 1px -1px 1px, white -1px 1px 1px;">lHb</text></g></g></g><defs id="topdefs-9ea595"><g class="clips"/></defs><g class="layer-above"><g class="imagelayer"/><g class="shapelayer"/></g><g class="infolayer"><g class="g-gtitle"/><g class="first-render"/></g></svg>