<svg class="main-svg" xmlns="http://www.w3.org/2000/svg" xmlns:xlink="http://www.w3.org/1999/xlink" width="1300" height="900" viewBox="0 0 1300 900" style=""><rect x="0" y="0" width="1300" height="900" style="fill: rgb(255, 255, 255); fill-opacity: 1;"/><defs id="defs-7618c4"><g class="clips"/><g class="gradients"/><g class="patterns"/></defs><g class="bglayer"/><g class="layer-below"><g class="imagelayer"/><g class="shapelayer"/></g><g class="cartesianlayer"/><g class="polarlayer"/><g class="smithlayer"/><g class="ternarylayer"/><g class="geolayer"/><g class="funnelarealayer"/><g class="pielayer"/><g class="iciclelayer"/><g class="treemaplayer"/><g class="sunburstlayer"/><g class="glimages"/><g class="sankey" transform="translate(80,100)matrix(1 0 0 1 0 0)" style="box-sizing: content-box; position: absolute; left: 0px; shape-rendering: geometricprecision; pointer-events: none;"><g class="sankey-links" style="fill: none;"><path class="sankey-link" d="M15,375.6716417910445C195,375.6716417910445 195,26.194029850746496 375,26.194029850746496L375,27.940298507462913C195,27.940298507462913 195,377.41791044776096 15,377.41791044776096Z" style="stroke: rgb(68, 68, 68); stroke-opacity: 1; fill: rgb(25, 211, 243); fill-opacity: 0.6; stroke-width: 0; opacity: 1;"/><path class="sankey-link" d="M15,417.58208955223853C195,417.58208955223853 195,409.5671641791044 375,409.5671641791044L375,430.5223880597014C195,430.5223880597014 195,438.53731343283556 15,438.53731343283556Z" style="stroke: rgb(68, 68, 68); stroke-opacity: 1; fill: rgb(0, 204, 150); fill-opacity: 0.6; stroke-width: 0; opacity: 1;"/><path class="sankey-link" d="M15,405.35820895522363C195,405.35820895522363 195,300.98507462686587 375,300.98507462686587L375,309.71641791044794C195,309.71641791044794 195,414.0895522388057 15,414.0895522388057Z" style="stroke: rgb(68, 68, 68); stroke-opacity: 1; fill: rgb(239, 85, 59); fill-opacity: 0.6; stroke-width: 0; opacity: 1;"/><path class="sankey-link" d="M15,394.8805970149251C195,394.8805970149251 195,192.40298507462708 375,192.40298507462708L375,202.8805970149256C195,202.8805970149256 195,405.35820895522363 15,405.35820895522363Z" style="stroke: rgb(68, 68, 68); stroke-opacity: 1; fill: rgb(255, 161, 90); fill-opacity: 0.6; stroke-width: 0; opacity: 1;"/><path class="sankey-link" d="M15,377.41791044776096C195,377.41791044776096 195,105.805970149254 375,105.805970149254L375,123.26865671641818C195,123.26865671641818 195,394.8805970149251 15,394.8805970149251Z" style="stroke: rgb(68, 68, 68); stroke-opacity: 1; fill: rgb(171, 99, 250); fill-opacity: 0.6; stroke-width: 0; opacity: 1;"/><path class="sankey-link" d="M15,438.53731343283556C195,438.53731343283556 195,551.328358208955 375,551.328358208955L375,554.8208955223879C195,554.8208955223879 195,442.02985074626844 15,442.02985074626844Z" style="stroke: rgb(68, 68, 68); stroke-opacity: 1; fill: rgb(99, 110, 250); fill-opacity: 0.6; stroke-width: 0; opacity: 1;"/><path class="sankey-link" d="M15,414.0895522388057C195,414.0895522388057 195,347.41791044776113 375,347.41791044776113L375,350.910447761194C195,350.910447761194 195,417.5820895522386 15,417.5820895522386Z" style="stroke: rgb(68, 68, 68); stroke-opacity: 1; fill: rgb(255, 102, 146); fill-opacity: 0.6; stroke-width: 0; opacity: 1;"/><path class="sankey-link" d="M15,89.99999999999969C195,89.99999999999969 195,2.2737367544323206e-13 375,2.2737367544323206e-13L375,26.194029850746496C195,26.194029850746496 195,116.19402985074595 15,116.19402985074595Z" style="stroke: rgb(68, 68, 68); stroke-opacity: 1; fill: rgb(25, 211, 243); fill-opacity: 0.6; stroke-width: 0; opacity: 1;"/><path class="sankey-link" d="M15,271.6119402985071C195,271.6119402985071 195,365.91044776119395 375,365.91044776119395L375,409.56716417910445C195,409.56716417910445 195,315.2686567164176 15,315.2686567164176Z" style="stroke: rgb(68, 68, 68); stroke-opacity: 1; fill: rgb(0, 204, 150); fill-opacity: 0.6; stroke-width: 0; opacity: 1;"/><path class="sankey-link" d="M15,220.97014925373102C195,220.97014925373102 195,255.58208955223895 375,255.58208955223895L375,300.9850746268658C195,300.9850746268658 195,266.3731343283579 15,266.3731343283579Z" style="stroke: rgb(68, 68, 68); stroke-opacity: 1; fill: rgb(239, 85, 59); fill-opacity: 0.6; stroke-width: 0; opacity: 1;"/><path class="sankey-link" d="M15,179.059701492537C195,179.059701492537 195,169.70149253731364 375,169.70149253731364L375,192.40298507462705C195,192.40298507462705 195,201.7611940298504 15,201.7611940298504Z" style="stroke: rgb(68, 68, 68); stroke-opacity: 1; fill: rgb(255, 161, 90); fill-opacity: 0.6; stroke-width: 0; opacity: 1;"/><path class="sankey-link" d="M15,116.19402985074595C195,116.19402985074595 195,42.940298507462956 375,42.940298507462956L375,105.805970149254C195,105.805970149254 195,179.059701492537 15,179.059701492537Z" style="stroke: rgb(68, 68, 68); stroke-opacity: 1; fill: rgb(171, 99, 250); fill-opacity: 0.6; stroke-width: 0; opacity: 1;"/><path class="sankey-link" d="M15,344.9552238805967C195,344.9552238805967 195,535.6119402985073 375,535.6119402985073L375,551.328358208955C195,551.328358208955 195,360.6716417910444 15,360.6716417910444Z" style="stroke: rgb(68, 68, 68); stroke-opacity: 1; fill: rgb(99, 110, 250); fill-opacity: 0.6; stroke-width: 0; opacity: 1;"/><path class="sankey-link" d="M15,315.2686567164176C195,315.2686567164176 195,466.4776119402984 375,466.4776119402984L375,496.1641791044775C195,496.1641791044775 195,344.9552238805967 15,344.9552238805967Z" style="stroke: rgb(68, 68, 68); stroke-opacity: 1; fill: rgb(255, 151, 255); fill-opacity: 0.6; stroke-width: 0; opacity: 1;"/><path class="sankey-link" d="M15,201.76119402985043C195,201.76119402985043 195,217.88059701492534 375,217.88059701492534L375,237.08955223880594C195,237.08955223880594 195,220.97014925373102 15,220.97014925373102Z" style="stroke: rgb(68, 68, 68); stroke-opacity: 1; fill: rgb(182, 232, 128); fill-opacity: 0.6; stroke-width: 0; opacity: 1;"/><path class="sankey-link" d="M15,266.3731343283579C195,266.3731343283579 195,342.1791044776119 375,342.1791044776119L375,347.4179104477611C195,347.4179104477611 195,271.6119402985071 15,271.6119402985071Z" style="stroke: rgb(68, 68, 68); stroke-opacity: 1; fill: rgb(255, 102, 146); fill-opacity: 0.6; stroke-width: 0; opacity: 1;"/><path class="sankey-link" d="M15,483.2238805970148C195,483.2238805970148 195,430.5223880597014 375,430.5223880597014L375,440.99999999999994C195,440.99999999999994 195,493.7014925373133 15,493.7014925373133Z" style="stroke: rgb(68, 68, 68); stroke-opacity: 1; fill: rgb(0, 204, 150); fill-opacity: 0.6; stroke-width: 0; opacity: 1;"/><path class="sankey-link" d="M15,474.4925373134327C195,474.4925373134327 195,309.71641791044794 375,309.71641791044794L375,318.44776119403C195,318.44776119403 195,483.2238805970148 15,483.2238805970148Z" style="stroke: rgb(68, 68, 68); stroke-opacity: 1; fill: rgb(239, 85, 59); fill-opacity: 0.6; stroke-width: 0; opacity: 1;"/><path class="sankey-link" d="M15,567.0447761194029C195,567.0447761194029 195,692.0597014925368 375,692.0597014925368L375,706.029850746268C195,706.029850746268 195,581.0149253731341 15,581.0149253731341Z" style="stroke: rgb(68, 68, 68); stroke-opacity: 1; fill: rgb(254, 203, 82); fill-opacity: 0.6; stroke-width: 0; opacity: 1;"/><path class="sankey-link" d="M15,457.0298507462685C195,457.0298507462685 195,123.26865671641818 375,123.26865671641818L375,138.98507462686595C195,138.98507462686595 195,472.7462686567162 15,472.7462686567162Z" style="stroke: rgb(68, 68, 68); stroke-opacity: 1; fill: rgb(171, 99, 250); fill-opacity: 0.6; stroke-width: 0; opacity: 1;"/><path class="sankey-link" d="M15,505.9253731343282C195,505.9253731343282 195,554.8208955223879 375,554.8208955223879L375,615.9402985074626C195,615.9402985074626 195,567.0447761194029 15,567.0447761194029Z" style="stroke: rgb(68, 68, 68); stroke-opacity: 1; fill: rgb(99, 110, 250); fill-opacity: 0.6; stroke-width: 0; opacity: 1;"/><path class="sankey-link" d="M15,493.7014925373133C195,493.7014925373133 195,496.1641791044775 375,496.1641791044775L375,508.38805970149247C195,508.38805970149247 195,505.92537313432825 15,505.92537313432825Z" style="stroke: rgb(68, 68, 68); stroke-opacity: 1; fill: rgb(255, 151, 255); fill-opacity: 0.6; stroke-width: 0; opacity: 1;"/><path class="sankey-link" d="M15,472.74626865671627C195,472.74626865671627 195,237.08955223880594 375,237.08955223880594L375,238.83582089552237C195,238.83582089552237 195,474.4925373134327 15,474.4925373134327Z" style="stroke: rgb(68, 68, 68); stroke-opacity: 1; fill: rgb(182, 232, 128); fill-opacity: 0.6; stroke-width: 0; opacity: 1;"/><path class="sankey-link" d="M15,622.2089552238805C195,622.2089552238805 195,440.99999999999994 375,440.99999999999994L375,451.47761194029846C195,451.47761194029846 195,632.6865671641789 15,632.6865671641789Z" style="stroke: rgb(68, 68, 68); stroke-opacity: 1; fill: rgb(0, 204, 150); fill-opacity: 0.6; stroke-width: 0; opacity: 1;"/><path class="sankey-link" d="M15,613.4776119402984C195,613.4776119402984 195,318.44776119403 375,318.44776119403L375,327.1791044776121C195,327.1791044776121 195,622.2089552238806 15,622.2089552238806Z" style="stroke: rgb(68, 68, 68); stroke-opacity: 1; fill: rgb(239, 85, 59); fill-opacity: 0.6; stroke-width: 0; opacity: 1;"/><path class="sankey-link" d="M15,706.0298507462686C195,706.0298507462686 195,706.0298507462682 375,706.0298507462682L375,719.9999999999994C195,719.9999999999994 195,719.9999999999999 15,719.9999999999999Z" style="stroke: rgb(68, 68, 68); stroke-opacity: 1; fill: rgb(254, 203, 82); fill-opacity: 0.6; stroke-width: 0; opacity: 1;"/><path class="sankey-link" d="M15,596.0149253731342C195,596.0149253731342 195,138.98507462686592 375,138.98507462686592L375,154.7014925373137C195,154.7014925373137 195,611.731343283582 15,611.731343283582Z" style="stroke: rgb(68, 68, 68); stroke-opacity: 1; fill: rgb(171, 99, 250); fill-opacity: 0.6; stroke-width: 0; opacity: 1;"/><path class="sankey-link" d="M15,644.910447761194C195,644.910447761194 195,615.9402985074626 375,615.9402985074626L375,677.0597014925372C195,677.0597014925372 195,706.0298507462686 15,706.0298507462686Z" style="stroke: rgb(68, 68, 68); stroke-opacity: 1; fill: rgb(99, 110, 250); fill-opacity: 0.6; stroke-width: 0; opacity: 1;"/><path class="sankey-link" d="M15,632.686567164179C195,632.686567164179 195,508.3880597014924 375,508.3880597014924L375,520.6119402985073C195,520.6119402985073 195,644.9104477611938 15,644.9104477611938Z" style="stroke: rgb(68, 68, 68); stroke-opacity: 1; fill: rgb(255, 151, 255); fill-opacity: 0.6; stroke-width: 0; opacity: 1;"/><path class="sankey-link" d="M15,611.731343283582C195,611.731343283582 195,238.83582089552235 375,238.83582089552235L375,240.58208955223878C195,240.58208955223878 195,613.4776119402984 15,613.4776119402984Z" style="stroke: rgb(68, 68, 68); stroke-opacity: 1; fill: rgb(182, 232, 128); fill-opacity: 0.6; stroke-width: 0; opacity: 1;"/><path class="sankey-link" d="M390,12.223880597015153C570,12.223880597015153 570,362.17165263263905 750,362.17165263263905L750,369.1567272595047C570,369.1567272595047 570,19.208955223880825 390,19.208955223880825Z" style="stroke: rgb(68, 68, 68); stroke-opacity: 1; fill: rgb(25, 211, 243); fill-opacity: 0.6; stroke-width: 0; opacity: 1;"/><path class="sankey-link" d="M390,2.2737367544323206e-13C570,2.2737367544323206e-13 570,240.6492645729378 750,240.6492645729378L750,252.87314516995275C570,252.87314516995275 570,12.223880597015153 390,12.223880597015153Z" style="stroke: rgb(68, 68, 68); stroke-opacity: 1; fill: rgb(25, 211, 243); fill-opacity: 0.6; stroke-width: 0; opacity: 1;"/><path class="sankey-link" d="M390,19.208955223880825C570,19.208955223880825 570,495.9179212893557 750,495.9179212893557L750,499.4104586027886C570,499.4104586027886 570,22.70149253731366 390,22.70149253731366Z" style="stroke: rgb(68, 68, 68); stroke-opacity: 1; fill: rgb(25, 211, 243); fill-opacity: 0.6; stroke-width: 0; opacity: 1;"/><path class="sankey-link" d="M390,383.3731343283581C570,383.3731343283581 570,423.29105561771377 750,423.29105561771377L750,444.2462794983108C570,444.2462794983108 570,404.32835820895514 390,404.32835820895514Z" style="stroke: rgb(68, 68, 68); stroke-opacity: 1; fill: rgb(0, 204, 150); fill-opacity: 0.6; stroke-width: 0; opacity: 1;"/><path class="sankey-link" d="M390,365.91044776119395C570,365.91044776119395 570,313.9925481550274 750,313.9925481550274L750,331.45523472219156C570,331.45523472219156 570,383.3731343283581 390,383.3731343283581Z" style="stroke: rgb(68, 68, 68); stroke-opacity: 1; fill: rgb(0, 204, 150); fill-opacity: 0.6; stroke-width: 0; opacity: 1;"/><path class="sankey-link" d="M390,404.32835820895514C570,404.32835820895514 570,544.8134436774153 750,544.8134436774153L750,560.529861587863C570,560.529861587863 570,420.04477611940285 390,420.04477611940285Z" style="stroke: rgb(68, 68, 68); stroke-opacity: 1; fill: rgb(0, 204, 150); fill-opacity: 0.6; stroke-width: 0; opacity: 1;"/><path class="sankey-link" d="M390,420.0447761194029C570,420.0447761194029 570,650.6194138266699 750,650.6194138266699L750,659.3507571102521C570,659.3507571102521 570,428.776119402985 390,428.776119402985Z" style="stroke: rgb(68, 68, 68); stroke-opacity: 1; fill: rgb(0, 204, 150); fill-opacity: 0.6; stroke-width: 0; opacity: 1;"/><path class="sankey-link" d="M390,269.5522388059703C570,269.5522388059703 570,407.574637707266 750,407.574637707266L750,419.79851830428095C570,419.79851830428095 570,281.7761194029853 390,281.7761194029853Z" style="stroke: rgb(68, 68, 68); stroke-opacity: 1; fill: rgb(239, 85, 59); fill-opacity: 0.6; stroke-width: 0; opacity: 1;"/><path class="sankey-link" d="M390,255.582089552239C570,255.582089552239 570,298.27613024457963 750,298.27613024457963L750,312.246279498311C570,312.246279498311 570,269.5522388059704 390,269.5522388059704Z" style="stroke: rgb(68, 68, 68); stroke-opacity: 1; fill: rgb(239, 85, 59); fill-opacity: 0.6; stroke-width: 0; opacity: 1;"/><path class="sankey-link" d="M390,281.7761194029853C570,281.7761194029853 570,532.5895630804004 750,532.5895630804004L750,543.0671750206988C570,543.0671750206988 570,292.2537313432838 390,292.2537313432838Z" style="stroke: rgb(68, 68, 68); stroke-opacity: 1; fill: rgb(239, 85, 59); fill-opacity: 0.6; stroke-width: 0; opacity: 1;"/><path class="sankey-link" d="M390,292.2537313432838C570,292.2537313432838 570,648.8731451699534 750,648.8731451699534L750,650.6194138266699C570,650.6194138266699 570,294.0000000000002 390,294.0000000000002Z" style="stroke: rgb(68, 68, 68); stroke-opacity: 1; fill: rgb(239, 85, 59); fill-opacity: 0.6; stroke-width: 0; opacity: 1;"/><path class="sankey-link" d="M390,692.0597014925368C570,692.0597014925368 570,475.6791153192063 750,475.6791153192063L750,480.9179212893555C570,480.9179212893555 570,697.2985074626861 390,697.2985074626861Z" style="stroke: rgb(68, 68, 68); stroke-opacity: 1; fill: rgb(254, 203, 82); fill-opacity: 0.6; stroke-width: 0; opacity: 1;"/><path class="sankey-link" d="M390,697.298507462686C570,697.298507462686 570,626.888070543087 750,626.888070543087L750,632.1268765132363C570,632.1268765132363 570,702.5373134328353 390,702.5373134328353Z" style="stroke: rgb(68, 68, 68); stroke-opacity: 1; fill: rgb(254, 203, 82); fill-opacity: 0.6; stroke-width: 0; opacity: 1;"/><path class="sankey-link" d="M390,702.5373134328352C570,702.5373134328352 570,692.5298615878638 750,692.5298615878638L750,699.5149362147296C570,699.5149362147296 570,709.5223880597009 390,709.5223880597009Z" style="stroke: rgb(68, 68, 68); stroke-opacity: 1; fill: rgb(254, 203, 82); fill-opacity: 0.6; stroke-width: 0; opacity: 1;"/><path class="sankey-link" d="M390,180.17910447761216C570,180.17910447761216 570,390.1119511401018 750,390.1119511401018L750,400.5895630804003C570,400.5895630804003 570,190.65671641791067 390,190.65671641791067Z" style="stroke: rgb(68, 68, 68); stroke-opacity: 1; fill: rgb(255, 161, 90); fill-opacity: 0.6; stroke-width: 0; opacity: 1;"/><path class="sankey-link" d="M390,169.70149253731364C570,169.70149253731364 570,280.8134436774154 750,280.8134436774154L750,291.29105561771394C570,291.29105561771394 570,180.17910447761216 390,180.17910447761216Z" style="stroke: rgb(68, 68, 68); stroke-opacity: 1; fill: rgb(255, 161, 90); fill-opacity: 0.6; stroke-width: 0; opacity: 1;"/><path class="sankey-link" d="M390,190.65671641791067C570,190.65671641791067 570,522.111951140102 750,522.111951140102L750,527.3507571102513C570,527.3507571102513 570,195.89552238805993 390,195.89552238805993Z" style="stroke: rgb(68, 68, 68); stroke-opacity: 1; fill: rgb(255, 161, 90); fill-opacity: 0.6; stroke-width: 0; opacity: 1;"/><path class="sankey-link" d="M390,70.88059701492564C570,70.88059701492564 570,369.15672725950475 750,369.15672725950475L750,390.1119511401018C570,390.1119511401018 570,91.83582089552264 390,91.83582089552264Z" style="stroke: rgb(68, 68, 68); stroke-opacity: 1; fill: rgb(171, 99, 250); fill-opacity: 0.6; stroke-width: 0; opacity: 1;"/><path class="sankey-link" d="M390,42.940298507462956C570,42.940298507462956 570,252.87314516995275 750,252.87314516995275L750,280.8134436774154C570,280.8134436774154 570,70.88059701492564 390,70.88059701492564Z" style="stroke: rgb(68, 68, 68); stroke-opacity: 1; fill: rgb(171, 99, 250); fill-opacity: 0.6; stroke-width: 0; opacity: 1;"/><path class="sankey-link" d="M390,91.83582089552266C570,91.83582089552266 570,499.41045860278854 750,499.41045860278854L750,522.111951140102C570,522.111951140102 570,114.5373134328361 390,114.5373134328361Z" style="stroke: rgb(68, 68, 68); stroke-opacity: 1; fill: rgb(171, 99, 250); fill-opacity: 0.6; stroke-width: 0; opacity: 1;"/><path class="sankey-link" d="M390,114.53731343283609C570,114.53731343283609 570,647.126876513237 750,647.126876513237L750,648.8731451699534C570,648.8731451699534 570,116.2835820895525 390,116.2835820895525Z" style="stroke: rgb(68, 68, 68); stroke-opacity: 1; fill: rgb(171, 99, 250); fill-opacity: 0.6; stroke-width: 0; opacity: 1;"/><path class="sankey-link" d="M390,542.597014925373C570,542.597014925373 570,456.4701600953257 750,456.4701600953257L750,475.6791153192063C570,475.6791153192063 570,561.8059701492535 390,561.8059701492535Z" style="stroke: rgb(68, 68, 68); stroke-opacity: 1; fill: rgb(99, 110, 250); fill-opacity: 0.6; stroke-width: 0; opacity: 1;"/><path class="sankey-link" d="M390,535.6119402985073C570,535.6119402985073 570,340.18657800577364 750,340.18657800577364L750,347.1716526326393C570,347.1716526326393 570,542.5970149253731 390,542.5970149253731Z" style="stroke: rgb(68, 68, 68); stroke-opacity: 1; fill: rgb(99, 110, 250); fill-opacity: 0.6; stroke-width: 0; opacity: 1;"/><path class="sankey-link" d="M390,561.8059701492535C570,561.8059701492535 570,583.2313541251765 750,583.2313541251765L750,626.888070543087C570,626.888070543087 570,605.462686567164 390,605.462686567164Z" style="stroke: rgb(68, 68, 68); stroke-opacity: 1; fill: rgb(99, 110, 250); fill-opacity: 0.6; stroke-width: 0; opacity: 1;"/><path class="sankey-link" d="M390,605.4626865671639C570,605.4626865671639 570,666.3358317371176 750,666.3358317371176L750,692.5298615878639C570,692.5298615878639 570,631.6567164179103 390,631.6567164179103Z" style="stroke: rgb(68, 68, 68); stroke-opacity: 1; fill: rgb(99, 110, 250); fill-opacity: 0.6; stroke-width: 0; opacity: 1;"/><path class="sankey-link" d="M390,475.2089552238805C570,475.2089552238805 570,444.2462794983108 750,444.2462794983108L750,456.47016009532575C570,456.47016009532575 570,487.43283582089543 390,487.43283582089543Z" style="stroke: rgb(68, 68, 68); stroke-opacity: 1; fill: rgb(255, 151, 255); fill-opacity: 0.6; stroke-width: 0; opacity: 1;"/><path class="sankey-link" d="M390,466.4776119402984C570,466.4776119402984 570,331.45523472219156 750,331.45523472219156L750,340.18657800577364C570,340.18657800577364 570,475.2089552238805 390,475.2089552238805Z" style="stroke: rgb(68, 68, 68); stroke-opacity: 1; fill: rgb(255, 151, 255); fill-opacity: 0.6; stroke-width: 0; opacity: 1;"/><path class="sankey-link" d="M390,487.43283582089543C570,487.43283582089543 570,560.529861587863 750,560.529861587863L750,583.2313541251765C570,583.2313541251765 570,510.1343283582089 390,510.1343283582089Z" style="stroke: rgb(68, 68, 68); stroke-opacity: 1; fill: rgb(255, 151, 255); fill-opacity: 0.6; stroke-width: 0; opacity: 1;"/><path class="sankey-link" d="M390,510.13432835820885C570,510.13432835820885 570,659.350757110252 750,659.350757110252L750,666.3358317371177C570,666.3358317371177 570,517.1194029850745 390,517.1194029850745Z" style="stroke: rgb(68, 68, 68); stroke-opacity: 1; fill: rgb(255, 151, 255); fill-opacity: 0.6; stroke-width: 0; opacity: 1;"/><path class="sankey-link" d="M390,224.865671641791C570,224.865671641791 570,400.5895630804003 750,400.5895630804003L750,407.57463770726594C570,407.57463770726594 570,231.8507462686567 390,231.8507462686567Z" style="stroke: rgb(68, 68, 68); stroke-opacity: 1; fill: rgb(182, 232, 128); fill-opacity: 0.6; stroke-width: 0; opacity: 1;"/><path class="sankey-link" d="M390,217.88059701492534C570,217.88059701492534 570,291.29105561771394 750,291.29105561771394L750,298.2761302445796C570,298.2761302445796 570,224.86567164179104 390,224.86567164179104Z" style="stroke: rgb(68, 68, 68); stroke-opacity: 1; fill: rgb(182, 232, 128); fill-opacity: 0.6; stroke-width: 0; opacity: 1;"/><path class="sankey-link" d="M390,231.85074626865668C570,231.85074626865668 570,527.3507571102512 750,527.3507571102512L750,532.5895630804005C570,532.5895630804005 570,237.08955223880594 390,237.08955223880594Z" style="stroke: rgb(68, 68, 68); stroke-opacity: 1; fill: rgb(182, 232, 128); fill-opacity: 0.6; stroke-width: 0; opacity: 1;"/><path class="sankey-link" d="M390,343.9253731343283C570,343.9253731343283 570,419.79851830428095 750,419.79851830428095L750,423.2910556177138C570,423.2910556177138 570,347.4179104477612 390,347.4179104477612Z" style="stroke: rgb(68, 68, 68); stroke-opacity: 1; fill: rgb(255, 102, 146); fill-opacity: 0.6; stroke-width: 0; opacity: 1;"/><path class="sankey-link" d="M390,342.1791044776119C570,342.1791044776119 570,312.24627949831097 750,312.24627949831097L750,313.9925481550274C570,313.9925481550274 570,343.9253731343283 390,343.9253731343283Z" style="stroke: rgb(68, 68, 68); stroke-opacity: 1; fill: rgb(255, 102, 146); fill-opacity: 0.6; stroke-width: 0; opacity: 1;"/><path class="sankey-link" d="M390,347.41791044776113C570,347.41791044776113 570,543.0671750206989 750,543.0671750206989L750,544.8134436774153C570,544.8134436774153 570,349.16417910447757 390,349.16417910447757Z" style="stroke: rgb(68, 68, 68); stroke-opacity: 1; fill: rgb(255, 102, 146); fill-opacity: 0.6; stroke-width: 0; opacity: 1;"/><path class="sankey-link" d="M765,428.5298615878629C945,428.5298615878629 945,419.01492537313476 1125,419.01492537313476L1125,420.7611940298512C945,420.7611940298512 945,430.27613024457935 765,430.27613024457935Z" style="stroke: rgb(68, 68, 68); stroke-opacity: 1; fill: rgb(25, 211, 243); fill-opacity: 0.6; stroke-width: 0; opacity: 1;"/><path class="sankey-link" d="M765,362.17165263263905C945,362.17165263263905 945,337.6567164179109 1125,337.6567164179109L1125,342.8955223880601C945,342.8955223880601 945,367.41045860278825 765,367.41045860278825Z" style="stroke: rgb(68, 68, 68); stroke-opacity: 1; fill: rgb(25, 211, 243); fill-opacity: 0.6; stroke-width: 0; opacity: 1;"/><path class="sankey-link" d="M765,240.64926457293782C945,240.64926457293782 945,201.13432835820907 1125,201.13432835820907L1125,206.37313432835833C945,206.37313432835833 945,245.88807054308708 765,245.88807054308708Z" style="stroke: rgb(68, 68, 68); stroke-opacity: 1; fill: rgb(25, 211, 243); fill-opacity: 0.6; stroke-width: 0; opacity: 1;"/><path class="sankey-link" d="M765,298.2761302445797C945,298.2761302445797 945,273.76119402985086 1125,273.76119402985086L1125,280.7462686567165C945,280.7462686567165 945,305.26120487144533 765,305.26120487144533Z" style="stroke: rgb(68, 68, 68); stroke-opacity: 1; fill: rgb(25, 211, 243); fill-opacity: 0.6; stroke-width: 0; opacity: 1;"/><path class="sankey-link" d="M765,495.9179212893557C945,495.9179212893557 945,486.4029850746274 1125,486.4029850746274L1125,489.8955223880603C945,489.8955223880603 945,499.4104586027886 765,499.4104586027886Z" style="stroke: rgb(68, 68, 68); stroke-opacity: 1; fill: rgb(25, 211, 243); fill-opacity: 0.6; stroke-width: 0; opacity: 1;"/><path class="sankey-link" d="M765,430.27613024457935C945,430.27613024457935 945,420.7611940298512 1125,420.7611940298512L1125,429.4925373134333C945,429.4925373134333 945,439.0074735281614 765,439.0074735281614Z" style="stroke: rgb(68, 68, 68); stroke-opacity: 1; fill: rgb(0, 204, 150); fill-opacity: 0.6; stroke-width: 0; opacity: 1;"/><path class="sankey-link" d="M765,367.4104586027883C945,367.4104586027883 945,342.89552238806016 1125,342.89552238806016L1125,355.1194029850751C945,355.1194029850751 945,379.63433919980326 765,379.63433919980326Z" style="stroke: rgb(68, 68, 68); stroke-opacity: 1; fill: rgb(0, 204, 150); fill-opacity: 0.6; stroke-width: 0; opacity: 1;"/><path class="sankey-link" d="M765,245.88807054308708C945,245.88807054308708 945,206.37313432835833 1125,206.37313432835833L1125,222.0895522388061C945,222.0895522388061 945,261.6044884535348 765,261.6044884535348Z" style="stroke: rgb(68, 68, 68); stroke-opacity: 1; fill: rgb(0, 204, 150); fill-opacity: 0.6; stroke-width: 0; opacity: 1;"/><path class="sankey-link" d="M765,305.2612048714454C945,305.2612048714454 945,280.74626865671655 1125,280.74626865671655L1125,282.492537313433C945,282.492537313433 945,307.0074735281618 765,307.0074735281618Z" style="stroke: rgb(68, 68, 68); stroke-opacity: 1; fill: rgb(0, 204, 150); fill-opacity: 0.6; stroke-width: 0; opacity: 1;"/><path class="sankey-link" d="M765,567.5149362147289C945,567.5149362147289 945,573 1125,573L1125,583.4776119402984C945,583.4776119402984 945,577.9925481550273 765,577.9925481550273Z" style="stroke: rgb(68, 68, 68); stroke-opacity: 1; fill: rgb(0, 204, 150); fill-opacity: 0.6; stroke-width: 0; opacity: 1;"/><path class="sankey-link" d="M765,499.41045860278854C945,499.41045860278854 945,489.8955223880602 1125,489.8955223880602L1125,495.1343283582094C945,495.1343283582094 945,504.64926457293774 765,504.64926457293774Z" style="stroke: rgb(68, 68, 68); stroke-opacity: 1; fill: rgb(0, 204, 150); fill-opacity: 0.6; stroke-width: 0; opacity: 1;"/><path class="sankey-link" d="M765,647.126876513237C945,647.126876513237 945,652.6119402985075 1125,652.6119402985075L1125,656.1044776119404C945,656.1044776119404 945,650.6194138266699 765,650.6194138266699Z" style="stroke: rgb(68, 68, 68); stroke-opacity: 1; fill: rgb(0, 204, 150); fill-opacity: 0.6; stroke-width: 0; opacity: 1;"/><path class="sankey-link" d="M765,678.5597123341325C945,678.5597123341325 945,699.044776119403 1125,699.044776119403L1125,704.2835820895523C945,704.2835820895523 945,683.7985183042819 765,683.7985183042819Z" style="stroke: rgb(68, 68, 68); stroke-opacity: 1; fill: rgb(0, 204, 150); fill-opacity: 0.6; stroke-width: 0; opacity: 1;"/><path class="sankey-link" d="M765,439.0074735281614C945,439.0074735281614 945,429.4925373134333 1125,429.4925373134333L1125,432.98507462686615C945,432.98507462686615 945,442.5000108415943 765,442.5000108415943Z" style="stroke: rgb(68, 68, 68); stroke-opacity: 1; fill: rgb(239, 85, 59); fill-opacity: 0.6; stroke-width: 0; opacity: 1;"/><path class="sankey-link" d="M765,379.6343391998032C945,379.6343391998032 945,355.1194029850751 1125,355.1194029850751L1125,363.8507462686572C945,363.8507462686572 945,388.3656824833853 765,388.3656824833853Z" style="stroke: rgb(68, 68, 68); stroke-opacity: 1; fill: rgb(239, 85, 59); fill-opacity: 0.6; stroke-width: 0; opacity: 1;"/><path class="sankey-link" d="M765,261.6044884535348C945,261.6044884535348 945,222.0895522388061 1125,222.0895522388061L1125,229.0746268656718C945,229.0746268656718 945,268.58956308040047 765,268.58956308040047Z" style="stroke: rgb(68, 68, 68); stroke-opacity: 1; fill: rgb(239, 85, 59); fill-opacity: 0.6; stroke-width: 0; opacity: 1;"/><path class="sankey-link" d="M765,307.0074735281618C945,307.0074735281618 945,282.492537313433 1125,282.492537313433L1125,289.47761194029863C945,289.47761194029863 945,313.99254815502746 765,313.99254815502746Z" style="stroke: rgb(68, 68, 68); stroke-opacity: 1; fill: rgb(239, 85, 59); fill-opacity: 0.6; stroke-width: 0; opacity: 1;"/><path class="sankey-link" d="M765,577.9925481550274C945,577.9925481550274 945,583.4776119402985 1125,583.4776119402985L1125,592.2089552238807C945,592.2089552238807 945,586.7238914386096 765,586.7238914386096Z" style="stroke: rgb(68, 68, 68); stroke-opacity: 1; fill: rgb(239, 85, 59); fill-opacity: 0.6; stroke-width: 0; opacity: 1;"/><path class="sankey-link" d="M765,504.6492645729378C945,504.6492645729378 945,495.1343283582095 1125,495.1343283582095L1125,496.8805970149259C945,496.8805970149259 945,506.39553322965423 765,506.39553322965423Z" style="stroke: rgb(68, 68, 68); stroke-opacity: 1; fill: rgb(239, 85, 59); fill-opacity: 0.6; stroke-width: 0; opacity: 1;"/><path class="sankey-link" d="M765,650.6194138266699C945,650.6194138266699 945,656.1044776119404 1125,656.1044776119404L1125,657.8507462686568C945,657.8507462686568 945,652.3656824833863 765,652.3656824833863Z" style="stroke: rgb(68, 68, 68); stroke-opacity: 1; fill: rgb(239, 85, 59); fill-opacity: 0.6; stroke-width: 0; opacity: 1;"/><path class="sankey-link" d="M765,442.50001084159425C945,442.50001084159425 945,432.9850746268661 1125,432.9850746268661L1125,436.47761194029897C945,436.47761194029897 945,445.9925481550271 765,445.9925481550271Z" style="stroke: rgb(68, 68, 68); stroke-opacity: 1; fill: rgb(254, 203, 82); fill-opacity: 0.6; stroke-width: 0; opacity: 1;"/><path class="sankey-link" d="M765,388.3656824833853C945,388.3656824833853 945,363.8507462686572 1125,363.8507462686572L1125,365.5970149253736C945,365.5970149253736 945,390.1119511401017 765,390.1119511401017Z" style="stroke: rgb(68, 68, 68); stroke-opacity: 1; fill: rgb(254, 203, 82); fill-opacity: 0.6; stroke-width: 0; opacity: 1;"/><path class="sankey-link" d="M765,586.7238914386095C945,586.7238914386095 945,592.2089552238806 1125,592.2089552238806L1125,593.955223880597C945,593.955223880597 945,588.4701600953259 765,588.4701600953259Z" style="stroke: rgb(68, 68, 68); stroke-opacity: 1; fill: rgb(254, 203, 82); fill-opacity: 0.6; stroke-width: 0; opacity: 1;"/><path class="sankey-link" d="M765,506.39553322965423C945,506.39553322965423 945,496.8805970149259 1125,496.8805970149259L1125,500.3731343283588C945,500.3731343283588 945,509.8880705430871 765,509.8880705430871Z" style="stroke: rgb(68, 68, 68); stroke-opacity: 1; fill: rgb(254, 203, 82); fill-opacity: 0.6; stroke-width: 0; opacity: 1;"/><path class="sankey-link" d="M765,652.3656824833863C945,652.3656824833863 945,657.8507462686568 1125,657.8507462686568L1125,663.0895522388062C945,663.0895522388062 945,657.6044884535356 765,657.6044884535356Z" style="stroke: rgb(68, 68, 68); stroke-opacity: 1; fill: rgb(254, 203, 82); fill-opacity: 0.6; stroke-width: 0; opacity: 1;"/><path class="sankey-link" d="M765,683.7985183042817C945,683.7985183042817 945,704.2835820895522 1125,704.2835820895522L1125,706.0298507462686C945,706.0298507462686 945,685.5447869609982 765,685.5447869609982Z" style="stroke: rgb(68, 68, 68); stroke-opacity: 1; fill: rgb(254, 203, 82); fill-opacity: 0.6; stroke-width: 0; opacity: 1;"/><path class="sankey-link" d="M765,390.1119511401017C945,390.1119511401017 945,365.5970149253736 1125,365.5970149253736L1125,376.07462686567214C945,376.07462686567214 945,400.58956308040024 765,400.58956308040024Z" style="stroke: rgb(68, 68, 68); stroke-opacity: 1; fill: rgb(255, 161, 90); fill-opacity: 0.6; stroke-width: 0; opacity: 1;"/><path class="sankey-link" d="M765,268.5895630804005C945,268.5895630804005 945,229.07462686567177 1125,229.07462686567177L1125,236.05970149253747C945,236.05970149253747 945,275.57463770726616 765,275.57463770726616Z" style="stroke: rgb(68, 68, 68); stroke-opacity: 1; fill: rgb(255, 161, 90); fill-opacity: 0.6; stroke-width: 0; opacity: 1;"/><path class="sankey-link" d="M765,313.9925481550275C945,313.9925481550275 945,289.4776119402987 1125,289.4776119402987L1125,292.97014925373156C945,292.97014925373156 945,317.4850854684604 765,317.4850854684604Z" style="stroke: rgb(68, 68, 68); stroke-opacity: 1; fill: rgb(255, 161, 90); fill-opacity: 0.6; stroke-width: 0; opacity: 1;"/><path class="sankey-link" d="M765,588.4701600953259C945,588.4701600953259 945,593.955223880597 1125,593.955223880597L1125,595.7014925373135C945,595.7014925373135 945,590.2164287520424 765,590.2164287520424Z" style="stroke: rgb(68, 68, 68); stroke-opacity: 1; fill: rgb(255, 161, 90); fill-opacity: 0.6; stroke-width: 0; opacity: 1;"/><path class="sankey-link" d="M765,509.88807054308705C945,509.88807054308705 945,500.37313432835873 1125,500.37313432835873L1125,503.8656716417916C945,503.8656716417916 945,513.3806078565199 765,513.3806078565199Z" style="stroke: rgb(68, 68, 68); stroke-opacity: 1; fill: rgb(255, 161, 90); fill-opacity: 0.6; stroke-width: 0; opacity: 1;"/><path class="sankey-link" d="M765,445.99254815502707C945,445.99254815502707 945,436.4776119402989 1125,436.4776119402989L1125,448.70149253731387C945,448.70149253731387 945,458.216428752042 765,458.216428752042Z" style="stroke: rgb(68, 68, 68); stroke-opacity: 1; fill: rgb(171, 99, 250); fill-opacity: 0.6; stroke-width: 0; opacity: 1;"/><path class="sankey-link" d="M765,400.58956308040024C945,400.58956308040024 945,376.07462686567214 1125,376.07462686567214L1125,384.8059701492542C945,384.8059701492542 945,409.3209063639823 765,409.3209063639823Z" style="stroke: rgb(68, 68, 68); stroke-opacity: 1; fill: rgb(171, 99, 250); fill-opacity: 0.6; stroke-width: 0; opacity: 1;"/><path class="sankey-link" d="M765,275.5746377072662C945,275.5746377072662 945,236.05970149253744 1125,236.05970149253744L1125,248.2835820895524C945,248.2835820895524 945,287.7985183042812 765,287.7985183042812Z" style="stroke: rgb(68, 68, 68); stroke-opacity: 1; fill: rgb(171, 99, 250); fill-opacity: 0.6; stroke-width: 0; opacity: 1;"/><path class="sankey-link" d="M765,317.48508546846034C945,317.48508546846034 945,292.9701492537315 1125,292.9701492537315L1125,308.6865671641792C945,308.6865671641792 945,333.20150337890806 765,333.20150337890806Z" style="stroke: rgb(68, 68, 68); stroke-opacity: 1; fill: rgb(171, 99, 250); fill-opacity: 0.6; stroke-width: 0; opacity: 1;"/><path class="sankey-link" d="M765,590.2164287520424C945,590.2164287520424 945,595.7014925373135 1125,595.7014925373135L1125,609.6716417910447C945,609.6716417910447 945,604.1865780057736 765,604.1865780057736Z" style="stroke: rgb(68, 68, 68); stroke-opacity: 1; fill: rgb(171, 99, 250); fill-opacity: 0.6; stroke-width: 0; opacity: 1;"/><path class="sankey-link" d="M765,513.3806078565199C945,513.3806078565199 945,503.86567164179155 1125,503.86567164179155L1125,512.5970149253736C945,512.5970149253736 945,522.1119511401021 765,522.1119511401021Z" style="stroke: rgb(68, 68, 68); stroke-opacity: 1; fill: rgb(171, 99, 250); fill-opacity: 0.6; stroke-width: 0; opacity: 1;"/><path class="sankey-link" d="M765,657.6044884535355C945,657.6044884535355 945,663.089552238806 1125,663.089552238806L1125,664.8358208955225C945,664.8358208955225 945,659.350757110252 765,659.350757110252Z" style="stroke: rgb(68, 68, 68); stroke-opacity: 1; fill: rgb(171, 99, 250); fill-opacity: 0.6; stroke-width: 0; opacity: 1;"/><path class="sankey-link" d="M765,458.216428752042C945,458.216428752042 945,448.7014925373138 1125,448.7014925373138L1125,459.1791044776123C945,459.1791044776123 945,468.69404069234054 765,468.69404069234054Z" style="stroke: rgb(68, 68, 68); stroke-opacity: 1; fill: rgb(99, 110, 250); fill-opacity: 0.6; stroke-width: 0; opacity: 1;"/><path class="sankey-link" d="M765,409.3209063639823C945,409.3209063639823 945,384.8059701492542 1125,384.8059701492542L1125,393.5373134328363C945,393.5373134328363 945,418.0522496475644 765,418.0522496475644Z" style="stroke: rgb(68, 68, 68); stroke-opacity: 1; fill: rgb(99, 110, 250); fill-opacity: 0.6; stroke-width: 0; opacity: 1;"/><path class="sankey-link" d="M765,287.7985183042812C945,287.7985183042812 945,248.28358208955237 1125,248.28358208955237L1125,251.7761194029852C945,251.7761194029852 945,291.29105561771405 765,291.29105561771405Z" style="stroke: rgb(68, 68, 68); stroke-opacity: 1; fill: rgb(99, 110, 250); fill-opacity: 0.6; stroke-width: 0; opacity: 1;"/><path class="sankey-link" d="M765,333.2015033789081C945,333.2015033789081 945,308.6865671641793 1125,308.6865671641793L1125,312.17910447761216C945,312.17910447761216 945,336.694040692341 765,336.694040692341Z" style="stroke: rgb(68, 68, 68); stroke-opacity: 1; fill: rgb(99, 110, 250); fill-opacity: 0.6; stroke-width: 0; opacity: 1;"/><path class="sankey-link" d="M765,604.1865780057738C945,604.1865780057738 945,609.6716417910449 1125,609.6716417910449L1125,620.1492537313433C945,620.1492537313433 945,614.6641899460722 765,614.6641899460722Z" style="stroke: rgb(68, 68, 68); stroke-opacity: 1; fill: rgb(99, 110, 250); fill-opacity: 0.6; stroke-width: 0; opacity: 1;"/><path class="sankey-link" d="M765,522.111951140102C945,522.111951140102 945,512.5970149253736 1125,512.5970149253736L1125,545.7761194029855C945,545.7761194029855 945,555.2910556177138 765,555.2910556177138Z" style="stroke: rgb(68, 68, 68); stroke-opacity: 1; fill: rgb(99, 110, 250); fill-opacity: 0.6; stroke-width: 0; opacity: 1;"/><path class="sankey-link" d="M765,659.350757110252C945,659.350757110252 945,664.8358208955225 1125,664.8358208955225L1125,678.8059701492538C945,678.8059701492538 945,673.3209063639832 765,673.3209063639832Z" style="stroke: rgb(68, 68, 68); stroke-opacity: 1; fill: rgb(99, 110, 250); fill-opacity: 0.6; stroke-width: 0; opacity: 1;"/><path class="sankey-link" d="M765,685.5447869609982C945,685.5447869609982 945,706.0298507462686 1125,706.0298507462686L1125,718.2537313432834C945,718.2537313432834 945,697.768667558013 765,697.768667558013Z" style="stroke: rgb(68, 68, 68); stroke-opacity: 1; fill: rgb(99, 110, 250); fill-opacity: 0.6; stroke-width: 0; opacity: 1;"/><path class="sankey-link" d="M765,468.69404069234054C945,468.69404069234054 945,459.1791044776123 1125,459.1791044776123L1125,466.16417910447797C945,466.16417910447797 945,475.6791153192062 765,475.6791153192062Z" style="stroke: rgb(68, 68, 68); stroke-opacity: 1; fill: rgb(255, 151, 255); fill-opacity: 0.6; stroke-width: 0; opacity: 1;"/><path class="sankey-link" d="M765,418.0522496475644C945,418.0522496475644 945,393.5373134328363 1125,393.5373134328363L1125,398.7761194029855C945,398.7761194029855 945,423.2910556177136 765,423.2910556177136Z" style="stroke: rgb(68, 68, 68); stroke-opacity: 1; fill: rgb(255, 151, 255); fill-opacity: 0.6; stroke-width: 0; opacity: 1;"/><path class="sankey-link" d="M765,291.291055617714C945,291.291055617714 945,251.77611940298522 1125,251.77611940298522L1125,253.52238805970165C945,253.52238805970165 945,293.03732427443043 765,293.03732427443043Z" style="stroke: rgb(68, 68, 68); stroke-opacity: 1; fill: rgb(255, 151, 255); fill-opacity: 0.6; stroke-width: 0; opacity: 1;"/><path class="sankey-link" d="M765,336.69404069234093C945,336.69404069234093 945,312.1791044776121 1125,312.1791044776121L1125,319.16417910447774C945,319.16417910447774 945,343.6791153192066 765,343.6791153192066Z" style="stroke: rgb(68, 68, 68); stroke-opacity: 1; fill: rgb(255, 151, 255); fill-opacity: 0.6; stroke-width: 0; opacity: 1;"/><path class="sankey-link" d="M765,614.6641899460723C945,614.6641899460723 945,620.1492537313434 1125,620.1492537313434L1125,632.3731343283582C945,632.3731343283582 945,626.8880705430871 765,626.8880705430871Z" style="stroke: rgb(68, 68, 68); stroke-opacity: 1; fill: rgb(255, 151, 255); fill-opacity: 0.6; stroke-width: 0; opacity: 1;"/><path class="sankey-link" d="M765,555.2910556177139C945,555.2910556177139 945,545.7761194029856 1125,545.7761194029856L1125,556.253731343284C945,556.253731343284 945,565.7686675580123 765,565.7686675580123Z" style="stroke: rgb(68, 68, 68); stroke-opacity: 1; fill: rgb(255, 151, 255); fill-opacity: 0.6; stroke-width: 0; opacity: 1;"/><path class="sankey-link" d="M765,673.3209063639833C945,673.3209063639833 945,678.8059701492539 1125,678.8059701492539L1125,684.0447761194032C945,684.0447761194032 945,678.5597123341327 765,678.5597123341327Z" style="stroke: rgb(68, 68, 68); stroke-opacity: 1; fill: rgb(255, 151, 255); fill-opacity: 0.6; stroke-width: 0; opacity: 1;"/><path class="sankey-link" d="M765,697.7686675580131C945,697.7686675580131 945,718.2537313432836 1125,718.2537313432836L1125,720C945,720 945,699.5149362147296 765,699.5149362147296Z" style="stroke: rgb(68, 68, 68); stroke-opacity: 1; fill: rgb(255, 151, 255); fill-opacity: 0.6; stroke-width: 0; opacity: 1;"/><path class="sankey-link" d="M765,475.67911531920623C945,475.67911531920623 945,466.164179104478 1125,466.164179104478L1125,469.6567164179109C945,469.6567164179109 945,479.1716526326391 765,479.1716526326391Z" style="stroke: rgb(68, 68, 68); stroke-opacity: 1; fill: rgb(182, 232, 128); fill-opacity: 0.6; stroke-width: 0; opacity: 1;"/><path class="sankey-link" d="M765,423.29105561771365C945,423.29105561771365 945,398.77611940298556 1125,398.77611940298556L1125,402.26865671641843C945,402.26865671641843 945,426.78359293114653 765,426.78359293114653Z" style="stroke: rgb(68, 68, 68); stroke-opacity: 1; fill: rgb(182, 232, 128); fill-opacity: 0.6; stroke-width: 0; opacity: 1;"/><path class="sankey-link" d="M765,293.03732427443043C945,293.03732427443043 945,253.52238805970163 1125,253.52238805970163L1125,257.0149253731345C945,257.0149253731345 945,296.5298615878633 765,296.5298615878633Z" style="stroke: rgb(68, 68, 68); stroke-opacity: 1; fill: rgb(182, 232, 128); fill-opacity: 0.6; stroke-width: 0; opacity: 1;"/><path class="sankey-link" d="M765,343.67911531920663C945,343.67911531920663 945,319.1641791044778 1125,319.1641791044778L1125,322.6567164179107C945,322.6567164179107 945,347.1716526326395 765,347.1716526326395Z" style="stroke: rgb(68, 68, 68); stroke-opacity: 1; fill: rgb(182, 232, 128); fill-opacity: 0.6; stroke-width: 0; opacity: 1;"/><path class="sankey-link" d="M765,626.8880705430872C945,626.8880705430872 945,632.3731343283583 1125,632.3731343283583L1125,635.8656716417912C945,635.8656716417912 945,630.3806078565201 765,630.3806078565201Z" style="stroke: rgb(68, 68, 68); stroke-opacity: 1; fill: rgb(182, 232, 128); fill-opacity: 0.6; stroke-width: 0; opacity: 1;"/><path class="sankey-link" d="M765,565.7686675580125C945,565.7686675580125 945,556.2537313432841 1125,556.2537313432841L1125,558.0000000000006C945,558.0000000000006 945,567.5149362147289 765,567.5149362147289Z" style="stroke: rgb(68, 68, 68); stroke-opacity: 1; fill: rgb(182, 232, 128); fill-opacity: 0.6; stroke-width: 0; opacity: 1;"/><path class="sankey-link" d="M765,479.17165263263905C945,479.17165263263905 945,469.65671641791084 1125,469.65671641791084L1125,471.4029850746273C945,471.4029850746273 945,480.9179212893555 765,480.9179212893555Z" style="stroke: rgb(68, 68, 68); stroke-opacity: 1; fill: rgb(255, 102, 146); fill-opacity: 0.6; stroke-width: 0; opacity: 1;"/><path class="sankey-link" d="M765,426.7835929311465C945,426.7835929311465 945,402.2686567164184 1125,402.2686567164184L1125,404.0149253731348C945,404.0149253731348 945,428.5298615878629 765,428.5298615878629Z" style="stroke: rgb(68, 68, 68); stroke-opacity: 1; fill: rgb(255, 102, 146); fill-opacity: 0.6; stroke-width: 0; opacity: 1;"/><path class="sankey-link" d="M765,296.52986158786325C945,296.52986158786325 945,257.0149253731345 1125,257.0149253731345L1125,258.7611940298509C945,258.7611940298509 945,298.2761302445797 765,298.2761302445797Z" style="stroke: rgb(68, 68, 68); stroke-opacity: 1; fill: rgb(255, 102, 146); fill-opacity: 0.6; stroke-width: 0; opacity: 1;"/><path class="sankey-link" d="M765,630.3806078565201C945,630.3806078565201 945,635.8656716417912 1125,635.8656716417912L1125,637.6119402985076C945,637.6119402985076 945,632.1268765132365 765,632.1268765132365Z" style="stroke: rgb(68, 68, 68); stroke-opacity: 1; fill: rgb(255, 102, 146); fill-opacity: 0.6; stroke-width: 0; opacity: 1;"/></g><g class="sankey-node-set" style="cursor: move;"><g class="sankey-node" transform="translate(0.000,375.672)" style="opacity: 1;"><rect class="node-rect" width="15" height="66.35820895522397" style="stroke-width: 0.5; stroke: rgb(0, 0, 0); stroke-opacity: 1; fill: rgb(128, 128, 128); fill-opacity: 1;"/><text class="node-label" data-notex="1" x="0" y="0" text-anchor="start" transform="translate(18.25,37.37910447761199)" style="cursor: default; font-family: 'Open Sans', verdana, arial, sans-serif; font-size: 12px; fill: rgb(42, 63, 95); fill-opacity: 1; white-space: pre; text-shadow: white 1px 1px 1px, white -1px -1px 1px, white 1px -1px 1px, white -1px 1px 1px;">21271R</text></g><g class="sankey-node" transform="translate(0.000,90.000)" style="opacity: 1;"><rect class="node-rect" width="15" height="270.67164179104486" style="stroke-width: 0.5; stroke: rgb(0, 0, 0); stroke-opacity: 1; fill: rgb(128, 128, 128); fill-opacity: 1;"/><text class="node-label" data-notex="1" x="0" y="0" text-anchor="start" transform="translate(18.25,139.53582089552242)" style="cursor: default; font-family: 'Open Sans', verdana, arial, sans-serif; font-size: 12px; fill: rgb(42, 63, 95); fill-opacity: 1; white-space: pre; text-shadow: white 1px 1px 1px, white -1px -1px 1px, white 1px -1px 1px, white -1px 1px 1px;">21272R</text></g><g class="sankey-node" transform="translate(0.000,457.030)" style="opacity: 1;"><rect class="node-rect" width="15" height="123.98507462686575" style="stroke-width: 0.5; stroke: rgb(0, 0, 0); stroke-opacity: 1; fill: rgb(128, 128, 128); fill-opacity: 1;"/><text class="node-label" data-notex="1" x="0" y="0" text-anchor="start" transform="translate(18.25,66.19253731343288)" style="cursor: default; font-family: 'Open Sans', verdana, arial, sans-serif; font-size: 12px; fill: rgb(42, 63, 95); fill-opacity: 1; white-space: pre; text-shadow: white 1px 1px 1px, white -1px -1px 1px, white 1px -1px 1px, white -1px 1px 1px;">22384</text></g><g class="sankey-node" transform="translate(0.000,596.015)" style="opacity: 1;"><rect class="node-rect" width="15" height="123.98507462686575" style="stroke-width: 0.5; stroke: rgb(0, 0, 0); stroke-opacity: 1; fill: rgb(128, 128, 128); fill-opacity: 1;"/><text class="node-label" data-notex="1" x="0" y="0" text-anchor="start" transform="translate(18.25,66.19253731343288)" style="cursor: default; font-family: 'Open Sans', verdana, arial, sans-serif; font-size: 12px; fill: rgb(42, 63, 95); fill-opacity: 1; white-space: pre; text-shadow: white 1px 1px 1px, white -1px -1px 1px, white 1px -1px 1px, white -1px 1px 1px;">22670</text></g><g class="sankey-node" transform="translate(750.000,362.172)" style="opacity: 1;"><rect class="node-rect" width="15" height="118.74626865671667" style="stroke-width: 0.5; stroke: rgb(0, 0, 0); stroke-opacity: 1; fill: rgb(128, 128, 128); fill-opacity: 1;"/><text class="node-label" data-notex="1" x="0" y="0" text-anchor="start" transform="translate(18.25,63.573134328358336)" style="cursor: default; font-family: 'Open Sans', verdana, arial, sans-serif; font-size: 12px; fill: rgb(42, 63, 95); fill-opacity: 1; white-space: pre; text-shadow: white 1px 1px 1px, white -1px -1px 1px, white 1px -1px 1px, white -1px 1px 1px;">Aggressor</text></g><g class="sankey-node" transform="translate(750.000,240.649)" style="opacity: 1;"><rect class="node-rect" width="15" height="106.52238805970123" style="stroke-width: 0.5; stroke: rgb(0, 0, 0); stroke-opacity: 1; fill: rgb(128, 128, 128); fill-opacity: 1;"/><text class="node-label" data-notex="1" x="0" y="0" text-anchor="start" transform="translate(18.25,57.46119402985062)" style="cursor: default; font-family: 'Open Sans', verdana, arial, sans-serif; font-size: 12px; fill: rgb(42, 63, 95); fill-opacity: 1; white-space: pre; text-shadow: white 1px 1px 1px, white -1px -1px 1px, white 1px -1px 1px, white -1px 1px 1px;">NonSocial</text></g><g class="sankey-node" transform="translate(750.000,495.918)" style="opacity: 1;"><rect class="node-rect" width="15" height="136.20895522388128" style="stroke-width: 0.5; stroke: rgb(0, 0, 0); stroke-opacity: 1; fill: rgb(128, 128, 128); fill-opacity: 1;"/><text class="node-label" data-notex="1" x="0" y="0" text-anchor="start" transform="translate(18.25,72.30447761194064)" style="cursor: default; font-family: 'Open Sans', verdana, arial, sans-serif; font-size: 12px; fill: rgb(42, 63, 95); fill-opacity: 1; white-space: pre; text-shadow: white 1px 1px 1px, white -1px -1px 1px, white 1px -1px 1px, white -1px 1px 1px;">Social</text></g><g class="sankey-node" transform="translate(750.000,647.127)" style="opacity: 1;"><rect class="node-rect" width="15" height="52.388059701492466" style="stroke-width: 0.5; stroke: rgb(0, 0, 0); stroke-opacity: 1; fill: rgb(128, 128, 128); fill-opacity: 1;"/><text class="node-label" data-notex="1" x="0" y="0" text-anchor="start" transform="translate(18.25,30.394029850746232)" style="cursor: default; font-family: 'Open Sans', verdana, arial, sans-serif; font-size: 12px; fill: rgb(42, 63, 95); fill-opacity: 1; white-space: pre; text-shadow: white 1px 1px 1px, white -1px -1px 1px, white 1px -1px 1px, white -1px 1px 1px;">Target of Aggression</text></g><g class="sankey-node" transform="translate(1125.000,337.657)" style="opacity: 1;"><rect class="node-rect" width="15" height="66.35820895522386" style="stroke-width: 0.5; stroke: rgb(0, 0, 0); stroke-opacity: 1; fill: rgb(128, 128, 128); fill-opacity: 1;"/><text class="node-label" data-notex="1" x="0" y="0" text-anchor="end" transform="translate(-3.25,37.37910447761193)" style="cursor: default; font-family: 'Open Sans', verdana, arial, sans-serif; font-size: 12px; fill: rgb(42, 63, 95); fill-opacity: 1; white-space: pre; text-shadow: white 1px 1px 1px, white -1px -1px 1px, white 1px -1px 1px, white -1px 1px 1px;">Aggressor-suppressed</text></g><g class="sankey-node" transform="translate(1125.000,201.134)" style="opacity: 1;"><rect class="node-rect" width="15" height="57.62686567164178" style="stroke-width: 0.5; stroke: rgb(0, 0, 0); stroke-opacity: 1; fill: rgb(128, 128, 128); fill-opacity: 1;"/><text class="node-label" data-notex="1" x="0" y="0" text-anchor="end" transform="translate(-3.25,33.01343283582089)" style="cursor: default; font-family: 'Open Sans', verdana, arial, sans-serif; font-size: 12px; fill: rgb(42, 63, 95); fill-opacity: 1; white-space: pre; text-shadow: white 1px 1px 1px, white -1px -1px 1px, white 1px -1px 1px, white -1px 1px 1px;">NonSocial-activated</text></g><g class="sankey-node" transform="translate(1125.000,486.403)" style="opacity: 1;"><rect class="node-rect" width="15" height="71.5970149253726" style="stroke-width: 0.5; stroke: rgb(0, 0, 0); stroke-opacity: 1; fill: rgb(128, 128, 128); fill-opacity: 1;"/><text class="node-label" data-notex="1" x="0" y="0" text-anchor="end" transform="translate(-3.25,39.998507462686305)" style="cursor: default; font-family: 'Open Sans', verdana, arial, sans-serif; font-size: 12px; fill: rgb(42, 63, 95); fill-opacity: 1; white-space: pre; text-shadow: white 1px 1px 1px, white -1px -1px 1px, white 1px -1px 1px, white -1px 1px 1px;">Social-suppressed</text></g><g class="sankey-node" transform="translate(1125.000,273.761)" style="opacity: 1;"><rect class="node-rect" width="15" height="48.895522388060044" style="stroke-width: 0.5; stroke: rgb(0, 0, 0); stroke-opacity: 1; fill: rgb(128, 128, 128); fill-opacity: 1;"/><text class="node-label" data-notex="1" x="0" y="0" text-anchor="end" transform="translate(-3.25,28.64776119403002)" style="cursor: default; font-family: 'Open Sans', verdana, arial, sans-serif; font-size: 12px; fill: rgb(42, 63, 95); fill-opacity: 1; white-space: pre; text-shadow: white 1px 1px 1px, white -1px -1px 1px, white 1px -1px 1px, white -1px 1px 1px;">NonSocial-suppressed</text></g><g class="sankey-node" transform="translate(1125.000,573.000)" style="opacity: 1;"><rect class="node-rect" width="15" height="64.61194029850753" style="stroke-width: 0.5; stroke: rgb(0, 0, 0); stroke-opacity: 1; fill: rgb(128, 128, 128); fill-opacity: 1;"/><text class="node-label" data-notex="1" x="0" y="0" text-anchor="end" transform="translate(-3.25,36.50597014925377)" style="cursor: default; font-family: 'Open Sans', verdana, arial, sans-serif; font-size: 12px; fill: rgb(42, 63, 95); fill-opacity: 1; white-space: pre; text-shadow: white 1px 1px 1px, white -1px -1px 1px, white 1px -1px 1px, white -1px 1px 1px;">Social-activated</text></g><g class="sankey-node" transform="translate(1125.000,419.015)" style="opacity: 1;"><rect class="node-rect" width="15" height="52.38805970149258" style="stroke-width: 0.5; stroke: rgb(0, 0, 0); stroke-opacity: 1; fill: rgb(128, 128, 128); fill-opacity: 1;"/><text class="node-label" data-notex="1" x="0" y="0" text-anchor="end" transform="translate(-3.25,30.39402985074629)" style="cursor: default; font-family: 'Open Sans', verdana, arial, sans-serif; font-size: 12px; fill: rgb(42, 63, 95); fill-opacity: 1; white-space: pre; text-shadow: white 1px 1px 1px, white -1px -1px 1px, white 1px -1px 1px, white -1px 1px 1px;">Aggressor-activated</text></g><g class="sankey-node" transform="translate(1125.000,652.612)" style="opacity: 1;"><rect class="node-rect" width="15" height="31.432835820895434" style="stroke-width: 0.5; stroke: rgb(0, 0, 0); stroke-opacity: 1; fill: rgb(128, 128, 128); fill-opacity: 1;"/><text class="node-label" data-notex="1" x="0" y="0" text-anchor="end" transform="translate(-3.25,19.916417910447716)" style="cursor: default; font-family: 'Open Sans', verdana, arial, sans-serif; font-size: 12px; fill: rgb(42, 63, 95); fill-opacity: 1; white-space: pre; text-shadow: white 1px 1px 1px, white -1px -1px 1px, white 1px -1px 1px, white -1px 1px 1px;">Target of Aggression-activated</text></g><g class="sankey-node" transform="translate(1125.000,699.045)" style="opacity: 1;"><rect class="node-rect" width="15" height="20.955223880597032" style="stroke-width: 0.5; stroke: rgb(0, 0, 0); stroke-opacity: 1; fill: rgb(128, 128, 128); fill-opacity: 1;"/><text class="node-label" data-notex="1" x="0" y="0" text-anchor="end" transform="translate(-3.25,14.677611940298515)" style="cursor: default; font-family: 'Open Sans', verdana, arial, sans-serif; font-size: 12px; fill: rgb(42, 63, 95); fill-opacity: 1; white-space: pre; text-shadow: white 1px 1px 1px, white -1px -1px 1px, white 1px -1px 1px, white -1px 1px 1px;">Target of Aggression-suppressed</text></g><g class="sankey-node" transform="translate(375.000,535.612)" style="opacity: 1;"><rect class="node-rect" width="15" height="141.44776119402945" style="stroke-width: 0.5; stroke: rgb(0, 0, 0); stroke-opacity: 1; fill: rgb(99, 110, 250); fill-opacity: 1;"/><text class="node-label" data-notex="1" x="0" y="0" text-anchor="start" transform="translate(18.25,74.92388059701473)" style="cursor: default; font-family: 'Open Sans', verdana, arial, sans-serif; font-size: 12px; fill: rgb(42, 63, 95); fill-opacity: 1; white-space: pre; text-shadow: white 1px 1px 1px, white -1px -1px 1px, white 1px -1px 1px, white -1px 1px 1px;">VTA</text></g><g class="sankey-node" transform="translate(375.000,255.582)" style="opacity: 1;"><rect class="node-rect" width="15" height="71.59701492537289" style="stroke-width: 0.5; stroke: rgb(0, 0, 0); stroke-opacity: 1; fill: rgb(239, 85, 59); fill-opacity: 1;"/><text class="node-label" data-notex="1" x="0" y="0" text-anchor="start" transform="translate(18.25,39.99850746268645)" style="cursor: default; font-family: 'Open Sans', verdana, arial, sans-serif; font-size: 12px; fill: rgb(42, 63, 95); fill-opacity: 1; white-space: pre; text-shadow: white 1px 1px 1px, white -1px -1px 1px, white 1px -1px 1px, white -1px 1px 1px;">LC</text></g><g class="sankey-node" transform="translate(375.000,365.910)" style="opacity: 1;"><rect class="node-rect" width="15" height="85.56716417910445" style="stroke-width: 0.5; stroke: rgb(0, 0, 0); stroke-opacity: 1; fill: rgb(0, 204, 150); fill-opacity: 1;"/><text class="node-label" data-notex="1" x="0" y="0" text-anchor="start" transform="translate(18.25,46.98358208955223)" style="cursor: default; font-family: 'Open Sans', verdana, arial, sans-serif; font-size: 12px; fill: rgb(42, 63, 95); fill-opacity: 1; white-space: pre; text-shadow: white 1px 1px 1px, white -1px -1px 1px, white 1px -1px 1px, white -1px 1px 1px;">Cla</text></g><g class="sankey-node" transform="translate(375.000,42.940)" style="opacity: 1;"><rect class="node-rect" width="15" height="111.76119402985069" style="stroke-width: 0.5; stroke: rgb(0, 0, 0); stroke-opacity: 1; fill: rgb(171, 99, 250); fill-opacity: 1;"/><text class="node-label" data-notex="1" x="0" y="0" text-anchor="start" transform="translate(18.25,60.080597014925345)" style="cursor: default; font-family: 'Open Sans', verdana, arial, sans-serif; font-size: 12px; fill: rgb(42, 63, 95); fill-opacity: 1; white-space: pre; text-shadow: white 1px 1px 1px, white -1px -1px 1px, white 1px -1px 1px, white -1px 1px 1px;">Str</text></g><g class="sankey-node" transform="translate(375.000,169.701)" style="opacity: 1;"><rect class="node-rect" width="15" height="33.1791044776117" style="stroke-width: 0.5; stroke: rgb(0, 0, 0); stroke-opacity: 1; fill: rgb(255, 161, 90); fill-opacity: 1;"/><text class="node-label" data-notex="1" x="0" y="0" text-anchor="start" transform="translate(18.25,20.78955223880585)" style="cursor: default; font-family: 'Open Sans', verdana, arial, sans-serif; font-size: 12px; fill: rgb(42, 63, 95); fill-opacity: 1; white-space: pre; text-shadow: white 1px 1px 1px, white -1px -1px 1px, white 1px -1px 1px, white -1px 1px 1px;">NAc</text></g><g class="sankey-node" transform="translate(375.000,0.000)" style="opacity: 1;"><rect class="node-rect" width="15" height="27.940298507462728" style="stroke-width: 0.5; stroke: rgb(0, 0, 0); stroke-opacity: 1; fill: rgb(25, 211, 243); fill-opacity: 1;"/><text class="node-label" data-notex="1" x="0" y="0" text-anchor="start" transform="translate(18.25,18.170149253731363)" style="cursor: default; font-family: 'Open Sans', verdana, arial, sans-serif; font-size: 12px; fill: rgb(42, 63, 95); fill-opacity: 1; white-space: pre; text-shadow: white 1px 1px 1px, white -1px -1px 1px, white 1px -1px 1px, white -1px 1px 1px;">BLA</text></g><g class="sankey-node" transform="translate(375.000,342.179)" style="opacity: 1;"><rect class="node-rect" width="15" height="8.731343283582078" style="stroke-width: 0.5; stroke: rgb(0, 0, 0); stroke-opacity: 1; fill: rgb(255, 102, 146); fill-opacity: 1;"/><text class="node-label" data-notex="1" x="0" y="0" text-anchor="start" transform="translate(18.25,8.565671641791038)" style="cursor: default; font-family: 'Open Sans', verdana, arial, sans-serif; font-size: 12px; fill: rgb(42, 63, 95); fill-opacity: 1; white-space: pre; text-shadow: white 1px 1px 1px, white -1px -1px 1px, white 1px -1px 1px, white -1px 1px 1px;">lHb</text></g><g class="sankey-node" transform="translate(375.000,217.881)" style="opacity: 1;"><rect class="node-rect" width="15" height="22.70149253731364" style="stroke-width: 0.5; stroke: rgb(0, 0, 0); stroke-opacity: 1; fill: rgb(182, 232, 128); fill-opacity: 1;"/><text class="node-label" data-notex="1" x="0" y="0" text-anchor="start" transform="translate(18.25,15.55074626865682)" style="cursor: default; font-family: 'Open Sans', verdana, arial, sans-serif; font-size: 12px; fill: rgb(42, 63, 95); fill-opacity: 1; white-space: pre; text-shadow: white 1px 1px 1px, white -1px -1px 1px, white 1px -1px 1px, white -1px 1px 1px;">dPAG</text></g><g class="sankey-node" transform="translate(375.000,466.478)" style="opacity: 1;"><rect class="node-rect" width="15" height="54.134328358208904" style="stroke-width: 0.5; stroke: rgb(0, 0, 0); stroke-opacity: 1; fill: rgb(255, 151, 255); fill-opacity: 1;"/><text class="node-label" data-notex="1" x="0" y="0" text-anchor="start" transform="translate(18.25,31.26716417910445)" style="cursor: default; font-family: 'Open Sans', verdana, arial, sans-serif; font-size: 12px; fill: rgb(42, 63, 95); fill-opacity: 1; white-space: pre; text-shadow: white 1px 1px 1px, white -1px -1px 1px, white 1px -1px 1px, white -1px 1px 1px;">cPFC</text></g><g class="sankey-node" transform="translate(375.000,692.060)" style="opacity: 1;"><rect class="node-rect" width="15" height="27.94029850746324" style="stroke-width: 0.5; stroke: rgb(0, 0, 0); stroke-opacity: 1; fill: rgb(254, 203, 82); fill-opacity: 1;"/><text class="node-label" data-notex="1" x="0" y="0" text-anchor="start" transform="translate(18.25,18.17014925373162)" style="cursor: default; font-family: 'Open Sans', verdana, arial, sans-serif; font-size: 12px; fill: rgb(42, 63, 95); fill-opacity: 1; white-space: pre; text-shadow: white 1px 1px 1px, white -1px -1px 1px, white 1px -1px 1px, white -1px 1px 1px;">LHyp</text></g></g></g><defs id="topdefs-7618c4"><g class="clips"/></defs><g class="layer-above"><g class="imagelayer"/><g class="shapelayer"/></g><g class="infolayer"><g class="g-gtitle"/><g class="first-render"/></g></svg>