<svg class="main-svg" xmlns="http://www.w3.org/2000/svg" xmlns:xlink="http://www.w3.org/1999/xlink" width="1300" height="900" style="" viewBox="0 0 1300 900"><rect x="0" y="0" width="1300" height="900" style="fill: rgb(255, 255, 255); fill-opacity: 1;"/><defs id="defs-b6769f"><g class="clips"/><g class="gradients"/><g class="patterns"/></defs><g class="bglayer"/><g class="layer-below"><g class="imagelayer"/><g class="shapelayer"/></g><g class="cartesianlayer"/><g class="polarlayer"/><g class="smithlayer"/><g class="ternarylayer"/><g class="geolayer"/><g class="funnelarealayer"/><g class="pielayer"/><g class="iciclelayer"/><g class="treemaplayer"/><g class="sunburstlayer"/><g class="glimages"/><g class="sankey" transform="translate(80,100)matrix(1 0 0 1 0 0)" style="box-sizing: content-box; position: absolute; left: 0px; shape-rendering: geometricprecision; pointer-events: none;"><g class="sankey-links" style="fill: none;"><path class="sankey-link" d="M15,486.9705882352945C195,486.9705882352945 195,165.44117647058863 375,165.44117647058863L375,173.47058823529449C195,173.47058823529449 195,495.00000000000034 15,495.00000000000034Z" style="stroke: rgb(68, 68, 68); stroke-opacity: 1; fill: rgb(239, 85, 59); fill-opacity: 0.6; stroke-width: 0; opacity: 1;"/><path class="sankey-link" d="M15,503.0294117647062C195,503.0294117647062 195,350.29411764705895 375,350.29411764705895L375,352.58823529411774C195,352.58823529411774 195,505.323529411765 15,505.323529411765Z" style="stroke: rgb(68, 68, 68); stroke-opacity: 1; fill: rgb(0, 204, 150); fill-opacity: 0.6; stroke-width: 0; opacity: 1;"/><path class="sankey-link" d="M15,482.38235294117686C195,482.38235294117686 195,93.08823529411812 375,93.08823529411812L375,97.67647058823577C195,97.67647058823577 195,486.97058823529454 15,486.97058823529454Z" style="stroke: rgb(68, 68, 68); stroke-opacity: 1; fill: rgb(255, 161, 90); fill-opacity: 0.6; stroke-width: 0; opacity: 1;"/><path class="sankey-link" d="M15,495.00000000000034C195,495.00000000000034 195,263.0294117647063 375,263.0294117647063L375,271.05882352941217C195,271.05882352941217 195,503.0294117647062 15,503.0294117647062Z" style="stroke: rgb(68, 68, 68); stroke-opacity: 1; fill: rgb(171, 99, 250); fill-opacity: 0.6; stroke-width: 0; opacity: 1;"/><path class="sankey-link" d="M15,505.32352941176504C195,505.32352941176504 195,484.6764705882355 375,484.6764705882355L375,485.82352941176487C195,485.82352941176487 195,506.47058823529443 15,506.47058823529443Z" style="stroke: rgb(68, 68, 68); stroke-opacity: 1; fill: rgb(99, 110, 250); fill-opacity: 0.6; stroke-width: 0; opacity: 1;"/><path class="sankey-link" d="M15,232.14705882352973C195,232.14705882352973 195,18.4411764705888 375,18.4411764705888L375,40.235294117647626C195,40.235294117647626 195,253.94117647058857 15,253.94117647058857Z" style="stroke: rgb(68, 68, 68); stroke-opacity: 1; fill: rgb(25, 211, 243); fill-opacity: 0.6; stroke-width: 0; opacity: 1;"/><path class="sankey-link" d="M15,268.8529411764709C195,268.8529411764709 195,119.55882352941217 375,119.55882352941217L375,148.23529411764747C195,148.23529411764747 195,297.52941176470614 15,297.52941176470614Z" style="stroke: rgb(68, 68, 68); stroke-opacity: 1; fill: rgb(239, 85, 59); fill-opacity: 0.6; stroke-width: 0; opacity: 1;"/><path class="sankey-link" d="M15,331.9411764705885C195,331.9411764705885 195,319.32352941176487 375,319.32352941176487L375,345.70588235294133C195,345.70588235294133 195,358.323529411765 15,358.323529411765Z" style="stroke: rgb(68, 68, 68); stroke-opacity: 1; fill: rgb(0, 204, 150); fill-opacity: 0.6; stroke-width: 0; opacity: 1;"/><path class="sankey-link" d="M15,253.94117647058854C195,253.94117647058854 195,67.85294117647106 375,67.85294117647106L375,82.76470588235341C195,82.76470588235341 195,268.8529411764709 15,268.8529411764709Z" style="stroke: rgb(68, 68, 68); stroke-opacity: 1; fill: rgb(255, 161, 90); fill-opacity: 0.6; stroke-width: 0; opacity: 1;"/><path class="sankey-link" d="M15,297.5294117647062C195,297.5294117647062 195,227.4705882352946 375,227.4705882352946L375,261.8823529411769C195,261.8823529411769 195,331.9411764705885 15,331.9411764705885Z" style="stroke: rgb(68, 68, 68); stroke-opacity: 1; fill: rgb(171, 99, 250); fill-opacity: 0.6; stroke-width: 0; opacity: 1;"/><path class="sankey-link" d="M15,377.823529411765C195,377.823529411765 195,466.32352941176487 375,466.32352941176487L375,482.3823529411766C195,482.3823529411766 195,393.8823529411767 15,393.8823529411767Z" style="stroke: rgb(68, 68, 68); stroke-opacity: 1; fill: rgb(99, 110, 250); fill-opacity: 0.6; stroke-width: 0; opacity: 1;"/><path class="sankey-link" d="M15,358.323529411765C195,358.323529411765 195,395.11764705882365 375,395.11764705882365L375,414.61764705882365C195,414.61764705882365 195,377.823529411765 15,377.823529411765Z" style="stroke: rgb(68, 68, 68); stroke-opacity: 1; fill: rgb(255, 151, 255); fill-opacity: 0.6; stroke-width: 0; opacity: 1;"/><path class="sankey-link" d="M15,393.88235294117675C195,393.88235294117675 195,646.5000000000002 375,646.5000000000002L375,656.8235294117649C195,656.8235294117649 195,404.2058823529415 15,404.2058823529415Z" style="stroke: rgb(68, 68, 68); stroke-opacity: 1; fill: rgb(255, 102, 146); fill-opacity: 0.6; stroke-width: 0; opacity: 1;"/><path class="sankey-link" d="M15,228.7058823529415C195,228.7058823529415 195,5.115907697472721e-13 375,5.115907697472721e-13L375,3.4411764705887466C195,3.4411764705887466 195,232.14705882352973 15,232.14705882352973Z" style="stroke: rgb(68, 68, 68); stroke-opacity: 1; fill: rgb(182, 232, 128); fill-opacity: 0.6; stroke-width: 0; opacity: 1;"/><path class="sankey-link" d="M15,419.2058823529416C195,419.2058823529416 195,40.235294117647626 375,40.235294117647626L375,42.52941176470645C195,42.52941176470645 195,421.5000000000004 15,421.5000000000004Z" style="stroke: rgb(68, 68, 68); stroke-opacity: 1; fill: rgb(25, 211, 243); fill-opacity: 0.6; stroke-width: 0; opacity: 1;"/><path class="sankey-link" d="M15,431.82352941176515C195,431.82352941176515 195,148.23529411764747 375,148.23529411764747L375,165.44117647058863C195,165.44117647058863 195,449.02941176470637 15,449.02941176470637Z" style="stroke: rgb(68, 68, 68); stroke-opacity: 1; fill: rgb(239, 85, 59); fill-opacity: 0.6; stroke-width: 0; opacity: 1;"/><path class="sankey-link" d="M15,450.1764705882357C195,450.1764705882357 195,345.70588235294133 375,345.70588235294133L375,350.294117647059C195,350.294117647059 195,454.7647058823534 15,454.7647058823534Z" style="stroke: rgb(68, 68, 68); stroke-opacity: 1; fill: rgb(0, 204, 150); fill-opacity: 0.6; stroke-width: 0; opacity: 1;"/><path class="sankey-link" d="M15,421.50000000000045C195,421.50000000000045 195,82.76470588235341 375,82.76470588235341L375,93.0882352941181C195,93.0882352941181 195,431.8235294117652 15,431.8235294117652Z" style="stroke: rgb(68, 68, 68); stroke-opacity: 1; fill: rgb(255, 161, 90); fill-opacity: 0.6; stroke-width: 0; opacity: 1;"/><path class="sankey-link" d="M15,449.0294117647063C195,449.0294117647063 195,261.8823529411769 375,261.8823529411769L375,263.0294117647063C195,263.0294117647063 195,450.1764705882357 15,450.1764705882357Z" style="stroke: rgb(68, 68, 68); stroke-opacity: 1; fill: rgb(171, 99, 250); fill-opacity: 0.6; stroke-width: 0; opacity: 1;"/><path class="sankey-link" d="M15,458.20588235294156C195,458.20588235294156 195,482.38235294117663 375,482.38235294117663L375,484.6764705882354C195,484.6764705882354 195,460.50000000000034 15,460.50000000000034Z" style="stroke: rgb(68, 68, 68); stroke-opacity: 1; fill: rgb(99, 110, 250); fill-opacity: 0.6; stroke-width: 0; opacity: 1;"/><path class="sankey-link" d="M15,454.7647058823533C195,454.7647058823533 195,414.61764705882365 375,414.61764705882365L375,418.05882352941194C195,418.05882352941194 195,458.2058823529416 15,458.2058823529416Z" style="stroke: rgb(68, 68, 68); stroke-opacity: 1; fill: rgb(255, 151, 255); fill-opacity: 0.6; stroke-width: 0; opacity: 1;"/><path class="sankey-link" d="M15,460.5000000000004C195,460.5000000000004 195,656.823529411765 375,656.823529411765L375,663.7058823529416C195,663.7058823529416 195,467.38235294117686 15,467.38235294117686Z" style="stroke: rgb(68, 68, 68); stroke-opacity: 1; fill: rgb(255, 102, 146); fill-opacity: 0.6; stroke-width: 0; opacity: 1;"/><path class="sankey-link" d="M15,521.4705882352944C195,521.4705882352944 195,173.4705882352945 375,173.4705882352945L375,181.50000000000037C195,181.50000000000037 195,529.5000000000002 15,529.5000000000002Z" style="stroke: rgb(68, 68, 68); stroke-opacity: 1; fill: rgb(239, 85, 59); fill-opacity: 0.6; stroke-width: 0; opacity: 1;"/><path class="sankey-link" d="M15,538.6764705882355C195,538.6764705882355 195,352.5882352941178 375,352.5882352941178L375,358.32352941176487C195,358.32352941176487 195,544.4117647058825 15,544.4117647058825Z" style="stroke: rgb(68, 68, 68); stroke-opacity: 1; fill: rgb(0, 204, 150); fill-opacity: 0.6; stroke-width: 0; opacity: 1;"/><path class="sankey-link" d="M15,601.764705882353C195,601.764705882353 195,685.588235294118 375,685.588235294118L375,697.0588235294122C195,697.0588235294122 195,613.2352941176472 15,613.2352941176472Z" style="stroke: rgb(68, 68, 68); stroke-opacity: 1; fill: rgb(254, 203, 82); fill-opacity: 0.6; stroke-width: 0; opacity: 1;"/><path class="sankey-link" d="M15,529.5000000000002C195,529.5000000000002 195,271.05882352941217 375,271.05882352941217L375,280.2352941176474C195,280.2352941176474 195,538.6764705882356 15,538.6764705882356Z" style="stroke: rgb(68, 68, 68); stroke-opacity: 1; fill: rgb(171, 99, 250); fill-opacity: 0.6; stroke-width: 0; opacity: 1;"/><path class="sankey-link" d="M15,552.4411764705884C195,552.4411764705884 195,485.82352941176487 375,485.82352941176487L375,532.8529411764707C195,532.8529411764707 195,599.4705882352943 15,599.4705882352943Z" style="stroke: rgb(68, 68, 68); stroke-opacity: 1; fill: rgb(99, 110, 250); fill-opacity: 0.6; stroke-width: 0; opacity: 1;"/><path class="sankey-link" d="M15,544.4117647058825C195,544.4117647058825 195,418.0588235294119 375,418.0588235294119L375,426.08823529411774C195,426.08823529411774 195,552.4411764705884 15,552.4411764705884Z" style="stroke: rgb(68, 68, 68); stroke-opacity: 1; fill: rgb(255, 151, 255); fill-opacity: 0.6; stroke-width: 0; opacity: 1;"/><path class="sankey-link" d="M15,599.4705882352943C195,599.4705882352943 195,663.7058823529414 375,663.7058823529414L375,666.0000000000002C195,666.0000000000002 195,601.764705882353 15,601.764705882353Z" style="stroke: rgb(68, 68, 68); stroke-opacity: 1; fill: rgb(255, 102, 146); fill-opacity: 0.6; stroke-width: 0; opacity: 1;"/><path class="sankey-link" d="M15,628.2352941176473C195,628.2352941176473 195,181.5000000000004 375,181.5000000000004L375,189.52941176470625C195,189.52941176470625 195,636.2647058823532 15,636.2647058823532Z" style="stroke: rgb(68, 68, 68); stroke-opacity: 1; fill: rgb(239, 85, 59); fill-opacity: 0.6; stroke-width: 0; opacity: 1;"/><path class="sankey-link" d="M15,645.4411764705884C195,645.4411764705884 195,358.32352941176487 375,358.32352941176487L375,364.05882352941194C195,364.05882352941194 195,651.1764705882355 15,651.1764705882355Z" style="stroke: rgb(68, 68, 68); stroke-opacity: 1; fill: rgb(0, 204, 150); fill-opacity: 0.6; stroke-width: 0; opacity: 1;"/><path class="sankey-link" d="M15,708.529411764706C195,708.529411764706 195,697.0588235294122 375,697.0588235294122L375,708.5294117647063C195,708.5294117647063 195,720.0000000000001 15,720.0000000000001Z" style="stroke: rgb(68, 68, 68); stroke-opacity: 1; fill: rgb(254, 203, 82); fill-opacity: 0.6; stroke-width: 0; opacity: 1;"/><path class="sankey-link" d="M15,636.2647058823532C195,636.2647058823532 195,280.23529411764747 375,280.23529411764747L375,289.4117647058827C195,289.4117647058827 195,645.4411764705885 15,645.4411764705885Z" style="stroke: rgb(68, 68, 68); stroke-opacity: 1; fill: rgb(171, 99, 250); fill-opacity: 0.6; stroke-width: 0; opacity: 1;"/><path class="sankey-link" d="M15,659.2058823529413C195,659.2058823529413 195,532.8529411764707 375,532.8529411764707L375,579.8823529411766C195,579.8823529411766 195,706.2352941176472 15,706.2352941176472Z" style="stroke: rgb(68, 68, 68); stroke-opacity: 1; fill: rgb(99, 110, 250); fill-opacity: 0.6; stroke-width: 0; opacity: 1;"/><path class="sankey-link" d="M15,651.1764705882355C195,651.1764705882355 195,426.08823529411774 375,426.08823529411774L375,434.1176470588236C195,434.1176470588236 195,659.2058823529413 15,659.2058823529413Z" style="stroke: rgb(68, 68, 68); stroke-opacity: 1; fill: rgb(255, 151, 255); fill-opacity: 0.6; stroke-width: 0; opacity: 1;"/><path class="sankey-link" d="M15,706.2352941176472C195,706.2352941176472 195,666.0000000000002 375,666.0000000000002L375,668.294117647059C195,668.294117647059 195,708.529411764706 15,708.529411764706Z" style="stroke: rgb(68, 68, 68); stroke-opacity: 1; fill: rgb(255, 102, 146); fill-opacity: 0.6; stroke-width: 0; opacity: 1;"/><path class="sankey-link" d="M390,18.4411764705888C570,18.4411764705888 570,77.29411764705891 750,77.29411764705891L750,81.88235294117656C570,81.88235294117656 570,23.029411764706445 390,23.029411764706445Z" style="stroke: rgb(68, 68, 68); stroke-opacity: 1; fill: rgb(25, 211, 243); fill-opacity: 0.6; stroke-width: 0; opacity: 1;"/><path class="sankey-link" d="M390,50.55882352941233C570,50.55882352941233 570,562.7647058823528 750,562.7647058823528L750,565.0588235294116C570,565.0588235294116 570,52.852941176471155 390,52.852941176471155Z" style="stroke: rgb(68, 68, 68); stroke-opacity: 1; fill: rgb(25, 211, 243); fill-opacity: 0.6; stroke-width: 0; opacity: 1;"/><path class="sankey-link" d="M390,23.029411764706445C570,23.029411764706445 570,193.2352941176474 750,193.2352941176474L750,207.00000000000034C570,207.00000000000034 570,36.79411764705939 390,36.79411764705939Z" style="stroke: rgb(68, 68, 68); stroke-opacity: 1; fill: rgb(25, 211, 243); fill-opacity: 0.6; stroke-width: 0; opacity: 1;"/><path class="sankey-link" d="M390,36.79411764705939C570,36.79411764705939 570,383.73529411764684 750,383.73529411764684L750,397.4999999999998C570,397.4999999999998 570,50.55882352941233 390,50.55882352941233Z" style="stroke: rgb(68, 68, 68); stroke-opacity: 1; fill: rgb(25, 211, 243); fill-opacity: 0.6; stroke-width: 0; opacity: 1;"/><path class="sankey-link" d="M390,119.55882352941218C570,119.55882352941218 570,88.76470588235303 750,88.76470588235303L750,107.11764705882361C570,107.11764705882361 570,137.91176470588277 390,137.91176470588277Z" style="stroke: rgb(68, 68, 68); stroke-opacity: 1; fill: rgb(239, 85, 59); fill-opacity: 0.6; stroke-width: 0; opacity: 1;"/><path class="sankey-link" d="M390,205.58823529411805C570,205.58823529411805 570,675.264705882353 750,675.264705882353L750,682.1470588235296C570,682.1470588235296 570,212.4705882352945 390,212.4705882352945Z" style="stroke: rgb(68, 68, 68); stroke-opacity: 1; fill: rgb(239, 85, 59); fill-opacity: 0.6; stroke-width: 0; opacity: 1;"/><path class="sankey-link" d="M390,196.41176470588275C570,196.41176470588275 570,568.4999999999999 750,568.4999999999999L750,577.6764705882352C570,577.6764705882352 570,205.58823529411805 390,205.58823529411805Z" style="stroke: rgb(68, 68, 68); stroke-opacity: 1; fill: rgb(239, 85, 59); fill-opacity: 0.6; stroke-width: 0; opacity: 1;"/><path class="sankey-link" d="M390,137.91176470588272C570,137.91176470588272 570,220.76470588235327 750,220.76470588235327L750,251.7352941176474C570,251.7352941176474 570,168.88235294117686 390,168.88235294117686Z" style="stroke: rgb(68, 68, 68); stroke-opacity: 1; fill: rgb(239, 85, 59); fill-opacity: 0.6; stroke-width: 0; opacity: 1;"/><path class="sankey-link" d="M390,168.88235294117686C570,168.88235294117686 570,408.9705882352939 750,408.9705882352939L750,436.4999999999998C570,436.4999999999998 570,196.41176470588272 390,196.41176470588272Z" style="stroke: rgb(68, 68, 68); stroke-opacity: 1; fill: rgb(239, 85, 59); fill-opacity: 0.6; stroke-width: 0; opacity: 1;"/><path class="sankey-link" d="M390,319.32352941176487C570,319.32352941176487 570,123.17647058823539 750,123.17647058823539L750,132.3529411764707C570,132.3529411764707 570,328.5000000000001 390,328.5000000000001Z" style="stroke: rgb(68, 68, 68); stroke-opacity: 1; fill: rgb(0, 204, 150); fill-opacity: 0.6; stroke-width: 0; opacity: 1;"/><path class="sankey-link" d="M390,373.23529411764724C570,373.23529411764724 570,685.5882352941178 750,685.5882352941178L750,692.4705882352944C570,692.4705882352944 570,380.1176470588237 390,380.1176470588237Z" style="stroke: rgb(68, 68, 68); stroke-opacity: 1; fill: rgb(0, 204, 150); fill-opacity: 0.6; stroke-width: 0; opacity: 1;"/><path class="sankey-link" d="M390,367.50000000000017C570,367.50000000000017 570,586.8529411764704 750,586.8529411764704L750,592.5882352941175C570,592.5882352941175 570,373.23529411764724 390,373.23529411764724Z" style="stroke: rgb(68, 68, 68); stroke-opacity: 1; fill: rgb(0, 204, 150); fill-opacity: 0.6; stroke-width: 0; opacity: 1;"/><path class="sankey-link" d="M390,328.50000000000017C570,328.50000000000017 570,275.82352941176504 750,275.82352941176504L750,297.6176470588238C570,297.6176470588238 570,350.29411764705895 390,350.29411764705895Z" style="stroke: rgb(68, 68, 68); stroke-opacity: 1; fill: rgb(0, 204, 150); fill-opacity: 0.6; stroke-width: 0; opacity: 1;"/><path class="sankey-link" d="M390,350.294117647059C570,350.294117647059 570,460.5882352941174 750,460.5882352941174L750,477.7941176470586C570,477.7941176470586 570,367.5000000000002 390,367.5000000000002Z" style="stroke: rgb(68, 68, 68); stroke-opacity: 1; fill: rgb(0, 204, 150); fill-opacity: 0.6; stroke-width: 0; opacity: 1;"/><path class="sankey-link" d="M390,685.588235294118C570,685.588235294118 570,175.94117647058835 750,175.94117647058835L750,178.2352941176472C570,178.2352941176472 570,687.8823529411768 390,687.8823529411768Z" style="stroke: rgb(68, 68, 68); stroke-opacity: 1; fill: rgb(254, 203, 82); fill-opacity: 0.6; stroke-width: 0; opacity: 1;"/><path class="sankey-link" d="M390,715.4117647058828C570,715.4117647058828 570,715.4117647058825 750,715.4117647058825L750,720.0000000000001C570,720.0000000000001 570,720.0000000000003 390,720.0000000000003Z" style="stroke: rgb(68, 68, 68); stroke-opacity: 1; fill: rgb(254, 203, 82); fill-opacity: 0.6; stroke-width: 0; opacity: 1;"/><path class="sankey-link" d="M390,705.088235294118C570,705.088235294118 570,648.7941176470586 750,648.7941176470586L750,659.1176470588232C570,659.1176470588232 570,715.4117647058827 390,715.4117647058827Z" style="stroke: rgb(68, 68, 68); stroke-opacity: 1; fill: rgb(254, 203, 82); fill-opacity: 0.6; stroke-width: 0; opacity: 1;"/><path class="sankey-link" d="M390,687.8823529411768C570,687.8823529411768 570,357.26470588235327 750,357.26470588235327L750,367.588235294118C570,367.588235294118 570,698.2058823529414 390,698.2058823529414Z" style="stroke: rgb(68, 68, 68); stroke-opacity: 1; fill: rgb(254, 203, 82); fill-opacity: 0.6; stroke-width: 0; opacity: 1;"/><path class="sankey-link" d="M390,698.2058823529416C570,698.2058823529416 570,540.8823529411762 750,540.8823529411762L750,547.7647058823528C570,547.7647058823528 570,705.0882352941181 390,705.0882352941181Z" style="stroke: rgb(68, 68, 68); stroke-opacity: 1; fill: rgb(254, 203, 82); fill-opacity: 0.6; stroke-width: 0; opacity: 1;"/><path class="sankey-link" d="M390,67.85294117647106C570,67.85294117647106 570,81.88235294117656 750,81.88235294117656L750,88.76470588235303C570,88.76470588235303 570,74.73529411764753 390,74.73529411764753Z" style="stroke: rgb(68, 68, 68); stroke-opacity: 1; fill: rgb(255, 161, 90); fill-opacity: 0.6; stroke-width: 0; opacity: 1;"/><path class="sankey-link" d="M390,103.41176470588282C570,103.41176470588282 570,674.1176470588236 750,674.1176470588236L750,675.2647058823532C570,675.2647058823532 570,104.55882352941224 390,104.55882352941224Z" style="stroke: rgb(68, 68, 68); stroke-opacity: 1; fill: rgb(255, 161, 90); fill-opacity: 0.6; stroke-width: 0; opacity: 1;"/><path class="sankey-link" d="M390,99.97058823529458C570,99.97058823529458 570,565.0588235294116 750,565.0588235294116L750,568.4999999999999C570,568.4999999999999 570,103.41176470588282 390,103.41176470588282Z" style="stroke: rgb(68, 68, 68); stroke-opacity: 1; fill: rgb(255, 161, 90); fill-opacity: 0.6; stroke-width: 0; opacity: 1;"/><path class="sankey-link" d="M390,74.73529411764753C570,74.73529411764753 570,207.00000000000034 750,207.00000000000034L750,220.76470588235327C570,220.76470588235327 570,88.50000000000045 390,88.50000000000045Z" style="stroke: rgb(68, 68, 68); stroke-opacity: 1; fill: rgb(255, 161, 90); fill-opacity: 0.6; stroke-width: 0; opacity: 1;"/><path class="sankey-link" d="M390,88.50000000000047C570,88.50000000000047 570,397.4999999999998 750,397.4999999999998L750,408.9705882352939C570,408.9705882352939 570,99.97058823529458 390,99.97058823529458Z" style="stroke: rgb(68, 68, 68); stroke-opacity: 1; fill: rgb(255, 161, 90); fill-opacity: 0.6; stroke-width: 0; opacity: 1;"/><path class="sankey-link" d="M390,227.4705882352946C570,227.4705882352946 570,107.11764705882362 750,107.11764705882362L750,123.17647058823539C570,123.17647058823539 570,243.52941176470637 390,243.52941176470637Z" style="stroke: rgb(68, 68, 68); stroke-opacity: 1; fill: rgb(171, 99, 250); fill-opacity: 0.6; stroke-width: 0; opacity: 1;"/><path class="sankey-link" d="M390,300.8823529411769C570,300.8823529411769 570,682.1470588235295 750,682.1470588235295L750,685.5882352941178C570,685.5882352941178 570,304.3235294117652 390,304.3235294117652Z" style="stroke: rgb(68, 68, 68); stroke-opacity: 1; fill: rgb(171, 99, 250); fill-opacity: 0.6; stroke-width: 0; opacity: 1;"/><path class="sankey-link" d="M390,291.7058823529416C570,291.7058823529416 570,577.6764705882351 750,577.6764705882351L750,586.8529411764705C570,586.8529411764705 570,300.88235294117686 390,300.88235294117686Z" style="stroke: rgb(68, 68, 68); stroke-opacity: 1; fill: rgb(171, 99, 250); fill-opacity: 0.6; stroke-width: 0; opacity: 1;"/><path class="sankey-link" d="M390,243.52941176470637C570,243.52941176470637 570,251.73529411764738 750,251.73529411764738L750,275.82352941176504C570,275.82352941176504 570,267.617647058824 390,267.617647058824Z" style="stroke: rgb(68, 68, 68); stroke-opacity: 1; fill: rgb(171, 99, 250); fill-opacity: 0.6; stroke-width: 0; opacity: 1;"/><path class="sankey-link" d="M390,267.617647058824C570,267.617647058824 570,436.4999999999998 750,436.4999999999998L750,460.58823529411745C570,460.58823529411745 570,291.70588235294167 390,291.70588235294167Z" style="stroke: rgb(68, 68, 68); stroke-opacity: 1; fill: rgb(171, 99, 250); fill-opacity: 0.6; stroke-width: 0; opacity: 1;"/><path class="sankey-link" d="M390,466.32352941176487C570,466.32352941176487 570,141.52941176470597 750,141.52941176470597L750,172.5000000000001C570,172.5000000000001 570,497.294117647059 390,497.294117647059Z" style="stroke: rgb(68, 68, 68); stroke-opacity: 1; fill: rgb(99, 110, 250); fill-opacity: 0.6; stroke-width: 0; opacity: 1;"/><path class="sankey-link" d="M390,614.294117647059C570,614.294117647059 570,695.9117647058825 750,695.9117647058825L750,713.1176470588238C570,713.1176470588238 570,631.5000000000002 390,631.5000000000002Z" style="stroke: rgb(68, 68, 68); stroke-opacity: 1; fill: rgb(99, 110, 250); fill-opacity: 0.6; stroke-width: 0; opacity: 1;"/><path class="sankey-link" d="M390,571.8529411764707C570,571.8529411764707 570,600.6176470588233 750,600.6176470588233L750,643.0588235294116C570,643.0588235294116 570,614.294117647059 390,614.294117647059Z" style="stroke: rgb(68, 68, 68); stroke-opacity: 1; fill: rgb(99, 110, 250); fill-opacity: 0.6; stroke-width: 0; opacity: 1;"/><path class="sankey-link" d="M390,497.294117647059C570,497.294117647059 570,313.67647058823565 750,313.67647058823565L750,349.23529411764736C570,349.23529411764736 570,532.8529411764707 390,532.8529411764707Z" style="stroke: rgb(68, 68, 68); stroke-opacity: 1; fill: rgb(99, 110, 250); fill-opacity: 0.6; stroke-width: 0; opacity: 1;"/><path class="sankey-link" d="M390,532.8529411764707C570,532.8529411764707 570,497.29411764705856 750,497.29411764705856L750,536.2941176470586C570,536.2941176470586 570,571.8529411764707 390,571.8529411764707Z" style="stroke: rgb(68, 68, 68); stroke-opacity: 1; fill: rgb(99, 110, 250); fill-opacity: 0.6; stroke-width: 0; opacity: 1;"/><path class="sankey-link" d="M390,395.11764705882365C570,395.11764705882365 570,132.3529411764707 750,132.3529411764707L750,141.529411764706C570,141.529411764706 570,404.2941176470589 390,404.2941176470589Z" style="stroke: rgb(68, 68, 68); stroke-opacity: 1; fill: rgb(255, 151, 255); fill-opacity: 0.6; stroke-width: 0; opacity: 1;"/><path class="sankey-link" d="M390,447.8823529411766C570,447.8823529411766 570,692.4705882352943 750,692.4705882352943L750,695.9117647058825C570,695.9117647058825 570,451.32352941176487 390,451.32352941176487Z" style="stroke: rgb(68, 68, 68); stroke-opacity: 1; fill: rgb(255, 151, 255); fill-opacity: 0.6; stroke-width: 0; opacity: 1;"/><path class="sankey-link" d="M390,439.8529411764707C570,439.8529411764707 570,592.5882352941175 750,592.5882352941175L750,600.6176470588233C570,600.6176470588233 570,447.8823529411766 390,447.8823529411766Z" style="stroke: rgb(68, 68, 68); stroke-opacity: 1; fill: rgb(255, 151, 255); fill-opacity: 0.6; stroke-width: 0; opacity: 1;"/><path class="sankey-link" d="M390,404.29411764705895C570,404.29411764705895 570,297.6176470588239 750,297.6176470588239L750,313.6764705882356C570,313.6764705882356 570,420.35294117647067 390,420.35294117647067Z" style="stroke: rgb(68, 68, 68); stroke-opacity: 1; fill: rgb(255, 151, 255); fill-opacity: 0.6; stroke-width: 0; opacity: 1;"/><path class="sankey-link" d="M390,420.3529411764707C570,420.3529411764707 570,477.79411764705856 750,477.79411764705856L750,497.29411764705856C570,497.29411764705856 570,439.8529411764707 390,439.8529411764707Z" style="stroke: rgb(68, 68, 68); stroke-opacity: 1; fill: rgb(255, 151, 255); fill-opacity: 0.6; stroke-width: 0; opacity: 1;"/><path class="sankey-link" d="M390,646.5000000000002C570,646.5000000000002 570,172.5000000000001 750,172.5000000000001L750,175.94117647058835C570,175.94117647058835 570,649.9411764705885 390,649.9411764705885Z" style="stroke: rgb(68, 68, 68); stroke-opacity: 1; fill: rgb(255, 102, 146); fill-opacity: 0.6; stroke-width: 0; opacity: 1;"/><path class="sankey-link" d="M390,668.2941176470591C570,668.2941176470591 570,713.1176470588238 750,713.1176470588238L750,715.4117647058825C570,715.4117647058825 570,670.5882352941179 390,670.5882352941179Z" style="stroke: rgb(68, 68, 68); stroke-opacity: 1; fill: rgb(255, 102, 146); fill-opacity: 0.6; stroke-width: 0; opacity: 1;"/><path class="sankey-link" d="M390,662.558823529412C570,662.558823529412 570,643.0588235294115 750,643.0588235294115L750,648.7941176470586C570,648.7941176470586 570,668.2941176470591 390,668.2941176470591Z" style="stroke: rgb(68, 68, 68); stroke-opacity: 1; fill: rgb(255, 102, 146); fill-opacity: 0.6; stroke-width: 0; opacity: 1;"/><path class="sankey-link" d="M390,649.9411764705885C570,649.9411764705885 570,349.2352941176474 750,349.2352941176474L750,357.26470588235327C570,357.26470588235327 570,657.9705882352944 390,657.9705882352944Z" style="stroke: rgb(68, 68, 68); stroke-opacity: 1; fill: rgb(255, 102, 146); fill-opacity: 0.6; stroke-width: 0; opacity: 1;"/><path class="sankey-link" d="M390,657.9705882352944C570,657.9705882352944 570,536.2941176470586 750,536.2941176470586L750,540.8823529411761C570,540.8823529411761 570,662.5588235294119 390,662.5588235294119Z" style="stroke: rgb(68, 68, 68); stroke-opacity: 1; fill: rgb(255, 102, 146); fill-opacity: 0.6; stroke-width: 0; opacity: 1;"/><path class="sankey-link" d="M390,5.115907697472721e-13C570,5.115907697472721e-13 570,76.1470588235295 750,76.1470588235295L750,77.29411764705893C570,77.29411764705893 570,1.1470588235299233 390,1.1470588235299233Z" style="stroke: rgb(68, 68, 68); stroke-opacity: 1; fill: rgb(182, 232, 128); fill-opacity: 0.6; stroke-width: 0; opacity: 1;"/><path class="sankey-link" d="M390,1.1470588235299233C570,1.1470588235299233 570,382.58823529411745 750,382.58823529411745L750,383.73529411764684C570,383.73529411764684 570,2.294117647059335 390,2.294117647059335Z" style="stroke: rgb(68, 68, 68); stroke-opacity: 1; fill: rgb(182, 232, 128); fill-opacity: 0.6; stroke-width: 0; opacity: 1;"/><path class="sankey-link" d="M765,132.35294117647067C945,132.35294117647067 945,72.35294117647055 1125,72.35294117647055L1125,74.64705882352936C945,74.64705882352936 945,134.6470588235295 765,134.6470588235295Z" style="stroke: rgb(68, 68, 68); stroke-opacity: 1; fill: rgb(25, 211, 243); fill-opacity: 0.6; stroke-width: 0; opacity: 1;"/><path class="sankey-link" d="M765,76.1470588235295C945,76.1470588235295 945,1.1470588235294414 1125,1.1470588235294414L1125,3.441176470588265C945,3.441176470588265 945,78.44117647058832 765,78.44117647058832Z" style="stroke: rgb(68, 68, 68); stroke-opacity: 1; fill: rgb(25, 211, 243); fill-opacity: 0.6; stroke-width: 0; opacity: 1;"/><path class="sankey-link" d="M765,615.5294117647059C945,615.5294117647059 945,600.5294117647059 1125,600.5294117647059L1125,601.6764705882354C945,601.6764705882354 945,616.6764705882354 765,616.6764705882354Z" style="stroke: rgb(68, 68, 68); stroke-opacity: 1; fill: rgb(25, 211, 243); fill-opacity: 0.6; stroke-width: 0; opacity: 1;"/><path class="sankey-link" d="M765,562.7647058823528C945,562.7647058823528 945,532.7647058823529 1125,532.7647058823529L1125,533.9117647058824C945,533.9117647058824 945,563.9117647058823 765,563.9117647058823Z" style="stroke: rgb(68, 68, 68); stroke-opacity: 1; fill: rgb(25, 211, 243); fill-opacity: 0.6; stroke-width: 0; opacity: 1;"/><path class="sankey-link" d="M765,193.2352941176474C945,193.2352941176474 945,133.23529411764696 1125,133.23529411764696L1125,140.11764705882342C945,140.11764705882342 945,200.11764705882388 765,200.11764705882388Z" style="stroke: rgb(68, 68, 68); stroke-opacity: 1; fill: rgb(25, 211, 243); fill-opacity: 0.6; stroke-width: 0; opacity: 1;"/><path class="sankey-link" d="M765,294.17647058823565C945,294.17647058823565 945,249.17647058823525 1125,249.17647058823525L1125,256.0588235294117C945,256.0588235294117 945,301.0588235294121 765,301.0588235294121Z" style="stroke: rgb(68, 68, 68); stroke-opacity: 1; fill: rgb(25, 211, 243); fill-opacity: 0.6; stroke-width: 0; opacity: 1;"/><path class="sankey-link" d="M765,464.0294117647057C945,464.0294117647057 945,434.0294117647061 1125,434.0294117647061L1125,440.91176470588255C945,440.91176470588255 945,470.91176470588215 765,470.91176470588215Z" style="stroke: rgb(68, 68, 68); stroke-opacity: 1; fill: rgb(25, 211, 243); fill-opacity: 0.6; stroke-width: 0; opacity: 1;"/><path class="sankey-link" d="M765,382.58823529411745C945,382.58823529411745 945,337.5882352941178 1125,337.5882352941178L1125,344.47058823529426C945,344.47058823529426 945,389.4705882352939 765,389.4705882352939Z" style="stroke: rgb(68, 68, 68); stroke-opacity: 1; fill: rgb(25, 211, 243); fill-opacity: 0.6; stroke-width: 0; opacity: 1;"/><path class="sankey-link" d="M765,134.64705882352948C945,134.64705882352948 945,74.64705882352938 1125,74.64705882352938L1125,82.67647058823526C945,82.67647058823526 945,142.67647058823533 765,142.67647058823533Z" style="stroke: rgb(68, 68, 68); stroke-opacity: 1; fill: rgb(239, 85, 59); fill-opacity: 0.6; stroke-width: 0; opacity: 1;"/><path class="sankey-link" d="M765,78.44117647058833C945,78.44117647058833 945,3.441176470588265 1125,3.441176470588265L1125,13.76470588235297C945,13.76470588235297 945,88.76470588235303 765,88.76470588235303Z" style="stroke: rgb(68, 68, 68); stroke-opacity: 1; fill: rgb(239, 85, 59); fill-opacity: 0.6; stroke-width: 0; opacity: 1;"/><path class="sankey-link" d="M765,674.1176470588236C945,674.1176470588236 945,659.1176470588236 1125,659.1176470588236L1125,663.7058823529412C945,663.7058823529412 945,678.7058823529412 765,678.7058823529412Z" style="stroke: rgb(68, 68, 68); stroke-opacity: 1; fill: rgb(239, 85, 59); fill-opacity: 0.6; stroke-width: 0; opacity: 1;"/><path class="sankey-link" d="M765,699.3529411764706C945,699.3529411764706 945,699.3529411764707 1125,699.3529411764707L1125,701.6470588235295C945,701.6470588235295 945,701.6470588235294 765,701.6470588235294Z" style="stroke: rgb(68, 68, 68); stroke-opacity: 1; fill: rgb(239, 85, 59); fill-opacity: 0.6; stroke-width: 0; opacity: 1;"/><path class="sankey-link" d="M765,616.6764705882352C945,616.6764705882352 945,601.6764705882352 1125,601.6764705882352L1125,605.1176470588235C945,605.1176470588235 945,620.1176470588235 765,620.1176470588235Z" style="stroke: rgb(68, 68, 68); stroke-opacity: 1; fill: rgb(239, 85, 59); fill-opacity: 0.6; stroke-width: 0; opacity: 1;"/><path class="sankey-link" d="M765,563.9117647058822C945,563.9117647058822 945,533.9117647058823 1125,533.9117647058823L1125,539.6470588235294C945,539.6470588235294 945,569.6470588235293 765,569.6470588235293Z" style="stroke: rgb(68, 68, 68); stroke-opacity: 1; fill: rgb(239, 85, 59); fill-opacity: 0.6; stroke-width: 0; opacity: 1;"/><path class="sankey-link" d="M765,200.11764705882388C945,200.11764705882388 945,140.11764705882342 1125,140.11764705882342L1125,156.1764705882352C945,156.1764705882352 945,216.17647058823565 765,216.17647058823565Z" style="stroke: rgb(68, 68, 68); stroke-opacity: 1; fill: rgb(239, 85, 59); fill-opacity: 0.6; stroke-width: 0; opacity: 1;"/><path class="sankey-link" d="M765,301.0588235294121C945,301.0588235294121 945,256.0588235294117 1125,256.0588235294117L1125,270.97058823529403C945,270.97058823529403 945,315.97058823529443 765,315.97058823529443Z" style="stroke: rgb(68, 68, 68); stroke-opacity: 1; fill: rgb(239, 85, 59); fill-opacity: 0.6; stroke-width: 0; opacity: 1;"/><path class="sankey-link" d="M765,470.91176470588215C945,470.91176470588215 945,440.91176470588255 1125,440.91176470588255L1125,460.41176470588255C945,460.41176470588255 945,490.41176470588215 765,490.41176470588215Z" style="stroke: rgb(68, 68, 68); stroke-opacity: 1; fill: rgb(239, 85, 59); fill-opacity: 0.6; stroke-width: 0; opacity: 1;"/><path class="sankey-link" d="M765,389.4705882352939C945,389.4705882352939 945,344.47058823529426 1125,344.47058823529426L1125,352.5000000000001C945,352.5000000000001 945,397.4999999999998 765,397.4999999999998Z" style="stroke: rgb(68, 68, 68); stroke-opacity: 1; fill: rgb(239, 85, 59); fill-opacity: 0.6; stroke-width: 0; opacity: 1;"/><path class="sankey-link" d="M765,142.67647058823536C945,142.67647058823536 945,82.67647058823526 1125,82.67647058823526L1125,87.26470588235291C945,87.26470588235291 945,147.26470588235298 765,147.26470588235298Z" style="stroke: rgb(68, 68, 68); stroke-opacity: 1; fill: rgb(0, 204, 150); fill-opacity: 0.6; stroke-width: 0; opacity: 1;"/><path class="sankey-link" d="M765,88.76470588235304C945,88.76470588235304 945,13.76470588235297 1125,13.76470588235297L1125,18.352941176470615C945,18.352941176470615 945,93.3529411764707 765,93.3529411764707Z" style="stroke: rgb(68, 68, 68); stroke-opacity: 1; fill: rgb(0, 204, 150); fill-opacity: 0.6; stroke-width: 0; opacity: 1;"/><path class="sankey-link" d="M765,678.7058823529413C945,678.7058823529413 945,663.7058823529413 1125,663.7058823529413L1125,669.4411764705884C945,669.4411764705884 945,684.4411764705884 765,684.4411764705884Z" style="stroke: rgb(68, 68, 68); stroke-opacity: 1; fill: rgb(0, 204, 150); fill-opacity: 0.6; stroke-width: 0; opacity: 1;"/><path class="sankey-link" d="M765,701.6470588235294C945,701.6470588235294 945,701.6470588235295 1125,701.6470588235295L1125,702.794117647059C945,702.794117647059 945,702.7941176470589 765,702.7941176470589Z" style="stroke: rgb(68, 68, 68); stroke-opacity: 1; fill: rgb(0, 204, 150); fill-opacity: 0.6; stroke-width: 0; opacity: 1;"/><path class="sankey-link" d="M765,620.1176470588235C945,620.1176470588235 945,605.1176470588235 1125,605.1176470588235L1125,606.264705882353C945,606.264705882353 945,621.264705882353 765,621.264705882353Z" style="stroke: rgb(68, 68, 68); stroke-opacity: 1; fill: rgb(0, 204, 150); fill-opacity: 0.6; stroke-width: 0; opacity: 1;"/><path class="sankey-link" d="M765,569.6470588235293C945,569.6470588235293 945,539.6470588235294 1125,539.6470588235294L1125,544.235294117647C945,544.235294117647 945,574.2352941176468 765,574.2352941176468Z" style="stroke: rgb(68, 68, 68); stroke-opacity: 1; fill: rgb(0, 204, 150); fill-opacity: 0.6; stroke-width: 0; opacity: 1;"/><path class="sankey-link" d="M765,216.17647058823565C945,216.17647058823565 945,156.1764705882352 1125,156.1764705882352L1125,168.79411764705873C945,168.79411764705873 945,228.79411764705918 765,228.79411764705918Z" style="stroke: rgb(68, 68, 68); stroke-opacity: 1; fill: rgb(0, 204, 150); fill-opacity: 0.6; stroke-width: 0; opacity: 1;"/><path class="sankey-link" d="M765,315.9705882352945C945,315.9705882352945 945,270.9705882352941 1125,270.9705882352941L1125,280.14705882352933C945,280.14705882352933 945,325.14705882352973 765,325.14705882352973Z" style="stroke: rgb(68, 68, 68); stroke-opacity: 1; fill: rgb(0, 204, 150); fill-opacity: 0.6; stroke-width: 0; opacity: 1;"/><path class="sankey-link" d="M765,490.41176470588215C945,490.41176470588215 945,460.41176470588255 1125,460.41176470588255L1125,470.7352941176473C945,470.7352941176473 945,500.7352941176469 765,500.7352941176469Z" style="stroke: rgb(68, 68, 68); stroke-opacity: 1; fill: rgb(0, 204, 150); fill-opacity: 0.6; stroke-width: 0; opacity: 1;"/><path class="sankey-link" d="M765,397.4999999999998C945,397.4999999999998 945,352.5000000000001 1125,352.5000000000001L1125,359.3823529411766C945,359.3823529411766 945,404.38235294117624 765,404.38235294117624Z" style="stroke: rgb(68, 68, 68); stroke-opacity: 1; fill: rgb(0, 204, 150); fill-opacity: 0.6; stroke-width: 0; opacity: 1;"/><path class="sankey-link" d="M765,93.3529411764707C945,93.3529411764707 945,18.352941176470615 1125,18.352941176470615L1125,20.64705882352944C945,20.64705882352944 945,95.6470588235295 765,95.6470588235295Z" style="stroke: rgb(68, 68, 68); stroke-opacity: 1; fill: rgb(254, 203, 82); fill-opacity: 0.6; stroke-width: 0; opacity: 1;"/><path class="sankey-link" d="M765,684.4411764705884C945,684.4411764705884 945,669.4411764705884 1125,669.4411764705884L1125,670.5882352941179C945,670.5882352941179 945,685.5882352941179 765,685.5882352941179Z" style="stroke: rgb(68, 68, 68); stroke-opacity: 1; fill: rgb(254, 203, 82); fill-opacity: 0.6; stroke-width: 0; opacity: 1;"/><path class="sankey-link" d="M765,702.7941176470588C945,702.7941176470588 945,702.7941176470589 1125,702.7941176470589L1125,706.2352941176472C945,706.2352941176472 945,706.2352941176471 765,706.2352941176471Z" style="stroke: rgb(68, 68, 68); stroke-opacity: 1; fill: rgb(254, 203, 82); fill-opacity: 0.6; stroke-width: 0; opacity: 1;"/><path class="sankey-link" d="M765,621.2647058823529C945,621.2647058823529 945,606.2647058823529 1125,606.2647058823529L1125,609.7058823529412C945,609.7058823529412 945,624.7058823529412 765,624.7058823529412Z" style="stroke: rgb(68, 68, 68); stroke-opacity: 1; fill: rgb(254, 203, 82); fill-opacity: 0.6; stroke-width: 0; opacity: 1;"/><path class="sankey-link" d="M765,574.235294117647C945,574.235294117647 945,544.2352941176471 1125,544.2352941176471L1125,551.1176470588236C945,551.1176470588236 945,581.1176470588235 765,581.1176470588235Z" style="stroke: rgb(68, 68, 68); stroke-opacity: 1; fill: rgb(254, 203, 82); fill-opacity: 0.6; stroke-width: 0; opacity: 1;"/><path class="sankey-link" d="M765,228.79411764705918C945,228.79411764705918 945,168.79411764705873 1125,168.79411764705873L1125,175.6764705882352C945,175.6764705882352 945,235.67647058823565 765,235.67647058823565Z" style="stroke: rgb(68, 68, 68); stroke-opacity: 1; fill: rgb(254, 203, 82); fill-opacity: 0.6; stroke-width: 0; opacity: 1;"/><path class="sankey-link" d="M765,325.1470588235298C945,325.1470588235298 945,280.1470588235294 1125,280.1470588235294L1125,283.5882352941177C945,283.5882352941177 945,328.5882352941181 765,328.5882352941181Z" style="stroke: rgb(68, 68, 68); stroke-opacity: 1; fill: rgb(254, 203, 82); fill-opacity: 0.6; stroke-width: 0; opacity: 1;"/><path class="sankey-link" d="M765,500.73529411764684C945,500.73529411764684 945,470.73529411764724 1125,470.73529411764724L1125,473.029411764706C945,473.029411764706 945,503.0294117647056 765,503.0294117647056Z" style="stroke: rgb(68, 68, 68); stroke-opacity: 1; fill: rgb(254, 203, 82); fill-opacity: 0.6; stroke-width: 0; opacity: 1;"/><path class="sankey-link" d="M765,404.38235294117624C945,404.38235294117624 945,359.3823529411766 1125,359.3823529411766L1125,363.97058823529426C945,363.97058823529426 945,408.9705882352939 765,408.9705882352939Z" style="stroke: rgb(68, 68, 68); stroke-opacity: 1; fill: rgb(254, 203, 82); fill-opacity: 0.6; stroke-width: 0; opacity: 1;"/><path class="sankey-link" d="M765,147.264705882353C945,147.264705882353 945,87.26470588235291 1125,87.26470588235291L1125,90.70588235294115C945,90.70588235294115 945,150.70588235294125 765,150.70588235294125Z" style="stroke: rgb(68, 68, 68); stroke-opacity: 1; fill: rgb(255, 161, 90); fill-opacity: 0.6; stroke-width: 0; opacity: 1;"/><path class="sankey-link" d="M765,95.64705882352952C945,95.64705882352952 945,20.647058823529438 1125,20.647058823529438L1125,24.08823529411767C945,24.08823529411767 945,99.08823529411775 765,99.08823529411775Z" style="stroke: rgb(68, 68, 68); stroke-opacity: 1; fill: rgb(255, 161, 90); fill-opacity: 0.6; stroke-width: 0; opacity: 1;"/><path class="sankey-link" d="M765,685.5882352941178C945,685.5882352941178 945,670.5882352941178 1125,670.5882352941178L1125,671.7352941176473C945,671.7352941176473 945,686.7352941176473 765,686.7352941176473Z" style="stroke: rgb(68, 68, 68); stroke-opacity: 1; fill: rgb(255, 161, 90); fill-opacity: 0.6; stroke-width: 0; opacity: 1;"/><path class="sankey-link" d="M765,624.7058823529412C945,624.7058823529412 945,609.7058823529412 1125,609.7058823529412L1125,610.8529411764707C945,610.8529411764707 945,625.8529411764707 765,625.8529411764707Z" style="stroke: rgb(68, 68, 68); stroke-opacity: 1; fill: rgb(255, 161, 90); fill-opacity: 0.6; stroke-width: 0; opacity: 1;"/><path class="sankey-link" d="M765,581.1176470588234C945,581.1176470588234 945,551.1176470588235 1125,551.1176470588235L1125,553.4117647058823C945,553.4117647058823 945,583.4117647058822 765,583.4117647058822Z" style="stroke: rgb(68, 68, 68); stroke-opacity: 1; fill: rgb(255, 161, 90); fill-opacity: 0.6; stroke-width: 0; opacity: 1;"/><path class="sankey-link" d="M765,235.67647058823565C945,235.67647058823565 945,175.6764705882352 1125,175.6764705882352L1125,183.70588235294105C945,183.70588235294105 945,243.7058823529415 765,243.7058823529415Z" style="stroke: rgb(68, 68, 68); stroke-opacity: 1; fill: rgb(255, 161, 90); fill-opacity: 0.6; stroke-width: 0; opacity: 1;"/><path class="sankey-link" d="M765,328.588235294118C945,328.588235294118 945,283.5882352941176 1125,283.5882352941176L1125,289.3235294117647C945,289.3235294117647 945,334.3235294117651 765,334.3235294117651Z" style="stroke: rgb(68, 68, 68); stroke-opacity: 1; fill: rgb(255, 161, 90); fill-opacity: 0.6; stroke-width: 0; opacity: 1;"/><path class="sankey-link" d="M765,503.0294117647057C945,503.0294117647057 945,473.0294117647061 1125,473.0294117647061L1125,482.20588235294133C945,482.20588235294133 945,512.205882352941 765,512.205882352941Z" style="stroke: rgb(68, 68, 68); stroke-opacity: 1; fill: rgb(255, 161, 90); fill-opacity: 0.6; stroke-width: 0; opacity: 1;"/><path class="sankey-link" d="M765,408.97058823529386C945,408.97058823529386 945,363.9705882352942 1125,363.9705882352942L1125,366.264705882353C945,366.264705882353 945,411.26470588235264 765,411.26470588235264Z" style="stroke: rgb(68, 68, 68); stroke-opacity: 1; fill: rgb(255, 161, 90); fill-opacity: 0.6; stroke-width: 0; opacity: 1;"/><path class="sankey-link" d="M765,150.70588235294125C945,150.70588235294125 945,90.70588235294115 1125,90.70588235294115L1125,97.58823529411761C945,97.58823529411761 945,157.5882352941177 765,157.5882352941177Z" style="stroke: rgb(68, 68, 68); stroke-opacity: 1; fill: rgb(171, 99, 250); fill-opacity: 0.6; stroke-width: 0; opacity: 1;"/><path class="sankey-link" d="M765,99.08823529411775C945,99.08823529411775 945,24.088235294117673 1125,24.088235294117673L1125,33.26470588235296C945,33.26470588235296 945,108.26470588235306 765,108.26470588235306Z" style="stroke: rgb(68, 68, 68); stroke-opacity: 1; fill: rgb(171, 99, 250); fill-opacity: 0.6; stroke-width: 0; opacity: 1;"/><path class="sankey-link" d="M765,686.7352941176472C945,686.7352941176472 945,671.7352941176472 1125,671.7352941176472L1125,674.029411764706C945,674.029411764706 945,689.029411764706 765,689.029411764706Z" style="stroke: rgb(68, 68, 68); stroke-opacity: 1; fill: rgb(171, 99, 250); fill-opacity: 0.6; stroke-width: 0; opacity: 1;"/><path class="sankey-link" d="M765,706.2352941176471C945,706.2352941176471 945,706.2352941176472 1125,706.2352941176472L1125,707.3823529411767C945,707.3823529411767 945,707.3823529411766 765,707.3823529411766Z" style="stroke: rgb(68, 68, 68); stroke-opacity: 1; fill: rgb(171, 99, 250); fill-opacity: 0.6; stroke-width: 0; opacity: 1;"/><path class="sankey-link" d="M765,625.8529411764706C945,625.8529411764706 945,610.8529411764706 1125,610.8529411764706L1125,615.4411764705882C945,615.4411764705882 945,630.4411764705882 765,630.4411764705882Z" style="stroke: rgb(68, 68, 68); stroke-opacity: 1; fill: rgb(171, 99, 250); fill-opacity: 0.6; stroke-width: 0; opacity: 1;"/><path class="sankey-link" d="M765,583.4117647058822C945,583.4117647058822 945,553.4117647058823 1125,553.4117647058823L1125,557.9999999999999C945,557.9999999999999 945,587.9999999999998 765,587.9999999999998Z" style="stroke: rgb(68, 68, 68); stroke-opacity: 1; fill: rgb(171, 99, 250); fill-opacity: 0.6; stroke-width: 0; opacity: 1;"/><path class="sankey-link" d="M765,243.70588235294153C945,243.70588235294153 945,183.70588235294107 1125,183.70588235294107L1125,203.20588235294107C945,203.20588235294107 945,263.20588235294156 765,263.20588235294156Z" style="stroke: rgb(68, 68, 68); stroke-opacity: 1; fill: rgb(171, 99, 250); fill-opacity: 0.6; stroke-width: 0; opacity: 1;"/><path class="sankey-link" d="M765,334.3235294117651C945,334.3235294117651 945,289.3235294117647 1125,289.3235294117647L1125,293.9117647058824C945,293.9117647058824 945,338.9117647058828 765,338.9117647058828Z" style="stroke: rgb(68, 68, 68); stroke-opacity: 1; fill: rgb(171, 99, 250); fill-opacity: 0.6; stroke-width: 0; opacity: 1;"/><path class="sankey-link" d="M765,512.205882352941C945,512.205882352941 945,482.2058823529414 1125,482.2058823529414L1125,487.94117647058846C945,487.94117647058846 945,517.9411764705881 765,517.9411764705881Z" style="stroke: rgb(68, 68, 68); stroke-opacity: 1; fill: rgb(171, 99, 250); fill-opacity: 0.6; stroke-width: 0; opacity: 1;"/><path class="sankey-link" d="M765,411.2647058823527C945,411.2647058823527 945,366.26470588235304 1125,366.26470588235304L1125,384.61764705882365C945,384.61764705882365 945,429.6176470588233 765,429.6176470588233Z" style="stroke: rgb(68, 68, 68); stroke-opacity: 1; fill: rgb(171, 99, 250); fill-opacity: 0.6; stroke-width: 0; opacity: 1;"/><path class="sankey-link" d="M765,157.5882352941177C945,157.5882352941177 945,97.58823529411761 1125,97.58823529411761L1125,111.35294117647054C945,111.35294117647054 945,171.35294117647064 765,171.35294117647064Z" style="stroke: rgb(68, 68, 68); stroke-opacity: 1; fill: rgb(99, 110, 250); fill-opacity: 0.6; stroke-width: 0; opacity: 1;"/><path class="sankey-link" d="M765,108.26470588235304C945,108.26470588235304 945,33.26470588235297 1125,33.26470588235297L1125,50.470588235294144C945,50.470588235294144 945,125.4705882352942 765,125.4705882352942Z" style="stroke: rgb(68, 68, 68); stroke-opacity: 1; fill: rgb(99, 110, 250); fill-opacity: 0.6; stroke-width: 0; opacity: 1;"/><path class="sankey-link" d="M765,689.029411764706C945,689.029411764706 945,674.029411764706 1125,674.029411764706L1125,682.0588235294118C945,682.0588235294118 945,697.0588235294118 765,697.0588235294118Z" style="stroke: rgb(68, 68, 68); stroke-opacity: 1; fill: rgb(99, 110, 250); fill-opacity: 0.6; stroke-width: 0; opacity: 1;"/><path class="sankey-link" d="M765,707.3823529411765C945,707.3823529411765 945,707.3823529411766 1125,707.3823529411766L1125,716.5588235294119C945,716.5588235294119 945,716.5588235294118 765,716.5588235294118Z" style="stroke: rgb(68, 68, 68); stroke-opacity: 1; fill: rgb(99, 110, 250); fill-opacity: 0.6; stroke-width: 0; opacity: 1;"/><path class="sankey-link" d="M765,630.4411764705883C945,630.4411764705883 945,615.4411764705883 1125,615.4411764705883L1125,640.6764705882354C945,640.6764705882354 945,655.6764705882354 765,655.6764705882354Z" style="stroke: rgb(68, 68, 68); stroke-opacity: 1; fill: rgb(99, 110, 250); fill-opacity: 0.6; stroke-width: 0; opacity: 1;"/><path class="sankey-link" d="M765,587.9999999999999C945,587.9999999999999 945,558 1125,558L1125,575.2058823529412C945,575.2058823529412 945,605.2058823529411 765,605.2058823529411Z" style="stroke: rgb(68, 68, 68); stroke-opacity: 1; fill: rgb(99, 110, 250); fill-opacity: 0.6; stroke-width: 0; opacity: 1;"/><path class="sankey-link" d="M765,263.20588235294156C945,263.20588235294156 945,203.20588235294107 1125,203.20588235294107L1125,220.41176470588223C945,220.41176470588223 945,280.4117647058828 765,280.4117647058828Z" style="stroke: rgb(68, 68, 68); stroke-opacity: 1; fill: rgb(99, 110, 250); fill-opacity: 0.6; stroke-width: 0; opacity: 1;"/><path class="sankey-link" d="M765,338.9117647058827C945,338.9117647058827 945,293.9117647058823 1125,293.9117647058823L1125,312.2647058823529C945,312.2647058823529 945,357.2647058823533 765,357.2647058823533Z" style="stroke: rgb(68, 68, 68); stroke-opacity: 1; fill: rgb(99, 110, 250); fill-opacity: 0.6; stroke-width: 0; opacity: 1;"/><path class="sankey-link" d="M765,517.9411764705881C945,517.9411764705881 945,487.94117647058846 1125,487.94117647058846L1125,505.1470588235297C945,505.1470588235297 945,535.1470588235293 765,535.1470588235293Z" style="stroke: rgb(68, 68, 68); stroke-opacity: 1; fill: rgb(99, 110, 250); fill-opacity: 0.6; stroke-width: 0; opacity: 1;"/><path class="sankey-link" d="M765,429.6176470588233C945,429.6176470588233 945,384.61764705882365 1125,384.61764705882365L1125,406.41176470588243C945,406.41176470588243 945,451.4117647058821 765,451.4117647058821Z" style="stroke: rgb(68, 68, 68); stroke-opacity: 1; fill: rgb(99, 110, 250); fill-opacity: 0.6; stroke-width: 0; opacity: 1;"/><path class="sankey-link" d="M765,171.35294117647064C945,171.35294117647064 945,111.35294117647055 1125,111.35294117647055L1125,115.9411764705882C945,115.9411764705882 945,175.94117647058826 765,175.94117647058826Z" style="stroke: rgb(68, 68, 68); stroke-opacity: 1; fill: rgb(255, 151, 255); fill-opacity: 0.6; stroke-width: 0; opacity: 1;"/><path class="sankey-link" d="M765,125.47058823529422C945,125.47058823529422 945,50.470588235294144 1125,50.470588235294144L1125,55.0588235294118C945,55.0588235294118 945,130.05882352941185 765,130.05882352941185Z" style="stroke: rgb(68, 68, 68); stroke-opacity: 1; fill: rgb(255, 151, 255); fill-opacity: 0.6; stroke-width: 0; opacity: 1;"/><path class="sankey-link" d="M765,697.0588235294118C945,697.0588235294118 945,682.0588235294118 1125,682.0588235294118L1125,683.2058823529413C945,683.2058823529413 945,698.2058823529413 765,698.2058823529413Z" style="stroke: rgb(68, 68, 68); stroke-opacity: 1; fill: rgb(255, 151, 255); fill-opacity: 0.6; stroke-width: 0; opacity: 1;"/><path class="sankey-link" d="M765,716.5588235294117C945,716.5588235294117 945,716.5588235294118 1125,716.5588235294118L1125,718.8529411764706C945,718.8529411764706 945,718.8529411764705 765,718.8529411764705Z" style="stroke: rgb(68, 68, 68); stroke-opacity: 1; fill: rgb(255, 151, 255); fill-opacity: 0.6; stroke-width: 0; opacity: 1;"/><path class="sankey-link" d="M765,655.6764705882354C945,655.6764705882354 945,640.6764705882354 1125,640.6764705882354L1125,644.1176470588236C945,644.1176470588236 945,659.1176470588236 765,659.1176470588236Z" style="stroke: rgb(68, 68, 68); stroke-opacity: 1; fill: rgb(255, 151, 255); fill-opacity: 0.6; stroke-width: 0; opacity: 1;"/><path class="sankey-link" d="M765,605.2058823529411C945,605.2058823529411 945,575.2058823529412 1125,575.2058823529412L1125,579.7941176470588C945,579.7941176470588 945,609.7941176470587 765,609.7941176470587Z" style="stroke: rgb(68, 68, 68); stroke-opacity: 1; fill: rgb(255, 151, 255); fill-opacity: 0.6; stroke-width: 0; opacity: 1;"/><path class="sankey-link" d="M765,280.4117647058827C945,280.4117647058827 945,220.41176470588226 1125,220.41176470588226L1125,227.29411764705873C945,227.29411764705873 945,287.2941176470592 765,287.2941176470592Z" style="stroke: rgb(68, 68, 68); stroke-opacity: 1; fill: rgb(255, 151, 255); fill-opacity: 0.6; stroke-width: 0; opacity: 1;"/><path class="sankey-link" d="M765,357.2647058823533C945,357.2647058823533 945,312.2647058823529 1125,312.2647058823529L1125,321.4411764705882C945,321.4411764705882 945,366.4411764705886 765,366.4411764705886Z" style="stroke: rgb(68, 68, 68); stroke-opacity: 1; fill: rgb(255, 151, 255); fill-opacity: 0.6; stroke-width: 0; opacity: 1;"/><path class="sankey-link" d="M765,535.1470588235293C945,535.1470588235293 945,505.1470588235296 1125,505.1470588235296L1125,514.3235294117649C945,514.3235294117649 945,544.3235294117646 765,544.3235294117646Z" style="stroke: rgb(68, 68, 68); stroke-opacity: 1; fill: rgb(255, 151, 255); fill-opacity: 0.6; stroke-width: 0; opacity: 1;"/><path class="sankey-link" d="M765,451.41176470588215C945,451.41176470588215 945,406.4117647058825 1125,406.4117647058825L1125,416.73529411764724C945,416.73529411764724 945,461.7352941176469 765,461.7352941176469Z" style="stroke: rgb(68, 68, 68); stroke-opacity: 1; fill: rgb(255, 151, 255); fill-opacity: 0.6; stroke-width: 0; opacity: 1;"/><path class="sankey-link" d="M765,175.9411764705883C945,175.9411764705883 945,115.9411764705882 1125,115.9411764705882L1125,117.08823529411762C945,117.08823529411762 945,177.08823529411768 765,177.08823529411768Z" style="stroke: rgb(68, 68, 68); stroke-opacity: 1; fill: rgb(255, 102, 146); fill-opacity: 0.6; stroke-width: 0; opacity: 1;"/><path class="sankey-link" d="M765,130.05882352941185C945,130.05882352941185 945,55.05882352941179 1125,55.05882352941179L1125,57.352941176470615C945,57.352941176470615 945,132.3529411764707 765,132.3529411764707Z" style="stroke: rgb(68, 68, 68); stroke-opacity: 1; fill: rgb(255, 102, 146); fill-opacity: 0.6; stroke-width: 0; opacity: 1;"/><path class="sankey-link" d="M765,698.2058823529412C945,698.2058823529412 945,683.2058823529412 1125,683.2058823529412L1125,684.3529411764707C945,684.3529411764707 945,699.3529411764707 765,699.3529411764707Z" style="stroke: rgb(68, 68, 68); stroke-opacity: 1; fill: rgb(255, 102, 146); fill-opacity: 0.6; stroke-width: 0; opacity: 1;"/><path class="sankey-link" d="M765,718.8529411764705C945,718.8529411764705 945,718.8529411764706 1125,718.8529411764706L1125,720.0000000000001C945,720.0000000000001 945,720 765,720Z" style="stroke: rgb(68, 68, 68); stroke-opacity: 1; fill: rgb(255, 102, 146); fill-opacity: 0.6; stroke-width: 0; opacity: 1;"/><path class="sankey-link" d="M765,609.7941176470588C945,609.7941176470588 945,579.7941176470589 1125,579.7941176470589L1125,585.529411764706C945,585.529411764706 945,615.5294117647059 765,615.5294117647059Z" style="stroke: rgb(68, 68, 68); stroke-opacity: 1; fill: rgb(255, 102, 146); fill-opacity: 0.6; stroke-width: 0; opacity: 1;"/><path class="sankey-link" d="M765,287.2941176470592C945,287.2941176470592 945,227.29411764705873 1125,227.29411764705873L1125,234.1764705882352C945,234.1764705882352 945,294.17647058823565 765,294.17647058823565Z" style="stroke: rgb(68, 68, 68); stroke-opacity: 1; fill: rgb(255, 102, 146); fill-opacity: 0.6; stroke-width: 0; opacity: 1;"/><path class="sankey-link" d="M765,366.44117647058863C945,366.44117647058863 945,321.44117647058823 1125,321.44117647058823L1125,322.5882352941176C945,322.5882352941176 945,367.588235294118 765,367.588235294118Z" style="stroke: rgb(68, 68, 68); stroke-opacity: 1; fill: rgb(255, 102, 146); fill-opacity: 0.6; stroke-width: 0; opacity: 1;"/><path class="sankey-link" d="M765,544.3235294117645C945,544.3235294117645 945,514.3235294117649 1125,514.3235294117649L1125,516.6176470588236C945,516.6176470588236 945,546.6176470588233 765,546.6176470588233Z" style="stroke: rgb(68, 68, 68); stroke-opacity: 1; fill: rgb(255, 102, 146); fill-opacity: 0.6; stroke-width: 0; opacity: 1;"/><path class="sankey-link" d="M765,461.73529411764684C945,461.73529411764684 945,416.7352941176472 1125,416.7352941176472L1125,419.02941176470597C945,419.02941176470597 945,464.0294117647056 765,464.0294117647056Z" style="stroke: rgb(68, 68, 68); stroke-opacity: 1; fill: rgb(255, 102, 146); fill-opacity: 0.6; stroke-width: 0; opacity: 1;"/><path class="sankey-link" d="M765,177.0882352941177C945,177.0882352941177 945,117.08823529411761 1125,117.08823529411761L1125,118.23529411764703C945,118.23529411764703 945,178.2352941176471 765,178.2352941176471Z" style="stroke: rgb(68, 68, 68); stroke-opacity: 1; fill: rgb(182, 232, 128); fill-opacity: 0.6; stroke-width: 0; opacity: 1;"/><path class="sankey-link" d="M765,546.6176470588233C945,546.6176470588233 945,516.6176470588236 1125,516.6176470588236L1125,517.7647058823532C945,517.7647058823532 945,547.7647058823528 765,547.7647058823528Z" style="stroke: rgb(68, 68, 68); stroke-opacity: 1; fill: rgb(182, 232, 128); fill-opacity: 0.6; stroke-width: 0; opacity: 1;"/></g><g class="sankey-node-set" style="cursor: move;"><g class="sankey-node" transform="translate(0.000,482.382)" style="opacity: 1;"><rect class="node-rect" width="15" height="24.088235294117453" style="stroke-width: 0.5; stroke: rgb(0, 0, 0); stroke-opacity: 1; fill: rgb(128, 128, 128); fill-opacity: 1;"/><text class="node-label" data-notex="1" x="0" y="0" text-anchor="start" transform="translate(18.25,16.244117647058726)" style="cursor: default; font-family: 'Open Sans', verdana, arial, sans-serif; font-size: 12px; fill: rgb(42, 63, 95); fill-opacity: 1; white-space: pre; text-shadow: white 1px 1px 1px, white -1px -1px 1px, white 1px -1px 1px, white -1px 1px 1px;">21271R</text></g><g class="sankey-node" transform="translate(0.000,228.706)" style="opacity: 1;"><rect class="node-rect" width="15" height="175.5000000000001" style="stroke-width: 0.5; stroke: rgb(0, 0, 0); stroke-opacity: 1; fill: rgb(128, 128, 128); fill-opacity: 1;"/><text class="node-label" data-notex="1" x="0" y="0" text-anchor="start" transform="translate(18.25,91.95000000000006)" style="cursor: default; font-family: 'Open Sans', verdana, arial, sans-serif; font-size: 12px; fill: rgb(42, 63, 95); fill-opacity: 1; white-space: pre; text-shadow: white 1px 1px 1px, white -1px -1px 1px, white 1px -1px 1px, white -1px 1px 1px;">21272R</text></g><g class="sankey-node" transform="translate(0.000,419.206)" style="opacity: 1;"><rect class="node-rect" width="15" height="48.17647058823525" style="stroke-width: 0.5; stroke: rgb(0, 0, 0); stroke-opacity: 1; fill: rgb(128, 128, 128); fill-opacity: 1;"/><text class="node-label" data-notex="1" x="0" y="0" text-anchor="start" transform="translate(18.25,28.288235294117623)" style="cursor: default; font-family: 'Open Sans', verdana, arial, sans-serif; font-size: 12px; fill: rgb(42, 63, 95); fill-opacity: 1; white-space: pre; text-shadow: white 1px 1px 1px, white -1px -1px 1px, white 1px -1px 1px, white -1px 1px 1px;">21965RL</text></g><g class="sankey-node" transform="translate(0.000,521.471)" style="opacity: 1;"><rect class="node-rect" width="15" height="91.76470588235293" style="stroke-width: 0.5; stroke: rgb(0, 0, 0); stroke-opacity: 1; fill: rgb(128, 128, 128); fill-opacity: 1;"/><text class="node-label" data-notex="1" x="0" y="0" text-anchor="start" transform="translate(18.25,50.08235294117647)" style="cursor: default; font-family: 'Open Sans', verdana, arial, sans-serif; font-size: 12px; fill: rgb(42, 63, 95); fill-opacity: 1; white-space: pre; text-shadow: white 1px 1px 1px, white -1px -1px 1px, white 1px -1px 1px, white -1px 1px 1px;">22384</text></g><g class="sankey-node" transform="translate(0.000,628.235)" style="opacity: 1;"><rect class="node-rect" width="15" height="91.7647058823527" style="stroke-width: 0.5; stroke: rgb(0, 0, 0); stroke-opacity: 1; fill: rgb(128, 128, 128); fill-opacity: 1;"/><text class="node-label" data-notex="1" x="0" y="0" text-anchor="start" transform="translate(18.25,50.08235294117635)" style="cursor: default; font-family: 'Open Sans', verdana, arial, sans-serif; font-size: 12px; fill: rgb(42, 63, 95); fill-opacity: 1; white-space: pre; text-shadow: white 1px 1px 1px, white -1px -1px 1px, white 1px -1px 1px, white -1px 1px 1px;">22670</text></g><g class="sankey-node" transform="translate(750.000,76.147)" style="opacity: 1;"><rect class="node-rect" width="15" height="102.08823529411791" style="stroke-width: 0.5; stroke: rgb(0, 0, 0); stroke-opacity: 1; fill: rgb(128, 128, 128); fill-opacity: 1;"/><text class="node-label" data-notex="1" x="0" y="0" text-anchor="start" transform="translate(18.25,55.24411764705896)" style="cursor: default; font-family: 'Open Sans', verdana, arial, sans-serif; font-size: 12px; fill: rgb(42, 63, 95); fill-opacity: 1; white-space: pre; text-shadow: white 1px 1px 1px, white -1px -1px 1px, white 1px -1px 1px, white -1px 1px 1px;">dig</text></g><g class="sankey-node" transform="translate(750.000,193.235)" style="opacity: 1;"><rect class="node-rect" width="15" height="174.35294117647004" style="stroke-width: 0.5; stroke: rgb(0, 0, 0); stroke-opacity: 1; fill: rgb(128, 128, 128); fill-opacity: 1;"/><text class="node-label" data-notex="1" x="0" y="0" text-anchor="start" transform="translate(18.25,91.37647058823502)" style="cursor: default; font-family: 'Open Sans', verdana, arial, sans-serif; font-size: 12px; fill: rgb(42, 63, 95); fill-opacity: 1; white-space: pre; text-shadow: white 1px 1px 1px, white -1px -1px 1px, white 1px -1px 1px, white -1px 1px 1px;">walk</text></g><g class="sankey-node" transform="translate(750.000,382.588)" style="opacity: 1;"><rect class="node-rect" width="15" height="165.17647058823536" style="stroke-width: 0.5; stroke: rgb(0, 0, 0); stroke-opacity: 1; fill: rgb(128, 128, 128); fill-opacity: 1;"/><text class="node-label" data-notex="1" x="0" y="0" text-anchor="start" transform="translate(18.25,86.78823529411768)" style="cursor: default; font-family: 'Open Sans', verdana, arial, sans-serif; font-size: 12px; fill: rgb(42, 63, 95); fill-opacity: 1; white-space: pre; text-shadow: white 1px 1px 1px, white -1px -1px 1px, white 1px -1px 1px, white -1px 1px 1px;">wallclimb</text></g><g class="sankey-node" transform="translate(750.000,674.118)" style="opacity: 1;"><rect class="node-rect" width="15" height="45.88235294117635" style="stroke-width: 0.5; stroke: rgb(0, 0, 0); stroke-opacity: 1; fill: rgb(128, 128, 128); fill-opacity: 1;"/><text class="node-label" data-notex="1" x="0" y="0" text-anchor="start" transform="translate(18.25,27.141176470588174)" style="cursor: default; font-family: 'Open Sans', verdana, arial, sans-serif; font-size: 12px; fill: rgb(42, 63, 95); fill-opacity: 1; white-space: pre; text-shadow: white 1px 1px 1px, white -1px -1px 1px, white 1px -1px 1px, white -1px 1px 1px;">groom_front</text></g><g class="sankey-node" transform="translate(750.000,562.765)" style="opacity: 1;"><rect class="node-rect" width="15" height="96.35294117647084" style="stroke-width: 0.5; stroke: rgb(0, 0, 0); stroke-opacity: 1; fill: rgb(128, 128, 128); fill-opacity: 1;"/><text class="node-label" data-notex="1" x="0" y="0" text-anchor="start" transform="translate(18.25,52.37647058823542)" style="cursor: default; font-family: 'Open Sans', verdana, arial, sans-serif; font-size: 12px; fill: rgb(42, 63, 95); fill-opacity: 1; white-space: pre; text-shadow: white 1px 1px 1px, white -1px -1px 1px, white 1px -1px 1px, white -1px 1px 1px;">still</text></g><g class="sankey-node" transform="translate(1125.000,1.147)" style="opacity: 1;"><rect class="node-rect" width="15" height="56.20588235294111" style="stroke-width: 0.5; stroke: rgb(0, 0, 0); stroke-opacity: 1; fill: rgb(128, 128, 128); fill-opacity: 1;"/><text class="node-label" data-notex="1" x="0" y="0" text-anchor="end" transform="translate(-3.25,32.302941176470554)" style="cursor: default; font-family: 'Open Sans', verdana, arial, sans-serif; font-size: 12px; fill: rgb(42, 63, 95); fill-opacity: 1; white-space: pre; text-shadow: white 1px 1px 1px, white -1px -1px 1px, white 1px -1px 1px, white -1px 1px 1px;">dig-suppressed</text></g><g class="sankey-node" transform="translate(1125.000,133.235)" style="opacity: 1;"><rect class="node-rect" width="15" height="100.94117647058829" style="stroke-width: 0.5; stroke: rgb(0, 0, 0); stroke-opacity: 1; fill: rgb(128, 128, 128); fill-opacity: 1;"/><text class="node-label" data-notex="1" x="0" y="0" text-anchor="end" transform="translate(-3.25,54.67058823529415)" style="cursor: default; font-family: 'Open Sans', verdana, arial, sans-serif; font-size: 12px; fill: rgb(42, 63, 95); fill-opacity: 1; white-space: pre; text-shadow: white 1px 1px 1px, white -1px -1px 1px, white 1px -1px 1px, white -1px 1px 1px;">walk-activated</text></g><g class="sankey-node" transform="translate(1125.000,337.588)" style="opacity: 1;"><rect class="node-rect" width="15" height="81.44117647058829" style="stroke-width: 0.5; stroke: rgb(0, 0, 0); stroke-opacity: 1; fill: rgb(128, 128, 128); fill-opacity: 1;"/><text class="node-label" data-notex="1" x="0" y="0" text-anchor="end" transform="translate(-3.25,44.92058823529415)" style="cursor: default; font-family: 'Open Sans', verdana, arial, sans-serif; font-size: 12px; fill: rgb(42, 63, 95); fill-opacity: 1; white-space: pre; text-shadow: white 1px 1px 1px, white -1px -1px 1px, white 1px -1px 1px, white -1px 1px 1px;">wallclimb-suppressed</text></g><g class="sankey-node" transform="translate(1125.000,72.353)" style="opacity: 1;"><rect class="node-rect" width="15" height="45.88235294117641" style="stroke-width: 0.5; stroke: rgb(0, 0, 0); stroke-opacity: 1; fill: rgb(128, 128, 128); fill-opacity: 1;"/><text class="node-label" data-notex="1" x="0" y="0" text-anchor="end" transform="translate(-3.25,27.141176470588203)" style="cursor: default; font-family: 'Open Sans', verdana, arial, sans-serif; font-size: 12px; fill: rgb(42, 63, 95); fill-opacity: 1; white-space: pre; text-shadow: white 1px 1px 1px, white -1px -1px 1px, white 1px -1px 1px, white -1px 1px 1px;">dig-activated</text></g><g class="sankey-node" transform="translate(1125.000,249.176)" style="opacity: 1;"><rect class="node-rect" width="15" height="73.41176470588255" style="stroke-width: 0.5; stroke: rgb(0, 0, 0); stroke-opacity: 1; fill: rgb(128, 128, 128); fill-opacity: 1;"/><text class="node-label" data-notex="1" x="0" y="0" text-anchor="end" transform="translate(-3.25,40.905882352941276)" style="cursor: default; font-family: 'Open Sans', verdana, arial, sans-serif; font-size: 12px; fill: rgb(42, 63, 95); fill-opacity: 1; white-space: pre; text-shadow: white 1px 1px 1px, white -1px -1px 1px, white 1px -1px 1px, white -1px 1px 1px;">walk-suppressed</text></g><g class="sankey-node" transform="translate(1125.000,434.029)" style="opacity: 1;"><rect class="node-rect" width="15" height="83.73529411764684" style="stroke-width: 0.5; stroke: rgb(0, 0, 0); stroke-opacity: 1; fill: rgb(128, 128, 128); fill-opacity: 1;"/><text class="node-label" data-notex="1" x="0" y="0" text-anchor="end" transform="translate(-3.25,46.067647058823425)" style="cursor: default; font-family: 'Open Sans', verdana, arial, sans-serif; font-size: 12px; fill: rgb(42, 63, 95); fill-opacity: 1; white-space: pre; text-shadow: white 1px 1px 1px, white -1px -1px 1px, white 1px -1px 1px, white -1px 1px 1px;">wallclimb-activated</text></g><g class="sankey-node" transform="translate(1125.000,659.118)" style="opacity: 1;"><rect class="node-rect" width="15" height="25.235294117647072" style="stroke-width: 0.5; stroke: rgb(0, 0, 0); stroke-opacity: 1; fill: rgb(128, 128, 128); fill-opacity: 1;"/><text class="node-label" data-notex="1" x="0" y="0" text-anchor="end" transform="translate(-3.25,16.817647058823535)" style="cursor: default; font-family: 'Open Sans', verdana, arial, sans-serif; font-size: 12px; fill: rgb(42, 63, 95); fill-opacity: 1; white-space: pre; text-shadow: white 1px 1px 1px, white -1px -1px 1px, white 1px -1px 1px, white -1px 1px 1px;">groom_front-activated</text></g><g class="sankey-node" transform="translate(1125.000,532.765)" style="opacity: 1;"><rect class="node-rect" width="15" height="52.76470588235293" style="stroke-width: 0.5; stroke: rgb(0, 0, 0); stroke-opacity: 1; fill: rgb(128, 128, 128); fill-opacity: 1;"/><text class="node-label" data-notex="1" x="0" y="0" text-anchor="end" transform="translate(-3.25,30.582352941176463)" style="cursor: default; font-family: 'Open Sans', verdana, arial, sans-serif; font-size: 12px; fill: rgb(42, 63, 95); fill-opacity: 1; white-space: pre; text-shadow: white 1px 1px 1px, white -1px -1px 1px, white 1px -1px 1px, white -1px 1px 1px;">still-suppressed</text></g><g class="sankey-node" transform="translate(1125.000,600.529)" style="opacity: 1;"><rect class="node-rect" width="15" height="43.588235294117794" style="stroke-width: 0.5; stroke: rgb(0, 0, 0); stroke-opacity: 1; fill: rgb(128, 128, 128); fill-opacity: 1;"/><text class="node-label" data-notex="1" x="0" y="0" text-anchor="end" transform="translate(-3.25,25.994117647058896)" style="cursor: default; font-family: 'Open Sans', verdana, arial, sans-serif; font-size: 12px; fill: rgb(42, 63, 95); fill-opacity: 1; white-space: pre; text-shadow: white 1px 1px 1px, white -1px -1px 1px, white 1px -1px 1px, white -1px 1px 1px;">still-activated</text></g><g class="sankey-node" transform="translate(1125.000,699.353)" style="opacity: 1;"><rect class="node-rect" width="15" height="20.647058823529278" style="stroke-width: 0.5; stroke: rgb(0, 0, 0); stroke-opacity: 1; fill: rgb(128, 128, 128); fill-opacity: 1;"/><text class="node-label" data-notex="1" x="0" y="0" text-anchor="end" transform="translate(-3.25,14.523529411764638)" style="cursor: default; font-family: 'Open Sans', verdana, arial, sans-serif; font-size: 12px; fill: rgb(42, 63, 95); fill-opacity: 1; white-space: pre; text-shadow: white 1px 1px 1px, white -1px -1px 1px, white 1px -1px 1px, white -1px 1px 1px;">groom_front-suppressed</text></g><g class="sankey-node" transform="translate(375.000,466.324)" style="opacity: 1;"><rect class="node-rect" width="15" height="165.17647058823536" style="stroke-width: 0.5; stroke: rgb(0, 0, 0); stroke-opacity: 1; fill: rgb(99, 110, 250); fill-opacity: 1;"/><text class="node-label" data-notex="1" x="0" y="0" text-anchor="start" transform="translate(18.25,86.78823529411768)" style="cursor: default; font-family: 'Open Sans', verdana, arial, sans-serif; font-size: 12px; fill: rgb(42, 63, 95); fill-opacity: 1; white-space: pre; text-shadow: white 1px 1px 1px, white -1px -1px 1px, white 1px -1px 1px, white -1px 1px 1px;">VTA</text></g><g class="sankey-node" transform="translate(375.000,119.559)" style="opacity: 1;"><rect class="node-rect" width="15" height="92.91176470588243" style="stroke-width: 0.5; stroke: rgb(0, 0, 0); stroke-opacity: 1; fill: rgb(239, 85, 59); fill-opacity: 1;"/><text class="node-label" data-notex="1" x="0" y="0" text-anchor="start" transform="translate(18.25,50.65588235294122)" style="cursor: default; font-family: 'Open Sans', verdana, arial, sans-serif; font-size: 12px; fill: rgb(42, 63, 95); fill-opacity: 1; white-space: pre; text-shadow: white 1px 1px 1px, white -1px -1px 1px, white 1px -1px 1px, white -1px 1px 1px;">Cla</text></g><g class="sankey-node" transform="translate(375.000,319.324)" style="opacity: 1;"><rect class="node-rect" width="15" height="60.79411764705878" style="stroke-width: 0.5; stroke: rgb(0, 0, 0); stroke-opacity: 1; fill: rgb(0, 204, 150); fill-opacity: 1;"/><text class="node-label" data-notex="1" x="0" y="0" text-anchor="start" transform="translate(18.25,34.597058823529395)" style="cursor: default; font-family: 'Open Sans', verdana, arial, sans-serif; font-size: 12px; fill: rgb(42, 63, 95); fill-opacity: 1; white-space: pre; text-shadow: white 1px 1px 1px, white -1px -1px 1px, white 1px -1px 1px, white -1px 1px 1px;">LC</text></g><g class="sankey-node" transform="translate(375.000,227.471)" style="opacity: 1;"><rect class="node-rect" width="15" height="76.85294117647027" style="stroke-width: 0.5; stroke: rgb(0, 0, 0); stroke-opacity: 1; fill: rgb(171, 99, 250); fill-opacity: 1;"/><text class="node-label" data-notex="1" x="0" y="0" text-anchor="start" transform="translate(18.25,42.62647058823514)" style="cursor: default; font-family: 'Open Sans', verdana, arial, sans-serif; font-size: 12px; fill: rgb(42, 63, 95); fill-opacity: 1; white-space: pre; text-shadow: white 1px 1px 1px, white -1px -1px 1px, white 1px -1px 1px, white -1px 1px 1px;">Str</text></g><g class="sankey-node" transform="translate(375.000,67.853)" style="opacity: 1;"><rect class="node-rect" width="15" height="36.7058823529411" style="stroke-width: 0.5; stroke: rgb(0, 0, 0); stroke-opacity: 1; fill: rgb(255, 161, 90); fill-opacity: 1;"/><text class="node-label" data-notex="1" x="0" y="0" text-anchor="start" transform="translate(18.25,22.55294117647055)" style="cursor: default; font-family: 'Open Sans', verdana, arial, sans-serif; font-size: 12px; fill: rgb(42, 63, 95); fill-opacity: 1; white-space: pre; text-shadow: white 1px 1px 1px, white -1px -1px 1px, white 1px -1px 1px, white -1px 1px 1px;">NAc</text></g><g class="sankey-node" transform="translate(375.000,18.441)" style="opacity: 1;"><rect class="node-rect" width="15" height="34.41176470588229" style="stroke-width: 0.5; stroke: rgb(0, 0, 0); stroke-opacity: 1; fill: rgb(25, 211, 243); fill-opacity: 1;"/><text class="node-label" data-notex="1" x="0" y="0" text-anchor="start" transform="translate(18.25,21.405882352941145)" style="cursor: default; font-family: 'Open Sans', verdana, arial, sans-serif; font-size: 12px; fill: rgb(42, 63, 95); fill-opacity: 1; white-space: pre; text-shadow: white 1px 1px 1px, white -1px -1px 1px, white 1px -1px 1px, white -1px 1px 1px;">BLA</text></g><g class="sankey-node" transform="translate(375.000,646.500)" style="opacity: 1;"><rect class="node-rect" width="15" height="24.088235294117794" style="stroke-width: 0.5; stroke: rgb(0, 0, 0); stroke-opacity: 1; fill: rgb(255, 102, 146); fill-opacity: 1;"/><text class="node-label" data-notex="1" x="0" y="0" text-anchor="start" transform="translate(18.25,16.244117647058896)" style="cursor: default; font-family: 'Open Sans', verdana, arial, sans-serif; font-size: 12px; fill: rgb(42, 63, 95); fill-opacity: 1; white-space: pre; text-shadow: white 1px 1px 1px, white -1px -1px 1px, white 1px -1px 1px, white -1px 1px 1px;">dPAG</text></g><g class="sankey-node" transform="translate(375.000,0.000)" style="opacity: 1;"><rect class="node-rect" width="15" height="3.441176470588289" style="stroke-width: 0.5; stroke: rgb(0, 0, 0); stroke-opacity: 1; fill: rgb(182, 232, 128); fill-opacity: 1;"/><text class="node-label" data-notex="1" x="0" y="0" text-anchor="start" transform="translate(18.25,5.920588235294144)" style="cursor: default; font-family: 'Open Sans', verdana, arial, sans-serif; font-size: 12px; fill: rgb(42, 63, 95); fill-opacity: 1; white-space: pre; text-shadow: white 1px 1px 1px, white -1px -1px 1px, white 1px -1px 1px, white -1px 1px 1px;">lHb</text></g><g class="sankey-node" transform="translate(375.000,395.118)" style="opacity: 1;"><rect class="node-rect" width="15" height="56.20588235294122" style="stroke-width: 0.5; stroke: rgb(0, 0, 0); stroke-opacity: 1; fill: rgb(255, 151, 255); fill-opacity: 1;"/><text class="node-label" data-notex="1" x="0" y="0" text-anchor="start" transform="translate(18.25,32.30294117647061)" style="cursor: default; font-family: 'Open Sans', verdana, arial, sans-serif; font-size: 12px; fill: rgb(42, 63, 95); fill-opacity: 1; white-space: pre; text-shadow: white 1px 1px 1px, white -1px -1px 1px, white 1px -1px 1px, white -1px 1px 1px;">cPFC</text></g><g class="sankey-node" transform="translate(375.000,685.588)" style="opacity: 1;"><rect class="node-rect" width="15" height="34.41176470588198" style="stroke-width: 0.5; stroke: rgb(0, 0, 0); stroke-opacity: 1; fill: rgb(254, 203, 82); fill-opacity: 1;"/><text class="node-label" data-notex="1" x="0" y="0" text-anchor="start" transform="translate(18.25,21.40588235294099)" style="cursor: default; font-family: 'Open Sans', verdana, arial, sans-serif; font-size: 12px; fill: rgb(42, 63, 95); fill-opacity: 1; white-space: pre; text-shadow: white 1px 1px 1px, white -1px -1px 1px, white 1px -1px 1px, white -1px 1px 1px;">LHyp</text></g></g></g><defs id="topdefs-b6769f"><g class="clips"/></defs><g class="layer-above"><g class="imagelayer"/><g class="shapelayer"/></g><g class="infolayer"><g class="g-gtitle"/><g class="first-render"/></g></svg>