<svg class="main-svg" xmlns="http://www.w3.org/2000/svg" xmlns:xlink="http://www.w3.org/1999/xlink" width="1300" height="900" style="" viewBox="0 0 1300 900"><rect x="0" y="0" width="1300" height="900" style="fill: rgb(255, 255, 255); fill-opacity: 1;"/><defs id="defs-4eb61d"><g class="clips"/><g class="gradients"/><g class="patterns"/></defs><g class="bglayer"/><g class="layer-below"><g class="imagelayer"/><g class="shapelayer"/></g><g class="cartesianlayer"/><g class="polarlayer"/><g class="smithlayer"/><g class="ternarylayer"/><g class="geolayer"/><g class="funnelarealayer"/><g class="pielayer"/><g class="iciclelayer"/><g class="treemaplayer"/><g class="sunburstlayer"/><g class="glimages"/><g class="sankey" transform="translate(80,100)matrix(1 0 0 1 0 0)" style="box-sizing: content-box; position: absolute; left: 0px; shape-rendering: geometricprecision; pointer-events: none;"><g class="sankey-links" style="fill: none;"><path class="sankey-link" d="M15,702.8856382978723C195,702.8856382978723 195,495.07978723404204 375,495.07978723404204L375,505.9707446808506C195,505.9707446808506 195,713.7765957446808 15,713.7765957446808Z" style="stroke: rgb(68, 68, 68); stroke-opacity: 1; fill: rgb(239, 85, 59); fill-opacity: 0.6; stroke-width: 0; opacity: 1;"/><path class="sankey-link" d="M15,698.218085106383C195,698.218085106383 195,223.92287234042536 375,223.92287234042536L375,227.0345744680849C195,227.0345744680849 195,701.3297872340426 15,701.3297872340426Z" style="stroke: rgb(68, 68, 68); stroke-opacity: 1; fill: rgb(0, 204, 150); fill-opacity: 0.6; stroke-width: 0; opacity: 1;"/><path class="sankey-link" d="M15,713.7765957446809C195,713.7765957446809 195,667.6595744680853 375,667.6595744680853L375,673.8829787234044C195,673.8829787234044 195,720 15,720Z" style="stroke: rgb(68, 68, 68); stroke-opacity: 1; fill: rgb(255, 161, 90); fill-opacity: 0.6; stroke-width: 0; opacity: 1;"/><path class="sankey-link" d="M15,687.3271276595744C195,687.3271276595744 195,140.46542553191475 375,140.46542553191475L375,151.35638297872325C195,151.35638297872325 195,698.2180851063829 15,698.2180851063829Z" style="stroke: rgb(68, 68, 68); stroke-opacity: 1; fill: rgb(171, 99, 250); fill-opacity: 0.6; stroke-width: 0; opacity: 1;"/><path class="sankey-link" d="M15,701.3297872340426C195,701.3297872340426 195,394.5079787234039 375,394.5079787234039L375,396.06382978723366C195,396.06382978723366 195,702.8856382978723 15,702.8856382978723Z" style="stroke: rgb(68, 68, 68); stroke-opacity: 1; fill: rgb(99, 110, 250); fill-opacity: 0.6; stroke-width: 0; opacity: 1;"/><path class="sankey-link" d="M15,79.66755319148913C195,79.66755319148913 195,19.667553191489304 375,19.667553191489304L375,49.22872340425526C195,49.22872340425526 195,109.22872340425508 15,109.22872340425508Z" style="stroke: rgb(68, 68, 68); stroke-opacity: 1; fill: rgb(25, 211, 243); fill-opacity: 0.6; stroke-width: 0; opacity: 1;"/><path class="sankey-link" d="M15,213.47074468085086C195,213.47074468085086 195,411.06382978723354 375,411.06382978723354L375,449.9601063829782C195,449.9601063829782 195,252.36702127659552 15,252.36702127659552Z" style="stroke: rgb(68, 68, 68); stroke-opacity: 1; fill: rgb(239, 85, 59); fill-opacity: 0.6; stroke-width: 0; opacity: 1;"/><path class="sankey-link" d="M15,155.90425531914872C195,155.90425531914872 195,166.35638297872322 375,166.35638297872322L375,202.14095744680833C195,202.14095744680833 195,191.68882978723383 15,191.68882978723383Z" style="stroke: rgb(68, 68, 68); stroke-opacity: 1; fill: rgb(0, 204, 150); fill-opacity: 0.6; stroke-width: 0; opacity: 1;"/><path class="sankey-link" d="M15,292.81914893617005C195,292.81914893617005 195,633.43085106383 375,633.43085106383L375,653.6569148936173C195,653.6569148936173 195,313.0452127659573 15,313.0452127659573Z" style="stroke: rgb(68, 68, 68); stroke-opacity: 1; fill: rgb(255, 161, 90); fill-opacity: 0.6; stroke-width: 0; opacity: 1;"/><path class="sankey-link" d="M15,109.2287234042551C195,109.2287234042551 195,67.34042553191475 375,67.34042553191475L375,114.01595744680836C195,114.01595744680836 195,155.90425531914872 15,155.90425531914872Z" style="stroke: rgb(68, 68, 68); stroke-opacity: 1; fill: rgb(171, 99, 250); fill-opacity: 0.6; stroke-width: 0; opacity: 1;"/><path class="sankey-link" d="M15,191.68882978723383C195,191.68882978723383 195,242.03457446808477 375,242.03457446808477L375,263.81648936170177C195,263.81648936170177 195,213.47074468085083 15,213.47074468085083Z" style="stroke: rgb(68, 68, 68); stroke-opacity: 1; fill: rgb(99, 110, 250); fill-opacity: 0.6; stroke-width: 0; opacity: 1;"/><path class="sankey-link" d="M15,252.36702127659552C195,252.36702127659552 195,520.9707446808509 375,520.9707446808509L375,547.4202127659573C195,547.4202127659573 195,278.8164893617019 15,278.8164893617019Z" style="stroke: rgb(68, 68, 68); stroke-opacity: 1; fill: rgb(255, 151, 255); fill-opacity: 0.6; stroke-width: 0; opacity: 1;"/><path class="sankey-link" d="M15,278.81648936170194C195,278.81648936170194 195,588.869680851064 375,588.869680851064L375,602.872340425532C195,602.872340425532 195,292.81914893617005 15,292.81914893617005Z" style="stroke: rgb(68, 68, 68); stroke-opacity: 1; fill: rgb(255, 102, 146); fill-opacity: 0.6; stroke-width: 0; opacity: 1;"/><path class="sankey-link" d="M15,74.99999999999977C195,74.99999999999977 195,-4.263256414560601e-14 375,-4.263256414560601e-14L375,4.667553191489319C195,4.667553191489319 195,79.66755319148913 15,79.66755319148913Z" style="stroke: rgb(68, 68, 68); stroke-opacity: 1; fill: rgb(182, 232, 128); fill-opacity: 0.6; stroke-width: 0; opacity: 1;"/><path class="sankey-link" d="M15,606.9813829787233C195,606.9813829787233 195,49.22872340425526 375,49.22872340425526L375,52.34042553191483C195,52.34042553191483 195,610.0930851063829 15,610.0930851063829Z" style="stroke: rgb(68, 68, 68); stroke-opacity: 1; fill: rgb(25, 211, 243); fill-opacity: 0.6; stroke-width: 0; opacity: 1;"/><path class="sankey-link" d="M15,620.9840425531913C195,620.9840425531913 195,471.7420212765952 375,471.7420212765952L375,495.079787234042C195,495.079787234042 195,644.3218085106382 15,644.3218085106382Z" style="stroke: rgb(68, 68, 68); stroke-opacity: 1; fill: rgb(239, 85, 59); fill-opacity: 0.6; stroke-width: 0; opacity: 1;"/><path class="sankey-link" d="M15,611.6489361702127C195,611.6489361702127 195,217.69946808510622 375,217.69946808510622L375,223.92287234042539C195,223.92287234042539 195,617.8723404255318 15,617.8723404255318Z" style="stroke: rgb(68, 68, 68); stroke-opacity: 1; fill: rgb(0, 204, 150); fill-opacity: 0.6; stroke-width: 0; opacity: 1;"/><path class="sankey-link" d="M15,658.3244680851062C195,658.3244680851062 195,653.6569148936172 375,653.6569148936172L375,667.6595744680852C195,667.6595744680852 195,672.3271276595742 15,672.3271276595742Z" style="stroke: rgb(68, 68, 68); stroke-opacity: 1; fill: rgb(255, 161, 90); fill-opacity: 0.6; stroke-width: 0; opacity: 1;"/><path class="sankey-link" d="M15,610.0930851063829C195,610.0930851063829 195,138.90957446808497 375,138.90957446808497L375,140.46542553191475C195,140.46542553191475 195,611.6489361702127 15,611.6489361702127Z" style="stroke: rgb(68, 68, 68); stroke-opacity: 1; fill: rgb(171, 99, 250); fill-opacity: 0.6; stroke-width: 0; opacity: 1;"/><path class="sankey-link" d="M15,617.8723404255318C195,617.8723404255318 195,391.3962765957443 375,391.3962765957443L375,394.5079787234039C195,394.5079787234039 195,620.9840425531913 15,620.9840425531913Z" style="stroke: rgb(68, 68, 68); stroke-opacity: 1; fill: rgb(99, 110, 250); fill-opacity: 0.6; stroke-width: 0; opacity: 1;"/><path class="sankey-link" d="M15,644.3218085106381C195,644.3218085106381 195,569.2021276595743 375,569.2021276595743L375,573.8696808510637C195,573.8696808510637 195,648.9893617021274 15,648.9893617021274Z" style="stroke: rgb(68, 68, 68); stroke-opacity: 1; fill: rgb(255, 151, 255); fill-opacity: 0.6; stroke-width: 0; opacity: 1;"/><path class="sankey-link" d="M15,648.9893617021274C195,648.9893617021274 195,609.0957446808512 375,609.0957446808512L375,618.4308510638299C195,618.4308510638299 195,658.3244680851061 15,658.3244680851061Z" style="stroke: rgb(68, 68, 68); stroke-opacity: 1; fill: rgb(255, 102, 146); fill-opacity: 0.6; stroke-width: 0; opacity: 1;"/><path class="sankey-link" d="M15,412.06117021276583C195,412.06117021276583 195,449.9601063829782 375,449.9601063829782L375,460.85106382978677C195,460.85106382978677 195,422.9521276595744 15,422.9521276595744Z" style="stroke: rgb(68, 68, 68); stroke-opacity: 1; fill: rgb(239, 85, 59); fill-opacity: 0.6; stroke-width: 0; opacity: 1;"/><path class="sankey-link" d="M15,340.4920212765956C195,340.4920212765956 195,202.14095744680833 375,202.14095744680833L375,209.92021276595727C195,209.92021276595727 195,348.2712765957445 15,348.2712765957445Z" style="stroke: rgb(68, 68, 68); stroke-opacity: 1; fill: rgb(0, 204, 150); fill-opacity: 0.6; stroke-width: 0; opacity: 1;"/><path class="sankey-link" d="M15,436.9547872340424C195,436.9547872340424 195,688.8829787234042 375,688.8829787234042L375,704.441489361702C195,704.441489361702 195,452.5132978723403 15,452.5132978723403Z" style="stroke: rgb(68, 68, 68); stroke-opacity: 1; fill: rgb(254, 203, 82); fill-opacity: 0.6; stroke-width: 0; opacity: 1;"/><path class="sankey-link" d="M15,328.04521276595733C195,328.04521276595733 195,114.01595744680836 375,114.01595744680836L375,126.46276595744666C195,126.46276595744666 195,340.49202127659566 15,340.49202127659566Z" style="stroke: rgb(68, 68, 68); stroke-opacity: 1; fill: rgb(171, 99, 250); fill-opacity: 0.6; stroke-width: 0; opacity: 1;"/><path class="sankey-link" d="M15,348.27127659574455C195,348.27127659574455 195,263.81648936170177 375,263.81648936170177L375,327.6063829787231C195,327.6063829787231 195,412.0611702127659 15,412.0611702127659Z" style="stroke: rgb(68, 68, 68); stroke-opacity: 1; fill: rgb(99, 110, 250); fill-opacity: 0.6; stroke-width: 0; opacity: 1;"/><path class="sankey-link" d="M15,422.95212765957433C195,422.95212765957433 195,547.4202127659572 375,547.4202127659572L375,558.3111702127657C195,558.3111702127657 195,433.8430851063829 15,433.8430851063829Z" style="stroke: rgb(68, 68, 68); stroke-opacity: 1; fill: rgb(255, 151, 255); fill-opacity: 0.6; stroke-width: 0; opacity: 1;"/><path class="sankey-link" d="M15,433.84308510638283C195,433.84308510638283 195,602.8723404255321 375,602.8723404255321L375,605.9840425531917C195,605.9840425531917 195,436.9547872340424 15,436.9547872340424Z" style="stroke: rgb(68, 68, 68); stroke-opacity: 1; fill: rgb(255, 102, 146); fill-opacity: 0.6; stroke-width: 0; opacity: 1;"/><path class="sankey-link" d="M15,551.5292553191489C195,551.5292553191489 195,460.8510638297867 375,460.8510638297867L375,471.74202127659527C195,471.74202127659527 195,562.4202127659573 15,562.4202127659573Z" style="stroke: rgb(68, 68, 68); stroke-opacity: 1; fill: rgb(239, 85, 59); fill-opacity: 0.6; stroke-width: 0; opacity: 1;"/><path class="sankey-link" d="M15,479.9601063829787C195,479.9601063829787 195,209.92021276595727 375,209.92021276595727L375,217.69946808510622C195,217.69946808510622 195,487.7393617021276 15,487.7393617021276Z" style="stroke: rgb(68, 68, 68); stroke-opacity: 1; fill: rgb(0, 204, 150); fill-opacity: 0.6; stroke-width: 0; opacity: 1;"/><path class="sankey-link" d="M15,576.4228723404256C195,576.4228723404256 195,704.4414893617021 375,704.4414893617021L375,719.9999999999999C195,719.9999999999999 195,591.9813829787233 15,591.9813829787233Z" style="stroke: rgb(68, 68, 68); stroke-opacity: 1; fill: rgb(254, 203, 82); fill-opacity: 0.6; stroke-width: 0; opacity: 1;"/><path class="sankey-link" d="M15,467.51329787234044C195,467.51329787234044 195,126.46276595744665 375,126.46276595744665L375,138.90957446808494C195,138.90957446808494 195,479.9601063829788 15,479.9601063829788Z" style="stroke: rgb(68, 68, 68); stroke-opacity: 1; fill: rgb(171, 99, 250); fill-opacity: 0.6; stroke-width: 0; opacity: 1;"/><path class="sankey-link" d="M15,487.73936170212767C195,487.73936170212767 195,327.606382978723 375,327.606382978723L375,391.3962765957443C195,391.3962765957443 195,551.529255319149 15,551.529255319149Z" style="stroke: rgb(68, 68, 68); stroke-opacity: 1; fill: rgb(99, 110, 250); fill-opacity: 0.6; stroke-width: 0; opacity: 1;"/><path class="sankey-link" d="M15,562.4202127659574C195,562.4202127659574 195,558.3111702127658 375,558.3111702127658L375,569.2021276595742C195,569.2021276595742 195,573.3111702127659 15,573.3111702127659Z" style="stroke: rgb(68, 68, 68); stroke-opacity: 1; fill: rgb(255, 151, 255); fill-opacity: 0.6; stroke-width: 0; opacity: 1;"/><path class="sankey-link" d="M15,573.311170212766C195,573.311170212766 195,605.9840425531917 375,605.9840425531917L375,609.0957446808512C195,609.0957446808512 195,576.4228723404256 15,576.4228723404256Z" style="stroke: rgb(68, 68, 68); stroke-opacity: 1; fill: rgb(255, 102, 146); fill-opacity: 0.6; stroke-width: 0; opacity: 1;"/><path class="sankey-link" d="M390,19.667553191489304C570,19.667553191489304 570,325.1592859957282 750,325.1592859957282L750,329.82683918721756C570,329.82683918721756 570,24.335106382978665 390,24.335106382978665Z" style="stroke: rgb(68, 68, 68); stroke-opacity: 1; fill: rgb(25, 211, 243); fill-opacity: 0.6; stroke-width: 0; opacity: 1;"/><path class="sankey-link" d="M390,24.335106382978665C570,24.335106382978665 570,477.07417961274956 750,477.07417961274956L750,480.1858817404091C570,480.1858817404091 570,27.446808510638242 390,27.446808510638242Z" style="stroke: rgb(68, 68, 68); stroke-opacity: 1; fill: rgb(25, 211, 243); fill-opacity: 0.6; stroke-width: 0; opacity: 1;"/><path class="sankey-link" d="M390,411.06382978723354C570,411.06382978723354 570,407.61939237870695 750,407.61939237870695L750,430.9571583361537C570,430.9571583361537 570,434.4015957446803 390,434.4015957446803Z" style="stroke: rgb(68, 68, 68); stroke-opacity: 1; fill: rgb(239, 85, 59); fill-opacity: 0.6; stroke-width: 0; opacity: 1;"/><path class="sankey-link" d="M390,434.4015957446804C570,434.4015957446804 570,578.2044987616857 750,578.2044987616857L750,593.7630093999835C570,593.7630093999835 570,449.96010638297827 390,449.96010638297827Z" style="stroke: rgb(68, 68, 68); stroke-opacity: 1; fill: rgb(239, 85, 59); fill-opacity: 0.6; stroke-width: 0; opacity: 1;"/><path class="sankey-link" d="M390,166.35638297872322C570,166.35638297872322 570,356.276307272324 750,356.276307272324L750,368.72311578296234C570,368.72311578296234 570,178.8031914893615 390,178.8031914893615Z" style="stroke: rgb(68, 68, 68); stroke-opacity: 1; fill: rgb(0, 204, 150); fill-opacity: 0.6; stroke-width: 0; opacity: 1;"/><path class="sankey-link" d="M390,178.80319148936152C570,178.80319148936152 570,495.744392378707 750,495.744392378707L750,506.63534982551556C570,506.63534982551556 570,189.69414893617002 390,189.69414893617002Z" style="stroke: rgb(68, 68, 68); stroke-opacity: 1; fill: rgb(0, 204, 150); fill-opacity: 0.6; stroke-width: 0; opacity: 1;"/><path class="sankey-link" d="M390,688.8829787234042C570,688.8829787234042 570,457.40662642126017 750,457.40662642126017L750,462.0741796127495C570,462.0741796127495 570,693.5505319148936 390,693.5505319148936Z" style="stroke: rgb(68, 68, 68); stroke-opacity: 1; fill: rgb(254, 203, 82); fill-opacity: 0.6; stroke-width: 0; opacity: 1;"/><path class="sankey-link" d="M390,693.5505319148936C570,693.5505319148936 570,621.7683285489198 750,621.7683285489198L750,637.3268391872176C570,637.3268391872176 570,709.1090425531913 390,709.1090425531913Z" style="stroke: rgb(68, 68, 68); stroke-opacity: 1; fill: rgb(254, 203, 82); fill-opacity: 0.6; stroke-width: 0; opacity: 1;"/><path class="sankey-link" d="M390,633.43085106383C570,633.43085106383 570,449.6273711021112 750,449.6273711021112L750,457.4066264212601C570,457.4066264212601 570,641.2101063829789 390,641.2101063829789Z" style="stroke: rgb(68, 68, 68); stroke-opacity: 1; fill: rgb(255, 161, 90); fill-opacity: 0.6; stroke-width: 0; opacity: 1;"/><path class="sankey-link" d="M390,641.2101063829789C570,641.2101063829789 570,615.5449242936007 750,615.5449242936007L750,621.7683285489198C570,621.7683285489198 570,647.433510638298 390,647.433510638298Z" style="stroke: rgb(68, 68, 68); stroke-opacity: 1; fill: rgb(255, 161, 90); fill-opacity: 0.6; stroke-width: 0; opacity: 1;"/><path class="sankey-link" d="M390,67.34042553191475C570,67.34042553191475 570,329.8268391872176 750,329.8268391872176L750,356.27630727232395C570,356.27630727232395 570,93.78989361702114 390,93.78989361702114Z" style="stroke: rgb(68, 68, 68); stroke-opacity: 1; fill: rgb(171, 99, 250); fill-opacity: 0.6; stroke-width: 0; opacity: 1;"/><path class="sankey-link" d="M390,93.78989361702114C570,93.78989361702114 570,480.1858817404091 750,480.1858817404091L750,495.744392378707C570,495.744392378707 570,109.348404255319 390,109.348404255319Z" style="stroke: rgb(68, 68, 68); stroke-opacity: 1; fill: rgb(171, 99, 250); fill-opacity: 0.6; stroke-width: 0; opacity: 1;"/><path class="sankey-link" d="M390,242.03457446808477C570,242.03457446808477 570,368.7231157829623 750,368.7231157829623L750,407.61939237870695C570,407.61939237870695 570,280.93085106382944 390,280.93085106382944Z" style="stroke: rgb(68, 68, 68); stroke-opacity: 1; fill: rgb(99, 110, 250); fill-opacity: 0.6; stroke-width: 0; opacity: 1;"/><path class="sankey-link" d="M390,280.93085106382944C570,280.93085106382944 570,506.6353498255155 750,506.6353498255155L750,578.2044987616857C570,578.2044987616857 570,352.49999999999966 390,352.49999999999966Z" style="stroke: rgb(68, 68, 68); stroke-opacity: 1; fill: rgb(99, 110, 250); fill-opacity: 0.6; stroke-width: 0; opacity: 1;"/><path class="sankey-link" d="M390,520.9707446808509C570,520.9707446808509 570,430.9571583361538 750,430.9571583361538L750,441.84811578296234C570,441.84811578296234 570,531.8617021276593 390,531.8617021276593Z" style="stroke: rgb(68, 68, 68); stroke-opacity: 1; fill: rgb(255, 151, 255); fill-opacity: 0.6; stroke-width: 0; opacity: 1;"/><path class="sankey-link" d="M390,531.8617021276594C570,531.8617021276594 570,593.7630093999836 750,593.7630093999836L750,606.2098179106218C570,606.2098179106218 570,544.3085106382977 390,544.3085106382977Z" style="stroke: rgb(68, 68, 68); stroke-opacity: 1; fill: rgb(255, 151, 255); fill-opacity: 0.6; stroke-width: 0; opacity: 1;"/><path class="sankey-link" d="M390,588.869680851064C570,588.869680851064 570,441.8481157829623 750,441.8481157829623L750,449.62737110211117C570,449.62737110211117 570,596.6489361702129 390,596.6489361702129Z" style="stroke: rgb(68, 68, 68); stroke-opacity: 1; fill: rgb(255, 102, 146); fill-opacity: 0.6; stroke-width: 0; opacity: 1;"/><path class="sankey-link" d="M390,596.6489361702129C570,596.6489361702129 570,606.209817910622 750,606.209817910622L750,615.5449242936006C570,615.5449242936006 570,605.9840425531916 390,605.9840425531916Z" style="stroke: rgb(68, 68, 68); stroke-opacity: 1; fill: rgb(255, 102, 146); fill-opacity: 0.6; stroke-width: 0; opacity: 1;"/><path class="sankey-link" d="M390,-4.263256414560601e-14C570,-4.263256414560601e-14 570,323.60343493189845 750,323.60343493189845L750,325.1592859957282C570,325.1592859957282 570,1.5558510638297447 390,1.5558510638297447Z" style="stroke: rgb(68, 68, 68); stroke-opacity: 1; fill: rgb(182, 232, 128); fill-opacity: 0.6; stroke-width: 0; opacity: 1;"/><path class="sankey-link" d="M765,323.60343493189845C945,323.60343493189845 945,376.27659574468083 1125,376.27659574468083L1125,377.8324468085106C945,377.8324468085106 945,325.1592859957282 765,325.1592859957282Z" style="stroke: rgb(68, 68, 68); stroke-opacity: 1; fill: rgb(25, 211, 243); fill-opacity: 0.6; stroke-width: 0; opacity: 1;"/><path class="sankey-link" d="M765,401.39598812338784C945,401.39598812338784 945,469.06914893617017 1125,469.06914893617017L1125,472.1808510638297C945,472.1808510638297 945,404.5076902510474 765,404.5076902510474Z" style="stroke: rgb(68, 68, 68); stroke-opacity: 1; fill: rgb(25, 211, 243); fill-opacity: 0.6; stroke-width: 0; opacity: 1;"/><path class="sankey-link" d="M765,568.8693923787071C945,568.8693923787071 945,651.5425531914893 1125,651.5425531914893L1125,653.0984042553191C945,653.0984042553191 945,570.4252434425368 765,570.4252434425368Z" style="stroke: rgb(68, 68, 68); stroke-opacity: 1; fill: rgb(25, 211, 243); fill-opacity: 0.6; stroke-width: 0; opacity: 1;"/><path class="sankey-link" d="M765,477.07417961274956C945,477.07417961274956 945,544.747340425532 1125,544.747340425532L1125,546.3031914893618C945,546.3031914893618 945,478.63003067657934 765,478.63003067657934Z" style="stroke: rgb(68, 68, 68); stroke-opacity: 1; fill: rgb(25, 211, 243); fill-opacity: 0.6; stroke-width: 0; opacity: 1;"/><path class="sankey-link" d="M765,325.1592859957282C945,325.1592859957282 945,377.8324468085106 1125,377.8324468085106L1125,390.27925531914894C945,390.27925531914894 945,337.60609450636656 765,337.60609450636656Z" style="stroke: rgb(68, 68, 68); stroke-opacity: 1; fill: rgb(239, 85, 59); fill-opacity: 0.6; stroke-width: 0; opacity: 1;"/><path class="sankey-link" d="M765,404.5076902510474C945,404.5076902510474 945,472.1808510638297 1125,472.1808510638297L1125,483.0718085106383C945,483.0718085106383 945,415.39864769785595 765,415.39864769785595Z" style="stroke: rgb(68, 68, 68); stroke-opacity: 1; fill: rgb(239, 85, 59); fill-opacity: 0.6; stroke-width: 0; opacity: 1;"/><path class="sankey-link" d="M765,570.4252434425368C945,570.4252434425368 945,653.0984042553191 1125,653.0984042553191L1125,659.3218085106382C945,659.3218085106382 945,576.648647697856 765,576.648647697856Z" style="stroke: rgb(68, 68, 68); stroke-opacity: 1; fill: rgb(239, 85, 59); fill-opacity: 0.6; stroke-width: 0; opacity: 1;"/><path class="sankey-link" d="M765,478.63003067657934C945,478.63003067657934 945,546.3031914893618 1125,546.3031914893618L1125,555.6382978723404C945,555.6382978723404 945,487.9651370595581 765,487.9651370595581Z" style="stroke: rgb(68, 68, 68); stroke-opacity: 1; fill: rgb(239, 85, 59); fill-opacity: 0.6; stroke-width: 0; opacity: 1;"/><path class="sankey-link" d="M765,337.6060945063665C945,337.6060945063665 945,390.2792553191489 1125,390.2792553191489L1125,398.0585106382978C945,398.0585106382978 945,345.3853498255154 765,345.3853498255154Z" style="stroke: rgb(68, 68, 68); stroke-opacity: 1; fill: rgb(0, 204, 150); fill-opacity: 0.6; stroke-width: 0; opacity: 1;"/><path class="sankey-link" d="M765,415.3986476978559C945,415.3986476978559 945,483.0718085106382 1125,483.0718085106382L1125,487.73936170212755C945,487.73936170212755 945,420.0662008893452 765,420.0662008893452Z" style="stroke: rgb(68, 68, 68); stroke-opacity: 1; fill: rgb(0, 204, 150); fill-opacity: 0.6; stroke-width: 0; opacity: 1;"/><path class="sankey-link" d="M765,576.648647697856C945,576.648647697856 945,659.3218085106382 1125,659.3218085106382L1125,660.877659574468C945,660.877659574468 945,578.2044987616857 765,578.2044987616857Z" style="stroke: rgb(68, 68, 68); stroke-opacity: 1; fill: rgb(0, 204, 150); fill-opacity: 0.6; stroke-width: 0; opacity: 1;"/><path class="sankey-link" d="M765,487.96513705955806C945,487.96513705955806 945,555.6382978723406 1125,555.6382978723406L1125,564.9734042553192C945,564.9734042553192 945,497.30024344253684 765,497.30024344253684Z" style="stroke: rgb(68, 68, 68); stroke-opacity: 1; fill: rgb(0, 204, 150); fill-opacity: 0.6; stroke-width: 0; opacity: 1;"/><path class="sankey-link" d="M765,345.38534982551545C945,345.38534982551545 945,398.05851063829783 1125,398.05851063829783L1125,399.6143617021276C945,399.6143617021276 945,346.9412008893452 765,346.9412008893452Z" style="stroke: rgb(68, 68, 68); stroke-opacity: 1; fill: rgb(254, 203, 82); fill-opacity: 0.6; stroke-width: 0; opacity: 1;"/><path class="sankey-link" d="M765,420.0662008893453C945,420.0662008893453 945,487.7393617021276 1125,487.7393617021276L1125,490.85106382978717C945,490.85106382978717 945,423.17790301700484 765,423.17790301700484Z" style="stroke: rgb(68, 68, 68); stroke-opacity: 1; fill: rgb(254, 203, 82); fill-opacity: 0.6; stroke-width: 0; opacity: 1;"/><path class="sankey-link" d="M765,578.2044987616857C945,578.2044987616857 945,660.877659574468 1125,660.877659574468L1125,667.1010638297871C945,667.1010638297871 945,584.4279030170048 765,584.4279030170048Z" style="stroke: rgb(68, 68, 68); stroke-opacity: 1; fill: rgb(254, 203, 82); fill-opacity: 0.6; stroke-width: 0; opacity: 1;"/><path class="sankey-link" d="M765,497.3002434425368C945,497.3002434425368 945,564.9734042553193 1125,564.9734042553193L1125,574.308510638298C945,574.308510638298 945,506.63534982551556 765,506.63534982551556Z" style="stroke: rgb(68, 68, 68); stroke-opacity: 1; fill: rgb(254, 203, 82); fill-opacity: 0.6; stroke-width: 0; opacity: 1;"/><path class="sankey-link" d="M765,346.9412008893452C945,346.9412008893452 945,399.6143617021276 1125,399.6143617021276L1125,405.8377659574467C945,405.8377659574467 945,353.16460514466434 765,353.16460514466434Z" style="stroke: rgb(68, 68, 68); stroke-opacity: 1; fill: rgb(255, 161, 90); fill-opacity: 0.6; stroke-width: 0; opacity: 1;"/><path class="sankey-link" d="M765,423.17790301700484C945,423.17790301700484 945,490.85106382978717 1125,490.85106382978717L1125,492.40691489361694C945,492.40691489361694 945,424.7337540808346 765,424.7337540808346Z" style="stroke: rgb(68, 68, 68); stroke-opacity: 1; fill: rgb(255, 161, 90); fill-opacity: 0.6; stroke-width: 0; opacity: 1;"/><path class="sankey-link" d="M765,584.4279030170048C945,584.4279030170048 945,667.1010638297871 1125,667.1010638297871L1125,668.6569148936169C945,668.6569148936169 945,585.9837540808346 765,585.9837540808346Z" style="stroke: rgb(68, 68, 68); stroke-opacity: 1; fill: rgb(255, 161, 90); fill-opacity: 0.6; stroke-width: 0; opacity: 1;"/><path class="sankey-link" d="M765,506.6353498255155C945,506.6353498255155 945,574.3085106382981 1125,574.3085106382981L1125,578.9760638297874C945,578.9760638297874 945,511.30290301700484 765,511.30290301700484Z" style="stroke: rgb(68, 68, 68); stroke-opacity: 1; fill: rgb(255, 161, 90); fill-opacity: 0.6; stroke-width: 0; opacity: 1;"/><path class="sankey-link" d="M765,353.1646051446644C945,353.1646051446644 945,405.8377659574468 1125,405.8377659574468L1125,422.95212765957444C945,422.95212765957444 945,370.27896684679206 765,370.27896684679206Z" style="stroke: rgb(68, 68, 68); stroke-opacity: 1; fill: rgb(171, 99, 250); fill-opacity: 0.6; stroke-width: 0; opacity: 1;"/><path class="sankey-link" d="M765,424.7337540808346C945,424.7337540808346 945,492.40691489361694 1125,492.40691489361694L1125,501.7420212765957C945,501.7420212765957 945,434.0688604638134 765,434.0688604638134Z" style="stroke: rgb(68, 68, 68); stroke-opacity: 1; fill: rgb(171, 99, 250); fill-opacity: 0.6; stroke-width: 0; opacity: 1;"/><path class="sankey-link" d="M765,585.9837540808346C945,585.9837540808346 945,668.6569148936169 1125,668.6569148936169L1125,677.9920212765956C945,677.9920212765956 945,595.3188604638133 765,595.3188604638133Z" style="stroke: rgb(68, 68, 68); stroke-opacity: 1; fill: rgb(171, 99, 250); fill-opacity: 0.6; stroke-width: 0; opacity: 1;"/><path class="sankey-link" d="M765,511.30290301700495C945,511.30290301700495 945,578.9760638297874 1125,578.9760638297874L1125,585.1994680851066C945,585.1994680851066 945,517.5263072723241 765,517.5263072723241Z" style="stroke: rgb(68, 68, 68); stroke-opacity: 1; fill: rgb(171, 99, 250); fill-opacity: 0.6; stroke-width: 0; opacity: 1;"/><path class="sankey-link" d="M765,370.27896684679206C945,370.27896684679206 945,422.95212765957444 1125,422.95212765957444L1125,443.17819148936167C945,443.17819148936167 945,390.5050306765793 765,390.5050306765793Z" style="stroke: rgb(68, 68, 68); stroke-opacity: 1; fill: rgb(99, 110, 250); fill-opacity: 0.6; stroke-width: 0; opacity: 1;"/><path class="sankey-link" d="M765,434.06886046381334C945,434.06886046381334 945,501.74202127659566 1125,501.74202127659566L1125,520.4122340425531C945,520.4122340425531 945,452.7390732297708 765,452.7390732297708Z" style="stroke: rgb(68, 68, 68); stroke-opacity: 1; fill: rgb(99, 110, 250); fill-opacity: 0.6; stroke-width: 0; opacity: 1;"/><path class="sankey-link" d="M765,595.3188604638134C945,595.3188604638134 945,677.9920212765957 1125,677.9920212765957L1125,715.3324468085106C945,715.3324468085106 945,632.6592859957283 765,632.6592859957283Z" style="stroke: rgb(68, 68, 68); stroke-opacity: 1; fill: rgb(99, 110, 250); fill-opacity: 0.6; stroke-width: 0; opacity: 1;"/><path class="sankey-link" d="M765,517.5263072723241C945,517.5263072723241 945,585.1994680851066 1125,585.1994680851066L1125,619.4281914893619C945,619.4281914893619 945,551.7550306765794 765,551.7550306765794Z" style="stroke: rgb(68, 68, 68); stroke-opacity: 1; fill: rgb(99, 110, 250); fill-opacity: 0.6; stroke-width: 0; opacity: 1;"/><path class="sankey-link" d="M765,390.5050306765793C945,390.5050306765793 945,443.17819148936167 1125,443.17819148936167L1125,447.845744680851C945,447.845744680851 945,395.1725838680686 765,395.1725838680686Z" style="stroke: rgb(68, 68, 68); stroke-opacity: 1; fill: rgb(255, 151, 255); fill-opacity: 0.6; stroke-width: 0; opacity: 1;"/><path class="sankey-link" d="M765,452.7390732297708C945,452.7390732297708 945,520.4122340425531 1125,520.4122340425531L1125,526.6356382978722C945,526.6356382978722 945,458.9624774850899 765,458.9624774850899Z" style="stroke: rgb(68, 68, 68); stroke-opacity: 1; fill: rgb(255, 151, 255); fill-opacity: 0.6; stroke-width: 0; opacity: 1;"/><path class="sankey-link" d="M765,632.6592859957283C945,632.6592859957283 945,715.3324468085106 1125,715.3324468085106L1125,719.9999999999999C945,719.9999999999999 945,637.3268391872176 765,637.3268391872176Z" style="stroke: rgb(68, 68, 68); stroke-opacity: 1; fill: rgb(255, 151, 255); fill-opacity: 0.6; stroke-width: 0; opacity: 1;"/><path class="sankey-link" d="M765,551.7550306765794C945,551.7550306765794 945,619.4281914893619 1125,619.4281914893619L1125,627.2074468085108C945,627.2074468085108 945,559.5342859957283 765,559.5342859957283Z" style="stroke: rgb(68, 68, 68); stroke-opacity: 1; fill: rgb(255, 151, 255); fill-opacity: 0.6; stroke-width: 0; opacity: 1;"/><path class="sankey-link" d="M765,395.17258386806867C945,395.17258386806867 945,447.84574468085106 1125,447.84574468085106L1125,452.5132978723404C945,452.5132978723404 945,399.840137059558 765,399.840137059558Z" style="stroke: rgb(68, 68, 68); stroke-opacity: 1; fill: rgb(255, 102, 146); fill-opacity: 0.6; stroke-width: 0; opacity: 1;"/><path class="sankey-link" d="M765,458.96247748508995C945,458.96247748508995 945,526.6356382978722 1125,526.6356382978722L1125,529.7473404255318C945,529.7473404255318 945,462.0741796127495 765,462.0741796127495Z" style="stroke: rgb(68, 68, 68); stroke-opacity: 1; fill: rgb(255, 102, 146); fill-opacity: 0.6; stroke-width: 0; opacity: 1;"/><path class="sankey-link" d="M765,559.5342859957283C945,559.5342859957283 945,627.2074468085108 1125,627.2074468085108L1125,636.5425531914894C945,636.5425531914894 945,568.869392378707 765,568.869392378707Z" style="stroke: rgb(68, 68, 68); stroke-opacity: 1; fill: rgb(255, 102, 146); fill-opacity: 0.6; stroke-width: 0; opacity: 1;"/><path class="sankey-link" d="M765,399.84013705955806C945,399.84013705955806 945,452.51329787234044 1125,452.51329787234044L1125,454.0691489361702C945,454.0691489361702 945,401.39598812338784 765,401.39598812338784Z" style="stroke: rgb(68, 68, 68); stroke-opacity: 1; fill: rgb(182, 232, 128); fill-opacity: 0.6; stroke-width: 0; opacity: 1;"/></g><g class="sankey-node-set" style="cursor: move;"><g class="sankey-node" transform="translate(0.000,687.327)" style="opacity: 1;"><rect class="node-rect" width="15" height="32.672872340425556" style="stroke-width: 0.5; stroke: rgb(0, 0, 0); stroke-opacity: 1; fill: rgb(128, 128, 128); fill-opacity: 1;"/><text class="node-label" data-notex="1" x="0" y="0" text-anchor="start" transform="translate(18.25,20.536436170212777)" style="cursor: default; font-family: 'Open Sans', verdana, arial, sans-serif; font-size: 12px; fill: rgb(42, 63, 95); fill-opacity: 1; white-space: pre; text-shadow: white 1px 1px 1px, white -1px -1px 1px, white 1px -1px 1px, white -1px 1px 1px;">21271R</text></g><g class="sankey-node" transform="translate(0.000,75.000)" style="opacity: 1;"><rect class="node-rect" width="15" height="238.04521276595756" style="stroke-width: 0.5; stroke: rgb(0, 0, 0); stroke-opacity: 1; fill: rgb(128, 128, 128); fill-opacity: 1;"/><text class="node-label" data-notex="1" x="0" y="0" text-anchor="start" transform="translate(18.25,123.22260638297878)" style="cursor: default; font-family: 'Open Sans', verdana, arial, sans-serif; font-size: 12px; fill: rgb(42, 63, 95); fill-opacity: 1; white-space: pre; text-shadow: white 1px 1px 1px, white -1px -1px 1px, white 1px -1px 1px, white -1px 1px 1px;">21272R</text></g><g class="sankey-node" transform="translate(0.000,606.981)" style="opacity: 1;"><rect class="node-rect" width="15" height="65.34574468085111" style="stroke-width: 0.5; stroke: rgb(0, 0, 0); stroke-opacity: 1; fill: rgb(128, 128, 128); fill-opacity: 1;"/><text class="node-label" data-notex="1" x="0" y="0" text-anchor="start" transform="translate(18.25,36.87287234042556)" style="cursor: default; font-family: 'Open Sans', verdana, arial, sans-serif; font-size: 12px; fill: rgb(42, 63, 95); fill-opacity: 1; white-space: pre; text-shadow: white 1px 1px 1px, white -1px -1px 1px, white 1px -1px 1px, white -1px 1px 1px;">21965RL</text></g><g class="sankey-node" transform="translate(0.000,328.045)" style="opacity: 1;"><rect class="node-rect" width="15" height="124.46808510638311" style="stroke-width: 0.5; stroke: rgb(0, 0, 0); stroke-opacity: 1; fill: rgb(128, 128, 128); fill-opacity: 1;"/><text class="node-label" data-notex="1" x="0" y="0" text-anchor="start" transform="translate(18.25,66.43404255319156)" style="cursor: default; font-family: 'Open Sans', verdana, arial, sans-serif; font-size: 12px; fill: rgb(42, 63, 95); fill-opacity: 1; white-space: pre; text-shadow: white 1px 1px 1px, white -1px -1px 1px, white 1px -1px 1px, white -1px 1px 1px;">22384</text></g><g class="sankey-node" transform="translate(0.000,467.513)" style="opacity: 1;"><rect class="node-rect" width="15" height="124.46808510638289" style="stroke-width: 0.5; stroke: rgb(0, 0, 0); stroke-opacity: 1; fill: rgb(128, 128, 128); fill-opacity: 1;"/><text class="node-label" data-notex="1" x="0" y="0" text-anchor="start" transform="translate(18.25,66.43404255319145)" style="cursor: default; font-family: 'Open Sans', verdana, arial, sans-serif; font-size: 12px; fill: rgb(42, 63, 95); fill-opacity: 1; white-space: pre; text-shadow: white 1px 1px 1px, white -1px -1px 1px, white 1px -1px 1px, white -1px 1px 1px;">22670</text></g><g class="sankey-node" transform="translate(750.000,323.603)" style="opacity: 1;"><rect class="node-rect" width="15" height="138.4707446808511" style="stroke-width: 0.5; stroke: rgb(0, 0, 0); stroke-opacity: 1; fill: rgb(128, 128, 128); fill-opacity: 1;"/><text class="node-label" data-notex="1" x="0" y="0" text-anchor="start" transform="translate(18.25,73.43537234042556)" style="cursor: default; font-family: 'Open Sans', verdana, arial, sans-serif; font-size: 12px; fill: rgb(42, 63, 95); fill-opacity: 1; white-space: pre; text-shadow: white 1px 1px 1px, white -1px -1px 1px, white 1px -1px 1px, white -1px 1px 1px;">Active</text></g><g class="sankey-node" transform="translate(750.000,477.074)" style="opacity: 1;"><rect class="node-rect" width="15" height="160.25265957446885" style="stroke-width: 0.5; stroke: rgb(0, 0, 0); stroke-opacity: 1; fill: rgb(128, 128, 128); fill-opacity: 1;"/><text class="node-label" data-notex="1" x="0" y="0" text-anchor="start" transform="translate(18.25,84.32632978723443)" style="cursor: default; font-family: 'Open Sans', verdana, arial, sans-serif; font-size: 12px; fill: rgb(42, 63, 95); fill-opacity: 1; white-space: pre; text-shadow: white 1px 1px 1px, white -1px -1px 1px, white 1px -1px 1px, white -1px 1px 1px;">NonActive</text></g><g class="sankey-node" transform="translate(1125.000,469.069)" style="opacity: 1;"><rect class="node-rect" width="15" height="60.678191489361836" style="stroke-width: 0.5; stroke: rgb(0, 0, 0); stroke-opacity: 1; fill: rgb(128, 128, 128); fill-opacity: 1;"/><text class="node-label" data-notex="1" x="0" y="0" text-anchor="end" transform="translate(-3.25,34.53909574468092)" style="cursor: default; font-family: 'Open Sans', verdana, arial, sans-serif; font-size: 12px; fill: rgb(42, 63, 95); fill-opacity: 1; white-space: pre; text-shadow: white 1px 1px 1px, white -1px -1px 1px, white 1px -1px 1px, white -1px 1px 1px;">Active-suppressed</text></g><g class="sankey-node" transform="translate(1125.000,376.277)" style="opacity: 1;"><rect class="node-rect" width="15" height="77.79255319148933" style="stroke-width: 0.5; stroke: rgb(0, 0, 0); stroke-opacity: 1; fill: rgb(128, 128, 128); fill-opacity: 1;"/><text class="node-label" data-notex="1" x="0" y="0" text-anchor="end" transform="translate(-3.25,43.09627659574467)" style="cursor: default; font-family: 'Open Sans', verdana, arial, sans-serif; font-size: 12px; fill: rgb(42, 63, 95); fill-opacity: 1; white-space: pre; text-shadow: white 1px 1px 1px, white -1px -1px 1px, white 1px -1px 1px, white -1px 1px 1px;">Active-activated</text></g><g class="sankey-node" transform="translate(1125.000,544.747)" style="opacity: 1;"><rect class="node-rect" width="15" height="91.79521276595733" style="stroke-width: 0.5; stroke: rgb(0, 0, 0); stroke-opacity: 1; fill: rgb(128, 128, 128); fill-opacity: 1;"/><text class="node-label" data-notex="1" x="0" y="0" text-anchor="end" transform="translate(-3.25,50.09760638297867)" style="cursor: default; font-family: 'Open Sans', verdana, arial, sans-serif; font-size: 12px; fill: rgb(42, 63, 95); fill-opacity: 1; white-space: pre; text-shadow: white 1px 1px 1px, white -1px -1px 1px, white 1px -1px 1px, white -1px 1px 1px;">NonActive-suppressed</text></g><g class="sankey-node" transform="translate(1125.000,651.543)" style="opacity: 1;"><rect class="node-rect" width="15" height="68.45744680851067" style="stroke-width: 0.5; stroke: rgb(0, 0, 0); stroke-opacity: 1; fill: rgb(128, 128, 128); fill-opacity: 1;"/><text class="node-label" data-notex="1" x="0" y="0" text-anchor="end" transform="translate(-3.25,38.42872340425534)" style="cursor: default; font-family: 'Open Sans', verdana, arial, sans-serif; font-size: 12px; fill: rgb(42, 63, 95); fill-opacity: 1; white-space: pre; text-shadow: white 1px 1px 1px, white -1px -1px 1px, white 1px -1px 1px, white -1px 1px 1px;">NonActive-activated</text></g><g class="sankey-node" transform="translate(375.000,242.035)" style="opacity: 1;"><rect class="node-rect" width="15" height="154.02925531914877" style="stroke-width: 0.5; stroke: rgb(0, 0, 0); stroke-opacity: 1; fill: rgb(99, 110, 250); fill-opacity: 1;"/><text class="node-label" data-notex="1" x="0" y="0" text-anchor="start" transform="translate(18.25,81.21462765957439)" style="cursor: default; font-family: 'Open Sans', verdana, arial, sans-serif; font-size: 12px; fill: rgb(42, 63, 95); fill-opacity: 1; white-space: pre; text-shadow: white 1px 1px 1px, white -1px -1px 1px, white 1px -1px 1px, white -1px 1px 1px;">VTA</text></g><g class="sankey-node" transform="translate(375.000,411.064)" style="opacity: 1;"><rect class="node-rect" width="15" height="94.90691489361734" style="stroke-width: 0.5; stroke: rgb(0, 0, 0); stroke-opacity: 1; fill: rgb(239, 85, 59); fill-opacity: 1;"/><text class="node-label" data-notex="1" x="0" y="0" text-anchor="start" transform="translate(18.25,51.65345744680867)" style="cursor: default; font-family: 'Open Sans', verdana, arial, sans-serif; font-size: 12px; fill: rgb(42, 63, 95); fill-opacity: 1; white-space: pre; text-shadow: white 1px 1px 1px, white -1px -1px 1px, white 1px -1px 1px, white -1px 1px 1px;">Cla</text></g><g class="sankey-node" transform="translate(375.000,166.356)" style="opacity: 1;"><rect class="node-rect" width="15" height="60.67819148936155" style="stroke-width: 0.5; stroke: rgb(0, 0, 0); stroke-opacity: 1; fill: rgb(0, 204, 150); fill-opacity: 1;"/><text class="node-label" data-notex="1" x="0" y="0" text-anchor="start" transform="translate(18.25,34.53909574468078)" style="cursor: default; font-family: 'Open Sans', verdana, arial, sans-serif; font-size: 12px; fill: rgb(42, 63, 95); fill-opacity: 1; white-space: pre; text-shadow: white 1px 1px 1px, white -1px -1px 1px, white 1px -1px 1px, white -1px 1px 1px;">LC</text></g><g class="sankey-node" transform="translate(375.000,67.340)" style="opacity: 1;"><rect class="node-rect" width="15" height="84.01595744680847" style="stroke-width: 0.5; stroke: rgb(0, 0, 0); stroke-opacity: 1; fill: rgb(171, 99, 250); fill-opacity: 1;"/><text class="node-label" data-notex="1" x="0" y="0" text-anchor="start" transform="translate(18.25,46.20797872340424)" style="cursor: default; font-family: 'Open Sans', verdana, arial, sans-serif; font-size: 12px; fill: rgb(42, 63, 95); fill-opacity: 1; white-space: pre; text-shadow: white 1px 1px 1px, white -1px -1px 1px, white 1px -1px 1px, white -1px 1px 1px;">Str</text></g><g class="sankey-node" transform="translate(375.000,633.431)" style="opacity: 1;"><rect class="node-rect" width="15" height="40.45212765957422" style="stroke-width: 0.5; stroke: rgb(0, 0, 0); stroke-opacity: 1; fill: rgb(255, 161, 90); fill-opacity: 1;"/><text class="node-label" data-notex="1" x="0" y="0" text-anchor="start" transform="translate(18.25,24.426063829787108)" style="cursor: default; font-family: 'Open Sans', verdana, arial, sans-serif; font-size: 12px; fill: rgb(42, 63, 95); fill-opacity: 1; white-space: pre; text-shadow: white 1px 1px 1px, white -1px -1px 1px, white 1px -1px 1px, white -1px 1px 1px;">NAc</text></g><g class="sankey-node" transform="translate(375.000,19.668)" style="opacity: 1;"><rect class="node-rect" width="15" height="32.67287234042544" style="stroke-width: 0.5; stroke: rgb(0, 0, 0); stroke-opacity: 1; fill: rgb(25, 211, 243); fill-opacity: 1;"/><text class="node-label" data-notex="1" x="0" y="0" text-anchor="start" transform="translate(18.25,20.53643617021272)" style="cursor: default; font-family: 'Open Sans', verdana, arial, sans-serif; font-size: 12px; fill: rgb(42, 63, 95); fill-opacity: 1; white-space: pre; text-shadow: white 1px 1px 1px, white -1px -1px 1px, white 1px -1px 1px, white -1px 1px 1px;">BLA</text></g><g class="sankey-node" transform="translate(375.000,588.870)" style="opacity: 1;"><rect class="node-rect" width="15" height="29.561170212766" style="stroke-width: 0.5; stroke: rgb(0, 0, 0); stroke-opacity: 1; fill: rgb(255, 102, 146); fill-opacity: 1;"/><text class="node-label" data-notex="1" x="0" y="0" text-anchor="start" transform="translate(18.25,18.980585106383)" style="cursor: default; font-family: 'Open Sans', verdana, arial, sans-serif; font-size: 12px; fill: rgb(42, 63, 95); fill-opacity: 1; white-space: pre; text-shadow: white 1px 1px 1px, white -1px -1px 1px, white 1px -1px 1px, white -1px 1px 1px;">dPAG</text></g><g class="sankey-node" transform="translate(375.000,-0.000)" style="opacity: 1;"><rect class="node-rect" width="15" height="4.667553191489333" style="stroke-width: 0.5; stroke: rgb(0, 0, 0); stroke-opacity: 1; fill: rgb(182, 232, 128); fill-opacity: 1;"/><text class="node-label" data-notex="1" x="0" y="0" text-anchor="start" transform="translate(18.25,6.533776595744666)" style="cursor: default; font-family: 'Open Sans', verdana, arial, sans-serif; font-size: 12px; fill: rgb(42, 63, 95); fill-opacity: 1; white-space: pre; text-shadow: white 1px 1px 1px, white -1px -1px 1px, white 1px -1px 1px, white -1px 1px 1px;">lHb</text></g><g class="sankey-node" transform="translate(375.000,520.971)" style="opacity: 1;"><rect class="node-rect" width="15" height="52.89893617021312" style="stroke-width: 0.5; stroke: rgb(0, 0, 0); stroke-opacity: 1; fill: rgb(255, 151, 255); fill-opacity: 1;"/><text class="node-label" data-notex="1" x="0" y="0" text-anchor="start" transform="translate(18.25,30.64946808510656)" style="cursor: default; font-family: 'Open Sans', verdana, arial, sans-serif; font-size: 12px; fill: rgb(42, 63, 95); fill-opacity: 1; white-space: pre; text-shadow: white 1px 1px 1px, white -1px -1px 1px, white 1px -1px 1px, white -1px 1px 1px;">cPFC</text></g><g class="sankey-node" transform="translate(375.000,688.883)" style="opacity: 1;"><rect class="node-rect" width="15" height="31.11702127659578" style="stroke-width: 0.5; stroke: rgb(0, 0, 0); stroke-opacity: 1; fill: rgb(254, 203, 82); fill-opacity: 1;"/><text class="node-label" data-notex="1" x="0" y="0" text-anchor="start" transform="translate(18.25,19.75851063829789)" style="cursor: default; font-family: 'Open Sans', verdana, arial, sans-serif; font-size: 12px; fill: rgb(42, 63, 95); fill-opacity: 1; white-space: pre; text-shadow: white 1px 1px 1px, white -1px -1px 1px, white 1px -1px 1px, white -1px 1px 1px;">LHyp</text></g></g></g><defs id="topdefs-4eb61d"><g class="clips"/></defs><g class="layer-above"><g class="imagelayer"/><g class="shapelayer"/></g><g class="infolayer"><g class="g-gtitle"/><g class="first-render"/></g></svg>