<svg class="main-svg" xmlns="http://www.w3.org/2000/svg" xmlns:xlink="http://www.w3.org/1999/xlink" width="1300" height="900" style="" viewBox="0 0 1300 900"><rect x="0" y="0" width="1300" height="900" style="fill: rgb(255, 255, 255); fill-opacity: 1;"/><defs id="defs-b1cd07"><g class="clips"/><g class="gradients"/><g class="patterns"/></defs><g class="bglayer"/><g class="layer-below"><g class="imagelayer"/><g class="shapelayer"/></g><g class="cartesianlayer"/><g class="polarlayer"/><g class="smithlayer"/><g class="ternarylayer"/><g class="geolayer"/><g class="funnelarealayer"/><g class="pielayer"/><g class="iciclelayer"/><g class="treemaplayer"/><g class="sunburstlayer"/><g class="glimages"/><g class="sankey" transform="translate(80,100)matrix(1 0 0 1 0 0)" style="box-sizing: content-box; position: absolute; left: 0px; shape-rendering: geometricprecision; pointer-events: none;"><g class="sankey-links" style="fill: none;"><path class="sankey-link" d="M15,625.8C195,625.8 195,322.79999999999893 375,322.79999999999893L375,335.39999999999895C195,335.39999999999895 195,638.3999999999999 15,638.3999999999999Z" style="stroke: rgb(68, 68, 68); stroke-opacity: 1; fill: rgb(99, 110, 250); fill-opacity: 0.6; stroke-width: 0; opacity: 1;"/><path class="sankey-link" d="M15,615C195,615 195,127.19999999999875 375,127.19999999999875L375,132.59999999999874C195,132.59999999999874 195,620.4000000000001 15,620.4000000000001Z" style="stroke: rgb(68, 68, 68); stroke-opacity: 1; fill: rgb(239, 85, 59); fill-opacity: 0.6; stroke-width: 0; opacity: 1;"/><path class="sankey-link" d="M15,638.4C195,638.4 195,457.19999999999925 375,457.19999999999925L375,462.5999999999992C195,462.5999999999992 195,643.8000000000001 15,643.8000000000001Z" style="stroke: rgb(68, 68, 68); stroke-opacity: 1; fill: rgb(171, 99, 250); fill-opacity: 0.6; stroke-width: 0; opacity: 1;"/><path class="sankey-link" d="M15,620.4C195,620.4 195,232.19999999999874 375,232.19999999999874L375,237.59999999999872C195,237.59999999999872 195,625.8000000000001 15,625.8000000000001Z" style="stroke: rgb(68, 68, 68); stroke-opacity: 1; fill: rgb(0, 204, 150); fill-opacity: 0.6; stroke-width: 0; opacity: 1;"/><path class="sankey-link" d="M15,643.8C195,643.8 195,626.9999999999994 375,626.9999999999994L375,628.7999999999994C195,628.7999999999994 195,645.5999999999999 15,645.5999999999999Z" style="stroke: rgb(68, 68, 68); stroke-opacity: 1; fill: rgb(255, 161, 90); fill-opacity: 0.6; stroke-width: 0; opacity: 1;"/><path class="sankey-link" d="M15,87.60000000000123C195,87.60000000000123 195,22.199999999998596 375,22.199999999998596L375,49.199999999998596C195,49.199999999998596 195,114.60000000000123 15,114.60000000000123Z" style="stroke: rgb(68, 68, 68); stroke-opacity: 1; fill: rgb(25, 211, 243); fill-opacity: 0.6; stroke-width: 0; opacity: 1;"/><path class="sankey-link" d="M15,201.00000000000125C195,201.00000000000125 195,257.999999999999 375,257.999999999999L375,293.999999999999C195,293.999999999999 195,237.00000000000125 15,237.00000000000125Z" style="stroke: rgb(68, 68, 68); stroke-opacity: 1; fill: rgb(99, 110, 250); fill-opacity: 0.6; stroke-width: 0; opacity: 1;"/><path class="sankey-link" d="M15,114.60000000000123C195,114.60000000000123 195,69.59999999999877 375,69.59999999999877L375,109.19999999999877C195,109.19999999999877 195,154.20000000000124 15,154.20000000000124Z" style="stroke: rgb(68, 68, 68); stroke-opacity: 1; fill: rgb(239, 85, 59); fill-opacity: 0.6; stroke-width: 0; opacity: 1;"/><path class="sankey-link" d="M15,258.6000000000013C195,258.6000000000013 195,433.7999999999993 375,433.7999999999993L375,457.19999999999925C195,457.19999999999925 195,282.00000000000125 15,282.00000000000125Z" style="stroke: rgb(68, 68, 68); stroke-opacity: 1; fill: rgb(171, 99, 250); fill-opacity: 0.6; stroke-width: 0; opacity: 1;"/><path class="sankey-link" d="M15,154.20000000000124C195,154.20000000000124 195,152.99999999999875 375,152.99999999999875L375,199.79999999999876C195,199.79999999999876 195,201.00000000000125 15,201.00000000000125Z" style="stroke: rgb(68, 68, 68); stroke-opacity: 1; fill: rgb(0, 204, 150); fill-opacity: 0.6; stroke-width: 0; opacity: 1;"/><path class="sankey-link" d="M15,282.00000000000125C195,282.00000000000125 195,491.9999999999993 375,491.9999999999993L375,504.59999999999934C195,504.59999999999934 195,294.6000000000013 15,294.6000000000013Z" style="stroke: rgb(68, 68, 68); stroke-opacity: 1; fill: rgb(255, 161, 90); fill-opacity: 0.6; stroke-width: 0; opacity: 1;"/><path class="sankey-link" d="M15,237.00000000000125C195,237.00000000000125 195,366.5999999999992 375,366.5999999999992L375,388.19999999999925C195,388.19999999999925 195,258.6000000000013 15,258.6000000000013Z" style="stroke: rgb(68, 68, 68); stroke-opacity: 1; fill: rgb(255, 151, 255); fill-opacity: 0.6; stroke-width: 0; opacity: 1;"/><path class="sankey-link" d="M15,294.6000000000013C195,294.6000000000013 195,647.3999999999997 375,647.3999999999997L375,659.9999999999997C195,659.9999999999997 195,307.2000000000013 15,307.2000000000013Z" style="stroke: rgb(68, 68, 68); stroke-opacity: 1; fill: rgb(255, 102, 146); fill-opacity: 0.6; stroke-width: 0; opacity: 1;"/><path class="sankey-link" d="M15,80.40000000000123C195,80.40000000000123 195,-1.4352963262354024e-12 375,-1.4352963262354024e-12L375,7.199999999998565C195,7.199999999998565 195,87.60000000000122 15,87.60000000000122Z" style="stroke: rgb(68, 68, 68); stroke-opacity: 1; fill: rgb(182, 232, 128); fill-opacity: 0.6; stroke-width: 0; opacity: 1;"/><path class="sankey-link" d="M15,660.6C195,660.6 195,49.199999999998596 375,49.199999999998596L375,54.5999999999986C195,54.5999999999986 195,666.0000000000001 15,666.0000000000001Z" style="stroke: rgb(68, 68, 68); stroke-opacity: 1; fill: rgb(25, 211, 243); fill-opacity: 0.6; stroke-width: 0; opacity: 1;"/><path class="sankey-link" d="M15,676.8C195,676.8 195,335.39999999999895 375,335.39999999999895L375,351.599999999999C195,351.599999999999 195,693 15,693Z" style="stroke: rgb(68, 68, 68); stroke-opacity: 1; fill: rgb(99, 110, 250); fill-opacity: 0.6; stroke-width: 0; opacity: 1;"/><path class="sankey-link" d="M15,666C195,666 195,132.59999999999877 375,132.59999999999877L375,137.99999999999875C195,137.99999999999875 195,671.4000000000001 15,671.4000000000001Z" style="stroke: rgb(68, 68, 68); stroke-opacity: 1; fill: rgb(239, 85, 59); fill-opacity: 0.6; stroke-width: 0; opacity: 1;"/><path class="sankey-link" d="M15,698.4C195,698.4 195,462.5999999999992 375,462.5999999999992L375,473.3999999999992C195,473.3999999999992 195,709.1999999999999 15,709.1999999999999Z" style="stroke: rgb(68, 68, 68); stroke-opacity: 1; fill: rgb(171, 99, 250); fill-opacity: 0.6; stroke-width: 0; opacity: 1;"/><path class="sankey-link" d="M15,671.4C195,671.4 195,237.59999999999874 375,237.59999999999874L375,242.99999999999872C195,242.99999999999872 195,676.8000000000001 15,676.8000000000001Z" style="stroke: rgb(68, 68, 68); stroke-opacity: 1; fill: rgb(0, 204, 150); fill-opacity: 0.6; stroke-width: 0; opacity: 1;"/><path class="sankey-link" d="M15,709.1999999999999C195,709.1999999999999 195,628.7999999999994 375,628.7999999999994L375,632.3999999999993C195,632.3999999999993 195,712.7999999999998 15,712.7999999999998Z" style="stroke: rgb(68, 68, 68); stroke-opacity: 1; fill: rgb(255, 161, 90); fill-opacity: 0.6; stroke-width: 0; opacity: 1;"/><path class="sankey-link" d="M15,693C195,693 195,413.3999999999993 375,413.3999999999993L375,418.7999999999993C195,418.7999999999993 195,698.4000000000001 15,698.4000000000001Z" style="stroke: rgb(68, 68, 68); stroke-opacity: 1; fill: rgb(255, 151, 255); fill-opacity: 0.6; stroke-width: 0; opacity: 1;"/><path class="sankey-link" d="M15,712.8C195,712.8 195,667.1999999999998 375,667.1999999999998L375,674.3999999999999C195,674.3999999999999 195,720 15,720Z" style="stroke: rgb(68, 68, 68); stroke-opacity: 1; fill: rgb(255, 102, 146); fill-opacity: 0.6; stroke-width: 0; opacity: 1;"/><path class="sankey-link" d="M15,347.40000000000117C195,347.40000000000117 195,293.999999999999 375,293.999999999999L375,308.39999999999895C195,308.39999999999895 195,361.80000000000115 15,361.80000000000115Z" style="stroke: rgb(68, 68, 68); stroke-opacity: 1; fill: rgb(99, 110, 250); fill-opacity: 0.6; stroke-width: 0; opacity: 1;"/><path class="sankey-link" d="M15,322.2000000000012C195,322.2000000000012 195,109.19999999999877 375,109.19999999999877L375,118.19999999999877C195,118.19999999999877 195,331.2000000000012 15,331.2000000000012Z" style="stroke: rgb(68, 68, 68); stroke-opacity: 1; fill: rgb(239, 85, 59); fill-opacity: 0.6; stroke-width: 0; opacity: 1;"/><path class="sankey-link" d="M15,439.2000000000012C195,439.2000000000012 195,689.3999999999999 375,689.3999999999999L375,703.8C195,703.8 195,453.60000000000116 15,453.60000000000116Z" style="stroke: rgb(68, 68, 68); stroke-opacity: 1; fill: rgb(254, 203, 82); fill-opacity: 0.6; stroke-width: 0; opacity: 1;"/><path class="sankey-link" d="M15,331.2000000000012C195,331.2000000000012 195,199.79999999999876 375,199.79999999999876L375,215.99999999999875C195,215.99999999999875 195,347.4000000000012 15,347.4000000000012Z" style="stroke: rgb(68, 68, 68); stroke-opacity: 1; fill: rgb(0, 204, 150); fill-opacity: 0.6; stroke-width: 0; opacity: 1;"/><path class="sankey-link" d="M15,374.40000000000117C195,374.40000000000117 195,504.59999999999934 375,504.59999999999934L375,565.7999999999994C195,565.7999999999994 195,435.6000000000012 15,435.6000000000012Z" style="stroke: rgb(68, 68, 68); stroke-opacity: 1; fill: rgb(255, 161, 90); fill-opacity: 0.6; stroke-width: 0; opacity: 1;"/><path class="sankey-link" d="M15,361.80000000000115C195,361.80000000000115 195,388.19999999999925 375,388.19999999999925L375,400.7999999999993C195,400.7999999999993 195,374.40000000000117 15,374.40000000000117Z" style="stroke: rgb(68, 68, 68); stroke-opacity: 1; fill: rgb(255, 151, 255); fill-opacity: 0.6; stroke-width: 0; opacity: 1;"/><path class="sankey-link" d="M15,435.60000000000116C195,435.60000000000116 195,659.9999999999998 375,659.9999999999998L375,663.5999999999997C195,663.5999999999997 195,439.2000000000012 15,439.2000000000012Z" style="stroke: rgb(68, 68, 68); stroke-opacity: 1; fill: rgb(255, 102, 146); fill-opacity: 0.6; stroke-width: 0; opacity: 1;"/><path class="sankey-link" d="M15,493.8000000000006C195,493.8000000000006 195,308.39999999999895 375,308.39999999999895L375,322.79999999999893C195,322.79999999999893 195,508.20000000000056 15,508.20000000000056Z" style="stroke: rgb(68, 68, 68); stroke-opacity: 1; fill: rgb(99, 110, 250); fill-opacity: 0.6; stroke-width: 0; opacity: 1;"/><path class="sankey-link" d="M15,468.6000000000006C195,468.6000000000006 195,118.19999999999877 375,118.19999999999877L375,127.19999999999877C195,127.19999999999877 195,477.6000000000006 15,477.6000000000006Z" style="stroke: rgb(68, 68, 68); stroke-opacity: 1; fill: rgb(239, 85, 59); fill-opacity: 0.6; stroke-width: 0; opacity: 1;"/><path class="sankey-link" d="M15,585.6000000000006C195,585.6000000000006 195,703.7999999999998 375,703.7999999999998L375,718.1999999999999C195,718.1999999999999 195,600.0000000000007 15,600.0000000000007Z" style="stroke: rgb(68, 68, 68); stroke-opacity: 1; fill: rgb(254, 203, 82); fill-opacity: 0.6; stroke-width: 0; opacity: 1;"/><path class="sankey-link" d="M15,477.6000000000006C195,477.6000000000006 195,215.99999999999875 375,215.99999999999875L375,232.19999999999874C195,232.19999999999874 195,493.80000000000064 15,493.80000000000064Z" style="stroke: rgb(68, 68, 68); stroke-opacity: 1; fill: rgb(0, 204, 150); fill-opacity: 0.6; stroke-width: 0; opacity: 1;"/><path class="sankey-link" d="M15,520.8000000000005C195,520.8000000000005 195,565.7999999999994 375,565.7999999999994L375,626.9999999999994C195,626.9999999999994 195,582.0000000000006 15,582.0000000000006Z" style="stroke: rgb(68, 68, 68); stroke-opacity: 1; fill: rgb(255, 161, 90); fill-opacity: 0.6; stroke-width: 0; opacity: 1;"/><path class="sankey-link" d="M15,508.20000000000056C195,508.20000000000056 195,400.7999999999993 375,400.7999999999993L375,413.3999999999993C195,413.3999999999993 195,520.8000000000005 15,520.8000000000005Z" style="stroke: rgb(68, 68, 68); stroke-opacity: 1; fill: rgb(255, 151, 255); fill-opacity: 0.6; stroke-width: 0; opacity: 1;"/><path class="sankey-link" d="M15,582.0000000000006C195,582.0000000000006 195,663.5999999999998 375,663.5999999999998L375,667.1999999999997C195,667.1999999999997 195,585.6000000000005 15,585.6000000000005Z" style="stroke: rgb(68, 68, 68); stroke-opacity: 1; fill: rgb(255, 102, 146); fill-opacity: 0.6; stroke-width: 0; opacity: 1;"/><path class="sankey-link" d="M390,22.199999999998596C570,22.199999999998596 570,153.00000000000023 750,153.00000000000023L750,165.60000000000025C570,165.60000000000025 570,34.7999999999986 390,34.7999999999986Z" style="stroke: rgb(68, 68, 68); stroke-opacity: 1; fill: rgb(25, 211, 243); fill-opacity: 0.6; stroke-width: 0; opacity: 1;"/><path class="sankey-link" d="M390,34.7999999999986C570,34.7999999999986 570,349.8000000000004 750,349.8000000000004L750,360.60000000000036C570,360.60000000000036 570,45.599999999998595 390,45.599999999998595Z" style="stroke: rgb(68, 68, 68); stroke-opacity: 1; fill: rgb(25, 211, 243); fill-opacity: 0.6; stroke-width: 0; opacity: 1;"/><path class="sankey-link" d="M390,45.5999999999986C570,45.5999999999986 570,637.2000000000003 750,637.2000000000003L750,640.8000000000002C570,640.8000000000002 570,49.199999999998596 390,49.199999999998596Z" style="stroke: rgb(68, 68, 68); stroke-opacity: 1; fill: rgb(25, 211, 243); fill-opacity: 0.6; stroke-width: 0; opacity: 1;"/><path class="sankey-link" d="M390,257.999999999999C570,257.999999999999 570,223.20000000000022 750,223.20000000000022L750,248.4000000000002C570,248.4000000000002 570,283.199999999999 390,283.199999999999Z" style="stroke: rgb(68, 68, 68); stroke-opacity: 1; fill: rgb(99, 110, 250); fill-opacity: 0.6; stroke-width: 0; opacity: 1;"/><path class="sankey-link" d="M390,308.39999999999895C570,308.39999999999895 570,550.2000000000005 750,550.2000000000005L750,566.4000000000005C570,566.4000000000005 570,324.599999999999 390,324.599999999999Z" style="stroke: rgb(68, 68, 68); stroke-opacity: 1; fill: rgb(99, 110, 250); fill-opacity: 0.6; stroke-width: 0; opacity: 1;"/><path class="sankey-link" d="M390,283.19999999999897C570,283.19999999999897 570,418.20000000000044 750,418.20000000000044L750,443.4000000000005C570,443.4000000000005 570,308.399999999999 390,308.399999999999Z" style="stroke: rgb(68, 68, 68); stroke-opacity: 1; fill: rgb(99, 110, 250); fill-opacity: 0.6; stroke-width: 0; opacity: 1;"/><path class="sankey-link" d="M390,324.59999999999894C570,324.59999999999894 570,653.4000000000003 750,653.4000000000003L750,662.4000000000003C570,662.4000000000003 570,333.59999999999894 390,333.59999999999894Z" style="stroke: rgb(68, 68, 68); stroke-opacity: 1; fill: rgb(99, 110, 250); fill-opacity: 0.6; stroke-width: 0; opacity: 1;"/><path class="sankey-link" d="M390,69.59999999999877C570,69.59999999999877 570,165.60000000000022 750,165.60000000000022L750,192.60000000000022C570,192.60000000000022 570,96.59999999999877 390,96.59999999999877Z" style="stroke: rgb(68, 68, 68); stroke-opacity: 1; fill: rgb(239, 85, 59); fill-opacity: 0.6; stroke-width: 0; opacity: 1;"/><path class="sankey-link" d="M390,116.39999999999877C570,116.39999999999877 570,534.0000000000005 750,534.0000000000005L750,543.0000000000005C570,543.0000000000005 570,125.39999999999877 390,125.39999999999877Z" style="stroke: rgb(68, 68, 68); stroke-opacity: 1; fill: rgb(239, 85, 59); fill-opacity: 0.6; stroke-width: 0; opacity: 1;"/><path class="sankey-link" d="M390,96.59999999999877C570,96.59999999999877 570,360.6000000000004 750,360.6000000000004L750,380.4000000000004C570,380.4000000000004 570,116.39999999999878 390,116.39999999999878Z" style="stroke: rgb(68, 68, 68); stroke-opacity: 1; fill: rgb(239, 85, 59); fill-opacity: 0.6; stroke-width: 0; opacity: 1;"/><path class="sankey-link" d="M390,125.39999999999877C570,125.39999999999877 570,640.8000000000003 750,640.8000000000003L750,644.4000000000002C570,644.4000000000002 570,128.99999999999878 390,128.99999999999878Z" style="stroke: rgb(68, 68, 68); stroke-opacity: 1; fill: rgb(239, 85, 59); fill-opacity: 0.6; stroke-width: 0; opacity: 1;"/><path class="sankey-link" d="M390,689.3999999999999C570,689.3999999999999 570,320.40000000000026 750,320.40000000000026L750,331.2000000000002C570,331.2000000000002 570,700.1999999999998 390,700.1999999999998Z" style="stroke: rgb(68, 68, 68); stroke-opacity: 1; fill: rgb(254, 203, 82); fill-opacity: 0.6; stroke-width: 0; opacity: 1;"/><path class="sankey-link" d="M390,705.5999999999998C570,705.5999999999998 570,616.8000000000005 750,616.8000000000005L750,622.2000000000006C570,622.2000000000006 570,710.9999999999999 390,710.9999999999999Z" style="stroke: rgb(68, 68, 68); stroke-opacity: 1; fill: rgb(254, 203, 82); fill-opacity: 0.6; stroke-width: 0; opacity: 1;"/><path class="sankey-link" d="M390,700.1999999999998C570,700.1999999999998 570,513.6000000000005 750,513.6000000000005L750,519.0000000000006C570,519.0000000000006 570,705.5999999999999 390,705.5999999999999Z" style="stroke: rgb(68, 68, 68); stroke-opacity: 1; fill: rgb(254, 203, 82); fill-opacity: 0.6; stroke-width: 0; opacity: 1;"/><path class="sankey-link" d="M390,710.9999999999998C570,710.9999999999998 570,711.0000000000003 750,711.0000000000003L750,720.0000000000003C570,720.0000000000003 570,719.9999999999998 390,719.9999999999998Z" style="stroke: rgb(68, 68, 68); stroke-opacity: 1; fill: rgb(254, 203, 82); fill-opacity: 0.6; stroke-width: 0; opacity: 1;"/><path class="sankey-link" d="M390,433.7999999999993C570,433.7999999999993 570,261.0000000000002 750,261.0000000000002L750,279.0000000000002C570,279.0000000000002 570,451.7999999999993 390,451.7999999999993Z" style="stroke: rgb(68, 68, 68); stroke-opacity: 1; fill: rgb(171, 99, 250); fill-opacity: 0.6; stroke-width: 0; opacity: 1;"/><path class="sankey-link" d="M390,464.3999999999993C570,464.3999999999993 570,577.2000000000005 750,577.2000000000005L750,582.6000000000006C570,582.6000000000006 570,469.7999999999993 390,469.7999999999993Z" style="stroke: rgb(68, 68, 68); stroke-opacity: 1; fill: rgb(171, 99, 250); fill-opacity: 0.6; stroke-width: 0; opacity: 1;"/><path class="sankey-link" d="M390,451.7999999999993C570,451.7999999999993 570,454.20000000000044 750,454.20000000000044L750,466.80000000000047C570,466.80000000000047 570,464.3999999999993 390,464.3999999999993Z" style="stroke: rgb(68, 68, 68); stroke-opacity: 1; fill: rgb(171, 99, 250); fill-opacity: 0.6; stroke-width: 0; opacity: 1;"/><path class="sankey-link" d="M390,469.7999999999993C570,469.7999999999993 570,666.0000000000003 750,666.0000000000003L750,673.2000000000004C570,673.2000000000004 570,476.9999999999993 390,476.9999999999993Z" style="stroke: rgb(68, 68, 68); stroke-opacity: 1; fill: rgb(171, 99, 250); fill-opacity: 0.6; stroke-width: 0; opacity: 1;"/><path class="sankey-link" d="M390,152.99999999999875C570,152.99999999999875 570,192.60000000000022 750,192.60000000000022L750,223.20000000000024C570,223.20000000000024 570,183.59999999999877 390,183.59999999999877Z" style="stroke: rgb(68, 68, 68); stroke-opacity: 1; fill: rgb(0, 204, 150); fill-opacity: 0.6; stroke-width: 0; opacity: 1;"/><path class="sankey-link" d="M390,221.39999999999876C570,221.39999999999876 570,543.0000000000005 750,543.0000000000005L750,550.2000000000005C570,550.2000000000005 570,228.59999999999874 390,228.59999999999874Z" style="stroke: rgb(68, 68, 68); stroke-opacity: 1; fill: rgb(0, 204, 150); fill-opacity: 0.6; stroke-width: 0; opacity: 1;"/><path class="sankey-link" d="M390,183.59999999999874C570,183.59999999999874 570,380.40000000000043 750,380.40000000000043L750,418.2000000000004C570,418.2000000000004 570,221.39999999999876 390,221.39999999999876Z" style="stroke: rgb(68, 68, 68); stroke-opacity: 1; fill: rgb(0, 204, 150); fill-opacity: 0.6; stroke-width: 0; opacity: 1;"/><path class="sankey-link" d="M390,228.59999999999874C570,228.59999999999874 570,644.4000000000003 750,644.4000000000003L750,653.4000000000003C570,653.4000000000003 570,237.59999999999874 390,237.59999999999874Z" style="stroke: rgb(68, 68, 68); stroke-opacity: 1; fill: rgb(0, 204, 150); fill-opacity: 0.6; stroke-width: 0; opacity: 1;"/><path class="sankey-link" d="M390,491.9999999999993C570,491.9999999999993 570,279.0000000000002 750,279.0000000000002L750,318.60000000000025C570,318.60000000000025 570,531.5999999999993 390,531.5999999999993Z" style="stroke: rgb(68, 68, 68); stroke-opacity: 1; fill: rgb(255, 161, 90); fill-opacity: 0.6; stroke-width: 0; opacity: 1;"/><path class="sankey-link" d="M390,571.1999999999994C570,571.1999999999994 570,582.6000000000005 750,582.6000000000005L750,609.6000000000005C570,609.6000000000005 570,598.1999999999994 390,598.1999999999994Z" style="stroke: rgb(68, 68, 68); stroke-opacity: 1; fill: rgb(255, 161, 90); fill-opacity: 0.6; stroke-width: 0; opacity: 1;"/><path class="sankey-link" d="M390,531.5999999999993C570,531.5999999999993 570,466.80000000000047 750,466.80000000000047L750,506.4000000000005C570,506.4000000000005 570,571.1999999999992 390,571.1999999999992Z" style="stroke: rgb(68, 68, 68); stroke-opacity: 1; fill: rgb(255, 161, 90); fill-opacity: 0.6; stroke-width: 0; opacity: 1;"/><path class="sankey-link" d="M390,598.1999999999994C570,598.1999999999994 570,673.2000000000004 750,673.2000000000004L750,705.6000000000005C570,705.6000000000005 570,630.5999999999995 390,630.5999999999995Z" style="stroke: rgb(68, 68, 68); stroke-opacity: 1; fill: rgb(255, 161, 90); fill-opacity: 0.6; stroke-width: 0; opacity: 1;"/><path class="sankey-link" d="M390,366.5999999999992C570,366.5999999999992 570,248.4000000000002 750,248.4000000000002L750,261.0000000000002C570,261.0000000000002 570,379.19999999999925 390,379.19999999999925Z" style="stroke: rgb(68, 68, 68); stroke-opacity: 1; fill: rgb(255, 151, 255); fill-opacity: 0.6; stroke-width: 0; opacity: 1;"/><path class="sankey-link" d="M390,389.99999999999926C570,389.99999999999926 570,566.4000000000005 750,566.4000000000005L750,577.2000000000005C570,577.2000000000005 570,400.7999999999992 390,400.7999999999992Z" style="stroke: rgb(68, 68, 68); stroke-opacity: 1; fill: rgb(255, 151, 255); fill-opacity: 0.6; stroke-width: 0; opacity: 1;"/><path class="sankey-link" d="M390,379.19999999999925C570,379.19999999999925 570,443.40000000000043 750,443.40000000000043L750,454.2000000000004C570,454.2000000000004 570,389.9999999999992 390,389.9999999999992Z" style="stroke: rgb(68, 68, 68); stroke-opacity: 1; fill: rgb(255, 151, 255); fill-opacity: 0.6; stroke-width: 0; opacity: 1;"/><path class="sankey-link" d="M390,400.7999999999993C570,400.7999999999993 570,662.4000000000003 750,662.4000000000003L750,666.0000000000002C570,666.0000000000002 570,404.3999999999993 390,404.3999999999993Z" style="stroke: rgb(68, 68, 68); stroke-opacity: 1; fill: rgb(255, 151, 255); fill-opacity: 0.6; stroke-width: 0; opacity: 1;"/><path class="sankey-link" d="M390,647.3999999999997C570,647.3999999999997 570,318.60000000000025 750,318.60000000000025L750,320.4000000000002C570,320.4000000000002 570,649.1999999999997 390,649.1999999999997Z" style="stroke: rgb(68, 68, 68); stroke-opacity: 1; fill: rgb(255, 102, 146); fill-opacity: 0.6; stroke-width: 0; opacity: 1;"/><path class="sankey-link" d="M390,656.3999999999997C570,656.3999999999997 570,609.6000000000005 750,609.6000000000005L750,616.8000000000005C570,616.8000000000005 570,663.5999999999998 390,663.5999999999998Z" style="stroke: rgb(68, 68, 68); stroke-opacity: 1; fill: rgb(255, 102, 146); fill-opacity: 0.6; stroke-width: 0; opacity: 1;"/><path class="sankey-link" d="M390,649.1999999999997C570,649.1999999999997 570,506.4000000000005 750,506.4000000000005L750,513.6000000000005C570,513.6000000000005 570,656.3999999999997 390,656.3999999999997Z" style="stroke: rgb(68, 68, 68); stroke-opacity: 1; fill: rgb(255, 102, 146); fill-opacity: 0.6; stroke-width: 0; opacity: 1;"/><path class="sankey-link" d="M390,663.5999999999998C570,663.5999999999998 570,705.6000000000004 750,705.6000000000004L750,711.0000000000005C570,711.0000000000005 570,668.9999999999999 390,668.9999999999999Z" style="stroke: rgb(68, 68, 68); stroke-opacity: 1; fill: rgb(255, 102, 146); fill-opacity: 0.6; stroke-width: 0; opacity: 1;"/><path class="sankey-link" d="M390,-1.4352963262354024e-12C570,-1.4352963262354024e-12 570,151.20000000000022 750,151.20000000000022L750,153.00000000000023C570,153.00000000000023 570,1.7999999999985647 390,1.7999999999985647Z" style="stroke: rgb(68, 68, 68); stroke-opacity: 1; fill: rgb(182, 232, 128); fill-opacity: 0.6; stroke-width: 0; opacity: 1;"/><path class="sankey-link" d="M390,1.7999999999985647C570,1.7999999999985647 570,346.2000000000004 750,346.2000000000004L750,349.8000000000004C570,349.8000000000004 570,5.399999999998565 390,5.399999999998565Z" style="stroke: rgb(68, 68, 68); stroke-opacity: 1; fill: rgb(182, 232, 128); fill-opacity: 0.6; stroke-width: 0; opacity: 1;"/><path class="sankey-link" d="M765,248.40000000000026C945,248.40000000000026 945,203.39999999999998 1125,203.39999999999998L1125,205.2C945,205.2 945,250.20000000000027 765,250.20000000000027Z" style="stroke: rgb(68, 68, 68); stroke-opacity: 1; fill: rgb(25, 211, 243); fill-opacity: 0.6; stroke-width: 0; opacity: 1;"/><path class="sankey-link" d="M765,151.20000000000022C945,151.20000000000022 945,91.19999999999993 1125,91.19999999999993L1125,101.99999999999994C945,101.99999999999994 945,162.00000000000023 765,162.00000000000023Z" style="stroke: rgb(68, 68, 68); stroke-opacity: 1; fill: rgb(25, 211, 243); fill-opacity: 0.6; stroke-width: 0; opacity: 1;"/><path class="sankey-link" d="M765,346.2000000000004C945,346.2000000000004 945,301.1999999999998 1125,301.1999999999998L1125,310.1999999999998C945,310.1999999999998 945,355.2000000000004 765,355.2000000000004Z" style="stroke: rgb(68, 68, 68); stroke-opacity: 1; fill: rgb(25, 211, 243); fill-opacity: 0.6; stroke-width: 0; opacity: 1;"/><path class="sankey-link" d="M765,439.8000000000004C945,439.8000000000004 945,409.79999999999984 1125,409.79999999999984L1125,411.5999999999998C945,411.5999999999998 945,441.60000000000036 765,441.60000000000036Z" style="stroke: rgb(68, 68, 68); stroke-opacity: 1; fill: rgb(25, 211, 243); fill-opacity: 0.6; stroke-width: 0; opacity: 1;"/><path class="sankey-link" d="M765,680.4000000000001C945,680.4000000000001 945,680.3999999999999 1125,680.3999999999999L1125,682.1999999999998C945,682.1999999999998 945,682.2 765,682.2Z" style="stroke: rgb(68, 68, 68); stroke-opacity: 1; fill: rgb(25, 211, 243); fill-opacity: 0.6; stroke-width: 0; opacity: 1;"/><path class="sankey-link" d="M765,637.2000000000003C945,637.2000000000003 945,622.1999999999998 1125,622.1999999999998L1125,623.9999999999998C945,623.9999999999998 945,639.0000000000002 765,639.0000000000002Z" style="stroke: rgb(68, 68, 68); stroke-opacity: 1; fill: rgb(25, 211, 243); fill-opacity: 0.6; stroke-width: 0; opacity: 1;"/><path class="sankey-link" d="M765,250.20000000000027C945,250.20000000000027 945,205.2 1125,205.2L1125,217.8C945,217.8 945,262.8000000000003 765,262.8000000000003Z" style="stroke: rgb(68, 68, 68); stroke-opacity: 1; fill: rgb(99, 110, 250); fill-opacity: 0.6; stroke-width: 0; opacity: 1;"/><path class="sankey-link" d="M765,162.00000000000023C945,162.00000000000023 945,101.99999999999993 1125,101.99999999999993L1125,114.59999999999992C945,114.59999999999992 945,174.60000000000025 765,174.60000000000025Z" style="stroke: rgb(68, 68, 68); stroke-opacity: 1; fill: rgb(99, 110, 250); fill-opacity: 0.6; stroke-width: 0; opacity: 1;"/><path class="sankey-link" d="M765,534.0000000000005C945,534.0000000000005 945,503.9999999999998 1125,503.9999999999998L1125,514.7999999999997C945,514.7999999999997 945,544.8000000000004 765,544.8000000000004Z" style="stroke: rgb(68, 68, 68); stroke-opacity: 1; fill: rgb(99, 110, 250); fill-opacity: 0.6; stroke-width: 0; opacity: 1;"/><path class="sankey-link" d="M765,586.2000000000004C945,586.2000000000004 945,571.1999999999998 1125,571.1999999999998L1125,576.5999999999999C945,576.5999999999999 945,591.6000000000005 765,591.6000000000005Z" style="stroke: rgb(68, 68, 68); stroke-opacity: 1; fill: rgb(99, 110, 250); fill-opacity: 0.6; stroke-width: 0; opacity: 1;"/><path class="sankey-link" d="M765,355.2000000000004C945,355.2000000000004 945,310.1999999999998 1125,310.1999999999998L1125,328.1999999999998C945,328.1999999999998 945,373.2000000000004 765,373.2000000000004Z" style="stroke: rgb(68, 68, 68); stroke-opacity: 1; fill: rgb(99, 110, 250); fill-opacity: 0.6; stroke-width: 0; opacity: 1;"/><path class="sankey-link" d="M765,441.6000000000004C945,441.6000000000004 945,411.59999999999985 1125,411.59999999999985L1125,418.7999999999999C945,418.7999999999999 945,448.80000000000047 765,448.80000000000047Z" style="stroke: rgb(68, 68, 68); stroke-opacity: 1; fill: rgb(99, 110, 250); fill-opacity: 0.6; stroke-width: 0; opacity: 1;"/><path class="sankey-link" d="M765,682.2C945,682.2 945,682.1999999999998 1125,682.1999999999998L1125,685.7999999999997C945,685.7999999999997 945,685.8 765,685.8Z" style="stroke: rgb(68, 68, 68); stroke-opacity: 1; fill: rgb(99, 110, 250); fill-opacity: 0.6; stroke-width: 0; opacity: 1;"/><path class="sankey-link" d="M765,639.0000000000002C945,639.0000000000002 945,623.9999999999998 1125,623.9999999999998L1125,629.3999999999999C945,629.3999999999999 945,644.4000000000003 765,644.4000000000003Z" style="stroke: rgb(68, 68, 68); stroke-opacity: 1; fill: rgb(99, 110, 250); fill-opacity: 0.6; stroke-width: 0; opacity: 1;"/><path class="sankey-link" d="M765,262.8000000000003C945,262.8000000000003 945,217.79999999999998 1125,217.79999999999998L1125,224.99999999999997C945,224.99999999999997 945,270.00000000000034 765,270.00000000000034Z" style="stroke: rgb(68, 68, 68); stroke-opacity: 1; fill: rgb(239, 85, 59); fill-opacity: 0.6; stroke-width: 0; opacity: 1;"/><path class="sankey-link" d="M765,174.60000000000022C945,174.60000000000022 945,114.59999999999992 1125,114.59999999999992L1125,134.39999999999992C945,134.39999999999992 945,194.40000000000023 765,194.40000000000023Z" style="stroke: rgb(68, 68, 68); stroke-opacity: 1; fill: rgb(239, 85, 59); fill-opacity: 0.6; stroke-width: 0; opacity: 1;"/><path class="sankey-link" d="M765,544.8000000000004C945,544.8000000000004 945,514.7999999999997 1125,514.7999999999997L1125,518.3999999999996C945,518.3999999999996 945,548.4000000000003 765,548.4000000000003Z" style="stroke: rgb(68, 68, 68); stroke-opacity: 1; fill: rgb(239, 85, 59); fill-opacity: 0.6; stroke-width: 0; opacity: 1;"/><path class="sankey-link" d="M765,591.6000000000004C945,591.6000000000004 945,576.5999999999998 1125,576.5999999999998L1125,581.9999999999999C945,581.9999999999999 945,597.0000000000005 765,597.0000000000005Z" style="stroke: rgb(68, 68, 68); stroke-opacity: 1; fill: rgb(239, 85, 59); fill-opacity: 0.6; stroke-width: 0; opacity: 1;"/><path class="sankey-link" d="M765,373.2000000000004C945,373.2000000000004 945,328.1999999999998 1125,328.1999999999998L1125,340.79999999999984C945,340.79999999999984 945,385.8000000000004 765,385.8000000000004Z" style="stroke: rgb(68, 68, 68); stroke-opacity: 1; fill: rgb(239, 85, 59); fill-opacity: 0.6; stroke-width: 0; opacity: 1;"/><path class="sankey-link" d="M765,448.8000000000004C945,448.8000000000004 945,418.79999999999984 1125,418.79999999999984L1125,425.9999999999999C945,425.9999999999999 945,456.00000000000045 765,456.00000000000045Z" style="stroke: rgb(68, 68, 68); stroke-opacity: 1; fill: rgb(239, 85, 59); fill-opacity: 0.6; stroke-width: 0; opacity: 1;"/><path class="sankey-link" d="M765,685.8000000000001C945,685.8000000000001 945,685.7999999999998 1125,685.7999999999998L1125,687.5999999999998C945,687.5999999999998 945,687.6 765,687.6Z" style="stroke: rgb(68, 68, 68); stroke-opacity: 1; fill: rgb(239, 85, 59); fill-opacity: 0.6; stroke-width: 0; opacity: 1;"/><path class="sankey-link" d="M765,644.4000000000002C945,644.4000000000002 945,629.3999999999997 1125,629.3999999999997L1125,631.1999999999997C945,631.1999999999997 945,646.2000000000002 765,646.2000000000002Z" style="stroke: rgb(68, 68, 68); stroke-opacity: 1; fill: rgb(239, 85, 59); fill-opacity: 0.6; stroke-width: 0; opacity: 1;"/><path class="sankey-link" d="M765,270.0000000000003C945,270.0000000000003 945,224.99999999999997 1125,224.99999999999997L1125,233.99999999999997C945,233.99999999999997 945,279.0000000000003 765,279.0000000000003Z" style="stroke: rgb(68, 68, 68); stroke-opacity: 1; fill: rgb(254, 203, 82); fill-opacity: 0.6; stroke-width: 0; opacity: 1;"/><path class="sankey-link" d="M765,194.40000000000023C945,194.40000000000023 945,134.39999999999992 1125,134.39999999999992L1125,136.19999999999993C945,136.19999999999993 945,196.20000000000024 765,196.20000000000024Z" style="stroke: rgb(68, 68, 68); stroke-opacity: 1; fill: rgb(254, 203, 82); fill-opacity: 0.6; stroke-width: 0; opacity: 1;"/><path class="sankey-link" d="M765,548.4000000000004C945,548.4000000000004 945,518.3999999999997 1125,518.3999999999997L1125,521.9999999999997C945,521.9999999999997 945,552.0000000000003 765,552.0000000000003Z" style="stroke: rgb(68, 68, 68); stroke-opacity: 1; fill: rgb(254, 203, 82); fill-opacity: 0.6; stroke-width: 0; opacity: 1;"/><path class="sankey-link" d="M765,597.0000000000003C945,597.0000000000003 945,581.9999999999998 1125,581.9999999999998L1125,583.7999999999997C945,583.7999999999997 945,598.8000000000003 765,598.8000000000003Z" style="stroke: rgb(68, 68, 68); stroke-opacity: 1; fill: rgb(254, 203, 82); fill-opacity: 0.6; stroke-width: 0; opacity: 1;"/><path class="sankey-link" d="M765,385.8000000000004C945,385.8000000000004 945,340.79999999999984 1125,340.79999999999984L1125,346.1999999999998C945,346.1999999999998 945,391.2000000000004 765,391.2000000000004Z" style="stroke: rgb(68, 68, 68); stroke-opacity: 1; fill: rgb(254, 203, 82); fill-opacity: 0.6; stroke-width: 0; opacity: 1;"/><path class="sankey-link" d="M765,687.6C945,687.6 945,687.5999999999998 1125,687.5999999999998L1125,691.1999999999997C945,691.1999999999997 945,691.1999999999999 765,691.1999999999999Z" style="stroke: rgb(68, 68, 68); stroke-opacity: 1; fill: rgb(254, 203, 82); fill-opacity: 0.6; stroke-width: 0; opacity: 1;"/><path class="sankey-link" d="M765,646.2000000000002C945,646.2000000000002 945,631.1999999999997 1125,631.1999999999997L1125,636.5999999999998C945,636.5999999999998 945,651.6000000000003 765,651.6000000000003Z" style="stroke: rgb(68, 68, 68); stroke-opacity: 1; fill: rgb(254, 203, 82); fill-opacity: 0.6; stroke-width: 0; opacity: 1;"/><path class="sankey-link" d="M765,279.0000000000003C945,279.0000000000003 945,233.99999999999997 1125,233.99999999999997L1125,242.99999999999997C945,242.99999999999997 945,288.0000000000003 765,288.0000000000003Z" style="stroke: rgb(68, 68, 68); stroke-opacity: 1; fill: rgb(171, 99, 250); fill-opacity: 0.6; stroke-width: 0; opacity: 1;"/><path class="sankey-link" d="M765,196.20000000000024C945,196.20000000000024 945,136.19999999999993 1125,136.19999999999993L1125,145.19999999999993C945,145.19999999999993 945,205.20000000000024 765,205.20000000000024Z" style="stroke: rgb(68, 68, 68); stroke-opacity: 1; fill: rgb(171, 99, 250); fill-opacity: 0.6; stroke-width: 0; opacity: 1;"/><path class="sankey-link" d="M765,552.0000000000005C945,552.0000000000005 945,521.9999999999998 1125,521.9999999999998L1125,523.7999999999997C945,523.7999999999997 945,553.8000000000004 765,553.8000000000004Z" style="stroke: rgb(68, 68, 68); stroke-opacity: 1; fill: rgb(171, 99, 250); fill-opacity: 0.6; stroke-width: 0; opacity: 1;"/><path class="sankey-link" d="M765,598.8000000000003C945,598.8000000000003 945,583.7999999999997 1125,583.7999999999997L1125,587.3999999999996C945,587.3999999999996 945,602.4000000000002 765,602.4000000000002Z" style="stroke: rgb(68, 68, 68); stroke-opacity: 1; fill: rgb(171, 99, 250); fill-opacity: 0.6; stroke-width: 0; opacity: 1;"/><path class="sankey-link" d="M765,391.2000000000004C945,391.2000000000004 945,346.1999999999998 1125,346.1999999999998L1125,355.1999999999998C945,355.1999999999998 945,400.2000000000004 765,400.2000000000004Z" style="stroke: rgb(68, 68, 68); stroke-opacity: 1; fill: rgb(171, 99, 250); fill-opacity: 0.6; stroke-width: 0; opacity: 1;"/><path class="sankey-link" d="M765,456.0000000000004C945,456.0000000000004 945,425.99999999999983 1125,425.99999999999983L1125,429.59999999999985C945,429.59999999999985 945,459.6000000000004 765,459.6000000000004Z" style="stroke: rgb(68, 68, 68); stroke-opacity: 1; fill: rgb(171, 99, 250); fill-opacity: 0.6; stroke-width: 0; opacity: 1;"/><path class="sankey-link" d="M765,691.2C945,691.2 945,691.1999999999998 1125,691.1999999999998L1125,696.5999999999999C945,696.5999999999999 945,696.6000000000001 765,696.6000000000001Z" style="stroke: rgb(68, 68, 68); stroke-opacity: 1; fill: rgb(171, 99, 250); fill-opacity: 0.6; stroke-width: 0; opacity: 1;"/><path class="sankey-link" d="M765,651.6000000000001C945,651.6000000000001 945,636.5999999999997 1125,636.5999999999997L1125,638.3999999999996C945,638.3999999999996 945,653.4000000000001 765,653.4000000000001Z" style="stroke: rgb(68, 68, 68); stroke-opacity: 1; fill: rgb(171, 99, 250); fill-opacity: 0.6; stroke-width: 0; opacity: 1;"/><path class="sankey-link" d="M765,288.0000000000003C945,288.0000000000003 945,242.99999999999997 1125,242.99999999999997L1125,259.2C945,259.2 945,304.20000000000033 765,304.20000000000033Z" style="stroke: rgb(68, 68, 68); stroke-opacity: 1; fill: rgb(0, 204, 150); fill-opacity: 0.6; stroke-width: 0; opacity: 1;"/><path class="sankey-link" d="M765,205.20000000000024C945,205.20000000000024 945,145.19999999999993 1125,145.19999999999993L1125,159.5999999999999C945,159.5999999999999 945,219.60000000000022 765,219.60000000000022Z" style="stroke: rgb(68, 68, 68); stroke-opacity: 1; fill: rgb(0, 204, 150); fill-opacity: 0.6; stroke-width: 0; opacity: 1;"/><path class="sankey-link" d="M765,553.8000000000004C945,553.8000000000004 945,523.7999999999997 1125,523.7999999999997L1125,529.1999999999998C945,529.1999999999998 945,559.2000000000005 765,559.2000000000005Z" style="stroke: rgb(68, 68, 68); stroke-opacity: 1; fill: rgb(0, 204, 150); fill-opacity: 0.6; stroke-width: 0; opacity: 1;"/><path class="sankey-link" d="M765,602.4000000000003C945,602.4000000000003 945,587.3999999999997 1125,587.3999999999997L1125,589.1999999999997C945,589.1999999999997 945,604.2000000000003 765,604.2000000000003Z" style="stroke: rgb(68, 68, 68); stroke-opacity: 1; fill: rgb(0, 204, 150); fill-opacity: 0.6; stroke-width: 0; opacity: 1;"/><path class="sankey-link" d="M765,400.2000000000004C945,400.2000000000004 945,355.1999999999998 1125,355.1999999999998L1125,374.9999999999998C945,374.9999999999998 945,420.00000000000034 765,420.00000000000034Z" style="stroke: rgb(68, 68, 68); stroke-opacity: 1; fill: rgb(0, 204, 150); fill-opacity: 0.6; stroke-width: 0; opacity: 1;"/><path class="sankey-link" d="M765,459.6000000000004C945,459.6000000000004 945,429.59999999999985 1125,429.59999999999985L1125,447.59999999999985C945,447.59999999999985 945,477.6000000000004 765,477.6000000000004Z" style="stroke: rgb(68, 68, 68); stroke-opacity: 1; fill: rgb(0, 204, 150); fill-opacity: 0.6; stroke-width: 0; opacity: 1;"/><path class="sankey-link" d="M765,696.6C945,696.6 945,696.5999999999998 1125,696.5999999999998L1125,703.7999999999998C945,703.7999999999998 945,703.8000000000001 765,703.8000000000001Z" style="stroke: rgb(68, 68, 68); stroke-opacity: 1; fill: rgb(0, 204, 150); fill-opacity: 0.6; stroke-width: 0; opacity: 1;"/><path class="sankey-link" d="M765,653.4000000000001C945,653.4000000000001 945,638.3999999999996 1125,638.3999999999996L1125,640.1999999999996C945,640.1999999999996 945,655.2 765,655.2Z" style="stroke: rgb(68, 68, 68); stroke-opacity: 1; fill: rgb(0, 204, 150); fill-opacity: 0.6; stroke-width: 0; opacity: 1;"/><path class="sankey-link" d="M765,304.2000000000003C945,304.2000000000003 945,259.2 1125,259.2L1125,278.99999999999994C945,278.99999999999994 945,324.0000000000002 765,324.0000000000002Z" style="stroke: rgb(68, 68, 68); stroke-opacity: 1; fill: rgb(255, 161, 90); fill-opacity: 0.6; stroke-width: 0; opacity: 1;"/><path class="sankey-link" d="M765,219.60000000000025C945,219.60000000000025 945,159.59999999999994 1125,159.59999999999994L1125,179.39999999999995C945,179.39999999999995 945,239.40000000000026 765,239.40000000000026Z" style="stroke: rgb(68, 68, 68); stroke-opacity: 1; fill: rgb(255, 161, 90); fill-opacity: 0.6; stroke-width: 0; opacity: 1;"/><path class="sankey-link" d="M765,559.2000000000004C945,559.2000000000004 945,529.1999999999997 1125,529.1999999999997L1125,547.1999999999997C945,547.1999999999997 945,577.2000000000004 765,577.2000000000004Z" style="stroke: rgb(68, 68, 68); stroke-opacity: 1; fill: rgb(255, 161, 90); fill-opacity: 0.6; stroke-width: 0; opacity: 1;"/><path class="sankey-link" d="M765,604.2000000000003C945,604.2000000000003 945,589.1999999999997 1125,589.1999999999997L1125,598.1999999999997C945,598.1999999999997 945,613.2000000000003 765,613.2000000000003Z" style="stroke: rgb(68, 68, 68); stroke-opacity: 1; fill: rgb(255, 161, 90); fill-opacity: 0.6; stroke-width: 0; opacity: 1;"/><path class="sankey-link" d="M765,420.0000000000004C945,420.0000000000004 945,374.99999999999983 1125,374.99999999999983L1125,387.59999999999985C945,387.59999999999985 945,432.6000000000004 765,432.6000000000004Z" style="stroke: rgb(68, 68, 68); stroke-opacity: 1; fill: rgb(255, 161, 90); fill-opacity: 0.6; stroke-width: 0; opacity: 1;"/><path class="sankey-link" d="M765,477.6000000000004C945,477.6000000000004 945,447.59999999999985 1125,447.59999999999985L1125,474.59999999999985C945,474.59999999999985 945,504.6000000000004 765,504.6000000000004Z" style="stroke: rgb(68, 68, 68); stroke-opacity: 1; fill: rgb(255, 161, 90); fill-opacity: 0.6; stroke-width: 0; opacity: 1;"/><path class="sankey-link" d="M765,703.8000000000001C945,703.8000000000001 945,703.7999999999998 1125,703.7999999999998L1125,714.5999999999998C945,714.5999999999998 945,714.6 765,714.6Z" style="stroke: rgb(68, 68, 68); stroke-opacity: 1; fill: rgb(255, 161, 90); fill-opacity: 0.6; stroke-width: 0; opacity: 1;"/><path class="sankey-link" d="M765,655.2C945,655.2 945,640.1999999999996 1125,640.1999999999996L1125,661.7999999999995C945,661.7999999999995 945,676.8 765,676.8Z" style="stroke: rgb(68, 68, 68); stroke-opacity: 1; fill: rgb(255, 161, 90); fill-opacity: 0.6; stroke-width: 0; opacity: 1;"/><path class="sankey-link" d="M765,324.0000000000003C945,324.0000000000003 945,279 1125,279L1125,284.4C945,284.4 945,329.40000000000026 765,329.40000000000026Z" style="stroke: rgb(68, 68, 68); stroke-opacity: 1; fill: rgb(255, 151, 255); fill-opacity: 0.6; stroke-width: 0; opacity: 1;"/><path class="sankey-link" d="M765,239.40000000000026C945,239.40000000000026 945,179.39999999999995 1125,179.39999999999995L1125,186.59999999999994C945,186.59999999999994 945,246.60000000000025 765,246.60000000000025Z" style="stroke: rgb(68, 68, 68); stroke-opacity: 1; fill: rgb(255, 151, 255); fill-opacity: 0.6; stroke-width: 0; opacity: 1;"/><path class="sankey-link" d="M765,577.2000000000004C945,577.2000000000004 945,547.1999999999997 1125,547.1999999999997L1125,552.5999999999998C945,552.5999999999998 945,582.6000000000005 765,582.6000000000005Z" style="stroke: rgb(68, 68, 68); stroke-opacity: 1; fill: rgb(255, 151, 255); fill-opacity: 0.6; stroke-width: 0; opacity: 1;"/><path class="sankey-link" d="M765,613.2000000000003C945,613.2000000000003 945,598.1999999999997 1125,598.1999999999997L1125,603.5999999999998C945,603.5999999999998 945,618.6000000000004 765,618.6000000000004Z" style="stroke: rgb(68, 68, 68); stroke-opacity: 1; fill: rgb(255, 151, 255); fill-opacity: 0.6; stroke-width: 0; opacity: 1;"/><path class="sankey-link" d="M765,432.6000000000004C945,432.6000000000004 945,387.59999999999985 1125,387.59999999999985L1125,392.99999999999983C945,392.99999999999983 945,438.0000000000004 765,438.0000000000004Z" style="stroke: rgb(68, 68, 68); stroke-opacity: 1; fill: rgb(255, 151, 255); fill-opacity: 0.6; stroke-width: 0; opacity: 1;"/><path class="sankey-link" d="M765,504.6000000000004C945,504.6000000000004 945,474.59999999999985 1125,474.59999999999985L1125,479.99999999999983C945,479.99999999999983 945,510.0000000000004 765,510.0000000000004Z" style="stroke: rgb(68, 68, 68); stroke-opacity: 1; fill: rgb(255, 151, 255); fill-opacity: 0.6; stroke-width: 0; opacity: 1;"/><path class="sankey-link" d="M765,714.6C945,714.6 945,714.5999999999998 1125,714.5999999999998L1125,718.1999999999997C945,718.1999999999997 945,718.1999999999999 765,718.1999999999999Z" style="stroke: rgb(68, 68, 68); stroke-opacity: 1; fill: rgb(255, 151, 255); fill-opacity: 0.6; stroke-width: 0; opacity: 1;"/><path class="sankey-link" d="M765,246.60000000000025C945,246.60000000000025 945,186.59999999999994 1125,186.59999999999994L1125,188.39999999999995C945,188.39999999999995 945,248.40000000000026 765,248.40000000000026Z" style="stroke: rgb(68, 68, 68); stroke-opacity: 1; fill: rgb(255, 102, 146); fill-opacity: 0.6; stroke-width: 0; opacity: 1;"/><path class="sankey-link" d="M765,582.6000000000004C945,582.6000000000004 945,552.5999999999997 1125,552.5999999999997L1125,556.1999999999996C945,556.1999999999996 945,586.2000000000003 765,586.2000000000003Z" style="stroke: rgb(68, 68, 68); stroke-opacity: 1; fill: rgb(255, 102, 146); fill-opacity: 0.6; stroke-width: 0; opacity: 1;"/><path class="sankey-link" d="M765,618.6000000000003C945,618.6000000000003 945,603.5999999999997 1125,603.5999999999997L1125,607.1999999999996C945,607.1999999999996 945,622.2000000000002 765,622.2000000000002Z" style="stroke: rgb(68, 68, 68); stroke-opacity: 1; fill: rgb(255, 102, 146); fill-opacity: 0.6; stroke-width: 0; opacity: 1;"/><path class="sankey-link" d="M765,438.0000000000004C945,438.0000000000004 945,392.99999999999983 1125,392.99999999999983L1125,394.7999999999998C945,394.7999999999998 945,439.80000000000035 765,439.80000000000035Z" style="stroke: rgb(68, 68, 68); stroke-opacity: 1; fill: rgb(255, 102, 146); fill-opacity: 0.6; stroke-width: 0; opacity: 1;"/><path class="sankey-link" d="M765,510.0000000000004C945,510.0000000000004 945,479.99999999999983 1125,479.99999999999983L1125,485.3999999999998C945,485.3999999999998 945,515.4000000000004 765,515.4000000000004Z" style="stroke: rgb(68, 68, 68); stroke-opacity: 1; fill: rgb(255, 102, 146); fill-opacity: 0.6; stroke-width: 0; opacity: 1;"/><path class="sankey-link" d="M765,718.2C945,718.2 945,718.1999999999998 1125,718.1999999999998L1125,719.9999999999998C945,719.9999999999998 945,720 765,720Z" style="stroke: rgb(68, 68, 68); stroke-opacity: 1; fill: rgb(255, 102, 146); fill-opacity: 0.6; stroke-width: 0; opacity: 1;"/><path class="sankey-link" d="M765,676.8000000000001C945,676.8000000000001 945,661.7999999999996 1125,661.7999999999996L1125,665.3999999999995C945,665.3999999999995 945,680.4 765,680.4Z" style="stroke: rgb(68, 68, 68); stroke-opacity: 1; fill: rgb(255, 102, 146); fill-opacity: 0.6; stroke-width: 0; opacity: 1;"/><path class="sankey-link" d="M765,329.40000000000026C945,329.40000000000026 945,284.4 1125,284.4L1125,286.19999999999993C945,286.19999999999993 945,331.2000000000002 765,331.2000000000002Z" style="stroke: rgb(68, 68, 68); stroke-opacity: 1; fill: rgb(182, 232, 128); fill-opacity: 0.6; stroke-width: 0; opacity: 1;"/><path class="sankey-link" d="M765,515.4000000000004C945,515.4000000000004 945,485.3999999999998 1125,485.3999999999998L1125,488.99999999999983C945,488.99999999999983 945,519.0000000000003 765,519.0000000000003Z" style="stroke: rgb(68, 68, 68); stroke-opacity: 1; fill: rgb(182, 232, 128); fill-opacity: 0.6; stroke-width: 0; opacity: 1;"/></g><g class="sankey-node-set" style="cursor: move;"><g class="sankey-node" transform="translate(0.000,615.000)" style="opacity: 1;"><rect class="node-rect" width="15" height="30.600000000000023" style="stroke-width: 0.5; stroke: rgb(0, 0, 0); stroke-opacity: 1; fill: rgb(128, 128, 128); fill-opacity: 1;"/><text class="node-label" data-notex="1" x="0" y="0" text-anchor="start" transform="translate(18.25,19.50000000000001)" style="cursor: default; font-family: 'Open Sans', verdana, arial, sans-serif; font-size: 12px; fill: rgb(42, 63, 95); fill-opacity: 1; white-space: pre; text-shadow: white 1px 1px 1px, white -1px -1px 1px, white 1px -1px 1px, white -1px 1px 1px;">21271R</text></g><g class="sankey-node" transform="translate(0.000,80.400)" style="opacity: 1;"><rect class="node-rect" width="15" height="226.79999999999995" style="stroke-width: 0.5; stroke: rgb(0, 0, 0); stroke-opacity: 1; fill: rgb(128, 128, 128); fill-opacity: 1;"/><text class="node-label" data-notex="1" x="0" y="0" text-anchor="start" transform="translate(18.25,117.59999999999998)" style="cursor: default; font-family: 'Open Sans', verdana, arial, sans-serif; font-size: 12px; fill: rgb(42, 63, 95); fill-opacity: 1; white-space: pre; text-shadow: white 1px 1px 1px, white -1px -1px 1px, white 1px -1px 1px, white -1px 1px 1px;">21272R</text></g><g class="sankey-node" transform="translate(0.000,660.600)" style="opacity: 1;"><rect class="node-rect" width="15" height="59.39999999999998" style="stroke-width: 0.5; stroke: rgb(0, 0, 0); stroke-opacity: 1; fill: rgb(128, 128, 128); fill-opacity: 1;"/><text class="node-label" data-notex="1" x="0" y="0" text-anchor="start" transform="translate(18.25,33.89999999999999)" style="cursor: default; font-family: 'Open Sans', verdana, arial, sans-serif; font-size: 12px; fill: rgb(42, 63, 95); fill-opacity: 1; white-space: pre; text-shadow: white 1px 1px 1px, white -1px -1px 1px, white 1px -1px 1px, white -1px 1px 1px;">21965RL</text></g><g class="sankey-node" transform="translate(0.000,322.200)" style="opacity: 1;"><rect class="node-rect" width="15" height="131.3999999999994" style="stroke-width: 0.5; stroke: rgb(0, 0, 0); stroke-opacity: 1; fill: rgb(128, 128, 128); fill-opacity: 1;"/><text class="node-label" data-notex="1" x="0" y="0" text-anchor="start" transform="translate(18.25,69.89999999999971)" style="cursor: default; font-family: 'Open Sans', verdana, arial, sans-serif; font-size: 12px; fill: rgb(42, 63, 95); fill-opacity: 1; white-space: pre; text-shadow: white 1px 1px 1px, white -1px -1px 1px, white 1px -1px 1px, white -1px 1px 1px;">22384</text></g><g class="sankey-node" transform="translate(0.000,468.600)" style="opacity: 1;"><rect class="node-rect" width="15" height="131.3999999999994" style="stroke-width: 0.5; stroke: rgb(0, 0, 0); stroke-opacity: 1; fill: rgb(128, 128, 128); fill-opacity: 1;"/><text class="node-label" data-notex="1" x="0" y="0" text-anchor="start" transform="translate(18.25,69.89999999999971)" style="cursor: default; font-family: 'Open Sans', verdana, arial, sans-serif; font-size: 12px; fill: rgb(42, 63, 95); fill-opacity: 1; white-space: pre; text-shadow: white 1px 1px 1px, white -1px -1px 1px, white 1px -1px 1px, white -1px 1px 1px;">22670</text></g><g class="sankey-node" transform="translate(750.000,151.200)" style="opacity: 1;"><rect class="node-rect" width="15" height="180.00000000000017" style="stroke-width: 0.5; stroke: rgb(0, 0, 0); stroke-opacity: 1; fill: rgb(128, 128, 128); fill-opacity: 1;"/><text class="node-label" data-notex="1" x="0" y="0" text-anchor="start" transform="translate(18.25,94.20000000000009)" style="cursor: default; font-family: 'Open Sans', verdana, arial, sans-serif; font-size: 12px; fill: rgb(42, 63, 95); fill-opacity: 1; white-space: pre; text-shadow: white 1px 1px 1px, white -1px -1px 1px, white 1px -1px 1px, white -1px 1px 1px;">dig</text></g><g class="sankey-node" transform="translate(750.000,346.200)" style="opacity: 1;"><rect class="node-rect" width="15" height="172.80000000000007" style="stroke-width: 0.5; stroke: rgb(0, 0, 0); stroke-opacity: 1; fill: rgb(128, 128, 128); fill-opacity: 1;"/><text class="node-label" data-notex="1" x="0" y="0" text-anchor="start" transform="translate(18.25,90.60000000000004)" style="cursor: default; font-family: 'Open Sans', verdana, arial, sans-serif; font-size: 12px; fill: rgb(42, 63, 95); fill-opacity: 1; white-space: pre; text-shadow: white 1px 1px 1px, white -1px -1px 1px, white 1px -1px 1px, white -1px 1px 1px;">move</text></g><g class="sankey-node" transform="translate(750.000,534.000)" style="opacity: 1;"><rect class="node-rect" width="15" height="88.19999999999982" style="stroke-width: 0.5; stroke: rgb(0, 0, 0); stroke-opacity: 1; fill: rgb(128, 128, 128); fill-opacity: 1;"/><text class="node-label" data-notex="1" x="0" y="0" text-anchor="start" transform="translate(18.25,48.29999999999991)" style="cursor: default; font-family: 'Open Sans', verdana, arial, sans-serif; font-size: 12px; fill: rgb(42, 63, 95); fill-opacity: 1; white-space: pre; text-shadow: white 1px 1px 1px, white -1px -1px 1px, white 1px -1px 1px, white -1px 1px 1px;">groom</text></g><g class="sankey-node" transform="translate(750.000,637.200)" style="opacity: 1;"><rect class="node-rect" width="15" height="82.79999999999973" style="stroke-width: 0.5; stroke: rgb(0, 0, 0); stroke-opacity: 1; fill: rgb(128, 128, 128); fill-opacity: 1;"/><text class="node-label" data-notex="1" x="0" y="0" text-anchor="start" transform="translate(18.25,45.599999999999866)" style="cursor: default; font-family: 'Open Sans', verdana, arial, sans-serif; font-size: 12px; fill: rgb(42, 63, 95); fill-opacity: 1; white-space: pre; text-shadow: white 1px 1px 1px, white -1px -1px 1px, white 1px -1px 1px, white -1px 1px 1px;">still</text></g><g class="sankey-node" transform="translate(1125.000,203.400)" style="opacity: 1;"><rect class="node-rect" width="15" height="82.79999999999984" style="stroke-width: 0.5; stroke: rgb(0, 0, 0); stroke-opacity: 1; fill: rgb(128, 128, 128); fill-opacity: 1;"/><text class="node-label" data-notex="1" x="0" y="0" text-anchor="end" transform="translate(-3.25,45.59999999999992)" style="cursor: default; font-family: 'Open Sans', verdana, arial, sans-serif; font-size: 12px; fill: rgb(42, 63, 95); fill-opacity: 1; white-space: pre; text-shadow: white 1px 1px 1px, white -1px -1px 1px, white 1px -1px 1px, white -1px 1px 1px;">dig-activated</text></g><g class="sankey-node" transform="translate(1125.000,301.200)" style="opacity: 1;"><rect class="node-rect" width="15" height="93.60000000000002" style="stroke-width: 0.5; stroke: rgb(0, 0, 0); stroke-opacity: 1; fill: rgb(128, 128, 128); fill-opacity: 1;"/><text class="node-label" data-notex="1" x="0" y="0" text-anchor="end" transform="translate(-3.25,51.000000000000014)" style="cursor: default; font-family: 'Open Sans', verdana, arial, sans-serif; font-size: 12px; fill: rgb(42, 63, 95); fill-opacity: 1; white-space: pre; text-shadow: white 1px 1px 1px, white -1px -1px 1px, white 1px -1px 1px, white -1px 1px 1px;">move-activated</text></g><g class="sankey-node" transform="translate(1125.000,91.200)" style="opacity: 1;"><rect class="node-rect" width="15" height="97.20000000000005" style="stroke-width: 0.5; stroke: rgb(0, 0, 0); stroke-opacity: 1; fill: rgb(128, 128, 128); fill-opacity: 1;"/><text class="node-label" data-notex="1" x="0" y="0" text-anchor="end" transform="translate(-3.25,52.800000000000026)" style="cursor: default; font-family: 'Open Sans', verdana, arial, sans-serif; font-size: 12px; fill: rgb(42, 63, 95); fill-opacity: 1; white-space: pre; text-shadow: white 1px 1px 1px, white -1px -1px 1px, white 1px -1px 1px, white -1px 1px 1px;">dig-suppressed</text></g><g class="sankey-node" transform="translate(1125.000,409.800)" style="opacity: 1;"><rect class="node-rect" width="15" height="79.19999999999993" style="stroke-width: 0.5; stroke: rgb(0, 0, 0); stroke-opacity: 1; fill: rgb(128, 128, 128); fill-opacity: 1;"/><text class="node-label" data-notex="1" x="0" y="0" text-anchor="end" transform="translate(-3.25,43.79999999999997)" style="cursor: default; font-family: 'Open Sans', verdana, arial, sans-serif; font-size: 12px; fill: rgb(42, 63, 95); fill-opacity: 1; white-space: pre; text-shadow: white 1px 1px 1px, white -1px -1px 1px, white 1px -1px 1px, white -1px 1px 1px;">move-suppressed</text></g><g class="sankey-node" transform="translate(1125.000,504.000)" style="opacity: 1;"><rect class="node-rect" width="15" height="52.200000000000045" style="stroke-width: 0.5; stroke: rgb(0, 0, 0); stroke-opacity: 1; fill: rgb(128, 128, 128); fill-opacity: 1;"/><text class="node-label" data-notex="1" x="0" y="0" text-anchor="end" transform="translate(-3.25,30.300000000000022)" style="cursor: default; font-family: 'Open Sans', verdana, arial, sans-serif; font-size: 12px; fill: rgb(42, 63, 95); fill-opacity: 1; white-space: pre; text-shadow: white 1px 1px 1px, white -1px -1px 1px, white 1px -1px 1px, white -1px 1px 1px;">groom-activated</text></g><g class="sankey-node" transform="translate(1125.000,622.200)" style="opacity: 1;"><rect class="node-rect" width="15" height="43.200000000000045" style="stroke-width: 0.5; stroke: rgb(0, 0, 0); stroke-opacity: 1; fill: rgb(128, 128, 128); fill-opacity: 1;"/><text class="node-label" data-notex="1" x="0" y="0" text-anchor="end" transform="translate(-3.25,25.800000000000022)" style="cursor: default; font-family: 'Open Sans', verdana, arial, sans-serif; font-size: 12px; fill: rgb(42, 63, 95); fill-opacity: 1; white-space: pre; text-shadow: white 1px 1px 1px, white -1px -1px 1px, white 1px -1px 1px, white -1px 1px 1px;">still-suppressed</text></g><g class="sankey-node" transform="translate(1125.000,571.200)" style="opacity: 1;"><rect class="node-rect" width="15" height="36" style="stroke-width: 0.5; stroke: rgb(0, 0, 0); stroke-opacity: 1; fill: rgb(128, 128, 128); fill-opacity: 1;"/><text class="node-label" data-notex="1" x="0" y="0" text-anchor="end" transform="translate(-3.25,22.2)" style="cursor: default; font-family: 'Open Sans', verdana, arial, sans-serif; font-size: 12px; fill: rgb(42, 63, 95); fill-opacity: 1; white-space: pre; text-shadow: white 1px 1px 1px, white -1px -1px 1px, white 1px -1px 1px, white -1px 1px 1px;">groom-suppressed</text></g><g class="sankey-node" transform="translate(1125.000,680.400)" style="opacity: 1;"><rect class="node-rect" width="15" height="39.600000000000136" style="stroke-width: 0.5; stroke: rgb(0, 0, 0); stroke-opacity: 1; fill: rgb(128, 128, 128); fill-opacity: 1;"/><text class="node-label" data-notex="1" x="0" y="0" text-anchor="end" transform="translate(-3.25,24.000000000000068)" style="cursor: default; font-family: 'Open Sans', verdana, arial, sans-serif; font-size: 12px; fill: rgb(42, 63, 95); fill-opacity: 1; white-space: pre; text-shadow: white 1px 1px 1px, white -1px -1px 1px, white 1px -1px 1px, white -1px 1px 1px;">still-activated</text></g><g class="sankey-node" transform="translate(375.000,258.000)" style="opacity: 1;"><rect class="node-rect" width="15" height="93.60000000000025" style="stroke-width: 0.5; stroke: rgb(0, 0, 0); stroke-opacity: 1; fill: rgb(99, 110, 250); fill-opacity: 1;"/><text class="node-label" data-notex="1" x="0" y="0" text-anchor="start" transform="translate(18.25,51.00000000000013)" style="cursor: default; font-family: 'Open Sans', verdana, arial, sans-serif; font-size: 12px; fill: rgb(42, 63, 95); fill-opacity: 1; white-space: pre; text-shadow: white 1px 1px 1px, white -1px -1px 1px, white 1px -1px 1px, white -1px 1px 1px;">Cla</text></g><g class="sankey-node" transform="translate(375.000,69.600)" style="opacity: 1;"><rect class="node-rect" width="15" height="68.39999999999998" style="stroke-width: 0.5; stroke: rgb(0, 0, 0); stroke-opacity: 1; fill: rgb(239, 85, 59); fill-opacity: 1;"/><text class="node-label" data-notex="1" x="0" y="0" text-anchor="start" transform="translate(18.25,38.39999999999999)" style="cursor: default; font-family: 'Open Sans', verdana, arial, sans-serif; font-size: 12px; fill: rgb(42, 63, 95); fill-opacity: 1; white-space: pre; text-shadow: white 1px 1px 1px, white -1px -1px 1px, white 1px -1px 1px, white -1px 1px 1px;">LC</text></g><g class="sankey-node" transform="translate(375.000,153.000)" style="opacity: 1;"><rect class="node-rect" width="15" height="90.00000000000023" style="stroke-width: 0.5; stroke: rgb(0, 0, 0); stroke-opacity: 1; fill: rgb(0, 204, 150); fill-opacity: 1;"/><text class="node-label" data-notex="1" x="0" y="0" text-anchor="start" transform="translate(18.25,49.20000000000012)" style="cursor: default; font-family: 'Open Sans', verdana, arial, sans-serif; font-size: 12px; fill: rgb(42, 63, 95); fill-opacity: 1; white-space: pre; text-shadow: white 1px 1px 1px, white -1px -1px 1px, white 1px -1px 1px, white -1px 1px 1px;">Str</text></g><g class="sankey-node" transform="translate(375.000,433.800)" style="opacity: 1;"><rect class="node-rect" width="15" height="43.200000000000045" style="stroke-width: 0.5; stroke: rgb(0, 0, 0); stroke-opacity: 1; fill: rgb(171, 99, 250); fill-opacity: 1;"/><text class="node-label" data-notex="1" x="0" y="0" text-anchor="start" transform="translate(18.25,25.800000000000022)" style="cursor: default; font-family: 'Open Sans', verdana, arial, sans-serif; font-size: 12px; fill: rgb(42, 63, 95); fill-opacity: 1; white-space: pre; text-shadow: white 1px 1px 1px, white -1px -1px 1px, white 1px -1px 1px, white -1px 1px 1px;">NAc</text></g><g class="sankey-node" transform="translate(375.000,492.000)" style="opacity: 1;"><rect class="node-rect" width="15" height="140.40000000000043" style="stroke-width: 0.5; stroke: rgb(0, 0, 0); stroke-opacity: 1; fill: rgb(255, 161, 90); fill-opacity: 1;"/><text class="node-label" data-notex="1" x="0" y="0" text-anchor="start" transform="translate(18.25,74.40000000000022)" style="cursor: default; font-family: 'Open Sans', verdana, arial, sans-serif; font-size: 12px; fill: rgb(42, 63, 95); fill-opacity: 1; white-space: pre; text-shadow: white 1px 1px 1px, white -1px -1px 1px, white 1px -1px 1px, white -1px 1px 1px;">VTA</text></g><g class="sankey-node" transform="translate(375.000,22.200)" style="opacity: 1;"><rect class="node-rect" width="15" height="32.400000000000176" style="stroke-width: 0.5; stroke: rgb(0, 0, 0); stroke-opacity: 1; fill: rgb(25, 211, 243); fill-opacity: 1;"/><text class="node-label" data-notex="1" x="0" y="0" text-anchor="start" transform="translate(18.25,20.400000000000087)" style="cursor: default; font-family: 'Open Sans', verdana, arial, sans-serif; font-size: 12px; fill: rgb(42, 63, 95); fill-opacity: 1; white-space: pre; text-shadow: white 1px 1px 1px, white -1px -1px 1px, white 1px -1px 1px, white -1px 1px 1px;">BLA</text></g><g class="sankey-node" transform="translate(375.000,647.400)" style="opacity: 1;"><rect class="node-rect" width="15" height="27.000000000000114" style="stroke-width: 0.5; stroke: rgb(0, 0, 0); stroke-opacity: 1; fill: rgb(255, 102, 146); fill-opacity: 1;"/><text class="node-label" data-notex="1" x="0" y="0" text-anchor="start" transform="translate(18.25,17.700000000000056)" style="cursor: default; font-family: 'Open Sans', verdana, arial, sans-serif; font-size: 12px; fill: rgb(42, 63, 95); fill-opacity: 1; white-space: pre; text-shadow: white 1px 1px 1px, white -1px -1px 1px, white 1px -1px 1px, white -1px 1px 1px;">dPAG</text></g><g class="sankey-node" transform="translate(375.000,-0.000)" style="opacity: 1;"><rect class="node-rect" width="15" height="7.2000000000000455" style="stroke-width: 0.5; stroke: rgb(0, 0, 0); stroke-opacity: 1; fill: rgb(182, 232, 128); fill-opacity: 1;"/><text class="node-label" data-notex="1" x="0" y="0" text-anchor="start" transform="translate(18.25,7.800000000000022)" style="cursor: default; font-family: 'Open Sans', verdana, arial, sans-serif; font-size: 12px; fill: rgb(42, 63, 95); fill-opacity: 1; white-space: pre; text-shadow: white 1px 1px 1px, white -1px -1px 1px, white 1px -1px 1px, white -1px 1px 1px;">lHb</text></g><g class="sankey-node" transform="translate(375.000,366.600)" style="opacity: 1;"><rect class="node-rect" width="15" height="52.200000000000045" style="stroke-width: 0.5; stroke: rgb(0, 0, 0); stroke-opacity: 1; fill: rgb(255, 151, 255); fill-opacity: 1;"/><text class="node-label" data-notex="1" x="0" y="0" text-anchor="start" transform="translate(18.25,30.300000000000022)" style="cursor: default; font-family: 'Open Sans', verdana, arial, sans-serif; font-size: 12px; fill: rgb(42, 63, 95); fill-opacity: 1; white-space: pre; text-shadow: white 1px 1px 1px, white -1px -1px 1px, white 1px -1px 1px, white -1px 1px 1px;">cPFC</text></g><g class="sankey-node" transform="translate(375.000,689.400)" style="opacity: 1;"><rect class="node-rect" width="15" height="30.600000000000136" style="stroke-width: 0.5; stroke: rgb(0, 0, 0); stroke-opacity: 1; fill: rgb(254, 203, 82); fill-opacity: 1;"/><text class="node-label" data-notex="1" x="0" y="0" text-anchor="start" transform="translate(18.25,19.500000000000068)" style="cursor: default; font-family: 'Open Sans', verdana, arial, sans-serif; font-size: 12px; fill: rgb(42, 63, 95); fill-opacity: 1; white-space: pre; text-shadow: white 1px 1px 1px, white -1px -1px 1px, white 1px -1px 1px, white -1px 1px 1px;">LHyp</text></g></g></g><defs id="topdefs-b1cd07"><g class="clips"/></defs><g class="layer-above"><g class="imagelayer"/><g class="shapelayer"/></g><g class="infolayer"><g class="g-gtitle"/><g class="first-render"/></g></svg>