<svg class="main-svg" xmlns="http://www.w3.org/2000/svg" xmlns:xlink="http://www.w3.org/1999/xlink" width="1300" height="900" style="" viewBox="0 0 1300 900"><rect x="0" y="0" width="1300" height="900" style="fill: rgb(255, 255, 255); fill-opacity: 1;"/><defs id="defs-e39486"><g class="clips"/><g class="gradients"/><g class="patterns"/></defs><g class="bglayer"/><g class="layer-below"><g class="imagelayer"/><g class="shapelayer"/></g><g class="cartesianlayer"/><g class="polarlayer"/><g class="smithlayer"/><g class="ternarylayer"/><g class="geolayer"/><g class="funnelarealayer"/><g class="pielayer"/><g class="iciclelayer"/><g class="treemaplayer"/><g class="sunburstlayer"/><g class="glimages"/><g class="sankey" transform="translate(80,100)matrix(1 0 0 1 0 0)" style="box-sizing: content-box; position: absolute; left: 0px; shape-rendering: geometricprecision; pointer-events: none;"><g class="sankey-links" style="fill: none;"><path class="sankey-link" d="M15,573.4090909090909C195,573.4090909090909 195,403.2954545454544 375,403.2954545454544L375,420.56818181818164C195,420.56818181818164 195,590.6818181818181 15,590.6818181818181Z" style="stroke: rgb(68, 68, 68); stroke-opacity: 1; fill: rgb(99, 110, 250); fill-opacity: 0.6; stroke-width: 0; opacity: 1;"/><path class="sankey-link" d="M15,601.4772727272726C195,601.4772727272726 195,610.227272727273 375,610.227272727273L375,614.5454545454547C195,614.5454545454547 195,605.7954545454544 15,605.7954545454544Z" style="stroke: rgb(68, 68, 68); stroke-opacity: 1; fill: rgb(0, 204, 150); fill-opacity: 0.6; stroke-width: 0; opacity: 1;"/><path class="sankey-link" d="M15,605.7954545454545C195,605.7954545454545 195,670.4545454545455 375,670.4545454545455L375,681.25C195,681.25 195,616.590909090909 15,616.590909090909Z" style="stroke: rgb(68, 68, 68); stroke-opacity: 1; fill: rgb(255, 161, 90); fill-opacity: 0.6; stroke-width: 0; opacity: 1;"/><path class="sankey-link" d="M15,590.6818181818181C195,590.6818181818181 195,556.3636363636365 375,556.3636363636365L375,567.159090909091C195,567.159090909091 195,601.4772727272726 15,601.4772727272726Z" style="stroke: rgb(68, 68, 68); stroke-opacity: 1; fill: rgb(171, 99, 250); fill-opacity: 0.6; stroke-width: 0; opacity: 1;"/><path class="sankey-link" d="M15,571.25C195,571.25 195,196.25000000000017 375,196.25000000000017L375,198.4090909090911C195,198.4090909090911 195,573.409090909091 15,573.409090909091Z" style="stroke: rgb(68, 68, 68); stroke-opacity: 1; fill: rgb(239, 85, 59); fill-opacity: 0.6; stroke-width: 0; opacity: 1;"/><path class="sankey-link" d="M15,713.5227272727274C195,713.5227272727274 195,715.6818181818182 375,715.6818181818182L375,720C195,720 195,717.8409090909091 15,717.8409090909091Z" style="stroke: rgb(68, 68, 68); stroke-opacity: 1; fill: rgb(25, 211, 243); fill-opacity: 0.6; stroke-width: 0; opacity: 1;"/><path class="sankey-link" d="M15,687.6136363636364C195,687.6136363636364 195,431.3636363636362 375,431.3636363636362L375,433.5227272727271C195,433.5227272727271 195,689.7727272727274 15,689.7727272727274Z" style="stroke: rgb(68, 68, 68); stroke-opacity: 1; fill: rgb(99, 110, 250); fill-opacity: 0.6; stroke-width: 0; opacity: 1;"/><path class="sankey-link" d="M15,700.5681818181819C195,700.5681818181819 195,614.5454545454548 375,614.5454545454548L375,618.8636363636366C195,618.8636363636366 195,704.8863636363636 15,704.8863636363636Z" style="stroke: rgb(68, 68, 68); stroke-opacity: 1; fill: rgb(0, 204, 150); fill-opacity: 0.6; stroke-width: 0; opacity: 1;"/><path class="sankey-link" d="M15,704.8863636363637C195,704.8863636363637 195,685.5681818181819 375,685.5681818181819L375,694.2045454545456C195,694.2045454545456 195,713.5227272727275 15,713.5227272727275Z" style="stroke: rgb(68, 68, 68); stroke-opacity: 1; fill: rgb(255, 161, 90); fill-opacity: 0.6; stroke-width: 0; opacity: 1;"/><path class="sankey-link" d="M15,696.25C195,696.25 195,573.6363636363637 375,573.6363636363637L375,577.9545454545455C195,577.9545454545455 195,700.5681818181818 15,700.5681818181818Z" style="stroke: rgb(68, 68, 68); stroke-opacity: 1; fill: rgb(171, 99, 250); fill-opacity: 0.6; stroke-width: 0; opacity: 1;"/><path class="sankey-link" d="M15,685.4545454545455C195,685.4545454545455 195,200.56818181818198 375,200.56818181818198L375,202.72727272727292C195,202.72727272727292 195,687.6136363636365 15,687.6136363636365Z" style="stroke: rgb(68, 68, 68); stroke-opacity: 1; fill: rgb(239, 85, 59); fill-opacity: 0.6; stroke-width: 0; opacity: 1;"/><path class="sankey-link" d="M15,689.7727272727273C195,689.7727272727273 195,500.3409090909093 375,500.3409090909093L375,506.81818181818204C195,506.81818181818204 195,696.25 15,696.25Z" style="stroke: rgb(68, 68, 68); stroke-opacity: 1; fill: rgb(182, 232, 128); fill-opacity: 0.6; stroke-width: 0; opacity: 1;"/><path class="sankey-link" d="M15,717.8409090909092C570,717.8409090909092 570,717.840909090909 1125,717.840909090909L1125,720C570,720 570,720.0000000000002 15,720.0000000000002Z" style="stroke: rgb(68, 68, 68); stroke-opacity: 1; fill: rgb(255, 102, 146); fill-opacity: 0.6; stroke-width: 0; opacity: 1;"/><path class="sankey-link" d="M15,663.9772727272727C195,663.9772727272727 195,709.2045454545455 375,709.2045454545455L375,715.6818181818182C195,715.6818181818182 195,670.4545454545455 15,670.4545454545455Z" style="stroke: rgb(68, 68, 68); stroke-opacity: 1; fill: rgb(25, 211, 243); fill-opacity: 0.6; stroke-width: 0; opacity: 1;"/><path class="sankey-link" d="M15,633.75C195,633.75 195,420.56818181818164 375,420.56818181818164L375,431.36363636363615C195,431.36363636363615 195,644.5454545454545 15,644.5454545454545Z" style="stroke: rgb(68, 68, 68); stroke-opacity: 1; fill: rgb(99, 110, 250); fill-opacity: 0.6; stroke-width: 0; opacity: 1;"/><path class="sankey-link" d="M15,659.6590909090909C195,659.6590909090909 195,681.25 375,681.25L375,685.5681818181818C195,685.5681818181818 195,663.9772727272726 15,663.9772727272726Z" style="stroke: rgb(68, 68, 68); stroke-opacity: 1; fill: rgb(255, 161, 90); fill-opacity: 0.6; stroke-width: 0; opacity: 1;"/><path class="sankey-link" d="M15,646.7045454545454C195,646.7045454545454 195,567.159090909091 375,567.159090909091L375,573.6363636363637C195,573.6363636363637 195,653.1818181818181 15,653.1818181818181Z" style="stroke: rgb(68, 68, 68); stroke-opacity: 1; fill: rgb(171, 99, 250); fill-opacity: 0.6; stroke-width: 0; opacity: 1;"/><path class="sankey-link" d="M15,631.5909090909091C195,631.5909090909091 195,198.40909090909108 375,198.40909090909108L375,200.568181818182C195,200.568181818182 195,633.7500000000001 15,633.7500000000001Z" style="stroke: rgb(68, 68, 68); stroke-opacity: 1; fill: rgb(239, 85, 59); fill-opacity: 0.6; stroke-width: 0; opacity: 1;"/><path class="sankey-link" d="M15,644.5454545454545C195,644.5454545454545 195,498.18181818181836 375,498.18181818181836L375,500.34090909090924C195,500.34090909090924 195,646.7045454545455 15,646.7045454545455Z" style="stroke: rgb(68, 68, 68); stroke-opacity: 1; fill: rgb(182, 232, 128); fill-opacity: 0.6; stroke-width: 0; opacity: 1;"/><path class="sankey-link" d="M15,653.1818181818181C195,653.1818181818181 195,640.3409090909092 375,640.3409090909092L375,646.818181818182C195,646.818181818182 195,659.6590909090909 15,659.6590909090909Z" style="stroke: rgb(68, 68, 68); stroke-opacity: 1; fill: rgb(255, 151, 255); fill-opacity: 0.6; stroke-width: 0; opacity: 1;"/><path class="sankey-link" d="M15,286.4772727272727C195,286.4772727272727 195,347.15909090909076 375,347.15909090909076L375,375.22727272727263C195,375.22727272727263 195,314.54545454545456 15,314.54545454545456Z" style="stroke: rgb(68, 68, 68); stroke-opacity: 1; fill: rgb(99, 110, 250); fill-opacity: 0.6; stroke-width: 0; opacity: 1;"/><path class="sankey-link" d="M15,351.24999999999994C195,351.24999999999994 195,592.9545454545457 375,592.9545454545457L375,601.5909090909095C195,601.5909090909095 195,359.88636363636357 15,359.88636363636357Z" style="stroke: rgb(68, 68, 68); stroke-opacity: 1; fill: rgb(0, 204, 150); fill-opacity: 0.6; stroke-width: 0; opacity: 1;"/><path class="sankey-link" d="M15,269.20454545454544C195,269.20454545454544 195,291.1363636363635 375,291.1363636363635L375,308.40909090909076C195,308.40909090909076 195,286.4772727272727 15,286.4772727272727Z" style="stroke: rgb(68, 68, 68); stroke-opacity: 1; fill: rgb(254, 203, 82); fill-opacity: 0.6; stroke-width: 0; opacity: 1;"/><path class="sankey-link" d="M15,333.9772727272727C195,333.9772727272727 195,521.818181818182 375,521.818181818182L375,539.0909090909092C195,539.0909090909092 195,351.24999999999994 15,351.24999999999994Z" style="stroke: rgb(68, 68, 68); stroke-opacity: 1; fill: rgb(171, 99, 250); fill-opacity: 0.6; stroke-width: 0; opacity: 1;"/><path class="sankey-link" d="M15,184.99999999999997C195,184.99999999999997 195,25.68181818181835 375,25.68181818181835L375,109.8863636363638C195,109.8863636363638 195,269.20454545454544 15,269.20454545454544Z" style="stroke: rgb(68, 68, 68); stroke-opacity: 1; fill: rgb(239, 85, 59); fill-opacity: 0.6; stroke-width: 0; opacity: 1;"/><path class="sankey-link" d="M15,314.5454545454545C195,314.5454545454545 195,459.318181818182 375,459.318181818182L375,478.7500000000001C195,478.7500000000001 195,333.97727272727263 15,333.97727272727263Z" style="stroke: rgb(68, 68, 68); stroke-opacity: 1; fill: rgb(182, 232, 128); fill-opacity: 0.6; stroke-width: 0; opacity: 1;"/><path class="sankey-link" d="M15,359.88636363636357C195,359.88636363636357 195,636.0227272727275 375,636.0227272727275L375,638.1818181818185C195,638.1818181818185 195,362.04545454545445 15,362.04545454545445Z" style="stroke: rgb(68, 68, 68); stroke-opacity: 1; fill: rgb(255, 151, 255); fill-opacity: 0.6; stroke-width: 0; opacity: 1;"/><path class="sankey-link" d="M15,480.681818181818C195,480.681818181818 195,375.2272727272726 375,375.2272727272726L375,403.29545454545445C195,403.29545454545445 195,508.7499999999999 15,508.7499999999999Z" style="stroke: rgb(68, 68, 68); stroke-opacity: 1; fill: rgb(99, 110, 250); fill-opacity: 0.6; stroke-width: 0; opacity: 1;"/><path class="sankey-link" d="M15,545.4545454545453C195,545.4545454545453 195,601.5909090909093 375,601.5909090909093L375,610.2272727272731C195,610.2272727272731 195,554.090909090909 15,554.090909090909Z" style="stroke: rgb(68, 68, 68); stroke-opacity: 1; fill: rgb(0, 204, 150); fill-opacity: 0.6; stroke-width: 0; opacity: 1;"/><path class="sankey-link" d="M15,463.40909090909076C195,463.40909090909076 195,308.40909090909076 375,308.40909090909076L375,325.681818181818C195,325.681818181818 195,480.681818181818 15,480.681818181818Z" style="stroke: rgb(68, 68, 68); stroke-opacity: 1; fill: rgb(254, 203, 82); fill-opacity: 0.6; stroke-width: 0; opacity: 1;"/><path class="sankey-link" d="M15,528.181818181818C195,528.181818181818 195,539.0909090909092 375,539.0909090909092L375,556.3636363636365C195,556.3636363636365 195,545.4545454545453 15,545.4545454545453Z" style="stroke: rgb(68, 68, 68); stroke-opacity: 1; fill: rgb(171, 99, 250); fill-opacity: 0.6; stroke-width: 0; opacity: 1;"/><path class="sankey-link" d="M15,377.0454545454544C195,377.0454545454544 195,109.8863636363638 375,109.8863636363638L375,196.25000000000017C195,196.25000000000017 195,463.40909090909076 15,463.40909090909076Z" style="stroke: rgb(68, 68, 68); stroke-opacity: 1; fill: rgb(239, 85, 59); fill-opacity: 0.6; stroke-width: 0; opacity: 1;"/><path class="sankey-link" d="M15,508.74999999999983C195,508.74999999999983 195,478.75000000000017 375,478.75000000000017L375,498.1818181818183C195,498.1818181818183 195,528.181818181818 15,528.181818181818Z" style="stroke: rgb(68, 68, 68); stroke-opacity: 1; fill: rgb(182, 232, 128); fill-opacity: 0.6; stroke-width: 0; opacity: 1;"/><path class="sankey-link" d="M15,554.0909090909089C195,554.0909090909089 195,638.1818181818184 375,638.1818181818184L375,640.3409090909093C195,640.3409090909093 195,556.2499999999999 15,556.2499999999999Z" style="stroke: rgb(68, 68, 68); stroke-opacity: 1; fill: rgb(255, 151, 255); fill-opacity: 0.6; stroke-width: 0; opacity: 1;"/><path class="sankey-link" d="M390,717.8409090909091C570,717.8409090909091 570,618.6363636363636 750,618.6363636363636L750,620.7954545454546C570,620.7954545454546 570,720.0000000000001 390,720.0000000000001Z" style="stroke: rgb(68, 68, 68); stroke-opacity: 1; fill: rgb(25, 211, 243); fill-opacity: 0.6; stroke-width: 0; opacity: 1;"/><path class="sankey-link" d="M390,715.6818181818182C570,715.6818181818182 570,530.2272727272731 750,530.2272727272731L750,532.3863636363641C570,532.3863636363641 570,717.8409090909092 390,717.8409090909092Z" style="stroke: rgb(68, 68, 68); stroke-opacity: 1; fill: rgb(25, 211, 243); fill-opacity: 0.6; stroke-width: 0; opacity: 1;"/><path class="sankey-link" d="M390,709.2045454545455C570,709.2045454545455 570,364.0909090909091 750,364.0909090909091L750,370.56818181818187C570,370.56818181818187 570,715.6818181818182 390,715.6818181818182Z" style="stroke: rgb(68, 68, 68); stroke-opacity: 1; fill: rgb(25, 211, 243); fill-opacity: 0.6; stroke-width: 0; opacity: 1;"/><path class="sankey-link" d="M390,347.15909090909076C570,347.15909090909076 570,163.4090909090907 750,163.4090909090907L750,184.99999999999983C570,184.99999999999983 570,368.7499999999999 390,368.7499999999999Z" style="stroke: rgb(68, 68, 68); stroke-opacity: 1; fill: rgb(99, 110, 250); fill-opacity: 0.6; stroke-width: 0; opacity: 1;"/><path class="sankey-link" d="M390,420.5681818181817C570,420.5681818181817 570,581.9318181818181 750,581.9318181818181L750,590.5681818181819C570,590.5681818181819 570,429.2045454545453 390,429.2045454545453Z" style="stroke: rgb(68, 68, 68); stroke-opacity: 1; fill: rgb(99, 110, 250); fill-opacity: 0.6; stroke-width: 0; opacity: 1;"/><path class="sankey-link" d="M390,429.2045454545453C570,429.2045454545453 570,685.4545454545455 750,685.4545454545455L750,700.5681818181818C570,700.5681818181818 570,444.3181818181817 390,444.3181818181817Z" style="stroke: rgb(68, 68, 68); stroke-opacity: 1; fill: rgb(99, 110, 250); fill-opacity: 0.6; stroke-width: 0; opacity: 1;"/><path class="sankey-link" d="M390,392.4999999999999C570,392.4999999999999 570,465.4545454545458 750,465.4545454545458L750,493.52272727272765C570,493.52272727272765 570,420.56818181818176 390,420.56818181818176Z" style="stroke: rgb(68, 68, 68); stroke-opacity: 1; fill: rgb(99, 110, 250); fill-opacity: 0.6; stroke-width: 0; opacity: 1;"/><path class="sankey-link" d="M390,368.7499999999999C570,368.7499999999999 570,299.3181818181818 750,299.3181818181818L750,323.0681818181818C570,323.0681818181818 570,392.4999999999999 390,392.4999999999999Z" style="stroke: rgb(68, 68, 68); stroke-opacity: 1; fill: rgb(99, 110, 250); fill-opacity: 0.6; stroke-width: 0; opacity: 1;"/><path class="sankey-link" d="M390,592.9545454545457C570,592.9545454545457 570,215.22727272727258 750,215.22727272727258L750,217.3863636363635C570,217.3863636363635 570,595.1136363636367 390,595.1136363636367Z" style="stroke: rgb(68, 68, 68); stroke-opacity: 1; fill: rgb(0, 204, 150); fill-opacity: 0.6; stroke-width: 0; opacity: 1;"/><path class="sankey-link" d="M390,610.227272727273C570,610.227272727273 570,607.840909090909 750,607.840909090909L750,612.1590909090908C570,612.1590909090908 570,614.5454545454547 390,614.5454545454547Z" style="stroke: rgb(68, 68, 68); stroke-opacity: 1; fill: rgb(0, 204, 150); fill-opacity: 0.6; stroke-width: 0; opacity: 1;"/><path class="sankey-link" d="M390,614.5454545454548C570,614.5454545454548 570,713.5227272727273 750,713.5227272727273L750,720C570,720 570,621.0227272727276 390,621.0227272727276Z" style="stroke: rgb(68, 68, 68); stroke-opacity: 1; fill: rgb(0, 204, 150); fill-opacity: 0.6; stroke-width: 0; opacity: 1;"/><path class="sankey-link" d="M390,603.7500000000002C570,603.7500000000002 570,517.2727272727276 750,517.2727272727276L750,523.7500000000003C570,523.7500000000003 570,610.227272727273 390,610.227272727273Z" style="stroke: rgb(68, 68, 68); stroke-opacity: 1; fill: rgb(0, 204, 150); fill-opacity: 0.6; stroke-width: 0; opacity: 1;"/><path class="sankey-link" d="M390,595.1136363636366C570,595.1136363636366 570,340.3409090909091 750,340.3409090909091L750,348.97727272727275C570,348.97727272727275 570,603.7500000000003 390,603.7500000000003Z" style="stroke: rgb(68, 68, 68); stroke-opacity: 1; fill: rgb(0, 204, 150); fill-opacity: 0.6; stroke-width: 0; opacity: 1;"/><path class="sankey-link" d="M390,291.1363636363635C570,291.1363636363635 570,150.45454545454527 750,150.45454545454527L750,163.4090909090907C570,163.4090909090907 570,304.090909090909 390,304.090909090909Z" style="stroke: rgb(68, 68, 68); stroke-opacity: 1; fill: rgb(254, 203, 82); fill-opacity: 0.6; stroke-width: 0; opacity: 1;"/><path class="sankey-link" d="M390,321.36363636363626C570,321.36363636363626 570,579.7727272727273 750,579.7727272727273L750,581.9318181818182C570,581.9318181818182 570,323.52272727272714 390,323.52272727272714Z" style="stroke: rgb(68, 68, 68); stroke-opacity: 1; fill: rgb(254, 203, 82); fill-opacity: 0.6; stroke-width: 0; opacity: 1;"/><path class="sankey-link" d="M390,323.5227272727272C570,323.5227272727272 570,676.8181818181819 750,676.8181818181819L750,685.4545454545456C570,685.4545454545456 570,332.1590909090908 390,332.1590909090908Z" style="stroke: rgb(68, 68, 68); stroke-opacity: 1; fill: rgb(254, 203, 82); fill-opacity: 0.6; stroke-width: 0; opacity: 1;"/><path class="sankey-link" d="M390,310.5681818181817C570,310.5681818181817 570,454.6590909090912 750,454.6590909090912L750,465.4545454545457C570,465.4545454545457 570,321.3636363636362 390,321.3636363636362Z" style="stroke: rgb(68, 68, 68); stroke-opacity: 1; fill: rgb(254, 203, 82); fill-opacity: 0.6; stroke-width: 0; opacity: 1;"/><path class="sankey-link" d="M390,304.09090909090895C570,304.09090909090895 570,292.84090909090907 750,292.84090909090907L750,299.3181818181818C570,299.3181818181818 570,310.5681818181817 390,310.5681818181817Z" style="stroke: rgb(68, 68, 68); stroke-opacity: 1; fill: rgb(254, 203, 82); fill-opacity: 0.6; stroke-width: 0; opacity: 1;"/><path class="sankey-link" d="M390,670.4545454545455C570,670.4545454545455 570,221.7045454545453 750,221.7045454545453L750,228.18181818181804C570,228.18181818181804 570,676.9318181818182 390,676.9318181818182Z" style="stroke: rgb(68, 68, 68); stroke-opacity: 1; fill: rgb(255, 161, 90); fill-opacity: 0.6; stroke-width: 0; opacity: 1;"/><path class="sankey-link" d="M390,687.7272727272727C570,687.7272727272727 570,616.4772727272727 750,616.4772727272727L750,618.6363636363637C570,618.6363636363637 570,689.8863636363637 390,689.8863636363637Z" style="stroke: rgb(68, 68, 68); stroke-opacity: 1; fill: rgb(255, 161, 90); fill-opacity: 0.6; stroke-width: 0; opacity: 1;"/><path class="sankey-link" d="M390,676.9318181818182C570,676.9318181818182 570,353.29545454545456 750,353.29545454545456L750,364.09090909090907C570,364.09090909090907 570,687.7272727272727 390,687.7272727272727Z" style="stroke: rgb(68, 68, 68); stroke-opacity: 1; fill: rgb(255, 161, 90); fill-opacity: 0.6; stroke-width: 0; opacity: 1;"/><path class="sankey-link" d="M390,521.818181818182C570,521.818181818182 570,195.7954545454544 750,195.7954545454544L750,215.22727272727258C570,215.22727272727258 570,541.2500000000002 390,541.2500000000002Z" style="stroke: rgb(68, 68, 68); stroke-opacity: 1; fill: rgb(171, 99, 250); fill-opacity: 0.6; stroke-width: 0; opacity: 1;"/><path class="sankey-link" d="M390,558.5227272727274C570,558.5227272727274 570,601.3636363636363 750,601.3636363636363L750,607.840909090909C570,607.840909090909 570,565.0000000000001 390,565.0000000000001Z" style="stroke: rgb(68, 68, 68); stroke-opacity: 1; fill: rgb(171, 99, 250); fill-opacity: 0.6; stroke-width: 0; opacity: 1;"/><path class="sankey-link" d="M390,565.0000000000001C570,565.0000000000001 570,702.7272727272727 750,702.7272727272727L750,713.5227272727273C570,713.5227272727273 570,575.7954545454546 390,575.7954545454546Z" style="stroke: rgb(68, 68, 68); stroke-opacity: 1; fill: rgb(171, 99, 250); fill-opacity: 0.6; stroke-width: 0; opacity: 1;"/><path class="sankey-link" d="M390,547.7272727272729C570,547.7272727272729 570,506.47727272727303 750,506.47727272727303L750,517.2727272727276C570,517.2727272727276 570,558.5227272727274 390,558.5227272727274Z" style="stroke: rgb(68, 68, 68); stroke-opacity: 1; fill: rgb(171, 99, 250); fill-opacity: 0.6; stroke-width: 0; opacity: 1;"/><path class="sankey-link" d="M390,541.2500000000001C570,541.2500000000001 570,333.8636363636364 750,333.8636363636364L750,340.3409090909091C570,340.3409090909091 570,547.7272727272729 390,547.7272727272729Z" style="stroke: rgb(68, 68, 68); stroke-opacity: 1; fill: rgb(171, 99, 250); fill-opacity: 0.6; stroke-width: 0; opacity: 1;"/><path class="sankey-link" d="M390,25.681818181818358C570,25.681818181818358 570,92.15909090909071 750,92.15909090909071L750,150.45454545454527C570,150.45454545454527 570,83.9772727272729 390,83.9772727272729Z" style="stroke: rgb(68, 68, 68); stroke-opacity: 1; fill: rgb(239, 85, 59); fill-opacity: 0.6; stroke-width: 0; opacity: 1;"/><path class="sankey-link" d="M390,202.72727272727292C570,202.72727272727292 570,547.3863636363636 750,547.3863636363636L750,579.7727272727274C570,579.7727272727274 570,235.11363636363654 390,235.11363636363654Z" style="stroke: rgb(68, 68, 68); stroke-opacity: 1; fill: rgb(239, 85, 59); fill-opacity: 0.6; stroke-width: 0; opacity: 1;"/><path class="sankey-link" d="M390,235.11363636363654C570,235.11363636363654 570,635.7954545454546 750,635.7954545454546L750,676.8181818181819C570,676.8181818181819 570,276.1363636363638 390,276.1363636363638Z" style="stroke: rgb(68, 68, 68); stroke-opacity: 1; fill: rgb(239, 85, 59); fill-opacity: 0.6; stroke-width: 0; opacity: 1;"/><path class="sankey-link" d="M390,133.6363636363638C570,133.6363636363638 570,385.56818181818215 750,385.56818181818215L750,454.6590909090913C570,454.6590909090913 570,202.72727272727292 390,202.72727272727292Z" style="stroke: rgb(68, 68, 68); stroke-opacity: 1; fill: rgb(239, 85, 59); fill-opacity: 0.6; stroke-width: 0; opacity: 1;"/><path class="sankey-link" d="M390,83.9772727272729C570,83.9772727272729 570,243.1818181818181 750,243.1818181818181L750,292.840909090909C570,292.840909090909 570,133.63636363636382 390,133.63636363636382Z" style="stroke: rgb(68, 68, 68); stroke-opacity: 1; fill: rgb(239, 85, 59); fill-opacity: 0.6; stroke-width: 0; opacity: 1;"/><path class="sankey-link" d="M390,459.318181818182C570,459.318181818182 570,184.99999999999983 750,184.99999999999983L750,195.7954545454544C570,195.7954545454544 570,470.1136363636365 390,470.1136363636365Z" style="stroke: rgb(68, 68, 68); stroke-opacity: 1; fill: rgb(182, 232, 128); fill-opacity: 0.6; stroke-width: 0; opacity: 1;"/><path class="sankey-link" d="M390,493.86363636363654C570,493.86363636363654 570,590.5681818181818 750,590.5681818181818L750,601.3636363636363C570,601.3636363636363 570,504.65909090909105 390,504.65909090909105Z" style="stroke: rgb(68, 68, 68); stroke-opacity: 1; fill: rgb(182, 232, 128); fill-opacity: 0.6; stroke-width: 0; opacity: 1;"/><path class="sankey-link" d="M390,504.6590909090911C570,504.6590909090911 570,700.5681818181819 750,700.5681818181819L750,702.7272727272729C570,702.7272727272729 570,506.818181818182 390,506.818181818182Z" style="stroke: rgb(68, 68, 68); stroke-opacity: 1; fill: rgb(182, 232, 128); fill-opacity: 0.6; stroke-width: 0; opacity: 1;"/><path class="sankey-link" d="M390,480.9090909090911C570,480.9090909090911 570,493.5227272727276 750,493.5227272727276L750,506.4772727272731C570,506.4772727272731 570,493.8636363636366 390,493.8636363636366Z" style="stroke: rgb(68, 68, 68); stroke-opacity: 1; fill: rgb(182, 232, 128); fill-opacity: 0.6; stroke-width: 0; opacity: 1;"/><path class="sankey-link" d="M390,470.11363636363654C570,470.11363636363654 570,323.0681818181818 750,323.0681818181818L750,333.8636363636363C570,333.8636363636363 570,480.90909090909105 390,480.90909090909105Z" style="stroke: rgb(68, 68, 68); stroke-opacity: 1; fill: rgb(182, 232, 128); fill-opacity: 0.6; stroke-width: 0; opacity: 1;"/><path class="sankey-link" d="M390,636.0227272727275C570,636.0227272727275 570,217.38636363636348 750,217.38636363636348L750,221.7045454545453C570,221.7045454545453 570,640.3409090909092 390,640.3409090909092Z" style="stroke: rgb(68, 68, 68); stroke-opacity: 1; fill: rgb(255, 151, 255); fill-opacity: 0.6; stroke-width: 0; opacity: 1;"/><path class="sankey-link" d="M390,651.136363636364C570,651.136363636364 570,612.1590909090909 750,612.1590909090909L750,616.4772727272726C570,616.4772727272726 570,655.4545454545457 390,655.4545454545457Z" style="stroke: rgb(68, 68, 68); stroke-opacity: 1; fill: rgb(255, 151, 255); fill-opacity: 0.6; stroke-width: 0; opacity: 1;"/><path class="sankey-link" d="M390,644.6590909090912C570,644.6590909090912 570,523.7500000000003 750,523.7500000000003L750,530.2272727272731C570,530.2272727272731 570,651.136363636364 390,651.136363636364Z" style="stroke: rgb(68, 68, 68); stroke-opacity: 1; fill: rgb(255, 151, 255); fill-opacity: 0.6; stroke-width: 0; opacity: 1;"/><path class="sankey-link" d="M390,640.3409090909093C570,640.3409090909093 570,348.97727272727275 750,348.97727272727275L750,353.2954545454546C570,353.2954545454546 570,644.6590909090911 390,644.6590909090911Z" style="stroke: rgb(68, 68, 68); stroke-opacity: 1; fill: rgb(255, 151, 255); fill-opacity: 0.6; stroke-width: 0; opacity: 1;"/><path class="sankey-link" d="M765,547.3863636363636C945,547.3863636363636 945,500.2272727272723 1125,500.2272727272723L1125,502.38636363636317C945,502.38636363636317 945,549.5454545454546 765,549.5454545454546Z" style="stroke: rgb(68, 68, 68); stroke-opacity: 1; fill: rgb(25, 211, 243); fill-opacity: 0.6; stroke-width: 0; opacity: 1;"/><path class="sankey-link" d="M765,385.56818181818215C945,385.56818181818215 945,323.4090909090904 1125,323.4090909090904L1125,325.5681818181813C945,325.5681818181813 945,387.72727272727303 765,387.72727272727303Z" style="stroke: rgb(68, 68, 68); stroke-opacity: 1; fill: rgb(25, 211, 243); fill-opacity: 0.6; stroke-width: 0; opacity: 1;"/><path class="sankey-link" d="M765,305.79545454545456C945,305.79545454545456 945,243.63636363636306 1125,243.63636363636306L1125,247.95454545454487C945,247.95454545454487 945,310.11363636363643 765,310.11363636363643Z" style="stroke: rgb(68, 68, 68); stroke-opacity: 1; fill: rgb(25, 211, 243); fill-opacity: 0.6; stroke-width: 0; opacity: 1;"/><path class="sankey-link" d="M765,243.18181818181813C945,243.18181818181813 945,166.02272727272666 1125,166.02272727272666L1125,168.1818181818176C945,168.1818181818176 945,245.34090909090907 765,245.34090909090907Z" style="stroke: rgb(68, 68, 68); stroke-opacity: 1; fill: rgb(25, 211, 243); fill-opacity: 0.6; stroke-width: 0; opacity: 1;"/><path class="sankey-link" d="M765,92.15909090909071C945,92.15909090909071 945,-5.826450433232822e-13 1125,-5.826450433232822e-13L1125,17.27272727272669C945,17.27272727272669 945,109.43181818181799 765,109.43181818181799Z" style="stroke: rgb(68, 68, 68); stroke-opacity: 1; fill: rgb(99, 110, 250); fill-opacity: 0.6; stroke-width: 0; opacity: 1;"/><path class="sankey-link" d="M765,169.88636363636343C945,169.88636363636343 945,92.72727272727212 1125,92.72727272727212L1125,97.04545454545394C945,97.04545454545394 945,174.20454545454524 765,174.20454545454524Z" style="stroke: rgb(68, 68, 68); stroke-opacity: 1; fill: rgb(99, 110, 250); fill-opacity: 0.6; stroke-width: 0; opacity: 1;"/><path class="sankey-link" d="M765,588.4090909090909C945,588.4090909090909 945,556.2500000000001 1125,556.2500000000001L1125,560.5681818181819C945,560.5681818181819 945,592.7272727272726 765,592.7272727272726Z" style="stroke: rgb(68, 68, 68); stroke-opacity: 1; fill: rgb(99, 110, 250); fill-opacity: 0.6; stroke-width: 0; opacity: 1;"/><path class="sankey-link" d="M765,549.5454545454545C945,549.5454545454545 945,502.3863636363632 1125,502.3863636363632L1125,506.7045454545451C945,506.7045454545451 945,553.8636363636363 765,553.8636363636363Z" style="stroke: rgb(68, 68, 68); stroke-opacity: 1; fill: rgb(99, 110, 250); fill-opacity: 0.6; stroke-width: 0; opacity: 1;"/><path class="sankey-link" d="M765,709.2045454545455C945,709.2045454545455 945,692.0454545454545 1125,692.0454545454545L1125,696.3636363636363C945,696.3636363636363 945,713.5227272727273 765,713.5227272727273Z" style="stroke: rgb(68, 68, 68); stroke-opacity: 1; fill: rgb(99, 110, 250); fill-opacity: 0.6; stroke-width: 0; opacity: 1;"/><path class="sankey-link" d="M765,635.7954545454546C945,635.7954545454546 945,603.6363636363636 1125,603.6363636363636L1125,614.4318181818181C945,614.4318181818181 945,646.5909090909091 765,646.5909090909091Z" style="stroke: rgb(68, 68, 68); stroke-opacity: 1; fill: rgb(99, 110, 250); fill-opacity: 0.6; stroke-width: 0; opacity: 1;"/><path class="sankey-link" d="M765,387.7272727272731C945,387.7272727272731 945,325.56818181818136 1125,325.56818181818136L1125,344.9999999999995C945,344.9999999999995 945,407.1590909090912 765,407.1590909090912Z" style="stroke: rgb(68, 68, 68); stroke-opacity: 1; fill: rgb(99, 110, 250); fill-opacity: 0.6; stroke-width: 0; opacity: 1;"/><path class="sankey-link" d="M765,489.2045454545459C945,489.2045454545459 945,442.04545454545416 1125,442.04545454545416L1125,450.6818181818178C945,450.6818181818178 945,497.8409090909095 765,497.8409090909095Z" style="stroke: rgb(68, 68, 68); stroke-opacity: 1; fill: rgb(99, 110, 250); fill-opacity: 0.6; stroke-width: 0; opacity: 1;"/><path class="sankey-link" d="M765,310.1136363636364C945,310.1136363636364 945,247.95454545454487 1125,247.95454545454487L1125,260.9090909090903C945,260.9090909090903 945,323.06818181818187 765,323.06818181818187Z" style="stroke: rgb(68, 68, 68); stroke-opacity: 1; fill: rgb(99, 110, 250); fill-opacity: 0.6; stroke-width: 0; opacity: 1;"/><path class="sankey-link" d="M765,245.34090909090904C945,245.34090909090904 945,168.18181818181756 1125,168.18181818181756L1125,178.97727272727212C945,178.97727272727212 945,256.13636363636357 765,256.13636363636357Z" style="stroke: rgb(68, 68, 68); stroke-opacity: 1; fill: rgb(99, 110, 250); fill-opacity: 0.6; stroke-width: 0; opacity: 1;"/><path class="sankey-link" d="M765,109.43181818181799C945,109.43181818181799 945,17.27272727272669 1125,17.27272727272669L1125,19.431818181817597C945,19.431818181817597 945,111.5909090909089 765,111.5909090909089Z" style="stroke: rgb(68, 68, 68); stroke-opacity: 1; fill: rgb(0, 204, 150); fill-opacity: 0.6; stroke-width: 0; opacity: 1;"/><path class="sankey-link" d="M765,592.7272727272727C945,592.7272727272727 945,560.568181818182 1125,560.568181818182L1125,562.727272727273C945,562.727272727273 945,594.8863636363637 765,594.8863636363637Z" style="stroke: rgb(68, 68, 68); stroke-opacity: 1; fill: rgb(0, 204, 150); fill-opacity: 0.6; stroke-width: 0; opacity: 1;"/><path class="sankey-link" d="M765,553.8636363636364C945,553.8636363636364 945,506.70454545454504 1125,506.70454545454504L1125,508.8636363636359C945,508.8636363636359 945,556.0227272727274 765,556.0227272727274Z" style="stroke: rgb(68, 68, 68); stroke-opacity: 1; fill: rgb(0, 204, 150); fill-opacity: 0.6; stroke-width: 0; opacity: 1;"/><path class="sankey-link" d="M765,713.5227272727274C945,713.5227272727274 945,696.3636363636364 1125,696.3636363636364L1125,698.5227272727274C945,698.5227272727274 945,715.6818181818184 765,715.6818181818184Z" style="stroke: rgb(68, 68, 68); stroke-opacity: 1; fill: rgb(0, 204, 150); fill-opacity: 0.6; stroke-width: 0; opacity: 1;"/><path class="sankey-link" d="M765,646.5909090909091C945,646.5909090909091 945,614.4318181818181 1125,614.4318181818181L1125,618.7499999999999C945,618.7499999999999 945,650.9090909090909 765,650.9090909090909Z" style="stroke: rgb(68, 68, 68); stroke-opacity: 1; fill: rgb(0, 204, 150); fill-opacity: 0.6; stroke-width: 0; opacity: 1;"/><path class="sankey-link" d="M765,407.1590909090913C945,407.1590909090913 945,344.99999999999955 1125,344.99999999999955L1125,349.3181818181814C945,349.3181818181814 945,411.47727272727315 765,411.47727272727315Z" style="stroke: rgb(68, 68, 68); stroke-opacity: 1; fill: rgb(0, 204, 150); fill-opacity: 0.6; stroke-width: 0; opacity: 1;"/><path class="sankey-link" d="M765,497.8409090909095C945,497.8409090909095 945,450.6818181818178 1125,450.6818181818178L1125,452.84090909090867C945,452.84090909090867 945,500.0000000000004 765,500.0000000000004Z" style="stroke: rgb(68, 68, 68); stroke-opacity: 1; fill: rgb(0, 204, 150); fill-opacity: 0.6; stroke-width: 0; opacity: 1;"/><path class="sankey-link" d="M765,323.0681818181818C945,323.0681818181818 945,260.9090909090903 1125,260.9090909090903L1125,267.38636363636306C945,267.38636363636306 945,329.54545454545456 765,329.54545454545456Z" style="stroke: rgb(68, 68, 68); stroke-opacity: 1; fill: rgb(0, 204, 150); fill-opacity: 0.6; stroke-width: 0; opacity: 1;"/><path class="sankey-link" d="M765,256.13636363636357C945,256.13636363636357 945,178.97727272727212 1125,178.97727272727212L1125,181.13636363636306C945,181.13636363636306 945,258.29545454545445 765,258.29545454545445Z" style="stroke: rgb(68, 68, 68); stroke-opacity: 1; fill: rgb(0, 204, 150); fill-opacity: 0.6; stroke-width: 0; opacity: 1;"/><path class="sankey-link" d="M765,111.5909090909089C945,111.5909090909089 945,19.4318181818176 1125,19.4318181818176L1125,25.909090909090327C945,25.909090909090327 945,118.06818181818161 765,118.06818181818161Z" style="stroke: rgb(68, 68, 68); stroke-opacity: 1; fill: rgb(254, 203, 82); fill-opacity: 0.6; stroke-width: 0; opacity: 1;"/><path class="sankey-link" d="M765,174.20454545454524C945,174.20454545454524 945,97.04545454545394 1125,97.04545454545394L1125,103.52272727272666C945,103.52272727272666 945,180.681818181818 765,180.681818181818Z" style="stroke: rgb(68, 68, 68); stroke-opacity: 1; fill: rgb(254, 203, 82); fill-opacity: 0.6; stroke-width: 0; opacity: 1;"/><path class="sankey-link" d="M765,594.8863636363636C945,594.8863636363636 945,562.7272727272729 1125,562.7272727272729L1125,564.8863636363639C945,564.8863636363639 945,597.0454545454546 765,597.0454545454546Z" style="stroke: rgb(68, 68, 68); stroke-opacity: 1; fill: rgb(254, 203, 82); fill-opacity: 0.6; stroke-width: 0; opacity: 1;"/><path class="sankey-link" d="M765,650.909090909091C945,650.909090909091 945,618.75 1125,618.75L1125,627.3863636363637C945,627.3863636363637 945,659.5454545454547 765,659.5454545454547Z" style="stroke: rgb(68, 68, 68); stroke-opacity: 1; fill: rgb(254, 203, 82); fill-opacity: 0.6; stroke-width: 0; opacity: 1;"/><path class="sankey-link" d="M765,411.4772727272731C945,411.4772727272731 945,349.31818181818136 1125,349.31818181818136L1125,360.11363636363586C945,360.11363636363586 945,422.2727272727276 765,422.2727272727276Z" style="stroke: rgb(68, 68, 68); stroke-opacity: 1; fill: rgb(254, 203, 82); fill-opacity: 0.6; stroke-width: 0; opacity: 1;"/><path class="sankey-link" d="M765,329.54545454545456C945,329.54545454545456 945,267.38636363636306 1125,267.38636363636306L1125,271.7045454545449C945,271.7045454545449 945,333.86363636363643 765,333.86363636363643Z" style="stroke: rgb(68, 68, 68); stroke-opacity: 1; fill: rgb(254, 203, 82); fill-opacity: 0.6; stroke-width: 0; opacity: 1;"/><path class="sankey-link" d="M765,258.2954545454545C945,258.2954545454545 945,181.13636363636303 1125,181.13636363636303L1125,183.29545454545396C945,183.29545454545396 945,260.4545454545454 765,260.4545454545454Z" style="stroke: rgb(68, 68, 68); stroke-opacity: 1; fill: rgb(254, 203, 82); fill-opacity: 0.6; stroke-width: 0; opacity: 1;"/><path class="sankey-link" d="M765,180.68181818181796C945,180.68181818181796 945,103.52272727272667 1125,103.52272727272667L1125,109.99999999999939C945,109.99999999999939 945,187.1590909090907 765,187.1590909090907Z" style="stroke: rgb(68, 68, 68); stroke-opacity: 1; fill: rgb(255, 161, 90); fill-opacity: 0.6; stroke-width: 0; opacity: 1;"/><path class="sankey-link" d="M765,556.0227272727273C945,556.0227272727273 945,508.863636363636 1125,508.863636363636L1125,511.02272727272685C945,511.02272727272685 945,558.1818181818182 765,558.1818181818182Z" style="stroke: rgb(68, 68, 68); stroke-opacity: 1; fill: rgb(255, 161, 90); fill-opacity: 0.6; stroke-width: 0; opacity: 1;"/><path class="sankey-link" d="M765,333.8636363636364C945,333.8636363636364 945,271.70454545454487 1125,271.70454545454487L1125,276.02272727272674C945,276.02272727272674 945,338.18181818181824 765,338.18181818181824Z" style="stroke: rgb(68, 68, 68); stroke-opacity: 1; fill: rgb(255, 161, 90); fill-opacity: 0.6; stroke-width: 0; opacity: 1;"/><path class="sankey-link" d="M765,260.45454545454544C945,260.45454545454544 945,183.29545454545394 1125,183.29545454545394L1125,189.77272727272668C945,189.77272727272668 945,266.9318181818182 765,266.9318181818182Z" style="stroke: rgb(68, 68, 68); stroke-opacity: 1; fill: rgb(255, 161, 90); fill-opacity: 0.6; stroke-width: 0; opacity: 1;"/><path class="sankey-link" d="M765,118.06818181818163C945,118.06818181818163 945,25.90909090909033 1125,25.90909090909033L1125,38.863636363635784C945,38.863636363635784 945,131.02272727272708 765,131.02272727272708Z" style="stroke: rgb(68, 68, 68); stroke-opacity: 1; fill: rgb(171, 99, 250); fill-opacity: 0.6; stroke-width: 0; opacity: 1;"/><path class="sankey-link" d="M765,187.15909090909068C945,187.15909090909068 945,109.9999999999994 1125,109.9999999999994L1125,116.47727272727212C945,116.47727272727212 945,193.63636363636343 765,193.63636363636343Z" style="stroke: rgb(68, 68, 68); stroke-opacity: 1; fill: rgb(171, 99, 250); fill-opacity: 0.6; stroke-width: 0; opacity: 1;"/><path class="sankey-link" d="M765,597.0454545454545C945,597.0454545454545 945,564.8863636363637 1125,564.8863636363637L1125,567.0454545454547C945,567.0454545454547 945,599.2045454545455 765,599.2045454545455Z" style="stroke: rgb(68, 68, 68); stroke-opacity: 1; fill: rgb(171, 99, 250); fill-opacity: 0.6; stroke-width: 0; opacity: 1;"/><path class="sankey-link" d="M765,558.1818181818181C945,558.1818181818181 945,511.02272727272685 1125,511.02272727272685L1125,515.3409090909087C945,515.3409090909087 945,562.4999999999999 765,562.4999999999999Z" style="stroke: rgb(68, 68, 68); stroke-opacity: 1; fill: rgb(171, 99, 250); fill-opacity: 0.6; stroke-width: 0; opacity: 1;"/><path class="sankey-link" d="M765,659.5454545454546C945,659.5454545454546 945,627.3863636363636 1125,627.3863636363636L1125,638.1818181818181C945,638.1818181818181 945,670.3409090909091 765,670.3409090909091Z" style="stroke: rgb(68, 68, 68); stroke-opacity: 1; fill: rgb(171, 99, 250); fill-opacity: 0.6; stroke-width: 0; opacity: 1;"/><path class="sankey-link" d="M765,422.27272727272765C945,422.27272727272765 945,360.1136363636359 1125,360.1136363636359L1125,366.59090909090867C945,366.59090909090867 945,428.7500000000004 765,428.7500000000004Z" style="stroke: rgb(68, 68, 68); stroke-opacity: 1; fill: rgb(171, 99, 250); fill-opacity: 0.6; stroke-width: 0; opacity: 1;"/><path class="sankey-link" d="M765,500.00000000000045C945,500.00000000000045 945,452.8409090909087 1125,452.8409090909087L1125,457.1590909090906C945,457.1590909090906 945,504.3181818181823 765,504.3181818181823Z" style="stroke: rgb(68, 68, 68); stroke-opacity: 1; fill: rgb(171, 99, 250); fill-opacity: 0.6; stroke-width: 0; opacity: 1;"/><path class="sankey-link" d="M765,338.1818181818182C945,338.1818181818182 945,276.0227272727267 1125,276.0227272727267L1125,278.18181818181756C945,278.18181818181756 945,340.34090909090907 765,340.34090909090907Z" style="stroke: rgb(68, 68, 68); stroke-opacity: 1; fill: rgb(171, 99, 250); fill-opacity: 0.6; stroke-width: 0; opacity: 1;"/><path class="sankey-link" d="M765,266.9318181818182C945,266.9318181818182 945,189.77272727272666 1125,189.77272727272666L1125,194.09090909090847C945,194.09090909090847 945,271.25000000000006 765,271.25000000000006Z" style="stroke: rgb(68, 68, 68); stroke-opacity: 1; fill: rgb(171, 99, 250); fill-opacity: 0.6; stroke-width: 0; opacity: 1;"/><path class="sankey-link" d="M765,131.02272727272708C945,131.02272727272708 945,38.86363636363579 1125,38.86363636363579L1125,69.09090909090851C945,69.09090909090851 945,161.24999999999983 765,161.24999999999983Z" style="stroke: rgb(68, 68, 68); stroke-opacity: 1; fill: rgb(239, 85, 59); fill-opacity: 0.6; stroke-width: 0; opacity: 1;"/><path class="sankey-link" d="M765,193.6363636363634C945,193.6363636363634 945,116.47727272727215 1125,116.47727272727215L1125,144.54545454545396C945,144.54545454545396 945,221.7045454545452 765,221.7045454545452Z" style="stroke: rgb(68, 68, 68); stroke-opacity: 1; fill: rgb(239, 85, 59); fill-opacity: 0.6; stroke-width: 0; opacity: 1;"/><path class="sankey-link" d="M765,599.2045454545454C945,599.2045454545454 945,567.0454545454546 1125,567.0454545454546L1125,580.0000000000001C945,580.0000000000001 945,612.1590909090909 765,612.1590909090909Z" style="stroke: rgb(68, 68, 68); stroke-opacity: 1; fill: rgb(239, 85, 59); fill-opacity: 0.6; stroke-width: 0; opacity: 1;"/><path class="sankey-link" d="M765,562.5C945,562.5 945,515.3409090909088 1125,515.3409090909088L1125,534.772727272727C945,534.772727272727 945,581.9318181818182 765,581.9318181818182Z" style="stroke: rgb(68, 68, 68); stroke-opacity: 1; fill: rgb(239, 85, 59); fill-opacity: 0.6; stroke-width: 0; opacity: 1;"/><path class="sankey-link" d="M765,715.6818181818182C945,715.6818181818182 945,698.5227272727273 1125,698.5227272727273L1125,702.840909090909C945,702.840909090909 945,720 765,720Z" style="stroke: rgb(68, 68, 68); stroke-opacity: 1; fill: rgb(239, 85, 59); fill-opacity: 0.6; stroke-width: 0; opacity: 1;"/><path class="sankey-link" d="M765,670.3409090909091C945,670.3409090909091 945,638.1818181818181 1125,638.1818181818181L1125,674.8863636363636C945,674.8863636363636 945,707.0454545454546 765,707.0454545454546Z" style="stroke: rgb(68, 68, 68); stroke-opacity: 1; fill: rgb(239, 85, 59); fill-opacity: 0.6; stroke-width: 0; opacity: 1;"/><path class="sankey-link" d="M765,428.75000000000034C945,428.75000000000034 945,366.59090909090867 1125,366.59090909090867L1125,409.7727272727269C945,409.7727272727269 945,471.9318181818186 765,471.9318181818186Z" style="stroke: rgb(68, 68, 68); stroke-opacity: 1; fill: rgb(239, 85, 59); fill-opacity: 0.6; stroke-width: 0; opacity: 1;"/><path class="sankey-link" d="M765,504.31818181818227C945,504.31818181818227 945,457.15909090909054 1125,457.15909090909054L1125,483.0681818181814C945,483.0681818181814 945,530.2272727272732 765,530.2272727272732Z" style="stroke: rgb(68, 68, 68); stroke-opacity: 1; fill: rgb(239, 85, 59); fill-opacity: 0.6; stroke-width: 0; opacity: 1;"/><path class="sankey-link" d="M765,340.3409090909091C945,340.3409090909091 945,278.1818181818176 1125,278.1818181818176L1125,301.9318181818176C945,301.9318181818176 945,364.0909090909091 765,364.0909090909091Z" style="stroke: rgb(68, 68, 68); stroke-opacity: 1; fill: rgb(239, 85, 59); fill-opacity: 0.6; stroke-width: 0; opacity: 1;"/><path class="sankey-link" d="M765,271.25C945,271.25 945,194.09090909090847 1125,194.09090909090847L1125,219.9999999999994C945,219.9999999999994 945,297.1590909090909 765,297.1590909090909Z" style="stroke: rgb(68, 68, 68); stroke-opacity: 1; fill: rgb(239, 85, 59); fill-opacity: 0.6; stroke-width: 0; opacity: 1;"/><path class="sankey-link" d="M765,161.2499999999998C945,161.2499999999998 945,69.09090909090851 1125,69.09090909090851L1125,75.56818181818123C945,75.56818181818123 945,167.72727272727255 765,167.72727272727255Z" style="stroke: rgb(68, 68, 68); stroke-opacity: 1; fill: rgb(182, 232, 128); fill-opacity: 0.6; stroke-width: 0; opacity: 1;"/><path class="sankey-link" d="M765,221.7045454545452C945,221.7045454545452 945,144.54545454545396 1125,144.54545454545396L1125,148.86363636363578C945,148.86363636363578 945,226.02272727272702 765,226.02272727272702Z" style="stroke: rgb(68, 68, 68); stroke-opacity: 1; fill: rgb(182, 232, 128); fill-opacity: 0.6; stroke-width: 0; opacity: 1;"/><path class="sankey-link" d="M765,612.1590909090909C945,612.1590909090909 945,580.0000000000001 1125,580.0000000000001L1125,586.4772727272729C945,586.4772727272729 945,618.6363636363636 765,618.6363636363636Z" style="stroke: rgb(68, 68, 68); stroke-opacity: 1; fill: rgb(182, 232, 128); fill-opacity: 0.6; stroke-width: 0; opacity: 1;"/><path class="sankey-link" d="M765,581.9318181818181C945,581.9318181818181 945,534.7727272727269 1125,534.7727272727269L1125,539.0909090909087C945,539.0909090909087 945,586.2499999999999 765,586.2499999999999Z" style="stroke: rgb(68, 68, 68); stroke-opacity: 1; fill: rgb(182, 232, 128); fill-opacity: 0.6; stroke-width: 0; opacity: 1;"/><path class="sankey-link" d="M765,707.0454545454546C945,707.0454545454546 945,674.8863636363636 1125,674.8863636363636L1125,677.0454545454546C945,677.0454545454546 945,709.2045454545456 765,709.2045454545456Z" style="stroke: rgb(68, 68, 68); stroke-opacity: 1; fill: rgb(182, 232, 128); fill-opacity: 0.6; stroke-width: 0; opacity: 1;"/><path class="sankey-link" d="M765,471.9318181818186C945,471.9318181818186 945,409.77272727272685 1125,409.77272727272685L1125,420.56818181818136C945,420.56818181818136 945,482.7272727272731 765,482.7272727272731Z" style="stroke: rgb(68, 68, 68); stroke-opacity: 1; fill: rgb(182, 232, 128); fill-opacity: 0.6; stroke-width: 0; opacity: 1;"/><path class="sankey-link" d="M765,530.2272727272732C945,530.2272727272732 945,483.0681818181815 1125,483.0681818181815L1125,485.22727272727235C945,485.22727272727235 945,532.3863636363642 765,532.3863636363642Z" style="stroke: rgb(68, 68, 68); stroke-opacity: 1; fill: rgb(182, 232, 128); fill-opacity: 0.6; stroke-width: 0; opacity: 1;"/><path class="sankey-link" d="M765,364.0909090909091C945,364.0909090909091 945,301.9318181818176 1125,301.9318181818176L1125,308.40909090909037C945,308.40909090909037 945,370.56818181818187 765,370.56818181818187Z" style="stroke: rgb(68, 68, 68); stroke-opacity: 1; fill: rgb(182, 232, 128); fill-opacity: 0.6; stroke-width: 0; opacity: 1;"/><path class="sankey-link" d="M765,297.15909090909093C945,297.15909090909093 945,219.99999999999937 1125,219.99999999999937L1125,224.3181818181812C945,224.3181818181812 945,301.4772727272728 765,301.4772727272728Z" style="stroke: rgb(68, 68, 68); stroke-opacity: 1; fill: rgb(182, 232, 128); fill-opacity: 0.6; stroke-width: 0; opacity: 1;"/><path class="sankey-link" d="M765,167.72727272727252C945,167.72727272727252 945,75.56818181818124 1125,75.56818181818124L1125,77.72727272727215C945,77.72727272727215 945,169.88636363636346 765,169.88636363636346Z" style="stroke: rgb(68, 68, 68); stroke-opacity: 1; fill: rgb(255, 151, 255); fill-opacity: 0.6; stroke-width: 0; opacity: 1;"/><path class="sankey-link" d="M765,226.02272727272702C945,226.02272727272702 945,148.86363636363578 1125,148.86363636363578L1125,151.0227272727267C945,151.0227272727267 945,228.18181818181796 765,228.18181818181796Z" style="stroke: rgb(68, 68, 68); stroke-opacity: 1; fill: rgb(255, 151, 255); fill-opacity: 0.6; stroke-width: 0; opacity: 1;"/><path class="sankey-link" d="M765,618.6363636363636C945,618.6363636363636 945,586.4772727272729 1125,586.4772727272729L1125,588.6363636363639C945,588.6363636363639 945,620.7954545454546 765,620.7954545454546Z" style="stroke: rgb(68, 68, 68); stroke-opacity: 1; fill: rgb(255, 151, 255); fill-opacity: 0.6; stroke-width: 0; opacity: 1;"/><path class="sankey-link" d="M765,586.25C945,586.25 945,539.0909090909088 1125,539.0909090909088L1125,541.2499999999998C945,541.2499999999998 945,588.409090909091 765,588.409090909091Z" style="stroke: rgb(68, 68, 68); stroke-opacity: 1; fill: rgb(255, 151, 255); fill-opacity: 0.6; stroke-width: 0; opacity: 1;"/><path class="sankey-link" d="M765,482.72727272727315C945,482.72727272727315 945,420.5681818181814 1125,420.5681818181814L1125,427.04545454545416C945,427.04545454545416 945,489.2045454545459 765,489.2045454545459Z" style="stroke: rgb(68, 68, 68); stroke-opacity: 1; fill: rgb(255, 151, 255); fill-opacity: 0.6; stroke-width: 0; opacity: 1;"/><path class="sankey-link" d="M765,301.47727272727275C945,301.47727272727275 945,224.3181818181812 1125,224.3181818181812L1125,228.636363636363C945,228.636363636363 945,305.7954545454546 765,305.7954545454546Z" style="stroke: rgb(68, 68, 68); stroke-opacity: 1; fill: rgb(255, 151, 255); fill-opacity: 0.6; stroke-width: 0; opacity: 1;"/></g><g class="sankey-node-set" style="cursor: move;"><g class="sankey-node" transform="translate(0.000,571.250)" style="opacity: 1;"><rect class="node-rect" width="15" height="45.34090909090912" style="stroke-width: 0.5; stroke: rgb(0, 0, 0); stroke-opacity: 1; fill: rgb(128, 128, 128); fill-opacity: 1;"/><text class="node-label" data-notex="1" x="0" y="0" text-anchor="start" transform="translate(18.25,26.87045454545456)" style="cursor: default; font-family: 'Open Sans', verdana, arial, sans-serif; font-size: 12px; fill: rgb(42, 63, 95); fill-opacity: 1; white-space: pre; text-shadow: white 1px 1px 1px, white -1px -1px 1px, white 1px -1px 1px, white -1px 1px 1px;">21271R</text></g><g class="sankey-node" transform="translate(0.000,685.455)" style="opacity: 1;"><rect class="node-rect" width="15" height="34.545454545454504" style="stroke-width: 0.5; stroke: rgb(0, 0, 0); stroke-opacity: 1; fill: rgb(128, 128, 128); fill-opacity: 1;"/><text class="node-label" data-notex="1" x="0" y="0" text-anchor="start" transform="translate(18.25,21.47272727272725)" style="cursor: default; font-family: 'Open Sans', verdana, arial, sans-serif; font-size: 12px; fill: rgb(42, 63, 95); fill-opacity: 1; white-space: pre; text-shadow: white 1px 1px 1px, white -1px -1px 1px, white 1px -1px 1px, white -1px 1px 1px;">21272R</text></g><g class="sankey-node" transform="translate(0.000,631.591)" style="opacity: 1;"><rect class="node-rect" width="15" height="38.863636363636374" style="stroke-width: 0.5; stroke: rgb(0, 0, 0); stroke-opacity: 1; fill: rgb(128, 128, 128); fill-opacity: 1;"/><text class="node-label" data-notex="1" x="0" y="0" text-anchor="start" transform="translate(18.25,23.631818181818186)" style="cursor: default; font-family: 'Open Sans', verdana, arial, sans-serif; font-size: 12px; fill: rgb(42, 63, 95); fill-opacity: 1; white-space: pre; text-shadow: white 1px 1px 1px, white -1px -1px 1px, white 1px -1px 1px, white -1px 1px 1px;">21965RL</text></g><g class="sankey-node" transform="translate(0.000,185.000)" style="opacity: 1;"><rect class="node-rect" width="15" height="177.04545454545442" style="stroke-width: 0.5; stroke: rgb(0, 0, 0); stroke-opacity: 1; fill: rgb(128, 128, 128); fill-opacity: 1;"/><text class="node-label" data-notex="1" x="0" y="0" text-anchor="start" transform="translate(18.25,92.72272727272721)" style="cursor: default; font-family: 'Open Sans', verdana, arial, sans-serif; font-size: 12px; fill: rgb(42, 63, 95); fill-opacity: 1; white-space: pre; text-shadow: white 1px 1px 1px, white -1px -1px 1px, white 1px -1px 1px, white -1px 1px 1px;">22384</text></g><g class="sankey-node" transform="translate(0.000,377.045)" style="opacity: 1;"><rect class="node-rect" width="15" height="179.2045454545456" style="stroke-width: 0.5; stroke: rgb(0, 0, 0); stroke-opacity: 1; fill: rgb(128, 128, 128); fill-opacity: 1;"/><text class="node-label" data-notex="1" x="0" y="0" text-anchor="start" transform="translate(18.25,93.80227272727281)" style="cursor: default; font-family: 'Open Sans', verdana, arial, sans-serif; font-size: 12px; fill: rgb(42, 63, 95); fill-opacity: 1; white-space: pre; text-shadow: white 1px 1px 1px, white -1px -1px 1px, white 1px -1px 1px, white -1px 1px 1px;">22670</text></g><g class="sankey-node" transform="translate(750.000,92.159)" style="opacity: 1;"><rect class="node-rect" width="15" height="136.02272727272742" style="stroke-width: 0.5; stroke: rgb(0, 0, 0); stroke-opacity: 1; fill: rgb(128, 128, 128); fill-opacity: 1;"/><text class="node-label" data-notex="1" x="0" y="0" text-anchor="start" transform="translate(18.25,72.21136363636371)" style="cursor: default; font-family: 'Open Sans', verdana, arial, sans-serif; font-size: 12px; fill: rgb(42, 63, 95); fill-opacity: 1; white-space: pre; text-shadow: white 1px 1px 1px, white -1px -1px 1px, white 1px -1px 1px, white -1px 1px 1px;">dig</text></g><g class="sankey-node" transform="translate(750.000,385.568)" style="opacity: 1;"><rect class="node-rect" width="15" height="146.81818181818147" style="stroke-width: 0.5; stroke: rgb(0, 0, 0); stroke-opacity: 1; fill: rgb(128, 128, 128); fill-opacity: 1;"/><text class="node-label" data-notex="1" x="0" y="0" text-anchor="start" transform="translate(18.25,77.60909090909074)" style="cursor: default; font-family: 'Open Sans', verdana, arial, sans-serif; font-size: 12px; fill: rgb(42, 63, 95); fill-opacity: 1; white-space: pre; text-shadow: white 1px 1px 1px, white -1px -1px 1px, white 1px -1px 1px, white -1px 1px 1px;">walk</text></g><g class="sankey-node" transform="translate(750.000,243.182)" style="opacity: 1;"><rect class="node-rect" width="15" height="127.38636363636402" style="stroke-width: 0.5; stroke: rgb(0, 0, 0); stroke-opacity: 1; fill: rgb(128, 128, 128); fill-opacity: 1;"/><text class="node-label" data-notex="1" x="0" y="0" text-anchor="start" transform="translate(18.25,67.89318181818201)" style="cursor: default; font-family: 'Open Sans', verdana, arial, sans-serif; font-size: 12px; fill: rgb(42, 63, 95); fill-opacity: 1; white-space: pre; text-shadow: white 1px 1px 1px, white -1px -1px 1px, white 1px -1px 1px, white -1px 1px 1px;">wallclimb</text></g><g class="sankey-node" transform="translate(750.000,547.386)" style="opacity: 1;"><rect class="node-rect" width="15" height="73.40909090909099" style="stroke-width: 0.5; stroke: rgb(0, 0, 0); stroke-opacity: 1; fill: rgb(128, 128, 128); fill-opacity: 1;"/><text class="node-label" data-notex="1" x="0" y="0" text-anchor="start" transform="translate(18.25,40.9045454545455)" style="cursor: default; font-family: 'Open Sans', verdana, arial, sans-serif; font-size: 12px; fill: rgb(42, 63, 95); fill-opacity: 1; white-space: pre; text-shadow: white 1px 1px 1px, white -1px -1px 1px, white 1px -1px 1px, white -1px 1px 1px;">groom_front</text></g><g class="sankey-node" transform="translate(750.000,635.795)" style="opacity: 1;"><rect class="node-rect" width="15" height="84.20454545454538" style="stroke-width: 0.5; stroke: rgb(0, 0, 0); stroke-opacity: 1; fill: rgb(128, 128, 128); fill-opacity: 1;"/><text class="node-label" data-notex="1" x="0" y="0" text-anchor="start" transform="translate(18.25,46.302272727272694)" style="cursor: default; font-family: 'Open Sans', verdana, arial, sans-serif; font-size: 12px; fill: rgb(42, 63, 95); fill-opacity: 1; white-space: pre; text-shadow: white 1px 1px 1px, white -1px -1px 1px, white 1px -1px 1px, white -1px 1px 1px;">still</text></g><g class="sankey-node" transform="translate(1125.000,92.727)" style="opacity: 1;"><rect class="node-rect" width="15" height="58.29545454545453" style="stroke-width: 0.5; stroke: rgb(0, 0, 0); stroke-opacity: 1; fill: rgb(128, 128, 128); fill-opacity: 1;"/><text class="node-label" data-notex="1" x="0" y="0" text-anchor="end" transform="translate(-3.25,33.34772727272727)" style="cursor: default; font-family: 'Open Sans', verdana, arial, sans-serif; font-size: 12px; fill: rgb(42, 63, 95); fill-opacity: 1; white-space: pre; text-shadow: white 1px 1px 1px, white -1px -1px 1px, white 1px -1px 1px, white -1px 1px 1px;">dig-suppressed</text></g><g class="sankey-node" transform="translate(1125.000,166.023)" style="opacity: 1;"><rect class="node-rect" width="15" height="62.6136363636364" style="stroke-width: 0.5; stroke: rgb(0, 0, 0); stroke-opacity: 1; fill: rgb(128, 128, 128); fill-opacity: 1;"/><text class="node-label" data-notex="1" x="0" y="0" text-anchor="end" transform="translate(-3.25,35.506818181818204)" style="cursor: default; font-family: 'Open Sans', verdana, arial, sans-serif; font-size: 12px; fill: rgb(42, 63, 95); fill-opacity: 1; white-space: pre; text-shadow: white 1px 1px 1px, white -1px -1px 1px, white 1px -1px 1px, white -1px 1px 1px;">wallclimb-suppressed</text></g><g class="sankey-node" transform="translate(1125.000,-0.000)" style="opacity: 1;"><rect class="node-rect" width="15" height="77.72727272727272" style="stroke-width: 0.5; stroke: rgb(0, 0, 0); stroke-opacity: 1; fill: rgb(128, 128, 128); fill-opacity: 1;"/><text class="node-label" data-notex="1" x="0" y="0" text-anchor="end" transform="translate(-3.25,43.06363636363636)" style="cursor: default; font-family: 'Open Sans', verdana, arial, sans-serif; font-size: 12px; fill: rgb(42, 63, 95); fill-opacity: 1; white-space: pre; text-shadow: white 1px 1px 1px, white -1px -1px 1px, white 1px -1px 1px, white -1px 1px 1px;">dig-activated</text></g><g class="sankey-node" transform="translate(1125.000,243.636)" style="opacity: 1;"><rect class="node-rect" width="15" height="64.77272727272737" style="stroke-width: 0.5; stroke: rgb(0, 0, 0); stroke-opacity: 1; fill: rgb(128, 128, 128); fill-opacity: 1;"/><text class="node-label" data-notex="1" x="0" y="0" text-anchor="end" transform="translate(-3.25,36.586363636363686)" style="cursor: default; font-family: 'Open Sans', verdana, arial, sans-serif; font-size: 12px; fill: rgb(42, 63, 95); fill-opacity: 1; white-space: pre; text-shadow: white 1px 1px 1px, white -1px -1px 1px, white 1px -1px 1px, white -1px 1px 1px;">wallclimb-activated</text></g><g class="sankey-node" transform="translate(1125.000,556.250)" style="opacity: 1;"><rect class="node-rect" width="15" height="32.38636363636351" style="stroke-width: 0.5; stroke: rgb(0, 0, 0); stroke-opacity: 1; fill: rgb(128, 128, 128); fill-opacity: 1;"/><text class="node-label" data-notex="1" x="0" y="0" text-anchor="end" transform="translate(-3.25,20.393181818181755)" style="cursor: default; font-family: 'Open Sans', verdana, arial, sans-serif; font-size: 12px; fill: rgb(42, 63, 95); fill-opacity: 1; white-space: pre; text-shadow: white 1px 1px 1px, white -1px -1px 1px, white 1px -1px 1px, white -1px 1px 1px;">groom_front-activated</text></g><g class="sankey-node" transform="translate(1125.000,442.045)" style="opacity: 1;"><rect class="node-rect" width="15" height="43.18181818181813" style="stroke-width: 0.5; stroke: rgb(0, 0, 0); stroke-opacity: 1; fill: rgb(128, 128, 128); fill-opacity: 1;"/><text class="node-label" data-notex="1" x="0" y="0" text-anchor="end" transform="translate(-3.25,25.790909090909064)" style="cursor: default; font-family: 'Open Sans', verdana, arial, sans-serif; font-size: 12px; fill: rgb(42, 63, 95); fill-opacity: 1; white-space: pre; text-shadow: white 1px 1px 1px, white -1px -1px 1px, white 1px -1px 1px, white -1px 1px 1px;">walk-suppressed</text></g><g class="sankey-node" transform="translate(1125.000,323.409)" style="opacity: 1;"><rect class="node-rect" width="15" height="103.63636363636374" style="stroke-width: 0.5; stroke: rgb(0, 0, 0); stroke-opacity: 1; fill: rgb(128, 128, 128); fill-opacity: 1;"/><text class="node-label" data-notex="1" x="0" y="0" text-anchor="end" transform="translate(-3.25,56.01818181818187)" style="cursor: default; font-family: 'Open Sans', verdana, arial, sans-serif; font-size: 12px; fill: rgb(42, 63, 95); fill-opacity: 1; white-space: pre; text-shadow: white 1px 1px 1px, white -1px -1px 1px, white 1px -1px 1px, white -1px 1px 1px;">walk-activated</text></g><g class="sankey-node" transform="translate(1125.000,500.227)" style="opacity: 1;"><rect class="node-rect" width="15" height="41.02272727272782" style="stroke-width: 0.5; stroke: rgb(0, 0, 0); stroke-opacity: 1; fill: rgb(128, 128, 128); fill-opacity: 1;"/><text class="node-label" data-notex="1" x="0" y="0" text-anchor="end" transform="translate(-3.25,24.71136363636391)" style="cursor: default; font-family: 'Open Sans', verdana, arial, sans-serif; font-size: 12px; fill: rgb(42, 63, 95); fill-opacity: 1; white-space: pre; text-shadow: white 1px 1px 1px, white -1px -1px 1px, white 1px -1px 1px, white -1px 1px 1px;">groom_front-suppressed</text></g><g class="sankey-node" transform="translate(1125.000,603.636)" style="opacity: 1;"><rect class="node-rect" width="15" height="73.40909090909088" style="stroke-width: 0.5; stroke: rgb(0, 0, 0); stroke-opacity: 1; fill: rgb(128, 128, 128); fill-opacity: 1;"/><text class="node-label" data-notex="1" x="0" y="0" text-anchor="end" transform="translate(-3.25,40.90454545454544)" style="cursor: default; font-family: 'Open Sans', verdana, arial, sans-serif; font-size: 12px; fill: rgb(42, 63, 95); fill-opacity: 1; white-space: pre; text-shadow: white 1px 1px 1px, white -1px -1px 1px, white 1px -1px 1px, white -1px 1px 1px;">still-suppressed</text></g><g class="sankey-node" transform="translate(1125.000,692.045)" style="opacity: 1;"><rect class="node-rect" width="15" height="10.795454545454504" style="stroke-width: 0.5; stroke: rgb(0, 0, 0); stroke-opacity: 1; fill: rgb(128, 128, 128); fill-opacity: 1;"/><text class="node-label" data-notex="1" x="0" y="0" text-anchor="end" transform="translate(-3.25,9.597727272727251)" style="cursor: default; font-family: 'Open Sans', verdana, arial, sans-serif; font-size: 12px; fill: rgb(42, 63, 95); fill-opacity: 1; white-space: pre; text-shadow: white 1px 1px 1px, white -1px -1px 1px, white 1px -1px 1px, white -1px 1px 1px;">still-activated</text></g><g class="sankey-node" transform="translate(375.000,347.159)" style="opacity: 1;"><rect class="node-rect" width="15" height="97.15909090909122" style="stroke-width: 0.5; stroke: rgb(0, 0, 0); stroke-opacity: 1; fill: rgb(99, 110, 250); fill-opacity: 1;"/><text class="node-label" data-notex="1" x="0" y="0" text-anchor="start" transform="translate(18.25,52.77954545454561)" style="cursor: default; font-family: 'Open Sans', verdana, arial, sans-serif; font-size: 12px; fill: rgb(42, 63, 95); fill-opacity: 1; white-space: pre; text-shadow: white 1px 1px 1px, white -1px -1px 1px, white 1px -1px 1px, white -1px 1px 1px;">Cla</text></g><g class="sankey-node" transform="translate(375.000,25.682)" style="opacity: 1;"><rect class="node-rect" width="15" height="250.45454545454515" style="stroke-width: 0.5; stroke: rgb(0, 0, 0); stroke-opacity: 1; fill: rgb(239, 85, 59); fill-opacity: 1;"/><text class="node-label" data-notex="1" x="0" y="0" text-anchor="start" transform="translate(18.25,129.42727272727257)" style="cursor: default; font-family: 'Open Sans', verdana, arial, sans-serif; font-size: 12px; fill: rgb(42, 63, 95); fill-opacity: 1; white-space: pre; text-shadow: white 1px 1px 1px, white -1px -1px 1px, white 1px -1px 1px, white -1px 1px 1px;">VTA</text></g><g class="sankey-node" transform="translate(375.000,592.955)" style="opacity: 1;"><rect class="node-rect" width="15" height="28.068181818181756" style="stroke-width: 0.5; stroke: rgb(0, 0, 0); stroke-opacity: 1; fill: rgb(0, 204, 150); fill-opacity: 1;"/><text class="node-label" data-notex="1" x="0" y="0" text-anchor="start" transform="translate(18.25,18.234090909090877)" style="cursor: default; font-family: 'Open Sans', verdana, arial, sans-serif; font-size: 12px; fill: rgb(42, 63, 95); fill-opacity: 1; white-space: pre; text-shadow: white 1px 1px 1px, white -1px -1px 1px, white 1px -1px 1px, white -1px 1px 1px;">LC</text></g><g class="sankey-node" transform="translate(375.000,521.818)" style="opacity: 1;"><rect class="node-rect" width="15" height="56.13636363636374" style="stroke-width: 0.5; stroke: rgb(0, 0, 0); stroke-opacity: 1; fill: rgb(171, 99, 250); fill-opacity: 1;"/><text class="node-label" data-notex="1" x="0" y="0" text-anchor="start" transform="translate(18.25,32.26818181818187)" style="cursor: default; font-family: 'Open Sans', verdana, arial, sans-serif; font-size: 12px; fill: rgb(42, 63, 95); fill-opacity: 1; white-space: pre; text-shadow: white 1px 1px 1px, white -1px -1px 1px, white 1px -1px 1px, white -1px 1px 1px;">Str</text></g><g class="sankey-node" transform="translate(375.000,670.455)" style="opacity: 1;"><rect class="node-rect" width="15" height="23.75" style="stroke-width: 0.5; stroke: rgb(0, 0, 0); stroke-opacity: 1; fill: rgb(255, 161, 90); fill-opacity: 1;"/><text class="node-label" data-notex="1" x="0" y="0" text-anchor="start" transform="translate(18.25,16.075)" style="cursor: default; font-family: 'Open Sans', verdana, arial, sans-serif; font-size: 12px; fill: rgb(42, 63, 95); fill-opacity: 1; white-space: pre; text-shadow: white 1px 1px 1px, white -1px -1px 1px, white 1px -1px 1px, white -1px 1px 1px;">NAc</text></g><g class="sankey-node" transform="translate(375.000,709.205)" style="opacity: 1;"><rect class="node-rect" width="15" height="10.795454545454504" style="stroke-width: 0.5; stroke: rgb(0, 0, 0); stroke-opacity: 1; fill: rgb(25, 211, 243); fill-opacity: 1;"/><text class="node-label" data-notex="1" x="0" y="0" text-anchor="start" transform="translate(18.25,9.597727272727251)" style="cursor: default; font-family: 'Open Sans', verdana, arial, sans-serif; font-size: 12px; fill: rgb(42, 63, 95); fill-opacity: 1; white-space: pre; text-shadow: white 1px 1px 1px, white -1px -1px 1px, white 1px -1px 1px, white -1px 1px 1px;">BLA</text></g><g class="sankey-node" transform="translate(1125.000,717.841)" style="opacity: 1;"><rect class="node-rect" width="15" height="2.1590909090909918" style="stroke-width: 0.5; stroke: rgb(0, 0, 0); stroke-opacity: 1; fill: rgb(255, 102, 146); fill-opacity: 1;"/><text class="node-label" data-notex="1" x="0" y="0" text-anchor="end" transform="translate(-3.25,5.279545454545495)" style="cursor: default; font-family: 'Open Sans', verdana, arial, sans-serif; font-size: 12px; fill: rgb(42, 63, 95); fill-opacity: 1; white-space: pre; text-shadow: white 1px 1px 1px, white -1px -1px 1px, white 1px -1px 1px, white -1px 1px 1px;">lHb</text></g><g class="sankey-node" transform="translate(375.000,459.318)" style="opacity: 1;"><rect class="node-rect" width="15" height="47.5" style="stroke-width: 0.5; stroke: rgb(0, 0, 0); stroke-opacity: 1; fill: rgb(182, 232, 128); fill-opacity: 1;"/><text class="node-label" data-notex="1" x="0" y="0" text-anchor="start" transform="translate(18.25,27.95)" style="cursor: default; font-family: 'Open Sans', verdana, arial, sans-serif; font-size: 12px; fill: rgb(42, 63, 95); fill-opacity: 1; white-space: pre; text-shadow: white 1px 1px 1px, white -1px -1px 1px, white 1px -1px 1px, white -1px 1px 1px;">cPFC</text></g><g class="sankey-node" transform="translate(375.000,636.023)" style="opacity: 1;"><rect class="node-rect" width="15" height="19.431818181818016" style="stroke-width: 0.5; stroke: rgb(0, 0, 0); stroke-opacity: 1; fill: rgb(255, 151, 255); fill-opacity: 1;"/><text class="node-label" data-notex="1" x="0" y="0" text-anchor="start" transform="translate(18.25,13.915909090909008)" style="cursor: default; font-family: 'Open Sans', verdana, arial, sans-serif; font-size: 12px; fill: rgb(42, 63, 95); fill-opacity: 1; white-space: pre; text-shadow: white 1px 1px 1px, white -1px -1px 1px, white 1px -1px 1px, white -1px 1px 1px;">dPAG</text></g><g class="sankey-node" transform="translate(375.000,291.136)" style="opacity: 1;"><rect class="node-rect" width="15" height="41.02272727272725" style="stroke-width: 0.5; stroke: rgb(0, 0, 0); stroke-opacity: 1; fill: rgb(254, 203, 82); fill-opacity: 1;"/><text class="node-label" data-notex="1" x="0" y="0" text-anchor="start" transform="translate(18.25,24.711363636363625)" style="cursor: default; font-family: 'Open Sans', verdana, arial, sans-serif; font-size: 12px; fill: rgb(42, 63, 95); fill-opacity: 1; white-space: pre; text-shadow: white 1px 1px 1px, white -1px -1px 1px, white 1px -1px 1px, white -1px 1px 1px;">LHyp</text></g></g></g><defs id="topdefs-e39486"><g class="clips"/></defs><g class="layer-above"><g class="imagelayer"/><g class="shapelayer"/></g><g class="infolayer"><g class="g-gtitle"/><g class="first-render"/></g></svg>