<svg class="main-svg" xmlns="http://www.w3.org/2000/svg" xmlns:xlink="http://www.w3.org/1999/xlink" width="1300" height="900" style="" viewBox="0 0 1300 900"><rect x="0" y="0" width="1300" height="900" style="fill: rgb(255, 255, 255); fill-opacity: 1;"/><defs id="defs-81ad2e"><g class="clips"/><g class="gradients"/><g class="patterns"/></defs><g class="bglayer"/><g class="layer-below"><g class="imagelayer"/><g class="shapelayer"/></g><g class="cartesianlayer"/><g class="polarlayer"/><g class="smithlayer"/><g class="ternarylayer"/><g class="geolayer"/><g class="funnelarealayer"/><g class="pielayer"/><g class="iciclelayer"/><g class="treemaplayer"/><g class="sunburstlayer"/><g class="glimages"/><g class="sankey" transform="translate(80,100)matrix(1 0 0 1 0 0)" style="box-sizing: content-box; position: absolute; left: 0px; shape-rendering: geometricprecision; pointer-events: none;"><g class="sankey-links" style="fill: none;"><path class="sankey-link" d="M15,427.8992903644528C195,427.8992903644528 195,18.952483801296808 375,18.952483801296808L375,20.2159827213832C195,20.2159827213832 195,429.16278928453914 15,429.16278928453914Z" style="stroke: rgb(68, 68, 68); stroke-opacity: 1; fill: rgb(25, 211, 243); fill-opacity: 0.6; stroke-width: 0; opacity: 1;"/><path class="sankey-link" d="M15,458.22326444652623C195,458.22326444652623 195,369.39524838013045 375,369.39524838013045L375,384.55723542116715C195,384.55723542116715 195,473.3852514875629 15,473.3852514875629Z" style="stroke: rgb(68, 68, 68); stroke-opacity: 1; fill: rgb(0, 204, 150); fill-opacity: 0.6; stroke-width: 0; opacity: 1;"/><path class="sankey-link" d="M15,451.90576984609424C195,451.90576984609424 195,269.7408207343424 375,269.7408207343424L375,276.0583153347743C195,276.0583153347743 195,458.2232644465262 15,458.2232644465262Z" style="stroke: rgb(68, 68, 68); stroke-opacity: 1; fill: rgb(239, 85, 59); fill-opacity: 0.6; stroke-width: 0; opacity: 1;"/><path class="sankey-link" d="M15,431.689787124712C195,431.689787124712 195,83.06695464362946 375,83.06695464362946L375,90.6479481641478C195,90.6479481641478 195,439.2707806452304 15,439.2707806452304Z" style="stroke: rgb(68, 68, 68); stroke-opacity: 1; fill: rgb(255, 161, 90); fill-opacity: 0.6; stroke-width: 0; opacity: 1;"/><path class="sankey-link" d="M15,439.27078064523033C195,439.27078064523033 195,166.29589632829487 375,166.29589632829487L375,178.9308855291588C195,178.9308855291588 195,451.9057698460943 15,451.9057698460943Z" style="stroke: rgb(68, 68, 68); stroke-opacity: 1; fill: rgb(171, 99, 250); fill-opacity: 0.6; stroke-width: 0; opacity: 1;"/><path class="sankey-link" d="M15,473.3852514875629C195,473.3852514875629 195,545.7991360691146 375,545.7991360691146L375,548.3261339092874C195,548.3261339092874 195,475.91224932773576 15,475.91224932773576Z" style="stroke: rgb(68, 68, 68); stroke-opacity: 1; fill: rgb(99, 110, 250); fill-opacity: 0.6; stroke-width: 0; opacity: 1;"/><path class="sankey-link" d="M15,429.1627892845392C195,429.1627892845392 195,47.85097192224706 375,47.85097192224706L375,50.377969762419845C195,50.377969762419845 195,431.68978712471204 15,431.68978712471204Z" style="stroke: rgb(68, 68, 68); stroke-opacity: 1; fill: rgb(255, 102, 146); fill-opacity: 0.6; stroke-width: 0; opacity: 1;"/><path class="sankey-link" d="M15,217.05695775106165C195,217.05695775106165 195,9.094947017729282e-13 375,9.094947017729282e-13L375,18.952483801296808C195,18.952483801296808 195,236.00944155235754 15,236.00944155235754Z" style="stroke: rgb(68, 68, 68); stroke-opacity: 1; fill: rgb(25, 211, 243); fill-opacity: 0.6; stroke-width: 0; opacity: 1;"/><path class="sankey-link" d="M15,334.5623573190962C195,334.5623573190962 195,337.80777537797064 375,337.80777537797064L375,369.3952483801305C195,369.3952483801305 195,366.14983032125605 15,366.14983032125605Z" style="stroke: rgb(68, 68, 68); stroke-opacity: 1; fill: rgb(0, 204, 150); fill-opacity: 0.6; stroke-width: 0; opacity: 1;"/><path class="sankey-link" d="M15,301.71138539684995C195,301.71138539684995 195,236.88984881209615 375,236.88984881209615L375,269.7408207343424C195,269.7408207343424 195,334.5623573190962 15,334.5623573190962Z" style="stroke: rgb(68, 68, 68); stroke-opacity: 1; fill: rgb(239, 85, 59); fill-opacity: 0.6; stroke-width: 0; opacity: 1;"/><path class="sankey-link" d="M15,239.79993831261672C195,239.79993831261672 195,66.64146868250634 375,66.64146868250634L375,83.06695464362946C195,83.06695464362946 195,256.2254242737398 15,256.2254242737398Z" style="stroke: rgb(68, 68, 68); stroke-opacity: 1; fill: rgb(255, 161, 90); fill-opacity: 0.6; stroke-width: 0; opacity: 1;"/><path class="sankey-link" d="M15,256.2254242737398C195,256.2254242737398 195,120.80993520518473 375,120.80993520518473L375,166.29589632829487C195,166.29589632829487 195,301.71138539685 15,301.71138539685Z" style="stroke: rgb(68, 68, 68); stroke-opacity: 1; fill: rgb(171, 99, 250); fill-opacity: 0.6; stroke-width: 0; opacity: 1;"/><path class="sankey-link" d="M15,401.527800083675C195,401.527800083675 195,534.4276457883371 375,534.4276457883371L375,545.7991360691148C195,545.7991360691148 195,412.8992903644525 15,412.8992903644525Z" style="stroke: rgb(68, 68, 68); stroke-opacity: 1; fill: rgb(99, 110, 250); fill-opacity: 0.6; stroke-width: 0; opacity: 1;"/><path class="sankey-link" d="M15,380.0483184422063C195,380.0483184422063 195,476.4686825053999 375,476.4686825053999L375,497.94816414686863C195,497.94816414686863 195,401.52780008367506 15,401.52780008367506Z" style="stroke: rgb(68, 68, 68); stroke-opacity: 1; fill: rgb(255, 151, 255); fill-opacity: 0.6; stroke-width: 0; opacity: 1;"/><path class="sankey-link" d="M15,366.149830321256C195,366.149830321256 195,436.19870410367207 375,436.19870410367207L375,450.0971922246224C195,450.0971922246224 195,380.0483184422063 15,380.0483184422063Z" style="stroke: rgb(68, 68, 68); stroke-opacity: 1; fill: rgb(182, 232, 128); fill-opacity: 0.6; stroke-width: 0; opacity: 1;"/><path class="sankey-link" d="M15,236.00944155235754C195,236.00944155235754 195,44.06047516198788 375,44.06047516198788L375,47.850971922247055C195,47.850971922247055 195,239.79993831261675 15,239.79993831261675Z" style="stroke: rgb(68, 68, 68); stroke-opacity: 1; fill: rgb(255, 102, 146); fill-opacity: 0.6; stroke-width: 0; opacity: 1;"/><path class="sankey-link" d="M15,490.9122493277357C195,490.9122493277357 195,20.2159827213832 375,20.2159827213832L375,21.47948164146959C195,21.47948164146959 195,492.17574824782207 15,492.17574824782207Z" style="stroke: rgb(68, 68, 68); stroke-opacity: 1; fill: rgb(25, 211, 243); fill-opacity: 0.6; stroke-width: 0; opacity: 1;"/><path class="sankey-link" d="M15,494.70274608799497C195,494.70274608799497 195,384.55723542116715 375,384.55723542116715L375,388.34773218142635C195,388.34773218142635 195,498.49324284825417 15,498.49324284825417Z" style="stroke: rgb(68, 68, 68); stroke-opacity: 1; fill: rgb(0, 204, 150); fill-opacity: 0.6; stroke-width: 0; opacity: 1;"/><path class="sankey-link" d="M15,492.1757482478221C195,492.1757482478221 195,90.64794816414782 375,90.64794816414782L375,91.91144708423421C195,91.91144708423421 195,493.4392471679085 15,493.4392471679085Z" style="stroke: rgb(68, 68, 68); stroke-opacity: 1; fill: rgb(255, 161, 90); fill-opacity: 0.6; stroke-width: 0; opacity: 1;"/><path class="sankey-link" d="M15,493.43924716790855C195,493.43924716790855 195,178.93088552915881 375,178.93088552915881L375,180.19438444924523C195,180.19438444924523 195,494.7027460879949 15,494.7027460879949Z" style="stroke: rgb(68, 68, 68); stroke-opacity: 1; fill: rgb(171, 99, 250); fill-opacity: 0.6; stroke-width: 0; opacity: 1;"/><path class="sankey-link" d="M15,499.7567417683406C195,499.7567417683406 195,497.9481641468686 375,497.9481641468686L375,500.4751619870414C195,500.4751619870414 195,502.28373960851343 15,502.28373960851343Z" style="stroke: rgb(68, 68, 68); stroke-opacity: 1; fill: rgb(255, 151, 255); fill-opacity: 0.6; stroke-width: 0; opacity: 1;"/><path class="sankey-link" d="M15,498.49324284825417C195,498.49324284825417 195,450.0971922246224 375,450.0971922246224L375,451.36069114470877C195,451.36069114470877 195,499.75674176834053 15,499.75674176834053Z" style="stroke: rgb(68, 68, 68); stroke-opacity: 1; fill: rgb(182, 232, 128); fill-opacity: 0.6; stroke-width: 0; opacity: 1;"/><path class="sankey-link" d="M15,534.9727244897227C195,534.9727244897227 195,388.34773218142635 375,388.34773218142635L375,395.92872570194476C195,395.92872570194476 195,542.5537180102411 15,542.5537180102411Z" style="stroke: rgb(68, 68, 68); stroke-opacity: 1; fill: rgb(0, 204, 150); fill-opacity: 0.6; stroke-width: 0; opacity: 1;"/><path class="sankey-link" d="M15,528.6552298892908C195,528.6552298892908 195,276.05831533477436 375,276.05831533477436L375,282.3758099352063C195,282.3758099352063 195,534.9727244897227 15,534.9727244897227Z" style="stroke: rgb(68, 68, 68); stroke-opacity: 1; fill: rgb(239, 85, 59); fill-opacity: 0.6; stroke-width: 0; opacity: 1;"/><path class="sankey-link" d="M15,596.884171573956C195,596.884171573956 195,684.6220302375809 375,684.6220302375809L375,694.7300215982721C195,694.7300215982721 195,606.9921629346471 15,606.9921629346471Z" style="stroke: rgb(68, 68, 68); stroke-opacity: 1; fill: rgb(254, 203, 82); fill-opacity: 0.6; stroke-width: 0; opacity: 1;"/><path class="sankey-link" d="M15,517.2837396085133C195,517.2837396085133 195,180.1943844492452 375,180.1943844492452L375,191.56587473002276C195,191.56587473002276 195,528.6552298892909 15,528.6552298892909Z" style="stroke: rgb(68, 68, 68); stroke-opacity: 1; fill: rgb(171, 99, 250); fill-opacity: 0.6; stroke-width: 0; opacity: 1;"/><path class="sankey-link" d="M15,552.6617093709323C195,552.6617093709323 195,548.3261339092875 375,548.3261339092875L375,592.5485961123112C195,592.5485961123112 195,596.884171573956 15,596.884171573956Z" style="stroke: rgb(68, 68, 68); stroke-opacity: 1; fill: rgb(99, 110, 250); fill-opacity: 0.6; stroke-width: 0; opacity: 1;"/><path class="sankey-link" d="M15,543.8172169303275C195,543.8172169303275 195,500.47516198704136 375,500.47516198704136L375,509.3196544276461C195,509.3196544276461 195,552.6617093709322 15,552.6617093709322Z" style="stroke: rgb(68, 68, 68); stroke-opacity: 1; fill: rgb(255, 151, 255); fill-opacity: 0.6; stroke-width: 0; opacity: 1;"/><path class="sankey-link" d="M15,542.5537180102411C195,542.5537180102411 195,451.3606911447088 375,451.3606911447088L375,452.6241900647952C195,452.6241900647952 195,543.8172169303276 15,543.8172169303276Z" style="stroke: rgb(68, 68, 68); stroke-opacity: 1; fill: rgb(182, 232, 128); fill-opacity: 0.6; stroke-width: 0; opacity: 1;"/><path class="sankey-link" d="M15,639.6811478158568C195,639.6811478158568 195,395.9287257019447 375,395.9287257019447L375,403.5097192224631C195,403.5097192224631 195,647.2621413363752 15,647.2621413363752Z" style="stroke: rgb(68, 68, 68); stroke-opacity: 1; fill: rgb(0, 204, 150); fill-opacity: 0.6; stroke-width: 0; opacity: 1;"/><path class="sankey-link" d="M15,633.3636532154248C195,633.3636532154248 195,282.37580993520635 375,282.37580993520635L375,288.6933045356383C195,288.6933045356383 195,639.6811478158568 15,639.6811478158568Z" style="stroke: rgb(68, 68, 68); stroke-opacity: 1; fill: rgb(239, 85, 59); fill-opacity: 0.6; stroke-width: 0; opacity: 1;"/><path class="sankey-link" d="M15,701.59259490009C195,701.59259490009 195,694.7300215982721 375,694.7300215982721L375,704.8380129589632C195,704.8380129589632 195,711.7005862607812 15,711.7005862607812Z" style="stroke: rgb(68, 68, 68); stroke-opacity: 1; fill: rgb(254, 203, 82); fill-opacity: 0.6; stroke-width: 0; opacity: 1;"/><path class="sankey-link" d="M15,621.9921629346474C195,621.9921629346474 195,191.56587473002276 375,191.56587473002276L375,202.9373650108003C195,202.9373650108003 195,633.363653215425 15,633.363653215425Z" style="stroke: rgb(68, 68, 68); stroke-opacity: 1; fill: rgb(171, 99, 250); fill-opacity: 0.6; stroke-width: 0; opacity: 1;"/><path class="sankey-link" d="M15,657.3701326970663C195,657.3701326970663 195,592.5485961123112 375,592.5485961123112L375,636.7710583153349C195,636.7710583153349 195,701.59259490009 15,701.59259490009Z" style="stroke: rgb(68, 68, 68); stroke-opacity: 1; fill: rgb(99, 110, 250); fill-opacity: 0.6; stroke-width: 0; opacity: 1;"/><path class="sankey-link" d="M15,648.5256402564615C195,648.5256402564615 195,509.31965442764607 375,509.31965442764607L375,518.1641468682508C195,518.1641468682508 195,657.3701326970662 15,657.3701326970662Z" style="stroke: rgb(68, 68, 68); stroke-opacity: 1; fill: rgb(255, 151, 255); fill-opacity: 0.6; stroke-width: 0; opacity: 1;"/><path class="sankey-link" d="M15,647.2621413363752C195,647.2621413363752 195,452.62419006479524 375,452.62419006479524L375,453.8876889848816C195,453.8876889848816 195,648.5256402564617 15,648.5256402564617Z" style="stroke: rgb(68, 68, 68); stroke-opacity: 1; fill: rgb(182, 232, 128); fill-opacity: 0.6; stroke-width: 0; opacity: 1;"/><path class="sankey-link" d="M390,15.161987041037627C570,15.161987041037627 570,308.5853131749464 750,308.5853131749464L750,314.90280777537834C570,314.90280777537834 570,21.47948164146959 390,21.47948164146959Z" style="stroke: rgb(68, 68, 68); stroke-opacity: 1; fill: rgb(25, 211, 243); fill-opacity: 0.6; stroke-width: 0; opacity: 1;"/><path class="sankey-link" d="M390,9.094947017729282e-13C570,9.094947017729282e-13 570,75.0000000000004 750,75.0000000000004L750,90.16198704103712C570,90.16198704103712 570,15.161987041037627 390,15.161987041037627Z" style="stroke: rgb(68, 68, 68); stroke-opacity: 1; fill: rgb(25, 211, 243); fill-opacity: 0.6; stroke-width: 0; opacity: 1;"/><path class="sankey-link" d="M390,21.47948164146959C570,21.47948164146959 570,461.3066954643632 750,461.3066954643632L750,468.8876889848816C570,468.8876889848816 570,29.060475161987952 390,29.060475161987952Z" style="stroke: rgb(68, 68, 68); stroke-opacity: 1; fill: rgb(25, 211, 243); fill-opacity: 0.6; stroke-width: 0; opacity: 1;"/><path class="sankey-link" d="M390,369.39524838013045C570,369.39524838013045 570,371.76025917926614 750,371.76025917926614L750,391.9762419006484C570,391.9762419006484 570,389.6112311015127 390,389.6112311015127Z" style="stroke: rgb(68, 68, 68); stroke-opacity: 1; fill: rgb(0, 204, 150); fill-opacity: 0.6; stroke-width: 0; opacity: 1;"/><path class="sankey-link" d="M390,419.9352051835862C570,419.9352051835862 570,684.622030237581 750,684.622030237581L750,685.8855291576675C570,685.8855291576675 570,421.1987041036726 390,421.1987041036726Z" style="stroke: rgb(68, 68, 68); stroke-opacity: 1; fill: rgb(0, 204, 150); fill-opacity: 0.6; stroke-width: 0; opacity: 1;"/><path class="sankey-link" d="M390,417.40820734341344C570,417.40820734341344 570,634.244060475162 750,634.244060475162L750,636.7710583153347C570,636.7710583153347 570,419.9352051835863 390,419.9352051835863Z" style="stroke: rgb(68, 68, 68); stroke-opacity: 1; fill: rgb(0, 204, 150); fill-opacity: 0.6; stroke-width: 0; opacity: 1;"/><path class="sankey-link" d="M390,337.80777537797064C570,337.80777537797064 570,184.92440604751658 750,184.92440604751658L750,216.5118790496764C570,216.5118790496764 570,369.3952483801305 390,369.3952483801305Z" style="stroke: rgb(68, 68, 68); stroke-opacity: 1; fill: rgb(0, 204, 150); fill-opacity: 0.6; stroke-width: 0; opacity: 1;"/><path class="sankey-link" d="M390,389.6112311015128C570,389.6112311015128 570,535.8531317494604 750,535.8531317494604L750,563.6501079913611C570,563.6501079913611 570,417.40820734341344 390,417.40820734341344Z" style="stroke: rgb(68, 68, 68); stroke-opacity: 1; fill: rgb(0, 204, 150); fill-opacity: 0.6; stroke-width: 0; opacity: 1;"/><path class="sankey-link" d="M390,264.6868250539968C570,264.6868250539968 570,349.01727861771104 750,349.01727861771104L750,371.76025917926614C570,371.76025917926614 570,287.4298056155519 390,287.4298056155519Z" style="stroke: rgb(68, 68, 68); stroke-opacity: 1; fill: rgb(239, 85, 59); fill-opacity: 0.6; stroke-width: 0; opacity: 1;"/><path class="sankey-link" d="M390,319.0172786177117C570,319.0172786177117 570,680.8315334773218 750,680.8315334773218L750,684.622030237581C570,684.622030237581 570,322.8077753779709 390,322.8077753779709Z" style="stroke: rgb(68, 68, 68); stroke-opacity: 1; fill: rgb(239, 85, 59); fill-opacity: 0.6; stroke-width: 0; opacity: 1;"/><path class="sankey-link" d="M390,316.49028077753894C570,316.49028077753894 570,631.7170626349891 750,631.7170626349891L750,634.2440604751619C570,634.2440604751619 570,319.0172786177118 390,319.0172786177118Z" style="stroke: rgb(68, 68, 68); stroke-opacity: 1; fill: rgb(239, 85, 59); fill-opacity: 0.6; stroke-width: 0; opacity: 1;"/><path class="sankey-link" d="M390,236.88984881209615C570,236.88984881209615 570,157.12742980561595 750,157.12742980561595L750,184.9244060475166C570,184.9244060475166 570,264.6868250539968 390,264.6868250539968Z" style="stroke: rgb(68, 68, 68); stroke-opacity: 1; fill: rgb(239, 85, 59); fill-opacity: 0.6; stroke-width: 0; opacity: 1;"/><path class="sankey-link" d="M390,287.4298056155519C570,287.4298056155519 570,506.79265658747335 750,506.79265658747335L750,535.8531317494604C570,535.8531317494604 570,316.49028077753894 390,316.49028077753894Z" style="stroke: rgb(68, 68, 68); stroke-opacity: 1; fill: rgb(239, 85, 59); fill-opacity: 0.6; stroke-width: 0; opacity: 1;"/><path class="sankey-link" d="M390,695.9935205183584C570,695.9935205183584 570,436.1987041036722 750,436.1987041036722L750,446.3066954643633C570,446.3066954643633 570,706.1015118790496 390,706.1015118790496Z" style="stroke: rgb(68, 68, 68); stroke-opacity: 1; fill: rgb(254, 203, 82); fill-opacity: 0.6; stroke-width: 0; opacity: 1;"/><path class="sankey-link" d="M390,712.4190064794815C570,712.4190064794815 570,712.4190064794817 750,712.4190064794817L750,720.0000000000001C570,720.0000000000001 570,719.9999999999999 390,719.9999999999999Z" style="stroke: rgb(68, 68, 68); stroke-opacity: 1; fill: rgb(254, 203, 82); fill-opacity: 0.6; stroke-width: 0; opacity: 1;"/><path class="sankey-link" d="M390,711.1555075593951C570,711.1555075593951 570,662.0410367170626 750,662.0410367170626L750,663.3045356371491C570,663.3045356371491 570,712.4190064794816 390,712.4190064794816Z" style="stroke: rgb(68, 68, 68); stroke-opacity: 1; fill: rgb(254, 203, 82); fill-opacity: 0.6; stroke-width: 0; opacity: 1;"/><path class="sankey-link" d="M390,684.6220302375809C570,684.6220302375809 570,282.21382289416886 750,282.21382289416886L750,293.58531317494635C570,293.58531317494635 570,695.9935205183585 390,695.9935205183585Z" style="stroke: rgb(68, 68, 68); stroke-opacity: 1; fill: rgb(254, 203, 82); fill-opacity: 0.6; stroke-width: 0; opacity: 1;"/><path class="sankey-link" d="M390,706.1015118790496C570,706.1015118790496 570,605.3455723542121 750,605.3455723542121L750,610.3995680345578C570,610.3995680345578 570,711.1555075593952 390,711.1555075593952Z" style="stroke: rgb(68, 68, 68); stroke-opacity: 1; fill: rgb(254, 203, 82); fill-opacity: 0.6; stroke-width: 0; opacity: 1;"/><path class="sankey-link" d="M390,85.59395248380224C570,85.59395248380224 570,317.4298056155512 750,317.4298056155512L750,326.27429805615594C570,326.27429805615594 570,94.43844492440698 390,94.43844492440698Z" style="stroke: rgb(68, 68, 68); stroke-opacity: 1; fill: rgb(255, 161, 90); fill-opacity: 0.6; stroke-width: 0; opacity: 1;"/><path class="sankey-link" d="M390,104.54643628509814C570,104.54643628509814 570,625.3995680345572 750,625.3995680345572L750,626.6630669546437C570,626.6630669546437 570,105.80993520518453 390,105.80993520518453Z" style="stroke: rgb(68, 68, 68); stroke-opacity: 1; fill: rgb(255, 161, 90); fill-opacity: 0.6; stroke-width: 0; opacity: 1;"/><path class="sankey-link" d="M390,66.64146868250634C570,66.64146868250634 570,95.21598272138269 750,95.21598272138269L750,114.16846652267859C570,114.16846652267859 570,85.59395248380224 390,85.59395248380224Z" style="stroke: rgb(68, 68, 68); stroke-opacity: 1; fill: rgb(255, 161, 90); fill-opacity: 0.6; stroke-width: 0; opacity: 1;"/><path class="sankey-link" d="M390,94.43844492440701C570,94.43844492440701 570,468.88768898488155 750,468.88768898488155L750,478.9956803455727C570,478.9956803455727 570,104.54643628509814 390,104.54643628509814Z" style="stroke: rgb(68, 68, 68); stroke-opacity: 1; fill: rgb(255, 161, 90); fill-opacity: 0.6; stroke-width: 0; opacity: 1;"/><path class="sankey-link" d="M390,163.7688984881221C570,163.7688984881221 570,326.27429805615594 750,326.27429805615594L750,349.01727861771104C570,349.01727861771104 570,186.5118790496772 390,186.5118790496772Z" style="stroke: rgb(68, 68, 68); stroke-opacity: 1; fill: rgb(171, 99, 250); fill-opacity: 0.6; stroke-width: 0; opacity: 1;"/><path class="sankey-link" d="M390,219.36285097192336C570,219.36285097192336 570,678.304535637149 750,678.304535637149L750,680.8315334773217C570,680.8315334773217 570,221.88984881209615 390,221.88984881209615Z" style="stroke: rgb(68, 68, 68); stroke-opacity: 1; fill: rgb(171, 99, 250); fill-opacity: 0.6; stroke-width: 0; opacity: 1;"/><path class="sankey-link" d="M390,214.3088552915778C570,214.3088552915778 570,626.6630669546436 750,626.6630669546436L750,631.7170626349892C570,631.7170626349892 570,219.36285097192336 390,219.36285097192336Z" style="stroke: rgb(68, 68, 68); stroke-opacity: 1; fill: rgb(171, 99, 250); fill-opacity: 0.6; stroke-width: 0; opacity: 1;"/><path class="sankey-link" d="M390,120.80993520518473C570,120.80993520518473 570,114.16846652267859 750,114.16846652267859L750,157.12742980561595C570,157.12742980561595 570,163.7688984881221 390,163.7688984881221Z" style="stroke: rgb(68, 68, 68); stroke-opacity: 1; fill: rgb(171, 99, 250); fill-opacity: 0.6; stroke-width: 0; opacity: 1;"/><path class="sankey-link" d="M390,186.51187904967716C570,186.51187904967716 570,478.9956803455727 750,478.9956803455727L750,506.79265658747335C570,506.79265658747335 570,214.30885529157783 390,214.30885529157783Z" style="stroke: rgb(68, 68, 68); stroke-opacity: 1; fill: rgb(171, 99, 250); fill-opacity: 0.6; stroke-width: 0; opacity: 1;"/><path class="sankey-link" d="M390,573.5961123110153C570,573.5961123110153 570,404.6112311015124 750,404.6112311015124L750,436.19870410367224C570,436.19870410367224 570,605.1835853131752 390,605.1835853131752Z" style="stroke: rgb(68, 68, 68); stroke-opacity: 1; fill: rgb(99, 110, 250); fill-opacity: 0.6; stroke-width: 0; opacity: 1;"/><path class="sankey-link" d="M390,646.879049676026C570,646.879049676026 570,689.6760259179266 750,689.6760259179266L750,712.4190064794816C570,712.4190064794816 570,669.622030237581 390,669.622030237581Z" style="stroke: rgb(68, 68, 68); stroke-opacity: 1; fill: rgb(99, 110, 250); fill-opacity: 0.6; stroke-width: 0; opacity: 1;"/><path class="sankey-link" d="M390,630.453563714903C570,630.453563714903 570,645.6155507559396 750,645.6155507559396L750,662.0410367170626C570,662.0410367170626 570,646.879049676026 390,646.879049676026Z" style="stroke: rgb(68, 68, 68); stroke-opacity: 1; fill: rgb(99, 110, 250); fill-opacity: 0.6; stroke-width: 0; opacity: 1;"/><path class="sankey-link" d="M390,534.4276457883371C570,534.4276457883371 570,243.0453563714907 750,243.0453563714907L750,282.21382289416886C570,282.21382289416886 570,573.5961123110154 390,573.5961123110154Z" style="stroke: rgb(68, 68, 68); stroke-opacity: 1; fill: rgb(99, 110, 250); fill-opacity: 0.6; stroke-width: 0; opacity: 1;"/><path class="sankey-link" d="M390,605.1835853131752C570,605.1835853131752 570,580.0755939524843 750,580.0755939524843L750,605.3455723542122C570,605.3455723542122 570,630.4535637149031 390,630.4535637149031Z" style="stroke: rgb(68, 68, 68); stroke-opacity: 1; fill: rgb(99, 110, 250); fill-opacity: 0.6; stroke-width: 0; opacity: 1;"/><path class="sankey-link" d="M390,491.6306695464366C570,491.6306695464366 570,394.50323974082124 750,394.50323974082124L750,404.6112311015124C570,404.6112311015124 570,501.7386609071277 390,501.7386609071277Z" style="stroke: rgb(68, 68, 68); stroke-opacity: 1; fill: rgb(255, 151, 255); fill-opacity: 0.6; stroke-width: 0; opacity: 1;"/><path class="sankey-link" d="M390,515.637149028078C570,515.637149028078 570,685.8855291576674 750,685.8855291576674L750,689.6760259179266C570,689.6760259179266 570,519.4276457883373 390,519.4276457883373Z" style="stroke: rgb(68, 68, 68); stroke-opacity: 1; fill: rgb(255, 151, 255); fill-opacity: 0.6; stroke-width: 0; opacity: 1;"/><path class="sankey-link" d="M390,509.3196544276461C570,509.3196544276461 570,639.2980561555077 750,639.2980561555077L750,645.6155507559396C570,645.6155507559396 570,515.637149028078 390,515.637149028078Z" style="stroke: rgb(68, 68, 68); stroke-opacity: 1; fill: rgb(255, 151, 255); fill-opacity: 0.6; stroke-width: 0; opacity: 1;"/><path class="sankey-link" d="M390,476.4686825053999C570,476.4686825053999 570,227.88336933045395 750,227.88336933045395L750,243.04535637149064C570,243.04535637149064 570,491.6306695464366 390,491.6306695464366Z" style="stroke: rgb(68, 68, 68); stroke-opacity: 1; fill: rgb(255, 151, 255); fill-opacity: 0.6; stroke-width: 0; opacity: 1;"/><path class="sankey-link" d="M390,501.7386609071277C570,501.7386609071277 570,572.4946004319659 750,572.4946004319659L750,580.0755939524843C570,580.0755939524843 570,509.3196544276461 390,509.3196544276461Z" style="stroke: rgb(68, 68, 68); stroke-opacity: 1; fill: rgb(255, 151, 255); fill-opacity: 0.6; stroke-width: 0; opacity: 1;"/><path class="sankey-link" d="M390,447.5701943844496C570,447.5701943844496 570,391.97624190064846 750,391.97624190064846L750,394.5032397408213C570,394.5032397408213 570,450.09719222462246 390,450.09719222462246Z" style="stroke: rgb(68, 68, 68); stroke-opacity: 1; fill: rgb(182, 232, 128); fill-opacity: 0.6; stroke-width: 0; opacity: 1;"/><path class="sankey-link" d="M390,458.94168466522717C570,458.94168466522717 570,636.7710583153348 750,636.7710583153348L750,639.2980561555075C570,639.2980561555075 570,461.4686825054 390,461.4686825054Z" style="stroke: rgb(68, 68, 68); stroke-opacity: 1; fill: rgb(182, 232, 128); fill-opacity: 0.6; stroke-width: 0; opacity: 1;"/><path class="sankey-link" d="M390,436.19870410367207C570,436.19870410367207 570,216.5118790496764 750,216.5118790496764L750,227.88336933045395C570,227.88336933045395 570,447.57019438444956 390,447.57019438444956Z" style="stroke: rgb(68, 68, 68); stroke-opacity: 1; fill: rgb(182, 232, 128); fill-opacity: 0.6; stroke-width: 0; opacity: 1;"/><path class="sankey-link" d="M390,450.0971922246224C570,450.0971922246224 570,563.6501079913611 750,563.6501079913611L750,572.4946004319658C570,572.4946004319658 570,458.94168466522717 390,458.94168466522717Z" style="stroke: rgb(68, 68, 68); stroke-opacity: 1; fill: rgb(182, 232, 128); fill-opacity: 0.6; stroke-width: 0; opacity: 1;"/><path class="sankey-link" d="M390,49.11447084233345C570,49.11447084233345 570,314.9028077753784 750,314.9028077753784L750,317.42980561555123C570,317.42980561555123 570,51.641468682506236 390,51.641468682506236Z" style="stroke: rgb(68, 68, 68); stroke-opacity: 1; fill: rgb(255, 102, 146); fill-opacity: 0.6; stroke-width: 0; opacity: 1;"/><path class="sankey-link" d="M390,44.06047516198788C570,44.06047516198788 570,90.16198704103712 750,90.16198704103712L750,95.21598272138269C570,95.21598272138269 570,49.114470842333446 390,49.114470842333446Z" style="stroke: rgb(68, 68, 68); stroke-opacity: 1; fill: rgb(255, 102, 146); fill-opacity: 0.6; stroke-width: 0; opacity: 1;"/><path class="sankey-link" d="M765,308.5853131749464C945,308.5853131749464 945,248.585313174945 1125,248.585313174945L1125,252.3758099352042C945,252.3758099352042 945,312.3758099352056 765,312.3758099352056Z" style="stroke: rgb(68, 68, 68); stroke-opacity: 1; fill: rgb(25, 211, 243); fill-opacity: 0.6; stroke-width: 0; opacity: 1;"/><path class="sankey-link" d="M765,379.3412526997845C945,379.3412526997845 945,334.3412526997833 1125,334.3412526997833L1125,336.86825053995614C945,336.86825053995614 945,381.86825053995733 765,381.86825053995733Z" style="stroke: rgb(68, 68, 68); stroke-opacity: 1; fill: rgb(25, 211, 243); fill-opacity: 0.6; stroke-width: 0; opacity: 1;"/><path class="sankey-link" d="M765,75.0000000000004C945,75.0000000000004 945,-1.2221335055073723e-12 1125,-1.2221335055073723e-12L1125,10.107991360689923C945,10.107991360689923 945,85.10799136069153 765,85.10799136069153Z" style="stroke: rgb(68, 68, 68); stroke-opacity: 1; fill: rgb(25, 211, 243); fill-opacity: 0.6; stroke-width: 0; opacity: 1;"/><path class="sankey-link" d="M765,196.29589632829413C945,196.29589632829413 945,136.2958963282925 1125,136.2958963282925L1125,141.34989200863808C945,141.34989200863808 945,201.3498920086397 765,201.3498920086397Z" style="stroke: rgb(68, 68, 68); stroke-opacity: 1; fill: rgb(25, 211, 243); fill-opacity: 0.6; stroke-width: 0; opacity: 1;"/><path class="sankey-link" d="M765,461.3066954643632C945,461.3066954643632 945,416.3066954643621 1125,416.3066954643621L1125,420.0971922246213C945,420.0971922246213 945,465.0971922246224 765,465.0971922246224Z" style="stroke: rgb(68, 68, 68); stroke-opacity: 1; fill: rgb(25, 211, 243); fill-opacity: 0.6; stroke-width: 0; opacity: 1;"/><path class="sankey-link" d="M765,539.6436285097197C945,539.6436285097197 945,509.64362850971884 1125,509.64362850971884L1125,513.434125269978C945,513.434125269978 945,543.434125269979 765,543.434125269979Z" style="stroke: rgb(68, 68, 68); stroke-opacity: 1; fill: rgb(25, 211, 243); fill-opacity: 0.6; stroke-width: 0; opacity: 1;"/><path class="sankey-link" d="M765,312.3758099352056C945,312.3758099352056 945,252.37580993520413 1125,252.37580993520413L1125,266.27429805615446C945,266.27429805615446 945,326.27429805615594 765,326.27429805615594Z" style="stroke: rgb(68, 68, 68); stroke-opacity: 1; fill: rgb(0, 204, 150); fill-opacity: 0.6; stroke-width: 0; opacity: 1;"/><path class="sankey-link" d="M765,381.8682505399573C945,381.8682505399573 945,336.8682505399561 1125,336.8682505399561L1125,343.185745140388C945,343.185745140388 945,388.1857451403892 765,388.1857451403892Z" style="stroke: rgb(68, 68, 68); stroke-opacity: 1; fill: rgb(0, 204, 150); fill-opacity: 0.6; stroke-width: 0; opacity: 1;"/><path class="sankey-link" d="M765,698.5205183585314C945,698.5205183585314 945,630.6155507559395 1125,630.6155507559395L1125,631.8790496760259C945,631.8790496760259 945,699.7840172786179 765,699.7840172786179Z" style="stroke: rgb(68, 68, 68); stroke-opacity: 1; fill: rgb(0, 204, 150); fill-opacity: 0.6; stroke-width: 0; opacity: 1;"/><path class="sankey-link" d="M765,625.3995680345572C945,625.3995680345572 945,667.0950323974082 1125,667.0950323974082L1125,669.6220302375809C945,669.6220302375809 945,627.9265658747299 765,627.9265658747299Z" style="stroke: rgb(68, 68, 68); stroke-opacity: 1; fill: rgb(0, 204, 150); fill-opacity: 0.6; stroke-width: 0; opacity: 1;"/><path class="sankey-link" d="M765,85.10799136069154C945,85.10799136069154 945,10.107991360689923 1125,10.107991360689923L1125,21.47948164146746C945,21.47948164146746 945,96.47948164146909 765,96.47948164146909Z" style="stroke: rgb(68, 68, 68); stroke-opacity: 1; fill: rgb(0, 204, 150); fill-opacity: 0.6; stroke-width: 0; opacity: 1;"/><path class="sankey-link" d="M765,201.3498920086397C945,201.3498920086397 945,141.3498920086381 1125,141.3498920086381L1125,161.56587473002037C945,161.56587473002037 945,221.56587473002196 765,221.56587473002196Z" style="stroke: rgb(68, 68, 68); stroke-opacity: 1; fill: rgb(0, 204, 150); fill-opacity: 0.6; stroke-width: 0; opacity: 1;"/><path class="sankey-link" d="M765,465.0971922246224C945,465.0971922246224 945,420.0971922246213 1125,420.0971922246213L1125,436.5226781857444C945,436.5226781857444 945,481.52267818574546 765,481.52267818574546Z" style="stroke: rgb(68, 68, 68); stroke-opacity: 1; fill: rgb(0, 204, 150); fill-opacity: 0.6; stroke-width: 0; opacity: 1;"/><path class="sankey-link" d="M765,543.434125269979C945,543.434125269979 945,513.434125269978 1125,513.434125269978L1125,524.8056155507556C945,524.8056155507556 945,554.8056155507566 765,554.8056155507566Z" style="stroke: rgb(68, 68, 68); stroke-opacity: 1; fill: rgb(0, 204, 150); fill-opacity: 0.6; stroke-width: 0; opacity: 1;"/><path class="sankey-link" d="M765,326.27429805615594C945,326.27429805615594 945,266.27429805615446 1125,266.27429805615446L1125,275.11879049675923C945,275.11879049675923 945,335.1187904967607 765,335.1187904967607Z" style="stroke: rgb(68, 68, 68); stroke-opacity: 1; fill: rgb(239, 85, 59); fill-opacity: 0.6; stroke-width: 0; opacity: 1;"/><path class="sankey-link" d="M765,388.18574514038926C945,388.18574514038926 945,343.18574514038806 1125,343.18574514038806L1125,357.0842332613384C945,357.0842332613384 945,402.0842332613396 765,402.0842332613396Z" style="stroke: rgb(68, 68, 68); stroke-opacity: 1; fill: rgb(239, 85, 59); fill-opacity: 0.6; stroke-width: 0; opacity: 1;"/><path class="sankey-link" d="M765,678.304535637149C945,678.304535637149 945,595.3995680345572 1125,595.3995680345572L1125,596.6630669546437C945,596.6630669546437 945,679.5680345572355 765,679.5680345572355Z" style="stroke: rgb(68, 68, 68); stroke-opacity: 1; fill: rgb(239, 85, 59); fill-opacity: 0.6; stroke-width: 0; opacity: 1;"/><path class="sankey-link" d="M765,699.7840172786177C945,699.7840172786177 945,631.8790496760258 1125,631.8790496760258L1125,634.4060475161986C945,634.4060475161986 945,702.3110151187905 765,702.3110151187905Z" style="stroke: rgb(68, 68, 68); stroke-opacity: 1; fill: rgb(239, 85, 59); fill-opacity: 0.6; stroke-width: 0; opacity: 1;"/><path class="sankey-link" d="M765,645.6155507559396C945,645.6155507559396 945,702.3110151187905 1125,702.3110151187905L1125,703.5745140388769C945,703.5745140388769 945,646.879049676026 765,646.879049676026Z" style="stroke: rgb(68, 68, 68); stroke-opacity: 1; fill: rgb(239, 85, 59); fill-opacity: 0.6; stroke-width: 0; opacity: 1;"/><path class="sankey-link" d="M765,627.92656587473C945,627.92656587473 945,669.622030237581 1125,669.622030237581L1125,670.8855291576675C945,670.8855291576675 945,629.1900647948165 765,629.1900647948165Z" style="stroke: rgb(68, 68, 68); stroke-opacity: 1; fill: rgb(239, 85, 59); fill-opacity: 0.6; stroke-width: 0; opacity: 1;"/><path class="sankey-link" d="M765,96.47948164146908C945,96.47948164146908 945,21.47948164146746 1125,21.47948164146746L1125,36.641468682504176C945,36.641468682504176 945,111.6414686825058 765,111.6414686825058Z" style="stroke: rgb(68, 68, 68); stroke-opacity: 1; fill: rgb(239, 85, 59); fill-opacity: 0.6; stroke-width: 0; opacity: 1;"/><path class="sankey-link" d="M765,221.565874730022C945,221.565874730022 945,161.56587473002037 1125,161.56587473002037L1125,174.20086393088428C945,174.20086393088428 945,234.2008639308859 765,234.2008639308859Z" style="stroke: rgb(68, 68, 68); stroke-opacity: 1; fill: rgb(239, 85, 59); fill-opacity: 0.6; stroke-width: 0; opacity: 1;"/><path class="sankey-link" d="M765,481.5226781857455C945,481.5226781857455 945,436.52267818574444 1125,436.52267818574444L1125,450.4211663066948C945,450.4211663066948 945,495.42116630669585 765,495.42116630669585Z" style="stroke: rgb(68, 68, 68); stroke-opacity: 1; fill: rgb(239, 85, 59); fill-opacity: 0.6; stroke-width: 0; opacity: 1;"/><path class="sankey-link" d="M765,554.8056155507564C945,554.8056155507564 945,524.8056155507555 1125,524.8056155507555L1125,539.9676025917923C945,539.9676025917923 945,569.9676025917933 765,569.9676025917933Z" style="stroke: rgb(68, 68, 68); stroke-opacity: 1; fill: rgb(239, 85, 59); fill-opacity: 0.6; stroke-width: 0; opacity: 1;"/><path class="sankey-link" d="M765,335.1187904967607C945,335.1187904967607 945,275.11879049675923 1125,275.11879049675923L1125,280.1727861771048C945,280.1727861771048 945,340.1727861771063 765,340.1727861771063Z" style="stroke: rgb(68, 68, 68); stroke-opacity: 1; fill: rgb(254, 203, 82); fill-opacity: 0.6; stroke-width: 0; opacity: 1;"/><path class="sankey-link" d="M765,402.0842332613396C945,402.0842332613396 945,357.0842332613384 1125,357.0842332613384L1125,362.13822894168396C945,362.13822894168396 945,407.13822894168516 765,407.13822894168516Z" style="stroke: rgb(68, 68, 68); stroke-opacity: 1; fill: rgb(254, 203, 82); fill-opacity: 0.6; stroke-width: 0; opacity: 1;"/><path class="sankey-link" d="M765,679.5680345572354C945,679.5680345572354 945,596.6630669546436 1125,596.6630669546436L1125,601.7170626349892C945,601.7170626349892 945,684.622030237581 765,684.622030237581Z" style="stroke: rgb(68, 68, 68); stroke-opacity: 1; fill: rgb(254, 203, 82); fill-opacity: 0.6; stroke-width: 0; opacity: 1;"/><path class="sankey-link" d="M765,702.3110151187906C945,702.3110151187906 945,634.4060475161987 1125,634.4060475161987L1125,636.9330453563714C945,636.9330453563714 945,704.8380129589633 765,704.8380129589633Z" style="stroke: rgb(68, 68, 68); stroke-opacity: 1; fill: rgb(254, 203, 82); fill-opacity: 0.6; stroke-width: 0; opacity: 1;"/><path class="sankey-link" d="M765,646.8790496760259C945,646.8790496760259 945,703.5745140388768 1125,703.5745140388768L1125,704.8380129589633C945,704.8380129589633 945,648.1425485961124 765,648.1425485961124Z" style="stroke: rgb(68, 68, 68); stroke-opacity: 1; fill: rgb(254, 203, 82); fill-opacity: 0.6; stroke-width: 0; opacity: 1;"/><path class="sankey-link" d="M765,111.6414686825058C945,111.6414686825058 945,36.641468682504176 1125,36.641468682504176L1125,40.43196544276335C945,40.43196544276335 945,115.43196544276498 765,115.43196544276498Z" style="stroke: rgb(68, 68, 68); stroke-opacity: 1; fill: rgb(254, 203, 82); fill-opacity: 0.6; stroke-width: 0; opacity: 1;"/><path class="sankey-link" d="M765,234.20086393088593C945,234.20086393088593 945,174.2008639308843 1125,174.2008639308843L1125,181.78185745140266C945,181.78185745140266 945,241.78185745140428 765,241.78185745140428Z" style="stroke: rgb(68, 68, 68); stroke-opacity: 1; fill: rgb(254, 203, 82); fill-opacity: 0.6; stroke-width: 0; opacity: 1;"/><path class="sankey-link" d="M765,495.42116630669585C945,495.42116630669585 945,450.4211663066948 1125,450.4211663066948L1125,454.211663066954C945,454.211663066954 945,499.21166306695505 765,499.21166306695505Z" style="stroke: rgb(68, 68, 68); stroke-opacity: 1; fill: rgb(254, 203, 82); fill-opacity: 0.6; stroke-width: 0; opacity: 1;"/><path class="sankey-link" d="M765,569.9676025917931C945,569.9676025917931 945,539.9676025917922 1125,539.9676025917922L1125,541.2311015118787C945,541.2311015118787 945,571.2311015118796 765,571.2311015118796Z" style="stroke: rgb(68, 68, 68); stroke-opacity: 1; fill: rgb(254, 203, 82); fill-opacity: 0.6; stroke-width: 0; opacity: 1;"/><path class="sankey-link" d="M765,340.1727861771063C945,340.1727861771063 945,280.1727861771048 1125,280.1727861771048L1125,286.4902807775367C945,286.4902807775367 945,346.4902807775382 765,346.4902807775382Z" style="stroke: rgb(68, 68, 68); stroke-opacity: 1; fill: rgb(255, 161, 90); fill-opacity: 0.6; stroke-width: 0; opacity: 1;"/><path class="sankey-link" d="M765,407.13822894168516C945,407.13822894168516 945,362.13822894168396 1125,362.13822894168396L1125,364.6652267818568C945,364.6652267818568 945,409.665226781858 765,409.665226781858Z" style="stroke: rgb(68, 68, 68); stroke-opacity: 1; fill: rgb(255, 161, 90); fill-opacity: 0.6; stroke-width: 0; opacity: 1;"/><path class="sankey-link" d="M765,629.1900647948164C945,629.1900647948164 945,670.8855291576674 1125,670.8855291576674L1125,672.1490280777539C945,672.1490280777539 945,630.4535637149029 765,630.4535637149029Z" style="stroke: rgb(68, 68, 68); stroke-opacity: 1; fill: rgb(255, 161, 90); fill-opacity: 0.6; stroke-width: 0; opacity: 1;"/><path class="sankey-link" d="M765,115.43196544276498C945,115.43196544276498 945,40.43196544276336 1125,40.43196544276336L1125,49.27645788336811C945,49.27645788336811 945,124.27645788336972 765,124.27645788336972Z" style="stroke: rgb(68, 68, 68); stroke-opacity: 1; fill: rgb(255, 161, 90); fill-opacity: 0.6; stroke-width: 0; opacity: 1;"/><path class="sankey-link" d="M765,241.78185745140428C945,241.78185745140428 945,181.78185745140266 1125,181.78185745140266L1125,191.8898488120938C945,191.8898488120938 945,251.8898488120954 765,251.8898488120954Z" style="stroke: rgb(68, 68, 68); stroke-opacity: 1; fill: rgb(255, 161, 90); fill-opacity: 0.6; stroke-width: 0; opacity: 1;"/><path class="sankey-link" d="M765,499.21166306695505C945,499.21166306695505 945,454.211663066954 1125,454.211663066954L1125,460.5291576673859C945,460.5291576673859 945,505.529157667387 765,505.529157667387Z" style="stroke: rgb(68, 68, 68); stroke-opacity: 1; fill: rgb(255, 161, 90); fill-opacity: 0.6; stroke-width: 0; opacity: 1;"/><path class="sankey-link" d="M765,571.2311015118795C945,571.2311015118795 945,541.2311015118786 1125,541.2311015118786L1125,545.0215982721378C945,545.0215982721378 945,575.0215982721387 765,575.0215982721387Z" style="stroke: rgb(68, 68, 68); stroke-opacity: 1; fill: rgb(255, 161, 90); fill-opacity: 0.6; stroke-width: 0; opacity: 1;"/><path class="sankey-link" d="M765,346.49028077753826C945,346.49028077753826 945,286.4902807775368 1125,286.4902807775368L1125,295.33477321814155C945,295.33477321814155 945,355.334773218143 765,355.334773218143Z" style="stroke: rgb(68, 68, 68); stroke-opacity: 1; fill: rgb(171, 99, 250); fill-opacity: 0.6; stroke-width: 0; opacity: 1;"/><path class="sankey-link" d="M765,409.66522678185794C945,409.66522678185794 945,364.66522678185675 1125,364.66522678185675L1125,378.5637149028071C945,378.5637149028071 945,423.5637149028083 765,423.5637149028083Z" style="stroke: rgb(68, 68, 68); stroke-opacity: 1; fill: rgb(171, 99, 250); fill-opacity: 0.6; stroke-width: 0; opacity: 1;"/><path class="sankey-link" d="M765,684.6220302375809C945,684.6220302375809 945,601.7170626349891 1125,601.7170626349891L1125,604.2440604751619C945,604.2440604751619 945,687.1490280777537 765,687.1490280777537Z" style="stroke: rgb(68, 68, 68); stroke-opacity: 1; fill: rgb(171, 99, 250); fill-opacity: 0.6; stroke-width: 0; opacity: 1;"/><path class="sankey-link" d="M765,648.1425485961123C945,648.1425485961123 945,704.8380129589632 1125,704.8380129589632L1125,707.3650107991359C945,707.3650107991359 945,650.669546436285 765,650.669546436285Z" style="stroke: rgb(68, 68, 68); stroke-opacity: 1; fill: rgb(171, 99, 250); fill-opacity: 0.6; stroke-width: 0; opacity: 1;"/><path class="sankey-link" d="M765,630.4535637149028C945,630.4535637149028 945,672.1490280777538 1125,672.1490280777538L1125,674.6760259179265C945,674.6760259179265 945,632.9805615550755 765,632.9805615550755Z" style="stroke: rgb(68, 68, 68); stroke-opacity: 1; fill: rgb(171, 99, 250); fill-opacity: 0.6; stroke-width: 0; opacity: 1;"/><path class="sankey-link" d="M765,124.27645788336974C945,124.27645788336974 945,49.27645788336811 1125,49.27645788336811L1125,73.28293736500957C945,73.28293736500957 945,148.2829373650112 765,148.2829373650112Z" style="stroke: rgb(68, 68, 68); stroke-opacity: 1; fill: rgb(171, 99, 250); fill-opacity: 0.6; stroke-width: 0; opacity: 1;"/><path class="sankey-link" d="M765,251.8898488120954C945,251.8898488120954 945,191.88984881209382 1125,191.88984881209382L1125,210.84233261338971C945,210.84233261338971 945,270.8423326133913 765,270.8423326133913Z" style="stroke: rgb(68, 68, 68); stroke-opacity: 1; fill: rgb(171, 99, 250); fill-opacity: 0.6; stroke-width: 0; opacity: 1;"/><path class="sankey-link" d="M765,505.52915766738704C945,505.52915766738704 945,460.52915766738596 1125,460.52915766738596L1125,473.16414686824993C945,473.16414686824993 945,518.164146868251 765,518.164146868251Z" style="stroke: rgb(68, 68, 68); stroke-opacity: 1; fill: rgb(171, 99, 250); fill-opacity: 0.6; stroke-width: 0; opacity: 1;"/><path class="sankey-link" d="M765,575.0215982721387C945,575.0215982721387 945,545.0215982721378 1125,545.0215982721378L1125,560.1835853131746C945,560.1835853131746 945,590.1835853131755 765,590.1835853131755Z" style="stroke: rgb(68, 68, 68); stroke-opacity: 1; fill: rgb(171, 99, 250); fill-opacity: 0.6; stroke-width: 0; opacity: 1;"/><path class="sankey-link" d="M765,355.334773218143C945,355.334773218143 945,295.33477321814155 1125,295.33477321814155L1125,311.7602591792646C945,311.7602591792646 945,371.7602591792661 765,371.7602591792661Z" style="stroke: rgb(68, 68, 68); stroke-opacity: 1; fill: rgb(99, 110, 250); fill-opacity: 0.6; stroke-width: 0; opacity: 1;"/><path class="sankey-link" d="M765,423.5637149028083C945,423.5637149028083 945,378.5637149028071 1125,378.5637149028071L1125,393.7257019438438C945,393.7257019438438 945,438.72570194384497 765,438.72570194384497Z" style="stroke: rgb(68, 68, 68); stroke-opacity: 1; fill: rgb(99, 110, 250); fill-opacity: 0.6; stroke-width: 0; opacity: 1;"/><path class="sankey-link" d="M765,687.1490280777538C945,687.1490280777538 945,604.244060475162 1125,604.244060475162L1125,613.0885529157666C945,613.0885529157666 945,695.9935205183584 765,695.9935205183584Z" style="stroke: rgb(68, 68, 68); stroke-opacity: 1; fill: rgb(99, 110, 250); fill-opacity: 0.6; stroke-width: 0; opacity: 1;"/><path class="sankey-link" d="M765,704.8380129589634C945,704.8380129589634 945,636.9330453563715 1125,636.9330453563715L1125,650.8315334773218C945,650.8315334773218 945,718.7365010799138 765,718.7365010799138Z" style="stroke: rgb(68, 68, 68); stroke-opacity: 1; fill: rgb(99, 110, 250); fill-opacity: 0.6; stroke-width: 0; opacity: 1;"/><path class="sankey-link" d="M765,650.6695464362851C945,650.6695464362851 945,707.365010799136 1125,707.365010799136L1125,716.2095032397407C945,716.2095032397407 945,659.5140388768898 765,659.5140388768898Z" style="stroke: rgb(68, 68, 68); stroke-opacity: 1; fill: rgb(99, 110, 250); fill-opacity: 0.6; stroke-width: 0; opacity: 1;"/><path class="sankey-link" d="M765,632.9805615550756C945,632.9805615550756 945,674.6760259179266 1125,674.6760259179266L1125,682.257019438445C945,682.257019438445 945,640.561555075594 765,640.561555075594Z" style="stroke: rgb(68, 68, 68); stroke-opacity: 1; fill: rgb(99, 110, 250); fill-opacity: 0.6; stroke-width: 0; opacity: 1;"/><path class="sankey-link" d="M765,148.2829373650112C945,148.2829373650112 945,73.28293736500959 1125,73.28293736500959L1125,97.28941684665105C945,97.28941684665105 945,172.28941684665267 765,172.28941684665267Z" style="stroke: rgb(68, 68, 68); stroke-opacity: 1; fill: rgb(99, 110, 250); fill-opacity: 0.6; stroke-width: 0; opacity: 1;"/><path class="sankey-link" d="M765,270.8423326133913C945,270.8423326133913 945,210.84233261338971 1125,210.84233261338971L1125,226.0043196544264C945,226.0043196544264 945,286.004319654428 765,286.004319654428Z" style="stroke: rgb(68, 68, 68); stroke-opacity: 1; fill: rgb(99, 110, 250); fill-opacity: 0.6; stroke-width: 0; opacity: 1;"/><path class="sankey-link" d="M765,518.164146868251C945,518.164146868251 945,473.1641468682499 1125,473.1641468682499L1125,487.0626349892002C945,487.0626349892002 945,532.0626349892013 765,532.0626349892013Z" style="stroke: rgb(68, 68, 68); stroke-opacity: 1; fill: rgb(99, 110, 250); fill-opacity: 0.6; stroke-width: 0; opacity: 1;"/><path class="sankey-link" d="M765,590.1835853131754C945,590.1835853131754 945,560.1835853131745 1125,560.1835853131745L1125,571.5550755939521C945,571.5550755939521 945,601.555075593953 765,601.555075593953Z" style="stroke: rgb(68, 68, 68); stroke-opacity: 1; fill: rgb(99, 110, 250); fill-opacity: 0.6; stroke-width: 0; opacity: 1;"/><path class="sankey-link" d="M765,371.76025917926614C945,371.76025917926614 945,311.76025917926466 1125,311.76025917926466L1125,319.34125269978307C945,319.34125269978307 945,379.34125269978455 765,379.34125269978455Z" style="stroke: rgb(68, 68, 68); stroke-opacity: 1; fill: rgb(255, 151, 255); fill-opacity: 0.6; stroke-width: 0; opacity: 1;"/><path class="sankey-link" d="M765,438.72570194384497C945,438.72570194384497 945,393.7257019438438 1125,393.7257019438438L1125,396.2526997840166C945,396.2526997840166 945,441.2526997840178 765,441.2526997840178Z" style="stroke: rgb(68, 68, 68); stroke-opacity: 1; fill: rgb(255, 151, 255); fill-opacity: 0.6; stroke-width: 0; opacity: 1;"/><path class="sankey-link" d="M765,695.9935205183585C945,695.9935205183585 945,613.0885529157667 1125,613.0885529157667L1125,615.6155507559395C945,615.6155507559395 945,698.5205183585313 765,698.5205183585313Z" style="stroke: rgb(68, 68, 68); stroke-opacity: 1; fill: rgb(255, 151, 255); fill-opacity: 0.6; stroke-width: 0; opacity: 1;"/><path class="sankey-link" d="M765,718.7365010799138C945,718.7365010799138 945,650.8315334773218 1125,650.8315334773218L1125,652.0950323974083C945,652.0950323974083 945,720.0000000000002 765,720.0000000000002Z" style="stroke: rgb(68, 68, 68); stroke-opacity: 1; fill: rgb(255, 151, 255); fill-opacity: 0.6; stroke-width: 0; opacity: 1;"/><path class="sankey-link" d="M765,659.5140388768899C945,659.5140388768899 945,716.2095032397408 1125,716.2095032397408L1125,718.7365010799135C945,718.7365010799135 945,662.0410367170626 765,662.0410367170626Z" style="stroke: rgb(68, 68, 68); stroke-opacity: 1; fill: rgb(255, 151, 255); fill-opacity: 0.6; stroke-width: 0; opacity: 1;"/><path class="sankey-link" d="M765,640.561555075594C945,640.561555075594 945,682.257019438445 1125,682.257019438445L1125,686.0475161987042C945,686.0475161987042 945,644.3520518358532 765,644.3520518358532Z" style="stroke: rgb(68, 68, 68); stroke-opacity: 1; fill: rgb(255, 151, 255); fill-opacity: 0.6; stroke-width: 0; opacity: 1;"/><path class="sankey-link" d="M765,172.28941684665267C945,172.28941684665267 945,97.28941684665105 1125,97.28941684665105L1125,109.92440604751499C945,109.92440604751499 945,184.92440604751658 765,184.92440604751658Z" style="stroke: rgb(68, 68, 68); stroke-opacity: 1; fill: rgb(255, 151, 255); fill-opacity: 0.6; stroke-width: 0; opacity: 1;"/><path class="sankey-link" d="M765,286.004319654428C945,286.004319654428 945,226.00431965442644 1125,226.00431965442644L1125,228.53131749459922C945,228.53131749459922 945,288.53131749460084 765,288.53131749460084Z" style="stroke: rgb(68, 68, 68); stroke-opacity: 1; fill: rgb(255, 151, 255); fill-opacity: 0.6; stroke-width: 0; opacity: 1;"/><path class="sankey-link" d="M765,532.0626349892013C945,532.0626349892013 945,487.0626349892002 1125,487.0626349892002L1125,489.58963282937304C945,489.58963282937304 945,534.5896328293741 765,534.5896328293741Z" style="stroke: rgb(68, 68, 68); stroke-opacity: 1; fill: rgb(255, 151, 255); fill-opacity: 0.6; stroke-width: 0; opacity: 1;"/><path class="sankey-link" d="M765,601.5550755939529C945,601.5550755939529 945,571.555075593952 1125,571.555075593952L1125,576.6090712742977C945,576.6090712742977 945,606.6090712742986 765,606.6090712742986Z" style="stroke: rgb(68, 68, 68); stroke-opacity: 1; fill: rgb(255, 151, 255); fill-opacity: 0.6; stroke-width: 0; opacity: 1;"/><path class="sankey-link" d="M765,441.25269978401775C945,441.25269978401775 945,396.25269978401656 1125,396.25269978401656L1125,398.7796976241894C945,398.7796976241894 945,443.7796976241906 765,443.7796976241906Z" style="stroke: rgb(68, 68, 68); stroke-opacity: 1; fill: rgb(182, 232, 128); fill-opacity: 0.6; stroke-width: 0; opacity: 1;"/><path class="sankey-link" d="M765,662.0410367170628C945,662.0410367170628 945,718.7365010799136 1125,718.7365010799136L1125,720.0000000000001C945,720.0000000000001 945,663.3045356371492 765,663.3045356371492Z" style="stroke: rgb(68, 68, 68); stroke-opacity: 1; fill: rgb(182, 232, 128); fill-opacity: 0.6; stroke-width: 0; opacity: 1;"/><path class="sankey-link" d="M765,644.3520518358532C945,644.3520518358532 945,686.0475161987042 1125,686.0475161987042L1125,687.3110151187907C945,687.3110151187907 945,645.6155507559397 765,645.6155507559397Z" style="stroke: rgb(68, 68, 68); stroke-opacity: 1; fill: rgb(182, 232, 128); fill-opacity: 0.6; stroke-width: 0; opacity: 1;"/><path class="sankey-link" d="M765,184.9244060475166C945,184.9244060475166 945,109.92440604751498 1125,109.92440604751498L1125,116.24190064794693C945,116.24190064794693 945,191.2419006479486 765,191.2419006479486Z" style="stroke: rgb(68, 68, 68); stroke-opacity: 1; fill: rgb(182, 232, 128); fill-opacity: 0.6; stroke-width: 0; opacity: 1;"/><path class="sankey-link" d="M765,288.5313174946008C945,288.5313174946008 945,228.53131749459922 1125,228.53131749459922L1125,233.5853131749448C945,233.5853131749448 945,293.58531317494635 765,293.58531317494635Z" style="stroke: rgb(68, 68, 68); stroke-opacity: 1; fill: rgb(182, 232, 128); fill-opacity: 0.6; stroke-width: 0; opacity: 1;"/><path class="sankey-link" d="M765,534.5896328293742C945,534.5896328293742 945,489.589632829373 1125,489.589632829373L1125,494.64362850971855C945,494.64362850971855 945,539.6436285097199 765,539.6436285097199Z" style="stroke: rgb(68, 68, 68); stroke-opacity: 1; fill: rgb(182, 232, 128); fill-opacity: 0.6; stroke-width: 0; opacity: 1;"/><path class="sankey-link" d="M765,606.6090712742985C945,606.6090712742985 945,576.6090712742975 1125,576.6090712742975L1125,580.3995680345568C945,580.3995680345568 945,610.3995680345577 765,610.3995680345577Z" style="stroke: rgb(68, 68, 68); stroke-opacity: 1; fill: rgb(182, 232, 128); fill-opacity: 0.6; stroke-width: 0; opacity: 1;"/><path class="sankey-link" d="M765,443.77969762419053C945,443.77969762419053 945,398.77969762418934 1125,398.77969762418934L1125,401.3066954643622C945,401.3066954643622 945,446.3066954643634 765,446.3066954643634Z" style="stroke: rgb(68, 68, 68); stroke-opacity: 1; fill: rgb(255, 102, 146); fill-opacity: 0.6; stroke-width: 0; opacity: 1;"/><path class="sankey-link" d="M765,191.24190064794857C945,191.24190064794857 945,116.24190064794695 1125,116.24190064794695L1125,121.29589632829251C945,121.29589632829251 945,196.29589632829413 765,196.29589632829413Z" style="stroke: rgb(68, 68, 68); stroke-opacity: 1; fill: rgb(255, 102, 146); fill-opacity: 0.6; stroke-width: 0; opacity: 1;"/></g><g class="sankey-node-set" style="cursor: move;"><g class="sankey-node" transform="translate(0.000,427.899)" style="opacity: 1;"><rect class="node-rect" width="15" height="48.01295896328293" style="stroke-width: 0.5; stroke: rgb(0, 0, 0); stroke-opacity: 1; fill: rgb(128, 128, 128); fill-opacity: 1;"/><text class="node-label" data-notex="1" x="0" y="0" text-anchor="start" transform="translate(18.25,28.206479481641463)" style="cursor: default; font-family: 'Open Sans', verdana, arial, sans-serif; font-size: 12px; fill: rgb(42, 63, 95); fill-opacity: 1; white-space: pre; text-shadow: white 1px 1px 1px, white -1px -1px 1px, white 1px -1px 1px, white -1px 1px 1px;">21271R</text></g><g class="sankey-node" transform="translate(0.000,217.057)" style="opacity: 1;"><rect class="node-rect" width="15" height="195.84233261339114" style="stroke-width: 0.5; stroke: rgb(0, 0, 0); stroke-opacity: 1; fill: rgb(128, 128, 128); fill-opacity: 1;"/><text class="node-label" data-notex="1" x="0" y="0" text-anchor="start" transform="translate(18.25,102.12116630669557)" style="cursor: default; font-family: 'Open Sans', verdana, arial, sans-serif; font-size: 12px; fill: rgb(42, 63, 95); fill-opacity: 1; white-space: pre; text-shadow: white 1px 1px 1px, white -1px -1px 1px, white 1px -1px 1px, white -1px 1px 1px;">21272R</text></g><g class="sankey-node" transform="translate(0.000,490.912)" style="opacity: 1;"><rect class="node-rect" width="15" height="11.371490280777607" style="stroke-width: 0.5; stroke: rgb(0, 0, 0); stroke-opacity: 1; fill: rgb(128, 128, 128); fill-opacity: 1;"/><text class="node-label" data-notex="1" x="0" y="0" text-anchor="start" transform="translate(18.25,9.885745140388803)" style="cursor: default; font-family: 'Open Sans', verdana, arial, sans-serif; font-size: 12px; fill: rgb(42, 63, 95); fill-opacity: 1; white-space: pre; text-shadow: white 1px 1px 1px, white -1px -1px 1px, white 1px -1px 1px, white -1px 1px 1px;">21965RL</text></g><g class="sankey-node" transform="translate(0.000,517.284)" style="opacity: 1;"><rect class="node-rect" width="15" height="89.70842332613404" style="stroke-width: 0.5; stroke: rgb(0, 0, 0); stroke-opacity: 1; fill: rgb(128, 128, 128); fill-opacity: 1;"/><text class="node-label" data-notex="1" x="0" y="0" text-anchor="start" transform="translate(18.25,49.05421166306702)" style="cursor: default; font-family: 'Open Sans', verdana, arial, sans-serif; font-size: 12px; fill: rgb(42, 63, 95); fill-opacity: 1; white-space: pre; text-shadow: white 1px 1px 1px, white -1px -1px 1px, white 1px -1px 1px, white -1px 1px 1px;">22384</text></g><g class="sankey-node" transform="translate(0.000,621.992)" style="opacity: 1;"><rect class="node-rect" width="15" height="89.70842332613381" style="stroke-width: 0.5; stroke: rgb(0, 0, 0); stroke-opacity: 1; fill: rgb(128, 128, 128); fill-opacity: 1;"/><text class="node-label" data-notex="1" x="0" y="0" text-anchor="start" transform="translate(18.25,49.05421166306691)" style="cursor: default; font-family: 'Open Sans', verdana, arial, sans-serif; font-size: 12px; fill: rgb(42, 63, 95); fill-opacity: 1; white-space: pre; text-shadow: white 1px 1px 1px, white -1px -1px 1px, white 1px -1px 1px, white -1px 1px 1px;">22670</text></g><g class="sankey-node" transform="translate(750.000,308.585)" style="opacity: 1;"><rect class="node-rect" width="15" height="137.7213822894168" style="stroke-width: 0.5; stroke: rgb(0, 0, 0); stroke-opacity: 1; fill: rgb(128, 128, 128); fill-opacity: 1;"/><text class="node-label" data-notex="1" x="0" y="0" text-anchor="start" transform="translate(18.25,73.0606911447084)" style="cursor: default; font-family: 'Open Sans', verdana, arial, sans-serif; font-size: 12px; fill: rgb(42, 63, 95); fill-opacity: 1; white-space: pre; text-shadow: white 1px 1px 1px, white -1px -1px 1px, white 1px -1px 1px, white -1px 1px 1px;">dig</text></g><g class="sankey-node" transform="translate(750.000,75.000)" style="opacity: 1;"><rect class="node-rect" width="15" height="218.585313174946" style="stroke-width: 0.5; stroke: rgb(0, 0, 0); stroke-opacity: 1; fill: rgb(128, 128, 128); fill-opacity: 1;"/><text class="node-label" data-notex="1" x="0" y="0" text-anchor="start" transform="translate(18.25,113.49265658747301)" style="cursor: default; font-family: 'Open Sans', verdana, arial, sans-serif; font-size: 12px; fill: rgb(42, 63, 95); fill-opacity: 1; white-space: pre; text-shadow: white 1px 1px 1px, white -1px -1px 1px, white 1px -1px 1px, white -1px 1px 1px;">walk</text></g><g class="sankey-node" transform="translate(750.000,461.307)" style="opacity: 1;"><rect class="node-rect" width="15" height="149.092872570194" style="stroke-width: 0.5; stroke: rgb(0, 0, 0); stroke-opacity: 1; fill: rgb(128, 128, 128); fill-opacity: 1;"/><text class="node-label" data-notex="1" x="0" y="0" text-anchor="start" transform="translate(18.25,78.746436285097)" style="cursor: default; font-family: 'Open Sans', verdana, arial, sans-serif; font-size: 12px; fill: rgb(42, 63, 95); fill-opacity: 1; white-space: pre; text-shadow: white 1px 1px 1px, white -1px -1px 1px, white 1px -1px 1px, white -1px 1px 1px;">wallclimb</text></g><g class="sankey-node" transform="translate(750.000,678.305)" style="opacity: 1;"><rect class="node-rect" width="15" height="41.695464362851" style="stroke-width: 0.5; stroke: rgb(0, 0, 0); stroke-opacity: 1; fill: rgb(128, 128, 128); fill-opacity: 1;"/><text class="node-label" data-notex="1" x="0" y="0" text-anchor="start" transform="translate(18.25,25.0477321814255)" style="cursor: default; font-family: 'Open Sans', verdana, arial, sans-serif; font-size: 12px; fill: rgb(42, 63, 95); fill-opacity: 1; white-space: pre; text-shadow: white 1px 1px 1px, white -1px -1px 1px, white 1px -1px 1px, white -1px 1px 1px;">groom_front</text></g><g class="sankey-node" transform="translate(750.000,625.400)" style="opacity: 1;"><rect class="node-rect" width="15" height="37.904967602591796" style="stroke-width: 0.5; stroke: rgb(0, 0, 0); stroke-opacity: 1; fill: rgb(128, 128, 128); fill-opacity: 1;"/><text class="node-label" data-notex="1" x="0" y="0" text-anchor="start" transform="translate(18.25,23.152483801295897)" style="cursor: default; font-family: 'Open Sans', verdana, arial, sans-serif; font-size: 12px; fill: rgb(42, 63, 95); fill-opacity: 1; white-space: pre; text-shadow: white 1px 1px 1px, white -1px -1px 1px, white 1px -1px 1px, white -1px 1px 1px;">still</text></g><g class="sankey-node" transform="translate(1125.000,248.585)" style="opacity: 1;"><rect class="node-rect" width="15" height="70.75593952483831" style="stroke-width: 0.5; stroke: rgb(0, 0, 0); stroke-opacity: 1; fill: rgb(128, 128, 128); fill-opacity: 1;"/><text class="node-label" data-notex="1" x="0" y="0" text-anchor="end" transform="translate(-3.25,39.57796976241916)" style="cursor: default; font-family: 'Open Sans', verdana, arial, sans-serif; font-size: 12px; fill: rgb(42, 63, 95); fill-opacity: 1; white-space: pre; text-shadow: white 1px 1px 1px, white -1px -1px 1px, white 1px -1px 1px, white -1px 1px 1px;">dig-activated</text></g><g class="sankey-node" transform="translate(1125.000,-0.000)" style="opacity: 1;"><rect class="node-rect" width="15" height="121.29589632829374" style="stroke-width: 0.5; stroke: rgb(0, 0, 0); stroke-opacity: 1; fill: rgb(128, 128, 128); fill-opacity: 1;"/><text class="node-label" data-notex="1" x="0" y="0" text-anchor="end" transform="translate(-3.25,64.84794816414687)" style="cursor: default; font-family: 'Open Sans', verdana, arial, sans-serif; font-size: 12px; fill: rgb(42, 63, 95); fill-opacity: 1; white-space: pre; text-shadow: white 1px 1px 1px, white -1px -1px 1px, white 1px -1px 1px, white -1px 1px 1px;">walk-activated</text></g><g class="sankey-node" transform="translate(1125.000,509.644)" style="opacity: 1;"><rect class="node-rect" width="15" height="70.75593952483837" style="stroke-width: 0.5; stroke: rgb(0, 0, 0); stroke-opacity: 1; fill: rgb(128, 128, 128); fill-opacity: 1;"/><text class="node-label" data-notex="1" x="0" y="0" text-anchor="end" transform="translate(-3.25,39.57796976241919)" style="cursor: default; font-family: 'Open Sans', verdana, arial, sans-serif; font-size: 12px; fill: rgb(42, 63, 95); fill-opacity: 1; white-space: pre; text-shadow: white 1px 1px 1px, white -1px -1px 1px, white 1px -1px 1px, white -1px 1px 1px;">wallclimb-suppressed</text></g><g class="sankey-node" transform="translate(1125.000,136.296)" style="opacity: 1;"><rect class="node-rect" width="15" height="97.28941684665247" style="stroke-width: 0.5; stroke: rgb(0, 0, 0); stroke-opacity: 1; fill: rgb(128, 128, 128); fill-opacity: 1;"/><text class="node-label" data-notex="1" x="0" y="0" text-anchor="end" transform="translate(-3.25,52.84470842332624)" style="cursor: default; font-family: 'Open Sans', verdana, arial, sans-serif; font-size: 12px; fill: rgb(42, 63, 95); fill-opacity: 1; white-space: pre; text-shadow: white 1px 1px 1px, white -1px -1px 1px, white 1px -1px 1px, white -1px 1px 1px;">walk-suppressed</text></g><g class="sankey-node" transform="translate(1125.000,416.307)" style="opacity: 1;"><rect class="node-rect" width="15" height="78.33693304535672" style="stroke-width: 0.5; stroke: rgb(0, 0, 0); stroke-opacity: 1; fill: rgb(128, 128, 128); fill-opacity: 1;"/><text class="node-label" data-notex="1" x="0" y="0" text-anchor="end" transform="translate(-3.25,43.36846652267836)" style="cursor: default; font-family: 'Open Sans', verdana, arial, sans-serif; font-size: 12px; fill: rgb(42, 63, 95); fill-opacity: 1; white-space: pre; text-shadow: white 1px 1px 1px, white -1px -1px 1px, white 1px -1px 1px, white -1px 1px 1px;">wallclimb-activated</text></g><g class="sankey-node" transform="translate(1125.000,334.341)" style="opacity: 1;"><rect class="node-rect" width="15" height="66.96544276457882" style="stroke-width: 0.5; stroke: rgb(0, 0, 0); stroke-opacity: 1; fill: rgb(128, 128, 128); fill-opacity: 1;"/><text class="node-label" data-notex="1" x="0" y="0" text-anchor="end" transform="translate(-3.25,37.682721382289415)" style="cursor: default; font-family: 'Open Sans', verdana, arial, sans-serif; font-size: 12px; fill: rgb(42, 63, 95); fill-opacity: 1; white-space: pre; text-shadow: white 1px 1px 1px, white -1px -1px 1px, white 1px -1px 1px, white -1px 1px 1px;">dig-suppressed</text></g><g class="sankey-node" transform="translate(1125.000,595.400)" style="opacity: 1;"><rect class="node-rect" width="15" height="20.21598272138226" style="stroke-width: 0.5; stroke: rgb(0, 0, 0); stroke-opacity: 1; fill: rgb(128, 128, 128); fill-opacity: 1;"/><text class="node-label" data-notex="1" x="0" y="0" text-anchor="end" transform="translate(-3.25,14.30799136069113)" style="cursor: default; font-family: 'Open Sans', verdana, arial, sans-serif; font-size: 12px; fill: rgb(42, 63, 95); fill-opacity: 1; white-space: pre; text-shadow: white 1px 1px 1px, white -1px -1px 1px, white 1px -1px 1px, white -1px 1px 1px;">groom_front-activated</text></g><g class="sankey-node" transform="translate(1125.000,667.095)" style="opacity: 1;"><rect class="node-rect" width="15" height="20.21598272138226" style="stroke-width: 0.5; stroke: rgb(0, 0, 0); stroke-opacity: 1; fill: rgb(128, 128, 128); fill-opacity: 1;"/><text class="node-label" data-notex="1" x="0" y="0" text-anchor="end" transform="translate(-3.25,14.30799136069113)" style="cursor: default; font-family: 'Open Sans', verdana, arial, sans-serif; font-size: 12px; fill: rgb(42, 63, 95); fill-opacity: 1; white-space: pre; text-shadow: white 1px 1px 1px, white -1px -1px 1px, white 1px -1px 1px, white -1px 1px 1px;">still-suppressed</text></g><g class="sankey-node" transform="translate(1125.000,702.311)" style="opacity: 1;"><rect class="node-rect" width="15" height="17.688984881209535" style="stroke-width: 0.5; stroke: rgb(0, 0, 0); stroke-opacity: 1; fill: rgb(128, 128, 128); fill-opacity: 1;"/><text class="node-label" data-notex="1" x="0" y="0" text-anchor="end" transform="translate(-3.25,13.044492440604767)" style="cursor: default; font-family: 'Open Sans', verdana, arial, sans-serif; font-size: 12px; fill: rgb(42, 63, 95); fill-opacity: 1; white-space: pre; text-shadow: white 1px 1px 1px, white -1px -1px 1px, white 1px -1px 1px, white -1px 1px 1px;">still-activated</text></g><g class="sankey-node" transform="translate(1125.000,630.616)" style="opacity: 1;"><rect class="node-rect" width="15" height="21.479481641468738" style="stroke-width: 0.5; stroke: rgb(0, 0, 0); stroke-opacity: 1; fill: rgb(128, 128, 128); fill-opacity: 1;"/><text class="node-label" data-notex="1" x="0" y="0" text-anchor="end" transform="translate(-3.25,14.939740820734368)" style="cursor: default; font-family: 'Open Sans', verdana, arial, sans-serif; font-size: 12px; fill: rgb(42, 63, 95); fill-opacity: 1; white-space: pre; text-shadow: white 1px 1px 1px, white -1px -1px 1px, white 1px -1px 1px, white -1px 1px 1px;">groom_front-suppressed</text></g><g class="sankey-node" transform="translate(375.000,534.428)" style="opacity: 1;"><rect class="node-rect" width="15" height="135.19438444924378" style="stroke-width: 0.5; stroke: rgb(0, 0, 0); stroke-opacity: 1; fill: rgb(99, 110, 250); fill-opacity: 1;"/><text class="node-label" data-notex="1" x="0" y="0" text-anchor="start" transform="translate(18.25,71.7971922246219)" style="cursor: default; font-family: 'Open Sans', verdana, arial, sans-serif; font-size: 12px; fill: rgb(42, 63, 95); fill-opacity: 1; white-space: pre; text-shadow: white 1px 1px 1px, white -1px -1px 1px, white 1px -1px 1px, white -1px 1px 1px;">VTA</text></g><g class="sankey-node" transform="translate(375.000,236.890)" style="opacity: 1;"><rect class="node-rect" width="15" height="85.9179265658745" style="stroke-width: 0.5; stroke: rgb(0, 0, 0); stroke-opacity: 1; fill: rgb(239, 85, 59); fill-opacity: 1;"/><text class="node-label" data-notex="1" x="0" y="0" text-anchor="start" transform="translate(18.25,47.15896328293725)" style="cursor: default; font-family: 'Open Sans', verdana, arial, sans-serif; font-size: 12px; fill: rgb(42, 63, 95); fill-opacity: 1; white-space: pre; text-shadow: white 1px 1px 1px, white -1px -1px 1px, white 1px -1px 1px, white -1px 1px 1px;">LC</text></g><g class="sankey-node" transform="translate(375.000,337.808)" style="opacity: 1;"><rect class="node-rect" width="15" height="83.39092872570143" style="stroke-width: 0.5; stroke: rgb(0, 0, 0); stroke-opacity: 1; fill: rgb(0, 204, 150); fill-opacity: 1;"/><text class="node-label" data-notex="1" x="0" y="0" text-anchor="start" transform="translate(18.25,45.89546436285072)" style="cursor: default; font-family: 'Open Sans', verdana, arial, sans-serif; font-size: 12px; fill: rgb(42, 63, 95); fill-opacity: 1; white-space: pre; text-shadow: white 1px 1px 1px, white -1px -1px 1px, white 1px -1px 1px, white -1px 1px 1px;">Cla</text></g><g class="sankey-node" transform="translate(375.000,120.810)" style="opacity: 1;"><rect class="node-rect" width="15" height="101.07991360691142" style="stroke-width: 0.5; stroke: rgb(0, 0, 0); stroke-opacity: 1; fill: rgb(171, 99, 250); fill-opacity: 1;"/><text class="node-label" data-notex="1" x="0" y="0" text-anchor="start" transform="translate(18.25,54.73995680345571)" style="cursor: default; font-family: 'Open Sans', verdana, arial, sans-serif; font-size: 12px; fill: rgb(42, 63, 95); fill-opacity: 1; white-space: pre; text-shadow: white 1px 1px 1px, white -1px -1px 1px, white 1px -1px 1px, white -1px 1px 1px;">Str</text></g><g class="sankey-node" transform="translate(375.000,66.641)" style="opacity: 1;"><rect class="node-rect" width="15" height="39.168466522678386" style="stroke-width: 0.5; stroke: rgb(0, 0, 0); stroke-opacity: 1; fill: rgb(255, 161, 90); fill-opacity: 1;"/><text class="node-label" data-notex="1" x="0" y="0" text-anchor="start" transform="translate(18.25,23.784233261339192)" style="cursor: default; font-family: 'Open Sans', verdana, arial, sans-serif; font-size: 12px; fill: rgb(42, 63, 95); fill-opacity: 1; white-space: pre; text-shadow: white 1px 1px 1px, white -1px -1px 1px, white 1px -1px 1px, white -1px 1px 1px;">NAc</text></g><g class="sankey-node" transform="translate(375.000,0.000)" style="opacity: 1;"><rect class="node-rect" width="15" height="29.06047516198697" style="stroke-width: 0.5; stroke: rgb(0, 0, 0); stroke-opacity: 1; fill: rgb(25, 211, 243); fill-opacity: 1;"/><text class="node-label" data-notex="1" x="0" y="0" text-anchor="start" transform="translate(18.25,18.730237580993485)" style="cursor: default; font-family: 'Open Sans', verdana, arial, sans-serif; font-size: 12px; fill: rgb(42, 63, 95); fill-opacity: 1; white-space: pre; text-shadow: white 1px 1px 1px, white -1px -1px 1px, white 1px -1px 1px, white -1px 1px 1px;">BLA</text></g><g class="sankey-node" transform="translate(375.000,44.060)" style="opacity: 1;"><rect class="node-rect" width="15" height="7.5809935205184615" style="stroke-width: 0.5; stroke: rgb(0, 0, 0); stroke-opacity: 1; fill: rgb(255, 102, 146); fill-opacity: 1;"/><text class="node-label" data-notex="1" x="0" y="0" text-anchor="start" transform="translate(18.25,7.99049676025923)" style="cursor: default; font-family: 'Open Sans', verdana, arial, sans-serif; font-size: 12px; fill: rgb(42, 63, 95); fill-opacity: 1; white-space: pre; text-shadow: white 1px 1px 1px, white -1px -1px 1px, white 1px -1px 1px, white -1px 1px 1px;">lHb</text></g><g class="sankey-node" transform="translate(375.000,436.199)" style="opacity: 1;"><rect class="node-rect" width="15" height="25.269978401727826" style="stroke-width: 0.5; stroke: rgb(0, 0, 0); stroke-opacity: 1; fill: rgb(182, 232, 128); fill-opacity: 1;"/><text class="node-label" data-notex="1" x="0" y="0" text-anchor="start" transform="translate(18.25,16.834989200863912)" style="cursor: default; font-family: 'Open Sans', verdana, arial, sans-serif; font-size: 12px; fill: rgb(42, 63, 95); fill-opacity: 1; white-space: pre; text-shadow: white 1px 1px 1px, white -1px -1px 1px, white 1px -1px 1px, white -1px 1px 1px;">dPAG</text></g><g class="sankey-node" transform="translate(375.000,476.469)" style="opacity: 1;"><rect class="node-rect" width="15" height="42.95896328293725" style="stroke-width: 0.5; stroke: rgb(0, 0, 0); stroke-opacity: 1; fill: rgb(255, 151, 255); fill-opacity: 1;"/><text class="node-label" data-notex="1" x="0" y="0" text-anchor="start" transform="translate(18.25,25.679481641468623)" style="cursor: default; font-family: 'Open Sans', verdana, arial, sans-serif; font-size: 12px; fill: rgb(42, 63, 95); fill-opacity: 1; white-space: pre; text-shadow: white 1px 1px 1px, white -1px -1px 1px, white 1px -1px 1px, white -1px 1px 1px;">cPFC</text></g><g class="sankey-node" transform="translate(375.000,684.622)" style="opacity: 1;"><rect class="node-rect" width="15" height="35.37796976241907" style="stroke-width: 0.5; stroke: rgb(0, 0, 0); stroke-opacity: 1; fill: rgb(254, 203, 82); fill-opacity: 1;"/><text class="node-label" data-notex="1" x="0" y="0" text-anchor="start" transform="translate(18.25,21.888984881209534)" style="cursor: default; font-family: 'Open Sans', verdana, arial, sans-serif; font-size: 12px; fill: rgb(42, 63, 95); fill-opacity: 1; white-space: pre; text-shadow: white 1px 1px 1px, white -1px -1px 1px, white 1px -1px 1px, white -1px 1px 1px;">LHyp</text></g></g></g><defs id="topdefs-81ad2e"><g class="clips"/></defs><g class="layer-above"><g class="imagelayer"/><g class="shapelayer"/></g><g class="infolayer"><g class="g-gtitle"/><g class="first-render"/></g></svg>