<svg class="main-svg" xmlns="http://www.w3.org/2000/svg" xmlns:xlink="http://www.w3.org/1999/xlink" width="1300" height="900" style="" viewBox="0 0 1300 900"><rect x="0" y="0" width="1300" height="900" style="fill: rgb(255, 255, 255); fill-opacity: 1;"/><defs id="defs-f2f47a"><g class="clips"/><g class="gradients"/><g class="patterns"/></defs><g class="bglayer"/><g class="layer-below"><g class="imagelayer"/><g class="shapelayer"/></g><g class="cartesianlayer"/><g class="polarlayer"/><g class="smithlayer"/><g class="ternarylayer"/><g class="geolayer"/><g class="funnelarealayer"/><g class="pielayer"/><g class="iciclelayer"/><g class="treemaplayer"/><g class="sunburstlayer"/><g class="glimages"/><g class="sankey" transform="translate(80,100)matrix(1 0 0 1 0 0)" style="box-sizing: content-box; position: absolute; left: 0px; shape-rendering: geometricprecision; pointer-events: none;"><g class="sankey-links" style="fill: none;"><path class="sankey-link" d="M15,231.59759944193004C195,231.59759944193004 195,7.673861546209082e-13 375,7.673861546209082e-13L375,20.17241379310422C195,20.17241379310422 195,251.77001323503347 15,251.77001323503347Z" style="stroke: rgb(68, 68, 68); stroke-opacity: 1; fill: rgb(99, 110, 250); fill-opacity: 0.6; stroke-width: 0; opacity: 1;"/><path class="sankey-link" d="M15,286.80631087568685C195,286.80631087568685 195,157.5408348457358 375,157.5408348457358L375,181.96007259528204C195,181.96007259528204 195,311.2255486252331 15,311.2255486252331Z" style="stroke: rgb(68, 68, 68); stroke-opacity: 1; fill: rgb(25, 211, 243); fill-opacity: 0.6; stroke-width: 0; opacity: 1;"/><path class="sankey-link" d="M15,257.078543180587C195,257.078543180587 195,79.90018148820394 375,79.90018148820394L375,109.62794918330377C195,109.62794918330377 195,286.80631087568685 15,286.80631087568685Z" style="stroke: rgb(68, 68, 68); stroke-opacity: 1; fill: rgb(239, 85, 59); fill-opacity: 0.6; stroke-width: 0; opacity: 1;"/><path class="sankey-link" d="M15,311.22554862523316C195,311.22554862523316 195,262.78584392014574 375,262.78584392014574L375,276.58802177858496C195,276.58802177858496 195,325.0277264836724 15,325.0277264836724Z" style="stroke: rgb(68, 68, 68); stroke-opacity: 1; fill: rgb(182, 232, 128); fill-opacity: 0.6; stroke-width: 0; opacity: 1;"/><path class="sankey-link" d="M15,335.64478637477947C195,335.64478637477947 195,353.3030852994556 375,353.3030852994556L375,384.0925589836661C195,384.0925589836661 195,366.43426005899 15,366.43426005899Z" style="stroke: rgb(68, 68, 68); stroke-opacity: 1; fill: rgb(255, 161, 90); fill-opacity: 0.6; stroke-width: 0; opacity: 1;"/><path class="sankey-link" d="M15,383.42155588476135C195,383.42155588476135 195,529.8185117967331 375,529.8185117967331L375,536.1887477313973C195,536.1887477313973 195,389.7917918194256 15,389.7917918194256Z" style="stroke: rgb(68, 68, 68); stroke-opacity: 1; fill: rgb(255, 151, 255); fill-opacity: 0.6; stroke-width: 0; opacity: 1;"/><path class="sankey-link" d="M15,366.43426005899C195,366.43426005899 195,464.9183303085298 375,464.9183303085298L375,481.9056261343011C195,481.9056261343011 195,383.4215558847613 15,383.4215558847613Z" style="stroke: rgb(68, 68, 68); stroke-opacity: 1; fill: rgb(255, 102, 146); fill-opacity: 0.6; stroke-width: 0; opacity: 1;"/><path class="sankey-link" d="M15,325.0277264836724C195,325.0277264836724 195,306.45190562613453 375,306.45190562613453L375,317.06896551724157C195,317.06896551724157 195,335.6447863747794 15,335.6447863747794Z" style="stroke: rgb(68, 68, 68); stroke-opacity: 1; fill: rgb(0, 204, 150); fill-opacity: 0.6; stroke-width: 0; opacity: 1;"/><path class="sankey-link" d="M15,251.7700132350335C195,251.7700132350335 195,54.283121597096965 375,54.283121597096965L375,59.59165154265051C195,59.59165154265051 195,257.078543180587 15,257.078543180587Z" style="stroke: rgb(68, 68, 68); stroke-opacity: 1; fill: rgb(171, 99, 250); fill-opacity: 0.6; stroke-width: 0; opacity: 1;"/><path class="sankey-link" d="M15,404.7917918194256C195,404.7917918194256 195,20.17241379310422 375,20.17241379310422L375,27.604355716879176C195,27.604355716879176 195,412.22373374320057 15,412.22373374320057Z" style="stroke: rgb(68, 68, 68); stroke-opacity: 1; fill: rgb(99, 110, 250); fill-opacity: 0.6; stroke-width: 0; opacity: 1;"/><path class="sankey-link" d="M15,413.28543973231126C195,413.28543973231126 195,181.96007259528207 375,181.96007259528207L375,208.50272232304977C195,208.50272232304977 195,439.8280894600789 15,439.8280894600789Z" style="stroke: rgb(68, 68, 68); stroke-opacity: 1; fill: rgb(25, 211, 243); fill-opacity: 0.6; stroke-width: 0; opacity: 1;"/><path class="sankey-link" d="M15,412.22373374320057C195,412.22373374320057 195,109.62794918330377 375,109.62794918330377L375,110.68965517241449C195,110.68965517241449 195,413.28543973231126 15,413.28543973231126Z" style="stroke: rgb(68, 68, 68); stroke-opacity: 1; fill: rgb(239, 85, 59); fill-opacity: 0.6; stroke-width: 0; opacity: 1;"/><path class="sankey-link" d="M15,439.82808946007896C195,439.82808946007896 195,276.58802177858496 375,276.58802177858496L375,287.205081669692C195,287.205081669692 195,450.445149351186 15,450.445149351186Z" style="stroke: rgb(68, 68, 68); stroke-opacity: 1; fill: rgb(182, 232, 128); fill-opacity: 0.6; stroke-width: 0; opacity: 1;"/><path class="sankey-link" d="M15,460.00050325318244C195,460.00050325318244 195,384.0925589836661 375,384.0925589836661L375,391.52450090744105C195,391.52450090744105 195,467.4324451769574 15,467.4324451769574Z" style="stroke: rgb(68, 68, 68); stroke-opacity: 1; fill: rgb(255, 161, 90); fill-opacity: 0.6; stroke-width: 0; opacity: 1;"/><path class="sankey-link" d="M15,472.7409751225109C195,472.7409751225109 195,536.1887477313974 375,536.1887477313974L375,539.3738656987296C195,539.3738656987296 195,475.926093089843 15,475.926093089843Z" style="stroke: rgb(68, 68, 68); stroke-opacity: 1; fill: rgb(255, 151, 255); fill-opacity: 0.6; stroke-width: 0; opacity: 1;"/><path class="sankey-link" d="M15,467.4324451769574C195,467.4324451769574 195,481.9056261343011 375,481.9056261343011L375,487.21415607985466C195,487.21415607985466 195,472.740975122511 15,472.740975122511Z" style="stroke: rgb(68, 68, 68); stroke-opacity: 1; fill: rgb(255, 102, 146); fill-opacity: 0.6; stroke-width: 0; opacity: 1;"/><path class="sankey-link" d="M15,450.44514935118605C195,450.44514935118605 195,317.0689655172416 375,317.0689655172416L375,326.62431941923796C195,326.62431941923796 195,460.0005032531824 15,460.0005032531824Z" style="stroke: rgb(68, 68, 68); stroke-opacity: 1; fill: rgb(0, 204, 150); fill-opacity: 0.6; stroke-width: 0; opacity: 1;"/><path class="sankey-link" d="M15,496.2346230353966C195,496.2346230353966 195,208.50272232304977 375,208.50272232304977L375,216.99637023593542C195,216.99637023593542 195,504.7282709482823 15,504.7282709482823Z" style="stroke: rgb(68, 68, 68); stroke-opacity: 1; fill: rgb(25, 211, 243); fill-opacity: 0.6; stroke-width: 0; opacity: 1;"/><path class="sankey-link" d="M15,490.9260930898431C195,490.9260930898431 195,110.68965517241448 375,110.68965517241448L375,115.99818511796802C195,115.99818511796802 195,496.2346230353967 15,496.2346230353967Z" style="stroke: rgb(68, 68, 68); stroke-opacity: 1; fill: rgb(239, 85, 59); fill-opacity: 0.6; stroke-width: 0; opacity: 1;"/><path class="sankey-link" d="M15,581.1711021642532C195,581.1711021642532 195,684.9637023593464 375,684.9637023593464L375,696.6424682395641C195,696.6424682395641 195,592.8498680444709 15,592.8498680444709Z" style="stroke: rgb(68, 68, 68); stroke-opacity: 1; fill: rgb(254, 203, 82); fill-opacity: 0.6; stroke-width: 0; opacity: 1;"/><path class="sankey-link" d="M15,507.9133889156144C195,507.9133889156144 195,391.52450090744105 375,391.52450090744105L375,408.51179673321235C195,408.51179673321235 195,524.9006847413857 15,524.9006847413857Z" style="stroke: rgb(68, 68, 68); stroke-opacity: 1; fill: rgb(255, 161, 90); fill-opacity: 0.6; stroke-width: 0; opacity: 1;"/><path class="sankey-link" d="M15,532.3326266651607C195,532.3326266651607 195,539.3738656987294 375,539.3738656987294L375,588.212341197822C195,588.212341197822 195,581.1711021642532 15,581.1711021642532Z" style="stroke: rgb(68, 68, 68); stroke-opacity: 1; fill: rgb(255, 151, 255); fill-opacity: 0.6; stroke-width: 0; opacity: 1;"/><path class="sankey-link" d="M15,524.9006847413857C195,524.9006847413857 195,487.2141560798546 375,487.2141560798546L375,494.64609800362956C195,494.64609800362956 195,532.3326266651607 15,532.3326266651607Z" style="stroke: rgb(68, 68, 68); stroke-opacity: 1; fill: rgb(255, 102, 146); fill-opacity: 0.6; stroke-width: 0; opacity: 1;"/><path class="sankey-link" d="M15,504.7282709482823C195,504.7282709482823 195,326.624319419238 375,326.624319419238L375,329.8094373865701C195,329.8094373865701 195,507.91338891561435 15,507.91338891561435Z" style="stroke: rgb(68, 68, 68); stroke-opacity: 1; fill: rgb(0, 204, 150); fill-opacity: 0.6; stroke-width: 0; opacity: 1;"/><path class="sankey-link" d="M15,613.1583979900246C195,613.1583979900246 195,216.99637023593544 375,216.99637023593544L375,225.4900181488211C195,225.4900181488211 195,621.6520459029103 15,621.6520459029103Z" style="stroke: rgb(68, 68, 68); stroke-opacity: 1; fill: rgb(25, 211, 243); fill-opacity: 0.6; stroke-width: 0; opacity: 1;"/><path class="sankey-link" d="M15,607.849868044471C195,607.849868044471 195,115.99818511796802 375,115.99818511796802L375,121.30671506352157C195,121.30671506352157 195,613.1583979900246 15,613.1583979900246Z" style="stroke: rgb(68, 68, 68); stroke-opacity: 1; fill: rgb(239, 85, 59); fill-opacity: 0.6; stroke-width: 0; opacity: 1;"/><path class="sankey-link" d="M15,698.0948771188812C195,698.0948771188812 195,696.6424682395642 375,696.6424682395642L375,709.3829401088927C195,709.3829401088927 195,710.8353489882097 15,710.8353489882097Z" style="stroke: rgb(68, 68, 68); stroke-opacity: 1; fill: rgb(254, 203, 82); fill-opacity: 0.6; stroke-width: 0; opacity: 1;"/><path class="sankey-link" d="M15,624.8371638702423C195,624.8371638702423 195,408.51179673321235 375,408.51179673321235L375,425.49909255898365C195,425.49909255898365 195,641.8244596960136 15,641.8244596960136Z" style="stroke: rgb(68, 68, 68); stroke-opacity: 1; fill: rgb(255, 161, 90); fill-opacity: 0.6; stroke-width: 0; opacity: 1;"/><path class="sankey-link" d="M15,649.2564016197886C195,649.2564016197886 195,588.2123411978221 375,588.2123411978221L375,637.0508166969146C195,637.0508166969146 195,698.0948771188811 15,698.0948771188811Z" style="stroke: rgb(68, 68, 68); stroke-opacity: 1; fill: rgb(255, 151, 255); fill-opacity: 0.6; stroke-width: 0; opacity: 1;"/><path class="sankey-link" d="M15,641.8244596960136C195,641.8244596960136 195,494.64609800362956 375,494.64609800362956L375,502.0780399274045C195,502.0780399274045 195,649.2564016197886 15,649.2564016197886Z" style="stroke: rgb(68, 68, 68); stroke-opacity: 1; fill: rgb(255, 102, 146); fill-opacity: 0.6; stroke-width: 0; opacity: 1;"/><path class="sankey-link" d="M15,621.6520459029102C195,621.6520459029102 195,329.80943738657015 375,329.80943738657015L375,332.99455535390223C195,332.99455535390223 195,624.8371638702424 15,624.8371638702424Z" style="stroke: rgb(68, 68, 68); stroke-opacity: 1; fill: rgb(0, 204, 150); fill-opacity: 0.6; stroke-width: 0; opacity: 1;"/><path class="sankey-link" d="M390,7.673861546209082e-13C570,7.673861546209082e-13 570,74.9999999999992 750,74.9999999999992L750,82.43194192377416C570,82.43194192377416 570,7.431941923775723 390,7.431941923775723Z" style="stroke: rgb(68, 68, 68); stroke-opacity: 1; fill: rgb(99, 110, 250); fill-opacity: 0.6; stroke-width: 0; opacity: 1;"/><path class="sankey-link" d="M390,7.431941923775721C570,7.431941923775721 570,202.54083484573437 750,202.54083484573437L750,222.7132486388378C570,222.7132486388378 570,27.604355716879173 390,27.604355716879173Z" style="stroke: rgb(68, 68, 68); stroke-opacity: 1; fill: rgb(99, 110, 250); fill-opacity: 0.6; stroke-width: 0; opacity: 1;"/><path class="sankey-link" d="M390,27.604355716879173C570,27.604355716879173 570,425.6352087114328 750,425.6352087114328L750,437.31397459165066C570,437.31397459165066 570,39.28312159709696 390,39.28312159709696Z" style="stroke: rgb(68, 68, 68); stroke-opacity: 1; fill: rgb(99, 110, 250); fill-opacity: 0.6; stroke-width: 0; opacity: 1;"/><path class="sankey-link" d="M390,157.5408348457358C570,157.5408348457358 570,97.29582577132408 750,97.29582577132408L750,115.34482758620612C570,115.34482758620612 570,175.58983666061783 390,175.58983666061783Z" style="stroke: rgb(68, 68, 68); stroke-opacity: 1; fill: rgb(25, 211, 243); fill-opacity: 0.6; stroke-width: 0; opacity: 1;"/><path class="sankey-link" d="M390,236.10707803992818C570,236.10707803992818 570,600.9528130671504 750,600.9528130671504L750,609.4464609800361C570,609.4464609800361 570,244.60072595281383 390,244.60072595281383Z" style="stroke: rgb(68, 68, 68); stroke-opacity: 1; fill: rgb(25, 211, 243); fill-opacity: 0.6; stroke-width: 0; opacity: 1;"/><path class="sankey-link" d="M390,244.60072595281383C570,244.60072595281383 570,687.0871143375681 750,687.0871143375681L750,690.2722323049003C570,690.2722323049003 570,247.78584392014596 390,247.78584392014596Z" style="stroke: rgb(68, 68, 68); stroke-opacity: 1; fill: rgb(25, 211, 243); fill-opacity: 0.6; stroke-width: 0; opacity: 1;"/><path class="sankey-link" d="M390,175.58983666061783C570,175.58983666061783 570,253.50272232304837 750,253.50272232304837L750,284.2921960072589C570,284.2921960072589 570,206.37931034482835 390,206.37931034482835Z" style="stroke: rgb(68, 68, 68); stroke-opacity: 1; fill: rgb(25, 211, 243); fill-opacity: 0.6; stroke-width: 0; opacity: 1;"/><path class="sankey-link" d="M390,206.37931034482835C570,206.37931034482835 570,456.42468239564334 750,456.42468239564334L750,486.1524500907432C570,486.1524500907432 570,236.10707803992818 390,236.10707803992818Z" style="stroke: rgb(68, 68, 68); stroke-opacity: 1; fill: rgb(25, 211, 243); fill-opacity: 0.6; stroke-width: 0; opacity: 1;"/><path class="sankey-link" d="M390,79.90018148820394C570,79.90018148820394 570,84.55535390199557 750,84.55535390199557L750,97.29582577132408C570,97.29582577132408 570,92.64065335753244 390,92.64065335753244Z" style="stroke: rgb(68, 68, 68); stroke-opacity: 1; fill: rgb(239, 85, 59); fill-opacity: 0.6; stroke-width: 0; opacity: 1;"/><path class="sankey-link" d="M390,134.04718693285005C570,134.04718693285005 570,595.6442831215968 750,595.6442831215968L750,600.9528130671504C570,600.9528130671504 570,139.35571687840357 390,139.35571687840357Z" style="stroke: rgb(68, 68, 68); stroke-opacity: 1; fill: rgb(239, 85, 59); fill-opacity: 0.6; stroke-width: 0; opacity: 1;"/><path class="sankey-link" d="M390,139.3557168784036C570,139.3557168784036 570,683.901996370236 750,683.901996370236L750,687.0871143375682C570,687.0871143375682 570,142.54083484573573 390,142.54083484573573Z" style="stroke: rgb(68, 68, 68); stroke-opacity: 1; fill: rgb(239, 85, 59); fill-opacity: 0.6; stroke-width: 0; opacity: 1;"/><path class="sankey-link" d="M390,92.64065335753244C570,92.64065335753244 570,228.02177858439137 750,228.02177858439137L750,253.50272232304837C570,253.50272232304837 570,118.12159709618945 390,118.12159709618945Z" style="stroke: rgb(68, 68, 68); stroke-opacity: 1; fill: rgb(239, 85, 59); fill-opacity: 0.6; stroke-width: 0; opacity: 1;"/><path class="sankey-link" d="M390,118.12159709618943C570,118.12159709618943 570,440.49909255898274 750,440.49909255898274L750,456.42468239564334C570,456.42468239564334 570,134.04718693285005 390,134.04718693285005Z" style="stroke: rgb(68, 68, 68); stroke-opacity: 1; fill: rgb(239, 85, 59); fill-opacity: 0.6; stroke-width: 0; opacity: 1;"/><path class="sankey-link" d="M390,684.9637023593464C570,684.9637023593464 570,184.35571687840215 750,184.35571687840215L750,187.54083484573428C570,187.54083484573428 570,688.1488203266786 390,688.1488203266786Z" style="stroke: rgb(68, 68, 68); stroke-opacity: 1; fill: rgb(254, 203, 82); fill-opacity: 0.6; stroke-width: 0; opacity: 1;"/><path class="sankey-link" d="M390,710.4446460980033C570,710.4446460980033 570,661.4700544464607 750,661.4700544464607L750,668.9019963702357C570,668.9019963702357 570,717.8765880217783 390,717.8765880217783Z" style="stroke: rgb(68, 68, 68); stroke-opacity: 1; fill: rgb(254, 203, 82); fill-opacity: 0.6; stroke-width: 0; opacity: 1;"/><path class="sankey-link" d="M390,717.8765880217783C570,717.8765880217783 570,717.8765880217786 750,717.8765880217786L750,720C570,720 570,719.9999999999997 390,719.9999999999997Z" style="stroke: rgb(68, 68, 68); stroke-opacity: 1; fill: rgb(254, 203, 82); fill-opacity: 0.6; stroke-width: 0; opacity: 1;"/><path class="sankey-link" d="M390,688.1488203266784C570,688.1488203266784 570,398.9564428312153 750,398.9564428312153L750,410.63520871143317C570,410.63520871143317 570,699.8275862068962 390,699.8275862068962Z" style="stroke: rgb(68, 68, 68); stroke-opacity: 1; fill: rgb(254, 203, 82); fill-opacity: 0.6; stroke-width: 0; opacity: 1;"/><path class="sankey-link" d="M390,699.8275862068963C570,699.8275862068963 570,570.0272232304892 750,570.0272232304892L750,580.6442831215963C570,580.6442831215963 570,710.4446460980034 390,710.4446460980034Z" style="stroke: rgb(68, 68, 68); stroke-opacity: 1; fill: rgb(254, 203, 82); fill-opacity: 0.6; stroke-width: 0; opacity: 1;"/><path class="sankey-link" d="M390,262.78584392014574C570,262.78584392014574 570,115.34482758620611 750,115.34482758620611L750,120.65335753175965C570,120.65335753175965 570,268.0943738656993 390,268.0943738656993Z" style="stroke: rgb(68, 68, 68); stroke-opacity: 1; fill: rgb(182, 232, 128); fill-opacity: 0.6; stroke-width: 0; opacity: 1;"/><path class="sankey-link" d="M390,288.26678765880274C570,288.26678765880274 570,609.446460980036 750,609.446460980036L750,612.6315789473682C570,612.6315789473682 570,291.4519056261348 390,291.4519056261348Z" style="stroke: rgb(68, 68, 68); stroke-opacity: 1; fill: rgb(182, 232, 128); fill-opacity: 0.6; stroke-width: 0; opacity: 1;"/><path class="sankey-link" d="M390,268.09437386569925C570,268.09437386569925 570,284.2921960072589 750,284.2921960072589L750,294.9092558983659C570,294.9092558983659 570,278.7114337568063 390,278.7114337568063Z" style="stroke: rgb(68, 68, 68); stroke-opacity: 1; fill: rgb(182, 232, 128); fill-opacity: 0.6; stroke-width: 0; opacity: 1;"/><path class="sankey-link" d="M390,278.71143375680634C570,278.71143375680634 570,486.1524500907432 750,486.1524500907432L750,495.7078039927395C570,495.7078039927395 570,288.2667876588027 390,288.2667876588027Z" style="stroke: rgb(68, 68, 68); stroke-opacity: 1; fill: rgb(182, 232, 128); fill-opacity: 0.6; stroke-width: 0; opacity: 1;"/><path class="sankey-link" d="M390,353.3030852994556C570,353.3030852994556 570,127.02359346642389 750,127.02359346642389L750,144.0108892921952C570,144.0108892921952 570,370.2903811252269 390,370.2903811252269Z" style="stroke: rgb(68, 68, 68); stroke-opacity: 1; fill: rgb(255, 161, 90); fill-opacity: 0.6; stroke-width: 0; opacity: 1;"/><path class="sankey-link" d="M390,427.6225045372051C570,427.6225045372051 570,616.878402903811 750,616.878402903811L750,634.9274047186931C570,634.9274047186931 570,445.6715063520871 390,445.6715063520871Z" style="stroke: rgb(68, 68, 68); stroke-opacity: 1; fill: rgb(255, 161, 90); fill-opacity: 0.6; stroke-width: 0; opacity: 1;"/><path class="sankey-link" d="M390,445.67150635208714C570,445.67150635208714 570,691.3339382940109 750,691.3339382940109L750,695.5807622504536C570,695.5807622504536 570,449.91833030853 390,449.91833030853Z" style="stroke: rgb(68, 68, 68); stroke-opacity: 1; fill: rgb(255, 161, 90); fill-opacity: 0.6; stroke-width: 0; opacity: 1;"/><path class="sankey-link" d="M390,370.2903811252269C570,370.2903811252269 570,308.71143375680526 750,308.71143375680526L750,342.68602540834786C570,342.68602540834786 570,404.26497277676947 390,404.26497277676947Z" style="stroke: rgb(68, 68, 68); stroke-opacity: 1; fill: rgb(255, 161, 90); fill-opacity: 0.6; stroke-width: 0; opacity: 1;"/><path class="sankey-link" d="M390,404.2649727767695C570,404.2649727767695 570,502.07803992740384 750,502.07803992740384L750,525.4355716878395C570,525.4355716878395 570,427.6225045372051 390,427.6225045372051Z" style="stroke: rgb(68, 68, 68); stroke-opacity: 1; fill: rgb(255, 161, 90); fill-opacity: 0.6; stroke-width: 0; opacity: 1;"/><path class="sankey-link" d="M390,529.8185117967331C570,529.8185117967331 570,154.62794918330232 750,154.62794918330232L750,184.35571687840215C570,184.35571687840215 570,559.5462794918329 390,559.5462794918329Z" style="stroke: rgb(68, 68, 68); stroke-opacity: 1; fill: rgb(255, 151, 255); fill-opacity: 0.6; stroke-width: 0; opacity: 1;"/><path class="sankey-link" d="M390,629.6188747731396C570,629.6188747731396 570,640.2359346642465 750,640.2359346642465L750,661.4700544464606C570,661.4700544464606 570,650.8529945553537 390,650.8529945553537Z" style="stroke: rgb(68, 68, 68); stroke-opacity: 1; fill: rgb(255, 151, 255); fill-opacity: 0.6; stroke-width: 0; opacity: 1;"/><path class="sankey-link" d="M390,650.8529945553538C570,650.8529945553538 570,698.7658802177858 750,698.7658802177858L750,717.8765880217785C570,717.8765880217785 570,669.9637023593465 390,669.9637023593465Z" style="stroke: rgb(68, 68, 68); stroke-opacity: 1; fill: rgb(255, 151, 255); fill-opacity: 0.6; stroke-width: 0; opacity: 1;"/><path class="sankey-link" d="M390,559.5462794918329C570,559.5462794918329 570,362.8584392014513 750,362.8584392014513L750,398.9564428312154C570,398.9564428312154 570,595.6442831215969 390,595.6442831215969Z" style="stroke: rgb(68, 68, 68); stroke-opacity: 1; fill: rgb(255, 151, 255); fill-opacity: 0.6; stroke-width: 0; opacity: 1;"/><path class="sankey-link" d="M390,595.644283121597C570,595.644283121597 570,536.0526315789465 750,536.0526315789465L750,570.0272232304891C570,570.0272232304891 570,629.6188747731396 390,629.6188747731396Z" style="stroke: rgb(68, 68, 68); stroke-opacity: 1; fill: rgb(255, 151, 255); fill-opacity: 0.6; stroke-width: 0; opacity: 1;"/><path class="sankey-link" d="M390,464.9183303085298C570,464.9183303085298 570,144.01088929219523 750,144.01088929219523L750,154.62794918330232C570,154.62794918330232 570,475.5353901996368 390,475.5353901996368Z" style="stroke: rgb(68, 68, 68); stroke-opacity: 1; fill: rgb(255, 102, 146); fill-opacity: 0.6; stroke-width: 0; opacity: 1;"/><path class="sankey-link" d="M390,506.3248638838474C570,506.3248638838474 570,634.927404718693 750,634.927404718693L750,640.2359346642465C570,640.2359346642465 570,511.633393829401 390,511.633393829401Z" style="stroke: rgb(68, 68, 68); stroke-opacity: 1; fill: rgb(255, 102, 146); fill-opacity: 0.6; stroke-width: 0; opacity: 1;"/><path class="sankey-link" d="M390,511.633393829401C570,511.633393829401 570,695.5807622504537 750,695.5807622504537L750,698.7658802177859C570,698.7658802177859 570,514.8185117967331 390,514.8185117967331Z" style="stroke: rgb(68, 68, 68); stroke-opacity: 1; fill: rgb(255, 102, 146); fill-opacity: 0.6; stroke-width: 0; opacity: 1;"/><path class="sankey-link" d="M390,475.5353901996369C570,475.5353901996369 570,342.68602540834786 750,342.68602540834786L750,362.85843920145135C570,362.85843920145135 570,495.70780399274037 390,495.70780399274037Z" style="stroke: rgb(68, 68, 68); stroke-opacity: 1; fill: rgb(255, 102, 146); fill-opacity: 0.6; stroke-width: 0; opacity: 1;"/><path class="sankey-link" d="M390,495.7078039927403C570,495.7078039927403 570,525.4355716878395 750,525.4355716878395L750,536.0526315789466C570,536.0526315789466 570,506.32486388384734 390,506.32486388384734Z" style="stroke: rgb(68, 68, 68); stroke-opacity: 1; fill: rgb(255, 102, 146); fill-opacity: 0.6; stroke-width: 0; opacity: 1;"/><path class="sankey-link" d="M390,306.45190562613453C570,306.45190562613453 570,120.65335753175965 750,120.65335753175965L750,127.02359346642389C570,127.02359346642389 570,312.8221415607988 390,312.8221415607988Z" style="stroke: rgb(68, 68, 68); stroke-opacity: 1; fill: rgb(0, 204, 150); fill-opacity: 0.6; stroke-width: 0; opacity: 1;"/><path class="sankey-link" d="M390,332.9945553539023C570,332.9945553539023 570,612.6315789473681 750,612.6315789473681L750,616.8784029038109C570,616.8784029038109 570,337.24137931034517 390,337.24137931034517Z" style="stroke: rgb(68, 68, 68); stroke-opacity: 1; fill: rgb(0, 204, 150); fill-opacity: 0.6; stroke-width: 0; opacity: 1;"/><path class="sankey-link" d="M390,337.2413793103451C570,337.2413793103451 570,690.2722323049002 750,690.2722323049002L750,691.333938294011C570,691.333938294011 570,338.3030852994558 390,338.3030852994558Z" style="stroke: rgb(68, 68, 68); stroke-opacity: 1; fill: rgb(0, 204, 150); fill-opacity: 0.6; stroke-width: 0; opacity: 1;"/><path class="sankey-link" d="M390,312.8221415607988C570,312.8221415607988 570,294.909255898366 750,294.909255898366L750,308.7114337568052C570,308.7114337568052 570,326.624319419238 390,326.624319419238Z" style="stroke: rgb(68, 68, 68); stroke-opacity: 1; fill: rgb(0, 204, 150); fill-opacity: 0.6; stroke-width: 0; opacity: 1;"/><path class="sankey-link" d="M390,326.624319419238C570,326.624319419238 570,495.70780399273957 750,495.70780399273957L750,502.07803992740384C570,502.07803992740384 570,332.9945553539023 390,332.9945553539023Z" style="stroke: rgb(68, 68, 68); stroke-opacity: 1; fill: rgb(0, 204, 150); fill-opacity: 0.6; stroke-width: 0; opacity: 1;"/><path class="sankey-link" d="M390,54.283121597096965C570,54.283121597096965 570,82.43194192377416 750,82.43194192377416L750,84.55535390199557C570,84.55535390199557 570,56.40653357531838 390,56.40653357531838Z" style="stroke: rgb(68, 68, 68); stroke-opacity: 1; fill: rgb(171, 99, 250); fill-opacity: 0.6; stroke-width: 0; opacity: 1;"/><path class="sankey-link" d="M390,56.40653357531838C570,56.40653357531838 570,222.71324863883783 750,222.71324863883783L750,228.02177858439134C570,228.02177858439134 570,61.71506352087192 390,61.71506352087192Z" style="stroke: rgb(68, 68, 68); stroke-opacity: 1; fill: rgb(171, 99, 250); fill-opacity: 0.6; stroke-width: 0; opacity: 1;"/><path class="sankey-link" d="M390,61.715063520871915C570,61.715063520871915 570,437.3139745916506 750,437.3139745916506L750,440.4990925589827C570,440.4990925589827 570,64.90018148820404 390,64.90018148820404Z" style="stroke: rgb(68, 68, 68); stroke-opacity: 1; fill: rgb(171, 99, 250); fill-opacity: 0.6; stroke-width: 0; opacity: 1;"/><path class="sankey-link" d="M765,74.9999999999992C945,74.9999999999992 945,1.7763568394002505e-13 1125,1.7763568394002505e-13L1125,6.370235934664425C945,6.370235934664425 945,81.37023593466344 765,81.37023593466344Z" style="stroke: rgb(68, 68, 68); stroke-opacity: 1; fill: rgb(99, 110, 250); fill-opacity: 0.6; stroke-width: 0; opacity: 1;"/><path class="sankey-link" d="M765,137.64065335753097C945,137.64065335753097 945,77.64065335753187 1125,77.64065335753187L1125,78.7023593466426C945,78.7023593466426 945,138.70235934664166 765,138.70235934664166Z" style="stroke: rgb(68, 68, 68); stroke-opacity: 1; fill: rgb(99, 110, 250); fill-opacity: 0.6; stroke-width: 0; opacity: 1;"/><path class="sankey-link" d="M765,317.20508166969086C945,317.20508166969086 945,272.2050816696915 1125,272.2050816696915L1125,276.45190562613436C945,276.45190562613436 945,321.45190562613374 765,321.45190562613374Z" style="stroke: rgb(68, 68, 68); stroke-opacity: 1; fill: rgb(99, 110, 250); fill-opacity: 0.6; stroke-width: 0; opacity: 1;"/><path class="sankey-link" d="M765,202.54083484573437C945,202.54083484573437 945,142.54083484573522 1125,142.54083484573522L1125,158.46642468239583C945,158.46642468239583 945,218.46642468239497 765,218.46642468239497Z" style="stroke: rgb(68, 68, 68); stroke-opacity: 1; fill: rgb(99, 110, 250); fill-opacity: 0.6; stroke-width: 0; opacity: 1;"/><path class="sankey-link" d="M765,425.6352087114328C945,425.6352087114328 945,380.63520871143396 1125,380.63520871143396L1125,390.1905626134303C945,390.1905626134303 945,435.19056261342917 765,435.19056261342917Z" style="stroke: rgb(68, 68, 68); stroke-opacity: 1; fill: rgb(99, 110, 250); fill-opacity: 0.6; stroke-width: 0; opacity: 1;"/><path class="sankey-link" d="M765,512.6950998185109C945,512.6950998185109 945,482.69509981851195 1125,482.69509981851195L1125,484.81851179673333C945,484.81851179673333 945,514.8185117967323 765,514.8185117967323Z" style="stroke: rgb(68, 68, 68); stroke-opacity: 1; fill: rgb(99, 110, 250); fill-opacity: 0.6; stroke-width: 0; opacity: 1;"/><path class="sankey-link" d="M765,81.37023593466346C945,81.37023593466346 945,6.370235934664424 1125,6.370235934664424L1125,15.925589836660794C945,15.925589836660794 945,90.92558983665982 765,90.92558983665982Z" style="stroke: rgb(68, 68, 68); stroke-opacity: 1; fill: rgb(25, 211, 243); fill-opacity: 0.6; stroke-width: 0; opacity: 1;"/><path class="sankey-link" d="M765,138.70235934664169C945,138.70235934664169 945,78.7023593466426 1125,78.7023593466426L1125,87.19600725952824C945,87.19600725952824 945,147.19600725952733 765,147.19600725952733Z" style="stroke: rgb(68, 68, 68); stroke-opacity: 1; fill: rgb(25, 211, 243); fill-opacity: 0.6; stroke-width: 0; opacity: 1;"/><path class="sankey-link" d="M765,595.6442831215968C945,595.6442831215968 945,565.6442831215971 1125,565.6442831215971L1125,569.8911070780399C945,569.8911070780399 945,599.8911070780396 765,599.8911070780396Z" style="stroke: rgb(68, 68, 68); stroke-opacity: 1; fill: rgb(25, 211, 243); fill-opacity: 0.6; stroke-width: 0; opacity: 1;"/><path class="sankey-link" d="M765,634.927404718693C945,634.927404718693 945,619.9274047186933 1125,619.9274047186933L1125,624.1742286751361C945,624.1742286751361 945,639.1742286751357 765,639.1742286751357Z" style="stroke: rgb(68, 68, 68); stroke-opacity: 1; fill: rgb(25, 211, 243); fill-opacity: 0.6; stroke-width: 0; opacity: 1;"/><path class="sankey-link" d="M765,710.4446460980037C945,710.4446460980037 945,710.4446460980037 1125,710.4446460980037L1125,711.5063520871145C945,711.5063520871145 945,711.5063520871145 765,711.5063520871145Z" style="stroke: rgb(68, 68, 68); stroke-opacity: 1; fill: rgb(25, 211, 243); fill-opacity: 0.6; stroke-width: 0; opacity: 1;"/><path class="sankey-link" d="M765,683.901996370236C945,683.901996370236 945,668.901996370236 1125,668.901996370236L1125,671.0254083484574C945,671.0254083484574 945,686.0254083484574 765,686.0254083484574Z" style="stroke: rgb(68, 68, 68); stroke-opacity: 1; fill: rgb(25, 211, 243); fill-opacity: 0.6; stroke-width: 0; opacity: 1;"/><path class="sankey-link" d="M765,321.4519056261337C945,321.4519056261337 945,276.4519056261343 1125,276.4519056261343L1125,290.2540834845735C945,290.2540834845735 945,335.2540834845729 765,335.2540834845729Z" style="stroke: rgb(68, 68, 68); stroke-opacity: 1; fill: rgb(25, 211, 243); fill-opacity: 0.6; stroke-width: 0; opacity: 1;"/><path class="sankey-link" d="M765,218.46642468239497C945,218.46642468239497 945,158.46642468239583 1125,158.46642468239583L1125,175.45372050816712C945,175.45372050816712 945,235.45372050816627 765,235.45372050816627Z" style="stroke: rgb(68, 68, 68); stroke-opacity: 1; fill: rgb(25, 211, 243); fill-opacity: 0.6; stroke-width: 0; opacity: 1;"/><path class="sankey-link" d="M765,435.1905626134292C945,435.1905626134292 945,390.19056261343036 1125,390.19056261343036L1125,407.17785843920166C945,407.17785843920166 945,452.1778584392005 765,452.1778584392005Z" style="stroke: rgb(68, 68, 68); stroke-opacity: 1; fill: rgb(25, 211, 243); fill-opacity: 0.6; stroke-width: 0; opacity: 1;"/><path class="sankey-link" d="M765,514.8185117967323C945,514.8185117967323 945,484.8185117967334 1125,484.8185117967334L1125,497.5589836660619C945,497.5589836660619 945,527.5589836660608 765,527.5589836660608Z" style="stroke: rgb(68, 68, 68); stroke-opacity: 1; fill: rgb(25, 211, 243); fill-opacity: 0.6; stroke-width: 0; opacity: 1;"/><path class="sankey-link" d="M765,90.92558983665982C945,90.92558983665982 945,15.925589836660796 1125,15.925589836660796L1125,22.295825771325042C945,22.295825771325042 945,97.29582577132406 765,97.29582577132406Z" style="stroke: rgb(68, 68, 68); stroke-opacity: 1; fill: rgb(239, 85, 59); fill-opacity: 0.6; stroke-width: 0; opacity: 1;"/><path class="sankey-link" d="M765,147.19600725952733C945,147.19600725952733 945,87.19600725952824 1125,87.19600725952824L1125,93.56624319419248C945,93.56624319419248 945,153.5662431941916 765,153.5662431941916Z" style="stroke: rgb(68, 68, 68); stroke-opacity: 1; fill: rgb(239, 85, 59); fill-opacity: 0.6; stroke-width: 0; opacity: 1;"/><path class="sankey-link" d="M765,599.8911070780397C945,599.8911070780397 945,569.89110707804 1125,569.89110707804L1125,574.1379310344828C945,574.1379310344828 945,604.1379310344824 765,604.1379310344824Z" style="stroke: rgb(68, 68, 68); stroke-opacity: 1; fill: rgb(239, 85, 59); fill-opacity: 0.6; stroke-width: 0; opacity: 1;"/><path class="sankey-link" d="M765,639.1742286751359C945,639.1742286751359 945,624.1742286751362 1125,624.1742286751362L1125,625.235934664247C945,625.235934664247 945,640.2359346642467 765,640.2359346642467Z" style="stroke: rgb(68, 68, 68); stroke-opacity: 1; fill: rgb(239, 85, 59); fill-opacity: 0.6; stroke-width: 0; opacity: 1;"/><path class="sankey-link" d="M765,686.0254083484574C945,686.0254083484574 945,671.0254083484574 1125,671.0254083484574L1125,674.2105263157896C945,674.2105263157896 945,689.2105263157896 765,689.2105263157896Z" style="stroke: rgb(68, 68, 68); stroke-opacity: 1; fill: rgb(239, 85, 59); fill-opacity: 0.6; stroke-width: 0; opacity: 1;"/><path class="sankey-link" d="M765,335.2540834845729C945,335.2540834845729 945,290.2540834845735 1125,290.2540834845735L1125,300.87114337568056C945,300.87114337568056 945,345.87114337567994 765,345.87114337567994Z" style="stroke: rgb(68, 68, 68); stroke-opacity: 1; fill: rgb(239, 85, 59); fill-opacity: 0.6; stroke-width: 0; opacity: 1;"/><path class="sankey-link" d="M765,235.4537205081663C945,235.4537205081663 945,175.45372050816715 1125,175.45372050816715L1125,190.31760435571707C945,190.31760435571707 945,250.3176043557162 765,250.3176043557162Z" style="stroke: rgb(68, 68, 68); stroke-opacity: 1; fill: rgb(239, 85, 59); fill-opacity: 0.6; stroke-width: 0; opacity: 1;"/><path class="sankey-link" d="M765,452.1778584392006C945,452.1778584392006 945,407.1778584392017 1125,407.1778584392017L1125,419.91833030853024C945,419.91833030853024 945,464.9183303085291 765,464.9183303085291Z" style="stroke: rgb(68, 68, 68); stroke-opacity: 1; fill: rgb(239, 85, 59); fill-opacity: 0.6; stroke-width: 0; opacity: 1;"/><path class="sankey-link" d="M765,527.5589836660608C945,527.5589836660608 945,497.55898366606186 1125,497.55898366606186L1125,500.74410163339394C945,500.74410163339394 945,530.744101633393 765,530.744101633393Z" style="stroke: rgb(68, 68, 68); stroke-opacity: 1; fill: rgb(239, 85, 59); fill-opacity: 0.6; stroke-width: 0; opacity: 1;"/><path class="sankey-link" d="M765,97.29582577132408C945,97.29582577132408 945,22.295825771325042 1125,22.295825771325042L1125,24.419237749546454C945,24.419237749546454 945,99.41923774954549 765,99.41923774954549Z" style="stroke: rgb(68, 68, 68); stroke-opacity: 1; fill: rgb(254, 203, 82); fill-opacity: 0.6; stroke-width: 0; opacity: 1;"/><path class="sankey-link" d="M765,153.56624319419157C945,153.56624319419157 945,93.5662431941925 1125,93.5662431941925L1125,94.62794918330322C945,94.62794918330322 945,154.62794918330226 765,154.62794918330226Z" style="stroke: rgb(68, 68, 68); stroke-opacity: 1; fill: rgb(254, 203, 82); fill-opacity: 0.6; stroke-width: 0; opacity: 1;"/><path class="sankey-link" d="M765,604.1379310344826C945,604.1379310344826 945,574.1379310344829 1125,574.1379310344829L1125,577.3230490018151C945,577.3230490018151 945,607.3230490018148 765,607.3230490018148Z" style="stroke: rgb(68, 68, 68); stroke-opacity: 1; fill: rgb(254, 203, 82); fill-opacity: 0.6; stroke-width: 0; opacity: 1;"/><path class="sankey-link" d="M765,640.2359346642465C945,640.2359346642465 945,625.2359346642469 1125,625.2359346642469L1125,629.4827586206897C945,629.4827586206897 945,644.4827586206893 765,644.4827586206893Z" style="stroke: rgb(68, 68, 68); stroke-opacity: 1; fill: rgb(254, 203, 82); fill-opacity: 0.6; stroke-width: 0; opacity: 1;"/><path class="sankey-link" d="M765,711.5063520871144C945,711.5063520871144 945,711.5063520871144 1125,711.5063520871144L1125,712.5680580762252C945,712.5680580762252 945,712.5680580762252 765,712.5680580762252Z" style="stroke: rgb(68, 68, 68); stroke-opacity: 1; fill: rgb(254, 203, 82); fill-opacity: 0.6; stroke-width: 0; opacity: 1;"/><path class="sankey-link" d="M765,689.2105263157895C945,689.2105263157895 945,674.2105263157895 1125,674.2105263157895L1125,675.2722323049003C945,675.2722323049003 945,690.2722323049003 765,690.2722323049003Z" style="stroke: rgb(68, 68, 68); stroke-opacity: 1; fill: rgb(254, 203, 82); fill-opacity: 0.6; stroke-width: 0; opacity: 1;"/><path class="sankey-link" d="M765,345.87114337568C945,345.87114337568 945,300.8711433756806 1125,300.8711433756806L1125,307.2413793103449C945,307.2413793103449 945,352.24137931034426 765,352.24137931034426Z" style="stroke: rgb(68, 68, 68); stroke-opacity: 1; fill: rgb(254, 203, 82); fill-opacity: 0.6; stroke-width: 0; opacity: 1;"/><path class="sankey-link" d="M765,250.3176043557162C945,250.3176043557162 945,190.31760435571707 1125,190.31760435571707L1125,195.62613430127058C945,195.62613430127058 945,255.62613430126973 765,255.62613430126973Z" style="stroke: rgb(68, 68, 68); stroke-opacity: 1; fill: rgb(254, 203, 82); fill-opacity: 0.6; stroke-width: 0; opacity: 1;"/><path class="sankey-link" d="M765,464.91833030852905C945,464.91833030852905 945,419.9183303085302 1125,419.9183303085302L1125,423.10344827586226C945,423.10344827586226 945,468.1034482758611 765,468.1034482758611Z" style="stroke: rgb(68, 68, 68); stroke-opacity: 1; fill: rgb(254, 203, 82); fill-opacity: 0.6; stroke-width: 0; opacity: 1;"/><path class="sankey-link" d="M765,530.7441016333929C945,530.7441016333929 945,500.744101633394 1125,500.744101633394L1125,508.17604355716895C945,508.17604355716895 945,538.1760435571679 765,538.1760435571679Z" style="stroke: rgb(68, 68, 68); stroke-opacity: 1; fill: rgb(254, 203, 82); fill-opacity: 0.6; stroke-width: 0; opacity: 1;"/><path class="sankey-link" d="M765,99.41923774954549C945,99.41923774954549 945,24.419237749546458 1125,24.419237749546458L1125,29.727767695099995C945,29.727767695099995 945,104.72776769509903 765,104.72776769509903Z" style="stroke: rgb(68, 68, 68); stroke-opacity: 1; fill: rgb(182, 232, 128); fill-opacity: 0.6; stroke-width: 0; opacity: 1;"/><path class="sankey-link" d="M765,644.4827586206894C945,644.4827586206894 945,629.4827586206898 1125,629.4827586206898L1125,632.667876588022C945,632.667876588022 945,647.6678765880216 765,647.6678765880216Z" style="stroke: rgb(68, 68, 68); stroke-opacity: 1; fill: rgb(182, 232, 128); fill-opacity: 0.6; stroke-width: 0; opacity: 1;"/><path class="sankey-link" d="M765,352.24137931034426C945,352.24137931034426 945,307.2413793103449 1125,307.2413793103449L1125,311.48820326678776C945,311.48820326678776 945,356.48820326678714 765,356.48820326678714Z" style="stroke: rgb(68, 68, 68); stroke-opacity: 1; fill: rgb(182, 232, 128); fill-opacity: 0.6; stroke-width: 0; opacity: 1;"/><path class="sankey-link" d="M765,255.62613430126976C945,255.62613430126976 945,195.6261343012706 1125,195.6261343012706L1125,201.99637023593488C945,201.99637023593488 945,261.996370235934 765,261.996370235934Z" style="stroke: rgb(68, 68, 68); stroke-opacity: 1; fill: rgb(182, 232, 128); fill-opacity: 0.6; stroke-width: 0; opacity: 1;"/><path class="sankey-link" d="M765,468.1034482758612C945,468.1034482758612 945,423.1034482758623 1125,423.1034482758623L1125,428.4119782214159C945,428.4119782214159 945,473.41197822141476 765,473.41197822141476Z" style="stroke: rgb(68, 68, 68); stroke-opacity: 1; fill: rgb(182, 232, 128); fill-opacity: 0.6; stroke-width: 0; opacity: 1;"/><path class="sankey-link" d="M765,538.1760435571679C945,538.1760435571679 945,508.17604355716895 1125,508.17604355716895L1125,512.4228675136118C945,512.4228675136118 945,542.4228675136106 765,542.4228675136106Z" style="stroke: rgb(68, 68, 68); stroke-opacity: 1; fill: rgb(182, 232, 128); fill-opacity: 0.6; stroke-width: 0; opacity: 1;"/><path class="sankey-link" d="M765,104.72776769509903C945,104.72776769509903 945,29.7277676951 1125,29.7277676951L1125,39.28312159709637C945,39.28312159709637 945,114.2831215970954 765,114.2831215970954Z" style="stroke: rgb(68, 68, 68); stroke-opacity: 1; fill: rgb(255, 161, 90); fill-opacity: 0.6; stroke-width: 0; opacity: 1;"/><path class="sankey-link" d="M765,154.6279491833023C945,154.6279491833023 945,94.6279491833032 1125,94.6279491833032L1125,102.05989110707816C945,102.05989110707816 945,162.05989110707725 765,162.05989110707725Z" style="stroke: rgb(68, 68, 68); stroke-opacity: 1; fill: rgb(255, 161, 90); fill-opacity: 0.6; stroke-width: 0; opacity: 1;"/><path class="sankey-link" d="M765,607.3230490018146C945,607.3230490018146 945,577.323049001815 1125,577.323049001815L1125,586.8784029038113C945,586.8784029038113 945,616.878402903811 765,616.878402903811Z" style="stroke: rgb(68, 68, 68); stroke-opacity: 1; fill: rgb(255, 161, 90); fill-opacity: 0.6; stroke-width: 0; opacity: 1;"/><path class="sankey-link" d="M765,647.6678765880215C945,647.6678765880215 945,632.6678765880218 1125,632.6678765880218L1125,641.1615245009076C945,641.1615245009076 945,656.1615245009073 765,656.1615245009073Z" style="stroke: rgb(68, 68, 68); stroke-opacity: 1; fill: rgb(255, 161, 90); fill-opacity: 0.6; stroke-width: 0; opacity: 1;"/><path class="sankey-link" d="M765,690.2722323049002C945,690.2722323049002 945,675.2722323049002 1125,675.2722323049002L1125,679.5190562613429C945,679.5190562613429 945,694.5190562613429 765,694.5190562613429Z" style="stroke: rgb(68, 68, 68); stroke-opacity: 1; fill: rgb(255, 161, 90); fill-opacity: 0.6; stroke-width: 0; opacity: 1;"/><path class="sankey-link" d="M765,356.4882032667871C945,356.4882032667871 945,311.4882032667877 1125,311.4882032667877L1125,329.5372050816697C945,329.5372050816697 945,374.5372050816691 765,374.5372050816691Z" style="stroke: rgb(68, 68, 68); stroke-opacity: 1; fill: rgb(255, 161, 90); fill-opacity: 0.6; stroke-width: 0; opacity: 1;"/><path class="sankey-link" d="M765,261.996370235934C945,261.996370235934 945,201.99637023593485 1125,201.99637023593485L1125,217.92196007259545C945,217.92196007259545 945,277.92196007259463 765,277.92196007259463Z" style="stroke: rgb(68, 68, 68); stroke-opacity: 1; fill: rgb(255, 161, 90); fill-opacity: 0.6; stroke-width: 0; opacity: 1;"/><path class="sankey-link" d="M765,473.4119782214147C945,473.4119782214147 945,428.41197822141584 1125,428.41197822141584L1125,442.21415607985506C945,442.21415607985506 945,487.2141560798539 765,487.2141560798539Z" style="stroke: rgb(68, 68, 68); stroke-opacity: 1; fill: rgb(255, 161, 90); fill-opacity: 0.6; stroke-width: 0; opacity: 1;"/><path class="sankey-link" d="M765,542.4228675136108C945,542.4228675136108 945,512.4228675136118 1125,512.4228675136118L1125,521.9782214156081C945,521.9782214156081 945,551.9782214156071 765,551.9782214156071Z" style="stroke: rgb(68, 68, 68); stroke-opacity: 1; fill: rgb(255, 161, 90); fill-opacity: 0.6; stroke-width: 0; opacity: 1;"/><path class="sankey-link" d="M765,114.2831215970954C945,114.2831215970954 945,39.28312159709637 1125,39.28312159709637L1125,50.96188747731415C945,50.96188747731415 945,125.96188747731318 765,125.96188747731318Z" style="stroke: rgb(68, 68, 68); stroke-opacity: 1; fill: rgb(255, 151, 255); fill-opacity: 0.6; stroke-width: 0; opacity: 1;"/><path class="sankey-link" d="M765,162.05989110707725C945,162.05989110707725 945,102.05989110707816 1125,102.05989110707816L1125,120.1088929219602C945,120.1088929219602 945,180.1088929219593 765,180.1088929219593Z" style="stroke: rgb(68, 68, 68); stroke-opacity: 1; fill: rgb(255, 151, 255); fill-opacity: 0.6; stroke-width: 0; opacity: 1;"/><path class="sankey-link" d="M765,616.878402903811C945,616.878402903811 945,586.8784029038113 1125,586.8784029038113L1125,601.7422867513612C945,601.7422867513612 945,631.7422867513609 765,631.7422867513609Z" style="stroke: rgb(68, 68, 68); stroke-opacity: 1; fill: rgb(255, 151, 255); fill-opacity: 0.6; stroke-width: 0; opacity: 1;"/><path class="sankey-link" d="M765,656.1615245009071C945,656.1615245009071 945,641.1615245009075 1125,641.1615245009075L1125,647.5317604355716C945,647.5317604355716 945,662.5317604355713 765,662.5317604355713Z" style="stroke: rgb(68, 68, 68); stroke-opacity: 1; fill: rgb(255, 151, 255); fill-opacity: 0.6; stroke-width: 0; opacity: 1;"/><path class="sankey-link" d="M765,712.568058076225C945,712.568058076225 945,712.568058076225 1125,712.568058076225L1125,717.8765880217786C945,717.8765880217786 945,717.8765880217786 765,717.8765880217786Z" style="stroke: rgb(68, 68, 68); stroke-opacity: 1; fill: rgb(255, 151, 255); fill-opacity: 0.6; stroke-width: 0; opacity: 1;"/><path class="sankey-link" d="M765,694.519056261343C945,694.519056261343 945,679.519056261343 1125,679.519056261343L1125,693.3212341197822C945,693.3212341197822 945,708.3212341197822 765,708.3212341197822Z" style="stroke: rgb(68, 68, 68); stroke-opacity: 1; fill: rgb(255, 151, 255); fill-opacity: 0.6; stroke-width: 0; opacity: 1;"/><path class="sankey-link" d="M765,374.53720508166913C945,374.53720508166913 945,329.53720508166975 1125,329.53720508166975L1125,348.64791288566255C945,348.64791288566255 945,393.6479128856619 765,393.6479128856619Z" style="stroke: rgb(68, 68, 68); stroke-opacity: 1; fill: rgb(255, 151, 255); fill-opacity: 0.6; stroke-width: 0; opacity: 1;"/><path class="sankey-link" d="M765,277.92196007259463C945,277.92196007259463 945,217.92196007259548 1125,217.92196007259548L1125,234.90925589836678C945,234.90925589836678 945,294.9092558983659 765,294.9092558983659Z" style="stroke: rgb(68, 68, 68); stroke-opacity: 1; fill: rgb(255, 151, 255); fill-opacity: 0.6; stroke-width: 0; opacity: 1;"/><path class="sankey-link" d="M765,487.2141560798539C945,487.2141560798539 945,442.21415607985506 1125,442.21415607985506L1125,459.20145190562636C945,459.20145190562636 945,504.2014519056252 765,504.2014519056252Z" style="stroke: rgb(68, 68, 68); stroke-opacity: 1; fill: rgb(255, 151, 255); fill-opacity: 0.6; stroke-width: 0; opacity: 1;"/><path class="sankey-link" d="M765,551.9782214156071C945,551.9782214156071 945,521.9782214156081 1125,521.9782214156081L1125,538.9655172413794C945,538.9655172413794 945,568.9655172413784 765,568.9655172413784Z" style="stroke: rgb(68, 68, 68); stroke-opacity: 1; fill: rgb(255, 151, 255); fill-opacity: 0.6; stroke-width: 0; opacity: 1;"/><path class="sankey-link" d="M765,125.96188747731318C945,125.96188747731318 945,50.961887477314164 1125,50.961887477314164L1125,55.20871143375699C945,55.20871143375699 945,130.208711433756 765,130.208711433756Z" style="stroke: rgb(68, 68, 68); stroke-opacity: 1; fill: rgb(255, 102, 146); fill-opacity: 0.6; stroke-width: 0; opacity: 1;"/><path class="sankey-link" d="M765,180.1088929219593C945,180.1088929219593 945,120.10889292196019 1125,120.10889292196019L1125,126.47912885662443C945,126.47912885662443 945,186.47912885662356 765,186.47912885662356Z" style="stroke: rgb(68, 68, 68); stroke-opacity: 1; fill: rgb(255, 102, 146); fill-opacity: 0.6; stroke-width: 0; opacity: 1;"/><path class="sankey-link" d="M765,631.7422867513609C945,631.7422867513609 945,601.7422867513612 1125,601.7422867513612L1125,603.8656987295826C945,603.8656987295826 945,633.8656987295823 765,633.8656987295823Z" style="stroke: rgb(68, 68, 68); stroke-opacity: 1; fill: rgb(255, 102, 146); fill-opacity: 0.6; stroke-width: 0; opacity: 1;"/><path class="sankey-link" d="M765,662.5317604355714C945,662.5317604355714 945,647.5317604355718 1125,647.5317604355718L1125,650.716878402904C945,650.716878402904 945,665.7168784029036 765,665.7168784029036Z" style="stroke: rgb(68, 68, 68); stroke-opacity: 1; fill: rgb(255, 102, 146); fill-opacity: 0.6; stroke-width: 0; opacity: 1;"/><path class="sankey-link" d="M765,717.8765880217786C945,717.8765880217786 945,717.8765880217786 1125,717.8765880217786L1125,718.9382940108894C945,718.9382940108894 945,718.9382940108894 765,718.9382940108894Z" style="stroke: rgb(68, 68, 68); stroke-opacity: 1; fill: rgb(255, 102, 146); fill-opacity: 0.6; stroke-width: 0; opacity: 1;"/><path class="sankey-link" d="M765,708.3212341197823C945,708.3212341197823 945,693.3212341197823 1125,693.3212341197823L1125,695.4446460980037C945,695.4446460980037 945,710.4446460980037 765,710.4446460980037Z" style="stroke: rgb(68, 68, 68); stroke-opacity: 1; fill: rgb(255, 102, 146); fill-opacity: 0.6; stroke-width: 0; opacity: 1;"/><path class="sankey-link" d="M765,393.64791288566187C945,393.64791288566187 945,348.6479128856625 1125,348.6479128856625L1125,359.2649727767695C945,359.2649727767695 945,404.2649727767689 765,404.2649727767689Z" style="stroke: rgb(68, 68, 68); stroke-opacity: 1; fill: rgb(255, 102, 146); fill-opacity: 0.6; stroke-width: 0; opacity: 1;"/><path class="sankey-link" d="M765,294.9092558983659C945,294.9092558983659 945,234.90925589836678 1125,234.90925589836678L1125,244.46460980036318C945,244.46460980036318 945,304.46460980036227 765,304.46460980036227Z" style="stroke: rgb(68, 68, 68); stroke-opacity: 1; fill: rgb(255, 102, 146); fill-opacity: 0.6; stroke-width: 0; opacity: 1;"/><path class="sankey-link" d="M765,504.2014519056253C945,504.2014519056253 945,459.2014519056264 1125,459.2014519056264L1125,463.4482758620693C945,463.4482758620693 945,508.44827586206816 765,508.44827586206816Z" style="stroke: rgb(68, 68, 68); stroke-opacity: 1; fill: rgb(255, 102, 146); fill-opacity: 0.6; stroke-width: 0; opacity: 1;"/><path class="sankey-link" d="M765,568.9655172413784C945,568.9655172413784 945,538.9655172413794 1125,538.9655172413794L1125,545.3357531760436C945,545.3357531760436 945,575.3357531760425 765,575.3357531760425Z" style="stroke: rgb(68, 68, 68); stroke-opacity: 1; fill: rgb(255, 102, 146); fill-opacity: 0.6; stroke-width: 0; opacity: 1;"/><path class="sankey-link" d="M765,130.208711433756C945,130.208711433756 945,55.20871143375699 1125,55.20871143375699L1125,61.57894736842124C945,61.57894736842124 945,136.57894736842027 765,136.57894736842027Z" style="stroke: rgb(68, 68, 68); stroke-opacity: 1; fill: rgb(0, 204, 150); fill-opacity: 0.6; stroke-width: 0; opacity: 1;"/><path class="sankey-link" d="M765,633.8656987295823C945,633.8656987295823 945,603.8656987295826 1125,603.8656987295826L1125,604.9274047186934C945,604.9274047186934 945,634.9274047186931 765,634.9274047186931Z" style="stroke: rgb(68, 68, 68); stroke-opacity: 1; fill: rgb(0, 204, 150); fill-opacity: 0.6; stroke-width: 0; opacity: 1;"/><path class="sankey-link" d="M765,665.7168784029035C945,665.7168784029035 945,650.7168784029038 1125,650.7168784029038L1125,653.901996370236C945,653.901996370236 945,668.9019963702357 765,668.9019963702357Z" style="stroke: rgb(68, 68, 68); stroke-opacity: 1; fill: rgb(0, 204, 150); fill-opacity: 0.6; stroke-width: 0; opacity: 1;"/><path class="sankey-link" d="M765,718.9382940108893C945,718.9382940108893 945,718.9382940108893 1125,718.9382940108893L1125,720.0000000000001C945,720.0000000000001 945,720.0000000000001 765,720.0000000000001Z" style="stroke: rgb(68, 68, 68); stroke-opacity: 1; fill: rgb(0, 204, 150); fill-opacity: 0.6; stroke-width: 0; opacity: 1;"/><path class="sankey-link" d="M765,404.26497277676896C945,404.26497277676896 945,359.2649727767696 1125,359.2649727767696L1125,363.51179673321246C945,363.51179673321246 945,408.51179673321184 765,408.51179673321184Z" style="stroke: rgb(68, 68, 68); stroke-opacity: 1; fill: rgb(0, 204, 150); fill-opacity: 0.6; stroke-width: 0; opacity: 1;"/><path class="sankey-link" d="M765,304.4646098003623C945,304.4646098003623 945,244.46460980036315 1125,244.46460980036315L1125,254.01996370235955C945,254.01996370235955 945,314.01996370235867 765,314.01996370235867Z" style="stroke: rgb(68, 68, 68); stroke-opacity: 1; fill: rgb(0, 204, 150); fill-opacity: 0.6; stroke-width: 0; opacity: 1;"/><path class="sankey-link" d="M765,508.4482758620681C945,508.4482758620681 945,463.44827586206924 1125,463.44827586206924L1125,465.5716878402906C945,465.5716878402906 945,510.5716878402895 765,510.5716878402895Z" style="stroke: rgb(68, 68, 68); stroke-opacity: 1; fill: rgb(0, 204, 150); fill-opacity: 0.6; stroke-width: 0; opacity: 1;"/><path class="sankey-link" d="M765,575.3357531760427C945,575.3357531760427 945,545.3357531760437 1125,545.3357531760437L1125,549.5825771324864C945,549.5825771324864 945,579.5825771324854 765,579.5825771324854Z" style="stroke: rgb(68, 68, 68); stroke-opacity: 1; fill: rgb(0, 204, 150); fill-opacity: 0.6; stroke-width: 0; opacity: 1;"/><path class="sankey-link" d="M765,136.57894736842024C945,136.57894736842024 945,61.57894736842124 1125,61.57894736842124L1125,62.640653357531946C945,62.640653357531946 945,137.64065335753094 765,137.64065335753094Z" style="stroke: rgb(68, 68, 68); stroke-opacity: 1; fill: rgb(171, 99, 250); fill-opacity: 0.6; stroke-width: 0; opacity: 1;"/><path class="sankey-link" d="M765,186.47912885662353C945,186.47912885662353 945,126.47912885662444 1125,126.47912885662444L1125,127.54083484573516C945,127.54083484573516 945,187.54083484573422 765,187.54083484573422Z" style="stroke: rgb(68, 68, 68); stroke-opacity: 1; fill: rgb(171, 99, 250); fill-opacity: 0.6; stroke-width: 0; opacity: 1;"/><path class="sankey-link" d="M765,408.5117967332118C945,408.5117967332118 945,363.5117967332124 1125,363.5117967332124L1125,365.6352087114338C945,365.6352087114338 945,410.63520871143317 765,410.63520871143317Z" style="stroke: rgb(68, 68, 68); stroke-opacity: 1; fill: rgb(171, 99, 250); fill-opacity: 0.6; stroke-width: 0; opacity: 1;"/><path class="sankey-link" d="M765,314.0199637023587C945,314.0199637023587 945,254.01996370235952 1125,254.01996370235952L1125,257.20508166969165C945,257.20508166969165 945,317.2050816696908 765,317.2050816696908Z" style="stroke: rgb(68, 68, 68); stroke-opacity: 1; fill: rgb(171, 99, 250); fill-opacity: 0.6; stroke-width: 0; opacity: 1;"/><path class="sankey-link" d="M765,510.57168784028954C945,510.57168784028954 945,465.5716878402907 1125,465.5716878402907L1125,467.69509981851206C945,467.69509981851206 945,512.6950998185109 765,512.6950998185109Z" style="stroke: rgb(68, 68, 68); stroke-opacity: 1; fill: rgb(171, 99, 250); fill-opacity: 0.6; stroke-width: 0; opacity: 1;"/><path class="sankey-link" d="M765,579.5825771324855C945,579.5825771324855 945,549.5825771324866 1125,549.5825771324866L1125,550.6442831215974C945,550.6442831215974 945,580.6442831215963 765,580.6442831215963Z" style="stroke: rgb(68, 68, 68); stroke-opacity: 1; fill: rgb(171, 99, 250); fill-opacity: 0.6; stroke-width: 0; opacity: 1;"/></g><g class="sankey-node-set" style="cursor: move;"><g class="sankey-node" transform="translate(0.000,231.598)" style="opacity: 1;"><rect class="node-rect" width="15" height="158.19419237749557" style="stroke-width: 0.5; stroke: rgb(0, 0, 0); stroke-opacity: 1; fill: rgb(128, 128, 128); fill-opacity: 1;"/><text class="node-label" data-notex="1" x="0" y="0" text-anchor="start" transform="translate(18.25,83.29709618874779)" style="cursor: default; font-family: 'Open Sans', verdana, arial, sans-serif; font-size: 12px; fill: rgb(42, 63, 95); fill-opacity: 1; white-space: pre; text-shadow: white 1px 1px 1px, white -1px -1px 1px, white 1px -1px 1px, white -1px 1px 1px;">21272R</text></g><g class="sankey-node" transform="translate(0.000,404.792)" style="opacity: 1;"><rect class="node-rect" width="15" height="71.1343012704175" style="stroke-width: 0.5; stroke: rgb(0, 0, 0); stroke-opacity: 1; fill: rgb(128, 128, 128); fill-opacity: 1;"/><text class="node-label" data-notex="1" x="0" y="0" text-anchor="start" transform="translate(18.25,39.76715063520875)" style="cursor: default; font-family: 'Open Sans', verdana, arial, sans-serif; font-size: 12px; fill: rgb(42, 63, 95); fill-opacity: 1; white-space: pre; text-shadow: white 1px 1px 1px, white -1px -1px 1px, white 1px -1px 1px, white -1px 1px 1px;">21965RL</text></g><g class="sankey-node" transform="translate(0.000,490.926)" style="opacity: 1;"><rect class="node-rect" width="15" height="101.9237749546279" style="stroke-width: 0.5; stroke: rgb(0, 0, 0); stroke-opacity: 1; fill: rgb(128, 128, 128); fill-opacity: 1;"/><text class="node-label" data-notex="1" x="0" y="0" text-anchor="start" transform="translate(18.25,55.161887477313954)" style="cursor: default; font-family: 'Open Sans', verdana, arial, sans-serif; font-size: 12px; fill: rgb(42, 63, 95); fill-opacity: 1; white-space: pre; text-shadow: white 1px 1px 1px, white -1px -1px 1px, white 1px -1px 1px, white -1px 1px 1px;">22384</text></g><g class="sankey-node" transform="translate(0.000,607.850)" style="opacity: 1;"><rect class="node-rect" width="15" height="102.9854809437386" style="stroke-width: 0.5; stroke: rgb(0, 0, 0); stroke-opacity: 1; fill: rgb(128, 128, 128); fill-opacity: 1;"/><text class="node-label" data-notex="1" x="0" y="0" text-anchor="start" transform="translate(18.25,55.6927404718693)" style="cursor: default; font-family: 'Open Sans', verdana, arial, sans-serif; font-size: 12px; fill: rgb(42, 63, 95); fill-opacity: 1; white-space: pre; text-shadow: white 1px 1px 1px, white -1px -1px 1px, white 1px -1px 1px, white -1px 1px 1px;">22670</text></g><g class="sankey-node" transform="translate(750.000,75.000)" style="opacity: 1;"><rect class="node-rect" width="15" height="112.54083484573516" style="stroke-width: 0.5; stroke: rgb(0, 0, 0); stroke-opacity: 1; fill: rgb(128, 128, 128); fill-opacity: 1;"/><text class="node-label" data-notex="1" x="0" y="0" text-anchor="start" transform="translate(18.25,60.470417422867584)" style="cursor: default; font-family: 'Open Sans', verdana, arial, sans-serif; font-size: 12px; fill: rgb(42, 63, 95); fill-opacity: 1; white-space: pre; text-shadow: white 1px 1px 1px, white -1px -1px 1px, white 1px -1px 1px, white -1px 1px 1px;">dig</text></g><g class="sankey-node" transform="translate(750.000,202.541)" style="opacity: 1;"><rect class="node-rect" width="15" height="208.09437386569846" style="stroke-width: 0.5; stroke: rgb(0, 0, 0); stroke-opacity: 1; fill: rgb(128, 128, 128); fill-opacity: 1;"/><text class="node-label" data-notex="1" x="0" y="0" text-anchor="start" transform="translate(18.25,108.24718693284923)" style="cursor: default; font-family: 'Open Sans', verdana, arial, sans-serif; font-size: 12px; fill: rgb(42, 63, 95); fill-opacity: 1; white-space: pre; text-shadow: white 1px 1px 1px, white -1px -1px 1px, white 1px -1px 1px, white -1px 1px 1px;">walk</text></g><g class="sankey-node" transform="translate(750.000,425.635)" style="opacity: 1;"><rect class="node-rect" width="15" height="155.00907441016398" style="stroke-width: 0.5; stroke: rgb(0, 0, 0); stroke-opacity: 1; fill: rgb(128, 128, 128); fill-opacity: 1;"/><text class="node-label" data-notex="1" x="0" y="0" text-anchor="start" transform="translate(18.25,81.70453720508199)" style="cursor: default; font-family: 'Open Sans', verdana, arial, sans-serif; font-size: 12px; fill: rgb(42, 63, 95); fill-opacity: 1; white-space: pre; text-shadow: white 1px 1px 1px, white -1px -1px 1px, white 1px -1px 1px, white -1px 1px 1px;">wallclimb</text></g><g class="sankey-node" transform="translate(750.000,595.644)" style="opacity: 1;"><rect class="node-rect" width="15" height="73.25771324863922" style="stroke-width: 0.5; stroke: rgb(0, 0, 0); stroke-opacity: 1; fill: rgb(128, 128, 128); fill-opacity: 1;"/><text class="node-label" data-notex="1" x="0" y="0" text-anchor="start" transform="translate(18.25,40.82885662431961)" style="cursor: default; font-family: 'Open Sans', verdana, arial, sans-serif; font-size: 12px; fill: rgb(42, 63, 95); fill-opacity: 1; white-space: pre; text-shadow: white 1px 1px 1px, white -1px -1px 1px, white 1px -1px 1px, white -1px 1px 1px;">groom_front</text></g><g class="sankey-node" transform="translate(750.000,683.902)" style="opacity: 1;"><rect class="node-rect" width="15" height="36.09800362976398" style="stroke-width: 0.5; stroke: rgb(0, 0, 0); stroke-opacity: 1; fill: rgb(128, 128, 128); fill-opacity: 1;"/><text class="node-label" data-notex="1" x="0" y="0" text-anchor="start" transform="translate(18.25,22.24900181488199)" style="cursor: default; font-family: 'Open Sans', verdana, arial, sans-serif; font-size: 12px; fill: rgb(42, 63, 95); fill-opacity: 1; white-space: pre; text-shadow: white 1px 1px 1px, white -1px -1px 1px, white 1px -1px 1px, white -1px 1px 1px;">still</text></g><g class="sankey-node" transform="translate(1125.000,0.000)" style="opacity: 1;"><rect class="node-rect" width="15" height="62.6406533575317" style="stroke-width: 0.5; stroke: rgb(0, 0, 0); stroke-opacity: 1; fill: rgb(128, 128, 128); fill-opacity: 1;"/><text class="node-label" data-notex="1" x="0" y="0" text-anchor="end" transform="translate(-3.25,35.52032667876585)" style="cursor: default; font-family: 'Open Sans', verdana, arial, sans-serif; font-size: 12px; fill: rgb(42, 63, 95); fill-opacity: 1; white-space: pre; text-shadow: white 1px 1px 1px, white -1px -1px 1px, white 1px -1px 1px, white -1px 1px 1px;">dig-activated</text></g><g class="sankey-node" transform="translate(1125.000,142.541)" style="opacity: 1;"><rect class="node-rect" width="15" height="114.66424682395626" style="stroke-width: 0.5; stroke: rgb(0, 0, 0); stroke-opacity: 1; fill: rgb(128, 128, 128); fill-opacity: 1;"/><text class="node-label" data-notex="1" x="0" y="0" text-anchor="end" transform="translate(-3.25,61.532123411978134)" style="cursor: default; font-family: 'Open Sans', verdana, arial, sans-serif; font-size: 12px; fill: rgb(42, 63, 95); fill-opacity: 1; white-space: pre; text-shadow: white 1px 1px 1px, white -1px -1px 1px, white 1px -1px 1px, white -1px 1px 1px;">walk-suppressed</text></g><g class="sankey-node" transform="translate(1125.000,380.635)" style="opacity: 1;"><rect class="node-rect" width="15" height="87.05989110707799" style="stroke-width: 0.5; stroke: rgb(0, 0, 0); stroke-opacity: 1; fill: rgb(128, 128, 128); fill-opacity: 1;"/><text class="node-label" data-notex="1" x="0" y="0" text-anchor="end" transform="translate(-3.25,47.729945553539)" style="cursor: default; font-family: 'Open Sans', verdana, arial, sans-serif; font-size: 12px; fill: rgb(42, 63, 95); fill-opacity: 1; white-space: pre; text-shadow: white 1px 1px 1px, white -1px -1px 1px, white 1px -1px 1px, white -1px 1px 1px;">wallclimb-activated</text></g><g class="sankey-node" transform="translate(1125.000,77.641)" style="opacity: 1;"><rect class="node-rect" width="15" height="49.900181488203344" style="stroke-width: 0.5; stroke: rgb(0, 0, 0); stroke-opacity: 1; fill: rgb(128, 128, 128); fill-opacity: 1;"/><text class="node-label" data-notex="1" x="0" y="0" text-anchor="end" transform="translate(-3.25,29.15009074410167)" style="cursor: default; font-family: 'Open Sans', verdana, arial, sans-serif; font-size: 12px; fill: rgb(42, 63, 95); fill-opacity: 1; white-space: pre; text-shadow: white 1px 1px 1px, white -1px -1px 1px, white 1px -1px 1px, white -1px 1px 1px;">dig-suppressed</text></g><g class="sankey-node" transform="translate(1125.000,482.695)" style="opacity: 1;"><rect class="node-rect" width="15" height="67.94918330308519" style="stroke-width: 0.5; stroke: rgb(0, 0, 0); stroke-opacity: 1; fill: rgb(128, 128, 128); fill-opacity: 1;"/><text class="node-label" data-notex="1" x="0" y="0" text-anchor="end" transform="translate(-3.25,38.1745916515426)" style="cursor: default; font-family: 'Open Sans', verdana, arial, sans-serif; font-size: 12px; fill: rgb(42, 63, 95); fill-opacity: 1; white-space: pre; text-shadow: white 1px 1px 1px, white -1px -1px 1px, white 1px -1px 1px, white -1px 1px 1px;">wallclimb-suppressed</text></g><g class="sankey-node" transform="translate(1125.000,272.205)" style="opacity: 1;"><rect class="node-rect" width="15" height="93.43012704174248" style="stroke-width: 0.5; stroke: rgb(0, 0, 0); stroke-opacity: 1; fill: rgb(128, 128, 128); fill-opacity: 1;"/><text class="node-label" data-notex="1" x="0" y="0" text-anchor="end" transform="translate(-3.25,50.91506352087124)" style="cursor: default; font-family: 'Open Sans', verdana, arial, sans-serif; font-size: 12px; fill: rgb(42, 63, 95); fill-opacity: 1; white-space: pre; text-shadow: white 1px 1px 1px, white -1px -1px 1px, white 1px -1px 1px, white -1px 1px 1px;">walk-activated</text></g><g class="sankey-node" transform="translate(1125.000,619.927)" style="opacity: 1;"><rect class="node-rect" width="15" height="33.97459165154271" style="stroke-width: 0.5; stroke: rgb(0, 0, 0); stroke-opacity: 1; fill: rgb(128, 128, 128); fill-opacity: 1;"/><text class="node-label" data-notex="1" x="0" y="0" text-anchor="end" transform="translate(-3.25,21.187295825771354)" style="cursor: default; font-family: 'Open Sans', verdana, arial, sans-serif; font-size: 12px; fill: rgb(42, 63, 95); fill-opacity: 1; white-space: pre; text-shadow: white 1px 1px 1px, white -1px -1px 1px, white 1px -1px 1px, white -1px 1px 1px;">groom_front-suppressed</text></g><g class="sankey-node" transform="translate(1125.000,565.644)" style="opacity: 1;"><rect class="node-rect" width="15" height="39.28312159709617" style="stroke-width: 0.5; stroke: rgb(0, 0, 0); stroke-opacity: 1; fill: rgb(128, 128, 128); fill-opacity: 1;"/><text class="node-label" data-notex="1" x="0" y="0" text-anchor="end" transform="translate(-3.25,23.841560798548084)" style="cursor: default; font-family: 'Open Sans', verdana, arial, sans-serif; font-size: 12px; fill: rgb(42, 63, 95); fill-opacity: 1; white-space: pre; text-shadow: white 1px 1px 1px, white -1px -1px 1px, white 1px -1px 1px, white -1px 1px 1px;">groom_front-activated</text></g><g class="sankey-node" transform="translate(1125.000,710.445)" style="opacity: 1;"><rect class="node-rect" width="15" height="9.555353901996341" style="stroke-width: 0.5; stroke: rgb(0, 0, 0); stroke-opacity: 1; fill: rgb(128, 128, 128); fill-opacity: 1;"/><text class="node-label" data-notex="1" x="0" y="0" text-anchor="end" transform="translate(-3.25,8.97767695099817)" style="cursor: default; font-family: 'Open Sans', verdana, arial, sans-serif; font-size: 12px; fill: rgb(42, 63, 95); fill-opacity: 1; white-space: pre; text-shadow: white 1px 1px 1px, white -1px -1px 1px, white 1px -1px 1px, white -1px 1px 1px;">still-activated</text></g><g class="sankey-node" transform="translate(1125.000,668.902)" style="opacity: 1;"><rect class="node-rect" width="15" height="26.54264972776764" style="stroke-width: 0.5; stroke: rgb(0, 0, 0); stroke-opacity: 1; fill: rgb(128, 128, 128); fill-opacity: 1;"/><text class="node-label" data-notex="1" x="0" y="0" text-anchor="end" transform="translate(-3.25,17.47132486388382)" style="cursor: default; font-family: 'Open Sans', verdana, arial, sans-serif; font-size: 12px; fill: rgb(42, 63, 95); fill-opacity: 1; white-space: pre; text-shadow: white 1px 1px 1px, white -1px -1px 1px, white 1px -1px 1px, white -1px 1px 1px;">still-suppressed</text></g><g class="sankey-node" transform="translate(375.000,0.000)" style="opacity: 1;"><rect class="node-rect" width="15" height="39.2831215970962" style="stroke-width: 0.5; stroke: rgb(0, 0, 0); stroke-opacity: 1; fill: rgb(99, 110, 250); fill-opacity: 1;"/><text class="node-label" data-notex="1" x="0" y="0" text-anchor="start" transform="translate(18.25,23.841560798548098)" style="cursor: default; font-family: 'Open Sans', verdana, arial, sans-serif; font-size: 12px; fill: rgb(42, 63, 95); fill-opacity: 1; white-space: pre; text-shadow: white 1px 1px 1px, white -1px -1px 1px, white 1px -1px 1px, white -1px 1px 1px;">BLA</text></g><g class="sankey-node" transform="translate(375.000,79.900)" style="opacity: 1;"><rect class="node-rect" width="15" height="62.640653357531846" style="stroke-width: 0.5; stroke: rgb(0, 0, 0); stroke-opacity: 1; fill: rgb(239, 85, 59); fill-opacity: 1;"/><text class="node-label" data-notex="1" x="0" y="0" text-anchor="start" transform="translate(18.25,35.520326678765926)" style="cursor: default; font-family: 'Open Sans', verdana, arial, sans-serif; font-size: 12px; fill: rgb(42, 63, 95); fill-opacity: 1; white-space: pre; text-shadow: white 1px 1px 1px, white -1px -1px 1px, white 1px -1px 1px, white -1px 1px 1px;">LC</text></g><g class="sankey-node" transform="translate(375.000,306.452)" style="opacity: 1;"><rect class="node-rect" width="15" height="31.85117967332104" style="stroke-width: 0.5; stroke: rgb(0, 0, 0); stroke-opacity: 1; fill: rgb(0, 204, 150); fill-opacity: 1;"/><text class="node-label" data-notex="1" x="0" y="0" text-anchor="start" transform="translate(18.25,20.12558983666052)" style="cursor: default; font-family: 'Open Sans', verdana, arial, sans-serif; font-size: 12px; fill: rgb(42, 63, 95); fill-opacity: 1; white-space: pre; text-shadow: white 1px 1px 1px, white -1px -1px 1px, white 1px -1px 1px, white -1px 1px 1px;">dPAG</text></g><g class="sankey-node" transform="translate(375.000,54.283)" style="opacity: 1;"><rect class="node-rect" width="15" height="10.617059891106976" style="stroke-width: 0.5; stroke: rgb(0, 0, 0); stroke-opacity: 1; fill: rgb(171, 99, 250); fill-opacity: 1;"/><text class="node-label" data-notex="1" x="0" y="0" text-anchor="start" transform="translate(18.25,9.508529945553487)" style="cursor: default; font-family: 'Open Sans', verdana, arial, sans-serif; font-size: 12px; fill: rgb(42, 63, 95); fill-opacity: 1; white-space: pre; text-shadow: white 1px 1px 1px, white -1px -1px 1px, white 1px -1px 1px, white -1px 1px 1px;">lHb</text></g><g class="sankey-node" transform="translate(375.000,353.303)" style="opacity: 1;"><rect class="node-rect" width="15" height="96.61524500907421" style="stroke-width: 0.5; stroke: rgb(0, 0, 0); stroke-opacity: 1; fill: rgb(255, 161, 90); fill-opacity: 1;"/><text class="node-label" data-notex="1" x="0" y="0" text-anchor="start" transform="translate(18.25,52.50762250453711)" style="cursor: default; font-family: 'Open Sans', verdana, arial, sans-serif; font-size: 12px; fill: rgb(42, 63, 95); fill-opacity: 1; white-space: pre; text-shadow: white 1px 1px 1px, white -1px -1px 1px, white 1px -1px 1px, white -1px 1px 1px;">Str</text></g><g class="sankey-node" transform="translate(375.000,157.541)" style="opacity: 1;"><rect class="node-rect" width="15" height="90.24500907440995" style="stroke-width: 0.5; stroke: rgb(0, 0, 0); stroke-opacity: 1; fill: rgb(25, 211, 243); fill-opacity: 1;"/><text class="node-label" data-notex="1" x="0" y="0" text-anchor="start" transform="translate(18.25,49.32250453720498)" style="cursor: default; font-family: 'Open Sans', verdana, arial, sans-serif; font-size: 12px; fill: rgb(42, 63, 95); fill-opacity: 1; white-space: pre; text-shadow: white 1px 1px 1px, white -1px -1px 1px, white 1px -1px 1px, white -1px 1px 1px;">Cla</text></g><g class="sankey-node" transform="translate(375.000,464.918)" style="opacity: 1;"><rect class="node-rect" width="15" height="49.900181488203316" style="stroke-width: 0.5; stroke: rgb(0, 0, 0); stroke-opacity: 1; fill: rgb(255, 102, 146); fill-opacity: 1;"/><text class="node-label" data-notex="1" x="0" y="0" text-anchor="start" transform="translate(18.25,29.150090744101657)" style="cursor: default; font-family: 'Open Sans', verdana, arial, sans-serif; font-size: 12px; fill: rgb(42, 63, 95); fill-opacity: 1; white-space: pre; text-shadow: white 1px 1px 1px, white -1px -1px 1px, white 1px -1px 1px, white -1px 1px 1px;">cPFC</text></g><g class="sankey-node" transform="translate(375.000,262.786)" style="opacity: 1;"><rect class="node-rect" width="15" height="28.666061705988795" style="stroke-width: 0.5; stroke: rgb(0, 0, 0); stroke-opacity: 1; fill: rgb(182, 232, 128); fill-opacity: 1;"/><text class="node-label" data-notex="1" x="0" y="0" text-anchor="start" transform="translate(18.25,18.533030852994397)" style="cursor: default; font-family: 'Open Sans', verdana, arial, sans-serif; font-size: 12px; fill: rgb(42, 63, 95); fill-opacity: 1; white-space: pre; text-shadow: white 1px 1px 1px, white -1px -1px 1px, white 1px -1px 1px, white -1px 1px 1px;">NAc</text></g><g class="sankey-node" transform="translate(375.000,529.819)" style="opacity: 1;"><rect class="node-rect" width="15" height="140.14519056261327" style="stroke-width: 0.5; stroke: rgb(0, 0, 0); stroke-opacity: 1; fill: rgb(255, 151, 255); fill-opacity: 1;"/><text class="node-label" data-notex="1" x="0" y="0" text-anchor="start" transform="translate(18.25,74.27259528130664)" style="cursor: default; font-family: 'Open Sans', verdana, arial, sans-serif; font-size: 12px; fill: rgb(42, 63, 95); fill-opacity: 1; white-space: pre; text-shadow: white 1px 1px 1px, white -1px -1px 1px, white 1px -1px 1px, white -1px 1px 1px;">VTA</text></g><g class="sankey-node" transform="translate(375.000,684.964)" style="opacity: 1;"><rect class="node-rect" width="15" height="35.03629764065363" style="stroke-width: 0.5; stroke: rgb(0, 0, 0); stroke-opacity: 1; fill: rgb(254, 203, 82); fill-opacity: 1;"/><text class="node-label" data-notex="1" x="0" y="0" text-anchor="start" transform="translate(18.25,21.718148820326814)" style="cursor: default; font-family: 'Open Sans', verdana, arial, sans-serif; font-size: 12px; fill: rgb(42, 63, 95); fill-opacity: 1; white-space: pre; text-shadow: white 1px 1px 1px, white -1px -1px 1px, white 1px -1px 1px, white -1px 1px 1px;">LHyp</text></g></g></g><defs id="topdefs-f2f47a"><g class="clips"/></defs><g class="layer-above"><g class="imagelayer"/><g class="shapelayer"/></g><g class="infolayer"><g class="g-gtitle"/><g class="first-render"/></g></svg>