<svg class="main-svg" xmlns="http://www.w3.org/2000/svg" xmlns:xlink="http://www.w3.org/1999/xlink" width="1300" height="900" style="" viewBox="0 0 1300 900"><rect x="0" y="0" width="1300" height="900" style="fill: rgb(255, 255, 255); fill-opacity: 1;"/><defs id="defs-731af3"><g class="clips"/><g class="gradients"/><g class="patterns"/></defs><g class="bglayer"/><g class="layer-below"><g class="imagelayer"/><g class="shapelayer"/></g><g class="cartesianlayer"/><g class="polarlayer"/><g class="smithlayer"/><g class="ternarylayer"/><g class="geolayer"/><g class="funnelarealayer"/><g class="pielayer"/><g class="iciclelayer"/><g class="treemaplayer"/><g class="sunburstlayer"/><g class="glimages"/><g class="sankey" transform="translate(80,100)matrix(1 0 0 1 0 0)" style="box-sizing: content-box; position: absolute; left: 0px; shape-rendering: geometricprecision; pointer-events: none;"><g class="sankey-links" style="fill: none;"><path class="sankey-link" d="M15,464.9535100407847C195,464.9535100407847 195,291.5861344537818 375,291.5861344537818L375,292.6260504201683C195,292.6260504201683 195,465.9934260071712 15,465.9934260071712Z" style="stroke: rgb(68, 68, 68); stroke-opacity: 1; fill: rgb(25, 211, 243); fill-opacity: 0.6; stroke-width: 0; opacity: 1;"/><path class="sankey-link" d="M15,472.2329218054906C195,472.2329218054906 195,407.8991596638653 375,407.8991596638653L375,420.378151260504C195,420.378151260504 195,484.7119134021293 15,484.7119134021293Z" style="stroke: rgb(68, 68, 68); stroke-opacity: 1; fill: rgb(0, 204, 150); fill-opacity: 0.6; stroke-width: 0; opacity: 1;"/><path class="sankey-link" d="M15,449.35477054498637C195,449.35477054498637 195,117.03781512605042 375,117.03781512605042L375,122.23739495798318C195,122.23739495798318 195,454.5543503769191 15,454.5543503769191Z" style="stroke: rgb(68, 68, 68); stroke-opacity: 1; fill: rgb(239, 85, 59); fill-opacity: 0.6; stroke-width: 0; opacity: 1;"/><path class="sankey-link" d="M15,465.99342600717125C195,465.99342600717125 195,339.8634453781516 375,339.8634453781516L375,346.10294117647095C195,346.10294117647095 195,472.2329218054906 15,472.2329218054906Z" style="stroke: rgb(68, 68, 68); stroke-opacity: 1; fill: rgb(255, 161, 90); fill-opacity: 0.6; stroke-width: 0; opacity: 1;"/><path class="sankey-link" d="M15,454.55435037691916C195,454.55435037691916 195,216.2710084033615 375,216.2710084033615L375,226.67016806722702C195,226.67016806722702 195,464.95351004078475 15,464.95351004078475Z" style="stroke: rgb(68, 68, 68); stroke-opacity: 1; fill: rgb(171, 99, 250); fill-opacity: 0.6; stroke-width: 0; opacity: 1;"/><path class="sankey-link" d="M15,486.7917453349024C195,486.7917453349024 195,584.3697478991595 375,584.3697478991595L375,586.4495798319325C195,586.4495798319325 195,488.8715772676755 15,488.8715772676755Z" style="stroke: rgb(68, 68, 68); stroke-opacity: 1; fill: rgb(99, 110, 250); fill-opacity: 0.6; stroke-width: 0; opacity: 1;"/><path class="sankey-link" d="M15,484.71191340212926C195,484.71191340212926 195,557.9306722689074 375,557.9306722689074L375,560.0105042016804C195,560.0105042016804 195,486.7917453349024 15,486.7917453349024Z" style="stroke: rgb(68, 68, 68); stroke-opacity: 1; fill: rgb(255, 102, 146); fill-opacity: 0.6; stroke-width: 0; opacity: 1;"/><path class="sankey-link" d="M15,337.6425856710368C195,337.6425856710368 195,275.9873949579835 375,275.9873949579835L375,291.5861344537818C195,291.5861344537818 195,353.2413251668351 15,353.2413251668351Z" style="stroke: rgb(68, 68, 68); stroke-opacity: 1; fill: rgb(25, 211, 243); fill-opacity: 0.6; stroke-width: 0; opacity: 1;"/><path class="sankey-link" d="M15,366.7602327298603C195,366.7602327298603 195,381.90126050420145 375,381.90126050420145L375,407.89915966386536C195,407.89915966386536 195,392.75813188952424 15,392.75813188952424Z" style="stroke: rgb(68, 68, 68); stroke-opacity: 1; fill: rgb(0, 204, 150); fill-opacity: 0.6; stroke-width: 0; opacity: 1;"/><path class="sankey-link" d="M15,273.1677957550704C195,273.1677957550704 195,90 375,90L375,117.03781512605042C195,117.03781512605042 195,300.20561088112083 15,300.20561088112083Z" style="stroke: rgb(68, 68, 68); stroke-opacity: 1; fill: rgb(239, 85, 59); fill-opacity: 0.6; stroke-width: 0; opacity: 1;"/><path class="sankey-link" d="M15,353.2413251668351C195,353.2413251668351 195,326.3445378151264 375,326.3445378151264L375,339.8634453781516C195,339.8634453781516 195,366.7602327298603 15,366.7602327298603Z" style="stroke: rgb(68, 68, 68); stroke-opacity: 1; fill: rgb(255, 161, 90); fill-opacity: 0.6; stroke-width: 0; opacity: 1;"/><path class="sankey-link" d="M15,300.20561088112083C195,300.20561088112083 195,178.8340336134455 375,178.8340336134455L375,216.27100840336146C195,216.27100840336146 195,337.64258567103684 15,337.64258567103684Z" style="stroke: rgb(68, 68, 68); stroke-opacity: 1; fill: rgb(171, 99, 250); fill-opacity: 0.6; stroke-width: 0; opacity: 1;"/><path class="sankey-link" d="M15,424.9955268475074C195,424.9955268475074 195,575.0105042016805 375,575.0105042016805L375,584.3697478991596C195,584.3697478991596 195,434.35477054498637 15,434.35477054498637Z" style="stroke: rgb(68, 68, 68); stroke-opacity: 1; fill: rgb(99, 110, 250); fill-opacity: 0.6; stroke-width: 0; opacity: 1;"/><path class="sankey-link" d="M15,404.19720751977627C195,404.19720751977627 195,506.53361344537797 375,506.53361344537797L375,524.2121848739494C195,524.2121848739494 195,421.8757789483477 15,421.8757789483477Z" style="stroke: rgb(68, 68, 68); stroke-opacity: 1; fill: rgb(255, 151, 255); fill-opacity: 0.6; stroke-width: 0; opacity: 1;"/><path class="sankey-link" d="M15,392.7581318895242C195,392.7581318895242 195,473.8550420168066 375,473.8550420168066L375,485.29411764705867C195,485.29411764705867 195,404.19720751977627 15,404.19720751977627Z" style="stroke: rgb(68, 68, 68); stroke-opacity: 1; fill: rgb(182, 232, 128); fill-opacity: 0.6; stroke-width: 0; opacity: 1;"/><path class="sankey-link" d="M15,421.8757789483477C195,421.8757789483477 195,554.8109243697478 375,554.8109243697478L375,557.9306722689074C195,557.9306722689074 195,424.99552684750734 15,424.99552684750734Z" style="stroke: rgb(68, 68, 68); stroke-opacity: 1; fill: rgb(255, 102, 146); fill-opacity: 0.6; stroke-width: 0; opacity: 1;"/><path class="sankey-link" d="M15,518.4304007970873C195,518.4304007970873 195,420.37815126050396 375,420.37815126050396L375,426.6176470588233C195,426.6176470588233 195,524.6698965954065 15,524.6698965954065Z" style="stroke: rgb(68, 68, 68); stroke-opacity: 1; fill: rgb(0, 204, 150); fill-opacity: 0.6; stroke-width: 0; opacity: 1;"/><path class="sankey-link" d="M15,503.8715772676755C195,503.8715772676755 195,122.23739495798318 375,122.23739495798318L375,127.43697478991595C195,127.43697478991595 195,509.07115709960823 15,509.07115709960823Z" style="stroke: rgb(68, 68, 68); stroke-opacity: 1; fill: rgb(239, 85, 59); fill-opacity: 0.6; stroke-width: 0; opacity: 1;"/><path class="sankey-link" d="M15,569.3862831500284C195,569.3862831500284 195,703.3613445378148 375,703.3613445378148L375,711.6806722689073C195,711.6806722689073 195,577.7056108811208 15,577.7056108811208Z" style="stroke: rgb(68, 68, 68); stroke-opacity: 1; fill: rgb(254, 203, 82); fill-opacity: 0.6; stroke-width: 0; opacity: 1;"/><path class="sankey-link" d="M15,509.07115709960834C195,509.07115709960834 195,226.67016806722705 375,226.67016806722705L375,236.02941176470603C195,236.02941176470603 195,518.4304007970874 15,518.4304007970874Z" style="stroke: rgb(68, 68, 68); stroke-opacity: 1; fill: rgb(171, 99, 250); fill-opacity: 0.6; stroke-width: 0; opacity: 1;"/><path class="sankey-link" d="M15,532.989224326499C195,532.989224326499 195,586.4495798319326 375,586.4495798319326L375,622.8466386554621C195,622.8466386554621 195,569.3862831500285 15,569.3862831500285Z" style="stroke: rgb(68, 68, 68); stroke-opacity: 1; fill: rgb(99, 110, 250); fill-opacity: 0.6; stroke-width: 0; opacity: 1;"/><path class="sankey-link" d="M15,525.7098125617931C195,525.7098125617931 195,524.2121848739495 375,524.2121848739495L375,531.4915966386553C195,531.4915966386553 195,532.989224326499 15,532.989224326499Z" style="stroke: rgb(68, 68, 68); stroke-opacity: 1; fill: rgb(255, 151, 255); fill-opacity: 0.6; stroke-width: 0; opacity: 1;"/><path class="sankey-link" d="M15,524.6698965954066C195,524.6698965954066 195,485.29411764705867 375,485.29411764705867L375,486.3340336134452C195,486.3340336134452 195,525.7098125617932 15,525.7098125617932Z" style="stroke: rgb(68, 68, 68); stroke-opacity: 1; fill: rgb(182, 232, 128); fill-opacity: 0.6; stroke-width: 0; opacity: 1;"/><path class="sankey-link" d="M15,607.2644344105323C195,607.2644344105323 195,426.6176470588233 375,426.6176470588233L375,432.85714285714266C195,432.85714285714266 195,613.5039302088516 15,613.5039302088516Z" style="stroke: rgb(68, 68, 68); stroke-opacity: 1; fill: rgb(0, 204, 150); fill-opacity: 0.6; stroke-width: 0; opacity: 1;"/><path class="sankey-link" d="M15,592.7056108811206C195,592.7056108811206 195,127.43697478991596 375,127.43697478991596L375,132.63655462184875C195,132.63655462184875 195,597.9051907130535 15,597.9051907130535Z" style="stroke: rgb(68, 68, 68); stroke-opacity: 1; fill: rgb(239, 85, 59); fill-opacity: 0.6; stroke-width: 0; opacity: 1;"/><path class="sankey-link" d="M15,658.2203167634734C195,658.2203167634734 195,711.6806722689073 375,711.6806722689073L375,719.9999999999998C195,719.9999999999998 195,666.5396444945659 15,666.5396444945659Z" style="stroke: rgb(68, 68, 68); stroke-opacity: 1; fill: rgb(254, 203, 82); fill-opacity: 0.6; stroke-width: 0; opacity: 1;"/><path class="sankey-link" d="M15,597.9051907130533C195,597.9051907130533 195,236.02941176470605 375,236.02941176470605L375,245.38865546218503C195,245.38865546218503 195,607.2644344105324 15,607.2644344105324Z" style="stroke: rgb(68, 68, 68); stroke-opacity: 1; fill: rgb(171, 99, 250); fill-opacity: 0.6; stroke-width: 0; opacity: 1;"/><path class="sankey-link" d="M15,621.823257939944C195,621.823257939944 195,622.846638655462 375,622.846638655462L375,659.2436974789915C195,659.2436974789915 195,658.2203167634735 15,658.2203167634735Z" style="stroke: rgb(68, 68, 68); stroke-opacity: 1; fill: rgb(99, 110, 250); fill-opacity: 0.6; stroke-width: 0; opacity: 1;"/><path class="sankey-link" d="M15,614.5438461752382C195,614.5438461752382 195,531.4915966386553 375,531.4915966386553L375,538.7710084033612C195,538.7710084033612 195,621.823257939944 15,621.823257939944Z" style="stroke: rgb(68, 68, 68); stroke-opacity: 1; fill: rgb(255, 151, 255); fill-opacity: 0.6; stroke-width: 0; opacity: 1;"/><path class="sankey-link" d="M15,613.5039302088517C195,613.5039302088517 195,486.33403361344523 375,486.33403361344523L375,487.37394957983173C195,487.37394957983173 195,614.5438461752383 15,614.5438461752383Z" style="stroke: rgb(68, 68, 68); stroke-opacity: 1; fill: rgb(182, 232, 128); fill-opacity: 0.6; stroke-width: 0; opacity: 1;"/><path class="sankey-link" d="M390,293.66596638655494C570,293.66596638655494 570,391.70168067226797 750,391.70168067226797L750,392.74159663865447C570,392.74159663865447 570,294.70588235294144 390,294.70588235294144Z" style="stroke: rgb(68, 68, 68); stroke-opacity: 1; fill: rgb(25, 211, 243); fill-opacity: 0.6; stroke-width: 0; opacity: 1;"/><path class="sankey-link" d="M390,275.9873949579835C570,275.9873949579835 570,131.43907563025152 750,131.43907563025152L750,134.5588235294112C570,134.5588235294112 570,279.1071428571431 390,279.1071428571431Z" style="stroke: rgb(68, 68, 68); stroke-opacity: 1; fill: rgb(25, 211, 243); fill-opacity: 0.6; stroke-width: 0; opacity: 1;"/><path class="sankey-link" d="M390,287.4264705882356C570,287.4264705882356 570,334.06512605041917 750,334.06512605041917L750,340.3046218487385C570,340.3046218487385 570,293.66596638655494 390,293.66596638655494Z" style="stroke: rgb(68, 68, 68); stroke-opacity: 1; fill: rgb(25, 211, 243); fill-opacity: 0.6; stroke-width: 0; opacity: 1;"/><path class="sankey-link" d="M390,279.1071428571432C570,279.1071428571432 570,200.51470588235236 750,200.51470588235236L750,208.83403361344477C570,208.83403361344477 570,287.42647058823565 390,287.42647058823565Z" style="stroke: rgb(68, 68, 68); stroke-opacity: 1; fill: rgb(25, 211, 243); fill-opacity: 0.6; stroke-width: 0; opacity: 1;"/><path class="sankey-link" d="M390,305.1050420168071C570,305.1050420168071 570,618.6869747899159 750,618.6869747899159L750,624.9264705882351C570,624.9264705882351 570,311.34453781512644 390,311.34453781512644Z" style="stroke: rgb(68, 68, 68); stroke-opacity: 1; fill: rgb(25, 211, 243); fill-opacity: 0.6; stroke-width: 0; opacity: 1;"/><path class="sankey-link" d="M390,300.94537815126085C570,300.94537815126085 570,531.9327731092436 750,531.9327731092436L750,536.0924369747898C570,536.0924369747898 570,305.1050420168071 390,305.1050420168071Z" style="stroke: rgb(68, 68, 68); stroke-opacity: 1; fill: rgb(25, 211, 243); fill-opacity: 0.6; stroke-width: 0; opacity: 1;"/><path class="sankey-link" d="M390,294.7058823529415C570,294.7058823529415 570,458.6974789915963 750,458.6974789915963L750,464.93697478991567C570,464.93697478991567 570,300.94537815126085 390,300.94537815126085Z" style="stroke: rgb(68, 68, 68); stroke-opacity: 1; fill: rgb(25, 211, 243); fill-opacity: 0.6; stroke-width: 0; opacity: 1;"/><path class="sankey-link" d="M390,415.1785714285712C570,415.1785714285712 570,395.8613445378142 750,395.8613445378142L750,404.1806722689067C570,404.1806722689067 570,423.4978991596637 390,423.4978991596637Z" style="stroke: rgb(68, 68, 68); stroke-opacity: 1; fill: rgb(0, 204, 150); fill-opacity: 0.6; stroke-width: 0; opacity: 1;"/><path class="sankey-link" d="M390,454.69537815126023C570,454.69537815126023 570,696.0819327731092 750,696.0819327731092L750,700.2415966386554C570,700.2415966386554 570,458.85504201680646 390,458.85504201680646Z" style="stroke: rgb(68, 68, 68); stroke-opacity: 1; fill: rgb(0, 204, 150); fill-opacity: 0.6; stroke-width: 0; opacity: 1;"/><path class="sankey-link" d="M390,381.90126050420145C570,381.90126050420145 570,136.63865546218432 750,136.63865546218432L750,139.758403361344C570,139.758403361344 570,385.02100840336107 390,385.02100840336107Z" style="stroke: rgb(68, 68, 68); stroke-opacity: 1; fill: rgb(0, 204, 150); fill-opacity: 0.6; stroke-width: 0; opacity: 1;"/><path class="sankey-link" d="M390,404.7794117647057C570,404.7794117647057 570,346.5441176470579 750,346.5441176470579L750,356.94327731092346C570,356.94327731092346 570,415.1785714285713 390,415.1785714285713Z" style="stroke: rgb(68, 68, 68); stroke-opacity: 1; fill: rgb(0, 204, 150); fill-opacity: 0.6; stroke-width: 0; opacity: 1;"/><path class="sankey-link" d="M390,385.0210084033611C570,385.0210084033611 570,219.23319327731036 750,219.23319327731036L750,238.99159663865493C570,238.99159663865493 570,404.7794117647057 390,404.7794117647057Z" style="stroke: rgb(68, 68, 68); stroke-opacity: 1; fill: rgb(0, 204, 150); fill-opacity: 0.6; stroke-width: 0; opacity: 1;"/><path class="sankey-link" d="M390,446.3760504201678C570,446.3760504201678 570,632.2058823529411 750,632.2058823529411L750,640.5252100840336C570,640.5252100840336 570,454.6953781512603 390,454.6953781512603Z" style="stroke: rgb(68, 68, 68); stroke-opacity: 1; fill: rgb(0, 204, 150); fill-opacity: 0.6; stroke-width: 0; opacity: 1;"/><path class="sankey-link" d="M390,433.89705882352916C570,433.89705882352916 570,540.2521008403361 750,540.2521008403361L750,552.7310924369748C570,552.7310924369748 570,446.37605042016787 390,446.37605042016787Z" style="stroke: rgb(68, 68, 68); stroke-opacity: 1; fill: rgb(0, 204, 150); fill-opacity: 0.6; stroke-width: 0; opacity: 1;"/><path class="sankey-link" d="M390,423.49789915966363C570,423.49789915966363 570,472.2163865546215 750,472.2163865546215L750,482.6155462184871C570,482.6155462184871 570,433.8970588235292 390,433.8970588235292Z" style="stroke: rgb(68, 68, 68); stroke-opacity: 1; fill: rgb(0, 204, 150); fill-opacity: 0.6; stroke-width: 0; opacity: 1;"/><path class="sankey-link" d="M390,128.4768907563025C570,128.4768907563025 570,379.2226890756293 750,379.2226890756293L750,384.42226890756206C570,384.42226890756206 570,133.6764705882353 390,133.6764705882353Z" style="stroke: rgb(68, 68, 68); stroke-opacity: 1; fill: rgb(239, 85, 59); fill-opacity: 0.6; stroke-width: 0; opacity: 1;"/><path class="sankey-link" d="M390,162.79411764705884C570,162.79411764705884 570,694.0021008403362 750,694.0021008403362L750,695.0420168067228C570,695.0420168067228 570,163.8340336134454 390,163.8340336134454Z" style="stroke: rgb(68, 68, 68); stroke-opacity: 1; fill: rgb(239, 85, 59); fill-opacity: 0.6; stroke-width: 0; opacity: 1;"/><path class="sankey-link" d="M390,90C570,90 570,119.99999999999943 750,119.99999999999943L750,126.23949579831876C570,126.23949579831876 570,96.23949579831933 390,96.23949579831933Z" style="stroke: rgb(68, 68, 68); stroke-opacity: 1; fill: rgb(239, 85, 59); fill-opacity: 0.6; stroke-width: 0; opacity: 1;"/><path class="sankey-link" d="M390,115.99789915966386C570,115.99789915966386 570,313.2668067226881 750,313.2668067226881L750,325.7457983193268C570,325.7457983193268 570,128.4768907563025 390,128.4768907563025Z" style="stroke: rgb(68, 68, 68); stroke-opacity: 1; fill: rgb(239, 85, 59); fill-opacity: 0.6; stroke-width: 0; opacity: 1;"/><path class="sankey-link" d="M390,96.23949579831933C570,96.23949579831933 570,155.7983193277305 750,155.7983193277305L750,175.55672268907506C570,175.55672268907506 570,115.99789915966386 390,115.99789915966386Z" style="stroke: rgb(68, 68, 68); stroke-opacity: 1; fill: rgb(239, 85, 59); fill-opacity: 0.6; stroke-width: 0; opacity: 1;"/><path class="sankey-link" d="M390,153.43487394957984C570,153.43487394957984 570,596.8487394957982 750,596.8487394957982L750,606.2079831932773C570,606.2079831932773 570,162.7941176470588 390,162.7941176470588Z" style="stroke: rgb(68, 68, 68); stroke-opacity: 1; fill: rgb(239, 85, 59); fill-opacity: 0.6; stroke-width: 0; opacity: 1;"/><path class="sankey-link" d="M390,144.07563025210084C570,144.07563025210084 570,514.2542016806722 750,514.2542016806722L750,523.6134453781513C570,523.6134453781513 570,153.4348739495798 390,153.4348739495798Z" style="stroke: rgb(68, 68, 68); stroke-opacity: 1; fill: rgb(239, 85, 59); fill-opacity: 0.6; stroke-width: 0; opacity: 1;"/><path class="sankey-link" d="M390,133.67647058823528C570,133.67647058823528 570,433.739495798319 750,433.739495798319L750,444.1386554621846C570,444.1386554621846 570,144.0756302521008 390,144.0756302521008Z" style="stroke: rgb(68, 68, 68); stroke-opacity: 1; fill: rgb(239, 85, 59); fill-opacity: 0.6; stroke-width: 0; opacity: 1;"/><path class="sankey-link" d="M390,707.5210084033611C570,707.5210084033611 570,416.65966386554527 750,416.65966386554527L750,418.7394957983184C570,418.7394957983184 570,709.6008403361341 390,709.6008403361341Z" style="stroke: rgb(68, 68, 68); stroke-opacity: 1; fill: rgb(254, 203, 82); fill-opacity: 0.6; stroke-width: 0; opacity: 1;"/><path class="sankey-link" d="M390,715.8403361344534C570,715.8403361344534 570,715.8403361344538 750,715.8403361344538L750,720C570,720 570,719.9999999999997 390,719.9999999999997Z" style="stroke: rgb(68, 68, 68); stroke-opacity: 1; fill: rgb(254, 203, 82); fill-opacity: 0.6; stroke-width: 0; opacity: 1;"/><path class="sankey-link" d="M390,703.3613445378148C570,703.3613445378148 570,294.1071428571423 750,294.1071428571423L750,298.26680672268856C570,298.26680672268856 570,707.5210084033611 390,707.5210084033611Z" style="stroke: rgb(68, 68, 68); stroke-opacity: 1; fill: rgb(254, 203, 82); fill-opacity: 0.6; stroke-width: 0; opacity: 1;"/><path class="sankey-link" d="M390,712.7205882352938C570,712.7205882352938 570,675.8823529411764 750,675.8823529411764L750,679.002100840336C570,679.002100840336 570,715.8403361344534 390,715.8403361344534Z" style="stroke: rgb(68, 68, 68); stroke-opacity: 1; fill: rgb(254, 203, 82); fill-opacity: 0.6; stroke-width: 0; opacity: 1;"/><path class="sankey-link" d="M390,709.6008403361342C570,709.6008403361342 570,578.7289915966386 750,578.7289915966386L750,581.8487394957982C570,581.8487394957982 570,712.7205882352938 390,712.7205882352938Z" style="stroke: rgb(68, 68, 68); stroke-opacity: 1; fill: rgb(254, 203, 82); fill-opacity: 0.6; stroke-width: 0; opacity: 1;"/><path class="sankey-link" d="M390,345.0630252100844C570,345.0630252100844 570,392.7415966386545 750,392.7415966386545L750,395.86134453781415C570,395.86134453781415 570,348.182773109244 390,348.182773109244Z" style="stroke: rgb(68, 68, 68); stroke-opacity: 1; fill: rgb(255, 161, 90); fill-opacity: 0.6; stroke-width: 0; opacity: 1;"/><path class="sankey-link" d="M390,326.3445378151264C570,326.3445378151264 570,134.5588235294112 750,134.5588235294112L750,136.63865546218432C570,136.63865546218432 570,328.4243697478995 390,328.4243697478995Z" style="stroke: rgb(68, 68, 68); stroke-opacity: 1; fill: rgb(255, 161, 90); fill-opacity: 0.6; stroke-width: 0; opacity: 1;"/><path class="sankey-link" d="M390,338.82352941176504C570,338.82352941176504 570,340.3046218487385 750,340.3046218487385L750,346.5441176470579C570,346.5441176470579 570,345.0630252100844 390,345.0630252100844Z" style="stroke: rgb(68, 68, 68); stroke-opacity: 1; fill: rgb(255, 161, 90); fill-opacity: 0.6; stroke-width: 0; opacity: 1;"/><path class="sankey-link" d="M390,328.4243697478995C570,328.4243697478995 570,208.8340336134448 750,208.8340336134448L750,219.23319327731033C570,219.23319327731033 570,338.8235294117651 390,338.8235294117651Z" style="stroke: rgb(68, 68, 68); stroke-opacity: 1; fill: rgb(255, 161, 90); fill-opacity: 0.6; stroke-width: 0; opacity: 1;"/><path class="sankey-link" d="M390,359.62184873949616C570,359.62184873949616 570,624.9264705882352 750,624.9264705882352L750,632.2058823529411C570,632.2058823529411 570,366.901260504202 390,366.901260504202Z" style="stroke: rgb(68, 68, 68); stroke-opacity: 1; fill: rgb(255, 161, 90); fill-opacity: 0.6; stroke-width: 0; opacity: 1;"/><path class="sankey-link" d="M390,355.4621848739499C570,355.4621848739499 570,536.0924369747898 750,536.0924369747898L750,540.2521008403361C570,540.2521008403361 570,359.62184873949616 390,359.62184873949616Z" style="stroke: rgb(68, 68, 68); stroke-opacity: 1; fill: rgb(255, 161, 90); fill-opacity: 0.6; stroke-width: 0; opacity: 1;"/><path class="sankey-link" d="M390,348.18277310924407C570,348.18277310924407 570,464.93697478991567 750,464.93697478991567L750,472.2163865546215C570,472.2163865546215 570,355.4621848739499 390,355.4621848739499Z" style="stroke: rgb(68, 68, 68); stroke-opacity: 1; fill: rgb(255, 161, 90); fill-opacity: 0.6; stroke-width: 0; opacity: 1;"/><path class="sankey-link" d="M390,217.31092436974805C570,217.31092436974805 570,384.4222689075621 750,384.4222689075621L750,391.70168067226797C570,391.70168067226797 570,224.5903361344539 390,224.5903361344539Z" style="stroke: rgb(68, 68, 68); stroke-opacity: 1; fill: rgb(171, 99, 250); fill-opacity: 0.6; stroke-width: 0; opacity: 1;"/><path class="sankey-link" d="M390,259.9474789915968C570,259.9474789915968 570,695.0420168067227 750,695.0420168067227L750,696.0819327731093C570,696.0819327731093 570,260.9873949579833 390,260.9873949579833Z" style="stroke: rgb(68, 68, 68); stroke-opacity: 1; fill: rgb(171, 99, 250); fill-opacity: 0.6; stroke-width: 0; opacity: 1;"/><path class="sankey-link" d="M390,178.8340336134455C570,178.8340336134455 570,126.23949579831877 750,126.23949579831877L750,131.43907563025155C570,131.43907563025155 570,184.0336134453783 390,184.0336134453783Z" style="stroke: rgb(68, 68, 68); stroke-opacity: 1; fill: rgb(171, 99, 250); fill-opacity: 0.6; stroke-width: 0; opacity: 1;"/><path class="sankey-link" d="M390,208.9915966386556C570,208.9915966386556 570,325.74579831932675 750,325.74579831932675L750,334.0651260504192C570,334.0651260504192 570,217.31092436974802 390,217.31092436974802Z" style="stroke: rgb(68, 68, 68); stroke-opacity: 1; fill: rgb(171, 99, 250); fill-opacity: 0.6; stroke-width: 0; opacity: 1;"/><path class="sankey-link" d="M390,184.03361344537828C570,184.03361344537828 570,175.55672268907503 750,175.55672268907503L750,200.51470588235233C570,200.51470588235233 570,208.99159663865558 390,208.99159663865558Z" style="stroke: rgb(68, 68, 68); stroke-opacity: 1; fill: rgb(171, 99, 250); fill-opacity: 0.6; stroke-width: 0; opacity: 1;"/><path class="sankey-link" d="M390,247.46848739495815C570,247.46848739495815 570,606.2079831932772 750,606.2079831932772L750,618.6869747899159C570,618.6869747899159 570,259.9474789915968 390,259.9474789915968Z" style="stroke: rgb(68, 68, 68); stroke-opacity: 1; fill: rgb(171, 99, 250); fill-opacity: 0.6; stroke-width: 0; opacity: 1;"/><path class="sankey-link" d="M390,239.1491596638657C570,239.1491596638657 570,523.6134453781511 750,523.6134453781511L750,531.9327731092436C570,531.9327731092436 570,247.46848739495812 390,247.46848739495812Z" style="stroke: rgb(68, 68, 68); stroke-opacity: 1; fill: rgb(171, 99, 250); fill-opacity: 0.6; stroke-width: 0; opacity: 1;"/><path class="sankey-link" d="M390,224.59033613445393C570,224.59033613445393 570,444.13865546218454 750,444.13865546218454L750,458.69747899159626C570,458.69747899159626 570,239.1491596638657 390,239.1491596638657Z" style="stroke: rgb(68, 68, 68); stroke-opacity: 1; fill: rgb(171, 99, 250); fill-opacity: 0.6; stroke-width: 0; opacity: 1;"/><path class="sankey-link" d="M390,615.5672268907562C570,615.5672268907562 570,409.3802521008394 750,409.3802521008394L750,416.65966386554527C570,416.65966386554527 570,622.846638655462 390,622.846638655462Z" style="stroke: rgb(68, 68, 68); stroke-opacity: 1; fill: rgb(99, 110, 250); fill-opacity: 0.6; stroke-width: 0; opacity: 1;"/><path class="sankey-link" d="M390,674.8424369747897C570,674.8424369747897 570,702.3214285714286 750,702.3214285714286L750,715.8403361344539C570,715.8403361344539 570,688.3613445378151 390,688.3613445378151Z" style="stroke: rgb(68, 68, 68); stroke-opacity: 1; fill: rgb(99, 110, 250); fill-opacity: 0.6; stroke-width: 0; opacity: 1;"/><path class="sankey-link" d="M390,610.3676470588234C570,610.3676470588234 570,359.0231092436965 750,359.0231092436965L750,364.22268907562926C570,364.22268907562926 570,615.5672268907563 390,615.5672268907563Z" style="stroke: rgb(68, 68, 68); stroke-opacity: 1; fill: rgb(99, 110, 250); fill-opacity: 0.6; stroke-width: 0; opacity: 1;"/><path class="sankey-link" d="M390,575.0105042016805C570,575.0105042016805 570,258.74999999999943 750,258.74999999999943L750,294.1071428571423C570,294.1071428571423 570,610.3676470588234 390,610.3676470588234Z" style="stroke: rgb(68, 68, 68); stroke-opacity: 1; fill: rgb(99, 110, 250); fill-opacity: 0.6; stroke-width: 0; opacity: 1;"/><path class="sankey-link" d="M390,647.8046218487393C570,647.8046218487393 570,648.8445378151259 750,648.8445378151259L750,675.8823529411764C570,675.8823529411764 570,674.8424369747897 390,674.8424369747897Z" style="stroke: rgb(68, 68, 68); stroke-opacity: 1; fill: rgb(99, 110, 250); fill-opacity: 0.6; stroke-width: 0; opacity: 1;"/><path class="sankey-link" d="M390,628.0462184873948C570,628.0462184873948 570,558.970588235294 750,558.970588235294L750,578.7289915966386C570,578.7289915966386 570,647.8046218487393 390,647.8046218487393Z" style="stroke: rgb(68, 68, 68); stroke-opacity: 1; fill: rgb(99, 110, 250); fill-opacity: 0.6; stroke-width: 0; opacity: 1;"/><path class="sankey-link" d="M390,622.846638655462C570,622.846638655462 570,494.0546218487392 750,494.0546218487392L750,499.25420168067194C570,499.25420168067194 570,628.0462184873949 390,628.0462184873949Z" style="stroke: rgb(68, 68, 68); stroke-opacity: 1; fill: rgb(99, 110, 250); fill-opacity: 0.6; stroke-width: 0; opacity: 1;"/><path class="sankey-link" d="M390,520.0525210084032C570,520.0525210084032 570,406.26050420167974 750,406.26050420167974L750,409.38025210083936C570,409.38025210083936 570,523.1722689075629 390,523.1722689075629Z" style="stroke: rgb(68, 68, 68); stroke-opacity: 1; fill: rgb(255, 151, 255); fill-opacity: 0.6; stroke-width: 0; opacity: 1;"/><path class="sankey-link" d="M390,537.7310924369746C570,537.7310924369746 570,700.2415966386554 750,700.2415966386554L750,702.3214285714284C570,702.3214285714284 570,539.8109243697476 390,539.8109243697476Z" style="stroke: rgb(68, 68, 68); stroke-opacity: 1; fill: rgb(255, 151, 255); fill-opacity: 0.6; stroke-width: 0; opacity: 1;"/><path class="sankey-link" d="M390,506.533613445378C570,506.533613445378 570,139.758403361344 750,139.758403361344L750,140.79831932773055C570,140.79831932773055 570,507.5735294117645 390,507.5735294117645Z" style="stroke: rgb(68, 68, 68); stroke-opacity: 1; fill: rgb(255, 151, 255); fill-opacity: 0.6; stroke-width: 0; opacity: 1;"/><path class="sankey-link" d="M390,507.5735294117645C570,507.5735294117645 570,245.23109243697422 750,245.23109243697422L750,257.7100840336129C570,257.7100840336129 570,520.0525210084032 390,520.0525210084032Z" style="stroke: rgb(68, 68, 68); stroke-opacity: 1; fill: rgb(255, 151, 255); fill-opacity: 0.6; stroke-width: 0; opacity: 1;"/><path class="sankey-link" d="M390,531.4915966386552C570,531.4915966386552 570,641.5651260504201 750,641.5651260504201L750,647.8046218487393C570,647.8046218487393 570,537.7310924369744 390,537.7310924369744Z" style="stroke: rgb(68, 68, 68); stroke-opacity: 1; fill: rgb(255, 151, 255); fill-opacity: 0.6; stroke-width: 0; opacity: 1;"/><path class="sankey-link" d="M390,528.3718487394956C570,528.3718487394956 570,554.8109243697479 750,554.8109243697479L750,557.9306722689075C570,557.9306722689075 570,531.4915966386552 390,531.4915966386552Z" style="stroke: rgb(68, 68, 68); stroke-opacity: 1; fill: rgb(255, 151, 255); fill-opacity: 0.6; stroke-width: 0; opacity: 1;"/><path class="sankey-link" d="M390,523.1722689075629C570,523.1722689075629 570,487.81512605041985 750,487.81512605041985L750,493.0147058823526C570,493.0147058823526 570,528.3718487394957 390,528.3718487394957Z" style="stroke: rgb(68, 68, 68); stroke-opacity: 1; fill: rgb(255, 151, 255); fill-opacity: 0.6; stroke-width: 0; opacity: 1;"/><path class="sankey-link" d="M390,481.1344537815125C570,481.1344537815125 570,404.1806722689066 750,404.1806722689066L750,406.26050420167974C570,406.26050420167974 570,483.2142857142856 390,483.2142857142856Z" style="stroke: rgb(68, 68, 68); stroke-opacity: 1; fill: rgb(182, 232, 128); fill-opacity: 0.6; stroke-width: 0; opacity: 1;"/><path class="sankey-link" d="M390,480.09453781512593C570,480.09453781512593 570,356.9432773109234 750,356.9432773109234L750,357.9831932773099C570,357.9831932773099 570,481.13445378151243 390,481.13445378151243Z" style="stroke: rgb(68, 68, 68); stroke-opacity: 1; fill: rgb(182, 232, 128); fill-opacity: 0.6; stroke-width: 0; opacity: 1;"/><path class="sankey-link" d="M390,473.8550420168066C570,473.8550420168066 570,238.9915966386549 750,238.9915966386549L750,245.23109243697425C570,245.23109243697425 570,480.09453781512593 390,480.09453781512593Z" style="stroke: rgb(68, 68, 68); stroke-opacity: 1; fill: rgb(182, 232, 128); fill-opacity: 0.6; stroke-width: 0; opacity: 1;"/><path class="sankey-link" d="M390,490.4936974789915C570,490.4936974789915 570,640.5252100840336 750,640.5252100840336L750,641.5651260504202C570,641.5651260504202 570,491.533613445378 390,491.533613445378Z" style="stroke: rgb(68, 68, 68); stroke-opacity: 1; fill: rgb(182, 232, 128); fill-opacity: 0.6; stroke-width: 0; opacity: 1;"/><path class="sankey-link" d="M390,488.4138655462184C570,488.4138655462184 570,552.7310924369748 750,552.7310924369748L750,554.8109243697478C570,554.8109243697478 570,490.4936974789915 390,490.4936974789915Z" style="stroke: rgb(68, 68, 68); stroke-opacity: 1; fill: rgb(182, 232, 128); fill-opacity: 0.6; stroke-width: 0; opacity: 1;"/><path class="sankey-link" d="M390,483.2142857142856C570,483.2142857142856 570,482.61554621848705 750,482.61554621848705L750,487.8151260504198C570,487.8151260504198 570,488.41386554621835 390,488.41386554621835Z" style="stroke: rgb(68, 68, 68); stroke-opacity: 1; fill: rgb(182, 232, 128); fill-opacity: 0.6; stroke-width: 0; opacity: 1;"/><path class="sankey-link" d="M390,555.8508403361343C570,555.8508403361343 570,357.98319327730997 750,357.98319327730997L750,359.02310924369647C570,359.02310924369647 570,556.8907563025209 390,556.8907563025209Z" style="stroke: rgb(68, 68, 68); stroke-opacity: 1; fill: rgb(255, 102, 146); fill-opacity: 0.6; stroke-width: 0; opacity: 1;"/><path class="sankey-link" d="M390,554.8109243697478C570,554.8109243697478 570,257.7100840336129 750,257.7100840336129L750,258.7499999999994C570,258.7499999999994 570,555.8508403361344 390,555.8508403361344Z" style="stroke: rgb(68, 68, 68); stroke-opacity: 1; fill: rgb(255, 102, 146); fill-opacity: 0.6; stroke-width: 0; opacity: 1;"/><path class="sankey-link" d="M390,558.9705882352938C570,558.9705882352938 570,647.8046218487394 750,647.8046218487394L750,648.844537815126C570,648.844537815126 570,560.0105042016804 390,560.0105042016804Z" style="stroke: rgb(68, 68, 68); stroke-opacity: 1; fill: rgb(255, 102, 146); fill-opacity: 0.6; stroke-width: 0; opacity: 1;"/><path class="sankey-link" d="M390,557.9306722689073C570,557.9306722689073 570,557.9306722689075 750,557.9306722689075L750,558.9705882352941C570,558.9705882352941 570,558.9705882352939 390,558.9705882352939Z" style="stroke: rgb(68, 68, 68); stroke-opacity: 1; fill: rgb(255, 102, 146); fill-opacity: 0.6; stroke-width: 0; opacity: 1;"/><path class="sankey-link" d="M390,556.8907563025208C570,556.8907563025208 570,493.01470588235264 750,493.01470588235264L750,494.05462184873915C570,494.05462184873915 570,557.9306722689074 390,557.9306722689074Z" style="stroke: rgb(68, 68, 68); stroke-opacity: 1; fill: rgb(255, 102, 146); fill-opacity: 0.6; stroke-width: 0; opacity: 1;"/><path class="sankey-link" d="M765,379.2226890756293C945,379.2226890756293 945,223.2668067226885 1125,223.2668067226885L1125,224.30672268907506C945,224.30672268907506 945,380.2626050420158 765,380.2626050420158Z" style="stroke: rgb(68, 68, 68); stroke-opacity: 1; fill: rgb(25, 211, 243); fill-opacity: 0.6; stroke-width: 0; opacity: 1;"/><path class="sankey-link" d="M765,119.99999999999943C945,119.99999999999943 945,-5.897504706808832e-13 1125,-5.897504706808832e-13L1125,3.1197478991590746C945,3.1197478991590746 945,123.11974789915911 765,123.11974789915911Z" style="stroke: rgb(68, 68, 68); stroke-opacity: 1; fill: rgb(25, 211, 243); fill-opacity: 0.6; stroke-width: 0; opacity: 1;"/><path class="sankey-link" d="M765,313.2668067226881C945,313.2668067226881 945,292.7836134453776 1125,292.7836134453776L1125,294.86344537815074C945,294.86344537815074 945,315.3466386554612 765,315.3466386554612Z" style="stroke: rgb(68, 68, 68); stroke-opacity: 1; fill: rgb(25, 211, 243); fill-opacity: 0.6; stroke-width: 0; opacity: 1;"/><path class="sankey-link" d="M765,340.3046218487386C945,340.3046218487386 945,334.82142857142804 1125,334.82142857142804L1125,338.9810924369743C945,338.9810924369743 945,344.4642857142848 765,344.4642857142848Z" style="stroke: rgb(68, 68, 68); stroke-opacity: 1; fill: rgb(25, 211, 243); fill-opacity: 0.6; stroke-width: 0; opacity: 1;"/><path class="sankey-link" d="M765,155.7983193277305C945,155.7983193277305 945,50.79831932773055 1125,50.79831932773055L1125,55.99789915966332C945,55.99789915966332 945,160.9978991596633 765,160.9978991596633Z" style="stroke: rgb(68, 68, 68); stroke-opacity: 1; fill: rgb(25, 211, 243); fill-opacity: 0.6; stroke-width: 0; opacity: 1;"/><path class="sankey-link" d="M765,240.03151260504143C945,240.03151260504143 945,150.03151260504143 1125,150.03151260504143L1125,153.1512605042011C945,153.1512605042011 945,243.1512605042011 765,243.1512605042011Z" style="stroke: rgb(68, 68, 68); stroke-opacity: 1; fill: rgb(25, 211, 243); fill-opacity: 0.6; stroke-width: 0; opacity: 1;"/><path class="sankey-link" d="M765,641.5651260504198C945,641.5651260504198 945,626.5651260504198 1125,626.5651260504198L1125,630.7247899159661C945,630.7247899159661 945,645.7247899159661 765,645.7247899159661Z" style="stroke: rgb(68, 68, 68); stroke-opacity: 1; fill: rgb(25, 211, 243); fill-opacity: 0.6; stroke-width: 0; opacity: 1;"/><path class="sankey-link" d="M765,596.8487394957982C945,596.8487394957982 945,566.8487394957979 1125,566.8487394957979L1125,568.9285714285709C945,568.9285714285709 945,598.9285714285712 765,598.9285714285712Z" style="stroke: rgb(68, 68, 68); stroke-opacity: 1; fill: rgb(25, 211, 243); fill-opacity: 0.6; stroke-width: 0; opacity: 1;"/><path class="sankey-link" d="M765,514.2542016806722C945,514.2542016806722 945,373.73949579831884 1125,373.73949579831884L1125,376.85924369747846C945,376.85924369747846 945,517.3739495798318 765,517.3739495798318Z" style="stroke: rgb(68, 68, 68); stroke-opacity: 1; fill: rgb(25, 211, 243); fill-opacity: 0.6; stroke-width: 0; opacity: 1;"/><path class="sankey-link" d="M765,554.8109243697477C945,554.8109243697477 945,429.29621848739447 1125,429.29621848739447L1125,430.33613445378097C945,430.33613445378097 945,555.8508403361343 765,555.8508403361343Z" style="stroke: rgb(68, 68, 68); stroke-opacity: 1; fill: rgb(25, 211, 243); fill-opacity: 0.6; stroke-width: 0; opacity: 1;"/><path class="sankey-link" d="M765,433.739495798319C945,433.739495798319 945,471.33403361344494 1125,471.33403361344494L1125,473.41386554621806C945,473.41386554621806 945,435.81932773109213 765,435.81932773109213Z" style="stroke: rgb(68, 68, 68); stroke-opacity: 1; fill: rgb(25, 211, 243); fill-opacity: 0.6; stroke-width: 0; opacity: 1;"/><path class="sankey-link" d="M765,465.9768907563023C945,465.9768907563023 945,518.5714285714282 1125,518.5714285714282L1125,522.7310924369744C945,522.7310924369744 945,470.1365546218485 765,470.1365546218485Z" style="stroke: rgb(68, 68, 68); stroke-opacity: 1; fill: rgb(25, 211, 243); fill-opacity: 0.6; stroke-width: 0; opacity: 1;"/><path class="sankey-link" d="M765,401.06092436974706C945,401.06092436974706 945,260.1050420168062 1125,260.1050420168062L1125,265.3046218487389C945,265.3046218487389 945,406.2605042016798 765,406.2605042016798Z" style="stroke: rgb(68, 68, 68); stroke-opacity: 1; fill: rgb(0, 204, 150); fill-opacity: 0.6; stroke-width: 0; opacity: 1;"/><path class="sankey-link" d="M765,380.2626050420159C945,380.2626050420159 945,224.30672268907506 1125,224.30672268907506L1125,227.42647058823474C945,227.42647058823474 945,383.3823529411755 765,383.3823529411755Z" style="stroke: rgb(68, 68, 68); stroke-opacity: 1; fill: rgb(0, 204, 150); fill-opacity: 0.6; stroke-width: 0; opacity: 1;"/><path class="sankey-link" d="M765,694.0021008403362C945,694.0021008403362 945,679.002100840336 1125,679.002100840336L1125,681.081932773109C945,681.081932773109 945,696.0819327731092 765,696.0819327731092Z" style="stroke: rgb(68, 68, 68); stroke-opacity: 1; fill: rgb(0, 204, 150); fill-opacity: 0.6; stroke-width: 0; opacity: 1;"/><path class="sankey-link" d="M765,709.6008403361343C945,709.6008403361343 945,709.6008403361343 1125,709.6008403361343L1125,711.6806722689073C945,711.6806722689073 945,711.6806722689073 765,711.6806722689073Z" style="stroke: rgb(68, 68, 68); stroke-opacity: 1; fill: rgb(0, 204, 150); fill-opacity: 0.6; stroke-width: 0; opacity: 1;"/><path class="sankey-link" d="M765,135.59873949579773C945,135.59873949579773 945,30.598739495797737 1125,30.598739495797737L1125,31.63865546218429C945,31.63865546218429 945,136.6386554621843 765,136.6386554621843Z" style="stroke: rgb(68, 68, 68); stroke-opacity: 1; fill: rgb(0, 204, 150); fill-opacity: 0.6; stroke-width: 0; opacity: 1;"/><path class="sankey-link" d="M765,123.1197478991591C945,123.1197478991591 945,3.1197478991590746 1125,3.1197478991590746L1125,5.1995798319321835C945,5.1995798319321835 945,125.19957983193221 765,125.19957983193221Z" style="stroke: rgb(68, 68, 68); stroke-opacity: 1; fill: rgb(0, 204, 150); fill-opacity: 0.6; stroke-width: 0; opacity: 1;"/><path class="sankey-link" d="M765,315.3466386554612C945,315.3466386554612 945,294.86344537815074 1125,294.86344537815074L1125,300.0630252100835C945,300.0630252100835 945,320.54621848739396 765,320.54621848739396Z" style="stroke: rgb(68, 68, 68); stroke-opacity: 1; fill: rgb(0, 204, 150); fill-opacity: 0.6; stroke-width: 0; opacity: 1;"/><path class="sankey-link" d="M765,344.4642857142848C945,344.4642857142848 945,338.9810924369743 1125,338.9810924369743L1125,344.180672268907C945,344.180672268907 945,349.66386554621755 765,349.66386554621755Z" style="stroke: rgb(68, 68, 68); stroke-opacity: 1; fill: rgb(0, 204, 150); fill-opacity: 0.6; stroke-width: 0; opacity: 1;"/><path class="sankey-link" d="M765,160.99789915966326C945,160.99789915966326 945,55.997899159663326 1125,55.997899159663326L1125,69.51680672268854C945,69.51680672268854 945,174.51680672268847 765,174.51680672268847Z" style="stroke: rgb(68, 68, 68); stroke-opacity: 1; fill: rgb(0, 204, 150); fill-opacity: 0.6; stroke-width: 0; opacity: 1;"/><path class="sankey-link" d="M765,243.1512605042011C945,243.1512605042011 945,153.1512605042011 1125,153.1512605042011L1125,159.39075630252046C945,159.39075630252046 945,249.39075630252046 765,249.39075630252046Z" style="stroke: rgb(68, 68, 68); stroke-opacity: 1; fill: rgb(0, 204, 150); fill-opacity: 0.6; stroke-width: 0; opacity: 1;"/><path class="sankey-link" d="M765,645.7247899159661C945,645.7247899159661 945,630.7247899159661 1125,630.7247899159661L1125,634.8844537815123C945,634.8844537815123 945,649.8844537815123 765,649.8844537815123Z" style="stroke: rgb(68, 68, 68); stroke-opacity: 1; fill: rgb(0, 204, 150); fill-opacity: 0.6; stroke-width: 0; opacity: 1;"/><path class="sankey-link" d="M765,598.9285714285713C945,598.9285714285713 945,568.928571428571 1125,568.928571428571L1125,573.0882352941172C945,573.0882352941172 945,603.0882352941176 765,603.0882352941176Z" style="stroke: rgb(68, 68, 68); stroke-opacity: 1; fill: rgb(0, 204, 150); fill-opacity: 0.6; stroke-width: 0; opacity: 1;"/><path class="sankey-link" d="M765,517.3739495798318C945,517.3739495798318 945,376.8592436974785 1125,376.8592436974785L1125,385.178571428571C945,385.178571428571 945,525.6932773109243 765,525.6932773109243Z" style="stroke: rgb(68, 68, 68); stroke-opacity: 1; fill: rgb(0, 204, 150); fill-opacity: 0.6; stroke-width: 0; opacity: 1;"/><path class="sankey-link" d="M765,555.8508403361342C945,555.8508403361342 945,430.336134453781 1125,430.336134453781L1125,434.49579831932726C945,434.49579831932726 945,560.0105042016804 765,560.0105042016804Z" style="stroke: rgb(68, 68, 68); stroke-opacity: 1; fill: rgb(0, 204, 150); fill-opacity: 0.6; stroke-width: 0; opacity: 1;"/><path class="sankey-link" d="M765,435.81932773109213C945,435.81932773109213 945,473.41386554621806 1125,473.41386554621806L1125,479.6533613445374C945,479.6533613445374 945,442.0588235294115 765,442.0588235294115Z" style="stroke: rgb(68, 68, 68); stroke-opacity: 1; fill: rgb(0, 204, 150); fill-opacity: 0.6; stroke-width: 0; opacity: 1;"/><path class="sankey-link" d="M765,470.1365546218485C945,470.1365546218485 945,522.7310924369744 1125,522.7310924369744L1125,526.8907563025207C945,526.8907563025207 945,474.29621848739475 765,474.29621848739475Z" style="stroke: rgb(68, 68, 68); stroke-opacity: 1; fill: rgb(0, 204, 150); fill-opacity: 0.6; stroke-width: 0; opacity: 1;"/><path class="sankey-link" d="M765,406.26050420167985C945,406.26050420167985 945,265.304621848739 1125,265.304621848739L1125,267.3844537815121C945,267.3844537815121 945,408.34033613445297 765,408.34033613445297Z" style="stroke: rgb(68, 68, 68); stroke-opacity: 1; fill: rgb(239, 85, 59); fill-opacity: 0.6; stroke-width: 0; opacity: 1;"/><path class="sankey-link" d="M765,383.38235294117555C945,383.38235294117555 945,227.42647058823474 1125,227.42647058823474L1125,230.5462184873944C945,230.5462184873944 945,386.5021008403352 765,386.5021008403352Z" style="stroke: rgb(68, 68, 68); stroke-opacity: 1; fill: rgb(239, 85, 59); fill-opacity: 0.6; stroke-width: 0; opacity: 1;"/><path class="sankey-link" d="M765,696.0819327731093C945,696.0819327731093 945,681.0819327731091 1125,681.0819327731091L1125,682.1218487394957C945,682.1218487394957 945,697.1218487394959 765,697.1218487394959Z" style="stroke: rgb(68, 68, 68); stroke-opacity: 1; fill: rgb(239, 85, 59); fill-opacity: 0.6; stroke-width: 0; opacity: 1;"/><path class="sankey-link" d="M765,136.6386554621843C945,136.6386554621843 945,31.638655462184293 1125,31.638655462184293L1125,33.7184873949574C945,33.7184873949574 945,138.7184873949574 765,138.7184873949574Z" style="stroke: rgb(68, 68, 68); stroke-opacity: 1; fill: rgb(239, 85, 59); fill-opacity: 0.6; stroke-width: 0; opacity: 1;"/><path class="sankey-link" d="M765,125.1995798319322C945,125.1995798319322 945,5.1995798319321835 1125,5.1995798319321835L1125,9.359243697478401C945,9.359243697478401 945,129.3592436974784 765,129.3592436974784Z" style="stroke: rgb(68, 68, 68); stroke-opacity: 1; fill: rgb(239, 85, 59); fill-opacity: 0.6; stroke-width: 0; opacity: 1;"/><path class="sankey-link" d="M765,320.546218487394C945,320.546218487394 945,300.06302521008354 1125,300.06302521008354L1125,307.3424369747894C945,307.3424369747894 945,327.82563025209987 765,327.82563025209987Z" style="stroke: rgb(68, 68, 68); stroke-opacity: 1; fill: rgb(239, 85, 59); fill-opacity: 0.6; stroke-width: 0; opacity: 1;"/><path class="sankey-link" d="M765,349.6638655462176C945,349.6638655462176 945,344.1806722689071 1125,344.1806722689071L1125,349.3802521008398C945,349.3802521008398 945,354.86344537815035 765,354.86344537815035Z" style="stroke: rgb(68, 68, 68); stroke-opacity: 1; fill: rgb(239, 85, 59); fill-opacity: 0.6; stroke-width: 0; opacity: 1;"/><path class="sankey-link" d="M765,174.51680672268847C945,174.51680672268847 945,69.51680672268854 1125,69.51680672268854L1125,80.95588235294063C945,80.95588235294063 945,185.95588235294056 765,185.95588235294056Z" style="stroke: rgb(68, 68, 68); stroke-opacity: 1; fill: rgb(239, 85, 59); fill-opacity: 0.6; stroke-width: 0; opacity: 1;"/><path class="sankey-link" d="M765,249.39075630252043C945,249.39075630252043 945,159.39075630252043 1125,159.39075630252043L1125,167.71008403361284C945,167.71008403361284 945,257.7100840336129 765,257.7100840336129Z" style="stroke: rgb(68, 68, 68); stroke-opacity: 1; fill: rgb(239, 85, 59); fill-opacity: 0.6; stroke-width: 0; opacity: 1;"/><path class="sankey-link" d="M765,649.8844537815123C945,649.8844537815123 945,634.8844537815123 1125,634.8844537815123L1125,639.0441176470586C945,639.0441176470586 945,654.0441176470586 765,654.0441176470586Z" style="stroke: rgb(68, 68, 68); stroke-opacity: 1; fill: rgb(239, 85, 59); fill-opacity: 0.6; stroke-width: 0; opacity: 1;"/><path class="sankey-link" d="M765,603.0882352941176C945,603.0882352941176 945,573.0882352941172 1125,573.0882352941172L1125,578.2878151260501C945,578.2878151260501 945,608.2878151260504 765,608.2878151260504Z" style="stroke: rgb(68, 68, 68); stroke-opacity: 1; fill: rgb(239, 85, 59); fill-opacity: 0.6; stroke-width: 0; opacity: 1;"/><path class="sankey-link" d="M765,525.6932773109243C945,525.6932773109243 945,385.17857142857093 1125,385.17857142857093L1125,391.4180672268903C945,391.4180672268903 945,531.9327731092435 765,531.9327731092435Z" style="stroke: rgb(68, 68, 68); stroke-opacity: 1; fill: rgb(239, 85, 59); fill-opacity: 0.6; stroke-width: 0; opacity: 1;"/><path class="sankey-link" d="M765,560.0105042016804C945,560.0105042016804 945,434.49579831932726 1125,434.49579831932726L1125,437.6155462184869C945,437.6155462184869 945,563.13025210084 765,563.13025210084Z" style="stroke: rgb(68, 68, 68); stroke-opacity: 1; fill: rgb(239, 85, 59); fill-opacity: 0.6; stroke-width: 0; opacity: 1;"/><path class="sankey-link" d="M765,442.0588235294115C945,442.0588235294115 945,479.6533613445374 1125,479.6533613445374L1125,485.89285714285677C945,485.89285714285677 945,448.29831932773084 765,448.29831932773084Z" style="stroke: rgb(68, 68, 68); stroke-opacity: 1; fill: rgb(239, 85, 59); fill-opacity: 0.6; stroke-width: 0; opacity: 1;"/><path class="sankey-link" d="M765,474.29621848739475C945,474.29621848739475 945,526.8907563025207 1125,526.8907563025207L1125,531.0504201680669C945,531.0504201680669 945,478.455882352941 765,478.455882352941Z" style="stroke: rgb(68, 68, 68); stroke-opacity: 1; fill: rgb(239, 85, 59); fill-opacity: 0.6; stroke-width: 0; opacity: 1;"/><path class="sankey-link" d="M765,408.34033613445297C945,408.34033613445297 945,267.3844537815121 1125,267.3844537815121L1125,268.4243697478986C945,268.4243697478986 945,409.38025210083947 765,409.38025210083947Z" style="stroke: rgb(68, 68, 68); stroke-opacity: 1; fill: rgb(254, 203, 82); fill-opacity: 0.6; stroke-width: 0; opacity: 1;"/><path class="sankey-link" d="M765,386.50210084033523C945,386.50210084033523 945,230.5462184873944 1125,230.5462184873944L1125,231.58613445378097C945,231.58613445378097 945,387.54201680672173 765,387.54201680672173Z" style="stroke: rgb(68, 68, 68); stroke-opacity: 1; fill: rgb(254, 203, 82); fill-opacity: 0.6; stroke-width: 0; opacity: 1;"/><path class="sankey-link" d="M765,697.1218487394958C945,697.1218487394958 945,682.1218487394956 1125,682.1218487394956L1125,685.2415966386552C945,685.2415966386552 945,700.2415966386554 765,700.2415966386554Z" style="stroke: rgb(68, 68, 68); stroke-opacity: 1; fill: rgb(254, 203, 82); fill-opacity: 0.6; stroke-width: 0; opacity: 1;"/><path class="sankey-link" d="M765,711.6806722689074C945,711.6806722689074 945,711.6806722689074 1125,711.6806722689074L1125,712.720588235294C945,712.720588235294 945,712.720588235294 765,712.720588235294Z" style="stroke: rgb(68, 68, 68); stroke-opacity: 1; fill: rgb(254, 203, 82); fill-opacity: 0.6; stroke-width: 0; opacity: 1;"/><path class="sankey-link" d="M765,185.95588235294056C945,185.95588235294056 945,80.95588235294065 1125,80.95588235294065L1125,83.03571428571377C945,83.03571428571377 945,188.03571428571368 765,188.03571428571368Z" style="stroke: rgb(68, 68, 68); stroke-opacity: 1; fill: rgb(254, 203, 82); fill-opacity: 0.6; stroke-width: 0; opacity: 1;"/><path class="sankey-link" d="M765,257.7100840336129C945,257.7100840336129 945,167.71008403361287 1125,167.71008403361287L1125,169.789915966386C945,169.789915966386 945,259.789915966386 765,259.789915966386Z" style="stroke: rgb(68, 68, 68); stroke-opacity: 1; fill: rgb(254, 203, 82); fill-opacity: 0.6; stroke-width: 0; opacity: 1;"/><path class="sankey-link" d="M765,608.2878151260503C945,608.2878151260503 945,578.28781512605 1125,578.28781512605L1125,581.4075630252096C945,581.4075630252096 945,611.4075630252099 765,611.4075630252099Z" style="stroke: rgb(68, 68, 68); stroke-opacity: 1; fill: rgb(254, 203, 82); fill-opacity: 0.6; stroke-width: 0; opacity: 1;"/><path class="sankey-link" d="M765,531.9327731092436C945,531.9327731092436 945,391.4180672268903 1125,391.4180672268903L1125,393.4978991596634C945,393.4978991596634 945,534.0126050420166 765,534.0126050420166Z" style="stroke: rgb(68, 68, 68); stroke-opacity: 1; fill: rgb(254, 203, 82); fill-opacity: 0.6; stroke-width: 0; opacity: 1;"/><path class="sankey-link" d="M765,563.13025210084C945,563.13025210084 945,437.61554621848694 1125,437.61554621848694L1125,438.65546218487344C945,438.65546218487344 945,564.1701680672267 765,564.1701680672267Z" style="stroke: rgb(68, 68, 68); stroke-opacity: 1; fill: rgb(254, 203, 82); fill-opacity: 0.6; stroke-width: 0; opacity: 1;"/><path class="sankey-link" d="M765,387.5420168067218C945,387.5420168067218 945,231.58613445378097 1125,231.58613445378097L1125,234.70588235294065C945,234.70588235294065 945,390.6617647058814 765,390.6617647058814Z" style="stroke: rgb(68, 68, 68); stroke-opacity: 1; fill: rgb(255, 161, 90); fill-opacity: 0.6; stroke-width: 0; opacity: 1;"/><path class="sankey-link" d="M765,138.7184873949574C945,138.7184873949574 945,33.7184873949574 1125,33.7184873949574L1125,34.75840336134396C945,34.75840336134396 945,139.75840336134397 765,139.75840336134397Z" style="stroke: rgb(68, 68, 68); stroke-opacity: 1; fill: rgb(255, 161, 90); fill-opacity: 0.6; stroke-width: 0; opacity: 1;"/><path class="sankey-link" d="M765,129.3592436974784C945,129.3592436974784 945,9.359243697478401 1125,9.359243697478401L1125,10.399159663864957C945,10.399159663864957 945,130.39915966386496 765,130.39915966386496Z" style="stroke: rgb(68, 68, 68); stroke-opacity: 1; fill: rgb(255, 161, 90); fill-opacity: 0.6; stroke-width: 0; opacity: 1;"/><path class="sankey-link" d="M765,327.82563025209987C945,327.82563025209987 945,307.3424369747894 1125,307.3424369747894L1125,311.50210084033563C945,311.50210084033563 945,331.9852941176461 765,331.9852941176461Z" style="stroke: rgb(68, 68, 68); stroke-opacity: 1; fill: rgb(255, 161, 90); fill-opacity: 0.6; stroke-width: 0; opacity: 1;"/><path class="sankey-link" d="M765,354.8634453781504C945,354.8634453781504 945,349.38025210083987 1125,349.38025210083987L1125,351.460084033613C945,351.460084033613 945,356.9432773109235 765,356.9432773109235Z" style="stroke: rgb(68, 68, 68); stroke-opacity: 1; fill: rgb(255, 161, 90); fill-opacity: 0.6; stroke-width: 0; opacity: 1;"/><path class="sankey-link" d="M765,188.03571428571368C945,188.03571428571368 945,83.03571428571375 1125,83.03571428571375L1125,86.15546218487343C945,86.15546218487343 945,191.15546218487336 765,191.15546218487336Z" style="stroke: rgb(68, 68, 68); stroke-opacity: 1; fill: rgb(255, 161, 90); fill-opacity: 0.6; stroke-width: 0; opacity: 1;"/><path class="sankey-link" d="M765,259.789915966386C945,259.789915966386 945,169.789915966386 1125,169.789915966386L1125,177.06932773109185C945,177.06932773109185 945,267.06932773109185 765,267.06932773109185Z" style="stroke: rgb(68, 68, 68); stroke-opacity: 1; fill: rgb(255, 161, 90); fill-opacity: 0.6; stroke-width: 0; opacity: 1;"/><path class="sankey-link" d="M765,654.0441176470586C945,654.0441176470586 945,639.0441176470586 1125,639.0441176470586L1125,643.2037815126048C945,643.2037815126048 945,658.2037815126048 765,658.2037815126048Z" style="stroke: rgb(68, 68, 68); stroke-opacity: 1; fill: rgb(255, 161, 90); fill-opacity: 0.6; stroke-width: 0; opacity: 1;"/><path class="sankey-link" d="M765,611.4075630252099C945,611.4075630252099 945,581.4075630252096 1125,581.4075630252096L1125,584.5273109243692C945,584.5273109243692 945,614.5273109243695 765,614.5273109243695Z" style="stroke: rgb(68, 68, 68); stroke-opacity: 1; fill: rgb(255, 161, 90); fill-opacity: 0.6; stroke-width: 0; opacity: 1;"/><path class="sankey-link" d="M765,534.0126050420167C945,534.0126050420167 945,393.4978991596634 1125,393.4978991596634L1125,395.5777310924365C945,395.5777310924365 945,536.0924369747897 765,536.0924369747897Z" style="stroke: rgb(68, 68, 68); stroke-opacity: 1; fill: rgb(255, 161, 90); fill-opacity: 0.6; stroke-width: 0; opacity: 1;"/><path class="sankey-link" d="M765,564.1701680672265C945,564.1701680672265 945,438.6554621848735 1125,438.6554621848735L1125,440.7352941176466C945,440.7352941176466 945,566.2499999999995 765,566.2499999999995Z" style="stroke: rgb(68, 68, 68); stroke-opacity: 1; fill: rgb(255, 161, 90); fill-opacity: 0.6; stroke-width: 0; opacity: 1;"/><path class="sankey-link" d="M765,448.29831932773084C945,448.29831932773084 945,485.89285714285677 1125,485.89285714285677L1125,489.0126050420164C945,489.0126050420164 945,451.41806722689046 765,451.41806722689046Z" style="stroke: rgb(68, 68, 68); stroke-opacity: 1; fill: rgb(255, 161, 90); fill-opacity: 0.6; stroke-width: 0; opacity: 1;"/><path class="sankey-link" d="M765,478.455882352941C945,478.455882352941 945,531.0504201680669 1125,531.0504201680669L1125,535.2100840336132C945,535.2100840336132 945,482.6155462184872 765,482.6155462184872Z" style="stroke: rgb(68, 68, 68); stroke-opacity: 1; fill: rgb(255, 161, 90); fill-opacity: 0.6; stroke-width: 0; opacity: 1;"/><path class="sankey-link" d="M765,409.3802521008395C945,409.3802521008395 945,268.42436974789865 1125,268.42436974789865L1125,270.50420168067177C945,270.50420168067177 945,411.46008403361265 765,411.46008403361265Z" style="stroke: rgb(68, 68, 68); stroke-opacity: 1; fill: rgb(171, 99, 250); fill-opacity: 0.6; stroke-width: 0; opacity: 1;"/><path class="sankey-link" d="M765,390.66176470588147C945,390.66176470588147 945,234.70588235294065 1125,234.70588235294065L1125,239.90546218487344C945,239.90546218487344 945,395.8613445378142 765,395.8613445378142Z" style="stroke: rgb(68, 68, 68); stroke-opacity: 1; fill: rgb(171, 99, 250); fill-opacity: 0.6; stroke-width: 0; opacity: 1;"/><path class="sankey-link" d="M765,700.2415966386554C945,700.2415966386554 945,685.2415966386552 1125,685.2415966386552L1125,686.2815126050418C945,686.2815126050418 945,701.281512605042 765,701.281512605042Z" style="stroke: rgb(68, 68, 68); stroke-opacity: 1; fill: rgb(171, 99, 250); fill-opacity: 0.6; stroke-width: 0; opacity: 1;"/><path class="sankey-link" d="M765,130.39915966386496C945,130.39915966386496 945,10.399159663864957 1125,10.399159663864957L1125,15.59873949579773C945,15.59873949579773 945,135.59873949579776 765,135.59873949579776Z" style="stroke: rgb(68, 68, 68); stroke-opacity: 1; fill: rgb(171, 99, 250); fill-opacity: 0.6; stroke-width: 0; opacity: 1;"/><path class="sankey-link" d="M765,331.9852941176461C945,331.9852941176461 945,311.50210084033563 1125,311.50210084033563L1125,316.70168067226837C945,316.70168067226837 945,337.18487394957884 765,337.18487394957884Z" style="stroke: rgb(68, 68, 68); stroke-opacity: 1; fill: rgb(171, 99, 250); fill-opacity: 0.6; stroke-width: 0; opacity: 1;"/><path class="sankey-link" d="M765,356.9432773109235C945,356.9432773109235 945,351.460084033613 1125,351.460084033613L1125,354.5798319327726C945,354.5798319327726 945,360.06302521008314 765,360.06302521008314Z" style="stroke: rgb(68, 68, 68); stroke-opacity: 1; fill: rgb(171, 99, 250); fill-opacity: 0.6; stroke-width: 0; opacity: 1;"/><path class="sankey-link" d="M765,191.15546218487336C945,191.15546218487336 945,86.15546218487341 1125,86.15546218487341L1125,100.71428571428518C945,100.71428571428518 945,205.71428571428513 765,205.71428571428513Z" style="stroke: rgb(68, 68, 68); stroke-opacity: 1; fill: rgb(171, 99, 250); fill-opacity: 0.6; stroke-width: 0; opacity: 1;"/><path class="sankey-link" d="M765,267.06932773109185C945,267.06932773109185 945,177.06932773109187 1125,177.06932773109187L1125,187.4684873949574C945,187.4684873949574 945,277.46848739495744 765,277.46848739495744Z" style="stroke: rgb(68, 68, 68); stroke-opacity: 1; fill: rgb(171, 99, 250); fill-opacity: 0.6; stroke-width: 0; opacity: 1;"/><path class="sankey-link" d="M765,658.2037815126048C945,658.2037815126048 945,643.2037815126048 1125,643.2037815126048L1125,648.4033613445376C945,648.4033613445376 945,663.4033613445376 765,663.4033613445376Z" style="stroke: rgb(68, 68, 68); stroke-opacity: 1; fill: rgb(171, 99, 250); fill-opacity: 0.6; stroke-width: 0; opacity: 1;"/><path class="sankey-link" d="M765,614.5273109243695C945,614.5273109243695 945,584.5273109243692 1125,584.5273109243692L1125,591.8067226890751C945,591.8067226890751 945,621.8067226890754 765,621.8067226890754Z" style="stroke: rgb(68, 68, 68); stroke-opacity: 1; fill: rgb(171, 99, 250); fill-opacity: 0.6; stroke-width: 0; opacity: 1;"/><path class="sankey-link" d="M765,536.0924369747898C945,536.0924369747898 945,395.5777310924365 1125,395.5777310924365L1125,400.77731092436926C945,400.77731092436926 945,541.2920168067227 765,541.2920168067227Z" style="stroke: rgb(68, 68, 68); stroke-opacity: 1; fill: rgb(171, 99, 250); fill-opacity: 0.6; stroke-width: 0; opacity: 1;"/><path class="sankey-link" d="M765,566.2499999999997C945,566.2499999999997 945,440.7352941176466 1125,440.7352941176466L1125,443.85504201680624C945,443.85504201680624 945,569.3697478991593 765,569.3697478991593Z" style="stroke: rgb(68, 68, 68); stroke-opacity: 1; fill: rgb(171, 99, 250); fill-opacity: 0.6; stroke-width: 0; opacity: 1;"/><path class="sankey-link" d="M765,451.4180672268905C945,451.4180672268905 945,489.01260504201645 1125,489.01260504201645L1125,496.2920168067223C945,496.2920168067223 945,458.69747899159637 765,458.69747899159637Z" style="stroke: rgb(68, 68, 68); stroke-opacity: 1; fill: rgb(171, 99, 250); fill-opacity: 0.6; stroke-width: 0; opacity: 1;"/><path class="sankey-link" d="M765,482.6155462184872C945,482.6155462184872 945,535.2100840336132 1125,535.2100840336132L1125,542.489495798319C945,542.489495798319 945,489.8949579831931 765,489.8949579831931Z" style="stroke: rgb(68, 68, 68); stroke-opacity: 1; fill: rgb(171, 99, 250); fill-opacity: 0.6; stroke-width: 0; opacity: 1;"/><path class="sankey-link" d="M765,411.46008403361265C945,411.46008403361265 945,270.50420168067177 1125,270.50420168067177L1125,274.663865546218C945,274.663865546218 945,415.6197478991589 765,415.6197478991589Z" style="stroke: rgb(68, 68, 68); stroke-opacity: 1; fill: rgb(99, 110, 250); fill-opacity: 0.6; stroke-width: 0; opacity: 1;"/><path class="sankey-link" d="M765,395.86134453781426C945,395.86134453781426 945,239.90546218487341 1125,239.90546218487341L1125,243.0252100840331C945,243.0252100840331 945,398.9810924369739 765,398.9810924369739Z" style="stroke: rgb(68, 68, 68); stroke-opacity: 1; fill: rgb(99, 110, 250); fill-opacity: 0.6; stroke-width: 0; opacity: 1;"/><path class="sankey-link" d="M765,701.2815126050419C945,701.2815126050419 945,686.2815126050417 1125,686.2815126050417L1125,693.5609243697476C945,693.5609243697476 945,708.5609243697478 765,708.5609243697478Z" style="stroke: rgb(68, 68, 68); stroke-opacity: 1; fill: rgb(99, 110, 250); fill-opacity: 0.6; stroke-width: 0; opacity: 1;"/><path class="sankey-link" d="M765,712.7205882352939C945,712.7205882352939 945,712.7205882352939 1125,712.7205882352939L1125,718.9600840336132C945,718.9600840336132 945,718.9600840336132 765,718.9600840336132Z" style="stroke: rgb(68, 68, 68); stroke-opacity: 1; fill: rgb(99, 110, 250); fill-opacity: 0.6; stroke-width: 0; opacity: 1;"/><path class="sankey-link" d="M765,337.1848739495789C945,337.1848739495789 945,316.7016806722684 1125,316.7016806722684L1125,318.78151260504154C945,318.78151260504154 945,339.264705882352 765,339.264705882352Z" style="stroke: rgb(68, 68, 68); stroke-opacity: 1; fill: rgb(99, 110, 250); fill-opacity: 0.6; stroke-width: 0; opacity: 1;"/><path class="sankey-link" d="M765,360.0630252100832C945,360.0630252100832 945,354.57983193277266 1125,354.57983193277266L1125,357.6995798319323C945,357.6995798319323 945,363.1827731092428 765,363.1827731092428Z" style="stroke: rgb(68, 68, 68); stroke-opacity: 1; fill: rgb(99, 110, 250); fill-opacity: 0.6; stroke-width: 0; opacity: 1;"/><path class="sankey-link" d="M765,205.71428571428513C945,205.71428571428513 945,100.71428571428518 1125,100.71428571428518L1125,122.55252100840283C945,122.55252100840283 945,227.55252100840275 765,227.55252100840275Z" style="stroke: rgb(68, 68, 68); stroke-opacity: 1; fill: rgb(99, 110, 250); fill-opacity: 0.6; stroke-width: 0; opacity: 1;"/><path class="sankey-link" d="M765,277.4684873949574C945,277.4684873949574 945,187.46848739495744 1125,187.46848739495744L1125,200.98739495798264C945,200.98739495798264 945,290.9873949579826 765,290.9873949579826Z" style="stroke: rgb(68, 68, 68); stroke-opacity: 1; fill: rgb(99, 110, 250); fill-opacity: 0.6; stroke-width: 0; opacity: 1;"/><path class="sankey-link" d="M765,663.4033613445375C945,663.4033613445375 945,648.4033613445375 1125,648.4033613445375L1125,660.8823529411762C945,660.8823529411762 945,675.8823529411762 765,675.8823529411762Z" style="stroke: rgb(68, 68, 68); stroke-opacity: 1; fill: rgb(99, 110, 250); fill-opacity: 0.6; stroke-width: 0; opacity: 1;"/><path class="sankey-link" d="M765,621.8067226890754C945,621.8067226890754 945,591.8067226890751 1125,591.8067226890751L1125,606.3655462184868C945,606.3655462184868 945,636.3655462184871 765,636.3655462184871Z" style="stroke: rgb(68, 68, 68); stroke-opacity: 1; fill: rgb(99, 110, 250); fill-opacity: 0.6; stroke-width: 0; opacity: 1;"/><path class="sankey-link" d="M765,541.2920168067226C945,541.2920168067226 945,400.7773109243693 1125,400.7773109243693L1125,410.1365546218483C945,410.1365546218483 945,550.6512605042017 765,550.6512605042017Z" style="stroke: rgb(68, 68, 68); stroke-opacity: 1; fill: rgb(99, 110, 250); fill-opacity: 0.6; stroke-width: 0; opacity: 1;"/><path class="sankey-link" d="M765,569.3697478991593C945,569.3697478991593 945,443.8550420168063 1125,443.8550420168063L1125,454.2542016806719C945,454.2542016806719 945,579.7689075630248 765,579.7689075630248Z" style="stroke: rgb(68, 68, 68); stroke-opacity: 1; fill: rgb(99, 110, 250); fill-opacity: 0.6; stroke-width: 0; opacity: 1;"/><path class="sankey-link" d="M765,458.69747899159637C945,458.69747899159637 945,496.2920168067223 1125,496.2920168067223L1125,499.4117647058819C945,499.4117647058819 945,461.817226890756 765,461.817226890756Z" style="stroke: rgb(68, 68, 68); stroke-opacity: 1; fill: rgb(99, 110, 250); fill-opacity: 0.6; stroke-width: 0; opacity: 1;"/><path class="sankey-link" d="M765,489.8949579831931C945,489.8949579831931 945,542.489495798319 1125,542.489495798319L1125,544.569327731092C945,544.569327731092 945,491.9747899159662 765,491.9747899159662Z" style="stroke: rgb(68, 68, 68); stroke-opacity: 1; fill: rgb(99, 110, 250); fill-opacity: 0.6; stroke-width: 0; opacity: 1;"/><path class="sankey-link" d="M765,415.6197478991589C945,415.6197478991589 945,274.663865546218 1125,274.663865546218L1125,276.7436974789911C945,276.7436974789911 945,417.699579831932 765,417.699579831932Z" style="stroke: rgb(68, 68, 68); stroke-opacity: 1; fill: rgb(255, 151, 255); fill-opacity: 0.6; stroke-width: 0; opacity: 1;"/><path class="sankey-link" d="M765,398.98109243697394C945,398.98109243697394 945,243.0252100840331 1125,243.0252100840331L1125,244.06512605041965C945,244.06512605041965 945,400.02100840336044 765,400.02100840336044Z" style="stroke: rgb(68, 68, 68); stroke-opacity: 1; fill: rgb(255, 151, 255); fill-opacity: 0.6; stroke-width: 0; opacity: 1;"/><path class="sankey-link" d="M765,708.5609243697478C945,708.5609243697478 945,693.5609243697476 1125,693.5609243697476L1125,694.6008403361342C945,694.6008403361342 945,709.6008403361344 765,709.6008403361344Z" style="stroke: rgb(68, 68, 68); stroke-opacity: 1; fill: rgb(255, 151, 255); fill-opacity: 0.6; stroke-width: 0; opacity: 1;"/><path class="sankey-link" d="M765,718.9600840336133C945,718.9600840336133 945,718.9600840336133 1125,718.9600840336133L1125,719.9999999999999C945,719.9999999999999 945,719.9999999999999 765,719.9999999999999Z" style="stroke: rgb(68, 68, 68); stroke-opacity: 1; fill: rgb(255, 151, 255); fill-opacity: 0.6; stroke-width: 0; opacity: 1;"/><path class="sankey-link" d="M765,139.75840336134397C945,139.75840336134397 945,34.75840336134395 1125,34.75840336134395L1125,35.79831932773051C945,35.79831932773051 945,140.79831932773052 765,140.79831932773052Z" style="stroke: rgb(68, 68, 68); stroke-opacity: 1; fill: rgb(255, 151, 255); fill-opacity: 0.6; stroke-width: 0; opacity: 1;"/><path class="sankey-link" d="M765,227.55252100840278C945,227.55252100840278 945,122.55252100840283 1125,122.55252100840283L1125,129.83193277310872C945,129.83193277310872 945,234.83193277310863 765,234.83193277310863Z" style="stroke: rgb(68, 68, 68); stroke-opacity: 1; fill: rgb(255, 151, 255); fill-opacity: 0.6; stroke-width: 0; opacity: 1;"/><path class="sankey-link" d="M765,290.9873949579826C945,290.9873949579826 945,200.98739495798264 1125,200.98739495798264L1125,206.18697478991544C945,206.18697478991544 945,296.1869747899153 765,296.1869747899153Z" style="stroke: rgb(68, 68, 68); stroke-opacity: 1; fill: rgb(255, 151, 255); fill-opacity: 0.6; stroke-width: 0; opacity: 1;"/><path class="sankey-link" d="M765,675.8823529411762C945,675.8823529411762 945,660.8823529411762 1125,660.8823529411762L1125,662.9621848739492C945,662.9621848739492 945,677.9621848739492 765,677.9621848739492Z" style="stroke: rgb(68, 68, 68); stroke-opacity: 1; fill: rgb(255, 151, 255); fill-opacity: 0.6; stroke-width: 0; opacity: 1;"/><path class="sankey-link" d="M765,636.3655462184871C945,636.3655462184871 945,606.3655462184868 1125,606.3655462184868L1125,610.525210084033C945,610.525210084033 945,640.5252100840333 765,640.5252100840333Z" style="stroke: rgb(68, 68, 68); stroke-opacity: 1; fill: rgb(255, 151, 255); fill-opacity: 0.6; stroke-width: 0; opacity: 1;"/><path class="sankey-link" d="M765,550.6512605042016C945,550.6512605042016 945,410.1365546218483 1125,410.1365546218483L1125,413.2563025210079C945,413.2563025210079 945,553.7710084033612 765,553.7710084033612Z" style="stroke: rgb(68, 68, 68); stroke-opacity: 1; fill: rgb(255, 151, 255); fill-opacity: 0.6; stroke-width: 0; opacity: 1;"/><path class="sankey-link" d="M765,491.9747899159662C945,491.9747899159662 945,544.5693277310921 1125,544.5693277310921L1125,549.768907563025C945,549.768907563025 945,497.17436974789894 765,497.17436974789894Z" style="stroke: rgb(68, 68, 68); stroke-opacity: 1; fill: rgb(255, 151, 255); fill-opacity: 0.6; stroke-width: 0; opacity: 1;"/><path class="sankey-link" d="M765,417.699579831932C945,417.699579831932 945,276.7436974789911 1125,276.7436974789911L1125,277.7836134453776C945,277.7836134453776 945,418.7394957983185 765,418.7394957983185Z" style="stroke: rgb(68, 68, 68); stroke-opacity: 1; fill: rgb(182, 232, 128); fill-opacity: 0.6; stroke-width: 0; opacity: 1;"/><path class="sankey-link" d="M765,400.0210084033605C945,400.0210084033605 945,244.06512605041965 1125,244.06512605041965L1125,245.1050420168062C945,245.1050420168062 945,401.060924369747 765,401.060924369747Z" style="stroke: rgb(68, 68, 68); stroke-opacity: 1; fill: rgb(182, 232, 128); fill-opacity: 0.6; stroke-width: 0; opacity: 1;"/><path class="sankey-link" d="M765,363.1827731092429C945,363.1827731092429 945,357.69957983193234 1125,357.69957983193234L1125,358.73949579831884C945,358.73949579831884 945,364.2226890756294 765,364.2226890756294Z" style="stroke: rgb(68, 68, 68); stroke-opacity: 1; fill: rgb(182, 232, 128); fill-opacity: 0.6; stroke-width: 0; opacity: 1;"/><path class="sankey-link" d="M765,234.83193277310866C945,234.83193277310866 945,129.83193277310872 1125,129.83193277310872L1125,133.99159663865495C945,133.99159663865495 945,238.9915966386549 765,238.9915966386549Z" style="stroke: rgb(68, 68, 68); stroke-opacity: 1; fill: rgb(182, 232, 128); fill-opacity: 0.6; stroke-width: 0; opacity: 1;"/><path class="sankey-link" d="M765,296.1869747899154C945,296.1869747899154 945,206.1869747899154 1125,206.1869747899154L1125,208.26680672268853C945,208.26680672268853 945,298.2668067226885 765,298.2668067226885Z" style="stroke: rgb(68, 68, 68); stroke-opacity: 1; fill: rgb(182, 232, 128); fill-opacity: 0.6; stroke-width: 0; opacity: 1;"/><path class="sankey-link" d="M765,677.9621848739494C945,677.9621848739494 945,662.9621848739494 1125,662.9621848739494L1125,664.002100840336C945,664.002100840336 945,679.002100840336 765,679.002100840336Z" style="stroke: rgb(68, 68, 68); stroke-opacity: 1; fill: rgb(182, 232, 128); fill-opacity: 0.6; stroke-width: 0; opacity: 1;"/><path class="sankey-link" d="M765,579.7689075630249C945,579.7689075630249 945,454.2542016806718 1125,454.2542016806718L1125,456.33403361344494C945,456.33403361344494 945,581.8487394957979 765,581.8487394957979Z" style="stroke: rgb(68, 68, 68); stroke-opacity: 1; fill: rgb(182, 232, 128); fill-opacity: 0.6; stroke-width: 0; opacity: 1;"/><path class="sankey-link" d="M765,461.81722689075605C945,461.81722689075605 945,499.411764705882 1125,499.411764705882L1125,502.5315126050416C945,502.5315126050416 945,464.93697478991567 765,464.93697478991567Z" style="stroke: rgb(68, 68, 68); stroke-opacity: 1; fill: rgb(182, 232, 128); fill-opacity: 0.6; stroke-width: 0; opacity: 1;"/><path class="sankey-link" d="M765,497.174369747899C945,497.174369747899 945,549.7689075630249 1125,549.7689075630249L1125,551.8487394957979C945,551.8487394957979 945,499.2542016806721 765,499.2542016806721Z" style="stroke: rgb(68, 68, 68); stroke-opacity: 1; fill: rgb(182, 232, 128); fill-opacity: 0.6; stroke-width: 0; opacity: 1;"/><path class="sankey-link" d="M765,339.264705882352C945,339.264705882352 945,318.78151260504154 1125,318.78151260504154L1125,319.82142857142804C945,319.82142857142804 945,340.3046218487385 765,340.3046218487385Z" style="stroke: rgb(68, 68, 68); stroke-opacity: 1; fill: rgb(255, 102, 146); fill-opacity: 0.6; stroke-width: 0; opacity: 1;"/><path class="sankey-link" d="M765,238.99159663865487C945,238.99159663865487 945,133.99159663865493 1125,133.99159663865493L1125,135.03151260504148C945,135.03151260504148 945,240.03151260504143 765,240.03151260504143Z" style="stroke: rgb(68, 68, 68); stroke-opacity: 1; fill: rgb(255, 102, 146); fill-opacity: 0.6; stroke-width: 0; opacity: 1;"/><path class="sankey-link" d="M765,640.5252100840333C945,640.5252100840333 945,610.525210084033 1125,610.525210084033L1125,611.5651260504196C945,611.5651260504196 945,641.56512605042 765,641.56512605042Z" style="stroke: rgb(68, 68, 68); stroke-opacity: 1; fill: rgb(255, 102, 146); fill-opacity: 0.6; stroke-width: 0; opacity: 1;"/><path class="sankey-link" d="M765,553.7710084033612C945,553.7710084033612 945,413.25630252100797 1125,413.25630252100797L1125,414.29621848739447C945,414.29621848739447 945,554.8109243697478 765,554.8109243697478Z" style="stroke: rgb(68, 68, 68); stroke-opacity: 1; fill: rgb(255, 102, 146); fill-opacity: 0.6; stroke-width: 0; opacity: 1;"/><path class="sankey-link" d="M765,464.9369747899157C945,464.9369747899157 945,502.53151260504166 1125,502.53151260504166L1125,503.57142857142816C945,503.57142857142816 945,465.9768907563022 765,465.9768907563022Z" style="stroke: rgb(68, 68, 68); stroke-opacity: 1; fill: rgb(255, 102, 146); fill-opacity: 0.6; stroke-width: 0; opacity: 1;"/></g><g class="sankey-node-set" style="cursor: move;"><g class="sankey-node" transform="translate(0.000,449.355)" style="opacity: 1;"><rect class="node-rect" width="15" height="39.516806722689125" style="stroke-width: 0.5; stroke: rgb(0, 0, 0); stroke-opacity: 1; fill: rgb(128, 128, 128); fill-opacity: 1;"/><text class="node-label" data-notex="1" x="0" y="0" text-anchor="start" transform="translate(18.25,23.958403361344562)" style="cursor: default; font-family: 'Open Sans', verdana, arial, sans-serif; font-size: 12px; fill: rgb(42, 63, 95); fill-opacity: 1; white-space: pre; text-shadow: white 1px 1px 1px, white -1px -1px 1px, white 1px -1px 1px, white -1px 1px 1px;">21271R</text></g><g class="sankey-node" transform="translate(0.000,273.168)" style="opacity: 1;"><rect class="node-rect" width="15" height="161.18697478991595" style="stroke-width: 0.5; stroke: rgb(0, 0, 0); stroke-opacity: 1; fill: rgb(128, 128, 128); fill-opacity: 1;"/><text class="node-label" data-notex="1" x="0" y="0" text-anchor="start" transform="translate(18.25,84.79348739495798)" style="cursor: default; font-family: 'Open Sans', verdana, arial, sans-serif; font-size: 12px; fill: rgb(42, 63, 95); fill-opacity: 1; white-space: pre; text-shadow: white 1px 1px 1px, white -1px -1px 1px, white 1px -1px 1px, white -1px 1px 1px;">21272R</text></g><g class="sankey-node" transform="translate(0.000,503.872)" style="opacity: 1;"><rect class="node-rect" width="15" height="73.83403361344511" style="stroke-width: 0.5; stroke: rgb(0, 0, 0); stroke-opacity: 1; fill: rgb(128, 128, 128); fill-opacity: 1;"/><text class="node-label" data-notex="1" x="0" y="0" text-anchor="start" transform="translate(18.25,41.11701680672256)" style="cursor: default; font-family: 'Open Sans', verdana, arial, sans-serif; font-size: 12px; fill: rgb(42, 63, 95); fill-opacity: 1; white-space: pre; text-shadow: white 1px 1px 1px, white -1px -1px 1px, white 1px -1px 1px, white -1px 1px 1px;">22384</text></g><g class="sankey-node" transform="translate(0.000,592.706)" style="opacity: 1;"><rect class="node-rect" width="15" height="73.83403361344529" style="stroke-width: 0.5; stroke: rgb(0, 0, 0); stroke-opacity: 1; fill: rgb(128, 128, 128); fill-opacity: 1;"/><text class="node-label" data-notex="1" x="0" y="0" text-anchor="start" transform="translate(18.25,41.117016806722646)" style="cursor: default; font-family: 'Open Sans', verdana, arial, sans-serif; font-size: 12px; fill: rgb(42, 63, 95); fill-opacity: 1; white-space: pre; text-shadow: white 1px 1px 1px, white -1px -1px 1px, white 1px -1px 1px, white -1px 1px 1px;">22670</text></g><g class="sankey-node" transform="translate(750.000,379.223)" style="opacity: 1;"><rect class="node-rect" width="15" height="39.516806722689694" style="stroke-width: 0.5; stroke: rgb(0, 0, 0); stroke-opacity: 1; fill: rgb(128, 128, 128); fill-opacity: 1;"/><text class="node-label" data-notex="1" x="0" y="0" text-anchor="start" transform="translate(18.25,23.958403361344846)" style="cursor: default; font-family: 'Open Sans', verdana, arial, sans-serif; font-size: 12px; fill: rgb(42, 63, 95); fill-opacity: 1; white-space: pre; text-shadow: white 1px 1px 1px, white -1px -1px 1px, white 1px -1px 1px, white -1px 1px 1px;">attacking</text></g><g class="sankey-node" transform="translate(750.000,120.000)" style="opacity: 1;"><rect class="node-rect" width="15" height="20.798319327731065" style="stroke-width: 0.5; stroke: rgb(0, 0, 0); stroke-opacity: 1; fill: rgb(128, 128, 128); fill-opacity: 1;"/><text class="node-label" data-notex="1" x="0" y="0" text-anchor="start" transform="translate(18.25,14.599159663865532)" style="cursor: default; font-family: 'Open Sans', verdana, arial, sans-serif; font-size: 12px; fill: rgb(42, 63, 95); fill-opacity: 1; white-space: pre; text-shadow: white 1px 1px 1px, white -1px -1px 1px, white 1px -1px 1px, white -1px 1px 1px;">dig</text></g><g class="sankey-node" transform="translate(750.000,313.267)" style="opacity: 1;"><rect class="node-rect" width="15" height="50.95588235294122" style="stroke-width: 0.5; stroke: rgb(0, 0, 0); stroke-opacity: 1; fill: rgb(128, 128, 128); fill-opacity: 1;"/><text class="node-label" data-notex="1" x="0" y="0" text-anchor="start" transform="translate(18.25,29.677941176470608)" style="cursor: default; font-family: 'Open Sans', verdana, arial, sans-serif; font-size: 12px; fill: rgb(42, 63, 95); fill-opacity: 1; white-space: pre; text-shadow: white 1px 1px 1px, white -1px -1px 1px, white 1px -1px 1px, white -1px 1px 1px;">groom</text></g><g class="sankey-node" transform="translate(750.000,155.798)" style="opacity: 1;"><rect class="node-rect" width="15" height="142.4684873949576" style="stroke-width: 0.5; stroke: rgb(0, 0, 0); stroke-opacity: 1; fill: rgb(128, 128, 128); fill-opacity: 1;"/><text class="node-label" data-notex="1" x="0" y="0" text-anchor="start" transform="translate(18.25,75.4342436974788)" style="cursor: default; font-family: 'Open Sans', verdana, arial, sans-serif; font-size: 12px; fill: rgb(42, 63, 95); fill-opacity: 1; white-space: pre; text-shadow: white 1px 1px 1px, white -1px -1px 1px, white 1px -1px 1px, white -1px 1px 1px;">move</text></g><g class="sankey-node" transform="translate(750.000,596.849)" style="opacity: 1;"><rect class="node-rect" width="15" height="82.15336134453798" style="stroke-width: 0.5; stroke: rgb(0, 0, 0); stroke-opacity: 1; fill: rgb(128, 128, 128); fill-opacity: 1;"/><text class="node-label" data-notex="1" x="0" y="0" text-anchor="start" transform="translate(18.25,45.276680672268995)" style="cursor: default; font-family: 'Open Sans', verdana, arial, sans-serif; font-size: 12px; fill: rgb(42, 63, 95); fill-opacity: 1; white-space: pre; text-shadow: white 1px 1px 1px, white -1px -1px 1px, white 1px -1px 1px, white -1px 1px 1px;">sniff</text></g><g class="sankey-node" transform="translate(750.000,514.254)" style="opacity: 1;"><rect class="node-rect" width="15" height="67.59453781512605" style="stroke-width: 0.5; stroke: rgb(0, 0, 0); stroke-opacity: 1; fill: rgb(128, 128, 128); fill-opacity: 1;"/><text class="node-label" data-notex="1" x="0" y="0" text-anchor="start" transform="translate(18.25,37.997268907563026)" style="cursor: default; font-family: 'Open Sans', verdana, arial, sans-serif; font-size: 12px; fill: rgb(42, 63, 95); fill-opacity: 1; white-space: pre; text-shadow: white 1px 1px 1px, white -1px -1px 1px, white 1px -1px 1px, white -1px 1px 1px;">social</text></g><g class="sankey-node" transform="translate(750.000,433.739)" style="opacity: 1;"><rect class="node-rect" width="15" height="65.51470588235316" style="stroke-width: 0.5; stroke: rgb(0, 0, 0); stroke-opacity: 1; fill: rgb(128, 128, 128); fill-opacity: 1;"/><text class="node-label" data-notex="1" x="0" y="0" text-anchor="start" transform="translate(18.25,36.95735294117658)" style="cursor: default; font-family: 'Open Sans', verdana, arial, sans-serif; font-size: 12px; fill: rgb(42, 63, 95); fill-opacity: 1; white-space: pre; text-shadow: white 1px 1px 1px, white -1px -1px 1px, white 1px -1px 1px, white -1px 1px 1px;">still</text></g><g class="sankey-node" transform="translate(750.000,694.002)" style="opacity: 1;"><rect class="node-rect" width="15" height="25.997899159663802" style="stroke-width: 0.5; stroke: rgb(0, 0, 0); stroke-opacity: 1; fill: rgb(128, 128, 128); fill-opacity: 1;"/><text class="node-label" data-notex="1" x="0" y="0" text-anchor="start" transform="translate(18.25,17.1989495798319)" style="cursor: default; font-family: 'Open Sans', verdana, arial, sans-serif; font-size: 12px; fill: rgb(42, 63, 95); fill-opacity: 1; white-space: pre; text-shadow: white 1px 1px 1px, white -1px -1px 1px, white 1px -1px 1px, white -1px 1px 1px;">being_attack</text></g><g class="sankey-node" transform="translate(1125.000,223.267)" style="opacity: 1;"><rect class="node-rect" width="15" height="21.83823529411768" style="stroke-width: 0.5; stroke: rgb(0, 0, 0); stroke-opacity: 1; fill: rgb(128, 128, 128); fill-opacity: 1;"/><text class="node-label" data-notex="1" x="0" y="0" text-anchor="end" transform="translate(-3.25,15.11911764705884)" style="cursor: default; font-family: 'Open Sans', verdana, arial, sans-serif; font-size: 12px; fill: rgb(42, 63, 95); fill-opacity: 1; white-space: pre; text-shadow: white 1px 1px 1px, white -1px -1px 1px, white 1px -1px 1px, white -1px 1px 1px;">attacking-suppressed</text></g><g class="sankey-node" transform="translate(1125.000,-0.000)" style="opacity: 1;"><rect class="node-rect" width="15" height="15.598739495798327" style="stroke-width: 0.5; stroke: rgb(0, 0, 0); stroke-opacity: 1; fill: rgb(128, 128, 128); fill-opacity: 1;"/><text class="node-label" data-notex="1" x="0" y="0" text-anchor="end" transform="translate(-3.25,11.999369747899163)" style="cursor: default; font-family: 'Open Sans', verdana, arial, sans-serif; font-size: 12px; fill: rgb(42, 63, 95); fill-opacity: 1; white-space: pre; text-shadow: white 1px 1px 1px, white -1px -1px 1px, white 1px -1px 1px, white -1px 1px 1px;">dig-suppressed</text></g><g class="sankey-node" transform="translate(1125.000,292.784)" style="opacity: 1;"><rect class="node-rect" width="15" height="27.03781512605042" style="stroke-width: 0.5; stroke: rgb(0, 0, 0); stroke-opacity: 1; fill: rgb(128, 128, 128); fill-opacity: 1;"/><text class="node-label" data-notex="1" x="0" y="0" text-anchor="end" transform="translate(-3.25,17.71890756302521)" style="cursor: default; font-family: 'Open Sans', verdana, arial, sans-serif; font-size: 12px; fill: rgb(42, 63, 95); fill-opacity: 1; white-space: pre; text-shadow: white 1px 1px 1px, white -1px -1px 1px, white 1px -1px 1px, white -1px 1px 1px;">groom-activated</text></g><g class="sankey-node" transform="translate(1125.000,150.032)" style="opacity: 1;"><rect class="node-rect" width="15" height="58.23529411764707" style="stroke-width: 0.5; stroke: rgb(0, 0, 0); stroke-opacity: 1; fill: rgb(128, 128, 128); fill-opacity: 1;"/><text class="node-label" data-notex="1" x="0" y="0" text-anchor="end" transform="translate(-3.25,33.31764705882354)" style="cursor: default; font-family: 'Open Sans', verdana, arial, sans-serif; font-size: 12px; fill: rgb(42, 63, 95); fill-opacity: 1; white-space: pre; text-shadow: white 1px 1px 1px, white -1px -1px 1px, white 1px -1px 1px, white -1px 1px 1px;">move-suppressed</text></g><g class="sankey-node" transform="translate(1125.000,429.296)" style="opacity: 1;"><rect class="node-rect" width="15" height="27.03781512605042" style="stroke-width: 0.5; stroke: rgb(0, 0, 0); stroke-opacity: 1; fill: rgb(128, 128, 128); fill-opacity: 1;"/><text class="node-label" data-notex="1" x="0" y="0" text-anchor="end" transform="translate(-3.25,17.71890756302521)" style="cursor: default; font-family: 'Open Sans', verdana, arial, sans-serif; font-size: 12px; fill: rgb(42, 63, 95); fill-opacity: 1; white-space: pre; text-shadow: white 1px 1px 1px, white -1px -1px 1px, white 1px -1px 1px, white -1px 1px 1px;">social-suppressed</text></g><g class="sankey-node" transform="translate(1125.000,471.334)" style="opacity: 1;"><rect class="node-rect" width="15" height="32.23739495798327" style="stroke-width: 0.5; stroke: rgb(0, 0, 0); stroke-opacity: 1; fill: rgb(128, 128, 128); fill-opacity: 1;"/><text class="node-label" data-notex="1" x="0" y="0" text-anchor="end" transform="translate(-3.25,20.318697478991634)" style="cursor: default; font-family: 'Open Sans', verdana, arial, sans-serif; font-size: 12px; fill: rgb(42, 63, 95); fill-opacity: 1; white-space: pre; text-shadow: white 1px 1px 1px, white -1px -1px 1px, white 1px -1px 1px, white -1px 1px 1px;">still-activated</text></g><g class="sankey-node" transform="translate(1125.000,30.599)" style="opacity: 1;"><rect class="node-rect" width="15" height="5.199579831932816" style="stroke-width: 0.5; stroke: rgb(0, 0, 0); stroke-opacity: 1; fill: rgb(128, 128, 128); fill-opacity: 1;"/><text class="node-label" data-notex="1" x="0" y="0" text-anchor="end" transform="translate(-3.25,6.799789915966407)" style="cursor: default; font-family: 'Open Sans', verdana, arial, sans-serif; font-size: 12px; fill: rgb(42, 63, 95); fill-opacity: 1; white-space: pre; text-shadow: white 1px 1px 1px, white -1px -1px 1px, white 1px -1px 1px, white -1px 1px 1px;">dig-activated</text></g><g class="sankey-node" transform="translate(1125.000,50.798)" style="opacity: 1;"><rect class="node-rect" width="15" height="84.23319327731087" style="stroke-width: 0.5; stroke: rgb(0, 0, 0); stroke-opacity: 1; fill: rgb(128, 128, 128); fill-opacity: 1;"/><text class="node-label" data-notex="1" x="0" y="0" text-anchor="end" transform="translate(-3.25,46.31659663865544)" style="cursor: default; font-family: 'Open Sans', verdana, arial, sans-serif; font-size: 12px; fill: rgb(42, 63, 95); fill-opacity: 1; white-space: pre; text-shadow: white 1px 1px 1px, white -1px -1px 1px, white 1px -1px 1px, white -1px 1px 1px;">move-activated</text></g><g class="sankey-node" transform="translate(1125.000,373.739)" style="opacity: 1;"><rect class="node-rect" width="15" height="40.55672268907563" style="stroke-width: 0.5; stroke: rgb(0, 0, 0); stroke-opacity: 1; fill: rgb(128, 128, 128); fill-opacity: 1;"/><text class="node-label" data-notex="1" x="0" y="0" text-anchor="end" transform="translate(-3.25,24.478361344537813)" style="cursor: default; font-family: 'Open Sans', verdana, arial, sans-serif; font-size: 12px; fill: rgb(42, 63, 95); fill-opacity: 1; white-space: pre; text-shadow: white 1px 1px 1px, white -1px -1px 1px, white 1px -1px 1px, white -1px 1px 1px;">social-activated</text></g><g class="sankey-node" transform="translate(1125.000,518.571)" style="opacity: 1;"><rect class="node-rect" width="15" height="33.27731092436966" style="stroke-width: 0.5; stroke: rgb(0, 0, 0); stroke-opacity: 1; fill: rgb(128, 128, 128); fill-opacity: 1;"/><text class="node-label" data-notex="1" x="0" y="0" text-anchor="end" transform="translate(-3.25,20.83865546218483)" style="cursor: default; font-family: 'Open Sans', verdana, arial, sans-serif; font-size: 12px; fill: rgb(42, 63, 95); fill-opacity: 1; white-space: pre; text-shadow: white 1px 1px 1px, white -1px -1px 1px, white 1px -1px 1px, white -1px 1px 1px;">still-suppressed</text></g><g class="sankey-node" transform="translate(1125.000,334.821)" style="opacity: 1;"><rect class="node-rect" width="15" height="23.9180672268908" style="stroke-width: 0.5; stroke: rgb(0, 0, 0); stroke-opacity: 1; fill: rgb(128, 128, 128); fill-opacity: 1;"/><text class="node-label" data-notex="1" x="0" y="0" text-anchor="end" transform="translate(-3.25,16.1590336134454)" style="cursor: default; font-family: 'Open Sans', verdana, arial, sans-serif; font-size: 12px; fill: rgb(42, 63, 95); fill-opacity: 1; white-space: pre; text-shadow: white 1px 1px 1px, white -1px -1px 1px, white 1px -1px 1px, white -1px 1px 1px;">groom-suppressed</text></g><g class="sankey-node" transform="translate(1125.000,260.105)" style="opacity: 1;"><rect class="node-rect" width="15" height="17.678571428571445" style="stroke-width: 0.5; stroke: rgb(0, 0, 0); stroke-opacity: 1; fill: rgb(128, 128, 128); fill-opacity: 1;"/><text class="node-label" data-notex="1" x="0" y="0" text-anchor="end" transform="translate(-3.25,13.039285714285722)" style="cursor: default; font-family: 'Open Sans', verdana, arial, sans-serif; font-size: 12px; fill: rgb(42, 63, 95); fill-opacity: 1; white-space: pre; text-shadow: white 1px 1px 1px, white -1px -1px 1px, white 1px -1px 1px, white -1px 1px 1px;">attacking-activated</text></g><g class="sankey-node" transform="translate(1125.000,566.849)" style="opacity: 1;"><rect class="node-rect" width="15" height="44.71638655462198" style="stroke-width: 0.5; stroke: rgb(0, 0, 0); stroke-opacity: 1; fill: rgb(128, 128, 128); fill-opacity: 1;"/><text class="node-label" data-notex="1" x="0" y="0" text-anchor="end" transform="translate(-3.25,26.558193277310988)" style="cursor: default; font-family: 'Open Sans', verdana, arial, sans-serif; font-size: 12px; fill: rgb(42, 63, 95); fill-opacity: 1; white-space: pre; text-shadow: white 1px 1px 1px, white -1px -1px 1px, white 1px -1px 1px, white -1px 1px 1px;">sniff-suppressed</text></g><g class="sankey-node" transform="translate(1125.000,626.565)" style="opacity: 1;"><rect class="node-rect" width="15" height="37.43697478991612" style="stroke-width: 0.5; stroke: rgb(0, 0, 0); stroke-opacity: 1; fill: rgb(128, 128, 128); fill-opacity: 1;"/><text class="node-label" data-notex="1" x="0" y="0" text-anchor="end" transform="translate(-3.25,22.91848739495806)" style="cursor: default; font-family: 'Open Sans', verdana, arial, sans-serif; font-size: 12px; fill: rgb(42, 63, 95); fill-opacity: 1; white-space: pre; text-shadow: white 1px 1px 1px, white -1px -1px 1px, white 1px -1px 1px, white -1px 1px 1px;">sniff-activated</text></g><g class="sankey-node" transform="translate(1125.000,679.002)" style="opacity: 1;"><rect class="node-rect" width="15" height="15.598739495798327" style="stroke-width: 0.5; stroke: rgb(0, 0, 0); stroke-opacity: 1; fill: rgb(128, 128, 128); fill-opacity: 1;"/><text class="node-label" data-notex="1" x="0" y="0" text-anchor="end" transform="translate(-3.25,11.999369747899163)" style="cursor: default; font-family: 'Open Sans', verdana, arial, sans-serif; font-size: 12px; fill: rgb(42, 63, 95); fill-opacity: 1; white-space: pre; text-shadow: white 1px 1px 1px, white -1px -1px 1px, white 1px -1px 1px, white -1px 1px 1px;">being_attack-activated</text></g><g class="sankey-node" transform="translate(1125.000,709.601)" style="opacity: 1;"><rect class="node-rect" width="15" height="10.399159663865703" style="stroke-width: 0.5; stroke: rgb(0, 0, 0); stroke-opacity: 1; fill: rgb(128, 128, 128); fill-opacity: 1;"/><text class="node-label" data-notex="1" x="0" y="0" text-anchor="end" transform="translate(-3.25,9.39957983193285)" style="cursor: default; font-family: 'Open Sans', verdana, arial, sans-serif; font-size: 12px; fill: rgb(42, 63, 95); fill-opacity: 1; white-space: pre; text-shadow: white 1px 1px 1px, white -1px -1px 1px, white 1px -1px 1px, white -1px 1px 1px;">being_attack-suppressed</text></g><g class="sankey-node" transform="translate(375.000,575.011)" style="opacity: 1;"><rect class="node-rect" width="15" height="113.3508403361343" style="stroke-width: 0.5; stroke: rgb(0, 0, 0); stroke-opacity: 1; fill: rgb(99, 110, 250); fill-opacity: 1;"/><text class="node-label" data-notex="1" x="0" y="0" text-anchor="start" transform="translate(18.25,60.87542016806715)" style="cursor: default; font-family: 'Open Sans', verdana, arial, sans-serif; font-size: 12px; fill: rgb(42, 63, 95); fill-opacity: 1; white-space: pre; text-shadow: white 1px 1px 1px, white -1px -1px 1px, white 1px -1px 1px, white -1px 1px 1px;">VTA</text></g><g class="sankey-node" transform="translate(375.000,90.000)" style="opacity: 1;"><rect class="node-rect" width="15" height="73.83403361344551" style="stroke-width: 0.5; stroke: rgb(0, 0, 0); stroke-opacity: 1; fill: rgb(239, 85, 59); fill-opacity: 1;"/><text class="node-label" data-notex="1" x="0" y="0" text-anchor="start" transform="translate(18.25,41.11701680672276)" style="cursor: default; font-family: 'Open Sans', verdana, arial, sans-serif; font-size: 12px; fill: rgb(42, 63, 95); fill-opacity: 1; white-space: pre; text-shadow: white 1px 1px 1px, white -1px -1px 1px, white 1px -1px 1px, white -1px 1px 1px;">LC</text></g><g class="sankey-node" transform="translate(375.000,381.901)" style="opacity: 1;"><rect class="node-rect" width="15" height="76.95378151260513" style="stroke-width: 0.5; stroke: rgb(0, 0, 0); stroke-opacity: 1; fill: rgb(0, 204, 150); fill-opacity: 1;"/><text class="node-label" data-notex="1" x="0" y="0" text-anchor="start" transform="translate(18.25,42.67689075630257)" style="cursor: default; font-family: 'Open Sans', verdana, arial, sans-serif; font-size: 12px; fill: rgb(42, 63, 95); fill-opacity: 1; white-space: pre; text-shadow: white 1px 1px 1px, white -1px -1px 1px, white 1px -1px 1px, white -1px 1px 1px;">Cla</text></g><g class="sankey-node" transform="translate(375.000,178.834)" style="opacity: 1;"><rect class="node-rect" width="15" height="82.15336134453798" style="stroke-width: 0.5; stroke: rgb(0, 0, 0); stroke-opacity: 1; fill: rgb(171, 99, 250); fill-opacity: 1;"/><text class="node-label" data-notex="1" x="0" y="0" text-anchor="start" transform="translate(18.25,45.276680672268995)" style="cursor: default; font-family: 'Open Sans', verdana, arial, sans-serif; font-size: 12px; fill: rgb(42, 63, 95); fill-opacity: 1; white-space: pre; text-shadow: white 1px 1px 1px, white -1px -1px 1px, white 1px -1px 1px, white -1px 1px 1px;">Str</text></g><g class="sankey-node" transform="translate(375.000,326.345)" style="opacity: 1;"><rect class="node-rect" width="15" height="40.55672268907506" style="stroke-width: 0.5; stroke: rgb(0, 0, 0); stroke-opacity: 1; fill: rgb(255, 161, 90); fill-opacity: 1;"/><text class="node-label" data-notex="1" x="0" y="0" text-anchor="start" transform="translate(18.25,24.47836134453753)" style="cursor: default; font-family: 'Open Sans', verdana, arial, sans-serif; font-size: 12px; fill: rgb(42, 63, 95); fill-opacity: 1; white-space: pre; text-shadow: white 1px 1px 1px, white -1px -1px 1px, white 1px -1px 1px, white -1px 1px 1px;">NAc</text></g><g class="sankey-node" transform="translate(375.000,275.987)" style="opacity: 1;"><rect class="node-rect" width="15" height="35.35714285714289" style="stroke-width: 0.5; stroke: rgb(0, 0, 0); stroke-opacity: 1; fill: rgb(25, 211, 243); fill-opacity: 1;"/><text class="node-label" data-notex="1" x="0" y="0" text-anchor="start" transform="translate(18.25,21.878571428571444)" style="cursor: default; font-family: 'Open Sans', verdana, arial, sans-serif; font-size: 12px; fill: rgb(42, 63, 95); fill-opacity: 1; white-space: pre; text-shadow: white 1px 1px 1px, white -1px -1px 1px, white 1px -1px 1px, white -1px 1px 1px;">BLA</text></g><g class="sankey-node" transform="translate(375.000,554.811)" style="opacity: 1;"><rect class="node-rect" width="15" height="5.199579831932738" style="stroke-width: 0.5; stroke: rgb(0, 0, 0); stroke-opacity: 1; fill: rgb(255, 102, 146); fill-opacity: 1;"/><text class="node-label" data-notex="1" x="0" y="0" text-anchor="start" transform="translate(18.25,6.799789915966368)" style="cursor: default; font-family: 'Open Sans', verdana, arial, sans-serif; font-size: 12px; fill: rgb(42, 63, 95); fill-opacity: 1; white-space: pre; text-shadow: white 1px 1px 1px, white -1px -1px 1px, white 1px -1px 1px, white -1px 1px 1px;">lHb</text></g><g class="sankey-node" transform="translate(375.000,473.855)" style="opacity: 1;"><rect class="node-rect" width="15" height="17.678571428571445" style="stroke-width: 0.5; stroke: rgb(0, 0, 0); stroke-opacity: 1; fill: rgb(182, 232, 128); fill-opacity: 1;"/><text class="node-label" data-notex="1" x="0" y="0" text-anchor="start" transform="translate(18.25,13.039285714285722)" style="cursor: default; font-family: 'Open Sans', verdana, arial, sans-serif; font-size: 12px; fill: rgb(42, 63, 95); fill-opacity: 1; white-space: pre; text-shadow: white 1px 1px 1px, white -1px -1px 1px, white 1px -1px 1px, white -1px 1px 1px;">dPAG</text></g><g class="sankey-node" transform="translate(375.000,506.534)" style="opacity: 1;"><rect class="node-rect" width="15" height="33.27731092436977" style="stroke-width: 0.5; stroke: rgb(0, 0, 0); stroke-opacity: 1; fill: rgb(255, 151, 255); fill-opacity: 1;"/><text class="node-label" data-notex="1" x="0" y="0" text-anchor="start" transform="translate(18.25,20.838655462184885)" style="cursor: default; font-family: 'Open Sans', verdana, arial, sans-serif; font-size: 12px; fill: rgb(42, 63, 95); fill-opacity: 1; white-space: pre; text-shadow: white 1px 1px 1px, white -1px -1px 1px, white 1px -1px 1px, white -1px 1px 1px;">cPFC</text></g><g class="sankey-node" transform="translate(375.000,703.361)" style="opacity: 1;"><rect class="node-rect" width="15" height="16.63865546218517" style="stroke-width: 0.5; stroke: rgb(0, 0, 0); stroke-opacity: 1; fill: rgb(254, 203, 82); fill-opacity: 1;"/><text class="node-label" data-notex="1" x="0" y="0" text-anchor="start" transform="translate(18.25,12.519327731092584)" style="cursor: default; font-family: 'Open Sans', verdana, arial, sans-serif; font-size: 12px; fill: rgb(42, 63, 95); fill-opacity: 1; white-space: pre; text-shadow: white 1px 1px 1px, white -1px -1px 1px, white 1px -1px 1px, white -1px 1px 1px;">LHyp</text></g></g></g><defs id="topdefs-731af3"><g class="clips"/></defs><g class="layer-above"><g class="imagelayer"/><g class="shapelayer"/></g><g class="infolayer"><g class="g-gtitle"/><g class="first-render"/></g></svg>