<svg class="main-svg" xmlns="http://www.w3.org/2000/svg" xmlns:xlink="http://www.w3.org/1999/xlink" width="1300" height="900" style="" viewBox="0 0 1300 900"><rect x="0" y="0" width="1300" height="900" style="fill: rgb(255, 255, 255); fill-opacity: 1;"/><defs id="defs-410598"><g class="clips"/><g class="gradients"/><g class="patterns"/></defs><g class="bglayer"/><g class="layer-below"><g class="imagelayer"/><g class="shapelayer"/></g><g class="cartesianlayer"/><g class="polarlayer"/><g class="smithlayer"/><g class="ternarylayer"/><g class="geolayer"/><g class="funnelarealayer"/><g class="pielayer"/><g class="iciclelayer"/><g class="treemaplayer"/><g class="sunburstlayer"/><g class="glimages"/><g class="sankey" transform="translate(80,100)matrix(1 0 0 1 0 0)" style="box-sizing: content-box; position: absolute; left: 0px; shape-rendering: geometricprecision; pointer-events: none;"><g class="sankey-links" style="fill: none;"><path class="sankey-link" d="M15,552.8571428571429C195,552.8571428571429 195,325.47619047619037 375,325.47619047619037L375,345.7936507936507C195,345.7936507936507 195,573.1746031746031 15,573.1746031746031Z" style="stroke: rgb(68, 68, 68); stroke-opacity: 1; fill: rgb(99, 110, 250); fill-opacity: 0.6; stroke-width: 0; opacity: 1;"/><path class="sankey-link" d="M15,585.8730158730159C195,585.8730158730159 195,603.8888888888886 375,603.8888888888886L375,608.9682539682536C195,608.9682539682536 195,590.952380952381 15,590.952380952381Z" style="stroke: rgb(68, 68, 68); stroke-opacity: 1; fill: rgb(0, 204, 150); fill-opacity: 0.6; stroke-width: 0; opacity: 1;"/><path class="sankey-link" d="M15,590.952380952381C195,590.952380952381 195,629.0476190476187 375,629.0476190476187L375,641.7460317460315C195,641.7460317460315 195,603.6507936507937 15,603.6507936507937Z" style="stroke: rgb(68, 68, 68); stroke-opacity: 1; fill: rgb(255, 161, 90); fill-opacity: 0.6; stroke-width: 0; opacity: 1;"/><path class="sankey-link" d="M15,573.1746031746032C195,573.1746031746032 195,543.174603174603 375,543.174603174603L375,555.8730158730158C195,555.8730158730158 195,585.873015873016 15,585.873015873016Z" style="stroke: rgb(68, 68, 68); stroke-opacity: 1; fill: rgb(171, 99, 250); fill-opacity: 0.6; stroke-width: 0; opacity: 1;"/><path class="sankey-link" d="M15,550.3174603174604C195,550.3174603174604 195,236.82539682539704 375,236.82539682539704L375,239.36507936507957C195,239.36507936507957 195,552.857142857143 15,552.857142857143Z" style="stroke: rgb(68, 68, 68); stroke-opacity: 1; fill: rgb(239, 85, 59); fill-opacity: 0.6; stroke-width: 0; opacity: 1;"/><path class="sankey-link" d="M15,654.206349206349C195,654.206349206349 195,697.142857142857 375,697.142857142857L375,702.2222222222221C195,702.2222222222221 195,659.2857142857141 15,659.2857142857141Z" style="stroke: rgb(68, 68, 68); stroke-opacity: 1; fill: rgb(25, 211, 243); fill-opacity: 0.6; stroke-width: 0; opacity: 1;"/><path class="sankey-link" d="M15,621.1904761904761C195,621.1904761904761 195,345.79365079365067 375,345.79365079365067L375,348.3333333333332C195,348.3333333333332 195,623.7301587301588 15,623.7301587301588Z" style="stroke: rgb(68, 68, 68); stroke-opacity: 1; fill: rgb(99, 110, 250); fill-opacity: 0.6; stroke-width: 0; opacity: 1;"/><path class="sankey-link" d="M15,636.4285714285713C195,636.4285714285713 195,608.9682539682536 375,608.9682539682536L375,614.0476190476187C195,614.0476190476187 195,641.5079365079364 15,641.5079365079364Z" style="stroke: rgb(68, 68, 68); stroke-opacity: 1; fill: rgb(0, 204, 150); fill-opacity: 0.6; stroke-width: 0; opacity: 1;"/><path class="sankey-link" d="M15,641.5079365079364C195,641.5079365079364 195,641.7460317460313 375,641.7460317460313L375,651.9047619047615C195,651.9047619047615 195,651.6666666666665 15,651.6666666666665Z" style="stroke: rgb(68, 68, 68); stroke-opacity: 1; fill: rgb(255, 161, 90); fill-opacity: 0.6; stroke-width: 0; opacity: 1;"/><path class="sankey-link" d="M15,631.3492063492063C195,631.3492063492063 195,555.8730158730157 375,555.8730158730157L375,560.9523809523807C195,560.9523809523807 195,636.4285714285713 15,636.4285714285713Z" style="stroke: rgb(68, 68, 68); stroke-opacity: 1; fill: rgb(171, 99, 250); fill-opacity: 0.6; stroke-width: 0; opacity: 1;"/><path class="sankey-link" d="M15,618.6507936507936C195,618.6507936507936 195,239.36507936507957 375,239.36507936507957L375,241.9047619047621C195,241.9047619047621 195,621.1904761904763 15,621.1904761904763Z" style="stroke: rgb(68, 68, 68); stroke-opacity: 1; fill: rgb(239, 85, 59); fill-opacity: 0.6; stroke-width: 0; opacity: 1;"/><path class="sankey-link" d="M15,623.7301587301587C195,623.7301587301587 195,477.38095238095207 375,477.38095238095207L375,484.99999999999966C195,484.99999999999966 195,631.3492063492064 15,631.3492063492064Z" style="stroke: rgb(68, 68, 68); stroke-opacity: 1; fill: rgb(182, 232, 128); fill-opacity: 0.6; stroke-width: 0; opacity: 1;"/><path class="sankey-link" d="M15,651.6666666666665C195,651.6666666666665 195,679.6031746031744 375,679.6031746031744L375,682.142857142857C195,682.142857142857 195,654.2063492063492 15,654.2063492063492Z" style="stroke: rgb(68, 68, 68); stroke-opacity: 1; fill: rgb(255, 102, 146); fill-opacity: 0.6; stroke-width: 0; opacity: 1;"/><path class="sankey-link" d="M15,712.3809523809522C195,712.3809523809522 195,702.2222222222221 375,702.2222222222221L375,709.8412698412698C195,709.8412698412698 195,719.9999999999999 15,719.9999999999999Z" style="stroke: rgb(68, 68, 68); stroke-opacity: 1; fill: rgb(25, 211, 243); fill-opacity: 0.6; stroke-width: 0; opacity: 1;"/><path class="sankey-link" d="M15,676.8253968253968C195,676.8253968253968 195,348.3333333333332 375,348.3333333333332L375,361.03174603174585C195,361.03174603174585 195,689.5238095238095 15,689.5238095238095Z" style="stroke: rgb(68, 68, 68); stroke-opacity: 1; fill: rgb(99, 110, 250); fill-opacity: 0.6; stroke-width: 0; opacity: 1;"/><path class="sankey-link" d="M15,707.3015873015871C195,707.3015873015871 195,651.9047619047615 375,651.9047619047615L375,656.9841269841265C195,656.9841269841265 195,712.3809523809522 15,712.3809523809522Z" style="stroke: rgb(68, 68, 68); stroke-opacity: 1; fill: rgb(255, 161, 90); fill-opacity: 0.6; stroke-width: 0; opacity: 1;"/><path class="sankey-link" d="M15,699.6825396825395C195,699.6825396825395 195,560.9523809523807 375,560.9523809523807L375,568.5714285714284C195,568.5714285714284 195,707.3015873015872 15,707.3015873015872Z" style="stroke: rgb(68, 68, 68); stroke-opacity: 1; fill: rgb(171, 99, 250); fill-opacity: 0.6; stroke-width: 0; opacity: 1;"/><path class="sankey-link" d="M15,674.2857142857142C195,674.2857142857142 195,241.9047619047621 375,241.9047619047621L375,244.44444444444463C195,244.44444444444463 195,676.8253968253969 15,676.8253968253969Z" style="stroke: rgb(68, 68, 68); stroke-opacity: 1; fill: rgb(239, 85, 59); fill-opacity: 0.6; stroke-width: 0; opacity: 1;"/><path class="sankey-link" d="M15,689.5238095238094C195,689.5238095238094 195,484.99999999999966 375,484.99999999999966L375,487.5396825396822C195,487.5396825396822 195,692.063492063492 15,692.063492063492Z" style="stroke: rgb(68, 68, 68); stroke-opacity: 1; fill: rgb(182, 232, 128); fill-opacity: 0.6; stroke-width: 0; opacity: 1;"/><path class="sankey-link" d="M15,692.0634920634919C570,692.0634920634919 570,495.873015873016 1125,495.873015873016L1125,503.4920634920636C570,503.4920634920636 570,699.6825396825396 15,699.6825396825396Z" style="stroke: rgb(68, 68, 68); stroke-opacity: 1; fill: rgb(255, 151, 255); fill-opacity: 0.6; stroke-width: 0; opacity: 1;"/><path class="sankey-link" d="M15,200.3174603174601C195,200.3174603174601 195,259.44444444444434 375,259.44444444444434L375,292.46031746031736C195,292.46031746031736 195,233.33333333333312 15,233.33333333333312Z" style="stroke: rgb(68, 68, 68); stroke-opacity: 1; fill: rgb(99, 110, 250); fill-opacity: 0.6; stroke-width: 0; opacity: 1;"/><path class="sankey-link" d="M15,299.3650793650791C195,299.3650793650791 195,583.5714285714283 375,583.5714285714283L375,593.7301587301585C195,593.7301587301585 195,309.52380952380923 15,309.52380952380923Z" style="stroke: rgb(68, 68, 68); stroke-opacity: 1; fill: rgb(0, 204, 150); fill-opacity: 0.6; stroke-width: 0; opacity: 1;"/><path class="sankey-link" d="M15,233.33333333333312C195,233.33333333333312 195,376.0317460317457 375,376.0317460317457L375,396.34920634920604C195,396.34920634920604 195,253.65079365079342 15,253.65079365079342Z" style="stroke: rgb(68, 68, 68); stroke-opacity: 1; fill: rgb(254, 203, 82); fill-opacity: 0.6; stroke-width: 0; opacity: 1;"/><path class="sankey-link" d="M15,279.0476190476188C195,279.0476190476188 195,502.53968253968225 375,502.53968253968225L375,522.8571428571425C195,522.8571428571425 195,299.36507936507917 15,299.36507936507917Z" style="stroke: rgb(68, 68, 68); stroke-opacity: 1; fill: rgb(171, 99, 250); fill-opacity: 0.6; stroke-width: 0; opacity: 1;"/><path class="sankey-link" d="M15,101.26984126984107C195,101.26984126984107 195,36.1904761904764 375,36.1904761904764L375,135.23809523809544C195,135.23809523809544 195,200.3174603174601 15,200.3174603174601Z" style="stroke: rgb(68, 68, 68); stroke-opacity: 1; fill: rgb(239, 85, 59); fill-opacity: 0.6; stroke-width: 0; opacity: 1;"/><path class="sankey-link" d="M15,253.65079365079347C195,253.65079365079347 195,431.6666666666664 375,431.6666666666664L375,454.5238095238093C195,454.5238095238093 195,276.50793650793634 15,276.50793650793634Z" style="stroke: rgb(68, 68, 68); stroke-opacity: 1; fill: rgb(182, 232, 128); fill-opacity: 0.6; stroke-width: 0; opacity: 1;"/><path class="sankey-link" d="M15,276.5079365079363C570,276.5079365079363 570,490.79365079365095 1125,490.79365079365095L1125,493.3333333333335C570,493.3333333333335 570,279.0476190476188 15,279.0476190476188Z" style="stroke: rgb(68, 68, 68); stroke-opacity: 1; fill: rgb(255, 151, 255); fill-opacity: 0.6; stroke-width: 0; opacity: 1;"/><path class="sankey-link" d="M15,426.111111111111C195,426.111111111111 195,292.46031746031736 375,292.46031746031736L375,325.47619047619037C195,325.47619047619037 195,459.126984126984 15,459.126984126984Z" style="stroke: rgb(68, 68, 68); stroke-opacity: 1; fill: rgb(99, 110, 250); fill-opacity: 0.6; stroke-width: 0; opacity: 1;"/><path class="sankey-link" d="M15,525.15873015873C195,525.15873015873 195,593.7301587301585 375,593.7301587301585L375,603.8888888888886C195,603.8888888888886 195,535.3174603174601 15,535.3174603174601Z" style="stroke: rgb(68, 68, 68); stroke-opacity: 1; fill: rgb(0, 204, 150); fill-opacity: 0.6; stroke-width: 0; opacity: 1;"/><path class="sankey-link" d="M15,459.126984126984C195,459.126984126984 195,396.349206349206 375,396.349206349206L375,416.66666666666634C195,416.66666666666634 195,479.44444444444434 15,479.44444444444434Z" style="stroke: rgb(68, 68, 68); stroke-opacity: 1; fill: rgb(254, 203, 82); fill-opacity: 0.6; stroke-width: 0; opacity: 1;"/><path class="sankey-link" d="M15,504.8412698412696C195,504.8412698412696 195,522.8571428571427 375,522.8571428571427L375,543.1746031746029C195,543.1746031746029 195,525.1587301587299 15,525.1587301587299Z" style="stroke: rgb(68, 68, 68); stroke-opacity: 1; fill: rgb(171, 99, 250); fill-opacity: 0.6; stroke-width: 0; opacity: 1;"/><path class="sankey-link" d="M15,324.5238095238094C195,324.5238095238094 195,135.23809523809544 375,135.23809523809544L375,236.825396825397C195,236.825396825397 195,426.111111111111 15,426.111111111111Z" style="stroke: rgb(68, 68, 68); stroke-opacity: 1; fill: rgb(239, 85, 59); fill-opacity: 0.6; stroke-width: 0; opacity: 1;"/><path class="sankey-link" d="M15,479.4444444444443C195,479.4444444444443 195,454.52380952380923 375,454.52380952380923L375,477.3809523809521C195,477.3809523809521 195,502.3015873015872 15,502.3015873015872Z" style="stroke: rgb(68, 68, 68); stroke-opacity: 1; fill: rgb(182, 232, 128); fill-opacity: 0.6; stroke-width: 0; opacity: 1;"/><path class="sankey-link" d="M15,502.3015873015871C570,502.3015873015871 570,493.3333333333335 1125,493.3333333333335L1125,495.873015873016C570,495.873015873016 570,504.84126984126965 15,504.84126984126965Z" style="stroke: rgb(68, 68, 68); stroke-opacity: 1; fill: rgb(255, 151, 255); fill-opacity: 0.6; stroke-width: 0; opacity: 1;"/><path class="sankey-link" d="M390,697.142857142857C570,697.142857142857 570,231.50793650793696 750,231.50793650793696L750,234.0476190476195C570,234.0476190476195 570,699.6825396825396 390,699.6825396825396Z" style="stroke: rgb(68, 68, 68); stroke-opacity: 1; fill: rgb(25, 211, 243); fill-opacity: 0.6; stroke-width: 0; opacity: 1;"/><path class="sankey-link" d="M390,717.4603174603172C570,717.4603174603172 570,717.4603174603176 750,717.4603174603176L750,720.0000000000002C570,720.0000000000002 570,719.9999999999999 390,719.9999999999999Z" style="stroke: rgb(68, 68, 68); stroke-opacity: 1; fill: rgb(25, 211, 243); fill-opacity: 0.6; stroke-width: 0; opacity: 1;"/><path class="sankey-link" d="M390,699.6825396825395C570,699.6825396825395 570,330.31746031746104 750,330.31746031746104L750,337.93650793650863C570,337.93650793650863 570,707.3015873015872 390,707.3015873015872Z" style="stroke: rgb(68, 68, 68); stroke-opacity: 1; fill: rgb(25, 211, 243); fill-opacity: 0.6; stroke-width: 0; opacity: 1;"/><path class="sankey-link" d="M390,712.3809523809522C570,712.3809523809522 570,560.9523809523816 750,560.9523809523816L750,563.4920634920643C570,563.4920634920643 570,714.9206349206348 390,714.9206349206348Z" style="stroke: rgb(68, 68, 68); stroke-opacity: 1; fill: rgb(25, 211, 243); fill-opacity: 0.6; stroke-width: 0; opacity: 1;"/><path class="sankey-link" d="M390,707.3015873015871C570,707.3015873015871 570,472.301587301588 750,472.301587301588L750,477.38095238095303C570,477.38095238095303 570,712.3809523809522 390,712.3809523809522Z" style="stroke: rgb(68, 68, 68); stroke-opacity: 1; fill: rgb(25, 211, 243); fill-opacity: 0.6; stroke-width: 0; opacity: 1;"/><path class="sankey-link" d="M390,714.9206349206347C570,714.9206349206347 570,689.7619047619052 750,689.7619047619052L750,692.3015873015878C570,692.3015873015878 570,717.4603174603174 390,717.4603174603174Z" style="stroke: rgb(68, 68, 68); stroke-opacity: 1; fill: rgb(25, 211, 243); fill-opacity: 0.6; stroke-width: 0; opacity: 1;"/><path class="sankey-link" d="M390,259.44444444444434C570,259.44444444444434 570,193.4126984126989 750,193.4126984126989L750,208.65079365079413C570,208.65079365079413 570,274.6825396825395 390,274.6825396825395Z" style="stroke: rgb(68, 68, 68); stroke-opacity: 1; fill: rgb(99, 110, 250); fill-opacity: 0.6; stroke-width: 0; opacity: 1;"/><path class="sankey-link" d="M390,338.1746031746031C570,338.1746031746031 570,603.8888888888893 750,603.8888888888893L750,606.4285714285719C570,606.4285714285719 570,340.7142857142856 390,340.7142857142856Z" style="stroke: rgb(68, 68, 68); stroke-opacity: 1; fill: rgb(99, 110, 250); fill-opacity: 0.6; stroke-width: 0; opacity: 1;"/><path class="sankey-link" d="M390,348.3333333333332C570,348.3333333333332 570,707.3015873015875 750,707.3015873015875L750,709.8412698412701C570,709.8412698412701 570,350.87301587301573 390,350.87301587301573Z" style="stroke: rgb(68, 68, 68); stroke-opacity: 1; fill: rgb(99, 110, 250); fill-opacity: 0.6; stroke-width: 0; opacity: 1;"/><path class="sankey-link" d="M390,340.7142857142856C570,340.7142857142856 570,646.8253968253973 750,646.8253968253973L750,651.9047619047624C570,651.9047619047624 570,345.79365079365067 390,345.79365079365067Z" style="stroke: rgb(68, 68, 68); stroke-opacity: 1; fill: rgb(99, 110, 250); fill-opacity: 0.6; stroke-width: 0; opacity: 1;"/><path class="sankey-link" d="M390,274.6825396825396C570,274.6825396825396 570,269.3650793650801 750,269.3650793650801L750,294.7619047619055C570,294.7619047619055 570,300.079365079365 390,300.079365079365Z" style="stroke: rgb(68, 68, 68); stroke-opacity: 1; fill: rgb(99, 110, 250); fill-opacity: 0.6; stroke-width: 0; opacity: 1;"/><path class="sankey-link" d="M390,320.3968253968253C570,320.3968253968253 570,512.6984126984134 750,512.6984126984134L750,530.4761904761913C570,530.4761904761913 570,338.17460317460313 390,338.17460317460313Z" style="stroke: rgb(68, 68, 68); stroke-opacity: 1; fill: rgb(99, 110, 250); fill-opacity: 0.6; stroke-width: 0; opacity: 1;"/><path class="sankey-link" d="M390,300.079365079365C570,300.079365079365 570,401.19047619047694 750,401.19047619047694L750,421.5079365079373C570,421.5079365079373 570,320.39682539682536 390,320.39682539682536Z" style="stroke: rgb(68, 68, 68); stroke-opacity: 1; fill: rgb(99, 110, 250); fill-opacity: 0.6; stroke-width: 0; opacity: 1;"/><path class="sankey-link" d="M390,345.79365079365067C570,345.79365079365067 570,679.603174603175 750,679.603174603175L750,682.1428571428577C570,682.1428571428577 570,348.3333333333332 390,348.3333333333332Z" style="stroke: rgb(68, 68, 68); stroke-opacity: 1; fill: rgb(99, 110, 250); fill-opacity: 0.6; stroke-width: 0; opacity: 1;"/><path class="sankey-link" d="M390,583.5714285714283C570,583.5714285714283 570,223.88888888888934 750,223.88888888888934L750,226.42857142857187C570,226.42857142857187 570,586.111111111111 390,586.111111111111Z" style="stroke: rgb(68, 68, 68); stroke-opacity: 1; fill: rgb(0, 204, 150); fill-opacity: 0.6; stroke-width: 0; opacity: 1;"/><path class="sankey-link" d="M390,601.349206349206C570,601.349206349206 570,629.2857142857146 750,629.2857142857146L750,631.8253968253972C570,631.8253968253972 570,603.8888888888887 390,603.8888888888887Z" style="stroke: rgb(68, 68, 68); stroke-opacity: 1; fill: rgb(0, 204, 150); fill-opacity: 0.6; stroke-width: 0; opacity: 1;"/><path class="sankey-link" d="M390,586.1111111111109C570,586.1111111111109 570,315.0793650793658 750,315.0793650793658L750,320.15873015873086C570,320.15873015873086 570,591.1904761904759 390,591.1904761904759Z" style="stroke: rgb(68, 68, 68); stroke-opacity: 1; fill: rgb(0, 204, 150); fill-opacity: 0.6; stroke-width: 0; opacity: 1;"/><path class="sankey-link" d="M390,598.8095238095235C570,598.8095238095235 570,553.333333333334 750,553.333333333334L750,555.8730158730167C570,555.8730158730167 570,601.3492063492062 390,601.3492063492062Z" style="stroke: rgb(68, 68, 68); stroke-opacity: 1; fill: rgb(0, 204, 150); fill-opacity: 0.6; stroke-width: 0; opacity: 1;"/><path class="sankey-link" d="M390,591.1904761904759C570,591.1904761904759 570,457.0634920634928 750,457.0634920634928L750,464.6825396825404C570,464.6825396825404 570,598.8095238095236 390,598.8095238095236Z" style="stroke: rgb(68, 68, 68); stroke-opacity: 1; fill: rgb(0, 204, 150); fill-opacity: 0.6; stroke-width: 0; opacity: 1;"/><path class="sankey-link" d="M390,603.8888888888886C570,603.8888888888886 570,684.6825396825401 750,684.6825396825401L750,689.7619047619052C570,689.7619047619052 570,608.9682539682536 390,608.9682539682536Z" style="stroke: rgb(68, 68, 68); stroke-opacity: 1; fill: rgb(0, 204, 150); fill-opacity: 0.6; stroke-width: 0; opacity: 1;"/><path class="sankey-link" d="M390,376.0317460317457C570,376.0317460317457 570,208.65079365079413 750,208.65079365079413L750,211.19047619047666C570,211.19047619047666 570,378.5714285714282 390,378.5714285714282Z" style="stroke: rgb(68, 68, 68); stroke-opacity: 1; fill: rgb(254, 203, 82); fill-opacity: 0.6; stroke-width: 0; opacity: 1;"/><path class="sankey-link" d="M390,393.8095238095234C570,393.8095238095234 570,606.4285714285718 750,606.4285714285718L750,614.0476190476195C570,614.0476190476195 570,401.428571428571 390,401.428571428571Z" style="stroke: rgb(68, 68, 68); stroke-opacity: 1; fill: rgb(254, 203, 82); fill-opacity: 0.6; stroke-width: 0; opacity: 1;"/><path class="sankey-link" d="M390,378.5714285714282C570,378.5714285714282 570,294.7619047619055 750,294.7619047619055L750,297.30158730158803C570,297.30158730158803 570,381.11111111111074 390,381.11111111111074Z" style="stroke: rgb(68, 68, 68); stroke-opacity: 1; fill: rgb(254, 203, 82); fill-opacity: 0.6; stroke-width: 0; opacity: 1;"/><path class="sankey-link" d="M390,388.73015873015834C570,388.73015873015834 570,530.4761904761913 750,530.4761904761913L750,535.5555555555563C570,535.5555555555563 570,393.8095238095234 390,393.8095238095234Z" style="stroke: rgb(68, 68, 68); stroke-opacity: 1; fill: rgb(254, 203, 82); fill-opacity: 0.6; stroke-width: 0; opacity: 1;"/><path class="sankey-link" d="M390,381.11111111111074C570,381.11111111111074 570,421.50793650793725 750,421.50793650793725L750,429.12698412698484C570,429.12698412698484 570,388.73015873015834 390,388.73015873015834Z" style="stroke: rgb(68, 68, 68); stroke-opacity: 1; fill: rgb(254, 203, 82); fill-opacity: 0.6; stroke-width: 0; opacity: 1;"/><path class="sankey-link" d="M390,629.0476190476187C570,629.0476190476187 570,226.42857142857187 750,226.42857142857187L750,231.50793650793693C570,231.50793650793693 570,634.1269841269838 390,634.1269841269838Z" style="stroke: rgb(68, 68, 68); stroke-opacity: 1; fill: rgb(255, 161, 90); fill-opacity: 0.6; stroke-width: 0; opacity: 1;"/><path class="sankey-link" d="M390,662.0634920634916C570,662.0634920634916 570,712.3809523809525 750,712.3809523809525L750,714.9206349206352C570,714.9206349206352 570,664.6031746031742 390,664.6031746031742Z" style="stroke: rgb(68, 68, 68); stroke-opacity: 1; fill: rgb(255, 161, 90); fill-opacity: 0.6; stroke-width: 0; opacity: 1;"/><path class="sankey-link" d="M390,656.9841269841265C570,656.9841269841265 570,656.9841269841274 750,656.9841269841274L750,662.0634920634925C570,662.0634920634925 570,662.0634920634916 390,662.0634920634916Z" style="stroke: rgb(68, 68, 68); stroke-opacity: 1; fill: rgb(255, 161, 90); fill-opacity: 0.6; stroke-width: 0; opacity: 1;"/><path class="sankey-link" d="M390,634.1269841269838C570,634.1269841269838 570,320.15873015873086 750,320.15873015873086L750,330.317460317461C570,330.317460317461 570,644.2857142857139 390,644.2857142857139Z" style="stroke: rgb(68, 68, 68); stroke-opacity: 1; fill: rgb(255, 161, 90); fill-opacity: 0.6; stroke-width: 0; opacity: 1;"/><path class="sankey-link" d="M390,651.9047619047615C570,651.9047619047615 570,555.8730158730166 750,555.8730158730166L750,560.9523809523816C570,560.9523809523816 570,656.9841269841265 390,656.9841269841265Z" style="stroke: rgb(68, 68, 68); stroke-opacity: 1; fill: rgb(255, 161, 90); fill-opacity: 0.6; stroke-width: 0; opacity: 1;"/><path class="sankey-link" d="M390,644.2857142857139C570,644.2857142857139 570,464.6825396825404 750,464.6825396825404L750,472.301587301588C570,472.301587301588 570,651.9047619047616 390,651.9047619047616Z" style="stroke: rgb(68, 68, 68); stroke-opacity: 1; fill: rgb(255, 161, 90); fill-opacity: 0.6; stroke-width: 0; opacity: 1;"/><path class="sankey-link" d="M390,502.5396825396823C570,502.5396825396823 570,213.7301587301592 750,213.7301587301592L750,223.88888888888937C570,223.88888888888937 570,512.6984126984124 390,512.6984126984124Z" style="stroke: rgb(68, 68, 68); stroke-opacity: 1; fill: rgb(171, 99, 250); fill-opacity: 0.6; stroke-width: 0; opacity: 1;"/><path class="sankey-link" d="M390,548.2539682539679C570,548.2539682539679 570,619.1269841269844 750,619.1269841269844L750,629.2857142857146C570,629.2857142857146 570,558.412698412698 390,558.412698412698Z" style="stroke: rgb(68, 68, 68); stroke-opacity: 1; fill: rgb(171, 99, 250); fill-opacity: 0.6; stroke-width: 0; opacity: 1;"/><path class="sankey-link" d="M390,563.492063492063C570,563.492063492063 570,709.84126984127 750,709.84126984127L750,712.3809523809526C570,712.3809523809526 570,566.0317460317457 390,566.0317460317457Z" style="stroke: rgb(68, 68, 68); stroke-opacity: 1; fill: rgb(171, 99, 250); fill-opacity: 0.6; stroke-width: 0; opacity: 1;"/><path class="sankey-link" d="M390,558.412698412698C570,558.412698412698 570,654.4444444444449 750,654.4444444444449L750,656.9841269841276C570,656.9841269841276 570,560.9523809523806 390,560.9523809523806Z" style="stroke: rgb(68, 68, 68); stroke-opacity: 1; fill: rgb(171, 99, 250); fill-opacity: 0.6; stroke-width: 0; opacity: 1;"/><path class="sankey-link" d="M390,512.6984126984124C570,512.6984126984124 570,307.4603174603182 750,307.4603174603182L750,315.0793650793658C570,315.0793650793658 570,520.3174603174601 390,520.3174603174601Z" style="stroke: rgb(68, 68, 68); stroke-opacity: 1; fill: rgb(171, 99, 250); fill-opacity: 0.6; stroke-width: 0; opacity: 1;"/><path class="sankey-link" d="M390,533.0158730158727C570,533.0158730158727 570,538.0952380952389 750,538.0952380952389L750,553.333333333334C570,553.333333333334 570,548.2539682539679 390,548.2539682539679Z" style="stroke: rgb(68, 68, 68); stroke-opacity: 1; fill: rgb(171, 99, 250); fill-opacity: 0.6; stroke-width: 0; opacity: 1;"/><path class="sankey-link" d="M390,520.31746031746C570,520.31746031746 570,444.3650793650801 750,444.3650793650801L750,457.06349206349273C570,457.06349206349273 570,533.0158730158728 390,533.0158730158728Z" style="stroke: rgb(68, 68, 68); stroke-opacity: 1; fill: rgb(171, 99, 250); fill-opacity: 0.6; stroke-width: 0; opacity: 1;"/><path class="sankey-link" d="M390,560.9523809523805C570,560.9523809523805 570,682.1428571428576 750,682.1428571428576L750,684.6825396825402C570,684.6825396825402 570,563.4920634920632 390,563.4920634920632Z" style="stroke: rgb(68, 68, 68); stroke-opacity: 1; fill: rgb(171, 99, 250); fill-opacity: 0.6; stroke-width: 0; opacity: 1;"/><path class="sankey-link" d="M390,36.1904761904764C570,36.1904761904764 570,147.69841269841316 750,147.69841269841316L750,193.4126984126989C570,193.4126984126989 570,81.90476190476211 390,81.90476190476211Z" style="stroke: rgb(68, 68, 68); stroke-opacity: 1; fill: rgb(239, 85, 59); fill-opacity: 0.6; stroke-width: 0; opacity: 1;"/><path class="sankey-link" d="M390,170.793650793651C570,170.793650793651 570,578.4920634920638 750,578.4920634920638L750,603.8888888888891C570,603.8888888888891 570,196.19047619047643 390,196.19047619047643Z" style="stroke: rgb(68, 68, 68); stroke-opacity: 1; fill: rgb(239, 85, 59); fill-opacity: 0.6; stroke-width: 0; opacity: 1;"/><path class="sankey-link" d="M390,81.90476190476213C570,81.90476190476213 570,249.0476190476198 750,249.0476190476198L750,269.36507936508013C570,269.36507936508013 570,102.22222222222243 390,102.22222222222243Z" style="stroke: rgb(68, 68, 68); stroke-opacity: 1; fill: rgb(239, 85, 59); fill-opacity: 0.6; stroke-width: 0; opacity: 1;"/><path class="sankey-link" d="M390,150.47619047619068C570,150.47619047619068 570,492.3809523809531 750,492.3809523809531L750,512.6984126984134C570,512.6984126984134 570,170.79365079365098 390,170.79365079365098Z" style="stroke: rgb(68, 68, 68); stroke-opacity: 1; fill: rgb(239, 85, 59); fill-opacity: 0.6; stroke-width: 0; opacity: 1;"/><path class="sankey-link" d="M390,102.22222222222243C570,102.22222222222243 570,352.93650793650875 750,352.93650793650875L750,401.19047619047694C570,401.19047619047694 570,150.47619047619068 390,150.47619047619068Z" style="stroke: rgb(68, 68, 68); stroke-opacity: 1; fill: rgb(239, 85, 59); fill-opacity: 0.6; stroke-width: 0; opacity: 1;"/><path class="sankey-link" d="M390,196.1904761904764C570,196.1904761904764 570,677.0634920634925 750,677.0634920634925L750,679.6031746031751C570,679.6031746031751 570,198.73015873015893 390,198.73015873015893Z" style="stroke: rgb(68, 68, 68); stroke-opacity: 1; fill: rgb(239, 85, 59); fill-opacity: 0.6; stroke-width: 0; opacity: 1;"/><path class="sankey-link" d="M390,431.6666666666664C570,431.6666666666664 570,211.19047619047666 750,211.19047619047666L750,213.7301587301592C570,213.7301587301592 570,434.20634920634893 390,434.20634920634893Z" style="stroke: rgb(68, 68, 68); stroke-opacity: 1; fill: rgb(182, 232, 128); fill-opacity: 0.6; stroke-width: 0; opacity: 1;"/><path class="sankey-link" d="M390,462.1428571428569C570,462.1428571428569 570,614.0476190476194 750,614.0476190476194L750,619.1269841269844C570,619.1269841269844 570,467.22222222222194 390,467.22222222222194Z" style="stroke: rgb(68, 68, 68); stroke-opacity: 1; fill: rgb(182, 232, 128); fill-opacity: 0.6; stroke-width: 0; opacity: 1;"/><path class="sankey-link" d="M390,467.22222222222194C570,467.22222222222194 570,651.9047619047624 750,651.9047619047624L750,654.444444444445C570,654.444444444445 570,469.7619047619045 390,469.7619047619045Z" style="stroke: rgb(68, 68, 68); stroke-opacity: 1; fill: rgb(182, 232, 128); fill-opacity: 0.6; stroke-width: 0; opacity: 1;"/><path class="sankey-link" d="M390,434.20634920634893C570,434.20634920634893 570,297.30158730158803 750,297.30158730158803L750,307.46031746031815C570,307.46031746031815 570,444.36507936507905 390,444.36507936507905Z" style="stroke: rgb(68, 68, 68); stroke-opacity: 1; fill: rgb(182, 232, 128); fill-opacity: 0.6; stroke-width: 0; opacity: 1;"/><path class="sankey-link" d="M390,459.60317460317435C570,459.60317460317435 570,535.5555555555563 750,535.5555555555563L750,538.095238095239C570,538.095238095239 570,462.1428571428569 390,462.1428571428569Z" style="stroke: rgb(68, 68, 68); stroke-opacity: 1; fill: rgb(182, 232, 128); fill-opacity: 0.6; stroke-width: 0; opacity: 1;"/><path class="sankey-link" d="M390,444.3650793650791C570,444.3650793650791 570,429.12698412698484 750,429.12698412698484L750,444.36507936508C570,444.36507936508 570,459.6031746031743 390,459.6031746031743Z" style="stroke: rgb(68, 68, 68); stroke-opacity: 1; fill: rgb(182, 232, 128); fill-opacity: 0.6; stroke-width: 0; opacity: 1;"/><path class="sankey-link" d="M390,679.6031746031744C570,679.6031746031744 570,714.920634920635 750,714.920634920635L750,717.4603174603177C570,717.4603174603177 570,682.142857142857 390,682.142857142857Z" style="stroke: rgb(68, 68, 68); stroke-opacity: 1; fill: rgb(255, 102, 146); fill-opacity: 0.6; stroke-width: 0; opacity: 1;"/><path class="sankey-link" d="M765,147.69841269841316C945,147.69841269841316 945,-1.8474111129762605e-13 1125,-1.8474111129762605e-13L1125,2.539682539682355C945,2.539682539682355 945,150.2380952380957 765,150.2380952380957Z" style="stroke: rgb(68, 68, 68); stroke-opacity: 1; fill: rgb(25, 211, 243); fill-opacity: 0.6; stroke-width: 0; opacity: 1;"/><path class="sankey-link" d="M765,707.3015873015875C945,707.3015873015875 945,647.0634920634924 1125,647.0634920634924L1125,649.603174603175C945,649.603174603175 945,709.8412698412701 765,709.8412698412701Z" style="stroke: rgb(68, 68, 68); stroke-opacity: 1; fill: rgb(25, 211, 243); fill-opacity: 0.6; stroke-width: 0; opacity: 1;"/><path class="sankey-link" d="M765,249.04761904761978C945,249.04761904761978 945,116.34920634920618 1125,116.34920634920618L1125,118.88888888888872C945,118.88888888888872 945,251.5873015873023 765,251.5873015873023Z" style="stroke: rgb(68, 68, 68); stroke-opacity: 1; fill: rgb(25, 211, 243); fill-opacity: 0.6; stroke-width: 0; opacity: 1;"/><path class="sankey-link" d="M765,294.76190476190544C945,294.76190476190544 945,177.06349206349194 1125,177.06349206349194L1125,182.142857142857C945,182.142857142857 945,299.8412698412705 765,299.8412698412705Z" style="stroke: rgb(68, 68, 68); stroke-opacity: 1; fill: rgb(25, 211, 243); fill-opacity: 0.6; stroke-width: 0; opacity: 1;"/><path class="sankey-link" d="M765,492.3809523809531C945,492.3809523809531 945,389.6825396825398 1125,389.6825396825398L1125,392.22222222222234C945,392.22222222222234 945,494.9206349206356 765,494.9206349206356Z" style="stroke: rgb(68, 68, 68); stroke-opacity: 1; fill: rgb(25, 211, 243); fill-opacity: 0.6; stroke-width: 0; opacity: 1;"/><path class="sankey-link" d="M765,352.9365079365087C945,352.9365079365087 945,235.23809523809513 1125,235.23809523809513L1125,237.77777777777766C945,237.77777777777766 945,355.4761904761912 765,355.4761904761912Z" style="stroke: rgb(68, 68, 68); stroke-opacity: 1; fill: rgb(25, 211, 243); fill-opacity: 0.6; stroke-width: 0; opacity: 1;"/><path class="sankey-link" d="M765,424.0476190476197C945,424.0476190476197 945,321.34920634920644 1125,321.34920634920644L1125,323.88888888888897C945,323.88888888888897 945,426.58730158730225 765,426.58730158730225Z" style="stroke: rgb(68, 68, 68); stroke-opacity: 1; fill: rgb(25, 211, 243); fill-opacity: 0.6; stroke-width: 0; opacity: 1;"/><path class="sankey-link" d="M765,684.6825396825401C945,684.6825396825401 945,712.3809523809524 1125,712.3809523809524L1125,714.920634920635C945,714.920634920635 945,687.2222222222227 765,687.2222222222227Z" style="stroke: rgb(68, 68, 68); stroke-opacity: 1; fill: rgb(25, 211, 243); fill-opacity: 0.6; stroke-width: 0; opacity: 1;"/><path class="sankey-link" d="M765,150.2380952380957C945,150.2380952380957 945,2.539682539682355 1125,2.539682539682355L1125,10.158730158729973C945,10.158730158729973 945,157.8571428571433 765,157.8571428571433Z" style="stroke: rgb(68, 68, 68); stroke-opacity: 1; fill: rgb(99, 110, 250); fill-opacity: 0.6; stroke-width: 0; opacity: 1;"/><path class="sankey-link" d="M765,203.571428571429C945,203.571428571429 945,70.87301587301573 1125,70.87301587301573L1125,78.49206349206335C945,78.49206349206335 945,211.1904761904766 765,211.1904761904766Z" style="stroke: rgb(68, 68, 68); stroke-opacity: 1; fill: rgb(99, 110, 250); fill-opacity: 0.6; stroke-width: 0; opacity: 1;"/><path class="sankey-link" d="M765,578.4920634920638C945,578.4920634920638 945,563.7301587301589 1125,563.7301587301589L1125,566.2698412698415C945,566.2698412698415 945,581.0317460317465 765,581.0317460317465Z" style="stroke: rgb(68, 68, 68); stroke-opacity: 1; fill: rgb(99, 110, 250); fill-opacity: 0.6; stroke-width: 0; opacity: 1;"/><path class="sankey-link" d="M765,714.920634920635C945,714.920634920635 945,669.6825396825399 1125,669.6825396825399L1125,672.2222222222225C945,672.2222222222225 945,717.4603174603177 765,717.4603174603177Z" style="stroke: rgb(68, 68, 68); stroke-opacity: 1; fill: rgb(99, 110, 250); fill-opacity: 0.6; stroke-width: 0; opacity: 1;"/><path class="sankey-link" d="M765,646.8253968253973C945,646.8253968253973 945,518.4920634920636 1125,518.4920634920636L1125,523.5714285714287C945,523.5714285714287 945,651.9047619047624 765,651.9047619047624Z" style="stroke: rgb(68, 68, 68); stroke-opacity: 1; fill: rgb(99, 110, 250); fill-opacity: 0.6; stroke-width: 0; opacity: 1;"/><path class="sankey-link" d="M765,251.58730158730228C945,251.58730158730228 945,118.88888888888873 1125,118.88888888888873L1125,134.12698412698396C945,134.12698412698396 945,266.8253968253975 765,266.8253968253975Z" style="stroke: rgb(68, 68, 68); stroke-opacity: 1; fill: rgb(99, 110, 250); fill-opacity: 0.6; stroke-width: 0; opacity: 1;"/><path class="sankey-link" d="M765,299.8412698412705C945,299.8412698412705 945,182.14285714285703 1125,182.14285714285703L1125,192.3015873015872C945,192.3015873015872 945,310.0000000000006 765,310.0000000000006Z" style="stroke: rgb(68, 68, 68); stroke-opacity: 1; fill: rgb(99, 110, 250); fill-opacity: 0.6; stroke-width: 0; opacity: 1;"/><path class="sankey-link" d="M765,533.0158730158737C945,533.0158730158737 945,445.3174603174604 1125,445.3174603174604L1125,452.936507936508C945,452.936507936508 945,540.6349206349214 765,540.6349206349214Z" style="stroke: rgb(68, 68, 68); stroke-opacity: 1; fill: rgb(99, 110, 250); fill-opacity: 0.6; stroke-width: 0; opacity: 1;"/><path class="sankey-link" d="M765,494.9206349206356C945,494.9206349206356 945,392.22222222222234 1125,392.22222222222234L1125,402.38095238095246C945,402.38095238095246 945,505.07936507936574 765,505.07936507936574Z" style="stroke: rgb(68, 68, 68); stroke-opacity: 1; fill: rgb(99, 110, 250); fill-opacity: 0.6; stroke-width: 0; opacity: 1;"/><path class="sankey-link" d="M765,355.4761904761912C945,355.4761904761912 945,237.77777777777766 1125,237.77777777777766L1125,250.47619047619037C945,250.47619047619037 945,368.1746031746039 765,368.1746031746039Z" style="stroke: rgb(68, 68, 68); stroke-opacity: 1; fill: rgb(99, 110, 250); fill-opacity: 0.6; stroke-width: 0; opacity: 1;"/><path class="sankey-link" d="M765,426.58730158730225C945,426.58730158730225 945,323.88888888888897 1125,323.88888888888897L1125,331.50793650793656C945,331.50793650793656 945,434.20634920634984 765,434.20634920634984Z" style="stroke: rgb(68, 68, 68); stroke-opacity: 1; fill: rgb(99, 110, 250); fill-opacity: 0.6; stroke-width: 0; opacity: 1;"/><path class="sankey-link" d="M765,677.0634920634925C945,677.0634920634925 945,689.7619047619049 1125,689.7619047619049L1125,692.3015873015876C945,692.3015873015876 945,679.6031746031751 765,679.6031746031751Z" style="stroke: rgb(68, 68, 68); stroke-opacity: 1; fill: rgb(99, 110, 250); fill-opacity: 0.6; stroke-width: 0; opacity: 1;"/><path class="sankey-link" d="M765,157.85714285714332C945,157.85714285714332 945,10.158730158729973 1125,10.158730158729973L1125,12.698412698412511C945,12.698412698412511 945,160.39682539682585 765,160.39682539682585Z" style="stroke: rgb(68, 68, 68); stroke-opacity: 1; fill: rgb(0, 204, 150); fill-opacity: 0.6; stroke-width: 0; opacity: 1;"/><path class="sankey-link" d="M765,581.0317460317464C945,581.0317460317464 945,566.2698412698414 1125,566.2698412698414L1125,568.8095238095241C945,568.8095238095241 945,583.571428571429 765,583.571428571429Z" style="stroke: rgb(68, 68, 68); stroke-opacity: 1; fill: rgb(0, 204, 150); fill-opacity: 0.6; stroke-width: 0; opacity: 1;"/><path class="sankey-link" d="M765,266.82539682539755C945,266.82539682539755 945,134.12698412698396 1125,134.12698412698396L1125,136.6666666666665C945,136.6666666666665 945,269.3650793650801 765,269.3650793650801Z" style="stroke: rgb(68, 68, 68); stroke-opacity: 1; fill: rgb(0, 204, 150); fill-opacity: 0.6; stroke-width: 0; opacity: 1;"/><path class="sankey-link" d="M765,310.0000000000007C945,310.0000000000007 945,192.30158730158718 1125,192.30158730158718L1125,194.8412698412697C945,194.8412698412697 945,312.5396825396832 765,312.5396825396832Z" style="stroke: rgb(68, 68, 68); stroke-opacity: 1; fill: rgb(0, 204, 150); fill-opacity: 0.6; stroke-width: 0; opacity: 1;"/><path class="sankey-link" d="M765,505.0793650793658C945,505.0793650793658 945,402.3809523809525 1125,402.3809523809525L1125,404.92063492063505C945,404.92063492063505 945,507.61904761904833 765,507.61904761904833Z" style="stroke: rgb(68, 68, 68); stroke-opacity: 1; fill: rgb(0, 204, 150); fill-opacity: 0.6; stroke-width: 0; opacity: 1;"/><path class="sankey-link" d="M765,368.17460317460393C945,368.17460317460393 945,250.47619047619037 1125,250.47619047619037L1125,255.55555555555543C945,255.55555555555543 945,373.253968253969 765,373.253968253969Z" style="stroke: rgb(68, 68, 68); stroke-opacity: 1; fill: rgb(0, 204, 150); fill-opacity: 0.6; stroke-width: 0; opacity: 1;"/><path class="sankey-link" d="M765,434.20634920634984C945,434.20634920634984 945,331.50793650793656 1125,331.50793650793656L1125,334.0476190476191C945,334.0476190476191 945,436.7460317460324 765,436.7460317460324Z" style="stroke: rgb(68, 68, 68); stroke-opacity: 1; fill: rgb(0, 204, 150); fill-opacity: 0.6; stroke-width: 0; opacity: 1;"/><path class="sankey-link" d="M765,687.2222222222226C945,687.2222222222226 945,714.9206349206349 1125,714.9206349206349L1125,717.4603174603176C945,717.4603174603176 945,689.7619047619053 765,689.7619047619053Z" style="stroke: rgb(68, 68, 68); stroke-opacity: 1; fill: rgb(0, 204, 150); fill-opacity: 0.6; stroke-width: 0; opacity: 1;"/><path class="sankey-link" d="M765,679.603174603175C945,679.603174603175 945,692.3015873015875 1125,692.3015873015875L1125,694.8412698412701C945,694.8412698412701 945,682.1428571428577 765,682.1428571428577Z" style="stroke: rgb(68, 68, 68); stroke-opacity: 1; fill: rgb(0, 204, 150); fill-opacity: 0.6; stroke-width: 0; opacity: 1;"/><path class="sankey-link" d="M765,211.19047619047663C945,211.19047619047663 945,78.49206349206335 1125,78.49206349206335L1125,81.03174603174588C945,81.03174603174588 945,213.73015873015916 765,213.73015873015916Z" style="stroke: rgb(68, 68, 68); stroke-opacity: 1; fill: rgb(254, 203, 82); fill-opacity: 0.6; stroke-width: 0; opacity: 1;"/><path class="sankey-link" d="M765,614.0476190476193C945,614.0476190476193 945,614.2857142857146 1125,614.2857142857146L1125,616.8253968253972C945,616.8253968253972 945,616.5873015873019 765,616.5873015873019Z" style="stroke: rgb(68, 68, 68); stroke-opacity: 1; fill: rgb(254, 203, 82); fill-opacity: 0.6; stroke-width: 0; opacity: 1;"/><path class="sankey-link" d="M765,583.5714285714289C945,583.5714285714289 945,568.809523809524 1125,568.809523809524L1125,573.888888888889C945,573.888888888889 945,588.650793650794 765,588.650793650794Z" style="stroke: rgb(68, 68, 68); stroke-opacity: 1; fill: rgb(254, 203, 82); fill-opacity: 0.6; stroke-width: 0; opacity: 1;"/><path class="sankey-link" d="M765,269.3650793650801C945,269.3650793650801 945,136.6666666666665 1125,136.6666666666665L1125,139.20634920634902C945,139.20634920634902 945,271.9047619047626 765,271.9047619047626Z" style="stroke: rgb(68, 68, 68); stroke-opacity: 1; fill: rgb(254, 203, 82); fill-opacity: 0.6; stroke-width: 0; opacity: 1;"/><path class="sankey-link" d="M765,540.6349206349213C945,540.6349206349213 945,452.936507936508 1125,452.936507936508L1125,458.01587301587307C945,458.01587301587307 945,545.7142857142863 765,545.7142857142863Z" style="stroke: rgb(68, 68, 68); stroke-opacity: 1; fill: rgb(254, 203, 82); fill-opacity: 0.6; stroke-width: 0; opacity: 1;"/><path class="sankey-link" d="M765,373.253968253969C945,373.253968253969 945,255.5555555555555 1125,255.5555555555555L1125,263.1746031746031C945,263.1746031746031 945,380.8730158730166 765,380.8730158730166Z" style="stroke: rgb(68, 68, 68); stroke-opacity: 1; fill: rgb(254, 203, 82); fill-opacity: 0.6; stroke-width: 0; opacity: 1;"/><path class="sankey-link" d="M765,160.39682539682585C945,160.39682539682585 945,12.698412698412515 1125,12.698412698412515L1125,15.238095238095053C945,15.238095238095053 945,162.93650793650838 765,162.93650793650838Z" style="stroke: rgb(68, 68, 68); stroke-opacity: 1; fill: rgb(255, 161, 90); fill-opacity: 0.6; stroke-width: 0; opacity: 1;"/><path class="sankey-link" d="M765,213.73015873015916C945,213.73015873015916 945,81.0317460317459 1125,81.0317460317459L1125,83.57142857142843C945,83.57142857142843 945,216.2698412698417 765,216.2698412698417Z" style="stroke: rgb(68, 68, 68); stroke-opacity: 1; fill: rgb(255, 161, 90); fill-opacity: 0.6; stroke-width: 0; opacity: 1;"/><path class="sankey-link" d="M765,709.84126984127C945,709.84126984127 945,649.6031746031749 1125,649.6031746031749L1125,652.1428571428576C945,652.1428571428576 945,712.3809523809526 765,712.3809523809526Z" style="stroke: rgb(68, 68, 68); stroke-opacity: 1; fill: rgb(255, 161, 90); fill-opacity: 0.6; stroke-width: 0; opacity: 1;"/><path class="sankey-link" d="M765,651.9047619047624C945,651.9047619047624 945,523.5714285714287 1125,523.5714285714287L1125,528.6507936507937C945,528.6507936507937 945,656.9841269841274 765,656.9841269841274Z" style="stroke: rgb(68, 68, 68); stroke-opacity: 1; fill: rgb(255, 161, 90); fill-opacity: 0.6; stroke-width: 0; opacity: 1;"/><path class="sankey-link" d="M765,271.9047619047626C945,271.9047619047626 945,139.20634920634902 1125,139.20634920634902L1125,144.28571428571408C945,144.28571428571408 945,276.98412698412767 765,276.98412698412767Z" style="stroke: rgb(68, 68, 68); stroke-opacity: 1; fill: rgb(255, 161, 90); fill-opacity: 0.6; stroke-width: 0; opacity: 1;"/><path class="sankey-link" d="M765,312.5396825396832C945,312.5396825396832 945,194.8412698412697 1125,194.8412698412697L1125,199.92063492063477C945,199.92063492063477 945,317.6190476190483 765,317.6190476190483Z" style="stroke: rgb(68, 68, 68); stroke-opacity: 1; fill: rgb(255, 161, 90); fill-opacity: 0.6; stroke-width: 0; opacity: 1;"/><path class="sankey-link" d="M765,545.7142857142863C945,545.7142857142863 945,458.01587301587307 1125,458.01587301587307L1125,463.09523809523813C945,463.09523809523813 945,550.7936507936514 765,550.7936507936514Z" style="stroke: rgb(68, 68, 68); stroke-opacity: 1; fill: rgb(255, 161, 90); fill-opacity: 0.6; stroke-width: 0; opacity: 1;"/><path class="sankey-link" d="M765,380.8730158730166C945,380.8730158730166 945,263.1746031746031 1125,263.1746031746031L1125,265.7142857142856C945,265.7142857142856 945,383.4126984126991 765,383.4126984126991Z" style="stroke: rgb(68, 68, 68); stroke-opacity: 1; fill: rgb(255, 161, 90); fill-opacity: 0.6; stroke-width: 0; opacity: 1;"/><path class="sankey-link" d="M765,436.7460317460324C945,436.7460317460324 945,334.0476190476191 1125,334.0476190476191L1125,339.12698412698415C945,339.12698412698415 945,441.82539682539743 765,441.82539682539743Z" style="stroke: rgb(68, 68, 68); stroke-opacity: 1; fill: rgb(255, 161, 90); fill-opacity: 0.6; stroke-width: 0; opacity: 1;"/><path class="sankey-link" d="M765,162.93650793650838C945,162.93650793650838 945,15.238095238095053 1125,15.238095238095053L1125,17.77777777777759C945,17.77777777777759 945,165.4761904761909 765,165.4761904761909Z" style="stroke: rgb(68, 68, 68); stroke-opacity: 1; fill: rgb(171, 99, 250); fill-opacity: 0.6; stroke-width: 0; opacity: 1;"/><path class="sankey-link" d="M765,216.2698412698417C945,216.2698412698417 945,83.57142857142844 1125,83.57142857142844L1125,91.19047619047606C945,91.19047619047606 945,223.88888888888928 765,223.88888888888928Z" style="stroke: rgb(68, 68, 68); stroke-opacity: 1; fill: rgb(171, 99, 250); fill-opacity: 0.6; stroke-width: 0; opacity: 1;"/><path class="sankey-link" d="M765,616.5873015873018C945,616.5873015873018 945,616.8253968253971 1125,616.8253968253971L1125,619.3650793650797C945,619.3650793650797 945,619.1269841269844 765,619.1269841269844Z" style="stroke: rgb(68, 68, 68); stroke-opacity: 1; fill: rgb(171, 99, 250); fill-opacity: 0.6; stroke-width: 0; opacity: 1;"/><path class="sankey-link" d="M765,588.650793650794C945,588.650793650794 945,573.888888888889 1125,573.888888888889L1125,581.5079365079367C945,581.5079365079367 945,596.2698412698417 765,596.2698412698417Z" style="stroke: rgb(68, 68, 68); stroke-opacity: 1; fill: rgb(171, 99, 250); fill-opacity: 0.6; stroke-width: 0; opacity: 1;"/><path class="sankey-link" d="M765,712.3809523809525C945,712.3809523809525 945,652.1428571428575 1125,652.1428571428575L1125,654.6825396825401C945,654.6825396825401 945,714.9206349206352 765,714.9206349206352Z" style="stroke: rgb(68, 68, 68); stroke-opacity: 1; fill: rgb(171, 99, 250); fill-opacity: 0.6; stroke-width: 0; opacity: 1;"/><path class="sankey-link" d="M765,656.9841269841274C945,656.9841269841274 945,528.6507936507937 1125,528.6507936507937L1125,531.1904761904764C945,531.1904761904764 945,659.5238095238101 765,659.5238095238101Z" style="stroke: rgb(68, 68, 68); stroke-opacity: 1; fill: rgb(171, 99, 250); fill-opacity: 0.6; stroke-width: 0; opacity: 1;"/><path class="sankey-link" d="M765,276.98412698412767C945,276.98412698412767 945,144.2857142857141 1125,144.2857142857141L1125,146.82539682539664C945,146.82539682539664 945,279.5238095238102 765,279.5238095238102Z" style="stroke: rgb(68, 68, 68); stroke-opacity: 1; fill: rgb(171, 99, 250); fill-opacity: 0.6; stroke-width: 0; opacity: 1;"/><path class="sankey-link" d="M765,317.6190476190483C945,317.6190476190483 945,199.9206349206348 1125,199.9206349206348L1125,204.99999999999986C945,204.99999999999986 945,322.69841269841334 765,322.69841269841334Z" style="stroke: rgb(68, 68, 68); stroke-opacity: 1; fill: rgb(171, 99, 250); fill-opacity: 0.6; stroke-width: 0; opacity: 1;"/><path class="sankey-link" d="M765,550.7936507936514C945,550.7936507936514 945,463.09523809523813 1125,463.09523809523813L1125,465.63492063492066C945,465.63492063492066 945,553.333333333334 765,553.333333333334Z" style="stroke: rgb(68, 68, 68); stroke-opacity: 1; fill: rgb(171, 99, 250); fill-opacity: 0.6; stroke-width: 0; opacity: 1;"/><path class="sankey-link" d="M765,507.61904761904833C945,507.61904761904833 945,404.92063492063505 1125,404.92063492063505L1125,417.6190476190477C945,417.6190476190477 945,520.317460317461 765,520.317460317461Z" style="stroke: rgb(68, 68, 68); stroke-opacity: 1; fill: rgb(171, 99, 250); fill-opacity: 0.6; stroke-width: 0; opacity: 1;"/><path class="sankey-link" d="M765,383.4126984126991C945,383.4126984126991 945,265.7142857142856 1125,265.7142857142856L1125,270.79365079365067C945,270.79365079365067 945,388.4920634920642 765,388.4920634920642Z" style="stroke: rgb(68, 68, 68); stroke-opacity: 1; fill: rgb(171, 99, 250); fill-opacity: 0.6; stroke-width: 0; opacity: 1;"/><path class="sankey-link" d="M765,441.82539682539743C945,441.82539682539743 945,339.12698412698415 1125,339.12698412698415L1125,346.74603174603175C945,346.74603174603175 945,449.444444444445 765,449.444444444445Z" style="stroke: rgb(68, 68, 68); stroke-opacity: 1; fill: rgb(171, 99, 250); fill-opacity: 0.6; stroke-width: 0; opacity: 1;"/><path class="sankey-link" d="M765,689.7619047619052C945,689.7619047619052 945,717.4603174603175 1125,717.4603174603175L1125,720.0000000000001C945,720.0000000000001 945,692.3015873015878 765,692.3015873015878Z" style="stroke: rgb(68, 68, 68); stroke-opacity: 1; fill: rgb(171, 99, 250); fill-opacity: 0.6; stroke-width: 0; opacity: 1;"/><path class="sankey-link" d="M765,165.4761904761909C945,165.4761904761909 945,17.77777777777759 1125,17.77777777777759L1125,55.87301587301569C945,55.87301587301569 945,203.57142857142898 765,203.57142857142898Z" style="stroke: rgb(68, 68, 68); stroke-opacity: 1; fill: rgb(239, 85, 59); fill-opacity: 0.6; stroke-width: 0; opacity: 1;"/><path class="sankey-link" d="M765,223.8888888888893C945,223.8888888888893 945,91.19047619047606 1125,91.19047619047606L1125,98.80952380952368C945,98.80952380952368 945,231.5079365079369 765,231.5079365079369Z" style="stroke: rgb(68, 68, 68); stroke-opacity: 1; fill: rgb(239, 85, 59); fill-opacity: 0.6; stroke-width: 0; opacity: 1;"/><path class="sankey-link" d="M765,619.1269841269843C945,619.1269841269843 945,619.3650793650796 1125,619.3650793650796L1125,629.5238095238097C945,629.5238095238097 945,629.2857142857144 765,629.2857142857144Z" style="stroke: rgb(68, 68, 68); stroke-opacity: 1; fill: rgb(239, 85, 59); fill-opacity: 0.6; stroke-width: 0; opacity: 1;"/><path class="sankey-link" d="M765,596.2698412698415C945,596.2698412698415 945,581.5079365079366 1125,581.5079365079366L1125,596.7460317460318C945,596.7460317460318 945,611.5079365079367 765,611.5079365079367Z" style="stroke: rgb(68, 68, 68); stroke-opacity: 1; fill: rgb(239, 85, 59); fill-opacity: 0.6; stroke-width: 0; opacity: 1;"/><path class="sankey-link" d="M765,279.5238095238102C945,279.5238095238102 945,146.82539682539664 1125,146.82539682539664L1125,159.52380952380935C945,159.52380952380935 945,292.22222222222285 765,292.22222222222285Z" style="stroke: rgb(68, 68, 68); stroke-opacity: 1; fill: rgb(239, 85, 59); fill-opacity: 0.6; stroke-width: 0; opacity: 1;"/><path class="sankey-link" d="M765,322.69841269841334C945,322.69841269841334 945,204.9999999999999 1125,204.9999999999999L1125,212.61904761904748C945,212.61904761904748 945,330.3174603174609 765,330.3174603174609Z" style="stroke: rgb(68, 68, 68); stroke-opacity: 1; fill: rgb(239, 85, 59); fill-opacity: 0.6; stroke-width: 0; opacity: 1;"/><path class="sankey-link" d="M765,553.3333333333339C945,553.3333333333339 945,465.63492063492066 1125,465.63492063492066L1125,475.7936507936508C945,475.7936507936508 945,563.4920634920641 765,563.4920634920641Z" style="stroke: rgb(68, 68, 68); stroke-opacity: 1; fill: rgb(239, 85, 59); fill-opacity: 0.6; stroke-width: 0; opacity: 1;"/><path class="sankey-link" d="M765,520.317460317461C945,520.317460317461 945,417.61904761904776 1125,417.61904761904776L1125,427.7777777777779C945,427.7777777777779 945,530.4761904761912 765,530.4761904761912Z" style="stroke: rgb(68, 68, 68); stroke-opacity: 1; fill: rgb(239, 85, 59); fill-opacity: 0.6; stroke-width: 0; opacity: 1;"/><path class="sankey-link" d="M765,388.4920634920642C945,388.4920634920642 945,270.79365079365067 1125,270.79365079365067L1125,301.26984126984115C945,301.26984126984115 945,418.96825396825466 765,418.96825396825466Z" style="stroke: rgb(68, 68, 68); stroke-opacity: 1; fill: rgb(239, 85, 59); fill-opacity: 0.6; stroke-width: 0; opacity: 1;"/><path class="sankey-link" d="M765,449.444444444445C945,449.444444444445 945,346.74603174603175 1125,346.74603174603175L1125,364.5238095238096C945,364.5238095238096 945,467.22222222222285 765,467.22222222222285Z" style="stroke: rgb(68, 68, 68); stroke-opacity: 1; fill: rgb(239, 85, 59); fill-opacity: 0.6; stroke-width: 0; opacity: 1;"/><path class="sankey-link" d="M765,682.1428571428576C945,682.1428571428576 945,694.84126984127 1125,694.84126984127L1125,697.3809523809526C945,697.3809523809526 945,684.6825396825402 765,684.6825396825402Z" style="stroke: rgb(68, 68, 68); stroke-opacity: 1; fill: rgb(239, 85, 59); fill-opacity: 0.6; stroke-width: 0; opacity: 1;"/><path class="sankey-link" d="M765,231.50793650793693C945,231.50793650793693 945,98.80952380952368 1125,98.80952380952368L1125,101.34920634920621C945,101.34920634920621 945,234.04761904761946 765,234.04761904761946Z" style="stroke: rgb(68, 68, 68); stroke-opacity: 1; fill: rgb(182, 232, 128); fill-opacity: 0.6; stroke-width: 0; opacity: 1;"/><path class="sankey-link" d="M765,629.2857142857144C945,629.2857142857144 945,629.5238095238097 1125,629.5238095238097L1125,632.0634920634924C945,632.0634920634924 945,631.8253968253971 765,631.8253968253971Z" style="stroke: rgb(68, 68, 68); stroke-opacity: 1; fill: rgb(182, 232, 128); fill-opacity: 0.6; stroke-width: 0; opacity: 1;"/><path class="sankey-link" d="M765,611.5079365079367C945,611.5079365079367 945,596.7460317460318 1125,596.7460317460318L1125,599.2857142857144C945,599.2857142857144 945,614.0476190476194 765,614.0476190476194Z" style="stroke: rgb(68, 68, 68); stroke-opacity: 1; fill: rgb(182, 232, 128); fill-opacity: 0.6; stroke-width: 0; opacity: 1;"/><path class="sankey-link" d="M765,659.52380952381C945,659.52380952381 945,546.1904761904764 1125,546.1904761904764L1125,548.730158730159C945,548.730158730159 945,662.0634920634926 765,662.0634920634926Z" style="stroke: rgb(68, 68, 68); stroke-opacity: 1; fill: rgb(182, 232, 128); fill-opacity: 0.6; stroke-width: 0; opacity: 1;"/><path class="sankey-link" d="M765,292.2222222222229C945,292.2222222222229 945,159.52380952380935 1125,159.52380952380935L1125,162.06349206349188C945,162.06349206349188 945,294.76190476190544 765,294.76190476190544Z" style="stroke: rgb(68, 68, 68); stroke-opacity: 1; fill: rgb(182, 232, 128); fill-opacity: 0.6; stroke-width: 0; opacity: 1;"/><path class="sankey-link" d="M765,330.3174603174609C945,330.3174603174609 945,212.6190476190475 1125,212.6190476190475L1125,220.2380952380951C945,220.2380952380951 945,337.9365079365085 765,337.9365079365085Z" style="stroke: rgb(68, 68, 68); stroke-opacity: 1; fill: rgb(182, 232, 128); fill-opacity: 0.6; stroke-width: 0; opacity: 1;"/><path class="sankey-link" d="M765,530.4761904761912C945,530.4761904761912 945,427.77777777777794 1125,427.77777777777794L1125,430.3174603174605C945,430.3174603174605 945,533.0158730158738 765,533.0158730158738Z" style="stroke: rgb(68, 68, 68); stroke-opacity: 1; fill: rgb(182, 232, 128); fill-opacity: 0.6; stroke-width: 0; opacity: 1;"/><path class="sankey-link" d="M765,418.96825396825466C945,418.96825396825466 945,301.26984126984115 1125,301.26984126984115L1125,306.3492063492062C945,306.3492063492062 945,424.0476190476197 765,424.0476190476197Z" style="stroke: rgb(68, 68, 68); stroke-opacity: 1; fill: rgb(182, 232, 128); fill-opacity: 0.6; stroke-width: 0; opacity: 1;"/><path class="sankey-link" d="M765,467.2222222222228C945,467.2222222222228 945,364.5238095238095 1125,364.5238095238095L1125,374.68253968253964C945,374.68253968253964 945,477.3809523809529 765,477.3809523809529Z" style="stroke: rgb(68, 68, 68); stroke-opacity: 1; fill: rgb(182, 232, 128); fill-opacity: 0.6; stroke-width: 0; opacity: 1;"/><path class="sankey-link" d="M765,717.4603174603176C945,717.4603174603176 945,672.2222222222224 1125,672.2222222222224L1125,674.761904761905C945,674.761904761905 945,720.0000000000002 765,720.0000000000002Z" style="stroke: rgb(68, 68, 68); stroke-opacity: 1; fill: rgb(255, 102, 146); fill-opacity: 0.6; stroke-width: 0; opacity: 1;"/></g><g class="sankey-node-set" style="cursor: move;"><g class="sankey-node" transform="translate(0.000,550.317)" style="opacity: 1;"><rect class="node-rect" width="15" height="53.33333333333326" style="stroke-width: 0.5; stroke: rgb(0, 0, 0); stroke-opacity: 1; fill: rgb(128, 128, 128); fill-opacity: 1;"/><text class="node-label" data-notex="1" x="0" y="0" text-anchor="start" transform="translate(18.25,30.866666666666628)" style="cursor: default; font-family: 'Open Sans', verdana, arial, sans-serif; font-size: 12px; fill: rgb(42, 63, 95); fill-opacity: 1; white-space: pre; text-shadow: white 1px 1px 1px, white -1px -1px 1px, white 1px -1px 1px, white -1px 1px 1px;">21271R</text></g><g class="sankey-node" transform="translate(0.000,618.651)" style="opacity: 1;"><rect class="node-rect" width="15" height="40.634920634920604" style="stroke-width: 0.5; stroke: rgb(0, 0, 0); stroke-opacity: 1; fill: rgb(128, 128, 128); fill-opacity: 1;"/><text class="node-label" data-notex="1" x="0" y="0" text-anchor="start" transform="translate(18.25,24.5174603174603)" style="cursor: default; font-family: 'Open Sans', verdana, arial, sans-serif; font-size: 12px; fill: rgb(42, 63, 95); fill-opacity: 1; white-space: pre; text-shadow: white 1px 1px 1px, white -1px -1px 1px, white 1px -1px 1px, white -1px 1px 1px;">21272R</text></g><g class="sankey-node" transform="translate(0.000,674.286)" style="opacity: 1;"><rect class="node-rect" width="15" height="45.71428571428578" style="stroke-width: 0.5; stroke: rgb(0, 0, 0); stroke-opacity: 1; fill: rgb(128, 128, 128); fill-opacity: 1;"/><text class="node-label" data-notex="1" x="0" y="0" text-anchor="start" transform="translate(18.25,27.05714285714289)" style="cursor: default; font-family: 'Open Sans', verdana, arial, sans-serif; font-size: 12px; fill: rgb(42, 63, 95); fill-opacity: 1; white-space: pre; text-shadow: white 1px 1px 1px, white -1px -1px 1px, white 1px -1px 1px, white -1px 1px 1px;">21965RL</text></g><g class="sankey-node" transform="translate(0.000,101.270)" style="opacity: 1;"><rect class="node-rect" width="15" height="208.25396825396834" style="stroke-width: 0.5; stroke: rgb(0, 0, 0); stroke-opacity: 1; fill: rgb(128, 128, 128); fill-opacity: 1;"/><text class="node-label" data-notex="1" x="0" y="0" text-anchor="start" transform="translate(18.25,108.32698412698417)" style="cursor: default; font-family: 'Open Sans', verdana, arial, sans-serif; font-size: 12px; fill: rgb(42, 63, 95); fill-opacity: 1; white-space: pre; text-shadow: white 1px 1px 1px, white -1px -1px 1px, white 1px -1px 1px, white -1px 1px 1px;">22384</text></g><g class="sankey-node" transform="translate(0.000,324.524)" style="opacity: 1;"><rect class="node-rect" width="15" height="210.79365079365095" style="stroke-width: 0.5; stroke: rgb(0, 0, 0); stroke-opacity: 1; fill: rgb(128, 128, 128); fill-opacity: 1;"/><text class="node-label" data-notex="1" x="0" y="0" text-anchor="start" transform="translate(18.25,109.59682539682548)" style="cursor: default; font-family: 'Open Sans', verdana, arial, sans-serif; font-size: 12px; fill: rgb(42, 63, 95); fill-opacity: 1; white-space: pre; text-shadow: white 1px 1px 1px, white -1px -1px 1px, white 1px -1px 1px, white -1px 1px 1px;">22670</text></g><g class="sankey-node" transform="translate(750.000,147.698)" style="opacity: 1;"><rect class="node-rect" width="15" height="86.34920634920661" style="stroke-width: 0.5; stroke: rgb(0, 0, 0); stroke-opacity: 1; fill: rgb(128, 128, 128); fill-opacity: 1;"/><text class="node-label" data-notex="1" x="0" y="0" text-anchor="start" transform="translate(18.25,47.37460317460331)" style="cursor: default; font-family: 'Open Sans', verdana, arial, sans-serif; font-size: 12px; fill: rgb(42, 63, 95); fill-opacity: 1; white-space: pre; text-shadow: white 1px 1px 1px, white -1px -1px 1px, white 1px -1px 1px, white -1px 1px 1px;">attacking</text></g><g class="sankey-node" transform="translate(750.000,707.302)" style="opacity: 1;"><rect class="node-rect" width="15" height="12.69841269841254" style="stroke-width: 0.5; stroke: rgb(0, 0, 0); stroke-opacity: 1; fill: rgb(128, 128, 128); fill-opacity: 1;"/><text class="node-label" data-notex="1" x="0" y="0" text-anchor="start" transform="translate(18.25,10.549206349206269)" style="cursor: default; font-family: 'Open Sans', verdana, arial, sans-serif; font-size: 12px; fill: rgb(42, 63, 95); fill-opacity: 1; white-space: pre; text-shadow: white 1px 1px 1px, white -1px -1px 1px, white 1px -1px 1px, white -1px 1px 1px;">dig</text></g><g class="sankey-node" transform="translate(750.000,646.825)" style="opacity: 1;"><rect class="node-rect" width="15" height="15.238095238095184" style="stroke-width: 0.5; stroke: rgb(0, 0, 0); stroke-opacity: 1; fill: rgb(128, 128, 128); fill-opacity: 1;"/><text class="node-label" data-notex="1" x="0" y="0" text-anchor="start" transform="translate(18.25,11.819047619047591)" style="cursor: default; font-family: 'Open Sans', verdana, arial, sans-serif; font-size: 12px; fill: rgb(42, 63, 95); fill-opacity: 1; white-space: pre; text-shadow: white 1px 1px 1px, white -1px -1px 1px, white 1px -1px 1px, white -1px 1px 1px;">groom</text></g><g class="sankey-node" transform="translate(750.000,249.048)" style="opacity: 1;"><rect class="node-rect" width="15" height="88.88888888888891" style="stroke-width: 0.5; stroke: rgb(0, 0, 0); stroke-opacity: 1; fill: rgb(128, 128, 128); fill-opacity: 1;"/><text class="node-label" data-notex="1" x="0" y="0" text-anchor="start" transform="translate(18.25,48.64444444444446)" style="cursor: default; font-family: 'Open Sans', verdana, arial, sans-serif; font-size: 12px; fill: rgb(42, 63, 95); fill-opacity: 1; white-space: pre; text-shadow: white 1px 1px 1px, white -1px -1px 1px, white 1px -1px 1px, white -1px 1px 1px;">move</text></g><g class="sankey-node" transform="translate(750.000,492.381)" style="opacity: 1;"><rect class="node-rect" width="15" height="71.11111111111074" style="stroke-width: 0.5; stroke: rgb(0, 0, 0); stroke-opacity: 1; fill: rgb(128, 128, 128); fill-opacity: 1;"/><text class="node-label" data-notex="1" x="0" y="0" text-anchor="start" transform="translate(18.25,39.755555555555375)" style="cursor: default; font-family: 'Open Sans', verdana, arial, sans-serif; font-size: 12px; fill: rgb(42, 63, 95); fill-opacity: 1; white-space: pre; text-shadow: white 1px 1px 1px, white -1px -1px 1px, white 1px -1px 1px, white -1px 1px 1px;">sniff</text></g><g class="sankey-node" transform="translate(750.000,352.937)" style="opacity: 1;"><rect class="node-rect" width="15" height="124.4444444444444" style="stroke-width: 0.5; stroke: rgb(0, 0, 0); stroke-opacity: 1; fill: rgb(128, 128, 128); fill-opacity: 1;"/><text class="node-label" data-notex="1" x="0" y="0" text-anchor="start" transform="translate(18.25,66.4222222222222)" style="cursor: default; font-family: 'Open Sans', verdana, arial, sans-serif; font-size: 12px; fill: rgb(42, 63, 95); fill-opacity: 1; white-space: pre; text-shadow: white 1px 1px 1px, white -1px -1px 1px, white 1px -1px 1px, white -1px 1px 1px;">social</text></g><g class="sankey-node" transform="translate(750.000,677.063)" style="opacity: 1;"><rect class="node-rect" width="15" height="15.238095238094957" style="stroke-width: 0.5; stroke: rgb(0, 0, 0); stroke-opacity: 1; fill: rgb(128, 128, 128); fill-opacity: 1;"/><text class="node-label" data-notex="1" x="0" y="0" text-anchor="start" transform="translate(18.25,11.819047619047478)" style="cursor: default; font-family: 'Open Sans', verdana, arial, sans-serif; font-size: 12px; fill: rgb(42, 63, 95); fill-opacity: 1; white-space: pre; text-shadow: white 1px 1px 1px, white -1px -1px 1px, white 1px -1px 1px, white -1px 1px 1px;">still</text></g><g class="sankey-node" transform="translate(750.000,578.492)" style="opacity: 1;"><rect class="node-rect" width="15" height="53.333333333333485" style="stroke-width: 0.5; stroke: rgb(0, 0, 0); stroke-opacity: 1; fill: rgb(128, 128, 128); fill-opacity: 1;"/><text class="node-label" data-notex="1" x="0" y="0" text-anchor="start" transform="translate(18.25,30.86666666666674)" style="cursor: default; font-family: 'Open Sans', verdana, arial, sans-serif; font-size: 12px; fill: rgb(42, 63, 95); fill-opacity: 1; white-space: pre; text-shadow: white 1px 1px 1px, white -1px -1px 1px, white 1px -1px 1px, white -1px 1px 1px;">being_attack</text></g><g class="sankey-node" transform="translate(1125.000,-0.000)" style="opacity: 1;"><rect class="node-rect" width="15" height="55.873015873015916" style="stroke-width: 0.5; stroke: rgb(0, 0, 0); stroke-opacity: 1; fill: rgb(128, 128, 128); fill-opacity: 1;"/><text class="node-label" data-notex="1" x="0" y="0" text-anchor="end" transform="translate(-3.25,32.136507936507954)" style="cursor: default; font-family: 'Open Sans', verdana, arial, sans-serif; font-size: 12px; fill: rgb(42, 63, 95); fill-opacity: 1; white-space: pre; text-shadow: white 1px 1px 1px, white -1px -1px 1px, white 1px -1px 1px, white -1px 1px 1px;">attacking-activated</text></g><g class="sankey-node" transform="translate(1125.000,669.683)" style="opacity: 1;"><rect class="node-rect" width="15" height="5.079365079365061" style="stroke-width: 0.5; stroke: rgb(0, 0, 0); stroke-opacity: 1; fill: rgb(128, 128, 128); fill-opacity: 1;"/><text class="node-label" data-notex="1" x="0" y="0" text-anchor="end" transform="translate(-3.25,6.73968253968253)" style="cursor: default; font-family: 'Open Sans', verdana, arial, sans-serif; font-size: 12px; fill: rgb(42, 63, 95); fill-opacity: 1; white-space: pre; text-shadow: white 1px 1px 1px, white -1px -1px 1px, white 1px -1px 1px, white -1px 1px 1px;">dig-suppressed</text></g><g class="sankey-node" transform="translate(1125.000,518.492)" style="opacity: 1;"><rect class="node-rect" width="15" height="12.698412698412767" style="stroke-width: 0.5; stroke: rgb(0, 0, 0); stroke-opacity: 1; fill: rgb(128, 128, 128); fill-opacity: 1;"/><text class="node-label" data-notex="1" x="0" y="0" text-anchor="end" transform="translate(-3.25,10.549206349206383)" style="cursor: default; font-family: 'Open Sans', verdana, arial, sans-serif; font-size: 12px; fill: rgb(42, 63, 95); fill-opacity: 1; white-space: pre; text-shadow: white 1px 1px 1px, white -1px -1px 1px, white 1px -1px 1px, white -1px 1px 1px;">groom-activated</text></g><g class="sankey-node" transform="translate(1125.000,116.349)" style="opacity: 1;"><rect class="node-rect" width="15" height="45.71428571428575" style="stroke-width: 0.5; stroke: rgb(0, 0, 0); stroke-opacity: 1; fill: rgb(128, 128, 128); fill-opacity: 1;"/><text class="node-label" data-notex="1" x="0" y="0" text-anchor="end" transform="translate(-3.25,27.057142857142875)" style="cursor: default; font-family: 'Open Sans', verdana, arial, sans-serif; font-size: 12px; fill: rgb(42, 63, 95); fill-opacity: 1; white-space: pre; text-shadow: white 1px 1px 1px, white -1px -1px 1px, white 1px -1px 1px, white -1px 1px 1px;">move-activated</text></g><g class="sankey-node" transform="translate(1125.000,445.317)" style="opacity: 1;"><rect class="node-rect" width="15" height="30.47619047619054" style="stroke-width: 0.5; stroke: rgb(0, 0, 0); stroke-opacity: 1; fill: rgb(128, 128, 128); fill-opacity: 1;"/><text class="node-label" data-notex="1" x="0" y="0" text-anchor="end" transform="translate(-3.25,19.43809523809527)" style="cursor: default; font-family: 'Open Sans', verdana, arial, sans-serif; font-size: 12px; fill: rgb(42, 63, 95); fill-opacity: 1; white-space: pre; text-shadow: white 1px 1px 1px, white -1px -1px 1px, white 1px -1px 1px, white -1px 1px 1px;">sniff-activated</text></g><g class="sankey-node" transform="translate(1125.000,235.238)" style="opacity: 1;"><rect class="node-rect" width="15" height="71.11111111111131" style="stroke-width: 0.5; stroke: rgb(0, 0, 0); stroke-opacity: 1; fill: rgb(128, 128, 128); fill-opacity: 1;"/><text class="node-label" data-notex="1" x="0" y="0" text-anchor="end" transform="translate(-3.25,39.75555555555566)" style="cursor: default; font-family: 'Open Sans', verdana, arial, sans-serif; font-size: 12px; fill: rgb(42, 63, 95); fill-opacity: 1; white-space: pre; text-shadow: white 1px 1px 1px, white -1px -1px 1px, white 1px -1px 1px, white -1px 1px 1px;">social-activated</text></g><g class="sankey-node" transform="translate(1125.000,689.762)" style="opacity: 1;"><rect class="node-rect" width="15" height="7.619047619047478" style="stroke-width: 0.5; stroke: rgb(0, 0, 0); stroke-opacity: 1; fill: rgb(128, 128, 128); fill-opacity: 1;"/><text class="node-label" data-notex="1" x="0" y="0" text-anchor="end" transform="translate(-3.25,8.009523809523738)" style="cursor: default; font-family: 'Open Sans', verdana, arial, sans-serif; font-size: 12px; fill: rgb(42, 63, 95); fill-opacity: 1; white-space: pre; text-shadow: white 1px 1px 1px, white -1px -1px 1px, white 1px -1px 1px, white -1px 1px 1px;">still-suppressed</text></g><g class="sankey-node" transform="translate(1125.000,321.349)" style="opacity: 1;"><rect class="node-rect" width="15" height="53.33333333333337" style="stroke-width: 0.5; stroke: rgb(0, 0, 0); stroke-opacity: 1; fill: rgb(128, 128, 128); fill-opacity: 1;"/><text class="node-label" data-notex="1" x="0" y="0" text-anchor="end" transform="translate(-3.25,30.866666666666685)" style="cursor: default; font-family: 'Open Sans', verdana, arial, sans-serif; font-size: 12px; fill: rgb(42, 63, 95); fill-opacity: 1; white-space: pre; text-shadow: white 1px 1px 1px, white -1px -1px 1px, white 1px -1px 1px, white -1px 1px 1px;">social-suppressed</text></g><g class="sankey-node" transform="translate(1125.000,177.063)" style="opacity: 1;"><rect class="node-rect" width="15" height="43.17460317460319" style="stroke-width: 0.5; stroke: rgb(0, 0, 0); stroke-opacity: 1; fill: rgb(128, 128, 128); fill-opacity: 1;"/><text class="node-label" data-notex="1" x="0" y="0" text-anchor="end" transform="translate(-3.25,25.787301587301595)" style="cursor: default; font-family: 'Open Sans', verdana, arial, sans-serif; font-size: 12px; fill: rgb(42, 63, 95); fill-opacity: 1; white-space: pre; text-shadow: white 1px 1px 1px, white -1px -1px 1px, white 1px -1px 1px, white -1px 1px 1px;">move-suppressed</text></g><g class="sankey-node" transform="translate(1125.000,389.683)" style="opacity: 1;"><rect class="node-rect" width="15" height="40.634920634920604" style="stroke-width: 0.5; stroke: rgb(0, 0, 0); stroke-opacity: 1; fill: rgb(128, 128, 128); fill-opacity: 1;"/><text class="node-label" data-notex="1" x="0" y="0" text-anchor="end" transform="translate(-3.25,24.5174603174603)" style="cursor: default; font-family: 'Open Sans', verdana, arial, sans-serif; font-size: 12px; fill: rgb(42, 63, 95); fill-opacity: 1; white-space: pre; text-shadow: white 1px 1px 1px, white -1px -1px 1px, white 1px -1px 1px, white -1px 1px 1px;">sniff-suppressed</text></g><g class="sankey-node" transform="translate(1125.000,546.190)" style="opacity: 1;"><rect class="node-rect" width="15" height="2.5396825396825307" style="stroke-width: 0.5; stroke: rgb(0, 0, 0); stroke-opacity: 1; fill: rgb(128, 128, 128); fill-opacity: 1;"/><text class="node-label" data-notex="1" x="0" y="0" text-anchor="end" transform="translate(-3.25,5.469841269841265)" style="cursor: default; font-family: 'Open Sans', verdana, arial, sans-serif; font-size: 12px; fill: rgb(42, 63, 95); fill-opacity: 1; white-space: pre; text-shadow: white 1px 1px 1px, white -1px -1px 1px, white 1px -1px 1px, white -1px 1px 1px;">groom-suppressed</text></g><g class="sankey-node" transform="translate(1125.000,647.063)" style="opacity: 1;"><rect class="node-rect" width="15" height="7.619047619047478" style="stroke-width: 0.5; stroke: rgb(0, 0, 0); stroke-opacity: 1; fill: rgb(128, 128, 128); fill-opacity: 1;"/><text class="node-label" data-notex="1" x="0" y="0" text-anchor="end" transform="translate(-3.25,8.009523809523738)" style="cursor: default; font-family: 'Open Sans', verdana, arial, sans-serif; font-size: 12px; fill: rgb(42, 63, 95); fill-opacity: 1; white-space: pre; text-shadow: white 1px 1px 1px, white -1px -1px 1px, white 1px -1px 1px, white -1px 1px 1px;">dig-activated</text></g><g class="sankey-node" transform="translate(1125.000,712.381)" style="opacity: 1;"><rect class="node-rect" width="15" height="7.619047619047592" style="stroke-width: 0.5; stroke: rgb(0, 0, 0); stroke-opacity: 1; fill: rgb(128, 128, 128); fill-opacity: 1;"/><text class="node-label" data-notex="1" x="0" y="0" text-anchor="end" transform="translate(-3.25,8.009523809523795)" style="cursor: default; font-family: 'Open Sans', verdana, arial, sans-serif; font-size: 12px; fill: rgb(42, 63, 95); fill-opacity: 1; white-space: pre; text-shadow: white 1px 1px 1px, white -1px -1px 1px, white 1px -1px 1px, white -1px 1px 1px;">still-activated</text></g><g class="sankey-node" transform="translate(1125.000,70.873)" style="opacity: 1;"><rect class="node-rect" width="15" height="30.476190476190453" style="stroke-width: 0.5; stroke: rgb(0, 0, 0); stroke-opacity: 1; fill: rgb(128, 128, 128); fill-opacity: 1;"/><text class="node-label" data-notex="1" x="0" y="0" text-anchor="end" transform="translate(-3.25,19.438095238095226)" style="cursor: default; font-family: 'Open Sans', verdana, arial, sans-serif; font-size: 12px; fill: rgb(42, 63, 95); fill-opacity: 1; white-space: pre; text-shadow: white 1px 1px 1px, white -1px -1px 1px, white 1px -1px 1px, white -1px 1px 1px;">attacking-suppressed</text></g><g class="sankey-node" transform="translate(1125.000,563.730)" style="opacity: 1;"><rect class="node-rect" width="15" height="35.55555555555566" style="stroke-width: 0.5; stroke: rgb(0, 0, 0); stroke-opacity: 1; fill: rgb(128, 128, 128); fill-opacity: 1;"/><text class="node-label" data-notex="1" x="0" y="0" text-anchor="end" transform="translate(-3.25,21.977777777777828)" style="cursor: default; font-family: 'Open Sans', verdana, arial, sans-serif; font-size: 12px; fill: rgb(42, 63, 95); fill-opacity: 1; white-space: pre; text-shadow: white 1px 1px 1px, white -1px -1px 1px, white 1px -1px 1px, white -1px 1px 1px;">being_attack-suppressed</text></g><g class="sankey-node" transform="translate(1125.000,614.286)" style="opacity: 1;"><rect class="node-rect" width="15" height="17.77777777777783" style="stroke-width: 0.5; stroke: rgb(0, 0, 0); stroke-opacity: 1; fill: rgb(128, 128, 128); fill-opacity: 1;"/><text class="node-label" data-notex="1" x="0" y="0" text-anchor="end" transform="translate(-3.25,13.088888888888913)" style="cursor: default; font-family: 'Open Sans', verdana, arial, sans-serif; font-size: 12px; fill: rgb(42, 63, 95); fill-opacity: 1; white-space: pre; text-shadow: white 1px 1px 1px, white -1px -1px 1px, white 1px -1px 1px, white -1px 1px 1px;">being_attack-activated</text></g><g class="sankey-node" transform="translate(375.000,259.444)" style="opacity: 1;"><rect class="node-rect" width="15" height="101.58730158730134" style="stroke-width: 0.5; stroke: rgb(0, 0, 0); stroke-opacity: 1; fill: rgb(99, 110, 250); fill-opacity: 1;"/><text class="node-label" data-notex="1" x="0" y="0" text-anchor="start" transform="translate(18.25,54.99365079365067)" style="cursor: default; font-family: 'Open Sans', verdana, arial, sans-serif; font-size: 12px; fill: rgb(42, 63, 95); fill-opacity: 1; white-space: pre; text-shadow: white 1px 1px 1px, white -1px -1px 1px, white 1px -1px 1px, white -1px 1px 1px;">Cla</text></g><g class="sankey-node" transform="translate(375.000,36.190)" style="opacity: 1;"><rect class="node-rect" width="15" height="208.25396825396794" style="stroke-width: 0.5; stroke: rgb(0, 0, 0); stroke-opacity: 1; fill: rgb(239, 85, 59); fill-opacity: 1;"/><text class="node-label" data-notex="1" x="0" y="0" text-anchor="start" transform="translate(18.25,108.32698412698397)" style="cursor: default; font-family: 'Open Sans', verdana, arial, sans-serif; font-size: 12px; fill: rgb(42, 63, 95); fill-opacity: 1; white-space: pre; text-shadow: white 1px 1px 1px, white -1px -1px 1px, white 1px -1px 1px, white -1px 1px 1px;">VTA</text></g><g class="sankey-node" transform="translate(375.000,583.571)" style="opacity: 1;"><rect class="node-rect" width="15" height="30.476190476190368" style="stroke-width: 0.5; stroke: rgb(0, 0, 0); stroke-opacity: 1; fill: rgb(0, 204, 150); fill-opacity: 1;"/><text class="node-label" data-notex="1" x="0" y="0" text-anchor="start" transform="translate(18.25,19.438095238095183)" style="cursor: default; font-family: 'Open Sans', verdana, arial, sans-serif; font-size: 12px; fill: rgb(42, 63, 95); fill-opacity: 1; white-space: pre; text-shadow: white 1px 1px 1px, white -1px -1px 1px, white 1px -1px 1px, white -1px 1px 1px;">LC</text></g><g class="sankey-node" transform="translate(375.000,502.540)" style="opacity: 1;"><rect class="node-rect" width="15" height="66.03174603174602" style="stroke-width: 0.5; stroke: rgb(0, 0, 0); stroke-opacity: 1; fill: rgb(171, 99, 250); fill-opacity: 1;"/><text class="node-label" data-notex="1" x="0" y="0" text-anchor="start" transform="translate(18.25,37.215873015873015)" style="cursor: default; font-family: 'Open Sans', verdana, arial, sans-serif; font-size: 12px; fill: rgb(42, 63, 95); fill-opacity: 1; white-space: pre; text-shadow: white 1px 1px 1px, white -1px -1px 1px, white 1px -1px 1px, white -1px 1px 1px;">Str</text></g><g class="sankey-node" transform="translate(375.000,629.048)" style="opacity: 1;"><rect class="node-rect" width="15" height="35.55555555555566" style="stroke-width: 0.5; stroke: rgb(0, 0, 0); stroke-opacity: 1; fill: rgb(255, 161, 90); fill-opacity: 1;"/><text class="node-label" data-notex="1" x="0" y="0" text-anchor="start" transform="translate(18.25,21.977777777777828)" style="cursor: default; font-family: 'Open Sans', verdana, arial, sans-serif; font-size: 12px; fill: rgb(42, 63, 95); fill-opacity: 1; white-space: pre; text-shadow: white 1px 1px 1px, white -1px -1px 1px, white 1px -1px 1px, white -1px 1px 1px;">NAc</text></g><g class="sankey-node" transform="translate(375.000,697.143)" style="opacity: 1;"><rect class="node-rect" width="15" height="22.857142857143003" style="stroke-width: 0.5; stroke: rgb(0, 0, 0); stroke-opacity: 1; fill: rgb(25, 211, 243); fill-opacity: 1;"/><text class="node-label" data-notex="1" x="0" y="0" text-anchor="start" transform="translate(18.25,15.628571428571501)" style="cursor: default; font-family: 'Open Sans', verdana, arial, sans-serif; font-size: 12px; fill: rgb(42, 63, 95); fill-opacity: 1; white-space: pre; text-shadow: white 1px 1px 1px, white -1px -1px 1px, white 1px -1px 1px, white -1px 1px 1px;">BLA</text></g><g class="sankey-node" transform="translate(375.000,679.603)" style="opacity: 1;"><rect class="node-rect" width="15" height="2.5396825396826443" style="stroke-width: 0.5; stroke: rgb(0, 0, 0); stroke-opacity: 1; fill: rgb(255, 102, 146); fill-opacity: 1;"/><text class="node-label" data-notex="1" x="0" y="0" text-anchor="start" transform="translate(18.25,5.4698412698413215)" style="cursor: default; font-family: 'Open Sans', verdana, arial, sans-serif; font-size: 12px; fill: rgb(42, 63, 95); fill-opacity: 1; white-space: pre; text-shadow: white 1px 1px 1px, white -1px -1px 1px, white 1px -1px 1px, white -1px 1px 1px;">lHb</text></g><g class="sankey-node" transform="translate(375.000,431.667)" style="opacity: 1;"><rect class="node-rect" width="15" height="55.8730158730159" style="stroke-width: 0.5; stroke: rgb(0, 0, 0); stroke-opacity: 1; fill: rgb(182, 232, 128); fill-opacity: 1;"/><text class="node-label" data-notex="1" x="0" y="0" text-anchor="start" transform="translate(18.25,32.136507936507954)" style="cursor: default; font-family: 'Open Sans', verdana, arial, sans-serif; font-size: 12px; fill: rgb(42, 63, 95); fill-opacity: 1; white-space: pre; text-shadow: white 1px 1px 1px, white -1px -1px 1px, white 1px -1px 1px, white -1px 1px 1px;">cPFC</text></g><g class="sankey-node" transform="translate(1125.000,490.794)" style="opacity: 1;"><rect class="node-rect" width="15" height="12.698412698412653" style="stroke-width: 0.5; stroke: rgb(0, 0, 0); stroke-opacity: 1; fill: rgb(255, 151, 255); fill-opacity: 1;"/><text class="node-label" data-notex="1" x="0" y="0" text-anchor="end" transform="translate(-3.25,10.549206349206326)" style="cursor: default; font-family: 'Open Sans', verdana, arial, sans-serif; font-size: 12px; fill: rgb(42, 63, 95); fill-opacity: 1; white-space: pre; text-shadow: white 1px 1px 1px, white -1px -1px 1px, white 1px -1px 1px, white -1px 1px 1px;">dPAG</text></g><g class="sankey-node" transform="translate(375.000,376.032)" style="opacity: 1;"><rect class="node-rect" width="15" height="40.63492063492072" style="stroke-width: 0.5; stroke: rgb(0, 0, 0); stroke-opacity: 1; fill: rgb(254, 203, 82); fill-opacity: 1;"/><text class="node-label" data-notex="1" x="0" y="0" text-anchor="start" transform="translate(18.25,24.51746031746036)" style="cursor: default; font-family: 'Open Sans', verdana, arial, sans-serif; font-size: 12px; fill: rgb(42, 63, 95); fill-opacity: 1; white-space: pre; text-shadow: white 1px 1px 1px, white -1px -1px 1px, white 1px -1px 1px, white -1px 1px 1px;">LHyp</text></g></g></g><defs id="topdefs-410598"><g class="clips"/></defs><g class="layer-above"><g class="imagelayer"/><g class="shapelayer"/></g><g class="infolayer"><g class="g-gtitle"/><g class="first-render"/></g></svg>