<svg class="main-svg" xmlns="http://www.w3.org/2000/svg" xmlns:xlink="http://www.w3.org/1999/xlink" width="1300" height="900" style="" viewBox="0 0 1300 900"><rect x="0" y="0" width="1300" height="900" style="fill: rgb(255, 255, 255); fill-opacity: 1;"/><defs id="defs-81de14"><g class="clips"/><g class="gradients"/><g class="patterns"/></defs><g class="bglayer"/><g class="layer-below"><g class="imagelayer"/><g class="shapelayer"/></g><g class="cartesianlayer"/><g class="polarlayer"/><g class="smithlayer"/><g class="ternarylayer"/><g class="geolayer"/><g class="funnelarealayer"/><g class="pielayer"/><g class="iciclelayer"/><g class="treemaplayer"/><g class="sunburstlayer"/><g class="glimages"/><g class="sankey" transform="translate(80,100)matrix(1 0 0 1 0 0)" style="box-sizing: content-box; position: absolute; left: 0px; shape-rendering: geometricprecision; pointer-events: none;"><g class="sankey-links" style="fill: none;"><path class="sankey-link" d="M15,547.0588235294116C195,547.0588235294116 195,358.2352941176465 375,358.2352941176465L375,379.41176470588175C195,379.41176470588175 195,568.235294117647 15,568.235294117647Z" style="stroke: rgb(68, 68, 68); stroke-opacity: 1; fill: rgb(99, 110, 250); fill-opacity: 0.6; stroke-width: 0; opacity: 1;"/><path class="sankey-link" d="M15,568.2352941176468C195,568.2352941176468 195,504.70588235294053 375,504.70588235294053L375,509.9999999999993C195,509.9999999999993 195,573.5294117647056 15,573.5294117647056Z" style="stroke: rgb(68, 68, 68); stroke-opacity: 1; fill: rgb(0, 204, 150); fill-opacity: 0.6; stroke-width: 0; opacity: 1;"/><path class="sankey-link" d="M15,586.7647058823527C195,586.7647058823527 195,642.3529411764705 375,642.3529411764705L375,655.5882352941176C195,655.5882352941176 195,599.9999999999998 15,599.9999999999998Z" style="stroke: rgb(68, 68, 68); stroke-opacity: 1; fill: rgb(255, 161, 90); fill-opacity: 0.6; stroke-width: 0; opacity: 1;"/><path class="sankey-link" d="M15,573.5294117647056C195,573.5294117647056 195,572.6470588235287 375,572.6470588235287L375,585.8823529411758C195,585.8823529411758 195,586.7647058823527 15,586.7647058823527Z" style="stroke: rgb(68, 68, 68); stroke-opacity: 1; fill: rgb(171, 99, 250); fill-opacity: 0.6; stroke-width: 0; opacity: 1;"/><path class="sankey-link" d="M15,544.4117647058822C195,544.4117647058822 195,209.11764705882263 375,209.11764705882263L375,211.76470588235202C195,211.76470588235202 195,547.0588235294117 15,547.0588235294117Z" style="stroke: rgb(68, 68, 68); stroke-opacity: 1; fill: rgb(239, 85, 59); fill-opacity: 0.6; stroke-width: 0; opacity: 1;"/><path class="sankey-link" d="M15,652.0588235294119C195,652.0588235294119 195,704.1176470588236 375,704.1176470588236L375,709.4117647058824C195,709.4117647058824 195,657.3529411764707 15,657.3529411764707Z" style="stroke: rgb(68, 68, 68); stroke-opacity: 1; fill: rgb(25, 211, 243); fill-opacity: 0.6; stroke-width: 0; opacity: 1;"/><path class="sankey-link" d="M15,617.6470588235296C195,617.6470588235296 195,379.4117647058818 375,379.4117647058818L375,382.0588235294112C195,382.0588235294112 195,620.2941176470591 15,620.2941176470591Z" style="stroke: rgb(68, 68, 68); stroke-opacity: 1; fill: rgb(99, 110, 250); fill-opacity: 0.6; stroke-width: 0; opacity: 1;"/><path class="sankey-link" d="M15,628.2352941176473C195,628.2352941176473 195,509.99999999999943 375,509.99999999999943L375,515.2941176470582C195,515.2941176470582 195,633.5294117647061 15,633.5294117647061Z" style="stroke: rgb(68, 68, 68); stroke-opacity: 1; fill: rgb(0, 204, 150); fill-opacity: 0.6; stroke-width: 0; opacity: 1;"/><path class="sankey-link" d="M15,638.8235294117649C195,638.8235294117649 195,655.5882352941176 375,655.5882352941176L375,666.1764705882351C195,666.1764705882351 195,649.4117647058824 15,649.4117647058824Z" style="stroke: rgb(68, 68, 68); stroke-opacity: 1; fill: rgb(255, 161, 90); fill-opacity: 0.6; stroke-width: 0; opacity: 1;"/><path class="sankey-link" d="M15,633.5294117647061C195,633.5294117647061 195,585.8823529411758 375,585.8823529411758L375,591.1764705882346C195,591.1764705882346 195,638.8235294117649 15,638.8235294117649Z" style="stroke: rgb(68, 68, 68); stroke-opacity: 1; fill: rgb(171, 99, 250); fill-opacity: 0.6; stroke-width: 0; opacity: 1;"/><path class="sankey-link" d="M15,615.0000000000002C195,615.0000000000002 195,211.76470588235205 375,211.76470588235205L375,214.41176470588144C195,214.41176470588144 195,617.6470588235297 15,617.6470588235297Z" style="stroke: rgb(68, 68, 68); stroke-opacity: 1; fill: rgb(239, 85, 59); fill-opacity: 0.6; stroke-width: 0; opacity: 1;"/><path class="sankey-link" d="M15,620.294117647059C195,620.294117647059 195,457.9411764705875 375,457.9411764705875L375,465.8823529411758C195,465.8823529411758 195,628.2352941176473 15,628.2352941176473Z" style="stroke: rgb(68, 68, 68); stroke-opacity: 1; fill: rgb(182, 232, 128); fill-opacity: 0.6; stroke-width: 0; opacity: 1;"/><path class="sankey-link" d="M15,649.4117647058825C195,649.4117647058825 195,686.4705882352941 375,686.4705882352941L375,689.1176470588236C195,689.1176470588236 195,652.058823529412 15,652.058823529412Z" style="stroke: rgb(68, 68, 68); stroke-opacity: 1; fill: rgb(255, 102, 146); fill-opacity: 0.6; stroke-width: 0; opacity: 1;"/><path class="sankey-link" d="M15,712.0588235294119C195,712.0588235294119 195,709.4117647058824 375,709.4117647058824L375,717.3529411764707C195,717.3529411764707 195,720.0000000000002 15,720.0000000000002Z" style="stroke: rgb(68, 68, 68); stroke-opacity: 1; fill: rgb(25, 211, 243); fill-opacity: 0.6; stroke-width: 0; opacity: 1;"/><path class="sankey-link" d="M15,675.0000000000001C195,675.0000000000001 195,382.0588235294112 375,382.0588235294112L375,395.2941176470583C195,395.2941176470583 195,688.2352941176472 15,688.2352941176472Z" style="stroke: rgb(68, 68, 68); stroke-opacity: 1; fill: rgb(99, 110, 250); fill-opacity: 0.6; stroke-width: 0; opacity: 1;"/><path class="sankey-link" d="M15,706.7647058823532C195,706.7647058823532 195,666.1764705882352 375,666.1764705882352L375,671.470588235294C195,671.470588235294 195,712.0588235294119 15,712.0588235294119Z" style="stroke: rgb(68, 68, 68); stroke-opacity: 1; fill: rgb(255, 161, 90); fill-opacity: 0.6; stroke-width: 0; opacity: 1;"/><path class="sankey-link" d="M15,690.8823529411766C195,690.8823529411766 195,591.1764705882346 375,591.1764705882346L375,599.1176470588229C195,599.1176470588229 195,698.8235294117649 15,698.8235294117649Z" style="stroke: rgb(68, 68, 68); stroke-opacity: 1; fill: rgb(171, 99, 250); fill-opacity: 0.6; stroke-width: 0; opacity: 1;"/><path class="sankey-link" d="M15,672.3529411764707C195,672.3529411764707 195,214.41176470588147 375,214.41176470588147L375,217.05882352941086C195,217.05882352941086 195,675.0000000000002 15,675.0000000000002Z" style="stroke: rgb(68, 68, 68); stroke-opacity: 1; fill: rgb(239, 85, 59); fill-opacity: 0.6; stroke-width: 0; opacity: 1;"/><path class="sankey-link" d="M15,688.2352941176472C195,688.2352941176472 195,465.8823529411757 375,465.8823529411757L375,468.5294117647051C195,468.5294117647051 195,690.8823529411767 15,690.8823529411767Z" style="stroke: rgb(68, 68, 68); stroke-opacity: 1; fill: rgb(182, 232, 128); fill-opacity: 0.6; stroke-width: 0; opacity: 1;"/><path class="sankey-link" d="M15,698.8235294117649C195,698.8235294117649 195,619.4117647058818 375,619.4117647058818L375,627.35294117647C195,627.35294117647 195,706.7647058823532 15,706.7647058823532Z" style="stroke: rgb(68, 68, 68); stroke-opacity: 1; fill: rgb(255, 151, 255); fill-opacity: 0.6; stroke-width: 0; opacity: 1;"/><path class="sankey-link" d="M15,202.05882352941137C195,202.05882352941137 195,289.41176470588175 375,289.41176470588175L375,323.82352941176407C195,323.82352941176407 195,236.47058823529375 15,236.47058823529375Z" style="stroke: rgb(68, 68, 68); stroke-opacity: 1; fill: rgb(99, 110, 250); fill-opacity: 0.6; stroke-width: 0; opacity: 1;"/><path class="sankey-link" d="M15,260.29411764705844C195,260.29411764705844 195,483.5294117647053 375,483.5294117647053L375,494.11764705882297C195,494.11764705882297 195,270.8823529411761 15,270.8823529411761Z" style="stroke: rgb(68, 68, 68); stroke-opacity: 1; fill: rgb(0, 204, 150); fill-opacity: 0.6; stroke-width: 0; opacity: 1;"/><path class="sankey-link" d="M15,180.88235294117607C195,180.88235294117607 195,232.05882352941114 375,232.05882352941114L375,253.23529411764645C195,253.23529411764645 195,202.05882352941137 15,202.05882352941137Z" style="stroke: rgb(68, 68, 68); stroke-opacity: 1; fill: rgb(254, 203, 82); fill-opacity: 0.6; stroke-width: 0; opacity: 1;"/><path class="sankey-link" d="M15,270.88235294117607C195,270.88235294117607 195,530.2941176470582 375,530.2941176470582L375,551.4705882352936C195,551.4705882352936 195,292.0588235294113 15,292.0588235294113Z" style="stroke: rgb(68, 68, 68); stroke-opacity: 1; fill: rgb(171, 99, 250); fill-opacity: 0.6; stroke-width: 0; opacity: 1;"/><path class="sankey-link" d="M15,77.647058823529C195,77.647058823529 195,-8.810729923425242e-13 375,-8.810729923425242e-13L375,103.23529411764618C195,103.23529411764618 195,180.88235294117607 15,180.88235294117607Z" style="stroke: rgb(68, 68, 68); stroke-opacity: 1; fill: rgb(239, 85, 59); fill-opacity: 0.6; stroke-width: 0; opacity: 1;"/><path class="sankey-link" d="M15,236.47058823529372C195,236.47058823529372 195,410.2941176470581 375,410.2941176470581L375,434.11764705882285C195,434.11764705882285 195,260.29411764705844 15,260.29411764705844Z" style="stroke: rgb(68, 68, 68); stroke-opacity: 1; fill: rgb(182, 232, 128); fill-opacity: 0.6; stroke-width: 0; opacity: 1;"/><path class="sankey-link" d="M15,292.05882352941137C195,292.05882352941137 195,614.117647058823 375,614.117647058823L375,616.7647058823525C195,616.7647058823525 195,294.70588235294076 15,294.70588235294076Z" style="stroke: rgb(68, 68, 68); stroke-opacity: 1; fill: rgb(255, 151, 255); fill-opacity: 0.6; stroke-width: 0; opacity: 1;"/><path class="sankey-link" d="M15,436.76470588235276C195,436.76470588235276 195,323.8235294117641 375,323.8235294117641L375,358.23529411764645C195,358.23529411764645 195,471.1764705882351 15,471.1764705882351Z" style="stroke: rgb(68, 68, 68); stroke-opacity: 1; fill: rgb(99, 110, 250); fill-opacity: 0.6; stroke-width: 0; opacity: 1;"/><path class="sankey-link" d="M15,494.99999999999983C195,494.99999999999983 195,494.1176470588229 375,494.1176470588229L375,504.7058823529406C195,504.7058823529406 195,505.5882352941175 15,505.5882352941175Z" style="stroke: rgb(68, 68, 68); stroke-opacity: 1; fill: rgb(0, 204, 150); fill-opacity: 0.6; stroke-width: 0; opacity: 1;"/><path class="sankey-link" d="M15,415.58823529411745C195,415.58823529411745 195,253.23529411764642 375,253.23529411764642L375,274.4117647058817C195,274.4117647058817 195,436.7647058823527 15,436.7647058823527Z" style="stroke: rgb(68, 68, 68); stroke-opacity: 1; fill: rgb(254, 203, 82); fill-opacity: 0.6; stroke-width: 0; opacity: 1;"/><path class="sankey-link" d="M15,505.5882352941175C195,505.5882352941175 195,551.4705882352935 375,551.4705882352935L375,572.6470588235288C195,572.6470588235288 195,526.7647058823528 15,526.7647058823528Z" style="stroke: rgb(68, 68, 68); stroke-opacity: 1; fill: rgb(171, 99, 250); fill-opacity: 0.6; stroke-width: 0; opacity: 1;"/><path class="sankey-link" d="M15,309.705882352941C195,309.705882352941 195,103.23529411764616 375,103.23529411764616L375,209.11764705882263C195,209.11764705882263 195,415.58823529411745 15,415.58823529411745Z" style="stroke: rgb(68, 68, 68); stroke-opacity: 1; fill: rgb(239, 85, 59); fill-opacity: 0.6; stroke-width: 0; opacity: 1;"/><path class="sankey-link" d="M15,471.17647058823513C195,471.17647058823513 195,434.1176470588228 375,434.1176470588228L375,457.94117647058755C195,457.94117647058755 195,494.9999999999999 15,494.9999999999999Z" style="stroke: rgb(68, 68, 68); stroke-opacity: 1; fill: rgb(182, 232, 128); fill-opacity: 0.6; stroke-width: 0; opacity: 1;"/><path class="sankey-link" d="M15,526.7647058823527C195,526.7647058823527 195,616.7647058823524 375,616.7647058823524L375,619.4117647058819C195,619.4117647058819 195,529.4117647058822 15,529.4117647058822Z" style="stroke: rgb(68, 68, 68); stroke-opacity: 1; fill: rgb(255, 151, 255); fill-opacity: 0.6; stroke-width: 0; opacity: 1;"/><path class="sankey-link" d="M390,704.1176470588236C570,704.1176470588236 570,415.8463957328786 750,415.8463957328786L750,421.1405133799374C570,421.1405133799374 570,709.4117647058824 390,709.4117647058824Z" style="stroke: rgb(68, 68, 68); stroke-opacity: 1; fill: rgb(25, 211, 243); fill-opacity: 0.6; stroke-width: 0; opacity: 1;"/><path class="sankey-link" d="M390,714.7058823529412C570,714.7058823529412 570,669.964042791702 750,669.964042791702L750,675.2581604387608C570,675.2581604387608 570,720 390,720Z" style="stroke: rgb(68, 68, 68); stroke-opacity: 1; fill: rgb(25, 211, 243); fill-opacity: 0.6; stroke-width: 0; opacity: 1;"/><path class="sankey-link" d="M390,709.4117647058824C570,709.4117647058824 570,544.669925144643 750,544.669925144643L750,549.9640427917018C570,549.9640427917018 570,714.7058823529412 390,714.7058823529412Z" style="stroke: rgb(68, 68, 68); stroke-opacity: 1; fill: rgb(25, 211, 243); fill-opacity: 0.6; stroke-width: 0; opacity: 1;"/><path class="sankey-link" d="M390,289.41176470588175C570,289.41176470588175 570,352.3169839681727 750,352.3169839681727L750,386.728748674055C570,386.728748674055 570,323.82352941176407 390,323.82352941176407Z" style="stroke: rgb(68, 68, 68); stroke-opacity: 1; fill: rgb(99, 110, 250); fill-opacity: 0.6; stroke-width: 0; opacity: 1;"/><path class="sankey-link" d="M390,352.94117647058766C570,352.94117647058766 570,651.4346310269963 750,651.4346310269963L750,654.0816898505258C570,654.0816898505258 570,355.58823529411706 390,355.58823529411706Z" style="stroke: rgb(68, 68, 68); stroke-opacity: 1; fill: rgb(99, 110, 250); fill-opacity: 0.6; stroke-width: 0; opacity: 1;"/><path class="sankey-link" d="M390,323.8235294117641C570,323.8235294117641 570,473.1993369093489 750,473.1993369093489L750,497.02286632111367C570,497.02286632111367 570,347.6470588235289 390,347.6470588235289Z" style="stroke: rgb(68, 68, 68); stroke-opacity: 1; fill: rgb(99, 110, 250); fill-opacity: 0.6; stroke-width: 0; opacity: 1;"/><path class="sankey-link" d="M390,347.6470588235288C570,347.6470588235288 570,609.9640427917018 750,609.9640427917018L750,615.2581604387606C570,615.2581604387606 570,352.9411764705876 390,352.9411764705876Z" style="stroke: rgb(68, 68, 68); stroke-opacity: 1; fill: rgb(99, 110, 250); fill-opacity: 0.6; stroke-width: 0; opacity: 1;"/><path class="sankey-link" d="M390,483.5294117647053C570,483.5294117647053 570,392.0228663211139 750,392.0228663211139L750,399.9640427917022C570,399.9640427917022 570,491.4705882352936 390,491.4705882352936Z" style="stroke: rgb(68, 68, 68); stroke-opacity: 1; fill: rgb(0, 204, 150); fill-opacity: 0.6; stroke-width: 0; opacity: 1;"/><path class="sankey-link" d="M390,499.41176470588175C570,499.41176470588175 570,654.0816898505257 750,654.0816898505257L750,659.3758074975844C570,659.3758074975844 570,504.70588235294053 390,504.70588235294053Z" style="stroke: rgb(68, 68, 68); stroke-opacity: 1; fill: rgb(0, 204, 150); fill-opacity: 0.6; stroke-width: 0; opacity: 1;"/><path class="sankey-link" d="M390,491.4705882352935C570,491.4705882352935 570,512.9052192622901 750,512.9052192622901L750,518.1993369093489C570,518.1993369093489 570,496.7647058823523 390,496.7647058823523Z" style="stroke: rgb(68, 68, 68); stroke-opacity: 1; fill: rgb(0, 204, 150); fill-opacity: 0.6; stroke-width: 0; opacity: 1;"/><path class="sankey-link" d="M390,496.76470588235236C570,496.76470588235236 570,620.5522780858194 750,620.5522780858194L750,623.1993369093489C570,623.1993369093489 570,499.41176470588175 390,499.41176470588175Z" style="stroke: rgb(68, 68, 68); stroke-opacity: 1; fill: rgb(0, 204, 150); fill-opacity: 0.6; stroke-width: 0; opacity: 1;"/><path class="sankey-link" d="M390,232.05882352941114C570,232.05882352941114 570,341.72874867405505 750,341.72874867405505L750,352.31698396817274C570,352.31698396817274 570,242.64705882352877 390,242.64705882352877Z" style="stroke: rgb(68, 68, 68); stroke-opacity: 1; fill: rgb(254, 203, 82); fill-opacity: 0.6; stroke-width: 0; opacity: 1;"/><path class="sankey-link" d="M390,242.6470588235288C570,242.6470588235288 570,462.6111016152313 750,462.6111016152313L750,473.199336909349C570,473.199336909349 570,253.23529411764642 390,253.23529411764642Z" style="stroke: rgb(68, 68, 68); stroke-opacity: 1; fill: rgb(254, 203, 82); fill-opacity: 0.6; stroke-width: 0; opacity: 1;"/><path class="sankey-link" d="M390,253.23529411764648C570,253.23529411764648 570,599.3758074975841 750,599.3758074975841L750,609.9640427917017C570,609.9640427917017 570,263.8235294117641 390,263.8235294117641Z" style="stroke: rgb(68, 68, 68); stroke-opacity: 1; fill: rgb(254, 203, 82); fill-opacity: 0.6; stroke-width: 0; opacity: 1;"/><path class="sankey-link" d="M390,642.3529411764705C570,642.3529411764705 570,407.90521926229036 750,407.90521926229036L750,415.84639573287865C570,415.84639573287865 570,650.2941176470588 390,650.2941176470588Z" style="stroke: rgb(68, 68, 68); stroke-opacity: 1; fill: rgb(255, 161, 90); fill-opacity: 0.6; stroke-width: 0; opacity: 1;"/><path class="sankey-link" d="M390,660.8823529411765C570,660.8823529411765 570,662.0228663211138 750,662.0228663211138L750,667.3169839681726C570,667.3169839681726 570,666.1764705882352 390,666.1764705882352Z" style="stroke: rgb(68, 68, 68); stroke-opacity: 1; fill: rgb(255, 161, 90); fill-opacity: 0.6; stroke-width: 0; opacity: 1;"/><path class="sankey-link" d="M390,650.2941176470588C570,650.2941176470588 570,534.0816898505253 750,534.0816898505253L750,544.6699251446429C570,544.6699251446429 570,660.8823529411764 390,660.8823529411764Z" style="stroke: rgb(68, 68, 68); stroke-opacity: 1; fill: rgb(255, 161, 90); fill-opacity: 0.6; stroke-width: 0; opacity: 1;"/><path class="sankey-link" d="M390,530.2941176470582C570,530.2941176470582 570,399.9640427917021 750,399.9640427917021L750,407.9052192622904C570,407.9052192622904 570,538.2352941176465 390,538.2352941176465Z" style="stroke: rgb(68, 68, 68); stroke-opacity: 1; fill: rgb(171, 99, 250); fill-opacity: 0.6; stroke-width: 0; opacity: 1;"/><path class="sankey-link" d="M390,562.0588235294113C570,562.0588235294113 570,659.3758074975844 750,659.3758074975844L750,662.022866321114C570,662.022866321114 570,564.7058823529408 390,564.7058823529408Z" style="stroke: rgb(68, 68, 68); stroke-opacity: 1; fill: rgb(171, 99, 250); fill-opacity: 0.6; stroke-width: 0; opacity: 1;"/><path class="sankey-link" d="M390,538.2352941176465C570,538.2352941176465 570,518.1993369093489 750,518.1993369093489L750,531.4346310269959C570,531.4346310269959 570,551.4705882352936 390,551.4705882352936Z" style="stroke: rgb(68, 68, 68); stroke-opacity: 1; fill: rgb(171, 99, 250); fill-opacity: 0.6; stroke-width: 0; opacity: 1;"/><path class="sankey-link" d="M390,551.4705882352936C570,551.4705882352936 570,623.1993369093487 750,623.1993369093487L750,633.7875722034663C570,633.7875722034663 570,562.0588235294111 390,562.0588235294111Z" style="stroke: rgb(68, 68, 68); stroke-opacity: 1; fill: rgb(171, 99, 250); fill-opacity: 0.6; stroke-width: 0; opacity: 1;"/><path class="sankey-link" d="M390,-8.810729923425242e-13C570,-8.810729923425242e-13 570,304.6699251446433 750,304.6699251446433L750,341.728748674055C570,341.728748674055 570,37.05882352941088 390,37.05882352941088Z" style="stroke: rgb(68, 68, 68); stroke-opacity: 1; fill: rgb(239, 85, 59); fill-opacity: 0.6; stroke-width: 0; opacity: 1;"/><path class="sankey-link" d="M390,97.94117647058735C570,97.94117647058735 570,648.7875722034669 750,648.7875722034669L750,651.4346310269964C570,651.4346310269964 570,100.58823529411677 390,100.58823529411677Z" style="stroke: rgb(68, 68, 68); stroke-opacity: 1; fill: rgb(239, 85, 59); fill-opacity: 0.6; stroke-width: 0; opacity: 1;"/><path class="sankey-link" d="M390,37.05882352941088C570,37.05882352941088 570,436.1405133799372 750,436.1405133799372L750,462.61110161523135C570,462.61110161523135 570,63.529411764704996 390,63.529411764704996Z" style="stroke: rgb(68, 68, 68); stroke-opacity: 1; fill: rgb(239, 85, 59); fill-opacity: 0.6; stroke-width: 0; opacity: 1;"/><path class="sankey-link" d="M390,63.529411764705C570,63.529411764705 570,564.9640427917018 750,564.9640427917018L750,599.3758074975842C570,599.3758074975842 570,97.94117647058735 390,97.94117647058735Z" style="stroke: rgb(68, 68, 68); stroke-opacity: 1; fill: rgb(239, 85, 59); fill-opacity: 0.6; stroke-width: 0; opacity: 1;"/><path class="sankey-link" d="M390,410.2941176470581C570,410.2941176470581 570,386.72874867405505 750,386.72874867405505L750,392.02286632111384C570,392.02286632111384 570,415.5882352941169 390,415.5882352941169Z" style="stroke: rgb(68, 68, 68); stroke-opacity: 1; fill: rgb(182, 232, 128); fill-opacity: 0.6; stroke-width: 0; opacity: 1;"/><path class="sankey-link" d="M390,415.58823529411694C570,415.58823529411694 570,497.0228663211136 750,497.0228663211136L750,512.9052192622901C570,512.9052192622901 570,431.4705882352934 390,431.4705882352934Z" style="stroke: rgb(68, 68, 68); stroke-opacity: 1; fill: rgb(182, 232, 128); fill-opacity: 0.6; stroke-width: 0; opacity: 1;"/><path class="sankey-link" d="M390,431.4705882352934C570,431.4705882352934 570,615.2581604387606 750,615.2581604387606L750,620.5522780858194C570,620.5522780858194 570,436.7647058823522 390,436.7647058823522Z" style="stroke: rgb(68, 68, 68); stroke-opacity: 1; fill: rgb(182, 232, 128); fill-opacity: 0.6; stroke-width: 0; opacity: 1;"/><path class="sankey-link" d="M390,614.117647058823C570,614.117647058823 570,531.4346310269959 750,531.4346310269959L750,534.0816898505254C570,534.0816898505254 570,616.7647058823525 390,616.7647058823525Z" style="stroke: rgb(68, 68, 68); stroke-opacity: 1; fill: rgb(255, 151, 255); fill-opacity: 0.6; stroke-width: 0; opacity: 1;"/><path class="sankey-link" d="M390,686.4705882352941C570,686.4705882352941 570,667.3169839681726 750,667.3169839681726L750,669.9640427917021C570,669.9640427917021 570,689.1176470588236 390,689.1176470588236Z" style="stroke: rgb(68, 68, 68); stroke-opacity: 1; fill: rgb(255, 102, 146); fill-opacity: 0.6; stroke-width: 0; opacity: 1;"/><path class="sankey-link" d="M765,304.6699251446433C945,304.6699251446433 945,289.41176470588215 1125,289.41176470588215L1125,294.70588235294093C945,294.70588235294093 945,309.96404279170207 765,309.96404279170207Z" style="stroke: rgb(68, 68, 68); stroke-opacity: 1; fill: rgb(25, 211, 243); fill-opacity: 0.6; stroke-width: 0; opacity: 1;"/><path class="sankey-link" d="M765,662.0228663211138C945,662.0228663211138 945,706.7647058823532 1125,706.7647058823532L1125,712.0588235294119C945,712.0588235294119 945,667.3169839681726 765,667.3169839681726Z" style="stroke: rgb(68, 68, 68); stroke-opacity: 1; fill: rgb(25, 211, 243); fill-opacity: 0.6; stroke-width: 0; opacity: 1;"/><path class="sankey-link" d="M765,504.9640427917019C945,504.9640427917019 945,519.7058823529414 1125,519.7058823529414L1125,525.0000000000002C945,525.0000000000002 945,510.2581604387607 765,510.2581604387607Z" style="stroke: rgb(68, 68, 68); stroke-opacity: 1; fill: rgb(25, 211, 243); fill-opacity: 0.6; stroke-width: 0; opacity: 1;"/><path class="sankey-link" d="M765,309.9640427917021C945,309.9640427917021 945,294.705882352941 1125,294.705882352941L1125,310.58823529411745C945,310.58823529411745 945,325.8463957328786 765,325.8463957328786Z" style="stroke: rgb(68, 68, 68); stroke-opacity: 1; fill: rgb(99, 110, 250); fill-opacity: 0.6; stroke-width: 0; opacity: 1;"/><path class="sankey-link" d="M765,368.19933690934914C945,368.19933690934914 945,367.941176470588 1125,367.941176470588L1125,386.47058823529386C945,386.47058823529386 945,386.728748674055 765,386.728748674055Z" style="stroke: rgb(68, 68, 68); stroke-opacity: 1; fill: rgb(99, 110, 250); fill-opacity: 0.6; stroke-width: 0; opacity: 1;"/><path class="sankey-link" d="M765,648.7875722034669C945,648.7875722034669 945,639.7058823529414 1125,639.7058823529414L1125,642.352941176471C945,642.352941176471 945,651.4346310269964 765,651.4346310269964Z" style="stroke: rgb(68, 68, 68); stroke-opacity: 1; fill: rgb(99, 110, 250); fill-opacity: 0.6; stroke-width: 0; opacity: 1;"/><path class="sankey-link" d="M765,436.1405133799372C945,436.1405133799372 945,435.8823529411762 1125,435.8823529411762L1125,451.76470588235264C945,451.76470588235264 945,452.02286632111367 765,452.02286632111367Z" style="stroke: rgb(68, 68, 68); stroke-opacity: 1; fill: rgb(99, 110, 250); fill-opacity: 0.6; stroke-width: 0; opacity: 1;"/><path class="sankey-link" d="M765,510.2581604387607C945,510.2581604387607 945,525.0000000000002 1125,525.0000000000002L1125,532.9411764705885C945,532.9411764705885 945,518.199336909349 765,518.199336909349Z" style="stroke: rgb(68, 68, 68); stroke-opacity: 1; fill: rgb(99, 110, 250); fill-opacity: 0.6; stroke-width: 0; opacity: 1;"/><path class="sankey-link" d="M765,564.9640427917018C945,564.9640427917018 945,579.7058823529414 1125,579.7058823529414L1125,585.0000000000002C945,585.0000000000002 945,570.2581604387606 765,570.2581604387606Z" style="stroke: rgb(68, 68, 68); stroke-opacity: 1; fill: rgb(99, 110, 250); fill-opacity: 0.6; stroke-width: 0; opacity: 1;"/><path class="sankey-link" d="M765,325.8463957328786C945,325.8463957328786 945,310.58823529411745 1125,310.58823529411745L1125,315.88235294117624C945,315.88235294117624 945,331.1405133799374 765,331.1405133799374Z" style="stroke: rgb(68, 68, 68); stroke-opacity: 1; fill: rgb(0, 204, 150); fill-opacity: 0.6; stroke-width: 0; opacity: 1;"/><path class="sankey-link" d="M765,386.728748674055C945,386.728748674055 945,386.47058823529386 1125,386.47058823529386L1125,389.11764705882325C945,389.11764705882325 945,389.3758074975844 765,389.3758074975844Z" style="stroke: rgb(68, 68, 68); stroke-opacity: 1; fill: rgb(0, 204, 150); fill-opacity: 0.6; stroke-width: 0; opacity: 1;"/><path class="sankey-link" d="M765,667.3169839681726C945,667.3169839681726 945,712.0588235294119 1125,712.0588235294119L1125,714.7058823529414C945,714.7058823529414 945,669.9640427917021 765,669.9640427917021Z" style="stroke: rgb(68, 68, 68); stroke-opacity: 1; fill: rgb(0, 204, 150); fill-opacity: 0.6; stroke-width: 0; opacity: 1;"/><path class="sankey-link" d="M765,651.4346310269963C945,651.4346310269963 945,642.3529411764708 1125,642.3529411764708L1125,645.0000000000003C945,645.0000000000003 945,654.0816898505258 765,654.0816898505258Z" style="stroke: rgb(68, 68, 68); stroke-opacity: 1; fill: rgb(0, 204, 150); fill-opacity: 0.6; stroke-width: 0; opacity: 1;"/><path class="sankey-link" d="M765,452.02286632111367C945,452.02286632111367 945,451.76470588235264 1125,451.76470588235264L1125,454.41176470588204C945,454.41176470588204 945,454.66992514464306 765,454.66992514464306Z" style="stroke: rgb(68, 68, 68); stroke-opacity: 1; fill: rgb(0, 204, 150); fill-opacity: 0.6; stroke-width: 0; opacity: 1;"/><path class="sankey-link" d="M765,518.199336909349C945,518.199336909349 945,532.9411764705885 1125,532.9411764705885L1125,535.588235294118C945,535.588235294118 945,520.8463957328785 765,520.8463957328785Z" style="stroke: rgb(68, 68, 68); stroke-opacity: 1; fill: rgb(0, 204, 150); fill-opacity: 0.6; stroke-width: 0; opacity: 1;"/><path class="sankey-link" d="M765,570.2581604387606C945,570.2581604387606 945,585.0000000000002 1125,585.0000000000002L1125,587.6470588235297C945,587.6470588235297 945,572.9052192622901 765,572.9052192622901Z" style="stroke: rgb(68, 68, 68); stroke-opacity: 1; fill: rgb(0, 204, 150); fill-opacity: 0.6; stroke-width: 0; opacity: 1;"/><path class="sankey-link" d="M765,331.14051337993743C945,331.14051337993743 945,315.8823529411763 1125,315.8823529411763L1125,323.8235294117646C945,323.8235294117646 945,339.0816898505257 765,339.0816898505257Z" style="stroke: rgb(68, 68, 68); stroke-opacity: 1; fill: rgb(254, 203, 82); fill-opacity: 0.6; stroke-width: 0; opacity: 1;"/><path class="sankey-link" d="M765,389.3758074975844C945,389.3758074975844 945,389.11764705882325 1125,389.11764705882325L1125,391.76470588235264C945,391.76470588235264 945,392.0228663211138 765,392.0228663211138Z" style="stroke: rgb(68, 68, 68); stroke-opacity: 1; fill: rgb(254, 203, 82); fill-opacity: 0.6; stroke-width: 0; opacity: 1;"/><path class="sankey-link" d="M765,454.66992514464306C945,454.66992514464306 945,454.41176470588204 1125,454.41176470588204L1125,462.3529411764703C945,462.3529411764703 945,462.61110161523135 765,462.61110161523135Z" style="stroke: rgb(68, 68, 68); stroke-opacity: 1; fill: rgb(254, 203, 82); fill-opacity: 0.6; stroke-width: 0; opacity: 1;"/><path class="sankey-link" d="M765,520.8463957328784C945,520.8463957328784 945,535.5882352941179 1125,535.5882352941179L1125,538.2352941176474C945,538.2352941176474 945,523.4934545564079 765,523.4934545564079Z" style="stroke: rgb(68, 68, 68); stroke-opacity: 1; fill: rgb(254, 203, 82); fill-opacity: 0.6; stroke-width: 0; opacity: 1;"/><path class="sankey-link" d="M765,609.9640427917018C945,609.9640427917018 945,667.9411764705885 1125,667.9411764705885L1125,670.588235294118C945,670.588235294118 945,612.6111016152313 765,612.6111016152313Z" style="stroke: rgb(68, 68, 68); stroke-opacity: 1; fill: rgb(254, 203, 82); fill-opacity: 0.6; stroke-width: 0; opacity: 1;"/><path class="sankey-link" d="M765,572.90521926229C945,572.90521926229 945,587.6470588235296 1125,587.6470588235296L1125,595.5882352941179C945,595.5882352941179 945,580.8463957328782 765,580.8463957328782Z" style="stroke: rgb(68, 68, 68); stroke-opacity: 1; fill: rgb(254, 203, 82); fill-opacity: 0.6; stroke-width: 0; opacity: 1;"/><path class="sankey-link" d="M765,339.08168985052566C945,339.08168985052566 945,323.8235294117645 1125,323.8235294117645L1125,326.4705882352939C945,326.4705882352939 945,341.72874867405505 765,341.72874867405505Z" style="stroke: rgb(68, 68, 68); stroke-opacity: 1; fill: rgb(255, 161, 90); fill-opacity: 0.6; stroke-width: 0; opacity: 1;"/><path class="sankey-link" d="M765,392.0228663211138C945,392.0228663211138 945,391.76470588235264 1125,391.76470588235264L1125,397.0588235294114C945,397.0588235294114 945,397.31698396817256 765,397.31698396817256Z" style="stroke: rgb(68, 68, 68); stroke-opacity: 1; fill: rgb(255, 161, 90); fill-opacity: 0.6; stroke-width: 0; opacity: 1;"/><path class="sankey-link" d="M765,669.964042791702C945,669.964042791702 945,714.7058823529413 1125,714.7058823529413L1125,717.3529411764708C945,717.3529411764708 945,672.6111016152315 765,672.6111016152315Z" style="stroke: rgb(68, 68, 68); stroke-opacity: 1; fill: rgb(255, 161, 90); fill-opacity: 0.6; stroke-width: 0; opacity: 1;"/><path class="sankey-link" d="M765,654.0816898505257C945,654.0816898505257 945,645.0000000000002 1125,645.0000000000002L1125,647.6470588235297C945,647.6470588235297 945,656.7287486740552 765,656.7287486740552Z" style="stroke: rgb(68, 68, 68); stroke-opacity: 1; fill: rgb(255, 161, 90); fill-opacity: 0.6; stroke-width: 0; opacity: 1;"/><path class="sankey-link" d="M765,462.6111016152313C945,462.6111016152313 945,462.35294117647027 1125,462.35294117647027L1125,467.64705882352905C945,467.64705882352905 945,467.9052192622901 765,467.9052192622901Z" style="stroke: rgb(68, 68, 68); stroke-opacity: 1; fill: rgb(255, 161, 90); fill-opacity: 0.6; stroke-width: 0; opacity: 1;"/><path class="sankey-link" d="M765,523.4934545564078C945,523.4934545564078 945,538.2352941176473 1125,538.2352941176473L1125,543.5294117647061C945,543.5294117647061 945,528.7875722034665 765,528.7875722034665Z" style="stroke: rgb(68, 68, 68); stroke-opacity: 1; fill: rgb(255, 161, 90); fill-opacity: 0.6; stroke-width: 0; opacity: 1;"/><path class="sankey-link" d="M765,397.3169839681726C945,397.3169839681726 945,397.0588235294115 1125,397.0588235294115L1125,404.9999999999998C945,404.9999999999998 945,405.2581604387609 765,405.2581604387609Z" style="stroke: rgb(68, 68, 68); stroke-opacity: 1; fill: rgb(171, 99, 250); fill-opacity: 0.6; stroke-width: 0; opacity: 1;"/><path class="sankey-link" d="M765,672.6111016152314C945,672.6111016152314 945,717.3529411764707 1125,717.3529411764707L1125,720.0000000000002C945,720.0000000000002 945,675.2581604387609 765,675.2581604387609Z" style="stroke: rgb(68, 68, 68); stroke-opacity: 1; fill: rgb(171, 99, 250); fill-opacity: 0.6; stroke-width: 0; opacity: 1;"/><path class="sankey-link" d="M765,467.90521926229013C945,467.90521926229013 945,467.6470588235291 1125,467.6470588235291L1125,472.9411764705879C945,472.9411764705879 945,473.1993369093489 765,473.1993369093489Z" style="stroke: rgb(68, 68, 68); stroke-opacity: 1; fill: rgb(171, 99, 250); fill-opacity: 0.6; stroke-width: 0; opacity: 1;"/><path class="sankey-link" d="M765,528.7875722034665C945,528.7875722034665 945,543.5294117647061 1125,543.5294117647061L1125,551.4705882352944C945,551.4705882352944 945,536.7287486740548 765,536.7287486740548Z" style="stroke: rgb(68, 68, 68); stroke-opacity: 1; fill: rgb(171, 99, 250); fill-opacity: 0.6; stroke-width: 0; opacity: 1;"/><path class="sankey-link" d="M765,612.6111016152312C945,612.6111016152312 945,670.5882352941179 1125,670.5882352941179L1125,673.2352941176474C945,673.2352941176474 945,615.2581604387607 765,615.2581604387607Z" style="stroke: rgb(68, 68, 68); stroke-opacity: 1; fill: rgb(171, 99, 250); fill-opacity: 0.6; stroke-width: 0; opacity: 1;"/><path class="sankey-link" d="M765,580.8463957328782C945,580.8463957328782 945,595.5882352941179 1125,595.5882352941179L1125,603.5294117647062C945,603.5294117647062 945,588.7875722034665 765,588.7875722034665Z" style="stroke: rgb(68, 68, 68); stroke-opacity: 1; fill: rgb(171, 99, 250); fill-opacity: 0.6; stroke-width: 0; opacity: 1;"/><path class="sankey-link" d="M765,341.72874867405505C945,341.72874867405505 945,326.4705882352939 1125,326.4705882352939L1125,350.29411764705867C945,350.29411764705867 945,365.5522780858198 765,365.5522780858198Z" style="stroke: rgb(68, 68, 68); stroke-opacity: 1; fill: rgb(239, 85, 59); fill-opacity: 0.6; stroke-width: 0; opacity: 1;"/><path class="sankey-link" d="M765,405.25816043876085C945,405.25816043876085 945,404.9999999999997 1125,404.9999999999997L1125,418.2352941176468C945,418.2352941176468 945,418.4934545564079 765,418.4934545564079Z" style="stroke: rgb(68, 68, 68); stroke-opacity: 1; fill: rgb(239, 85, 59); fill-opacity: 0.6; stroke-width: 0; opacity: 1;"/><path class="sankey-link" d="M765,656.728748674055C945,656.728748674055 945,647.6470588235296 1125,647.6470588235296L1125,650.2941176470591C945,650.2941176470591 945,659.3758074975846 765,659.3758074975846Z" style="stroke: rgb(68, 68, 68); stroke-opacity: 1; fill: rgb(239, 85, 59); fill-opacity: 0.6; stroke-width: 0; opacity: 1;"/><path class="sankey-link" d="M765,473.199336909349C945,473.199336909349 945,472.94117647058795 1125,472.94117647058795L1125,494.1176470588232C945,494.1176470588232 945,494.3758074975842 765,494.3758074975842Z" style="stroke: rgb(68, 68, 68); stroke-opacity: 1; fill: rgb(239, 85, 59); fill-opacity: 0.6; stroke-width: 0; opacity: 1;"/><path class="sankey-link" d="M765,536.7287486740548C945,536.7287486740548 945,551.4705882352944 1125,551.4705882352944L1125,556.7647058823532C945,556.7647058823532 945,542.0228663211136 765,542.0228663211136Z" style="stroke: rgb(68, 68, 68); stroke-opacity: 1; fill: rgb(239, 85, 59); fill-opacity: 0.6; stroke-width: 0; opacity: 1;"/><path class="sankey-link" d="M765,615.2581604387606C945,615.2581604387606 945,673.2352941176473 1125,673.2352941176473L1125,689.1176470588239C945,689.1176470588239 945,631.1405133799371 765,631.1405133799371Z" style="stroke: rgb(68, 68, 68); stroke-opacity: 1; fill: rgb(239, 85, 59); fill-opacity: 0.6; stroke-width: 0; opacity: 1;"/><path class="sankey-link" d="M765,588.7875722034665C945,588.7875722034665 945,603.5294117647062 1125,603.5294117647062L1125,622.058823529412C945,622.058823529412 945,607.3169839681724 765,607.3169839681724Z" style="stroke: rgb(68, 68, 68); stroke-opacity: 1; fill: rgb(239, 85, 59); fill-opacity: 0.6; stroke-width: 0; opacity: 1;"/><path class="sankey-link" d="M765,365.55227808581975C945,365.55227808581975 945,350.2941176470586 1125,350.2941176470586L1125,352.941176470588C945,352.941176470588 945,368.19933690934914 765,368.19933690934914Z" style="stroke: rgb(68, 68, 68); stroke-opacity: 1; fill: rgb(182, 232, 128); fill-opacity: 0.6; stroke-width: 0; opacity: 1;"/><path class="sankey-link" d="M765,418.4934545564079C945,418.4934545564079 945,418.2352941176468 1125,418.2352941176468L1125,420.8823529411762C945,420.8823529411762 945,421.1405133799373 765,421.1405133799373Z" style="stroke: rgb(68, 68, 68); stroke-opacity: 1; fill: rgb(182, 232, 128); fill-opacity: 0.6; stroke-width: 0; opacity: 1;"/><path class="sankey-link" d="M765,494.3758074975843C945,494.3758074975843 945,494.11764705882325 1125,494.11764705882325L1125,502.05882352941154C945,502.05882352941154 945,502.31698396817256 765,502.31698396817256Z" style="stroke: rgb(68, 68, 68); stroke-opacity: 1; fill: rgb(182, 232, 128); fill-opacity: 0.6; stroke-width: 0; opacity: 1;"/><path class="sankey-link" d="M765,542.0228663211136C945,542.0228663211136 945,556.7647058823532 1125,556.7647058823532L1125,564.7058823529414C945,564.7058823529414 945,549.9640427917019 765,549.9640427917019Z" style="stroke: rgb(68, 68, 68); stroke-opacity: 1; fill: rgb(182, 232, 128); fill-opacity: 0.6; stroke-width: 0; opacity: 1;"/><path class="sankey-link" d="M765,631.140513379937C945,631.140513379937 945,689.1176470588238 1125,689.1176470588238L1125,691.7647058823533C945,691.7647058823533 945,633.7875722034665 765,633.7875722034665Z" style="stroke: rgb(68, 68, 68); stroke-opacity: 1; fill: rgb(182, 232, 128); fill-opacity: 0.6; stroke-width: 0; opacity: 1;"/><path class="sankey-link" d="M765,607.3169839681724C945,607.3169839681724 945,622.058823529412 1125,622.058823529412L1125,624.7058823529416C945,624.7058823529416 945,609.9640427917019 765,609.9640427917019Z" style="stroke: rgb(68, 68, 68); stroke-opacity: 1; fill: rgb(182, 232, 128); fill-opacity: 0.6; stroke-width: 0; opacity: 1;"/><path class="sankey-link" d="M765,502.3169839681725C945,502.3169839681725 945,502.0588235294115 1125,502.0588235294115L1125,504.7058823529409C945,504.7058823529409 945,504.9640427917019 765,504.9640427917019Z" style="stroke: rgb(68, 68, 68); stroke-opacity: 1; fill: rgb(255, 151, 255); fill-opacity: 0.6; stroke-width: 0; opacity: 1;"/><path class="sankey-link" d="M765,659.3758074975844C945,659.3758074975844 945,650.294117647059 1125,650.294117647059L1125,652.9411764705885C945,652.9411764705885 945,662.022866321114 765,662.022866321114Z" style="stroke: rgb(68, 68, 68); stroke-opacity: 1; fill: rgb(255, 102, 146); fill-opacity: 0.6; stroke-width: 0; opacity: 1;"/></g><g class="sankey-node-set" style="cursor: move;"><g class="sankey-node" transform="translate(0.000,544.412)" style="opacity: 1;"><rect class="node-rect" width="15" height="55.58823529411802" style="stroke-width: 0.5; stroke: rgb(0, 0, 0); stroke-opacity: 1; fill: rgb(128, 128, 128); fill-opacity: 1;"/><text class="node-label" data-notex="1" x="0" y="0" text-anchor="start" transform="translate(18.25,31.99411764705901)" style="cursor: default; font-family: 'Open Sans', verdana, arial, sans-serif; font-size: 12px; fill: rgb(42, 63, 95); fill-opacity: 1; white-space: pre; text-shadow: white 1px 1px 1px, white -1px -1px 1px, white 1px -1px 1px, white -1px 1px 1px;">21271R</text></g><g class="sankey-node" transform="translate(0.000,615.000)" style="opacity: 1;"><rect class="node-rect" width="15" height="42.352941176470495" style="stroke-width: 0.5; stroke: rgb(0, 0, 0); stroke-opacity: 1; fill: rgb(128, 128, 128); fill-opacity: 1;"/><text class="node-label" data-notex="1" x="0" y="0" text-anchor="start" transform="translate(18.25,25.376470588235247)" style="cursor: default; font-family: 'Open Sans', verdana, arial, sans-serif; font-size: 12px; fill: rgb(42, 63, 95); fill-opacity: 1; white-space: pre; text-shadow: white 1px 1px 1px, white -1px -1px 1px, white 1px -1px 1px, white -1px 1px 1px;">21272R</text></g><g class="sankey-node" transform="translate(0.000,672.353)" style="opacity: 1;"><rect class="node-rect" width="15" height="47.64705882352928" style="stroke-width: 0.5; stroke: rgb(0, 0, 0); stroke-opacity: 1; fill: rgb(128, 128, 128); fill-opacity: 1;"/><text class="node-label" data-notex="1" x="0" y="0" text-anchor="start" transform="translate(18.25,28.02352941176464)" style="cursor: default; font-family: 'Open Sans', verdana, arial, sans-serif; font-size: 12px; fill: rgb(42, 63, 95); fill-opacity: 1; white-space: pre; text-shadow: white 1px 1px 1px, white -1px -1px 1px, white 1px -1px 1px, white -1px 1px 1px;">21965RL</text></g><g class="sankey-node" transform="translate(0.000,77.647)" style="opacity: 1;"><rect class="node-rect" width="15" height="217.058823529412" style="stroke-width: 0.5; stroke: rgb(0, 0, 0); stroke-opacity: 1; fill: rgb(128, 128, 128); fill-opacity: 1;"/><text class="node-label" data-notex="1" x="0" y="0" text-anchor="start" transform="translate(18.25,112.729411764706)" style="cursor: default; font-family: 'Open Sans', verdana, arial, sans-serif; font-size: 12px; fill: rgb(42, 63, 95); fill-opacity: 1; white-space: pre; text-shadow: white 1px 1px 1px, white -1px -1px 1px, white 1px -1px 1px, white -1px 1px 1px;">22384</text></g><g class="sankey-node" transform="translate(0.000,309.706)" style="opacity: 1;"><rect class="node-rect" width="15" height="219.70588235294122" style="stroke-width: 0.5; stroke: rgb(0, 0, 0); stroke-opacity: 1; fill: rgb(128, 128, 128); fill-opacity: 1;"/><text class="node-label" data-notex="1" x="0" y="0" text-anchor="start" transform="translate(18.25,114.05294117647061)" style="cursor: default; font-family: 'Open Sans', verdana, arial, sans-serif; font-size: 12px; fill: rgb(42, 63, 95); fill-opacity: 1; white-space: pre; text-shadow: white 1px 1px 1px, white -1px -1px 1px, white 1px -1px 1px, white -1px 1px 1px;">22670</text></g><g class="sankey-node" transform="translate(750.000,304.670)" style="opacity: 1;"><rect class="node-rect" width="15" height="116.47058823529392" style="stroke-width: 0.5; stroke: rgb(0, 0, 0); stroke-opacity: 1; fill: rgb(128, 128, 128); fill-opacity: 1;"/><text class="node-label" data-notex="1" x="0" y="0" text-anchor="start" transform="translate(18.25,62.43529411764696)" style="cursor: default; font-family: 'Open Sans', verdana, arial, sans-serif; font-size: 12px; fill: rgb(42, 63, 95); fill-opacity: 1; white-space: pre; text-shadow: white 1px 1px 1px, white -1px -1px 1px, white 1px -1px 1px, white -1px 1px 1px;">Aggressor</text></g><g class="sankey-node" transform="translate(750.000,648.788)" style="opacity: 1;"><rect class="node-rect" width="15" height="26.47058823529437" style="stroke-width: 0.5; stroke: rgb(0, 0, 0); stroke-opacity: 1; fill: rgb(128, 128, 128); fill-opacity: 1;"/><text class="node-label" data-notex="1" x="0" y="0" text-anchor="start" transform="translate(18.25,17.435294117647185)" style="cursor: default; font-family: 'Open Sans', verdana, arial, sans-serif; font-size: 12px; fill: rgb(42, 63, 95); fill-opacity: 1; white-space: pre; text-shadow: white 1px 1px 1px, white -1px -1px 1px, white 1px -1px 1px, white -1px 1px 1px;">NonSocial</text></g><g class="sankey-node" transform="translate(750.000,436.141)" style="opacity: 1;"><rect class="node-rect" width="15" height="113.82352941176458" style="stroke-width: 0.5; stroke: rgb(0, 0, 0); stroke-opacity: 1; fill: rgb(128, 128, 128); fill-opacity: 1;"/><text class="node-label" data-notex="1" x="0" y="0" text-anchor="start" transform="translate(18.25,61.111764705882294)" style="cursor: default; font-family: 'Open Sans', verdana, arial, sans-serif; font-size: 12px; fill: rgb(42, 63, 95); fill-opacity: 1; white-space: pre; text-shadow: white 1px 1px 1px, white -1px -1px 1px, white 1px -1px 1px, white -1px 1px 1px;">Social</text></g><g class="sankey-node" transform="translate(750.000,564.964)" style="opacity: 1;"><rect class="node-rect" width="15" height="68.8235294117651" style="stroke-width: 0.5; stroke: rgb(0, 0, 0); stroke-opacity: 1; fill: rgb(128, 128, 128); fill-opacity: 1;"/><text class="node-label" data-notex="1" x="0" y="0" text-anchor="start" transform="translate(18.25,38.61176470588255)" style="cursor: default; font-family: 'Open Sans', verdana, arial, sans-serif; font-size: 12px; fill: rgb(42, 63, 95); fill-opacity: 1; white-space: pre; text-shadow: white 1px 1px 1px, white -1px -1px 1px, white 1px -1px 1px, white -1px 1px 1px;">Target of Aggression</text></g><g class="sankey-node" transform="translate(1125.000,289.412)" style="opacity: 1;"><rect class="node-rect" width="15" height="63.529411764705856" style="stroke-width: 0.5; stroke: rgb(0, 0, 0); stroke-opacity: 1; fill: rgb(128, 128, 128); fill-opacity: 1;"/><text class="node-label" data-notex="1" x="0" y="0" text-anchor="end" transform="translate(-3.25,35.96470588235293)" style="cursor: default; font-family: 'Open Sans', verdana, arial, sans-serif; font-size: 12px; fill: rgb(42, 63, 95); fill-opacity: 1; white-space: pre; text-shadow: white 1px 1px 1px, white -1px -1px 1px, white 1px -1px 1px, white -1px 1px 1px;">Aggressor-activated</text></g><g class="sankey-node" transform="translate(1125.000,639.706)" style="opacity: 1;"><rect class="node-rect" width="15" height="13.235294117647072" style="stroke-width: 0.5; stroke: rgb(0, 0, 0); stroke-opacity: 1; fill: rgb(128, 128, 128); fill-opacity: 1;"/><text class="node-label" data-notex="1" x="0" y="0" text-anchor="end" transform="translate(-3.25,10.817647058823535)" style="cursor: default; font-family: 'Open Sans', verdana, arial, sans-serif; font-size: 12px; fill: rgb(42, 63, 95); fill-opacity: 1; white-space: pre; text-shadow: white 1px 1px 1px, white -1px -1px 1px, white 1px -1px 1px, white -1px 1px 1px;">NonSocial-suppressed</text></g><g class="sankey-node" transform="translate(1125.000,519.706)" style="opacity: 1;"><rect class="node-rect" width="15" height="45" style="stroke-width: 0.5; stroke: rgb(0, 0, 0); stroke-opacity: 1; fill: rgb(128, 128, 128); fill-opacity: 1;"/><text class="node-label" data-notex="1" x="0" y="0" text-anchor="end" transform="translate(-3.25,26.7)" style="cursor: default; font-family: 'Open Sans', verdana, arial, sans-serif; font-size: 12px; fill: rgb(42, 63, 95); fill-opacity: 1; white-space: pre; text-shadow: white 1px 1px 1px, white -1px -1px 1px, white 1px -1px 1px, white -1px 1px 1px;">Social-suppressed</text></g><g class="sankey-node" transform="translate(1125.000,706.765)" style="opacity: 1;"><rect class="node-rect" width="15" height="13.235294117646845" style="stroke-width: 0.5; stroke: rgb(0, 0, 0); stroke-opacity: 1; fill: rgb(128, 128, 128); fill-opacity: 1;"/><text class="node-label" data-notex="1" x="0" y="0" text-anchor="end" transform="translate(-3.25,10.817647058823422)" style="cursor: default; font-family: 'Open Sans', verdana, arial, sans-serif; font-size: 12px; fill: rgb(42, 63, 95); fill-opacity: 1; white-space: pre; text-shadow: white 1px 1px 1px, white -1px -1px 1px, white 1px -1px 1px, white -1px 1px 1px;">NonSocial-activated</text></g><g class="sankey-node" transform="translate(1125.000,435.882)" style="opacity: 1;"><rect class="node-rect" width="15" height="68.82352941176526" style="stroke-width: 0.5; stroke: rgb(0, 0, 0); stroke-opacity: 1; fill: rgb(128, 128, 128); fill-opacity: 1;"/><text class="node-label" data-notex="1" x="0" y="0" text-anchor="end" transform="translate(-3.25,38.611764705882635)" style="cursor: default; font-family: 'Open Sans', verdana, arial, sans-serif; font-size: 12px; fill: rgb(42, 63, 95); fill-opacity: 1; white-space: pre; text-shadow: white 1px 1px 1px, white -1px -1px 1px, white 1px -1px 1px, white -1px 1px 1px;">Social-activated</text></g><g class="sankey-node" transform="translate(1125.000,367.941)" style="opacity: 1;"><rect class="node-rect" width="15" height="52.941176470588175" style="stroke-width: 0.5; stroke: rgb(0, 0, 0); stroke-opacity: 1; fill: rgb(128, 128, 128); fill-opacity: 1;"/><text class="node-label" data-notex="1" x="0" y="0" text-anchor="end" transform="translate(-3.25,30.670588235294087)" style="cursor: default; font-family: 'Open Sans', verdana, arial, sans-serif; font-size: 12px; fill: rgb(42, 63, 95); fill-opacity: 1; white-space: pre; text-shadow: white 1px 1px 1px, white -1px -1px 1px, white 1px -1px 1px, white -1px 1px 1px;">Aggressor-suppressed</text></g><g class="sankey-node" transform="translate(1125.000,579.706)" style="opacity: 1;"><rect class="node-rect" width="15" height="45" style="stroke-width: 0.5; stroke: rgb(0, 0, 0); stroke-opacity: 1; fill: rgb(128, 128, 128); fill-opacity: 1;"/><text class="node-label" data-notex="1" x="0" y="0" text-anchor="end" transform="translate(-3.25,26.7)" style="cursor: default; font-family: 'Open Sans', verdana, arial, sans-serif; font-size: 12px; fill: rgb(42, 63, 95); fill-opacity: 1; white-space: pre; text-shadow: white 1px 1px 1px, white -1px -1px 1px, white 1px -1px 1px, white -1px 1px 1px;">Target of Aggression-suppressed</text></g><g class="sankey-node" transform="translate(1125.000,667.941)" style="opacity: 1;"><rect class="node-rect" width="15" height="23.82352941176464" style="stroke-width: 0.5; stroke: rgb(0, 0, 0); stroke-opacity: 1; fill: rgb(128, 128, 128); fill-opacity: 1;"/><text class="node-label" data-notex="1" x="0" y="0" text-anchor="end" transform="translate(-3.25,16.11176470588232)" style="cursor: default; font-family: 'Open Sans', verdana, arial, sans-serif; font-size: 12px; fill: rgb(42, 63, 95); fill-opacity: 1; white-space: pre; text-shadow: white 1px 1px 1px, white -1px -1px 1px, white 1px -1px 1px, white -1px 1px 1px;">Target of Aggression-activated</text></g><g class="sankey-node" transform="translate(375.000,289.412)" style="opacity: 1;"><rect class="node-rect" width="15" height="105.88235294117635" style="stroke-width: 0.5; stroke: rgb(0, 0, 0); stroke-opacity: 1; fill: rgb(99, 110, 250); fill-opacity: 1;"/><text class="node-label" data-notex="1" x="0" y="0" text-anchor="start" transform="translate(18.25,57.14117647058818)" style="cursor: default; font-family: 'Open Sans', verdana, arial, sans-serif; font-size: 12px; fill: rgb(42, 63, 95); fill-opacity: 1; white-space: pre; text-shadow: white 1px 1px 1px, white -1px -1px 1px, white 1px -1px 1px, white -1px 1px 1px;">Cla</text></g><g class="sankey-node" transform="translate(375.000,-0.000)" style="opacity: 1;"><rect class="node-rect" width="15" height="217.05882352941202" style="stroke-width: 0.5; stroke: rgb(0, 0, 0); stroke-opacity: 1; fill: rgb(239, 85, 59); fill-opacity: 1;"/><text class="node-label" data-notex="1" x="0" y="0" text-anchor="start" transform="translate(18.25,112.72941176470601)" style="cursor: default; font-family: 'Open Sans', verdana, arial, sans-serif; font-size: 12px; fill: rgb(42, 63, 95); fill-opacity: 1; white-space: pre; text-shadow: white 1px 1px 1px, white -1px -1px 1px, white 1px -1px 1px, white -1px 1px 1px;">VTA</text></g><g class="sankey-node" transform="translate(375.000,483.529)" style="opacity: 1;"><rect class="node-rect" width="15" height="31.764705882352928" style="stroke-width: 0.5; stroke: rgb(0, 0, 0); stroke-opacity: 1; fill: rgb(0, 204, 150); fill-opacity: 1;"/><text class="node-label" data-notex="1" x="0" y="0" text-anchor="start" transform="translate(18.25,20.082352941176463)" style="cursor: default; font-family: 'Open Sans', verdana, arial, sans-serif; font-size: 12px; fill: rgb(42, 63, 95); fill-opacity: 1; white-space: pre; text-shadow: white 1px 1px 1px, white -1px -1px 1px, white 1px -1px 1px, white -1px 1px 1px;">LC</text></g><g class="sankey-node" transform="translate(375.000,530.294)" style="opacity: 1;"><rect class="node-rect" width="15" height="68.82352941176475" style="stroke-width: 0.5; stroke: rgb(0, 0, 0); stroke-opacity: 1; fill: rgb(171, 99, 250); fill-opacity: 1;"/><text class="node-label" data-notex="1" x="0" y="0" text-anchor="start" transform="translate(18.25,38.61176470588238)" style="cursor: default; font-family: 'Open Sans', verdana, arial, sans-serif; font-size: 12px; fill: rgb(42, 63, 95); fill-opacity: 1; white-space: pre; text-shadow: white 1px 1px 1px, white -1px -1px 1px, white 1px -1px 1px, white -1px 1px 1px;">Str</text></g><g class="sankey-node" transform="translate(375.000,642.353)" style="opacity: 1;"><rect class="node-rect" width="15" height="29.11764705882365" style="stroke-width: 0.5; stroke: rgb(0, 0, 0); stroke-opacity: 1; fill: rgb(255, 161, 90); fill-opacity: 1;"/><text class="node-label" data-notex="1" x="0" y="0" text-anchor="start" transform="translate(18.25,18.758823529411824)" style="cursor: default; font-family: 'Open Sans', verdana, arial, sans-serif; font-size: 12px; fill: rgb(42, 63, 95); fill-opacity: 1; white-space: pre; text-shadow: white 1px 1px 1px, white -1px -1px 1px, white 1px -1px 1px, white -1px 1px 1px;">NAc</text></g><g class="sankey-node" transform="translate(375.000,704.118)" style="opacity: 1;"><rect class="node-rect" width="15" height="15.88235294117635" style="stroke-width: 0.5; stroke: rgb(0, 0, 0); stroke-opacity: 1; fill: rgb(25, 211, 243); fill-opacity: 1;"/><text class="node-label" data-notex="1" x="0" y="0" text-anchor="start" transform="translate(18.25,12.141176470588174)" style="cursor: default; font-family: 'Open Sans', verdana, arial, sans-serif; font-size: 12px; fill: rgb(42, 63, 95); fill-opacity: 1; white-space: pre; text-shadow: white 1px 1px 1px, white -1px -1px 1px, white 1px -1px 1px, white -1px 1px 1px;">BLA</text></g><g class="sankey-node" transform="translate(375.000,686.471)" style="opacity: 1;"><rect class="node-rect" width="15" height="2.6470588235295054" style="stroke-width: 0.5; stroke: rgb(0, 0, 0); stroke-opacity: 1; fill: rgb(255, 102, 146); fill-opacity: 1;"/><text class="node-label" data-notex="1" x="0" y="0" text-anchor="start" transform="translate(18.25,5.523529411764752)" style="cursor: default; font-family: 'Open Sans', verdana, arial, sans-serif; font-size: 12px; fill: rgb(42, 63, 95); fill-opacity: 1; white-space: pre; text-shadow: white 1px 1px 1px, white -1px -1px 1px, white 1px -1px 1px, white -1px 1px 1px;">lHb</text></g><g class="sankey-node" transform="translate(375.000,410.294)" style="opacity: 1;"><rect class="node-rect" width="15" height="58.235294117647186" style="stroke-width: 0.5; stroke: rgb(0, 0, 0); stroke-opacity: 1; fill: rgb(182, 232, 128); fill-opacity: 1;"/><text class="node-label" data-notex="1" x="0" y="0" text-anchor="start" transform="translate(18.25,33.317647058823596)" style="cursor: default; font-family: 'Open Sans', verdana, arial, sans-serif; font-size: 12px; fill: rgb(42, 63, 95); fill-opacity: 1; white-space: pre; text-shadow: white 1px 1px 1px, white -1px -1px 1px, white 1px -1px 1px, white -1px 1px 1px;">cPFC</text></g><g class="sankey-node" transform="translate(375.000,614.118)" style="opacity: 1;"><rect class="node-rect" width="15" height="13.235294117647527" style="stroke-width: 0.5; stroke: rgb(0, 0, 0); stroke-opacity: 1; fill: rgb(255, 151, 255); fill-opacity: 1;"/><text class="node-label" data-notex="1" x="0" y="0" text-anchor="start" transform="translate(18.25,10.817647058823763)" style="cursor: default; font-family: 'Open Sans', verdana, arial, sans-serif; font-size: 12px; fill: rgb(42, 63, 95); fill-opacity: 1; white-space: pre; text-shadow: white 1px 1px 1px, white -1px -1px 1px, white 1px -1px 1px, white -1px 1px 1px;">dPAG</text></g><g class="sankey-node" transform="translate(375.000,232.059)" style="opacity: 1;"><rect class="node-rect" width="15" height="42.35294117647061" style="stroke-width: 0.5; stroke: rgb(0, 0, 0); stroke-opacity: 1; fill: rgb(254, 203, 82); fill-opacity: 1;"/><text class="node-label" data-notex="1" x="0" y="0" text-anchor="start" transform="translate(18.25,25.376470588235303)" style="cursor: default; font-family: 'Open Sans', verdana, arial, sans-serif; font-size: 12px; fill: rgb(42, 63, 95); fill-opacity: 1; white-space: pre; text-shadow: white 1px 1px 1px, white -1px -1px 1px, white 1px -1px 1px, white -1px 1px 1px;">LHyp</text></g></g></g><defs id="topdefs-81de14"><g class="clips"/></defs><g class="layer-above"><g class="imagelayer"/><g class="shapelayer"/></g><g class="infolayer"><g class="g-gtitle"/><g class="first-render"/></g></svg>