<svg class="main-svg" xmlns="http://www.w3.org/2000/svg" xmlns:xlink="http://www.w3.org/1999/xlink" width="1300" height="900" style="" viewBox="0 0 1300 900"><rect x="0" y="0" width="1300" height="900" style="fill: rgb(255, 255, 255); fill-opacity: 1;"/><defs id="defs-ca9fe9"><g class="clips"/><g class="gradients"/><g class="patterns"/></defs><g class="bglayer"/><g class="layer-below"><g class="imagelayer"/><g class="shapelayer"/></g><g class="cartesianlayer"/><g class="polarlayer"/><g class="smithlayer"/><g class="ternarylayer"/><g class="geolayer"/><g class="funnelarealayer"/><g class="pielayer"/><g class="iciclelayer"/><g class="treemaplayer"/><g class="sunburstlayer"/><g class="glimages"/><g class="sankey" transform="translate(80,100)matrix(1 0 0 1 0 0)" style="box-sizing: content-box; position: absolute; left: 0px; shape-rendering: geometricprecision; pointer-events: none;"><g class="sankey-links" style="fill: none;"><path class="sankey-link" d="M15,710.7751937984498C195,710.7751937984498 195,568.2558139534882 375,568.2558139534882L375,577.4806201550385C195,577.4806201550385 195,720.0000000000001 15,720.0000000000001Z" style="stroke: rgb(68, 68, 68); stroke-opacity: 1; fill: rgb(99, 110, 250); fill-opacity: 0.6; stroke-width: 0; opacity: 1;"/><path class="sankey-link" d="M15,701.5503875968993C195,701.5503875968993 195,279.4573643410845 375,279.4573643410845L375,283.4108527131775C195,283.4108527131775 195,705.5038759689924 15,705.5038759689924Z" style="stroke: rgb(68, 68, 68); stroke-opacity: 1; fill: rgb(239, 85, 59); fill-opacity: 0.6; stroke-width: 0; opacity: 1;"/><path class="sankey-link" d="M15,706.8217054263567C195,706.8217054263567 195,461.00775193798427 375,461.00775193798427L375,464.9612403100773C195,464.9612403100773 195,710.7751937984498 15,710.7751937984498Z" style="stroke: rgb(68, 68, 68); stroke-opacity: 1; fill: rgb(171, 99, 250); fill-opacity: 0.6; stroke-width: 0; opacity: 1;"/><path class="sankey-link" d="M15,697.5968992248063C195,697.5968992248063 195,137.44186046511572 375,137.44186046511572L375,141.39534883720876C195,141.39534883720876 195,701.5503875968993 15,701.5503875968993Z" style="stroke: rgb(68, 68, 68); stroke-opacity: 1; fill: rgb(0, 204, 150); fill-opacity: 0.6; stroke-width: 0; opacity: 1;"/><path class="sankey-link" d="M15,705.5038759689924C195,705.5038759689924 195,419.65116279069696 375,419.65116279069696L375,420.96899224806134C195,420.96899224806134 195,706.8217054263566 15,706.8217054263566Z" style="stroke: rgb(68, 68, 68); stroke-opacity: 1; fill: rgb(255, 161, 90); fill-opacity: 0.6; stroke-width: 0; opacity: 1;"/><path class="sankey-link" d="M15,275.19379844961253C195,275.19379844961253 195,194.6124031007745 375,194.6124031007745L375,214.3798449612396C195,214.3798449612396 195,294.9612403100777 15,294.9612403100777Z" style="stroke: rgb(68, 68, 68); stroke-opacity: 1; fill: rgb(25, 211, 243); fill-opacity: 0.6; stroke-width: 0; opacity: 1;"/><path class="sankey-link" d="M15,350.31007751938C195,350.31007751938 195,508.95348837209275 375,508.95348837209275L375,535.3100775193795C195,535.3100775193795 195,376.66666666666686 15,376.66666666666686Z" style="stroke: rgb(68, 68, 68); stroke-opacity: 1; fill: rgb(99, 110, 250); fill-opacity: 0.6; stroke-width: 0; opacity: 1;"/><path class="sankey-link" d="M15,294.96124031007764C195,294.96124031007764 195,233.33333333333258 375,233.33333333333258L375,262.3255813953481C195,262.3255813953481 195,323.95348837209315 15,323.95348837209315Z" style="stroke: rgb(68, 68, 68); stroke-opacity: 1; fill: rgb(239, 85, 59); fill-opacity: 0.6; stroke-width: 0; opacity: 1;"/><path class="sankey-link" d="M15,333.17829457364354C195,333.17829457364354 195,435.9689922480618 375,435.9689922480618L375,453.1007751937982C195,453.1007751937982 195,350.31007751937994 15,350.31007751937994Z" style="stroke: rgb(68, 68, 68); stroke-opacity: 1; fill: rgb(171, 99, 250); fill-opacity: 0.6; stroke-width: 0; opacity: 1;"/><path class="sankey-link" d="M15,240.93023255813964C195,240.93023255813964 195,75.50387596899168 375,75.50387596899168L375,109.76744186046454C195,109.76744186046454 195,275.1937984496125 15,275.1937984496125Z" style="stroke: rgb(68, 68, 68); stroke-opacity: 1; fill: rgb(0, 204, 150); fill-opacity: 0.6; stroke-width: 0; opacity: 1;"/><path class="sankey-link" d="M15,323.95348837209315C195,323.95348837209315 195,318.1782945736427 375,318.1782945736427L375,327.403100775193C195,327.403100775193 195,333.1782945736435 15,333.1782945736435Z" style="stroke: rgb(68, 68, 68); stroke-opacity: 1; fill: rgb(255, 161, 90); fill-opacity: 0.6; stroke-width: 0; opacity: 1;"/><path class="sankey-link" d="M15,385.8914728682172C195,385.8914728682172 195,644.3798449612402 375,644.3798449612402L375,660.1937984496124C195,660.1937984496124 195,401.7054263565893 15,401.7054263565893Z" style="stroke: rgb(68, 68, 68); stroke-opacity: 1; fill: rgb(255, 151, 255); fill-opacity: 0.6; stroke-width: 0; opacity: 1;"/><path class="sankey-link" d="M15,376.6666666666668C195,376.6666666666668 195,599.0697674418601 375,599.0697674418601L375,608.2945736434104C195,608.2945736434104 195,385.89147286821714 15,385.89147286821714Z" style="stroke: rgb(68, 68, 68); stroke-opacity: 1; fill: rgb(255, 102, 146); fill-opacity: 0.6; stroke-width: 0; opacity: 1;"/><path class="sankey-link" d="M15,235.6589147286823C195,235.6589147286823 195,55.23255813953429 375,55.23255813953429L375,60.50387596899165C195,60.50387596899165 195,240.93023255813966 15,240.93023255813966Z" style="stroke: rgb(68, 68, 68); stroke-opacity: 1; fill: rgb(182, 232, 128); fill-opacity: 0.6; stroke-width: 0; opacity: 1;"/><path class="sankey-link" d="M15,643.062015503876C195,643.062015503876 195,214.3798449612396 375,214.3798449612396L375,218.33333333333263C195,218.33333333333263 195,647.015503875969 15,647.015503875969Z" style="stroke: rgb(68, 68, 68); stroke-opacity: 1; fill: rgb(25, 211, 243); fill-opacity: 0.6; stroke-width: 0; opacity: 1;"/><path class="sankey-link" d="M15,661.5116279069767C195,661.5116279069767 195,556.3953488372091 375,556.3953488372091L375,568.2558139534882C195,568.2558139534882 195,673.3720930232558 15,673.3720930232558Z" style="stroke: rgb(68, 68, 68); stroke-opacity: 1; fill: rgb(99, 110, 250); fill-opacity: 0.6; stroke-width: 0; opacity: 1;"/><path class="sankey-link" d="M15,647.015503875969C195,647.015503875969 195,275.50387596899145 375,275.50387596899145L375,279.4573643410845C195,279.4573643410845 195,650.968992248062 15,650.968992248062Z" style="stroke: rgb(68, 68, 68); stroke-opacity: 1; fill: rgb(239, 85, 59); fill-opacity: 0.6; stroke-width: 0; opacity: 1;"/><path class="sankey-link" d="M15,653.6046511627907C195,653.6046511627907 195,453.1007751937982 375,453.1007751937982L375,461.00775193798427C195,461.00775193798427 195,661.5116279069767 15,661.5116279069767Z" style="stroke: rgb(68, 68, 68); stroke-opacity: 1; fill: rgb(171, 99, 250); fill-opacity: 0.6; stroke-width: 0; opacity: 1;"/><path class="sankey-link" d="M15,639.1085271317829C195,639.1085271317829 195,133.4883720930227 375,133.4883720930227L375,137.44186046511572C195,137.44186046511572 195,643.062015503876 15,643.062015503876Z" style="stroke: rgb(68, 68, 68); stroke-opacity: 1; fill: rgb(0, 204, 150); fill-opacity: 0.6; stroke-width: 0; opacity: 1;"/><path class="sankey-link" d="M15,650.968992248062C195,650.968992248062 195,417.01550387596825 375,417.01550387596825L375,419.6511627906969C195,419.6511627906969 195,653.6046511627908 15,653.6046511627908Z" style="stroke: rgb(68, 68, 68); stroke-opacity: 1; fill: rgb(255, 161, 90); fill-opacity: 0.6; stroke-width: 0; opacity: 1;"/><path class="sankey-link" d="M15,678.6434108527133C195,678.6434108527133 195,678.643410852713 375,678.643410852713L375,682.5968992248061C195,682.5968992248061 195,682.5968992248063 15,682.5968992248063Z" style="stroke: rgb(68, 68, 68); stroke-opacity: 1; fill: rgb(255, 151, 255); fill-opacity: 0.6; stroke-width: 0; opacity: 1;"/><path class="sankey-link" d="M15,673.3720930232558C195,673.3720930232558 195,613.5658914728677 375,613.5658914728677L375,618.837209302325C195,618.837209302325 195,678.6434108527131 15,678.6434108527131Z" style="stroke: rgb(68, 68, 68); stroke-opacity: 1; fill: rgb(255, 102, 146); fill-opacity: 0.6; stroke-width: 0; opacity: 1;"/><path class="sankey-link" d="M15,479.9612403100776C195,479.9612403100776 195,535.3100775193797 375,535.3100775193797L375,545.8527131782945C195,545.8527131782945 195,490.5038759689923 15,490.5038759689923Z" style="stroke: rgb(68, 68, 68); stroke-opacity: 1; fill: rgb(99, 110, 250); fill-opacity: 0.6; stroke-width: 0; opacity: 1;"/><path class="sankey-link" d="M15,428.5658914728683C195,428.5658914728683 195,262.3255813953481 375,262.3255813953481L375,268.91472868216977C195,268.91472868216977 195,435.15503875969 15,435.15503875969Z" style="stroke: rgb(68, 68, 68); stroke-opacity: 1; fill: rgb(239, 85, 59); fill-opacity: 0.6; stroke-width: 0; opacity: 1;"/><path class="sankey-link" d="M15,502.3643410852714C195,502.3643410852714 195,697.5968992248061 375,697.5968992248061L375,708.1395348837209C195,708.1395348837209 195,512.9069767441862 15,512.9069767441862Z" style="stroke: rgb(68, 68, 68); stroke-opacity: 1; fill: rgb(254, 203, 82); fill-opacity: 0.6; stroke-width: 0; opacity: 1;"/><path class="sankey-link" d="M15,416.70542635658927C195,416.70542635658927 195,109.76744186046454 375,109.76744186046454L375,121.62790697674362C195,121.62790697674362 195,428.5658914728684 15,428.5658914728684Z" style="stroke: rgb(68, 68, 68); stroke-opacity: 1; fill: rgb(0, 204, 150); fill-opacity: 0.6; stroke-width: 0; opacity: 1;"/><path class="sankey-link" d="M15,435.15503875969C195,435.15503875969 195,327.4031007751931 375,327.4031007751931L375,372.2093023255807C195,372.2093023255807 195,479.96124031007764 15,479.96124031007764Z" style="stroke: rgb(68, 68, 68); stroke-opacity: 1; fill: rgb(255, 161, 90); fill-opacity: 0.6; stroke-width: 0; opacity: 1;"/><path class="sankey-link" d="M15,493.139534883721C195,493.139534883721 195,660.1937984496124 375,660.1937984496124L375,669.4186046511627C195,669.4186046511627 195,502.36434108527135 15,502.36434108527135Z" style="stroke: rgb(68, 68, 68); stroke-opacity: 1; fill: rgb(255, 151, 255); fill-opacity: 0.6; stroke-width: 0; opacity: 1;"/><path class="sankey-link" d="M15,490.5038759689923C195,490.5038759689923 195,608.2945736434104 375,608.2945736434104L375,610.9302325581392C195,610.9302325581392 195,493.13953488372096 15,493.13953488372096Z" style="stroke: rgb(68, 68, 68); stroke-opacity: 1; fill: rgb(255, 102, 146); fill-opacity: 0.6; stroke-width: 0; opacity: 1;"/><path class="sankey-link" d="M15,591.1627906976744C195,591.1627906976744 195,545.8527131782944 375,545.8527131782944L375,556.3953488372092C195,556.3953488372092 195,601.7054263565892 15,601.7054263565892Z" style="stroke: rgb(68, 68, 68); stroke-opacity: 1; fill: rgb(99, 110, 250); fill-opacity: 0.6; stroke-width: 0; opacity: 1;"/><path class="sankey-link" d="M15,539.767441860465C195,539.767441860465 195,268.91472868216977 375,268.91472868216977L375,275.50387596899145C195,275.50387596899145 195,546.3565891472869 15,546.3565891472869Z" style="stroke: rgb(68, 68, 68); stroke-opacity: 1; fill: rgb(239, 85, 59); fill-opacity: 0.6; stroke-width: 0; opacity: 1;"/><path class="sankey-link" d="M15,613.5658914728681C195,613.5658914728681 195,708.1395348837208 375,708.1395348837208L375,718.6821705426356C195,718.6821705426356 195,624.1085271317829 15,624.1085271317829Z" style="stroke: rgb(68, 68, 68); stroke-opacity: 1; fill: rgb(254, 203, 82); fill-opacity: 0.6; stroke-width: 0; opacity: 1;"/><path class="sankey-link" d="M15,527.906976744186C195,527.906976744186 195,121.62790697674362 375,121.62790697674362L375,133.4883720930227C195,133.4883720930227 195,539.767441860465 15,539.767441860465Z" style="stroke: rgb(68, 68, 68); stroke-opacity: 1; fill: rgb(0, 204, 150); fill-opacity: 0.6; stroke-width: 0; opacity: 1;"/><path class="sankey-link" d="M15,546.3565891472867C195,546.3565891472867 195,372.20930232558067 375,372.20930232558067L375,417.0155038759683C195,417.0155038759683 195,591.1627906976744 15,591.1627906976744Z" style="stroke: rgb(68, 68, 68); stroke-opacity: 1; fill: rgb(255, 161, 90); fill-opacity: 0.6; stroke-width: 0; opacity: 1;"/><path class="sankey-link" d="M15,604.3410852713178C195,604.3410852713178 195,669.4186046511627 375,669.4186046511627L375,678.643410852713C195,678.643410852713 195,613.5658914728681 15,613.5658914728681Z" style="stroke: rgb(68, 68, 68); stroke-opacity: 1; fill: rgb(255, 151, 255); fill-opacity: 0.6; stroke-width: 0; opacity: 1;"/><path class="sankey-link" d="M15,601.7054263565891C195,601.7054263565891 195,610.9302325581391 375,610.9302325581391L375,613.5658914728679C195,613.5658914728679 195,604.3410852713179 15,604.3410852713179Z" style="stroke: rgb(68, 68, 68); stroke-opacity: 1; fill: rgb(255, 102, 146); fill-opacity: 0.6; stroke-width: 0; opacity: 1;"/><path class="sankey-link" d="M390,194.6124031007745C570,194.6124031007745 570,119.49612403100662 750,119.49612403100662L750,123.44961240309965C570,123.44961240309965 570,198.56589147286752 390,198.56589147286752Z" style="stroke: rgb(68, 68, 68); stroke-opacity: 1; fill: rgb(25, 211, 243); fill-opacity: 0.6; stroke-width: 0; opacity: 1;"/><path class="sankey-link" d="M390,209.10852713178227C570,209.10852713178227 570,518.1782945736427 750,518.1782945736427L750,524.7674418604645C570,524.7674418604645 570,215.69767441860395 390,215.69767441860395Z" style="stroke: rgb(68, 68, 68); stroke-opacity: 1; fill: rgb(25, 211, 243); fill-opacity: 0.6; stroke-width: 0; opacity: 1;"/><path class="sankey-link" d="M390,198.56589147286752C570,198.56589147286752 570,196.43410852713055 750,196.43410852713055L750,197.75193798449487C570,197.75193798449487 570,199.88372093023185 390,199.88372093023185Z" style="stroke: rgb(68, 68, 68); stroke-opacity: 1; fill: rgb(25, 211, 243); fill-opacity: 0.6; stroke-width: 0; opacity: 1;"/><path class="sankey-link" d="M390,199.88372093023187C570,199.88372093023187 570,286.55038759689796 750,286.55038759689796L750,294.45736434108403C570,294.45736434108403 570,207.79069767441794 390,207.79069767441794Z" style="stroke: rgb(68, 68, 68); stroke-opacity: 1; fill: rgb(25, 211, 243); fill-opacity: 0.6; stroke-width: 0; opacity: 1;"/><path class="sankey-link" d="M390,207.7906976744179C570,207.7906976744179 570,425.4263565891464 750,425.4263565891464L750,426.7441860465108C570,426.7441860465108 570,209.10852713178224 390,209.10852713178224Z" style="stroke: rgb(68, 68, 68); stroke-opacity: 1; fill: rgb(25, 211, 243); fill-opacity: 0.6; stroke-width: 0; opacity: 1;"/><path class="sankey-link" d="M390,508.9534883720928C570,508.9534883720928 570,152.44186046511516 750,152.44186046511516L750,157.71317829457251C570,157.71317829457251 570,514.2248062015502 390,514.2248062015502Z" style="stroke: rgb(68, 68, 68); stroke-opacity: 1; fill: rgb(99, 110, 250); fill-opacity: 0.6; stroke-width: 0; opacity: 1;"/><path class="sankey-link" d="M390,577.4806201550385C570,577.4806201550385 570,689.1860465116276 750,689.1860465116276L750,694.4573643410849C570,694.4573643410849 570,582.7519379844958 390,582.7519379844958Z" style="stroke: rgb(68, 68, 68); stroke-opacity: 1; fill: rgb(99, 110, 250); fill-opacity: 0.6; stroke-width: 0; opacity: 1;"/><path class="sankey-link" d="M390,572.2093023255811C570,572.2093023255811 570,650.4651162790695 750,650.4651162790695L750,655.7364341085269C570,655.7364341085269 570,577.4806201550384 390,577.4806201550384Z" style="stroke: rgb(68, 68, 68); stroke-opacity: 1; fill: rgb(99, 110, 250); fill-opacity: 0.6; stroke-width: 0; opacity: 1;"/><path class="sankey-link" d="M390,582.751937984496C570,582.751937984496 570,718.6821705426356 750,718.6821705426356L750,719.9999999999999C570,719.9999999999999 570,584.0697674418602 390,584.0697674418602Z" style="stroke: rgb(68, 68, 68); stroke-opacity: 1; fill: rgb(99, 110, 250); fill-opacity: 0.6; stroke-width: 0; opacity: 1;"/><path class="sankey-link" d="M390,557.7131782945734C570,557.7131782945734 570,574.8449612403093 750,574.8449612403093L750,589.341085271317C570,589.341085271317 570,572.209302325581 390,572.209302325581Z" style="stroke: rgb(68, 68, 68); stroke-opacity: 1; fill: rgb(99, 110, 250); fill-opacity: 0.6; stroke-width: 0; opacity: 1;"/><path class="sankey-link" d="M390,514.2248062015502C570,514.2248062015502 570,228.06201550387473 750,228.06201550387473L750,237.28682170542513C570,237.28682170542513 570,523.4496124031006 390,523.4496124031006Z" style="stroke: rgb(68, 68, 68); stroke-opacity: 1; fill: rgb(99, 110, 250); fill-opacity: 0.6; stroke-width: 0; opacity: 1;"/><path class="sankey-link" d="M390,523.4496124031006C570,523.4496124031006 570,348.488372093022 750,348.488372093022L750,369.57364341085145C570,369.57364341085145 570,544.53488372093 390,544.53488372093Z" style="stroke: rgb(68, 68, 68); stroke-opacity: 1; fill: rgb(99, 110, 250); fill-opacity: 0.6; stroke-width: 0; opacity: 1;"/><path class="sankey-link" d="M390,544.53488372093C570,544.53488372093 570,450.46511627906887 750,450.46511627906887L750,463.64341085271224C570,463.64341085271224 570,557.7131782945734 390,557.7131782945734Z" style="stroke: rgb(68, 68, 68); stroke-opacity: 1; fill: rgb(99, 110, 250); fill-opacity: 0.6; stroke-width: 0; opacity: 1;"/><path class="sankey-link" d="M390,233.33333333333258C570,233.33333333333258 570,123.44961240309964 750,123.44961240309964L750,126.08527131782832C570,126.08527131782832 570,235.96899224806128 390,235.96899224806128Z" style="stroke: rgb(68, 68, 68); stroke-opacity: 1; fill: rgb(239, 85, 59); fill-opacity: 0.6; stroke-width: 0; opacity: 1;"/><path class="sankey-link" d="M390,301.86046511627825C570,301.86046511627825 570,672.0542635658912 750,672.0542635658912L750,673.3720930232555C570,673.3720930232555 570,303.17829457364263 390,303.17829457364263Z" style="stroke: rgb(68, 68, 68); stroke-opacity: 1; fill: rgb(239, 85, 59); fill-opacity: 0.6; stroke-width: 0; opacity: 1;"/><path class="sankey-link" d="M390,300.5426356589139C570,300.5426356589139 570,637.2868217054262 750,637.2868217054262L750,638.6046511627904C570,638.6046511627904 570,301.8604651162783 390,301.8604651162783Z" style="stroke: rgb(68, 68, 68); stroke-opacity: 1; fill: rgb(239, 85, 59); fill-opacity: 0.6; stroke-width: 0; opacity: 1;"/><path class="sankey-link" d="M390,279.4573643410845C570,279.4573643410845 570,524.7674418604644 750,524.7674418604644L750,545.8527131782938C570,545.8527131782938 570,300.5426356589139 390,300.5426356589139Z" style="stroke: rgb(68, 68, 68); stroke-opacity: 1; fill: rgb(239, 85, 59); fill-opacity: 0.6; stroke-width: 0; opacity: 1;"/><path class="sankey-link" d="M390,235.96899224806126C570,235.96899224806126 570,197.7519379844949 750,197.7519379844949L750,210.93023255813833C570,210.93023255813833 570,249.14728682170468 390,249.14728682170468Z" style="stroke: rgb(68, 68, 68); stroke-opacity: 1; fill: rgb(239, 85, 59); fill-opacity: 0.6; stroke-width: 0; opacity: 1;"/><path class="sankey-link" d="M390,249.14728682170468C570,249.14728682170468 570,294.45736434108403 750,294.45736434108403L750,314.2248062015492C570,314.2248062015492 570,268.9147286821698 390,268.9147286821698Z" style="stroke: rgb(68, 68, 68); stroke-opacity: 1; fill: rgb(239, 85, 59); fill-opacity: 0.6; stroke-width: 0; opacity: 1;"/><path class="sankey-link" d="M390,268.91472868216977C570,268.91472868216977 570,426.7441860465107 750,426.7441860465107L750,437.28682170542544C570,437.28682170542544 570,279.4573643410845 390,279.4573643410845Z" style="stroke: rgb(68, 68, 68); stroke-opacity: 1; fill: rgb(239, 85, 59); fill-opacity: 0.6; stroke-width: 0; opacity: 1;"/><path class="sankey-link" d="M390,697.5968992248061C570,697.5968992248061 570,162.98449612402987 750,162.98449612402987L750,166.9379844961229C570,166.9379844961229 570,701.5503875968991 390,701.5503875968991Z" style="stroke: rgb(68, 68, 68); stroke-opacity: 1; fill: rgb(254, 203, 82); fill-opacity: 0.6; stroke-width: 0; opacity: 1;"/><path class="sankey-link" d="M390,716.046511627907C570,716.046511627907 570,698.4108527131781 750,698.4108527131781L750,702.3643410852711C570,702.3643410852711 570,720 390,720Z" style="stroke: rgb(68, 68, 68); stroke-opacity: 1; fill: rgb(254, 203, 82); fill-opacity: 0.6; stroke-width: 0; opacity: 1;"/><path class="sankey-link" d="M390,708.1395348837209C570,708.1395348837209 570,609.1085271317821 750,609.1085271317821L750,617.0155038759682C570,617.0155038759682 570,716.046511627907 390,716.046511627907Z" style="stroke: rgb(68, 68, 68); stroke-opacity: 1; fill: rgb(254, 203, 82); fill-opacity: 0.6; stroke-width: 0; opacity: 1;"/><path class="sankey-link" d="M390,701.5503875968991C570,701.5503875968991 570,245.1937984496112 750,245.1937984496112L750,250.46511627906855C570,250.46511627906855 570,706.8217054263564 390,706.8217054263564Z" style="stroke: rgb(68, 68, 68); stroke-opacity: 1; fill: rgb(254, 203, 82); fill-opacity: 0.6; stroke-width: 0; opacity: 1;"/><path class="sankey-link" d="M390,706.8217054263565C570,706.8217054263565 570,384.0697674418592 750,384.0697674418592L750,385.3875968992236C570,385.3875968992236 570,708.1395348837208 390,708.1395348837208Z" style="stroke: rgb(68, 68, 68); stroke-opacity: 1; fill: rgb(254, 203, 82); fill-opacity: 0.6; stroke-width: 0; opacity: 1;"/><path class="sankey-link" d="M390,435.9689922480618C570,435.9689922480618 570,143.21705426356476 750,143.21705426356476L750,152.44186046511516C570,152.44186046511516 570,445.19379844961213 390,445.19379844961213Z" style="stroke: rgb(68, 68, 68); stroke-opacity: 1; fill: rgb(171, 99, 250); fill-opacity: 0.6; stroke-width: 0; opacity: 1;"/><path class="sankey-link" d="M390,489.9999999999998C570,489.9999999999998 570,686.550387596899 750,686.550387596899L750,689.1860465116278C570,689.1860465116278 570,492.6356589147284 390,492.6356589147284Z" style="stroke: rgb(68, 68, 68); stroke-opacity: 1; fill: rgb(171, 99, 250); fill-opacity: 0.6; stroke-width: 0; opacity: 1;"/><path class="sankey-link" d="M390,480.7751937984494C570,480.7751937984494 570,641.2403100775192 750,641.2403100775192L750,650.4651162790695C570,650.4651162790695 570,489.9999999999997 390,489.9999999999997Z" style="stroke: rgb(68, 68, 68); stroke-opacity: 1; fill: rgb(171, 99, 250); fill-opacity: 0.6; stroke-width: 0; opacity: 1;"/><path class="sankey-link" d="M390,492.6356589147285C570,492.6356589147285 570,717.3643410852712 750,717.3643410852712L750,718.6821705426355C570,718.6821705426355 570,493.95348837209286 390,493.95348837209286Z" style="stroke: rgb(68, 68, 68); stroke-opacity: 1; fill: rgb(171, 99, 250); fill-opacity: 0.6; stroke-width: 0; opacity: 1;"/><path class="sankey-link" d="M390,472.8682170542633C570,472.8682170542633 570,566.9379844961232 750,566.9379844961232L750,574.8449612403093C570,574.8449612403093 570,480.7751937984494 390,480.7751937984494Z" style="stroke: rgb(68, 68, 68); stroke-opacity: 1; fill: rgb(171, 99, 250); fill-opacity: 0.6; stroke-width: 0; opacity: 1;"/><path class="sankey-link" d="M390,445.1937984496122C570,445.1937984496122 570,221.47286821705302 750,221.47286821705302L750,228.0620155038747C570,228.0620155038747 570,451.7829457364339 390,451.7829457364339Z" style="stroke: rgb(68, 68, 68); stroke-opacity: 1; fill: rgb(171, 99, 250); fill-opacity: 0.6; stroke-width: 0; opacity: 1;"/><path class="sankey-link" d="M390,451.7829457364339C570,451.7829457364339 570,337.9457364341073 750,337.9457364341073L750,348.488372093022C570,348.488372093022 570,462.3255813953486 390,462.3255813953486Z" style="stroke: rgb(68, 68, 68); stroke-opacity: 1; fill: rgb(171, 99, 250); fill-opacity: 0.6; stroke-width: 0; opacity: 1;"/><path class="sankey-link" d="M390,462.3255813953486C570,462.3255813953486 570,439.92248062015415 750,439.92248062015415L750,450.46511627906887C570,450.46511627906887 570,472.8682170542633 390,472.8682170542633Z" style="stroke: rgb(68, 68, 68); stroke-opacity: 1; fill: rgb(171, 99, 250); fill-opacity: 0.6; stroke-width: 0; opacity: 1;"/><path class="sankey-link" d="M390,75.50387596899168C570,75.50387596899168 570,104.99999999999886 750,104.99999999999886L750,119.49612403100662C570,119.49612403100662 570,89.99999999999943 390,89.99999999999943Z" style="stroke: rgb(68, 68, 68); stroke-opacity: 1; fill: rgb(0, 204, 150); fill-opacity: 0.6; stroke-width: 0; opacity: 1;"/><path class="sankey-link" d="M390,174.34108527131724C570,174.34108527131724 570,632.0155038759688 750,632.0155038759688L750,637.2868217054261C570,637.2868217054261 570,179.6124031007746 390,179.6124031007746Z" style="stroke: rgb(68, 68, 68); stroke-opacity: 1; fill: rgb(0, 204, 150); fill-opacity: 0.6; stroke-width: 0; opacity: 1;"/><path class="sankey-link" d="M390,146.6666666666661C570,146.6666666666661 570,490.50387596899157 750,490.50387596899157L750,518.1782945736427C570,518.1782945736427 570,174.34108527131727 390,174.34108527131727Z" style="stroke: rgb(68, 68, 68); stroke-opacity: 1; fill: rgb(0, 204, 150); fill-opacity: 0.6; stroke-width: 0; opacity: 1;"/><path class="sankey-link" d="M390,89.99999999999943C570,89.99999999999943 570,183.25581395348715 750,183.25581395348715L750,196.43410852713058C570,196.43410852713058 570,103.17829457364283 390,103.17829457364283Z" style="stroke: rgb(68, 68, 68); stroke-opacity: 1; fill: rgb(0, 204, 150); fill-opacity: 0.6; stroke-width: 0; opacity: 1;"/><path class="sankey-link" d="M390,103.17829457364284C570,103.17829457364284 570,266.78294573643285 750,266.78294573643285L750,286.550387596898C570,286.550387596898 570,122.94573643410796 390,122.94573643410796Z" style="stroke: rgb(68, 68, 68); stroke-opacity: 1; fill: rgb(0, 204, 150); fill-opacity: 0.6; stroke-width: 0; opacity: 1;"/><path class="sankey-link" d="M390,122.94573643410794C570,122.94573643410794 570,401.70542635658825 750,401.70542635658825L750,425.42635658914634C570,425.42635658914634 570,146.6666666666661 390,146.6666666666661Z" style="stroke: rgb(68, 68, 68); stroke-opacity: 1; fill: rgb(0, 204, 150); fill-opacity: 0.6; stroke-width: 0; opacity: 1;"/><path class="sankey-link" d="M390,318.1782945736427C570,318.1782945736427 570,126.08527131782832 750,126.08527131782832L750,143.21705426356476C570,143.21705426356476 570,335.3100775193791 390,335.3100775193791Z" style="stroke: rgb(68, 68, 68); stroke-opacity: 1; fill: rgb(255, 161, 90); fill-opacity: 0.6; stroke-width: 0; opacity: 1;"/><path class="sankey-link" d="M390,395.9302325581388C570,395.9302325581388 570,673.3720930232556 750,673.3720930232556L750,686.550387596899C570,686.550387596899 570,409.1085271317822 390,409.1085271317822Z" style="stroke: rgb(68, 68, 68); stroke-opacity: 1; fill: rgb(255, 161, 90); fill-opacity: 0.6; stroke-width: 0; opacity: 1;"/><path class="sankey-link" d="M390,393.2945736434101C570,393.2945736434101 570,638.6046511627906 750,638.6046511627906L750,641.2403100775193C570,641.2403100775193 570,395.93023255813875 390,395.93023255813875Z" style="stroke: rgb(68, 68, 68); stroke-opacity: 1; fill: rgb(255, 161, 90); fill-opacity: 0.6; stroke-width: 0; opacity: 1;"/><path class="sankey-link" d="M390,372.20930232558067C570,372.20930232558067 570,545.8527131782938 750,545.8527131782938L750,566.9379844961232C570,566.9379844961232 570,393.2945736434101 390,393.2945736434101Z" style="stroke: rgb(68, 68, 68); stroke-opacity: 1; fill: rgb(255, 161, 90); fill-opacity: 0.6; stroke-width: 0; opacity: 1;"/><path class="sankey-link" d="M390,335.3100775193791C570,335.3100775193791 570,210.9302325581383 750,210.9302325581383L750,221.47286821705302C570,221.47286821705302 570,345.8527131782938 390,345.8527131782938Z" style="stroke: rgb(68, 68, 68); stroke-opacity: 1; fill: rgb(255, 161, 90); fill-opacity: 0.6; stroke-width: 0; opacity: 1;"/><path class="sankey-link" d="M390,345.8527131782938C570,345.8527131782938 570,314.22480620154914 750,314.22480620154914L750,337.94573643410723C570,337.94573643410723 570,369.5736434108519 390,369.5736434108519Z" style="stroke: rgb(68, 68, 68); stroke-opacity: 1; fill: rgb(255, 161, 90); fill-opacity: 0.6; stroke-width: 0; opacity: 1;"/><path class="sankey-link" d="M390,369.57364341085196C570,369.57364341085196 570,437.28682170542544 750,437.28682170542544L750,439.9224806201541C570,439.9224806201541 570,372.2093023255806 390,372.2093023255806Z" style="stroke: rgb(68, 68, 68); stroke-opacity: 1; fill: rgb(255, 161, 90); fill-opacity: 0.6; stroke-width: 0; opacity: 1;"/><path class="sankey-link" d="M390,644.3798449612402C570,644.3798449612402 570,160.3488372093012 750,160.3488372093012L750,162.9844961240299C570,162.9844961240299 570,647.015503875969 390,647.015503875969Z" style="stroke: rgb(68, 68, 68); stroke-opacity: 1; fill: rgb(255, 151, 255); fill-opacity: 0.6; stroke-width: 0; opacity: 1;"/><path class="sankey-link" d="M390,674.6899224806201C570,674.6899224806201 570,694.457364341085 750,694.457364341085L750,698.4108527131781C570,698.4108527131781 570,678.6434108527131 390,678.6434108527131Z" style="stroke: rgb(68, 68, 68); stroke-opacity: 1; fill: rgb(255, 151, 255); fill-opacity: 0.6; stroke-width: 0; opacity: 1;"/><path class="sankey-link" d="M390,664.1472868217054C570,664.1472868217054 570,598.5658914728674 750,598.5658914728674L750,609.1085271317822C570,609.1085271317822 570,674.6899224806202 390,674.6899224806202Z" style="stroke: rgb(68, 68, 68); stroke-opacity: 1; fill: rgb(255, 151, 255); fill-opacity: 0.6; stroke-width: 0; opacity: 1;"/><path class="sankey-link" d="M390,647.0155038759689C570,647.0155038759689 570,241.24031007751816 750,241.24031007751816L750,245.1937984496112C570,245.1937984496112 570,650.9689922480619 390,650.9689922480619Z" style="stroke: rgb(68, 68, 68); stroke-opacity: 1; fill: rgb(255, 151, 255); fill-opacity: 0.6; stroke-width: 0; opacity: 1;"/><path class="sankey-link" d="M390,650.9689922480619C570,650.9689922480619 570,376.16279069767313 750,376.16279069767313L750,384.0697674418592C570,384.0697674418592 570,658.875968992248 390,658.875968992248Z" style="stroke: rgb(68, 68, 68); stroke-opacity: 1; fill: rgb(255, 151, 255); fill-opacity: 0.6; stroke-width: 0; opacity: 1;"/><path class="sankey-link" d="M390,658.875968992248C570,658.875968992248 570,470.232558139534 750,470.232558139534L750,475.5038759689914C570,475.5038759689914 570,664.1472868217053 390,664.1472868217053Z" style="stroke: rgb(68, 68, 68); stroke-opacity: 1; fill: rgb(255, 151, 255); fill-opacity: 0.6; stroke-width: 0; opacity: 1;"/><path class="sankey-link" d="M390,599.0697674418601C570,599.0697674418601 570,157.71317829457251 750,157.71317829457251L750,160.34883720930122C570,160.34883720930122 570,601.7054263565889 390,601.7054263565889Z" style="stroke: rgb(68, 68, 68); stroke-opacity: 1; fill: rgb(255, 102, 146); fill-opacity: 0.6; stroke-width: 0; opacity: 1;"/><path class="sankey-link" d="M390,628.0620155038755C570,628.0620155038755 570,655.736434108527 750,655.736434108527L750,657.0542635658912C570,657.0542635658912 570,629.3798449612398 390,629.3798449612398Z" style="stroke: rgb(68, 68, 68); stroke-opacity: 1; fill: rgb(255, 102, 146); fill-opacity: 0.6; stroke-width: 0; opacity: 1;"/><path class="sankey-link" d="M390,618.8372093023252C570,618.8372093023252 570,589.3410852713171 750,589.3410852713171L750,598.5658914728674C570,598.5658914728674 570,628.0620155038755 390,628.0620155038755Z" style="stroke: rgb(68, 68, 68); stroke-opacity: 1; fill: rgb(255, 102, 146); fill-opacity: 0.6; stroke-width: 0; opacity: 1;"/><path class="sankey-link" d="M390,601.7054263565888C570,601.7054263565888 570,237.28682170542513 750,237.28682170542513L750,241.24031007751816C570,241.24031007751816 570,605.6589147286818 390,605.6589147286818Z" style="stroke: rgb(68, 68, 68); stroke-opacity: 1; fill: rgb(255, 102, 146); fill-opacity: 0.6; stroke-width: 0; opacity: 1;"/><path class="sankey-link" d="M390,605.6589147286818C570,605.6589147286818 570,369.57364341085145 750,369.57364341085145L750,376.16279069767313C570,376.16279069767313 570,612.2480620155036 390,612.2480620155036Z" style="stroke: rgb(68, 68, 68); stroke-opacity: 1; fill: rgb(255, 102, 146); fill-opacity: 0.6; stroke-width: 0; opacity: 1;"/><path class="sankey-link" d="M390,612.2480620155035C570,612.2480620155035 570,463.6434108527123 750,463.6434108527123L750,470.232558139534C570,470.232558139534 570,618.8372093023253 390,618.8372093023253Z" style="stroke: rgb(68, 68, 68); stroke-opacity: 1; fill: rgb(255, 102, 146); fill-opacity: 0.6; stroke-width: 0; opacity: 1;"/><path class="sankey-link" d="M390,55.23255813953429C570,55.23255813953429 570,181.9379844961228 750,181.9379844961228L750,183.25581395348712C570,183.25581395348712 570,56.55038759689863 390,56.55038759689863Z" style="stroke: rgb(68, 68, 68); stroke-opacity: 1; fill: rgb(182, 232, 128); fill-opacity: 0.6; stroke-width: 0; opacity: 1;"/><path class="sankey-link" d="M390,56.55038759689863C570,56.55038759689863 570,265.4651162790685 750,265.4651162790685L750,266.7829457364329C570,266.7829457364329 570,57.86821705426297 390,57.86821705426297Z" style="stroke: rgb(68, 68, 68); stroke-opacity: 1; fill: rgb(182, 232, 128); fill-opacity: 0.6; stroke-width: 0; opacity: 1;"/><path class="sankey-link" d="M390,57.86821705426297C570,57.86821705426297 570,400.3875968992239 750,400.3875968992239L750,401.7054263565883C570,401.7054263565883 570,59.18604651162731 390,59.18604651162731Z" style="stroke: rgb(68, 68, 68); stroke-opacity: 1; fill: rgb(182, 232, 128); fill-opacity: 0.6; stroke-width: 0; opacity: 1;"/><path class="sankey-link" d="M765,104.99999999999886C945,104.99999999999886 945,6.394884621840902e-14 1125,6.394884621840902e-14L1125,2.635658914728746C945,2.635658914728746 945,107.63565891472754 765,107.63565891472754Z" style="stroke: rgb(68, 68, 68); stroke-opacity: 1; fill: rgb(25, 211, 243); fill-opacity: 0.6; stroke-width: 0; opacity: 1;"/><path class="sankey-link" d="M765,137.94573643410737C945,137.94573643410737 945,47.94573643410854 1125,47.94573643410854L1125,49.26356589147288C945,49.26356589147288 945,139.2635658914717 765,139.2635658914717Z" style="stroke: rgb(68, 68, 68); stroke-opacity: 1; fill: rgb(25, 211, 243); fill-opacity: 0.6; stroke-width: 0; opacity: 1;"/><path class="sankey-link" d="M765,490.50387596899157C945,490.50387596899157 945,445.5038759689925 1125,445.5038759689925L1125,450.7751937984499C945,450.7751937984499 945,495.775193798449 765,495.775193798449Z" style="stroke: rgb(68, 68, 68); stroke-opacity: 1; fill: rgb(25, 211, 243); fill-opacity: 0.6; stroke-width: 0; opacity: 1;"/><path class="sankey-link" d="M765,573.5271317829449C945,573.5271317829449 945,543.5271317829461 1125,543.5271317829461L1125,544.8449612403103C945,544.8449612403103 945,574.8449612403092 765,574.8449612403092Z" style="stroke: rgb(68, 68, 68); stroke-opacity: 1; fill: rgb(25, 211, 243); fill-opacity: 0.6; stroke-width: 0; opacity: 1;"/><path class="sankey-link" d="M765,181.9379844961228C945,181.9379844961228 945,91.93798449612407 1125,91.93798449612407L1125,93.25581395348843C945,93.25581395348843 945,183.25581395348712 765,183.25581395348712Z" style="stroke: rgb(68, 68, 68); stroke-opacity: 1; fill: rgb(25, 211, 243); fill-opacity: 0.6; stroke-width: 0; opacity: 1;"/><path class="sankey-link" d="M765,326.0852713178282C945,326.0852713178282 945,266.0852713178296 1125,266.0852713178296L1125,268.72093023255826C945,268.72093023255826 945,328.72093023255684 765,328.72093023255684Z" style="stroke: rgb(68, 68, 68); stroke-opacity: 1; fill: rgb(25, 211, 243); fill-opacity: 0.6; stroke-width: 0; opacity: 1;"/><path class="sankey-link" d="M765,265.4651162790685C945,265.4651162790685 945,190.4651162790698 1125,190.4651162790698L1125,195.73643410852716C945,195.73643410852716 945,270.73643410852594 765,270.73643410852594Z" style="stroke: rgb(68, 68, 68); stroke-opacity: 1; fill: rgb(25, 211, 243); fill-opacity: 0.6; stroke-width: 0; opacity: 1;"/><path class="sankey-link" d="M765,438.6046511627899C945,438.6046511627899 945,393.60465116279096 1125,393.60465116279096L1125,394.92248062015534C945,394.92248062015534 945,439.92248062015426 765,439.92248062015426Z" style="stroke: rgb(68, 68, 68); stroke-opacity: 1; fill: rgb(25, 211, 243); fill-opacity: 0.6; stroke-width: 0; opacity: 1;"/><path class="sankey-link" d="M765,107.63565891472754C945,107.63565891472754 945,2.6356589147287464 1125,2.6356589147287464L1125,5.271317829457428C945,5.271317829457428 945,110.27131782945622 765,110.27131782945622Z" style="stroke: rgb(68, 68, 68); stroke-opacity: 1; fill: rgb(99, 110, 250); fill-opacity: 0.6; stroke-width: 0; opacity: 1;"/><path class="sankey-link" d="M765,139.26356589147173C945,139.26356589147173 945,49.26356589147288 1125,49.26356589147288L1125,51.89922480620156C945,51.89922480620156 945,141.89922480620044 765,141.89922480620044Z" style="stroke: rgb(68, 68, 68); stroke-opacity: 1; fill: rgb(99, 110, 250); fill-opacity: 0.6; stroke-width: 0; opacity: 1;"/><path class="sankey-link" d="M765,693.1395348837207C945,693.1395348837207 945,693.1395348837211 1125,693.1395348837211L1125,695.7751937984499C945,695.7751937984499 945,695.7751937984494 765,695.7751937984494Z" style="stroke: rgb(68, 68, 68); stroke-opacity: 1; fill: rgb(99, 110, 250); fill-opacity: 0.6; stroke-width: 0; opacity: 1;"/><path class="sankey-link" d="M765,672.0542635658912C945,672.0542635658912 945,657.0542635658917 1125,657.0542635658917L1125,659.6899224806205C945,659.6899224806205 945,674.68992248062 765,674.68992248062Z" style="stroke: rgb(68, 68, 68); stroke-opacity: 1; fill: rgb(99, 110, 250); fill-opacity: 0.6; stroke-width: 0; opacity: 1;"/><path class="sankey-link" d="M765,647.8294573643409C945,647.8294573643409 945,632.8294573643414 1125,632.8294573643414L1125,635.4651162790701C945,635.4651162790701 945,650.4651162790697 765,650.4651162790697Z" style="stroke: rgb(68, 68, 68); stroke-opacity: 1; fill: rgb(99, 110, 250); fill-opacity: 0.6; stroke-width: 0; opacity: 1;"/><path class="sankey-link" d="M765,632.0155038759688C945,632.0155038759688 945,602.0155038759693 1125,602.0155038759693L1125,604.6511627906981C945,604.6511627906981 945,634.6511627906975 765,634.6511627906975Z" style="stroke: rgb(68, 68, 68); stroke-opacity: 1; fill: rgb(99, 110, 250); fill-opacity: 0.6; stroke-width: 0; opacity: 1;"/><path class="sankey-link" d="M765,717.3643410852712C945,717.3643410852712 945,717.3643410852715 1125,717.3643410852715L1125,718.6821705426357C945,718.6821705426357 945,718.6821705426355 765,718.6821705426355Z" style="stroke: rgb(68, 68, 68); stroke-opacity: 1; fill: rgb(99, 110, 250); fill-opacity: 0.6; stroke-width: 0; opacity: 1;"/><path class="sankey-link" d="M765,495.7751937984489C945,495.7751937984489 945,450.77519379844983 1125,450.77519379844983L1125,462.63565891472894C945,462.63565891472894 945,507.635658914728 765,507.635658914728Z" style="stroke: rgb(68, 68, 68); stroke-opacity: 1; fill: rgb(99, 110, 250); fill-opacity: 0.6; stroke-width: 0; opacity: 1;"/><path class="sankey-link" d="M765,574.8449612403093C945,574.8449612403093 945,544.8449612403105 1125,544.8449612403105L1125,547.4806201550392C945,547.4806201550392 945,577.4806201550381 765,577.4806201550381Z" style="stroke: rgb(68, 68, 68); stroke-opacity: 1; fill: rgb(99, 110, 250); fill-opacity: 0.6; stroke-width: 0; opacity: 1;"/><path class="sankey-link" d="M765,217.51937984496004C945,217.51937984496004 945,142.51937984496126 1125,142.51937984496126L1125,145.15503875968997C945,145.15503875968997 945,220.15503875968875 765,220.15503875968875Z" style="stroke: rgb(68, 68, 68); stroke-opacity: 1; fill: rgb(99, 110, 250); fill-opacity: 0.6; stroke-width: 0; opacity: 1;"/><path class="sankey-link" d="M765,183.25581395348715C945,183.25581395348715 945,93.25581395348841 1125,93.25581395348841L1125,99.84496124031013C945,99.84496124031013 945,189.84496124030883 765,189.84496124030883Z" style="stroke: rgb(68, 68, 68); stroke-opacity: 1; fill: rgb(99, 110, 250); fill-opacity: 0.6; stroke-width: 0; opacity: 1;"/><path class="sankey-link" d="M765,328.7209302325569C945,328.7209302325569 945,268.7209302325583 1125,268.7209302325583L1125,276.6279069767444C945,276.6279069767444 945,336.62790697674296 765,336.62790697674296Z" style="stroke: rgb(68, 68, 68); stroke-opacity: 1; fill: rgb(99, 110, 250); fill-opacity: 0.6; stroke-width: 0; opacity: 1;"/><path class="sankey-link" d="M765,270.7364341085259C945,270.7364341085259 945,195.73643410852716 1125,195.73643410852716L1125,208.9147286821706C945,208.9147286821706 945,283.91472868216925 765,283.91472868216925Z" style="stroke: rgb(68, 68, 68); stroke-opacity: 1; fill: rgb(99, 110, 250); fill-opacity: 0.6; stroke-width: 0; opacity: 1;"/><path class="sankey-link" d="M765,400.3875968992239C945,400.3875968992239 945,340.387596899225 1125,340.387596899225L1125,348.29457364341107C945,348.29457364341107 945,408.29457364341 765,408.29457364341Z" style="stroke: rgb(68, 68, 68); stroke-opacity: 1; fill: rgb(99, 110, 250); fill-opacity: 0.6; stroke-width: 0; opacity: 1;"/><path class="sankey-link" d="M765,439.9224806201542C945,439.9224806201542 945,394.9224806201553 1125,394.9224806201553L1125,400.1937984496127C945,400.1937984496127 945,445.1937984496116 765,445.1937984496116Z" style="stroke: rgb(68, 68, 68); stroke-opacity: 1; fill: rgb(99, 110, 250); fill-opacity: 0.6; stroke-width: 0; opacity: 1;"/><path class="sankey-link" d="M765,110.27131782945622C945,110.27131782945622 945,5.271317829457428 1125,5.271317829457428L1125,6.5891472868217695C945,6.5891472868217695 945,111.58914728682058 765,111.58914728682058Z" style="stroke: rgb(68, 68, 68); stroke-opacity: 1; fill: rgb(239, 85, 59); fill-opacity: 0.6; stroke-width: 0; opacity: 1;"/><path class="sankey-link" d="M765,141.8992248062004C945,141.8992248062004 945,51.89922480620156 1125,51.89922480620156L1125,53.2170542635659C945,53.2170542635659 945,143.21705426356473 765,143.21705426356473Z" style="stroke: rgb(68, 68, 68); stroke-opacity: 1; fill: rgb(239, 85, 59); fill-opacity: 0.6; stroke-width: 0; opacity: 1;"/><path class="sankey-link" d="M765,674.6899224806199C945,674.6899224806199 945,659.6899224806203 1125,659.6899224806203L1125,661.0077519379846C945,661.0077519379846 945,676.0077519379842 765,676.0077519379842Z" style="stroke: rgb(68, 68, 68); stroke-opacity: 1; fill: rgb(239, 85, 59); fill-opacity: 0.6; stroke-width: 0; opacity: 1;"/><path class="sankey-link" d="M765,634.6511627906974C945,634.6511627906974 945,604.651162790698 1125,604.651162790698L1125,605.9689922480622C945,605.9689922480622 945,635.9689922480617 765,635.9689922480617Z" style="stroke: rgb(68, 68, 68); stroke-opacity: 1; fill: rgb(239, 85, 59); fill-opacity: 0.6; stroke-width: 0; opacity: 1;"/><path class="sankey-link" d="M765,507.63565891472797C945,507.63565891472797 945,462.6356589147289 1125,462.6356589147289L1125,479.7674418604653C945,479.7674418604653 945,524.7674418604644 765,524.7674418604644Z" style="stroke: rgb(68, 68, 68); stroke-opacity: 1; fill: rgb(239, 85, 59); fill-opacity: 0.6; stroke-width: 0; opacity: 1;"/><path class="sankey-link" d="M765,577.480620155038C945,577.480620155038 945,547.4806201550391 1125,547.4806201550391L1125,551.4341085271321C945,551.4341085271321 945,581.434108527131 765,581.434108527131Z" style="stroke: rgb(68, 68, 68); stroke-opacity: 1; fill: rgb(239, 85, 59); fill-opacity: 0.6; stroke-width: 0; opacity: 1;"/><path class="sankey-link" d="M765,220.15503875968872C945,220.15503875968872 945,145.15503875968994 1125,145.15503875968994L1125,149.10852713178298C945,149.10852713178298 945,224.10852713178176 765,224.10852713178176Z" style="stroke: rgb(68, 68, 68); stroke-opacity: 1; fill: rgb(239, 85, 59); fill-opacity: 0.6; stroke-width: 0; opacity: 1;"/><path class="sankey-link" d="M765,189.84496124030886C945,189.84496124030886 945,99.84496124031011 1125,99.84496124031011L1125,109.0697674418605C945,109.0697674418605 945,199.06976744185926 765,199.06976744185926Z" style="stroke: rgb(68, 68, 68); stroke-opacity: 1; fill: rgb(239, 85, 59); fill-opacity: 0.6; stroke-width: 0; opacity: 1;"/><path class="sankey-link" d="M765,336.62790697674296C945,336.62790697674296 945,276.6279069767444 1125,276.6279069767444L1125,291.12403100775214C945,291.12403100775214 945,351.1240310077507 765,351.1240310077507Z" style="stroke: rgb(68, 68, 68); stroke-opacity: 1; fill: rgb(239, 85, 59); fill-opacity: 0.6; stroke-width: 0; opacity: 1;"/><path class="sankey-link" d="M765,283.9147286821693C945,283.9147286821693 945,208.91472868217056 1125,208.91472868217056L1125,214.18604651162792C945,214.18604651162792 945,289.1860465116267 765,289.1860465116267Z" style="stroke: rgb(68, 68, 68); stroke-opacity: 1; fill: rgb(239, 85, 59); fill-opacity: 0.6; stroke-width: 0; opacity: 1;"/><path class="sankey-link" d="M765,408.29457364341C945,408.29457364341 945,348.29457364341107 1125,348.29457364341107L1125,350.9302325581397C945,350.9302325581397 945,410.93023255813864 765,410.93023255813864Z" style="stroke: rgb(68, 68, 68); stroke-opacity: 1; fill: rgb(239, 85, 59); fill-opacity: 0.6; stroke-width: 0; opacity: 1;"/><path class="sankey-link" d="M765,445.19379844961156C945,445.19379844961156 945,400.19379844961264 1125,400.19379844961264L1125,408.1007751937987C945,408.1007751937987 945,453.10077519379763 765,453.10077519379763Z" style="stroke: rgb(68, 68, 68); stroke-opacity: 1; fill: rgb(239, 85, 59); fill-opacity: 0.6; stroke-width: 0; opacity: 1;"/><path class="sankey-link" d="M765,111.58914728682056C945,111.58914728682056 945,6.589147286821769 1125,6.589147286821769L1125,10.542635658914792C945,10.542635658914792 945,115.5426356589136 765,115.5426356589136Z" style="stroke: rgb(68, 68, 68); stroke-opacity: 1; fill: rgb(254, 203, 82); fill-opacity: 0.6; stroke-width: 0; opacity: 1;"/><path class="sankey-link" d="M765,695.7751937984493C945,695.7751937984493 945,695.7751937984498 1125,695.7751937984498L1125,697.093023255814C945,697.093023255814 945,697.0930232558136 765,697.0930232558136Z" style="stroke: rgb(68, 68, 68); stroke-opacity: 1; fill: rgb(254, 203, 82); fill-opacity: 0.6; stroke-width: 0; opacity: 1;"/><path class="sankey-link" d="M765,676.0077519379843C945,676.0077519379843 945,661.0077519379847 1125,661.0077519379847L1125,663.6434108527135C945,663.6434108527135 945,678.643410852713 765,678.643410852713Z" style="stroke: rgb(68, 68, 68); stroke-opacity: 1; fill: rgb(254, 203, 82); fill-opacity: 0.6; stroke-width: 0; opacity: 1;"/><path class="sankey-link" d="M765,524.7674418604644C945,524.7674418604644 945,479.7674418604653 1125,479.7674418604653L1125,482.40310077519393C945,482.40310077519393 945,527.4031007751931 765,527.4031007751931Z" style="stroke: rgb(68, 68, 68); stroke-opacity: 1; fill: rgb(254, 203, 82); fill-opacity: 0.6; stroke-width: 0; opacity: 1;"/><path class="sankey-link" d="M765,581.434108527131C945,581.434108527131 945,551.4341085271321 1125,551.4341085271321L1125,556.7054263565894C945,556.7054263565894 945,586.7054263565883 765,586.7054263565883Z" style="stroke: rgb(68, 68, 68); stroke-opacity: 1; fill: rgb(254, 203, 82); fill-opacity: 0.6; stroke-width: 0; opacity: 1;"/><path class="sankey-link" d="M765,224.10852713178176C945,224.10852713178176 945,149.10852713178298 1125,149.10852713178298L1125,154.37984496124034C945,154.37984496124034 945,229.37984496123912 765,229.37984496123912Z" style="stroke: rgb(68, 68, 68); stroke-opacity: 1; fill: rgb(254, 203, 82); fill-opacity: 0.6; stroke-width: 0; opacity: 1;"/><path class="sankey-link" d="M765,351.1240310077507C945,351.1240310077507 945,291.12403100775214 1125,291.12403100775214L1125,292.4418604651165C945,292.4418604651165 945,352.4418604651151 765,352.4418604651151Z" style="stroke: rgb(68, 68, 68); stroke-opacity: 1; fill: rgb(254, 203, 82); fill-opacity: 0.6; stroke-width: 0; opacity: 1;"/><path class="sankey-link" d="M765,115.54263565891358C945,115.54263565891358 945,10.542635658914792 1125,10.542635658914792L1125,15.813953488372155C945,15.813953488372155 945,120.81395348837094 765,120.81395348837094Z" style="stroke: rgb(68, 68, 68); stroke-opacity: 1; fill: rgb(171, 99, 250); fill-opacity: 0.6; stroke-width: 0; opacity: 1;"/><path class="sankey-link" d="M765,143.21705426356476C945,143.21705426356476 945,53.2170542635659 1125,53.2170542635659L1125,57.17054263565892C945,57.17054263565892 945,147.1705426356578 765,147.1705426356578Z" style="stroke: rgb(68, 68, 68); stroke-opacity: 1; fill: rgb(171, 99, 250); fill-opacity: 0.6; stroke-width: 0; opacity: 1;"/><path class="sankey-link" d="M765,697.0930232558137C945,697.0930232558137 945,697.0930232558142 1125,697.0930232558142L1125,698.4108527131784C945,698.4108527131784 945,698.410852713178 765,698.410852713178Z" style="stroke: rgb(68, 68, 68); stroke-opacity: 1; fill: rgb(171, 99, 250); fill-opacity: 0.6; stroke-width: 0; opacity: 1;"/><path class="sankey-link" d="M765,678.6434108527129C945,678.6434108527129 945,663.6434108527134 1125,663.6434108527134L1125,664.9612403100776C945,664.9612403100776 945,679.9612403100772 765,679.9612403100772Z" style="stroke: rgb(68, 68, 68); stroke-opacity: 1; fill: rgb(171, 99, 250); fill-opacity: 0.6; stroke-width: 0; opacity: 1;"/><path class="sankey-link" d="M765,650.4651162790695C945,650.4651162790695 945,635.46511627907 1125,635.46511627907L1125,636.7829457364343C945,636.7829457364343 945,651.7829457364338 765,651.7829457364338Z" style="stroke: rgb(68, 68, 68); stroke-opacity: 1; fill: rgb(171, 99, 250); fill-opacity: 0.6; stroke-width: 0; opacity: 1;"/><path class="sankey-link" d="M765,635.9689922480618C945,635.9689922480618 945,605.9689922480624 1125,605.9689922480624L1125,613.8759689922484C945,613.8759689922484 945,643.8759689922479 765,643.8759689922479Z" style="stroke: rgb(68, 68, 68); stroke-opacity: 1; fill: rgb(171, 99, 250); fill-opacity: 0.6; stroke-width: 0; opacity: 1;"/><path class="sankey-link" d="M765,718.6821705426356C945,718.6821705426356 945,718.6821705426358 1125,718.6821705426358L1125,720.0000000000001C945,720.0000000000001 945,719.9999999999999 765,719.9999999999999Z" style="stroke: rgb(68, 68, 68); stroke-opacity: 1; fill: rgb(171, 99, 250); fill-opacity: 0.6; stroke-width: 0; opacity: 1;"/><path class="sankey-link" d="M765,527.403100775193C945,527.403100775193 945,482.403100775194 1125,482.403100775194L1125,486.356589147287C945,486.356589147287 945,531.3565891472861 765,531.3565891472861Z" style="stroke: rgb(68, 68, 68); stroke-opacity: 1; fill: rgb(171, 99, 250); fill-opacity: 0.6; stroke-width: 0; opacity: 1;"/><path class="sankey-link" d="M765,586.7054263565884C945,586.7054263565884 945,556.7054263565896 1125,556.7054263565896L1125,560.6589147286826C945,560.6589147286826 945,590.6589147286815 765,590.6589147286815Z" style="stroke: rgb(68, 68, 68); stroke-opacity: 1; fill: rgb(171, 99, 250); fill-opacity: 0.6; stroke-width: 0; opacity: 1;"/><path class="sankey-link" d="M765,229.37984496123912C945,229.37984496123912 945,154.37984496124034 1125,154.37984496124034L1125,158.33333333333337C945,158.33333333333337 945,233.33333333333215 765,233.33333333333215Z" style="stroke: rgb(68, 68, 68); stroke-opacity: 1; fill: rgb(171, 99, 250); fill-opacity: 0.6; stroke-width: 0; opacity: 1;"/><path class="sankey-link" d="M765,199.06976744185926C945,199.06976744185926 945,109.0697674418605 1125,109.0697674418605L1125,111.70542635658919C945,111.70542635658919 945,201.70542635658796 765,201.70542635658796Z" style="stroke: rgb(68, 68, 68); stroke-opacity: 1; fill: rgb(171, 99, 250); fill-opacity: 0.6; stroke-width: 0; opacity: 1;"/><path class="sankey-link" d="M765,352.44186046511504C945,352.44186046511504 945,292.44186046511646 1125,292.44186046511646L1125,296.3953488372095C945,296.3953488372095 945,356.3953488372081 765,356.3953488372081Z" style="stroke: rgb(68, 68, 68); stroke-opacity: 1; fill: rgb(171, 99, 250); fill-opacity: 0.6; stroke-width: 0; opacity: 1;"/><path class="sankey-link" d="M765,289.18604651162667C945,289.18604651162667 945,214.18604651162792 1125,214.18604651162792L1125,220.7751937984496C945,220.7751937984496 945,295.77519379844836 765,295.77519379844836Z" style="stroke: rgb(68, 68, 68); stroke-opacity: 1; fill: rgb(171, 99, 250); fill-opacity: 0.6; stroke-width: 0; opacity: 1;"/><path class="sankey-link" d="M765,410.9302325581387C945,410.9302325581387 945,350.9302325581398 1125,350.9302325581398L1125,356.2015503875972C945,356.2015503875972 945,416.2015503875961 765,416.2015503875961Z" style="stroke: rgb(68, 68, 68); stroke-opacity: 1; fill: rgb(171, 99, 250); fill-opacity: 0.6; stroke-width: 0; opacity: 1;"/><path class="sankey-link" d="M765,453.10077519379763C945,453.10077519379763 945,408.1007751937987 1125,408.1007751937987L1125,413.3720930232561C945,413.3720930232561 945,458.37209302325505 765,458.37209302325505Z" style="stroke: rgb(68, 68, 68); stroke-opacity: 1; fill: rgb(171, 99, 250); fill-opacity: 0.6; stroke-width: 0; opacity: 1;"/><path class="sankey-link" d="M765,120.81395348837094C945,120.81395348837094 945,15.813953488372155 1125,15.813953488372155L1125,19.767441860465176C945,19.767441860465176 945,124.76744186046398 765,124.76744186046398Z" style="stroke: rgb(68, 68, 68); stroke-opacity: 1; fill: rgb(0, 204, 150); fill-opacity: 0.6; stroke-width: 0; opacity: 1;"/><path class="sankey-link" d="M765,147.1705426356578C945,147.1705426356578 945,57.17054263565892 1125,57.17054263565892L1125,67.71317829457365C945,67.71317829457365 945,157.71317829457251 765,157.71317829457251Z" style="stroke: rgb(68, 68, 68); stroke-opacity: 1; fill: rgb(0, 204, 150); fill-opacity: 0.6; stroke-width: 0; opacity: 1;"/><path class="sankey-link" d="M765,651.7829457364339C945,651.7829457364339 945,636.7829457364344 1125,636.7829457364344L1125,638.1007751937987C945,638.1007751937987 945,653.1007751937982 765,653.1007751937982Z" style="stroke: rgb(68, 68, 68); stroke-opacity: 1; fill: rgb(0, 204, 150); fill-opacity: 0.6; stroke-width: 0; opacity: 1;"/><path class="sankey-link" d="M765,643.8759689922479C945,643.8759689922479 945,613.8759689922484 1125,613.8759689922484L1125,617.8294573643415C945,617.8294573643415 945,647.8294573643409 765,647.8294573643409Z" style="stroke: rgb(68, 68, 68); stroke-opacity: 1; fill: rgb(0, 204, 150); fill-opacity: 0.6; stroke-width: 0; opacity: 1;"/><path class="sankey-link" d="M765,531.3565891472861C945,531.3565891472861 945,486.356589147287 1125,486.356589147287L1125,500.8527131782948C945,500.8527131782948 945,545.8527131782937 765,545.8527131782937Z" style="stroke: rgb(68, 68, 68); stroke-opacity: 1; fill: rgb(0, 204, 150); fill-opacity: 0.6; stroke-width: 0; opacity: 1;"/><path class="sankey-link" d="M765,590.6589147286815C945,590.6589147286815 945,560.6589147286826 1125,560.6589147286826L1125,573.837209302326C945,573.837209302326 945,603.8372093023248 765,603.8372093023248Z" style="stroke: rgb(68, 68, 68); stroke-opacity: 1; fill: rgb(0, 204, 150); fill-opacity: 0.6; stroke-width: 0; opacity: 1;"/><path class="sankey-link" d="M765,233.33333333333215C945,233.33333333333215 945,158.33333333333337 1125,158.33333333333337L1125,164.92248062015506C945,164.92248062015506 945,239.92248062015383 765,239.92248062015383Z" style="stroke: rgb(68, 68, 68); stroke-opacity: 1; fill: rgb(0, 204, 150); fill-opacity: 0.6; stroke-width: 0; opacity: 1;"/><path class="sankey-link" d="M765,201.70542635658794C945,201.70542635658794 945,111.70542635658919 1125,111.70542635658919L1125,118.2945736434109C945,118.2945736434109 945,208.29457364340962 765,208.29457364340962Z" style="stroke: rgb(68, 68, 68); stroke-opacity: 1; fill: rgb(0, 204, 150); fill-opacity: 0.6; stroke-width: 0; opacity: 1;"/><path class="sankey-link" d="M765,356.3953488372081C945,356.3953488372081 945,296.3953488372095 1125,296.3953488372095L1125,305.62015503875983C945,305.62015503875983 945,365.6201550387584 765,365.6201550387584Z" style="stroke: rgb(68, 68, 68); stroke-opacity: 1; fill: rgb(0, 204, 150); fill-opacity: 0.6; stroke-width: 0; opacity: 1;"/><path class="sankey-link" d="M765,295.77519379844836C945,295.77519379844836 945,220.77519379844964 1125,220.77519379844964L1125,231.31782945736435C945,231.31782945736435 945,306.3178294573631 765,306.3178294573631Z" style="stroke: rgb(68, 68, 68); stroke-opacity: 1; fill: rgb(0, 204, 150); fill-opacity: 0.6; stroke-width: 0; opacity: 1;"/><path class="sankey-link" d="M765,416.20155038759606C945,416.20155038759606 945,356.20155038759714 1125,356.20155038759714L1125,368.06201550387624C945,368.06201550387624 945,428.06201550387516 765,428.06201550387516Z" style="stroke: rgb(68, 68, 68); stroke-opacity: 1; fill: rgb(0, 204, 150); fill-opacity: 0.6; stroke-width: 0; opacity: 1;"/><path class="sankey-link" d="M765,458.372093023255C945,458.372093023255 945,413.37209302325607 1125,413.37209302325607L1125,425.2325581395352C945,425.2325581395352 945,470.2325581395341 765,470.2325581395341Z" style="stroke: rgb(68, 68, 68); stroke-opacity: 1; fill: rgb(0, 204, 150); fill-opacity: 0.6; stroke-width: 0; opacity: 1;"/><path class="sankey-link" d="M765,124.76744186046396C945,124.76744186046396 945,19.76744186046518 1125,19.76744186046518L1125,27.674418604651226C945,27.674418604651226 945,132.67441860465001 765,132.67441860465001Z" style="stroke: rgb(68, 68, 68); stroke-opacity: 1; fill: rgb(255, 161, 90); fill-opacity: 0.6; stroke-width: 0; opacity: 1;"/><path class="sankey-link" d="M765,157.71317829457251C945,157.71317829457251 945,67.71317829457365 1125,67.71317829457365L1125,76.93798449612405C945,76.93798449612405 945,166.9379844961229 765,166.9379844961229Z" style="stroke: rgb(68, 68, 68); stroke-opacity: 1; fill: rgb(255, 161, 90); fill-opacity: 0.6; stroke-width: 0; opacity: 1;"/><path class="sankey-link" d="M765,698.4108527131781C945,698.4108527131781 945,698.4108527131785 1125,698.4108527131785L1125,702.3643410852716C945,702.3643410852716 945,702.3643410852711 765,702.3643410852711Z" style="stroke: rgb(68, 68, 68); stroke-opacity: 1; fill: rgb(255, 161, 90); fill-opacity: 0.6; stroke-width: 0; opacity: 1;"/><path class="sankey-link" d="M765,679.9612403100773C945,679.9612403100773 945,664.9612403100778 1125,664.9612403100778L1125,674.1860465116281C945,674.1860465116281 945,689.1860465116276 765,689.1860465116276Z" style="stroke: rgb(68, 68, 68); stroke-opacity: 1; fill: rgb(255, 161, 90); fill-opacity: 0.6; stroke-width: 0; opacity: 1;"/><path class="sankey-link" d="M765,653.1007751937983C945,653.1007751937983 945,638.1007751937988 1125,638.1007751937988L1125,640.7364341085275C945,640.7364341085275 945,655.7364341085271 765,655.7364341085271Z" style="stroke: rgb(68, 68, 68); stroke-opacity: 1; fill: rgb(255, 161, 90); fill-opacity: 0.6; stroke-width: 0; opacity: 1;"/><path class="sankey-link" d="M765,545.8527131782938C945,545.8527131782938 945,500.8527131782948 1125,500.8527131782948L1125,515.3488372093025C945,515.3488372093025 945,560.3488372093015 765,560.3488372093015Z" style="stroke: rgb(68, 68, 68); stroke-opacity: 1; fill: rgb(255, 161, 90); fill-opacity: 0.6; stroke-width: 0; opacity: 1;"/><path class="sankey-link" d="M765,603.8372093023248C945,603.8372093023248 945,573.837209302326 1125,573.837209302326L1125,580.4263565891478C945,580.4263565891478 945,610.4263565891466 765,610.4263565891466Z" style="stroke: rgb(68, 68, 68); stroke-opacity: 1; fill: rgb(255, 161, 90); fill-opacity: 0.6; stroke-width: 0; opacity: 1;"/><path class="sankey-link" d="M765,239.92248062015386C945,239.92248062015386 945,164.92248062015508 1125,164.92248062015508L1125,171.51162790697677C945,171.51162790697677 945,246.51162790697555 765,246.51162790697555Z" style="stroke: rgb(68, 68, 68); stroke-opacity: 1; fill: rgb(255, 161, 90); fill-opacity: 0.6; stroke-width: 0; opacity: 1;"/><path class="sankey-link" d="M765,208.29457364340965C945,208.29457364340965 945,118.29457364341089 1125,118.29457364341089L1125,122.24806201550392C945,122.24806201550392 945,212.24806201550268 765,212.24806201550268Z" style="stroke: rgb(68, 68, 68); stroke-opacity: 1; fill: rgb(255, 161, 90); fill-opacity: 0.6; stroke-width: 0; opacity: 1;"/><path class="sankey-link" d="M765,365.62015503875847C945,365.62015503875847 945,305.6201550387599 1125,305.6201550387599L1125,317.480620155039C945,317.480620155039 945,377.48062015503757 765,377.48062015503757Z" style="stroke: rgb(68, 68, 68); stroke-opacity: 1; fill: rgb(255, 161, 90); fill-opacity: 0.6; stroke-width: 0; opacity: 1;"/><path class="sankey-link" d="M765,306.3178294573631C945,306.3178294573631 945,231.31782945736435 1125,231.31782945736435L1125,243.1782945736434C945,243.1782945736434 945,318.1782945736422 765,318.1782945736422Z" style="stroke: rgb(68, 68, 68); stroke-opacity: 1; fill: rgb(255, 161, 90); fill-opacity: 0.6; stroke-width: 0; opacity: 1;"/><path class="sankey-link" d="M765,428.0620155038751C945,428.0620155038751 945,368.0620155038762 1125,368.0620155038762L1125,370.69767441860483C945,370.69767441860483 945,430.69767441860375 765,430.69767441860375Z" style="stroke: rgb(68, 68, 68); stroke-opacity: 1; fill: rgb(255, 161, 90); fill-opacity: 0.6; stroke-width: 0; opacity: 1;"/><path class="sankey-link" d="M765,132.67441860465001C945,132.67441860465001 945,27.674418604651226 1125,27.674418604651226L1125,30.310077519379906C945,30.310077519379906 945,135.31007751937872 765,135.31007751937872Z" style="stroke: rgb(68, 68, 68); stroke-opacity: 1; fill: rgb(255, 151, 255); fill-opacity: 0.6; stroke-width: 0; opacity: 1;"/><path class="sankey-link" d="M765,689.1860465116276C945,689.1860465116276 945,674.1860465116281 1125,674.1860465116281L1125,678.1395348837211C945,678.1395348837211 945,693.1395348837207 765,693.1395348837207Z" style="stroke: rgb(68, 68, 68); stroke-opacity: 1; fill: rgb(255, 151, 255); fill-opacity: 0.6; stroke-width: 0; opacity: 1;"/><path class="sankey-link" d="M765,560.3488372093016C945,560.3488372093016 945,515.3488372093025 1125,515.3488372093025L1125,524.5736434108528C945,524.5736434108528 945,569.5736434108519 765,569.5736434108519Z" style="stroke: rgb(68, 68, 68); stroke-opacity: 1; fill: rgb(255, 151, 255); fill-opacity: 0.6; stroke-width: 0; opacity: 1;"/><path class="sankey-link" d="M765,610.4263565891465C945,610.4263565891465 945,580.4263565891476 1125,580.4263565891476L1125,581.7441860465119C945,581.7441860465119 945,611.7441860465108 765,611.7441860465108Z" style="stroke: rgb(68, 68, 68); stroke-opacity: 1; fill: rgb(255, 151, 255); fill-opacity: 0.6; stroke-width: 0; opacity: 1;"/><path class="sankey-link" d="M765,246.51162790697558C945,246.51162790697558 945,171.5116279069768 1125,171.5116279069768L1125,172.82945736434112C945,172.82945736434112 945,247.8294573643399 765,247.8294573643399Z" style="stroke: rgb(68, 68, 68); stroke-opacity: 1; fill: rgb(255, 151, 255); fill-opacity: 0.6; stroke-width: 0; opacity: 1;"/><path class="sankey-link" d="M765,212.24806201550268C945,212.24806201550268 945,122.2480620155039 1125,122.2480620155039L1125,124.88372093023258C945,124.88372093023258 945,214.8837209302314 765,214.8837209302314Z" style="stroke: rgb(68, 68, 68); stroke-opacity: 1; fill: rgb(255, 151, 255); fill-opacity: 0.6; stroke-width: 0; opacity: 1;"/><path class="sankey-link" d="M765,377.4806201550375C945,377.4806201550375 945,317.48062015503893 1125,317.48062015503893L1125,321.43410852713197C945,321.43410852713197 945,381.43410852713055 765,381.43410852713055Z" style="stroke: rgb(68, 68, 68); stroke-opacity: 1; fill: rgb(255, 151, 255); fill-opacity: 0.6; stroke-width: 0; opacity: 1;"/><path class="sankey-link" d="M765,318.1782945736421C945,318.1782945736421 945,243.17829457364343 1125,243.17829457364343L1125,247.13178294573646C945,247.13178294573646 945,322.13178294573515 765,322.13178294573515Z" style="stroke: rgb(68, 68, 68); stroke-opacity: 1; fill: rgb(255, 151, 255); fill-opacity: 0.6; stroke-width: 0; opacity: 1;"/><path class="sankey-link" d="M765,430.6976744186038C945,430.6976744186038 945,370.6976744186049 1125,370.6976744186049L1125,373.33333333333354C945,373.33333333333354 945,433.33333333333246 765,433.33333333333246Z" style="stroke: rgb(68, 68, 68); stroke-opacity: 1; fill: rgb(255, 151, 255); fill-opacity: 0.6; stroke-width: 0; opacity: 1;"/><path class="sankey-link" d="M765,470.23255813953404C945,470.23255813953404 945,425.2325581395351 1125,425.2325581395351L1125,427.86821705426377C945,427.86821705426377 945,472.8682170542627 765,472.8682170542627Z" style="stroke: rgb(68, 68, 68); stroke-opacity: 1; fill: rgb(255, 151, 255); fill-opacity: 0.6; stroke-width: 0; opacity: 1;"/><path class="sankey-link" d="M765,135.3100775193787C945,135.3100775193787 945,30.31007751937991 1125,30.31007751937991L1125,32.94573643410859C945,32.94573643410859 945,137.9457364341074 765,137.9457364341074Z" style="stroke: rgb(68, 68, 68); stroke-opacity: 1; fill: rgb(255, 102, 146); fill-opacity: 0.6; stroke-width: 0; opacity: 1;"/><path class="sankey-link" d="M765,655.736434108527C945,655.736434108527 945,640.7364341085274 1125,640.7364341085274L1125,642.0542635658917C945,642.0542635658917 945,657.0542635658912 765,657.0542635658912Z" style="stroke: rgb(68, 68, 68); stroke-opacity: 1; fill: rgb(255, 102, 146); fill-opacity: 0.6; stroke-width: 0; opacity: 1;"/><path class="sankey-link" d="M765,569.5736434108519C945,569.5736434108519 945,524.5736434108528 1125,524.5736434108528L1125,528.5271317829458C945,528.5271317829458 945,573.5271317829449 765,573.5271317829449Z" style="stroke: rgb(68, 68, 68); stroke-opacity: 1; fill: rgb(255, 102, 146); fill-opacity: 0.6; stroke-width: 0; opacity: 1;"/><path class="sankey-link" d="M765,611.7441860465109C945,611.7441860465109 945,581.744186046512 1125,581.744186046512L1125,587.0155038759693C945,587.0155038759693 945,617.0155038759682 765,617.0155038759682Z" style="stroke: rgb(68, 68, 68); stroke-opacity: 1; fill: rgb(255, 102, 146); fill-opacity: 0.6; stroke-width: 0; opacity: 1;"/><path class="sankey-link" d="M765,247.82945736433993C945,247.82945736433993 945,172.82945736434115 1125,172.82945736434115L1125,174.14728682170548C945,174.14728682170548 945,249.14728682170426 765,249.14728682170426Z" style="stroke: rgb(68, 68, 68); stroke-opacity: 1; fill: rgb(255, 102, 146); fill-opacity: 0.6; stroke-width: 0; opacity: 1;"/><path class="sankey-link" d="M765,214.88372093023136C945,214.88372093023136 945,124.88372093023258 1125,124.88372093023258L1125,127.51937984496126C945,127.51937984496126 945,217.51937984496007 765,217.51937984496007Z" style="stroke: rgb(68, 68, 68); stroke-opacity: 1; fill: rgb(255, 102, 146); fill-opacity: 0.6; stroke-width: 0; opacity: 1;"/><path class="sankey-link" d="M765,381.43410852713055C945,381.43410852713055 945,321.43410852713197 1125,321.43410852713197L1125,324.0697674418606C945,324.0697674418606 945,384.0697674418592 765,384.0697674418592Z" style="stroke: rgb(68, 68, 68); stroke-opacity: 1; fill: rgb(255, 102, 146); fill-opacity: 0.6; stroke-width: 0; opacity: 1;"/><path class="sankey-link" d="M765,322.13178294573515C945,322.13178294573515 945,247.13178294573646 1125,247.13178294573646L1125,251.0852713178295C945,251.0852713178295 945,326.0852713178282 765,326.0852713178282Z" style="stroke: rgb(68, 68, 68); stroke-opacity: 1; fill: rgb(255, 102, 146); fill-opacity: 0.6; stroke-width: 0; opacity: 1;"/><path class="sankey-link" d="M765,433.3333333333325C945,433.3333333333325 945,373.3333333333336 1125,373.3333333333336L1125,377.28682170542663C945,377.28682170542663 945,437.28682170542555 765,437.28682170542555Z" style="stroke: rgb(68, 68, 68); stroke-opacity: 1; fill: rgb(255, 102, 146); fill-opacity: 0.6; stroke-width: 0; opacity: 1;"/><path class="sankey-link" d="M765,472.86821705426274C945,472.86821705426274 945,427.8682170542638 1125,427.8682170542638L1125,430.5038759689925C945,430.5038759689925 945,475.5038759689914 765,475.5038759689914Z" style="stroke: rgb(68, 68, 68); stroke-opacity: 1; fill: rgb(255, 102, 146); fill-opacity: 0.6; stroke-width: 0; opacity: 1;"/><path class="sankey-link" d="M765,249.14728682170428C945,249.14728682170428 945,174.1472868217055 1125,174.1472868217055L1125,175.46511627906983C945,175.46511627906983 945,250.4651162790686 765,250.4651162790686Z" style="stroke: rgb(68, 68, 68); stroke-opacity: 1; fill: rgb(182, 232, 128); fill-opacity: 0.6; stroke-width: 0; opacity: 1;"/><path class="sankey-link" d="M765,384.06976744185926C945,384.06976744185926 945,324.0697674418607 1125,324.0697674418607L1125,325.38759689922506C945,325.38759689922506 945,385.38759689922364 765,385.38759689922364Z" style="stroke: rgb(68, 68, 68); stroke-opacity: 1; fill: rgb(182, 232, 128); fill-opacity: 0.6; stroke-width: 0; opacity: 1;"/><path class="sankey-link" d="M765,437.28682170542555C945,437.28682170542555 945,377.28682170542663 1125,377.28682170542663L1125,378.604651162791C945,378.604651162791 945,438.60465116278993 765,438.60465116278993Z" style="stroke: rgb(68, 68, 68); stroke-opacity: 1; fill: rgb(182, 232, 128); fill-opacity: 0.6; stroke-width: 0; opacity: 1;"/></g><g class="sankey-node-set" style="cursor: move;"><g class="sankey-node" transform="translate(0.000,697.597)" style="opacity: 1;"><rect class="node-rect" width="15" height="22.403100775193707" style="stroke-width: 0.5; stroke: rgb(0, 0, 0); stroke-opacity: 1; fill: rgb(128, 128, 128); fill-opacity: 1;"/><text class="node-label" data-notex="1" x="0" y="0" text-anchor="start" transform="translate(18.25,15.401550387596853)" style="cursor: default; font-family: 'Open Sans', verdana, arial, sans-serif; font-size: 12px; fill: rgb(42, 63, 95); fill-opacity: 1; white-space: pre; text-shadow: white 1px 1px 1px, white -1px -1px 1px, white 1px -1px 1px, white -1px 1px 1px;">21271R</text></g><g class="sankey-node" transform="translate(0.000,235.659)" style="opacity: 1;"><rect class="node-rect" width="15" height="166.04651162790697" style="stroke-width: 0.5; stroke: rgb(0, 0, 0); stroke-opacity: 1; fill: rgb(128, 128, 128); fill-opacity: 1;"/><text class="node-label" data-notex="1" x="0" y="0" text-anchor="start" transform="translate(18.25,87.22325581395349)" style="cursor: default; font-family: 'Open Sans', verdana, arial, sans-serif; font-size: 12px; fill: rgb(42, 63, 95); fill-opacity: 1; white-space: pre; text-shadow: white 1px 1px 1px, white -1px -1px 1px, white 1px -1px 1px, white -1px 1px 1px;">21272R</text></g><g class="sankey-node" transform="translate(0.000,639.109)" style="opacity: 1;"><rect class="node-rect" width="15" height="43.48837209302337" style="stroke-width: 0.5; stroke: rgb(0, 0, 0); stroke-opacity: 1; fill: rgb(128, 128, 128); fill-opacity: 1;"/><text class="node-label" data-notex="1" x="0" y="0" text-anchor="start" transform="translate(18.25,25.944186046511685)" style="cursor: default; font-family: 'Open Sans', verdana, arial, sans-serif; font-size: 12px; fill: rgb(42, 63, 95); fill-opacity: 1; white-space: pre; text-shadow: white 1px 1px 1px, white -1px -1px 1px, white 1px -1px 1px, white -1px 1px 1px;">21965RL</text></g><g class="sankey-node" transform="translate(0.000,416.705)" style="opacity: 1;"><rect class="node-rect" width="15" height="96.20155038759668" style="stroke-width: 0.5; stroke: rgb(0, 0, 0); stroke-opacity: 1; fill: rgb(128, 128, 128); fill-opacity: 1;"/><text class="node-label" data-notex="1" x="0" y="0" text-anchor="start" transform="translate(18.25,52.300775193798344)" style="cursor: default; font-family: 'Open Sans', verdana, arial, sans-serif; font-size: 12px; fill: rgb(42, 63, 95); fill-opacity: 1; white-space: pre; text-shadow: white 1px 1px 1px, white -1px -1px 1px, white 1px -1px 1px, white -1px 1px 1px;">22384</text></g><g class="sankey-node" transform="translate(0.000,527.907)" style="opacity: 1;"><rect class="node-rect" width="15" height="96.20155038759697" style="stroke-width: 0.5; stroke: rgb(0, 0, 0); stroke-opacity: 1; fill: rgb(128, 128, 128); fill-opacity: 1;"/><text class="node-label" data-notex="1" x="0" y="0" text-anchor="start" transform="translate(18.25,52.300775193798486)" style="cursor: default; font-family: 'Open Sans', verdana, arial, sans-serif; font-size: 12px; fill: rgb(42, 63, 95); fill-opacity: 1; white-space: pre; text-shadow: white 1px 1px 1px, white -1px -1px 1px, white 1px -1px 1px, white -1px 1px 1px;">22670</text></g><g class="sankey-node" transform="translate(750.000,105.000)" style="opacity: 1;"><rect class="node-rect" width="15" height="61.93798449612393" style="stroke-width: 0.5; stroke: rgb(0, 0, 0); stroke-opacity: 1; fill: rgb(128, 128, 128); fill-opacity: 1;"/><text class="node-label" data-notex="1" x="0" y="0" text-anchor="start" transform="translate(18.25,35.16899224806197)" style="cursor: default; font-family: 'Open Sans', verdana, arial, sans-serif; font-size: 12px; fill: rgb(42, 63, 95); fill-opacity: 1; white-space: pre; text-shadow: white 1px 1px 1px, white -1px -1px 1px, white 1px -1px 1px, white -1px 1px 1px;">attacking</text></g><g class="sankey-node" transform="translate(750.000,632.016)" style="opacity: 1;"><rect class="node-rect" width="15" height="25.038759689922472" style="stroke-width: 0.5; stroke: rgb(0, 0, 0); stroke-opacity: 1; fill: rgb(128, 128, 128); fill-opacity: 1;"/><text class="node-label" data-notex="1" x="0" y="0" text-anchor="start" transform="translate(18.25,16.719379844961235)" style="cursor: default; font-family: 'Open Sans', verdana, arial, sans-serif; font-size: 12px; fill: rgb(42, 63, 95); fill-opacity: 1; white-space: pre; text-shadow: white 1px 1px 1px, white -1px -1px 1px, white 1px -1px 1px, white -1px 1px 1px;">dig</text></g><g class="sankey-node" transform="translate(750.000,717.364)" style="opacity: 1;"><rect class="node-rect" width="15" height="2.635658914728765" style="stroke-width: 0.5; stroke: rgb(0, 0, 0); stroke-opacity: 1; fill: rgb(128, 128, 128); fill-opacity: 1;"/><text class="node-label" data-notex="1" x="0" y="0" text-anchor="start" transform="translate(18.25,5.517829457364382)" style="cursor: default; font-family: 'Open Sans', verdana, arial, sans-serif; font-size: 12px; fill: rgb(42, 63, 95); fill-opacity: 1; white-space: pre; text-shadow: white 1px 1px 1px, white -1px -1px 1px, white 1px -1px 1px, white -1px 1px 1px;">groom</text></g><g class="sankey-node" transform="translate(750.000,490.504)" style="opacity: 1;"><rect class="node-rect" width="15" height="126.5116279069772" style="stroke-width: 0.5; stroke: rgb(0, 0, 0); stroke-opacity: 1; fill: rgb(128, 128, 128); fill-opacity: 1;"/><text class="node-label" data-notex="1" x="0" y="0" text-anchor="start" transform="translate(18.25,67.4558139534886)" style="cursor: default; font-family: 'Open Sans', verdana, arial, sans-serif; font-size: 12px; fill: rgb(42, 63, 95); fill-opacity: 1; white-space: pre; text-shadow: white 1px 1px 1px, white -1px -1px 1px, white 1px -1px 1px, white -1px 1px 1px;">move</text></g><g class="sankey-node" transform="translate(750.000,181.938)" style="opacity: 1;"><rect class="node-rect" width="15" height="68.52713178294573" style="stroke-width: 0.5; stroke: rgb(0, 0, 0); stroke-opacity: 1; fill: rgb(128, 128, 128); fill-opacity: 1;"/><text class="node-label" data-notex="1" x="0" y="0" text-anchor="start" transform="translate(18.25,38.46356589147287)" style="cursor: default; font-family: 'Open Sans', verdana, arial, sans-serif; font-size: 12px; fill: rgb(42, 63, 95); fill-opacity: 1; white-space: pre; text-shadow: white 1px 1px 1px, white -1px -1px 1px, white 1px -1px 1px, white -1px 1px 1px;">sniff</text></g><g class="sankey-node" transform="translate(750.000,265.465)" style="opacity: 1;"><rect class="node-rect" width="15" height="119.9224806201554" style="stroke-width: 0.5; stroke: rgb(0, 0, 0); stroke-opacity: 1; fill: rgb(128, 128, 128); fill-opacity: 1;"/><text class="node-label" data-notex="1" x="0" y="0" text-anchor="start" transform="translate(18.25,64.1612403100777)" style="cursor: default; font-family: 'Open Sans', verdana, arial, sans-serif; font-size: 12px; fill: rgb(42, 63, 95); fill-opacity: 1; white-space: pre; text-shadow: white 1px 1px 1px, white -1px -1px 1px, white 1px -1px 1px, white -1px 1px 1px;">social</text></g><g class="sankey-node" transform="translate(750.000,400.388)" style="opacity: 1;"><rect class="node-rect" width="15" height="75.11627906976764" style="stroke-width: 0.5; stroke: rgb(0, 0, 0); stroke-opacity: 1; fill: rgb(128, 128, 128); fill-opacity: 1;"/><text class="node-label" data-notex="1" x="0" y="0" text-anchor="start" transform="translate(18.25,41.758139534883824)" style="cursor: default; font-family: 'Open Sans', verdana, arial, sans-serif; font-size: 12px; fill: rgb(42, 63, 95); fill-opacity: 1; white-space: pre; text-shadow: white 1px 1px 1px, white -1px -1px 1px, white 1px -1px 1px, white -1px 1px 1px;">still</text></g><g class="sankey-node" transform="translate(750.000,672.054)" style="opacity: 1;"><rect class="node-rect" width="15" height="30.310077519380002" style="stroke-width: 0.5; stroke: rgb(0, 0, 0); stroke-opacity: 1; fill: rgb(128, 128, 128); fill-opacity: 1;"/><text class="node-label" data-notex="1" x="0" y="0" text-anchor="start" transform="translate(18.25,19.35503875969)" style="cursor: default; font-family: 'Open Sans', verdana, arial, sans-serif; font-size: 12px; fill: rgb(42, 63, 95); fill-opacity: 1; white-space: pre; text-shadow: white 1px 1px 1px, white -1px -1px 1px, white 1px -1px 1px, white -1px 1px 1px;">being_attack</text></g><g class="sankey-node" transform="translate(1125.000,0.000)" style="opacity: 1;"><rect class="node-rect" width="15" height="32.945736434108476" style="stroke-width: 0.5; stroke: rgb(0, 0, 0); stroke-opacity: 1; fill: rgb(128, 128, 128); fill-opacity: 1;"/><text class="node-label" data-notex="1" x="0" y="0" text-anchor="end" transform="translate(-3.25,20.672868217054237)" style="cursor: default; font-family: 'Open Sans', verdana, arial, sans-serif; font-size: 12px; fill: rgb(42, 63, 95); fill-opacity: 1; white-space: pre; text-shadow: white 1px 1px 1px, white -1px -1px 1px, white 1px -1px 1px, white -1px 1px 1px;">attacking-activated</text></g><g class="sankey-node" transform="translate(1125.000,632.829)" style="opacity: 1;"><rect class="node-rect" width="15" height="9.224806201550336" style="stroke-width: 0.5; stroke: rgb(0, 0, 0); stroke-opacity: 1; fill: rgb(128, 128, 128); fill-opacity: 1;"/><text class="node-label" data-notex="1" x="0" y="0" text-anchor="end" transform="translate(-3.25,8.812403100775168)" style="cursor: default; font-family: 'Open Sans', verdana, arial, sans-serif; font-size: 12px; fill: rgb(42, 63, 95); fill-opacity: 1; white-space: pre; text-shadow: white 1px 1px 1px, white -1px -1px 1px, white 1px -1px 1px, white -1px 1px 1px;">dig-activated</text></g><g class="sankey-node" transform="translate(1125.000,717.364)" style="opacity: 1;"><rect class="node-rect" width="15" height="2.6356589147285376" style="stroke-width: 0.5; stroke: rgb(0, 0, 0); stroke-opacity: 1; fill: rgb(128, 128, 128); fill-opacity: 1;"/><text class="node-label" data-notex="1" x="0" y="0" text-anchor="end" transform="translate(-3.25,5.517829457364268)" style="cursor: default; font-family: 'Open Sans', verdana, arial, sans-serif; font-size: 12px; fill: rgb(42, 63, 95); fill-opacity: 1; white-space: pre; text-shadow: white 1px 1px 1px, white -1px -1px 1px, white 1px -1px 1px, white -1px 1px 1px;">groom-suppressed</text></g><g class="sankey-node" transform="translate(1125.000,91.938)" style="opacity: 1;"><rect class="node-rect" width="15" height="35.58139534883719" style="stroke-width: 0.5; stroke: rgb(0, 0, 0); stroke-opacity: 1; fill: rgb(128, 128, 128); fill-opacity: 1;"/><text class="node-label" data-notex="1" x="0" y="0" text-anchor="end" transform="translate(-3.25,21.990697674418595)" style="cursor: default; font-family: 'Open Sans', verdana, arial, sans-serif; font-size: 12px; fill: rgb(42, 63, 95); fill-opacity: 1; white-space: pre; text-shadow: white 1px 1px 1px, white -1px -1px 1px, white 1px -1px 1px, white -1px 1px 1px;">sniff-suppressed</text></g><g class="sankey-node" transform="translate(1125.000,190.465)" style="opacity: 1;"><rect class="node-rect" width="15" height="60.620155038759805" style="stroke-width: 0.5; stroke: rgb(0, 0, 0); stroke-opacity: 1; fill: rgb(128, 128, 128); fill-opacity: 1;"/><text class="node-label" data-notex="1" x="0" y="0" text-anchor="end" transform="translate(-3.25,34.510077519379905)" style="cursor: default; font-family: 'Open Sans', verdana, arial, sans-serif; font-size: 12px; fill: rgb(42, 63, 95); fill-opacity: 1; white-space: pre; text-shadow: white 1px 1px 1px, white -1px -1px 1px, white 1px -1px 1px, white -1px 1px 1px;">social-suppressed</text></g><g class="sankey-node" transform="translate(1125.000,340.388)" style="opacity: 1;"><rect class="node-rect" width="15" height="38.217054263565956" style="stroke-width: 0.5; stroke: rgb(0, 0, 0); stroke-opacity: 1; fill: rgb(128, 128, 128); fill-opacity: 1;"/><text class="node-label" data-notex="1" x="0" y="0" text-anchor="end" transform="translate(-3.25,23.308527131782977)" style="cursor: default; font-family: 'Open Sans', verdana, arial, sans-serif; font-size: 12px; fill: rgb(42, 63, 95); fill-opacity: 1; white-space: pre; text-shadow: white 1px 1px 1px, white -1px -1px 1px, white 1px -1px 1px, white -1px 1px 1px;">still-activated</text></g><g class="sankey-node" transform="translate(1125.000,47.946)" style="opacity: 1;"><rect class="node-rect" width="15" height="28.992248062015534" style="stroke-width: 0.5; stroke: rgb(0, 0, 0); stroke-opacity: 1; fill: rgb(128, 128, 128); fill-opacity: 1;"/><text class="node-label" data-notex="1" x="0" y="0" text-anchor="end" transform="translate(-3.25,18.696124031007766)" style="cursor: default; font-family: 'Open Sans', verdana, arial, sans-serif; font-size: 12px; fill: rgb(42, 63, 95); fill-opacity: 1; white-space: pre; text-shadow: white 1px 1px 1px, white -1px -1px 1px, white 1px -1px 1px, white -1px 1px 1px;">attacking-suppressed</text></g><g class="sankey-node" transform="translate(1125.000,602.016)" style="opacity: 1;"><rect class="node-rect" width="15" height="15.813953488372022" style="stroke-width: 0.5; stroke: rgb(0, 0, 0); stroke-opacity: 1; fill: rgb(128, 128, 128); fill-opacity: 1;"/><text class="node-label" data-notex="1" x="0" y="0" text-anchor="end" transform="translate(-3.25,12.10697674418601)" style="cursor: default; font-family: 'Open Sans', verdana, arial, sans-serif; font-size: 12px; fill: rgb(42, 63, 95); fill-opacity: 1; white-space: pre; text-shadow: white 1px 1px 1px, white -1px -1px 1px, white 1px -1px 1px, white -1px 1px 1px;">dig-suppressed</text></g><g class="sankey-node" transform="translate(1125.000,142.519)" style="opacity: 1;"><rect class="node-rect" width="15" height="32.94573643410854" style="stroke-width: 0.5; stroke: rgb(0, 0, 0); stroke-opacity: 1; fill: rgb(128, 128, 128); fill-opacity: 1;"/><text class="node-label" data-notex="1" x="0" y="0" text-anchor="end" transform="translate(-3.25,20.67286821705427)" style="cursor: default; font-family: 'Open Sans', verdana, arial, sans-serif; font-size: 12px; fill: rgb(42, 63, 95); fill-opacity: 1; white-space: pre; text-shadow: white 1px 1px 1px, white -1px -1px 1px, white 1px -1px 1px, white -1px 1px 1px;">sniff-activated</text></g><g class="sankey-node" transform="translate(1125.000,393.605)" style="opacity: 1;"><rect class="node-rect" width="15" height="36.89922480620152" style="stroke-width: 0.5; stroke: rgb(0, 0, 0); stroke-opacity: 1; fill: rgb(128, 128, 128); fill-opacity: 1;"/><text class="node-label" data-notex="1" x="0" y="0" text-anchor="end" transform="translate(-3.25,22.649612403100758)" style="cursor: default; font-family: 'Open Sans', verdana, arial, sans-serif; font-size: 12px; fill: rgb(42, 63, 95); fill-opacity: 1; white-space: pre; text-shadow: white 1px 1px 1px, white -1px -1px 1px, white 1px -1px 1px, white -1px 1px 1px;">still-suppressed</text></g><g class="sankey-node" transform="translate(1125.000,266.085)" style="opacity: 1;"><rect class="node-rect" width="15" height="59.302325581395394" style="stroke-width: 0.5; stroke: rgb(0, 0, 0); stroke-opacity: 1; fill: rgb(128, 128, 128); fill-opacity: 1;"/><text class="node-label" data-notex="1" x="0" y="0" text-anchor="end" transform="translate(-3.25,33.8511627906977)" style="cursor: default; font-family: 'Open Sans', verdana, arial, sans-serif; font-size: 12px; fill: rgb(42, 63, 95); fill-opacity: 1; white-space: pre; text-shadow: white 1px 1px 1px, white -1px -1px 1px, white 1px -1px 1px, white -1px 1px 1px;">social-activated</text></g><g class="sankey-node" transform="translate(1125.000,543.527)" style="opacity: 1;"><rect class="node-rect" width="15" height="43.48837209302326" style="stroke-width: 0.5; stroke: rgb(0, 0, 0); stroke-opacity: 1; fill: rgb(128, 128, 128); fill-opacity: 1;"/><text class="node-label" data-notex="1" x="0" y="0" text-anchor="end" transform="translate(-3.25,25.94418604651163)" style="cursor: default; font-family: 'Open Sans', verdana, arial, sans-serif; font-size: 12px; fill: rgb(42, 63, 95); fill-opacity: 1; white-space: pre; text-shadow: white 1px 1px 1px, white -1px -1px 1px, white 1px -1px 1px, white -1px 1px 1px;">move-suppressed</text></g><g class="sankey-node" transform="translate(1125.000,445.504)" style="opacity: 1;"><rect class="node-rect" width="15" height="83.0232558139536" style="stroke-width: 0.5; stroke: rgb(0, 0, 0); stroke-opacity: 1; fill: rgb(128, 128, 128); fill-opacity: 1;"/><text class="node-label" data-notex="1" x="0" y="0" text-anchor="end" transform="translate(-3.25,45.7116279069768)" style="cursor: default; font-family: 'Open Sans', verdana, arial, sans-serif; font-size: 12px; fill: rgb(42, 63, 95); fill-opacity: 1; white-space: pre; text-shadow: white 1px 1px 1px, white -1px -1px 1px, white 1px -1px 1px, white -1px 1px 1px;">move-activated</text></g><g class="sankey-node" transform="translate(1125.000,657.054)" style="opacity: 1;"><rect class="node-rect" width="15" height="21.085271317829438" style="stroke-width: 0.5; stroke: rgb(0, 0, 0); stroke-opacity: 1; fill: rgb(128, 128, 128); fill-opacity: 1;"/><text class="node-label" data-notex="1" x="0" y="0" text-anchor="end" transform="translate(-3.25,14.742635658914718)" style="cursor: default; font-family: 'Open Sans', verdana, arial, sans-serif; font-size: 12px; fill: rgb(42, 63, 95); fill-opacity: 1; white-space: pre; text-shadow: white 1px 1px 1px, white -1px -1px 1px, white 1px -1px 1px, white -1px 1px 1px;">being_attack-suppressed</text></g><g class="sankey-node" transform="translate(1125.000,693.140)" style="opacity: 1;"><rect class="node-rect" width="15" height="9.224806201550336" style="stroke-width: 0.5; stroke: rgb(0, 0, 0); stroke-opacity: 1; fill: rgb(128, 128, 128); fill-opacity: 1;"/><text class="node-label" data-notex="1" x="0" y="0" text-anchor="end" transform="translate(-3.25,8.812403100775168)" style="cursor: default; font-family: 'Open Sans', verdana, arial, sans-serif; font-size: 12px; fill: rgb(42, 63, 95); fill-opacity: 1; white-space: pre; text-shadow: white 1px 1px 1px, white -1px -1px 1px, white 1px -1px 1px, white -1px 1px 1px;">being_attack-activated</text></g><g class="sankey-node" transform="translate(375.000,508.953)" style="opacity: 1;"><rect class="node-rect" width="15" height="75.1162790697673" style="stroke-width: 0.5; stroke: rgb(0, 0, 0); stroke-opacity: 1; fill: rgb(99, 110, 250); fill-opacity: 1;"/><text class="node-label" data-notex="1" x="0" y="0" text-anchor="start" transform="translate(18.25,41.758139534883654)" style="cursor: default; font-family: 'Open Sans', verdana, arial, sans-serif; font-size: 12px; fill: rgb(42, 63, 95); fill-opacity: 1; white-space: pre; text-shadow: white 1px 1px 1px, white -1px -1px 1px, white 1px -1px 1px, white -1px 1px 1px;">Cla</text></g><g class="sankey-node" transform="translate(375.000,233.333)" style="opacity: 1;"><rect class="node-rect" width="15" height="69.84496124031011" style="stroke-width: 0.5; stroke: rgb(0, 0, 0); stroke-opacity: 1; fill: rgb(239, 85, 59); fill-opacity: 1;"/><text class="node-label" data-notex="1" x="0" y="0" text-anchor="start" transform="translate(18.25,39.12248062015506)" style="cursor: default; font-family: 'Open Sans', verdana, arial, sans-serif; font-size: 12px; fill: rgb(42, 63, 95); fill-opacity: 1; white-space: pre; text-shadow: white 1px 1px 1px, white -1px -1px 1px, white 1px -1px 1px, white -1px 1px 1px;">LC</text></g><g class="sankey-node" transform="translate(375.000,75.504)" style="opacity: 1;"><rect class="node-rect" width="15" height="104.10852713178281" style="stroke-width: 0.5; stroke: rgb(0, 0, 0); stroke-opacity: 1; fill: rgb(0, 204, 150); fill-opacity: 1;"/><text class="node-label" data-notex="1" x="0" y="0" text-anchor="start" transform="translate(18.25,56.25426356589141)" style="cursor: default; font-family: 'Open Sans', verdana, arial, sans-serif; font-size: 12px; fill: rgb(42, 63, 95); fill-opacity: 1; white-space: pre; text-shadow: white 1px 1px 1px, white -1px -1px 1px, white 1px -1px 1px, white -1px 1px 1px;">Str</text></g><g class="sankey-node" transform="translate(375.000,435.969)" style="opacity: 1;"><rect class="node-rect" width="15" height="57.98449612403101" style="stroke-width: 0.5; stroke: rgb(0, 0, 0); stroke-opacity: 1; fill: rgb(171, 99, 250); fill-opacity: 1;"/><text class="node-label" data-notex="1" x="0" y="0" text-anchor="start" transform="translate(18.25,33.19224806201551)" style="cursor: default; font-family: 'Open Sans', verdana, arial, sans-serif; font-size: 12px; fill: rgb(42, 63, 95); fill-opacity: 1; white-space: pre; text-shadow: white 1px 1px 1px, white -1px -1px 1px, white 1px -1px 1px, white -1px 1px 1px;">NAc</text></g><g class="sankey-node" transform="translate(375.000,318.178)" style="opacity: 1;"><rect class="node-rect" width="15" height="102.7906976744191" style="stroke-width: 0.5; stroke: rgb(0, 0, 0); stroke-opacity: 1; fill: rgb(255, 161, 90); fill-opacity: 1;"/><text class="node-label" data-notex="1" x="0" y="0" text-anchor="start" transform="translate(18.25,55.595348837209556)" style="cursor: default; font-family: 'Open Sans', verdana, arial, sans-serif; font-size: 12px; fill: rgb(42, 63, 95); fill-opacity: 1; white-space: pre; text-shadow: white 1px 1px 1px, white -1px -1px 1px, white 1px -1px 1px, white -1px 1px 1px;">VTA</text></g><g class="sankey-node" transform="translate(375.000,194.612)" style="opacity: 1;"><rect class="node-rect" width="15" height="23.72093023255809" style="stroke-width: 0.5; stroke: rgb(0, 0, 0); stroke-opacity: 1; fill: rgb(25, 211, 243); fill-opacity: 1;"/><text class="node-label" data-notex="1" x="0" y="0" text-anchor="start" transform="translate(18.25,16.060465116279044)" style="cursor: default; font-family: 'Open Sans', verdana, arial, sans-serif; font-size: 12px; fill: rgb(42, 63, 95); fill-opacity: 1; white-space: pre; text-shadow: white 1px 1px 1px, white -1px -1px 1px, white 1px -1px 1px, white -1px 1px 1px;">BLA</text></g><g class="sankey-node" transform="translate(375.000,599.070)" style="opacity: 1;"><rect class="node-rect" width="15" height="30.310077519380116" style="stroke-width: 0.5; stroke: rgb(0, 0, 0); stroke-opacity: 1; fill: rgb(255, 102, 146); fill-opacity: 1;"/><text class="node-label" data-notex="1" x="0" y="0" text-anchor="start" transform="translate(18.25,19.355038759690057)" style="cursor: default; font-family: 'Open Sans', verdana, arial, sans-serif; font-size: 12px; fill: rgb(42, 63, 95); fill-opacity: 1; white-space: pre; text-shadow: white 1px 1px 1px, white -1px -1px 1px, white 1px -1px 1px, white -1px 1px 1px;">dPAG</text></g><g class="sankey-node" transform="translate(375.000,55.233)" style="opacity: 1;"><rect class="node-rect" width="15" height="5.271317829457388" style="stroke-width: 0.5; stroke: rgb(0, 0, 0); stroke-opacity: 1; fill: rgb(182, 232, 128); fill-opacity: 1;"/><text class="node-label" data-notex="1" x="0" y="0" text-anchor="start" transform="translate(18.25,6.835658914728693)" style="cursor: default; font-family: 'Open Sans', verdana, arial, sans-serif; font-size: 12px; fill: rgb(42, 63, 95); fill-opacity: 1; white-space: pre; text-shadow: white 1px 1px 1px, white -1px -1px 1px, white 1px -1px 1px, white -1px 1px 1px;">lHb</text></g><g class="sankey-node" transform="translate(375.000,644.380)" style="opacity: 1;"><rect class="node-rect" width="15" height="38.21705426356584" style="stroke-width: 0.5; stroke: rgb(0, 0, 0); stroke-opacity: 1; fill: rgb(255, 151, 255); fill-opacity: 1;"/><text class="node-label" data-notex="1" x="0" y="0" text-anchor="start" transform="translate(18.25,23.30852713178292)" style="cursor: default; font-family: 'Open Sans', verdana, arial, sans-serif; font-size: 12px; fill: rgb(42, 63, 95); fill-opacity: 1; white-space: pre; text-shadow: white 1px 1px 1px, white -1px -1px 1px, white 1px -1px 1px, white -1px 1px 1px;">cPFC</text></g><g class="sankey-node" transform="translate(375.000,697.597)" style="opacity: 1;"><rect class="node-rect" width="15" height="22.403100775193934" style="stroke-width: 0.5; stroke: rgb(0, 0, 0); stroke-opacity: 1; fill: rgb(254, 203, 82); fill-opacity: 1;"/><text class="node-label" data-notex="1" x="0" y="0" text-anchor="start" transform="translate(18.25,15.401550387596966)" style="cursor: default; font-family: 'Open Sans', verdana, arial, sans-serif; font-size: 12px; fill: rgb(42, 63, 95); fill-opacity: 1; white-space: pre; text-shadow: white 1px 1px 1px, white -1px -1px 1px, white 1px -1px 1px, white -1px 1px 1px;">LHyp</text></g></g></g><defs id="topdefs-ca9fe9"><g class="clips"/></defs><g class="layer-above"><g class="imagelayer"/><g class="shapelayer"/></g><g class="infolayer"><g class="g-gtitle"/><g class="first-render"/></g></svg>