<svg class="main-svg" xmlns="http://www.w3.org/2000/svg" xmlns:xlink="http://www.w3.org/1999/xlink" width="1300" height="900" viewBox="0 0 1300 900" style=""><rect x="0" y="0" width="1300" height="900" style="fill: rgb(255, 255, 255); fill-opacity: 1;"/><defs id="defs-bc16aa"><g class="clips"/><g class="gradients"/><g class="patterns"/></defs><g class="bglayer"/><g class="layer-below"><g class="imagelayer"/><g class="shapelayer"/></g><g class="cartesianlayer"/><g class="polarlayer"/><g class="smithlayer"/><g class="ternarylayer"/><g class="geolayer"/><g class="funnelarealayer"/><g class="pielayer"/><g class="iciclelayer"/><g class="treemaplayer"/><g class="sunburstlayer"/><g class="glimages"/><g class="sankey" transform="translate(80,100)matrix(1 0 0 1 0 0)" style="box-sizing: content-box; position: absolute; left: 0px; shape-rendering: geometricprecision; pointer-events: none;"><g class="sankey-links" style="fill: none;"><path class="sankey-link" d="M383.70000000000005,13.71041257367399C564.3000000000001,13.71041257367399 564.3000000000001,18.648919449901754 744.9000000000001,18.648919449901754L744.9000000000001,23.246168958742615C564.3000000000001,23.246168958742615 564.3000000000001,18.307662082514852 383.70000000000005,18.307662082514852Z" style="stroke: rgb(68, 68, 68); stroke-opacity: 1; fill: rgb(25, 211, 243); fill-opacity: 0.6; stroke-width: 0; opacity: 1;"/><path class="sankey-link" d="M383.70000000000005,18.307662082514856C564.3000000000001,18.307662082514856 564.3000000000001,207.78860510805507 744.9000000000001,207.78860510805507L744.9000000000001,210.08722986247548C564.3000000000001,210.08722986247548 564.3000000000001,20.606286836935286 383.70000000000005,20.606286836935286Z" style="stroke: rgb(68, 68, 68); stroke-opacity: 1; fill: rgb(25, 211, 243); fill-opacity: 0.6; stroke-width: 0; opacity: 1;"/><path class="sankey-link" d="M383.70000000000005,20.60628683693529C564.3000000000001,20.60628683693529 564.3000000000001,329.9976424361495 744.9000000000001,329.9976424361495L744.9000000000001,343.7893909626721C564.3000000000001,343.7893909626721 564.3000000000001,34.398035363457886 383.70000000000005,34.398035363457886Z" style="stroke: rgb(68, 68, 68); stroke-opacity: 1; fill: rgb(25, 211, 243); fill-opacity: 0.6; stroke-width: 0; opacity: 1;"/><path class="sankey-link" d="M383.70000000000005,34.39803536345788C564.3000000000001,34.39803536345788 564.3000000000001,533.2243614931239 744.9000000000001,533.2243614931239L744.9000000000001,547.0161100196464C564.3000000000001,547.0161100196464 564.3000000000001,48.189783889980475 383.70000000000005,48.189783889980475Z" style="stroke: rgb(68, 68, 68); stroke-opacity: 1; fill: rgb(25, 211, 243); fill-opacity: 0.6; stroke-width: 0; opacity: 1;"/><path class="sankey-link" d="M383.70000000000005,60.0383104125737C564.3000000000001,60.0383104125737 564.3000000000001,23.246168958742622 744.9000000000001,23.246168958742622L744.9000000000001,41.63516699410608C564.3000000000001,41.63516699410608 564.3000000000001,78.42730844793715 383.70000000000005,78.42730844793715Z" style="stroke: rgb(68, 68, 68); stroke-opacity: 1; fill: rgb(239, 85, 59); fill-opacity: 0.6; stroke-width: 0; opacity: 1;"/><path class="sankey-link" d="M383.70000000000005,78.42730844793716C564.3000000000001,78.42730844793716 564.3000000000001,141.49626719056974 744.9000000000001,141.49626719056974L744.9000000000001,148.39214145383104C564.3000000000001,148.39214145383104 564.3000000000001,85.32318271119847 383.70000000000005,85.32318271119847Z" style="stroke: rgb(68, 68, 68); stroke-opacity: 1; fill: rgb(239, 85, 59); fill-opacity: 0.6; stroke-width: 0; opacity: 1;"/><path class="sankey-link" d="M383.70000000000005,85.32318271119846C564.3000000000001,85.32318271119846 564.3000000000001,210.0872298624755 744.9000000000001,210.0872298624755L744.9000000000001,219.28172888015723C564.3000000000001,219.28172888015723 564.3000000000001,94.51768172888018 383.70000000000005,94.51768172888018Z" style="stroke: rgb(68, 68, 68); stroke-opacity: 1; fill: rgb(239, 85, 59); fill-opacity: 0.6; stroke-width: 0; opacity: 1;"/><path class="sankey-link" d="M383.70000000000005,94.51768172888018C564.3000000000001,94.51768172888018 564.3000000000001,343.7893909626721 744.9000000000001,343.7893909626721L744.9000000000001,374.82082514734793C564.3000000000001,374.82082514734793 564.3000000000001,125.54911591355602 383.70000000000005,125.54911591355602Z" style="stroke: rgb(68, 68, 68); stroke-opacity: 1; fill: rgb(239, 85, 59); fill-opacity: 0.6; stroke-width: 0; opacity: 1;"/><path class="sankey-link" d="M383.70000000000005,125.54911591355601C564.3000000000001,125.54911591355601 564.3000000000001,547.0161100196465 744.9000000000001,547.0161100196465L744.9000000000001,574.5996070726917C564.3000000000001,574.5996070726917 564.3000000000001,153.1326129666012 383.70000000000005,153.1326129666012Z" style="stroke: rgb(68, 68, 68); stroke-opacity: 1; fill: rgb(239, 85, 59); fill-opacity: 0.6; stroke-width: 0; opacity: 1;"/><path class="sankey-link" d="M383.70000000000005,164.45245579567788C564.3000000000001,164.45245579567788 564.3000000000001,41.63516699410607 744.9000000000001,41.63516699410607L744.9000000000001,50.82966601178779C564.3000000000001,50.82966601178779 564.3000000000001,173.6469548133596 383.70000000000005,173.6469548133596Z" style="stroke: rgb(68, 68, 68); stroke-opacity: 1; fill: rgb(0, 204, 150); fill-opacity: 0.6; stroke-width: 0; opacity: 1;"/><path class="sankey-link" d="M383.70000000000005,173.6469548133596C564.3000000000001,173.6469548133596 564.3000000000001,148.39214145383104 744.9000000000001,148.39214145383104L744.9000000000001,155.28801571709235C564.3000000000001,155.28801571709235 564.3000000000001,180.5428290766209 383.70000000000005,180.5428290766209Z" style="stroke: rgb(68, 68, 68); stroke-opacity: 1; fill: rgb(0, 204, 150); fill-opacity: 0.6; stroke-width: 0; opacity: 1;"/><path class="sankey-link" d="M383.70000000000005,180.5428290766209C564.3000000000001,180.5428290766209 564.3000000000001,219.28172888015723 744.9000000000001,219.28172888015723L744.9000000000001,225.02829076620833C564.3000000000001,225.02829076620833 564.3000000000001,186.289390962672 383.70000000000005,186.289390962672Z" style="stroke: rgb(68, 68, 68); stroke-opacity: 1; fill: rgb(0, 204, 150); fill-opacity: 0.6; stroke-width: 0; opacity: 1;"/><path class="sankey-link" d="M383.70000000000005,186.28939096267197C564.3000000000001,186.28939096267197 564.3000000000001,374.82082514734793 744.9000000000001,374.82082514734793L744.9000000000001,396.657760314342C564.3000000000001,396.657760314342 564.3000000000001,208.1263261296661 383.70000000000005,208.1263261296661Z" style="stroke: rgb(68, 68, 68); stroke-opacity: 1; fill: rgb(0, 204, 150); fill-opacity: 0.6; stroke-width: 0; opacity: 1;"/><path class="sankey-link" d="M383.70000000000005,208.12632612966607C564.3000000000001,208.12632612966607 564.3000000000001,574.5996070726917 744.9000000000001,574.5996070726917L744.9000000000001,591.839292730845C564.3000000000001,591.839292730845 564.3000000000001,225.3660117878193 383.70000000000005,225.3660117878193Z" style="stroke: rgb(68, 68, 68); stroke-opacity: 1; fill: rgb(0, 204, 150); fill-opacity: 0.6; stroke-width: 0; opacity: 1;"/><path class="sankey-link" d="M383.70000000000005,237.85815324165026C564.3000000000001,237.85815324165026 564.3000000000001,50.8296660117878 744.9000000000001,50.8296660117878L744.9000000000001,53.12829076620823C564.3000000000001,53.12829076620823 564.3000000000001,240.15677799607067 383.70000000000005,240.15677799607067Z" style="stroke: rgb(68, 68, 68); stroke-opacity: 1; fill: rgb(254, 203, 82); fill-opacity: 0.6; stroke-width: 0; opacity: 1;"/><path class="sankey-link" d="M383.70000000000005,240.1567779960707C564.3000000000001,240.1567779960707 564.3000000000001,155.28801571709235 744.9000000000001,155.28801571709235L744.9000000000001,159.88526522593324C564.3000000000001,159.88526522593324 564.3000000000001,244.7540275049116 383.70000000000005,244.7540275049116Z" style="stroke: rgb(68, 68, 68); stroke-opacity: 1; fill: rgb(254, 203, 82); fill-opacity: 0.6; stroke-width: 0; opacity: 1;"/><path class="sankey-link" d="M383.70000000000005,244.75402750491156C564.3000000000001,244.75402750491156 564.3000000000001,225.0282907662083 744.9000000000001,225.0282907662083L744.9000000000001,235.37210216110023C564.3000000000001,235.37210216110023 564.3000000000001,255.0978388998035 383.70000000000005,255.0978388998035Z" style="stroke: rgb(68, 68, 68); stroke-opacity: 1; fill: rgb(254, 203, 82); fill-opacity: 0.6; stroke-width: 0; opacity: 1;"/><path class="sankey-link" d="M383.70000000000005,255.09783889980352C564.3000000000001,255.09783889980352 564.3000000000001,396.65776031434206 744.9000000000001,396.65776031434206L744.9000000000001,407.00157170923404C564.3000000000001,407.00157170923404 564.3000000000001,265.4416502946955 383.70000000000005,265.4416502946955Z" style="stroke: rgb(68, 68, 68); stroke-opacity: 1; fill: rgb(254, 203, 82); fill-opacity: 0.6; stroke-width: 0; opacity: 1;"/><path class="sankey-link" d="M383.70000000000005,265.4416502946954C564.3000000000001,265.4416502946954 564.3000000000001,591.8392927308449 744.9000000000001,591.8392927308449L744.9000000000001,598.7351669941062C564.3000000000001,598.7351669941062 564.3000000000001,272.33752455795667 383.70000000000005,272.33752455795667Z" style="stroke: rgb(68, 68, 68); stroke-opacity: 1; fill: rgb(254, 203, 82); fill-opacity: 0.6; stroke-width: 0; opacity: 1;"/><path class="sankey-link" d="M383.70000000000005,285.3123772102161C564.3000000000001,285.3123772102161 564.3000000000001,53.12829076620823 744.9000000000001,53.12829076620823L744.9000000000001,60.02416502946952C564.3000000000001,60.02416502946952 564.3000000000001,292.20825147347733 383.70000000000005,292.20825147347733Z" style="stroke: rgb(68, 68, 68); stroke-opacity: 1; fill: rgb(255, 161, 90); fill-opacity: 0.6; stroke-width: 0; opacity: 1;"/><path class="sankey-link" d="M383.70000000000005,292.2082514734774C564.3000000000001,292.2082514734774 564.3000000000001,159.8852652259332 744.9000000000001,159.8852652259332L744.9000000000001,161.03457760314342C564.3000000000001,161.03457760314342 564.3000000000001,293.3575638506876 383.70000000000005,293.3575638506876Z" style="stroke: rgb(68, 68, 68); stroke-opacity: 1; fill: rgb(255, 161, 90); fill-opacity: 0.6; stroke-width: 0; opacity: 1;"/><path class="sankey-link" d="M383.70000000000005,293.3575638506876C564.3000000000001,293.3575638506876 564.3000000000001,235.37210216110026 744.9000000000001,235.37210216110026L744.9000000000001,238.82003929273088C564.3000000000001,238.82003929273088 564.3000000000001,296.8055009823182 383.70000000000005,296.8055009823182Z" style="stroke: rgb(68, 68, 68); stroke-opacity: 1; fill: rgb(255, 161, 90); fill-opacity: 0.6; stroke-width: 0; opacity: 1;"/><path class="sankey-link" d="M383.70000000000005,296.8055009823182C564.3000000000001,296.8055009823182 564.3000000000001,407.001571709234 744.9000000000001,407.001571709234L744.9000000000001,420.7933202357566C564.3000000000001,420.7933202357566 564.3000000000001,310.59724950884083 383.70000000000005,310.59724950884083Z" style="stroke: rgb(68, 68, 68); stroke-opacity: 1; fill: rgb(255, 161, 90); fill-opacity: 0.6; stroke-width: 0; opacity: 1;"/><path class="sankey-link" d="M383.70000000000005,310.59724950884083C564.3000000000001,310.59724950884083 564.3000000000001,598.7351669941062 744.9000000000001,598.7351669941062L744.9000000000001,610.2282907662083C564.3000000000001,610.2282907662083 564.3000000000001,322.090373280943 383.70000000000005,322.090373280943Z" style="stroke: rgb(68, 68, 68); stroke-opacity: 1; fill: rgb(255, 161, 90); fill-opacity: 0.6; stroke-width: 0; opacity: 1;"/><path class="sankey-link" d="M383.70000000000005,334.2147347740668C564.3000000000001,334.2147347740668 564.3000000000001,60.02416502946953 744.9000000000001,60.02416502946953L744.9000000000001,76.11453831041256C564.3000000000001,76.11453831041256 564.3000000000001,350.30510805500984 383.70000000000005,350.30510805500984Z" style="stroke: rgb(68, 68, 68); stroke-opacity: 1; fill: rgb(171, 99, 250); fill-opacity: 0.6; stroke-width: 0; opacity: 1;"/><path class="sankey-link" d="M383.70000000000005,350.30510805500984C564.3000000000001,350.30510805500984 564.3000000000001,161.03457760314342 744.9000000000001,161.03457760314342L744.9000000000001,164.48251473477404C564.3000000000001,164.48251473477404 564.3000000000001,353.75304518664046 383.70000000000005,353.75304518664046Z" style="stroke: rgb(68, 68, 68); stroke-opacity: 1; fill: rgb(171, 99, 250); fill-opacity: 0.6; stroke-width: 0; opacity: 1;"/><path class="sankey-link" d="M383.70000000000005,353.75304518664046C564.3000000000001,353.75304518664046 564.3000000000001,238.8200392927309 744.9000000000001,238.8200392927309L744.9000000000001,248.01453831041263C564.3000000000001,248.01453831041263 564.3000000000001,362.94754420432224 383.70000000000005,362.94754420432224Z" style="stroke: rgb(68, 68, 68); stroke-opacity: 1; fill: rgb(171, 99, 250); fill-opacity: 0.6; stroke-width: 0; opacity: 1;"/><path class="sankey-link" d="M383.70000000000005,362.9475442043222C564.3000000000001,362.9475442043222 564.3000000000001,420.7933202357566 744.9000000000001,420.7933202357566L744.9000000000001,444.9288801571711C564.3000000000001,444.9288801571711 564.3000000000001,387.08310412573667 383.70000000000005,387.08310412573667Z" style="stroke: rgb(68, 68, 68); stroke-opacity: 1; fill: rgb(171, 99, 250); fill-opacity: 0.6; stroke-width: 0; opacity: 1;"/><path class="sankey-link" d="M383.70000000000005,387.0831041257367C564.3000000000001,387.0831041257367 564.3000000000001,610.2282907662084 744.9000000000001,610.2282907662084L744.9000000000001,634.363850687623C564.3000000000001,634.363850687623 564.3000000000001,411.2186640471512 383.70000000000005,411.2186640471512Z" style="stroke: rgb(68, 68, 68); stroke-opacity: 1; fill: rgb(171, 99, 250); fill-opacity: 0.6; stroke-width: 0; opacity: 1;"/><path class="sankey-link" d="M383.70000000000005,420.7685658153242C564.3000000000001,420.7685658153242 564.3000000000001,76.11453831041256 744.9000000000001,76.11453831041256L744.9000000000001,107.1459724950884C564.3000000000001,107.1459724950884 564.3000000000001,451.80000000000007 383.70000000000005,451.80000000000007Z" style="stroke: rgb(68, 68, 68); stroke-opacity: 1; fill: rgb(99, 110, 250); fill-opacity: 0.6; stroke-width: 0; opacity: 1;"/><path class="sankey-link" d="M383.70000000000005,451.80000000000007C564.3000000000001,451.80000000000007 564.3000000000001,164.48251473477407 744.9000000000001,164.48251473477407L744.9000000000001,181.7222003929273C564.3000000000001,181.7222003929273 564.3000000000001,469.0396856581533 383.70000000000005,469.0396856581533Z" style="stroke: rgb(68, 68, 68); stroke-opacity: 1; fill: rgb(99, 110, 250); fill-opacity: 0.6; stroke-width: 0; opacity: 1;"/><path class="sankey-link" d="M383.70000000000005,469.0396856581533C564.3000000000001,469.0396856581533 564.3000000000001,248.01453831041263 744.9000000000001,248.01453831041263L744.9000000000001,290.53909626719064C564.3000000000001,290.53909626719064 564.3000000000001,511.56424361493134 383.70000000000005,511.56424361493134Z" style="stroke: rgb(68, 68, 68); stroke-opacity: 1; fill: rgb(99, 110, 250); fill-opacity: 0.6; stroke-width: 0; opacity: 1;"/><path class="sankey-link" d="M383.70000000000005,511.56424361493134C564.3000000000001,511.56424361493134 564.3000000000001,444.92888015717114 744.9000000000001,444.92888015717114L744.9000000000001,480.5575638506878C564.3000000000001,480.5575638506878 564.3000000000001,547.192927308448 383.70000000000005,547.192927308448Z" style="stroke: rgb(68, 68, 68); stroke-opacity: 1; fill: rgb(99, 110, 250); fill-opacity: 0.6; stroke-width: 0; opacity: 1;"/><path class="sankey-link" d="M383.70000000000005,547.192927308448C564.3000000000001,547.192927308448 564.3000000000001,634.3638506876229 744.9000000000001,634.3638506876229L744.9000000000001,673.4404715127702C564.3000000000001,673.4404715127702 564.3000000000001,586.2695481335953 383.70000000000005,586.2695481335953Z" style="stroke: rgb(68, 68, 68); stroke-opacity: 1; fill: rgb(99, 110, 250); fill-opacity: 0.6; stroke-width: 0; opacity: 1;"/><path class="sankey-link" d="M383.70000000000005,596.233202357564C564.3000000000001,596.233202357564 564.3000000000001,107.14597249508839 744.9000000000001,107.14597249508839L744.9000000000001,116.34047151277011C564.3000000000001,116.34047151277011 564.3000000000001,605.4277013752456 383.70000000000005,605.4277013752456Z" style="stroke: rgb(68, 68, 68); stroke-opacity: 1; fill: rgb(255, 151, 255); fill-opacity: 0.6; stroke-width: 0; opacity: 1;"/><path class="sankey-link" d="M383.70000000000005,605.4277013752458C564.3000000000001,605.4277013752458 564.3000000000001,181.7222003929273 744.9000000000001,181.7222003929273L744.9000000000001,185.17013752455793C564.3000000000001,185.17013752455793 564.3000000000001,608.8756385068764 383.70000000000005,608.8756385068764Z" style="stroke: rgb(68, 68, 68); stroke-opacity: 1; fill: rgb(255, 151, 255); fill-opacity: 0.6; stroke-width: 0; opacity: 1;"/><path class="sankey-link" d="M383.70000000000005,608.8756385068764C564.3000000000001,608.8756385068764 564.3000000000001,290.53909626719064 744.9000000000001,290.53909626719064L744.9000000000001,298.5842829076621C564.3000000000001,298.5842829076621 564.3000000000001,616.9208251473478 383.70000000000005,616.9208251473478Z" style="stroke: rgb(68, 68, 68); stroke-opacity: 1; fill: rgb(255, 151, 255); fill-opacity: 0.6; stroke-width: 0; opacity: 1;"/><path class="sankey-link" d="M383.70000000000005,616.9208251473478C564.3000000000001,616.9208251473478 564.3000000000001,480.5575638506878 744.9000000000001,480.5575638506878L744.9000000000001,496.64793713163084C564.3000000000001,496.64793713163084 564.3000000000001,633.0111984282908 383.70000000000005,633.0111984282908Z" style="stroke: rgb(68, 68, 68); stroke-opacity: 1; fill: rgb(255, 151, 255); fill-opacity: 0.6; stroke-width: 0; opacity: 1;"/><path class="sankey-link" d="M383.70000000000005,633.0111984282909C564.3000000000001,633.0111984282909 564.3000000000001,673.4404715127702 744.9000000000001,673.4404715127702L744.9000000000001,692.9787819253439C564.3000000000001,692.9787819253439 564.3000000000001,652.5495088408646 383.70000000000005,652.5495088408646Z" style="stroke: rgb(68, 68, 68); stroke-opacity: 1; fill: rgb(255, 151, 255); fill-opacity: 0.6; stroke-width: 0; opacity: 1;"/><path class="sankey-link" d="M383.70000000000005,665.3404715127701C564.3000000000001,665.3404715127701 564.3000000000001,116.34047151277011 744.9000000000001,116.34047151277011L744.9000000000001,119.78840864440076C564.3000000000001,119.78840864440076 564.3000000000001,668.7884086444008 383.70000000000005,668.7884086444008Z" style="stroke: rgb(68, 68, 68); stroke-opacity: 1; fill: rgb(255, 102, 146); fill-opacity: 0.6; stroke-width: 0; opacity: 1;"/><path class="sankey-link" d="M383.70000000000005,668.7884086444008C564.3000000000001,668.7884086444008 564.3000000000001,185.17013752455796 744.9000000000001,185.17013752455796L744.9000000000001,187.46876227897837C564.3000000000001,187.46876227897837 564.3000000000001,671.0870333988212 383.70000000000005,671.0870333988212Z" style="stroke: rgb(68, 68, 68); stroke-opacity: 1; fill: rgb(255, 102, 146); fill-opacity: 0.6; stroke-width: 0; opacity: 1;"/><path class="sankey-link" d="M383.70000000000005,671.0870333988212C564.3000000000001,671.0870333988212 564.3000000000001,298.58428290766216 744.9000000000001,298.58428290766216L744.9000000000001,304.3308447937132C564.3000000000001,304.3308447937132 564.3000000000001,676.8335952848722 383.70000000000005,676.8335952848722Z" style="stroke: rgb(68, 68, 68); stroke-opacity: 1; fill: rgb(255, 102, 146); fill-opacity: 0.6; stroke-width: 0; opacity: 1;"/><path class="sankey-link" d="M383.70000000000005,676.8335952848722C564.3000000000001,676.8335952848722 564.3000000000001,496.6479371316309 744.9000000000001,496.6479371316309L744.9000000000001,504.69312377210235C564.3000000000001,504.69312377210235 564.3000000000001,684.8787819253437 383.70000000000005,684.8787819253437Z" style="stroke: rgb(68, 68, 68); stroke-opacity: 1; fill: rgb(255, 102, 146); fill-opacity: 0.6; stroke-width: 0; opacity: 1;"/><path class="sankey-link" d="M383.70000000000005,684.8787819253437C564.3000000000001,684.8787819253437 564.3000000000001,692.9787819253438 744.9000000000001,692.9787819253438L744.9000000000001,697.5760314341846C564.3000000000001,697.5760314341846 564.3000000000001,689.4760314341845 383.70000000000005,689.4760314341845Z" style="stroke: rgb(68, 68, 68); stroke-opacity: 1; fill: rgb(255, 102, 146); fill-opacity: 0.6; stroke-width: 0; opacity: 1;"/><path class="sankey-link" d="M383.70000000000005,703.347347740668C564.3000000000001,703.347347740668 564.3000000000001,119.78840864440076 744.9000000000001,119.78840864440076L744.9000000000001,120.93772102161097C564.3000000000001,120.93772102161097 564.3000000000001,704.4966601178783 383.70000000000005,704.4966601178783Z" style="stroke: rgb(68, 68, 68); stroke-opacity: 1; fill: rgb(182, 232, 128); fill-opacity: 0.6; stroke-width: 0; opacity: 1;"/><path class="sankey-link" d="M383.70000000000005,704.4966601178783C564.3000000000001,704.4966601178783 564.3000000000001,697.5760314341846 744.9000000000001,697.5760314341846L744.9000000000001,698.7253438113949C564.3000000000001,698.7253438113949 564.3000000000001,705.6459724950885 383.70000000000005,705.6459724950885Z" style="stroke: rgb(68, 68, 68); stroke-opacity: 1; fill: rgb(182, 232, 128); fill-opacity: 0.6; stroke-width: 0; opacity: 1;"/></g><g class="sankey-node-set" style="cursor: ns-resize;"><g class="sankey-node" transform="translate(744.900,18.649)" style="opacity: 1;"><rect class="node-rect" width="15" height="102.28880157170926" style="stroke-width: 0.5; stroke: rgb(0, 0, 0); stroke-opacity: 1; fill: rgb(128, 128, 128); fill-opacity: 1;"/><text class="node-label" data-notex="1" x="0" y="0" text-anchor="end" transform="translate(-3.25,55.34440078585463)" style="cursor: default; font-family: 'Open Sans', verdana, arial, sans-serif; font-size: 12px; fill: rgb(42, 63, 95); fill-opacity: 1; white-space: pre; text-shadow: white 1px 1px 1px, white -1px -1px 1px, white 1px -1px 1px, white -1px 1px 1px;">dig</text></g><g class="sankey-node" transform="translate(744.900,141.496)" style="opacity: 1;"><rect class="node-rect" width="15" height="45.97249508840861" style="stroke-width: 0.5; stroke: rgb(0, 0, 0); stroke-opacity: 1; fill: rgb(128, 128, 128); fill-opacity: 1;"/><text class="node-label" data-notex="1" x="0" y="0" text-anchor="end" transform="translate(-3.25,27.186247544204303)" style="cursor: default; font-family: 'Open Sans', verdana, arial, sans-serif; font-size: 12px; fill: rgb(42, 63, 95); fill-opacity: 1; white-space: pre; text-shadow: white 1px 1px 1px, white -1px -1px 1px, white 1px -1px 1px, white -1px 1px 1px;">groom_front</text></g><g class="sankey-node" transform="translate(744.900,207.789)" style="opacity: 1;"><rect class="node-rect" width="15" height="96.54223968565796" style="stroke-width: 0.5; stroke: rgb(0, 0, 0); stroke-opacity: 1; fill: rgb(128, 128, 128); fill-opacity: 1;"/><text class="node-label" data-notex="1" x="0" y="0" text-anchor="end" transform="translate(-3.25,52.47111984282898)" style="cursor: default; font-family: 'Open Sans', verdana, arial, sans-serif; font-size: 12px; fill: rgb(42, 63, 95); fill-opacity: 1; white-space: pre; text-shadow: white 1px 1px 1px, white -1px -1px 1px, white 1px -1px 1px, white -1px 1px 1px;">still</text></g><g class="sankey-node" transform="translate(744.900,329.998)" style="opacity: 1;"><rect class="node-rect" width="15" height="174.69548133595254" style="stroke-width: 0.5; stroke: rgb(0, 0, 0); stroke-opacity: 1; fill: rgb(128, 128, 128); fill-opacity: 1;"/><text class="node-label" data-notex="1" x="0" y="0" text-anchor="end" transform="translate(-3.25,91.54774066797627)" style="cursor: default; font-family: 'Open Sans', verdana, arial, sans-serif; font-size: 12px; fill: rgb(42, 63, 95); fill-opacity: 1; white-space: pre; text-shadow: white 1px 1px 1px, white -1px -1px 1px, white 1px -1px 1px, white -1px 1px 1px;">walk</text></g><g class="sankey-node" transform="translate(744.900,533.224)" style="opacity: 1;"><rect class="node-rect" width="15" height="165.5009823182711" style="stroke-width: 0.5; stroke: rgb(0, 0, 0); stroke-opacity: 1; fill: rgb(128, 128, 128); fill-opacity: 1;"/><text class="node-label" data-notex="1" x="0" y="0" text-anchor="end" transform="translate(-3.25,86.95049115913555)" style="cursor: default; font-family: 'Open Sans', verdana, arial, sans-serif; font-size: 12px; fill: rgb(42, 63, 95); fill-opacity: 1; white-space: pre; text-shadow: white 1px 1px 1px, white -1px -1px 1px, white 1px -1px 1px, white -1px 1px 1px;">wallclimb</text></g><g class="sankey-node" transform="translate(368.700,13.710)" style="opacity: 1;"><rect class="node-rect" width="15" height="34.47937131630624" style="stroke-width: 0.5; stroke: rgb(0, 0, 0); stroke-opacity: 1; fill: rgb(25, 211, 243); fill-opacity: 1;"/><text class="node-label" data-notex="1" x="0" y="0" text-anchor="start" transform="translate(18.25,21.43968565815312)" style="cursor: default; font-family: 'Open Sans', verdana, arial, sans-serif; font-size: 12px; fill: rgb(42, 63, 95); fill-opacity: 1; white-space: pre; text-shadow: white 1px 1px 1px, white -1px -1px 1px, white 1px -1px 1px, white -1px 1px 1px;">BLA</text></g><g class="sankey-node" transform="translate(368.700,60.038)" style="opacity: 1;"><rect class="node-rect" width="15" height="93.09430255402742" style="stroke-width: 0.5; stroke: rgb(0, 0, 0); stroke-opacity: 1; fill: rgb(239, 85, 59); fill-opacity: 1;"/><text class="node-label" data-notex="1" x="0" y="0" text-anchor="start" transform="translate(18.25,50.747151277013714)" style="cursor: default; font-family: 'Open Sans', verdana, arial, sans-serif; font-size: 12px; fill: rgb(42, 63, 95); fill-opacity: 1; white-space: pre; text-shadow: white 1px 1px 1px, white -1px -1px 1px, white 1px -1px 1px, white -1px 1px 1px;">Cla</text></g><g class="sankey-node" transform="translate(368.700,164.452)" style="opacity: 1;"><rect class="node-rect" width="15" height="60.91355599214137" style="stroke-width: 0.5; stroke: rgb(0, 0, 0); stroke-opacity: 1; fill: rgb(0, 204, 150); fill-opacity: 1;"/><text class="node-label" data-notex="1" x="0" y="0" text-anchor="start" transform="translate(18.25,34.65677799607069)" style="cursor: default; font-family: 'Open Sans', verdana, arial, sans-serif; font-size: 12px; fill: rgb(42, 63, 95); fill-opacity: 1; white-space: pre; text-shadow: white 1px 1px 1px, white -1px -1px 1px, white 1px -1px 1px, white -1px 1px 1px;">LC</text></g><g class="sankey-node" transform="translate(368.700,237.858)" style="opacity: 1;"><rect class="node-rect" width="15" height="34.47937131630658" style="stroke-width: 0.5; stroke: rgb(0, 0, 0); stroke-opacity: 1; fill: rgb(254, 203, 82); fill-opacity: 1;"/><text class="node-label" data-notex="1" x="0" y="0" text-anchor="start" transform="translate(18.25,21.43968565815329)" style="cursor: default; font-family: 'Open Sans', verdana, arial, sans-serif; font-size: 12px; fill: rgb(42, 63, 95); fill-opacity: 1; white-space: pre; text-shadow: white 1px 1px 1px, white -1px -1px 1px, white 1px -1px 1px, white -1px 1px 1px;">LHyp</text></g><g class="sankey-node" transform="translate(368.700,285.312)" style="opacity: 1;"><rect class="node-rect" width="15" height="36.777996070727" style="stroke-width: 0.5; stroke: rgb(0, 0, 0); stroke-opacity: 1; fill: rgb(255, 161, 90); fill-opacity: 1;"/><text class="node-label" data-notex="1" x="0" y="0" text-anchor="start" transform="translate(18.25,22.5889980353635)" style="cursor: default; font-family: 'Open Sans', verdana, arial, sans-serif; font-size: 12px; fill: rgb(42, 63, 95); fill-opacity: 1; white-space: pre; text-shadow: white 1px 1px 1px, white -1px -1px 1px, white 1px -1px 1px, white -1px 1px 1px;">NAc</text></g><g class="sankey-node" transform="translate(368.700,334.215)" style="opacity: 1;"><rect class="node-rect" width="15" height="77.00392927308451" style="stroke-width: 0.5; stroke: rgb(0, 0, 0); stroke-opacity: 1; fill: rgb(171, 99, 250); fill-opacity: 1;"/><text class="node-label" data-notex="1" x="0" y="0" text-anchor="start" transform="translate(18.25,42.70196463654226)" style="cursor: default; font-family: 'Open Sans', verdana, arial, sans-serif; font-size: 12px; fill: rgb(42, 63, 95); fill-opacity: 1; white-space: pre; text-shadow: white 1px 1px 1px, white -1px -1px 1px, white 1px -1px 1px, white -1px 1px 1px;">Str</text></g><g class="sankey-node" transform="translate(368.700,420.769)" style="opacity: 1;"><rect class="node-rect" width="15" height="165.50098231827099" style="stroke-width: 0.5; stroke: rgb(0, 0, 0); stroke-opacity: 1; fill: rgb(99, 110, 250); fill-opacity: 1;"/><text class="node-label" data-notex="1" x="0" y="0" text-anchor="start" transform="translate(18.25,86.9504911591355)" style="cursor: default; font-family: 'Open Sans', verdana, arial, sans-serif; font-size: 12px; fill: rgb(42, 63, 95); fill-opacity: 1; white-space: pre; text-shadow: white 1px 1px 1px, white -1px -1px 1px, white 1px -1px 1px, white -1px 1px 1px;">VTA</text></g><g class="sankey-node" transform="translate(368.700,596.233)" style="opacity: 1;"><rect class="node-rect" width="15" height="56.31630648330042" style="stroke-width: 0.5; stroke: rgb(0, 0, 0); stroke-opacity: 1; fill: rgb(255, 151, 255); fill-opacity: 1;"/><text class="node-label" data-notex="1" x="0" y="0" text-anchor="start" transform="translate(18.25,32.358153241650214)" style="cursor: default; font-family: 'Open Sans', verdana, arial, sans-serif; font-size: 12px; fill: rgb(42, 63, 95); fill-opacity: 1; white-space: pre; text-shadow: white 1px 1px 1px, white -1px -1px 1px, white 1px -1px 1px, white -1px 1px 1px;">cPFC</text></g><g class="sankey-node" transform="translate(368.700,665.340)" style="opacity: 1;"><rect class="node-rect" width="15" height="24.135559921414597" style="stroke-width: 0.5; stroke: rgb(0, 0, 0); stroke-opacity: 1; fill: rgb(255, 102, 146); fill-opacity: 1;"/><text class="node-label" data-notex="1" x="0" y="0" text-anchor="start" transform="translate(18.25,16.267779960707298)" style="cursor: default; font-family: 'Open Sans', verdana, arial, sans-serif; font-size: 12px; fill: rgb(42, 63, 95); fill-opacity: 1; white-space: pre; text-shadow: white 1px 1px 1px, white -1px -1px 1px, white 1px -1px 1px, white -1px 1px 1px;">dPAG</text></g><g class="sankey-node" transform="translate(368.700,703.347)" style="opacity: 1;"><rect class="node-rect" width="15" height="2.298624754420416" style="stroke-width: 0.5; stroke: rgb(0, 0, 0); stroke-opacity: 1; fill: rgb(182, 232, 128); fill-opacity: 1;"/><text class="node-label" data-notex="1" x="0" y="0" text-anchor="start" transform="translate(18.25,5.349312377210207)" style="cursor: default; font-family: 'Open Sans', verdana, arial, sans-serif; font-size: 12px; fill: rgb(42, 63, 95); fill-opacity: 1; white-space: pre; text-shadow: white 1px 1px 1px, white -1px -1px 1px, white 1px -1px 1px, white -1px 1px 1px;">lHb</text></g></g></g><defs id="topdefs-bc16aa"><g class="clips"/></defs><g class="layer-above"><g class="imagelayer"/><g class="shapelayer"/></g><g class="infolayer"><g class="g-gtitle"/><g class="first-render"/></g></svg>