<svg class="main-svg" xmlns="http://www.w3.org/2000/svg" xmlns:xlink="http://www.w3.org/1999/xlink" width="1300" height="900" viewBox="0 0 1300 900" style=""><rect x="0" y="0" width="1300" height="900" style="fill: rgb(255, 255, 255); fill-opacity: 1;"/><defs id="defs-7597f8"><g class="clips"/><g class="gradients"/><g class="patterns"/></defs><g class="bglayer"/><g class="layer-below"><g class="imagelayer"/><g class="shapelayer"/></g><g class="cartesianlayer"/><g class="polarlayer"/><g class="smithlayer"/><g class="ternarylayer"/><g class="geolayer"/><g class="funnelarealayer"/><g class="pielayer"/><g class="iciclelayer"/><g class="treemaplayer"/><g class="sunburstlayer"/><g class="glimages"/><g class="sankey" transform="translate(80,100)matrix(1 0 0 1 0 0)" style="box-sizing: content-box; position: absolute; left: 0px; shape-rendering: geometricprecision; pointer-events: none;"><g class="sankey-links" style="fill: none;"><path class="sankey-link" d="M15,27.583497053045583C570,27.583497053045583 570,445.1964636542241 1125,445.1964636542241L1125,449.7937131630649C570,449.7937131630649 570,32.180746561886444 15,32.180746561886444Z" style="stroke: rgb(68, 68, 68); stroke-opacity: 1; fill: rgb(25, 211, 243); fill-opacity: 0.6; stroke-width: 0; opacity: 1;"/><path class="sankey-link" d="M15,32.18074656188645C570,32.18074656188645 570,562.4852652259333 1125,562.4852652259333L1125,564.7838899803537C570,564.7838899803537 570,34.47937131630688 15,34.47937131630688Z" style="stroke: rgb(68, 68, 68); stroke-opacity: 1; fill: rgb(25, 211, 243); fill-opacity: 0.6; stroke-width: 0; opacity: 1;"/><path class="sankey-link" d="M15,13.791748526522989C570,13.791748526522989 570,255.50098231827099 1125,255.50098231827099L1125,269.2927308447936C570,269.2927308447936 570,27.583497053045583 15,27.583497053045583Z" style="stroke: rgb(68, 68, 68); stroke-opacity: 1; fill: rgb(25, 211, 243); fill-opacity: 0.6; stroke-width: 0; opacity: 1;"/><path class="sankey-link" d="M15,3.979039320256561e-13C570,3.979039320256561e-13 570,74.99999999999989 1125,74.99999999999989L1125,88.79174852652247C570,88.79174852652247 570,13.79174852652299 15,13.79174852652299Z" style="stroke: rgb(68, 68, 68); stroke-opacity: 1; fill: rgb(25, 211, 243); fill-opacity: 0.6; stroke-width: 0; opacity: 1;"/><path class="sankey-link" d="M15,108.09430255402796C570,108.09430255402796 570,449.793713163065 1125,449.793713163065L1125,468.1827111984284C570,468.1827111984284 570,126.4833005893914 15,126.4833005893914Z" style="stroke: rgb(68, 68, 68); stroke-opacity: 1; fill: rgb(239, 85, 59); fill-opacity: 0.6; stroke-width: 0; opacity: 1;"/><path class="sankey-link" d="M15,135.67779960707313C570,135.67779960707313 570,674.0275049115913 1125,674.0275049115913L1125,680.9233791748526C570,680.9233791748526 570,142.57367387033443 15,142.57367387033443Z" style="stroke: rgb(68, 68, 68); stroke-opacity: 1; fill: rgb(239, 85, 59); fill-opacity: 0.6; stroke-width: 0; opacity: 1;"/><path class="sankey-link" d="M15,126.4833005893914C570,126.4833005893914 570,564.7838899803537 1125,564.7838899803537L1125,573.9783889980354C570,573.9783889980354 570,135.67779960707313 15,135.67779960707313Z" style="stroke: rgb(68, 68, 68); stroke-opacity: 1; fill: rgb(239, 85, 59); fill-opacity: 0.6; stroke-width: 0; opacity: 1;"/><path class="sankey-link" d="M15,77.06286836935212C570,77.06286836935212 570,269.2927308447936 1125,269.2927308447936L1125,300.32416502946944C570,300.32416502946944 570,108.09430255402796 15,108.09430255402796Z" style="stroke: rgb(68, 68, 68); stroke-opacity: 1; fill: rgb(239, 85, 59); fill-opacity: 0.6; stroke-width: 0; opacity: 1;"/><path class="sankey-link" d="M15,49.479371316306924C570,49.479371316306924 570,88.79174852652248 1125,88.79174852652248L1125,116.37524557956768C570,116.37524557956768 570,77.06286836935212 15,77.06286836935212Z" style="stroke: rgb(68, 68, 68); stroke-opacity: 1; fill: rgb(239, 85, 59); fill-opacity: 0.6; stroke-width: 0; opacity: 1;"/><path class="sankey-link" d="M15,609.5481335952846C570,609.5481335952846 570,532.5442043222005 1125,532.5442043222005L1125,541.7387033398821C570,541.7387033398821 570,618.7426326129663 15,618.7426326129663Z" style="stroke: rgb(68, 68, 68); stroke-opacity: 1; fill: rgb(0, 204, 150); fill-opacity: 0.6; stroke-width: 0; opacity: 1;"/><path class="sankey-link" d="M15,624.4891944990175C570,624.4891944990175 570,706.2082514734773 1125,706.2082514734773L1125,713.1041257367385C570,713.1041257367385 570,631.3850687622787 15,631.3850687622787Z" style="stroke: rgb(68, 68, 68); stroke-opacity: 1; fill: rgb(0, 204, 150); fill-opacity: 0.6; stroke-width: 0; opacity: 1;"/><path class="sankey-link" d="M15,618.7426326129664C570,618.7426326129664 570,637.1905697445974 1125,637.1905697445974L1125,642.9371316306484C570,642.9371316306484 570,624.4891944990175 15,624.4891944990175Z" style="stroke: rgb(68, 68, 68); stroke-opacity: 1; fill: rgb(0, 204, 150); fill-opacity: 0.6; stroke-width: 0; opacity: 1;"/><path class="sankey-link" d="M15,587.7111984282906C570,587.7111984282906 570,389.9705304518663 1125,389.9705304518663L1125,411.80746561886036C570,411.80746561886036 570,609.5481335952848 15,609.5481335952848Z" style="stroke: rgb(68, 68, 68); stroke-opacity: 1; fill: rgb(0, 204, 150); fill-opacity: 0.6; stroke-width: 0; opacity: 1;"/><path class="sankey-link" d="M15,570.4715127701373C570,570.4715127701373 570,211.7681728880156 1125,211.7681728880156L1125,229.00785854616885C570,229.00785854616885 570,587.7111984282907 15,587.7111984282907Z" style="stroke: rgb(68, 68, 68); stroke-opacity: 1; fill: rgb(0, 204, 150); fill-opacity: 0.6; stroke-width: 0; opacity: 1;"/><path class="sankey-link" d="M15,702.7603143418468C570,702.7603143418468 570,545.1866404715129 1125,545.1866404715129L1125,547.4852652259333C570,547.4852652259333 570,705.0589390962672 15,705.0589390962672Z" style="stroke: rgb(68, 68, 68); stroke-opacity: 1; fill: rgb(254, 203, 82); fill-opacity: 0.6; stroke-width: 0; opacity: 1;"/><path class="sankey-link" d="M15,715.4027504911592C570,715.4027504911592 570,715.4027504911589 1125,715.4027504911589L1125,719.9999999999998C570,719.9999999999998 570,720 15,720Z" style="stroke: rgb(68, 68, 68); stroke-opacity: 1; fill: rgb(254, 203, 82); fill-opacity: 0.6; stroke-width: 0; opacity: 1;"/><path class="sankey-link" d="M15,705.0589390962672C570,705.0589390962672 570,648.6836935166995 1125,648.6836935166995L1125,659.0275049115913C570,659.0275049115913 570,715.402750491159 15,715.402750491159Z" style="stroke: rgb(68, 68, 68); stroke-opacity: 1; fill: rgb(254, 203, 82); fill-opacity: 0.6; stroke-width: 0; opacity: 1;"/><path class="sankey-link" d="M15,692.4165029469548C570,692.4165029469548 570,419.85265225933193 1125,419.85265225933193L1125,430.1964636542239C570,430.1964636542239 570,702.7603143418467 15,702.7603143418467Z" style="stroke: rgb(68, 68, 68); stroke-opacity: 1; fill: rgb(254, 203, 82); fill-opacity: 0.6; stroke-width: 0; opacity: 1;"/><path class="sankey-link" d="M15,685.5206286836935C570,685.5206286836935 570,233.6051080550097 1125,233.6051080550097L1125,240.500982318271C570,240.500982318271 570,692.4165029469548 15,692.4165029469548Z" style="stroke: rgb(68, 68, 68); stroke-opacity: 1; fill: rgb(254, 203, 82); fill-opacity: 0.6; stroke-width: 0; opacity: 1;"/><path class="sankey-link" d="M15,292.1611001964639C570,292.1611001964639 570,485.42239685658166 1125,485.42239685658166L1125,492.3182711198429C570,492.3182711198429 570,299.05697445972515 15,299.05697445972515Z" style="stroke: rgb(68, 68, 68); stroke-opacity: 1; fill: rgb(255, 161, 90); fill-opacity: 0.6; stroke-width: 0; opacity: 1;"/><path class="sankey-link" d="M15,302.50491159135584C570,302.50491159135584 570,684.3713163064832 1125,684.3713163064832L1125,685.5206286836934C570,685.5206286836934 570,303.65422396856604 15,303.65422396856604Z" style="stroke: rgb(68, 68, 68); stroke-opacity: 1; fill: rgb(255, 161, 90); fill-opacity: 0.6; stroke-width: 0; opacity: 1;"/><path class="sankey-link" d="M15,299.0569744597252C570,299.0569744597252 570,583.1728880157173 1125,583.1728880157173L1125,586.6208251473479C570,586.6208251473479 570,302.50491159135584 15,302.50491159135584Z" style="stroke: rgb(68, 68, 68); stroke-opacity: 1; fill: rgb(255, 161, 90); fill-opacity: 0.6; stroke-width: 0; opacity: 1;"/><path class="sankey-link" d="M15,278.3693516699413C570,278.3693516699413 570,324.459724950884 1125,324.459724950884L1125,338.2514734774066C570,338.2514734774066 570,292.1611001964639 15,292.1611001964639Z" style="stroke: rgb(68, 68, 68); stroke-opacity: 1; fill: rgb(255, 161, 90); fill-opacity: 0.6; stroke-width: 0; opacity: 1;"/><path class="sankey-link" d="M15,266.87622789783916C570,266.87622789783916 570,141.6601178781924 1125,141.6601178781924L1125,153.15324165029455C570,153.15324165029455 570,278.36935166994135 15,278.36935166994135Z" style="stroke: rgb(68, 68, 68); stroke-opacity: 1; fill: rgb(255, 161, 90); fill-opacity: 0.6; stroke-width: 0; opacity: 1;"/><path class="sankey-link" d="M15,223.14341846758384C570,223.14341846758384 570,469.33202357563863 1125,469.33202357563863L1125,485.42239685658166C570,485.42239685658166 570,239.23379174852687 15,239.23379174852687Z" style="stroke: rgb(68, 68, 68); stroke-opacity: 1; fill: rgb(171, 99, 250); fill-opacity: 0.6; stroke-width: 0; opacity: 1;"/><path class="sankey-link" d="M15,248.4282907662086C570,248.4282907662086 570,680.9233791748526 1125,680.9233791748526L1125,684.3713163064832C570,684.3713163064832 570,251.87622789783921 15,251.87622789783921Z" style="stroke: rgb(68, 68, 68); stroke-opacity: 1; fill: rgb(171, 99, 250); fill-opacity: 0.6; stroke-width: 0; opacity: 1;"/><path class="sankey-link" d="M15,239.23379174852687C570,239.23379174852687 570,573.9783889980355 1125,573.9783889980355L1125,583.1728880157171C570,583.1728880157171 570,248.4282907662086 15,248.4282907662086Z" style="stroke: rgb(68, 68, 68); stroke-opacity: 1; fill: rgb(171, 99, 250); fill-opacity: 0.6; stroke-width: 0; opacity: 1;"/><path class="sankey-link" d="M15,199.0078585461693C570,199.0078585461693 570,300.32416502946944 1125,300.32416502946944L1125,324.4597249508839C570,324.4597249508839 570,223.14341846758384 15,223.14341846758384Z" style="stroke: rgb(68, 68, 68); stroke-opacity: 1; fill: rgb(171, 99, 250); fill-opacity: 0.6; stroke-width: 0; opacity: 1;"/><path class="sankey-link" d="M15,174.87229862475476C570,174.87229862475476 570,117.52455795677787 1125,117.52455795677787L1125,141.6601178781924C570,141.6601178781924 570,199.0078585461693 15,199.0078585461693Z" style="stroke: rgb(68, 68, 68); stroke-opacity: 1; fill: rgb(171, 99, 250); fill-opacity: 0.6; stroke-width: 0; opacity: 1;"/><path class="sankey-link" d="M15,464.6758349705306C570,464.6758349705306 570,501.5127701375246 1125,501.5127701375246L1125,532.5442043222005C570,532.5442043222005 570,495.70726915520646 15,495.70726915520646Z" style="stroke: rgb(68, 68, 68); stroke-opacity: 1; fill: rgb(99, 110, 250); fill-opacity: 0.6; stroke-width: 0; opacity: 1;"/><path class="sankey-link" d="M15,538.2318271119844C570,538.2318271119844 570,688.968565815324 1125,688.968565815324L1125,706.2082514734774C570,706.2082514734774 570,555.4715127701378 15,555.4715127701378Z" style="stroke: rgb(68, 68, 68); stroke-opacity: 1; fill: rgb(99, 110, 250); fill-opacity: 0.6; stroke-width: 0; opacity: 1;"/><path class="sankey-link" d="M15,495.70726915520646C570,495.70726915520646 570,594.6660117878193 1125,594.6660117878193L1125,637.1905697445973C570,637.1905697445973 570,538.2318271119844 15,538.2318271119844Z" style="stroke: rgb(68, 68, 68); stroke-opacity: 1; fill: rgb(99, 110, 250); fill-opacity: 0.6; stroke-width: 0; opacity: 1;"/><path class="sankey-link" d="M15,429.04715127701394C570,429.04715127701394 570,354.3418467583496 1125,354.3418467583496L1125,389.9705304518663C570,389.9705304518663 570,464.6758349705306 15,464.6758349705306Z" style="stroke: rgb(68, 68, 68); stroke-opacity: 1; fill: rgb(99, 110, 250); fill-opacity: 0.6; stroke-width: 0; opacity: 1;"/><path class="sankey-link" d="M15,389.9705304518666C570,389.9705304518666 570,172.69155206286825 1125,172.69155206286825L1125,211.7681728880156C570,211.7681728880156 570,429.0471512770139 15,429.0471512770139Z" style="stroke: rgb(68, 68, 68); stroke-opacity: 1; fill: rgb(99, 110, 250); fill-opacity: 0.6; stroke-width: 0; opacity: 1;"/><path class="sankey-link" d="M15,354.2829076620826C570,354.2829076620826 570,492.31827111984296 1125,492.31827111984296L1125,501.51277013752474C570,501.51277013752474 570,363.4774066797644 15,363.4774066797644Z" style="stroke: rgb(68, 68, 68); stroke-opacity: 1; fill: rgb(255, 151, 255); fill-opacity: 0.6; stroke-width: 0; opacity: 1;"/><path class="sankey-link" d="M15,371.52259332023584C570,371.52259332023584 570,685.5206286836934 1125,685.5206286836934L1125,688.968565815324C570,688.968565815324 570,374.97053045186647 15,374.97053045186647Z" style="stroke: rgb(68, 68, 68); stroke-opacity: 1; fill: rgb(255, 151, 255); fill-opacity: 0.6; stroke-width: 0; opacity: 1;"/><path class="sankey-link" d="M15,363.4774066797644C570,363.4774066797644 570,586.6208251473479 1125,586.6208251473479L1125,594.6660117878193C570,594.6660117878193 570,371.52259332023584 15,371.52259332023584Z" style="stroke: rgb(68, 68, 68); stroke-opacity: 1; fill: rgb(255, 151, 255); fill-opacity: 0.6; stroke-width: 0; opacity: 1;"/><path class="sankey-link" d="M15,338.1925343811396C570,338.1925343811396 570,338.2514734774066 1125,338.2514734774066L1125,354.3418467583496C570,354.3418467583496 570,354.2829076620826 15,354.2829076620826Z" style="stroke: rgb(68, 68, 68); stroke-opacity: 1; fill: rgb(255, 151, 255); fill-opacity: 0.6; stroke-width: 0; opacity: 1;"/><path class="sankey-link" d="M15,318.65422396856593C570,318.65422396856593 570,153.15324165029458 1125,153.15324165029458L1125,172.69155206286823C570,172.69155206286823 570,338.1925343811396 15,338.1925343811396Z" style="stroke: rgb(68, 68, 68); stroke-opacity: 1; fill: rgb(255, 151, 255); fill-opacity: 0.6; stroke-width: 0; opacity: 1;"/><path class="sankey-link" d="M15,659.0275049115912C570,659.0275049115912 570,541.7387033398822 1125,541.7387033398822L1125,545.1866404715129C570,545.1866404715129 570,662.4754420432218 15,662.4754420432218Z" style="stroke: rgb(68, 68, 68); stroke-opacity: 1; fill: rgb(255, 102, 146); fill-opacity: 0.6; stroke-width: 0; opacity: 1;"/><path class="sankey-link" d="M15,668.2220039292729C570,668.2220039292729 570,713.1041257367385 1125,713.1041257367385L1125,715.4027504911589C570,715.4027504911589 570,670.5206286836933 15,670.5206286836933Z" style="stroke: rgb(68, 68, 68); stroke-opacity: 1; fill: rgb(255, 102, 146); fill-opacity: 0.6; stroke-width: 0; opacity: 1;"/><path class="sankey-link" d="M15,662.4754420432218C570,662.4754420432218 570,642.9371316306484 1125,642.9371316306484L1125,648.6836935166995C570,648.6836935166995 570,668.2220039292729 15,668.2220039292729Z" style="stroke: rgb(68, 68, 68); stroke-opacity: 1; fill: rgb(255, 102, 146); fill-opacity: 0.6; stroke-width: 0; opacity: 1;"/><path class="sankey-link" d="M15,650.9823182711197C570,650.9823182711197 570,411.8074656188604 1125,411.8074656188604L1125,419.8526522593319C570,419.8526522593319 570,659.0275049115911 15,659.0275049115911Z" style="stroke: rgb(68, 68, 68); stroke-opacity: 1; fill: rgb(255, 102, 146); fill-opacity: 0.6; stroke-width: 0; opacity: 1;"/><path class="sankey-link" d="M15,646.3850687622788C570,646.3850687622788 570,229.00785854616885 1125,229.00785854616885L1125,233.60510805500974C570,233.60510805500974 570,650.9823182711197 15,650.9823182711197Z" style="stroke: rgb(68, 68, 68); stroke-opacity: 1; fill: rgb(255, 102, 146); fill-opacity: 0.6; stroke-width: 0; opacity: 1;"/><path class="sankey-link" d="M15,158.72298624754455C570,158.72298624754455 570,468.1827111984284 1125,468.1827111984284L1125,469.33202357563863C570,469.33202357563863 570,159.87229862475476 15,159.87229862475476Z" style="stroke: rgb(68, 68, 68); stroke-opacity: 1; fill: rgb(182, 232, 128); fill-opacity: 0.6; stroke-width: 0; opacity: 1;"/><path class="sankey-link" d="M15,157.57367387033435C570,157.57367387033435 570,116.37524557956766 1125,116.37524557956766L1125,117.52455795677787C570,117.52455795677787 570,158.72298624754455 15,158.72298624754455Z" style="stroke: rgb(68, 68, 68); stroke-opacity: 1; fill: rgb(182, 232, 128); fill-opacity: 0.6; stroke-width: 0; opacity: 1;"/></g><g class="sankey-node-set" style="cursor: move;"><g class="sankey-node" transform="translate(1125.000,445.196)" style="opacity: 1;"><rect class="node-rect" width="15" height="102.2888015717092" style="stroke-width: 0.5; stroke: rgb(0, 0, 0); stroke-opacity: 1; fill: rgb(128, 128, 128); fill-opacity: 1;"/><text class="node-label" data-notex="1" x="0" y="0" text-anchor="end" transform="translate(-3.25,55.3444007858546)" style="cursor: default; font-family: 'Open Sans', verdana, arial, sans-serif; font-size: 12px; fill: rgb(42, 63, 95); fill-opacity: 1; white-space: pre; text-shadow: white 1px 1px 1px, white -1px -1px 1px, white 1px -1px 1px, white -1px 1px 1px;">dig</text></g><g class="sankey-node" transform="translate(1125.000,255.501)" style="opacity: 1;"><rect class="node-rect" width="15" height="174.6954813359531" style="stroke-width: 0.5; stroke: rgb(0, 0, 0); stroke-opacity: 1; fill: rgb(128, 128, 128); fill-opacity: 1;"/><text class="node-label" data-notex="1" x="0" y="0" text-anchor="end" transform="translate(-3.25,91.54774066797656)" style="cursor: default; font-family: 'Open Sans', verdana, arial, sans-serif; font-size: 12px; fill: rgb(42, 63, 95); fill-opacity: 1; white-space: pre; text-shadow: white 1px 1px 1px, white -1px -1px 1px, white 1px -1px 1px, white -1px 1px 1px;">walk</text></g><g class="sankey-node" transform="translate(1125.000,75.000)" style="opacity: 1;"><rect class="node-rect" width="15" height="165.5009823182711" style="stroke-width: 0.5; stroke: rgb(0, 0, 0); stroke-opacity: 1; fill: rgb(128, 128, 128); fill-opacity: 1;"/><text class="node-label" data-notex="1" x="0" y="0" text-anchor="end" transform="translate(-3.25,86.95049115913555)" style="cursor: default; font-family: 'Open Sans', verdana, arial, sans-serif; font-size: 12px; fill: rgb(42, 63, 95); fill-opacity: 1; white-space: pre; text-shadow: white 1px 1px 1px, white -1px -1px 1px, white 1px -1px 1px, white -1px 1px 1px;">wallclimb</text></g><g class="sankey-node" transform="translate(1125.000,674.028)" style="opacity: 1;"><rect class="node-rect" width="15" height="45.972495088408664" style="stroke-width: 0.5; stroke: rgb(0, 0, 0); stroke-opacity: 1; fill: rgb(128, 128, 128); fill-opacity: 1;"/><text class="node-label" data-notex="1" x="0" y="0" text-anchor="end" transform="translate(-3.25,27.18624754420433)" style="cursor: default; font-family: 'Open Sans', verdana, arial, sans-serif; font-size: 12px; fill: rgb(42, 63, 95); fill-opacity: 1; white-space: pre; text-shadow: white 1px 1px 1px, white -1px -1px 1px, white 1px -1px 1px, white -1px 1px 1px;">groom_front</text></g><g class="sankey-node" transform="translate(1125.000,562.485)" style="opacity: 1;"><rect class="node-rect" width="15" height="96.54223968565805" style="stroke-width: 0.5; stroke: rgb(0, 0, 0); stroke-opacity: 1; fill: rgb(128, 128, 128); fill-opacity: 1;"/><text class="node-label" data-notex="1" x="0" y="0" text-anchor="end" transform="translate(-3.25,52.471119842829026)" style="cursor: default; font-family: 'Open Sans', verdana, arial, sans-serif; font-size: 12px; fill: rgb(42, 63, 95); fill-opacity: 1; white-space: pre; text-shadow: white 1px 1px 1px, white -1px -1px 1px, white 1px -1px 1px, white -1px 1px 1px;">still</text></g><g class="sankey-node" transform="translate(0.000,389.971)" style="opacity: 1;"><rect class="node-rect" width="15" height="165.50098231827076" style="stroke-width: 0.5; stroke: rgb(0, 0, 0); stroke-opacity: 1; fill: rgb(99, 110, 250); fill-opacity: 1;"/><text class="node-label" data-notex="1" x="0" y="0" text-anchor="start" transform="translate(18.25,86.95049115913538)" style="cursor: default; font-family: 'Open Sans', verdana, arial, sans-serif; font-size: 12px; fill: rgb(42, 63, 95); fill-opacity: 1; white-space: pre; text-shadow: white 1px 1px 1px, white -1px -1px 1px, white 1px -1px 1px, white -1px 1px 1px;">VTA</text></g><g class="sankey-node" transform="translate(0.000,49.479)" style="opacity: 1;"><rect class="node-rect" width="15" height="93.09430255402742" style="stroke-width: 0.5; stroke: rgb(0, 0, 0); stroke-opacity: 1; fill: rgb(239, 85, 59); fill-opacity: 1;"/><text class="node-label" data-notex="1" x="0" y="0" text-anchor="start" transform="translate(18.25,50.747151277013714)" style="cursor: default; font-family: 'Open Sans', verdana, arial, sans-serif; font-size: 12px; fill: rgb(42, 63, 95); fill-opacity: 1; white-space: pre; text-shadow: white 1px 1px 1px, white -1px -1px 1px, white 1px -1px 1px, white -1px 1px 1px;">Cla</text></g><g class="sankey-node" transform="translate(0.000,570.472)" style="opacity: 1;"><rect class="node-rect" width="15" height="60.91355599214148" style="stroke-width: 0.5; stroke: rgb(0, 0, 0); stroke-opacity: 1; fill: rgb(0, 204, 150); fill-opacity: 1;"/><text class="node-label" data-notex="1" x="0" y="0" text-anchor="start" transform="translate(18.25,34.656777996070744)" style="cursor: default; font-family: 'Open Sans', verdana, arial, sans-serif; font-size: 12px; fill: rgb(42, 63, 95); fill-opacity: 1; white-space: pre; text-shadow: white 1px 1px 1px, white -1px -1px 1px, white 1px -1px 1px, white -1px 1px 1px;">LC</text></g><g class="sankey-node" transform="translate(0.000,174.872)" style="opacity: 1;"><rect class="node-rect" width="15" height="77.0039292730844" style="stroke-width: 0.5; stroke: rgb(0, 0, 0); stroke-opacity: 1; fill: rgb(171, 99, 250); fill-opacity: 1;"/><text class="node-label" data-notex="1" x="0" y="0" text-anchor="start" transform="translate(18.25,42.7019646365422)" style="cursor: default; font-family: 'Open Sans', verdana, arial, sans-serif; font-size: 12px; fill: rgb(42, 63, 95); fill-opacity: 1; white-space: pre; text-shadow: white 1px 1px 1px, white -1px -1px 1px, white 1px -1px 1px, white -1px 1px 1px;">Str</text></g><g class="sankey-node" transform="translate(0.000,266.876)" style="opacity: 1;"><rect class="node-rect" width="15" height="36.77799607072677" style="stroke-width: 0.5; stroke: rgb(0, 0, 0); stroke-opacity: 1; fill: rgb(255, 161, 90); fill-opacity: 1;"/><text class="node-label" data-notex="1" x="0" y="0" text-anchor="start" transform="translate(18.25,22.588998035363385)" style="cursor: default; font-family: 'Open Sans', verdana, arial, sans-serif; font-size: 12px; fill: rgb(42, 63, 95); fill-opacity: 1; white-space: pre; text-shadow: white 1px 1px 1px, white -1px -1px 1px, white 1px -1px 1px, white -1px 1px 1px;">NAc</text></g><g class="sankey-node" transform="translate(0.000,0.000)" style="opacity: 1;"><rect class="node-rect" width="15" height="34.479371316306526" style="stroke-width: 0.5; stroke: rgb(0, 0, 0); stroke-opacity: 1; fill: rgb(25, 211, 243); fill-opacity: 1;"/><text class="node-label" data-notex="1" x="0" y="0" text-anchor="start" transform="translate(18.25,21.439685658153262)" style="cursor: default; font-family: 'Open Sans', verdana, arial, sans-serif; font-size: 12px; fill: rgb(42, 63, 95); fill-opacity: 1; white-space: pre; text-shadow: white 1px 1px 1px, white -1px -1px 1px, white 1px -1px 1px, white -1px 1px 1px;">BLA</text></g><g class="sankey-node" transform="translate(0.000,646.385)" style="opacity: 1;"><rect class="node-rect" width="15" height="24.13555992141471" style="stroke-width: 0.5; stroke: rgb(0, 0, 0); stroke-opacity: 1; fill: rgb(255, 102, 146); fill-opacity: 1;"/><text class="node-label" data-notex="1" x="0" y="0" text-anchor="start" transform="translate(18.25,16.267779960707355)" style="cursor: default; font-family: 'Open Sans', verdana, arial, sans-serif; font-size: 12px; fill: rgb(42, 63, 95); fill-opacity: 1; white-space: pre; text-shadow: white 1px 1px 1px, white -1px -1px 1px, white 1px -1px 1px, white -1px 1px 1px;">dPAG</text></g><g class="sankey-node" transform="translate(0.000,157.574)" style="opacity: 1;"><rect class="node-rect" width="15" height="2.298624754420416" style="stroke-width: 0.5; stroke: rgb(0, 0, 0); stroke-opacity: 1; fill: rgb(182, 232, 128); fill-opacity: 1;"/><text class="node-label" data-notex="1" x="0" y="0" text-anchor="start" transform="translate(18.25,5.349312377210207)" style="cursor: default; font-family: 'Open Sans', verdana, arial, sans-serif; font-size: 12px; fill: rgb(42, 63, 95); fill-opacity: 1; white-space: pre; text-shadow: white 1px 1px 1px, white -1px -1px 1px, white 1px -1px 1px, white -1px 1px 1px;">lHb</text></g><g class="sankey-node" transform="translate(0.000,318.654)" style="opacity: 1;"><rect class="node-rect" width="15" height="56.31630648330065" style="stroke-width: 0.5; stroke: rgb(0, 0, 0); stroke-opacity: 1; fill: rgb(255, 151, 255); fill-opacity: 1;"/><text class="node-label" data-notex="1" x="0" y="0" text-anchor="start" transform="translate(18.25,32.35815324165033)" style="cursor: default; font-family: 'Open Sans', verdana, arial, sans-serif; font-size: 12px; fill: rgb(42, 63, 95); fill-opacity: 1; white-space: pre; text-shadow: white 1px 1px 1px, white -1px -1px 1px, white 1px -1px 1px, white -1px 1px 1px;">cPFC</text></g><g class="sankey-node" transform="translate(0.000,685.521)" style="opacity: 1;"><rect class="node-rect" width="15" height="34.47937131630647" style="stroke-width: 0.5; stroke: rgb(0, 0, 0); stroke-opacity: 1; fill: rgb(254, 203, 82); fill-opacity: 1;"/><text class="node-label" data-notex="1" x="0" y="0" text-anchor="start" transform="translate(18.25,21.439685658153234)" style="cursor: default; font-family: 'Open Sans', verdana, arial, sans-serif; font-size: 12px; fill: rgb(42, 63, 95); fill-opacity: 1; white-space: pre; text-shadow: white 1px 1px 1px, white -1px -1px 1px, white 1px -1px 1px, white -1px 1px 1px;">LHyp</text></g></g></g><defs id="topdefs-7597f8"><g class="clips"/></defs><g class="layer-above"><g class="imagelayer"/><g class="shapelayer"/></g><g class="infolayer"><g class="g-gtitle"/><g class="first-render"/></g></svg>