<svg class="main-svg" xmlns="http://www.w3.org/2000/svg" xmlns:xlink="http://www.w3.org/1999/xlink" width="1300" height="900" style="" viewBox="0 0 1300 900"><rect x="0" y="0" width="1300" height="900" style="fill: rgb(255, 255, 255); fill-opacity: 1;"/><defs id="defs-964792"><g class="clips"/><g class="gradients"/><g class="patterns"/></defs><g class="bglayer"/><g class="layer-below"><g class="imagelayer"/><g class="shapelayer"/></g><g class="cartesianlayer"/><g class="polarlayer"/><g class="smithlayer"/><g class="ternarylayer"/><g class="geolayer"/><g class="funnelarealayer"/><g class="pielayer"/><g class="iciclelayer"/><g class="treemaplayer"/><g class="sunburstlayer"/><g class="glimages"/><g class="sankey" transform="translate(80,100)matrix(1 0 0 1 0 0)" style="box-sizing: content-box; position: absolute; left: 0px; shape-rendering: geometricprecision; pointer-events: none;"><g class="sankey-links" style="fill: none;"><path class="sankey-link" d="M383.70000000000005,14.016393442622993C564.3000000000001,14.016393442622993 564.3000000000001,24.31475409836075 744.9000000000001,24.31475409836075L744.9000000000001,31.986885245901732C564.3000000000001,31.986885245901732 564.3000000000001,21.688524590163976 383.70000000000005,21.688524590163976Z" style="stroke: rgb(68, 68, 68); stroke-opacity: 1; fill: rgb(25, 211, 243); fill-opacity: 0.6; stroke-width: 0; opacity: 1;"/><path class="sankey-link" d="M383.70000000000005,21.68852459016398C564.3000000000001,21.68852459016398 564.3000000000001,346.47049180327866 744.9000000000001,346.47049180327866L744.9000000000001,354.14262295081966C564.3000000000001,354.14262295081966 564.3000000000001,29.36065573770496 383.70000000000005,29.36065573770496Z" style="stroke: rgb(68, 68, 68); stroke-opacity: 1; fill: rgb(25, 211, 243); fill-opacity: 0.6; stroke-width: 0; opacity: 1;"/><path class="sankey-link" d="M383.70000000000005,29.360655737704963C564.3000000000001,29.360655737704963 564.3000000000001,525.7032786885246 744.9000000000001,525.7032786885246L744.9000000000001,529.539344262295C564.3000000000001,529.539344262295 564.3000000000001,33.19672131147546 383.70000000000005,33.19672131147546Z" style="stroke: rgb(68, 68, 68); stroke-opacity: 1; fill: rgb(25, 211, 243); fill-opacity: 0.6; stroke-width: 0; opacity: 1;"/><path class="sankey-link" d="M383.70000000000005,45.64032786885255C564.3000000000001,45.64032786885255 564.3000000000001,31.986885245901732 744.9000000000001,31.986885245901732L744.9000000000001,62.67540983606567C564.3000000000001,62.67540983606567 564.3000000000001,76.32885245901649 383.70000000000005,76.32885245901649Z" style="stroke: rgb(68, 68, 68); stroke-opacity: 1; fill: rgb(239, 85, 59); fill-opacity: 0.6; stroke-width: 0; opacity: 1;"/><path class="sankey-link" d="M383.70000000000005,76.32885245901649C564.3000000000001,76.32885245901649 564.3000000000001,237.20163934426233 744.9000000000001,237.20163934426233L744.9000000000001,250.62786885245907C564.3000000000001,250.62786885245907 564.3000000000001,89.7550819672132 383.70000000000005,89.7550819672132Z" style="stroke: rgb(68, 68, 68); stroke-opacity: 1; fill: rgb(239, 85, 59); fill-opacity: 0.6; stroke-width: 0; opacity: 1;"/><path class="sankey-link" d="M383.70000000000005,89.75508196721321C564.3000000000001,89.75508196721321 564.3000000000001,354.14262295081966 744.9000000000001,354.14262295081966L744.9000000000001,373.32295081967214C564.3000000000001,373.32295081967214 564.3000000000001,108.93540983606567 383.70000000000005,108.93540983606567Z" style="stroke: rgb(68, 68, 68); stroke-opacity: 1; fill: rgb(239, 85, 59); fill-opacity: 0.6; stroke-width: 0; opacity: 1;"/><path class="sankey-link" d="M383.70000000000005,108.93540983606567C564.3000000000001,108.93540983606567 564.3000000000001,529.5393442622951 744.9000000000001,529.5393442622951L744.9000000000001,544.8836065573771C564.3000000000001,544.8836065573771 564.3000000000001,124.27967213114763 383.70000000000005,124.27967213114763Z" style="stroke: rgb(68, 68, 68); stroke-opacity: 1; fill: rgb(239, 85, 59); fill-opacity: 0.6; stroke-width: 0; opacity: 1;"/><path class="sankey-link" d="M383.70000000000005,135.99442622950824C564.3000000000001,135.99442622950824 564.3000000000001,62.67540983606567 744.9000000000001,62.67540983606567L744.9000000000001,81.85573770491813C564.3000000000001,81.85573770491813 564.3000000000001,155.17475409836072 383.70000000000005,155.17475409836072Z" style="stroke: rgb(68, 68, 68); stroke-opacity: 1; fill: rgb(0, 204, 150); fill-opacity: 0.6; stroke-width: 0; opacity: 1;"/><path class="sankey-link" d="M383.70000000000005,155.1747540983607C564.3000000000001,155.1747540983607 564.3000000000001,250.62786885245902 744.9000000000001,250.62786885245902L744.9000000000001,262.1360655737705C564.3000000000001,262.1360655737705 564.3000000000001,166.6829508196722 383.70000000000005,166.6829508196722Z" style="stroke: rgb(68, 68, 68); stroke-opacity: 1; fill: rgb(0, 204, 150); fill-opacity: 0.6; stroke-width: 0; opacity: 1;"/><path class="sankey-link" d="M383.70000000000005,166.68295081967216C564.3000000000001,166.68295081967216 564.3000000000001,373.3229508196721 744.9000000000001,373.3229508196721L744.9000000000001,388.6672131147541C564.3000000000001,388.6672131147541 564.3000000000001,182.02721311475415 383.70000000000005,182.02721311475415Z" style="stroke: rgb(68, 68, 68); stroke-opacity: 1; fill: rgb(0, 204, 150); fill-opacity: 0.6; stroke-width: 0; opacity: 1;"/><path class="sankey-link" d="M383.70000000000005,182.02721311475412C564.3000000000001,182.02721311475412 564.3000000000001,544.8836065573771 744.9000000000001,544.8836065573771L744.9000000000001,554.4737704918034C564.3000000000001,554.4737704918034 564.3000000000001,191.61737704918036 383.70000000000005,191.61737704918036Z" style="stroke: rgb(68, 68, 68); stroke-opacity: 1; fill: rgb(0, 204, 150); fill-opacity: 0.6; stroke-width: 0; opacity: 1;"/><path class="sankey-link" d="M383.70000000000005,204.02262295081994C564.3000000000001,204.02262295081994 564.3000000000001,81.85573770491813 744.9000000000001,81.85573770491813L744.9000000000001,85.69180327868862C564.3000000000001,85.69180327868862 564.3000000000001,207.85868852459043 383.70000000000005,207.85868852459043Z" style="stroke: rgb(68, 68, 68); stroke-opacity: 1; fill: rgb(254, 203, 82); fill-opacity: 0.6; stroke-width: 0; opacity: 1;"/><path class="sankey-link" d="M383.70000000000005,207.85868852459043C564.3000000000001,207.85868852459043 564.3000000000001,262.1360655737705 744.9000000000001,262.1360655737705L744.9000000000001,269.8081967213115C564.3000000000001,269.8081967213115 564.3000000000001,215.53081967213143 383.70000000000005,215.53081967213143Z" style="stroke: rgb(68, 68, 68); stroke-opacity: 1; fill: rgb(254, 203, 82); fill-opacity: 0.6; stroke-width: 0; opacity: 1;"/><path class="sankey-link" d="M383.70000000000005,215.53081967213143C564.3000000000001,215.53081967213143 564.3000000000001,388.6672131147541 744.9000000000001,388.6672131147541L744.9000000000001,402.09344262295076C564.3000000000001,402.09344262295076 564.3000000000001,228.95704918032817 383.70000000000005,228.95704918032817Z" style="stroke: rgb(68, 68, 68); stroke-opacity: 1; fill: rgb(254, 203, 82); fill-opacity: 0.6; stroke-width: 0; opacity: 1;"/><path class="sankey-link" d="M383.70000000000005,228.9570491803281C564.3000000000001,228.9570491803281 564.3000000000001,554.4737704918033 744.9000000000001,554.4737704918033L744.9000000000001,573.6540983606557C564.3000000000001,573.6540983606557 564.3000000000001,248.1373770491806 383.70000000000005,248.1373770491806Z" style="stroke: rgb(68, 68, 68); stroke-opacity: 1; fill: rgb(254, 203, 82); fill-opacity: 0.6; stroke-width: 0; opacity: 1;"/><path class="sankey-link" d="M383.70000000000005,261.11803278688535C564.3000000000001,261.11803278688535 564.3000000000001,85.69180327868862 744.9000000000001,85.69180327868862L744.9000000000001,97.20000000000009C564.3000000000001,97.20000000000009 564.3000000000001,272.62622950819684 383.70000000000005,272.62622950819684Z" style="stroke: rgb(68, 68, 68); stroke-opacity: 1; fill: rgb(255, 161, 90); fill-opacity: 0.6; stroke-width: 0; opacity: 1;"/><path class="sankey-link" d="M383.70000000000005,272.62622950819684C564.3000000000001,272.62622950819684 564.3000000000001,269.8081967213115 744.9000000000001,269.8081967213115L744.9000000000001,271.7262295081967C564.3000000000001,271.7262295081967 564.3000000000001,274.54426229508204 383.70000000000005,274.54426229508204Z" style="stroke: rgb(68, 68, 68); stroke-opacity: 1; fill: rgb(255, 161, 90); fill-opacity: 0.6; stroke-width: 0; opacity: 1;"/><path class="sankey-link" d="M383.70000000000005,274.5442622950821C564.3000000000001,274.5442622950821 564.3000000000001,402.0934426229508 744.9000000000001,402.0934426229508L744.9000000000001,409.7655737704918C564.3000000000001,409.7655737704918 564.3000000000001,282.2163934426231 383.70000000000005,282.2163934426231Z" style="stroke: rgb(68, 68, 68); stroke-opacity: 1; fill: rgb(255, 161, 90); fill-opacity: 0.6; stroke-width: 0; opacity: 1;"/><path class="sankey-link" d="M383.70000000000005,282.2163934426231C564.3000000000001,282.2163934426231 564.3000000000001,573.6540983606558 744.9000000000001,573.6540983606558L744.9000000000001,579.4081967213115C564.3000000000001,579.4081967213115 564.3000000000001,287.9704918032788 383.70000000000005,287.9704918032788Z" style="stroke: rgb(68, 68, 68); stroke-opacity: 1; fill: rgb(255, 161, 90); fill-opacity: 0.6; stroke-width: 0; opacity: 1;"/><path class="sankey-link" d="M383.70000000000005,300.1839344262296C564.3000000000001,300.1839344262296 564.3000000000001,97.2000000000001 744.9000000000001,97.2000000000001L744.9000000000001,127.88852459016402C564.3000000000001,127.88852459016402 564.3000000000001,330.8724590163936 383.70000000000005,330.8724590163936Z" style="stroke: rgb(68, 68, 68); stroke-opacity: 1; fill: rgb(171, 99, 250); fill-opacity: 0.6; stroke-width: 0; opacity: 1;"/><path class="sankey-link" d="M383.70000000000005,330.8724590163935C564.3000000000001,330.8724590163935 564.3000000000001,271.72622950819675 744.9000000000001,271.72622950819675L744.9000000000001,279.39836065573775C564.3000000000001,279.39836065573775 564.3000000000001,338.5445901639345 383.70000000000005,338.5445901639345Z" style="stroke: rgb(68, 68, 68); stroke-opacity: 1; fill: rgb(171, 99, 250); fill-opacity: 0.6; stroke-width: 0; opacity: 1;"/><path class="sankey-link" d="M383.70000000000005,338.5445901639345C564.3000000000001,338.5445901639345 564.3000000000001,409.7655737704918 744.9000000000001,409.7655737704918L744.9000000000001,434.7C564.3000000000001,434.7 564.3000000000001,363.4790163934427 383.70000000000005,363.4790163934427Z" style="stroke: rgb(68, 68, 68); stroke-opacity: 1; fill: rgb(171, 99, 250); fill-opacity: 0.6; stroke-width: 0; opacity: 1;"/><path class="sankey-link" d="M383.70000000000005,363.4790163934427C564.3000000000001,363.4790163934427 564.3000000000001,579.4081967213115 744.9000000000001,579.4081967213115L744.9000000000001,598.5885245901638C564.3000000000001,598.5885245901638 564.3000000000001,382.6593442622952 383.70000000000005,382.6593442622952Z" style="stroke: rgb(68, 68, 68); stroke-opacity: 1; fill: rgb(171, 99, 250); fill-opacity: 0.6; stroke-width: 0; opacity: 1;"/><path class="sankey-link" d="M383.70000000000005,391.6121311475411C564.3000000000001,391.6121311475411 564.3000000000001,127.88852459016404 744.9000000000001,127.88852459016404L744.9000000000001,183.51147540983618C564.3000000000001,183.51147540983618 564.3000000000001,447.23508196721326 383.70000000000005,447.23508196721326Z" style="stroke: rgb(68, 68, 68); stroke-opacity: 1; fill: rgb(99, 110, 250); fill-opacity: 0.6; stroke-width: 0; opacity: 1;"/><path class="sankey-link" d="M383.70000000000005,447.2350819672132C564.3000000000001,447.2350819672132 564.3000000000001,279.39836065573775 744.9000000000001,279.39836065573775L744.9000000000001,310.0868852459017C564.3000000000001,310.0868852459017 564.3000000000001,477.9236065573772 383.70000000000005,477.9236065573772Z" style="stroke: rgb(68, 68, 68); stroke-opacity: 1; fill: rgb(99, 110, 250); fill-opacity: 0.6; stroke-width: 0; opacity: 1;"/><path class="sankey-link" d="M383.70000000000005,477.9236065573771C564.3000000000001,477.9236065573771 564.3000000000001,434.7 744.9000000000001,434.7L744.9000000000001,465.38852459016397C564.3000000000001,465.38852459016397 564.3000000000001,508.6121311475411 383.70000000000005,508.6121311475411Z" style="stroke: rgb(68, 68, 68); stroke-opacity: 1; fill: rgb(99, 110, 250); fill-opacity: 0.6; stroke-width: 0; opacity: 1;"/><path class="sankey-link" d="M383.70000000000005,508.61213114754105C564.3000000000001,508.61213114754105 564.3000000000001,598.588524590164 744.9000000000001,598.588524590164L744.9000000000001,671.4737704918033C564.3000000000001,671.4737704918033 564.3000000000001,581.4973770491804 383.70000000000005,581.4973770491804Z" style="stroke: rgb(68, 68, 68); stroke-opacity: 1; fill: rgb(99, 110, 250); fill-opacity: 0.6; stroke-width: 0; opacity: 1;"/><path class="sankey-link" d="M383.70000000000005,590.987213114754C564.3000000000001,590.987213114754 564.3000000000001,183.51147540983618 744.9000000000001,183.51147540983618L744.9000000000001,200.77377049180342C564.3000000000001,200.77377049180342 564.3000000000001,608.2495081967213 383.70000000000005,608.2495081967213Z" style="stroke: rgb(68, 68, 68); stroke-opacity: 1; fill: rgb(255, 151, 255); fill-opacity: 0.6; stroke-width: 0; opacity: 1;"/><path class="sankey-link" d="M383.70000000000005,608.2495081967212C564.3000000000001,608.2495081967212 564.3000000000001,310.08688524590167 744.9000000000001,310.08688524590167L744.9000000000001,315.84098360655736C564.3000000000001,315.84098360655736 564.3000000000001,614.0036065573769 383.70000000000005,614.0036065573769Z" style="stroke: rgb(68, 68, 68); stroke-opacity: 1; fill: rgb(255, 151, 255); fill-opacity: 0.6; stroke-width: 0; opacity: 1;"/><path class="sankey-link" d="M383.70000000000005,614.0036065573769C564.3000000000001,614.0036065573769 564.3000000000001,465.3885245901639 744.9000000000001,465.3885245901639L744.9000000000001,484.5688524590164C564.3000000000001,484.5688524590164 564.3000000000001,633.1839344262293 383.70000000000005,633.1839344262293Z" style="stroke: rgb(68, 68, 68); stroke-opacity: 1; fill: rgb(255, 151, 255); fill-opacity: 0.6; stroke-width: 0; opacity: 1;"/><path class="sankey-link" d="M383.70000000000005,633.1839344262294C564.3000000000001,633.1839344262294 564.3000000000001,671.4737704918033 744.9000000000001,671.4737704918033L744.9000000000001,684.9C564.3000000000001,684.9 564.3000000000001,646.610163934426 383.70000000000005,646.610163934426Z" style="stroke: rgb(68, 68, 68); stroke-opacity: 1; fill: rgb(255, 151, 255); fill-opacity: 0.6; stroke-width: 0; opacity: 1;"/><path class="sankey-link" d="M383.70000000000005,659.3222950819675C564.3000000000001,659.3222950819675 564.3000000000001,200.7737704918034 744.9000000000001,200.7737704918034L744.9000000000001,206.52786885245914C564.3000000000001,206.52786885245914 564.3000000000001,665.0763934426232 383.70000000000005,665.0763934426232Z" style="stroke: rgb(68, 68, 68); stroke-opacity: 1; fill: rgb(255, 102, 146); fill-opacity: 0.6; stroke-width: 0; opacity: 1;"/><path class="sankey-link" d="M383.70000000000005,665.0763934426232C564.3000000000001,665.0763934426232 564.3000000000001,315.8409836065574 744.9000000000001,315.8409836065574L744.9000000000001,319.6770491803279C564.3000000000001,319.6770491803279 564.3000000000001,668.9124590163935 383.70000000000005,668.9124590163935Z" style="stroke: rgb(68, 68, 68); stroke-opacity: 1; fill: rgb(255, 102, 146); fill-opacity: 0.6; stroke-width: 0; opacity: 1;"/><path class="sankey-link" d="M383.70000000000005,668.9124590163937C564.3000000000001,668.9124590163937 564.3000000000001,484.5688524590164 744.9000000000001,484.5688524590164L744.9000000000001,492.2409836065574C564.3000000000001,492.2409836065574 564.3000000000001,676.5845901639346 383.70000000000005,676.5845901639346Z" style="stroke: rgb(68, 68, 68); stroke-opacity: 1; fill: rgb(255, 102, 146); fill-opacity: 0.6; stroke-width: 0; opacity: 1;"/><path class="sankey-link" d="M383.70000000000005,676.5845901639346C564.3000000000001,676.5845901639346 564.3000000000001,684.9 744.9000000000001,684.9L744.9000000000001,696.4081967213114C564.3000000000001,696.4081967213114 564.3000000000001,688.092786885246 383.70000000000005,688.092786885246Z" style="stroke: rgb(68, 68, 68); stroke-opacity: 1; fill: rgb(255, 102, 146); fill-opacity: 0.6; stroke-width: 0; opacity: 1;"/><path class="sankey-link" d="M383.70000000000005,701.8406557377052C564.3000000000001,701.8406557377052 564.3000000000001,206.52786885245914 744.9000000000001,206.52786885245914L744.9000000000001,208.44590163934438C564.3000000000001,208.44590163934438 564.3000000000001,703.7586885245905 383.70000000000005,703.7586885245905Z" style="stroke: rgb(68, 68, 68); stroke-opacity: 1; fill: rgb(182, 232, 128); fill-opacity: 0.6; stroke-width: 0; opacity: 1;"/><path class="sankey-link" d="M383.70000000000005,703.7586885245904C564.3000000000001,703.7586885245904 564.3000000000001,492.2409836065574 744.9000000000001,492.2409836065574L744.9000000000001,494.1590163934426C564.3000000000001,494.1590163934426 564.3000000000001,705.6767213114757 383.70000000000005,705.6767213114757Z" style="stroke: rgb(68, 68, 68); stroke-opacity: 1; fill: rgb(182, 232, 128); fill-opacity: 0.6; stroke-width: 0; opacity: 1;"/></g><g class="sankey-node-set" style="cursor: ns-resize;"><g class="sankey-node" transform="translate(744.900,24.315)" style="opacity: 1;"><rect class="node-rect" width="15" height="184.13114754098342" style="stroke-width: 0.5; stroke: rgb(0, 0, 0); stroke-opacity: 1; fill: rgb(128, 128, 128); fill-opacity: 1;"/><text class="node-label" data-notex="1" x="0" y="0" text-anchor="end" transform="translate(-3.25,96.26557377049171)" style="cursor: default; font-family: 'Open Sans', verdana, arial, sans-serif; font-size: 12px; fill: rgb(42, 63, 95); fill-opacity: 1; white-space: pre; text-shadow: white 1px 1px 1px, white -1px -1px 1px, white 1px -1px 1px, white -1px 1px 1px;">dig</text></g><g class="sankey-node" transform="translate(744.900,237.202)" style="opacity: 1;"><rect class="node-rect" width="15" height="82.47540983606552" style="stroke-width: 0.5; stroke: rgb(0, 0, 0); stroke-opacity: 1; fill: rgb(128, 128, 128); fill-opacity: 1;"/><text class="node-label" data-notex="1" x="0" y="0" text-anchor="end" transform="translate(-3.25,45.437704918032765)" style="cursor: default; font-family: 'Open Sans', verdana, arial, sans-serif; font-size: 12px; fill: rgb(42, 63, 95); fill-opacity: 1; white-space: pre; text-shadow: white 1px 1px 1px, white -1px -1px 1px, white 1px -1px 1px, white -1px 1px 1px;">groom</text></g><g class="sankey-node" transform="translate(744.900,346.470)" style="opacity: 1;"><rect class="node-rect" width="15" height="147.6885245901641" style="stroke-width: 0.5; stroke: rgb(0, 0, 0); stroke-opacity: 1; fill: rgb(128, 128, 128); fill-opacity: 1;"/><text class="node-label" data-notex="1" x="0" y="0" text-anchor="end" transform="translate(-3.25,78.04426229508205)" style="cursor: default; font-family: 'Open Sans', verdana, arial, sans-serif; font-size: 12px; fill: rgb(42, 63, 95); fill-opacity: 1; white-space: pre; text-shadow: white 1px 1px 1px, white -1px -1px 1px, white 1px -1px 1px, white -1px 1px 1px;">move</text></g><g class="sankey-node" transform="translate(744.900,525.703)" style="opacity: 1;"><rect class="node-rect" width="15" height="170.70491803278696" style="stroke-width: 0.5; stroke: rgb(0, 0, 0); stroke-opacity: 1; fill: rgb(128, 128, 128); fill-opacity: 1;"/><text class="node-label" data-notex="1" x="0" y="0" text-anchor="end" transform="translate(-3.25,89.55245901639348)" style="cursor: default; font-family: 'Open Sans', verdana, arial, sans-serif; font-size: 12px; fill: rgb(42, 63, 95); fill-opacity: 1; white-space: pre; text-shadow: white 1px 1px 1px, white -1px -1px 1px, white 1px -1px 1px, white -1px 1px 1px;">still</text></g><g class="sankey-node" transform="translate(368.700,14.016)" style="opacity: 1;"><rect class="node-rect" width="15" height="19.180327868852377" style="stroke-width: 0.5; stroke: rgb(0, 0, 0); stroke-opacity: 1; fill: rgb(25, 211, 243); fill-opacity: 1;"/><text class="node-label" data-notex="1" x="0" y="0" text-anchor="start" transform="translate(18.25,13.790163934426188)" style="cursor: default; font-family: 'Open Sans', verdana, arial, sans-serif; font-size: 12px; fill: rgb(42, 63, 95); fill-opacity: 1; white-space: pre; text-shadow: white 1px 1px 1px, white -1px -1px 1px, white 1px -1px 1px, white -1px 1px 1px;">BLA</text></g><g class="sankey-node" transform="translate(368.700,45.640)" style="opacity: 1;"><rect class="node-rect" width="15" height="78.63934426229491" style="stroke-width: 0.5; stroke: rgb(0, 0, 0); stroke-opacity: 1; fill: rgb(239, 85, 59); fill-opacity: 1;"/><text class="node-label" data-notex="1" x="0" y="0" text-anchor="start" transform="translate(18.25,43.51967213114746)" style="cursor: default; font-family: 'Open Sans', verdana, arial, sans-serif; font-size: 12px; fill: rgb(42, 63, 95); fill-opacity: 1; white-space: pre; text-shadow: white 1px 1px 1px, white -1px -1px 1px, white 1px -1px 1px, white -1px 1px 1px;">Cla</text></g><g class="sankey-node" transform="translate(368.700,135.994)" style="opacity: 1;"><rect class="node-rect" width="15" height="55.62295081967204" style="stroke-width: 0.5; stroke: rgb(0, 0, 0); stroke-opacity: 1; fill: rgb(0, 204, 150); fill-opacity: 1;"/><text class="node-label" data-notex="1" x="0" y="0" text-anchor="start" transform="translate(18.25,32.011475409836024)" style="cursor: default; font-family: 'Open Sans', verdana, arial, sans-serif; font-size: 12px; fill: rgb(42, 63, 95); fill-opacity: 1; white-space: pre; text-shadow: white 1px 1px 1px, white -1px -1px 1px, white 1px -1px 1px, white -1px 1px 1px;">LC</text></g><g class="sankey-node" transform="translate(368.700,204.023)" style="opacity: 1;"><rect class="node-rect" width="15" height="44.11475409836021" style="stroke-width: 0.5; stroke: rgb(0, 0, 0); stroke-opacity: 1; fill: rgb(254, 203, 82); fill-opacity: 1;"/><text class="node-label" data-notex="1" x="0" y="0" text-anchor="start" transform="translate(18.25,26.257377049180104)" style="cursor: default; font-family: 'Open Sans', verdana, arial, sans-serif; font-size: 12px; fill: rgb(42, 63, 95); fill-opacity: 1; white-space: pre; text-shadow: white 1px 1px 1px, white -1px -1px 1px, white 1px -1px 1px, white -1px 1px 1px;">LHyp</text></g><g class="sankey-node" transform="translate(368.700,261.118)" style="opacity: 1;"><rect class="node-rect" width="15" height="26.852459016393368" style="stroke-width: 0.5; stroke: rgb(0, 0, 0); stroke-opacity: 1; fill: rgb(255, 161, 90); fill-opacity: 1;"/><text class="node-label" data-notex="1" x="0" y="0" text-anchor="start" transform="translate(18.25,17.626229508196683)" style="cursor: default; font-family: 'Open Sans', verdana, arial, sans-serif; font-size: 12px; fill: rgb(42, 63, 95); fill-opacity: 1; white-space: pre; text-shadow: white 1px 1px 1px, white -1px -1px 1px, white 1px -1px 1px, white -1px 1px 1px;">NAc</text></g><g class="sankey-node" transform="translate(368.700,300.184)" style="opacity: 1;"><rect class="node-rect" width="15" height="82.47540983606564" style="stroke-width: 0.5; stroke: rgb(0, 0, 0); stroke-opacity: 1; fill: rgb(171, 99, 250); fill-opacity: 1;"/><text class="node-label" data-notex="1" x="0" y="0" text-anchor="start" transform="translate(18.25,45.43770491803282)" style="cursor: default; font-family: 'Open Sans', verdana, arial, sans-serif; font-size: 12px; fill: rgb(42, 63, 95); fill-opacity: 1; white-space: pre; text-shadow: white 1px 1px 1px, white -1px -1px 1px, white 1px -1px 1px, white -1px 1px 1px;">Str</text></g><g class="sankey-node" transform="translate(368.700,391.612)" style="opacity: 1;"><rect class="node-rect" width="15" height="189.88524590163928" style="stroke-width: 0.5; stroke: rgb(0, 0, 0); stroke-opacity: 1; fill: rgb(99, 110, 250); fill-opacity: 1;"/><text class="node-label" data-notex="1" x="0" y="0" text-anchor="start" transform="translate(18.25,99.14262295081964)" style="cursor: default; font-family: 'Open Sans', verdana, arial, sans-serif; font-size: 12px; fill: rgb(42, 63, 95); fill-opacity: 1; white-space: pre; text-shadow: white 1px 1px 1px, white -1px -1px 1px, white 1px -1px 1px, white -1px 1px 1px;">VTA</text></g><g class="sankey-node" transform="translate(368.700,590.987)" style="opacity: 1;"><rect class="node-rect" width="15" height="55.622950819672496" style="stroke-width: 0.5; stroke: rgb(0, 0, 0); stroke-opacity: 1; fill: rgb(255, 151, 255); fill-opacity: 1;"/><text class="node-label" data-notex="1" x="0" y="0" text-anchor="start" transform="translate(18.25,32.01147540983625)" style="cursor: default; font-family: 'Open Sans', verdana, arial, sans-serif; font-size: 12px; fill: rgb(42, 63, 95); fill-opacity: 1; white-space: pre; text-shadow: white 1px 1px 1px, white -1px -1px 1px, white 1px -1px 1px, white -1px 1px 1px;">cPFC</text></g><g class="sankey-node" transform="translate(368.700,659.322)" style="opacity: 1;"><rect class="node-rect" width="15" height="28.770491803278446" style="stroke-width: 0.5; stroke: rgb(0, 0, 0); stroke-opacity: 1; fill: rgb(255, 102, 146); fill-opacity: 1;"/><text class="node-label" data-notex="1" x="0" y="0" text-anchor="start" transform="translate(18.25,18.585245901639222)" style="cursor: default; font-family: 'Open Sans', verdana, arial, sans-serif; font-size: 12px; fill: rgb(42, 63, 95); fill-opacity: 1; white-space: pre; text-shadow: white 1px 1px 1px, white -1px -1px 1px, white 1px -1px 1px, white -1px 1px 1px;">dPAG</text></g><g class="sankey-node" transform="translate(368.700,701.841)" style="opacity: 1;"><rect class="node-rect" width="15" height="3.8360655737703837" style="stroke-width: 0.5; stroke: rgb(0, 0, 0); stroke-opacity: 1; fill: rgb(182, 232, 128); fill-opacity: 1;"/><text class="node-label" data-notex="1" x="0" y="0" text-anchor="start" transform="translate(18.25,6.118032786885191)" style="cursor: default; font-family: 'Open Sans', verdana, arial, sans-serif; font-size: 12px; fill: rgb(42, 63, 95); fill-opacity: 1; white-space: pre; text-shadow: white 1px 1px 1px, white -1px -1px 1px, white 1px -1px 1px, white -1px 1px 1px;">lHb</text></g></g></g><defs id="topdefs-964792"><g class="clips"/></defs><g class="layer-above"><g class="imagelayer"/><g class="shapelayer"/></g><g class="infolayer"><g class="g-gtitle"/><g class="first-render"/></g></svg>