<svg class="main-svg" xmlns="http://www.w3.org/2000/svg" xmlns:xlink="http://www.w3.org/1999/xlink" width="1300" height="900" viewBox="0 0 1300 900" style=""><rect x="0" y="0" width="1300" height="900" style="fill: rgb(255, 255, 255); fill-opacity: 1;"/><defs id="defs-d1c2a1"><g class="clips"/><g class="gradients"/><g class="patterns"/></defs><g class="bglayer"/><g class="layer-below"><g class="imagelayer"/><g class="shapelayer"/></g><g class="cartesianlayer"/><g class="polarlayer"/><g class="smithlayer"/><g class="ternarylayer"/><g class="geolayer"/><g class="funnelarealayer"/><g class="pielayer"/><g class="iciclelayer"/><g class="treemaplayer"/><g class="sunburstlayer"/><g class="glimages"/><g class="sankey" transform="translate(80,100)matrix(1 0 0 1 0 0)" style="box-sizing: content-box; position: absolute; left: 0px; shape-rendering: geometricprecision; pointer-events: none;"><g class="sankey-links" style="fill: none;"><path class="sankey-link" d="M15,579.0983606557377C570,579.0983606557377 570,254.950819672131 1125,254.950819672131L1125,262.622950819672C570,262.622950819672 570,586.7704918032787 15,586.7704918032787Z" style="stroke: rgb(68, 68, 68); stroke-opacity: 1; fill: rgb(25, 211, 243); fill-opacity: 0.6; stroke-width: 0; opacity: 1;"/><path class="sankey-link" d="M15,590.6065573770492C570,590.6065573770492 570,689.3114754098362 1125,689.3114754098362L1125,696.9836065573772C570,696.9836065573772 570,598.2786885245902 15,598.2786885245902Z" style="stroke: rgb(68, 68, 68); stroke-opacity: 1; fill: rgb(25, 211, 243); fill-opacity: 0.6; stroke-width: 0; opacity: 1;"/><path class="sankey-link" d="M15,586.7704918032787C570,586.7704918032787 570,425.31147540983596 1125,425.31147540983596L1125,429.14754098360646C570,429.14754098360646 570,590.6065573770491 15,590.6065573770491Z" style="stroke: rgb(68, 68, 68); stroke-opacity: 1; fill: rgb(25, 211, 243); fill-opacity: 0.6; stroke-width: 0; opacity: 1;"/><path class="sankey-link" d="M15,204.8852459016392C570,204.8852459016392 570,145.622950819672 1125,145.622950819672L1125,176.31147540983594C570,176.31147540983594 570,235.57377049180312 15,235.57377049180312Z" style="stroke: rgb(68, 68, 68); stroke-opacity: 1; fill: rgb(239, 85, 59); fill-opacity: 0.6; stroke-width: 0; opacity: 1;"/><path class="sankey-link" d="M15,250.91803278688505C570,250.91803278688505 570,505.5245901639345 1125,505.5245901639345L1125,518.9508196721312C570,518.9508196721312 570,264.34426229508176 15,264.34426229508176Z" style="stroke: rgb(68, 68, 68); stroke-opacity: 1; fill: rgb(239, 85, 59); fill-opacity: 0.6; stroke-width: 0; opacity: 1;"/><path class="sankey-link" d="M15,264.3442622950818C570,264.3442622950818 570,603.0000000000001 1125,603.0000000000001L1125,622.1803278688525C570,622.1803278688525 570,283.5245901639343 15,283.5245901639343Z" style="stroke: rgb(68, 68, 68); stroke-opacity: 1; fill: rgb(239, 85, 59); fill-opacity: 0.6; stroke-width: 0; opacity: 1;"/><path class="sankey-link" d="M15,235.57377049180312C570,235.57377049180312 570,362.0163934426228 1125,362.0163934426228L1125,377.3606557377048C570,377.3606557377048 570,250.9180327868851 15,250.9180327868851Z" style="stroke: rgb(68, 68, 68); stroke-opacity: 1; fill: rgb(239, 85, 59); fill-opacity: 0.6; stroke-width: 0; opacity: 1;"/><path class="sankey-link" d="M15,437.8524590163931C570,437.8524590163931 570,218.50819672131132 1125,218.50819672131132L1125,237.6885245901638C570,237.6885245901638 570,457.03278688524557 15,457.03278688524557Z" style="stroke: rgb(68, 68, 68); stroke-opacity: 1; fill: rgb(0, 204, 150); fill-opacity: 0.6; stroke-width: 0; opacity: 1;"/><path class="sankey-link" d="M15,466.62295081967176C570,466.62295081967176 570,528.5409836065573 1125,528.5409836065573L1125,540.0491803278687C570,540.0491803278687 570,478.13114754098325 15,478.13114754098325Z" style="stroke: rgb(68, 68, 68); stroke-opacity: 1; fill: rgb(0, 204, 150); fill-opacity: 0.6; stroke-width: 0; opacity: 1;"/><path class="sankey-link" d="M15,478.13114754098325C570,478.13114754098325 570,654.7868852459018 1125,654.7868852459018L1125,670.1311475409838C570,670.1311475409838 570,493.47540983606524 15,493.47540983606524Z" style="stroke: rgb(68, 68, 68); stroke-opacity: 1; fill: rgb(0, 204, 150); fill-opacity: 0.6; stroke-width: 0; opacity: 1;"/><path class="sankey-link" d="M15,457.0327868852455C570,457.0327868852455 570,402.295081967213 1125,402.295081967213L1125,411.88524590163917C570,411.88524590163917 570,466.6229508196717 15,466.6229508196717Z" style="stroke: rgb(68, 68, 68); stroke-opacity: 1; fill: rgb(0, 204, 150); fill-opacity: 0.6; stroke-width: 0; opacity: 1;"/><path class="sankey-link" d="M15,675.8852459016393C570,675.8852459016393 570,270.295081967213 1125,270.295081967213L1125,274.1311475409835C570,274.1311475409835 570,679.7213114754097 15,679.7213114754097Z" style="stroke: rgb(68, 68, 68); stroke-opacity: 1; fill: rgb(254, 203, 82); fill-opacity: 0.6; stroke-width: 0; opacity: 1;"/><path class="sankey-link" d="M15,698.9016393442623C570,698.9016393442623 570,549.639344262295 1125,549.639344262295L1125,557.311475409836C570,557.311475409836 570,706.5737704918033 15,706.5737704918033Z" style="stroke: rgb(68, 68, 68); stroke-opacity: 1; fill: rgb(254, 203, 82); fill-opacity: 0.6; stroke-width: 0; opacity: 1;"/><path class="sankey-link" d="M15,706.5737704918033C570,706.5737704918033 570,706.5737704918034 1125,706.5737704918034L1125,720.0000000000001C570,720.0000000000001 570,720 15,720Z" style="stroke: rgb(68, 68, 68); stroke-opacity: 1; fill: rgb(254, 203, 82); fill-opacity: 0.6; stroke-width: 0; opacity: 1;"/><path class="sankey-link" d="M15,679.7213114754098C570,679.7213114754098 570,440.65573770491795 1125,440.65573770491795L1125,459.83606557377044C570,459.83606557377044 570,698.9016393442622 15,698.9016393442622Z" style="stroke: rgb(68, 68, 68); stroke-opacity: 1; fill: rgb(254, 203, 82); fill-opacity: 0.6; stroke-width: 0; opacity: 1;"/><path class="sankey-link" d="M15,395.9999999999996C570,395.9999999999996 570,206.99999999999986 1125,206.99999999999986L1125,218.50819672131135C570,218.50819672131135 570,407.5081967213111 15,407.5081967213111Z" style="stroke: rgb(68, 68, 68); stroke-opacity: 1; fill: rgb(255, 161, 90); fill-opacity: 0.6; stroke-width: 0; opacity: 1;"/><path class="sankey-link" d="M15,413.26229508196684C570,413.26229508196684 570,526.6229508196722 1125,526.6229508196722L1125,528.5409836065575C570,528.5409836065575 570,415.18032786885203 15,415.18032786885203Z" style="stroke: rgb(68, 68, 68); stroke-opacity: 1; fill: rgb(255, 161, 90); fill-opacity: 0.6; stroke-width: 0; opacity: 1;"/><path class="sankey-link" d="M15,415.1803278688521C570,415.1803278688521 570,647.1147540983608 1125,647.1147540983608L1125,654.7868852459018C570,654.7868852459018 570,422.8524590163931 15,422.8524590163931Z" style="stroke: rgb(68, 68, 68); stroke-opacity: 1; fill: rgb(255, 161, 90); fill-opacity: 0.6; stroke-width: 0; opacity: 1;"/><path class="sankey-link" d="M15,407.5081967213111C570,407.5081967213111 570,396.54098360655723 1125,396.54098360655723L1125,402.2950819672129C570,402.2950819672129 570,413.2622950819668 15,413.2622950819668Z" style="stroke: rgb(68, 68, 68); stroke-opacity: 1; fill: rgb(255, 161, 90); fill-opacity: 0.6; stroke-width: 0; opacity: 1;"/><path class="sankey-link" d="M15,298.52459016393436C570,298.52459016393436 570,176.31147540983594 1125,176.31147540983594L1125,206.99999999999986C570,206.99999999999986 570,329.21311475409834 15,329.21311475409834Z" style="stroke: rgb(68, 68, 68); stroke-opacity: 1; fill: rgb(171, 99, 250); fill-opacity: 0.6; stroke-width: 0; opacity: 1;"/><path class="sankey-link" d="M15,348.3934426229507C570,348.3934426229507 570,518.9508196721312 1125,518.9508196721312L1125,526.6229508196722C570,526.6229508196722 570,356.0655737704917 15,356.0655737704917Z" style="stroke: rgb(68, 68, 68); stroke-opacity: 1; fill: rgb(171, 99, 250); fill-opacity: 0.6; stroke-width: 0; opacity: 1;"/><path class="sankey-link" d="M15,356.0655737704917C570,356.0655737704917 570,622.1803278688526 1125,622.1803278688526L1125,647.1147540983609C570,647.1147540983609 570,380.9999999999999 15,380.9999999999999Z" style="stroke: rgb(68, 68, 68); stroke-opacity: 1; fill: rgb(171, 99, 250); fill-opacity: 0.6; stroke-width: 0; opacity: 1;"/><path class="sankey-link" d="M15,329.2131147540983C570,329.2131147540983 570,377.3606557377048 1125,377.3606557377048L1125,396.5409836065573C570,396.5409836065573 570,348.3934426229508 15,348.3934426229508Z" style="stroke: rgb(68, 68, 68); stroke-opacity: 1; fill: rgb(171, 99, 250); fill-opacity: 0.6; stroke-width: 0; opacity: 1;"/><path class="sankey-link" d="M15,-2.2737367544323206e-13C570,-2.2737367544323206e-13 570,89.99999999999989 1125,89.99999999999989L1125,145.622950819672C570,145.622950819672 570,55.6229508196719 15,55.6229508196719Z" style="stroke: rgb(68, 68, 68); stroke-opacity: 1; fill: rgb(99, 110, 250); fill-opacity: 0.6; stroke-width: 0; opacity: 1;"/><path class="sankey-link" d="M15,128.50819672131124C570,128.50819672131124 570,474.8360655737705 1125,474.8360655737705L1125,505.5245901639345C570,505.5245901639345 570,159.19672131147516 15,159.19672131147516Z" style="stroke: rgb(68, 68, 68); stroke-opacity: 1; fill: rgb(99, 110, 250); fill-opacity: 0.6; stroke-width: 0; opacity: 1;"/><path class="sankey-link" d="M15,159.19672131147516C570,159.19672131147516 570,572.3114754098361 1125,572.3114754098361L1125,603.0000000000001C570,603.0000000000001 570,189.88524590163908 15,189.88524590163908Z" style="stroke: rgb(68, 68, 68); stroke-opacity: 1; fill: rgb(99, 110, 250); fill-opacity: 0.6; stroke-width: 0; opacity: 1;"/><path class="sankey-link" d="M15,55.6229508196719C570,55.6229508196719 570,289.1311475409835 1125,289.1311475409835L1125,362.0163934426228C570,362.0163934426228 570,128.50819672131124 15,128.50819672131124Z" style="stroke: rgb(68, 68, 68); stroke-opacity: 1; fill: rgb(99, 110, 250); fill-opacity: 0.6; stroke-width: 0; opacity: 1;"/><path class="sankey-link" d="M15,508.47540983606535C570,508.47540983606535 570,237.68852459016378 1125,237.68852459016378L1125,254.95081967213102C570,254.95081967213102 570,525.7377049180326 15,525.7377049180326Z" style="stroke: rgb(68, 68, 68); stroke-opacity: 1; fill: rgb(255, 151, 255); fill-opacity: 0.6; stroke-width: 0; opacity: 1;"/><path class="sankey-link" d="M15,539.1639344262293C570,539.1639344262293 570,540.0491803278688 1125,540.0491803278688L1125,545.8032786885245C570,545.8032786885245 570,544.918032786885 15,544.918032786885Z" style="stroke: rgb(68, 68, 68); stroke-opacity: 1; fill: rgb(255, 151, 255); fill-opacity: 0.6; stroke-width: 0; opacity: 1;"/><path class="sankey-link" d="M15,544.918032786885C570,544.918032786885 570,670.1311475409838 1125,670.1311475409838L1125,689.3114754098361C570,689.3114754098361 570,564.0983606557373 15,564.0983606557373Z" style="stroke: rgb(68, 68, 68); stroke-opacity: 1; fill: rgb(255, 151, 255); fill-opacity: 0.6; stroke-width: 0; opacity: 1;"/><path class="sankey-link" d="M15,525.7377049180326C570,525.7377049180326 570,411.8852459016392 1125,411.8852459016392L1125,425.3114754098359C570,425.3114754098359 570,539.1639344262293 15,539.1639344262293Z" style="stroke: rgb(68, 68, 68); stroke-opacity: 1; fill: rgb(255, 151, 255); fill-opacity: 0.6; stroke-width: 0; opacity: 1;"/><path class="sankey-link" d="M15,632.1147540983607C570,632.1147540983607 570,264.54098360655723 1125,264.54098360655723L1125,270.2950819672129C570,270.2950819672129 570,637.8688524590164 15,637.8688524590164Z" style="stroke: rgb(68, 68, 68); stroke-opacity: 1; fill: rgb(255, 102, 146); fill-opacity: 0.6; stroke-width: 0; opacity: 1;"/><path class="sankey-link" d="M15,649.3770491803278C570,649.3770491803278 570,545.8032786885245 1125,545.8032786885245L1125,549.6393442622949C570,549.6393442622949 570,653.2131147540982 15,653.2131147540982Z" style="stroke: rgb(68, 68, 68); stroke-opacity: 1; fill: rgb(255, 102, 146); fill-opacity: 0.6; stroke-width: 0; opacity: 1;"/><path class="sankey-link" d="M15,653.2131147540983C570,653.2131147540983 570,698.9016393442624 1125,698.9016393442624L1125,706.5737704918034C570,706.5737704918034 570,660.8852459016393 15,660.8852459016393Z" style="stroke: rgb(68, 68, 68); stroke-opacity: 1; fill: rgb(255, 102, 146); fill-opacity: 0.6; stroke-width: 0; opacity: 1;"/><path class="sankey-link" d="M15,637.8688524590164C570,637.8688524590164 570,429.14754098360646 1125,429.14754098360646L1125,440.65573770491795C570,440.65573770491795 570,649.3770491803277 15,649.3770491803277Z" style="stroke: rgb(68, 68, 68); stroke-opacity: 1; fill: rgb(255, 102, 146); fill-opacity: 0.6; stroke-width: 0; opacity: 1;"/><path class="sankey-link" d="M15,613.2786885245902C570,613.2786885245902 570,262.622950819672 1125,262.622950819672L1125,264.5409836065572C570,264.5409836065572 570,615.1967213114755 15,615.1967213114755Z" style="stroke: rgb(68, 68, 68); stroke-opacity: 1; fill: rgb(182, 232, 128); fill-opacity: 0.6; stroke-width: 0; opacity: 1;"/><path class="sankey-link" d="M15,615.1967213114754C570,615.1967213114754 570,696.9836065573772 1125,696.9836065573772L1125,698.9016393442625C570,698.9016393442625 570,617.1147540983607 15,617.1147540983607Z" style="stroke: rgb(68, 68, 68); stroke-opacity: 1; fill: rgb(182, 232, 128); fill-opacity: 0.6; stroke-width: 0; opacity: 1;"/></g><g class="sankey-node-set" style="cursor: move;"><g class="sankey-node" transform="translate(1125.000,90.000)" style="opacity: 1;"><rect class="node-rect" width="15" height="184.1311475409836" style="stroke-width: 0.5; stroke: rgb(0, 0, 0); stroke-opacity: 1; fill: rgb(128, 128, 128); fill-opacity: 1;"/><text class="node-label" data-notex="1" x="0" y="0" text-anchor="end" transform="translate(-3.25,96.2655737704918)" style="cursor: default; font-family: 'Open Sans', verdana, arial, sans-serif; font-size: 12px; fill: rgb(42, 63, 95); fill-opacity: 1; white-space: pre; text-shadow: white 1px 1px 1px, white -1px -1px 1px, white 1px -1px 1px, white -1px 1px 1px;">dig</text></g><g class="sankey-node" transform="translate(1125.000,572.311)" style="opacity: 1;"><rect class="node-rect" width="15" height="147.68852459016387" style="stroke-width: 0.5; stroke: rgb(0, 0, 0); stroke-opacity: 1; fill: rgb(128, 128, 128); fill-opacity: 1;"/><text class="node-label" data-notex="1" x="0" y="0" text-anchor="end" transform="translate(-3.25,78.04426229508194)" style="cursor: default; font-family: 'Open Sans', verdana, arial, sans-serif; font-size: 12px; fill: rgb(42, 63, 95); fill-opacity: 1; white-space: pre; text-shadow: white 1px 1px 1px, white -1px -1px 1px, white 1px -1px 1px, white -1px 1px 1px;">move</text></g><g class="sankey-node" transform="translate(1125.000,474.836)" style="opacity: 1;"><rect class="node-rect" width="15" height="82.47540983606564" style="stroke-width: 0.5; stroke: rgb(0, 0, 0); stroke-opacity: 1; fill: rgb(128, 128, 128); fill-opacity: 1;"/><text class="node-label" data-notex="1" x="0" y="0" text-anchor="end" transform="translate(-3.25,45.43770491803282)" style="cursor: default; font-family: 'Open Sans', verdana, arial, sans-serif; font-size: 12px; fill: rgb(42, 63, 95); fill-opacity: 1; white-space: pre; text-shadow: white 1px 1px 1px, white -1px -1px 1px, white 1px -1px 1px, white -1px 1px 1px;">groom</text></g><g class="sankey-node" transform="translate(1125.000,289.131)" style="opacity: 1;"><rect class="node-rect" width="15" height="170.70491803278702" style="stroke-width: 0.5; stroke: rgb(0, 0, 0); stroke-opacity: 1; fill: rgb(128, 128, 128); fill-opacity: 1;"/><text class="node-label" data-notex="1" x="0" y="0" text-anchor="end" transform="translate(-3.25,89.55245901639351)" style="cursor: default; font-family: 'Open Sans', verdana, arial, sans-serif; font-size: 12px; fill: rgb(42, 63, 95); fill-opacity: 1; white-space: pre; text-shadow: white 1px 1px 1px, white -1px -1px 1px, white 1px -1px 1px, white -1px 1px 1px;">still</text></g><g class="sankey-node" transform="translate(0.000,-0.000)" style="opacity: 1;"><rect class="node-rect" width="15" height="189.88524590163942" style="stroke-width: 0.5; stroke: rgb(0, 0, 0); stroke-opacity: 1; fill: rgb(99, 110, 250); fill-opacity: 1;"/><text class="node-label" data-notex="1" x="0" y="0" text-anchor="start" transform="translate(18.25,99.14262295081971)" style="cursor: default; font-family: 'Open Sans', verdana, arial, sans-serif; font-size: 12px; fill: rgb(42, 63, 95); fill-opacity: 1; white-space: pre; text-shadow: white 1px 1px 1px, white -1px -1px 1px, white 1px -1px 1px, white -1px 1px 1px;">VTA</text></g><g class="sankey-node" transform="translate(0.000,204.885)" style="opacity: 1;"><rect class="node-rect" width="15" height="78.63934426229517" style="stroke-width: 0.5; stroke: rgb(0, 0, 0); stroke-opacity: 1; fill: rgb(239, 85, 59); fill-opacity: 1;"/><text class="node-label" data-notex="1" x="0" y="0" text-anchor="start" transform="translate(18.25,43.51967213114759)" style="cursor: default; font-family: 'Open Sans', verdana, arial, sans-serif; font-size: 12px; fill: rgb(42, 63, 95); fill-opacity: 1; white-space: pre; text-shadow: white 1px 1px 1px, white -1px -1px 1px, white 1px -1px 1px, white -1px 1px 1px;">Cla</text></g><g class="sankey-node" transform="translate(0.000,437.852)" style="opacity: 1;"><rect class="node-rect" width="15" height="55.62295081967227" style="stroke-width: 0.5; stroke: rgb(0, 0, 0); stroke-opacity: 1; fill: rgb(0, 204, 150); fill-opacity: 1;"/><text class="node-label" data-notex="1" x="0" y="0" text-anchor="start" transform="translate(18.25,32.01147540983614)" style="cursor: default; font-family: 'Open Sans', verdana, arial, sans-serif; font-size: 12px; fill: rgb(42, 63, 95); fill-opacity: 1; white-space: pre; text-shadow: white 1px 1px 1px, white -1px -1px 1px, white 1px -1px 1px, white -1px 1px 1px;">LC</text></g><g class="sankey-node" transform="translate(0.000,298.525)" style="opacity: 1;"><rect class="node-rect" width="15" height="82.47540983606524" style="stroke-width: 0.5; stroke: rgb(0, 0, 0); stroke-opacity: 1; fill: rgb(171, 99, 250); fill-opacity: 1;"/><text class="node-label" data-notex="1" x="0" y="0" text-anchor="start" transform="translate(18.25,45.43770491803262)" style="cursor: default; font-family: 'Open Sans', verdana, arial, sans-serif; font-size: 12px; fill: rgb(42, 63, 95); fill-opacity: 1; white-space: pre; text-shadow: white 1px 1px 1px, white -1px -1px 1px, white 1px -1px 1px, white -1px 1px 1px;">Str</text></g><g class="sankey-node" transform="translate(0.000,396.000)" style="opacity: 1;"><rect class="node-rect" width="15" height="26.85245901639348" style="stroke-width: 0.5; stroke: rgb(0, 0, 0); stroke-opacity: 1; fill: rgb(255, 161, 90); fill-opacity: 1;"/><text class="node-label" data-notex="1" x="0" y="0" text-anchor="start" transform="translate(18.25,17.62622950819674)" style="cursor: default; font-family: 'Open Sans', verdana, arial, sans-serif; font-size: 12px; fill: rgb(42, 63, 95); fill-opacity: 1; white-space: pre; text-shadow: white 1px 1px 1px, white -1px -1px 1px, white 1px -1px 1px, white -1px 1px 1px;">NAc</text></g><g class="sankey-node" transform="translate(0.000,579.098)" style="opacity: 1;"><rect class="node-rect" width="15" height="19.180327868852487" style="stroke-width: 0.5; stroke: rgb(0, 0, 0); stroke-opacity: 1; fill: rgb(25, 211, 243); fill-opacity: 1;"/><text class="node-label" data-notex="1" x="0" y="0" text-anchor="start" transform="translate(18.25,13.790163934426243)" style="cursor: default; font-family: 'Open Sans', verdana, arial, sans-serif; font-size: 12px; fill: rgb(42, 63, 95); fill-opacity: 1; white-space: pre; text-shadow: white 1px 1px 1px, white -1px -1px 1px, white 1px -1px 1px, white -1px 1px 1px;">BLA</text></g><g class="sankey-node" transform="translate(0.000,632.115)" style="opacity: 1;"><rect class="node-rect" width="15" height="28.770491803278674" style="stroke-width: 0.5; stroke: rgb(0, 0, 0); stroke-opacity: 1; fill: rgb(255, 102, 146); fill-opacity: 1;"/><text class="node-label" data-notex="1" x="0" y="0" text-anchor="start" transform="translate(18.25,18.585245901639336)" style="cursor: default; font-family: 'Open Sans', verdana, arial, sans-serif; font-size: 12px; fill: rgb(42, 63, 95); fill-opacity: 1; white-space: pre; text-shadow: white 1px 1px 1px, white -1px -1px 1px, white 1px -1px 1px, white -1px 1px 1px;">dPAG</text></g><g class="sankey-node" transform="translate(0.000,613.279)" style="opacity: 1;"><rect class="node-rect" width="15" height="3.8360655737704974" style="stroke-width: 0.5; stroke: rgb(0, 0, 0); stroke-opacity: 1; fill: rgb(182, 232, 128); fill-opacity: 1;"/><text class="node-label" data-notex="1" x="0" y="0" text-anchor="start" transform="translate(18.25,6.118032786885248)" style="cursor: default; font-family: 'Open Sans', verdana, arial, sans-serif; font-size: 12px; fill: rgb(42, 63, 95); fill-opacity: 1; white-space: pre; text-shadow: white 1px 1px 1px, white -1px -1px 1px, white 1px -1px 1px, white -1px 1px 1px;">lHb</text></g><g class="sankey-node" transform="translate(0.000,508.475)" style="opacity: 1;"><rect class="node-rect" width="15" height="55.622950819672326" style="stroke-width: 0.5; stroke: rgb(0, 0, 0); stroke-opacity: 1; fill: rgb(255, 151, 255); fill-opacity: 1;"/><text class="node-label" data-notex="1" x="0" y="0" text-anchor="start" transform="translate(18.25,32.011475409836166)" style="cursor: default; font-family: 'Open Sans', verdana, arial, sans-serif; font-size: 12px; fill: rgb(42, 63, 95); fill-opacity: 1; white-space: pre; text-shadow: white 1px 1px 1px, white -1px -1px 1px, white 1px -1px 1px, white -1px 1px 1px;">cPFC</text></g><g class="sankey-node" transform="translate(0.000,675.885)" style="opacity: 1;"><rect class="node-rect" width="15" height="44.11475409836066" style="stroke-width: 0.5; stroke: rgb(0, 0, 0); stroke-opacity: 1; fill: rgb(254, 203, 82); fill-opacity: 1;"/><text class="node-label" data-notex="1" x="0" y="0" text-anchor="start" transform="translate(18.25,26.25737704918033)" style="cursor: default; font-family: 'Open Sans', verdana, arial, sans-serif; font-size: 12px; fill: rgb(42, 63, 95); fill-opacity: 1; white-space: pre; text-shadow: white 1px 1px 1px, white -1px -1px 1px, white 1px -1px 1px, white -1px 1px 1px;">LHyp</text></g></g></g><defs id="topdefs-d1c2a1"><g class="clips"/></defs><g class="layer-above"><g class="imagelayer"/><g class="shapelayer"/></g><g class="infolayer"><g class="g-gtitle"/><g class="first-render"/></g></svg>