<svg class="main-svg" xmlns="http://www.w3.org/2000/svg" xmlns:xlink="http://www.w3.org/1999/xlink" width="1300" height="900" viewBox="0 0 1300 900" style=""><rect x="0" y="0" width="1300" height="900" style="fill: rgb(255, 255, 255); fill-opacity: 1;"/><defs id="defs-5c5c77"><g class="clips"/><g class="gradients"/><g class="patterns"/></defs><g class="bglayer"/><g class="layer-below"><g class="imagelayer"/><g class="shapelayer"/></g><g class="cartesianlayer"/><g class="polarlayer"/><g class="smithlayer"/><g class="ternarylayer"/><g class="geolayer"/><g class="funnelarealayer"/><g class="pielayer"/><g class="iciclelayer"/><g class="treemaplayer"/><g class="sunburstlayer"/><g class="glimages"/><g class="sankey" transform="translate(80,100)matrix(1 0 0 1 0 0)" style="box-sizing: content-box; position: absolute; left: 0px; shape-rendering: geometricprecision; pointer-events: none;"><g class="sankey-links" style="fill: none;"><path class="sankey-link" d="M15,190.82474226804098C570,190.82474226804098 570,154.32989690721575 1125,154.32989690721575L1125,168.4020618556694C570,168.4020618556694 570,204.8969072164946 15,204.8969072164946Z" style="stroke: rgb(68, 68, 68); stroke-opacity: 1; fill: rgb(25, 211, 243); fill-opacity: 0.6; stroke-width: 0; opacity: 1;"/><path class="sankey-link" d="M15,204.89690721649458C570,204.89690721649458 570,370.3608247422674 1125,370.3608247422674L1125,382.42268041237054C570,382.42268041237054 570,216.9587628865977 15,216.9587628865977Z" style="stroke: rgb(68, 68, 68); stroke-opacity: 1; fill: rgb(25, 211, 243); fill-opacity: 0.6; stroke-width: 0; opacity: 1;"/><path class="sankey-link" d="M15,216.95876288659767C570,216.95876288659767 570,641.5979381443295 1125,641.5979381443295L1125,645.6185567010306C570,645.6185567010306 570,220.9793814432987 15,220.9793814432987Z" style="stroke: rgb(68, 68, 68); stroke-opacity: 1; fill: rgb(25, 211, 243); fill-opacity: 0.6; stroke-width: 0; opacity: 1;"/><path class="sankey-link" d="M15,257.0103092783503C570,257.0103092783503 570,170.41237113401988 1125,170.41237113401988L1125,198.5567010309271C570,198.5567010309271 570,285.15463917525756 15,285.15463917525756Z" style="stroke: rgb(68, 68, 68); stroke-opacity: 1; fill: rgb(99, 110, 250); fill-opacity: 0.6; stroke-width: 0; opacity: 1;"/><path class="sankey-link" d="M15,313.2989690721647C570,313.2989690721647 570,532.113402061855 1125,532.113402061855L1125,550.2061855670096C570,550.2061855670096 570,331.3917525773194 15,331.3917525773194Z" style="stroke: rgb(68, 68, 68); stroke-opacity: 1; fill: rgb(99, 110, 250); fill-opacity: 0.6; stroke-width: 0; opacity: 1;"/><path class="sankey-link" d="M15,285.1546391752575C570,285.1546391752575 570,386.4432989690716 1125,386.4432989690716L1125,414.58762886597884C570,414.58762886597884 570,313.29896907216477 15,313.29896907216477Z" style="stroke: rgb(68, 68, 68); stroke-opacity: 1; fill: rgb(99, 110, 250); fill-opacity: 0.6; stroke-width: 0; opacity: 1;"/><path class="sankey-link" d="M15,331.3917525773193C570,331.3917525773193 570,645.6185567010306 1125,645.6185567010306L1125,655.670103092783C570,655.670103092783 570,341.4432989690719 15,341.4432989690719Z" style="stroke: rgb(68, 68, 68); stroke-opacity: 1; fill: rgb(99, 110, 250); fill-opacity: 0.6; stroke-width: 0; opacity: 1;"/><path class="sankey-link" d="M15,-1.1368683772161603e-13C570,-1.1368683772161603e-13 570,89.99999999999926 1125,89.99999999999926L1125,120.15463917525699C570,120.15463917525699 570,30.154639175257618 15,30.154639175257618Z" style="stroke: rgb(68, 68, 68); stroke-opacity: 1; fill: rgb(239, 85, 59); fill-opacity: 0.6; stroke-width: 0; opacity: 1;"/><path class="sankey-link" d="M15,52.26804123711329C570,52.26804123711329 570,514.0206185567004 1125,514.0206185567004L1125,524.0721649484528C570,524.0721649484528 570,62.31958762886587 15,62.31958762886587Z" style="stroke: rgb(68, 68, 68); stroke-opacity: 1; fill: rgb(239, 85, 59); fill-opacity: 0.6; stroke-width: 0; opacity: 1;"/><path class="sankey-link" d="M15,30.15463917525762C570,30.15463917525762 570,306.03092783505093 1125,306.03092783505093L1125,328.14432989690664C570,328.14432989690664 570,52.26804123711329 15,52.26804123711329Z" style="stroke: rgb(68, 68, 68); stroke-opacity: 1; fill: rgb(239, 85, 59); fill-opacity: 0.6; stroke-width: 0; opacity: 1;"/><path class="sankey-link" d="M15,62.31958762886586C570,62.31958762886586 570,627.5257731958759 1125,627.5257731958759L1125,631.5463917525769C570,631.5463917525769 570,66.3402061855669 15,66.3402061855669Z" style="stroke: rgb(68, 68, 68); stroke-opacity: 1; fill: rgb(239, 85, 59); fill-opacity: 0.6; stroke-width: 0; opacity: 1;"/><path class="sankey-link" d="M15,646.7010309278351C570,646.7010309278351 570,276.95876288659724 1125,276.95876288659724L1125,289.02061855670036C570,289.02061855670036 570,658.7628865979382 15,658.7628865979382Z" style="stroke: rgb(68, 68, 68); stroke-opacity: 1; fill: rgb(254, 203, 82); fill-opacity: 0.6; stroke-width: 0; opacity: 1;"/><path class="sankey-link" d="M15,664.7938144329897C570,664.7938144329897 570,598.4536082474222 1125,598.4536082474222L1125,604.4845360824736C570,604.4845360824736 570,670.8247422680412 15,670.8247422680412Z" style="stroke: rgb(68, 68, 68); stroke-opacity: 1; fill: rgb(254, 203, 82); fill-opacity: 0.6; stroke-width: 0; opacity: 1;"/><path class="sankey-link" d="M15,658.7628865979382C570,658.7628865979382 570,484.9484536082469 1125,484.9484536082469L1125,490.97938144329845C570,490.97938144329845 570,664.7938144329896 15,664.7938144329896Z" style="stroke: rgb(68, 68, 68); stroke-opacity: 1; fill: rgb(254, 203, 82); fill-opacity: 0.6; stroke-width: 0; opacity: 1;"/><path class="sankey-link" d="M15,670.8247422680413C570,670.8247422680413 570,703.9175257731955 1125,703.9175257731955L1125,713.969072164948C570,713.969072164948 570,680.8762886597938 15,680.8762886597938Z" style="stroke: rgb(68, 68, 68); stroke-opacity: 1; fill: rgb(254, 203, 82); fill-opacity: 0.6; stroke-width: 0; opacity: 1;"/><path class="sankey-link" d="M15,356.44329896907175C570,356.44329896907175 570,198.5567010309271 1125,198.5567010309271L1125,218.65979381443222C570,218.65979381443222 570,376.54639175257694 15,376.54639175257694Z" style="stroke: rgb(68, 68, 68); stroke-opacity: 1; fill: rgb(171, 99, 250); fill-opacity: 0.6; stroke-width: 0; opacity: 1;"/><path class="sankey-link" d="M15,390.6185567010305C570,390.6185567010305 570,550.2061855670097 1125,550.2061855670097L1125,556.2371134020611C570,556.2371134020611 570,396.64948453608207 15,396.64948453608207Z" style="stroke: rgb(68, 68, 68); stroke-opacity: 1; fill: rgb(171, 99, 250); fill-opacity: 0.6; stroke-width: 0; opacity: 1;"/><path class="sankey-link" d="M15,376.5463917525769C570,376.5463917525769 570,414.5876288659788 1125,414.5876288659788L1125,428.6597938144324C570,428.6597938144324 570,390.6185567010305 15,390.6185567010305Z" style="stroke: rgb(68, 68, 68); stroke-opacity: 1; fill: rgb(171, 99, 250); fill-opacity: 0.6; stroke-width: 0; opacity: 1;"/><path class="sankey-link" d="M15,396.64948453608207C570,396.64948453608207 570,655.6701030927832 1125,655.6701030927832L1125,663.7113402061852C570,663.7113402061852 570,404.69072164948415 15,404.69072164948415Z" style="stroke: rgb(68, 68, 68); stroke-opacity: 1; fill: rgb(171, 99, 250); fill-opacity: 0.6; stroke-width: 0; opacity: 1;"/><path class="sankey-link" d="M15,81.34020618556681C570,81.34020618556681 570,120.15463917525699 1125,120.15463917525699L1125,154.32989690721575C570,154.32989690721575 570,115.51546391752558 15,115.51546391752558Z" style="stroke: rgb(68, 68, 68); stroke-opacity: 1; fill: rgb(0, 204, 150); fill-opacity: 0.6; stroke-width: 0; opacity: 1;"/><path class="sankey-link" d="M15,157.7319587628864C570,157.7319587628864 570,524.072164948453 1125,524.072164948453L1125,532.113402061855C570,532.113402061855 570,165.77319587628847 15,165.77319587628847Z" style="stroke: rgb(68, 68, 68); stroke-opacity: 1; fill: rgb(0, 204, 150); fill-opacity: 0.6; stroke-width: 0; opacity: 1;"/><path class="sankey-link" d="M15,115.51546391752558C570,115.51546391752558 570,328.1443298969066 1125,328.1443298969066L1125,370.36082474226737C570,370.36082474226737 570,157.73195876288642 15,157.73195876288642Z" style="stroke: rgb(68, 68, 68); stroke-opacity: 1; fill: rgb(0, 204, 150); fill-opacity: 0.6; stroke-width: 0; opacity: 1;"/><path class="sankey-link" d="M15,165.77319587628847C570,165.77319587628847 570,631.5463917525769 1125,631.5463917525769L1125,641.5979381443294C570,641.5979381443294 570,175.82474226804106 15,175.82474226804106Z" style="stroke: rgb(68, 68, 68); stroke-opacity: 1; fill: rgb(0, 204, 150); fill-opacity: 0.6; stroke-width: 0; opacity: 1;"/><path class="sankey-link" d="M15,419.6907216494841C570,419.6907216494841 570,218.65979381443225 1125,218.65979381443225L1125,262.8865979381436C570,262.8865979381436 570,463.9175257731954 15,463.9175257731954Z" style="stroke: rgb(68, 68, 68); stroke-opacity: 1; fill: rgb(255, 161, 90); fill-opacity: 0.6; stroke-width: 0; opacity: 1;"/><path class="sankey-link" d="M15,508.14432989690675C570,508.14432989690675 570,556.2371134020613 1125,556.2371134020613L1125,586.3917525773189C570,586.3917525773189 570,538.2989690721645 15,538.2989690721645Z" style="stroke: rgb(68, 68, 68); stroke-opacity: 1; fill: rgb(255, 161, 90); fill-opacity: 0.6; stroke-width: 0; opacity: 1;"/><path class="sankey-link" d="M15,463.91752577319545C570,463.91752577319545 570,428.6597938144324 1125,428.6597938144324L1125,472.8865979381437C570,472.8865979381437 570,508.14432989690675 15,508.14432989690675Z" style="stroke: rgb(68, 68, 68); stroke-opacity: 1; fill: rgb(255, 161, 90); fill-opacity: 0.6; stroke-width: 0; opacity: 1;"/><path class="sankey-link" d="M15,538.2989690721646C570,538.2989690721646 570,663.7113402061852 1125,663.7113402061852L1125,699.8969072164946C570,699.8969072164946 570,574.4845360824739 15,574.4845360824739Z" style="stroke: rgb(68, 68, 68); stroke-opacity: 1; fill: rgb(255, 161, 90); fill-opacity: 0.6; stroke-width: 0; opacity: 1;"/><path class="sankey-link" d="M15,589.4845360824743C570,589.4845360824743 570,262.8865979381436 1125,262.8865979381436L1125,276.95876288659724C570,276.95876288659724 570,603.5567010309278 15,603.5567010309278Z" style="stroke: rgb(68, 68, 68); stroke-opacity: 1; fill: rgb(255, 151, 255); fill-opacity: 0.6; stroke-width: 0; opacity: 1;"/><path class="sankey-link" d="M15,615.618556701031C570,615.618556701031 570,586.391752577319 1125,586.391752577319L1125,598.4536082474222C570,598.4536082474222 570,627.6804123711341 15,627.6804123711341Z" style="stroke: rgb(68, 68, 68); stroke-opacity: 1; fill: rgb(255, 151, 255); fill-opacity: 0.6; stroke-width: 0; opacity: 1;"/><path class="sankey-link" d="M15,603.5567010309279C570,603.5567010309279 570,472.8865979381438 1125,472.8865979381438L1125,484.9484536082469C570,484.9484536082469 570,615.618556701031 15,615.618556701031Z" style="stroke: rgb(68, 68, 68); stroke-opacity: 1; fill: rgb(255, 151, 255); fill-opacity: 0.6; stroke-width: 0; opacity: 1;"/><path class="sankey-link" d="M15,627.6804123711341C570,627.6804123711341 570,699.8969072164945 1125,699.8969072164945L1125,703.9175257731955C570,703.9175257731955 570,631.7010309278352 15,631.7010309278352Z" style="stroke: rgb(68, 68, 68); stroke-opacity: 1; fill: rgb(255, 151, 255); fill-opacity: 0.6; stroke-width: 0; opacity: 1;"/><path class="sankey-link" d="M15,695.8762886597938C570,695.8762886597938 570,289.02061855670036 1125,289.02061855670036L1125,291.0309278350509C570,291.0309278350509 570,697.8865979381442 15,697.8865979381442Z" style="stroke: rgb(68, 68, 68); stroke-opacity: 1; fill: rgb(255, 102, 146); fill-opacity: 0.6; stroke-width: 0; opacity: 1;"/><path class="sankey-link" d="M15,705.9278350515464C570,705.9278350515464 570,604.4845360824737 1125,604.4845360824737L1125,612.5257731958758C570,612.5257731958758 570,713.9690721649484 15,713.9690721649484Z" style="stroke: rgb(68, 68, 68); stroke-opacity: 1; fill: rgb(255, 102, 146); fill-opacity: 0.6; stroke-width: 0; opacity: 1;"/><path class="sankey-link" d="M15,697.8865979381443C570,697.8865979381443 570,490.97938144329845 1125,490.97938144329845L1125,499.0206185567005C570,499.0206185567005 570,705.9278350515464 15,705.9278350515464Z" style="stroke: rgb(68, 68, 68); stroke-opacity: 1; fill: rgb(255, 102, 146); fill-opacity: 0.6; stroke-width: 0; opacity: 1;"/><path class="sankey-link" d="M15,713.9690721649484C570,713.9690721649484 570,713.9690721649481 1125,713.9690721649481L1125,719.9999999999995C570,719.9999999999995 570,719.9999999999999 15,719.9999999999999Z" style="stroke: rgb(68, 68, 68); stroke-opacity: 1; fill: rgb(255, 102, 146); fill-opacity: 0.6; stroke-width: 0; opacity: 1;"/><path class="sankey-link" d="M15,235.97938144329876C570,235.97938144329876 570,168.40206185566936 1125,168.40206185566936L1125,170.41237113401988C570,170.41237113401988 570,237.98969072164928 15,237.98969072164928Z" style="stroke: rgb(68, 68, 68); stroke-opacity: 1; fill: rgb(182, 232, 128); fill-opacity: 0.6; stroke-width: 0; opacity: 1;"/><path class="sankey-link" d="M15,237.98969072164928C570,237.98969072164928 570,382.42268041237054 1125,382.42268041237054L1125,386.4432989690716C570,386.4432989690716 570,242.01030927835032 15,242.01030927835032Z" style="stroke: rgb(68, 68, 68); stroke-opacity: 1; fill: rgb(182, 232, 128); fill-opacity: 0.6; stroke-width: 0; opacity: 1;"/></g><g class="sankey-node-set" style="cursor: move;"><g class="sankey-node" transform="translate(1125.000,90.000)" style="opacity: 1;"><rect class="node-rect" width="15" height="201.03092783505167" style="stroke-width: 0.5; stroke: rgb(0, 0, 0); stroke-opacity: 1; fill: rgb(128, 128, 128); fill-opacity: 1;"/><text class="node-label" data-notex="1" x="0" y="0" text-anchor="end" transform="translate(-3.25,104.71546391752584)" style="cursor: default; font-family: 'Open Sans', verdana, arial, sans-serif; font-size: 12px; fill: rgb(42, 63, 95); fill-opacity: 1; white-space: pre; text-shadow: white 1px 1px 1px, white -1px -1px 1px, white 1px -1px 1px, white -1px 1px 1px;">dig</text></g><g class="sankey-node" transform="translate(1125.000,306.031)" style="opacity: 1;"><rect class="node-rect" width="15" height="192.98969072164942" style="stroke-width: 0.5; stroke: rgb(0, 0, 0); stroke-opacity: 1; fill: rgb(128, 128, 128); fill-opacity: 1;"/><text class="node-label" data-notex="1" x="0" y="0" text-anchor="end" transform="translate(-3.25,100.69484536082471)" style="cursor: default; font-family: 'Open Sans', verdana, arial, sans-serif; font-size: 12px; fill: rgb(42, 63, 95); fill-opacity: 1; white-space: pre; text-shadow: white 1px 1px 1px, white -1px -1px 1px, white 1px -1px 1px, white -1px 1px 1px;">move</text></g><g class="sankey-node" transform="translate(1125.000,514.021)" style="opacity: 1;"><rect class="node-rect" width="15" height="98.50515463917554" style="stroke-width: 0.5; stroke: rgb(0, 0, 0); stroke-opacity: 1; fill: rgb(128, 128, 128); fill-opacity: 1;"/><text class="node-label" data-notex="1" x="0" y="0" text-anchor="end" transform="translate(-3.25,53.452577319587775)" style="cursor: default; font-family: 'Open Sans', verdana, arial, sans-serif; font-size: 12px; fill: rgb(42, 63, 95); fill-opacity: 1; white-space: pre; text-shadow: white 1px 1px 1px, white -1px -1px 1px, white 1px -1px 1px, white -1px 1px 1px;">groom</text></g><g class="sankey-node" transform="translate(1125.000,627.526)" style="opacity: 1;"><rect class="node-rect" width="15" height="92.4742268041241" style="stroke-width: 0.5; stroke: rgb(0, 0, 0); stroke-opacity: 1; fill: rgb(128, 128, 128); fill-opacity: 1;"/><text class="node-label" data-notex="1" x="0" y="0" text-anchor="end" transform="translate(-3.25,50.43711340206205)" style="cursor: default; font-family: 'Open Sans', verdana, arial, sans-serif; font-size: 12px; fill: rgb(42, 63, 95); fill-opacity: 1; white-space: pre; text-shadow: white 1px 1px 1px, white -1px -1px 1px, white 1px -1px 1px, white -1px 1px 1px;">still</text></g><g class="sankey-node" transform="translate(0.000,257.010)" style="opacity: 1;"><rect class="node-rect" width="15" height="84.43298969072146" style="stroke-width: 0.5; stroke: rgb(0, 0, 0); stroke-opacity: 1; fill: rgb(99, 110, 250); fill-opacity: 1;"/><text class="node-label" data-notex="1" x="0" y="0" text-anchor="start" transform="translate(18.25,46.41649484536073)" style="cursor: default; font-family: 'Open Sans', verdana, arial, sans-serif; font-size: 12px; fill: rgb(42, 63, 95); fill-opacity: 1; white-space: pre; text-shadow: white 1px 1px 1px, white -1px -1px 1px, white 1px -1px 1px, white -1px 1px 1px;">Cla</text></g><g class="sankey-node" transform="translate(0.000,-0.000)" style="opacity: 1;"><rect class="node-rect" width="15" height="66.34020618556693" style="stroke-width: 0.5; stroke: rgb(0, 0, 0); stroke-opacity: 1; fill: rgb(239, 85, 59); fill-opacity: 1;"/><text class="node-label" data-notex="1" x="0" y="0" text-anchor="start" transform="translate(18.25,37.37010309278347)" style="cursor: default; font-family: 'Open Sans', verdana, arial, sans-serif; font-size: 12px; fill: rgb(42, 63, 95); fill-opacity: 1; white-space: pre; text-shadow: white 1px 1px 1px, white -1px -1px 1px, white 1px -1px 1px, white -1px 1px 1px;">LC</text></g><g class="sankey-node" transform="translate(0.000,81.340)" style="opacity: 1;"><rect class="node-rect" width="15" height="94.48453608247416" style="stroke-width: 0.5; stroke: rgb(0, 0, 0); stroke-opacity: 1; fill: rgb(0, 204, 150); fill-opacity: 1;"/><text class="node-label" data-notex="1" x="0" y="0" text-anchor="start" transform="translate(18.25,51.442268041237085)" style="cursor: default; font-family: 'Open Sans', verdana, arial, sans-serif; font-size: 12px; fill: rgb(42, 63, 95); fill-opacity: 1; white-space: pre; text-shadow: white 1px 1px 1px, white -1px -1px 1px, white 1px -1px 1px, white -1px 1px 1px;">Str</text></g><g class="sankey-node" transform="translate(0.000,356.443)" style="opacity: 1;"><rect class="node-rect" width="15" height="48.24742268041234" style="stroke-width: 0.5; stroke: rgb(0, 0, 0); stroke-opacity: 1; fill: rgb(171, 99, 250); fill-opacity: 1;"/><text class="node-label" data-notex="1" x="0" y="0" text-anchor="start" transform="translate(18.25,28.32371134020617)" style="cursor: default; font-family: 'Open Sans', verdana, arial, sans-serif; font-size: 12px; fill: rgb(42, 63, 95); fill-opacity: 1; white-space: pre; text-shadow: white 1px 1px 1px, white -1px -1px 1px, white 1px -1px 1px, white -1px 1px 1px;">NAc</text></g><g class="sankey-node" transform="translate(0.000,419.691)" style="opacity: 1;"><rect class="node-rect" width="15" height="154.7938144329902" style="stroke-width: 0.5; stroke: rgb(0, 0, 0); stroke-opacity: 1; fill: rgb(255, 161, 90); fill-opacity: 1;"/><text class="node-label" data-notex="1" x="0" y="0" text-anchor="start" transform="translate(18.25,81.5969072164951)" style="cursor: default; font-family: 'Open Sans', verdana, arial, sans-serif; font-size: 12px; fill: rgb(42, 63, 95); fill-opacity: 1; white-space: pre; text-shadow: white 1px 1px 1px, white -1px -1px 1px, white 1px -1px 1px, white -1px 1px 1px;">VTA</text></g><g class="sankey-node" transform="translate(0.000,190.825)" style="opacity: 1;"><rect class="node-rect" width="15" height="30.154639175257785" style="stroke-width: 0.5; stroke: rgb(0, 0, 0); stroke-opacity: 1; fill: rgb(25, 211, 243); fill-opacity: 1;"/><text class="node-label" data-notex="1" x="0" y="0" text-anchor="start" transform="translate(18.25,19.27731958762889)" style="cursor: default; font-family: 'Open Sans', verdana, arial, sans-serif; font-size: 12px; fill: rgb(42, 63, 95); fill-opacity: 1; white-space: pre; text-shadow: white 1px 1px 1px, white -1px -1px 1px, white 1px -1px 1px, white -1px 1px 1px;">BLA</text></g><g class="sankey-node" transform="translate(0.000,695.876)" style="opacity: 1;"><rect class="node-rect" width="15" height="24.123711340206228" style="stroke-width: 0.5; stroke: rgb(0, 0, 0); stroke-opacity: 1; fill: rgb(255, 102, 146); fill-opacity: 1;"/><text class="node-label" data-notex="1" x="0" y="0" text-anchor="start" transform="translate(18.25,16.261855670103113)" style="cursor: default; font-family: 'Open Sans', verdana, arial, sans-serif; font-size: 12px; fill: rgb(42, 63, 95); fill-opacity: 1; white-space: pre; text-shadow: white 1px 1px 1px, white -1px -1px 1px, white 1px -1px 1px, white -1px 1px 1px;">dPAG</text></g><g class="sankey-node" transform="translate(0.000,235.979)" style="opacity: 1;"><rect class="node-rect" width="15" height="6.030927835051557" style="stroke-width: 0.5; stroke: rgb(0, 0, 0); stroke-opacity: 1; fill: rgb(182, 232, 128); fill-opacity: 1;"/><text class="node-label" data-notex="1" x="0" y="0" text-anchor="start" transform="translate(18.25,7.215463917525778)" style="cursor: default; font-family: 'Open Sans', verdana, arial, sans-serif; font-size: 12px; fill: rgb(42, 63, 95); fill-opacity: 1; white-space: pre; text-shadow: white 1px 1px 1px, white -1px -1px 1px, white 1px -1px 1px, white -1px 1px 1px;">lHb</text></g><g class="sankey-node" transform="translate(0.000,589.485)" style="opacity: 1;"><rect class="node-rect" width="15" height="42.216494845360785" style="stroke-width: 0.5; stroke: rgb(0, 0, 0); stroke-opacity: 1; fill: rgb(255, 151, 255); fill-opacity: 1;"/><text class="node-label" data-notex="1" x="0" y="0" text-anchor="start" transform="translate(18.25,25.30824742268039)" style="cursor: default; font-family: 'Open Sans', verdana, arial, sans-serif; font-size: 12px; fill: rgb(42, 63, 95); fill-opacity: 1; white-space: pre; text-shadow: white 1px 1px 1px, white -1px -1px 1px, white 1px -1px 1px, white -1px 1px 1px;">cPFC</text></g><g class="sankey-node" transform="translate(0.000,646.701)" style="opacity: 1;"><rect class="node-rect" width="15" height="34.17525773195871" style="stroke-width: 0.5; stroke: rgb(0, 0, 0); stroke-opacity: 1; fill: rgb(254, 203, 82); fill-opacity: 1;"/><text class="node-label" data-notex="1" x="0" y="0" text-anchor="start" transform="translate(18.25,21.287628865979354)" style="cursor: default; font-family: 'Open Sans', verdana, arial, sans-serif; font-size: 12px; fill: rgb(42, 63, 95); fill-opacity: 1; white-space: pre; text-shadow: white 1px 1px 1px, white -1px -1px 1px, white 1px -1px 1px, white -1px 1px 1px;">LHyp</text></g></g></g><defs id="topdefs-5c5c77"><g class="clips"/></defs><g class="layer-above"><g class="imagelayer"/><g class="shapelayer"/></g><g class="infolayer"><g class="g-gtitle"/><g class="first-render"/></g></svg>