<svg class="main-svg" xmlns="http://www.w3.org/2000/svg" xmlns:xlink="http://www.w3.org/1999/xlink" width="1300" height="900" viewBox="0 0 1300 900" style=""><rect x="0" y="0" width="1300" height="900" style="fill: rgb(255, 255, 255); fill-opacity: 1;"/><defs id="defs-56ff8f"><g class="clips"/><g class="gradients"/><g class="patterns"/></defs><g class="bglayer"/><g class="layer-below"><g class="imagelayer"/><g class="shapelayer"/></g><g class="cartesianlayer"/><g class="polarlayer"/><g class="smithlayer"/><g class="ternarylayer"/><g class="geolayer"/><g class="funnelarealayer"/><g class="pielayer"/><g class="iciclelayer"/><g class="treemaplayer"/><g class="sunburstlayer"/><g class="glimages"/><g class="sankey" transform="translate(80,100)matrix(1 0 0 1 0 0)" style="box-sizing: content-box; position: absolute; left: 0px; shape-rendering: geometricprecision; pointer-events: none;"><g class="sankey-links" style="fill: none;"><path class="sankey-link" d="M15,131.7253521126762C570,131.7253521126762 570,313.83802816901346 1125,313.83802816901346L1125,323.4507042253515C570,323.4507042253515 570,141.33802816901425 15,141.33802816901425Z" style="stroke: rgb(68, 68, 68); stroke-opacity: 1; fill: rgb(25, 211, 243); fill-opacity: 0.6; stroke-width: 0; opacity: 1;"/><path class="sankey-link" d="M15,149.57746478873253C570,149.57746478873253 570,584.1549295774645 1125,584.1549295774645L1125,585.5281690140843C570,585.5281690140843 570,150.95070422535224 15,150.95070422535224Z" style="stroke: rgb(68, 68, 68); stroke-opacity: 1; fill: rgb(25, 211, 243); fill-opacity: 0.6; stroke-width: 0; opacity: 1;"/><path class="sankey-link" d="M15,116.61971830985931C570,116.61971830985931 570,118.94366197183024 1125,118.94366197183024L1125,134.04929577464713C570,134.04929577464713 570,131.7253521126762 15,131.7253521126762Z" style="stroke: rgb(68, 68, 68); stroke-opacity: 1; fill: rgb(25, 211, 243); fill-opacity: 0.6; stroke-width: 0; opacity: 1;"/><path class="sankey-link" d="M15,141.33802816901422C570,141.33802816901422 570,462.0422535211264 1125,462.0422535211264L1125,470.28169014084466C570,470.28169014084466 570,149.57746478873256 15,149.57746478873256Z" style="stroke: rgb(68, 68, 68); stroke-opacity: 1; fill: rgb(25, 211, 243); fill-opacity: 0.6; stroke-width: 0; opacity: 1;"/><path class="sankey-link" d="M15,522.5704225352114C570,522.5704225352114 570,386.6197183098585 1125,386.6197183098585L1125,404.47183098591483C570,404.47183098591483 570,540.4225352112677 15,540.4225352112677Z" style="stroke: rgb(68, 68, 68); stroke-opacity: 1; fill: rgb(99, 110, 250); fill-opacity: 0.6; stroke-width: 0; opacity: 1;"/><path class="sankey-link" d="M15,567.8873239436621C570,567.8873239436621 570,691.1619718309856 1125,691.1619718309856L1125,703.5211267605631C570,703.5211267605631 570,580.2464788732395 15,580.2464788732395Z" style="stroke: rgb(68, 68, 68); stroke-opacity: 1; fill: rgb(99, 110, 250); fill-opacity: 0.6; stroke-width: 0; opacity: 1;"/><path class="sankey-link" d="M15,561.0211267605634C570,561.0211267605634 570,618.4859154929575 1125,618.4859154929575L1125,625.3521126760561C570,625.3521126760561 570,567.8873239436621 15,567.8873239436621Z" style="stroke: rgb(68, 68, 68); stroke-opacity: 1; fill: rgb(99, 110, 250); fill-opacity: 0.6; stroke-width: 0; opacity: 1;"/><path class="sankey-link" d="M15,493.73239436619724C570,493.73239436619724 570,220.56338028168938 1125,220.56338028168938L1125,249.40140845070346C570,249.40140845070346 570,522.5704225352114 15,522.5704225352114Z" style="stroke: rgb(68, 68, 68); stroke-opacity: 1; fill: rgb(99, 110, 250); fill-opacity: 0.6; stroke-width: 0; opacity: 1;"/><path class="sankey-link" d="M15,540.4225352112677C570,540.4225352112677 570,523.8380281690138 1125,523.8380281690138L1125,544.4366197183097C570,544.4366197183097 570,561.0211267605636 15,561.0211267605636Z" style="stroke: rgb(68, 68, 68); stroke-opacity: 1; fill: rgb(99, 110, 250); fill-opacity: 0.6; stroke-width: 0; opacity: 1;"/><path class="sankey-link" d="M15,189.2957746478875C570,189.2957746478875 570,323.4507042253515 1125,323.4507042253515L1125,341.3028169014078C570,341.3028169014078 570,207.14788732394382 15,207.14788732394382Z" style="stroke: rgb(68, 68, 68); stroke-opacity: 1; fill: rgb(239, 85, 59); fill-opacity: 0.6; stroke-width: 0; opacity: 1;"/><path class="sankey-link" d="M15,219.5070422535213C570,219.5070422535213 570,659.5774647887321 1125,659.5774647887321L1125,666.4436619718307C570,666.4436619718307 570,226.37323943661985 15,226.37323943661985Z" style="stroke: rgb(68, 68, 68); stroke-opacity: 1; fill: rgb(239, 85, 59); fill-opacity: 0.6; stroke-width: 0; opacity: 1;"/><path class="sankey-link" d="M15,216.76056338028187C570,216.76056338028187 570,585.5281690140843 1125,585.5281690140843L1125,588.2746478873238C570,588.2746478873238 570,219.5070422535213 15,219.5070422535213Z" style="stroke: rgb(68, 68, 68); stroke-opacity: 1; fill: rgb(239, 85, 59); fill-opacity: 0.6; stroke-width: 0; opacity: 1;"/><path class="sankey-link" d="M15,165.9507042253523C570,165.9507042253523 570,134.04929577464713 1125,134.04929577464713L1125,157.39436619718236C570,157.39436619718236 570,189.29577464788753 15,189.29577464788753Z" style="stroke: rgb(68, 68, 68); stroke-opacity: 1; fill: rgb(239, 85, 59); fill-opacity: 0.6; stroke-width: 0; opacity: 1;"/><path class="sankey-link" d="M15,207.14788732394385C570,207.14788732394385 570,470.2816901408447 1125,470.2816901408447L1125,479.89436619718276C570,479.89436619718276 570,216.7605633802819 15,216.7605633802819Z" style="stroke: rgb(68, 68, 68); stroke-opacity: 1; fill: rgb(239, 85, 59); fill-opacity: 0.6; stroke-width: 0; opacity: 1;"/><path class="sankey-link" d="M15,666.5492957746477C570,666.5492957746477 570,414.0845070422529 1125,414.0845070422529L1125,422.32394366197116C570,422.32394366197116 570,674.7887323943661 15,674.7887323943661Z" style="stroke: rgb(68, 68, 68); stroke-opacity: 1; fill: rgb(254, 203, 82); fill-opacity: 0.6; stroke-width: 0; opacity: 1;"/><path class="sankey-link" d="M15,681.6549295774646C570,681.6549295774646 570,711.7605633802814 1125,711.7605633802814L1125,715.8802816901405C570,715.8802816901405 570,685.7746478873237 15,685.7746478873237Z" style="stroke: rgb(68, 68, 68); stroke-opacity: 1; fill: rgb(254, 203, 82); fill-opacity: 0.6; stroke-width: 0; opacity: 1;"/><path class="sankey-link" d="M15,674.788732394366C570,674.788732394366 570,628.0985915492955 1125,628.0985915492955L1125,634.9647887323941C570,634.9647887323941 570,681.6549295774646 15,681.6549295774646Z" style="stroke: rgb(68, 68, 68); stroke-opacity: 1; fill: rgb(254, 203, 82); fill-opacity: 0.6; stroke-width: 0; opacity: 1;"/><path class="sankey-link" d="M15,658.3098591549294C570,658.3098591549294 570,263.13380281690064 1125,263.13380281690064L1125,271.3732394366189C570,271.3732394366189 570,666.5492957746478 15,666.5492957746478Z" style="stroke: rgb(68, 68, 68); stroke-opacity: 1; fill: rgb(254, 203, 82); fill-opacity: 0.6; stroke-width: 0; opacity: 1;"/><path class="sankey-link" d="M15,283.838028169014C570,283.838028169014 570,342.67605633802754 1125,342.67605633802754L1125,356.40845070422466C570,356.40845070422466 570,297.57042253521115 15,297.57042253521115Z" style="stroke: rgb(68, 68, 68); stroke-opacity: 1; fill: rgb(171, 99, 250); fill-opacity: 0.6; stroke-width: 0; opacity: 1;"/><path class="sankey-link" d="M15,312.6760563380281C570,312.6760563380281 570,666.4436619718307 1125,666.4436619718307L1125,670.5633802816898C570,670.5633802816898 570,316.7957746478873 15,316.7957746478873Z" style="stroke: rgb(68, 68, 68); stroke-opacity: 1; fill: rgb(171, 99, 250); fill-opacity: 0.6; stroke-width: 0; opacity: 1;"/><path class="sankey-link" d="M15,307.18309859154925C570,307.18309859154925 570,588.2746478873237 1125,588.2746478873237L1125,593.7676056338025C570,593.7676056338025 570,312.6760563380281 15,312.6760563380281Z" style="stroke: rgb(68, 68, 68); stroke-opacity: 1; fill: rgb(171, 99, 250); fill-opacity: 0.6; stroke-width: 0; opacity: 1;"/><path class="sankey-link" d="M15,265.9859154929577C570,265.9859154929577 570,161.5140845070415 1125,161.5140845070415L1125,179.36619718309782C570,179.36619718309782 570,283.838028169014 15,283.838028169014Z" style="stroke: rgb(68, 68, 68); stroke-opacity: 1; fill: rgb(171, 99, 250); fill-opacity: 0.6; stroke-width: 0; opacity: 1;"/><path class="sankey-link" d="M15,297.5704225352112C570,297.5704225352112 570,484.0140845070419 1125,484.0140845070419L1125,493.62676056337995C570,493.62676056337995 570,307.18309859154925 15,307.18309859154925Z" style="stroke: rgb(68, 68, 68); stroke-opacity: 1; fill: rgb(171, 99, 250); fill-opacity: 0.6; stroke-width: 0; opacity: 1;"/><path class="sankey-link" d="M15,43.9436619718311C570,43.9436619718311 570,291.86619718309794 1125,291.86619718309794L1125,313.83802816901346C570,313.83802816901346 570,65.9154929577466 15,65.9154929577466Z" style="stroke: rgb(68, 68, 68); stroke-opacity: 1; fill: rgb(0, 204, 150); fill-opacity: 0.6; stroke-width: 0; opacity: 1;"/><path class="sankey-link" d="M15,96.1267605633804C570,96.1267605633804 570,654.0845070422532 1125,654.0845070422532L1125,659.5774647887321C570,659.5774647887321 570,101.61971830985928 15,101.61971830985928Z" style="stroke: rgb(68, 68, 68); stroke-opacity: 1; fill: rgb(0, 204, 150); fill-opacity: 0.6; stroke-width: 0; opacity: 1;"/><path class="sankey-link" d="M15,89.26056338028181C570,89.26056338028181 570,577.2887323943659 1125,577.2887323943659L1125,584.1549295774645C570,584.1549295774645 570,96.1267605633804 15,96.1267605633804Z" style="stroke: rgb(68, 68, 68); stroke-opacity: 1; fill: rgb(0, 204, 150); fill-opacity: 0.6; stroke-width: 0; opacity: 1;"/><path class="sankey-link" d="M15,1.1368683772161603e-13C570,1.1368683772161603e-13 570,74.99999999999926 1125,74.99999999999926L1125,118.94366197183024C570,118.94366197183024 570,43.9436619718311 15,43.9436619718311Z" style="stroke: rgb(68, 68, 68); stroke-opacity: 1; fill: rgb(0, 204, 150); fill-opacity: 0.6; stroke-width: 0; opacity: 1;"/><path class="sankey-link" d="M15,65.9154929577466C570,65.9154929577466 570,438.69718309859115 1125,438.69718309859115L1125,462.0422535211263C570,462.0422535211263 570,89.2605633802818 15,89.2605633802818Z" style="stroke: rgb(68, 68, 68); stroke-opacity: 1; fill: rgb(0, 204, 150); fill-opacity: 0.6; stroke-width: 0; opacity: 1;"/><path class="sankey-link" d="M15,372.9929577464789C570,372.9929577464789 570,356.4084507042247 1125,356.4084507042247L1125,386.6197183098585C570,386.6197183098585 570,403.2042253521127 15,403.2042253521127Z" style="stroke: rgb(68, 68, 68); stroke-opacity: 1; fill: rgb(255, 161, 90); fill-opacity: 0.6; stroke-width: 0; opacity: 1;"/><path class="sankey-link" d="M15,458.13380281690144C570,458.13380281690144 570,670.5633802816899 1125,670.5633802816899L1125,691.1619718309857C570,691.1619718309857 570,478.7323943661972 15,478.7323943661972Z" style="stroke: rgb(68, 68, 68); stroke-opacity: 1; fill: rgb(255, 161, 90); fill-opacity: 0.6; stroke-width: 0; opacity: 1;"/><path class="sankey-link" d="M15,433.4154929577465C570,433.4154929577465 570,593.7676056338025 1125,593.7676056338025L1125,618.4859154929575C570,618.4859154929575 570,458.13380281690144 15,458.13380281690144Z" style="stroke: rgb(68, 68, 68); stroke-opacity: 1; fill: rgb(255, 161, 90); fill-opacity: 0.6; stroke-width: 0; opacity: 1;"/><path class="sankey-link" d="M15,331.79577464788736C570,331.79577464788736 570,179.36619718309782 1125,179.36619718309782L1125,220.56338028168938C570,220.56338028168938 570,372.99295774647885 15,372.99295774647885Z" style="stroke: rgb(68, 68, 68); stroke-opacity: 1; fill: rgb(255, 161, 90); fill-opacity: 0.6; stroke-width: 0; opacity: 1;"/><path class="sankey-link" d="M15,403.2042253521127C570,403.2042253521127 570,493.62676056337995 1125,493.62676056337995L1125,523.8380281690138C570,523.8380281690138 570,433.4154929577465 15,433.4154929577465Z" style="stroke: rgb(68, 68, 68); stroke-opacity: 1; fill: rgb(255, 161, 90); fill-opacity: 0.6; stroke-width: 0; opacity: 1;"/><path class="sankey-link" d="M15,608.9788732394364C570,608.9788732394364 570,404.47183098591483 1125,404.47183098591483L1125,414.0845070422529C570,414.0845070422529 570,618.5915492957744 15,618.5915492957744Z" style="stroke: rgb(68, 68, 68); stroke-opacity: 1; fill: rgb(255, 151, 255); fill-opacity: 0.6; stroke-width: 0; opacity: 1;"/><path class="sankey-link" d="M15,635.070422535211C570,635.070422535211 570,703.5211267605631 1125,703.5211267605631L1125,711.7605633802815C570,711.7605633802815 570,643.3098591549294 15,643.3098591549294Z" style="stroke: rgb(68, 68, 68); stroke-opacity: 1; fill: rgb(255, 151, 255); fill-opacity: 0.6; stroke-width: 0; opacity: 1;"/><path class="sankey-link" d="M15,632.3239436619716C570,632.3239436619716 570,625.3521126760561 1125,625.3521126760561L1125,628.0985915492956C570,628.0985915492956 570,635.0704225352112 15,635.0704225352112Z" style="stroke: rgb(68, 68, 68); stroke-opacity: 1; fill: rgb(255, 151, 255); fill-opacity: 0.6; stroke-width: 0; opacity: 1;"/><path class="sankey-link" d="M15,595.2464788732393C570,595.2464788732393 570,249.40140845070343 1125,249.40140845070343L1125,263.1338028169006C570,263.1338028169006 570,608.9788732394366 15,608.9788732394366Z" style="stroke: rgb(68, 68, 68); stroke-opacity: 1; fill: rgb(255, 151, 255); fill-opacity: 0.6; stroke-width: 0; opacity: 1;"/><path class="sankey-link" d="M15,618.5915492957745C570,618.5915492957745 570,544.4366197183095 1125,544.4366197183095L1125,558.1690140845068C570,558.1690140845068 570,632.3239436619717 15,632.3239436619717Z" style="stroke: rgb(68, 68, 68); stroke-opacity: 1; fill: rgb(255, 151, 255); fill-opacity: 0.6; stroke-width: 0; opacity: 1;"/><path class="sankey-link" d="M15,706.2676056338028C570,706.2676056338028 570,422.3239436619712 1125,422.3239436619712L1125,423.697183098591C570,423.697183098591 570,707.6408450704225 15,707.6408450704225Z" style="stroke: rgb(68, 68, 68); stroke-opacity: 1; fill: rgb(255, 102, 146); fill-opacity: 0.6; stroke-width: 0; opacity: 1;"/><path class="sankey-link" d="M15,715.8802816901409C570,715.8802816901409 570,715.8802816901406 1125,715.8802816901406L1125,719.9999999999997C570,719.9999999999997 570,720 15,720Z" style="stroke: rgb(68, 68, 68); stroke-opacity: 1; fill: rgb(255, 102, 146); fill-opacity: 0.6; stroke-width: 0; opacity: 1;"/><path class="sankey-link" d="M15,711.7605633802817C570,711.7605633802817 570,634.9647887323941 1125,634.9647887323941L1125,639.0845070422532C570,639.0845070422532 570,715.8802816901408 15,715.8802816901408Z" style="stroke: rgb(68, 68, 68); stroke-opacity: 1; fill: rgb(255, 102, 146); fill-opacity: 0.6; stroke-width: 0; opacity: 1;"/><path class="sankey-link" d="M15,700.7746478873239C570,700.7746478873239 570,271.373239436619 1125,271.373239436619L1125,276.8661971830978C570,276.8661971830978 570,706.2676056338028 15,706.2676056338028Z" style="stroke: rgb(68, 68, 68); stroke-opacity: 1; fill: rgb(255, 102, 146); fill-opacity: 0.6; stroke-width: 0; opacity: 1;"/><path class="sankey-link" d="M15,707.6408450704225C570,707.6408450704225 570,558.1690140845067 1125,558.1690140845067L1125,562.2887323943658C570,562.2887323943658 570,711.7605633802816 15,711.7605633802816Z" style="stroke: rgb(68, 68, 68); stroke-opacity: 1; fill: rgb(255, 102, 146); fill-opacity: 0.6; stroke-width: 0; opacity: 1;"/><path class="sankey-link" d="M15,245.49295774647905C570,245.49295774647905 570,341.3028169014078 1125,341.3028169014078L1125,342.6760563380276C570,342.6760563380276 570,246.86619718309876 15,246.86619718309876Z" style="stroke: rgb(68, 68, 68); stroke-opacity: 1; fill: rgb(182, 232, 128); fill-opacity: 0.6; stroke-width: 0; opacity: 1;"/><path class="sankey-link" d="M15,241.37323943661988C570,241.37323943661988 570,157.39436619718234 1125,157.39436619718234L1125,161.51408450704147C570,161.51408450704147 570,245.49295774647902 15,245.49295774647902Z" style="stroke: rgb(68, 68, 68); stroke-opacity: 1; fill: rgb(182, 232, 128); fill-opacity: 0.6; stroke-width: 0; opacity: 1;"/><path class="sankey-link" d="M15,246.86619718309876C570,246.86619718309876 570,479.89436619718276 1125,479.89436619718276L1125,484.01408450704196C570,484.01408450704196 570,250.9859154929579 15,250.9859154929579Z" style="stroke: rgb(68, 68, 68); stroke-opacity: 1; fill: rgb(182, 232, 128); fill-opacity: 0.6; stroke-width: 0; opacity: 1;"/></g><g class="sankey-node-set" style="cursor: move;"><g class="sankey-node" transform="translate(1125.000,291.866)" style="opacity: 1;"><rect class="node-rect" width="15" height="131.83098591549322" style="stroke-width: 0.5; stroke: rgb(0, 0, 0); stroke-opacity: 1; fill: rgb(128, 128, 128); fill-opacity: 1;"/><text class="node-label" data-notex="1" x="0" y="0" text-anchor="end" transform="translate(-3.25,70.11549295774661)" style="cursor: default; font-family: 'Open Sans', verdana, arial, sans-serif; font-size: 12px; fill: rgb(42, 63, 95); fill-opacity: 1; white-space: pre; text-shadow: white 1px 1px 1px, white -1px -1px 1px, white 1px -1px 1px, white -1px 1px 1px;">dig</text></g><g class="sankey-node" transform="translate(1125.000,75.000)" style="opacity: 1;"><rect class="node-rect" width="15" height="201.86619718309868" style="stroke-width: 0.5; stroke: rgb(0, 0, 0); stroke-opacity: 1; fill: rgb(128, 128, 128); fill-opacity: 1;"/><text class="node-label" data-notex="1" x="0" y="0" text-anchor="end" transform="translate(-3.25,105.13309859154934)" style="cursor: default; font-family: 'Open Sans', verdana, arial, sans-serif; font-size: 12px; fill: rgb(42, 63, 95); fill-opacity: 1; white-space: pre; text-shadow: white 1px 1px 1px, white -1px -1px 1px, white 1px -1px 1px, white -1px 1px 1px;">walk</text></g><g class="sankey-node" transform="translate(1125.000,438.697)" style="opacity: 1;"><rect class="node-rect" width="15" height="123.59154929577471" style="stroke-width: 0.5; stroke: rgb(0, 0, 0); stroke-opacity: 1; fill: rgb(128, 128, 128); fill-opacity: 1;"/><text class="node-label" data-notex="1" x="0" y="0" text-anchor="end" transform="translate(-3.25,65.99577464788736)" style="cursor: default; font-family: 'Open Sans', verdana, arial, sans-serif; font-size: 12px; fill: rgb(42, 63, 95); fill-opacity: 1; white-space: pre; text-shadow: white 1px 1px 1px, white -1px -1px 1px, white 1px -1px 1px, white -1px 1px 1px;">wallclimb</text></g><g class="sankey-node" transform="translate(1125.000,654.085)" style="opacity: 1;"><rect class="node-rect" width="15" height="65.91549295774678" style="stroke-width: 0.5; stroke: rgb(0, 0, 0); stroke-opacity: 1; fill: rgb(128, 128, 128); fill-opacity: 1;"/><text class="node-label" data-notex="1" x="0" y="0" text-anchor="end" transform="translate(-3.25,37.15774647887339)" style="cursor: default; font-family: 'Open Sans', verdana, arial, sans-serif; font-size: 12px; fill: rgb(42, 63, 95); fill-opacity: 1; white-space: pre; text-shadow: white 1px 1px 1px, white -1px -1px 1px, white 1px -1px 1px, white -1px 1px 1px;">groom_front</text></g><g class="sankey-node" transform="translate(1125.000,577.289)" style="opacity: 1;"><rect class="node-rect" width="15" height="61.795774647887356" style="stroke-width: 0.5; stroke: rgb(0, 0, 0); stroke-opacity: 1; fill: rgb(128, 128, 128); fill-opacity: 1;"/><text class="node-label" data-notex="1" x="0" y="0" text-anchor="end" transform="translate(-3.25,35.09788732394368)" style="cursor: default; font-family: 'Open Sans', verdana, arial, sans-serif; font-size: 12px; fill: rgb(42, 63, 95); fill-opacity: 1; white-space: pre; text-shadow: white 1px 1px 1px, white -1px -1px 1px, white 1px -1px 1px, white -1px 1px 1px;">still</text></g><g class="sankey-node" transform="translate(0.000,493.732)" style="opacity: 1;"><rect class="node-rect" width="15" height="86.51408450704207" style="stroke-width: 0.5; stroke: rgb(0, 0, 0); stroke-opacity: 1; fill: rgb(99, 110, 250); fill-opacity: 1;"/><text class="node-label" data-notex="1" x="0" y="0" text-anchor="start" transform="translate(18.25,47.45704225352104)" style="cursor: default; font-family: 'Open Sans', verdana, arial, sans-serif; font-size: 12px; fill: rgb(42, 63, 95); fill-opacity: 1; white-space: pre; text-shadow: white 1px 1px 1px, white -1px -1px 1px, white 1px -1px 1px, white -1px 1px 1px;">Cla</text></g><g class="sankey-node" transform="translate(0.000,165.951)" style="opacity: 1;"><rect class="node-rect" width="15" height="60.422535211267586" style="stroke-width: 0.5; stroke: rgb(0, 0, 0); stroke-opacity: 1; fill: rgb(239, 85, 59); fill-opacity: 1;"/><text class="node-label" data-notex="1" x="0" y="0" text-anchor="start" transform="translate(18.25,34.411267605633796)" style="cursor: default; font-family: 'Open Sans', verdana, arial, sans-serif; font-size: 12px; fill: rgb(42, 63, 95); fill-opacity: 1; white-space: pre; text-shadow: white 1px 1px 1px, white -1px -1px 1px, white 1px -1px 1px, white -1px 1px 1px;">LC</text></g><g class="sankey-node" transform="translate(0.000,0.000)" style="opacity: 1;"><rect class="node-rect" width="15" height="101.6197183098592" style="stroke-width: 0.5; stroke: rgb(0, 0, 0); stroke-opacity: 1; fill: rgb(0, 204, 150); fill-opacity: 1;"/><text class="node-label" data-notex="1" x="0" y="0" text-anchor="start" transform="translate(18.25,55.0098591549296)" style="cursor: default; font-family: 'Open Sans', verdana, arial, sans-serif; font-size: 12px; fill: rgb(42, 63, 95); fill-opacity: 1; white-space: pre; text-shadow: white 1px 1px 1px, white -1px -1px 1px, white 1px -1px 1px, white -1px 1px 1px;">Str</text></g><g class="sankey-node" transform="translate(0.000,265.986)" style="opacity: 1;"><rect class="node-rect" width="15" height="50.809859154929654" style="stroke-width: 0.5; stroke: rgb(0, 0, 0); stroke-opacity: 1; fill: rgb(171, 99, 250); fill-opacity: 1;"/><text class="node-label" data-notex="1" x="0" y="0" text-anchor="start" transform="translate(18.25,29.604929577464826)" style="cursor: default; font-family: 'Open Sans', verdana, arial, sans-serif; font-size: 12px; fill: rgb(42, 63, 95); fill-opacity: 1; white-space: pre; text-shadow: white 1px 1px 1px, white -1px -1px 1px, white 1px -1px 1px, white -1px 1px 1px;">NAc</text></g><g class="sankey-node" transform="translate(0.000,331.796)" style="opacity: 1;"><rect class="node-rect" width="15" height="146.93661971830988" style="stroke-width: 0.5; stroke: rgb(0, 0, 0); stroke-opacity: 1; fill: rgb(255, 161, 90); fill-opacity: 1;"/><text class="node-label" data-notex="1" x="0" y="0" text-anchor="start" transform="translate(18.25,77.66830985915495)" style="cursor: default; font-family: 'Open Sans', verdana, arial, sans-serif; font-size: 12px; fill: rgb(42, 63, 95); fill-opacity: 1; white-space: pre; text-shadow: white 1px 1px 1px, white -1px -1px 1px, white 1px -1px 1px, white -1px 1px 1px;">VTA</text></g><g class="sankey-node" transform="translate(0.000,116.620)" style="opacity: 1;"><rect class="node-rect" width="15" height="34.33098591549299" style="stroke-width: 0.5; stroke: rgb(0, 0, 0); stroke-opacity: 1; fill: rgb(25, 211, 243); fill-opacity: 1;"/><text class="node-label" data-notex="1" x="0" y="0" text-anchor="start" transform="translate(18.25,21.365492957746493)" style="cursor: default; font-family: 'Open Sans', verdana, arial, sans-serif; font-size: 12px; fill: rgb(42, 63, 95); fill-opacity: 1; white-space: pre; text-shadow: white 1px 1px 1px, white -1px -1px 1px, white 1px -1px 1px, white -1px 1px 1px;">BLA</text></g><g class="sankey-node" transform="translate(0.000,700.775)" style="opacity: 1;"><rect class="node-rect" width="15" height="19.22535211267609" style="stroke-width: 0.5; stroke: rgb(0, 0, 0); stroke-opacity: 1; fill: rgb(255, 102, 146); fill-opacity: 1;"/><text class="node-label" data-notex="1" x="0" y="0" text-anchor="start" transform="translate(18.25,13.812676056338045)" style="cursor: default; font-family: 'Open Sans', verdana, arial, sans-serif; font-size: 12px; fill: rgb(42, 63, 95); fill-opacity: 1; white-space: pre; text-shadow: white 1px 1px 1px, white -1px -1px 1px, white 1px -1px 1px, white -1px 1px 1px;">dPAG</text></g><g class="sankey-node" transform="translate(0.000,241.373)" style="opacity: 1;"><rect class="node-rect" width="15" height="9.612676056337818" style="stroke-width: 0.5; stroke: rgb(0, 0, 0); stroke-opacity: 1; fill: rgb(182, 232, 128); fill-opacity: 1;"/><text class="node-label" data-notex="1" x="0" y="0" text-anchor="start" transform="translate(18.25,9.006338028168908)" style="cursor: default; font-family: 'Open Sans', verdana, arial, sans-serif; font-size: 12px; fill: rgb(42, 63, 95); fill-opacity: 1; white-space: pre; text-shadow: white 1px 1px 1px, white -1px -1px 1px, white 1px -1px 1px, white -1px 1px 1px;">lHb</text></g><g class="sankey-node" transform="translate(0.000,595.246)" style="opacity: 1;"><rect class="node-rect" width="15" height="48.063380281690115" style="stroke-width: 0.5; stroke: rgb(0, 0, 0); stroke-opacity: 1; fill: rgb(255, 151, 255); fill-opacity: 1;"/><text class="node-label" data-notex="1" x="0" y="0" text-anchor="start" transform="translate(18.25,28.231690140845057)" style="cursor: default; font-family: 'Open Sans', verdana, arial, sans-serif; font-size: 12px; fill: rgb(42, 63, 95); fill-opacity: 1; white-space: pre; text-shadow: white 1px 1px 1px, white -1px -1px 1px, white 1px -1px 1px, white -1px 1px 1px;">cPFC</text></g><g class="sankey-node" transform="translate(0.000,658.310)" style="opacity: 1;"><rect class="node-rect" width="15" height="27.46478873239448" style="stroke-width: 0.5; stroke: rgb(0, 0, 0); stroke-opacity: 1; fill: rgb(254, 203, 82); fill-opacity: 1;"/><text class="node-label" data-notex="1" x="0" y="0" text-anchor="start" transform="translate(18.25,17.93239436619724)" style="cursor: default; font-family: 'Open Sans', verdana, arial, sans-serif; font-size: 12px; fill: rgb(42, 63, 95); fill-opacity: 1; white-space: pre; text-shadow: white 1px 1px 1px, white -1px -1px 1px, white 1px -1px 1px, white -1px 1px 1px;">LHyp</text></g></g></g><defs id="topdefs-56ff8f"><g class="clips"/></defs><g class="layer-above"><g class="imagelayer"/><g class="shapelayer"/></g><g class="infolayer"><g class="g-gtitle"/><g class="first-render"/></g></svg>