<svg class="main-svg" xmlns="http://www.w3.org/2000/svg" xmlns:xlink="http://www.w3.org/1999/xlink" width="1300" height="900" viewBox="0 0 1300 900" style=""><rect x="0" y="0" width="1300" height="900" style="fill: rgb(255, 255, 255); fill-opacity: 1;"/><defs id="defs-e7956b"><g class="clips"/><g class="gradients"/><g class="patterns"/></defs><g class="bglayer"/><g class="layer-below"><g class="imagelayer"/><g class="shapelayer"/></g><g class="cartesianlayer"/><g class="polarlayer"/><g class="smithlayer"/><g class="ternarylayer"/><g class="geolayer"/><g class="funnelarealayer"/><g class="pielayer"/><g class="iciclelayer"/><g class="treemaplayer"/><g class="sunburstlayer"/><g class="glimages"/><g class="sankey" transform="translate(80,100)matrix(1 0 0 1 0 0)" style="box-sizing: content-box; position: absolute; left: 0px; shape-rendering: geometricprecision; pointer-events: none;"><g class="sankey-links" style="fill: none;"><path class="sankey-link" d="M383.70000000000005,13.71338028169013C564.3000000000001,13.71338028169013 564.3000000000001,19.876056338028263 744.9000000000001,19.876056338028263L744.9000000000001,29.488732394366295C564.3000000000001,29.488732394366295 564.3000000000001,23.32605633802816 383.70000000000005,23.32605633802816Z" style="stroke: rgb(68, 68, 68); stroke-opacity: 1; fill: rgb(25, 211, 243); fill-opacity: 0.6; stroke-width: 0; opacity: 1;"/><path class="sankey-link" d="M383.70000000000005,23.326056338028156C564.3000000000001,23.326056338028156 564.3000000000001,259.9415492957746 744.9000000000001,259.9415492957746L744.9000000000001,261.3147887323944C564.3000000000001,261.3147887323944 564.3000000000001,24.699295774647876 383.70000000000005,24.699295774647876Z" style="stroke: rgb(68, 68, 68); stroke-opacity: 1; fill: rgb(25, 211, 243); fill-opacity: 0.6; stroke-width: 0; opacity: 1;"/><path class="sankey-link" d="M383.70000000000005,24.69929577464788C564.3000000000001,24.69929577464788 564.3000000000001,347.0894366197184 744.9000000000001,347.0894366197184L744.9000000000001,362.1950704225353C564.3000000000001,362.1950704225353 564.3000000000001,39.804929577464776 383.70000000000005,39.804929577464776Z" style="stroke: rgb(68, 68, 68); stroke-opacity: 1; fill: rgb(25, 211, 243); fill-opacity: 0.6; stroke-width: 0; opacity: 1;"/><path class="sankey-link" d="M383.70000000000005,39.804929577464776C564.3000000000001,39.804929577464776 564.3000000000001,576.8746478873239 744.9000000000001,576.8746478873239L744.9000000000001,585.1140845070423C564.3000000000001,585.1140845070423 564.3000000000001,48.04436619718308 383.70000000000005,48.04436619718308Z" style="stroke: rgb(68, 68, 68); stroke-opacity: 1; fill: rgb(25, 211, 243); fill-opacity: 0.6; stroke-width: 0; opacity: 1;"/><path class="sankey-link" d="M383.70000000000005,60.02746478873245C564.3000000000001,60.02746478873245 564.3000000000001,29.488732394366288 744.9000000000001,29.488732394366288L744.9000000000001,47.340845070422624C564.3000000000001,47.340845070422624 564.3000000000001,77.87957746478878 383.70000000000005,77.87957746478878Z" style="stroke: rgb(68, 68, 68); stroke-opacity: 1; fill: rgb(99, 110, 250); fill-opacity: 0.6; stroke-width: 0; opacity: 1;"/><path class="sankey-link" d="M383.70000000000005,77.8795774647888C564.3000000000001,77.8795774647888 564.3000000000001,174.32112676056335 744.9000000000001,174.32112676056335L744.9000000000001,186.68028169014082C564.3000000000001,186.68028169014082 564.3000000000001,90.23873239436627 383.70000000000005,90.23873239436627Z" style="stroke: rgb(68, 68, 68); stroke-opacity: 1; fill: rgb(99, 110, 250); fill-opacity: 0.6; stroke-width: 0; opacity: 1;"/><path class="sankey-link" d="M383.70000000000005,90.23873239436625C564.3000000000001,90.23873239436625 564.3000000000001,261.31478873239433 744.9000000000001,261.31478873239433L744.9000000000001,268.18098591549295C564.3000000000001,268.18098591549295 564.3000000000001,97.10492957746484 383.70000000000005,97.10492957746484Z" style="stroke: rgb(68, 68, 68); stroke-opacity: 1; fill: rgb(99, 110, 250); fill-opacity: 0.6; stroke-width: 0; opacity: 1;"/><path class="sankey-link" d="M383.70000000000005,97.10492957746484C564.3000000000001,97.10492957746484 564.3000000000001,362.1950704225353 744.9000000000001,362.1950704225353L744.9000000000001,391.03309859154945C564.3000000000001,391.03309859154945 564.3000000000001,125.94295774647892 383.70000000000005,125.94295774647892Z" style="stroke: rgb(68, 68, 68); stroke-opacity: 1; fill: rgb(99, 110, 250); fill-opacity: 0.6; stroke-width: 0; opacity: 1;"/><path class="sankey-link" d="M383.70000000000005,125.94295774647891C564.3000000000001,125.94295774647891 564.3000000000001,585.1140845070422 744.9000000000001,585.1140845070422L744.9000000000001,605.7126760563381C564.3000000000001,605.7126760563381 564.3000000000001,146.54154929577467 383.70000000000005,146.54154929577467Z" style="stroke: rgb(68, 68, 68); stroke-opacity: 1; fill: rgb(99, 110, 250); fill-opacity: 0.6; stroke-width: 0; opacity: 1;"/><path class="sankey-link" d="M383.70000000000005,158.00281690140847C564.3000000000001,158.00281690140847 564.3000000000001,47.34084507042263 744.9000000000001,47.34084507042263L744.9000000000001,65.19295774647897C564.3000000000001,65.19295774647897 564.3000000000001,175.8549295774648 383.70000000000005,175.8549295774648Z" style="stroke: rgb(68, 68, 68); stroke-opacity: 1; fill: rgb(239, 85, 59); fill-opacity: 0.6; stroke-width: 0; opacity: 1;"/><path class="sankey-link" d="M383.70000000000005,175.85492957746482C564.3000000000001,175.85492957746482 564.3000000000001,186.68028169014082 744.9000000000001,186.68028169014082L744.9000000000001,193.54647887323938C564.3000000000001,193.54647887323938 564.3000000000001,182.72112676056338 383.70000000000005,182.72112676056338Z" style="stroke: rgb(68, 68, 68); stroke-opacity: 1; fill: rgb(239, 85, 59); fill-opacity: 0.6; stroke-width: 0; opacity: 1;"/><path class="sankey-link" d="M383.70000000000005,182.7211267605634C564.3000000000001,182.7211267605634 564.3000000000001,268.1809859154929 744.9000000000001,268.1809859154929L744.9000000000001,270.9274647887323C564.3000000000001,270.9274647887323 564.3000000000001,185.46760563380283 383.70000000000005,185.46760563380283Z" style="stroke: rgb(68, 68, 68); stroke-opacity: 1; fill: rgb(239, 85, 59); fill-opacity: 0.6; stroke-width: 0; opacity: 1;"/><path class="sankey-link" d="M383.70000000000005,185.46760563380283C564.3000000000001,185.46760563380283 564.3000000000001,391.0330985915494 744.9000000000001,391.0330985915494L744.9000000000001,414.37816901408456C564.3000000000001,414.37816901408456 564.3000000000001,208.81267605633806 383.70000000000005,208.81267605633806Z" style="stroke: rgb(68, 68, 68); stroke-opacity: 1; fill: rgb(239, 85, 59); fill-opacity: 0.6; stroke-width: 0; opacity: 1;"/><path class="sankey-link" d="M383.70000000000005,208.81267605633803C564.3000000000001,208.81267605633803 564.3000000000001,605.712676056338 744.9000000000001,605.712676056338L744.9000000000001,615.3253521126759C564.3000000000001,615.3253521126759 564.3000000000001,218.42535211267608 383.70000000000005,218.42535211267608Z" style="stroke: rgb(68, 68, 68); stroke-opacity: 1; fill: rgb(239, 85, 59); fill-opacity: 0.6; stroke-width: 0; opacity: 1;"/><path class="sankey-link" d="M383.70000000000005,231.0676056338028C564.3000000000001,231.0676056338028 564.3000000000001,65.19295774647897 744.9000000000001,65.19295774647897L744.9000000000001,73.43239436619727C564.3000000000001,73.43239436619727 564.3000000000001,239.30704225352113 383.70000000000005,239.30704225352113Z" style="stroke: rgb(68, 68, 68); stroke-opacity: 1; fill: rgb(254, 203, 82); fill-opacity: 0.6; stroke-width: 0; opacity: 1;"/><path class="sankey-link" d="M383.70000000000005,239.3070422535211C564.3000000000001,239.3070422535211 564.3000000000001,193.5464788732394 744.9000000000001,193.5464788732394L744.9000000000001,197.66619718309855C564.3000000000001,197.66619718309855 564.3000000000001,243.42676056338024 383.70000000000005,243.42676056338024Z" style="stroke: rgb(68, 68, 68); stroke-opacity: 1; fill: rgb(254, 203, 82); fill-opacity: 0.6; stroke-width: 0; opacity: 1;"/><path class="sankey-link" d="M383.70000000000005,243.42676056338027C564.3000000000001,243.42676056338027 564.3000000000001,270.9274647887323 744.9000000000001,270.9274647887323L744.9000000000001,277.79366197183094C564.3000000000001,277.79366197183094 564.3000000000001,250.29295774647883 383.70000000000005,250.29295774647883Z" style="stroke: rgb(68, 68, 68); stroke-opacity: 1; fill: rgb(254, 203, 82); fill-opacity: 0.6; stroke-width: 0; opacity: 1;"/><path class="sankey-link" d="M383.70000000000005,250.29295774647886C564.3000000000001,250.29295774647886 564.3000000000001,414.3781690140846 744.9000000000001,414.3781690140846L744.9000000000001,422.6176056338029C564.3000000000001,422.6176056338029 564.3000000000001,258.5323943661972 383.70000000000005,258.5323943661972Z" style="stroke: rgb(68, 68, 68); stroke-opacity: 1; fill: rgb(254, 203, 82); fill-opacity: 0.6; stroke-width: 0; opacity: 1;"/><path class="sankey-link" d="M383.70000000000005,271.3669014084507C564.3000000000001,271.3669014084507 564.3000000000001,73.43239436619727 744.9000000000001,73.43239436619727L744.9000000000001,87.16478873239446C564.3000000000001,87.16478873239446 564.3000000000001,285.0992957746478 383.70000000000005,285.0992957746478Z" style="stroke: rgb(68, 68, 68); stroke-opacity: 1; fill: rgb(171, 99, 250); fill-opacity: 0.6; stroke-width: 0; opacity: 1;"/><path class="sankey-link" d="M383.70000000000005,285.0992957746479C564.3000000000001,285.0992957746479 564.3000000000001,197.66619718309857 744.9000000000001,197.66619718309857L744.9000000000001,201.7859154929577C564.3000000000001,201.7859154929577 564.3000000000001,289.2190140845071 383.70000000000005,289.2190140845071Z" style="stroke: rgb(68, 68, 68); stroke-opacity: 1; fill: rgb(171, 99, 250); fill-opacity: 0.6; stroke-width: 0; opacity: 1;"/><path class="sankey-link" d="M383.70000000000005,289.219014084507C564.3000000000001,289.219014084507 564.3000000000001,277.7936619718309 744.9000000000001,277.7936619718309L744.9000000000001,283.28661971830974C564.3000000000001,283.28661971830974 564.3000000000001,294.7119718309859 383.70000000000005,294.7119718309859Z" style="stroke: rgb(68, 68, 68); stroke-opacity: 1; fill: rgb(171, 99, 250); fill-opacity: 0.6; stroke-width: 0; opacity: 1;"/><path class="sankey-link" d="M383.70000000000005,294.7119718309859C564.3000000000001,294.7119718309859 564.3000000000001,422.61760563380295 744.9000000000001,422.61760563380295L744.9000000000001,440.4697183098593C564.3000000000001,440.4697183098593 564.3000000000001,312.5640845070422 383.70000000000005,312.5640845070422Z" style="stroke: rgb(68, 68, 68); stroke-opacity: 1; fill: rgb(171, 99, 250); fill-opacity: 0.6; stroke-width: 0; opacity: 1;"/><path class="sankey-link" d="M383.70000000000005,312.5640845070422C564.3000000000001,312.5640845070422 564.3000000000001,615.325352112676 744.9000000000001,615.325352112676L744.9000000000001,624.9380281690139C564.3000000000001,624.9380281690139 564.3000000000001,322.17676056338024 383.70000000000005,322.17676056338024Z" style="stroke: rgb(68, 68, 68); stroke-opacity: 1; fill: rgb(171, 99, 250); fill-opacity: 0.6; stroke-width: 0; opacity: 1;"/><path class="sankey-link" d="M383.70000000000005,333.5281690140847C564.3000000000001,333.5281690140847 564.3000000000001,87.16478873239446 744.9000000000001,87.16478873239446L744.9000000000001,109.13661971830994C564.3000000000001,109.13661971830994 564.3000000000001,355.5000000000002 383.70000000000005,355.5000000000002Z" style="stroke: rgb(68, 68, 68); stroke-opacity: 1; fill: rgb(0, 204, 150); fill-opacity: 0.6; stroke-width: 0; opacity: 1;"/><path class="sankey-link" d="M383.70000000000005,355.5000000000002C564.3000000000001,355.5000000000002 564.3000000000001,201.78591549295774 744.9000000000001,201.78591549295774L744.9000000000001,207.2788732394366C564.3000000000001,207.2788732394366 564.3000000000001,360.9929577464791 383.70000000000005,360.9929577464791Z" style="stroke: rgb(68, 68, 68); stroke-opacity: 1; fill: rgb(0, 204, 150); fill-opacity: 0.6; stroke-width: 0; opacity: 1;"/><path class="sankey-link" d="M383.70000000000005,360.9929577464791C564.3000000000001,360.9929577464791 564.3000000000001,283.28661971830974 744.9000000000001,283.28661971830974L744.9000000000001,290.15281690140836C564.3000000000001,290.15281690140836 564.3000000000001,367.8591549295777 383.70000000000005,367.8591549295777Z" style="stroke: rgb(68, 68, 68); stroke-opacity: 1; fill: rgb(0, 204, 150); fill-opacity: 0.6; stroke-width: 0; opacity: 1;"/><path class="sankey-link" d="M383.70000000000005,367.85915492957764C564.3000000000001,367.85915492957764 564.3000000000001,440.4697183098593 744.9000000000001,440.4697183098593L744.9000000000001,484.4133802816903C564.3000000000001,484.4133802816903 564.3000000000001,411.8028169014087 383.70000000000005,411.8028169014087Z" style="stroke: rgb(68, 68, 68); stroke-opacity: 1; fill: rgb(0, 204, 150); fill-opacity: 0.6; stroke-width: 0; opacity: 1;"/><path class="sankey-link" d="M383.70000000000005,411.8028169014086C564.3000000000001,411.8028169014086 564.3000000000001,624.938028169014 744.9000000000001,624.938028169014L744.9000000000001,648.2830985915492C564.3000000000001,648.2830985915492 564.3000000000001,435.1478873239438 383.70000000000005,435.1478873239438Z" style="stroke: rgb(68, 68, 68); stroke-opacity: 1; fill: rgb(0, 204, 150); fill-opacity: 0.6; stroke-width: 0; opacity: 1;"/><path class="sankey-link" d="M383.70000000000005,444.5767605633804C564.3000000000001,444.5767605633804 564.3000000000001,109.13661971830994 744.9000000000001,109.13661971830994L744.9000000000001,139.34788732394375C564.3000000000001,139.34788732394375 564.3000000000001,474.7880281690142 383.70000000000005,474.7880281690142Z" style="stroke: rgb(68, 68, 68); stroke-opacity: 1; fill: rgb(255, 161, 90); fill-opacity: 0.6; stroke-width: 0; opacity: 1;"/><path class="sankey-link" d="M383.70000000000005,474.7880281690142C564.3000000000001,474.7880281690142 564.3000000000001,207.27887323943662 744.9000000000001,207.27887323943662L744.9000000000001,227.87746478873237C564.3000000000001,227.87746478873237 564.3000000000001,495.38661971830993 383.70000000000005,495.38661971830993Z" style="stroke: rgb(68, 68, 68); stroke-opacity: 1; fill: rgb(255, 161, 90); fill-opacity: 0.6; stroke-width: 0; opacity: 1;"/><path class="sankey-link" d="M383.70000000000005,495.38661971830993C564.3000000000001,495.38661971830993 564.3000000000001,290.1528169014083 744.9000000000001,290.1528169014083L744.9000000000001,314.87112676056324C564.3000000000001,314.87112676056324 564.3000000000001,520.1049295774649 383.70000000000005,520.1049295774649Z" style="stroke: rgb(68, 68, 68); stroke-opacity: 1; fill: rgb(255, 161, 90); fill-opacity: 0.6; stroke-width: 0; opacity: 1;"/><path class="sankey-link" d="M383.70000000000005,520.1049295774649C564.3000000000001,520.1049295774649 564.3000000000001,484.41338028169025 744.9000000000001,484.41338028169025L744.9000000000001,525.6105633802817C564.3000000000001,525.6105633802817 564.3000000000001,561.3021126760564 383.70000000000005,561.3021126760564Z" style="stroke: rgb(68, 68, 68); stroke-opacity: 1; fill: rgb(255, 161, 90); fill-opacity: 0.6; stroke-width: 0; opacity: 1;"/><path class="sankey-link" d="M383.70000000000005,561.3021126760564C564.3000000000001,561.3021126760564 564.3000000000001,648.2830985915492 744.9000000000001,648.2830985915492L744.9000000000001,678.494366197183C564.3000000000001,678.494366197183 564.3000000000001,591.5133802816902 383.70000000000005,591.5133802816902Z" style="stroke: rgb(68, 68, 68); stroke-opacity: 1; fill: rgb(255, 161, 90); fill-opacity: 0.6; stroke-width: 0; opacity: 1;"/><path class="sankey-link" d="M383.70000000000005,602.0133802816902C564.3000000000001,602.0133802816902 564.3000000000001,139.34788732394375 744.9000000000001,139.34788732394375L744.9000000000001,148.9605633802818C564.3000000000001,148.9605633802818 564.3000000000001,611.6260563380281 383.70000000000005,611.6260563380281Z" style="stroke: rgb(68, 68, 68); stroke-opacity: 1; fill: rgb(255, 151, 255); fill-opacity: 0.6; stroke-width: 0; opacity: 1;"/><path class="sankey-link" d="M383.70000000000005,611.6260563380282C564.3000000000001,611.6260563380282 564.3000000000001,227.8774647887324 744.9000000000001,227.8774647887324L744.9000000000001,236.11690140845073C564.3000000000001,236.11690140845073 564.3000000000001,619.8654929577466 383.70000000000005,619.8654929577466Z" style="stroke: rgb(68, 68, 68); stroke-opacity: 1; fill: rgb(255, 151, 255); fill-opacity: 0.6; stroke-width: 0; opacity: 1;"/><path class="sankey-link" d="M383.70000000000005,619.8654929577465C564.3000000000001,619.8654929577465 564.3000000000001,314.87112676056324 744.9000000000001,314.87112676056324L744.9000000000001,317.61760563380267C564.3000000000001,317.61760563380267 564.3000000000001,622.611971830986 383.70000000000005,622.611971830986Z" style="stroke: rgb(68, 68, 68); stroke-opacity: 1; fill: rgb(255, 151, 255); fill-opacity: 0.6; stroke-width: 0; opacity: 1;"/><path class="sankey-link" d="M383.70000000000005,622.6119718309859C564.3000000000001,622.6119718309859 564.3000000000001,525.6105633802817 744.9000000000001,525.6105633802817L744.9000000000001,539.342957746479C564.3000000000001,539.342957746479 564.3000000000001,636.3443661971831 383.70000000000005,636.3443661971831Z" style="stroke: rgb(68, 68, 68); stroke-opacity: 1; fill: rgb(255, 151, 255); fill-opacity: 0.6; stroke-width: 0; opacity: 1;"/><path class="sankey-link" d="M383.70000000000005,636.344366197183C564.3000000000001,636.344366197183 564.3000000000001,678.494366197183 744.9000000000001,678.494366197183L744.9000000000001,692.2267605633803C564.3000000000001,692.2267605633803 564.3000000000001,650.0767605633803 383.70000000000005,650.0767605633803Z" style="stroke: rgb(68, 68, 68); stroke-opacity: 1; fill: rgb(255, 151, 255); fill-opacity: 0.6; stroke-width: 0; opacity: 1;"/><path class="sankey-link" d="M383.70000000000005,663.130985915493C564.3000000000001,663.130985915493 564.3000000000001,148.96056338028177 744.9000000000001,148.96056338028177L744.9000000000001,150.33380281690148C564.3000000000001,150.33380281690148 564.3000000000001,664.5042253521128 383.70000000000005,664.5042253521128Z" style="stroke: rgb(68, 68, 68); stroke-opacity: 1; fill: rgb(255, 102, 146); fill-opacity: 0.6; stroke-width: 0; opacity: 1;"/><path class="sankey-link" d="M383.70000000000005,664.5042253521128C564.3000000000001,664.5042253521128 564.3000000000001,236.1169014084507 744.9000000000001,236.1169014084507L744.9000000000001,240.23661971830984C564.3000000000001,240.23661971830984 564.3000000000001,668.6239436619719 383.70000000000005,668.6239436619719Z" style="stroke: rgb(68, 68, 68); stroke-opacity: 1; fill: rgb(255, 102, 146); fill-opacity: 0.6; stroke-width: 0; opacity: 1;"/><path class="sankey-link" d="M383.70000000000005,668.623943661972C564.3000000000001,668.623943661972 564.3000000000001,317.61760563380267 744.9000000000001,317.61760563380267L744.9000000000001,321.73732394366186C564.3000000000001,321.73732394366186 564.3000000000001,672.7436619718311 383.70000000000005,672.7436619718311Z" style="stroke: rgb(68, 68, 68); stroke-opacity: 1; fill: rgb(255, 102, 146); fill-opacity: 0.6; stroke-width: 0; opacity: 1;"/><path class="sankey-link" d="M383.70000000000005,672.7436619718312C564.3000000000001,672.7436619718312 564.3000000000001,539.3429577464789 744.9000000000001,539.3429577464789L744.9000000000001,544.8359154929577C564.3000000000001,544.8359154929577 564.3000000000001,678.2366197183101 383.70000000000005,678.2366197183101Z" style="stroke: rgb(68, 68, 68); stroke-opacity: 1; fill: rgb(255, 102, 146); fill-opacity: 0.6; stroke-width: 0; opacity: 1;"/><path class="sankey-link" d="M383.70000000000005,678.2366197183101C564.3000000000001,678.2366197183101 564.3000000000001,692.2267605633801 744.9000000000001,692.2267605633801L744.9000000000001,696.3464788732392C564.3000000000001,696.3464788732392 564.3000000000001,682.3563380281691 383.70000000000005,682.3563380281691Z" style="stroke: rgb(68, 68, 68); stroke-opacity: 1; fill: rgb(255, 102, 146); fill-opacity: 0.6; stroke-width: 0; opacity: 1;"/><path class="sankey-link" d="M383.70000000000005,696.1795774647888C564.3000000000001,696.1795774647888 564.3000000000001,150.33380281690148 744.9000000000001,150.33380281690148L744.9000000000001,151.7070422535212C564.3000000000001,151.7070422535212 564.3000000000001,697.5528169014086 383.70000000000005,697.5528169014086Z" style="stroke: rgb(68, 68, 68); stroke-opacity: 1; fill: rgb(182, 232, 128); fill-opacity: 0.6; stroke-width: 0; opacity: 1;"/><path class="sankey-link" d="M383.70000000000005,697.5528169014086C564.3000000000001,697.5528169014086 564.3000000000001,544.8359154929577 744.9000000000001,544.8359154929577L744.9000000000001,548.9556338028168C564.3000000000001,548.9556338028168 564.3000000000001,701.6725352112677 383.70000000000005,701.6725352112677Z" style="stroke: rgb(68, 68, 68); stroke-opacity: 1; fill: rgb(182, 232, 128); fill-opacity: 0.6; stroke-width: 0; opacity: 1;"/><path class="sankey-link" d="M383.70000000000005,701.6725352112678C564.3000000000001,701.6725352112678 564.3000000000001,696.3464788732393 744.9000000000001,696.3464788732393L744.9000000000001,700.4661971830984C564.3000000000001,700.4661971830984 564.3000000000001,705.7922535211269 383.70000000000005,705.7922535211269Z" style="stroke: rgb(68, 68, 68); stroke-opacity: 1; fill: rgb(182, 232, 128); fill-opacity: 0.6; stroke-width: 0; opacity: 1;"/></g><g class="sankey-node-set" style="cursor: ns-resize;"><g class="sankey-node" transform="translate(744.900,19.876)" style="opacity: 1;"><rect class="node-rect" width="15" height="131.83098591549276" style="stroke-width: 0.5; stroke: rgb(0, 0, 0); stroke-opacity: 1; fill: rgb(128, 128, 128); fill-opacity: 1;"/><text class="node-label" data-notex="1" x="0" y="0" text-anchor="end" transform="translate(-3.25,70.11549295774638)" style="cursor: default; font-family: 'Open Sans', verdana, arial, sans-serif; font-size: 12px; fill: rgb(42, 63, 95); fill-opacity: 1; white-space: pre; text-shadow: white 1px 1px 1px, white -1px -1px 1px, white 1px -1px 1px, white -1px 1px 1px;">dig</text></g><g class="sankey-node" transform="translate(744.900,174.321)" style="opacity: 1;"><rect class="node-rect" width="15" height="65.91549295774655" style="stroke-width: 0.5; stroke: rgb(0, 0, 0); stroke-opacity: 1; fill: rgb(128, 128, 128); fill-opacity: 1;"/><text class="node-label" data-notex="1" x="0" y="0" text-anchor="end" transform="translate(-3.25,37.15774647887328)" style="cursor: default; font-family: 'Open Sans', verdana, arial, sans-serif; font-size: 12px; fill: rgb(42, 63, 95); fill-opacity: 1; white-space: pre; text-shadow: white 1px 1px 1px, white -1px -1px 1px, white 1px -1px 1px, white -1px 1px 1px;">groom_front</text></g><g class="sankey-node" transform="translate(744.900,259.942)" style="opacity: 1;"><rect class="node-rect" width="15" height="61.795774647887356" style="stroke-width: 0.5; stroke: rgb(0, 0, 0); stroke-opacity: 1; fill: rgb(128, 128, 128); fill-opacity: 1;"/><text class="node-label" data-notex="1" x="0" y="0" text-anchor="end" transform="translate(-3.25,35.09788732394368)" style="cursor: default; font-family: 'Open Sans', verdana, arial, sans-serif; font-size: 12px; fill: rgb(42, 63, 95); fill-opacity: 1; white-space: pre; text-shadow: white 1px 1px 1px, white -1px -1px 1px, white 1px -1px 1px, white -1px 1px 1px;">still</text></g><g class="sankey-node" transform="translate(744.900,347.089)" style="opacity: 1;"><rect class="node-rect" width="15" height="201.8661971830984" style="stroke-width: 0.5; stroke: rgb(0, 0, 0); stroke-opacity: 1; fill: rgb(128, 128, 128); fill-opacity: 1;"/><text class="node-label" data-notex="1" x="0" y="0" text-anchor="end" transform="translate(-3.25,105.1330985915492)" style="cursor: default; font-family: 'Open Sans', verdana, arial, sans-serif; font-size: 12px; fill: rgb(42, 63, 95); fill-opacity: 1; white-space: pre; text-shadow: white 1px 1px 1px, white -1px -1px 1px, white 1px -1px 1px, white -1px 1px 1px;">walk</text></g><g class="sankey-node" transform="translate(744.900,576.875)" style="opacity: 1;"><rect class="node-rect" width="15" height="123.59154929577471" style="stroke-width: 0.5; stroke: rgb(0, 0, 0); stroke-opacity: 1; fill: rgb(128, 128, 128); fill-opacity: 1;"/><text class="node-label" data-notex="1" x="0" y="0" text-anchor="end" transform="translate(-3.25,65.99577464788736)" style="cursor: default; font-family: 'Open Sans', verdana, arial, sans-serif; font-size: 12px; fill: rgb(42, 63, 95); fill-opacity: 1; white-space: pre; text-shadow: white 1px 1px 1px, white -1px -1px 1px, white 1px -1px 1px, white -1px 1px 1px;">wallclimb</text></g><g class="sankey-node" transform="translate(368.700,13.713)" style="opacity: 1;"><rect class="node-rect" width="15" height="34.33098591549299" style="stroke-width: 0.5; stroke: rgb(0, 0, 0); stroke-opacity: 1; fill: rgb(25, 211, 243); fill-opacity: 1;"/><text class="node-label" data-notex="1" x="0" y="0" text-anchor="start" transform="translate(18.25,21.365492957746493)" style="cursor: default; font-family: 'Open Sans', verdana, arial, sans-serif; font-size: 12px; fill: rgb(42, 63, 95); fill-opacity: 1; white-space: pre; text-shadow: white 1px 1px 1px, white -1px -1px 1px, white 1px -1px 1px, white -1px 1px 1px;">BLA</text></g><g class="sankey-node" transform="translate(368.700,60.027)" style="opacity: 1;"><rect class="node-rect" width="15" height="86.51408450704213" style="stroke-width: 0.5; stroke: rgb(0, 0, 0); stroke-opacity: 1; fill: rgb(99, 110, 250); fill-opacity: 1;"/><text class="node-label" data-notex="1" x="0" y="0" text-anchor="start" transform="translate(18.25,47.45704225352107)" style="cursor: default; font-family: 'Open Sans', verdana, arial, sans-serif; font-size: 12px; fill: rgb(42, 63, 95); fill-opacity: 1; white-space: pre; text-shadow: white 1px 1px 1px, white -1px -1px 1px, white 1px -1px 1px, white -1px 1px 1px;">Cla</text></g><g class="sankey-node" transform="translate(368.700,158.003)" style="opacity: 1;"><rect class="node-rect" width="15" height="60.422535211267586" style="stroke-width: 0.5; stroke: rgb(0, 0, 0); stroke-opacity: 1; fill: rgb(239, 85, 59); fill-opacity: 1;"/><text class="node-label" data-notex="1" x="0" y="0" text-anchor="start" transform="translate(18.25,34.411267605633796)" style="cursor: default; font-family: 'Open Sans', verdana, arial, sans-serif; font-size: 12px; fill: rgb(42, 63, 95); fill-opacity: 1; white-space: pre; text-shadow: white 1px 1px 1px, white -1px -1px 1px, white 1px -1px 1px, white -1px 1px 1px;">LC</text></g><g class="sankey-node" transform="translate(368.700,231.068)" style="opacity: 1;"><rect class="node-rect" width="15" height="27.464788732394396" style="stroke-width: 0.5; stroke: rgb(0, 0, 0); stroke-opacity: 1; fill: rgb(254, 203, 82); fill-opacity: 1;"/><text class="node-label" data-notex="1" x="0" y="0" text-anchor="start" transform="translate(18.25,17.932394366197197)" style="cursor: default; font-family: 'Open Sans', verdana, arial, sans-serif; font-size: 12px; fill: rgb(42, 63, 95); fill-opacity: 1; white-space: pre; text-shadow: white 1px 1px 1px, white -1px -1px 1px, white 1px -1px 1px, white -1px 1px 1px;">LHyp</text></g><g class="sankey-node" transform="translate(368.700,271.367)" style="opacity: 1;"><rect class="node-rect" width="15" height="50.809859154929654" style="stroke-width: 0.5; stroke: rgb(0, 0, 0); stroke-opacity: 1; fill: rgb(171, 99, 250); fill-opacity: 1;"/><text class="node-label" data-notex="1" x="0" y="0" text-anchor="start" transform="translate(18.25,29.604929577464826)" style="cursor: default; font-family: 'Open Sans', verdana, arial, sans-serif; font-size: 12px; fill: rgb(42, 63, 95); fill-opacity: 1; white-space: pre; text-shadow: white 1px 1px 1px, white -1px -1px 1px, white 1px -1px 1px, white -1px 1px 1px;">NAc</text></g><g class="sankey-node" transform="translate(368.700,333.528)" style="opacity: 1;"><rect class="node-rect" width="15" height="101.61971830985885" style="stroke-width: 0.5; stroke: rgb(0, 0, 0); stroke-opacity: 1; fill: rgb(0, 204, 150); fill-opacity: 1;"/><text class="node-label" data-notex="1" x="0" y="0" text-anchor="start" transform="translate(18.25,55.00985915492943)" style="cursor: default; font-family: 'Open Sans', verdana, arial, sans-serif; font-size: 12px; fill: rgb(42, 63, 95); fill-opacity: 1; white-space: pre; text-shadow: white 1px 1px 1px, white -1px -1px 1px, white 1px -1px 1px, white -1px 1px 1px;">Str</text></g><g class="sankey-node" transform="translate(368.700,444.577)" style="opacity: 1;"><rect class="node-rect" width="15" height="146.93661971830988" style="stroke-width: 0.5; stroke: rgb(0, 0, 0); stroke-opacity: 1; fill: rgb(255, 161, 90); fill-opacity: 1;"/><text class="node-label" data-notex="1" x="0" y="0" text-anchor="start" transform="translate(18.25,77.66830985915495)" style="cursor: default; font-family: 'Open Sans', verdana, arial, sans-serif; font-size: 12px; fill: rgb(42, 63, 95); fill-opacity: 1; white-space: pre; text-shadow: white 1px 1px 1px, white -1px -1px 1px, white 1px -1px 1px, white -1px 1px 1px;">VTA</text></g><g class="sankey-node" transform="translate(368.700,602.013)" style="opacity: 1;"><rect class="node-rect" width="15" height="48.06338028169034" style="stroke-width: 0.5; stroke: rgb(0, 0, 0); stroke-opacity: 1; fill: rgb(255, 151, 255); fill-opacity: 1;"/><text class="node-label" data-notex="1" x="0" y="0" text-anchor="start" transform="translate(18.25,28.23169014084517)" style="cursor: default; font-family: 'Open Sans', verdana, arial, sans-serif; font-size: 12px; fill: rgb(42, 63, 95); fill-opacity: 1; white-space: pre; text-shadow: white 1px 1px 1px, white -1px -1px 1px, white 1px -1px 1px, white -1px 1px 1px;">cPFC</text></g><g class="sankey-node" transform="translate(368.700,663.131)" style="opacity: 1;"><rect class="node-rect" width="15" height="19.22535211267609" style="stroke-width: 0.5; stroke: rgb(0, 0, 0); stroke-opacity: 1; fill: rgb(255, 102, 146); fill-opacity: 1;"/><text class="node-label" data-notex="1" x="0" y="0" text-anchor="start" transform="translate(18.25,13.812676056338045)" style="cursor: default; font-family: 'Open Sans', verdana, arial, sans-serif; font-size: 12px; fill: rgb(42, 63, 95); fill-opacity: 1; white-space: pre; text-shadow: white 1px 1px 1px, white -1px -1px 1px, white 1px -1px 1px, white -1px 1px 1px;">dPAG</text></g><g class="sankey-node" transform="translate(368.700,696.180)" style="opacity: 1;"><rect class="node-rect" width="15" height="9.61267605633816" style="stroke-width: 0.5; stroke: rgb(0, 0, 0); stroke-opacity: 1; fill: rgb(182, 232, 128); fill-opacity: 1;"/><text class="node-label" data-notex="1" x="0" y="0" text-anchor="start" transform="translate(18.25,9.006338028169079)" style="cursor: default; font-family: 'Open Sans', verdana, arial, sans-serif; font-size: 12px; fill: rgb(42, 63, 95); fill-opacity: 1; white-space: pre; text-shadow: white 1px 1px 1px, white -1px -1px 1px, white 1px -1px 1px, white -1px 1px 1px;">lHb</text></g></g></g><defs id="topdefs-e7956b"><g class="clips"/></defs><g class="layer-above"><g class="imagelayer"/><g class="shapelayer"/></g><g class="infolayer"><g class="g-gtitle"/><g class="first-render"/></g></svg>