<svg class="main-svg" xmlns="http://www.w3.org/2000/svg" xmlns:xlink="http://www.w3.org/1999/xlink" width="1300" height="900" viewBox="0 0 1300 900" style=""><rect x="0" y="0" width="1300" height="900" style="fill: rgb(255, 255, 255); fill-opacity: 1;"/><defs id="defs-86be0b"><g class="clips"/><g class="gradients"/><g class="patterns"/></defs><g class="bglayer"/><g class="layer-below"><g class="imagelayer"/><g class="shapelayer"/></g><g class="cartesianlayer"/><g class="polarlayer"/><g class="smithlayer"/><g class="ternarylayer"/><g class="geolayer"/><g class="funnelarealayer"/><g class="pielayer"/><g class="iciclelayer"/><g class="treemaplayer"/><g class="sunburstlayer"/><g class="glimages"/><g class="sankey" transform="translate(80,100)matrix(1 0 0 1 0 0)" style="box-sizing: content-box; position: absolute; left: 0px; shape-rendering: geometricprecision; pointer-events: none;"><g class="sankey-links" style="fill: none;"><path class="sankey-link" d="M383.70000000000005,13.796907216494821C564.3000000000001,13.796907216494821 564.3000000000001,25.224742268041197 744.9000000000001,25.224742268041197L744.9000000000001,39.2969072164948C564.3000000000001,39.2969072164948 564.3000000000001,27.869072164948427 383.70000000000005,27.869072164948427Z" style="stroke: rgb(68, 68, 68); stroke-opacity: 1; fill: rgb(25, 211, 243); fill-opacity: 0.6; stroke-width: 0; opacity: 1;"/><path class="sankey-link" d="M383.70000000000005,27.86907216494843C564.3000000000001,27.86907216494843 564.3000000000001,385.3855670103093 744.9000000000001,385.3855670103093L744.9000000000001,397.4474226804124C564.3000000000001,397.4474226804124 564.3000000000001,39.93092783505152 383.70000000000005,39.93092783505152Z" style="stroke: rgb(68, 68, 68); stroke-opacity: 1; fill: rgb(25, 211, 243); fill-opacity: 0.6; stroke-width: 0; opacity: 1;"/><path class="sankey-link" d="M383.70000000000005,39.93092783505152C564.3000000000001,39.93092783505152 564.3000000000001,608.1463917525774 744.9000000000001,608.1463917525774L744.9000000000001,612.1670103092785C564.3000000000001,612.1670103092785 564.3000000000001,43.95154639175256 383.70000000000005,43.95154639175256Z" style="stroke: rgb(68, 68, 68); stroke-opacity: 1; fill: rgb(25, 211, 243); fill-opacity: 0.6; stroke-width: 0; opacity: 1;"/><path class="sankey-link" d="M383.70000000000005,56.05979381443311C564.3000000000001,56.05979381443311 564.3000000000001,39.2969072164948 744.9000000000001,39.2969072164948L744.9000000000001,67.44123711340201C564.3000000000001,67.44123711340201 564.3000000000001,84.20412371134032 383.70000000000005,84.20412371134032Z" style="stroke: rgb(68, 68, 68); stroke-opacity: 1; fill: rgb(99, 110, 250); fill-opacity: 0.6; stroke-width: 0; opacity: 1;"/><path class="sankey-link" d="M383.70000000000005,84.20412371134032C564.3000000000001,84.20412371134032 564.3000000000001,256.78453608247423 744.9000000000001,256.78453608247423L744.9000000000001,274.8773195876289C564.3000000000001,274.8773195876289 564.3000000000001,102.29690721649496 383.70000000000005,102.29690721649496Z" style="stroke: rgb(68, 68, 68); stroke-opacity: 1; fill: rgb(99, 110, 250); fill-opacity: 0.6; stroke-width: 0; opacity: 1;"/><path class="sankey-link" d="M383.70000000000005,102.29690721649496C564.3000000000001,102.29690721649496 564.3000000000001,397.4474226804124 744.9000000000001,397.4474226804124L744.9000000000001,425.59175257731965C564.3000000000001,425.59175257731965 564.3000000000001,130.44123711340217 383.70000000000005,130.44123711340217Z" style="stroke: rgb(68, 68, 68); stroke-opacity: 1; fill: rgb(99, 110, 250); fill-opacity: 0.6; stroke-width: 0; opacity: 1;"/><path class="sankey-link" d="M383.70000000000005,130.44123711340217C564.3000000000001,130.44123711340217 564.3000000000001,612.1670103092785 744.9000000000001,612.1670103092785L744.9000000000001,622.2185567010309C564.3000000000001,622.2185567010309 564.3000000000001,140.49278350515476 383.70000000000005,140.49278350515476Z" style="stroke: rgb(68, 68, 68); stroke-opacity: 1; fill: rgb(99, 110, 250); fill-opacity: 0.6; stroke-width: 0; opacity: 1;"/><path class="sankey-link" d="M383.70000000000005,151.87731958762885C564.3000000000001,151.87731958762885 564.3000000000001,67.44123711340202 744.9000000000001,67.44123711340202L744.9000000000001,97.59587628865975C564.3000000000001,97.59587628865975 564.3000000000001,182.03195876288657 383.70000000000005,182.03195876288657Z" style="stroke: rgb(68, 68, 68); stroke-opacity: 1; fill: rgb(239, 85, 59); fill-opacity: 0.6; stroke-width: 0; opacity: 1;"/><path class="sankey-link" d="M383.70000000000005,182.03195876288657C564.3000000000001,182.03195876288657 564.3000000000001,274.87731958762885 744.9000000000001,274.87731958762885L744.9000000000001,284.92886597938144C564.3000000000001,284.92886597938144 564.3000000000001,192.08350515463917 383.70000000000005,192.08350515463917Z" style="stroke: rgb(68, 68, 68); stroke-opacity: 1; fill: rgb(239, 85, 59); fill-opacity: 0.6; stroke-width: 0; opacity: 1;"/><path class="sankey-link" d="M383.70000000000005,192.08350515463914C564.3000000000001,192.08350515463914 564.3000000000001,425.5917525773196 744.9000000000001,425.5917525773196L744.9000000000001,447.7051546391753C564.3000000000001,447.7051546391753 564.3000000000001,214.1969072164948 383.70000000000005,214.1969072164948Z" style="stroke: rgb(68, 68, 68); stroke-opacity: 1; fill: rgb(239, 85, 59); fill-opacity: 0.6; stroke-width: 0; opacity: 1;"/><path class="sankey-link" d="M383.70000000000005,214.19690721649482C564.3000000000001,214.19690721649482 564.3000000000001,622.218556701031 744.9000000000001,622.218556701031L744.9000000000001,626.2391752577321C564.3000000000001,626.2391752577321 564.3000000000001,218.21752577319586 383.70000000000005,218.21752577319586Z" style="stroke: rgb(68, 68, 68); stroke-opacity: 1; fill: rgb(239, 85, 59); fill-opacity: 0.6; stroke-width: 0; opacity: 1;"/><path class="sankey-link" d="M383.70000000000005,230.60721649484532C564.3000000000001,230.60721649484532 564.3000000000001,97.59587628865975 744.9000000000001,97.59587628865975L744.9000000000001,109.65773195876284C564.3000000000001,109.65773195876284 564.3000000000001,242.66907216494843 383.70000000000005,242.66907216494843Z" style="stroke: rgb(68, 68, 68); stroke-opacity: 1; fill: rgb(254, 203, 82); fill-opacity: 0.6; stroke-width: 0; opacity: 1;"/><path class="sankey-link" d="M383.70000000000005,242.6690721649484C564.3000000000001,242.6690721649484 564.3000000000001,284.92886597938144 744.9000000000001,284.92886597938144L744.9000000000001,290.959793814433C564.3000000000001,290.959793814433 564.3000000000001,248.69999999999996 383.70000000000005,248.69999999999996Z" style="stroke: rgb(68, 68, 68); stroke-opacity: 1; fill: rgb(254, 203, 82); fill-opacity: 0.6; stroke-width: 0; opacity: 1;"/><path class="sankey-link" d="M383.70000000000005,248.69999999999996C564.3000000000001,248.69999999999996 564.3000000000001,447.70515463917525 744.9000000000001,447.70515463917525L744.9000000000001,453.7360824742268C564.3000000000001,453.7360824742268 564.3000000000001,254.73092783505152 383.70000000000005,254.73092783505152Z" style="stroke: rgb(68, 68, 68); stroke-opacity: 1; fill: rgb(254, 203, 82); fill-opacity: 0.6; stroke-width: 0; opacity: 1;"/><path class="sankey-link" d="M383.70000000000005,254.7309278350515C564.3000000000001,254.7309278350515 564.3000000000001,626.2391752577321 744.9000000000001,626.2391752577321L744.9000000000001,636.2907216494846C564.3000000000001,636.2907216494846 564.3000000000001,264.7824742268041 383.70000000000005,264.7824742268041Z" style="stroke: rgb(68, 68, 68); stroke-opacity: 1; fill: rgb(254, 203, 82); fill-opacity: 0.6; stroke-width: 0; opacity: 1;"/><path class="sankey-link" d="M383.70000000000005,277.5340206185567C564.3000000000001,277.5340206185567 564.3000000000001,109.65773195876284 744.9000000000001,109.65773195876284L744.9000000000001,129.760824742268C564.3000000000001,129.760824742268 564.3000000000001,297.6371134020619 383.70000000000005,297.6371134020619Z" style="stroke: rgb(68, 68, 68); stroke-opacity: 1; fill: rgb(171, 99, 250); fill-opacity: 0.6; stroke-width: 0; opacity: 1;"/><path class="sankey-link" d="M383.70000000000005,297.63711340206186C564.3000000000001,297.63711340206186 564.3000000000001,290.959793814433 744.9000000000001,290.959793814433L744.9000000000001,296.99072164948456C564.3000000000001,296.99072164948456 564.3000000000001,303.6680412371134 383.70000000000005,303.6680412371134Z" style="stroke: rgb(68, 68, 68); stroke-opacity: 1; fill: rgb(171, 99, 250); fill-opacity: 0.6; stroke-width: 0; opacity: 1;"/><path class="sankey-link" d="M383.70000000000005,303.6680412371134C564.3000000000001,303.6680412371134 564.3000000000001,453.7360824742268 744.9000000000001,453.7360824742268L744.9000000000001,467.80824742268044C564.3000000000001,467.80824742268044 564.3000000000001,317.74020618556705 383.70000000000005,317.74020618556705Z" style="stroke: rgb(68, 68, 68); stroke-opacity: 1; fill: rgb(171, 99, 250); fill-opacity: 0.6; stroke-width: 0; opacity: 1;"/><path class="sankey-link" d="M383.70000000000005,317.74020618556705C564.3000000000001,317.74020618556705 564.3000000000001,636.2907216494847 744.9000000000001,636.2907216494847L744.9000000000001,644.3319587628868C564.3000000000001,644.3319587628868 564.3000000000001,325.7814432989691 383.70000000000005,325.7814432989691Z" style="stroke: rgb(68, 68, 68); stroke-opacity: 1; fill: rgb(171, 99, 250); fill-opacity: 0.6; stroke-width: 0; opacity: 1;"/><path class="sankey-link" d="M383.70000000000005,337.3268041237113C564.3000000000001,337.3268041237113 564.3000000000001,129.760824742268 744.9000000000001,129.760824742268L744.9000000000001,163.93608247422677C564.3000000000001,163.93608247422677 564.3000000000001,371.50206185567004 383.70000000000005,371.50206185567004Z" style="stroke: rgb(68, 68, 68); stroke-opacity: 1; fill: rgb(0, 204, 150); fill-opacity: 0.6; stroke-width: 0; opacity: 1;"/><path class="sankey-link" d="M383.70000000000005,371.5020618556701C564.3000000000001,371.5020618556701 564.3000000000001,296.99072164948456 744.9000000000001,296.99072164948456L744.9000000000001,305.03195876288663C564.3000000000001,305.03195876288663 564.3000000000001,379.54329896907217 383.70000000000005,379.54329896907217Z" style="stroke: rgb(68, 68, 68); stroke-opacity: 1; fill: rgb(0, 204, 150); fill-opacity: 0.6; stroke-width: 0; opacity: 1;"/><path class="sankey-link" d="M383.70000000000005,379.54329896907217C564.3000000000001,379.54329896907217 564.3000000000001,467.80824742268044 744.9000000000001,467.80824742268044L744.9000000000001,510.0247422680412C564.3000000000001,510.0247422680412 564.3000000000001,421.75979381443295 383.70000000000005,421.75979381443295Z" style="stroke: rgb(68, 68, 68); stroke-opacity: 1; fill: rgb(0, 204, 150); fill-opacity: 0.6; stroke-width: 0; opacity: 1;"/><path class="sankey-link" d="M383.70000000000005,421.759793814433C564.3000000000001,421.759793814433 564.3000000000001,644.3319587628868 744.9000000000001,644.3319587628868L744.9000000000001,654.3835051546392C564.3000000000001,654.3835051546392 564.3000000000001,431.8113402061856 383.70000000000005,431.8113402061856Z" style="stroke: rgb(68, 68, 68); stroke-opacity: 1; fill: rgb(0, 204, 150); fill-opacity: 0.6; stroke-width: 0; opacity: 1;"/><path class="sankey-link" d="M383.70000000000005,441.22577319587634C564.3000000000001,441.22577319587634 564.3000000000001,163.93608247422677 744.9000000000001,163.93608247422677L744.9000000000001,208.16288659793813C564.3000000000001,208.16288659793813 564.3000000000001,485.45257731958765 383.70000000000005,485.45257731958765Z" style="stroke: rgb(68, 68, 68); stroke-opacity: 1; fill: rgb(255, 161, 90); fill-opacity: 0.6; stroke-width: 0; opacity: 1;"/><path class="sankey-link" d="M383.70000000000005,485.4525773195877C564.3000000000001,485.4525773195877 564.3000000000001,305.03195876288663 744.9000000000001,305.03195876288663L744.9000000000001,335.1865979381444C564.3000000000001,335.1865979381444 564.3000000000001,515.6072164948455 383.70000000000005,515.6072164948455Z" style="stroke: rgb(68, 68, 68); stroke-opacity: 1; fill: rgb(255, 161, 90); fill-opacity: 0.6; stroke-width: 0; opacity: 1;"/><path class="sankey-link" d="M383.70000000000005,515.6072164948455C564.3000000000001,515.6072164948455 564.3000000000001,510.0247422680413 744.9000000000001,510.0247422680413L744.9000000000001,554.2515463917526C564.3000000000001,554.2515463917526 564.3000000000001,559.8340206185569 383.70000000000005,559.8340206185569Z" style="stroke: rgb(68, 68, 68); stroke-opacity: 1; fill: rgb(255, 161, 90); fill-opacity: 0.6; stroke-width: 0; opacity: 1;"/><path class="sankey-link" d="M383.70000000000005,559.8340206185568C564.3000000000001,559.8340206185568 564.3000000000001,654.3835051546394 744.9000000000001,654.3835051546394L744.9000000000001,690.5690721649487C564.3000000000001,690.5690721649487 564.3000000000001,596.0195876288661 383.70000000000005,596.0195876288661Z" style="stroke: rgb(68, 68, 68); stroke-opacity: 1; fill: rgb(255, 161, 90); fill-opacity: 0.6; stroke-width: 0; opacity: 1;"/><path class="sankey-link" d="M383.70000000000005,606.479381443299C564.3000000000001,606.479381443299 564.3000000000001,208.1628865979381 744.9000000000001,208.1628865979381L744.9000000000001,222.23505154639173C564.3000000000001,222.23505154639173 564.3000000000001,620.5515463917525 383.70000000000005,620.5515463917525Z" style="stroke: rgb(68, 68, 68); stroke-opacity: 1; fill: rgb(255, 151, 255); fill-opacity: 0.6; stroke-width: 0; opacity: 1;"/><path class="sankey-link" d="M383.70000000000005,620.5515463917526C564.3000000000001,620.5515463917526 564.3000000000001,335.18659793814436 744.9000000000001,335.18659793814436L744.9000000000001,347.2484536082475C564.3000000000001,347.2484536082475 564.3000000000001,632.6134020618557 383.70000000000005,632.6134020618557Z" style="stroke: rgb(68, 68, 68); stroke-opacity: 1; fill: rgb(255, 151, 255); fill-opacity: 0.6; stroke-width: 0; opacity: 1;"/><path class="sankey-link" d="M383.70000000000005,632.6134020618557C564.3000000000001,632.6134020618557 564.3000000000001,554.2515463917526 744.9000000000001,554.2515463917526L744.9000000000001,566.3134020618558C564.3000000000001,566.3134020618558 564.3000000000001,644.6752577319588 383.70000000000005,644.6752577319588Z" style="stroke: rgb(68, 68, 68); stroke-opacity: 1; fill: rgb(255, 151, 255); fill-opacity: 0.6; stroke-width: 0; opacity: 1;"/><path class="sankey-link" d="M383.70000000000005,644.6752577319588C564.3000000000001,644.6752577319588 564.3000000000001,690.5690721649486 744.9000000000001,690.5690721649486L744.9000000000001,694.5896907216496C564.3000000000001,694.5896907216496 564.3000000000001,648.6958762886599 383.70000000000005,648.6958762886599Z" style="stroke: rgb(68, 68, 68); stroke-opacity: 1; fill: rgb(255, 151, 255); fill-opacity: 0.6; stroke-width: 0; opacity: 1;"/><path class="sankey-link" d="M383.70000000000005,661.7690721649483C564.3000000000001,661.7690721649483 564.3000000000001,222.2350515463917 744.9000000000001,222.2350515463917L744.9000000000001,224.24536082474222C564.3000000000001,224.24536082474222 564.3000000000001,663.7793814432987 383.70000000000005,663.7793814432987Z" style="stroke: rgb(68, 68, 68); stroke-opacity: 1; fill: rgb(255, 102, 146); fill-opacity: 0.6; stroke-width: 0; opacity: 1;"/><path class="sankey-link" d="M383.70000000000005,663.7793814432988C564.3000000000001,663.7793814432988 564.3000000000001,347.2484536082475 744.9000000000001,347.2484536082475L744.9000000000001,355.28969072164955C564.3000000000001,355.28969072164955 564.3000000000001,671.8206185567009 383.70000000000005,671.8206185567009Z" style="stroke: rgb(68, 68, 68); stroke-opacity: 1; fill: rgb(255, 102, 146); fill-opacity: 0.6; stroke-width: 0; opacity: 1;"/><path class="sankey-link" d="M383.70000000000005,671.8206185567009C564.3000000000001,671.8206185567009 564.3000000000001,566.3134020618558 744.9000000000001,566.3134020618558L744.9000000000001,574.3546391752578C564.3000000000001,574.3546391752578 564.3000000000001,679.861855670103 383.70000000000005,679.861855670103Z" style="stroke: rgb(68, 68, 68); stroke-opacity: 1; fill: rgb(255, 102, 146); fill-opacity: 0.6; stroke-width: 0; opacity: 1;"/><path class="sankey-link" d="M383.70000000000005,679.861855670103C564.3000000000001,679.861855670103 564.3000000000001,694.5896907216496 744.9000000000001,694.5896907216496L744.9000000000001,700.6206185567011C564.3000000000001,700.6206185567011 564.3000000000001,685.8927835051544 383.70000000000005,685.8927835051544Z" style="stroke: rgb(68, 68, 68); stroke-opacity: 1; fill: rgb(255, 102, 146); fill-opacity: 0.6; stroke-width: 0; opacity: 1;"/><path class="sankey-link" d="M383.70000000000005,699.6896907216494C564.3000000000001,699.6896907216494 564.3000000000001,224.24536082474222 744.9000000000001,224.24536082474222L744.9000000000001,226.25567010309274C564.3000000000001,226.25567010309274 564.3000000000001,701.6999999999998 383.70000000000005,701.6999999999998Z" style="stroke: rgb(68, 68, 68); stroke-opacity: 1; fill: rgb(182, 232, 128); fill-opacity: 0.6; stroke-width: 0; opacity: 1;"/><path class="sankey-link" d="M383.70000000000005,701.6999999999999C564.3000000000001,701.6999999999999 564.3000000000001,574.3546391752578 744.9000000000001,574.3546391752578L744.9000000000001,578.3752577319589C564.3000000000001,578.3752577319589 564.3000000000001,705.720618556701 383.70000000000005,705.720618556701Z" style="stroke: rgb(68, 68, 68); stroke-opacity: 1; fill: rgb(182, 232, 128); fill-opacity: 0.6; stroke-width: 0; opacity: 1;"/></g><g class="sankey-node-set" style="cursor: ns-resize;"><g class="sankey-node" transform="translate(744.900,25.225)" style="opacity: 1;"><rect class="node-rect" width="15" height="201.0309278350516" style="stroke-width: 0.5; stroke: rgb(0, 0, 0); stroke-opacity: 1; fill: rgb(128, 128, 128); fill-opacity: 1;"/><text class="node-label" data-notex="1" x="0" y="0" text-anchor="end" transform="translate(-3.25,104.71546391752581)" style="cursor: default; font-family: 'Open Sans', verdana, arial, sans-serif; font-size: 12px; fill: rgb(42, 63, 95); fill-opacity: 1; white-space: pre; text-shadow: white 1px 1px 1px, white -1px -1px 1px, white 1px -1px 1px, white -1px 1px 1px;">dig</text></g><g class="sankey-node" transform="translate(744.900,256.785)" style="opacity: 1;"><rect class="node-rect" width="15" height="98.50515463917532" style="stroke-width: 0.5; stroke: rgb(0, 0, 0); stroke-opacity: 1; fill: rgb(128, 128, 128); fill-opacity: 1;"/><text class="node-label" data-notex="1" x="0" y="0" text-anchor="end" transform="translate(-3.25,53.45257731958766)" style="cursor: default; font-family: 'Open Sans', verdana, arial, sans-serif; font-size: 12px; fill: rgb(42, 63, 95); fill-opacity: 1; white-space: pre; text-shadow: white 1px 1px 1px, white -1px -1px 1px, white 1px -1px 1px, white -1px 1px 1px;">groom</text></g><g class="sankey-node" transform="translate(744.900,385.386)" style="opacity: 1;"><rect class="node-rect" width="15" height="192.9896907216496" style="stroke-width: 0.5; stroke: rgb(0, 0, 0); stroke-opacity: 1; fill: rgb(128, 128, 128); fill-opacity: 1;"/><text class="node-label" data-notex="1" x="0" y="0" text-anchor="end" transform="translate(-3.25,100.6948453608248)" style="cursor: default; font-family: 'Open Sans', verdana, arial, sans-serif; font-size: 12px; fill: rgb(42, 63, 95); fill-opacity: 1; white-space: pre; text-shadow: white 1px 1px 1px, white -1px -1px 1px, white 1px -1px 1px, white -1px 1px 1px;">move</text></g><g class="sankey-node" transform="translate(744.900,608.146)" style="opacity: 1;"><rect class="node-rect" width="15" height="92.47422680412365" style="stroke-width: 0.5; stroke: rgb(0, 0, 0); stroke-opacity: 1; fill: rgb(128, 128, 128); fill-opacity: 1;"/><text class="node-label" data-notex="1" x="0" y="0" text-anchor="end" transform="translate(-3.25,50.437113402061826)" style="cursor: default; font-family: 'Open Sans', verdana, arial, sans-serif; font-size: 12px; fill: rgb(42, 63, 95); fill-opacity: 1; white-space: pre; text-shadow: white 1px 1px 1px, white -1px -1px 1px, white 1px -1px 1px, white -1px 1px 1px;">still</text></g><g class="sankey-node" transform="translate(368.700,13.797)" style="opacity: 1;"><rect class="node-rect" width="15" height="30.15463917525778" style="stroke-width: 0.5; stroke: rgb(0, 0, 0); stroke-opacity: 1; fill: rgb(25, 211, 243); fill-opacity: 1;"/><text class="node-label" data-notex="1" x="0" y="0" text-anchor="start" transform="translate(18.25,19.277319587628888)" style="cursor: default; font-family: 'Open Sans', verdana, arial, sans-serif; font-size: 12px; fill: rgb(42, 63, 95); fill-opacity: 1; white-space: pre; text-shadow: white 1px 1px 1px, white -1px -1px 1px, white 1px -1px 1px, white -1px 1px 1px;">BLA</text></g><g class="sankey-node" transform="translate(368.700,56.060)" style="opacity: 1;"><rect class="node-rect" width="15" height="84.4329896907214" style="stroke-width: 0.5; stroke: rgb(0, 0, 0); stroke-opacity: 1; fill: rgb(99, 110, 250); fill-opacity: 1;"/><text class="node-label" data-notex="1" x="0" y="0" text-anchor="start" transform="translate(18.25,46.4164948453607)" style="cursor: default; font-family: 'Open Sans', verdana, arial, sans-serif; font-size: 12px; fill: rgb(42, 63, 95); fill-opacity: 1; white-space: pre; text-shadow: white 1px 1px 1px, white -1px -1px 1px, white 1px -1px 1px, white -1px 1px 1px;">Cla</text></g><g class="sankey-node" transform="translate(368.700,151.877)" style="opacity: 1;"><rect class="node-rect" width="15" height="66.34020618556701" style="stroke-width: 0.5; stroke: rgb(0, 0, 0); stroke-opacity: 1; fill: rgb(239, 85, 59); fill-opacity: 1;"/><text class="node-label" data-notex="1" x="0" y="0" text-anchor="start" transform="translate(18.25,37.37010309278351)" style="cursor: default; font-family: 'Open Sans', verdana, arial, sans-serif; font-size: 12px; fill: rgb(42, 63, 95); fill-opacity: 1; white-space: pre; text-shadow: white 1px 1px 1px, white -1px -1px 1px, white 1px -1px 1px, white -1px 1px 1px;">LC</text></g><g class="sankey-node" transform="translate(368.700,230.607)" style="opacity: 1;"><rect class="node-rect" width="15" height="34.17525773195882" style="stroke-width: 0.5; stroke: rgb(0, 0, 0); stroke-opacity: 1; fill: rgb(254, 203, 82); fill-opacity: 1;"/><text class="node-label" data-notex="1" x="0" y="0" text-anchor="start" transform="translate(18.25,21.28762886597941)" style="cursor: default; font-family: 'Open Sans', verdana, arial, sans-serif; font-size: 12px; fill: rgb(42, 63, 95); fill-opacity: 1; white-space: pre; text-shadow: white 1px 1px 1px, white -1px -1px 1px, white 1px -1px 1px, white -1px 1px 1px;">LHyp</text></g><g class="sankey-node" transform="translate(368.700,277.534)" style="opacity: 1;"><rect class="node-rect" width="15" height="48.24742268041234" style="stroke-width: 0.5; stroke: rgb(0, 0, 0); stroke-opacity: 1; fill: rgb(171, 99, 250); fill-opacity: 1;"/><text class="node-label" data-notex="1" x="0" y="0" text-anchor="start" transform="translate(18.25,28.32371134020617)" style="cursor: default; font-family: 'Open Sans', verdana, arial, sans-serif; font-size: 12px; fill: rgb(42, 63, 95); fill-opacity: 1; white-space: pre; text-shadow: white 1px 1px 1px, white -1px -1px 1px, white 1px -1px 1px, white -1px 1px 1px;">NAc</text></g><g class="sankey-node" transform="translate(368.700,337.327)" style="opacity: 1;"><rect class="node-rect" width="15" height="94.48453608247428" style="stroke-width: 0.5; stroke: rgb(0, 0, 0); stroke-opacity: 1; fill: rgb(0, 204, 150); fill-opacity: 1;"/><text class="node-label" data-notex="1" x="0" y="0" text-anchor="start" transform="translate(18.25,51.44226804123714)" style="cursor: default; font-family: 'Open Sans', verdana, arial, sans-serif; font-size: 12px; fill: rgb(42, 63, 95); fill-opacity: 1; white-space: pre; text-shadow: white 1px 1px 1px, white -1px -1px 1px, white 1px -1px 1px, white -1px 1px 1px;">Str</text></g><g class="sankey-node" transform="translate(368.700,441.226)" style="opacity: 1;"><rect class="node-rect" width="15" height="154.79381443298968" style="stroke-width: 0.5; stroke: rgb(0, 0, 0); stroke-opacity: 1; fill: rgb(255, 161, 90); fill-opacity: 1;"/><text class="node-label" data-notex="1" x="0" y="0" text-anchor="start" transform="translate(18.25,81.59690721649484)" style="cursor: default; font-family: 'Open Sans', verdana, arial, sans-serif; font-size: 12px; fill: rgb(42, 63, 95); fill-opacity: 1; white-space: pre; text-shadow: white 1px 1px 1px, white -1px -1px 1px, white 1px -1px 1px, white -1px 1px 1px;">VTA</text></g><g class="sankey-node" transform="translate(368.700,606.479)" style="opacity: 1;"><rect class="node-rect" width="15" height="42.216494845360785" style="stroke-width: 0.5; stroke: rgb(0, 0, 0); stroke-opacity: 1; fill: rgb(255, 151, 255); fill-opacity: 1;"/><text class="node-label" data-notex="1" x="0" y="0" text-anchor="start" transform="translate(18.25,25.30824742268039)" style="cursor: default; font-family: 'Open Sans', verdana, arial, sans-serif; font-size: 12px; fill: rgb(42, 63, 95); fill-opacity: 1; white-space: pre; text-shadow: white 1px 1px 1px, white -1px -1px 1px, white 1px -1px 1px, white -1px 1px 1px;">cPFC</text></g><g class="sankey-node" transform="translate(368.700,661.769)" style="opacity: 1;"><rect class="node-rect" width="15" height="24.123711340206455" style="stroke-width: 0.5; stroke: rgb(0, 0, 0); stroke-opacity: 1; fill: rgb(255, 102, 146); fill-opacity: 1;"/><text class="node-label" data-notex="1" x="0" y="0" text-anchor="start" transform="translate(18.25,16.261855670103227)" style="cursor: default; font-family: 'Open Sans', verdana, arial, sans-serif; font-size: 12px; fill: rgb(42, 63, 95); fill-opacity: 1; white-space: pre; text-shadow: white 1px 1px 1px, white -1px -1px 1px, white 1px -1px 1px, white -1px 1px 1px;">dPAG</text></g><g class="sankey-node" transform="translate(368.700,699.690)" style="opacity: 1;"><rect class="node-rect" width="15" height="6.030927835051443" style="stroke-width: 0.5; stroke: rgb(0, 0, 0); stroke-opacity: 1; fill: rgb(182, 232, 128); fill-opacity: 1;"/><text class="node-label" data-notex="1" x="0" y="0" text-anchor="start" transform="translate(18.25,7.215463917525721)" style="cursor: default; font-family: 'Open Sans', verdana, arial, sans-serif; font-size: 12px; fill: rgb(42, 63, 95); fill-opacity: 1; white-space: pre; text-shadow: white 1px 1px 1px, white -1px -1px 1px, white 1px -1px 1px, white -1px 1px 1px;">lHb</text></g></g></g><defs id="topdefs-86be0b"><g class="clips"/></defs><g class="layer-above"><g class="imagelayer"/><g class="shapelayer"/></g><g class="infolayer"><g class="g-gtitle"/><g class="first-render"/></g></svg>