<svg class="main-svg" xmlns="http://www.w3.org/2000/svg" xmlns:xlink="http://www.w3.org/1999/xlink" width="1300" height="900" viewBox="0 0 1300 900" style=""><rect x="0" y="0" width="1300" height="900" style="fill: rgb(255, 255, 255); fill-opacity: 1;"/><defs id="defs-5a849a"><g class="clips"/><g class="gradients"/><g class="patterns"/></defs><g class="bglayer"/><g class="layer-below"><g class="imagelayer"/><g class="shapelayer"/></g><g class="cartesianlayer"/><g class="polarlayer"/><g class="smithlayer"/><g class="ternarylayer"/><g class="geolayer"/><g class="funnelarealayer"/><g class="pielayer"/><g class="iciclelayer"/><g class="treemaplayer"/><g class="sunburstlayer"/><g class="glimages"/><g class="sankey" transform="translate(80,100)matrix(1 0 0 1 0 0)" style="box-sizing: content-box; position: absolute; left: 0px; shape-rendering: geometricprecision; pointer-events: none;"><g class="sankey-links" style="fill: none;"><path class="sankey-link" d="M383.70000000000005,14.03498098859312C564.3000000000001,14.03498098859312 564.3000000000001,182.74676806083653 744.9000000000001,182.74676806083653L744.9000000000001,185.02813688212933C564.3000000000001,185.02813688212933 564.3000000000001,16.316349809885896 383.70000000000005,16.316349809885896Z" style="stroke: rgb(68, 68, 68); stroke-opacity: 1; fill: rgb(25, 211, 243); fill-opacity: 0.6; stroke-width: 0; opacity: 1;"/><path class="sankey-link" d="M383.70000000000005,16.316349809885896C564.3000000000001,16.316349809885896 564.3000000000001,389.5847908745247 744.9000000000001,389.5847908745247L744.9000000000001,391.86615969581743C564.3000000000001,391.86615969581743 564.3000000000001,18.59771863117867 383.70000000000005,18.59771863117867Z" style="stroke: rgb(68, 68, 68); stroke-opacity: 1; fill: rgb(25, 211, 243); fill-opacity: 0.6; stroke-width: 0; opacity: 1;"/><path class="sankey-link" d="M383.70000000000005,18.597718631178672C564.3000000000001,18.597718631178672 564.3000000000001,567.2304182509506 744.9000000000001,567.2304182509506L744.9000000000001,574.0745247148288C564.3000000000001,574.0745247148288 564.3000000000001,25.441825095057 383.70000000000005,25.441825095057Z" style="stroke: rgb(68, 68, 68); stroke-opacity: 1; fill: rgb(25, 211, 243); fill-opacity: 0.6; stroke-width: 0; opacity: 1;"/><path class="sankey-link" d="M383.70000000000005,36.191634980988496C564.3000000000001,36.191634980988496 564.3000000000001,18.424334600760403 744.9000000000001,18.424334600760403L744.9000000000001,41.23802281368816C564.3000000000001,41.23802281368816 564.3000000000001,59.005323193916254 383.70000000000005,59.005323193916254Z" style="stroke: rgb(68, 68, 68); stroke-opacity: 1; fill: rgb(99, 110, 250); fill-opacity: 0.6; stroke-width: 0; opacity: 1;"/><path class="sankey-link" d="M383.70000000000005,59.005323193916254C564.3000000000001,59.005323193916254 564.3000000000001,185.0281368821293 744.9000000000001,185.0281368821293L744.9000000000001,194.1536121673004C564.3000000000001,194.1536121673004 564.3000000000001,68.13079847908736 383.70000000000005,68.13079847908736Z" style="stroke: rgb(68, 68, 68); stroke-opacity: 1; fill: rgb(99, 110, 250); fill-opacity: 0.6; stroke-width: 0; opacity: 1;"/><path class="sankey-link" d="M383.70000000000005,68.13079847908736C564.3000000000001,68.13079847908736 564.3000000000001,279.37642585551333 744.9000000000001,279.37642585551333L744.9000000000001,295.34600760456277C564.3000000000001,295.34600760456277 564.3000000000001,84.1003802281368 383.70000000000005,84.1003802281368Z" style="stroke: rgb(68, 68, 68); stroke-opacity: 1; fill: rgb(99, 110, 250); fill-opacity: 0.6; stroke-width: 0; opacity: 1;"/><path class="sankey-link" d="M383.70000000000005,84.10038022813679C564.3000000000001,84.10038022813679 564.3000000000001,391.8661596958175 744.9000000000001,391.8661596958175L744.9000000000001,421.5239543726236C564.3000000000001,421.5239543726236 564.3000000000001,113.75817490494286 383.70000000000005,113.75817490494286Z" style="stroke: rgb(68, 68, 68); stroke-opacity: 1; fill: rgb(99, 110, 250); fill-opacity: 0.6; stroke-width: 0; opacity: 1;"/><path class="sankey-link" d="M383.70000000000005,113.75817490494288C564.3000000000001,113.75817490494288 564.3000000000001,574.0745247148288 744.9000000000001,574.0745247148288L744.9000000000001,599.1695817490495C564.3000000000001,599.1695817490495 564.3000000000001,138.8532319391634 383.70000000000005,138.8532319391634Z" style="stroke: rgb(68, 68, 68); stroke-opacity: 1; fill: rgb(99, 110, 250); fill-opacity: 0.6; stroke-width: 0; opacity: 1;"/><path class="sankey-link" d="M383.70000000000005,149.01901140684407C564.3000000000001,149.01901140684407 564.3000000000001,41.23802281368816 744.9000000000001,41.23802281368816L744.9000000000001,43.519391634980934C564.3000000000001,43.519391634980934 564.3000000000001,151.30038022813687 383.70000000000005,151.30038022813687Z" style="stroke: rgb(68, 68, 68); stroke-opacity: 1; fill: rgb(0, 204, 150); fill-opacity: 0.6; stroke-width: 0; opacity: 1;"/><path class="sankey-link" d="M383.70000000000005,151.30038022813685C564.3000000000001,151.30038022813685 564.3000000000001,194.1536121673004 744.9000000000001,194.1536121673004L744.9000000000001,198.71634980988594C564.3000000000001,198.71634980988594 564.3000000000001,155.8631178707224 383.70000000000005,155.8631178707224Z" style="stroke: rgb(68, 68, 68); stroke-opacity: 1; fill: rgb(0, 204, 150); fill-opacity: 0.6; stroke-width: 0; opacity: 1;"/><path class="sankey-link" d="M383.70000000000005,155.8631178707224C564.3000000000001,155.8631178707224 564.3000000000001,295.34600760456277 744.9000000000001,295.34600760456277L744.9000000000001,302.1901140684411C564.3000000000001,302.1901140684411 564.3000000000001,162.70722433460074 383.70000000000005,162.70722433460074Z" style="stroke: rgb(68, 68, 68); stroke-opacity: 1; fill: rgb(0, 204, 150); fill-opacity: 0.6; stroke-width: 0; opacity: 1;"/><path class="sankey-link" d="M383.70000000000005,162.7072243346007C564.3000000000001,162.7072243346007 564.3000000000001,421.52395437262356 744.9000000000001,421.52395437262356L744.9000000000001,428.3680608365019C564.3000000000001,428.3680608365019 564.3000000000001,169.55133079847906 383.70000000000005,169.55133079847906Z" style="stroke: rgb(68, 68, 68); stroke-opacity: 1; fill: rgb(0, 204, 150); fill-opacity: 0.6; stroke-width: 0; opacity: 1;"/><path class="sankey-link" d="M383.70000000000005,169.55133079847903C564.3000000000001,169.55133079847903 564.3000000000001,599.1695817490495 744.9000000000001,599.1695817490495L744.9000000000001,608.2950570342207C564.3000000000001,608.2950570342207 564.3000000000001,178.67680608365012 383.70000000000005,178.67680608365012Z" style="stroke: rgb(68, 68, 68); stroke-opacity: 1; fill: rgb(0, 204, 150); fill-opacity: 0.6; stroke-width: 0; opacity: 1;"/><path class="sankey-link" d="M383.70000000000005,190.74068441064634C564.3000000000001,190.74068441064634 564.3000000000001,43.519391634980934 744.9000000000001,43.519391634980934L744.9000000000001,57.207604562737586C564.3000000000001,57.207604562737586 564.3000000000001,204.42889733840298 383.70000000000005,204.42889733840298Z" style="stroke: rgb(68, 68, 68); stroke-opacity: 1; fill: rgb(254, 203, 82); fill-opacity: 0.6; stroke-width: 0; opacity: 1;"/><path class="sankey-link" d="M383.70000000000005,204.428897338403C564.3000000000001,204.428897338403 564.3000000000001,198.71634980988594 744.9000000000001,198.71634980988594L744.9000000000001,200.99771863117874C564.3000000000001,200.99771863117874 564.3000000000001,206.7102661596958 383.70000000000005,206.7102661596958Z" style="stroke: rgb(68, 68, 68); stroke-opacity: 1; fill: rgb(254, 203, 82); fill-opacity: 0.6; stroke-width: 0; opacity: 1;"/><path class="sankey-link" d="M383.70000000000005,206.71026615969578C564.3000000000001,206.71026615969578 564.3000000000001,302.1901140684411 744.9000000000001,302.1901140684411L744.9000000000001,311.3155893536122C564.3000000000001,311.3155893536122 564.3000000000001,215.83574144486687 383.70000000000005,215.83574144486687Z" style="stroke: rgb(68, 68, 68); stroke-opacity: 1; fill: rgb(254, 203, 82); fill-opacity: 0.6; stroke-width: 0; opacity: 1;"/><path class="sankey-link" d="M383.70000000000005,215.83574144486687C564.3000000000001,215.83574144486687 564.3000000000001,428.3680608365019 744.9000000000001,428.3680608365019L744.9000000000001,439.77490494296575C564.3000000000001,439.77490494296575 564.3000000000001,227.24258555133076 383.70000000000005,227.24258555133076Z" style="stroke: rgb(68, 68, 68); stroke-opacity: 1; fill: rgb(254, 203, 82); fill-opacity: 0.6; stroke-width: 0; opacity: 1;"/><path class="sankey-link" d="M383.70000000000005,227.24258555133076C564.3000000000001,227.24258555133076 564.3000000000001,608.2950570342206 744.9000000000001,608.2950570342206L744.9000000000001,615.1391634980988C564.3000000000001,615.1391634980988 564.3000000000001,234.0866920152091 383.70000000000005,234.0866920152091Z" style="stroke: rgb(68, 68, 68); stroke-opacity: 1; fill: rgb(254, 203, 82); fill-opacity: 0.6; stroke-width: 0; opacity: 1;"/><path class="sankey-link" d="M383.70000000000005,246.4425855513308C564.3000000000001,246.4425855513308 564.3000000000001,57.207604562737586 744.9000000000001,57.207604562737586L744.9000000000001,64.05171102661592C564.3000000000001,64.05171102661592 564.3000000000001,253.28669201520916 383.70000000000005,253.28669201520916Z" style="stroke: rgb(68, 68, 68); stroke-opacity: 1; fill: rgb(255, 161, 90); fill-opacity: 0.6; stroke-width: 0; opacity: 1;"/><path class="sankey-link" d="M383.70000000000005,253.28669201520913C564.3000000000001,253.28669201520913 564.3000000000001,200.9977186311787 744.9000000000001,200.9977186311787L744.9000000000001,203.27908745247152C564.3000000000001,203.27908745247152 564.3000000000001,255.56806083650193 383.70000000000005,255.56806083650193Z" style="stroke: rgb(68, 68, 68); stroke-opacity: 1; fill: rgb(255, 161, 90); fill-opacity: 0.6; stroke-width: 0; opacity: 1;"/><path class="sankey-link" d="M383.70000000000005,255.56806083650187C564.3000000000001,255.56806083650187 564.3000000000001,615.1391634980989 744.9000000000001,615.1391634980989L744.9000000000001,626.5460076045629C564.3000000000001,626.5460076045629 564.3000000000001,266.97490494296574 383.70000000000005,266.97490494296574Z" style="stroke: rgb(68, 68, 68); stroke-opacity: 1; fill: rgb(255, 161, 90); fill-opacity: 0.6; stroke-width: 0; opacity: 1;"/><path class="sankey-link" d="M383.70000000000005,278.8927756653993C564.3000000000001,278.8927756653993 564.3000000000001,64.05171102661592 744.9000000000001,64.05171102661592L744.9000000000001,84.5840304182509C564.3000000000001,84.5840304182509 564.3000000000001,299.42509505703424 383.70000000000005,299.42509505703424Z" style="stroke: rgb(68, 68, 68); stroke-opacity: 1; fill: rgb(171, 99, 250); fill-opacity: 0.6; stroke-width: 0; opacity: 1;"/><path class="sankey-link" d="M383.70000000000005,299.4250950570343C564.3000000000001,299.4250950570343 564.3000000000001,203.2790874524715 744.9000000000001,203.2790874524715L744.9000000000001,210.12319391634983C564.3000000000001,210.12319391634983 564.3000000000001,306.26920152091265 383.70000000000005,306.26920152091265Z" style="stroke: rgb(68, 68, 68); stroke-opacity: 1; fill: rgb(171, 99, 250); fill-opacity: 0.6; stroke-width: 0; opacity: 1;"/><path class="sankey-link" d="M383.70000000000005,306.26920152091265C564.3000000000001,306.26920152091265 564.3000000000001,311.3155893536122 744.9000000000001,311.3155893536122L744.9000000000001,322.72243346007605C564.3000000000001,322.72243346007605 564.3000000000001,317.6760456273765 383.70000000000005,317.6760456273765Z" style="stroke: rgb(68, 68, 68); stroke-opacity: 1; fill: rgb(171, 99, 250); fill-opacity: 0.6; stroke-width: 0; opacity: 1;"/><path class="sankey-link" d="M383.70000000000005,317.67604562737654C564.3000000000001,317.67604562737654 564.3000000000001,439.7749049429658 744.9000000000001,439.7749049429658L744.9000000000001,451.18174904942964C564.3000000000001,451.18174904942964 564.3000000000001,329.0828897338404 383.70000000000005,329.0828897338404Z" style="stroke: rgb(68, 68, 68); stroke-opacity: 1; fill: rgb(171, 99, 250); fill-opacity: 0.6; stroke-width: 0; opacity: 1;"/><path class="sankey-link" d="M383.70000000000005,329.08288973384043C564.3000000000001,329.08288973384043 564.3000000000001,626.5460076045628 744.9000000000001,626.5460076045628L744.9000000000001,633.390114068441C564.3000000000001,633.390114068441 564.3000000000001,335.9269961977188 383.70000000000005,335.9269961977188Z" style="stroke: rgb(68, 68, 68); stroke-opacity: 1; fill: rgb(171, 99, 250); fill-opacity: 0.6; stroke-width: 0; opacity: 1;"/><path class="sankey-link" d="M383.70000000000005,340.0334600760456C564.3000000000001,340.0334600760456 564.3000000000001,84.5840304182509 744.9000000000001,84.5840304182509L744.9000000000001,146.18098859315586C564.3000000000001,146.18098859315586 564.3000000000001,401.6304182509505 383.70000000000005,401.6304182509505Z" style="stroke: rgb(68, 68, 68); stroke-opacity: 1; fill: rgb(239, 85, 59); fill-opacity: 0.6; stroke-width: 0; opacity: 1;"/><path class="sankey-link" d="M383.70000000000005,401.6304182509506C564.3000000000001,401.6304182509506 564.3000000000001,210.1231939163498 744.9000000000001,210.1231939163498L744.9000000000001,244.34372623574143C564.3000000000001,244.34372623574143 564.3000000000001,435.8509505703422 383.70000000000005,435.8509505703422Z" style="stroke: rgb(68, 68, 68); stroke-opacity: 1; fill: rgb(239, 85, 59); fill-opacity: 0.6; stroke-width: 0; opacity: 1;"/><path class="sankey-link" d="M383.70000000000005,435.8509505703422C564.3000000000001,435.8509505703422 564.3000000000001,322.7224334600761 744.9000000000001,322.7224334600761L744.9000000000001,366.0684410646388C564.3000000000001,366.0684410646388 564.3000000000001,479.1969581749049 383.70000000000005,479.1969581749049Z" style="stroke: rgb(68, 68, 68); stroke-opacity: 1; fill: rgb(239, 85, 59); fill-opacity: 0.6; stroke-width: 0; opacity: 1;"/><path class="sankey-link" d="M383.70000000000005,479.19695817490486C564.3000000000001,479.19695817490486 564.3000000000001,451.1817490494297 744.9000000000001,451.1817490494297L744.9000000000001,524.1855513307985C564.3000000000001,524.1855513307985 564.3000000000001,552.2007604562737 383.70000000000005,552.2007604562737Z" style="stroke: rgb(68, 68, 68); stroke-opacity: 1; fill: rgb(239, 85, 59); fill-opacity: 0.6; stroke-width: 0; opacity: 1;"/><path class="sankey-link" d="M383.70000000000005,552.2007604562738C564.3000000000001,552.2007604562738 564.3000000000001,633.3901140684411 744.9000000000001,633.3901140684411L744.9000000000001,685.8615969581749C564.3000000000001,685.8615969581749 564.3000000000001,604.6722433460076 383.70000000000005,604.6722433460076Z" style="stroke: rgb(68, 68, 68); stroke-opacity: 1; fill: rgb(239, 85, 59); fill-opacity: 0.6; stroke-width: 0; opacity: 1;"/><path class="sankey-link" d="M383.70000000000005,608.9977186311787C564.3000000000001,608.9977186311787 564.3000000000001,146.18098859315586 744.9000000000001,146.18098859315586L744.9000000000001,157.58783269961975C564.3000000000001,157.58783269961975 564.3000000000001,620.4045627376427 383.70000000000005,620.4045627376427Z" style="stroke: rgb(68, 68, 68); stroke-opacity: 1; fill: rgb(182, 232, 128); fill-opacity: 0.6; stroke-width: 0; opacity: 1;"/><path class="sankey-link" d="M383.70000000000005,620.4045627376426C564.3000000000001,620.4045627376426 564.3000000000001,244.34372623574143 744.9000000000001,244.34372623574143L744.9000000000001,255.75057034220532C564.3000000000001,255.75057034220532 564.3000000000001,631.8114068441065 383.70000000000005,631.8114068441065Z" style="stroke: rgb(68, 68, 68); stroke-opacity: 1; fill: rgb(182, 232, 128); fill-opacity: 0.6; stroke-width: 0; opacity: 1;"/><path class="sankey-link" d="M383.70000000000005,631.8114068441064C564.3000000000001,631.8114068441064 564.3000000000001,366.0684410646388 744.9000000000001,366.0684410646388L744.9000000000001,368.34980988593156C564.3000000000001,368.34980988593156 564.3000000000001,634.0927756653991 383.70000000000005,634.0927756653991Z" style="stroke: rgb(68, 68, 68); stroke-opacity: 1; fill: rgb(182, 232, 128); fill-opacity: 0.6; stroke-width: 0; opacity: 1;"/><path class="sankey-link" d="M383.70000000000005,634.0927756653991C564.3000000000001,634.0927756653991 564.3000000000001,524.1855513307985 744.9000000000001,524.1855513307985L744.9000000000001,537.8737642585552C564.3000000000001,537.8737642585552 564.3000000000001,647.7809885931558 383.70000000000005,647.7809885931558Z" style="stroke: rgb(68, 68, 68); stroke-opacity: 1; fill: rgb(182, 232, 128); fill-opacity: 0.6; stroke-width: 0; opacity: 1;"/><path class="sankey-link" d="M383.70000000000005,647.7809885931558C564.3000000000001,647.7809885931558 564.3000000000001,685.8615969581749 744.9000000000001,685.8615969581749L744.9000000000001,697.2684410646389C564.3000000000001,697.2684410646389 564.3000000000001,659.1878326996198 383.70000000000005,659.1878326996198Z" style="stroke: rgb(68, 68, 68); stroke-opacity: 1; fill: rgb(182, 232, 128); fill-opacity: 0.6; stroke-width: 0; opacity: 1;"/><path class="sankey-link" d="M383.70000000000005,671.3247148288974C564.3000000000001,671.3247148288974 564.3000000000001,157.58783269961975 744.9000000000001,157.58783269961975L744.9000000000001,162.1505703422053C564.3000000000001,162.1505703422053 564.3000000000001,675.8874524714829 383.70000000000005,675.8874524714829Z" style="stroke: rgb(68, 68, 68); stroke-opacity: 1; fill: rgb(255, 151, 255); fill-opacity: 0.6; stroke-width: 0; opacity: 1;"/><path class="sankey-link" d="M383.70000000000005,675.887452471483C564.3000000000001,675.887452471483 564.3000000000001,255.75057034220535 744.9000000000001,255.75057034220535L744.9000000000001,260.3133079847909C564.3000000000001,260.3133079847909 564.3000000000001,680.4501901140685 383.70000000000005,680.4501901140685Z" style="stroke: rgb(68, 68, 68); stroke-opacity: 1; fill: rgb(255, 151, 255); fill-opacity: 0.6; stroke-width: 0; opacity: 1;"/><path class="sankey-link" d="M383.70000000000005,680.4501901140686C564.3000000000001,680.4501901140686 564.3000000000001,537.8737642585552 744.9000000000001,537.8737642585552L744.9000000000001,544.7178707224334C564.3000000000001,544.7178707224334 564.3000000000001,687.2942965779469 383.70000000000005,687.2942965779469Z" style="stroke: rgb(68, 68, 68); stroke-opacity: 1; fill: rgb(255, 151, 255); fill-opacity: 0.6; stroke-width: 0; opacity: 1;"/><path class="sankey-link" d="M383.70000000000005,687.294296577947C564.3000000000001,687.294296577947 564.3000000000001,697.2684410646388 744.9000000000001,697.2684410646388L744.9000000000001,701.8311787072242C564.3000000000001,701.8311787072242 564.3000000000001,691.8570342205325 383.70000000000005,691.8570342205325Z" style="stroke: rgb(68, 68, 68); stroke-opacity: 1; fill: rgb(255, 151, 255); fill-opacity: 0.6; stroke-width: 0; opacity: 1;"/></g><g class="sankey-node-set" style="cursor: ns-resize;"><g class="sankey-node" transform="translate(744.900,18.424)" style="opacity: 1;"><rect class="node-rect" width="15" height="143.72623574144495" style="stroke-width: 0.5; stroke: rgb(0, 0, 0); stroke-opacity: 1; fill: rgb(128, 128, 128); fill-opacity: 1;"/><text class="node-label" data-notex="1" x="0" y="0" text-anchor="end" transform="translate(-3.25,76.06311787072248)" style="cursor: default; font-family: 'Open Sans', verdana, arial, sans-serif; font-size: 12px; fill: rgb(42, 63, 95); fill-opacity: 1; white-space: pre; text-shadow: white 1px 1px 1px, white -1px -1px 1px, white 1px -1px 1px, white -1px 1px 1px;">dig</text></g><g class="sankey-node" transform="translate(744.900,182.747)" style="opacity: 1;"><rect class="node-rect" width="15" height="77.56653992395434" style="stroke-width: 0.5; stroke: rgb(0, 0, 0); stroke-opacity: 1; fill: rgb(128, 128, 128); fill-opacity: 1;"/><text class="node-label" data-notex="1" x="0" y="0" text-anchor="end" transform="translate(-3.25,42.98326996197717)" style="cursor: default; font-family: 'Open Sans', verdana, arial, sans-serif; font-size: 12px; fill: rgb(42, 63, 95); fill-opacity: 1; white-space: pre; text-shadow: white 1px 1px 1px, white -1px -1px 1px, white 1px -1px 1px, white -1px 1px 1px;">groom_front</text></g><g class="sankey-node" transform="translate(744.900,279.376)" style="opacity: 1;"><rect class="node-rect" width="15" height="88.97338403041829" style="stroke-width: 0.5; stroke: rgb(0, 0, 0); stroke-opacity: 1; fill: rgb(128, 128, 128); fill-opacity: 1;"/><text class="node-label" data-notex="1" x="0" y="0" text-anchor="end" transform="translate(-3.25,48.68669201520915)" style="cursor: default; font-family: 'Open Sans', verdana, arial, sans-serif; font-size: 12px; fill: rgb(42, 63, 95); fill-opacity: 1; white-space: pre; text-shadow: white 1px 1px 1px, white -1px -1px 1px, white 1px -1px 1px, white -1px 1px 1px;">still</text></g><g class="sankey-node" transform="translate(744.900,389.585)" style="opacity: 1;"><rect class="node-rect" width="15" height="155.13307984790873" style="stroke-width: 0.5; stroke: rgb(0, 0, 0); stroke-opacity: 1; fill: rgb(128, 128, 128); fill-opacity: 1;"/><text class="node-label" data-notex="1" x="0" y="0" text-anchor="end" transform="translate(-3.25,81.76653992395437)" style="cursor: default; font-family: 'Open Sans', verdana, arial, sans-serif; font-size: 12px; fill: rgb(42, 63, 95); fill-opacity: 1; white-space: pre; text-shadow: white 1px 1px 1px, white -1px -1px 1px, white 1px -1px 1px, white -1px 1px 1px;">walk</text></g><g class="sankey-node" transform="translate(744.900,567.230)" style="opacity: 1;"><rect class="node-rect" width="15" height="134.60076045627375" style="stroke-width: 0.5; stroke: rgb(0, 0, 0); stroke-opacity: 1; fill: rgb(128, 128, 128); fill-opacity: 1;"/><text class="node-label" data-notex="1" x="0" y="0" text-anchor="end" transform="translate(-3.25,71.50038022813688)" style="cursor: default; font-family: 'Open Sans', verdana, arial, sans-serif; font-size: 12px; fill: rgb(42, 63, 95); fill-opacity: 1; white-space: pre; text-shadow: white 1px 1px 1px, white -1px -1px 1px, white 1px -1px 1px, white -1px 1px 1px;">wallclimb</text></g><g class="sankey-node" transform="translate(368.700,14.035)" style="opacity: 1;"><rect class="node-rect" width="15" height="11.40684410646395" style="stroke-width: 0.5; stroke: rgb(0, 0, 0); stroke-opacity: 1; fill: rgb(25, 211, 243); fill-opacity: 1;"/><text class="node-label" data-notex="1" x="0" y="0" text-anchor="start" transform="translate(18.25,9.903422053231974)" style="cursor: default; font-family: 'Open Sans', verdana, arial, sans-serif; font-size: 12px; fill: rgb(42, 63, 95); fill-opacity: 1; white-space: pre; text-shadow: white 1px 1px 1px, white -1px -1px 1px, white 1px -1px 1px, white -1px 1px 1px;">BLA</text></g><g class="sankey-node" transform="translate(368.700,36.192)" style="opacity: 1;"><rect class="node-rect" width="15" height="102.66159695817511" style="stroke-width: 0.5; stroke: rgb(0, 0, 0); stroke-opacity: 1; fill: rgb(99, 110, 250); fill-opacity: 1;"/><text class="node-label" data-notex="1" x="0" y="0" text-anchor="start" transform="translate(18.25,55.53079847908755)" style="cursor: default; font-family: 'Open Sans', verdana, arial, sans-serif; font-size: 12px; fill: rgb(42, 63, 95); fill-opacity: 1; white-space: pre; text-shadow: white 1px 1px 1px, white -1px -1px 1px, white 1px -1px 1px, white -1px 1px 1px;">Cla</text></g><g class="sankey-node" transform="translate(368.700,149.019)" style="opacity: 1;"><rect class="node-rect" width="15" height="29.657794676806134" style="stroke-width: 0.5; stroke: rgb(0, 0, 0); stroke-opacity: 1; fill: rgb(0, 204, 150); fill-opacity: 1;"/><text class="node-label" data-notex="1" x="0" y="0" text-anchor="start" transform="translate(18.25,19.028897338403066)" style="cursor: default; font-family: 'Open Sans', verdana, arial, sans-serif; font-size: 12px; fill: rgb(42, 63, 95); fill-opacity: 1; white-space: pre; text-shadow: white 1px 1px 1px, white -1px -1px 1px, white 1px -1px 1px, white -1px 1px 1px;">LC</text></g><g class="sankey-node" transform="translate(368.700,190.741)" style="opacity: 1;"><rect class="node-rect" width="15" height="43.34600760456283" style="stroke-width: 0.5; stroke: rgb(0, 0, 0); stroke-opacity: 1; fill: rgb(254, 203, 82); fill-opacity: 1;"/><text class="node-label" data-notex="1" x="0" y="0" text-anchor="start" transform="translate(18.25,25.873003802281413)" style="cursor: default; font-family: 'Open Sans', verdana, arial, sans-serif; font-size: 12px; fill: rgb(42, 63, 95); fill-opacity: 1; white-space: pre; text-shadow: white 1px 1px 1px, white -1px -1px 1px, white 1px -1px 1px, white -1px 1px 1px;">LHyp</text></g><g class="sankey-node" transform="translate(368.700,246.443)" style="opacity: 1;"><rect class="node-rect" width="15" height="20.53231939163493" style="stroke-width: 0.5; stroke: rgb(0, 0, 0); stroke-opacity: 1; fill: rgb(255, 161, 90); fill-opacity: 1;"/><text class="node-label" data-notex="1" x="0" y="0" text-anchor="start" transform="translate(18.25,14.466159695817463)" style="cursor: default; font-family: 'Open Sans', verdana, arial, sans-serif; font-size: 12px; fill: rgb(42, 63, 95); fill-opacity: 1; white-space: pre; text-shadow: white 1px 1px 1px, white -1px -1px 1px, white 1px -1px 1px, white -1px 1px 1px;">NAc</text></g><g class="sankey-node" transform="translate(368.700,278.893)" style="opacity: 1;"><rect class="node-rect" width="15" height="57.034220532319296" style="stroke-width: 0.5; stroke: rgb(0, 0, 0); stroke-opacity: 1; fill: rgb(171, 99, 250); fill-opacity: 1;"/><text class="node-label" data-notex="1" x="0" y="0" text-anchor="start" transform="translate(18.25,32.71711026615965)" style="cursor: default; font-family: 'Open Sans', verdana, arial, sans-serif; font-size: 12px; fill: rgb(42, 63, 95); fill-opacity: 1; white-space: pre; text-shadow: white 1px 1px 1px, white -1px -1px 1px, white 1px -1px 1px, white -1px 1px 1px;">Str</text></g><g class="sankey-node" transform="translate(368.700,340.033)" style="opacity: 1;"><rect class="node-rect" width="15" height="264.63878326996206" style="stroke-width: 0.5; stroke: rgb(0, 0, 0); stroke-opacity: 1; fill: rgb(239, 85, 59); fill-opacity: 1;"/><text class="node-label" data-notex="1" x="0" y="0" text-anchor="start" transform="translate(18.25,136.51939163498102)" style="cursor: default; font-family: 'Open Sans', verdana, arial, sans-serif; font-size: 12px; fill: rgb(42, 63, 95); fill-opacity: 1; white-space: pre; text-shadow: white 1px 1px 1px, white -1px -1px 1px, white 1px -1px 1px, white -1px 1px 1px;">VTA</text></g><g class="sankey-node" transform="translate(368.700,608.998)" style="opacity: 1;"><rect class="node-rect" width="15" height="50.19011406844106" style="stroke-width: 0.5; stroke: rgb(0, 0, 0); stroke-opacity: 1; fill: rgb(182, 232, 128); fill-opacity: 1;"/><text class="node-label" data-notex="1" x="0" y="0" text-anchor="start" transform="translate(18.25,29.29505703422053)" style="cursor: default; font-family: 'Open Sans', verdana, arial, sans-serif; font-size: 12px; fill: rgb(42, 63, 95); fill-opacity: 1; white-space: pre; text-shadow: white 1px 1px 1px, white -1px -1px 1px, white 1px -1px 1px, white -1px 1px 1px;">cPFC</text></g><g class="sankey-node" transform="translate(368.700,671.325)" style="opacity: 1;"><rect class="node-rect" width="15" height="20.53231939163493" style="stroke-width: 0.5; stroke: rgb(0, 0, 0); stroke-opacity: 1; fill: rgb(255, 151, 255); fill-opacity: 1;"/><text class="node-label" data-notex="1" x="0" y="0" text-anchor="start" transform="translate(18.25,14.466159695817463)" style="cursor: default; font-family: 'Open Sans', verdana, arial, sans-serif; font-size: 12px; fill: rgb(42, 63, 95); fill-opacity: 1; white-space: pre; text-shadow: white 1px 1px 1px, white -1px -1px 1px, white 1px -1px 1px, white -1px 1px 1px;">dPAG</text></g></g></g><defs id="topdefs-5a849a"><g class="clips"/></defs><g class="layer-above"><g class="imagelayer"/><g class="shapelayer"/></g><g class="infolayer"><g class="g-gtitle"/><g class="first-render"/></g></svg>