<svg class="main-svg" xmlns="http://www.w3.org/2000/svg" xmlns:xlink="http://www.w3.org/1999/xlink" width="1300" height="900" viewBox="0 0 1300 900" style=""><rect x="0" y="0" width="1300" height="900" style="fill: rgb(255, 255, 255); fill-opacity: 1;"/><defs id="defs-409b96"><g class="clips"/><g class="gradients"/><g class="patterns"/></defs><g class="bglayer"/><g class="layer-below"><g class="imagelayer"/><g class="shapelayer"/></g><g class="cartesianlayer"/><g class="polarlayer"/><g class="smithlayer"/><g class="ternarylayer"/><g class="geolayer"/><g class="funnelarealayer"/><g class="pielayer"/><g class="iciclelayer"/><g class="treemaplayer"/><g class="sunburstlayer"/><g class="glimages"/><g class="sankey" transform="translate(80,100)matrix(1 0 0 1 0 0)" style="box-sizing: content-box; position: absolute; left: 0px; shape-rendering: geometricprecision; pointer-events: none;"><g class="sankey-links" style="fill: none;"><path class="sankey-link" d="M15,682.1863117870722C570,682.1863117870722 570,715.4372623574144 1125,715.4372623574144L1125,717.7186311787071C570,717.7186311787071 570,684.467680608365 15,684.467680608365Z" style="stroke: rgb(68, 68, 68); stroke-opacity: 1; fill: rgb(25, 211, 243); fill-opacity: 0.6; stroke-width: 0; opacity: 1;"/><path class="sankey-link" d="M15,673.0608365019011C570,673.0608365019011 570,212.85171102661636 1125,212.85171102661636L1125,215.13307984790916C570,215.13307984790916 570,675.3422053231939 15,675.3422053231939Z" style="stroke: rgb(68, 68, 68); stroke-opacity: 1; fill: rgb(25, 211, 243); fill-opacity: 0.6; stroke-width: 0; opacity: 1;"/><path class="sankey-link" d="M15,675.3422053231939C570,675.3422053231939 570,609.1825095057034 1125,609.1825095057034L1125,616.0266159695816C570,616.0266159695816 570,682.1863117870721 15,682.1863117870721Z" style="stroke: rgb(68, 68, 68); stroke-opacity: 1; fill: rgb(25, 211, 243); fill-opacity: 0.6; stroke-width: 0; opacity: 1;"/><path class="sankey-link" d="M15,325.2661596958172C570,325.2661596958172 570,395.70342205323226 1125,395.70342205323226L1125,418.51711026616005C570,418.51711026616005 570,348.07984790874497 15,348.07984790874497Z" style="stroke: rgb(68, 68, 68); stroke-opacity: 1; fill: rgb(99, 110, 250); fill-opacity: 0.6; stroke-width: 0; opacity: 1;"/><path class="sankey-link" d="M15,373.17490494296544C570,373.17490494296544 570,676.6539923954372 1125,676.6539923954372L1125,685.7794676806084C570,685.7794676806084 570,382.30038022813653 15,382.30038022813653Z" style="stroke: rgb(68, 68, 68); stroke-opacity: 1; fill: rgb(99, 110, 250); fill-opacity: 0.6; stroke-width: 0; opacity: 1;"/><path class="sankey-link" d="M15,309.29657794676774C570,309.29657794676774 570,273.47908745247184 1125,273.47908745247184L1125,289.4486692015213C570,289.4486692015213 570,325.2661596958172 15,325.2661596958172Z" style="stroke: rgb(68, 68, 68); stroke-opacity: 1; fill: rgb(99, 110, 250); fill-opacity: 0.6; stroke-width: 0; opacity: 1;"/><path class="sankey-link" d="M15,279.63878326996166C570,279.63878326996166 570,133.00380228136922 1125,133.00380228136922L1125,162.6615969581753C570,162.6615969581753 570,309.2965779467678 15,309.2965779467678Z" style="stroke: rgb(68, 68, 68); stroke-opacity: 1; fill: rgb(99, 110, 250); fill-opacity: 0.6; stroke-width: 0; opacity: 1;"/><path class="sankey-link" d="M15,348.0798479087449C570,348.0798479087449 570,545.3041825095056 1125,545.3041825095056L1125,570.3992395437263C570,570.3992395437263 570,373.17490494296544 15,373.17490494296544Z" style="stroke: rgb(68, 68, 68); stroke-opacity: 1; fill: rgb(99, 110, 250); fill-opacity: 0.6; stroke-width: 0; opacity: 1;"/><path class="sankey-link" d="M15,541.3688212927756C570,541.3688212927756 570,452.7376425855516 1125,452.7376425855516L1125,455.01901140684436C570,455.01901140684436 570,543.6501901140683 15,543.6501901140683Z" style="stroke: rgb(68, 68, 68); stroke-opacity: 1; fill: rgb(0, 204, 150); fill-opacity: 0.6; stroke-width: 0; opacity: 1;"/><path class="sankey-link" d="M15,552.7756653992394C570,552.7756653992394 570,694.9049429657794 1125,694.9049429657794L1125,699.4676806083648C570,699.4676806083648 570,557.3384030418249 15,557.3384030418249Z" style="stroke: rgb(68, 68, 68); stroke-opacity: 1; fill: rgb(0, 204, 150); fill-opacity: 0.6; stroke-width: 0; opacity: 1;"/><path class="sankey-link" d="M15,534.5247148288972C570,534.5247148288972 570,309.98098859315627 1125,309.98098859315627L1125,316.8250950570346C570,316.8250950570346 570,541.3688212927755 15,541.3688212927755Z" style="stroke: rgb(68, 68, 68); stroke-opacity: 1; fill: rgb(0, 204, 150); fill-opacity: 0.6; stroke-width: 0; opacity: 1;"/><path class="sankey-link" d="M15,527.6806083650189C570,527.6806083650189 570,185.47528517110305 1125,185.47528517110305L1125,192.3193916349814C570,192.3193916349814 570,534.5247148288971 15,534.5247148288971Z" style="stroke: rgb(68, 68, 68); stroke-opacity: 1; fill: rgb(0, 204, 150); fill-opacity: 0.6; stroke-width: 0; opacity: 1;"/><path class="sankey-link" d="M15,543.6501901140683C570,543.6501901140683 570,584.0874524714828 1125,584.0874524714828L1125,593.212927756654C570,593.212927756654 570,552.7756653992395 15,552.7756653992395Z" style="stroke: rgb(68, 68, 68); stroke-opacity: 1; fill: rgb(0, 204, 150); fill-opacity: 0.6; stroke-width: 0; opacity: 1;"/><path class="sankey-link" d="M15,417.8326996197715C570,417.8326996197715 570,418.51711026616 1125,418.51711026616L1125,432.2053231939167C570,432.2053231939167 570,431.5209125475282 15,431.5209125475282Z" style="stroke: rgb(68, 68, 68); stroke-opacity: 1; fill: rgb(254, 203, 82); fill-opacity: 0.6; stroke-width: 0; opacity: 1;"/><path class="sankey-link" d="M15,438.3650190114065C570,438.3650190114065 570,685.7794676806083 1125,685.7794676806083L1125,688.060836501901C570,688.060836501901 570,440.64638783269925 15,440.64638783269925Z" style="stroke: rgb(68, 68, 68); stroke-opacity: 1; fill: rgb(254, 203, 82); fill-opacity: 0.6; stroke-width: 0; opacity: 1;"/><path class="sankey-link" d="M15,408.7072243346004C570,408.7072243346004 570,289.4486692015213 1125,289.4486692015213L1125,298.5741444866924C570,298.5741444866924 570,417.8326996197715 15,417.8326996197715Z" style="stroke: rgb(68, 68, 68); stroke-opacity: 1; fill: rgb(254, 203, 82); fill-opacity: 0.6; stroke-width: 0; opacity: 1;"/><path class="sankey-link" d="M15,397.30038022813653C570,397.30038022813653 570,162.6615969581753 1125,162.6615969581753L1125,174.0684410646392C570,174.0684410646392 570,408.70722433460037 15,408.70722433460037Z" style="stroke: rgb(68, 68, 68); stroke-opacity: 1; fill: rgb(254, 203, 82); fill-opacity: 0.6; stroke-width: 0; opacity: 1;"/><path class="sankey-link" d="M15,431.52091254752816C570,431.52091254752816 570,570.3992395437261 1125,570.3992395437261L1125,577.2433460076044C570,577.2433460076044 570,438.3650190114065 15,438.3650190114065Z" style="stroke: rgb(68, 68, 68); stroke-opacity: 1; fill: rgb(254, 203, 82); fill-opacity: 0.6; stroke-width: 0; opacity: 1;"/><path class="sankey-link" d="M15,699.4676806083651C570,699.4676806083651 570,470.98859315589385 1125,470.98859315589385L1125,477.8326996197722C570,477.8326996197722 570,706.3117870722433 15,706.3117870722433Z" style="stroke: rgb(68, 68, 68); stroke-opacity: 1; fill: rgb(255, 161, 90); fill-opacity: 0.6; stroke-width: 0; opacity: 1;"/><path class="sankey-link" d="M15,717.7186311787073C570,717.7186311787073 570,717.7186311787071 1125,717.7186311787071L1125,719.9999999999999C570,719.9999999999999 570,720 15,720Z" style="stroke: rgb(68, 68, 68); stroke-opacity: 1; fill: rgb(255, 161, 90); fill-opacity: 0.6; stroke-width: 0; opacity: 1;"/><path class="sankey-link" d="M15,706.3117870722434C570,706.3117870722434 570,616.0266159695817 1125,616.0266159695817L1125,627.4334600760457C570,627.4334600760457 570,717.7186311787074 15,717.7186311787074Z" style="stroke: rgb(68, 68, 68); stroke-opacity: 1; fill: rgb(255, 161, 90); fill-opacity: 0.6; stroke-width: 0; opacity: 1;"/><path class="sankey-link" d="M15,478.46007604562703C570,478.46007604562703 570,432.2053231939166 1125,432.2053231939166L1125,452.73764258555155C570,452.73764258555155 570,498.99239543726196 15,498.99239543726196Z" style="stroke: rgb(68, 68, 68); stroke-opacity: 1; fill: rgb(171, 99, 250); fill-opacity: 0.6; stroke-width: 0; opacity: 1;"/><path class="sankey-link" d="M15,505.83650190114037C570,505.83650190114037 570,688.060836501901 1125,688.060836501901L1125,694.9049429657792C570,694.9049429657792 570,512.6806083650187 15,512.6806083650187Z" style="stroke: rgb(68, 68, 68); stroke-opacity: 1; fill: rgb(171, 99, 250); fill-opacity: 0.6; stroke-width: 0; opacity: 1;"/><path class="sankey-link" d="M15,467.05323193916314C570,467.05323193916314 570,298.5741444866924 1125,298.5741444866924L1125,309.9809885931562C570,309.9809885931562 570,478.460076045627 15,478.460076045627Z" style="stroke: rgb(68, 68, 68); stroke-opacity: 1; fill: rgb(171, 99, 250); fill-opacity: 0.6; stroke-width: 0; opacity: 1;"/><path class="sankey-link" d="M15,455.64638783269925C570,455.64638783269925 570,174.06844106463916 1125,174.06844106463916L1125,185.47528517110305C570,185.47528517110305 570,467.0532319391631 15,467.0532319391631Z" style="stroke: rgb(68, 68, 68); stroke-opacity: 1; fill: rgb(171, 99, 250); fill-opacity: 0.6; stroke-width: 0; opacity: 1;"/><path class="sankey-link" d="M15,498.992395437262C570,498.992395437262 570,577.2433460076045 1125,577.2433460076045L1125,584.0874524714827C570,584.0874524714827 570,505.83650190114037 15,505.83650190114037Z" style="stroke: rgb(68, 68, 68); stroke-opacity: 1; fill: rgb(171, 99, 250); fill-opacity: 0.6; stroke-width: 0; opacity: 1;"/><path class="sankey-link" d="M15,116.34980988593122C570,116.34980988593122 570,334.1064638783273 1125,334.1064638783273L1125,395.7034220532322C570,395.7034220532322 570,177.94676806083618 15,177.94676806083618Z" style="stroke: rgb(68, 68, 68); stroke-opacity: 1; fill: rgb(239, 85, 59); fill-opacity: 0.6; stroke-width: 0; opacity: 1;"/><path class="sankey-link" d="M15,230.41825095057C570,230.41825095057 570,642.4334600760455 1125,642.4334600760455L1125,676.6539923954372C570,676.6539923954372 570,264.63878326996166 15,264.63878326996166Z" style="stroke: rgb(68, 68, 68); stroke-opacity: 1; fill: rgb(239, 85, 59); fill-opacity: 0.6; stroke-width: 0; opacity: 1;"/><path class="sankey-link" d="M15,73.00380228136848C570,73.00380228136848 570,230.13307984790913 1125,230.13307984790913L1125,273.47908745247184C570,273.47908745247184 570,116.34980988593122 15,116.34980988593122Z" style="stroke: rgb(68, 68, 68); stroke-opacity: 1; fill: rgb(239, 85, 59); fill-opacity: 0.6; stroke-width: 0; opacity: 1;"/><path class="sankey-link" d="M15,-3.410605131648481e-13C570,-3.410605131648481e-13 570,60.0000000000004 1125,60.0000000000004L1125,133.00380228136922C570,133.00380228136922 570,73.00380228136848 15,73.00380228136848Z" style="stroke: rgb(68, 68, 68); stroke-opacity: 1; fill: rgb(239, 85, 59); fill-opacity: 0.6; stroke-width: 0; opacity: 1;"/><path class="sankey-link" d="M15,177.94676806083618C570,177.94676806083618 570,492.8326996197718 1125,492.8326996197718L1125,545.3041825095056C570,545.3041825095056 570,230.41825095057004 15,230.41825095057004Z" style="stroke: rgb(68, 68, 68); stroke-opacity: 1; fill: rgb(239, 85, 59); fill-opacity: 0.6; stroke-width: 0; opacity: 1;"/><path class="sankey-link" d="M15,588.3079847908745C570,588.3079847908745 570,455.0190114068444 1125,455.0190114068444L1125,466.42585551330825C570,466.42585551330825 570,599.7148288973384 15,599.7148288973384Z" style="stroke: rgb(68, 68, 68); stroke-opacity: 1; fill: rgb(182, 232, 128); fill-opacity: 0.6; stroke-width: 0; opacity: 1;"/><path class="sankey-link" d="M15,611.1216730038021C570,611.1216730038021 570,699.467680608365 1125,699.467680608365L1125,710.8745247148289C570,710.8745247148289 570,622.5285171102661 15,622.5285171102661Z" style="stroke: rgb(68, 68, 68); stroke-opacity: 1; fill: rgb(182, 232, 128); fill-opacity: 0.6; stroke-width: 0; opacity: 1;"/><path class="sankey-link" d="M15,586.0266159695817C570,586.0266159695817 570,316.8250950570346 1125,316.8250950570346L1125,319.10646387832736C570,319.10646387832736 570,588.3079847908745 15,588.3079847908745Z" style="stroke: rgb(68, 68, 68); stroke-opacity: 1; fill: rgb(182, 232, 128); fill-opacity: 0.6; stroke-width: 0; opacity: 1;"/><path class="sankey-link" d="M15,572.338403041825C570,572.338403041825 570,192.31939163498137 1125,192.31939163498137L1125,206.007604562738C570,206.007604562738 570,586.0266159695817 15,586.0266159695817Z" style="stroke: rgb(68, 68, 68); stroke-opacity: 1; fill: rgb(182, 232, 128); fill-opacity: 0.6; stroke-width: 0; opacity: 1;"/><path class="sankey-link" d="M15,599.7148288973383C570,599.7148288973383 570,593.2129277566539 1125,593.2129277566539L1125,604.6197718631179C570,604.6197718631179 570,611.1216730038022 15,611.1216730038022Z" style="stroke: rgb(68, 68, 68); stroke-opacity: 1; fill: rgb(182, 232, 128); fill-opacity: 0.6; stroke-width: 0; opacity: 1;"/><path class="sankey-link" d="M15,644.3726235741444C570,644.3726235741444 570,466.4258555133083 1125,466.4258555133083L1125,470.9885931558939C570,470.9885931558939 570,648.9353612167299 15,648.9353612167299Z" style="stroke: rgb(68, 68, 68); stroke-opacity: 1; fill: rgb(255, 151, 255); fill-opacity: 0.6; stroke-width: 0; opacity: 1;"/><path class="sankey-link" d="M15,653.4980988593156C570,653.4980988593156 570,710.8745247148288 1125,710.8745247148288L1125,715.4372623574143C570,715.4372623574143 570,658.0608365019011 15,658.0608365019011Z" style="stroke: rgb(68, 68, 68); stroke-opacity: 1; fill: rgb(255, 151, 255); fill-opacity: 0.6; stroke-width: 0; opacity: 1;"/><path class="sankey-link" d="M15,637.5285171102661C570,637.5285171102661 570,206.00760456273804 1125,206.00760456273804L1125,212.85171102661639C570,212.85171102661639 570,644.3726235741443 15,644.3726235741443Z" style="stroke: rgb(68, 68, 68); stroke-opacity: 1; fill: rgb(255, 151, 255); fill-opacity: 0.6; stroke-width: 0; opacity: 1;"/><path class="sankey-link" d="M15,648.93536121673C570,648.93536121673 570,604.6197718631178 1125,604.6197718631178L1125,609.1825095057033C570,609.1825095057033 570,653.4980988593155 15,653.4980988593155Z" style="stroke: rgb(68, 68, 68); stroke-opacity: 1; fill: rgb(255, 151, 255); fill-opacity: 0.6; stroke-width: 0; opacity: 1;"/></g><g class="sankey-node-set" style="cursor: move;"><g class="sankey-node" transform="translate(1125.000,334.106)" style="opacity: 1;"><rect class="node-rect" width="15" height="143.7262357414445" style="stroke-width: 0.5; stroke: rgb(0, 0, 0); stroke-opacity: 1; fill: rgb(128, 128, 128); fill-opacity: 1;"/><text class="node-label" data-notex="1" x="0" y="0" text-anchor="end" transform="translate(-3.25,76.06311787072225)" style="cursor: default; font-family: 'Open Sans', verdana, arial, sans-serif; font-size: 12px; fill: rgb(42, 63, 95); fill-opacity: 1; white-space: pre; text-shadow: white 1px 1px 1px, white -1px -1px 1px, white 1px -1px 1px, white -1px 1px 1px;">dig</text></g><g class="sankey-node" transform="translate(1125.000,60.000)" style="opacity: 1;"><rect class="node-rect" width="15" height="155.13307984790873" style="stroke-width: 0.5; stroke: rgb(0, 0, 0); stroke-opacity: 1; fill: rgb(128, 128, 128); fill-opacity: 1;"/><text class="node-label" data-notex="1" x="0" y="0" text-anchor="end" transform="translate(-3.25,81.76653992395437)" style="cursor: default; font-family: 'Open Sans', verdana, arial, sans-serif; font-size: 12px; fill: rgb(42, 63, 95); fill-opacity: 1; white-space: pre; text-shadow: white 1px 1px 1px, white -1px -1px 1px, white 1px -1px 1px, white -1px 1px 1px;">walk</text></g><g class="sankey-node" transform="translate(1125.000,492.833)" style="opacity: 1;"><rect class="node-rect" width="15" height="134.60076045627375" style="stroke-width: 0.5; stroke: rgb(0, 0, 0); stroke-opacity: 1; fill: rgb(128, 128, 128); fill-opacity: 1;"/><text class="node-label" data-notex="1" x="0" y="0" text-anchor="end" transform="translate(-3.25,71.50038022813688)" style="cursor: default; font-family: 'Open Sans', verdana, arial, sans-serif; font-size: 12px; fill: rgb(42, 63, 95); fill-opacity: 1; white-space: pre; text-shadow: white 1px 1px 1px, white -1px -1px 1px, white 1px -1px 1px, white -1px 1px 1px;">wallclimb</text></g><g class="sankey-node" transform="translate(1125.000,642.433)" style="opacity: 1;"><rect class="node-rect" width="15" height="77.56653992395445" style="stroke-width: 0.5; stroke: rgb(0, 0, 0); stroke-opacity: 1; fill: rgb(128, 128, 128); fill-opacity: 1;"/><text class="node-label" data-notex="1" x="0" y="0" text-anchor="end" transform="translate(-3.25,42.98326996197723)" style="cursor: default; font-family: 'Open Sans', verdana, arial, sans-serif; font-size: 12px; fill: rgb(42, 63, 95); fill-opacity: 1; white-space: pre; text-shadow: white 1px 1px 1px, white -1px -1px 1px, white 1px -1px 1px, white -1px 1px 1px;">groom_front</text></g><g class="sankey-node" transform="translate(1125.000,230.133)" style="opacity: 1;"><rect class="node-rect" width="15" height="88.97338403041817" style="stroke-width: 0.5; stroke: rgb(0, 0, 0); stroke-opacity: 1; fill: rgb(128, 128, 128); fill-opacity: 1;"/><text class="node-label" data-notex="1" x="0" y="0" text-anchor="end" transform="translate(-3.25,48.68669201520909)" style="cursor: default; font-family: 'Open Sans', verdana, arial, sans-serif; font-size: 12px; fill: rgb(42, 63, 95); fill-opacity: 1; white-space: pre; text-shadow: white 1px 1px 1px, white -1px -1px 1px, white 1px -1px 1px, white -1px 1px 1px;">still</text></g><g class="sankey-node" transform="translate(0.000,279.639)" style="opacity: 1;"><rect class="node-rect" width="15" height="102.66159695817487" style="stroke-width: 0.5; stroke: rgb(0, 0, 0); stroke-opacity: 1; fill: rgb(99, 110, 250); fill-opacity: 1;"/><text class="node-label" data-notex="1" x="0" y="0" text-anchor="start" transform="translate(18.25,55.53079847908744)" style="cursor: default; font-family: 'Open Sans', verdana, arial, sans-serif; font-size: 12px; fill: rgb(42, 63, 95); fill-opacity: 1; white-space: pre; text-shadow: white 1px 1px 1px, white -1px -1px 1px, white 1px -1px 1px, white -1px 1px 1px;">Cla</text></g><g class="sankey-node" transform="translate(0.000,-0.000)" style="opacity: 1;"><rect class="node-rect" width="15" height="264.638783269962" style="stroke-width: 0.5; stroke: rgb(0, 0, 0); stroke-opacity: 1; fill: rgb(239, 85, 59); fill-opacity: 1;"/><text class="node-label" data-notex="1" x="0" y="0" text-anchor="start" transform="translate(18.25,136.519391634981)" style="cursor: default; font-family: 'Open Sans', verdana, arial, sans-serif; font-size: 12px; fill: rgb(42, 63, 95); fill-opacity: 1; white-space: pre; text-shadow: white 1px 1px 1px, white -1px -1px 1px, white 1px -1px 1px, white -1px 1px 1px;">VTA</text></g><g class="sankey-node" transform="translate(0.000,527.681)" style="opacity: 1;"><rect class="node-rect" width="15" height="29.657794676806134" style="stroke-width: 0.5; stroke: rgb(0, 0, 0); stroke-opacity: 1; fill: rgb(0, 204, 150); fill-opacity: 1;"/><text class="node-label" data-notex="1" x="0" y="0" text-anchor="start" transform="translate(18.25,19.028897338403066)" style="cursor: default; font-family: 'Open Sans', verdana, arial, sans-serif; font-size: 12px; fill: rgb(42, 63, 95); fill-opacity: 1; white-space: pre; text-shadow: white 1px 1px 1px, white -1px -1px 1px, white 1px -1px 1px, white -1px 1px 1px;">LC</text></g><g class="sankey-node" transform="translate(0.000,455.646)" style="opacity: 1;"><rect class="node-rect" width="15" height="57.03422053231964" style="stroke-width: 0.5; stroke: rgb(0, 0, 0); stroke-opacity: 1; fill: rgb(171, 99, 250); fill-opacity: 1;"/><text class="node-label" data-notex="1" x="0" y="0" text-anchor="start" transform="translate(18.25,32.71711026615982)" style="cursor: default; font-family: 'Open Sans', verdana, arial, sans-serif; font-size: 12px; fill: rgb(42, 63, 95); fill-opacity: 1; white-space: pre; text-shadow: white 1px 1px 1px, white -1px -1px 1px, white 1px -1px 1px, white -1px 1px 1px;">Str</text></g><g class="sankey-node" transform="translate(0.000,699.468)" style="opacity: 1;"><rect class="node-rect" width="15" height="20.53231939163493" style="stroke-width: 0.5; stroke: rgb(0, 0, 0); stroke-opacity: 1; fill: rgb(255, 161, 90); fill-opacity: 1;"/><text class="node-label" data-notex="1" x="0" y="0" text-anchor="start" transform="translate(18.25,14.466159695817463)" style="cursor: default; font-family: 'Open Sans', verdana, arial, sans-serif; font-size: 12px; fill: rgb(42, 63, 95); fill-opacity: 1; white-space: pre; text-shadow: white 1px 1px 1px, white -1px -1px 1px, white 1px -1px 1px, white -1px 1px 1px;">NAc</text></g><g class="sankey-node" transform="translate(0.000,673.061)" style="opacity: 1;"><rect class="node-rect" width="15" height="11.40684410646395" style="stroke-width: 0.5; stroke: rgb(0, 0, 0); stroke-opacity: 1; fill: rgb(25, 211, 243); fill-opacity: 1;"/><text class="node-label" data-notex="1" x="0" y="0" text-anchor="start" transform="translate(18.25,9.903422053231974)" style="cursor: default; font-family: 'Open Sans', verdana, arial, sans-serif; font-size: 12px; fill: rgb(42, 63, 95); fill-opacity: 1; white-space: pre; text-shadow: white 1px 1px 1px, white -1px -1px 1px, white 1px -1px 1px, white -1px 1px 1px;">BLA</text></g><g class="sankey-node" transform="translate(0.000,572.338)" style="opacity: 1;"><rect class="node-rect" width="15" height="50.19011406844106" style="stroke-width: 0.5; stroke: rgb(0, 0, 0); stroke-opacity: 1; fill: rgb(182, 232, 128); fill-opacity: 1;"/><text class="node-label" data-notex="1" x="0" y="0" text-anchor="start" transform="translate(18.25,29.29505703422053)" style="cursor: default; font-family: 'Open Sans', verdana, arial, sans-serif; font-size: 12px; fill: rgb(42, 63, 95); fill-opacity: 1; white-space: pre; text-shadow: white 1px 1px 1px, white -1px -1px 1px, white 1px -1px 1px, white -1px 1px 1px;">cPFC</text></g><g class="sankey-node" transform="translate(0.000,637.529)" style="opacity: 1;"><rect class="node-rect" width="15" height="20.532319391635042" style="stroke-width: 0.5; stroke: rgb(0, 0, 0); stroke-opacity: 1; fill: rgb(255, 151, 255); fill-opacity: 1;"/><text class="node-label" data-notex="1" x="0" y="0" text-anchor="start" transform="translate(18.25,14.46615969581752)" style="cursor: default; font-family: 'Open Sans', verdana, arial, sans-serif; font-size: 12px; fill: rgb(42, 63, 95); fill-opacity: 1; white-space: pre; text-shadow: white 1px 1px 1px, white -1px -1px 1px, white 1px -1px 1px, white -1px 1px 1px;">dPAG</text></g><g class="sankey-node" transform="translate(0.000,397.300)" style="opacity: 1;"><rect class="node-rect" width="15" height="43.346007604562715" style="stroke-width: 0.5; stroke: rgb(0, 0, 0); stroke-opacity: 1; fill: rgb(254, 203, 82); fill-opacity: 1;"/><text class="node-label" data-notex="1" x="0" y="0" text-anchor="start" transform="translate(18.25,25.873003802281357)" style="cursor: default; font-family: 'Open Sans', verdana, arial, sans-serif; font-size: 12px; fill: rgb(42, 63, 95); fill-opacity: 1; white-space: pre; text-shadow: white 1px 1px 1px, white -1px -1px 1px, white 1px -1px 1px, white -1px 1px 1px;">LHyp</text></g></g></g><defs id="topdefs-409b96"><g class="clips"/></defs><g class="layer-above"><g class="imagelayer"/><g class="shapelayer"/></g><g class="infolayer"><g class="g-gtitle"/><g class="first-render"/></g></svg>