<svg class="main-svg" xmlns="http://www.w3.org/2000/svg" xmlns:xlink="http://www.w3.org/1999/xlink" width="1300" height="900" style="" viewBox="0 0 1300 900"><rect x="0" y="0" width="1300" height="900" style="fill: rgb(255, 255, 255); fill-opacity: 1;"/><defs id="defs-3f7943"><g class="clips"/><g class="gradients"/><g class="patterns"/></defs><g class="bglayer"/><g class="layer-below"><g class="imagelayer"/><g class="shapelayer"/></g><g class="cartesianlayer"/><g class="polarlayer"/><g class="smithlayer"/><g class="ternarylayer"/><g class="geolayer"/><g class="funnelarealayer"/><g class="pielayer"/><g class="iciclelayer"/><g class="treemaplayer"/><g class="sunburstlayer"/><g class="glimages"/><g class="sankey" transform="translate(80,100)matrix(1 0 0 1 0 0)" style="box-sizing: content-box; position: absolute; left: 0px; shape-rendering: geometricprecision; pointer-events: none;"><g class="sankey-links" style="fill: none;"><path class="sankey-link" d="M383.70000000000005,14.29621621621628C564.3000000000001,14.29621621621628 564.3000000000001,268.4108108108109 744.9000000000001,268.4108108108109L744.9000000000001,271.65405405405414C564.3000000000001,271.65405405405414 564.3000000000001,17.539459459459522 383.70000000000005,17.539459459459522Z" style="stroke: rgb(68, 68, 68); stroke-opacity: 1; fill: rgb(25, 211, 243); fill-opacity: 0.6; stroke-width: 0; opacity: 1;"/><path class="sankey-link" d="M383.70000000000005,28.618378378378395C564.3000000000001,28.618378378378395 564.3000000000001,23.091891891891834 744.9000000000001,23.091891891891834L744.9000000000001,62.01081081081075C564.3000000000001,62.01081081081075 564.3000000000001,67.53729729729731 383.70000000000005,67.53729729729731Z" style="stroke: rgb(68, 68, 68); stroke-opacity: 1; fill: rgb(99, 110, 250); fill-opacity: 0.6; stroke-width: 0; opacity: 1;"/><path class="sankey-link" d="M383.70000000000005,67.53729729729731C564.3000000000001,67.53729729729731 564.3000000000001,271.65405405405414 744.9000000000001,271.65405405405414L744.9000000000001,291.1135135135136C564.3000000000001,291.1135135135136 564.3000000000001,86.99675675675677 383.70000000000005,86.99675675675677Z" style="stroke: rgb(68, 68, 68); stroke-opacity: 1; fill: rgb(99, 110, 250); fill-opacity: 0.6; stroke-width: 0; opacity: 1;"/><path class="sankey-link" d="M383.70000000000005,86.99675675675678C564.3000000000001,86.99675675675678 564.3000000000001,416.17297297297296 744.9000000000001,416.17297297297296L744.9000000000001,435.63243243243244C564.3000000000001,435.63243243243244 564.3000000000001,106.45621621621623 383.70000000000005,106.45621621621623Z" style="stroke: rgb(68, 68, 68); stroke-opacity: 1; fill: rgb(99, 110, 250); fill-opacity: 0.6; stroke-width: 0; opacity: 1;"/><path class="sankey-link" d="M383.70000000000005,106.45621621621623C564.3000000000001,106.45621621621623 564.3000000000001,570.6810810810813 744.9000000000001,570.6810810810813L744.9000000000001,593.383783783784C564.3000000000001,593.383783783784 564.3000000000001,129.15891891891894 383.70000000000005,129.15891891891894Z" style="stroke: rgb(68, 68, 68); stroke-opacity: 1; fill: rgb(99, 110, 250); fill-opacity: 0.6; stroke-width: 0; opacity: 1;"/><path class="sankey-link" d="M383.70000000000005,139.20000000000013C564.3000000000001,139.20000000000013 564.3000000000001,62.01081081081075 744.9000000000001,62.01081081081075L744.9000000000001,68.49729729729724C564.3000000000001,68.49729729729724 564.3000000000001,145.68648648648664 383.70000000000005,145.68648648648664Z" style="stroke: rgb(68, 68, 68); stroke-opacity: 1; fill: rgb(0, 204, 150); fill-opacity: 0.6; stroke-width: 0; opacity: 1;"/><path class="sankey-link" d="M383.70000000000005,145.68648648648661C564.3000000000001,145.68648648648661 564.3000000000001,291.1135135135136 744.9000000000001,291.1135135135136L744.9000000000001,297.6000000000001C564.3000000000001,297.6000000000001 564.3000000000001,152.17297297297313 383.70000000000005,152.17297297297313Z" style="stroke: rgb(68, 68, 68); stroke-opacity: 1; fill: rgb(0, 204, 150); fill-opacity: 0.6; stroke-width: 0; opacity: 1;"/><path class="sankey-link" d="M383.70000000000005,152.1729729729731C564.3000000000001,152.1729729729731 564.3000000000001,435.63243243243244 744.9000000000001,435.63243243243244L744.9000000000001,448.60540540540546C564.3000000000001,448.60540540540546 564.3000000000001,165.14594594594607 383.70000000000005,165.14594594594607Z" style="stroke: rgb(68, 68, 68); stroke-opacity: 1; fill: rgb(0, 204, 150); fill-opacity: 0.6; stroke-width: 0; opacity: 1;"/><path class="sankey-link" d="M383.70000000000005,165.14594594594607C564.3000000000001,165.14594594594607 564.3000000000001,593.383783783784 744.9000000000001,593.383783783784L744.9000000000001,603.1135135135138C564.3000000000001,603.1135135135138 564.3000000000001,174.8756756756758 383.70000000000005,174.8756756756758Z" style="stroke: rgb(68, 68, 68); stroke-opacity: 1; fill: rgb(0, 204, 150); fill-opacity: 0.6; stroke-width: 0; opacity: 1;"/><path class="sankey-link" d="M383.70000000000005,186.47351351351347C564.3000000000001,186.47351351351347 564.3000000000001,68.49729729729724 744.9000000000001,68.49729729729724L744.9000000000001,91.19999999999995C564.3000000000001,91.19999999999995 564.3000000000001,209.17621621621618 383.70000000000005,209.17621621621618Z" style="stroke: rgb(68, 68, 68); stroke-opacity: 1; fill: rgb(254, 203, 82); fill-opacity: 0.6; stroke-width: 0; opacity: 1;"/><path class="sankey-link" d="M383.70000000000005,209.17621621621618C564.3000000000001,209.17621621621618 564.3000000000001,297.60000000000014 744.9000000000001,297.60000000000014L744.9000000000001,300.84324324324336C564.3000000000001,300.84324324324336 564.3000000000001,212.4194594594594 383.70000000000005,212.4194594594594Z" style="stroke: rgb(68, 68, 68); stroke-opacity: 1; fill: rgb(254, 203, 82); fill-opacity: 0.6; stroke-width: 0; opacity: 1;"/><path class="sankey-link" d="M383.70000000000005,212.41945945945943C564.3000000000001,212.41945945945943 564.3000000000001,448.6054054054054 744.9000000000001,448.6054054054054L744.9000000000001,461.57837837837843C564.3000000000001,461.57837837837843 564.3000000000001,225.3924324324324 383.70000000000005,225.3924324324324Z" style="stroke: rgb(68, 68, 68); stroke-opacity: 1; fill: rgb(254, 203, 82); fill-opacity: 0.6; stroke-width: 0; opacity: 1;"/><path class="sankey-link" d="M383.70000000000005,225.3924324324324C564.3000000000001,225.3924324324324 564.3000000000001,603.1135135135137 744.9000000000001,603.1135135135137L744.9000000000001,616.0864864864866C564.3000000000001,616.0864864864866 564.3000000000001,238.36540540540537 383.70000000000005,238.36540540540537Z" style="stroke: rgb(68, 68, 68); stroke-opacity: 1; fill: rgb(254, 203, 82); fill-opacity: 0.6; stroke-width: 0; opacity: 1;"/><path class="sankey-link" d="M383.70000000000005,250.68972972972983C564.3000000000001,250.68972972972983 564.3000000000001,91.19999999999995 744.9000000000001,91.19999999999995L744.9000000000001,100.92972972972969C564.3000000000001,100.92972972972969 564.3000000000001,260.4194594594596 383.70000000000005,260.4194594594596Z" style="stroke: rgb(68, 68, 68); stroke-opacity: 1; fill: rgb(255, 161, 90); fill-opacity: 0.6; stroke-width: 0; opacity: 1;"/><path class="sankey-link" d="M383.70000000000005,260.4194594594596C564.3000000000001,260.4194594594596 564.3000000000001,300.84324324324336 744.9000000000001,300.84324324324336L744.9000000000001,304.0864864864866C564.3000000000001,304.0864864864866 564.3000000000001,263.6627027027028 383.70000000000005,263.6627027027028Z" style="stroke: rgb(68, 68, 68); stroke-opacity: 1; fill: rgb(255, 161, 90); fill-opacity: 0.6; stroke-width: 0; opacity: 1;"/><path class="sankey-link" d="M383.70000000000005,275.3643243243243C564.3000000000001,275.3643243243243 564.3000000000001,100.92972972972967 744.9000000000001,100.92972972972967L744.9000000000001,130.11891891891887C564.3000000000001,130.11891891891887 564.3000000000001,304.55351351351345 383.70000000000005,304.55351351351345Z" style="stroke: rgb(68, 68, 68); stroke-opacity: 1; fill: rgb(171, 99, 250); fill-opacity: 0.6; stroke-width: 0; opacity: 1;"/><path class="sankey-link" d="M383.70000000000005,304.55351351351345C564.3000000000001,304.55351351351345 564.3000000000001,304.0864864864866 744.9000000000001,304.0864864864866L744.9000000000001,317.0594594594596C564.3000000000001,317.0594594594596 564.3000000000001,317.5264864864865 383.70000000000005,317.5264864864865Z" style="stroke: rgb(68, 68, 68); stroke-opacity: 1; fill: rgb(171, 99, 250); fill-opacity: 0.6; stroke-width: 0; opacity: 1;"/><path class="sankey-link" d="M383.70000000000005,317.5264864864864C564.3000000000001,317.5264864864864 564.3000000000001,461.5783783783784 744.9000000000001,461.5783783783784L744.9000000000001,474.5513513513514C564.3000000000001,474.5513513513514 564.3000000000001,330.49945945945944 383.70000000000005,330.49945945945944Z" style="stroke: rgb(68, 68, 68); stroke-opacity: 1; fill: rgb(171, 99, 250); fill-opacity: 0.6; stroke-width: 0; opacity: 1;"/><path class="sankey-link" d="M383.70000000000005,330.4994594594594C564.3000000000001,330.4994594594594 564.3000000000001,616.0864864864867 744.9000000000001,616.0864864864867L744.9000000000001,632.302702702703C564.3000000000001,632.302702702703 564.3000000000001,346.71567567567564 383.70000000000005,346.71567567567564Z" style="stroke: rgb(68, 68, 68); stroke-opacity: 1; fill: rgb(171, 99, 250); fill-opacity: 0.6; stroke-width: 0; opacity: 1;"/><path class="sankey-link" d="M383.70000000000005,350.63351351351366C564.3000000000001,350.63351351351366 564.3000000000001,130.11891891891884 744.9000000000001,130.11891891891884L744.9000000000001,217.68648648648644C564.3000000000001,217.68648648648644 564.3000000000001,438.20108108108127 383.70000000000005,438.20108108108127Z" style="stroke: rgb(68, 68, 68); stroke-opacity: 1; fill: rgb(239, 85, 59); fill-opacity: 0.6; stroke-width: 0; opacity: 1;"/><path class="sankey-link" d="M383.70000000000005,438.20108108108127C564.3000000000001,438.20108108108127 564.3000000000001,317.05945945945956 744.9000000000001,317.05945945945956L744.9000000000001,365.7081081081082C564.3000000000001,365.7081081081082 564.3000000000001,486.8497297297299 383.70000000000005,486.8497297297299Z" style="stroke: rgb(68, 68, 68); stroke-opacity: 1; fill: rgb(239, 85, 59); fill-opacity: 0.6; stroke-width: 0; opacity: 1;"/><path class="sankey-link" d="M383.70000000000005,486.8497297297299C564.3000000000001,486.8497297297299 564.3000000000001,474.55135135135134 744.9000000000001,474.55135135135134L744.9000000000001,532.9297297297297C564.3000000000001,532.9297297297297 564.3000000000001,545.2281081081082 383.70000000000005,545.2281081081082Z" style="stroke: rgb(68, 68, 68); stroke-opacity: 1; fill: rgb(239, 85, 59); fill-opacity: 0.6; stroke-width: 0; opacity: 1;"/><path class="sankey-link" d="M383.70000000000005,545.2281081081082C564.3000000000001,545.2281081081082 564.3000000000001,632.302702702703 744.9000000000001,632.302702702703L744.9000000000001,693.9243243243246C564.3000000000001,693.9243243243246 564.3000000000001,606.8497297297299 383.70000000000005,606.8497297297299Z" style="stroke: rgb(68, 68, 68); stroke-opacity: 1; fill: rgb(239, 85, 59); fill-opacity: 0.6; stroke-width: 0; opacity: 1;"/><path class="sankey-link" d="M383.70000000000005,611.494054054054C564.3000000000001,611.494054054054 564.3000000000001,217.68648648648644 744.9000000000001,217.68648648648644L744.9000000000001,233.90270270270264C564.3000000000001,233.90270270270264 564.3000000000001,627.7102702702703 383.70000000000005,627.7102702702703Z" style="stroke: rgb(68, 68, 68); stroke-opacity: 1; fill: rgb(182, 232, 128); fill-opacity: 0.6; stroke-width: 0; opacity: 1;"/><path class="sankey-link" d="M383.70000000000005,627.7102702702703C564.3000000000001,627.7102702702703 564.3000000000001,365.7081081081082 744.9000000000001,365.7081081081082L744.9000000000001,385.1675675675677C564.3000000000001,385.1675675675677 564.3000000000001,647.1697297297296 383.70000000000005,647.1697297297296Z" style="stroke: rgb(68, 68, 68); stroke-opacity: 1; fill: rgb(182, 232, 128); fill-opacity: 0.6; stroke-width: 0; opacity: 1;"/><path class="sankey-link" d="M383.70000000000005,647.1697297297297C564.3000000000001,647.1697297297297 564.3000000000001,532.9297297297297 744.9000000000001,532.9297297297297L744.9000000000001,539.4162162162162C564.3000000000001,539.4162162162162 564.3000000000001,653.6562162162162 383.70000000000005,653.6562162162162Z" style="stroke: rgb(68, 68, 68); stroke-opacity: 1; fill: rgb(182, 232, 128); fill-opacity: 0.6; stroke-width: 0; opacity: 1;"/><path class="sankey-link" d="M383.70000000000005,653.6562162162162C564.3000000000001,653.6562162162162 564.3000000000001,693.9243243243246 744.9000000000001,693.9243243243246L744.9000000000001,700.4108108108111C564.3000000000001,700.4108108108111 564.3000000000001,660.1427027027026 383.70000000000005,660.1427027027026Z" style="stroke: rgb(68, 68, 68); stroke-opacity: 1; fill: rgb(182, 232, 128); fill-opacity: 0.6; stroke-width: 0; opacity: 1;"/><path class="sankey-link" d="M383.70000000000005,672.3632432432433C564.3000000000001,672.3632432432433 564.3000000000001,233.90270270270267 744.9000000000001,233.90270270270267L744.9000000000001,240.38918918918918C564.3000000000001,240.38918918918918 564.3000000000001,678.8497297297298 383.70000000000005,678.8497297297298Z" style="stroke: rgb(68, 68, 68); stroke-opacity: 1; fill: rgb(255, 151, 255); fill-opacity: 0.6; stroke-width: 0; opacity: 1;"/><path class="sankey-link" d="M383.70000000000005,678.8497297297298C564.3000000000001,678.8497297297298 564.3000000000001,385.1675675675677 744.9000000000001,385.1675675675677L744.9000000000001,391.65405405405414C564.3000000000001,391.65405405405414 564.3000000000001,685.3362162162163 383.70000000000005,685.3362162162163Z" style="stroke: rgb(68, 68, 68); stroke-opacity: 1; fill: rgb(255, 151, 255); fill-opacity: 0.6; stroke-width: 0; opacity: 1;"/><path class="sankey-link" d="M383.70000000000005,685.3362162162163C564.3000000000001,685.3362162162163 564.3000000000001,539.4162162162162 744.9000000000001,539.4162162162162L744.9000000000001,545.9027027027026C564.3000000000001,545.9027027027026 564.3000000000001,691.8227027027027 383.70000000000005,691.8227027027027Z" style="stroke: rgb(68, 68, 68); stroke-opacity: 1; fill: rgb(255, 151, 255); fill-opacity: 0.6; stroke-width: 0; opacity: 1;"/></g><g class="sankey-node-set" style="cursor: ns-resize;"><g class="sankey-node" transform="translate(744.900,23.092)" style="opacity: 1;"><rect class="node-rect" width="15" height="217.2972972972974" style="stroke-width: 0.5; stroke: rgb(0, 0, 0); stroke-opacity: 1; fill: rgb(128, 128, 128); fill-opacity: 1;"/><text class="node-label" data-notex="1" x="0" y="0" text-anchor="end" transform="translate(-3.25,112.8486486486487)" style="cursor: default; font-family: 'Open Sans', verdana, arial, sans-serif; font-size: 12px; fill: rgb(42, 63, 95); fill-opacity: 1; white-space: pre; text-shadow: white 1px 1px 1px, white -1px -1px 1px, white 1px -1px 1px, white -1px 1px 1px;">dig</text></g><g class="sankey-node" transform="translate(744.900,268.411)" style="opacity: 1;"><rect class="node-rect" width="15" height="123.24324324324311" style="stroke-width: 0.5; stroke: rgb(0, 0, 0); stroke-opacity: 1; fill: rgb(128, 128, 128); fill-opacity: 1;"/><text class="node-label" data-notex="1" x="0" y="0" text-anchor="end" transform="translate(-3.25,65.82162162162156)" style="cursor: default; font-family: 'Open Sans', verdana, arial, sans-serif; font-size: 12px; fill: rgb(42, 63, 95); fill-opacity: 1; white-space: pre; text-shadow: white 1px 1px 1px, white -1px -1px 1px, white 1px -1px 1px, white -1px 1px 1px;">groom</text></g><g class="sankey-node" transform="translate(744.900,416.173)" style="opacity: 1;"><rect class="node-rect" width="15" height="129.7297297297298" style="stroke-width: 0.5; stroke: rgb(0, 0, 0); stroke-opacity: 1; fill: rgb(128, 128, 128); fill-opacity: 1;"/><text class="node-label" data-notex="1" x="0" y="0" text-anchor="end" transform="translate(-3.25,69.0648648648649)" style="cursor: default; font-family: 'Open Sans', verdana, arial, sans-serif; font-size: 12px; fill: rgb(42, 63, 95); fill-opacity: 1; white-space: pre; text-shadow: white 1px 1px 1px, white -1px -1px 1px, white 1px -1px 1px, white -1px 1px 1px;">move</text></g><g class="sankey-node" transform="translate(744.900,570.681)" style="opacity: 1;"><rect class="node-rect" width="15" height="129.72972972972934" style="stroke-width: 0.5; stroke: rgb(0, 0, 0); stroke-opacity: 1; fill: rgb(128, 128, 128); fill-opacity: 1;"/><text class="node-label" data-notex="1" x="0" y="0" text-anchor="end" transform="translate(-3.25,69.06486486486467)" style="cursor: default; font-family: 'Open Sans', verdana, arial, sans-serif; font-size: 12px; fill: rgb(42, 63, 95); fill-opacity: 1; white-space: pre; text-shadow: white 1px 1px 1px, white -1px -1px 1px, white 1px -1px 1px, white -1px 1px 1px;">still</text></g><g class="sankey-node" transform="translate(368.700,14.296)" style="opacity: 1;"><rect class="node-rect" width="15" height="3.243243243243114" style="stroke-width: 0.5; stroke: rgb(0, 0, 0); stroke-opacity: 1; fill: rgb(25, 211, 243); fill-opacity: 1;"/><text class="node-label" data-notex="1" x="0" y="0" text-anchor="start" transform="translate(18.25,5.821621621621556)" style="cursor: default; font-family: 'Open Sans', verdana, arial, sans-serif; font-size: 12px; fill: rgb(42, 63, 95); fill-opacity: 1; white-space: pre; text-shadow: white 1px 1px 1px, white -1px -1px 1px, white 1px -1px 1px, white -1px 1px 1px;">BLA</text></g><g class="sankey-node" transform="translate(368.700,28.618)" style="opacity: 1;"><rect class="node-rect" width="15" height="100.54054054054052" style="stroke-width: 0.5; stroke: rgb(0, 0, 0); stroke-opacity: 1; fill: rgb(99, 110, 250); fill-opacity: 1;"/><text class="node-label" data-notex="1" x="0" y="0" text-anchor="start" transform="translate(18.25,54.47027027027026)" style="cursor: default; font-family: 'Open Sans', verdana, arial, sans-serif; font-size: 12px; fill: rgb(42, 63, 95); fill-opacity: 1; white-space: pre; text-shadow: white 1px 1px 1px, white -1px -1px 1px, white 1px -1px 1px, white -1px 1px 1px;">Cla</text></g><g class="sankey-node" transform="translate(368.700,139.200)" style="opacity: 1;"><rect class="node-rect" width="15" height="35.67567567567539" style="stroke-width: 0.5; stroke: rgb(0, 0, 0); stroke-opacity: 1; fill: rgb(0, 204, 150); fill-opacity: 1;"/><text class="node-label" data-notex="1" x="0" y="0" text-anchor="start" transform="translate(18.25,22.037837837837696)" style="cursor: default; font-family: 'Open Sans', verdana, arial, sans-serif; font-size: 12px; fill: rgb(42, 63, 95); fill-opacity: 1; white-space: pre; text-shadow: white 1px 1px 1px, white -1px -1px 1px, white 1px -1px 1px, white -1px 1px 1px;">LC</text></g><g class="sankey-node" transform="translate(368.700,186.474)" style="opacity: 1;"><rect class="node-rect" width="15" height="51.89189189189199" style="stroke-width: 0.5; stroke: rgb(0, 0, 0); stroke-opacity: 1; fill: rgb(254, 203, 82); fill-opacity: 1;"/><text class="node-label" data-notex="1" x="0" y="0" text-anchor="start" transform="translate(18.25,30.145945945945993)" style="cursor: default; font-family: 'Open Sans', verdana, arial, sans-serif; font-size: 12px; fill: rgb(42, 63, 95); fill-opacity: 1; white-space: pre; text-shadow: white 1px 1px 1px, white -1px -1px 1px, white 1px -1px 1px, white -1px 1px 1px;">LHyp</text></g><g class="sankey-node" transform="translate(368.700,250.690)" style="opacity: 1;"><rect class="node-rect" width="15" height="12.972972972972798" style="stroke-width: 0.5; stroke: rgb(0, 0, 0); stroke-opacity: 1; fill: rgb(255, 161, 90); fill-opacity: 1;"/><text class="node-label" data-notex="1" x="0" y="0" text-anchor="start" transform="translate(18.25,10.686486486486398)" style="cursor: default; font-family: 'Open Sans', verdana, arial, sans-serif; font-size: 12px; fill: rgb(42, 63, 95); fill-opacity: 1; white-space: pre; text-shadow: white 1px 1px 1px, white -1px -1px 1px, white 1px -1px 1px, white -1px 1px 1px;">NAc</text></g><g class="sankey-node" transform="translate(368.700,275.364)" style="opacity: 1;"><rect class="node-rect" width="15" height="71.35135135135147" style="stroke-width: 0.5; stroke: rgb(0, 0, 0); stroke-opacity: 1; fill: rgb(171, 99, 250); fill-opacity: 1;"/><text class="node-label" data-notex="1" x="0" y="0" text-anchor="start" transform="translate(18.25,39.87567567567574)" style="cursor: default; font-family: 'Open Sans', verdana, arial, sans-serif; font-size: 12px; fill: rgb(42, 63, 95); fill-opacity: 1; white-space: pre; text-shadow: white 1px 1px 1px, white -1px -1px 1px, white 1px -1px 1px, white -1px 1px 1px;">Str</text></g><g class="sankey-node" transform="translate(368.700,350.634)" style="opacity: 1;"><rect class="node-rect" width="15" height="256.216216216216" style="stroke-width: 0.5; stroke: rgb(0, 0, 0); stroke-opacity: 1; fill: rgb(239, 85, 59); fill-opacity: 1;"/><text class="node-label" data-notex="1" x="0" y="0" text-anchor="start" transform="translate(18.25,132.308108108108)" style="cursor: default; font-family: 'Open Sans', verdana, arial, sans-serif; font-size: 12px; fill: rgb(42, 63, 95); fill-opacity: 1; white-space: pre; text-shadow: white 1px 1px 1px, white -1px -1px 1px, white 1px -1px 1px, white -1px 1px 1px;">VTA</text></g><g class="sankey-node" transform="translate(368.700,611.494)" style="opacity: 1;"><rect class="node-rect" width="15" height="48.64864864864899" style="stroke-width: 0.5; stroke: rgb(0, 0, 0); stroke-opacity: 1; fill: rgb(182, 232, 128); fill-opacity: 1;"/><text class="node-label" data-notex="1" x="0" y="0" text-anchor="start" transform="translate(18.25,28.524324324324493)" style="cursor: default; font-family: 'Open Sans', verdana, arial, sans-serif; font-size: 12px; fill: rgb(42, 63, 95); fill-opacity: 1; white-space: pre; text-shadow: white 1px 1px 1px, white -1px -1px 1px, white 1px -1px 1px, white -1px 1px 1px;">cPFC</text></g><g class="sankey-node" transform="translate(368.700,672.363)" style="opacity: 1;"><rect class="node-rect" width="15" height="19.459459459459595" style="stroke-width: 0.5; stroke: rgb(0, 0, 0); stroke-opacity: 1; fill: rgb(255, 151, 255); fill-opacity: 1;"/><text class="node-label" data-notex="1" x="0" y="0" text-anchor="start" transform="translate(18.25,13.929729729729797)" style="cursor: default; font-family: 'Open Sans', verdana, arial, sans-serif; font-size: 12px; fill: rgb(42, 63, 95); fill-opacity: 1; white-space: pre; text-shadow: white 1px 1px 1px, white -1px -1px 1px, white 1px -1px 1px, white -1px 1px 1px;">dPAG</text></g></g></g><defs id="topdefs-3f7943"><g class="clips"/></defs><g class="layer-above"><g class="imagelayer"/><g class="shapelayer"/></g><g class="infolayer"><g class="g-gtitle"/><g class="first-render"/></g></svg>