<svg class="main-svg" xmlns="http://www.w3.org/2000/svg" xmlns:xlink="http://www.w3.org/1999/xlink" width="1300" height="900" viewBox="0 0 1300 900" style=""><rect x="0" y="0" width="1300" height="900" style="fill: rgb(255, 255, 255); fill-opacity: 1;"/><defs id="defs-718bcd"><g class="clips"/><g class="gradients"/><g class="patterns"/></defs><g class="bglayer"/><g class="layer-below"><g class="imagelayer"/><g class="shapelayer"/></g><g class="cartesianlayer"/><g class="polarlayer"/><g class="smithlayer"/><g class="ternarylayer"/><g class="geolayer"/><g class="funnelarealayer"/><g class="pielayer"/><g class="iciclelayer"/><g class="treemaplayer"/><g class="sunburstlayer"/><g class="glimages"/><g class="sankey" transform="translate(80,100)matrix(1 0 0 1 0 0)" style="box-sizing: content-box; position: absolute; left: 0px; shape-rendering: geometricprecision; pointer-events: none;"><g class="sankey-links" style="fill: none;"><path class="sankey-link" d="M383.70000000000005,13.97803278688526C564.3000000000001,13.97803278688526 564.3000000000001,26.5868852459015 744.9000000000001,26.5868852459015L744.9000000000001,38.09508196721298C564.3000000000001,38.09508196721298 564.3000000000001,25.486229508196736 383.70000000000005,25.486229508196736Z" style="stroke: rgb(68, 68, 68); stroke-opacity: 1; fill: rgb(25, 211, 243); fill-opacity: 0.6; stroke-width: 0; opacity: 1;"/><path class="sankey-link" d="M383.70000000000005,25.486229508196732C564.3000000000001,25.486229508196732 564.3000000000001,380.75901639344283 744.9000000000001,380.75901639344283L744.9000000000001,390.349180327869C564.3000000000001,390.349180327869 564.3000000000001,35.07639344262296 383.70000000000005,35.07639344262296Z" style="stroke: rgb(68, 68, 68); stroke-opacity: 1; fill: rgb(25, 211, 243); fill-opacity: 0.6; stroke-width: 0; opacity: 1;"/><path class="sankey-link" d="M383.70000000000005,47.52000000000001C564.3000000000001,47.52000000000001 564.3000000000001,38.09508196721298 744.9000000000001,38.09508196721298L744.9000000000001,72.6196721311474C564.3000000000001,72.6196721311474 564.3000000000001,82.04459016393443 383.70000000000005,82.04459016393443Z" style="stroke: rgb(68, 68, 68); stroke-opacity: 1; fill: rgb(0, 204, 150); fill-opacity: 0.6; stroke-width: 0; opacity: 1;"/><path class="sankey-link" d="M383.70000000000005,82.04459016393443C564.3000000000001,82.04459016393443 564.3000000000001,283.116393442623 744.9000000000001,283.116393442623L744.9000000000001,286.9524590163935C564.3000000000001,286.9524590163935 564.3000000000001,85.88065573770493 383.70000000000005,85.88065573770493Z" style="stroke: rgb(68, 68, 68); stroke-opacity: 1; fill: rgb(0, 204, 150); fill-opacity: 0.6; stroke-width: 0; opacity: 1;"/><path class="sankey-link" d="M383.70000000000005,85.88065573770493C564.3000000000001,85.88065573770493 564.3000000000001,390.3491803278691 744.9000000000001,390.3491803278691L744.9000000000001,424.87377049180355C564.3000000000001,424.87377049180355 564.3000000000001,120.40524590163935 383.70000000000005,120.40524590163935Z" style="stroke: rgb(68, 68, 68); stroke-opacity: 1; fill: rgb(0, 204, 150); fill-opacity: 0.6; stroke-width: 0; opacity: 1;"/><path class="sankey-link" d="M383.70000000000005,120.40524590163935C564.3000000000001,120.40524590163935 564.3000000000001,642.9393442622951 744.9000000000001,642.9393442622951L744.9000000000001,646.7754098360655C564.3000000000001,646.7754098360655 564.3000000000001,124.24131147540984 383.70000000000005,124.24131147540984Z" style="stroke: rgb(68, 68, 68); stroke-opacity: 1; fill: rgb(0, 204, 150); fill-opacity: 0.6; stroke-width: 0; opacity: 1;"/><path class="sankey-link" d="M383.70000000000005,135.45737704918048C564.3000000000001,135.45737704918048 564.3000000000001,72.61967213114741 744.9000000000001,72.61967213114741L744.9000000000001,109.06229508196708C564.3000000000001,109.06229508196708 564.3000000000001,171.90000000000015 383.70000000000005,171.90000000000015Z" style="stroke: rgb(68, 68, 68); stroke-opacity: 1; fill: rgb(239, 85, 59); fill-opacity: 0.6; stroke-width: 0; opacity: 1;"/><path class="sankey-link" d="M383.70000000000005,171.90000000000015C564.3000000000001,171.90000000000015 564.3000000000001,286.9524590163935 744.9000000000001,286.9524590163935L744.9000000000001,292.7065573770492C564.3000000000001,292.7065573770492 564.3000000000001,177.6540983606559 383.70000000000005,177.6540983606559Z" style="stroke: rgb(68, 68, 68); stroke-opacity: 1; fill: rgb(239, 85, 59); fill-opacity: 0.6; stroke-width: 0; opacity: 1;"/><path class="sankey-link" d="M383.70000000000005,177.6540983606559C564.3000000000001,177.6540983606559 564.3000000000001,424.8737704918035 744.9000000000001,424.8737704918035L744.9000000000001,461.31639344262317C564.3000000000001,461.31639344262317 564.3000000000001,214.09672131147556 383.70000000000005,214.09672131147556Z" style="stroke: rgb(68, 68, 68); stroke-opacity: 1; fill: rgb(239, 85, 59); fill-opacity: 0.6; stroke-width: 0; opacity: 1;"/><path class="sankey-link" d="M383.70000000000005,214.09672131147556C564.3000000000001,214.09672131147556 564.3000000000001,646.7754098360656 744.9000000000001,646.7754098360656L744.9000000000001,650.611475409836C564.3000000000001,650.611475409836 564.3000000000001,217.93278688524606 383.70000000000005,217.93278688524606Z" style="stroke: rgb(68, 68, 68); stroke-opacity: 1; fill: rgb(239, 85, 59); fill-opacity: 0.6; stroke-width: 0; opacity: 1;"/><path class="sankey-link" d="M383.70000000000005,229.87770491803283C564.3000000000001,229.87770491803283 564.3000000000001,109.06229508196708 744.9000000000001,109.06229508196708L744.9000000000001,124.40655737704904C564.3000000000001,124.40655737704904 564.3000000000001,245.22196721311482 383.70000000000005,245.22196721311482Z" style="stroke: rgb(68, 68, 68); stroke-opacity: 1; fill: rgb(254, 203, 82); fill-opacity: 0.6; stroke-width: 0; opacity: 1;"/><path class="sankey-link" d="M383.70000000000005,245.2219672131148C564.3000000000001,245.2219672131148 564.3000000000001,292.70655737704925 744.9000000000001,292.70655737704925L744.9000000000001,304.21475409836074C564.3000000000001,304.21475409836074 564.3000000000001,256.7301639344263 383.70000000000005,256.7301639344263Z" style="stroke: rgb(68, 68, 68); stroke-opacity: 1; fill: rgb(254, 203, 82); fill-opacity: 0.6; stroke-width: 0; opacity: 1;"/><path class="sankey-link" d="M383.70000000000005,256.7301639344263C564.3000000000001,256.7301639344263 564.3000000000001,461.31639344262317 744.9000000000001,461.31639344262317L744.9000000000001,470.90655737704935C564.3000000000001,470.90655737704935 564.3000000000001,266.3203278688525 383.70000000000005,266.3203278688525Z" style="stroke: rgb(68, 68, 68); stroke-opacity: 1; fill: rgb(254, 203, 82); fill-opacity: 0.6; stroke-width: 0; opacity: 1;"/><path class="sankey-link" d="M383.70000000000005,266.32032786885253C564.3000000000001,266.32032786885253 564.3000000000001,650.6114754098361 744.9000000000001,650.6114754098361L744.9000000000001,654.4475409836065C564.3000000000001,654.4475409836065 564.3000000000001,270.156393442623 383.70000000000005,270.156393442623Z" style="stroke: rgb(68, 68, 68); stroke-opacity: 1; fill: rgb(254, 203, 82); fill-opacity: 0.6; stroke-width: 0; opacity: 1;"/><path class="sankey-link" d="M383.70000000000005,283.13704918032795C564.3000000000001,283.13704918032795 564.3000000000001,124.40655737704905 744.9000000000001,124.40655737704905L744.9000000000001,137.83278688524578C564.3000000000001,137.83278688524578 564.3000000000001,296.56327868852463 383.70000000000005,296.56327868852463Z" style="stroke: rgb(68, 68, 68); stroke-opacity: 1; fill: rgb(255, 161, 90); fill-opacity: 0.6; stroke-width: 0; opacity: 1;"/><path class="sankey-link" d="M383.70000000000005,296.5632786885247C564.3000000000001,296.5632786885247 564.3000000000001,470.9065573770494 744.9000000000001,470.9065573770494L744.9000000000001,486.2508196721314C564.3000000000001,486.2508196721314 564.3000000000001,311.9075409836067 383.70000000000005,311.9075409836067Z" style="stroke: rgb(68, 68, 68); stroke-opacity: 1; fill: rgb(255, 161, 90); fill-opacity: 0.6; stroke-width: 0; opacity: 1;"/><path class="sankey-link" d="M383.70000000000005,311.9075409836067C564.3000000000001,311.9075409836067 564.3000000000001,654.4475409836066 744.9000000000001,654.4475409836066L744.9000000000001,656.3655737704919C564.3000000000001,656.3655737704919 564.3000000000001,313.82557377049187 383.70000000000005,313.82557377049187Z" style="stroke: rgb(68, 68, 68); stroke-opacity: 1; fill: rgb(255, 161, 90); fill-opacity: 0.6; stroke-width: 0; opacity: 1;"/><path class="sankey-link" d="M383.70000000000005,325.6170491803279C564.3000000000001,325.6170491803279 564.3000000000001,137.83278688524575 744.9000000000001,137.83278688524575L744.9000000000001,178.11147540983592C564.3000000000001,178.11147540983592 564.3000000000001,365.8957377049181 383.70000000000005,365.8957377049181Z" style="stroke: rgb(68, 68, 68); stroke-opacity: 1; fill: rgb(171, 99, 250); fill-opacity: 0.6; stroke-width: 0; opacity: 1;"/><path class="sankey-link" d="M383.70000000000005,365.8957377049181C564.3000000000001,365.8957377049181 564.3000000000001,304.21475409836074 744.9000000000001,304.21475409836074L744.9000000000001,308.05081967213124C564.3000000000001,308.05081967213124 564.3000000000001,369.7318032786886 383.70000000000005,369.7318032786886Z" style="stroke: rgb(68, 68, 68); stroke-opacity: 1; fill: rgb(171, 99, 250); fill-opacity: 0.6; stroke-width: 0; opacity: 1;"/><path class="sankey-link" d="M383.70000000000005,369.7318032786886C564.3000000000001,369.7318032786886 564.3000000000001,486.2508196721314 744.9000000000001,486.2508196721314L744.9000000000001,534.2016393442625C564.3000000000001,534.2016393442625 564.3000000000001,417.68262295081973 383.70000000000005,417.68262295081973Z" style="stroke: rgb(68, 68, 68); stroke-opacity: 1; fill: rgb(171, 99, 250); fill-opacity: 0.6; stroke-width: 0; opacity: 1;"/><path class="sankey-link" d="M383.70000000000005,417.68262295081973C564.3000000000001,417.68262295081973 564.3000000000001,656.3655737704918 744.9000000000001,656.3655737704918L744.9000000000001,664.0377049180328C564.3000000000001,664.0377049180328 564.3000000000001,425.35475409836073 383.70000000000005,425.35475409836073Z" style="stroke: rgb(68, 68, 68); stroke-opacity: 1; fill: rgb(171, 99, 250); fill-opacity: 0.6; stroke-width: 0; opacity: 1;"/><path class="sankey-link" d="M383.70000000000005,434.53770491803283C564.3000000000001,434.53770491803283 564.3000000000001,178.11147540983592 744.9000000000001,178.11147540983592L744.9000000000001,229.89836065573758C564.3000000000001,229.89836065573758 564.3000000000001,486.3245901639345 383.70000000000005,486.3245901639345Z" style="stroke: rgb(68, 68, 68); stroke-opacity: 1; fill: rgb(99, 110, 250); fill-opacity: 0.6; stroke-width: 0; opacity: 1;"/><path class="sankey-link" d="M383.70000000000005,486.3245901639345C564.3000000000001,486.3245901639345 564.3000000000001,308.05081967213124 744.9000000000001,308.05081967213124L744.9000000000001,342.5754098360657C564.3000000000001,342.5754098360657 564.3000000000001,520.8491803278689 383.70000000000005,520.8491803278689Z" style="stroke: rgb(68, 68, 68); stroke-opacity: 1; fill: rgb(99, 110, 250); fill-opacity: 0.6; stroke-width: 0; opacity: 1;"/><path class="sankey-link" d="M383.70000000000005,520.8491803278689C564.3000000000001,520.8491803278689 564.3000000000001,534.2016393442625 744.9000000000001,534.2016393442625L744.9000000000001,584.0704918032789C564.3000000000001,584.0704918032789 564.3000000000001,570.7180327868853 383.70000000000005,570.7180327868853Z" style="stroke: rgb(68, 68, 68); stroke-opacity: 1; fill: rgb(99, 110, 250); fill-opacity: 0.6; stroke-width: 0; opacity: 1;"/><path class="sankey-link" d="M383.70000000000005,570.7180327868853C564.3000000000001,570.7180327868853 564.3000000000001,664.0377049180328 744.9000000000001,664.0377049180328L744.9000000000001,688.9721311475411C564.3000000000001,688.9721311475411 564.3000000000001,595.6524590163935 383.70000000000005,595.6524590163935Z" style="stroke: rgb(68, 68, 68); stroke-opacity: 1; fill: rgb(99, 110, 250); fill-opacity: 0.6; stroke-width: 0; opacity: 1;"/><path class="sankey-link" d="M383.70000000000005,605.9478688524591C564.3000000000001,605.9478688524591 564.3000000000001,229.89836065573755 744.9000000000001,229.89836065573755L744.9000000000001,245.24262295081954C564.3000000000001,245.24262295081954 564.3000000000001,621.2921311475411 383.70000000000005,621.2921311475411Z" style="stroke: rgb(68, 68, 68); stroke-opacity: 1; fill: rgb(255, 151, 255); fill-opacity: 0.6; stroke-width: 0; opacity: 1;"/><path class="sankey-link" d="M383.70000000000005,621.2921311475411C564.3000000000001,621.2921311475411 564.3000000000001,342.57540983606566 744.9000000000001,342.57540983606566L744.9000000000001,350.24754098360665C564.3000000000001,350.24754098360665 564.3000000000001,628.9642622950821 383.70000000000005,628.9642622950821Z" style="stroke: rgb(68, 68, 68); stroke-opacity: 1; fill: rgb(255, 151, 255); fill-opacity: 0.6; stroke-width: 0; opacity: 1;"/><path class="sankey-link" d="M383.70000000000005,628.9642622950821C564.3000000000001,628.9642622950821 564.3000000000001,584.0704918032789 744.9000000000001,584.0704918032789L744.9000000000001,595.5786885245902C564.3000000000001,595.5786885245902 564.3000000000001,640.4724590163935 383.70000000000005,640.4724590163935Z" style="stroke: rgb(68, 68, 68); stroke-opacity: 1; fill: rgb(255, 151, 255); fill-opacity: 0.6; stroke-width: 0; opacity: 1;"/><path class="sankey-link" d="M383.70000000000005,640.4724590163936C564.3000000000001,640.4724590163936 564.3000000000001,688.972131147541 744.9000000000001,688.972131147541L744.9000000000001,698.5622950819672C564.3000000000001,698.5622950819672 564.3000000000001,650.0626229508199 383.70000000000005,650.0626229508199Z" style="stroke: rgb(68, 68, 68); stroke-opacity: 1; fill: rgb(255, 151, 255); fill-opacity: 0.6; stroke-width: 0; opacity: 1;"/><path class="sankey-link" d="M383.70000000000005,663.1967213114756C564.3000000000001,663.1967213114756 564.3000000000001,245.2426229508195 744.9000000000001,245.2426229508195L744.9000000000001,249.07868852459C564.3000000000001,249.07868852459 564.3000000000001,667.032786885246 383.70000000000005,667.032786885246Z" style="stroke: rgb(68, 68, 68); stroke-opacity: 1; fill: rgb(182, 232, 128); fill-opacity: 0.6; stroke-width: 0; opacity: 1;"/><path class="sankey-link" d="M383.70000000000005,667.0327868852461C564.3000000000001,667.0327868852461 564.3000000000001,595.5786885245903 744.9000000000001,595.5786885245903L744.9000000000001,607.0868852459017C564.3000000000001,607.0868852459017 564.3000000000001,678.5409836065575 383.70000000000005,678.5409836065575Z" style="stroke: rgb(68, 68, 68); stroke-opacity: 1; fill: rgb(182, 232, 128); fill-opacity: 0.6; stroke-width: 0; opacity: 1;"/><path class="sankey-link" d="M383.70000000000005,678.5409836065576C564.3000000000001,678.5409836065576 564.3000000000001,698.5622950819671 744.9000000000001,698.5622950819671L744.9000000000001,702.3983606557375C564.3000000000001,702.3983606557375 564.3000000000001,682.377049180328 383.70000000000005,682.377049180328Z" style="stroke: rgb(68, 68, 68); stroke-opacity: 1; fill: rgb(182, 232, 128); fill-opacity: 0.6; stroke-width: 0; opacity: 1;"/><path class="sankey-link" d="M383.70000000000005,696.2016393442625C564.3000000000001,696.2016393442625 564.3000000000001,249.07868852459 744.9000000000001,249.07868852459L744.9000000000001,252.9147540983605C564.3000000000001,252.9147540983605 564.3000000000001,700.0377049180329 383.70000000000005,700.0377049180329Z" style="stroke: rgb(68, 68, 68); stroke-opacity: 1; fill: rgb(255, 102, 146); fill-opacity: 0.6; stroke-width: 0; opacity: 1;"/><path class="sankey-link" d="M383.70000000000005,700.037704918033C564.3000000000001,700.037704918033 564.3000000000001,607.0868852459018 744.9000000000001,607.0868852459018L744.9000000000001,612.8409836065575C564.3000000000001,612.8409836065575 564.3000000000001,705.7918032786887 383.70000000000005,705.7918032786887Z" style="stroke: rgb(68, 68, 68); stroke-opacity: 1; fill: rgb(255, 102, 146); fill-opacity: 0.6; stroke-width: 0; opacity: 1;"/></g><g class="sankey-node-set" style="cursor: ns-resize;"><g class="sankey-node" transform="translate(744.900,26.587)" style="opacity: 1;"><rect class="node-rect" width="15" height="226.3278688524593" style="stroke-width: 0.5; stroke: rgb(0, 0, 0); stroke-opacity: 1; fill: rgb(128, 128, 128); fill-opacity: 1;"/><text class="node-label" data-notex="1" x="0" y="0" text-anchor="end" transform="translate(-3.25,117.36393442622965)" style="cursor: default; font-family: 'Open Sans', verdana, arial, sans-serif; font-size: 12px; fill: rgb(42, 63, 95); fill-opacity: 1; white-space: pre; text-shadow: white 1px 1px 1px, white -1px -1px 1px, white 1px -1px 1px, white -1px 1px 1px;">dig</text></g><g class="sankey-node" transform="translate(744.900,283.116)" style="opacity: 1;"><rect class="node-rect" width="15" height="67.13114754098353" style="stroke-width: 0.5; stroke: rgb(0, 0, 0); stroke-opacity: 1; fill: rgb(128, 128, 128); fill-opacity: 1;"/><text class="node-label" data-notex="1" x="0" y="0" text-anchor="end" transform="translate(-3.25,37.76557377049177)" style="cursor: default; font-family: 'Open Sans', verdana, arial, sans-serif; font-size: 12px; fill: rgb(42, 63, 95); fill-opacity: 1; white-space: pre; text-shadow: white 1px 1px 1px, white -1px -1px 1px, white 1px -1px 1px, white -1px 1px 1px;">groom</text></g><g class="sankey-node" transform="translate(744.900,380.759)" style="opacity: 1;"><rect class="node-rect" width="15" height="232.08196721311447" style="stroke-width: 0.5; stroke: rgb(0, 0, 0); stroke-opacity: 1; fill: rgb(128, 128, 128); fill-opacity: 1;"/><text class="node-label" data-notex="1" x="0" y="0" text-anchor="end" transform="translate(-3.25,120.24098360655724)" style="cursor: default; font-family: 'Open Sans', verdana, arial, sans-serif; font-size: 12px; fill: rgb(42, 63, 95); fill-opacity: 1; white-space: pre; text-shadow: white 1px 1px 1px, white -1px -1px 1px, white 1px -1px 1px, white -1px 1px 1px;">move</text></g><g class="sankey-node" transform="translate(744.900,642.939)" style="opacity: 1;"><rect class="node-rect" width="15" height="59.45901639344265" style="stroke-width: 0.5; stroke: rgb(0, 0, 0); stroke-opacity: 1; fill: rgb(128, 128, 128); fill-opacity: 1;"/><text class="node-label" data-notex="1" x="0" y="0" text-anchor="end" transform="translate(-3.25,33.92950819672133)" style="cursor: default; font-family: 'Open Sans', verdana, arial, sans-serif; font-size: 12px; fill: rgb(42, 63, 95); fill-opacity: 1; white-space: pre; text-shadow: white 1px 1px 1px, white -1px -1px 1px, white 1px -1px 1px, white -1px 1px 1px;">still</text></g><g class="sankey-node" transform="translate(368.700,13.978)" style="opacity: 1;"><rect class="node-rect" width="15" height="21.09836065573768" style="stroke-width: 0.5; stroke: rgb(0, 0, 0); stroke-opacity: 1; fill: rgb(25, 211, 243); fill-opacity: 1;"/><text class="node-label" data-notex="1" x="0" y="0" text-anchor="start" transform="translate(18.25,14.749180327868839)" style="cursor: default; font-family: 'Open Sans', verdana, arial, sans-serif; font-size: 12px; fill: rgb(42, 63, 95); fill-opacity: 1; white-space: pre; text-shadow: white 1px 1px 1px, white -1px -1px 1px, white 1px -1px 1px, white -1px 1px 1px;">BLA</text></g><g class="sankey-node" transform="translate(368.700,47.520)" style="opacity: 1;"><rect class="node-rect" width="15" height="76.72131147540983" style="stroke-width: 0.5; stroke: rgb(0, 0, 0); stroke-opacity: 1; fill: rgb(0, 204, 150); fill-opacity: 1;"/><text class="node-label" data-notex="1" x="0" y="0" text-anchor="start" transform="translate(18.25,42.56065573770492)" style="cursor: default; font-family: 'Open Sans', verdana, arial, sans-serif; font-size: 12px; fill: rgb(42, 63, 95); fill-opacity: 1; white-space: pre; text-shadow: white 1px 1px 1px, white -1px -1px 1px, white 1px -1px 1px, white -1px 1px 1px;">Cla</text></g><g class="sankey-node" transform="translate(368.700,135.457)" style="opacity: 1;"><rect class="node-rect" width="15" height="82.4754098360653" style="stroke-width: 0.5; stroke: rgb(0, 0, 0); stroke-opacity: 1; fill: rgb(239, 85, 59); fill-opacity: 1;"/><text class="node-label" data-notex="1" x="0" y="0" text-anchor="start" transform="translate(18.25,45.43770491803265)" style="cursor: default; font-family: 'Open Sans', verdana, arial, sans-serif; font-size: 12px; fill: rgb(42, 63, 95); fill-opacity: 1; white-space: pre; text-shadow: white 1px 1px 1px, white -1px -1px 1px, white 1px -1px 1px, white -1px 1px 1px;">LC</text></g><g class="sankey-node" transform="translate(368.700,229.878)" style="opacity: 1;"><rect class="node-rect" width="15" height="40.27868852459014" style="stroke-width: 0.5; stroke: rgb(0, 0, 0); stroke-opacity: 1; fill: rgb(254, 203, 82); fill-opacity: 1;"/><text class="node-label" data-notex="1" x="0" y="0" text-anchor="start" transform="translate(18.25,24.339344262295068)" style="cursor: default; font-family: 'Open Sans', verdana, arial, sans-serif; font-size: 12px; fill: rgb(42, 63, 95); fill-opacity: 1; white-space: pre; text-shadow: white 1px 1px 1px, white -1px -1px 1px, white 1px -1px 1px, white -1px 1px 1px;">LHyp</text></g><g class="sankey-node" transform="translate(368.700,283.137)" style="opacity: 1;"><rect class="node-rect" width="15" height="30.688524590163865" style="stroke-width: 0.5; stroke: rgb(0, 0, 0); stroke-opacity: 1; fill: rgb(255, 161, 90); fill-opacity: 1;"/><text class="node-label" data-notex="1" x="0" y="0" text-anchor="start" transform="translate(18.25,19.544262295081932)" style="cursor: default; font-family: 'Open Sans', verdana, arial, sans-serif; font-size: 12px; fill: rgb(42, 63, 95); fill-opacity: 1; white-space: pre; text-shadow: white 1px 1px 1px, white -1px -1px 1px, white 1px -1px 1px, white -1px 1px 1px;">NAc</text></g><g class="sankey-node" transform="translate(368.700,325.617)" style="opacity: 1;"><rect class="node-rect" width="15" height="99.73770491803282" style="stroke-width: 0.5; stroke: rgb(0, 0, 0); stroke-opacity: 1; fill: rgb(171, 99, 250); fill-opacity: 1;"/><text class="node-label" data-notex="1" x="0" y="0" text-anchor="start" transform="translate(18.25,54.06885245901641)" style="cursor: default; font-family: 'Open Sans', verdana, arial, sans-serif; font-size: 12px; fill: rgb(42, 63, 95); fill-opacity: 1; white-space: pre; text-shadow: white 1px 1px 1px, white -1px -1px 1px, white 1px -1px 1px, white -1px 1px 1px;">Str</text></g><g class="sankey-node" transform="translate(368.700,434.538)" style="opacity: 1;"><rect class="node-rect" width="15" height="161.11475409836083" style="stroke-width: 0.5; stroke: rgb(0, 0, 0); stroke-opacity: 1; fill: rgb(99, 110, 250); fill-opacity: 1;"/><text class="node-label" data-notex="1" x="0" y="0" text-anchor="start" transform="translate(18.25,84.75737704918042)" style="cursor: default; font-family: 'Open Sans', verdana, arial, sans-serif; font-size: 12px; fill: rgb(42, 63, 95); fill-opacity: 1; white-space: pre; text-shadow: white 1px 1px 1px, white -1px -1px 1px, white 1px -1px 1px, white -1px 1px 1px;">VTA</text></g><g class="sankey-node" transform="translate(368.700,605.948)" style="opacity: 1;"><rect class="node-rect" width="15" height="44.11475409836066" style="stroke-width: 0.5; stroke: rgb(0, 0, 0); stroke-opacity: 1; fill: rgb(255, 151, 255); fill-opacity: 1;"/><text class="node-label" data-notex="1" x="0" y="0" text-anchor="start" transform="translate(18.25,26.25737704918033)" style="cursor: default; font-family: 'Open Sans', verdana, arial, sans-serif; font-size: 12px; fill: rgb(42, 63, 95); fill-opacity: 1; white-space: pre; text-shadow: white 1px 1px 1px, white -1px -1px 1px, white 1px -1px 1px, white -1px 1px 1px;">cPFC</text></g><g class="sankey-node" transform="translate(368.700,663.197)" style="opacity: 1;"><rect class="node-rect" width="15" height="19.180327868852373" style="stroke-width: 0.5; stroke: rgb(0, 0, 0); stroke-opacity: 1; fill: rgb(182, 232, 128); fill-opacity: 1;"/><text class="node-label" data-notex="1" x="0" y="0" text-anchor="start" transform="translate(18.25,13.790163934426186)" style="cursor: default; font-family: 'Open Sans', verdana, arial, sans-serif; font-size: 12px; fill: rgb(42, 63, 95); fill-opacity: 1; white-space: pre; text-shadow: white 1px 1px 1px, white -1px -1px 1px, white 1px -1px 1px, white -1px 1px 1px;">dPAG</text></g><g class="sankey-node" transform="translate(368.700,696.202)" style="opacity: 1;"><rect class="node-rect" width="15" height="9.590163934426073" style="stroke-width: 0.5; stroke: rgb(0, 0, 0); stroke-opacity: 1; fill: rgb(255, 102, 146); fill-opacity: 1;"/><text class="node-label" data-notex="1" x="0" y="0" text-anchor="start" transform="translate(18.25,8.995081967213036)" style="cursor: default; font-family: 'Open Sans', verdana, arial, sans-serif; font-size: 12px; fill: rgb(42, 63, 95); fill-opacity: 1; white-space: pre; text-shadow: white 1px 1px 1px, white -1px -1px 1px, white 1px -1px 1px, white -1px 1px 1px;">lHb</text></g></g></g><defs id="topdefs-718bcd"><g class="clips"/></defs><g class="layer-above"><g class="imagelayer"/><g class="shapelayer"/></g><g class="infolayer"><g class="g-gtitle"/><g class="first-render"/></g></svg>