<svg class="main-svg" xmlns="http://www.w3.org/2000/svg" xmlns:xlink="http://www.w3.org/1999/xlink" width="1300" height="900" style="" viewBox="0 0 1300 900"><rect x="0" y="0" width="1300" height="900" style="fill: rgb(255, 255, 255); fill-opacity: 1;"/><defs id="defs-6b3167"><g class="clips"/><g class="gradients"/><g class="patterns"/></defs><g class="bglayer"/><g class="layer-below"><g class="imagelayer"/><g class="shapelayer"/></g><g class="cartesianlayer"/><g class="polarlayer"/><g class="smithlayer"/><g class="ternarylayer"/><g class="geolayer"/><g class="funnelarealayer"/><g class="pielayer"/><g class="iciclelayer"/><g class="treemaplayer"/><g class="sunburstlayer"/><g class="glimages"/><g class="sankey" transform="translate(80,100)matrix(1 0 0 1 0 0)" style="box-sizing: content-box; position: absolute; left: 0px; shape-rendering: geometricprecision; pointer-events: none;"><g class="sankey-links" style="fill: none;"><path class="sankey-link" d="M15,-4.547473508864641e-13C570,-4.547473508864641e-13 570,90.00000000000003 1125,90.00000000000003L1125,101.50819672131149C570,101.50819672131149 570,11.50819672131102 15,11.50819672131102Z" style="stroke: rgb(68, 68, 68); stroke-opacity: 1; fill: rgb(25, 211, 243); fill-opacity: 0.6; stroke-width: 0; opacity: 1;"/><path class="sankey-link" d="M15,11.50819672131102C570,11.50819672131102 570,331.327868852459 1125,331.327868852459L1125,340.9180327868852C570,340.9180327868852 570,21.09836065573725 15,21.09836065573725Z" style="stroke: rgb(68, 68, 68); stroke-opacity: 1; fill: rgb(25, 211, 243); fill-opacity: 0.6; stroke-width: 0; opacity: 1;"/><path class="sankey-link" d="M15,36.098360655737196C570,36.098360655737196 570,101.5081967213115 1125,101.5081967213115L1125,136.03278688524594C570,136.03278688524594 570,70.62295081967162 15,70.62295081967162Z" style="stroke: rgb(68, 68, 68); stroke-opacity: 1; fill: rgb(0, 204, 150); fill-opacity: 0.6; stroke-width: 0; opacity: 1;"/><path class="sankey-link" d="M15,108.98360655737653C570,108.98360655737653 570,652.8688524590164 1125,652.8688524590164L1125,656.7049180327867C570,656.7049180327867 570,112.81967213114703 15,112.81967213114703Z" style="stroke: rgb(68, 68, 68); stroke-opacity: 1; fill: rgb(0, 204, 150); fill-opacity: 0.6; stroke-width: 0; opacity: 1;"/><path class="sankey-link" d="M15,70.62295081967162C570,70.62295081967162 570,340.91803278688525 1125,340.91803278688525L1125,375.4426229508197C570,375.4426229508197 570,105.14754098360604 15,105.14754098360604Z" style="stroke: rgb(68, 68, 68); stroke-opacity: 1; fill: rgb(0, 204, 150); fill-opacity: 0.6; stroke-width: 0; opacity: 1;"/><path class="sankey-link" d="M15,105.14754098360604C570,105.14754098360604 570,578.4098360655739 1125,578.4098360655739L1125,582.2459016393443C570,582.2459016393443 570,108.98360655737653 15,108.98360655737653Z" style="stroke: rgb(68, 68, 68); stroke-opacity: 1; fill: rgb(0, 204, 150); fill-opacity: 0.6; stroke-width: 0; opacity: 1;"/><path class="sankey-link" d="M15,127.81967213114723C570,127.81967213114723 570,136.03278688524594 1125,136.03278688524594L1125,172.4754098360656C570,172.4754098360656 570,164.2622950819669 15,164.2622950819669Z" style="stroke: rgb(68, 68, 68); stroke-opacity: 1; fill: rgb(239, 85, 59); fill-opacity: 0.6; stroke-width: 0; opacity: 1;"/><path class="sankey-link" d="M15,204.54098360655706C570,204.54098360655706 570,656.7049180327868 1125,656.7049180327868L1125,662.4590163934425C570,662.4590163934425 570,210.2950819672128 15,210.2950819672128Z" style="stroke: rgb(68, 68, 68); stroke-opacity: 1; fill: rgb(239, 85, 59); fill-opacity: 0.6; stroke-width: 0; opacity: 1;"/><path class="sankey-link" d="M15,164.2622950819669C570,164.2622950819669 570,375.44262295081967 1125,375.44262295081967L1125,411.88524590163934C570,411.88524590163934 570,200.70491803278657 15,200.70491803278657Z" style="stroke: rgb(68, 68, 68); stroke-opacity: 1; fill: rgb(239, 85, 59); fill-opacity: 0.6; stroke-width: 0; opacity: 1;"/><path class="sankey-link" d="M15,200.70491803278657C570,200.70491803278657 570,582.2459016393444 1125,582.2459016393444L1125,586.0819672131148C570,586.0819672131148 570,204.54098360655706 15,204.54098360655706Z" style="stroke: rgb(68, 68, 68); stroke-opacity: 1; fill: rgb(239, 85, 59); fill-opacity: 0.6; stroke-width: 0; opacity: 1;"/><path class="sankey-link" d="M15,586.4262295081971C570,586.4262295081971 570,281.80327868852464 1125,281.80327868852464L1125,297.14754098360663C570,297.14754098360663 570,601.7704918032791 15,601.7704918032791Z" style="stroke: rgb(68, 68, 68); stroke-opacity: 1; fill: rgb(254, 203, 82); fill-opacity: 0.6; stroke-width: 0; opacity: 1;"/><path class="sankey-link" d="M15,615.1967213114758C570,615.1967213114758 570,700.8196721311475 1125,700.8196721311475L1125,712.3278688524589C570,712.3278688524589 570,626.7049180327872 15,626.7049180327872Z" style="stroke: rgb(68, 68, 68); stroke-opacity: 1; fill: rgb(254, 203, 82); fill-opacity: 0.6; stroke-width: 0; opacity: 1;"/><path class="sankey-link" d="M15,601.7704918032791C570,601.7704918032791 570,530.8032786885246 1125,530.8032786885246L1125,540.3934426229509C570,540.3934426229509 570,611.3606557377054 15,611.3606557377054Z" style="stroke: rgb(68, 68, 68); stroke-opacity: 1; fill: rgb(254, 203, 82); fill-opacity: 0.6; stroke-width: 0; opacity: 1;"/><path class="sankey-link" d="M15,611.3606557377053C570,611.3606557377053 570,620.6065573770493 1125,620.6065573770493L1125,624.4426229508197C570,624.4426229508197 570,615.1967213114757 15,615.1967213114757Z" style="stroke: rgb(68, 68, 68); stroke-opacity: 1; fill: rgb(254, 203, 82); fill-opacity: 0.6; stroke-width: 0; opacity: 1;"/><path class="sankey-link" d="M15,340.0327868852457C570,340.0327868852457 570,212.75409836065577 1125,212.75409836065577L1125,226.18032786885252C570,226.18032786885252 570,353.45901639344237 15,353.45901639344237Z" style="stroke: rgb(68, 68, 68); stroke-opacity: 1; fill: rgb(255, 161, 90); fill-opacity: 0.6; stroke-width: 0; opacity: 1;"/><path class="sankey-link" d="M15,353.4590163934424C570,353.4590163934424 570,459.8360655737705 1125,459.8360655737705L1125,475.1803278688525C570,475.1803278688525 570,368.8032786885244 15,368.8032786885244Z" style="stroke: rgb(68, 68, 68); stroke-opacity: 1; fill: rgb(255, 161, 90); fill-opacity: 0.6; stroke-width: 0; opacity: 1;"/><path class="sankey-link" d="M15,368.8032786885244C570,368.8032786885244 570,593.7540983606559 1125,593.7540983606559L1125,595.6721311475412C570,595.6721311475412 570,370.7213114754096 15,370.7213114754096Z" style="stroke: rgb(68, 68, 68); stroke-opacity: 1; fill: rgb(255, 161, 90); fill-opacity: 0.6; stroke-width: 0; opacity: 1;"/><path class="sankey-link" d="M15,225.29508196721287C570,225.29508196721287 570,172.4754098360656 1125,172.4754098360656L1125,212.75409836065577C570,212.75409836065577 570,265.57377049180303 15,265.57377049180303Z" style="stroke: rgb(68, 68, 68); stroke-opacity: 1; fill: rgb(171, 99, 250); fill-opacity: 0.6; stroke-width: 0; opacity: 1;"/><path class="sankey-link" d="M15,321.1967213114752C570,321.1967213114752 570,662.4590163934425 1125,662.4590163934425L1125,666.2950819672129C570,666.2950819672129 570,325.0327868852457 15,325.0327868852457Z" style="stroke: rgb(68, 68, 68); stroke-opacity: 1; fill: rgb(171, 99, 250); fill-opacity: 0.6; stroke-width: 0; opacity: 1;"/><path class="sankey-link" d="M15,265.57377049180303C570,265.57377049180303 570,411.88524590163934 1125,411.88524590163934L1125,459.8360655737705C570,459.8360655737705 570,313.5245901639342 15,313.5245901639342Z" style="stroke: rgb(68, 68, 68); stroke-opacity: 1; fill: rgb(171, 99, 250); fill-opacity: 0.6; stroke-width: 0; opacity: 1;"/><path class="sankey-link" d="M15,313.5245901639342C570,313.5245901639342 570,586.0819672131149 1125,586.0819672131149L1125,593.7540983606559C570,593.7540983606559 570,321.1967213114752 15,321.1967213114752Z" style="stroke: rgb(68, 68, 68); stroke-opacity: 1; fill: rgb(171, 99, 250); fill-opacity: 0.6; stroke-width: 0; opacity: 1;"/><path class="sankey-link" d="M15,410.31147540983585C570,410.31147540983585 570,230.01639344262298 1125,230.01639344262298L1125,281.80327868852464C570,281.80327868852464 570,462.0983606557375 15,462.0983606557375Z" style="stroke: rgb(68, 68, 68); stroke-opacity: 1; fill: rgb(99, 110, 250); fill-opacity: 0.6; stroke-width: 0; opacity: 1;"/><path class="sankey-link" d="M15,536.9016393442621C570,536.9016393442621 570,666.295081967213 1125,666.295081967213L1125,700.8196721311474C570,700.8196721311474 570,571.4262295081965 15,571.4262295081965Z" style="stroke: rgb(68, 68, 68); stroke-opacity: 1; fill: rgb(99, 110, 250); fill-opacity: 0.6; stroke-width: 0; opacity: 1;"/><path class="sankey-link" d="M15,462.0983606557375C570,462.0983606557375 570,480.93442622950823 1125,480.93442622950823L1125,530.8032786885246C570,530.8032786885246 570,511.96721311475386 15,511.96721311475386Z" style="stroke: rgb(68, 68, 68); stroke-opacity: 1; fill: rgb(99, 110, 250); fill-opacity: 0.6; stroke-width: 0; opacity: 1;"/><path class="sankey-link" d="M15,511.967213114754C570,511.967213114754 570,595.6721311475411 1125,595.6721311475411L1125,620.6065573770494C570,620.6065573770494 570,536.9016393442622 15,536.9016393442622Z" style="stroke: rgb(68, 68, 68); stroke-opacity: 1; fill: rgb(99, 110, 250); fill-opacity: 0.6; stroke-width: 0; opacity: 1;"/><path class="sankey-link" d="M15,641.7049180327872C570,641.7049180327872 570,297.14754098360663 1125,297.14754098360663L1125,312.4918032786886C570,312.4918032786886 570,657.0491803278692 15,657.0491803278692Z" style="stroke: rgb(68, 68, 68); stroke-opacity: 1; fill: rgb(255, 151, 255); fill-opacity: 0.6; stroke-width: 0; opacity: 1;"/><path class="sankey-link" d="M15,678.1475409836069C570,678.1475409836069 570,712.327868852459 1125,712.327868852459L1125,720C570,720 570,685.8196721311479 15,685.8196721311479Z" style="stroke: rgb(68, 68, 68); stroke-opacity: 1; fill: rgb(255, 151, 255); fill-opacity: 0.6; stroke-width: 0; opacity: 1;"/><path class="sankey-link" d="M15,657.0491803278692C570,657.0491803278692 570,540.3934426229508 1125,540.3934426229508L1125,551.9016393442622C570,551.9016393442622 570,668.5573770491806 15,668.5573770491806Z" style="stroke: rgb(68, 68, 68); stroke-opacity: 1; fill: rgb(255, 151, 255); fill-opacity: 0.6; stroke-width: 0; opacity: 1;"/><path class="sankey-link" d="M15,668.5573770491807C570,668.5573770491807 570,624.4426229508198 1125,624.4426229508198L1125,634.0327868852461C570,634.0327868852461 570,678.147540983607 15,678.147540983607Z" style="stroke: rgb(68, 68, 68); stroke-opacity: 1; fill: rgb(255, 151, 255); fill-opacity: 0.6; stroke-width: 0; opacity: 1;"/><path class="sankey-link" d="M15,700.8196721311476C570,700.8196721311476 570,312.4918032786886 1125,312.4918032786886L1125,316.3278688524591C570,316.3278688524591 570,704.655737704918 15,704.655737704918Z" style="stroke: rgb(68, 68, 68); stroke-opacity: 1; fill: rgb(182, 232, 128); fill-opacity: 0.6; stroke-width: 0; opacity: 1;"/><path class="sankey-link" d="M15,704.6557377049181C570,704.6557377049181 570,551.9016393442623 1125,551.9016393442623L1125,563.4098360655737C570,563.4098360655737 570,716.1639344262295 15,716.1639344262295Z" style="stroke: rgb(68, 68, 68); stroke-opacity: 1; fill: rgb(182, 232, 128); fill-opacity: 0.6; stroke-width: 0; opacity: 1;"/><path class="sankey-link" d="M15,716.1639344262296C570,716.1639344262296 570,634.032786885246 1125,634.032786885246L1125,637.8688524590164C570,637.8688524590164 570,720 15,720Z" style="stroke: rgb(68, 68, 68); stroke-opacity: 1; fill: rgb(182, 232, 128); fill-opacity: 0.6; stroke-width: 0; opacity: 1;"/><path class="sankey-link" d="M15,385.72131147540966C570,385.72131147540966 570,226.1803278688525 1125,226.1803278688525L1125,230.01639344262298C570,230.01639344262298 570,389.55737704918016 15,389.55737704918016Z" style="stroke: rgb(68, 68, 68); stroke-opacity: 1; fill: rgb(255, 102, 146); fill-opacity: 0.6; stroke-width: 0; opacity: 1;"/><path class="sankey-link" d="M15,389.55737704918016C570,389.55737704918016 570,475.1803278688525 1125,475.1803278688525L1125,480.9344262295082C570,480.9344262295082 570,395.31147540983585 15,395.31147540983585Z" style="stroke: rgb(68, 68, 68); stroke-opacity: 1; fill: rgb(255, 102, 146); fill-opacity: 0.6; stroke-width: 0; opacity: 1;"/></g><g class="sankey-node-set" style="cursor: move;"><g class="sankey-node" transform="translate(1125.000,90.000)" style="opacity: 1;"><rect class="node-rect" width="15" height="226.32786885245898" style="stroke-width: 0.5; stroke: rgb(0, 0, 0); stroke-opacity: 1; fill: rgb(128, 128, 128); fill-opacity: 1;"/><text class="node-label" data-notex="1" x="0" y="0" text-anchor="end" transform="translate(-3.25,117.36393442622949)" style="cursor: default; font-family: 'Open Sans', verdana, arial, sans-serif; font-size: 12px; fill: rgb(42, 63, 95); fill-opacity: 1; white-space: pre; text-shadow: white 1px 1px 1px, white -1px -1px 1px, white 1px -1px 1px, white -1px 1px 1px;">dig</text></g><g class="sankey-node" transform="translate(1125.000,331.328)" style="opacity: 1;"><rect class="node-rect" width="15" height="232.08196721311492" style="stroke-width: 0.5; stroke: rgb(0, 0, 0); stroke-opacity: 1; fill: rgb(128, 128, 128); fill-opacity: 1;"/><text class="node-label" data-notex="1" x="0" y="0" text-anchor="end" transform="translate(-3.25,120.24098360655746)" style="cursor: default; font-family: 'Open Sans', verdana, arial, sans-serif; font-size: 12px; fill: rgb(42, 63, 95); fill-opacity: 1; white-space: pre; text-shadow: white 1px 1px 1px, white -1px -1px 1px, white 1px -1px 1px, white -1px 1px 1px;">move</text></g><g class="sankey-node" transform="translate(1125.000,652.869)" style="opacity: 1;"><rect class="node-rect" width="15" height="67.13114754098365" style="stroke-width: 0.5; stroke: rgb(0, 0, 0); stroke-opacity: 1; fill: rgb(128, 128, 128); fill-opacity: 1;"/><text class="node-label" data-notex="1" x="0" y="0" text-anchor="end" transform="translate(-3.25,37.76557377049183)" style="cursor: default; font-family: 'Open Sans', verdana, arial, sans-serif; font-size: 12px; fill: rgb(42, 63, 95); fill-opacity: 1; white-space: pre; text-shadow: white 1px 1px 1px, white -1px -1px 1px, white 1px -1px 1px, white -1px 1px 1px;">groom</text></g><g class="sankey-node" transform="translate(1125.000,578.410)" style="opacity: 1;"><rect class="node-rect" width="15" height="59.459016393442425" style="stroke-width: 0.5; stroke: rgb(0, 0, 0); stroke-opacity: 1; fill: rgb(128, 128, 128); fill-opacity: 1;"/><text class="node-label" data-notex="1" x="0" y="0" text-anchor="end" transform="translate(-3.25,33.929508196721216)" style="cursor: default; font-family: 'Open Sans', verdana, arial, sans-serif; font-size: 12px; fill: rgb(42, 63, 95); fill-opacity: 1; white-space: pre; text-shadow: white 1px 1px 1px, white -1px -1px 1px, white 1px -1px 1px, white -1px 1px 1px;">still</text></g><g class="sankey-node" transform="translate(0.000,410.311)" style="opacity: 1;"><rect class="node-rect" width="15" height="161.1147540983613" style="stroke-width: 0.5; stroke: rgb(0, 0, 0); stroke-opacity: 1; fill: rgb(99, 110, 250); fill-opacity: 1;"/><text class="node-label" data-notex="1" x="0" y="0" text-anchor="start" transform="translate(18.25,84.75737704918065)" style="cursor: default; font-family: 'Open Sans', verdana, arial, sans-serif; font-size: 12px; fill: rgb(42, 63, 95); fill-opacity: 1; white-space: pre; text-shadow: white 1px 1px 1px, white -1px -1px 1px, white 1px -1px 1px, white -1px 1px 1px;">VTA</text></g><g class="sankey-node" transform="translate(0.000,127.820)" style="opacity: 1;"><rect class="node-rect" width="15" height="82.47540983606564" style="stroke-width: 0.5; stroke: rgb(0, 0, 0); stroke-opacity: 1; fill: rgb(239, 85, 59); fill-opacity: 1;"/><text class="node-label" data-notex="1" x="0" y="0" text-anchor="start" transform="translate(18.25,45.43770491803282)" style="cursor: default; font-family: 'Open Sans', verdana, arial, sans-serif; font-size: 12px; fill: rgb(42, 63, 95); fill-opacity: 1; white-space: pre; text-shadow: white 1px 1px 1px, white -1px -1px 1px, white 1px -1px 1px, white -1px 1px 1px;">LC</text></g><g class="sankey-node" transform="translate(0.000,36.098)" style="opacity: 1;"><rect class="node-rect" width="15" height="76.72131147541003" style="stroke-width: 0.5; stroke: rgb(0, 0, 0); stroke-opacity: 1; fill: rgb(0, 204, 150); fill-opacity: 1;"/><text class="node-label" data-notex="1" x="0" y="0" text-anchor="start" transform="translate(18.25,42.56065573770502)" style="cursor: default; font-family: 'Open Sans', verdana, arial, sans-serif; font-size: 12px; fill: rgb(42, 63, 95); fill-opacity: 1; white-space: pre; text-shadow: white 1px 1px 1px, white -1px -1px 1px, white 1px -1px 1px, white -1px 1px 1px;">Cla</text></g><g class="sankey-node" transform="translate(0.000,225.295)" style="opacity: 1;"><rect class="node-rect" width="15" height="99.73770491803282" style="stroke-width: 0.5; stroke: rgb(0, 0, 0); stroke-opacity: 1; fill: rgb(171, 99, 250); fill-opacity: 1;"/><text class="node-label" data-notex="1" x="0" y="0" text-anchor="start" transform="translate(18.25,54.06885245901641)" style="cursor: default; font-family: 'Open Sans', verdana, arial, sans-serif; font-size: 12px; fill: rgb(42, 63, 95); fill-opacity: 1; white-space: pre; text-shadow: white 1px 1px 1px, white -1px -1px 1px, white 1px -1px 1px, white -1px 1px 1px;">Str</text></g><g class="sankey-node" transform="translate(0.000,340.033)" style="opacity: 1;"><rect class="node-rect" width="15" height="30.68852459016398" style="stroke-width: 0.5; stroke: rgb(0, 0, 0); stroke-opacity: 1; fill: rgb(255, 161, 90); fill-opacity: 1;"/><text class="node-label" data-notex="1" x="0" y="0" text-anchor="start" transform="translate(18.25,19.54426229508199)" style="cursor: default; font-family: 'Open Sans', verdana, arial, sans-serif; font-size: 12px; fill: rgb(42, 63, 95); fill-opacity: 1; white-space: pre; text-shadow: white 1px 1px 1px, white -1px -1px 1px, white 1px -1px 1px, white -1px 1px 1px;">NAc</text></g><g class="sankey-node" transform="translate(0.000,-0.000)" style="opacity: 1;"><rect class="node-rect" width="15" height="21.09836065573765" style="stroke-width: 0.5; stroke: rgb(0, 0, 0); stroke-opacity: 1; fill: rgb(25, 211, 243); fill-opacity: 1;"/><text class="node-label" data-notex="1" x="0" y="0" text-anchor="start" transform="translate(18.25,14.749180327868824)" style="cursor: default; font-family: 'Open Sans', verdana, arial, sans-serif; font-size: 12px; fill: rgb(42, 63, 95); fill-opacity: 1; white-space: pre; text-shadow: white 1px 1px 1px, white -1px -1px 1px, white 1px -1px 1px, white -1px 1px 1px;">BLA</text></g><g class="sankey-node" transform="translate(0.000,385.721)" style="opacity: 1;"><rect class="node-rect" width="15" height="9.590163934426187" style="stroke-width: 0.5; stroke: rgb(0, 0, 0); stroke-opacity: 1; fill: rgb(255, 102, 146); fill-opacity: 1;"/><text class="node-label" data-notex="1" x="0" y="0" text-anchor="start" transform="translate(18.25,8.995081967213093)" style="cursor: default; font-family: 'Open Sans', verdana, arial, sans-serif; font-size: 12px; fill: rgb(42, 63, 95); fill-opacity: 1; white-space: pre; text-shadow: white 1px 1px 1px, white -1px -1px 1px, white 1px -1px 1px, white -1px 1px 1px;">lHb</text></g><g class="sankey-node" transform="translate(0.000,700.820)" style="opacity: 1;"><rect class="node-rect" width="15" height="19.180327868852373" style="stroke-width: 0.5; stroke: rgb(0, 0, 0); stroke-opacity: 1; fill: rgb(182, 232, 128); fill-opacity: 1;"/><text class="node-label" data-notex="1" x="0" y="0" text-anchor="start" transform="translate(18.25,13.790163934426186)" style="cursor: default; font-family: 'Open Sans', verdana, arial, sans-serif; font-size: 12px; fill: rgb(42, 63, 95); fill-opacity: 1; white-space: pre; text-shadow: white 1px 1px 1px, white -1px -1px 1px, white 1px -1px 1px, white -1px 1px 1px;">dPAG</text></g><g class="sankey-node" transform="translate(0.000,641.705)" style="opacity: 1;"><rect class="node-rect" width="15" height="44.114754098360436" style="stroke-width: 0.5; stroke: rgb(0, 0, 0); stroke-opacity: 1; fill: rgb(255, 151, 255); fill-opacity: 1;"/><text class="node-label" data-notex="1" x="0" y="0" text-anchor="start" transform="translate(18.25,26.257377049180217)" style="cursor: default; font-family: 'Open Sans', verdana, arial, sans-serif; font-size: 12px; fill: rgb(42, 63, 95); fill-opacity: 1; white-space: pre; text-shadow: white 1px 1px 1px, white -1px -1px 1px, white 1px -1px 1px, white -1px 1px 1px;">cPFC</text></g><g class="sankey-node" transform="translate(0.000,586.426)" style="opacity: 1;"><rect class="node-rect" width="15" height="40.27868852459005" style="stroke-width: 0.5; stroke: rgb(0, 0, 0); stroke-opacity: 1; fill: rgb(254, 203, 82); fill-opacity: 1;"/><text class="node-label" data-notex="1" x="0" y="0" text-anchor="start" transform="translate(18.25,24.339344262295025)" style="cursor: default; font-family: 'Open Sans', verdana, arial, sans-serif; font-size: 12px; fill: rgb(42, 63, 95); fill-opacity: 1; white-space: pre; text-shadow: white 1px 1px 1px, white -1px -1px 1px, white 1px -1px 1px, white -1px 1px 1px;">LHyp</text></g></g></g><defs id="topdefs-6b3167"><g class="clips"/></defs><g class="layer-above"><g class="imagelayer"/><g class="shapelayer"/></g><g class="infolayer"><g class="g-gtitle"/><g class="first-render"/></g></svg>