<svg class="main-svg" xmlns="http://www.w3.org/2000/svg" xmlns:xlink="http://www.w3.org/1999/xlink" width="1300" height="900" style="" viewBox="0 0 1300 900"><rect x="0" y="0" width="1300" height="900" style="fill: rgb(255, 255, 255); fill-opacity: 1;"/><defs id="defs-72076d"><g class="clips"/><g class="gradients"/><g class="patterns"/></defs><g class="bglayer"/><g class="layer-below"><g class="imagelayer"/><g class="shapelayer"/></g><g class="cartesianlayer"/><g class="polarlayer"/><g class="smithlayer"/><g class="ternarylayer"/><g class="geolayer"/><g class="funnelarealayer"/><g class="pielayer"/><g class="iciclelayer"/><g class="treemaplayer"/><g class="sunburstlayer"/><g class="glimages"/><g class="sankey" transform="translate(80,100)matrix(1 0 0 1 0 0)" style="box-sizing: content-box; position: absolute; left: 0px; shape-rendering: geometricprecision; pointer-events: none;"><g class="sankey-links" style="fill: none;"><path class="sankey-link" d="M383.70000000000005,13.818790496760208C564.3000000000001,13.818790496760208 564.3000000000001,20.120734341252728 744.9000000000001,20.120734341252728L744.9000000000001,26.43822894168469C564.3000000000001,26.43822894168469 564.3000000000001,20.13628509719217 383.70000000000005,20.13628509719217Z" style="stroke: rgb(68, 68, 68); stroke-opacity: 1; fill: rgb(25, 211, 243); fill-opacity: 0.6; stroke-width: 0; opacity: 1;"/><path class="sankey-link" d="M383.70000000000005,20.13628509719217C564.3000000000001,20.13628509719217 564.3000000000001,302.05593952483787 744.9000000000001,302.05593952483787L744.9000000000001,317.21792656587456C564.3000000000001,317.21792656587456 564.3000000000001,35.29827213822889 383.70000000000005,35.29827213822889Z" style="stroke: rgb(68, 68, 68); stroke-opacity: 1; fill: rgb(25, 211, 243); fill-opacity: 0.6; stroke-width: 0; opacity: 1;"/><path class="sankey-link" d="M383.70000000000005,35.29827213822889C564.3000000000001,35.29827213822889 564.3000000000001,550.31403887689 744.9000000000001,550.31403887689L744.9000000000001,557.8950323974084C564.3000000000001,557.8950323974084 564.3000000000001,42.87926565874725 383.70000000000005,42.87926565874725Z" style="stroke: rgb(68, 68, 68); stroke-opacity: 1; fill: rgb(25, 211, 243); fill-opacity: 0.6; stroke-width: 0; opacity: 1;"/><path class="sankey-link" d="M383.70000000000005,55.03023758099357C564.3000000000001,55.03023758099357 564.3000000000001,26.43822894168469 744.9000000000001,26.43822894168469L744.9000000000001,46.65421166306698C564.3000000000001,46.65421166306698 564.3000000000001,75.24622030237586 383.70000000000005,75.24622030237586Z" style="stroke: rgb(68, 68, 68); stroke-opacity: 1; fill: rgb(0, 204, 150); fill-opacity: 0.6; stroke-width: 0; opacity: 1;"/><path class="sankey-link" d="M383.70000000000005,75.24622030237586C564.3000000000001,75.24622030237586 564.3000000000001,179.69481641468678 744.9000000000001,179.69481641468678L744.9000000000001,180.9583153347732C564.3000000000001,180.9583153347732 564.3000000000001,76.50971922246225 383.70000000000005,76.50971922246225Z" style="stroke: rgb(68, 68, 68); stroke-opacity: 1; fill: rgb(0, 204, 150); fill-opacity: 0.6; stroke-width: 0; opacity: 1;"/><path class="sankey-link" d="M383.70000000000005,76.50971922246225C564.3000000000001,76.50971922246225 564.3000000000001,239.09676025917923 744.9000000000001,239.09676025917923L744.9000000000001,241.62375809935202C564.3000000000001,241.62375809935202 564.3000000000001,79.03671706263503 383.70000000000005,79.03671706263503Z" style="stroke: rgb(68, 68, 68); stroke-opacity: 1; fill: rgb(0, 204, 150); fill-opacity: 0.6; stroke-width: 0; opacity: 1;"/><path class="sankey-link" d="M383.70000000000005,79.03671706263503C564.3000000000001,79.03671706263503 564.3000000000001,317.21792656587456 744.9000000000001,317.21792656587456L744.9000000000001,348.80539956803443C564.3000000000001,348.80539956803443 564.3000000000001,110.62419006479485 383.70000000000005,110.62419006479485Z" style="stroke: rgb(68, 68, 68); stroke-opacity: 1; fill: rgb(0, 204, 150); fill-opacity: 0.6; stroke-width: 0; opacity: 1;"/><path class="sankey-link" d="M383.70000000000005,110.62419006479486C564.3000000000001,110.62419006479486 564.3000000000001,557.8950323974084 744.9000000000001,557.8950323974084L744.9000000000001,585.692008639309C564.3000000000001,585.692008639309 564.3000000000001,138.4211663066955 383.70000000000005,138.4211663066955Z" style="stroke: rgb(68, 68, 68); stroke-opacity: 1; fill: rgb(0, 204, 150); fill-opacity: 0.6; stroke-width: 0; opacity: 1;"/><path class="sankey-link" d="M383.70000000000005,149.43498920086392C564.3000000000001,149.43498920086392 564.3000000000001,46.65421166306698 744.9000000000001,46.65421166306698L744.9000000000001,69.39719222462206C564.3000000000001,69.39719222462206 564.3000000000001,172.17796976241902 383.70000000000005,172.17796976241902Z" style="stroke: rgb(68, 68, 68); stroke-opacity: 1; fill: rgb(239, 85, 59); fill-opacity: 0.6; stroke-width: 0; opacity: 1;"/><path class="sankey-link" d="M383.70000000000005,172.177969762419C564.3000000000001,172.177969762419 564.3000000000001,180.95831533477318 744.9000000000001,180.95831533477318L744.9000000000001,184.74881209503238C564.3000000000001,184.74881209503238 564.3000000000001,175.9684665226782 383.70000000000005,175.9684665226782Z" style="stroke: rgb(68, 68, 68); stroke-opacity: 1; fill: rgb(239, 85, 59); fill-opacity: 0.6; stroke-width: 0; opacity: 1;"/><path class="sankey-link" d="M383.70000000000005,175.96846652267817C564.3000000000001,175.96846652267817 564.3000000000001,241.62375809935202 744.9000000000001,241.62375809935202L744.9000000000001,244.1507559395248C564.3000000000001,244.1507559395248 564.3000000000001,178.49546436285095 383.70000000000005,178.49546436285095Z" style="stroke: rgb(68, 68, 68); stroke-opacity: 1; fill: rgb(239, 85, 59); fill-opacity: 0.6; stroke-width: 0; opacity: 1;"/><path class="sankey-link" d="M383.70000000000005,178.49546436285095C564.3000000000001,178.49546436285095 564.3000000000001,348.8053995680344 744.9000000000001,348.8053995680344L744.9000000000001,376.60237580993504C564.3000000000001,376.60237580993504 564.3000000000001,206.29244060475162 383.70000000000005,206.29244060475162Z" style="stroke: rgb(68, 68, 68); stroke-opacity: 1; fill: rgb(239, 85, 59); fill-opacity: 0.6; stroke-width: 0; opacity: 1;"/><path class="sankey-link" d="M383.70000000000005,206.2924406047516C564.3000000000001,206.2924406047516 564.3000000000001,585.692008639309 744.9000000000001,585.692008639309L744.9000000000001,614.7524838012962C564.3000000000001,614.7524838012962 564.3000000000001,235.35291576673862 383.70000000000005,235.35291576673862Z" style="stroke: rgb(68, 68, 68); stroke-opacity: 1; fill: rgb(239, 85, 59); fill-opacity: 0.6; stroke-width: 0; opacity: 1;"/><path class="sankey-link" d="M383.70000000000005,247.32699784017285C564.3000000000001,247.32699784017285 564.3000000000001,69.39719222462207 744.9000000000001,69.39719222462207L744.9000000000001,79.5051835853132C564.3000000000001,79.5051835853132 564.3000000000001,257.434989200864 383.70000000000005,257.434989200864Z" style="stroke: rgb(68, 68, 68); stroke-opacity: 1; fill: rgb(254, 203, 82); fill-opacity: 0.6; stroke-width: 0; opacity: 1;"/><path class="sankey-link" d="M383.70000000000005,257.434989200864C564.3000000000001,257.434989200864 564.3000000000001,184.74881209503235 744.9000000000001,184.74881209503235L744.9000000000001,192.3298056155507C564.3000000000001,192.3298056155507 564.3000000000001,265.0159827213824 383.70000000000005,265.0159827213824Z" style="stroke: rgb(68, 68, 68); stroke-opacity: 1; fill: rgb(254, 203, 82); fill-opacity: 0.6; stroke-width: 0; opacity: 1;"/><path class="sankey-link" d="M383.70000000000005,265.01598272138233C564.3000000000001,265.01598272138233 564.3000000000001,244.1507559395248 744.9000000000001,244.1507559395248L744.9000000000001,245.41425485961122C564.3000000000001,245.41425485961122 564.3000000000001,266.2794816414687 383.70000000000005,266.2794816414687Z" style="stroke: rgb(68, 68, 68); stroke-opacity: 1; fill: rgb(254, 203, 82); fill-opacity: 0.6; stroke-width: 0; opacity: 1;"/><path class="sankey-link" d="M383.70000000000005,266.27948164146875C564.3000000000001,266.27948164146875 564.3000000000001,376.60237580993504 744.9000000000001,376.60237580993504L744.9000000000001,387.97386609071253C564.3000000000001,387.97386609071253 564.3000000000001,277.65097192224624 383.70000000000005,277.65097192224624Z" style="stroke: rgb(68, 68, 68); stroke-opacity: 1; fill: rgb(254, 203, 82); fill-opacity: 0.6; stroke-width: 0; opacity: 1;"/><path class="sankey-link" d="M383.70000000000005,277.6509719222463C564.3000000000001,277.6509719222463 564.3000000000001,614.7524838012961 744.9000000000001,614.7524838012961L744.9000000000001,619.8064794816418C564.3000000000001,619.8064794816418 564.3000000000001,282.70496760259186 383.70000000000005,282.70496760259186Z" style="stroke: rgb(68, 68, 68); stroke-opacity: 1; fill: rgb(254, 203, 82); fill-opacity: 0.6; stroke-width: 0; opacity: 1;"/><path class="sankey-link" d="M383.70000000000005,295.6140388768898C564.3000000000001,295.6140388768898 564.3000000000001,79.5051835853132 744.9000000000001,79.5051835853132L744.9000000000001,88.34967602591794C564.3000000000001,88.34967602591794 564.3000000000001,304.4585313174946 383.70000000000005,304.4585313174946Z" style="stroke: rgb(68, 68, 68); stroke-opacity: 1; fill: rgb(255, 161, 90); fill-opacity: 0.6; stroke-width: 0; opacity: 1;"/><path class="sankey-link" d="M383.70000000000005,304.4585313174946C564.3000000000001,304.4585313174946 564.3000000000001,245.4142548596112 744.9000000000001,245.4142548596112L744.9000000000001,246.6777537796976C564.3000000000001,246.6777537796976 564.3000000000001,305.72203023758095 383.70000000000005,305.72203023758095Z" style="stroke: rgb(68, 68, 68); stroke-opacity: 1; fill: rgb(255, 161, 90); fill-opacity: 0.6; stroke-width: 0; opacity: 1;"/><path class="sankey-link" d="M383.70000000000005,305.722030237581C564.3000000000001,305.722030237581 564.3000000000001,387.9738660907126 744.9000000000001,387.9738660907126L744.9000000000001,406.9263498920085C564.3000000000001,406.9263498920085 564.3000000000001,324.6745140388769 383.70000000000005,324.6745140388769Z" style="stroke: rgb(68, 68, 68); stroke-opacity: 1; fill: rgb(255, 161, 90); fill-opacity: 0.6; stroke-width: 0; opacity: 1;"/><path class="sankey-link" d="M383.70000000000005,324.6745140388769C564.3000000000001,324.6745140388769 564.3000000000001,619.8064794816416 744.9000000000001,619.8064794816416L744.9000000000001,629.9144708423328C564.3000000000001,629.9144708423328 564.3000000000001,334.78250539956804 383.70000000000005,334.78250539956804Z" style="stroke: rgb(68, 68, 68); stroke-opacity: 1; fill: rgb(255, 161, 90); fill-opacity: 0.6; stroke-width: 0; opacity: 1;"/><path class="sankey-link" d="M383.70000000000005,346.377537796976C564.3000000000001,346.377537796976 564.3000000000001,88.34967602591796 744.9000000000001,88.34967602591796L744.9000000000001,111.09265658747303C564.3000000000001,111.09265658747303 564.3000000000001,369.1205183585311 383.70000000000005,369.1205183585311Z" style="stroke: rgb(68, 68, 68); stroke-opacity: 1; fill: rgb(171, 99, 250); fill-opacity: 0.6; stroke-width: 0; opacity: 1;"/><path class="sankey-link" d="M383.70000000000005,369.1205183585311C564.3000000000001,369.1205183585311 564.3000000000001,192.3298056155507 744.9000000000001,192.3298056155507L744.9000000000001,194.85680345572348C564.3000000000001,194.85680345572348 564.3000000000001,371.64751619870395 383.70000000000005,371.64751619870395Z" style="stroke: rgb(68, 68, 68); stroke-opacity: 1; fill: rgb(171, 99, 250); fill-opacity: 0.6; stroke-width: 0; opacity: 1;"/><path class="sankey-link" d="M383.70000000000005,371.6475161987039C564.3000000000001,371.6475161987039 564.3000000000001,246.67775377969758 744.9000000000001,246.67775377969758L744.9000000000001,251.73174946004315C564.3000000000001,251.73174946004315 564.3000000000001,376.70151187904946 383.70000000000005,376.70151187904946Z" style="stroke: rgb(68, 68, 68); stroke-opacity: 1; fill: rgb(171, 99, 250); fill-opacity: 0.6; stroke-width: 0; opacity: 1;"/><path class="sankey-link" d="M383.70000000000005,376.70151187904946C564.3000000000001,376.70151187904946 564.3000000000001,406.9263498920085 744.9000000000001,406.9263498920085L744.9000000000001,449.88531317494585C564.3000000000001,449.88531317494585 564.3000000000001,419.6604751619868 383.70000000000005,419.6604751619868Z" style="stroke: rgb(68, 68, 68); stroke-opacity: 1; fill: rgb(171, 99, 250); fill-opacity: 0.6; stroke-width: 0; opacity: 1;"/><path class="sankey-link" d="M383.70000000000005,419.6604751619868C564.3000000000001,419.6604751619868 564.3000000000001,629.9144708423328 744.9000000000001,629.9144708423328L744.9000000000001,657.7114470842334C564.3000000000001,657.7114470842334 564.3000000000001,447.4574514038875 383.70000000000005,447.4574514038875Z" style="stroke: rgb(68, 68, 68); stroke-opacity: 1; fill: rgb(171, 99, 250); fill-opacity: 0.6; stroke-width: 0; opacity: 1;"/><path class="sankey-link" d="M383.70000000000005,457.13196544276457C564.3000000000001,457.13196544276457 564.3000000000001,111.09265658747304 744.9000000000001,111.09265658747304L744.9000000000001,142.68012958963286C564.3000000000001,142.68012958963286 564.3000000000001,488.71943844492444 383.70000000000005,488.71943844492444Z" style="stroke: rgb(68, 68, 68); stroke-opacity: 1; fill: rgb(99, 110, 250); fill-opacity: 0.6; stroke-width: 0; opacity: 1;"/><path class="sankey-link" d="M383.70000000000005,488.7194384449244C564.3000000000001,488.7194384449244 564.3000000000001,194.85680345572348 744.9000000000001,194.85680345572348L744.9000000000001,217.59978401727858C564.3000000000001,217.59978401727858 564.3000000000001,511.4624190064795 383.70000000000005,511.4624190064795Z" style="stroke: rgb(68, 68, 68); stroke-opacity: 1; fill: rgb(99, 110, 250); fill-opacity: 0.6; stroke-width: 0; opacity: 1;"/><path class="sankey-link" d="M383.70000000000005,511.46241900647954C564.3000000000001,511.46241900647954 564.3000000000001,251.73174946004312 744.9000000000001,251.73174946004312L744.9000000000001,268.1572354211662C564.3000000000001,268.1572354211662 564.3000000000001,527.8879049676026 383.70000000000005,527.8879049676026Z" style="stroke: rgb(68, 68, 68); stroke-opacity: 1; fill: rgb(99, 110, 250); fill-opacity: 0.6; stroke-width: 0; opacity: 1;"/><path class="sankey-link" d="M383.70000000000005,527.8879049676026C564.3000000000001,527.8879049676026 564.3000000000001,449.88531317494585 744.9000000000001,449.88531317494585L744.9000000000001,489.053779697624C564.3000000000001,489.053779697624 564.3000000000001,567.0563714902809 383.70000000000005,567.0563714902809Z" style="stroke: rgb(68, 68, 68); stroke-opacity: 1; fill: rgb(99, 110, 250); fill-opacity: 0.6; stroke-width: 0; opacity: 1;"/><path class="sankey-link" d="M383.70000000000005,567.0563714902808C564.3000000000001,567.0563714902808 564.3000000000001,657.7114470842334 744.9000000000001,657.7114470842334L744.9000000000001,682.9814254859614C564.3000000000001,682.9814254859614 564.3000000000001,592.3263498920087 383.70000000000005,592.3263498920087Z" style="stroke: rgb(68, 68, 68); stroke-opacity: 1; fill: rgb(99, 110, 250); fill-opacity: 0.6; stroke-width: 0; opacity: 1;"/><path class="sankey-link" d="M383.70000000000005,603.163282937365C564.3000000000001,603.163282937365 564.3000000000001,142.68012958963286 744.9000000000001,142.68012958963286L744.9000000000001,152.788120950324C564.3000000000001,152.788120950324 564.3000000000001,613.2712742980561 383.70000000000005,613.2712742980561Z" style="stroke: rgb(68, 68, 68); stroke-opacity: 1; fill: rgb(255, 151, 255); fill-opacity: 0.6; stroke-width: 0; opacity: 1;"/><path class="sankey-link" d="M383.70000000000005,613.2712742980561C564.3000000000001,613.2712742980561 564.3000000000001,217.59978401727855 744.9000000000001,217.59978401727855L744.9000000000001,221.39028077753775C564.3000000000001,221.39028077753775 564.3000000000001,617.0617710583153 383.70000000000005,617.0617710583153Z" style="stroke: rgb(68, 68, 68); stroke-opacity: 1; fill: rgb(255, 151, 255); fill-opacity: 0.6; stroke-width: 0; opacity: 1;"/><path class="sankey-link" d="M383.70000000000005,617.0617710583153C564.3000000000001,617.0617710583153 564.3000000000001,268.15723542116626 744.9000000000001,268.15723542116626L744.9000000000001,274.4747300215982C564.3000000000001,274.4747300215982 564.3000000000001,623.3792656587473 383.70000000000005,623.3792656587473Z" style="stroke: rgb(68, 68, 68); stroke-opacity: 1; fill: rgb(255, 151, 255); fill-opacity: 0.6; stroke-width: 0; opacity: 1;"/><path class="sankey-link" d="M383.70000000000005,623.3792656587473C564.3000000000001,623.3792656587473 564.3000000000001,489.053779697624 744.9000000000001,489.053779697624L744.9000000000001,504.2157667386607C564.3000000000001,504.2157667386607 564.3000000000001,638.5412526997841 383.70000000000005,638.5412526997841Z" style="stroke: rgb(68, 68, 68); stroke-opacity: 1; fill: rgb(255, 151, 255); fill-opacity: 0.6; stroke-width: 0; opacity: 1;"/><path class="sankey-link" d="M383.70000000000005,638.541252699784C564.3000000000001,638.541252699784 564.3000000000001,682.9814254859613 744.9000000000001,682.9814254859613L744.9000000000001,690.5624190064797C564.3000000000001,690.5624190064797 564.3000000000001,646.1222462203024 383.70000000000005,646.1222462203024Z" style="stroke: rgb(68, 68, 68); stroke-opacity: 1; fill: rgb(255, 151, 255); fill-opacity: 0.6; stroke-width: 0; opacity: 1;"/><path class="sankey-link" d="M383.70000000000005,659.1576673866091C564.3000000000001,659.1576673866091 564.3000000000001,152.78812095032401 744.9000000000001,152.78812095032401L744.9000000000001,155.3151187904968C564.3000000000001,155.3151187904968 564.3000000000001,661.6846652267818 383.70000000000005,661.6846652267818Z" style="stroke: rgb(68, 68, 68); stroke-opacity: 1; fill: rgb(182, 232, 128); fill-opacity: 0.6; stroke-width: 0; opacity: 1;"/><path class="sankey-link" d="M383.70000000000005,661.6846652267819C564.3000000000001,661.6846652267819 564.3000000000001,274.47473002159825 744.9000000000001,274.47473002159825L744.9000000000001,277.0017278617711C564.3000000000001,277.0017278617711 564.3000000000001,664.2116630669547 383.70000000000005,664.2116630669547Z" style="stroke: rgb(68, 68, 68); stroke-opacity: 1; fill: rgb(182, 232, 128); fill-opacity: 0.6; stroke-width: 0; opacity: 1;"/><path class="sankey-link" d="M383.70000000000005,664.2116630669548C564.3000000000001,664.2116630669548 564.3000000000001,504.2157667386607 744.9000000000001,504.2157667386607L744.9000000000001,515.5872570194382C564.3000000000001,515.5872570194382 564.3000000000001,675.5831533477324 383.70000000000005,675.5831533477324Z" style="stroke: rgb(68, 68, 68); stroke-opacity: 1; fill: rgb(182, 232, 128); fill-opacity: 0.6; stroke-width: 0; opacity: 1;"/><path class="sankey-link" d="M383.70000000000005,675.5831533477323C564.3000000000001,675.5831533477323 564.3000000000001,690.5624190064797 744.9000000000001,690.5624190064797L744.9000000000001,699.4069114470843C564.3000000000001,699.4069114470843 564.3000000000001,684.4276457883369 383.70000000000005,684.4276457883369Z" style="stroke: rgb(68, 68, 68); stroke-opacity: 1; fill: rgb(182, 232, 128); fill-opacity: 0.6; stroke-width: 0; opacity: 1;"/><path class="sankey-link" d="M383.70000000000005,698.1706263498919C564.3000000000001,698.1706263498919 564.3000000000001,155.3151187904968 744.9000000000001,155.3151187904968L744.9000000000001,157.84211663066958C564.3000000000001,157.84211663066958 564.3000000000001,700.6976241900646 383.70000000000005,700.6976241900646Z" style="stroke: rgb(68, 68, 68); stroke-opacity: 1; fill: rgb(255, 102, 146); fill-opacity: 0.6; stroke-width: 0; opacity: 1;"/><path class="sankey-link" d="M383.70000000000005,700.6976241900647C564.3000000000001,700.6976241900647 564.3000000000001,515.5872570194382 744.9000000000001,515.5872570194382L744.9000000000001,520.6412526997839C564.3000000000001,520.6412526997839 564.3000000000001,705.7516198704104 383.70000000000005,705.7516198704104Z" style="stroke: rgb(68, 68, 68); stroke-opacity: 1; fill: rgb(255, 102, 146); fill-opacity: 0.6; stroke-width: 0; opacity: 1;"/></g><g class="sankey-node-set" style="cursor: ns-resize;"><g class="sankey-node" transform="translate(744.900,20.121)" style="opacity: 1;"><rect class="node-rect" width="15" height="137.7213822894168" style="stroke-width: 0.5; stroke: rgb(0, 0, 0); stroke-opacity: 1; fill: rgb(128, 128, 128); fill-opacity: 1;"/><text class="node-label" data-notex="1" x="0" y="0" text-anchor="end" transform="translate(-3.25,73.0606911447084)" style="cursor: default; font-family: 'Open Sans', verdana, arial, sans-serif; font-size: 12px; fill: rgb(42, 63, 95); fill-opacity: 1; white-space: pre; text-shadow: white 1px 1px 1px, white -1px -1px 1px, white 1px -1px 1px, white -1px 1px 1px;">dig</text></g><g class="sankey-node" transform="translate(744.900,179.695)" style="opacity: 1;"><rect class="node-rect" width="15" height="41.695464362851055" style="stroke-width: 0.5; stroke: rgb(0, 0, 0); stroke-opacity: 1; fill: rgb(128, 128, 128); fill-opacity: 1;"/><text class="node-label" data-notex="1" x="0" y="0" text-anchor="end" transform="translate(-3.25,25.047732181425527)" style="cursor: default; font-family: 'Open Sans', verdana, arial, sans-serif; font-size: 12px; fill: rgb(42, 63, 95); fill-opacity: 1; white-space: pre; text-shadow: white 1px 1px 1px, white -1px -1px 1px, white 1px -1px 1px, white -1px 1px 1px;">groom_front</text></g><g class="sankey-node" transform="translate(744.900,239.097)" style="opacity: 1;"><rect class="node-rect" width="15" height="37.904967602591796" style="stroke-width: 0.5; stroke: rgb(0, 0, 0); stroke-opacity: 1; fill: rgb(128, 128, 128); fill-opacity: 1;"/><text class="node-label" data-notex="1" x="0" y="0" text-anchor="end" transform="translate(-3.25,23.152483801295897)" style="cursor: default; font-family: 'Open Sans', verdana, arial, sans-serif; font-size: 12px; fill: rgb(42, 63, 95); fill-opacity: 1; white-space: pre; text-shadow: white 1px 1px 1px, white -1px -1px 1px, white 1px -1px 1px, white -1px 1px 1px;">still</text></g><g class="sankey-node" transform="translate(744.900,302.056)" style="opacity: 1;"><rect class="node-rect" width="15" height="218.58531317494635" style="stroke-width: 0.5; stroke: rgb(0, 0, 0); stroke-opacity: 1; fill: rgb(128, 128, 128); fill-opacity: 1;"/><text class="node-label" data-notex="1" x="0" y="0" text-anchor="end" transform="translate(-3.25,113.49265658747318)" style="cursor: default; font-family: 'Open Sans', verdana, arial, sans-serif; font-size: 12px; fill: rgb(42, 63, 95); fill-opacity: 1; white-space: pre; text-shadow: white 1px 1px 1px, white -1px -1px 1px, white 1px -1px 1px, white -1px 1px 1px;">walk</text></g><g class="sankey-node" transform="translate(744.900,550.314)" style="opacity: 1;"><rect class="node-rect" width="15" height="149.09287257019423" style="stroke-width: 0.5; stroke: rgb(0, 0, 0); stroke-opacity: 1; fill: rgb(128, 128, 128); fill-opacity: 1;"/><text class="node-label" data-notex="1" x="0" y="0" text-anchor="end" transform="translate(-3.25,78.74643628509712)" style="cursor: default; font-family: 'Open Sans', verdana, arial, sans-serif; font-size: 12px; fill: rgb(42, 63, 95); fill-opacity: 1; white-space: pre; text-shadow: white 1px 1px 1px, white -1px -1px 1px, white 1px -1px 1px, white -1px 1px 1px;">wallclimb</text></g><g class="sankey-node" transform="translate(368.700,13.819)" style="opacity: 1;"><rect class="node-rect" width="15" height="29.060475161987142" style="stroke-width: 0.5; stroke: rgb(0, 0, 0); stroke-opacity: 1; fill: rgb(25, 211, 243); fill-opacity: 1;"/><text class="node-label" data-notex="1" x="0" y="0" text-anchor="start" transform="translate(18.25,18.73023758099357)" style="cursor: default; font-family: 'Open Sans', verdana, arial, sans-serif; font-size: 12px; fill: rgb(42, 63, 95); fill-opacity: 1; white-space: pre; text-shadow: white 1px 1px 1px, white -1px -1px 1px, white 1px -1px 1px, white -1px 1px 1px;">BLA</text></g><g class="sankey-node" transform="translate(368.700,55.030)" style="opacity: 1;"><rect class="node-rect" width="15" height="83.39092872570183" style="stroke-width: 0.5; stroke: rgb(0, 0, 0); stroke-opacity: 1; fill: rgb(0, 204, 150); fill-opacity: 1;"/><text class="node-label" data-notex="1" x="0" y="0" text-anchor="start" transform="translate(18.25,45.895464362850916)" style="cursor: default; font-family: 'Open Sans', verdana, arial, sans-serif; font-size: 12px; fill: rgb(42, 63, 95); fill-opacity: 1; white-space: pre; text-shadow: white 1px 1px 1px, white -1px -1px 1px, white 1px -1px 1px, white -1px 1px 1px;">Cla</text></g><g class="sankey-node" transform="translate(368.700,149.435)" style="opacity: 1;"><rect class="node-rect" width="15" height="85.91792656587472" style="stroke-width: 0.5; stroke: rgb(0, 0, 0); stroke-opacity: 1; fill: rgb(239, 85, 59); fill-opacity: 1;"/><text class="node-label" data-notex="1" x="0" y="0" text-anchor="start" transform="translate(18.25,47.158963282937364)" style="cursor: default; font-family: 'Open Sans', verdana, arial, sans-serif; font-size: 12px; fill: rgb(42, 63, 95); fill-opacity: 1; white-space: pre; text-shadow: white 1px 1px 1px, white -1px -1px 1px, white 1px -1px 1px, white -1px 1px 1px;">LC</text></g><g class="sankey-node" transform="translate(368.700,247.327)" style="opacity: 1;"><rect class="node-rect" width="15" height="35.37796976241896" style="stroke-width: 0.5; stroke: rgb(0, 0, 0); stroke-opacity: 1; fill: rgb(254, 203, 82); fill-opacity: 1;"/><text class="node-label" data-notex="1" x="0" y="0" text-anchor="start" transform="translate(18.25,21.888984881209478)" style="cursor: default; font-family: 'Open Sans', verdana, arial, sans-serif; font-size: 12px; fill: rgb(42, 63, 95); fill-opacity: 1; white-space: pre; text-shadow: white 1px 1px 1px, white -1px -1px 1px, white 1px -1px 1px, white -1px 1px 1px;">LHyp</text></g><g class="sankey-node" transform="translate(368.700,295.614)" style="opacity: 1;"><rect class="node-rect" width="15" height="39.16846652267827" style="stroke-width: 0.5; stroke: rgb(0, 0, 0); stroke-opacity: 1; fill: rgb(255, 161, 90); fill-opacity: 1;"/><text class="node-label" data-notex="1" x="0" y="0" text-anchor="start" transform="translate(18.25,23.784233261339136)" style="cursor: default; font-family: 'Open Sans', verdana, arial, sans-serif; font-size: 12px; fill: rgb(42, 63, 95); fill-opacity: 1; white-space: pre; text-shadow: white 1px 1px 1px, white -1px -1px 1px, white 1px -1px 1px, white -1px 1px 1px;">NAc</text></g><g class="sankey-node" transform="translate(368.700,346.378)" style="opacity: 1;"><rect class="node-rect" width="15" height="101.07991360691199" style="stroke-width: 0.5; stroke: rgb(0, 0, 0); stroke-opacity: 1; fill: rgb(171, 99, 250); fill-opacity: 1;"/><text class="node-label" data-notex="1" x="0" y="0" text-anchor="start" transform="translate(18.25,54.739956803455996)" style="cursor: default; font-family: 'Open Sans', verdana, arial, sans-serif; font-size: 12px; fill: rgb(42, 63, 95); fill-opacity: 1; white-space: pre; text-shadow: white 1px 1px 1px, white -1px -1px 1px, white 1px -1px 1px, white -1px 1px 1px;">Str</text></g><g class="sankey-node" transform="translate(368.700,457.132)" style="opacity: 1;"><rect class="node-rect" width="15" height="135.19438444924413" style="stroke-width: 0.5; stroke: rgb(0, 0, 0); stroke-opacity: 1; fill: rgb(99, 110, 250); fill-opacity: 1;"/><text class="node-label" data-notex="1" x="0" y="0" text-anchor="start" transform="translate(18.25,71.79719222462207)" style="cursor: default; font-family: 'Open Sans', verdana, arial, sans-serif; font-size: 12px; fill: rgb(42, 63, 95); fill-opacity: 1; white-space: pre; text-shadow: white 1px 1px 1px, white -1px -1px 1px, white 1px -1px 1px, white -1px 1px 1px;">VTA</text></g><g class="sankey-node" transform="translate(368.700,603.163)" style="opacity: 1;"><rect class="node-rect" width="15" height="42.95896328293725" style="stroke-width: 0.5; stroke: rgb(0, 0, 0); stroke-opacity: 1; fill: rgb(255, 151, 255); fill-opacity: 1;"/><text class="node-label" data-notex="1" x="0" y="0" text-anchor="start" transform="translate(18.25,25.679481641468623)" style="cursor: default; font-family: 'Open Sans', verdana, arial, sans-serif; font-size: 12px; fill: rgb(42, 63, 95); fill-opacity: 1; white-space: pre; text-shadow: white 1px 1px 1px, white -1px -1px 1px, white 1px -1px 1px, white -1px 1px 1px;">cPFC</text></g><g class="sankey-node" transform="translate(368.700,659.158)" style="opacity: 1;"><rect class="node-rect" width="15" height="25.269978401727712" style="stroke-width: 0.5; stroke: rgb(0, 0, 0); stroke-opacity: 1; fill: rgb(182, 232, 128); fill-opacity: 1;"/><text class="node-label" data-notex="1" x="0" y="0" text-anchor="start" transform="translate(18.25,16.834989200863856)" style="cursor: default; font-family: 'Open Sans', verdana, arial, sans-serif; font-size: 12px; fill: rgb(42, 63, 95); fill-opacity: 1; white-space: pre; text-shadow: white 1px 1px 1px, white -1px -1px 1px, white 1px -1px 1px, white -1px 1px 1px;">dPAG</text></g><g class="sankey-node" transform="translate(368.700,698.171)" style="opacity: 1;"><rect class="node-rect" width="15" height="7.580993520518405" style="stroke-width: 0.5; stroke: rgb(0, 0, 0); stroke-opacity: 1; fill: rgb(255, 102, 146); fill-opacity: 1;"/><text class="node-label" data-notex="1" x="0" y="0" text-anchor="start" transform="translate(18.25,7.990496760259202)" style="cursor: default; font-family: 'Open Sans', verdana, arial, sans-serif; font-size: 12px; fill: rgb(42, 63, 95); fill-opacity: 1; white-space: pre; text-shadow: white 1px 1px 1px, white -1px -1px 1px, white 1px -1px 1px, white -1px 1px 1px;">lHb</text></g></g></g><defs id="topdefs-72076d"><g class="clips"/></defs><g class="layer-above"><g class="imagelayer"/><g class="shapelayer"/></g><g class="infolayer"><g class="g-gtitle"/><g class="first-render"/></g></svg>