<svg class="main-svg" xmlns="http://www.w3.org/2000/svg" xmlns:xlink="http://www.w3.org/1999/xlink" width="1300" height="900" viewBox="0 0 1300 900" style=""><rect x="0" y="0" width="1300" height="900" style="fill: rgb(255, 255, 255); fill-opacity: 1;"/><defs id="defs-51361e"><g class="clips"/><g class="gradients"/><g class="patterns"/></defs><g class="bglayer"/><g class="layer-below"><g class="imagelayer"/><g class="shapelayer"/></g><g class="cartesianlayer"/><g class="polarlayer"/><g class="smithlayer"/><g class="ternarylayer"/><g class="geolayer"/><g class="funnelarealayer"/><g class="pielayer"/><g class="iciclelayer"/><g class="treemaplayer"/><g class="sunburstlayer"/><g class="glimages"/><g class="sankey" transform="translate(80,100)matrix(1 0 0 1 0 0)" style="box-sizing: content-box; position: absolute; left: 0px; shape-rendering: geometricprecision; pointer-events: none;"><g class="sankey-links" style="fill: none;"><path class="sankey-link" d="M15,45.323974082074756C570,45.323974082074756 570,475.2051835853129 1125,475.2051835853129L1125,481.52267818574484C570,481.52267818574484 570,51.641468682506726 15,51.641468682506726Z" style="stroke: rgb(68, 68, 68); stroke-opacity: 1; fill: rgb(25, 211, 243); fill-opacity: 0.6; stroke-width: 0; opacity: 1;"/><path class="sankey-link" d="M15,22.580993520519684C570,22.580993520519684 570,80.05399568034528 1125,80.05399568034528L1125,95.215982721382C570,95.215982721382 570,37.7429805615564 15,37.7429805615564Z" style="stroke: rgb(68, 68, 68); stroke-opacity: 1; fill: rgb(25, 211, 243); fill-opacity: 0.6; stroke-width: 0; opacity: 1;"/><path class="sankey-link" d="M15,37.7429805615564C570,37.7429805615564 570,308.58531317494584 1125,308.58531317494584L1125,316.16630669546424C570,316.16630669546424 570,45.32397408207476 15,45.32397408207476Z" style="stroke: rgb(68, 68, 68); stroke-opacity: 1; fill: rgb(25, 211, 243); fill-opacity: 0.6; stroke-width: 0; opacity: 1;"/><path class="sankey-link" d="M15,296.27429805615674C570,296.27429805615674 570,513.1101511879048 1125,513.1101511879048L1125,533.326133909287C570,533.326133909287 570,316.490280777539 15,316.490280777539Z" style="stroke: rgb(68, 68, 68); stroke-opacity: 1; fill: rgb(0, 204, 150); fill-opacity: 0.6; stroke-width: 0; opacity: 1;"/><path class="sankey-link" d="M15,319.01727861771184C570,319.01727861771184 570,680.8315334773218 1125,680.8315334773218L1125,682.0950323974083C570,682.0950323974083 570,320.2807775377982 15,320.2807775377982Z" style="stroke: rgb(68, 68, 68); stroke-opacity: 1; fill: rgb(0, 204, 150); fill-opacity: 0.6; stroke-width: 0; opacity: 1;"/><path class="sankey-link" d="M15,316.49028077753906C570,316.49028077753906 570,631.7170626349889 1125,631.7170626349889L1125,634.2440604751616C570,634.2440604751616 570,319.0172786177119 15,319.0172786177119Z" style="stroke: rgb(68, 68, 68); stroke-opacity: 1; fill: rgb(0, 204, 150); fill-opacity: 0.6; stroke-width: 0; opacity: 1;"/><path class="sankey-link" d="M15,236.88984881209626C570,236.88984881209626 570,157.12742980561526 1125,157.12742980561526L1125,188.71490280777508C570,188.71490280777508 570,268.4773218142561 15,268.4773218142561Z" style="stroke: rgb(68, 68, 68); stroke-opacity: 1; fill: rgb(0, 204, 150); fill-opacity: 0.6; stroke-width: 0; opacity: 1;"/><path class="sankey-link" d="M15,268.4773218142561C570,268.4773218142561 570,354.071274298056 1125,354.071274298056L1125,381.86825053995665C570,381.86825053995665 570,296.27429805615674 15,296.27429805615674Z" style="stroke: rgb(68, 68, 68); stroke-opacity: 1; fill: rgb(0, 204, 150); fill-opacity: 0.6; stroke-width: 0; opacity: 1;"/><path class="sankey-link" d="M15,432.40820734341355C570,432.40820734341355 570,535.8531317494599 1125,535.8531317494599L1125,558.5961123110148C570,558.5961123110148 570,455.15118790496865 15,455.15118790496865Z" style="stroke: rgb(68, 68, 68); stroke-opacity: 1; fill: rgb(239, 85, 59); fill-opacity: 0.6; stroke-width: 0; opacity: 1;"/><path class="sankey-link" d="M15,457.67818574514143C570,457.67818574514143 570,682.0950323974082 1125,682.0950323974082L1125,685.8855291576674C570,685.8855291576674 570,461.46868250540064 15,461.46868250540064Z" style="stroke: rgb(68, 68, 68); stroke-opacity: 1; fill: rgb(239, 85, 59); fill-opacity: 0.6; stroke-width: 0; opacity: 1;"/><path class="sankey-link" d="M15,455.15118790496865C570,455.15118790496865 570,636.7710583153346 1125,636.7710583153346L1125,639.2980561555073C570,639.2980561555073 570,457.6781857451415 15,457.6781857451415Z" style="stroke: rgb(68, 68, 68); stroke-opacity: 1; fill: rgb(239, 85, 59); fill-opacity: 0.6; stroke-width: 0; opacity: 1;"/><path class="sankey-link" d="M15,375.55075593952586C570,375.55075593952586 570,200.08639308855265 1125,200.08639308855265L1125,227.88336933045332C570,227.88336933045332 570,403.3477321814265 15,403.3477321814265Z" style="stroke: rgb(68, 68, 68); stroke-opacity: 1; fill: rgb(239, 85, 59); fill-opacity: 0.6; stroke-width: 0; opacity: 1;"/><path class="sankey-link" d="M15,403.3477321814265C570,403.3477321814265 570,390.7127429805614 1125,390.7127429805614L1125,419.77321814254844C570,419.77321814254844 570,432.40820734341355 15,432.40820734341355Z" style="stroke: rgb(68, 68, 68); stroke-opacity: 1; fill: rgb(239, 85, 59); fill-opacity: 0.6; stroke-width: 0; opacity: 1;"/><path class="sankey-link" d="M15,701.0475161987042C570,701.0475161987042 570,600.291576673866 1125,600.291576673866L1125,610.3995680345571C570,610.3995680345571 570,711.1555075593953 15,711.1555075593953Z" style="stroke: rgb(68, 68, 68); stroke-opacity: 1; fill: rgb(254, 203, 82); fill-opacity: 0.6; stroke-width: 0; opacity: 1;"/><path class="sankey-link" d="M15,712.4190064794817C570,712.4190064794817 570,712.4190064794817 1125,712.4190064794817L1125,720.0000000000001C570,720.0000000000001 570,720.0000000000001 15,720.0000000000001Z" style="stroke: rgb(68, 68, 68); stroke-opacity: 1; fill: rgb(254, 203, 82); fill-opacity: 0.6; stroke-width: 0; opacity: 1;"/><path class="sankey-link" d="M15,711.1555075593953C570,711.1555075593953 570,662.0410367170624 1125,662.0410367170624L1125,663.3045356371489C570,663.3045356371489 570,712.4190064794818 15,712.4190064794818Z" style="stroke: rgb(68, 68, 68); stroke-opacity: 1; fill: rgb(254, 203, 82); fill-opacity: 0.6; stroke-width: 0; opacity: 1;"/><path class="sankey-link" d="M15,684.6220302375812C570,684.6220302375812 570,282.2138228941682 1125,282.2138228941682L1125,293.58531317494567C570,293.58531317494567 570,695.9935205183588 15,695.9935205183588Z" style="stroke: rgb(68, 68, 68); stroke-opacity: 1; fill: rgb(254, 203, 82); fill-opacity: 0.6; stroke-width: 0; opacity: 1;"/><path class="sankey-link" d="M15,695.9935205183587C570,695.9935205183587 570,452.6241900647947 1125,452.6241900647947L1125,457.67818574514024C570,457.67818574514024 570,701.0475161987043 15,701.0475161987043Z" style="stroke: rgb(68, 68, 68); stroke-opacity: 1; fill: rgb(254, 203, 82); fill-opacity: 0.6; stroke-width: 0; opacity: 1;"/><path class="sankey-link" d="M15,211.78185745140524C570,211.78185745140524 570,504.2656587473 1125,504.2656587473L1125,513.1101511879048C570,513.1101511879048 570,220.62634989201 15,220.62634989201Z" style="stroke: rgb(68, 68, 68); stroke-opacity: 1; fill: rgb(255, 161, 90); fill-opacity: 0.6; stroke-width: 0; opacity: 1;"/><path class="sankey-link" d="M15,220.62634989200998C570,220.62634989200998 570,630.4535637149025 1125,630.4535637149025L1125,631.717062634989C570,631.717062634989 570,221.8898488120964 15,221.8898488120964Z" style="stroke: rgb(68, 68, 68); stroke-opacity: 1; fill: rgb(255, 161, 90); fill-opacity: 0.6; stroke-width: 0; opacity: 1;"/><path class="sankey-link" d="M15,182.72138228941822C570,182.72138228941822 570,138.17494600431937 1125,138.17494600431937L1125,157.12742980561526C570,157.12742980561526 570,201.6738660907141 15,201.6738660907141Z" style="stroke: rgb(68, 68, 68); stroke-opacity: 1; fill: rgb(255, 161, 90); fill-opacity: 0.6; stroke-width: 0; opacity: 1;"/><path class="sankey-link" d="M15,201.6738660907141C570,201.6738660907141 570,343.96328293736485 1125,343.96328293736485L1125,354.071274298056C570,354.071274298056 570,211.78185745140524 15,211.78185745140524Z" style="stroke: rgb(68, 68, 68); stroke-opacity: 1; fill: rgb(255, 161, 90); fill-opacity: 0.6; stroke-width: 0; opacity: 1;"/><path class="sankey-link" d="M15,137.3974082073448C570,137.3974082073448 570,481.5226781857449 1125,481.5226781857449L1125,504.2656587473C570,504.2656587473 570,160.1403887688999 15,160.1403887688999Z" style="stroke: rgb(68, 68, 68); stroke-opacity: 1; fill: rgb(171, 99, 250); fill-opacity: 0.6; stroke-width: 0; opacity: 1;"/><path class="sankey-link" d="M15,165.19438444924543C570,165.19438444924543 570,678.304535637149 1125,678.304535637149L1125,680.8315334773217C570,680.8315334773217 570,167.72138228941822 15,167.72138228941822Z" style="stroke: rgb(68, 68, 68); stroke-opacity: 1; fill: rgb(171, 99, 250); fill-opacity: 0.6; stroke-width: 0; opacity: 1;"/><path class="sankey-link" d="M15,160.14038876889987C570,160.14038876889987 570,625.399568034557 1125,625.399568034557L1125,630.4535637149027C570,630.4535637149027 570,165.19438444924543 15,165.19438444924543Z" style="stroke: rgb(68, 68, 68); stroke-opacity: 1; fill: rgb(171, 99, 250); fill-opacity: 0.6; stroke-width: 0; opacity: 1;"/><path class="sankey-link" d="M15,66.6414686825068C570,66.6414686825068 570,95.215982721382 1125,95.215982721382L1125,138.17494600431937C570,138.17494600431937 570,109.60043196544416 15,109.60043196544416Z" style="stroke: rgb(68, 68, 68); stroke-opacity: 1; fill: rgb(171, 99, 250); fill-opacity: 0.6; stroke-width: 0; opacity: 1;"/><path class="sankey-link" d="M15,109.60043196544416C570,109.60043196544416 570,316.1663066954642 1125,316.1663066954642L1125,343.96328293736485C570,343.96328293736485 570,137.3974082073448 15,137.3974082073448Z" style="stroke: rgb(68, 68, 68); stroke-opacity: 1; fill: rgb(171, 99, 250); fill-opacity: 0.6; stroke-width: 0; opacity: 1;"/><path class="sankey-link" d="M15,540.9071274298066C570,540.9071274298066 570,558.596112311015 1125,558.596112311015L1125,590.1835853131748C570,590.1835853131748 570,572.4946004319664 15,572.4946004319664Z" style="stroke: rgb(68, 68, 68); stroke-opacity: 1; fill: rgb(99, 110, 250); fill-opacity: 0.6; stroke-width: 0; opacity: 1;"/><path class="sankey-link" d="M15,588.9200863930895C570,588.9200863930895 570,685.8855291576674 1125,685.8855291576674L1125,708.6285097192224C570,708.6285097192224 570,611.6630669546445 15,611.6630669546445Z" style="stroke: rgb(68, 68, 68); stroke-opacity: 1; fill: rgb(99, 110, 250); fill-opacity: 0.6; stroke-width: 0; opacity: 1;"/><path class="sankey-link" d="M15,572.4946004319664C570,572.4946004319664 570,639.2980561555074 1125,639.2980561555074L1125,655.7235421166305C570,655.7235421166305 570,588.9200863930895 15,588.9200863930895Z" style="stroke: rgb(68, 68, 68); stroke-opacity: 1; fill: rgb(99, 110, 250); fill-opacity: 0.6; stroke-width: 0; opacity: 1;"/><path class="sankey-link" d="M15,476.4686825054006C570,476.4686825054006 570,227.88336933045332 1125,227.88336933045332L1125,267.0518358531315C570,267.0518358531315 570,515.6371490280787 15,515.6371490280787Z" style="stroke: rgb(68, 68, 68); stroke-opacity: 1; fill: rgb(99, 110, 250); fill-opacity: 0.6; stroke-width: 0; opacity: 1;"/><path class="sankey-link" d="M15,515.6371490280787C570,515.6371490280787 570,419.77321814254844 1125,419.77321814254844L1125,445.04319654427627C570,445.04319654427627 570,540.9071274298067 15,540.9071274298067Z" style="stroke: rgb(68, 68, 68); stroke-opacity: 1; fill: rgb(99, 110, 250); fill-opacity: 0.6; stroke-width: 0; opacity: 1;"/><path class="sankey-link" d="M15,649.406047516199C570,649.406047516199 570,590.1835853131748 1125,590.1835853131748L1125,600.291576673866C570,600.291576673866 570,659.5140388768901 15,659.5140388768901Z" style="stroke: rgb(68, 68, 68); stroke-opacity: 1; fill: rgb(255, 151, 255); fill-opacity: 0.6; stroke-width: 0; opacity: 1;"/><path class="sankey-link" d="M15,665.8315334773221C570,665.8315334773221 570,708.6285097192225 1125,708.6285097192225L1125,712.4190064794817C570,712.4190064794817 570,669.6220302375813 15,669.6220302375813Z" style="stroke: rgb(68, 68, 68); stroke-opacity: 1; fill: rgb(255, 151, 255); fill-opacity: 0.6; stroke-width: 0; opacity: 1;"/><path class="sankey-link" d="M15,659.5140388768901C570,659.5140388768901 570,655.7235421166305 1125,655.7235421166305L1125,662.0410367170624C570,662.0410367170624 570,665.8315334773221 15,665.8315334773221Z" style="stroke: rgb(68, 68, 68); stroke-opacity: 1; fill: rgb(255, 151, 255); fill-opacity: 0.6; stroke-width: 0; opacity: 1;"/><path class="sankey-link" d="M15,626.6630669546439C570,626.6630669546439 570,267.0518358531315 1125,267.0518358531315L1125,282.2138228941682C570,282.2138228941682 570,641.8250539956807 15,641.8250539956807Z" style="stroke: rgb(68, 68, 68); stroke-opacity: 1; fill: rgb(255, 151, 255); fill-opacity: 0.6; stroke-width: 0; opacity: 1;"/><path class="sankey-link" d="M15,641.8250539956806C570,641.8250539956806 570,445.0431965442763 1125,445.0431965442763L1125,452.62419006479473C570,452.62419006479473 570,649.406047516199 15,649.406047516199Z" style="stroke: rgb(68, 68, 68); stroke-opacity: 1; fill: rgb(255, 151, 255); fill-opacity: 0.6; stroke-width: 0; opacity: 1;"/><path class="sankey-link" d="M15,355.49676025918035C570,355.49676025918035 570,533.326133909287 1125,533.326133909287L1125,535.8531317494597C570,535.8531317494597 570,358.0237580993532 15,358.0237580993532Z" style="stroke: rgb(68, 68, 68); stroke-opacity: 1; fill: rgb(182, 232, 128); fill-opacity: 0.6; stroke-width: 0; opacity: 1;"/><path class="sankey-link" d="M15,358.02375809935313C570,358.02375809935313 570,634.2440604751617 1125,634.2440604751617L1125,636.7710583153345C570,636.7710583153345 570,360.55075593952597 15,360.55075593952597Z" style="stroke: rgb(68, 68, 68); stroke-opacity: 1; fill: rgb(182, 232, 128); fill-opacity: 0.6; stroke-width: 0; opacity: 1;"/><path class="sankey-link" d="M15,335.28077753779803C570,335.28077753779803 570,188.7149028077751 1125,188.7149028077751L1125,200.08639308855265C570,200.08639308855265 570,346.6522678185755 15,346.6522678185755Z" style="stroke: rgb(68, 68, 68); stroke-opacity: 1; fill: rgb(182, 232, 128); fill-opacity: 0.6; stroke-width: 0; opacity: 1;"/><path class="sankey-link" d="M15,346.6522678185756C570,346.6522678185756 570,381.86825053995665 1125,381.86825053995665L1125,390.7127429805614C570,390.7127429805614 570,355.49676025918035 15,355.49676025918035Z" style="stroke: rgb(68, 68, 68); stroke-opacity: 1; fill: rgb(182, 232, 128); fill-opacity: 0.6; stroke-width: 0; opacity: 1;"/><path class="sankey-link" d="M15,5.053995680346851C570,5.053995680346851 570,472.6781857451401 1125,472.6781857451401L1125,475.20518358531297C570,475.20518358531297 570,7.5809935205196375 15,7.5809935205196375Z" style="stroke: rgb(68, 68, 68); stroke-opacity: 1; fill: rgb(255, 102, 146); fill-opacity: 0.6; stroke-width: 0; opacity: 1;"/><path class="sankey-link" d="M15,1.2789769243681803e-12C570,1.2789769243681803e-12 570,74.99999999999972 1125,74.99999999999972L1125,80.05399568034528C570,80.05399568034528 570,5.053995680346851 15,5.053995680346851Z" style="stroke: rgb(68, 68, 68); stroke-opacity: 1; fill: rgb(255, 102, 146); fill-opacity: 0.6; stroke-width: 0; opacity: 1;"/></g><g class="sankey-node-set" style="cursor: move;"><g class="sankey-node" transform="translate(1125.000,472.678)" style="opacity: 1;"><rect class="node-rect" width="15" height="137.72138228941685" style="stroke-width: 0.5; stroke: rgb(0, 0, 0); stroke-opacity: 1; fill: rgb(128, 128, 128); fill-opacity: 1;"/><text class="node-label" data-notex="1" x="0" y="0" text-anchor="end" transform="translate(-3.25,73.06069114470843)" style="cursor: default; font-family: 'Open Sans', verdana, arial, sans-serif; font-size: 12px; fill: rgb(42, 63, 95); fill-opacity: 1; white-space: pre; text-shadow: white 1px 1px 1px, white -1px -1px 1px, white 1px -1px 1px, white -1px 1px 1px;">dig</text></g><g class="sankey-node" transform="translate(1125.000,75.000)" style="opacity: 1;"><rect class="node-rect" width="15" height="218.58531317494612" style="stroke-width: 0.5; stroke: rgb(0, 0, 0); stroke-opacity: 1; fill: rgb(128, 128, 128); fill-opacity: 1;"/><text class="node-label" data-notex="1" x="0" y="0" text-anchor="end" transform="translate(-3.25,113.49265658747306)" style="cursor: default; font-family: 'Open Sans', verdana, arial, sans-serif; font-size: 12px; fill: rgb(42, 63, 95); fill-opacity: 1; white-space: pre; text-shadow: white 1px 1px 1px, white -1px -1px 1px, white 1px -1px 1px, white -1px 1px 1px;">walk</text></g><g class="sankey-node" transform="translate(1125.000,308.585)" style="opacity: 1;"><rect class="node-rect" width="15" height="149.0928725701943" style="stroke-width: 0.5; stroke: rgb(0, 0, 0); stroke-opacity: 1; fill: rgb(128, 128, 128); fill-opacity: 1;"/><text class="node-label" data-notex="1" x="0" y="0" text-anchor="end" transform="translate(-3.25,78.74643628509715)" style="cursor: default; font-family: 'Open Sans', verdana, arial, sans-serif; font-size: 12px; fill: rgb(42, 63, 95); fill-opacity: 1; white-space: pre; text-shadow: white 1px 1px 1px, white -1px -1px 1px, white 1px -1px 1px, white -1px 1px 1px;">wallclimb</text></g><g class="sankey-node" transform="translate(1125.000,678.305)" style="opacity: 1;"><rect class="node-rect" width="15" height="41.695464362851" style="stroke-width: 0.5; stroke: rgb(0, 0, 0); stroke-opacity: 1; fill: rgb(128, 128, 128); fill-opacity: 1;"/><text class="node-label" data-notex="1" x="0" y="0" text-anchor="end" transform="translate(-3.25,25.0477321814255)" style="cursor: default; font-family: 'Open Sans', verdana, arial, sans-serif; font-size: 12px; fill: rgb(42, 63, 95); fill-opacity: 1; white-space: pre; text-shadow: white 1px 1px 1px, white -1px -1px 1px, white 1px -1px 1px, white -1px 1px 1px;">groom_front</text></g><g class="sankey-node" transform="translate(1125.000,625.400)" style="opacity: 1;"><rect class="node-rect" width="15" height="37.90496760259202" style="stroke-width: 0.5; stroke: rgb(0, 0, 0); stroke-opacity: 1; fill: rgb(128, 128, 128); fill-opacity: 1;"/><text class="node-label" data-notex="1" x="0" y="0" text-anchor="end" transform="translate(-3.25,23.15248380129601)" style="cursor: default; font-family: 'Open Sans', verdana, arial, sans-serif; font-size: 12px; fill: rgb(42, 63, 95); fill-opacity: 1; white-space: pre; text-shadow: white 1px 1px 1px, white -1px -1px 1px, white 1px -1px 1px, white -1px 1px 1px;">still</text></g><g class="sankey-node" transform="translate(0.000,476.469)" style="opacity: 1;"><rect class="node-rect" width="15" height="135.19438444924333" style="stroke-width: 0.5; stroke: rgb(0, 0, 0); stroke-opacity: 1; fill: rgb(99, 110, 250); fill-opacity: 1;"/><text class="node-label" data-notex="1" x="0" y="0" text-anchor="start" transform="translate(18.25,71.79719222462167)" style="cursor: default; font-family: 'Open Sans', verdana, arial, sans-serif; font-size: 12px; fill: rgb(42, 63, 95); fill-opacity: 1; white-space: pre; text-shadow: white 1px 1px 1px, white -1px -1px 1px, white 1px -1px 1px, white -1px 1px 1px;">VTA</text></g><g class="sankey-node" transform="translate(0.000,375.551)" style="opacity: 1;"><rect class="node-rect" width="15" height="85.91792656587472" style="stroke-width: 0.5; stroke: rgb(0, 0, 0); stroke-opacity: 1; fill: rgb(239, 85, 59); fill-opacity: 1;"/><text class="node-label" data-notex="1" x="0" y="0" text-anchor="start" transform="translate(18.25,47.158963282937364)" style="cursor: default; font-family: 'Open Sans', verdana, arial, sans-serif; font-size: 12px; fill: rgb(42, 63, 95); fill-opacity: 1; white-space: pre; text-shadow: white 1px 1px 1px, white -1px -1px 1px, white 1px -1px 1px, white -1px 1px 1px;">LC</text></g><g class="sankey-node" transform="translate(0.000,236.890)" style="opacity: 1;"><rect class="node-rect" width="15" height="83.39092872570177" style="stroke-width: 0.5; stroke: rgb(0, 0, 0); stroke-opacity: 1; fill: rgb(0, 204, 150); fill-opacity: 1;"/><text class="node-label" data-notex="1" x="0" y="0" text-anchor="start" transform="translate(18.25,45.89546436285089)" style="cursor: default; font-family: 'Open Sans', verdana, arial, sans-serif; font-size: 12px; fill: rgb(42, 63, 95); fill-opacity: 1; white-space: pre; text-shadow: white 1px 1px 1px, white -1px -1px 1px, white 1px -1px 1px, white -1px 1px 1px;">Cla</text></g><g class="sankey-node" transform="translate(0.000,66.641)" style="opacity: 1;"><rect class="node-rect" width="15" height="101.07991360691142" style="stroke-width: 0.5; stroke: rgb(0, 0, 0); stroke-opacity: 1; fill: rgb(171, 99, 250); fill-opacity: 1;"/><text class="node-label" data-notex="1" x="0" y="0" text-anchor="start" transform="translate(18.25,54.73995680345571)" style="cursor: default; font-family: 'Open Sans', verdana, arial, sans-serif; font-size: 12px; fill: rgb(42, 63, 95); fill-opacity: 1; white-space: pre; text-shadow: white 1px 1px 1px, white -1px -1px 1px, white 1px -1px 1px, white -1px 1px 1px;">Str</text></g><g class="sankey-node" transform="translate(0.000,182.721)" style="opacity: 1;"><rect class="node-rect" width="15" height="39.168466522678045" style="stroke-width: 0.5; stroke: rgb(0, 0, 0); stroke-opacity: 1; fill: rgb(255, 161, 90); fill-opacity: 1;"/><text class="node-label" data-notex="1" x="0" y="0" text-anchor="start" transform="translate(18.25,23.784233261339022)" style="cursor: default; font-family: 'Open Sans', verdana, arial, sans-serif; font-size: 12px; fill: rgb(42, 63, 95); fill-opacity: 1; white-space: pre; text-shadow: white 1px 1px 1px, white -1px -1px 1px, white 1px -1px 1px, white -1px 1px 1px;">NAc</text></g><g class="sankey-node" transform="translate(0.000,22.581)" style="opacity: 1;"><rect class="node-rect" width="15" height="29.060475161987114" style="stroke-width: 0.5; stroke: rgb(0, 0, 0); stroke-opacity: 1; fill: rgb(25, 211, 243); fill-opacity: 1;"/><text class="node-label" data-notex="1" x="0" y="0" text-anchor="start" transform="translate(18.25,18.730237580993556)" style="cursor: default; font-family: 'Open Sans', verdana, arial, sans-serif; font-size: 12px; fill: rgb(42, 63, 95); fill-opacity: 1; white-space: pre; text-shadow: white 1px 1px 1px, white -1px -1px 1px, white 1px -1px 1px, white -1px 1px 1px;">BLA</text></g><g class="sankey-node" transform="translate(0.000,0.000)" style="opacity: 1;"><rect class="node-rect" width="15" height="7.580993520518405" style="stroke-width: 0.5; stroke: rgb(0, 0, 0); stroke-opacity: 1; fill: rgb(255, 102, 146); fill-opacity: 1;"/><text class="node-label" data-notex="1" x="0" y="0" text-anchor="start" transform="translate(18.25,7.990496760259202)" style="cursor: default; font-family: 'Open Sans', verdana, arial, sans-serif; font-size: 12px; fill: rgb(42, 63, 95); fill-opacity: 1; white-space: pre; text-shadow: white 1px 1px 1px, white -1px -1px 1px, white 1px -1px 1px, white -1px 1px 1px;">lHb</text></g><g class="sankey-node" transform="translate(0.000,335.281)" style="opacity: 1;"><rect class="node-rect" width="15" height="25.269978401727826" style="stroke-width: 0.5; stroke: rgb(0, 0, 0); stroke-opacity: 1; fill: rgb(182, 232, 128); fill-opacity: 1;"/><text class="node-label" data-notex="1" x="0" y="0" text-anchor="start" transform="translate(18.25,16.834989200863912)" style="cursor: default; font-family: 'Open Sans', verdana, arial, sans-serif; font-size: 12px; fill: rgb(42, 63, 95); fill-opacity: 1; white-space: pre; text-shadow: white 1px 1px 1px, white -1px -1px 1px, white 1px -1px 1px, white -1px 1px 1px;">dPAG</text></g><g class="sankey-node" transform="translate(0.000,626.663)" style="opacity: 1;"><rect class="node-rect" width="15" height="42.95896328293725" style="stroke-width: 0.5; stroke: rgb(0, 0, 0); stroke-opacity: 1; fill: rgb(255, 151, 255); fill-opacity: 1;"/><text class="node-label" data-notex="1" x="0" y="0" text-anchor="start" transform="translate(18.25,25.679481641468623)" style="cursor: default; font-family: 'Open Sans', verdana, arial, sans-serif; font-size: 12px; fill: rgb(42, 63, 95); fill-opacity: 1; white-space: pre; text-shadow: white 1px 1px 1px, white -1px -1px 1px, white 1px -1px 1px, white -1px 1px 1px;">cPFC</text></g><g class="sankey-node" transform="translate(0.000,684.622)" style="opacity: 1;"><rect class="node-rect" width="15" height="35.37796976241884" style="stroke-width: 0.5; stroke: rgb(0, 0, 0); stroke-opacity: 1; fill: rgb(254, 203, 82); fill-opacity: 1;"/><text class="node-label" data-notex="1" x="0" y="0" text-anchor="start" transform="translate(18.25,21.88898488120942)" style="cursor: default; font-family: 'Open Sans', verdana, arial, sans-serif; font-size: 12px; fill: rgb(42, 63, 95); fill-opacity: 1; white-space: pre; text-shadow: white 1px 1px 1px, white -1px -1px 1px, white 1px -1px 1px, white -1px 1px 1px;">LHyp</text></g></g></g><defs id="topdefs-51361e"><g class="clips"/></defs><g class="layer-above"><g class="imagelayer"/><g class="shapelayer"/></g><g class="infolayer"><g class="g-gtitle"/><g class="first-render"/></g></svg>