<svg class="main-svg" xmlns="http://www.w3.org/2000/svg" xmlns:xlink="http://www.w3.org/1999/xlink" width="1300" height="900" viewBox="0 0 1300 900" style=""><rect x="0" y="0" width="1300" height="900" style="fill: rgb(255, 255, 255); fill-opacity: 1;"/><defs id="defs-dab585"><g class="clips"/><g class="gradients"/><g class="patterns"/></defs><g class="bglayer"/><g class="layer-below"><g class="imagelayer"/><g class="shapelayer"/></g><g class="cartesianlayer"/><g class="polarlayer"/><g class="smithlayer"/><g class="ternarylayer"/><g class="geolayer"/><g class="funnelarealayer"/><g class="pielayer"/><g class="iciclelayer"/><g class="treemaplayer"/><g class="sunburstlayer"/><g class="glimages"/><g class="sankey" transform="translate(80,100)matrix(1 0 0 1 0 0)" style="box-sizing: content-box; position: absolute; left: 0px; shape-rendering: geometricprecision; pointer-events: none;"><g class="sankey-links" style="fill: none;"><path class="sankey-link" d="M383.70000000000005,13.614337568058083C564.3000000000001,13.614337568058083 564.3000000000001,19.074773139745915 744.9000000000001,19.074773139745915L744.9000000000001,26.506715063520872C564.3000000000001,26.506715063520872 564.3000000000001,21.04627949183304 383.70000000000005,21.04627949183304Z" style="stroke: rgb(68, 68, 68); stroke-opacity: 1; fill: rgb(99, 110, 250); fill-opacity: 0.6; stroke-width: 0; opacity: 1;"/><path class="sankey-link" d="M383.70000000000005,21.04627949183304C564.3000000000001,21.04627949183304 564.3000000000001,306.5749546279491 744.9000000000001,306.5749546279491L744.9000000000001,326.7473684210526C564.3000000000001,326.7473684210526 564.3000000000001,41.21869328493649 383.70000000000005,41.21869328493649Z" style="stroke: rgb(68, 68, 68); stroke-opacity: 1; fill: rgb(99, 110, 250); fill-opacity: 0.6; stroke-width: 0; opacity: 1;"/><path class="sankey-link" d="M383.70000000000005,41.21869328493649C564.3000000000001,41.21869328493649 564.3000000000001,544.1520871143377 744.9000000000001,544.1520871143377L744.9000000000001,555.8308529945555C564.3000000000001,555.8308529945555 564.3000000000001,52.897459165154274 383.70000000000005,52.897459165154274Z" style="stroke: rgb(68, 68, 68); stroke-opacity: 1; fill: rgb(99, 110, 250); fill-opacity: 0.6; stroke-width: 0; opacity: 1;"/><path class="sankey-link" d="M383.70000000000005,64.7068965517239C564.3000000000001,64.7068965517239 564.3000000000001,26.506715063520872 744.9000000000001,26.506715063520872L744.9000000000001,44.555716878402905C564.3000000000001,44.555716878402905 564.3000000000001,82.75589836660595 383.70000000000005,82.75589836660595Z" style="stroke: rgb(68, 68, 68); stroke-opacity: 1; fill: rgb(25, 211, 243); fill-opacity: 0.6; stroke-width: 0; opacity: 1;"/><path class="sankey-link" d="M383.70000000000005,82.75589836660595C564.3000000000001,82.75589836660595 564.3000000000001,153.73339382940128 744.9000000000001,153.73339382940128L744.9000000000001,162.22704174228693C564.3000000000001,162.22704174228693 564.3000000000001,91.2495462794916 383.70000000000005,91.2495462794916Z" style="stroke: rgb(68, 68, 68); stroke-opacity: 1; fill: rgb(25, 211, 243); fill-opacity: 0.6; stroke-width: 0; opacity: 1;"/><path class="sankey-link" d="M383.70000000000005,91.2495462794916C564.3000000000001,91.2495462794916 564.3000000000001,245.9335753176044 744.9000000000001,245.9335753176044L744.9000000000001,249.11869328493654C564.3000000000001,249.11869328493654 564.3000000000001,94.43466424682373 383.70000000000005,94.43466424682373Z" style="stroke: rgb(68, 68, 68); stroke-opacity: 1; fill: rgb(25, 211, 243); fill-opacity: 0.6; stroke-width: 0; opacity: 1;"/><path class="sankey-link" d="M383.70000000000005,94.43466424682371C564.3000000000001,94.43466424682371 564.3000000000001,326.74736842105256 744.9000000000001,326.74736842105256L744.9000000000001,357.5368421052631C564.3000000000001,357.5368421052631 564.3000000000001,125.22413793103424 383.70000000000005,125.22413793103424Z" style="stroke: rgb(68, 68, 68); stroke-opacity: 1; fill: rgb(25, 211, 243); fill-opacity: 0.6; stroke-width: 0; opacity: 1;"/><path class="sankey-link" d="M383.70000000000005,125.22413793103425C564.3000000000001,125.22413793103425 564.3000000000001,555.8308529945556 744.9000000000001,555.8308529945556L744.9000000000001,585.5586206896554C564.3000000000001,585.5586206896554 564.3000000000001,154.95190562613408 383.70000000000005,154.95190562613408Z" style="stroke: rgb(68, 68, 68); stroke-opacity: 1; fill: rgb(25, 211, 243); fill-opacity: 0.6; stroke-width: 0; opacity: 1;"/><path class="sankey-link" d="M383.70000000000005,166.29419237749548C564.3000000000001,166.29419237749548 564.3000000000001,44.555716878402905 744.9000000000001,44.555716878402905L744.9000000000001,57.29618874773141C564.3000000000001,57.29618874773141 564.3000000000001,179.03466424682395 383.70000000000005,179.03466424682395Z" style="stroke: rgb(68, 68, 68); stroke-opacity: 1; fill: rgb(239, 85, 59); fill-opacity: 0.6; stroke-width: 0; opacity: 1;"/><path class="sankey-link" d="M383.70000000000005,179.03466424682398C564.3000000000001,179.03466424682398 564.3000000000001,162.22704174228693 744.9000000000001,162.22704174228693L744.9000000000001,167.53557168784045C564.3000000000001,167.53557168784045 564.3000000000001,184.3431941923775 383.70000000000005,184.3431941923775Z" style="stroke: rgb(68, 68, 68); stroke-opacity: 1; fill: rgb(239, 85, 59); fill-opacity: 0.6; stroke-width: 0; opacity: 1;"/><path class="sankey-link" d="M383.70000000000005,184.34319419237752C564.3000000000001,184.34319419237752 564.3000000000001,249.11869328493654 744.9000000000001,249.11869328493654L744.9000000000001,252.30381125226867C564.3000000000001,252.30381125226867 564.3000000000001,187.52831215970966 383.70000000000005,187.52831215970966Z" style="stroke: rgb(68, 68, 68); stroke-opacity: 1; fill: rgb(239, 85, 59); fill-opacity: 0.6; stroke-width: 0; opacity: 1;"/><path class="sankey-link" d="M383.70000000000005,187.52831215970966C564.3000000000001,187.52831215970966 564.3000000000001,357.5368421052631 744.9000000000001,357.5368421052631L744.9000000000001,383.01778584392C564.3000000000001,383.01778584392 564.3000000000001,213.00925589836666 383.70000000000005,213.00925589836666Z" style="stroke: rgb(68, 68, 68); stroke-opacity: 1; fill: rgb(239, 85, 59); fill-opacity: 0.6; stroke-width: 0; opacity: 1;"/><path class="sankey-link" d="M383.70000000000005,213.00925589836663C564.3000000000001,213.00925589836663 564.3000000000001,585.5586206896554 744.9000000000001,585.5586206896554L744.9000000000001,601.4842105263161C564.3000000000001,601.4842105263161 564.3000000000001,228.93484573502724 383.70000000000005,228.93484573502724Z" style="stroke: rgb(68, 68, 68); stroke-opacity: 1; fill: rgb(239, 85, 59); fill-opacity: 0.6; stroke-width: 0; opacity: 1;"/><path class="sankey-link" d="M383.70000000000005,241.3813067150636C564.3000000000001,241.3813067150636 564.3000000000001,57.2961887477314 744.9000000000001,57.2961887477314L744.9000000000001,60.48130671506352C564.3000000000001,60.48130671506352 564.3000000000001,244.56642468239573 383.70000000000005,244.56642468239573Z" style="stroke: rgb(68, 68, 68); stroke-opacity: 1; fill: rgb(254, 203, 82); fill-opacity: 0.6; stroke-width: 0; opacity: 1;"/><path class="sankey-link" d="M383.70000000000005,244.56642468239573C564.3000000000001,244.56642468239573 564.3000000000001,167.53557168784047 744.9000000000001,167.53557168784047L744.9000000000001,174.96751361161543C564.3000000000001,174.96751361161543 564.3000000000001,251.9983666061707 383.70000000000005,251.9983666061707Z" style="stroke: rgb(68, 68, 68); stroke-opacity: 1; fill: rgb(254, 203, 82); fill-opacity: 0.6; stroke-width: 0; opacity: 1;"/><path class="sankey-link" d="M383.70000000000005,251.9983666061707C564.3000000000001,251.9983666061707 564.3000000000001,252.30381125226867 744.9000000000001,252.30381125226867L744.9000000000001,254.4272232304901C564.3000000000001,254.4272232304901 564.3000000000001,254.12177858439213 383.70000000000005,254.12177858439213Z" style="stroke: rgb(68, 68, 68); stroke-opacity: 1; fill: rgb(254, 203, 82); fill-opacity: 0.6; stroke-width: 0; opacity: 1;"/><path class="sankey-link" d="M383.70000000000005,254.1217785843921C564.3000000000001,254.1217785843921 564.3000000000001,383.0177858439201 744.9000000000001,383.0177858439201L744.9000000000001,394.6965517241379C564.3000000000001,394.6965517241379 564.3000000000001,265.8005444646099 383.70000000000005,265.8005444646099Z" style="stroke: rgb(68, 68, 68); stroke-opacity: 1; fill: rgb(254, 203, 82); fill-opacity: 0.6; stroke-width: 0; opacity: 1;"/><path class="sankey-link" d="M383.70000000000005,265.8005444646099C564.3000000000001,265.8005444646099 564.3000000000001,601.484210526316 744.9000000000001,601.484210526316L744.9000000000001,612.1012704174232C564.3000000000001,612.1012704174232 564.3000000000001,276.41760435571695 383.70000000000005,276.41760435571695Z" style="stroke: rgb(68, 68, 68); stroke-opacity: 1; fill: rgb(254, 203, 82); fill-opacity: 0.6; stroke-width: 0; opacity: 1;"/><path class="sankey-link" d="M383.70000000000005,289.54355716878416C564.3000000000001,289.54355716878416 564.3000000000001,60.481306715063525 744.9000000000001,60.481306715063525L744.9000000000001,65.78983666061707C564.3000000000001,65.78983666061707 564.3000000000001,294.85208711433773 383.70000000000005,294.85208711433773Z" style="stroke: rgb(68, 68, 68); stroke-opacity: 1; fill: rgb(182, 232, 128); fill-opacity: 0.6; stroke-width: 0; opacity: 1;"/><path class="sankey-link" d="M383.70000000000005,294.8520871143377C564.3000000000001,294.8520871143377 564.3000000000001,174.96751361161543 744.9000000000001,174.96751361161543L744.9000000000001,178.15263157894756C564.3000000000001,178.15263157894756 564.3000000000001,298.03720508166975 383.70000000000005,298.03720508166975Z" style="stroke: rgb(68, 68, 68); stroke-opacity: 1; fill: rgb(182, 232, 128); fill-opacity: 0.6; stroke-width: 0; opacity: 1;"/><path class="sankey-link" d="M383.70000000000005,298.0372050816698C564.3000000000001,298.0372050816698 564.3000000000001,394.69655172413786 744.9000000000001,394.69655172413786L744.9000000000001,405.3136116152449C564.3000000000001,405.3136116152449 564.3000000000001,308.65426497277684 383.70000000000005,308.65426497277684Z" style="stroke: rgb(68, 68, 68); stroke-opacity: 1; fill: rgb(182, 232, 128); fill-opacity: 0.6; stroke-width: 0; opacity: 1;"/><path class="sankey-link" d="M383.70000000000005,308.6542649727769C564.3000000000001,308.6542649727769 564.3000000000001,612.101270417423 744.9000000000001,612.101270417423L744.9000000000001,621.6566243194194C564.3000000000001,621.6566243194194 564.3000000000001,318.20961887477324 383.70000000000005,318.20961887477324Z" style="stroke: rgb(68, 68, 68); stroke-opacity: 1; fill: rgb(182, 232, 128); fill-opacity: 0.6; stroke-width: 0; opacity: 1;"/><path class="sankey-link" d="M383.70000000000005,330.1039927404719C564.3000000000001,330.1039927404719 564.3000000000001,65.78983666061707 744.9000000000001,65.78983666061707L744.9000000000001,82.7771324863884C564.3000000000001,82.7771324863884 564.3000000000001,347.0912885662432 383.70000000000005,347.0912885662432Z" style="stroke: rgb(68, 68, 68); stroke-opacity: 1; fill: rgb(255, 161, 90); fill-opacity: 0.6; stroke-width: 0; opacity: 1;"/><path class="sankey-link" d="M383.70000000000005,347.0912885662432C564.3000000000001,347.0912885662432 564.3000000000001,178.15263157894756 744.9000000000001,178.15263157894756L744.9000000000001,196.2016333938296C564.3000000000001,196.2016333938296 564.3000000000001,365.14029038112517 383.70000000000005,365.14029038112517Z" style="stroke: rgb(68, 68, 68); stroke-opacity: 1; fill: rgb(255, 161, 90); fill-opacity: 0.6; stroke-width: 0; opacity: 1;"/><path class="sankey-link" d="M383.70000000000005,365.1402903811252C564.3000000000001,365.1402903811252 564.3000000000001,254.4272232304901 744.9000000000001,254.4272232304901L744.9000000000001,258.67404718693297C564.3000000000001,258.67404718693297 564.3000000000001,369.3871143375681 383.70000000000005,369.3871143375681Z" style="stroke: rgb(68, 68, 68); stroke-opacity: 1; fill: rgb(255, 161, 90); fill-opacity: 0.6; stroke-width: 0; opacity: 1;"/><path class="sankey-link" d="M383.70000000000005,369.38711433756805C564.3000000000001,369.38711433756805 564.3000000000001,405.313611615245 744.9000000000001,405.313611615245L744.9000000000001,439.2882032667876C564.3000000000001,439.2882032667876 564.3000000000001,403.36170598911065 383.70000000000005,403.36170598911065Z" style="stroke: rgb(68, 68, 68); stroke-opacity: 1; fill: rgb(255, 161, 90); fill-opacity: 0.6; stroke-width: 0; opacity: 1;"/><path class="sankey-link" d="M383.70000000000005,403.3617059891107C564.3000000000001,403.3617059891107 564.3000000000001,621.6566243194194 744.9000000000001,621.6566243194194L744.9000000000001,645.0141560798551C564.3000000000001,645.0141560798551 564.3000000000001,426.71923774954627 383.70000000000005,426.71923774954627Z" style="stroke: rgb(68, 68, 68); stroke-opacity: 1; fill: rgb(255, 161, 90); fill-opacity: 0.6; stroke-width: 0; opacity: 1;"/><path class="sankey-link" d="M383.70000000000005,436.38402903811266C564.3000000000001,436.38402903811266 564.3000000000001,82.7771324863884 744.9000000000001,82.7771324863884L744.9000000000001,112.50490018148822C564.3000000000001,112.50490018148822 564.3000000000001,466.1117967332125 383.70000000000005,466.1117967332125Z" style="stroke: rgb(68, 68, 68); stroke-opacity: 1; fill: rgb(255, 151, 255); fill-opacity: 0.6; stroke-width: 0; opacity: 1;"/><path class="sankey-link" d="M383.70000000000005,466.1117967332125C564.3000000000001,466.1117967332125 564.3000000000001,196.20163339382958 744.9000000000001,196.20163339382958L744.9000000000001,217.43575317604376C564.3000000000001,217.43575317604376 564.3000000000001,487.34591651542667 383.70000000000005,487.34591651542667Z" style="stroke: rgb(68, 68, 68); stroke-opacity: 1; fill: rgb(255, 151, 255); fill-opacity: 0.6; stroke-width: 0; opacity: 1;"/><path class="sankey-link" d="M383.70000000000005,487.34591651542667C564.3000000000001,487.34591651542667 564.3000000000001,258.6740471869329 744.9000000000001,258.6740471869329L744.9000000000001,277.7847549909257C564.3000000000001,277.7847549909257 564.3000000000001,506.45662431941946 383.70000000000005,506.45662431941946Z" style="stroke: rgb(68, 68, 68); stroke-opacity: 1; fill: rgb(255, 151, 255); fill-opacity: 0.6; stroke-width: 0; opacity: 1;"/><path class="sankey-link" d="M383.70000000000005,506.4566243194194C564.3000000000001,506.4566243194194 564.3000000000001,439.2882032667876 744.9000000000001,439.2882032667876L744.9000000000001,475.3862068965517C564.3000000000001,475.3862068965517 564.3000000000001,542.5546279491834 383.70000000000005,542.5546279491834Z" style="stroke: rgb(68, 68, 68); stroke-opacity: 1; fill: rgb(255, 151, 255); fill-opacity: 0.6; stroke-width: 0; opacity: 1;"/><path class="sankey-link" d="M383.70000000000005,542.5546279491834C564.3000000000001,542.5546279491834 564.3000000000001,645.014156079855 744.9000000000001,645.014156079855L744.9000000000001,678.9887477313976C564.3000000000001,678.9887477313976 564.3000000000001,576.529219600726 383.70000000000005,576.529219600726Z" style="stroke: rgb(68, 68, 68); stroke-opacity: 1; fill: rgb(255, 151, 255); fill-opacity: 0.6; stroke-width: 0; opacity: 1;"/><path class="sankey-link" d="M383.70000000000005,587.1283121597098C564.3000000000001,587.1283121597098 564.3000000000001,112.50490018148821 744.9000000000001,112.50490018148821L744.9000000000001,123.1219600725953C564.3000000000001,123.1219600725953 564.3000000000001,597.745372050817 383.70000000000005,597.745372050817Z" style="stroke: rgb(68, 68, 68); stroke-opacity: 1; fill: rgb(255, 102, 146); fill-opacity: 0.6; stroke-width: 0; opacity: 1;"/><path class="sankey-link" d="M383.70000000000005,597.7453720508169C564.3000000000001,597.7453720508169 564.3000000000001,217.43575317604373 744.9000000000001,217.43575317604373L744.9000000000001,222.74428312159725C564.3000000000001,222.74428312159725 564.3000000000001,603.0539019963704 383.70000000000005,603.0539019963704Z" style="stroke: rgb(68, 68, 68); stroke-opacity: 1; fill: rgb(255, 102, 146); fill-opacity: 0.6; stroke-width: 0; opacity: 1;"/><path class="sankey-link" d="M383.70000000000005,603.0539019963704C564.3000000000001,603.0539019963704 564.3000000000001,277.78475499092565 744.9000000000001,277.78475499092565L744.9000000000001,280.9698729582577C564.3000000000001,280.9698729582577 564.3000000000001,606.2390199637026 383.70000000000005,606.2390199637026Z" style="stroke: rgb(68, 68, 68); stroke-opacity: 1; fill: rgb(255, 102, 146); fill-opacity: 0.6; stroke-width: 0; opacity: 1;"/><path class="sankey-link" d="M383.70000000000005,606.2390199637025C564.3000000000001,606.2390199637025 564.3000000000001,475.3862068965517 744.9000000000001,475.3862068965517L744.9000000000001,495.5586206896552C564.3000000000001,495.5586206896552 564.3000000000001,626.411433756806 383.70000000000005,626.411433756806Z" style="stroke: rgb(68, 68, 68); stroke-opacity: 1; fill: rgb(255, 102, 146); fill-opacity: 0.6; stroke-width: 0; opacity: 1;"/><path class="sankey-link" d="M383.70000000000005,626.411433756806C564.3000000000001,626.411433756806 564.3000000000001,678.9887477313976 744.9000000000001,678.9887477313976L744.9000000000001,689.6058076225047C564.3000000000001,689.6058076225047 564.3000000000001,637.0284936479131 383.70000000000005,637.0284936479131Z" style="stroke: rgb(68, 68, 68); stroke-opacity: 1; fill: rgb(255, 102, 146); fill-opacity: 0.6; stroke-width: 0; opacity: 1;"/><path class="sankey-link" d="M383.70000000000005,649.7934664246825C564.3000000000001,649.7934664246825 564.3000000000001,123.12196007259529 744.9000000000001,123.12196007259529L744.9000000000001,129.49219600725954C564.3000000000001,129.49219600725954 564.3000000000001,656.1637023593466 383.70000000000005,656.1637023593466Z" style="stroke: rgb(68, 68, 68); stroke-opacity: 1; fill: rgb(0, 204, 150); fill-opacity: 0.6; stroke-width: 0; opacity: 1;"/><path class="sankey-link" d="M383.70000000000005,656.1637023593468C564.3000000000001,656.1637023593468 564.3000000000001,222.74428312159728 744.9000000000001,222.74428312159728L744.9000000000001,226.9911070780401C564.3000000000001,226.9911070780401 564.3000000000001,660.4105263157895 383.70000000000005,660.4105263157895Z" style="stroke: rgb(68, 68, 68); stroke-opacity: 1; fill: rgb(0, 204, 150); fill-opacity: 0.6; stroke-width: 0; opacity: 1;"/><path class="sankey-link" d="M383.70000000000005,660.4105263157896C564.3000000000001,660.4105263157896 564.3000000000001,280.9698729582578 744.9000000000001,280.9698729582578L744.9000000000001,282.0315789473685C564.3000000000001,282.0315789473685 564.3000000000001,661.4722323049004 383.70000000000005,661.4722323049004Z" style="stroke: rgb(68, 68, 68); stroke-opacity: 1; fill: rgb(0, 204, 150); fill-opacity: 0.6; stroke-width: 0; opacity: 1;"/><path class="sankey-link" d="M383.70000000000005,661.4722323049003C564.3000000000001,661.4722323049003 564.3000000000001,495.55862068965513 744.9000000000001,495.55862068965513L744.9000000000001,509.36079854809435C564.3000000000001,509.36079854809435 564.3000000000001,675.2744101633394 383.70000000000005,675.2744101633394Z" style="stroke: rgb(68, 68, 68); stroke-opacity: 1; fill: rgb(0, 204, 150); fill-opacity: 0.6; stroke-width: 0; opacity: 1;"/><path class="sankey-link" d="M383.70000000000005,675.2744101633396C564.3000000000001,675.2744101633396 564.3000000000001,689.6058076225046 744.9000000000001,689.6058076225046L744.9000000000001,695.9760435571687C564.3000000000001,695.9760435571687 564.3000000000001,681.6446460980037 383.70000000000005,681.6446460980037Z" style="stroke: rgb(68, 68, 68); stroke-opacity: 1; fill: rgb(0, 204, 150); fill-opacity: 0.6; stroke-width: 0; opacity: 1;"/><path class="sankey-link" d="M383.70000000000005,695.1952813067153C564.3000000000001,695.1952813067153 564.3000000000001,129.49219600725954 744.9000000000001,129.49219600725954L744.9000000000001,131.61560798548098C564.3000000000001,131.61560798548098 564.3000000000001,697.3186932849367 383.70000000000005,697.3186932849367Z" style="stroke: rgb(68, 68, 68); stroke-opacity: 1; fill: rgb(171, 99, 250); fill-opacity: 0.6; stroke-width: 0; opacity: 1;"/><path class="sankey-link" d="M383.70000000000005,697.3186932849367C564.3000000000001,697.3186932849367 564.3000000000001,509.3607985480943 744.9000000000001,509.3607985480943L744.9000000000001,514.6693284936479C564.3000000000001,514.6693284936479 564.3000000000001,702.6272232304902 383.70000000000005,702.6272232304902Z" style="stroke: rgb(68, 68, 68); stroke-opacity: 1; fill: rgb(171, 99, 250); fill-opacity: 0.6; stroke-width: 0; opacity: 1;"/><path class="sankey-link" d="M383.70000000000005,702.6272232304902C564.3000000000001,702.6272232304902 564.3000000000001,695.9760435571689 744.9000000000001,695.9760435571689L744.9000000000001,699.161161524501C564.3000000000001,699.161161524501 564.3000000000001,705.8123411978224 383.70000000000005,705.8123411978224Z" style="stroke: rgb(68, 68, 68); stroke-opacity: 1; fill: rgb(171, 99, 250); fill-opacity: 0.6; stroke-width: 0; opacity: 1;"/></g><g class="sankey-node-set" style="cursor: ns-resize;"><g class="sankey-node" transform="translate(744.900,19.075)" style="opacity: 1;"><rect class="node-rect" width="15" height="112.54083484573503" style="stroke-width: 0.5; stroke: rgb(0, 0, 0); stroke-opacity: 1; fill: rgb(128, 128, 128); fill-opacity: 1;"/><text class="node-label" data-notex="1" x="0" y="0" text-anchor="end" transform="translate(-3.25,60.47041742286751)" style="cursor: default; font-family: 'Open Sans', verdana, arial, sans-serif; font-size: 12px; fill: rgb(42, 63, 95); fill-opacity: 1; white-space: pre; text-shadow: white 1px 1px 1px, white -1px -1px 1px, white 1px -1px 1px, white -1px 1px 1px;">dig</text></g><g class="sankey-node" transform="translate(744.900,153.733)" style="opacity: 1;"><rect class="node-rect" width="15" height="73.25771324863854" style="stroke-width: 0.5; stroke: rgb(0, 0, 0); stroke-opacity: 1; fill: rgb(128, 128, 128); fill-opacity: 1;"/><text class="node-label" data-notex="1" x="0" y="0" text-anchor="end" transform="translate(-3.25,40.82885662431927)" style="cursor: default; font-family: 'Open Sans', verdana, arial, sans-serif; font-size: 12px; fill: rgb(42, 63, 95); fill-opacity: 1; white-space: pre; text-shadow: white 1px 1px 1px, white -1px -1px 1px, white 1px -1px 1px, white -1px 1px 1px;">groom_front</text></g><g class="sankey-node" transform="translate(744.900,245.934)" style="opacity: 1;"><rect class="node-rect" width="15" height="36.09800362976401" style="stroke-width: 0.5; stroke: rgb(0, 0, 0); stroke-opacity: 1; fill: rgb(128, 128, 128); fill-opacity: 1;"/><text class="node-label" data-notex="1" x="0" y="0" text-anchor="end" transform="translate(-3.25,22.249001814882003)" style="cursor: default; font-family: 'Open Sans', verdana, arial, sans-serif; font-size: 12px; fill: rgb(42, 63, 95); fill-opacity: 1; white-space: pre; text-shadow: white 1px 1px 1px, white -1px -1px 1px, white 1px -1px 1px, white -1px 1px 1px;">still</text></g><g class="sankey-node" transform="translate(744.900,306.575)" style="opacity: 1;"><rect class="node-rect" width="15" height="208.09437386569886" style="stroke-width: 0.5; stroke: rgb(0, 0, 0); stroke-opacity: 1; fill: rgb(128, 128, 128); fill-opacity: 1;"/><text class="node-label" data-notex="1" x="0" y="0" text-anchor="end" transform="translate(-3.25,108.24718693284943)" style="cursor: default; font-family: 'Open Sans', verdana, arial, sans-serif; font-size: 12px; fill: rgb(42, 63, 95); fill-opacity: 1; white-space: pre; text-shadow: white 1px 1px 1px, white -1px -1px 1px, white 1px -1px 1px, white -1px 1px 1px;">walk</text></g><g class="sankey-node" transform="translate(744.900,544.152)" style="opacity: 1;"><rect class="node-rect" width="15" height="155.00907441016307" style="stroke-width: 0.5; stroke: rgb(0, 0, 0); stroke-opacity: 1; fill: rgb(128, 128, 128); fill-opacity: 1;"/><text class="node-label" data-notex="1" x="0" y="0" text-anchor="end" transform="translate(-3.25,81.70453720508154)" style="cursor: default; font-family: 'Open Sans', verdana, arial, sans-serif; font-size: 12px; fill: rgb(42, 63, 95); fill-opacity: 1; white-space: pre; text-shadow: white 1px 1px 1px, white -1px -1px 1px, white 1px -1px 1px, white -1px 1px 1px;">wallclimb</text></g><g class="sankey-node" transform="translate(368.700,13.614)" style="opacity: 1;"><rect class="node-rect" width="15" height="39.28312159709617" style="stroke-width: 0.5; stroke: rgb(0, 0, 0); stroke-opacity: 1; fill: rgb(99, 110, 250); fill-opacity: 1;"/><text class="node-label" data-notex="1" x="0" y="0" text-anchor="start" transform="translate(18.25,23.841560798548084)" style="cursor: default; font-family: 'Open Sans', verdana, arial, sans-serif; font-size: 12px; fill: rgb(42, 63, 95); fill-opacity: 1; white-space: pre; text-shadow: white 1px 1px 1px, white -1px -1px 1px, white 1px -1px 1px, white -1px 1px 1px;">BLA</text></g><g class="sankey-node" transform="translate(368.700,64.707)" style="opacity: 1;"><rect class="node-rect" width="15" height="90.24500907441063" style="stroke-width: 0.5; stroke: rgb(0, 0, 0); stroke-opacity: 1; fill: rgb(25, 211, 243); fill-opacity: 1;"/><text class="node-label" data-notex="1" x="0" y="0" text-anchor="start" transform="translate(18.25,49.32250453720532)" style="cursor: default; font-family: 'Open Sans', verdana, arial, sans-serif; font-size: 12px; fill: rgb(42, 63, 95); fill-opacity: 1; white-space: pre; text-shadow: white 1px 1px 1px, white -1px -1px 1px, white 1px -1px 1px, white -1px 1px 1px;">Cla</text></g><g class="sankey-node" transform="translate(368.700,166.294)" style="opacity: 1;"><rect class="node-rect" width="15" height="62.64065335753173" style="stroke-width: 0.5; stroke: rgb(0, 0, 0); stroke-opacity: 1; fill: rgb(239, 85, 59); fill-opacity: 1;"/><text class="node-label" data-notex="1" x="0" y="0" text-anchor="start" transform="translate(18.25,35.52032667876587)" style="cursor: default; font-family: 'Open Sans', verdana, arial, sans-serif; font-size: 12px; fill: rgb(42, 63, 95); fill-opacity: 1; white-space: pre; text-shadow: white 1px 1px 1px, white -1px -1px 1px, white 1px -1px 1px, white -1px 1px 1px;">LC</text></g><g class="sankey-node" transform="translate(368.700,241.381)" style="opacity: 1;"><rect class="node-rect" width="15" height="35.03629764065329" style="stroke-width: 0.5; stroke: rgb(0, 0, 0); stroke-opacity: 1; fill: rgb(254, 203, 82); fill-opacity: 1;"/><text class="node-label" data-notex="1" x="0" y="0" text-anchor="start" transform="translate(18.25,21.718148820326643)" style="cursor: default; font-family: 'Open Sans', verdana, arial, sans-serif; font-size: 12px; fill: rgb(42, 63, 95); fill-opacity: 1; white-space: pre; text-shadow: white 1px 1px 1px, white -1px -1px 1px, white 1px -1px 1px, white -1px 1px 1px;">LHyp</text></g><g class="sankey-node" transform="translate(368.700,289.544)" style="opacity: 1;"><rect class="node-rect" width="15" height="28.666061705989023" style="stroke-width: 0.5; stroke: rgb(0, 0, 0); stroke-opacity: 1; fill: rgb(182, 232, 128); fill-opacity: 1;"/><text class="node-label" data-notex="1" x="0" y="0" text-anchor="start" transform="translate(18.25,18.53303085299451)" style="cursor: default; font-family: 'Open Sans', verdana, arial, sans-serif; font-size: 12px; fill: rgb(42, 63, 95); fill-opacity: 1; white-space: pre; text-shadow: white 1px 1px 1px, white -1px -1px 1px, white 1px -1px 1px, white -1px 1px 1px;">NAc</text></g><g class="sankey-node" transform="translate(368.700,330.104)" style="opacity: 1;"><rect class="node-rect" width="15" height="96.61524500907456" style="stroke-width: 0.5; stroke: rgb(0, 0, 0); stroke-opacity: 1; fill: rgb(255, 161, 90); fill-opacity: 1;"/><text class="node-label" data-notex="1" x="0" y="0" text-anchor="start" transform="translate(18.25,52.50762250453728)" style="cursor: default; font-family: 'Open Sans', verdana, arial, sans-serif; font-size: 12px; fill: rgb(42, 63, 95); fill-opacity: 1; white-space: pre; text-shadow: white 1px 1px 1px, white -1px -1px 1px, white 1px -1px 1px, white -1px 1px 1px;">Str</text></g><g class="sankey-node" transform="translate(368.700,436.384)" style="opacity: 1;"><rect class="node-rect" width="15" height="140.14519056261338" style="stroke-width: 0.5; stroke: rgb(0, 0, 0); stroke-opacity: 1; fill: rgb(255, 151, 255); fill-opacity: 1;"/><text class="node-label" data-notex="1" x="0" y="0" text-anchor="start" transform="translate(18.25,74.27259528130669)" style="cursor: default; font-family: 'Open Sans', verdana, arial, sans-serif; font-size: 12px; fill: rgb(42, 63, 95); fill-opacity: 1; white-space: pre; text-shadow: white 1px 1px 1px, white -1px -1px 1px, white 1px -1px 1px, white -1px 1px 1px;">VTA</text></g><g class="sankey-node" transform="translate(368.700,587.128)" style="opacity: 1;"><rect class="node-rect" width="15" height="49.90018148820309" style="stroke-width: 0.5; stroke: rgb(0, 0, 0); stroke-opacity: 1; fill: rgb(255, 102, 146); fill-opacity: 1;"/><text class="node-label" data-notex="1" x="0" y="0" text-anchor="start" transform="translate(18.25,29.150090744101544)" style="cursor: default; font-family: 'Open Sans', verdana, arial, sans-serif; font-size: 12px; fill: rgb(42, 63, 95); fill-opacity: 1; white-space: pre; text-shadow: white 1px 1px 1px, white -1px -1px 1px, white 1px -1px 1px, white -1px 1px 1px;">cPFC</text></g><g class="sankey-node" transform="translate(368.700,649.793)" style="opacity: 1;"><rect class="node-rect" width="15" height="31.851179673321212" style="stroke-width: 0.5; stroke: rgb(0, 0, 0); stroke-opacity: 1; fill: rgb(0, 204, 150); fill-opacity: 1;"/><text class="node-label" data-notex="1" x="0" y="0" text-anchor="start" transform="translate(18.25,20.125589836660605)" style="cursor: default; font-family: 'Open Sans', verdana, arial, sans-serif; font-size: 12px; fill: rgb(42, 63, 95); fill-opacity: 1; white-space: pre; text-shadow: white 1px 1px 1px, white -1px -1px 1px, white 1px -1px 1px, white -1px 1px 1px;">dPAG</text></g><g class="sankey-node" transform="translate(368.700,695.195)" style="opacity: 1;"><rect class="node-rect" width="15" height="10.61705989110692" style="stroke-width: 0.5; stroke: rgb(0, 0, 0); stroke-opacity: 1; fill: rgb(171, 99, 250); fill-opacity: 1;"/><text class="node-label" data-notex="1" x="0" y="0" text-anchor="start" transform="translate(18.25,9.508529945553459)" style="cursor: default; font-family: 'Open Sans', verdana, arial, sans-serif; font-size: 12px; fill: rgb(42, 63, 95); fill-opacity: 1; white-space: pre; text-shadow: white 1px 1px 1px, white -1px -1px 1px, white 1px -1px 1px, white -1px 1px 1px;">lHb</text></g></g></g><defs id="topdefs-dab585"><g class="clips"/></defs><g class="layer-above"><g class="imagelayer"/><g class="shapelayer"/></g><g class="infolayer"><g class="g-gtitle"/><g class="first-render"/></g></svg>