<svg class="main-svg" xmlns="http://www.w3.org/2000/svg" xmlns:xlink="http://www.w3.org/1999/xlink" width="1300" height="900" viewBox="0 0 1300 900" style=""><rect x="0" y="0" width="1300" height="900" style="fill: rgb(255, 255, 255); fill-opacity: 1;"/><defs id="defs-47f096"><g class="clips"/><g class="gradients"/><g class="patterns"/></defs><g class="bglayer"/><g class="layer-below"><g class="imagelayer"/><g class="shapelayer"/></g><g class="cartesianlayer"/><g class="polarlayer"/><g class="smithlayer"/><g class="ternarylayer"/><g class="geolayer"/><g class="funnelarealayer"/><g class="pielayer"/><g class="iciclelayer"/><g class="treemaplayer"/><g class="sunburstlayer"/><g class="glimages"/><g class="sankey" transform="translate(80,100)matrix(1 0 0 1 0 0)" style="box-sizing: content-box; position: absolute; left: 0px; shape-rendering: geometricprecision; pointer-events: none;"><g class="sankey-links" style="fill: none;"><path class="sankey-link" d="M383.70000000000005,13.748275862068997C564.3000000000001,13.748275862068997 564.3000000000001,23.84164456233414 744.9000000000001,23.84164456233414L744.9000000000001,36.255437665782416C564.3000000000001,36.255437665782416 564.3000000000001,26.162068965517275 383.70000000000005,26.162068965517275Z" style="stroke: rgb(68, 68, 68); stroke-opacity: 1; fill: rgb(99, 110, 250); fill-opacity: 0.6; stroke-width: 0; opacity: 1;"/><path class="sankey-link" d="M383.70000000000005,26.16206896551727C564.3000000000001,26.16206896551727 564.3000000000001,372.58328912466845 744.9000000000001,372.58328912466845L744.9000000000001,392.75570291777194C564.3000000000001,392.75570291777194 564.3000000000001,46.334482758620716 383.70000000000005,46.334482758620716Z" style="stroke: rgb(68, 68, 68); stroke-opacity: 1; fill: rgb(99, 110, 250); fill-opacity: 0.6; stroke-width: 0; opacity: 1;"/><path class="sankey-link" d="M383.70000000000005,58.686206896551695C564.3000000000001,58.686206896551695 564.3000000000001,36.255437665782416 744.9000000000001,36.255437665782416L744.9000000000001,62.634748010610004C564.3000000000001,62.634748010610004 564.3000000000001,85.06551724137928 383.70000000000005,85.06551724137928Z" style="stroke: rgb(68, 68, 68); stroke-opacity: 1; fill: rgb(25, 211, 243); fill-opacity: 0.6; stroke-width: 0; opacity: 1;"/><path class="sankey-link" d="M383.70000000000005,85.06551724137928C564.3000000000001,85.06551724137928 564.3000000000001,228.9604774535809 744.9000000000001,228.9604774535809L744.9000000000001,242.9259946949602C564.3000000000001,242.9259946949602 564.3000000000001,99.03103448275859 383.70000000000005,99.03103448275859Z" style="stroke: rgb(68, 68, 68); stroke-opacity: 1; fill: rgb(25, 211, 243); fill-opacity: 0.6; stroke-width: 0; opacity: 1;"/><path class="sankey-link" d="M383.70000000000005,99.0310344827586C564.3000000000001,99.0310344827586 564.3000000000001,392.7557029177719 744.9000000000001,392.7557029177719L744.9000000000001,416.03156498673735C564.3000000000001,416.03156498673735 564.3000000000001,122.30689655172412 383.70000000000005,122.30689655172412Z" style="stroke: rgb(68, 68, 68); stroke-opacity: 1; fill: rgb(25, 211, 243); fill-opacity: 0.6; stroke-width: 0; opacity: 1;"/><path class="sankey-link" d="M383.70000000000005,122.30689655172412C564.3000000000001,122.30689655172412 564.3000000000001,646.7299734748011 744.9000000000001,646.7299734748011L744.9000000000001,652.9368700265253C564.3000000000001,652.9368700265253 564.3000000000001,128.51379310344825 383.70000000000005,128.51379310344825Z" style="stroke: rgb(68, 68, 68); stroke-opacity: 1; fill: rgb(25, 211, 243); fill-opacity: 0.6; stroke-width: 0; opacity: 1;"/><path class="sankey-link" d="M383.70000000000005,140.27586206896552C564.3000000000001,140.27586206896552 564.3000000000001,62.63474801061001 744.9000000000001,62.63474801061001L744.9000000000001,81.25543766578242C564.3000000000001,81.25543766578242 564.3000000000001,158.89655172413796 383.70000000000005,158.89655172413796Z" style="stroke: rgb(68, 68, 68); stroke-opacity: 1; fill: rgb(239, 85, 59); fill-opacity: 0.6; stroke-width: 0; opacity: 1;"/><path class="sankey-link" d="M383.70000000000005,158.89655172413794C564.3000000000001,158.89655172413794 564.3000000000001,242.9259946949602 744.9000000000001,242.9259946949602L744.9000000000001,250.68461538461537C564.3000000000001,250.68461538461537 564.3000000000001,166.6551724137931 383.70000000000005,166.6551724137931Z" style="stroke: rgb(68, 68, 68); stroke-opacity: 1; fill: rgb(239, 85, 59); fill-opacity: 0.6; stroke-width: 0; opacity: 1;"/><path class="sankey-link" d="M383.70000000000005,166.6551724137931C564.3000000000001,166.6551724137931 564.3000000000001,416.0315649867374 744.9000000000001,416.0315649867374L744.9000000000001,447.0660477453581C564.3000000000001,447.0660477453581 564.3000000000001,197.6896551724138 383.70000000000005,197.6896551724138Z" style="stroke: rgb(68, 68, 68); stroke-opacity: 1; fill: rgb(239, 85, 59); fill-opacity: 0.6; stroke-width: 0; opacity: 1;"/><path class="sankey-link" d="M383.70000000000005,197.6896551724138C564.3000000000001,197.6896551724138 564.3000000000001,652.9368700265253 744.9000000000001,652.9368700265253L744.9000000000001,657.5920424403183C564.3000000000001,657.5920424403183 564.3000000000001,202.3448275862069 383.70000000000005,202.3448275862069Z" style="stroke: rgb(68, 68, 68); stroke-opacity: 1; fill: rgb(239, 85, 59); fill-opacity: 0.6; stroke-width: 0; opacity: 1;"/><path class="sankey-link" d="M383.70000000000005,214.91379310344823C564.3000000000001,214.91379310344823 564.3000000000001,81.25543766578241 744.9000000000001,81.25543766578241L744.9000000000001,87.46233421750654C564.3000000000001,87.46233421750654 564.3000000000001,221.12068965517236 383.70000000000005,221.12068965517236Z" style="stroke: rgb(68, 68, 68); stroke-opacity: 1; fill: rgb(254, 203, 82); fill-opacity: 0.6; stroke-width: 0; opacity: 1;"/><path class="sankey-link" d="M383.70000000000005,221.12068965517236C564.3000000000001,221.12068965517236 564.3000000000001,250.68461538461534 744.9000000000001,250.68461538461534L744.9000000000001,261.5466843501326C564.3000000000001,261.5466843501326 564.3000000000001,231.98275862068962 383.70000000000005,231.98275862068962Z" style="stroke: rgb(68, 68, 68); stroke-opacity: 1; fill: rgb(254, 203, 82); fill-opacity: 0.6; stroke-width: 0; opacity: 1;"/><path class="sankey-link" d="M383.70000000000005,231.9827586206896C564.3000000000001,231.9827586206896 564.3000000000001,447.0660477453581 744.9000000000001,447.0660477453581L744.9000000000001,456.37639257294427C564.3000000000001,456.37639257294427 564.3000000000001,241.29310344827582 383.70000000000005,241.29310344827582Z" style="stroke: rgb(68, 68, 68); stroke-opacity: 1; fill: rgb(254, 203, 82); fill-opacity: 0.6; stroke-width: 0; opacity: 1;"/><path class="sankey-link" d="M383.70000000000005,241.29310344827582C564.3000000000001,241.29310344827582 564.3000000000001,657.5920424403184 744.9000000000001,657.5920424403184L744.9000000000001,660.6954907161805C564.3000000000001,660.6954907161805 564.3000000000001,244.3965517241379 383.70000000000005,244.3965517241379Z" style="stroke: rgb(68, 68, 68); stroke-opacity: 1; fill: rgb(254, 203, 82); fill-opacity: 0.6; stroke-width: 0; opacity: 1;"/><path class="sankey-link" d="M383.70000000000005,257.6172413793103C564.3000000000001,257.6172413793103 564.3000000000001,87.46233421750655 744.9000000000001,87.46233421750655L744.9000000000001,95.22095490716173C564.3000000000001,95.22095490716173 564.3000000000001,265.37586206896543 383.70000000000005,265.37586206896543Z" style="stroke: rgb(68, 68, 68); stroke-opacity: 1; fill: rgb(182, 232, 128); fill-opacity: 0.6; stroke-width: 0; opacity: 1;"/><path class="sankey-link" d="M383.70000000000005,265.3758620689655C564.3000000000001,265.3758620689655 564.3000000000001,261.54668435013264 744.9000000000001,261.54668435013264L744.9000000000001,266.2018567639258C564.3000000000001,266.2018567639258 564.3000000000001,270.0310344827586 383.70000000000005,270.0310344827586Z" style="stroke: rgb(68, 68, 68); stroke-opacity: 1; fill: rgb(182, 232, 128); fill-opacity: 0.6; stroke-width: 0; opacity: 1;"/><path class="sankey-link" d="M383.70000000000005,270.03103448275857C564.3000000000001,270.03103448275857 564.3000000000001,456.3763925729443 744.9000000000001,456.3763925729443L744.9000000000001,473.4453580901857C564.3000000000001,473.4453580901857 564.3000000000001,287.09999999999997 383.70000000000005,287.09999999999997Z" style="stroke: rgb(68, 68, 68); stroke-opacity: 1; fill: rgb(182, 232, 128); fill-opacity: 0.6; stroke-width: 0; opacity: 1;"/><path class="sankey-link" d="M383.70000000000005,298.80000000000007C564.3000000000001,298.80000000000007 564.3000000000001,95.22095490716174 744.9000000000001,95.22095490716174L744.9000000000001,123.15198938992035C564.3000000000001,123.15198938992035 564.3000000000001,326.7310344827587 383.70000000000005,326.7310344827587Z" style="stroke: rgb(68, 68, 68); stroke-opacity: 1; fill: rgb(255, 161, 90); fill-opacity: 0.6; stroke-width: 0; opacity: 1;"/><path class="sankey-link" d="M383.70000000000005,326.7310344827587C564.3000000000001,326.7310344827587 564.3000000000001,266.2018567639257 744.9000000000001,266.2018567639257L744.9000000000001,292.5811671087533C564.3000000000001,292.5811671087533 564.3000000000001,353.11034482758623 383.70000000000005,353.11034482758623Z" style="stroke: rgb(68, 68, 68); stroke-opacity: 1; fill: rgb(255, 161, 90); fill-opacity: 0.6; stroke-width: 0; opacity: 1;"/><path class="sankey-link" d="M383.70000000000005,353.11034482758623C564.3000000000001,353.11034482758623 564.3000000000001,473.4453580901857 744.9000000000001,473.4453580901857L744.9000000000001,518.4453580901857C564.3000000000001,518.4453580901857 564.3000000000001,398.11034482758623 383.70000000000005,398.11034482758623Z" style="stroke: rgb(68, 68, 68); stroke-opacity: 1; fill: rgb(255, 161, 90); fill-opacity: 0.6; stroke-width: 0; opacity: 1;"/><path class="sankey-link" d="M383.70000000000005,398.11034482758623C564.3000000000001,398.11034482758623 564.3000000000001,660.6954907161805 744.9000000000001,660.6954907161805L744.9000000000001,666.9023872679047C564.3000000000001,666.9023872679047 564.3000000000001,404.3172413793104 383.70000000000005,404.3172413793104Z" style="stroke: rgb(68, 68, 68); stroke-opacity: 1; fill: rgb(255, 161, 90); fill-opacity: 0.6; stroke-width: 0; opacity: 1;"/><path class="sankey-link" d="M383.70000000000005,413.3793103448277C564.3000000000001,413.3793103448277 564.3000000000001,123.15198938992035 744.9000000000001,123.15198938992035L744.9000000000001,168.15198938992035C564.3000000000001,168.15198938992035 564.3000000000001,458.3793103448277 383.70000000000005,458.3793103448277Z" style="stroke: rgb(68, 68, 68); stroke-opacity: 1; fill: rgb(255, 151, 255); fill-opacity: 0.6; stroke-width: 0; opacity: 1;"/><path class="sankey-link" d="M383.70000000000005,458.3793103448277C564.3000000000001,458.3793103448277 564.3000000000001,292.58116710875333 744.9000000000001,292.58116710875333L744.9000000000001,325.1673740053051C564.3000000000001,325.1673740053051 564.3000000000001,490.9655172413794 383.70000000000005,490.9655172413794Z" style="stroke: rgb(68, 68, 68); stroke-opacity: 1; fill: rgb(255, 151, 255); fill-opacity: 0.6; stroke-width: 0; opacity: 1;"/><path class="sankey-link" d="M383.70000000000005,490.9655172413794C564.3000000000001,490.9655172413794 564.3000000000001,518.4453580901857 744.9000000000001,518.4453580901857L744.9000000000001,574.3074270557029C564.3000000000001,574.3074270557029 564.3000000000001,546.8275862068966 383.70000000000005,546.8275862068966Z" style="stroke: rgb(68, 68, 68); stroke-opacity: 1; fill: rgb(255, 151, 255); fill-opacity: 0.6; stroke-width: 0; opacity: 1;"/><path class="sankey-link" d="M383.70000000000005,546.8275862068966C564.3000000000001,546.8275862068966 564.3000000000001,666.9023872679047 744.9000000000001,666.9023872679047L744.9000000000001,694.8334217506633C564.3000000000001,694.8334217506633 564.3000000000001,574.7586206896552 383.70000000000005,574.7586206896552Z" style="stroke: rgb(68, 68, 68); stroke-opacity: 1; fill: rgb(255, 151, 255); fill-opacity: 0.6; stroke-width: 0; opacity: 1;"/><path class="sankey-link" d="M383.70000000000005,584.9068965517242C564.3000000000001,584.9068965517242 564.3000000000001,168.15198938992035 744.9000000000001,168.15198938992035L744.9000000000001,185.22095490716174C564.3000000000001,185.22095490716174 564.3000000000001,601.9758620689656 383.70000000000005,601.9758620689656Z" style="stroke: rgb(68, 68, 68); stroke-opacity: 1; fill: rgb(255, 102, 146); fill-opacity: 0.6; stroke-width: 0; opacity: 1;"/><path class="sankey-link" d="M383.70000000000005,601.9758620689656C564.3000000000001,601.9758620689656 564.3000000000001,325.1673740053051 744.9000000000001,325.1673740053051L744.9000000000001,332.9259946949602C564.3000000000001,332.9259946949602 564.3000000000001,609.7344827586207 383.70000000000005,609.7344827586207Z" style="stroke: rgb(68, 68, 68); stroke-opacity: 1; fill: rgb(255, 102, 146); fill-opacity: 0.6; stroke-width: 0; opacity: 1;"/><path class="sankey-link" d="M383.70000000000005,609.7344827586207C564.3000000000001,609.7344827586207 564.3000000000001,574.3074270557029 744.9000000000001,574.3074270557029L744.9000000000001,596.0315649867373C564.3000000000001,596.0315649867373 564.3000000000001,631.4586206896552 383.70000000000005,631.4586206896552Z" style="stroke: rgb(68, 68, 68); stroke-opacity: 1; fill: rgb(255, 102, 146); fill-opacity: 0.6; stroke-width: 0; opacity: 1;"/><path class="sankey-link" d="M383.70000000000005,631.4586206896553C564.3000000000001,631.4586206896553 564.3000000000001,694.8334217506633 744.9000000000001,694.8334217506633L744.9000000000001,699.4885941644563C564.3000000000001,699.4885941644563 564.3000000000001,636.1137931034483 383.70000000000005,636.1137931034483Z" style="stroke: rgb(68, 68, 68); stroke-opacity: 1; fill: rgb(255, 102, 146); fill-opacity: 0.6; stroke-width: 0; opacity: 1;"/><path class="sankey-link" d="M383.70000000000005,648.8068965517243C564.3000000000001,648.8068965517243 564.3000000000001,185.22095490716174 744.9000000000001,185.22095490716174L744.9000000000001,196.083023872679C564.3000000000001,196.083023872679 564.3000000000001,659.6689655172415 383.70000000000005,659.6689655172415Z" style="stroke: rgb(68, 68, 68); stroke-opacity: 1; fill: rgb(0, 204, 150); fill-opacity: 0.6; stroke-width: 0; opacity: 1;"/><path class="sankey-link" d="M383.70000000000005,659.6689655172415C564.3000000000001,659.6689655172415 564.3000000000001,332.92599469496025 744.9000000000001,332.92599469496025L744.9000000000001,339.13289124668444C564.3000000000001,339.13289124668444 564.3000000000001,665.8758620689657 383.70000000000005,665.8758620689657Z" style="stroke: rgb(68, 68, 68); stroke-opacity: 1; fill: rgb(0, 204, 150); fill-opacity: 0.6; stroke-width: 0; opacity: 1;"/><path class="sankey-link" d="M383.70000000000005,665.8758620689657C564.3000000000001,665.8758620689657 564.3000000000001,596.0315649867374 744.9000000000001,596.0315649867374L744.9000000000001,609.9970822281167C564.3000000000001,609.9970822281167 564.3000000000001,679.841379310345 383.70000000000005,679.841379310345Z" style="stroke: rgb(68, 68, 68); stroke-opacity: 1; fill: rgb(0, 204, 150); fill-opacity: 0.6; stroke-width: 0; opacity: 1;"/><path class="sankey-link" d="M383.70000000000005,679.841379310345C564.3000000000001,679.841379310345 564.3000000000001,699.4885941644565 744.9000000000001,699.4885941644565L744.9000000000001,702.5920424403186C564.3000000000001,702.5920424403186 564.3000000000001,682.9448275862071 383.70000000000005,682.9448275862071Z" style="stroke: rgb(68, 68, 68); stroke-opacity: 1; fill: rgb(0, 204, 150); fill-opacity: 0.6; stroke-width: 0; opacity: 1;"/><path class="sankey-link" d="M383.70000000000005,696.4758620689656C564.3000000000001,696.4758620689656 564.3000000000001,196.08302387267898 744.9000000000001,196.08302387267898L744.9000000000001,199.18647214854107C564.3000000000001,199.18647214854107 564.3000000000001,699.5793103448277 383.70000000000005,699.5793103448277Z" style="stroke: rgb(68, 68, 68); stroke-opacity: 1; fill: rgb(171, 99, 250); fill-opacity: 0.6; stroke-width: 0; opacity: 1;"/><path class="sankey-link" d="M383.70000000000005,699.5793103448277C564.3000000000001,699.5793103448277 564.3000000000001,609.9970822281167 744.9000000000001,609.9970822281167L744.9000000000001,616.2039787798409C564.3000000000001,616.2039787798409 564.3000000000001,705.7862068965519 383.70000000000005,705.7862068965519Z" style="stroke: rgb(68, 68, 68); stroke-opacity: 1; fill: rgb(171, 99, 250); fill-opacity: 0.6; stroke-width: 0; opacity: 1;"/></g><g class="sankey-node-set" style="cursor: ns-resize;"><g class="sankey-node" transform="translate(744.900,23.842)" style="opacity: 1;"><rect class="node-rect" width="15" height="175.34482758620703" style="stroke-width: 0.5; stroke: rgb(0, 0, 0); stroke-opacity: 1; fill: rgb(128, 128, 128); fill-opacity: 1;"/><text class="node-label" data-notex="1" x="0" y="0" text-anchor="end" transform="translate(-3.25,91.87241379310352)" style="cursor: default; font-family: 'Open Sans', verdana, arial, sans-serif; font-size: 12px; fill: rgb(42, 63, 95); fill-opacity: 1; white-space: pre; text-shadow: white 1px 1px 1px, white -1px -1px 1px, white 1px -1px 1px, white -1px 1px 1px;">dig</text></g><g class="sankey-node" transform="translate(744.900,228.960)" style="opacity: 1;"><rect class="node-rect" width="15" height="110.17241379310349" style="stroke-width: 0.5; stroke: rgb(0, 0, 0); stroke-opacity: 1; fill: rgb(128, 128, 128); fill-opacity: 1;"/><text class="node-label" data-notex="1" x="0" y="0" text-anchor="end" transform="translate(-3.25,59.28620689655175)" style="cursor: default; font-family: 'Open Sans', verdana, arial, sans-serif; font-size: 12px; fill: rgb(42, 63, 95); fill-opacity: 1; white-space: pre; text-shadow: white 1px 1px 1px, white -1px -1px 1px, white 1px -1px 1px, white -1px 1px 1px;">groom</text></g><g class="sankey-node" transform="translate(744.900,372.583)" style="opacity: 1;"><rect class="node-rect" width="15" height="243.62068965517233" style="stroke-width: 0.5; stroke: rgb(0, 0, 0); stroke-opacity: 1; fill: rgb(128, 128, 128); fill-opacity: 1;"/><text class="node-label" data-notex="1" x="0" y="0" text-anchor="end" transform="translate(-3.25,126.01034482758617)" style="cursor: default; font-family: 'Open Sans', verdana, arial, sans-serif; font-size: 12px; fill: rgb(42, 63, 95); fill-opacity: 1; white-space: pre; text-shadow: white 1px 1px 1px, white -1px -1px 1px, white 1px -1px 1px, white -1px 1px 1px;">move</text></g><g class="sankey-node" transform="translate(744.900,646.730)" style="opacity: 1;"><rect class="node-rect" width="15" height="55.86206896551721" style="stroke-width: 0.5; stroke: rgb(0, 0, 0); stroke-opacity: 1; fill: rgb(128, 128, 128); fill-opacity: 1;"/><text class="node-label" data-notex="1" x="0" y="0" text-anchor="end" transform="translate(-3.25,32.13103448275861)" style="cursor: default; font-family: 'Open Sans', verdana, arial, sans-serif; font-size: 12px; fill: rgb(42, 63, 95); fill-opacity: 1; white-space: pre; text-shadow: white 1px 1px 1px, white -1px -1px 1px, white 1px -1px 1px, white -1px 1px 1px;">still</text></g><g class="sankey-node" transform="translate(368.700,13.748)" style="opacity: 1;"><rect class="node-rect" width="15" height="32.58620689655166" style="stroke-width: 0.5; stroke: rgb(0, 0, 0); stroke-opacity: 1; fill: rgb(99, 110, 250); fill-opacity: 1;"/><text class="node-label" data-notex="1" x="0" y="0" text-anchor="start" transform="translate(18.25,20.49310344827583)" style="cursor: default; font-family: 'Open Sans', verdana, arial, sans-serif; font-size: 12px; fill: rgb(42, 63, 95); fill-opacity: 1; white-space: pre; text-shadow: white 1px 1px 1px, white -1px -1px 1px, white 1px -1px 1px, white -1px 1px 1px;">BLA</text></g><g class="sankey-node" transform="translate(368.700,58.686)" style="opacity: 1;"><rect class="node-rect" width="15" height="69.82758620689664" style="stroke-width: 0.5; stroke: rgb(0, 0, 0); stroke-opacity: 1; fill: rgb(25, 211, 243); fill-opacity: 1;"/><text class="node-label" data-notex="1" x="0" y="0" text-anchor="start" transform="translate(18.25,39.113793103448316)" style="cursor: default; font-family: 'Open Sans', verdana, arial, sans-serif; font-size: 12px; fill: rgb(42, 63, 95); fill-opacity: 1; white-space: pre; text-shadow: white 1px 1px 1px, white -1px -1px 1px, white 1px -1px 1px, white -1px 1px 1px;">Cla</text></g><g class="sankey-node" transform="translate(368.700,140.276)" style="opacity: 1;"><rect class="node-rect" width="15" height="62.068965517241395" style="stroke-width: 0.5; stroke: rgb(0, 0, 0); stroke-opacity: 1; fill: rgb(239, 85, 59); fill-opacity: 1;"/><text class="node-label" data-notex="1" x="0" y="0" text-anchor="start" transform="translate(18.25,35.2344827586207)" style="cursor: default; font-family: 'Open Sans', verdana, arial, sans-serif; font-size: 12px; fill: rgb(42, 63, 95); fill-opacity: 1; white-space: pre; text-shadow: white 1px 1px 1px, white -1px -1px 1px, white 1px -1px 1px, white -1px 1px 1px;">LC</text></g><g class="sankey-node" transform="translate(368.700,214.914)" style="opacity: 1;"><rect class="node-rect" width="15" height="29.482758620689765" style="stroke-width: 0.5; stroke: rgb(0, 0, 0); stroke-opacity: 1; fill: rgb(254, 203, 82); fill-opacity: 1;"/><text class="node-label" data-notex="1" x="0" y="0" text-anchor="start" transform="translate(18.25,18.94137931034488)" style="cursor: default; font-family: 'Open Sans', verdana, arial, sans-serif; font-size: 12px; fill: rgb(42, 63, 95); fill-opacity: 1; white-space: pre; text-shadow: white 1px 1px 1px, white -1px -1px 1px, white 1px -1px 1px, white -1px 1px 1px;">LHyp</text></g><g class="sankey-node" transform="translate(368.700,257.617)" style="opacity: 1;"><rect class="node-rect" width="15" height="29.482758620689765" style="stroke-width: 0.5; stroke: rgb(0, 0, 0); stroke-opacity: 1; fill: rgb(182, 232, 128); fill-opacity: 1;"/><text class="node-label" data-notex="1" x="0" y="0" text-anchor="start" transform="translate(18.25,18.94137931034488)" style="cursor: default; font-family: 'Open Sans', verdana, arial, sans-serif; font-size: 12px; fill: rgb(42, 63, 95); fill-opacity: 1; white-space: pre; text-shadow: white 1px 1px 1px, white -1px -1px 1px, white 1px -1px 1px, white -1px 1px 1px;">NAc</text></g><g class="sankey-node" transform="translate(368.700,298.800)" style="opacity: 1;"><rect class="node-rect" width="15" height="105.51724137931035" style="stroke-width: 0.5; stroke: rgb(0, 0, 0); stroke-opacity: 1; fill: rgb(255, 161, 90); fill-opacity: 1;"/><text class="node-label" data-notex="1" x="0" y="0" text-anchor="start" transform="translate(18.25,56.95862068965518)" style="cursor: default; font-family: 'Open Sans', verdana, arial, sans-serif; font-size: 12px; fill: rgb(42, 63, 95); fill-opacity: 1; white-space: pre; text-shadow: white 1px 1px 1px, white -1px -1px 1px, white 1px -1px 1px, white -1px 1px 1px;">Str</text></g><g class="sankey-node" transform="translate(368.700,413.379)" style="opacity: 1;"><rect class="node-rect" width="15" height="161.37931034482767" style="stroke-width: 0.5; stroke: rgb(0, 0, 0); stroke-opacity: 1; fill: rgb(255, 151, 255); fill-opacity: 1;"/><text class="node-label" data-notex="1" x="0" y="0" text-anchor="start" transform="translate(18.25,84.88965517241384)" style="cursor: default; font-family: 'Open Sans', verdana, arial, sans-serif; font-size: 12px; fill: rgb(42, 63, 95); fill-opacity: 1; white-space: pre; text-shadow: white 1px 1px 1px, white -1px -1px 1px, white 1px -1px 1px, white -1px 1px 1px;">VTA</text></g><g class="sankey-node" transform="translate(368.700,584.907)" style="opacity: 1;"><rect class="node-rect" width="15" height="51.206896551724185" style="stroke-width: 0.5; stroke: rgb(0, 0, 0); stroke-opacity: 1; fill: rgb(255, 102, 146); fill-opacity: 1;"/><text class="node-label" data-notex="1" x="0" y="0" text-anchor="start" transform="translate(18.25,29.803448275862092)" style="cursor: default; font-family: 'Open Sans', verdana, arial, sans-serif; font-size: 12px; fill: rgb(42, 63, 95); fill-opacity: 1; white-space: pre; text-shadow: white 1px 1px 1px, white -1px -1px 1px, white 1px -1px 1px, white -1px 1px 1px;">cPFC</text></g><g class="sankey-node" transform="translate(368.700,648.807)" style="opacity: 1;"><rect class="node-rect" width="15" height="34.13793103448279" style="stroke-width: 0.5; stroke: rgb(0, 0, 0); stroke-opacity: 1; fill: rgb(0, 204, 150); fill-opacity: 1;"/><text class="node-label" data-notex="1" x="0" y="0" text-anchor="start" transform="translate(18.25,21.268965517241394)" style="cursor: default; font-family: 'Open Sans', verdana, arial, sans-serif; font-size: 12px; fill: rgb(42, 63, 95); fill-opacity: 1; white-space: pre; text-shadow: white 1px 1px 1px, white -1px -1px 1px, white 1px -1px 1px, white -1px 1px 1px;">dPAG</text></g><g class="sankey-node" transform="translate(368.700,696.476)" style="opacity: 1;"><rect class="node-rect" width="15" height="9.310344827586277" style="stroke-width: 0.5; stroke: rgb(0, 0, 0); stroke-opacity: 1; fill: rgb(171, 99, 250); fill-opacity: 1;"/><text class="node-label" data-notex="1" x="0" y="0" text-anchor="start" transform="translate(18.25,8.855172413793138)" style="cursor: default; font-family: 'Open Sans', verdana, arial, sans-serif; font-size: 12px; fill: rgb(42, 63, 95); fill-opacity: 1; white-space: pre; text-shadow: white 1px 1px 1px, white -1px -1px 1px, white 1px -1px 1px, white -1px 1px 1px;">lHb</text></g></g></g><defs id="topdefs-47f096"><g class="clips"/></defs><g class="layer-above"><g class="imagelayer"/><g class="shapelayer"/></g><g class="infolayer"><g class="g-gtitle"/><g class="first-render"/></g></svg>