<svg class="main-svg" xmlns="http://www.w3.org/2000/svg" xmlns:xlink="http://www.w3.org/1999/xlink" width="1300" height="900" viewBox="0 0 1300 900" style=""><rect x="0" y="0" width="1300" height="900" style="fill: rgb(255, 255, 255); fill-opacity: 1;"/><defs id="defs-f9d0f6"><g class="clips"/><g class="gradients"/><g class="patterns"/></defs><g class="bglayer"/><g class="layer-below"><g class="imagelayer"/><g class="shapelayer"/></g><g class="cartesianlayer"/><g class="polarlayer"/><g class="smithlayer"/><g class="ternarylayer"/><g class="geolayer"/><g class="funnelarealayer"/><g class="pielayer"/><g class="iciclelayer"/><g class="treemaplayer"/><g class="sunburstlayer"/><g class="glimages"/><g class="sankey" transform="translate(80,100)matrix(1 0 0 1 0 0)" style="box-sizing: content-box; position: absolute; left: 0px; shape-rendering: geometricprecision; pointer-events: none;"><g class="sankey-links" style="fill: none;"><path class="sankey-link" d="M15,20.172413793103676C570,20.172413793103676 570,348.62068965517165 1125,348.62068965517165L1125,361.0344827586199C570,361.0344827586199 570,32.58620689655195 15,32.58620689655195Z" style="stroke: rgb(68, 68, 68); stroke-opacity: 1; fill: rgb(99, 110, 250); fill-opacity: 0.6; stroke-width: 0; opacity: 1;"/><path class="sankey-link" d="M15,2.2737367544323206e-13C570,2.2737367544323206e-13 570,89.99999999999946 1125,89.99999999999946L1125,110.17241379310292C570,110.17241379310292 570,20.172413793103676 15,20.172413793103676Z" style="stroke: rgb(68, 68, 68); stroke-opacity: 1; fill: rgb(99, 110, 250); fill-opacity: 0.6; stroke-width: 0; opacity: 1;"/><path class="sankey-link" d="M15,628.9655172413793C570,628.9655172413793 570,491.3793103448268 1125,491.3793103448268L1125,517.7586206896544C570,517.7586206896544 570,655.344827586207 15,655.344827586207Z" style="stroke: rgb(68, 68, 68); stroke-opacity: 1; fill: rgb(25, 211, 243); fill-opacity: 0.6; stroke-width: 0; opacity: 1;"/><path class="sankey-link" d="M15,661.551724137931C570,661.551724137931 570,695.172413793103 1125,695.172413793103L1125,709.1379310344823C570,709.1379310344823 570,675.5172413793103 15,675.5172413793103Z" style="stroke: rgb(68, 68, 68); stroke-opacity: 1; fill: rgb(25, 211, 243); fill-opacity: 0.6; stroke-width: 0; opacity: 1;"/><path class="sankey-link" d="M15,605.6896551724138C570,605.6896551724138 570,301.0344827586202 1125,301.0344827586202L1125,324.31034482758565C570,324.31034482758565 570,628.9655172413794 15,628.9655172413794Z" style="stroke: rgb(68, 68, 68); stroke-opacity: 1; fill: rgb(25, 211, 243); fill-opacity: 0.6; stroke-width: 0; opacity: 1;"/><path class="sankey-link" d="M15,655.3448275862069C570,655.3448275862069 570,585.5172413793101 1125,585.5172413793101L1125,591.7241379310343C570,591.7241379310343 570,661.551724137931 15,661.551724137931Z" style="stroke: rgb(68, 68, 68); stroke-opacity: 1; fill: rgb(25, 211, 243); fill-opacity: 0.6; stroke-width: 0; opacity: 1;"/><path class="sankey-link" d="M15,147.4137931034486C570,147.4137931034486 570,371.89655172413717 1125,371.89655172413717L1125,390.5172413793096C570,390.5172413793096 570,166.03448275862104 15,166.03448275862104Z" style="stroke: rgb(68, 68, 68); stroke-opacity: 1; fill: rgb(239, 85, 59); fill-opacity: 0.6; stroke-width: 0; opacity: 1;"/><path class="sankey-link" d="M15,170.68965517241412C570,170.68965517241412 570,614.4827586206893 1125,614.4827586206893L1125,622.2413793103444C570,622.2413793103444 570,178.4482758620693 15,178.4482758620693Z" style="stroke: rgb(68, 68, 68); stroke-opacity: 1; fill: rgb(239, 85, 59); fill-opacity: 0.6; stroke-width: 0; opacity: 1;"/><path class="sankey-link" d="M15,116.3793103448279C570,116.3793103448279 570,133.44827586206844 1125,133.44827586206844L1125,164.48275862068914C570,164.48275862068914 570,147.4137931034486 15,147.4137931034486Z" style="stroke: rgb(68, 68, 68); stroke-opacity: 1; fill: rgb(239, 85, 59); fill-opacity: 0.6; stroke-width: 0; opacity: 1;"/><path class="sankey-link" d="M15,166.034482758621C570,166.034482758621 570,538.965517241379 1125,538.965517241379L1125,543.620689655172C570,543.620689655172 570,170.6896551724141 15,170.6896551724141Z" style="stroke: rgb(68, 68, 68); stroke-opacity: 1; fill: rgb(239, 85, 59); fill-opacity: 0.6; stroke-width: 0; opacity: 1;"/><path class="sankey-link" d="M15,699.8275862068966C570,699.8275862068966 570,517.7586206896544 1125,517.7586206896544L1125,523.9655172413786C570,523.9655172413786 570,706.0344827586208 15,706.0344827586208Z" style="stroke: rgb(68, 68, 68); stroke-opacity: 1; fill: rgb(254, 203, 82); fill-opacity: 0.6; stroke-width: 0; opacity: 1;"/><path class="sankey-link" d="M15,709.1379310344829C570,709.1379310344829 570,709.1379310344823 1125,709.1379310344823L1125,719.9999999999995C570,719.9999999999995 570,720.0000000000001 15,720.0000000000001Z" style="stroke: rgb(68, 68, 68); stroke-opacity: 1; fill: rgb(254, 203, 82); fill-opacity: 0.6; stroke-width: 0; opacity: 1;"/><path class="sankey-link" d="M15,690.5172413793105C570,690.5172413793105 570,324.3103448275857 1125,324.3103448275857L1125,333.6206896551719C570,333.6206896551719 570,699.8275862068967 15,699.8275862068967Z" style="stroke: rgb(68, 68, 68); stroke-opacity: 1; fill: rgb(254, 203, 82); fill-opacity: 0.6; stroke-width: 0; opacity: 1;"/><path class="sankey-link" d="M15,706.0344827586208C570,706.0344827586208 570,591.7241379310343 1125,591.7241379310343L1125,594.8275862068964C570,594.8275862068964 570,709.1379310344829 15,709.1379310344829Z" style="stroke: rgb(68, 68, 68); stroke-opacity: 1; fill: rgb(254, 203, 82); fill-opacity: 0.6; stroke-width: 0; opacity: 1;"/><path class="sankey-link" d="M15,88.96551724137957C570,88.96551724137957 570,364.137931034482 1125,364.137931034482L1125,371.8965517241371C570,371.8965517241371 570,96.72413793103475 15,96.72413793103475Z" style="stroke: rgb(68, 68, 68); stroke-opacity: 1; fill: rgb(182, 232, 128); fill-opacity: 0.6; stroke-width: 0; opacity: 1;"/><path class="sankey-link" d="M15,96.72413793103475C570,96.72413793103475 570,609.8275862068962 1125,609.8275862068962L1125,614.4827586206892C570,614.4827586206892 570,101.37931034482786 15,101.37931034482786Z" style="stroke: rgb(68, 68, 68); stroke-opacity: 1; fill: rgb(182, 232, 128); fill-opacity: 0.6; stroke-width: 0; opacity: 1;"/><path class="sankey-link" d="M15,71.89655172413819C570,71.89655172413819 570,116.37931034482705 1125,116.37931034482705L1125,133.44827586206844C570,133.44827586206844 570,88.96551724137959 15,88.96551724137959Z" style="stroke: rgb(68, 68, 68); stroke-opacity: 1; fill: rgb(182, 232, 128); fill-opacity: 0.6; stroke-width: 0; opacity: 1;"/><path class="sankey-link" d="M15,414.82758620689674C570,414.82758620689674 570,435.51724137930955 1125,435.51724137930955L1125,463.44827586206816C570,463.44827586206816 570,442.75862068965534 15,442.75862068965534Z" style="stroke: rgb(68, 68, 68); stroke-opacity: 1; fill: rgb(255, 161, 90); fill-opacity: 0.6; stroke-width: 0; opacity: 1;"/><path class="sankey-link" d="M15,448.9655172413795C570,448.9655172413795 570,654.8275862068962 1125,654.8275862068962L1125,681.2068965517238C570,681.2068965517238 570,475.34482758620703 15,475.34482758620703Z" style="stroke: rgb(68, 68, 68); stroke-opacity: 1; fill: rgb(255, 161, 90); fill-opacity: 0.6; stroke-width: 0; opacity: 1;"/><path class="sankey-link" d="M15,369.82758620689674C570,369.82758620689674 570,220.34482758620638 1125,220.34482758620638L1125,265.3448275862064C570,265.3448275862064 570,414.82758620689674 15,414.82758620689674Z" style="stroke: rgb(68, 68, 68); stroke-opacity: 1; fill: rgb(255, 161, 90); fill-opacity: 0.6; stroke-width: 0; opacity: 1;"/><path class="sankey-link" d="M15,442.75862068965534C570,442.75862068965534 570,571.5517241379307 1125,571.5517241379307L1125,577.7586206896549C570,577.7586206896549 570,448.96551724137953 15,448.96551724137953Z" style="stroke: rgb(68, 68, 68); stroke-opacity: 1; fill: rgb(255, 161, 90); fill-opacity: 0.6; stroke-width: 0; opacity: 1;"/><path class="sankey-link" d="M15,249.3103448275865C570,249.3103448275865 570,390.51724137930955 1125,390.51724137930955L1125,435.51724137930955C570,435.51724137930955 570,294.3103448275865 15,294.3103448275865Z" style="stroke: rgb(68, 68, 68); stroke-opacity: 1; fill: rgb(255, 151, 255); fill-opacity: 0.6; stroke-width: 0; opacity: 1;"/><path class="sankey-link" d="M15,322.2413793103451C570,322.2413793103451 570,622.2413793103444 1125,622.2413793103444L1125,654.8275862068961C570,654.8275862068961 570,354.82758620689685 15,354.82758620689685Z" style="stroke: rgb(68, 68, 68); stroke-opacity: 1; fill: rgb(255, 151, 255); fill-opacity: 0.6; stroke-width: 0; opacity: 1;"/><path class="sankey-link" d="M15,193.4482758620693C570,193.4482758620693 570,164.48275862068914 1125,164.48275862068914L1125,220.34482758620635C570,220.34482758620635 570,249.3103448275865 15,249.3103448275865Z" style="stroke: rgb(68, 68, 68); stroke-opacity: 1; fill: rgb(255, 151, 255); fill-opacity: 0.6; stroke-width: 0; opacity: 1;"/><path class="sankey-link" d="M15,294.3103448275865C570,294.3103448275865 570,543.6206896551721 1125,543.6206896551721L1125,571.5517241379307C570,571.5517241379307 570,322.2413793103451 15,322.2413793103451Z" style="stroke: rgb(68, 68, 68); stroke-opacity: 1; fill: rgb(255, 151, 255); fill-opacity: 0.6; stroke-width: 0; opacity: 1;"/><path class="sankey-link" d="M15,512.0689655172416C570,512.0689655172416 570,463.44827586206816 1125,463.44827586206816L1125,480.51724137930955C570,480.51724137930955 570,529.137931034483 15,529.137931034483Z" style="stroke: rgb(68, 68, 68); stroke-opacity: 1; fill: rgb(255, 102, 146); fill-opacity: 0.6; stroke-width: 0; opacity: 1;"/><path class="sankey-link" d="M15,533.7931034482762C570,533.7931034482762 570,681.2068965517237 1125,681.2068965517237L1125,688.9655172413788C570,688.9655172413788 570,541.5517241379313 15,541.5517241379313Z" style="stroke: rgb(68, 68, 68); stroke-opacity: 1; fill: rgb(255, 102, 146); fill-opacity: 0.6; stroke-width: 0; opacity: 1;"/><path class="sankey-link" d="M15,490.3448275862071C570,490.3448275862071 570,265.3448275862064 1125,265.3448275862064L1125,287.06896551724094C570,287.06896551724094 570,512.0689655172416 15,512.0689655172416Z" style="stroke: rgb(68, 68, 68); stroke-opacity: 1; fill: rgb(255, 102, 146); fill-opacity: 0.6; stroke-width: 0; opacity: 1;"/><path class="sankey-link" d="M15,529.137931034483C570,529.137931034483 570,577.7586206896549 1125,577.7586206896549L1125,582.4137931034479C570,582.4137931034479 570,533.793103448276 15,533.793103448276Z" style="stroke: rgb(68, 68, 68); stroke-opacity: 1; fill: rgb(255, 102, 146); fill-opacity: 0.6; stroke-width: 0; opacity: 1;"/><path class="sankey-link" d="M15,570.5172413793105C570,570.5172413793105 570,480.51724137930955 1125,480.51724137930955L1125,491.37931034482676C570,491.37931034482676 570,581.3793103448277 15,581.3793103448277Z" style="stroke: rgb(68, 68, 68); stroke-opacity: 1; fill: rgb(0, 204, 150); fill-opacity: 0.6; stroke-width: 0; opacity: 1;"/><path class="sankey-link" d="M15,584.4827586206898C570,584.4827586206898 570,688.9655172413788 1125,688.9655172413788L1125,695.172413793103C570,695.172413793103 570,590.689655172414 15,590.689655172414Z" style="stroke: rgb(68, 68, 68); stroke-opacity: 1; fill: rgb(0, 204, 150); fill-opacity: 0.6; stroke-width: 0; opacity: 1;"/><path class="sankey-link" d="M15,556.5517241379312C570,556.5517241379312 570,287.0689655172409 1125,287.0689655172409L1125,301.0344827586202C570,301.0344827586202 570,570.5172413793105 15,570.5172413793105Z" style="stroke: rgb(68, 68, 68); stroke-opacity: 1; fill: rgb(0, 204, 150); fill-opacity: 0.6; stroke-width: 0; opacity: 1;"/><path class="sankey-link" d="M15,581.3793103448277C570,581.3793103448277 570,582.413793103448 1125,582.413793103448L1125,585.5172413793101C570,585.5172413793101 570,584.4827586206898 15,584.4827586206898Z" style="stroke: rgb(68, 68, 68); stroke-opacity: 1; fill: rgb(0, 204, 150); fill-opacity: 0.6; stroke-width: 0; opacity: 1;"/><path class="sankey-link" d="M15,53.793103448276135C570,53.793103448276135 570,361.0344827586199 1125,361.0344827586199L1125,364.137931034482C570,364.137931034482 570,56.8965517241382 15,56.8965517241382Z" style="stroke: rgb(68, 68, 68); stroke-opacity: 1; fill: rgb(171, 99, 250); fill-opacity: 0.6; stroke-width: 0; opacity: 1;"/><path class="sankey-link" d="M15,47.586206896552C570,47.586206896552 570,110.1724137931029 1125,110.1724137931029L1125,116.37931034482703C570,116.37931034482703 570,53.79310344827614 15,53.79310344827614Z" style="stroke: rgb(68, 68, 68); stroke-opacity: 1; fill: rgb(171, 99, 250); fill-opacity: 0.6; stroke-width: 0; opacity: 1;"/></g><g class="sankey-node-set" style="cursor: move;"><g class="sankey-node" transform="translate(1125.000,348.621)" style="opacity: 1;"><rect class="node-rect" width="15" height="175.34482758620732" style="stroke-width: 0.5; stroke: rgb(0, 0, 0); stroke-opacity: 1; fill: rgb(128, 128, 128); fill-opacity: 1;"/><text class="node-label" data-notex="1" x="0" y="0" text-anchor="end" transform="translate(-3.25,91.87241379310366)" style="cursor: default; font-family: 'Open Sans', verdana, arial, sans-serif; font-size: 12px; fill: rgb(42, 63, 95); fill-opacity: 1; white-space: pre; text-shadow: white 1px 1px 1px, white -1px -1px 1px, white 1px -1px 1px, white -1px 1px 1px;">dig</text></g><g class="sankey-node" transform="translate(1125.000,90.000)" style="opacity: 1;"><rect class="node-rect" width="15" height="243.62068965517219" style="stroke-width: 0.5; stroke: rgb(0, 0, 0); stroke-opacity: 1; fill: rgb(128, 128, 128); fill-opacity: 1;"/><text class="node-label" data-notex="1" x="0" y="0" text-anchor="end" transform="translate(-3.25,126.0103448275861)" style="cursor: default; font-family: 'Open Sans', verdana, arial, sans-serif; font-size: 12px; fill: rgb(42, 63, 95); fill-opacity: 1; white-space: pre; text-shadow: white 1px 1px 1px, white -1px -1px 1px, white 1px -1px 1px, white -1px 1px 1px;">move</text></g><g class="sankey-node" transform="translate(1125.000,609.828)" style="opacity: 1;"><rect class="node-rect" width="15" height="110.17241379310383" style="stroke-width: 0.5; stroke: rgb(0, 0, 0); stroke-opacity: 1; fill: rgb(128, 128, 128); fill-opacity: 1;"/><text class="node-label" data-notex="1" x="0" y="0" text-anchor="end" transform="translate(-3.25,59.28620689655192)" style="cursor: default; font-family: 'Open Sans', verdana, arial, sans-serif; font-size: 12px; fill: rgb(42, 63, 95); fill-opacity: 1; white-space: pre; text-shadow: white 1px 1px 1px, white -1px -1px 1px, white 1px -1px 1px, white -1px 1px 1px;">groom</text></g><g class="sankey-node" transform="translate(1125.000,538.966)" style="opacity: 1;"><rect class="node-rect" width="15" height="55.86206896551721" style="stroke-width: 0.5; stroke: rgb(0, 0, 0); stroke-opacity: 1; fill: rgb(128, 128, 128); fill-opacity: 1;"/><text class="node-label" data-notex="1" x="0" y="0" text-anchor="end" transform="translate(-3.25,32.13103448275861)" style="cursor: default; font-family: 'Open Sans', verdana, arial, sans-serif; font-size: 12px; fill: rgb(42, 63, 95); fill-opacity: 1; white-space: pre; text-shadow: white 1px 1px 1px, white -1px -1px 1px, white 1px -1px 1px, white -1px 1px 1px;">still</text></g><g class="sankey-node" transform="translate(0.000,0.000)" style="opacity: 1;"><rect class="node-rect" width="15" height="32.58620689655177" style="stroke-width: 0.5; stroke: rgb(0, 0, 0); stroke-opacity: 1; fill: rgb(99, 110, 250); fill-opacity: 1;"/><text class="node-label" data-notex="1" x="0" y="0" text-anchor="start" transform="translate(18.25,20.493103448275885)" style="cursor: default; font-family: 'Open Sans', verdana, arial, sans-serif; font-size: 12px; fill: rgb(42, 63, 95); fill-opacity: 1; white-space: pre; text-shadow: white 1px 1px 1px, white -1px -1px 1px, white 1px -1px 1px, white -1px 1px 1px;">BLA</text></g><g class="sankey-node" transform="translate(0.000,116.379)" style="opacity: 1;"><rect class="node-rect" width="15" height="62.068965517241395" style="stroke-width: 0.5; stroke: rgb(0, 0, 0); stroke-opacity: 1; fill: rgb(239, 85, 59); fill-opacity: 1;"/><text class="node-label" data-notex="1" x="0" y="0" text-anchor="start" transform="translate(18.25,35.2344827586207)" style="cursor: default; font-family: 'Open Sans', verdana, arial, sans-serif; font-size: 12px; fill: rgb(42, 63, 95); fill-opacity: 1; white-space: pre; text-shadow: white 1px 1px 1px, white -1px -1px 1px, white 1px -1px 1px, white -1px 1px 1px;">LC</text></g><g class="sankey-node" transform="translate(0.000,556.552)" style="opacity: 1;"><rect class="node-rect" width="15" height="34.137931034482676" style="stroke-width: 0.5; stroke: rgb(0, 0, 0); stroke-opacity: 1; fill: rgb(0, 204, 150); fill-opacity: 1;"/><text class="node-label" data-notex="1" x="0" y="0" text-anchor="start" transform="translate(18.25,21.268965517241337)" style="cursor: default; font-family: 'Open Sans', verdana, arial, sans-serif; font-size: 12px; fill: rgb(42, 63, 95); fill-opacity: 1; white-space: pre; text-shadow: white 1px 1px 1px, white -1px -1px 1px, white 1px -1px 1px, white -1px 1px 1px;">dPAG</text></g><g class="sankey-node" transform="translate(0.000,47.586)" style="opacity: 1;"><rect class="node-rect" width="15" height="9.310344827586192" style="stroke-width: 0.5; stroke: rgb(0, 0, 0); stroke-opacity: 1; fill: rgb(171, 99, 250); fill-opacity: 1;"/><text class="node-label" data-notex="1" x="0" y="0" text-anchor="start" transform="translate(18.25,8.855172413793095)" style="cursor: default; font-family: 'Open Sans', verdana, arial, sans-serif; font-size: 12px; fill: rgb(42, 63, 95); fill-opacity: 1; white-space: pre; text-shadow: white 1px 1px 1px, white -1px -1px 1px, white 1px -1px 1px, white -1px 1px 1px;">lHb</text></g><g class="sankey-node" transform="translate(0.000,369.828)" style="opacity: 1;"><rect class="node-rect" width="15" height="105.51724137931035" style="stroke-width: 0.5; stroke: rgb(0, 0, 0); stroke-opacity: 1; fill: rgb(255, 161, 90); fill-opacity: 1;"/><text class="node-label" data-notex="1" x="0" y="0" text-anchor="start" transform="translate(18.25,56.95862068965518)" style="cursor: default; font-family: 'Open Sans', verdana, arial, sans-serif; font-size: 12px; fill: rgb(42, 63, 95); fill-opacity: 1; white-space: pre; text-shadow: white 1px 1px 1px, white -1px -1px 1px, white 1px -1px 1px, white -1px 1px 1px;">Str</text></g><g class="sankey-node" transform="translate(0.000,605.690)" style="opacity: 1;"><rect class="node-rect" width="15" height="69.82758620689663" style="stroke-width: 0.5; stroke: rgb(0, 0, 0); stroke-opacity: 1; fill: rgb(25, 211, 243); fill-opacity: 1;"/><text class="node-label" data-notex="1" x="0" y="0" text-anchor="start" transform="translate(18.25,39.113793103448316)" style="cursor: default; font-family: 'Open Sans', verdana, arial, sans-serif; font-size: 12px; fill: rgb(42, 63, 95); fill-opacity: 1; white-space: pre; text-shadow: white 1px 1px 1px, white -1px -1px 1px, white 1px -1px 1px, white -1px 1px 1px;">Cla</text></g><g class="sankey-node" transform="translate(0.000,490.345)" style="opacity: 1;"><rect class="node-rect" width="15" height="51.20689655172407" style="stroke-width: 0.5; stroke: rgb(0, 0, 0); stroke-opacity: 1; fill: rgb(255, 102, 146); fill-opacity: 1;"/><text class="node-label" data-notex="1" x="0" y="0" text-anchor="start" transform="translate(18.25,29.803448275862035)" style="cursor: default; font-family: 'Open Sans', verdana, arial, sans-serif; font-size: 12px; fill: rgb(42, 63, 95); fill-opacity: 1; white-space: pre; text-shadow: white 1px 1px 1px, white -1px -1px 1px, white 1px -1px 1px, white -1px 1px 1px;">cPFC</text></g><g class="sankey-node" transform="translate(0.000,71.897)" style="opacity: 1;"><rect class="node-rect" width="15" height="29.482758620689708" style="stroke-width: 0.5; stroke: rgb(0, 0, 0); stroke-opacity: 1; fill: rgb(182, 232, 128); fill-opacity: 1;"/><text class="node-label" data-notex="1" x="0" y="0" text-anchor="start" transform="translate(18.25,18.941379310344853)" style="cursor: default; font-family: 'Open Sans', verdana, arial, sans-serif; font-size: 12px; fill: rgb(42, 63, 95); fill-opacity: 1; white-space: pre; text-shadow: white 1px 1px 1px, white -1px -1px 1px, white 1px -1px 1px, white -1px 1px 1px;">NAc</text></g><g class="sankey-node" transform="translate(0.000,193.448)" style="opacity: 1;"><rect class="node-rect" width="15" height="161.37931034482745" style="stroke-width: 0.5; stroke: rgb(0, 0, 0); stroke-opacity: 1; fill: rgb(255, 151, 255); fill-opacity: 1;"/><text class="node-label" data-notex="1" x="0" y="0" text-anchor="start" transform="translate(18.25,84.88965517241373)" style="cursor: default; font-family: 'Open Sans', verdana, arial, sans-serif; font-size: 12px; fill: rgb(42, 63, 95); fill-opacity: 1; white-space: pre; text-shadow: white 1px 1px 1px, white -1px -1px 1px, white 1px -1px 1px, white -1px 1px 1px;">VTA</text></g><g class="sankey-node" transform="translate(0.000,690.517)" style="opacity: 1;"><rect class="node-rect" width="15" height="29.482758620689538" style="stroke-width: 0.5; stroke: rgb(0, 0, 0); stroke-opacity: 1; fill: rgb(254, 203, 82); fill-opacity: 1;"/><text class="node-label" data-notex="1" x="0" y="0" text-anchor="start" transform="translate(18.25,18.941379310344768)" style="cursor: default; font-family: 'Open Sans', verdana, arial, sans-serif; font-size: 12px; fill: rgb(42, 63, 95); fill-opacity: 1; white-space: pre; text-shadow: white 1px 1px 1px, white -1px -1px 1px, white 1px -1px 1px, white -1px 1px 1px;">LHyp</text></g></g></g><defs id="topdefs-f9d0f6"><g class="clips"/></defs><g class="layer-above"><g class="imagelayer"/><g class="shapelayer"/></g><g class="infolayer"><g class="g-gtitle"/><g class="first-render"/></g></svg>