<svg class="main-svg" xmlns="http://www.w3.org/2000/svg" xmlns:xlink="http://www.w3.org/1999/xlink" width="1300" height="900" viewBox="0 0 1300 900" style=""><rect x="0" y="0" width="1300" height="900" style="fill: rgb(255, 255, 255); fill-opacity: 1;"/><defs id="defs-ea726d"><g class="clips"/><g class="gradients"/><g class="patterns"/></defs><g class="bglayer"/><g class="layer-below"><g class="imagelayer"/><g class="shapelayer"/></g><g class="cartesianlayer"/><g class="polarlayer"/><g class="smithlayer"/><g class="ternarylayer"/><g class="geolayer"/><g class="funnelarealayer"/><g class="pielayer"/><g class="iciclelayer"/><g class="treemaplayer"/><g class="sunburstlayer"/><g class="glimages"/><g class="sankey" transform="translate(80,100)matrix(1 0 0 1 0 0)" style="box-sizing: content-box; position: absolute; left: 0px; shape-rendering: geometricprecision; pointer-events: none;"><g class="sankey-links" style="fill: none;"><path class="sankey-link" d="M15,555.4651162790701C570,555.4651162790701 570,641.5116279069766 1125,641.5116279069766L1125,646.046511627907C570,646.046511627907 570,560.0000000000005 15,560.0000000000005Z" style="stroke: rgb(68, 68, 68); stroke-opacity: 1; fill: rgb(25, 211, 243); fill-opacity: 0.6; stroke-width: 0; opacity: 1;"/><path class="sankey-link" d="M15,537.3255813953492C570,537.3255813953492 570,297.2093023255813 1125,297.2093023255813L1125,304.767441860465C570,304.767441860465 570,544.883720930233 15,544.883720930233Z" style="stroke: rgb(68, 68, 68); stroke-opacity: 1; fill: rgb(25, 211, 243); fill-opacity: 0.6; stroke-width: 0; opacity: 1;"/><path class="sankey-link" d="M15,553.9534883720934C570,553.9534883720934 570,564.5348837209301 1125,564.5348837209301L1125,566.046511627907C570,566.046511627907 570,555.4651162790702 15,555.4651162790702Z" style="stroke: rgb(68, 68, 68); stroke-opacity: 1; fill: rgb(25, 211, 243); fill-opacity: 0.6; stroke-width: 0; opacity: 1;"/><path class="sankey-link" d="M15,544.8837209302329C570,544.8837209302329 570,452.7906976744186 1125,452.7906976744186L1125,461.86046511627904C570,461.86046511627904 570,553.9534883720934 15,553.9534883720934Z" style="stroke: rgb(68, 68, 68); stroke-opacity: 1; fill: rgb(25, 211, 243); fill-opacity: 0.6; stroke-width: 0; opacity: 1;"/><path class="sankey-link" d="M15,535.8139534883725C570,535.8139534883725 570,111.62790697674434 1125,111.62790697674434L1125,113.13953488372108C570,113.13953488372108 570,537.3255813953493 15,537.3255813953493Z" style="stroke: rgb(68, 68, 68); stroke-opacity: 1; fill: rgb(25, 211, 243); fill-opacity: 0.6; stroke-width: 0; opacity: 1;"/><path class="sankey-link" d="M15,339.76744186046557C570,339.76744186046557 570,629.4186046511627 1125,629.4186046511627L1125,635.4651162790697C570,635.4651162790697 570,345.81395348837253 15,345.81395348837253Z" style="stroke: rgb(68, 68, 68); stroke-opacity: 1; fill: rgb(99, 110, 250); fill-opacity: 0.6; stroke-width: 0; opacity: 1;"/><path class="sankey-link" d="M15,345.81395348837253C570,345.81395348837253 570,688.2558139534883 1125,688.2558139534883L1125,694.3023255813953C570,694.3023255813953 570,351.8604651162795 15,351.8604651162795Z" style="stroke: rgb(68, 68, 68); stroke-opacity: 1; fill: rgb(99, 110, 250); fill-opacity: 0.6; stroke-width: 0; opacity: 1;"/><path class="sankey-link" d="M15,280.8139534883726C570,280.8139534883726 570,149.30232558139528 1125,149.30232558139528L1125,155.34883720930225C570,155.34883720930225 570,286.86046511627956 15,286.86046511627956Z" style="stroke: rgb(68, 68, 68); stroke-opacity: 1; fill: rgb(99, 110, 250); fill-opacity: 0.6; stroke-width: 0; opacity: 1;"/><path class="sankey-link" d="M15,286.86046511627956C570,286.86046511627956 570,176.3953488372092 1125,176.3953488372092L1125,177.90697674418595C570,177.90697674418595 570,288.3720930232563 15,288.3720930232563Z" style="stroke: rgb(68, 68, 68); stroke-opacity: 1; fill: rgb(99, 110, 250); fill-opacity: 0.6; stroke-width: 0; opacity: 1;"/><path class="sankey-link" d="M15,288.3720930232563C570,288.3720930232563 570,244.30232558139528 1125,244.30232558139528L1125,260.93023255813944C570,260.93023255813944 570,305.00000000000045 15,305.00000000000045Z" style="stroke: rgb(68, 68, 68); stroke-opacity: 1; fill: rgb(99, 110, 250); fill-opacity: 0.6; stroke-width: 0; opacity: 1;"/><path class="sankey-link" d="M15,329.1860465116284C570,329.1860465116284 570,532.7906976744185 1125,532.7906976744185L1125,543.3720930232558C570,543.3720930232558 570,339.76744186046557 15,339.76744186046557Z" style="stroke: rgb(68, 68, 68); stroke-opacity: 1; fill: rgb(99, 110, 250); fill-opacity: 0.6; stroke-width: 0; opacity: 1;"/><path class="sankey-link" d="M15,305.00000000000045C570,305.00000000000045 570,395.3488372093023 1125,395.3488372093023L1125,419.53488372093017C570,419.53488372093017 570,329.1860465116283 15,329.1860465116283Z" style="stroke: rgb(68, 68, 68); stroke-opacity: 1; fill: rgb(99, 110, 250); fill-opacity: 0.6; stroke-width: 0; opacity: 1;"/><path class="sankey-link" d="M15,265.6976744186052C570,265.6976744186052 570,76.86046511627922 1125,76.86046511627922L1125,91.97674418604666C570,91.97674418604666 570,280.8139534883726 15,280.8139534883726Z" style="stroke: rgb(68, 68, 68); stroke-opacity: 1; fill: rgb(99, 110, 250); fill-opacity: 0.6; stroke-width: 0; opacity: 1;"/><path class="sankey-link" d="M15,442.44186046511686C570,442.44186046511686 570,635.4651162790697 1125,635.4651162790697L1125,638.4883720930231C570,638.4883720930231 570,445.46511627907034 15,445.46511627907034Z" style="stroke: rgb(68, 68, 68); stroke-opacity: 1; fill: rgb(239, 85, 59); fill-opacity: 0.6; stroke-width: 0; opacity: 1;"/><path class="sankey-link" d="M15,445.46511627907034C570,445.46511627907034 570,694.3023255813953 1125,694.3023255813953L1125,695.8139534883721C570,695.8139534883721 570,446.9767441860471 15,446.9767441860471Z" style="stroke: rgb(68, 68, 68); stroke-opacity: 1; fill: rgb(239, 85, 59); fill-opacity: 0.6; stroke-width: 0; opacity: 1;"/><path class="sankey-link" d="M15,378.9534883720936C570,378.9534883720936 570,155.34883720930225 1125,155.34883720930225L1125,156.860465116279C570,156.860465116279 570,380.46511627907034 15,380.46511627907034Z" style="stroke: rgb(68, 68, 68); stroke-opacity: 1; fill: rgb(239, 85, 59); fill-opacity: 0.6; stroke-width: 0; opacity: 1;"/><path class="sankey-link" d="M15,380.46511627907034C570,380.46511627907034 570,260.93023255813944 1125,260.93023255813944L1125,285.1162790697673C570,285.1162790697673 570,404.6511627906982 15,404.6511627906982Z" style="stroke: rgb(68, 68, 68); stroke-opacity: 1; fill: rgb(239, 85, 59); fill-opacity: 0.6; stroke-width: 0; opacity: 1;"/><path class="sankey-link" d="M15,427.32558139534945C570,427.32558139534945 570,543.3720930232557 1125,543.3720930232557L1125,558.4883720930231C570,558.4883720930231 570,442.44186046511686 15,442.44186046511686Z" style="stroke: rgb(68, 68, 68); stroke-opacity: 1; fill: rgb(239, 85, 59); fill-opacity: 0.6; stroke-width: 0; opacity: 1;"/><path class="sankey-link" d="M15,404.65116279069827C570,404.65116279069827 570,419.5348837209302 1125,419.5348837209302L1125,442.20930232558135C570,442.20930232558135 570,427.3255813953494 15,427.3255813953494Z" style="stroke: rgb(68, 68, 68); stroke-opacity: 1; fill: rgb(239, 85, 59); fill-opacity: 0.6; stroke-width: 0; opacity: 1;"/><path class="sankey-link" d="M15,366.86046511627967C570,366.86046511627967 570,91.97674418604666 1125,91.97674418604666L1125,104.06976744186062C570,104.06976744186062 570,378.9534883720936 15,378.9534883720936Z" style="stroke: rgb(68, 68, 68); stroke-opacity: 1; fill: rgb(239, 85, 59); fill-opacity: 0.6; stroke-width: 0; opacity: 1;"/><path class="sankey-link" d="M15,710.9302325581397C570,710.9302325581397 570,665.6976744186045 1125,665.6976744186045L1125,670.2325581395348C570,670.2325581395348 570,715.46511627907 15,715.46511627907Z" style="stroke: rgb(68, 68, 68); stroke-opacity: 1; fill: rgb(254, 203, 82); fill-opacity: 0.6; stroke-width: 0; opacity: 1;"/><path class="sankey-link" d="M15,715.4651162790699C570,715.4651162790699 570,715.4651162790697 1125,715.4651162790697L1125,720C570,720 570,720.0000000000002 15,720.0000000000002Z" style="stroke: rgb(68, 68, 68); stroke-opacity: 1; fill: rgb(254, 203, 82); fill-opacity: 0.6; stroke-width: 0; opacity: 1;"/><path class="sankey-link" d="M15,694.3023255813955C570,694.3023255813955 570,328.9534883720929 1125,328.9534883720929L1125,338.02325581395337C570,338.02325581395337 570,703.372093023256 15,703.372093023256Z" style="stroke: rgb(68, 68, 68); stroke-opacity: 1; fill: rgb(254, 203, 82); fill-opacity: 0.6; stroke-width: 0; opacity: 1;"/><path class="sankey-link" d="M15,704.8837209302327C570,704.8837209302327 570,578.1395348837208 1125,578.1395348837208L1125,584.1860465116278C570,584.1860465116278 570,710.9302325581397 15,710.9302325581397Z" style="stroke: rgb(68, 68, 68); stroke-opacity: 1; fill: rgb(254, 203, 82); fill-opacity: 0.6; stroke-width: 0; opacity: 1;"/><path class="sankey-link" d="M15,703.372093023256C570,703.372093023256 570,489.06976744186045 1125,489.06976744186045L1125,490.5813953488372C570,490.5813953488372 570,704.8837209302328 15,704.8837209302328Z" style="stroke: rgb(68, 68, 68); stroke-opacity: 1; fill: rgb(254, 203, 82); fill-opacity: 0.6; stroke-width: 0; opacity: 1;"/><path class="sankey-link" d="M15,237.0930232558145C570,237.0930232558145 570,618.8372093023255 1125,618.8372093023255L1125,629.4186046511628C570,629.4186046511628 570,247.6744186046517 15,247.6744186046517Z" style="stroke: rgb(68, 68, 68); stroke-opacity: 1; fill: rgb(171, 99, 250); fill-opacity: 0.6; stroke-width: 0; opacity: 1;"/><path class="sankey-link" d="M15,247.67441860465172C570,247.67441860465172 570,685.2325581395348 1125,685.2325581395348L1125,688.2558139534883C570,688.2558139534883 570,250.6976744186052 15,250.6976744186052Z" style="stroke: rgb(68, 68, 68); stroke-opacity: 1; fill: rgb(171, 99, 250); fill-opacity: 0.6; stroke-width: 0; opacity: 1;"/><path class="sankey-link" d="M15,196.2790697674424C570,196.2790697674424 570,138.72093023255806 1125,138.72093023255806L1125,149.30232558139525C570,149.30232558139525 570,206.86046511627958 15,206.86046511627958Z" style="stroke: rgb(68, 68, 68); stroke-opacity: 1; fill: rgb(171, 99, 250); fill-opacity: 0.6; stroke-width: 0; opacity: 1;"/><path class="sankey-link" d="M15,206.8604651162796C570,206.8604651162796 570,174.88372093023247 1125,174.88372093023247L1125,176.3953488372092C570,176.3953488372092 570,208.37209302325635 15,208.37209302325635Z" style="stroke: rgb(68, 68, 68); stroke-opacity: 1; fill: rgb(171, 99, 250); fill-opacity: 0.6; stroke-width: 0; opacity: 1;"/><path class="sankey-link" d="M15,208.37209302325635C570,208.37209302325635 570,235.2325581395348 1125,235.2325581395348L1125,244.30232558139525C570,244.30232558139525 570,217.4418604651168 15,217.4418604651168Z" style="stroke: rgb(68, 68, 68); stroke-opacity: 1; fill: rgb(171, 99, 250); fill-opacity: 0.6; stroke-width: 0; opacity: 1;"/><path class="sankey-link" d="M15,229.5348837209308C570,229.5348837209308 570,525.2325581395348 1125,525.2325581395348L1125,532.7906976744187C570,532.7906976744187 570,237.0930232558145 15,237.0930232558145Z" style="stroke: rgb(68, 68, 68); stroke-opacity: 1; fill: rgb(171, 99, 250); fill-opacity: 0.6; stroke-width: 0; opacity: 1;"/><path class="sankey-link" d="M15,217.44186046511683C570,217.44186046511683 570,383.25581395348837 1125,383.25581395348837L1125,395.3488372093023C570,395.3488372093023 570,229.53488372093076 15,229.53488372093076Z" style="stroke: rgb(68, 68, 68); stroke-opacity: 1; fill: rgb(171, 99, 250); fill-opacity: 0.6; stroke-width: 0; opacity: 1;"/><path class="sankey-link" d="M15,184.18604651162843C570,184.18604651162843 570,64.76744186046525 1125,64.76744186046525L1125,76.86046511627922C570,76.86046511627922 570,196.27906976744237 15,196.27906976744237Z" style="stroke: rgb(68, 68, 68); stroke-opacity: 1; fill: rgb(171, 99, 250); fill-opacity: 0.6; stroke-width: 0; opacity: 1;"/><path class="sankey-link" d="M15,102.79069767441901C570,102.79069767441901 570,599.1860465116279 1125,599.1860465116279L1125,615.8139534883721C570,615.8139534883721 570,119.4186046511632 15,119.4186046511632Z" style="stroke: rgb(68, 68, 68); stroke-opacity: 1; fill: rgb(0, 204, 150); fill-opacity: 0.6; stroke-width: 0; opacity: 1;"/><path class="sankey-link" d="M15,27.209302325581795C570,27.209302325581795 570,131.16279069767435 1125,131.16279069767435L1125,137.20930232558132C570,137.20930232558132 570,33.255813953488776 15,33.255813953488776Z" style="stroke: rgb(68, 68, 68); stroke-opacity: 1; fill: rgb(0, 204, 150); fill-opacity: 0.6; stroke-width: 0; opacity: 1;"/><path class="sankey-link" d="M15,33.25581395348877C570,33.25581395348877 570,192.90697674418595 1125,192.90697674418595L1125,224.65116279069758C570,224.65116279069758 570,65.0000000000004 15,65.0000000000004Z" style="stroke: rgb(68, 68, 68); stroke-opacity: 1; fill: rgb(0, 204, 150); fill-opacity: 0.6; stroke-width: 0; opacity: 1;"/><path class="sankey-link" d="M15,87.67441860465156C570,87.67441860465156 570,505.5813953488372 1125,505.5813953488372L1125,520.6976744186046C570,520.6976744186046 570,102.79069767441901 15,102.79069767441901Z" style="stroke: rgb(68, 68, 68); stroke-opacity: 1; fill: rgb(0, 204, 150); fill-opacity: 0.6; stroke-width: 0; opacity: 1;"/><path class="sankey-link" d="M15,65.0000000000004C570,65.0000000000004 570,353.0232558139535 1125,353.0232558139535L1125,375.6976744186046C570,375.6976744186046 570,87.67441860465155 15,87.67441860465155Z" style="stroke: rgb(68, 68, 68); stroke-opacity: 1; fill: rgb(0, 204, 150); fill-opacity: 0.6; stroke-width: 0; opacity: 1;"/><path class="sankey-link" d="M15,3.979039320256561e-13C570,3.979039320256561e-13 570,30.000000000000146 1125,30.000000000000146L1125,57.20930232558155C570,57.20930232558155 570,27.209302325581795 15,27.209302325581795Z" style="stroke: rgb(68, 68, 68); stroke-opacity: 1; fill: rgb(0, 204, 150); fill-opacity: 0.6; stroke-width: 0; opacity: 1;"/><path class="sankey-link" d="M15,644.5348837209305C570,644.5348837209305 570,646.0465116279069 1125,646.0465116279069L1125,665.6976744186046C570,665.6976744186046 570,664.1860465116282 15,664.1860465116282Z" style="stroke: rgb(68, 68, 68); stroke-opacity: 1; fill: rgb(255, 161, 90); fill-opacity: 0.6; stroke-width: 0; opacity: 1;"/><path class="sankey-link" d="M15,664.1860465116281C570,664.1860465116281 570,700.3488372093022 1125,700.3488372093022L1125,715.4651162790697C570,715.4651162790697 570,679.3023255813955 15,679.3023255813955Z" style="stroke: rgb(68, 68, 68); stroke-opacity: 1; fill: rgb(255, 161, 90); fill-opacity: 0.6; stroke-width: 0; opacity: 1;"/><path class="sankey-link" d="M15,578.0232558139538C570,578.0232558139538 570,156.860465116279 1125,156.860465116279L1125,159.88372093023247C570,159.88372093023247 570,581.0465116279073 15,581.0465116279073Z" style="stroke: rgb(68, 68, 68); stroke-opacity: 1; fill: rgb(255, 161, 90); fill-opacity: 0.6; stroke-width: 0; opacity: 1;"/><path class="sankey-link" d="M15,581.0465116279073C570,581.0465116279073 570,304.767441860465 1125,304.767441860465L1125,328.95348837209286C570,328.95348837209286 570,605.2325581395352 15,605.2325581395352Z" style="stroke: rgb(68, 68, 68); stroke-opacity: 1; fill: rgb(255, 161, 90); fill-opacity: 0.6; stroke-width: 0; opacity: 1;"/><path class="sankey-link" d="M15,632.4418604651165C570,632.4418604651165 570,566.0465116279069 1125,566.0465116279069L1125,578.1395348837208C570,578.1395348837208 570,644.5348837209305 15,644.5348837209305Z" style="stroke: rgb(68, 68, 68); stroke-opacity: 1; fill: rgb(255, 161, 90); fill-opacity: 0.6; stroke-width: 0; opacity: 1;"/><path class="sankey-link" d="M15,605.2325581395352C570,605.2325581395352 570,461.86046511627904 1125,461.86046511627904L1125,489.0697674418604C570,489.0697674418604 570,632.4418604651165 15,632.4418604651165Z" style="stroke: rgb(68, 68, 68); stroke-opacity: 1; fill: rgb(255, 161, 90); fill-opacity: 0.6; stroke-width: 0; opacity: 1;"/><path class="sankey-link" d="M15,575.0000000000003C570,575.0000000000003 570,113.13953488372108 1125,113.13953488372108L1125,116.16279069767457C570,116.16279069767457 570,578.0232558139538 15,578.0232558139538Z" style="stroke: rgb(68, 68, 68); stroke-opacity: 1; fill: rgb(255, 161, 90); fill-opacity: 0.6; stroke-width: 0; opacity: 1;"/><path class="sankey-link" d="M15,513.255813953489C570,513.255813953489 570,638.4883720930231 1125,638.4883720930231L1125,641.5116279069766C570,641.5116279069766 570,516.2790697674425 15,516.2790697674425Z" style="stroke: rgb(68, 68, 68); stroke-opacity: 1; fill: rgb(255, 151, 255); fill-opacity: 0.6; stroke-width: 0; opacity: 1;"/><path class="sankey-link" d="M15,516.2790697674425C570,516.2790697674425 570,695.813953488372 1125,695.813953488372L1125,700.3488372093024C570,700.3488372093024 570,520.8139534883728 15,520.8139534883728Z" style="stroke: rgb(68, 68, 68); stroke-opacity: 1; fill: rgb(255, 151, 255); fill-opacity: 0.6; stroke-width: 0; opacity: 1;"/><path class="sankey-link" d="M15,487.5581395348844C570,487.5581395348844 570,285.11627906976736 1125,285.11627906976736L1125,297.2093023255813C570,297.2093023255813 570,499.6511627906983 15,499.6511627906983Z" style="stroke: rgb(68, 68, 68); stroke-opacity: 1; fill: rgb(255, 151, 255); fill-opacity: 0.6; stroke-width: 0; opacity: 1;"/><path class="sankey-link" d="M15,508.72093023255877C570,508.72093023255877 570,559.9999999999999 1125,559.9999999999999L1125,564.5348837209302C570,564.5348837209302 570,513.255813953489 15,513.255813953489Z" style="stroke: rgb(68, 68, 68); stroke-opacity: 1; fill: rgb(255, 151, 255); fill-opacity: 0.6; stroke-width: 0; opacity: 1;"/><path class="sankey-link" d="M15,499.6511627906983C570,499.6511627906983 570,443.72093023255815 1125,443.72093023255815L1125,452.7906976744186C570,452.7906976744186 570,508.72093023255877 15,508.72093023255877Z" style="stroke: rgb(68, 68, 68); stroke-opacity: 1; fill: rgb(255, 151, 255); fill-opacity: 0.6; stroke-width: 0; opacity: 1;"/><path class="sankey-link" d="M15,481.5116279069774C570,481.5116279069774 570,105.58139534883736 1125,105.58139534883736L1125,111.62790697674433C570,111.62790697674433 570,487.5581395348844 15,487.5581395348844Z" style="stroke: rgb(68, 68, 68); stroke-opacity: 1; fill: rgb(255, 151, 255); fill-opacity: 0.6; stroke-width: 0; opacity: 1;"/><path class="sankey-link" d="M15,166.16279069767486C570,166.16279069767486 570,615.813953488372 1125,615.813953488372L1125,618.8372093023255C570,618.8372093023255 570,169.18604651162835 15,169.18604651162835Z" style="stroke: rgb(68, 68, 68); stroke-opacity: 1; fill: rgb(255, 102, 146); fill-opacity: 0.6; stroke-width: 0; opacity: 1;"/><path class="sankey-link" d="M15,141.97674418604697C570,141.97674418604697 570,137.20930232558132 1125,137.20930232558132L1125,138.72093023255806C570,138.72093023255806 570,143.4883720930237 15,143.4883720930237Z" style="stroke: rgb(68, 68, 68); stroke-opacity: 1; fill: rgb(255, 102, 146); fill-opacity: 0.6; stroke-width: 0; opacity: 1;"/><path class="sankey-link" d="M15,143.4883720930237C570,143.4883720930237 570,224.65116279069758 1125,224.65116279069758L1125,235.23255813953477C570,235.23255813953477 570,154.0697674418609 15,154.0697674418609Z" style="stroke: rgb(68, 68, 68); stroke-opacity: 1; fill: rgb(255, 102, 146); fill-opacity: 0.6; stroke-width: 0; opacity: 1;"/><path class="sankey-link" d="M15,161.62790697674464C570,161.62790697674464 570,520.6976744186046 1125,520.6976744186046L1125,525.232558139535C570,525.232558139535 570,166.16279069767486 15,166.16279069767486Z" style="stroke: rgb(68, 68, 68); stroke-opacity: 1; fill: rgb(255, 102, 146); fill-opacity: 0.6; stroke-width: 0; opacity: 1;"/><path class="sankey-link" d="M15,154.06976744186093C570,154.06976744186093 570,375.69767441860466 1125,375.69767441860466L1125,383.25581395348837C570,383.25581395348837 570,161.62790697674464 15,161.62790697674464Z" style="stroke: rgb(68, 68, 68); stroke-opacity: 1; fill: rgb(255, 102, 146); fill-opacity: 0.6; stroke-width: 0; opacity: 1;"/><path class="sankey-link" d="M15,134.41860465116326C570,134.41860465116326 570,57.20930232558154 1125,57.20930232558154L1125,64.76744186046525C570,64.76744186046525 570,141.97674418604697 15,141.97674418604697Z" style="stroke: rgb(68, 68, 68); stroke-opacity: 1; fill: rgb(255, 102, 146); fill-opacity: 0.6; stroke-width: 0; opacity: 1;"/><path class="sankey-link" d="M15,465.00000000000057C570,465.00000000000057 570,558.4883720930231 1125,558.4883720930231L1125,560C570,560 570,466.5116279069773 15,466.5116279069773Z" style="stroke: rgb(68, 68, 68); stroke-opacity: 1; fill: rgb(182, 232, 128); fill-opacity: 0.6; stroke-width: 0; opacity: 1;"/><path class="sankey-link" d="M15,463.4883720930238C570,463.4883720930238 570,442.2093023255814 1125,442.2093023255814L1125,443.72093023255815C570,443.72093023255815 570,465.00000000000057 15,465.00000000000057Z" style="stroke: rgb(68, 68, 68); stroke-opacity: 1; fill: rgb(182, 232, 128); fill-opacity: 0.6; stroke-width: 0; opacity: 1;"/><path class="sankey-link" d="M15,461.9767441860471C570,461.9767441860471 570,104.06976744186062 1125,104.06976744186062L1125,105.58139534883736C570,105.58139534883736 570,463.4883720930238 15,463.4883720930238Z" style="stroke: rgb(68, 68, 68); stroke-opacity: 1; fill: rgb(182, 232, 128); fill-opacity: 0.6; stroke-width: 0; opacity: 1;"/></g><g class="sankey-node-set" style="cursor: move;"><g class="sankey-node" transform="translate(1125.000,599.186)" style="opacity: 1;"><rect class="node-rect" width="15" height="71.04651162790697" style="stroke-width: 0.5; stroke: rgb(0, 0, 0); stroke-opacity: 1; fill: rgb(128, 128, 128); fill-opacity: 1;"/><text class="node-label" data-notex="1" x="0" y="0" text-anchor="end" transform="translate(-3.25,39.723255813953486)" style="cursor: default; font-family: 'Open Sans', verdana, arial, sans-serif; font-size: 12px; fill: rgb(42, 63, 95); fill-opacity: 1; white-space: pre; text-shadow: white 1px 1px 1px, white -1px -1px 1px, white 1px -1px 1px, white -1px 1px 1px;">attacking</text></g><g class="sankey-node" transform="translate(1125.000,131.163)" style="opacity: 1;"><rect class="node-rect" width="15" height="28.720930232558118" style="stroke-width: 0.5; stroke: rgb(0, 0, 0); stroke-opacity: 1; fill: rgb(128, 128, 128); fill-opacity: 1;"/><text class="node-label" data-notex="1" x="0" y="0" text-anchor="end" transform="translate(-3.25,18.560465116279058)" style="cursor: default; font-family: 'Open Sans', verdana, arial, sans-serif; font-size: 12px; fill: rgb(42, 63, 95); fill-opacity: 1; white-space: pre; text-shadow: white 1px 1px 1px, white -1px -1px 1px, white 1px -1px 1px, white -1px 1px 1px;">dig</text></g><g class="sankey-node" transform="translate(1125.000,174.884)" style="opacity: 1;"><rect class="node-rect" width="15" height="3.023255813953483" style="stroke-width: 0.5; stroke: rgb(0, 0, 0); stroke-opacity: 1; fill: rgb(128, 128, 128); fill-opacity: 1;"/><text class="node-label" data-notex="1" x="0" y="0" text-anchor="end" transform="translate(-3.25,5.711627906976741)" style="cursor: default; font-family: 'Open Sans', verdana, arial, sans-serif; font-size: 12px; fill: rgb(42, 63, 95); fill-opacity: 1; white-space: pre; text-shadow: white 1px 1px 1px, white -1px -1px 1px, white 1px -1px 1px, white -1px 1px 1px;">groom</text></g><g class="sankey-node" transform="translate(1125.000,192.907)" style="opacity: 1;"><rect class="node-rect" width="15" height="145.11627906976753" style="stroke-width: 0.5; stroke: rgb(0, 0, 0); stroke-opacity: 1; fill: rgb(128, 128, 128); fill-opacity: 1;"/><text class="node-label" data-notex="1" x="0" y="0" text-anchor="end" transform="translate(-3.25,76.75813953488377)" style="cursor: default; font-family: 'Open Sans', verdana, arial, sans-serif; font-size: 12px; fill: rgb(42, 63, 95); fill-opacity: 1; white-space: pre; text-shadow: white 1px 1px 1px, white -1px -1px 1px, white 1px -1px 1px, white -1px 1px 1px;">move</text></g><g class="sankey-node" transform="translate(1125.000,505.581)" style="opacity: 1;"><rect class="node-rect" width="15" height="78.60465116279067" style="stroke-width: 0.5; stroke: rgb(0, 0, 0); stroke-opacity: 1; fill: rgb(128, 128, 128); fill-opacity: 1;"/><text class="node-label" data-notex="1" x="0" y="0" text-anchor="end" transform="translate(-3.25,43.50232558139534)" style="cursor: default; font-family: 'Open Sans', verdana, arial, sans-serif; font-size: 12px; fill: rgb(42, 63, 95); fill-opacity: 1; white-space: pre; text-shadow: white 1px 1px 1px, white -1px -1px 1px, white 1px -1px 1px, white -1px 1px 1px;">sniff</text></g><g class="sankey-node" transform="translate(1125.000,353.023)" style="opacity: 1;"><rect class="node-rect" width="15" height="137.5581395348837" style="stroke-width: 0.5; stroke: rgb(0, 0, 0); stroke-opacity: 1; fill: rgb(128, 128, 128); fill-opacity: 1;"/><text class="node-label" data-notex="1" x="0" y="0" text-anchor="end" transform="translate(-3.25,72.97906976744186)" style="cursor: default; font-family: 'Open Sans', verdana, arial, sans-serif; font-size: 12px; fill: rgb(42, 63, 95); fill-opacity: 1; white-space: pre; text-shadow: white 1px 1px 1px, white -1px -1px 1px, white 1px -1px 1px, white -1px 1px 1px;">social</text></g><g class="sankey-node" transform="translate(1125.000,30.000)" style="opacity: 1;"><rect class="node-rect" width="15" height="86.16279069767421" style="stroke-width: 0.5; stroke: rgb(0, 0, 0); stroke-opacity: 1; fill: rgb(128, 128, 128); fill-opacity: 1;"/><text class="node-label" data-notex="1" x="0" y="0" text-anchor="end" transform="translate(-3.25,47.28139534883711)" style="cursor: default; font-family: 'Open Sans', verdana, arial, sans-serif; font-size: 12px; fill: rgb(42, 63, 95); fill-opacity: 1; white-space: pre; text-shadow: white 1px 1px 1px, white -1px -1px 1px, white 1px -1px 1px, white -1px 1px 1px;">still</text></g><g class="sankey-node" transform="translate(1125.000,685.233)" style="opacity: 1;"><rect class="node-rect" width="15" height="34.76744186046517" style="stroke-width: 0.5; stroke: rgb(0, 0, 0); stroke-opacity: 1; fill: rgb(128, 128, 128); fill-opacity: 1;"/><text class="node-label" data-notex="1" x="0" y="0" text-anchor="end" transform="translate(-3.25,21.583720930232584)" style="cursor: default; font-family: 'Open Sans', verdana, arial, sans-serif; font-size: 12px; fill: rgb(42, 63, 95); fill-opacity: 1; white-space: pre; text-shadow: white 1px 1px 1px, white -1px -1px 1px, white 1px -1px 1px, white -1px 1px 1px;">being_attack</text></g><g class="sankey-node" transform="translate(0.000,265.698)" style="opacity: 1;"><rect class="node-rect" width="15" height="86.1627906976745" style="stroke-width: 0.5; stroke: rgb(0, 0, 0); stroke-opacity: 1; fill: rgb(99, 110, 250); fill-opacity: 1;"/><text class="node-label" data-notex="1" x="0" y="0" text-anchor="start" transform="translate(18.25,47.28139534883725)" style="cursor: default; font-family: 'Open Sans', verdana, arial, sans-serif; font-size: 12px; fill: rgb(42, 63, 95); fill-opacity: 1; white-space: pre; text-shadow: white 1px 1px 1px, white -1px -1px 1px, white 1px -1px 1px, white -1px 1px 1px;">Cla</text></g><g class="sankey-node" transform="translate(0.000,366.860)" style="opacity: 1;"><rect class="node-rect" width="15" height="80.11627906976742" style="stroke-width: 0.5; stroke: rgb(0, 0, 0); stroke-opacity: 1; fill: rgb(239, 85, 59); fill-opacity: 1;"/><text class="node-label" data-notex="1" x="0" y="0" text-anchor="start" transform="translate(18.25,44.25813953488371)" style="cursor: default; font-family: 'Open Sans', verdana, arial, sans-serif; font-size: 12px; fill: rgb(42, 63, 95); fill-opacity: 1; white-space: pre; text-shadow: white 1px 1px 1px, white -1px -1px 1px, white 1px -1px 1px, white -1px 1px 1px;">LC</text></g><g class="sankey-node" transform="translate(0.000,0.000)" style="opacity: 1;"><rect class="node-rect" width="15" height="119.41860465116287" style="stroke-width: 0.5; stroke: rgb(0, 0, 0); stroke-opacity: 1; fill: rgb(0, 204, 150); fill-opacity: 1;"/><text class="node-label" data-notex="1" x="0" y="0" text-anchor="start" transform="translate(18.25,63.909302325581436)" style="cursor: default; font-family: 'Open Sans', verdana, arial, sans-serif; font-size: 12px; fill: rgb(42, 63, 95); fill-opacity: 1; white-space: pre; text-shadow: white 1px 1px 1px, white -1px -1px 1px, white 1px -1px 1px, white -1px 1px 1px;">Str</text></g><g class="sankey-node" transform="translate(0.000,184.186)" style="opacity: 1;"><rect class="node-rect" width="15" height="66.51162790697674" style="stroke-width: 0.5; stroke: rgb(0, 0, 0); stroke-opacity: 1; fill: rgb(171, 99, 250); fill-opacity: 1;"/><text class="node-label" data-notex="1" x="0" y="0" text-anchor="start" transform="translate(18.25,37.455813953488374)" style="cursor: default; font-family: 'Open Sans', verdana, arial, sans-serif; font-size: 12px; fill: rgb(42, 63, 95); fill-opacity: 1; white-space: pre; text-shadow: white 1px 1px 1px, white -1px -1px 1px, white 1px -1px 1px, white -1px 1px 1px;">NAc</text></g><g class="sankey-node" transform="translate(0.000,575.000)" style="opacity: 1;"><rect class="node-rect" width="15" height="104.30232558139517" style="stroke-width: 0.5; stroke: rgb(0, 0, 0); stroke-opacity: 1; fill: rgb(255, 161, 90); fill-opacity: 1;"/><text class="node-label" data-notex="1" x="0" y="0" text-anchor="start" transform="translate(18.25,56.351162790697586)" style="cursor: default; font-family: 'Open Sans', verdana, arial, sans-serif; font-size: 12px; fill: rgb(42, 63, 95); fill-opacity: 1; white-space: pre; text-shadow: white 1px 1px 1px, white -1px -1px 1px, white 1px -1px 1px, white -1px 1px 1px;">VTA</text></g><g class="sankey-node" transform="translate(0.000,535.814)" style="opacity: 1;"><rect class="node-rect" width="15" height="24.186046511627865" style="stroke-width: 0.5; stroke: rgb(0, 0, 0); stroke-opacity: 1; fill: rgb(25, 211, 243); fill-opacity: 1;"/><text class="node-label" data-notex="1" x="0" y="0" text-anchor="start" transform="translate(18.25,16.29302325581393)" style="cursor: default; font-family: 'Open Sans', verdana, arial, sans-serif; font-size: 12px; fill: rgb(42, 63, 95); fill-opacity: 1; white-space: pre; text-shadow: white 1px 1px 1px, white -1px -1px 1px, white 1px -1px 1px, white -1px 1px 1px;">BLA</text></g><g class="sankey-node" transform="translate(0.000,134.419)" style="opacity: 1;"><rect class="node-rect" width="15" height="34.76744186046517" style="stroke-width: 0.5; stroke: rgb(0, 0, 0); stroke-opacity: 1; fill: rgb(255, 102, 146); fill-opacity: 1;"/><text class="node-label" data-notex="1" x="0" y="0" text-anchor="start" transform="translate(18.25,21.583720930232584)" style="cursor: default; font-family: 'Open Sans', verdana, arial, sans-serif; font-size: 12px; fill: rgb(42, 63, 95); fill-opacity: 1; white-space: pre; text-shadow: white 1px 1px 1px, white -1px -1px 1px, white 1px -1px 1px, white -1px 1px 1px;">dPAG</text></g><g class="sankey-node" transform="translate(0.000,461.977)" style="opacity: 1;"><rect class="node-rect" width="15" height="4.534883720930338" style="stroke-width: 0.5; stroke: rgb(0, 0, 0); stroke-opacity: 1; fill: rgb(182, 232, 128); fill-opacity: 1;"/><text class="node-label" data-notex="1" x="0" y="0" text-anchor="start" transform="translate(18.25,6.4674418604651684)" style="cursor: default; font-family: 'Open Sans', verdana, arial, sans-serif; font-size: 12px; fill: rgb(42, 63, 95); fill-opacity: 1; white-space: pre; text-shadow: white 1px 1px 1px, white -1px -1px 1px, white 1px -1px 1px, white -1px 1px 1px;">lHb</text></g><g class="sankey-node" transform="translate(0.000,481.512)" style="opacity: 1;"><rect class="node-rect" width="15" height="39.30232558139505" style="stroke-width: 0.5; stroke: rgb(0, 0, 0); stroke-opacity: 1; fill: rgb(255, 151, 255); fill-opacity: 1;"/><text class="node-label" data-notex="1" x="0" y="0" text-anchor="start" transform="translate(18.25,23.851162790697526)" style="cursor: default; font-family: 'Open Sans', verdana, arial, sans-serif; font-size: 12px; fill: rgb(42, 63, 95); fill-opacity: 1; white-space: pre; text-shadow: white 1px 1px 1px, white -1px -1px 1px, white 1px -1px 1px, white -1px 1px 1px;">cPFC</text></g><g class="sankey-node" transform="translate(0.000,694.302)" style="opacity: 1;"><rect class="node-rect" width="15" height="25.697674418604493" style="stroke-width: 0.5; stroke: rgb(0, 0, 0); stroke-opacity: 1; fill: rgb(254, 203, 82); fill-opacity: 1;"/><text class="node-label" data-notex="1" x="0" y="0" text-anchor="start" transform="translate(18.25,17.048837209302246)" style="cursor: default; font-family: 'Open Sans', verdana, arial, sans-serif; font-size: 12px; fill: rgb(42, 63, 95); fill-opacity: 1; white-space: pre; text-shadow: white 1px 1px 1px, white -1px -1px 1px, white 1px -1px 1px, white -1px 1px 1px;">LHyp</text></g></g></g><defs id="topdefs-ea726d"><g class="clips"/></defs><g class="layer-above"><g class="imagelayer"/><g class="shapelayer"/></g><g class="infolayer"><g class="g-gtitle"/><g class="first-render"/></g></svg>