<svg class="main-svg" xmlns="http://www.w3.org/2000/svg" xmlns:xlink="http://www.w3.org/1999/xlink" width="1300" height="900" style="" viewBox="0 0 1300 900"><rect x="0" y="0" width="1300" height="900" style="fill: rgb(255, 255, 255); fill-opacity: 1;"/><defs id="defs-2dcec1"><g class="clips"/><g class="gradients"/><g class="patterns"/></defs><g class="bglayer"/><g class="layer-below"><g class="imagelayer"/><g class="shapelayer"/></g><g class="cartesianlayer"/><g class="polarlayer"/><g class="smithlayer"/><g class="ternarylayer"/><g class="geolayer"/><g class="funnelarealayer"/><g class="pielayer"/><g class="iciclelayer"/><g class="treemaplayer"/><g class="sunburstlayer"/><g class="glimages"/><g class="sankey" transform="translate(80,100)matrix(1 0 0 1 0 0)" style="box-sizing: content-box; position: absolute; left: 0px; shape-rendering: geometricprecision; pointer-events: none;"><g class="sankey-links" style="fill: none;"><path class="sankey-link" d="M15,678.8709677419354C379.95000000000005,678.8709677419354 379.95000000000005,58.122580645161314 744.9000000000001,58.122580645161314L744.9000000000001,59.864516129032275C379.95000000000005,59.864516129032275 379.95000000000005,680.6129032258063 15,680.6129032258063Z" style="stroke: rgb(68, 68, 68); stroke-opacity: 1; fill: rgb(25, 211, 243); fill-opacity: 0.6; stroke-width: 0; opacity: 1;"/><path class="sankey-link" d="M15,682.3548387096773C570,682.3548387096773 570,351.9677419354839 1125,351.9677419354839L1125,355.45161290322585C570,355.45161290322585 570,685.8387096774193 15,685.8387096774193Z" style="stroke: rgb(68, 68, 68); stroke-opacity: 1; fill: rgb(25, 211, 243); fill-opacity: 0.6; stroke-width: 0; opacity: 1;"/><path class="sankey-link" d="M15,685.8387096774193C570,685.8387096774193 570,500.41935483870986 1125,500.41935483870986L1125,503.9032258064518C570,503.9032258064518 570,689.3225806451612 15,689.3225806451612Z" style="stroke: rgb(68, 68, 68); stroke-opacity: 1; fill: rgb(25, 211, 243); fill-opacity: 0.6; stroke-width: 0; opacity: 1;"/><path class="sankey-link" d="M15,694.5483870967741C570,694.5483870967741 570,648.8709677419357 1125,648.8709677419357L1125,652.3548387096777C570,652.3548387096777 570,698.0322580645161 15,698.0322580645161Z" style="stroke: rgb(68, 68, 68); stroke-opacity: 1; fill: rgb(25, 211, 243); fill-opacity: 0.6; stroke-width: 0; opacity: 1;"/><path class="sankey-link" d="M15,698.0322580645161C570,698.0322580645161 570,676.0645161290324 1125,676.0645161290324L1125,677.8064516129034C570,677.8064516129034 570,699.7741935483871 15,699.7741935483871Z" style="stroke: rgb(68, 68, 68); stroke-opacity: 1; fill: rgb(25, 211, 243); fill-opacity: 0.6; stroke-width: 0; opacity: 1;"/><path class="sankey-link" d="M15,689.3225806451612C570,689.3225806451612 570,600.7741935483874 1125,600.7741935483874L1125,606.0000000000003C570,606.0000000000003 570,694.5483870967741 15,694.5483870967741Z" style="stroke: rgb(68, 68, 68); stroke-opacity: 1; fill: rgb(25, 211, 243); fill-opacity: 0.6; stroke-width: 0; opacity: 1;"/><path class="sankey-link" d="M15,680.6129032258063C570,680.6129032258063 570,241.1612903225807 1125,241.1612903225807L1125,242.90322580645167C570,242.90322580645167 570,682.3548387096773 15,682.3548387096773Z" style="stroke: rgb(68, 68, 68); stroke-opacity: 1; fill: rgb(25, 211, 243); fill-opacity: 0.6; stroke-width: 0; opacity: 1;"/><path class="sankey-link" d="M383.70000000000005,-23.504516129032318C564.3000000000001,-23.504516129032318 564.3000000000001,12.832258064516147 744.9000000000001,12.832258064516147L744.9000000000001,21.541935483870986C564.3000000000001,21.541935483870986 564.3000000000001,-14.794838709677478 383.70000000000005,-14.794838709677478Z" style="stroke: rgb(68, 68, 68); stroke-opacity: 1; fill: rgb(99, 110, 250); fill-opacity: 0.6; stroke-width: 0; opacity: 1;"/><path class="sankey-link" d="M383.70000000000005,-14.79483870967748C754.35,-14.79483870967748 754.35,42.87096774193557 1125,42.87096774193557L1125,48.09677419354847C754.35,48.09677419354847 754.35,-9.569032258064576 383.70000000000005,-9.569032258064576Z" style="stroke: rgb(68, 68, 68); stroke-opacity: 1; fill: rgb(99, 110, 250); fill-opacity: 0.6; stroke-width: 0; opacity: 1;"/><path class="sankey-link" d="M383.70000000000005,13.076129032258004C754.35,13.076129032258004 754.35,259.6451612903227 1125,259.6451612903227L1125,280.54838709677426C754.35,280.54838709677426 754.35,33.97935483870962 383.70000000000005,33.97935483870962Z" style="stroke: rgb(68, 68, 68); stroke-opacity: 1; fill: rgb(99, 110, 250); fill-opacity: 0.6; stroke-width: 0; opacity: 1;"/><path class="sankey-link" d="M383.70000000000005,72.30193548387089C754.35,72.30193548387089 754.35,716.516129032258 1125,716.516129032258L1125,718.258064516129C754.35,718.258064516129 754.35,74.04387096774187 383.70000000000005,74.04387096774187Z" style="stroke: rgb(68, 68, 68); stroke-opacity: 1; fill: rgb(99, 110, 250); fill-opacity: 0.6; stroke-width: 0; opacity: 1;"/><path class="sankey-link" d="M383.70000000000005,33.97935483870961C754.35,33.97935483870961 754.35,432.48387096774206 1125,432.48387096774206L1125,442.9354838709679C754.35,442.9354838709679 754.35,44.43096774193542 383.70000000000005,44.43096774193542Z" style="stroke: rgb(68, 68, 68); stroke-opacity: 1; fill: rgb(99, 110, 250); fill-opacity: 0.6; stroke-width: 0; opacity: 1;"/><path class="sankey-link" d="M383.70000000000005,70.55999999999993C754.35,70.55999999999993 754.35,692.8064516129034 1125,692.8064516129034L1125,694.5483870967744C754.35,694.5483870967744 754.35,72.3019354838709 383.70000000000005,72.3019354838709Z" style="stroke: rgb(68, 68, 68); stroke-opacity: 1; fill: rgb(99, 110, 250); fill-opacity: 0.6; stroke-width: 0; opacity: 1;"/><path class="sankey-link" d="M383.70000000000005,-2.6012903225807067C754.35,-2.6012903225807067 754.35,135.58064516129036 1125,135.58064516129036L1125,137.32258064516134C754.35,137.32258064516134 754.35,-0.8593548387097388 383.70000000000005,-0.8593548387097388Z" style="stroke: rgb(68, 68, 68); stroke-opacity: 1; fill: rgb(99, 110, 250); fill-opacity: 0.6; stroke-width: 0; opacity: 1;"/><path class="sankey-link" d="M383.70000000000005,65.33419354838703C754.35,65.33419354838703 754.35,622.7419354838711 1125,622.7419354838711L1125,626.225806451613C754.35,626.225806451613 754.35,68.81806451612896 383.70000000000005,68.81806451612896Z" style="stroke: rgb(68, 68, 68); stroke-opacity: 1; fill: rgb(99, 110, 250); fill-opacity: 0.6; stroke-width: 0; opacity: 1;"/><path class="sankey-link" d="M383.70000000000005,-9.569032258064578C754.35,-9.569032258064578 754.35,84.0000000000002 1125,84.0000000000002L1125,90.96774193548407C754.35,90.96774193548407 754.35,-2.6012903225807062 383.70000000000005,-2.6012903225807062Z" style="stroke: rgb(68, 68, 68); stroke-opacity: 1; fill: rgb(99, 110, 250); fill-opacity: 0.6; stroke-width: 0; opacity: 1;"/><path class="sankey-link" d="M383.70000000000005,68.81806451612897C754.35,68.81806451612897 754.35,667.3548387096776 1125,667.3548387096776L1125,669.0967741935485C754.35,669.0967741935485 754.35,70.55999999999995 383.70000000000005,70.55999999999995Z" style="stroke: rgb(68, 68, 68); stroke-opacity: 1; fill: rgb(99, 110, 250); fill-opacity: 0.6; stroke-width: 0; opacity: 1;"/><path class="sankey-link" d="M383.70000000000005,44.43096774193542C754.35,44.43096774193542 754.35,518.9032258064518 1125,518.9032258064518L1125,539.8064516129035C754.35,539.8064516129035 754.35,65.33419354838703 383.70000000000005,65.33419354838703Z" style="stroke: rgb(68, 68, 68); stroke-opacity: 1; fill: rgb(99, 110, 250); fill-opacity: 0.6; stroke-width: 0; opacity: 1;"/><path class="sankey-link" d="M383.70000000000005,-0.8593548387097387C754.35,-0.8593548387097387 754.35,164.51612903225816 1125,164.51612903225816L1125,178.4516129032259C754.35,178.4516129032259 754.35,13.076129032258002 383.70000000000005,13.076129032258002Z" style="stroke: rgb(68, 68, 68); stroke-opacity: 1; fill: rgb(99, 110, 250); fill-opacity: 0.6; stroke-width: 0; opacity: 1;"/><path class="sankey-link" d="M383.70000000000005,85.58709677419354C754.35,85.58709677419354 754.35,48.09677419354848 1125,48.09677419354848L1125,49.83870967741944C754.35,49.83870967741944 754.35,87.32903225806452 383.70000000000005,87.32903225806452Z" style="stroke: rgb(68, 68, 68); stroke-opacity: 1; fill: rgb(0, 204, 150); fill-opacity: 0.6; stroke-width: 0; opacity: 1;"/><path class="sankey-link" d="M383.70000000000005,96.03870967741932C754.35,96.03870967741932 754.35,280.54838709677426 1125,280.54838709677426L1125,287.51612903225816C754.35,287.51612903225816 754.35,103.00645161290319 383.70000000000005,103.00645161290319Z" style="stroke: rgb(68, 68, 68); stroke-opacity: 1; fill: rgb(0, 204, 150); fill-opacity: 0.6; stroke-width: 0; opacity: 1;"/><path class="sankey-link" d="M383.70000000000005,103.00645161290319C754.35,103.00645161290319 754.35,442.93548387096786 1125,442.93548387096786L1125,448.1612903225808C754.35,448.1612903225808 754.35,108.23225806451609 383.70000000000005,108.23225806451609Z" style="stroke: rgb(68, 68, 68); stroke-opacity: 1; fill: rgb(0, 204, 150); fill-opacity: 0.6; stroke-width: 0; opacity: 1;"/><path class="sankey-link" d="M383.70000000000005,89.07096774193546C754.35,89.07096774193546 754.35,137.32258064516134 1125,137.32258064516134L1125,139.0645161290323C754.35,139.0645161290323 754.35,90.81290322580644 383.70000000000005,90.81290322580644Z" style="stroke: rgb(68, 68, 68); stroke-opacity: 1; fill: rgb(0, 204, 150); fill-opacity: 0.6; stroke-width: 0; opacity: 1;"/><path class="sankey-link" d="M383.70000000000005,87.3290322580645C754.35,87.3290322580645 754.35,90.96774193548407 1125,90.96774193548407L1125,92.70967741935505C754.35,92.70967741935505 754.35,89.07096774193548 383.70000000000005,89.07096774193548Z" style="stroke: rgb(68, 68, 68); stroke-opacity: 1; fill: rgb(0, 204, 150); fill-opacity: 0.6; stroke-width: 0; opacity: 1;"/><path class="sankey-link" d="M383.70000000000005,113.45806451612899C754.35,113.45806451612899 754.35,669.0967741935485 1125,669.0967741935485L1125,672.5806451612905C754.35,672.5806451612905 754.35,116.9419354838709 383.70000000000005,116.9419354838709Z" style="stroke: rgb(68, 68, 68); stroke-opacity: 1; fill: rgb(0, 204, 150); fill-opacity: 0.6; stroke-width: 0; opacity: 1;"/><path class="sankey-link" d="M383.70000000000005,108.23225806451609C754.35,108.23225806451609 754.35,539.8064516129034 1125,539.8064516129034L1125,545.0322580645163C754.35,545.0322580645163 754.35,113.45806451612899 383.70000000000005,113.45806451612899Z" style="stroke: rgb(68, 68, 68); stroke-opacity: 1; fill: rgb(0, 204, 150); fill-opacity: 0.6; stroke-width: 0; opacity: 1;"/><path class="sankey-link" d="M383.70000000000005,90.81290322580642C754.35,90.81290322580642 754.35,178.4516129032259 1125,178.4516129032259L1125,183.67741935483883C754.35,183.67741935483883 754.35,96.03870967741932 383.70000000000005,96.03870967741932Z" style="stroke: rgb(68, 68, 68); stroke-opacity: 1; fill: rgb(0, 204, 150); fill-opacity: 0.6; stroke-width: 0; opacity: 1;"/><path class="sankey-link" d="M383.70000000000005,162.66193548387093C564.3000000000001,162.66193548387093 564.3000000000001,21.541935483870986 744.9000000000001,21.541935483870986L744.9000000000001,26.76774193548389C564.3000000000001,26.76774193548389 564.3000000000001,167.88774193548386 383.70000000000005,167.88774193548386Z" style="stroke: rgb(68, 68, 68); stroke-opacity: 1; fill: rgb(254, 203, 82); fill-opacity: 0.6; stroke-width: 0; opacity: 1;"/><path class="sankey-link" d="M383.70000000000005,169.6296774193548C564.3000000000001,169.6296774193548 564.3000000000001,71.76774193548391 744.9000000000001,71.76774193548391L744.9000000000001,75.25161290322583C564.3000000000001,75.25161290322583 564.3000000000001,173.11354838709676 383.70000000000005,173.11354838709676Z" style="stroke: rgb(68, 68, 68); stroke-opacity: 1; fill: rgb(254, 203, 82); fill-opacity: 0.6; stroke-width: 0; opacity: 1;"/><path class="sankey-link" d="M383.70000000000005,167.88774193548383C754.35,167.88774193548383 754.35,49.838709677419445 1125,49.838709677419445L1125,51.580645161290406C754.35,51.580645161290406 754.35,169.6296774193548 383.70000000000005,169.6296774193548Z" style="stroke: rgb(68, 68, 68); stroke-opacity: 1; fill: rgb(254, 203, 82); fill-opacity: 0.6; stroke-width: 0; opacity: 1;"/><path class="sankey-link" d="M383.70000000000005,181.82322580645155C754.35,181.82322580645155 754.35,287.5161290322581 1125,287.5161290322581L1125,294.483870967742C754.35,294.483870967742 754.35,188.7909677419354 383.70000000000005,188.7909677419354Z" style="stroke: rgb(68, 68, 68); stroke-opacity: 1; fill: rgb(254, 203, 82); fill-opacity: 0.6; stroke-width: 0; opacity: 1;"/><path class="sankey-link" d="M383.70000000000005,188.79096774193542C754.35,188.79096774193542 754.35,448.1612903225808 1125,448.1612903225808L1125,453.3870967741937C754.35,453.3870967741937 754.35,194.01677419354834 383.70000000000005,194.01677419354834Z" style="stroke: rgb(68, 68, 68); stroke-opacity: 1; fill: rgb(254, 203, 82); fill-opacity: 0.6; stroke-width: 0; opacity: 1;"/><path class="sankey-link" d="M383.70000000000005,200.9845161290322C754.35,200.9845161290322 754.35,626.225806451613 1125,626.225806451613L1125,627.967741935484C754.35,627.967741935484 754.35,202.72645161290316 383.70000000000005,202.72645161290316Z" style="stroke: rgb(68, 68, 68); stroke-opacity: 1; fill: rgb(254, 203, 82); fill-opacity: 0.6; stroke-width: 0; opacity: 1;"/><path class="sankey-link" d="M383.70000000000005,173.11354838709673C754.35,173.11354838709673 754.35,92.70967741935503 1125,92.70967741935503L1125,96.19354838709695C754.35,96.19354838709695 754.35,176.59741935483868 383.70000000000005,176.59741935483868Z" style="stroke: rgb(68, 68, 68); stroke-opacity: 1; fill: rgb(254, 203, 82); fill-opacity: 0.6; stroke-width: 0; opacity: 1;"/><path class="sankey-link" d="M383.70000000000005,194.01677419354831C754.35,194.01677419354831 754.35,545.0322580645163 1125,545.0322580645163L1125,552.0000000000002C754.35,552.0000000000002 754.35,200.98451612903216 383.70000000000005,200.98451612903216Z" style="stroke: rgb(68, 68, 68); stroke-opacity: 1; fill: rgb(254, 203, 82); fill-opacity: 0.6; stroke-width: 0; opacity: 1;"/><path class="sankey-link" d="M383.70000000000005,176.59741935483865C754.35,176.59741935483865 754.35,183.6774193548388 1125,183.6774193548388L1125,188.90322580645173C754.35,188.90322580645173 754.35,181.82322580645157 383.70000000000005,181.82322580645157Z" style="stroke: rgb(68, 68, 68); stroke-opacity: 1; fill: rgb(254, 203, 82); fill-opacity: 0.6; stroke-width: 0; opacity: 1;"/><path class="sankey-link" d="M383.70000000000005,220.29677419354854C564.3000000000001,220.29677419354854 564.3000000000001,26.76774193548389 744.9000000000001,26.76774193548389L744.9000000000001,31.993548387096794C564.3000000000001,31.993548387096794 564.3000000000001,225.52258064516147 383.70000000000005,225.52258064516147Z" style="stroke: rgb(68, 68, 68); stroke-opacity: 1; fill: rgb(255, 161, 90); fill-opacity: 0.6; stroke-width: 0; opacity: 1;"/><path class="sankey-link" d="M383.70000000000005,225.52258064516144C754.35,225.52258064516144 754.35,294.48387096774195 1125,294.48387096774195L1125,299.7096774193549C754.35,299.7096774193549 754.35,230.74838709677437 383.70000000000005,230.74838709677437Z" style="stroke: rgb(68, 68, 68); stroke-opacity: 1; fill: rgb(255, 161, 90); fill-opacity: 0.6; stroke-width: 0; opacity: 1;"/><path class="sankey-link" d="M383.70000000000005,230.74838709677434C754.35,230.74838709677434 754.35,453.3870967741937 1125,453.3870967741937L1125,458.61290322580663C754.35,458.61290322580663 754.35,235.97419354838726 383.70000000000005,235.97419354838726Z" style="stroke: rgb(68, 68, 68); stroke-opacity: 1; fill: rgb(255, 161, 90); fill-opacity: 0.6; stroke-width: 0; opacity: 1;"/><path class="sankey-link" d="M383.70000000000005,244.68387096774208C754.35,244.68387096774208 754.35,694.5483870967744 1125,694.5483870967744L1125,698.0322580645163C754.35,698.0322580645163 754.35,248.16774193548403 383.70000000000005,248.16774193548403Z" style="stroke: rgb(68, 68, 68); stroke-opacity: 1; fill: rgb(255, 161, 90); fill-opacity: 0.6; stroke-width: 0; opacity: 1;"/><path class="sankey-link" d="M383.70000000000005,242.9419354838711C754.35,242.9419354838711 754.35,627.967741935484 1125,627.967741935484L1125,629.709677419355C754.35,629.709677419355 754.35,244.68387096774208 383.70000000000005,244.68387096774208Z" style="stroke: rgb(68, 68, 68); stroke-opacity: 1; fill: rgb(255, 161, 90); fill-opacity: 0.6; stroke-width: 0; opacity: 1;"/><path class="sankey-link" d="M383.70000000000005,235.97419354838723C754.35,235.97419354838723 754.35,552.0000000000002 1125,552.0000000000002L1125,558.9677419354841C754.35,558.9677419354841 754.35,242.94193548387108 383.70000000000005,242.94193548387108Z" style="stroke: rgb(68, 68, 68); stroke-opacity: 1; fill: rgb(255, 161, 90); fill-opacity: 0.6; stroke-width: 0; opacity: 1;"/><path class="sankey-link" d="M383.70000000000005,255.21677419354842C564.3000000000001,255.21677419354842 564.3000000000001,52.89677419354841 744.9000000000001,52.89677419354841L744.9000000000001,54.63870967741937C564.3000000000001,54.63870967741937 564.3000000000001,256.9587096774194 383.70000000000005,256.9587096774194Z" style="stroke: rgb(68, 68, 68); stroke-opacity: 1; fill: rgb(171, 99, 250); fill-opacity: 0.6; stroke-width: 0; opacity: 1;"/><path class="sankey-link" d="M383.70000000000005,258.70064516129037C564.3000000000001,258.70064516129037 564.3000000000001,89.18709677419359 744.9000000000001,89.18709677419359L744.9000000000001,96.15483870967746C564.3000000000001,96.15483870967746 564.3000000000001,265.66838709677427 383.70000000000005,265.66838709677427Z" style="stroke: rgb(68, 68, 68); stroke-opacity: 1; fill: rgb(171, 99, 250); fill-opacity: 0.6; stroke-width: 0; opacity: 1;"/><path class="sankey-link" d="M383.70000000000005,256.9587096774194C754.35,256.9587096774194 754.35,65.51612903225815 1125,65.51612903225815L1125,67.25806451612912C754.35,67.25806451612912 754.35,258.70064516129037 383.70000000000005,258.70064516129037Z" style="stroke: rgb(68, 68, 68); stroke-opacity: 1; fill: rgb(171, 99, 250); fill-opacity: 0.6; stroke-width: 0; opacity: 1;"/><path class="sankey-link" d="M383.70000000000005,284.8296774193548C754.35,284.8296774193548 754.35,331.0645161290323 1125,331.0645161290323L1125,345C754.35,345 754.35,298.7651612903225 383.70000000000005,298.7651612903225Z" style="stroke: rgb(68, 68, 68); stroke-opacity: 1; fill: rgb(171, 99, 250); fill-opacity: 0.6; stroke-width: 0; opacity: 1;"/><path class="sankey-link" d="M383.70000000000005,298.76516129032257C754.35,298.76516129032257 754.35,484.74193548387115 1125,484.74193548387115L1125,489.96774193548407C754.35,489.96774193548407 754.35,303.9909677419355 383.70000000000005,303.9909677419355Z" style="stroke: rgb(68, 68, 68); stroke-opacity: 1; fill: rgb(171, 99, 250); fill-opacity: 0.6; stroke-width: 0; opacity: 1;"/><path class="sankey-link" d="M383.70000000000005,310.9587096774194C754.35,310.9587096774194 754.35,698.0322580645163 1125,698.0322580645163L1125,699.7741935483873C754.35,699.7741935483873 754.35,312.70064516129037 383.70000000000005,312.70064516129037Z" style="stroke: rgb(68, 68, 68); stroke-opacity: 1; fill: rgb(171, 99, 250); fill-opacity: 0.6; stroke-width: 0; opacity: 1;"/><path class="sankey-link" d="M383.70000000000005,307.47483870967744C754.35,307.47483870967744 754.35,640.1612903225808 1125,640.1612903225808L1125,641.9032258064518C754.35,641.9032258064518 754.35,309.2167741935484 383.70000000000005,309.2167741935484Z" style="stroke: rgb(68, 68, 68); stroke-opacity: 1; fill: rgb(171, 99, 250); fill-opacity: 0.6; stroke-width: 0; opacity: 1;"/><path class="sankey-link" d="M383.70000000000005,265.6683870967742C754.35,265.6683870967742 754.35,111.87096774193567 1125,111.87096774193567L1125,118.83870967741954C754.35,118.83870967741954 754.35,272.6361290322581 383.70000000000005,272.6361290322581Z" style="stroke: rgb(68, 68, 68); stroke-opacity: 1; fill: rgb(171, 99, 250); fill-opacity: 0.6; stroke-width: 0; opacity: 1;"/><path class="sankey-link" d="M383.70000000000005,309.2167741935484C754.35,309.2167741935484 754.35,674.3225806451615 1125,674.3225806451615L1125,676.0645161290324C754.35,676.0645161290324 754.35,310.9587096774194 383.70000000000005,310.9587096774194Z" style="stroke: rgb(68, 68, 68); stroke-opacity: 1; fill: rgb(171, 99, 250); fill-opacity: 0.6; stroke-width: 0; opacity: 1;"/><path class="sankey-link" d="M383.70000000000005,303.9909677419355C754.35,303.9909677419355 754.35,583.3548387096777 1125,583.3548387096777L1125,586.8387096774196C754.35,586.8387096774196 754.35,307.47483870967744 383.70000000000005,307.47483870967744Z" style="stroke: rgb(68, 68, 68); stroke-opacity: 1; fill: rgb(171, 99, 250); fill-opacity: 0.6; stroke-width: 0; opacity: 1;"/><path class="sankey-link" d="M383.70000000000005,272.63612903225805C754.35,272.63612903225805 754.35,220.2580645161291 1125,220.2580645161291L1125,232.45161290322588C754.35,232.45161290322588 754.35,284.8296774193549 383.70000000000005,284.8296774193549Z" style="stroke: rgb(68, 68, 68); stroke-opacity: 1; fill: rgb(171, 99, 250); fill-opacity: 0.6; stroke-width: 0; opacity: 1;"/><path class="sankey-link" d="M383.70000000000005,243.4529032258064C564.3000000000001,243.4529032258064 564.3000000000001,31.993548387096794 744.9000000000001,31.993548387096794L744.9000000000001,52.89677419354841C564.3000000000001,52.89677419354841 564.3000000000001,264.356129032258 383.70000000000005,264.356129032258Z" style="stroke: rgb(68, 68, 68); stroke-opacity: 1; fill: rgb(239, 85, 59); fill-opacity: 0.6; stroke-width: 0; opacity: 1;"/><path class="sankey-link" d="M383.70000000000005,278.29161290322577C564.3000000000001,278.29161290322577 564.3000000000001,75.25161290322585 744.9000000000001,75.25161290322585L744.9000000000001,89.18709677419359C564.3000000000001,89.18709677419359 564.3000000000001,292.22709677419346 383.70000000000005,292.22709677419346Z" style="stroke: rgb(68, 68, 68); stroke-opacity: 1; fill: rgb(239, 85, 59); fill-opacity: 0.6; stroke-width: 0; opacity: 1;"/><path class="sankey-link" d="M383.70000000000005,264.356129032258C754.35,264.356129032258 754.35,51.58064516129041 1125,51.58064516129041L1125,65.51612903225815C754.35,65.51612903225815 754.35,278.2916129032257 383.70000000000005,278.2916129032257Z" style="stroke: rgb(68, 68, 68); stroke-opacity: 1; fill: rgb(239, 85, 59); fill-opacity: 0.6; stroke-width: 0; opacity: 1;"/><path class="sankey-link" d="M383.70000000000005,347.9690322580645C754.35,347.9690322580645 754.35,299.7096774193549 1125,299.7096774193549L1125,331.0645161290323C754.35,331.0645161290323 754.35,379.3238709677419 383.70000000000005,379.3238709677419Z" style="stroke: rgb(68, 68, 68); stroke-opacity: 1; fill: rgb(239, 85, 59); fill-opacity: 0.6; stroke-width: 0; opacity: 1;"/><path class="sankey-link" d="M383.70000000000005,379.3238709677419C754.35,379.3238709677419 754.35,458.61290322580663 1125,458.61290322580663L1125,484.74193548387115C754.35,484.74193548387115 754.35,405.45290322580644 383.70000000000005,405.45290322580644Z" style="stroke: rgb(68, 68, 68); stroke-opacity: 1; fill: rgb(239, 85, 59); fill-opacity: 0.6; stroke-width: 0; opacity: 1;"/><path class="sankey-link" d="M383.70000000000005,307.90451612903223C754.35,307.90451612903223 754.35,139.0645161290323 1125,139.0645161290323L1125,147.77419354838713C754.35,147.77419354838713 754.35,316.6141935483871 383.70000000000005,316.6141935483871Z" style="stroke: rgb(68, 68, 68); stroke-opacity: 1; fill: rgb(239, 85, 59); fill-opacity: 0.6; stroke-width: 0; opacity: 1;"/><path class="sankey-link" d="M383.70000000000005,429.84C754.35,429.84 754.35,629.709677419355 1125,629.709677419355L1125,640.1612903225808C754.35,640.1612903225808 754.35,440.2916129032258 383.70000000000005,440.2916129032258Z" style="stroke: rgb(68, 68, 68); stroke-opacity: 1; fill: rgb(239, 85, 59); fill-opacity: 0.6; stroke-width: 0; opacity: 1;"/><path class="sankey-link" d="M383.70000000000005,292.2270967741935C754.35,292.2270967741935 754.35,96.19354838709697 1125,96.19354838709697L1125,111.87096774193569C754.35,111.87096774193569 754.35,307.9045161290322 383.70000000000005,307.9045161290322Z" style="stroke: rgb(68, 68, 68); stroke-opacity: 1; fill: rgb(239, 85, 59); fill-opacity: 0.6; stroke-width: 0; opacity: 1;"/><path class="sankey-link" d="M383.70000000000005,440.29161290322577C754.35,440.29161290322577 754.35,672.5806451612905 1125,672.5806451612905L1125,674.3225806451615C754.35,674.3225806451615 754.35,442.03354838709674 383.70000000000005,442.03354838709674Z" style="stroke: rgb(68, 68, 68); stroke-opacity: 1; fill: rgb(239, 85, 59); fill-opacity: 0.6; stroke-width: 0; opacity: 1;"/><path class="sankey-link" d="M383.70000000000005,405.45290322580644C754.35,405.45290322580644 754.35,558.9677419354841 1125,558.9677419354841L1125,583.3548387096778C754.35,583.3548387096778 754.35,429.84 383.70000000000005,429.84Z" style="stroke: rgb(68, 68, 68); stroke-opacity: 1; fill: rgb(239, 85, 59); fill-opacity: 0.6; stroke-width: 0; opacity: 1;"/><path class="sankey-link" d="M383.70000000000005,316.61419354838705C754.35,316.61419354838705 754.35,188.9032258064517 1125,188.9032258064517L1125,220.25806451612914C754.35,220.25806451612914 754.35,347.9690322580645 383.70000000000005,347.9690322580645Z" style="stroke: rgb(68, 68, 68); stroke-opacity: 1; fill: rgb(239, 85, 59); fill-opacity: 0.6; stroke-width: 0; opacity: 1;"/><path class="sankey-link" d="M383.70000000000005,463.2967741935484C564.3000000000001,463.2967741935484 564.3000000000001,54.63870967741938 744.9000000000001,54.63870967741938L744.9000000000001,58.122580645161314C564.3000000000001,58.122580645161314 564.3000000000001,466.78064516129035 383.70000000000005,466.78064516129035Z" style="stroke: rgb(68, 68, 68); stroke-opacity: 1; fill: rgb(182, 232, 128); fill-opacity: 0.6; stroke-width: 0; opacity: 1;"/><path class="sankey-link" d="M383.70000000000005,468.5225806451613C564.3000000000001,468.5225806451613 564.3000000000001,96.15483870967746 744.9000000000001,96.15483870967746L744.9000000000001,99.63870967741939C564.3000000000001,99.63870967741939 564.3000000000001,472.0064516129033 383.70000000000005,472.0064516129033Z" style="stroke: rgb(68, 68, 68); stroke-opacity: 1; fill: rgb(182, 232, 128); fill-opacity: 0.6; stroke-width: 0; opacity: 1;"/><path class="sankey-link" d="M383.70000000000005,466.78064516129035C754.35,466.78064516129035 754.35,67.25806451612911 1125,67.25806451612911L1125,69.00000000000009C754.35,69.00000000000009 754.35,468.5225806451613 383.70000000000005,468.5225806451613Z" style="stroke: rgb(68, 68, 68); stroke-opacity: 1; fill: rgb(182, 232, 128); fill-opacity: 0.6; stroke-width: 0; opacity: 1;"/><path class="sankey-link" d="M383.70000000000005,480.71612903225815C754.35,480.71612903225815 754.35,345.00000000000006 1125,345.00000000000006L1125,351.96774193548396C754.35,351.96774193548396 754.35,487.68387096774205 383.70000000000005,487.68387096774205Z" style="stroke: rgb(68, 68, 68); stroke-opacity: 1; fill: rgb(182, 232, 128); fill-opacity: 0.6; stroke-width: 0; opacity: 1;"/><path class="sankey-link" d="M383.70000000000005,487.683870967742C754.35,487.683870967742 754.35,489.96774193548407 1125,489.96774193548407L1125,500.4193548387099C754.35,500.4193548387099 754.35,498.13548387096785 383.70000000000005,498.13548387096785Z" style="stroke: rgb(68, 68, 68); stroke-opacity: 1; fill: rgb(182, 232, 128); fill-opacity: 0.6; stroke-width: 0; opacity: 1;"/><path class="sankey-link" d="M383.70000000000005,515.5548387096775C754.35,515.5548387096775 754.35,699.7741935483873 1125,699.7741935483873L1125,701.5161290322583C754.35,701.5161290322583 754.35,517.2967741935485 383.70000000000005,517.2967741935485Z" style="stroke: rgb(68, 68, 68); stroke-opacity: 1; fill: rgb(182, 232, 128); fill-opacity: 0.6; stroke-width: 0; opacity: 1;"/><path class="sankey-link" d="M383.70000000000005,473.74838709677425C754.35,473.74838709677425 754.35,147.77419354838716 1125,147.77419354838716L1125,149.51612903225814C754.35,149.51612903225814 754.35,475.4903225806452 383.70000000000005,475.4903225806452Z" style="stroke: rgb(68, 68, 68); stroke-opacity: 1; fill: rgb(182, 232, 128); fill-opacity: 0.6; stroke-width: 0; opacity: 1;"/><path class="sankey-link" d="M383.70000000000005,510.32903225806456C754.35,510.32903225806456 754.35,641.9032258064518 1125,641.9032258064518L1125,647.1290322580647C754.35,647.1290322580647 754.35,515.5548387096775 383.70000000000005,515.5548387096775Z" style="stroke: rgb(68, 68, 68); stroke-opacity: 1; fill: rgb(182, 232, 128); fill-opacity: 0.6; stroke-width: 0; opacity: 1;"/><path class="sankey-link" d="M383.70000000000005,472.0064516129033C754.35,472.0064516129033 754.35,118.83870967741954 1125,118.83870967741954L1125,120.58064516129052C754.35,120.58064516129052 754.35,473.74838709677425 383.70000000000005,473.74838709677425Z" style="stroke: rgb(68, 68, 68); stroke-opacity: 1; fill: rgb(182, 232, 128); fill-opacity: 0.6; stroke-width: 0; opacity: 1;"/><path class="sankey-link" d="M383.70000000000005,498.1354838709678C754.35,498.1354838709678 754.35,586.8387096774196 1125,586.8387096774196L1125,599.0322580645164C754.35,599.0322580645164 754.35,510.3290322580646 383.70000000000005,510.3290322580646Z" style="stroke: rgb(68, 68, 68); stroke-opacity: 1; fill: rgb(182, 232, 128); fill-opacity: 0.6; stroke-width: 0; opacity: 1;"/><path class="sankey-link" d="M383.70000000000005,475.4903225806452C754.35,475.4903225806452 754.35,232.45161290322588 1125,232.45161290322588L1125,237.6774193548388C754.35,237.6774193548388 754.35,480.71612903225815 383.70000000000005,480.71612903225815Z" style="stroke: rgb(68, 68, 68); stroke-opacity: 1; fill: rgb(182, 232, 128); fill-opacity: 0.6; stroke-width: 0; opacity: 1;"/><path class="sankey-link" d="M383.70000000000005,637.7806451612904C754.35,637.7806451612904 754.35,647.1290322580647 1125,647.1290322580647L1125,648.8709677419357C754.35,648.8709677419357 754.35,639.5225806451614 383.70000000000005,639.5225806451614Z" style="stroke: rgb(68, 68, 68); stroke-opacity: 1; fill: rgb(255, 151, 255); fill-opacity: 0.6; stroke-width: 0; opacity: 1;"/><path class="sankey-link" d="M383.70000000000005,636.0387096774194C754.35,636.0387096774194 754.35,599.0322580645164 1125,599.0322580645164L1125,600.7741935483874C754.35,600.7741935483874 754.35,637.7806451612904 383.70000000000005,637.7806451612904Z" style="stroke: rgb(68, 68, 68); stroke-opacity: 1; fill: rgb(255, 151, 255); fill-opacity: 0.6; stroke-width: 0; opacity: 1;"/><path class="sankey-link" d="M383.70000000000005,632.5548387096775C754.35,632.5548387096775 754.35,237.67741935483878 1125,237.67741935483878L1125,241.16129032258073C754.35,241.16129032258073 754.35,636.0387096774194 383.70000000000005,636.0387096774194Z" style="stroke: rgb(68, 68, 68); stroke-opacity: 1; fill: rgb(255, 151, 255); fill-opacity: 0.6; stroke-width: 0; opacity: 1;"/><path class="sankey-link" d="M383.70000000000005,683.0129032258066C754.35,683.0129032258066 754.35,718.258064516129 1125,718.258064516129L1125,720C754.35,720 754.35,684.7548387096775 383.70000000000005,684.7548387096775Z" style="stroke: rgb(68, 68, 68); stroke-opacity: 1; fill: rgb(255, 102, 146); fill-opacity: 0.6; stroke-width: 0; opacity: 1;"/><path class="sankey-link" d="M383.70000000000005,681.2709677419356C754.35,681.2709677419356 754.35,606.0000000000003 1125,606.0000000000003L1125,607.7419354838713C754.35,607.7419354838713 754.35,683.0129032258066 383.70000000000005,683.0129032258066Z" style="stroke: rgb(68, 68, 68); stroke-opacity: 1; fill: rgb(255, 102, 146); fill-opacity: 0.6; stroke-width: 0; opacity: 1;"/><path class="sankey-link" d="M383.70000000000005,679.5290322580646C754.35,679.5290322580646 754.35,242.90322580645167 1125,242.90322580645167L1125,244.64516129032265C754.35,244.64516129032265 754.35,681.2709677419356 383.70000000000005,681.2709677419356Z" style="stroke: rgb(68, 68, 68); stroke-opacity: 1; fill: rgb(255, 102, 146); fill-opacity: 0.6; stroke-width: 0; opacity: 1;"/></g><g class="sankey-node-set" style="cursor: ns-resize;"><g class="sankey-node" transform="translate(744.900,12.832)" style="opacity: 1;"><rect class="node-rect" width="15" height="47.0322580645161" style="stroke-width: 0.5; stroke: rgb(0, 0, 0); stroke-opacity: 1; fill: rgb(128, 128, 128); fill-opacity: 1;"/><text class="node-label" data-notex="1" x="0" y="0" text-anchor="start" transform="translate(18.25,27.71612903225805)" style="cursor: default; font-family: 'Open Sans', verdana, arial, sans-serif; font-size: 12px; fill: rgb(42, 63, 95); fill-opacity: 1; white-space: pre; text-shadow: white 1px 1px 1px, white -1px -1px 1px, white 1px -1px 1px, white -1px 1px 1px;">AggressiveChase</text></g><g class="sankey-node" transform="translate(744.900,71.768)" style="opacity: 1;"><rect class="node-rect" width="15" height="27.870967741935402" style="stroke-width: 0.5; stroke: rgb(0, 0, 0); stroke-opacity: 1; fill: rgb(128, 128, 128); fill-opacity: 1;"/><text class="node-label" data-notex="1" x="0" y="0" text-anchor="start" transform="translate(18.25,18.1354838709677)" style="cursor: default; font-family: 'Open Sans', verdana, arial, sans-serif; font-size: 12px; fill: rgb(42, 63, 95); fill-opacity: 1; white-space: pre; text-shadow: white 1px 1px 1px, white -1px -1px 1px, white 1px -1px 1px, white -1px 1px 1px;">BeingAttacked</text></g><g class="sankey-node" transform="translate(1125.000,42.871)" style="opacity: 1;"><rect class="node-rect" width="15" height="26.129032258064626" style="stroke-width: 0.5; stroke: rgb(0, 0, 0); stroke-opacity: 1; fill: rgb(128, 128, 128); fill-opacity: 1;"/><text class="node-label" data-notex="1" x="0" y="0" text-anchor="end" transform="translate(-3.25,17.264516129032312)" style="cursor: default; font-family: 'Open Sans', verdana, arial, sans-serif; font-size: 12px; fill: rgb(42, 63, 95); fill-opacity: 1; white-space: pre; text-shadow: white 1px 1px 1px, white -1px -1px 1px, white 1px -1px 1px, white -1px 1px 1px;">SideAttack</text></g><g class="sankey-node" transform="translate(1125.000,259.645)" style="opacity: 1;"><rect class="node-rect" width="15" height="95.80645161290329" style="stroke-width: 0.5; stroke: rgb(0, 0, 0); stroke-opacity: 1; fill: rgb(128, 128, 128); fill-opacity: 1;"/><text class="node-label" data-notex="1" x="0" y="0" text-anchor="end" transform="translate(-3.25,52.10322580645165)" style="cursor: default; font-family: 'Open Sans', verdana, arial, sans-serif; font-size: 12px; fill: rgb(42, 63, 95); fill-opacity: 1; white-space: pre; text-shadow: white 1px 1px 1px, white -1px -1px 1px, white 1px -1px 1px, white -1px 1px 1px;">SideSniff1</text></g><g class="sankey-node" transform="translate(1125.000,716.516)" style="opacity: 1;"><rect class="node-rect" width="15" height="3.48387096774195" style="stroke-width: 0.5; stroke: rgb(0, 0, 0); stroke-opacity: 1; fill: rgb(128, 128, 128); fill-opacity: 1;"/><text class="node-label" data-notex="1" x="0" y="0" text-anchor="end" transform="translate(-3.25,5.941935483870974)" style="cursor: default; font-family: 'Open Sans', verdana, arial, sans-serif; font-size: 12px; fill: rgb(42, 63, 95); fill-opacity: 1; white-space: pre; text-shadow: white 1px 1px 1px, white -1px -1px 1px, white 1px -1px 1px, white -1px 1px 1px;">dig</text></g><g class="sankey-node" transform="translate(1125.000,432.484)" style="opacity: 1;"><rect class="node-rect" width="15" height="71.41935483870975" style="stroke-width: 0.5; stroke: rgb(0, 0, 0); stroke-opacity: 1; fill: rgb(128, 128, 128); fill-opacity: 1;"/><text class="node-label" data-notex="1" x="0" y="0" text-anchor="end" transform="translate(-3.25,39.90967741935488)" style="cursor: default; font-family: 'Open Sans', verdana, arial, sans-serif; font-size: 12px; fill: rgb(42, 63, 95); fill-opacity: 1; white-space: pre; text-shadow: white 1px 1px 1px, white -1px -1px 1px, white 1px -1px 1px, white -1px 1px 1px;">follow1</text></g><g class="sankey-node" transform="translate(1125.000,692.806)" style="opacity: 1;"><rect class="node-rect" width="15" height="8.709677419354648" style="stroke-width: 0.5; stroke: rgb(0, 0, 0); stroke-opacity: 1; fill: rgb(128, 128, 128); fill-opacity: 1;"/><text class="node-label" data-notex="1" x="0" y="0" text-anchor="end" transform="translate(-3.25,8.554838709677323)" style="cursor: default; font-family: 'Open Sans', verdana, arial, sans-serif; font-size: 12px; fill: rgb(42, 63, 95); fill-opacity: 1; white-space: pre; text-shadow: white 1px 1px 1px, white -1px -1px 1px, white 1px -1px 1px, white -1px 1px 1px;">groomfront</text></g><g class="sankey-node" transform="translate(1125.000,135.581)" style="opacity: 1;"><rect class="node-rect" width="15" height="13.9354838709678" style="stroke-width: 0.5; stroke: rgb(0, 0, 0); stroke-opacity: 1; fill: rgb(128, 128, 128); fill-opacity: 1;"/><text class="node-label" data-notex="1" x="0" y="0" text-anchor="end" transform="translate(-3.25,11.1677419354839)" style="cursor: default; font-family: 'Open Sans', verdana, arial, sans-serif; font-size: 12px; fill: rgb(42, 63, 95); fill-opacity: 1; white-space: pre; text-shadow: white 1px 1px 1px, white -1px -1px 1px, white 1px -1px 1px, white -1px 1px 1px;">nose2nose1</text></g><g class="sankey-node" transform="translate(1125.000,622.742)" style="opacity: 1;"><rect class="node-rect" width="15" height="29.612903225806463" style="stroke-width: 0.5; stroke: rgb(0, 0, 0); stroke-opacity: 1; fill: rgb(128, 128, 128); fill-opacity: 1;"/><text class="node-label" data-notex="1" x="0" y="0" text-anchor="end" transform="translate(-3.25,19.00645161290323)" style="cursor: default; font-family: 'Open Sans', verdana, arial, sans-serif; font-size: 12px; fill: rgb(42, 63, 95); fill-opacity: 1; white-space: pre; text-shadow: white 1px 1px 1px, white -1px -1px 1px, white 1px -1px 1px, white -1px 1px 1px;">nose2rear1</text></g><g class="sankey-node" transform="translate(1125.000,84.000)" style="opacity: 1;"><rect class="node-rect" width="15" height="36.580645161290164" style="stroke-width: 0.5; stroke: rgb(0, 0, 0); stroke-opacity: 1; fill: rgb(128, 128, 128); fill-opacity: 1;"/><text class="node-label" data-notex="1" x="0" y="0" text-anchor="end" transform="translate(-3.25,22.49032258064508)" style="cursor: default; font-family: 'Open Sans', verdana, arial, sans-serif; font-size: 12px; fill: rgb(42, 63, 95); fill-opacity: 1; white-space: pre; text-shadow: white 1px 1px 1px, white -1px -1px 1px, white 1px -1px 1px, white -1px 1px 1px;">nosey1</text></g><g class="sankey-node" transform="translate(1125.000,667.355)" style="opacity: 1;"><rect class="node-rect" width="15" height="10.45161290322585" style="stroke-width: 0.5; stroke: rgb(0, 0, 0); stroke-opacity: 1; fill: rgb(128, 128, 128); fill-opacity: 1;"/><text class="node-label" data-notex="1" x="0" y="0" text-anchor="end" transform="translate(-3.25,9.425806451612925)" style="cursor: default; font-family: 'Open Sans', verdana, arial, sans-serif; font-size: 12px; fill: rgb(42, 63, 95); fill-opacity: 1; white-space: pre; text-shadow: white 1px 1px 1px, white -1px -1px 1px, white 1px -1px 1px, white -1px 1px 1px;">sitcorner</text></g><g class="sankey-node" transform="translate(1125.000,518.903)" style="opacity: 1;"><rect class="node-rect" width="15" height="88.83870967741927" style="stroke-width: 0.5; stroke: rgb(0, 0, 0); stroke-opacity: 1; fill: rgb(128, 128, 128); fill-opacity: 1;"/><text class="node-label" data-notex="1" x="0" y="0" text-anchor="end" transform="translate(-3.25,48.61935483870964)" style="cursor: default; font-family: 'Open Sans', verdana, arial, sans-serif; font-size: 12px; fill: rgb(42, 63, 95); fill-opacity: 1; white-space: pre; text-shadow: white 1px 1px 1px, white -1px -1px 1px, white 1px -1px 1px, white -1px 1px 1px;">walk</text></g><g class="sankey-node" transform="translate(1125.000,164.516)" style="opacity: 1;"><rect class="node-rect" width="15" height="80.12903225806451" style="stroke-width: 0.5; stroke: rgb(0, 0, 0); stroke-opacity: 1; fill: rgb(128, 128, 128); fill-opacity: 1;"/><text class="node-label" data-notex="1" x="0" y="0" text-anchor="end" transform="translate(-3.25,44.26451612903226)" style="cursor: default; font-family: 'Open Sans', verdana, arial, sans-serif; font-size: 12px; fill: rgb(42, 63, 95); fill-opacity: 1; white-space: pre; text-shadow: white 1px 1px 1px, white -1px -1px 1px, white 1px -1px 1px, white -1px 1px 1px;">wallclimb</text></g><g class="sankey-node" transform="translate(0.000,678.871)" style="opacity: 1;"><rect class="node-rect" width="15" height="20.9032258064517" style="stroke-width: 0.5; stroke: rgb(0, 0, 0); stroke-opacity: 1; fill: rgb(25, 211, 243); fill-opacity: 1;"/><text class="node-label" data-notex="1" x="0" y="0" text-anchor="start" transform="translate(18.25,14.65161290322585)" style="cursor: default; font-family: 'Open Sans', verdana, arial, sans-serif; font-size: 12px; fill: rgb(42, 63, 95); fill-opacity: 1; white-space: pre; text-shadow: white 1px 1px 1px, white -1px -1px 1px, white 1px -1px 1px, white -1px 1px 1px;">BLA</text></g><g class="sankey-node" transform="translate(368.700,-23.505)" style="opacity: 1;"><rect class="node-rect" width="15" height="97.54838709677432" style="stroke-width: 0.5; stroke: rgb(0, 0, 0); stroke-opacity: 1; fill: rgb(99, 110, 250); fill-opacity: 1;"/><text class="node-label" data-notex="1" x="0" y="0" text-anchor="start" transform="translate(18.25,52.97419354838716)" style="cursor: default; font-family: 'Open Sans', verdana, arial, sans-serif; font-size: 12px; fill: rgb(42, 63, 95); fill-opacity: 1; white-space: pre; text-shadow: white 1px 1px 1px, white -1px -1px 1px, white 1px -1px 1px, white -1px 1px 1px;">Cla</text></g><g class="sankey-node" transform="translate(368.700,85.587)" style="opacity: 1;"><rect class="node-rect" width="15" height="31.354838709677438" style="stroke-width: 0.5; stroke: rgb(0, 0, 0); stroke-opacity: 1; fill: rgb(0, 204, 150); fill-opacity: 1;"/><text class="node-label" data-notex="1" x="0" y="0" text-anchor="start" transform="translate(18.25,19.877419354838718)" style="cursor: default; font-family: 'Open Sans', verdana, arial, sans-serif; font-size: 12px; fill: rgb(42, 63, 95); fill-opacity: 1; white-space: pre; text-shadow: white 1px 1px 1px, white -1px -1px 1px, white 1px -1px 1px, white -1px 1px 1px;">LC</text></g><g class="sankey-node" transform="translate(368.700,162.662)" style="opacity: 1;"><rect class="node-rect" width="15" height="40.06451612903231" style="stroke-width: 0.5; stroke: rgb(0, 0, 0); stroke-opacity: 1; fill: rgb(254, 203, 82); fill-opacity: 1;"/><text class="node-label" data-notex="1" x="0" y="0" text-anchor="start" transform="translate(18.25,24.232258064516156)" style="cursor: default; font-family: 'Open Sans', verdana, arial, sans-serif; font-size: 12px; fill: rgb(42, 63, 95); fill-opacity: 1; white-space: pre; text-shadow: white 1px 1px 1px, white -1px -1px 1px, white 1px -1px 1px, white -1px 1px 1px;">LHyp</text></g><g class="sankey-node" transform="translate(368.700,220.297)" style="opacity: 1;"><rect class="node-rect" width="15" height="27.870967741935146" style="stroke-width: 0.5; stroke: rgb(0, 0, 0); stroke-opacity: 1; fill: rgb(255, 161, 90); fill-opacity: 1;"/><text class="node-label" data-notex="1" x="0" y="0" text-anchor="start" transform="translate(18.25,18.135483870967573)" style="cursor: default; font-family: 'Open Sans', verdana, arial, sans-serif; font-size: 12px; fill: rgb(42, 63, 95); fill-opacity: 1; white-space: pre; text-shadow: white 1px 1px 1px, white -1px -1px 1px, white 1px -1px 1px, white -1px 1px 1px;">NAc</text></g><g class="sankey-node" transform="translate(368.700,255.217)" style="opacity: 1;"><rect class="node-rect" width="15" height="57.48387096774181" style="stroke-width: 0.5; stroke: rgb(0, 0, 0); stroke-opacity: 1; fill: rgb(171, 99, 250); fill-opacity: 1;"/><text class="node-label" data-notex="1" x="0" y="0" text-anchor="start" transform="translate(18.25,32.94193548387091)" style="cursor: default; font-family: 'Open Sans', verdana, arial, sans-serif; font-size: 12px; fill: rgb(42, 63, 95); fill-opacity: 1; white-space: pre; text-shadow: white 1px 1px 1px, white -1px -1px 1px, white 1px -1px 1px, white -1px 1px 1px;">Str</text></g><g class="sankey-node" transform="translate(368.700,243.453)" style="opacity: 1;"><rect class="node-rect" width="15" height="198.58064516129045" style="stroke-width: 0.5; stroke: rgb(0, 0, 0); stroke-opacity: 1; fill: rgb(239, 85, 59); fill-opacity: 1;"/><text class="node-label" data-notex="1" x="0" y="0" text-anchor="start" transform="translate(18.25,103.49032258064523)" style="cursor: default; font-family: 'Open Sans', verdana, arial, sans-serif; font-size: 12px; fill: rgb(42, 63, 95); fill-opacity: 1; white-space: pre; text-shadow: white 1px 1px 1px, white -1px -1px 1px, white 1px -1px 1px, white -1px 1px 1px;">VTA</text></g><g class="sankey-node" transform="translate(368.700,463.297)" style="opacity: 1;"><rect class="node-rect" width="15" height="53.99999999999994" style="stroke-width: 0.5; stroke: rgb(0, 0, 0); stroke-opacity: 1; fill: rgb(182, 232, 128); fill-opacity: 1;"/><text class="node-label" data-notex="1" x="0" y="0" text-anchor="start" transform="translate(18.25,31.19999999999997)" style="cursor: default; font-family: 'Open Sans', verdana, arial, sans-serif; font-size: 12px; fill: rgb(42, 63, 95); fill-opacity: 1; white-space: pre; text-shadow: white 1px 1px 1px, white -1px -1px 1px, white 1px -1px 1px, white -1px 1px 1px;">cPFC</text></g><g class="sankey-node" transform="translate(368.700,632.555)" style="opacity: 1;"><rect class="node-rect" width="15" height="6.9677419354839" style="stroke-width: 0.5; stroke: rgb(0, 0, 0); stroke-opacity: 1; fill: rgb(255, 151, 255); fill-opacity: 1;"/><text class="node-label" data-notex="1" x="0" y="0" text-anchor="start" transform="translate(18.25,7.683870967741949)" style="cursor: default; font-family: 'Open Sans', verdana, arial, sans-serif; font-size: 12px; fill: rgb(42, 63, 95); fill-opacity: 1; white-space: pre; text-shadow: white 1px 1px 1px, white -1px -1px 1px, white 1px -1px 1px, white -1px 1px 1px;">dPAG</text></g><g class="sankey-node" transform="translate(368.700,679.529)" style="opacity: 1;"><rect class="node-rect" width="15" height="5.225806451612925" style="stroke-width: 0.5; stroke: rgb(0, 0, 0); stroke-opacity: 1; fill: rgb(255, 102, 146); fill-opacity: 1;"/><text class="node-label" data-notex="1" x="0" y="0" text-anchor="start" transform="translate(18.25,6.812903225806462)" style="cursor: default; font-family: 'Open Sans', verdana, arial, sans-serif; font-size: 12px; fill: rgb(42, 63, 95); fill-opacity: 1; white-space: pre; text-shadow: white 1px 1px 1px, white -1px -1px 1px, white 1px -1px 1px, white -1px 1px 1px;">lHb</text></g></g></g><defs id="topdefs-2dcec1"><g class="clips"/></defs><g class="layer-above"><g class="imagelayer"/><g class="shapelayer"/></g><g class="infolayer"><g class="g-gtitle"/><g class="first-render"/></g></svg>