<svg class="main-svg" xmlns="http://www.w3.org/2000/svg" xmlns:xlink="http://www.w3.org/1999/xlink" width="1300" height="900" viewBox="0 0 1300 900" style=""><rect x="0" y="0" width="1300" height="900" style="fill: rgb(255, 255, 255); fill-opacity: 1;"/><defs id="defs-1e0272"><g class="clips"/><g class="gradients"/><g class="patterns"/></defs><g class="bglayer"/><g class="layer-below"><g class="imagelayer"/><g class="shapelayer"/></g><g class="cartesianlayer"/><g class="polarlayer"/><g class="smithlayer"/><g class="ternarylayer"/><g class="geolayer"/><g class="funnelarealayer"/><g class="pielayer"/><g class="iciclelayer"/><g class="treemaplayer"/><g class="sunburstlayer"/><g class="glimages"/><g class="sankey" transform="translate(80,100)matrix(1 0 0 1 0 0)" style="box-sizing: content-box; position: absolute; left: 0px; shape-rendering: geometricprecision; pointer-events: none;"><g class="sankey-links" style="fill: none;"><path class="sankey-link" d="M383.70000000000005,13.4608695652174C564.3000000000001,13.4608695652174 564.3000000000001,13.51304347826084 744.9000000000001,13.51304347826084L744.9000000000001,16.77391304347823C564.3000000000001,16.77391304347823 564.3000000000001,16.72173913043479 383.70000000000005,16.72173913043479Z" style="stroke: rgb(68, 68, 68); stroke-opacity: 1; fill: rgb(25, 211, 243); fill-opacity: 0.6; stroke-width: 0; opacity: 1;"/><path class="sankey-link" d="M383.70000000000005,16.72173913043479C564.3000000000001,16.72173913043479 564.3000000000001,219.5478260869565 744.9000000000001,219.5478260869565L744.9000000000001,222.80869565217387C564.3000000000001,222.80869565217387 564.3000000000001,19.982608695652182 383.70000000000005,19.982608695652182Z" style="stroke: rgb(68, 68, 68); stroke-opacity: 1; fill: rgb(25, 211, 243); fill-opacity: 0.6; stroke-width: 0; opacity: 1;"/><path class="sankey-link" d="M383.70000000000005,19.982608695652182C564.3000000000001,19.982608695652182 564.3000000000001,282.8608695652174 744.9000000000001,282.8608695652174L744.9000000000001,292.64347826086953C564.3000000000001,292.64347826086953 564.3000000000001,29.765217391304354 383.70000000000005,29.765217391304354Z" style="stroke: rgb(68, 68, 68); stroke-opacity: 1; fill: rgb(25, 211, 243); fill-opacity: 0.6; stroke-width: 0; opacity: 1;"/><path class="sankey-link" d="M383.70000000000005,29.765217391304354C564.3000000000001,29.765217391304354 564.3000000000001,409.74782608695654 744.9000000000001,409.74782608695654L744.9000000000001,413.0086956521739C564.3000000000001,413.0086956521739 564.3000000000001,33.026086956521745 383.70000000000005,33.026086956521745Z" style="stroke: rgb(68, 68, 68); stroke-opacity: 1; fill: rgb(25, 211, 243); fill-opacity: 0.6; stroke-width: 0; opacity: 1;"/><path class="sankey-link" d="M383.70000000000005,33.026086956521745C564.3000000000001,33.026086956521745 564.3000000000001,513.4434782608696 744.9000000000001,513.4434782608696L744.9000000000001,519.9652173913043C564.3000000000001,519.9652173913043 564.3000000000001,39.547826086956526 383.70000000000005,39.547826086956526Z" style="stroke: rgb(68, 68, 68); stroke-opacity: 1; fill: rgb(25, 211, 243); fill-opacity: 0.6; stroke-width: 0; opacity: 1;"/><path class="sankey-link" d="M383.70000000000005,39.547826086956526C564.3000000000001,39.547826086956526 564.3000000000001,686.1913043478262 744.9000000000001,686.1913043478262L744.9000000000001,689.4521739130437C564.3000000000001,689.4521739130437 564.3000000000001,42.80869565217392 383.70000000000005,42.80869565217392Z" style="stroke: rgb(68, 68, 68); stroke-opacity: 1; fill: rgb(25, 211, 243); fill-opacity: 0.6; stroke-width: 0; opacity: 1;"/><path class="sankey-link" d="M383.70000000000005,52.513043478260784C564.3000000000001,52.513043478260784 564.3000000000001,16.77391304347823 744.9000000000001,16.77391304347823L744.9000000000001,36.339130434782575C564.3000000000001,36.339130434782575 564.3000000000001,72.07826086956513 383.70000000000005,72.07826086956513Z" style="stroke: rgb(68, 68, 68); stroke-opacity: 1; fill: rgb(99, 110, 250); fill-opacity: 0.6; stroke-width: 0; opacity: 1;"/><path class="sankey-link" d="M383.70000000000005,72.07826086956513C564.3000000000001,72.07826086956513 564.3000000000001,137.34782608695653 744.9000000000001,137.34782608695653L744.9000000000001,140.6086956521739C564.3000000000001,140.6086956521739 564.3000000000001,75.33913043478253 383.70000000000005,75.33913043478253Z" style="stroke: rgb(68, 68, 68); stroke-opacity: 1; fill: rgb(99, 110, 250); fill-opacity: 0.6; stroke-width: 0; opacity: 1;"/><path class="sankey-link" d="M383.70000000000005,75.33913043478252C564.3000000000001,75.33913043478252 564.3000000000001,222.8086956521739 744.9000000000001,222.8086956521739L744.9000000000001,226.06956521739127C564.3000000000001,226.06956521739127 564.3000000000001,78.59999999999992 383.70000000000005,78.59999999999992Z" style="stroke: rgb(68, 68, 68); stroke-opacity: 1; fill: rgb(99, 110, 250); fill-opacity: 0.6; stroke-width: 0; opacity: 1;"/><path class="sankey-link" d="M383.70000000000005,78.59999999999991C564.3000000000001,78.59999999999991 564.3000000000001,249.96521739130424 744.9000000000001,249.96521739130424L744.9000000000001,256.48695652173905C564.3000000000001,256.48695652173905 564.3000000000001,85.12173913043469 383.70000000000005,85.12173913043469Z" style="stroke: rgb(68, 68, 68); stroke-opacity: 1; fill: rgb(99, 110, 250); fill-opacity: 0.6; stroke-width: 0; opacity: 1;"/><path class="sankey-link" d="M383.70000000000005,85.12173913043469C564.3000000000001,85.12173913043469 564.3000000000001,292.6434782608696 744.9000000000001,292.6434782608696L744.9000000000001,325.25217391304346C564.3000000000001,325.25217391304346 564.3000000000001,117.7304347826086 383.70000000000005,117.7304347826086Z" style="stroke: rgb(68, 68, 68); stroke-opacity: 1; fill: rgb(99, 110, 250); fill-opacity: 0.6; stroke-width: 0; opacity: 1;"/><path class="sankey-link" d="M383.70000000000005,117.7304347826086C564.3000000000001,117.7304347826086 564.3000000000001,413.0086956521739 744.9000000000001,413.0086956521739L744.9000000000001,435.83478260869566C564.3000000000001,435.83478260869566 564.3000000000001,140.55652173913035 383.70000000000005,140.55652173913035Z" style="stroke: rgb(68, 68, 68); stroke-opacity: 1; fill: rgb(99, 110, 250); fill-opacity: 0.6; stroke-width: 0; opacity: 1;"/><path class="sankey-link" d="M383.70000000000005,140.55652173913035C564.3000000000001,140.55652173913035 564.3000000000001,519.9652173913043 744.9000000000001,519.9652173913043L744.9000000000001,546.0521739130436C564.3000000000001,546.0521739130436 564.3000000000001,166.64347826086947 383.70000000000005,166.64347826086947Z" style="stroke: rgb(68, 68, 68); stroke-opacity: 1; fill: rgb(99, 110, 250); fill-opacity: 0.6; stroke-width: 0; opacity: 1;"/><path class="sankey-link" d="M383.70000000000005,166.64347826086947C564.3000000000001,166.64347826086947 564.3000000000001,689.4521739130436 744.9000000000001,689.4521739130436L744.9000000000001,692.713043478261C564.3000000000001,692.713043478261 564.3000000000001,169.90434782608685 383.70000000000005,169.90434782608685Z" style="stroke: rgb(68, 68, 68); stroke-opacity: 1; fill: rgb(99, 110, 250); fill-opacity: 0.6; stroke-width: 0; opacity: 1;"/><path class="sankey-link" d="M383.70000000000005,179.50434782608698C564.3000000000001,179.50434782608698 564.3000000000001,36.339130434782575 744.9000000000001,36.339130434782575L744.9000000000001,39.599999999999966C564.3000000000001,39.599999999999966 564.3000000000001,182.76521739130436 383.70000000000005,182.76521739130436Z" style="stroke: rgb(68, 68, 68); stroke-opacity: 1; fill: rgb(0, 204, 150); fill-opacity: 0.6; stroke-width: 0; opacity: 1;"/><path class="sankey-link" d="M383.70000000000005,182.7652173913044C564.3000000000001,182.7652173913044 564.3000000000001,140.60869565217394 744.9000000000001,140.60869565217394L744.9000000000001,143.8695652173913C564.3000000000001,143.8695652173913 564.3000000000001,186.02608695652177 383.70000000000005,186.02608695652177Z" style="stroke: rgb(68, 68, 68); stroke-opacity: 1; fill: rgb(0, 204, 150); fill-opacity: 0.6; stroke-width: 0; opacity: 1;"/><path class="sankey-link" d="M383.70000000000005,186.0260869565218C564.3000000000001,186.0260869565218 564.3000000000001,325.2521739130435 744.9000000000001,325.2521739130435L744.9000000000001,331.7739130434783C564.3000000000001,331.7739130434783 564.3000000000001,192.5478260869566 383.70000000000005,192.5478260869566Z" style="stroke: rgb(68, 68, 68); stroke-opacity: 1; fill: rgb(0, 204, 150); fill-opacity: 0.6; stroke-width: 0; opacity: 1;"/><path class="sankey-link" d="M383.70000000000005,192.54782608695658C564.3000000000001,192.54782608695658 564.3000000000001,435.83478260869566 744.9000000000001,435.83478260869566L744.9000000000001,439.09565217391304C564.3000000000001,439.09565217391304 564.3000000000001,195.80869565217395 383.70000000000005,195.80869565217395Z" style="stroke: rgb(68, 68, 68); stroke-opacity: 1; fill: rgb(0, 204, 150); fill-opacity: 0.6; stroke-width: 0; opacity: 1;"/><path class="sankey-link" d="M383.70000000000005,195.80869565217398C564.3000000000001,195.80869565217398 564.3000000000001,546.0521739130435 744.9000000000001,546.0521739130435L744.9000000000001,555.8347826086957C564.3000000000001,555.8347826086957 564.3000000000001,205.59130434782617 383.70000000000005,205.59130434782617Z" style="stroke: rgb(68, 68, 68); stroke-opacity: 1; fill: rgb(0, 204, 150); fill-opacity: 0.6; stroke-width: 0; opacity: 1;"/><path class="sankey-link" d="M383.70000000000005,205.59130434782617C564.3000000000001,205.59130434782617 564.3000000000001,692.7130434782609 744.9000000000001,692.7130434782609L744.9000000000001,699.2347826086957C564.3000000000001,699.2347826086957 564.3000000000001,212.11304347826098 383.70000000000005,212.11304347826098Z" style="stroke: rgb(68, 68, 68); stroke-opacity: 1; fill: rgb(0, 204, 150); fill-opacity: 0.6; stroke-width: 0; opacity: 1;"/><path class="sankey-link" d="M383.70000000000005,224.42608695652174C564.3000000000001,224.42608695652174 564.3000000000001,39.599999999999966 744.9000000000001,39.599999999999966L744.9000000000001,42.86086956521736C564.3000000000001,42.86086956521736 564.3000000000001,227.68695652173912 383.70000000000005,227.68695652173912Z" style="stroke: rgb(68, 68, 68); stroke-opacity: 1; fill: rgb(254, 203, 82); fill-opacity: 0.6; stroke-width: 0; opacity: 1;"/><path class="sankey-link" d="M383.70000000000005,227.68695652173915C564.3000000000001,227.68695652173915 564.3000000000001,143.86956521739134 744.9000000000001,143.86956521739134L744.9000000000001,153.65217391304353C564.3000000000001,153.65217391304353 564.3000000000001,237.46956521739133 383.70000000000005,237.46956521739133Z" style="stroke: rgb(68, 68, 68); stroke-opacity: 1; fill: rgb(254, 203, 82); fill-opacity: 0.6; stroke-width: 0; opacity: 1;"/><path class="sankey-link" d="M383.70000000000005,237.46956521739133C564.3000000000001,237.46956521739133 564.3000000000001,331.77391304347833 744.9000000000001,331.77391304347833L744.9000000000001,335.0347826086957C564.3000000000001,335.0347826086957 564.3000000000001,240.7304347826087 383.70000000000005,240.7304347826087Z" style="stroke: rgb(68, 68, 68); stroke-opacity: 1; fill: rgb(254, 203, 82); fill-opacity: 0.6; stroke-width: 0; opacity: 1;"/><path class="sankey-link" d="M383.70000000000005,240.73043478260874C564.3000000000001,240.73043478260874 564.3000000000001,439.09565217391304 744.9000000000001,439.09565217391304L744.9000000000001,445.6173913043478C564.3000000000001,445.6173913043478 564.3000000000001,247.25217391304355 383.70000000000005,247.25217391304355Z" style="stroke: rgb(68, 68, 68); stroke-opacity: 1; fill: rgb(254, 203, 82); fill-opacity: 0.6; stroke-width: 0; opacity: 1;"/><path class="sankey-link" d="M383.70000000000005,247.25217391304352C564.3000000000001,247.25217391304352 564.3000000000001,555.8347826086956 744.9000000000001,555.8347826086956L744.9000000000001,565.6173913043478C564.3000000000001,565.6173913043478 564.3000000000001,257.0347826086957 383.70000000000005,257.0347826086957Z" style="stroke: rgb(68, 68, 68); stroke-opacity: 1; fill: rgb(254, 203, 82); fill-opacity: 0.6; stroke-width: 0; opacity: 1;"/><path class="sankey-link" d="M383.70000000000005,268.9304347826087C564.3000000000001,268.9304347826087 564.3000000000001,42.86086956521736 744.9000000000001,42.86086956521736L744.9000000000001,49.38260869565214C564.3000000000001,49.38260869565214 564.3000000000001,275.45217391304345 383.70000000000005,275.45217391304345Z" style="stroke: rgb(68, 68, 68); stroke-opacity: 1; fill: rgb(255, 161, 90); fill-opacity: 0.6; stroke-width: 0; opacity: 1;"/><path class="sankey-link" d="M383.70000000000005,275.4521739130435C564.3000000000001,275.4521739130435 564.3000000000001,226.0695652173913 744.9000000000001,226.0695652173913L744.9000000000001,229.33043478260868C564.3000000000001,229.33043478260868 564.3000000000001,278.7130434782609 383.70000000000005,278.7130434782609Z" style="stroke: rgb(68, 68, 68); stroke-opacity: 1; fill: rgb(255, 161, 90); fill-opacity: 0.6; stroke-width: 0; opacity: 1;"/><path class="sankey-link" d="M383.70000000000005,278.7130434782609C564.3000000000001,278.7130434782609 564.3000000000001,256.48695652173905 744.9000000000001,256.48695652173905L744.9000000000001,263.0086956521738C564.3000000000001,263.0086956521738 564.3000000000001,285.23478260869564 383.70000000000005,285.23478260869564Z" style="stroke: rgb(68, 68, 68); stroke-opacity: 1; fill: rgb(255, 161, 90); fill-opacity: 0.6; stroke-width: 0; opacity: 1;"/><path class="sankey-link" d="M383.70000000000005,285.2347826086957C564.3000000000001,285.2347826086957 564.3000000000001,335.0347826086957 744.9000000000001,335.0347826086957L744.9000000000001,348.0782608695653C564.3000000000001,348.0782608695653 564.3000000000001,298.2782608695653 383.70000000000005,298.2782608695653Z" style="stroke: rgb(68, 68, 68); stroke-opacity: 1; fill: rgb(255, 161, 90); fill-opacity: 0.6; stroke-width: 0; opacity: 1;"/><path class="sankey-link" d="M383.70000000000005,298.27826086956526C564.3000000000001,298.27826086956526 564.3000000000001,445.61739130434785 744.9000000000001,445.61739130434785L744.9000000000001,452.1391304347826C564.3000000000001,452.1391304347826 564.3000000000001,304.8 383.70000000000005,304.8Z" style="stroke: rgb(68, 68, 68); stroke-opacity: 1; fill: rgb(255, 161, 90); fill-opacity: 0.6; stroke-width: 0; opacity: 1;"/><path class="sankey-link" d="M383.70000000000005,304.80000000000007C564.3000000000001,304.80000000000007 564.3000000000001,565.6173913043477 744.9000000000001,565.6173913043477L744.9000000000001,575.4C564.3000000000001,575.4 564.3000000000001,314.5826086956522 383.70000000000005,314.5826086956522Z" style="stroke: rgb(68, 68, 68); stroke-opacity: 1; fill: rgb(255, 161, 90); fill-opacity: 0.6; stroke-width: 0; opacity: 1;"/><path class="sankey-link" d="M383.70000000000005,324.91304347826093C564.3000000000001,324.91304347826093 564.3000000000001,49.38260869565214 744.9000000000001,49.38260869565214L744.9000000000001,62.4260869565217C564.3000000000001,62.4260869565217 564.3000000000001,337.95652173913055 383.70000000000005,337.95652173913055Z" style="stroke: rgb(68, 68, 68); stroke-opacity: 1; fill: rgb(171, 99, 250); fill-opacity: 0.6; stroke-width: 0; opacity: 1;"/><path class="sankey-link" d="M383.70000000000005,337.9565217391305C564.3000000000001,337.9565217391305 564.3000000000001,153.65217391304353 744.9000000000001,153.65217391304353L744.9000000000001,166.6956521739131C564.3000000000001,166.6956521739131 564.3000000000001,351.0000000000001 383.70000000000005,351.0000000000001Z" style="stroke: rgb(68, 68, 68); stroke-opacity: 1; fill: rgb(171, 99, 250); fill-opacity: 0.6; stroke-width: 0; opacity: 1;"/><path class="sankey-link" d="M383.70000000000005,351.00000000000006C564.3000000000001,351.00000000000006 564.3000000000001,229.3304347826087 744.9000000000001,229.3304347826087L744.9000000000001,232.59130434782608C564.3000000000001,232.59130434782608 564.3000000000001,354.26086956521743 383.70000000000005,354.26086956521743Z" style="stroke: rgb(68, 68, 68); stroke-opacity: 1; fill: rgb(171, 99, 250); fill-opacity: 0.6; stroke-width: 0; opacity: 1;"/><path class="sankey-link" d="M383.70000000000005,354.26086956521743C564.3000000000001,354.26086956521743 564.3000000000001,263.00869565217386 744.9000000000001,263.00869565217386L744.9000000000001,266.26956521739123C564.3000000000001,266.26956521739123 564.3000000000001,357.5217391304348 383.70000000000005,357.5217391304348Z" style="stroke: rgb(68, 68, 68); stroke-opacity: 1; fill: rgb(171, 99, 250); fill-opacity: 0.6; stroke-width: 0; opacity: 1;"/><path class="sankey-link" d="M383.70000000000005,357.5217391304348C564.3000000000001,357.5217391304348 564.3000000000001,348.07826086956527 744.9000000000001,348.07826086956527L744.9000000000001,357.8608695652174C564.3000000000001,357.8608695652174 564.3000000000001,367.30434782608694 383.70000000000005,367.30434782608694Z" style="stroke: rgb(68, 68, 68); stroke-opacity: 1; fill: rgb(171, 99, 250); fill-opacity: 0.6; stroke-width: 0; opacity: 1;"/><path class="sankey-link" d="M383.70000000000005,367.304347826087C564.3000000000001,367.304347826087 564.3000000000001,452.13913043478266 744.9000000000001,452.13913043478266L744.9000000000001,471.70434782608703C564.3000000000001,471.70434782608703 564.3000000000001,386.86956521739137 383.70000000000005,386.86956521739137Z" style="stroke: rgb(68, 68, 68); stroke-opacity: 1; fill: rgb(171, 99, 250); fill-opacity: 0.6; stroke-width: 0; opacity: 1;"/><path class="sankey-link" d="M383.70000000000005,386.86956521739137C564.3000000000001,386.86956521739137 564.3000000000001,575.3999999999999 744.9000000000001,575.3999999999999L744.9000000000001,591.7043478260869C564.3000000000001,591.7043478260869 564.3000000000001,403.17391304347836 383.70000000000005,403.17391304347836Z" style="stroke: rgb(68, 68, 68); stroke-opacity: 1; fill: rgb(171, 99, 250); fill-opacity: 0.6; stroke-width: 0; opacity: 1;"/><path class="sankey-link" d="M383.70000000000005,403.1739130434783C564.3000000000001,403.1739130434783 564.3000000000001,699.2347826086957 744.9000000000001,699.2347826086957L744.9000000000001,702.4956521739132C564.3000000000001,702.4956521739132 564.3000000000001,406.4347826086957 383.70000000000005,406.4347826086957Z" style="stroke: rgb(68, 68, 68); stroke-opacity: 1; fill: rgb(171, 99, 250); fill-opacity: 0.6; stroke-width: 0; opacity: 1;"/><path class="sankey-link" d="M383.70000000000005,411.5478260869568C564.3000000000001,411.5478260869568 564.3000000000001,62.4260869565217 744.9000000000001,62.4260869565217L744.9000000000001,121.12173913043473C564.3000000000001,121.12173913043473 564.3000000000001,470.2434782608698 383.70000000000005,470.2434782608698Z" style="stroke: rgb(68, 68, 68); stroke-opacity: 1; fill: rgb(239, 85, 59); fill-opacity: 0.6; stroke-width: 0; opacity: 1;"/><path class="sankey-link" d="M383.70000000000005,470.24347826086984C564.3000000000001,470.24347826086984 564.3000000000001,166.6956521739131 744.9000000000001,166.6956521739131L744.9000000000001,199.30434782608702C564.3000000000001,199.30434782608702 564.3000000000001,502.8521739130437 383.70000000000005,502.8521739130437Z" style="stroke: rgb(68, 68, 68); stroke-opacity: 1; fill: rgb(239, 85, 59); fill-opacity: 0.6; stroke-width: 0; opacity: 1;"/><path class="sankey-link" d="M383.70000000000005,502.8521739130438C564.3000000000001,502.8521739130438 564.3000000000001,357.86086956521746 744.9000000000001,357.86086956521746L744.9000000000001,383.9478260869566C564.3000000000001,383.9478260869566 564.3000000000001,528.939130434783 383.70000000000005,528.939130434783Z" style="stroke: rgb(68, 68, 68); stroke-opacity: 1; fill: rgb(239, 85, 59); fill-opacity: 0.6; stroke-width: 0; opacity: 1;"/><path class="sankey-link" d="M383.70000000000005,528.9391304347829C564.3000000000001,528.9391304347829 564.3000000000001,471.70434782608703 744.9000000000001,471.70434782608703L744.9000000000001,497.79130434782616C564.3000000000001,497.79130434782616 564.3000000000001,555.0260869565221 383.70000000000005,555.0260869565221Z" style="stroke: rgb(68, 68, 68); stroke-opacity: 1; fill: rgb(239, 85, 59); fill-opacity: 0.6; stroke-width: 0; opacity: 1;"/><path class="sankey-link" d="M383.70000000000005,555.026086956522C564.3000000000001,555.026086956522 564.3000000000001,591.7043478260869 744.9000000000001,591.7043478260869L744.9000000000001,653.6608695652174C564.3000000000001,653.6608695652174 564.3000000000001,616.9826086956525 383.70000000000005,616.9826086956525Z" style="stroke: rgb(68, 68, 68); stroke-opacity: 1; fill: rgb(239, 85, 59); fill-opacity: 0.6; stroke-width: 0; opacity: 1;"/><path class="sankey-link" d="M383.70000000000005,616.9826086956524C564.3000000000001,616.9826086956524 564.3000000000001,702.4956521739131 744.9000000000001,702.4956521739131L744.9000000000001,705.7565217391306C564.3000000000001,705.7565217391306 564.3000000000001,620.2434782608699 383.70000000000005,620.2434782608699Z" style="stroke: rgb(68, 68, 68); stroke-opacity: 1; fill: rgb(239, 85, 59); fill-opacity: 0.6; stroke-width: 0; opacity: 1;"/><path class="sankey-link" d="M383.70000000000005,626.4000000000002C564.3000000000001,626.4000000000002 564.3000000000001,121.12173913043475 744.9000000000001,121.12173913043475L744.9000000000001,124.38260869565215C564.3000000000001,124.38260869565215 564.3000000000001,629.6608695652177 383.70000000000005,629.6608695652177Z" style="stroke: rgb(68, 68, 68); stroke-opacity: 1; fill: rgb(182, 232, 128); fill-opacity: 0.6; stroke-width: 0; opacity: 1;"/><path class="sankey-link" d="M383.70000000000005,629.6608695652176C564.3000000000001,629.6608695652176 564.3000000000001,199.304347826087 744.9000000000001,199.304347826087L744.9000000000001,205.8260869565218C564.3000000000001,205.8260869565218 564.3000000000001,636.1826086956523 383.70000000000005,636.1826086956523Z" style="stroke: rgb(68, 68, 68); stroke-opacity: 1; fill: rgb(182, 232, 128); fill-opacity: 0.6; stroke-width: 0; opacity: 1;"/><path class="sankey-link" d="M383.70000000000005,636.1826086956523C564.3000000000001,636.1826086956523 564.3000000000001,266.26956521739123 744.9000000000001,266.26956521739123L744.9000000000001,269.5304347826086C564.3000000000001,269.5304347826086 564.3000000000001,639.4434782608698 383.70000000000005,639.4434782608698Z" style="stroke: rgb(68, 68, 68); stroke-opacity: 1; fill: rgb(182, 232, 128); fill-opacity: 0.6; stroke-width: 0; opacity: 1;"/><path class="sankey-link" d="M383.70000000000005,639.4434782608697C564.3000000000001,639.4434782608697 564.3000000000001,383.9478260869566 744.9000000000001,383.9478260869566L744.9000000000001,396.9913043478262C564.3000000000001,396.9913043478262 564.3000000000001,652.4869565217392 383.70000000000005,652.4869565217392Z" style="stroke: rgb(68, 68, 68); stroke-opacity: 1; fill: rgb(182, 232, 128); fill-opacity: 0.6; stroke-width: 0; opacity: 1;"/><path class="sankey-link" d="M383.70000000000005,652.4869565217393C564.3000000000001,652.4869565217393 564.3000000000001,497.79130434782616 744.9000000000001,497.79130434782616L744.9000000000001,501.05217391304353C564.3000000000001,501.05217391304353 564.3000000000001,655.7478260869568 383.70000000000005,655.7478260869568Z" style="stroke: rgb(68, 68, 68); stroke-opacity: 1; fill: rgb(182, 232, 128); fill-opacity: 0.6; stroke-width: 0; opacity: 1;"/><path class="sankey-link" d="M383.70000000000005,655.7478260869567C564.3000000000001,655.7478260869567 564.3000000000001,653.6608695652172 744.9000000000001,653.6608695652172L744.9000000000001,673.2260869565215C564.3000000000001,673.2260869565215 564.3000000000001,675.313043478261 383.70000000000005,675.313043478261Z" style="stroke: rgb(68, 68, 68); stroke-opacity: 1; fill: rgb(182, 232, 128); fill-opacity: 0.6; stroke-width: 0; opacity: 1;"/><path class="sankey-link" d="M15,716.7391304347827C379.95000000000005,716.7391304347827 379.95000000000005,232.5913043478261 744.9000000000001,232.5913043478261L744.9000000000001,235.8521739130435C379.95000000000005,235.8521739130435 379.95000000000005,720.0000000000002 15,720.0000000000002Z" style="stroke: rgb(68, 68, 68); stroke-opacity: 1; fill: rgb(255, 102, 146); fill-opacity: 0.6; stroke-width: 0; opacity: 1;"/></g><g class="sankey-node-set" style="cursor: ns-resize;"><g class="sankey-node" transform="translate(744.900,13.513)" style="opacity: 1;"><rect class="node-rect" width="15" height="110.86956521739137" style="stroke-width: 0.5; stroke: rgb(0, 0, 0); stroke-opacity: 1; fill: rgb(128, 128, 128); fill-opacity: 1;"/><text class="node-label" data-notex="1" x="0" y="0" text-anchor="end" transform="translate(-3.25,59.63478260869569)" style="cursor: default; font-family: 'Open Sans', verdana, arial, sans-serif; font-size: 12px; fill: rgb(42, 63, 95); fill-opacity: 1; white-space: pre; text-shadow: white 1px 1px 1px, white -1px -1px 1px, white 1px -1px 1px, white -1px 1px 1px;">attacking</text></g><g class="sankey-node" transform="translate(744.900,137.348)" style="opacity: 1;"><rect class="node-rect" width="15" height="68.47826086956519" style="stroke-width: 0.5; stroke: rgb(0, 0, 0); stroke-opacity: 1; fill: rgb(128, 128, 128); fill-opacity: 1;"/><text class="node-label" data-notex="1" x="0" y="0" text-anchor="end" transform="translate(-3.25,38.4391304347826)" style="cursor: default; font-family: 'Open Sans', verdana, arial, sans-serif; font-size: 12px; fill: rgb(42, 63, 95); fill-opacity: 1; white-space: pre; text-shadow: white 1px 1px 1px, white -1px -1px 1px, white 1px -1px 1px, white -1px 1px 1px;">being_attack</text></g><g class="sankey-node" transform="translate(744.900,219.548)" style="opacity: 1;"><rect class="node-rect" width="15" height="16.304347826086996" style="stroke-width: 0.5; stroke: rgb(0, 0, 0); stroke-opacity: 1; fill: rgb(128, 128, 128); fill-opacity: 1;"/><text class="node-label" data-notex="1" x="0" y="0" text-anchor="end" transform="translate(-3.25,12.352173913043497)" style="cursor: default; font-family: 'Open Sans', verdana, arial, sans-serif; font-size: 12px; fill: rgb(42, 63, 95); fill-opacity: 1; white-space: pre; text-shadow: white 1px 1px 1px, white -1px -1px 1px, white 1px -1px 1px, white -1px 1px 1px;">dig</text></g><g class="sankey-node" transform="translate(744.900,249.965)" style="opacity: 1;"><rect class="node-rect" width="15" height="19.565217391304486" style="stroke-width: 0.5; stroke: rgb(0, 0, 0); stroke-opacity: 1; fill: rgb(128, 128, 128); fill-opacity: 1;"/><text class="node-label" data-notex="1" x="0" y="0" text-anchor="end" transform="translate(-3.25,13.982608695652242)" style="cursor: default; font-family: 'Open Sans', verdana, arial, sans-serif; font-size: 12px; fill: rgb(42, 63, 95); fill-opacity: 1; white-space: pre; text-shadow: white 1px 1px 1px, white -1px -1px 1px, white 1px -1px 1px, white -1px 1px 1px;">groom</text></g><g class="sankey-node" transform="translate(744.900,282.861)" style="opacity: 1;"><rect class="node-rect" width="15" height="114.13043478260863" style="stroke-width: 0.5; stroke: rgb(0, 0, 0); stroke-opacity: 1; fill: rgb(128, 128, 128); fill-opacity: 1;"/><text class="node-label" data-notex="1" x="0" y="0" text-anchor="end" transform="translate(-3.25,61.26521739130432)" style="cursor: default; font-family: 'Open Sans', verdana, arial, sans-serif; font-size: 12px; fill: rgb(42, 63, 95); fill-opacity: 1; white-space: pre; text-shadow: white 1px 1px 1px, white -1px -1px 1px, white 1px -1px 1px, white -1px 1px 1px;">move</text></g><g class="sankey-node" transform="translate(744.900,409.748)" style="opacity: 1;"><rect class="node-rect" width="15" height="91.304347826087" style="stroke-width: 0.5; stroke: rgb(0, 0, 0); stroke-opacity: 1; fill: rgb(128, 128, 128); fill-opacity: 1;"/><text class="node-label" data-notex="1" x="0" y="0" text-anchor="end" transform="translate(-3.25,49.8521739130435)" style="cursor: default; font-family: 'Open Sans', verdana, arial, sans-serif; font-size: 12px; fill: rgb(42, 63, 95); fill-opacity: 1; white-space: pre; text-shadow: white 1px 1px 1px, white -1px -1px 1px, white 1px -1px 1px, white -1px 1px 1px;">sniff</text></g><g class="sankey-node" transform="translate(744.900,513.443)" style="opacity: 1;"><rect class="node-rect" width="15" height="159.78260869565224" style="stroke-width: 0.5; stroke: rgb(0, 0, 0); stroke-opacity: 1; fill: rgb(128, 128, 128); fill-opacity: 1;"/><text class="node-label" data-notex="1" x="0" y="0" text-anchor="end" transform="translate(-3.25,84.09130434782612)" style="cursor: default; font-family: 'Open Sans', verdana, arial, sans-serif; font-size: 12px; fill: rgb(42, 63, 95); fill-opacity: 1; white-space: pre; text-shadow: white 1px 1px 1px, white -1px -1px 1px, white 1px -1px 1px, white -1px 1px 1px;">social</text></g><g class="sankey-node" transform="translate(744.900,686.191)" style="opacity: 1;"><rect class="node-rect" width="15" height="19.565217391304486" style="stroke-width: 0.5; stroke: rgb(0, 0, 0); stroke-opacity: 1; fill: rgb(128, 128, 128); fill-opacity: 1;"/><text class="node-label" data-notex="1" x="0" y="0" text-anchor="end" transform="translate(-3.25,13.982608695652242)" style="cursor: default; font-family: 'Open Sans', verdana, arial, sans-serif; font-size: 12px; fill: rgb(42, 63, 95); fill-opacity: 1; white-space: pre; text-shadow: white 1px 1px 1px, white -1px -1px 1px, white 1px -1px 1px, white -1px 1px 1px;">still</text></g><g class="sankey-node" transform="translate(368.700,13.461)" style="opacity: 1;"><rect class="node-rect" width="15" height="29.347826086956502" style="stroke-width: 0.5; stroke: rgb(0, 0, 0); stroke-opacity: 1; fill: rgb(25, 211, 243); fill-opacity: 1;"/><text class="node-label" data-notex="1" x="0" y="0" text-anchor="start" transform="translate(18.25,18.87391304347825)" style="cursor: default; font-family: 'Open Sans', verdana, arial, sans-serif; font-size: 12px; fill: rgb(42, 63, 95); fill-opacity: 1; white-space: pre; text-shadow: white 1px 1px 1px, white -1px -1px 1px, white 1px -1px 1px, white -1px 1px 1px;">BLA</text></g><g class="sankey-node" transform="translate(368.700,52.513)" style="opacity: 1;"><rect class="node-rect" width="15" height="117.39130434782624" style="stroke-width: 0.5; stroke: rgb(0, 0, 0); stroke-opacity: 1; fill: rgb(99, 110, 250); fill-opacity: 1;"/><text class="node-label" data-notex="1" x="0" y="0" text-anchor="start" transform="translate(18.25,62.89565217391312)" style="cursor: default; font-family: 'Open Sans', verdana, arial, sans-serif; font-size: 12px; fill: rgb(42, 63, 95); fill-opacity: 1; white-space: pre; text-shadow: white 1px 1px 1px, white -1px -1px 1px, white 1px -1px 1px, white -1px 1px 1px;">Cla</text></g><g class="sankey-node" transform="translate(368.700,179.504)" style="opacity: 1;"><rect class="node-rect" width="15" height="32.60869565217388" style="stroke-width: 0.5; stroke: rgb(0, 0, 0); stroke-opacity: 1; fill: rgb(0, 204, 150); fill-opacity: 1;"/><text class="node-label" data-notex="1" x="0" y="0" text-anchor="start" transform="translate(18.25,20.50434782608694)" style="cursor: default; font-family: 'Open Sans', verdana, arial, sans-serif; font-size: 12px; fill: rgb(42, 63, 95); fill-opacity: 1; white-space: pre; text-shadow: white 1px 1px 1px, white -1px -1px 1px, white 1px -1px 1px, white -1px 1px 1px;">LC</text></g><g class="sankey-node" transform="translate(368.700,224.426)" style="opacity: 1;"><rect class="node-rect" width="15" height="32.60869565217402" style="stroke-width: 0.5; stroke: rgb(0, 0, 0); stroke-opacity: 1; fill: rgb(254, 203, 82); fill-opacity: 1;"/><text class="node-label" data-notex="1" x="0" y="0" text-anchor="start" transform="translate(18.25,20.50434782608701)" style="cursor: default; font-family: 'Open Sans', verdana, arial, sans-serif; font-size: 12px; fill: rgb(42, 63, 95); fill-opacity: 1; white-space: pre; text-shadow: white 1px 1px 1px, white -1px -1px 1px, white 1px -1px 1px, white -1px 1px 1px;">LHyp</text></g><g class="sankey-node" transform="translate(368.700,268.930)" style="opacity: 1;"><rect class="node-rect" width="15" height="45.65217391304361" style="stroke-width: 0.5; stroke: rgb(0, 0, 0); stroke-opacity: 1; fill: rgb(255, 161, 90); fill-opacity: 1;"/><text class="node-label" data-notex="1" x="0" y="0" text-anchor="start" transform="translate(18.25,27.026086956521805)" style="cursor: default; font-family: 'Open Sans', verdana, arial, sans-serif; font-size: 12px; fill: rgb(42, 63, 95); fill-opacity: 1; white-space: pre; text-shadow: white 1px 1px 1px, white -1px -1px 1px, white 1px -1px 1px, white -1px 1px 1px;">NAc</text></g><g class="sankey-node" transform="translate(368.700,324.913)" style="opacity: 1;"><rect class="node-rect" width="15" height="81.52173913043487" style="stroke-width: 0.5; stroke: rgb(0, 0, 0); stroke-opacity: 1; fill: rgb(171, 99, 250); fill-opacity: 1;"/><text class="node-label" data-notex="1" x="0" y="0" text-anchor="start" transform="translate(18.25,44.960869565217436)" style="cursor: default; font-family: 'Open Sans', verdana, arial, sans-serif; font-size: 12px; fill: rgb(42, 63, 95); fill-opacity: 1; white-space: pre; text-shadow: white 1px 1px 1px, white -1px -1px 1px, white 1px -1px 1px, white -1px 1px 1px;">Str</text></g><g class="sankey-node" transform="translate(368.700,411.548)" style="opacity: 1;"><rect class="node-rect" width="15" height="208.69565217391278" style="stroke-width: 0.5; stroke: rgb(0, 0, 0); stroke-opacity: 1; fill: rgb(239, 85, 59); fill-opacity: 1;"/><text class="node-label" data-notex="1" x="0" y="0" text-anchor="start" transform="translate(18.25,108.54782608695639)" style="cursor: default; font-family: 'Open Sans', verdana, arial, sans-serif; font-size: 12px; fill: rgb(42, 63, 95); fill-opacity: 1; white-space: pre; text-shadow: white 1px 1px 1px, white -1px -1px 1px, white 1px -1px 1px, white -1px 1px 1px;">VTA</text></g><g class="sankey-node" transform="translate(368.700,626.400)" style="opacity: 1;"><rect class="node-rect" width="15" height="48.91304347826076" style="stroke-width: 0.5; stroke: rgb(0, 0, 0); stroke-opacity: 1; fill: rgb(182, 232, 128); fill-opacity: 1;"/><text class="node-label" data-notex="1" x="0" y="0" text-anchor="start" transform="translate(18.25,28.65652173913038)" style="cursor: default; font-family: 'Open Sans', verdana, arial, sans-serif; font-size: 12px; fill: rgb(42, 63, 95); fill-opacity: 1; white-space: pre; text-shadow: white 1px 1px 1px, white -1px -1px 1px, white 1px -1px 1px, white -1px 1px 1px;">cPFC</text></g><g class="sankey-node" transform="translate(0.000,716.739)" style="opacity: 1;"><rect class="node-rect" width="15" height="3.260869565217263" style="stroke-width: 0.5; stroke: rgb(0, 0, 0); stroke-opacity: 1; fill: rgb(255, 102, 146); fill-opacity: 1;"/><text class="node-label" data-notex="1" x="0" y="0" text-anchor="start" transform="translate(18.25,5.830434782608631)" style="cursor: default; font-family: 'Open Sans', verdana, arial, sans-serif; font-size: 12px; fill: rgb(42, 63, 95); fill-opacity: 1; white-space: pre; text-shadow: white 1px 1px 1px, white -1px -1px 1px, white 1px -1px 1px, white -1px 1px 1px;">lHb</text></g></g></g><defs id="topdefs-1e0272"><g class="clips"/></defs><g class="layer-above"><g class="imagelayer"/><g class="shapelayer"/></g><g class="infolayer"><g class="g-gtitle"/><g class="first-render"/></g></svg>