<svg class="main-svg" xmlns="http://www.w3.org/2000/svg" xmlns:xlink="http://www.w3.org/1999/xlink" width="1300" height="900" viewBox="0 0 1300 900" style=""><rect x="0" y="0" width="1300" height="900" style="fill: rgb(255, 255, 255); fill-opacity: 1;"/><defs id="defs-c30656"><g class="clips"/><g class="gradients"/><g class="patterns"/></defs><g class="bglayer"/><g class="layer-below"><g class="imagelayer"/><g class="shapelayer"/></g><g class="cartesianlayer"/><g class="polarlayer"/><g class="smithlayer"/><g class="ternarylayer"/><g class="geolayer"/><g class="funnelarealayer"/><g class="pielayer"/><g class="iciclelayer"/><g class="treemaplayer"/><g class="sunburstlayer"/><g class="glimages"/><g class="sankey" transform="translate(80,100)matrix(1 0 0 1 0 0)" style="box-sizing: content-box; position: absolute; left: 0px; shape-rendering: geometricprecision; pointer-events: none;"><g class="sankey-links" style="fill: none;"><path class="sankey-link" d="M383.70000000000005,13.916279069767462C564.3000000000001,13.916279069767462 564.3000000000001,14.727906976744194 744.9000000000001,14.727906976744194L744.9000000000001,19.262790697674426C564.3000000000001,19.262790697674426 564.3000000000001,18.451162790697694 383.70000000000005,18.451162790697694Z" style="stroke: rgb(68, 68, 68); stroke-opacity: 1; fill: rgb(25, 211, 243); fill-opacity: 0.6; stroke-width: 0; opacity: 1;"/><path class="sankey-link" d="M383.70000000000005,18.451162790697694C564.3000000000001,18.451162790697694 564.3000000000001,211.49767441860456 744.9000000000001,211.49767441860456L744.9000000000001,219.05581395348827C564.3000000000001,219.05581395348827 564.3000000000001,26.009302325581416 383.70000000000005,26.009302325581416Z" style="stroke: rgb(68, 68, 68); stroke-opacity: 1; fill: rgb(25, 211, 243); fill-opacity: 0.6; stroke-width: 0; opacity: 1;"/><path class="sankey-link" d="M383.70000000000005,26.009302325581416C564.3000000000001,26.009302325581416 564.3000000000001,372.0465116279069 744.9000000000001,372.0465116279069L744.9000000000001,373.55813953488365C564.3000000000001,373.55813953488365 564.3000000000001,27.520930232558158 383.70000000000005,27.520930232558158Z" style="stroke: rgb(68, 68, 68); stroke-opacity: 1; fill: rgb(25, 211, 243); fill-opacity: 0.6; stroke-width: 0; opacity: 1;"/><path class="sankey-link" d="M383.70000000000005,27.520930232558165C564.3000000000001,27.520930232558165 564.3000000000001,466.0488372093022 744.9000000000001,466.0488372093022L744.9000000000001,475.1186046511626C564.3000000000001,475.1186046511626 564.3000000000001,36.59069767441863 383.70000000000005,36.59069767441863Z" style="stroke: rgb(68, 68, 68); stroke-opacity: 1; fill: rgb(25, 211, 243); fill-opacity: 0.6; stroke-width: 0; opacity: 1;"/><path class="sankey-link" d="M383.70000000000005,36.59069767441863C564.3000000000001,36.59069767441863 564.3000000000001,619.039534883721 744.9000000000001,619.039534883721L744.9000000000001,620.5511627906978C564.3000000000001,620.5511627906978 564.3000000000001,38.10232558139537 383.70000000000005,38.10232558139537Z" style="stroke: rgb(68, 68, 68); stroke-opacity: 1; fill: rgb(25, 211, 243); fill-opacity: 0.6; stroke-width: 0; opacity: 1;"/><path class="sankey-link" d="M383.70000000000005,50.2953488372093C564.3000000000001,50.2953488372093 564.3000000000001,19.262790697674426 744.9000000000001,19.262790697674426L744.9000000000001,25.309302325581406C564.3000000000001,25.309302325581406 564.3000000000001,56.341860465116284 383.70000000000005,56.341860465116284Z" style="stroke: rgb(68, 68, 68); stroke-opacity: 1; fill: rgb(99, 110, 250); fill-opacity: 0.6; stroke-width: 0; opacity: 1;"/><path class="sankey-link" d="M383.70000000000005,56.341860465116284C564.3000000000001,56.341860465116284 564.3000000000001,100.66279069767442 744.9000000000001,100.66279069767442L744.9000000000001,106.70930232558139C564.3000000000001,106.70930232558139 564.3000000000001,62.388372093023264 383.70000000000005,62.388372093023264Z" style="stroke: rgb(68, 68, 68); stroke-opacity: 1; fill: rgb(99, 110, 250); fill-opacity: 0.6; stroke-width: 0; opacity: 1;"/><path class="sankey-link" d="M383.70000000000005,62.38837209302326C564.3000000000001,62.38837209302326 564.3000000000001,150.12325581395345 744.9000000000001,150.12325581395345L744.9000000000001,156.16976744186042C564.3000000000001,156.16976744186042 564.3000000000001,68.43488372093023 383.70000000000005,68.43488372093023Z" style="stroke: rgb(68, 68, 68); stroke-opacity: 1; fill: rgb(99, 110, 250); fill-opacity: 0.6; stroke-width: 0; opacity: 1;"/><path class="sankey-link" d="M383.70000000000005,68.43488372093024C564.3000000000001,68.43488372093024 564.3000000000001,193.39069767441862 744.9000000000001,193.39069767441862L744.9000000000001,194.90232558139536C564.3000000000001,194.90232558139536 564.3000000000001,69.94651162790699 383.70000000000005,69.94651162790699Z" style="stroke: rgb(68, 68, 68); stroke-opacity: 1; fill: rgb(99, 110, 250); fill-opacity: 0.6; stroke-width: 0; opacity: 1;"/><path class="sankey-link" d="M383.70000000000005,69.94651162790699C564.3000000000001,69.94651162790699 564.3000000000001,219.05581395348827 744.9000000000001,219.05581395348827L744.9000000000001,235.68372093023243C564.3000000000001,235.68372093023243 564.3000000000001,86.57441860465117 383.70000000000005,86.57441860465117Z" style="stroke: rgb(68, 68, 68); stroke-opacity: 1; fill: rgb(99, 110, 250); fill-opacity: 0.6; stroke-width: 0; opacity: 1;"/><path class="sankey-link" d="M383.70000000000005,86.57441860465117C564.3000000000001,86.57441860465117 564.3000000000001,373.55813953488365 744.9000000000001,373.55813953488365L744.9000000000001,384.13953488372084C564.3000000000001,384.13953488372084 564.3000000000001,97.15581395348839 383.70000000000005,97.15581395348839Z" style="stroke: rgb(68, 68, 68); stroke-opacity: 1; fill: rgb(99, 110, 250); fill-opacity: 0.6; stroke-width: 0; opacity: 1;"/><path class="sankey-link" d="M383.70000000000005,97.15581395348838C564.3000000000001,97.15581395348838 564.3000000000001,475.1186046511626 744.9000000000001,475.1186046511626L744.9000000000001,499.3046511627905C564.3000000000001,499.3046511627905 564.3000000000001,121.3418604651163 383.70000000000005,121.3418604651163Z" style="stroke: rgb(68, 68, 68); stroke-opacity: 1; fill: rgb(99, 110, 250); fill-opacity: 0.6; stroke-width: 0; opacity: 1;"/><path class="sankey-link" d="M383.70000000000005,121.34186046511628C564.3000000000001,121.34186046511628 564.3000000000001,620.5511627906977 744.9000000000001,620.5511627906977L744.9000000000001,635.6674418604651C564.3000000000001,635.6674418604651 564.3000000000001,136.4581395348837 383.70000000000005,136.4581395348837Z" style="stroke: rgb(68, 68, 68); stroke-opacity: 1; fill: rgb(99, 110, 250); fill-opacity: 0.6; stroke-width: 0; opacity: 1;"/><path class="sankey-link" d="M383.70000000000005,147.5325581395349C564.3000000000001,147.5325581395349 564.3000000000001,25.309302325581402 744.9000000000001,25.309302325581402L744.9000000000001,28.332558139534893C564.3000000000001,28.332558139534893 564.3000000000001,150.55581395348838 383.70000000000005,150.55581395348838Z" style="stroke: rgb(68, 68, 68); stroke-opacity: 1; fill: rgb(239, 85, 59); fill-opacity: 0.6; stroke-width: 0; opacity: 1;"/><path class="sankey-link" d="M383.70000000000005,150.55581395348838C564.3000000000001,150.55581395348838 564.3000000000001,106.7093023255814 744.9000000000001,106.7093023255814L744.9000000000001,108.22093023255815C564.3000000000001,108.22093023255815 564.3000000000001,152.06744186046512 383.70000000000005,152.06744186046512Z" style="stroke: rgb(68, 68, 68); stroke-opacity: 1; fill: rgb(239, 85, 59); fill-opacity: 0.6; stroke-width: 0; opacity: 1;"/><path class="sankey-link" d="M383.70000000000005,152.06744186046512C564.3000000000001,152.06744186046512 564.3000000000001,156.16976744186042 744.9000000000001,156.16976744186042L744.9000000000001,157.68139534883716C564.3000000000001,157.68139534883716 564.3000000000001,153.57906976744187 383.70000000000005,153.57906976744187Z" style="stroke: rgb(68, 68, 68); stroke-opacity: 1; fill: rgb(239, 85, 59); fill-opacity: 0.6; stroke-width: 0; opacity: 1;"/><path class="sankey-link" d="M383.70000000000005,153.57906976744187C564.3000000000001,153.57906976744187 564.3000000000001,235.68372093023245 744.9000000000001,235.68372093023245L744.9000000000001,259.86976744186035C564.3000000000001,259.86976744186035 564.3000000000001,177.7651162790698 383.70000000000005,177.7651162790698Z" style="stroke: rgb(68, 68, 68); stroke-opacity: 1; fill: rgb(239, 85, 59); fill-opacity: 0.6; stroke-width: 0; opacity: 1;"/><path class="sankey-link" d="M383.70000000000005,177.7651162790698C564.3000000000001,177.7651162790698 564.3000000000001,384.13953488372084 744.9000000000001,384.13953488372084L744.9000000000001,399.25581395348826C564.3000000000001,399.25581395348826 564.3000000000001,192.8813953488372 383.70000000000005,192.8813953488372Z" style="stroke: rgb(68, 68, 68); stroke-opacity: 1; fill: rgb(239, 85, 59); fill-opacity: 0.6; stroke-width: 0; opacity: 1;"/><path class="sankey-link" d="M383.70000000000005,192.88139534883723C564.3000000000001,192.88139534883723 564.3000000000001,499.30465116279055 744.9000000000001,499.30465116279055L744.9000000000001,521.9790697674417C564.3000000000001,521.9790697674417 564.3000000000001,215.5558139534884 383.70000000000005,215.5558139534884Z" style="stroke: rgb(68, 68, 68); stroke-opacity: 1; fill: rgb(239, 85, 59); fill-opacity: 0.6; stroke-width: 0; opacity: 1;"/><path class="sankey-link" d="M383.70000000000005,215.55581395348838C564.3000000000001,215.55581395348838 564.3000000000001,635.6674418604651 744.9000000000001,635.6674418604651L744.9000000000001,647.7604651162791C564.3000000000001,647.7604651162791 564.3000000000001,227.64883720930231 383.70000000000005,227.64883720930231Z" style="stroke: rgb(68, 68, 68); stroke-opacity: 1; fill: rgb(239, 85, 59); fill-opacity: 0.6; stroke-width: 0; opacity: 1;"/><path class="sankey-link" d="M383.70000000000005,239.93255813953485C564.3000000000001,239.93255813953485 564.3000000000001,28.33255813953489 744.9000000000001,28.33255813953489L744.9000000000001,32.86744186046512C564.3000000000001,32.86744186046512 564.3000000000001,244.46744186046507 383.70000000000005,244.46744186046507Z" style="stroke: rgb(68, 68, 68); stroke-opacity: 1; fill: rgb(254, 203, 82); fill-opacity: 0.6; stroke-width: 0; opacity: 1;"/><path class="sankey-link" d="M383.70000000000005,244.46744186046507C564.3000000000001,244.46744186046507 564.3000000000001,108.22093023255815 744.9000000000001,108.22093023255815L744.9000000000001,112.75581395348837C564.3000000000001,112.75581395348837 564.3000000000001,249.0023255813953 383.70000000000005,249.0023255813953Z" style="stroke: rgb(68, 68, 68); stroke-opacity: 1; fill: rgb(254, 203, 82); fill-opacity: 0.6; stroke-width: 0; opacity: 1;"/><path class="sankey-link" d="M383.70000000000005,249.0023255813953C564.3000000000001,249.0023255813953 564.3000000000001,259.86976744186035 744.9000000000001,259.86976744186035L744.9000000000001,268.9395348837208C564.3000000000001,268.9395348837208 564.3000000000001,258.0720930232558 383.70000000000005,258.0720930232558Z" style="stroke: rgb(68, 68, 68); stroke-opacity: 1; fill: rgb(254, 203, 82); fill-opacity: 0.6; stroke-width: 0; opacity: 1;"/><path class="sankey-link" d="M383.70000000000005,258.0720930232558C564.3000000000001,258.0720930232558 564.3000000000001,399.25581395348826 744.9000000000001,399.25581395348826L744.9000000000001,405.3023255813952C564.3000000000001,405.3023255813952 564.3000000000001,264.11860465116274 383.70000000000005,264.11860465116274Z" style="stroke: rgb(68, 68, 68); stroke-opacity: 1; fill: rgb(254, 203, 82); fill-opacity: 0.6; stroke-width: 0; opacity: 1;"/><path class="sankey-link" d="M383.70000000000005,264.11860465116274C564.3000000000001,264.11860465116274 564.3000000000001,521.9790697674417 744.9000000000001,521.9790697674417L744.9000000000001,523.4906976744186C564.3000000000001,523.4906976744186 564.3000000000001,265.6302325581395 383.70000000000005,265.6302325581395Z" style="stroke: rgb(68, 68, 68); stroke-opacity: 1; fill: rgb(254, 203, 82); fill-opacity: 0.6; stroke-width: 0; opacity: 1;"/><path class="sankey-link" d="M383.70000000000005,278.18604651162804C564.3000000000001,278.18604651162804 564.3000000000001,32.86744186046512 744.9000000000001,32.86744186046512L744.9000000000001,43.448837209302326C564.3000000000001,43.448837209302326 564.3000000000001,288.7674418604652 383.70000000000005,288.7674418604652Z" style="stroke: rgb(68, 68, 68); stroke-opacity: 1; fill: rgb(171, 99, 250); fill-opacity: 0.6; stroke-width: 0; opacity: 1;"/><path class="sankey-link" d="M383.70000000000005,288.7674418604652C564.3000000000001,288.7674418604652 564.3000000000001,112.75581395348838 744.9000000000001,112.75581395348838L744.9000000000001,115.77906976744187C564.3000000000001,115.77906976744187 564.3000000000001,291.7906976744187 383.70000000000005,291.7906976744187Z" style="stroke: rgb(68, 68, 68); stroke-opacity: 1; fill: rgb(171, 99, 250); fill-opacity: 0.6; stroke-width: 0; opacity: 1;"/><path class="sankey-link" d="M383.70000000000005,291.7906976744187C564.3000000000001,291.7906976744187 564.3000000000001,157.68139534883716 744.9000000000001,157.68139534883716L744.9000000000001,168.26279069767435C564.3000000000001,168.26279069767435 564.3000000000001,302.3720930232559 383.70000000000005,302.3720930232559Z" style="stroke: rgb(68, 68, 68); stroke-opacity: 1; fill: rgb(171, 99, 250); fill-opacity: 0.6; stroke-width: 0; opacity: 1;"/><path class="sankey-link" d="M383.70000000000005,302.3720930232559C564.3000000000001,302.3720930232559 564.3000000000001,194.90232558139536 744.9000000000001,194.90232558139536L744.9000000000001,196.4139534883721C564.3000000000001,196.4139534883721 564.3000000000001,303.88372093023264 383.70000000000005,303.88372093023264Z" style="stroke: rgb(68, 68, 68); stroke-opacity: 1; fill: rgb(171, 99, 250); fill-opacity: 0.6; stroke-width: 0; opacity: 1;"/><path class="sankey-link" d="M383.70000000000005,303.88372093023264C564.3000000000001,303.88372093023264 564.3000000000001,268.9395348837208 744.9000000000001,268.9395348837208L744.9000000000001,278.00930232558125C564.3000000000001,278.00930232558125 564.3000000000001,312.9534883720931 383.70000000000005,312.9534883720931Z" style="stroke: rgb(68, 68, 68); stroke-opacity: 1; fill: rgb(171, 99, 250); fill-opacity: 0.6; stroke-width: 0; opacity: 1;"/><path class="sankey-link" d="M383.70000000000005,312.9534883720931C564.3000000000001,312.9534883720931 564.3000000000001,405.3023255813952 744.9000000000001,405.3023255813952L744.9000000000001,412.86046511627893C564.3000000000001,412.86046511627893 564.3000000000001,320.5116279069768 383.70000000000005,320.5116279069768Z" style="stroke: rgb(68, 68, 68); stroke-opacity: 1; fill: rgb(171, 99, 250); fill-opacity: 0.6; stroke-width: 0; opacity: 1;"/><path class="sankey-link" d="M383.70000000000005,320.5116279069768C564.3000000000001,320.5116279069768 564.3000000000001,523.4906976744185 744.9000000000001,523.4906976744185L744.9000000000001,535.5837209302324C564.3000000000001,535.5837209302324 564.3000000000001,332.60465116279073 383.70000000000005,332.60465116279073Z" style="stroke: rgb(68, 68, 68); stroke-opacity: 1; fill: rgb(171, 99, 250); fill-opacity: 0.6; stroke-width: 0; opacity: 1;"/><path class="sankey-link" d="M383.70000000000005,332.60465116279073C564.3000000000001,332.60465116279073 564.3000000000001,647.7604651162791 744.9000000000001,647.7604651162791L744.9000000000001,659.853488372093C564.3000000000001,659.853488372093 564.3000000000001,344.69767441860466 383.70000000000005,344.69767441860466Z" style="stroke: rgb(68, 68, 68); stroke-opacity: 1; fill: rgb(171, 99, 250); fill-opacity: 0.6; stroke-width: 0; opacity: 1;"/><path class="sankey-link" d="M383.70000000000005,355.3790697674422C564.3000000000001,355.3790697674422 564.3000000000001,43.448837209302326 744.9000000000001,43.448837209302326L744.9000000000001,60.07674418604651C564.3000000000001,60.07674418604651 564.3000000000001,372.0069767441864 383.70000000000005,372.0069767441864Z" style="stroke: rgb(68, 68, 68); stroke-opacity: 1; fill: rgb(0, 204, 150); fill-opacity: 0.6; stroke-width: 0; opacity: 1;"/><path class="sankey-link" d="M383.70000000000005,372.00697674418643C564.3000000000001,372.00697674418643 564.3000000000001,168.26279069767438 744.9000000000001,168.26279069767438L744.9000000000001,174.30930232558134C564.3000000000001,174.30930232558134 564.3000000000001,378.0534883720934 383.70000000000005,378.0534883720934Z" style="stroke: rgb(68, 68, 68); stroke-opacity: 1; fill: rgb(0, 204, 150); fill-opacity: 0.6; stroke-width: 0; opacity: 1;"/><path class="sankey-link" d="M383.70000000000005,378.0534883720934C564.3000000000001,378.0534883720934 564.3000000000001,278.0093023255812 744.9000000000001,278.0093023255812L744.9000000000001,309.7534883720929C564.3000000000001,309.7534883720929 564.3000000000001,409.7976744186051 383.70000000000005,409.7976744186051Z" style="stroke: rgb(68, 68, 68); stroke-opacity: 1; fill: rgb(0, 204, 150); fill-opacity: 0.6; stroke-width: 0; opacity: 1;"/><path class="sankey-link" d="M383.70000000000005,409.797674418605C564.3000000000001,409.797674418605 564.3000000000001,412.86046511627893 744.9000000000001,412.86046511627893L744.9000000000001,427.97674418604635C564.3000000000001,427.97674418604635 564.3000000000001,424.91395348837244 383.70000000000005,424.91395348837244Z" style="stroke: rgb(68, 68, 68); stroke-opacity: 1; fill: rgb(0, 204, 150); fill-opacity: 0.6; stroke-width: 0; opacity: 1;"/><path class="sankey-link" d="M383.70000000000005,424.91395348837244C564.3000000000001,424.91395348837244 564.3000000000001,535.5837209302324 744.9000000000001,535.5837209302324L744.9000000000001,558.2581395348836C564.3000000000001,558.2581395348836 564.3000000000001,447.58837209302357 383.70000000000005,447.58837209302357Z" style="stroke: rgb(68, 68, 68); stroke-opacity: 1; fill: rgb(0, 204, 150); fill-opacity: 0.6; stroke-width: 0; opacity: 1;"/><path class="sankey-link" d="M383.70000000000005,447.5883720930236C564.3000000000001,447.5883720930236 564.3000000000001,659.853488372093 744.9000000000001,659.853488372093L744.9000000000001,687.0627906976744C564.3000000000001,687.0627906976744 564.3000000000001,474.79767441860497 383.70000000000005,474.79767441860497Z" style="stroke: rgb(68, 68, 68); stroke-opacity: 1; fill: rgb(0, 204, 150); fill-opacity: 0.6; stroke-width: 0; opacity: 1;"/><path class="sankey-link" d="M383.70000000000005,484.72325581395353C564.3000000000001,484.72325581395353 564.3000000000001,60.07674418604651 744.9000000000001,60.07674418604651L744.9000000000001,79.72790697674418C564.3000000000001,79.72790697674418 564.3000000000001,504.37441860465117 383.70000000000005,504.37441860465117Z" style="stroke: rgb(68, 68, 68); stroke-opacity: 1; fill: rgb(255, 161, 90); fill-opacity: 0.6; stroke-width: 0; opacity: 1;"/><path class="sankey-link" d="M383.70000000000005,504.3744186046512C564.3000000000001,504.3744186046512 564.3000000000001,115.77906976744187 744.9000000000001,115.77906976744187L744.9000000000001,130.8953488372093C564.3000000000001,130.8953488372093 564.3000000000001,519.4906976744187 383.70000000000005,519.4906976744187Z" style="stroke: rgb(68, 68, 68); stroke-opacity: 1; fill: rgb(255, 161, 90); fill-opacity: 0.6; stroke-width: 0; opacity: 1;"/><path class="sankey-link" d="M383.70000000000005,519.4906976744187C564.3000000000001,519.4906976744187 564.3000000000001,174.30930232558134 744.9000000000001,174.30930232558134L744.9000000000001,177.33255813953483C564.3000000000001,177.33255813953483 564.3000000000001,522.5139534883722 383.70000000000005,522.5139534883722Z" style="stroke: rgb(68, 68, 68); stroke-opacity: 1; fill: rgb(255, 161, 90); fill-opacity: 0.6; stroke-width: 0; opacity: 1;"/><path class="sankey-link" d="M383.70000000000005,522.5139534883722C564.3000000000001,522.5139534883722 564.3000000000001,309.7534883720929 744.9000000000001,309.7534883720929L744.9000000000001,333.93953488372074C564.3000000000001,333.93953488372074 564.3000000000001,546.7 383.70000000000005,546.7Z" style="stroke: rgb(68, 68, 68); stroke-opacity: 1; fill: rgb(255, 161, 90); fill-opacity: 0.6; stroke-width: 0; opacity: 1;"/><path class="sankey-link" d="M383.70000000000005,546.7C564.3000000000001,546.7 564.3000000000001,427.97674418604635 744.9000000000001,427.97674418604635L744.9000000000001,440.0697674418603C564.3000000000001,440.0697674418603 564.3000000000001,558.793023255814 383.70000000000005,558.793023255814Z" style="stroke: rgb(68, 68, 68); stroke-opacity: 1; fill: rgb(255, 161, 90); fill-opacity: 0.6; stroke-width: 0; opacity: 1;"/><path class="sankey-link" d="M383.70000000000005,558.793023255814C564.3000000000001,558.793023255814 564.3000000000001,558.2581395348835 744.9000000000001,558.2581395348835L744.9000000000001,585.4674418604649C564.3000000000001,585.4674418604649 564.3000000000001,586.0023255813953 383.70000000000005,586.0023255813953Z" style="stroke: rgb(68, 68, 68); stroke-opacity: 1; fill: rgb(255, 161, 90); fill-opacity: 0.6; stroke-width: 0; opacity: 1;"/><path class="sankey-link" d="M383.70000000000005,586.0023255813953C564.3000000000001,586.0023255813953 564.3000000000001,687.0627906976744 744.9000000000001,687.0627906976744L744.9000000000001,690.0860465116278C564.3000000000001,690.0860465116278 564.3000000000001,589.0255813953488 383.70000000000005,589.0255813953488Z" style="stroke: rgb(68, 68, 68); stroke-opacity: 1; fill: rgb(255, 161, 90); fill-opacity: 0.6; stroke-width: 0; opacity: 1;"/><path class="sankey-link" d="M383.70000000000005,600.5534883720929C564.3000000000001,600.5534883720929 564.3000000000001,79.72790697674418 744.9000000000001,79.72790697674418L744.9000000000001,82.75116279069766C564.3000000000001,82.75116279069766 564.3000000000001,603.5767441860464 383.70000000000005,603.5767441860464Z" style="stroke: rgb(68, 68, 68); stroke-opacity: 1; fill: rgb(255, 151, 255); fill-opacity: 0.6; stroke-width: 0; opacity: 1;"/><path class="sankey-link" d="M383.70000000000005,603.5767441860464C564.3000000000001,603.5767441860464 564.3000000000001,130.8953488372093 744.9000000000001,130.8953488372093L744.9000000000001,135.43023255813952C564.3000000000001,135.43023255813952 564.3000000000001,608.1116279069768 383.70000000000005,608.1116279069768Z" style="stroke: rgb(68, 68, 68); stroke-opacity: 1; fill: rgb(255, 151, 255); fill-opacity: 0.6; stroke-width: 0; opacity: 1;"/><path class="sankey-link" d="M383.70000000000005,608.1116279069767C564.3000000000001,608.1116279069767 564.3000000000001,333.9395348837208 744.9000000000001,333.9395348837208L744.9000000000001,346.03255813953473C564.3000000000001,346.03255813953473 564.3000000000001,620.2046511627906 383.70000000000005,620.2046511627906Z" style="stroke: rgb(68, 68, 68); stroke-opacity: 1; fill: rgb(255, 151, 255); fill-opacity: 0.6; stroke-width: 0; opacity: 1;"/><path class="sankey-link" d="M383.70000000000005,620.2046511627906C564.3000000000001,620.2046511627906 564.3000000000001,440.0697674418603 744.9000000000001,440.0697674418603L744.9000000000001,444.6046511627905C564.3000000000001,444.6046511627905 564.3000000000001,624.7395348837209 383.70000000000005,624.7395348837209Z" style="stroke: rgb(68, 68, 68); stroke-opacity: 1; fill: rgb(255, 151, 255); fill-opacity: 0.6; stroke-width: 0; opacity: 1;"/><path class="sankey-link" d="M383.70000000000005,624.7395348837208C564.3000000000001,624.7395348837208 564.3000000000001,585.4674418604649 744.9000000000001,585.4674418604649L744.9000000000001,594.5372093023253C564.3000000000001,594.5372093023253 564.3000000000001,633.8093023255813 383.70000000000005,633.8093023255813Z" style="stroke: rgb(68, 68, 68); stroke-opacity: 1; fill: rgb(255, 151, 255); fill-opacity: 0.6; stroke-width: 0; opacity: 1;"/><path class="sankey-link" d="M383.70000000000005,633.8093023255813C564.3000000000001,633.8093023255813 564.3000000000001,690.0860465116278 744.9000000000001,690.0860465116278L744.9000000000001,696.1325581395348C564.3000000000001,696.1325581395348 564.3000000000001,639.8558139534882 383.70000000000005,639.8558139534882Z" style="stroke: rgb(68, 68, 68); stroke-opacity: 1; fill: rgb(255, 151, 255); fill-opacity: 0.6; stroke-width: 0; opacity: 1;"/><path class="sankey-link" d="M383.70000000000005,652.7744186046511C564.3000000000001,652.7744186046511 564.3000000000001,82.75116279069766 744.9000000000001,82.75116279069766L744.9000000000001,85.77441860465115C564.3000000000001,85.77441860465115 564.3000000000001,655.7976744186046 383.70000000000005,655.7976744186046Z" style="stroke: rgb(68, 68, 68); stroke-opacity: 1; fill: rgb(255, 102, 146); fill-opacity: 0.6; stroke-width: 0; opacity: 1;"/><path class="sankey-link" d="M383.70000000000005,655.7976744186046C564.3000000000001,655.7976744186046 564.3000000000001,177.33255813953483 744.9000000000001,177.33255813953483L744.9000000000001,178.84418604651157C564.3000000000001,178.84418604651157 564.3000000000001,657.3093023255815 383.70000000000005,657.3093023255815Z" style="stroke: rgb(68, 68, 68); stroke-opacity: 1; fill: rgb(255, 102, 146); fill-opacity: 0.6; stroke-width: 0; opacity: 1;"/><path class="sankey-link" d="M383.70000000000005,657.3093023255814C564.3000000000001,657.3093023255814 564.3000000000001,346.03255813953473 744.9000000000001,346.03255813953473L744.9000000000001,356.6139534883719C564.3000000000001,356.6139534883719 564.3000000000001,667.8906976744187 383.70000000000005,667.8906976744187Z" style="stroke: rgb(68, 68, 68); stroke-opacity: 1; fill: rgb(255, 102, 146); fill-opacity: 0.6; stroke-width: 0; opacity: 1;"/><path class="sankey-link" d="M383.70000000000005,667.8906976744186C564.3000000000001,667.8906976744186 564.3000000000001,444.6046511627905 744.9000000000001,444.6046511627905L744.9000000000001,449.1395348837207C564.3000000000001,449.1395348837207 564.3000000000001,672.4255813953489 383.70000000000005,672.4255813953489Z" style="stroke: rgb(68, 68, 68); stroke-opacity: 1; fill: rgb(255, 102, 146); fill-opacity: 0.6; stroke-width: 0; opacity: 1;"/><path class="sankey-link" d="M383.70000000000005,672.4255813953488C564.3000000000001,672.4255813953488 564.3000000000001,594.5372093023253 744.9000000000001,594.5372093023253L744.9000000000001,602.0953488372091C564.3000000000001,602.0953488372091 564.3000000000001,679.9837209302326 383.70000000000005,679.9837209302326Z" style="stroke: rgb(68, 68, 68); stroke-opacity: 1; fill: rgb(255, 102, 146); fill-opacity: 0.6; stroke-width: 0; opacity: 1;"/><path class="sankey-link" d="M383.70000000000005,679.9837209302325C564.3000000000001,679.9837209302325 564.3000000000001,696.1325581395348 744.9000000000001,696.1325581395348L744.9000000000001,703.6906976744186C564.3000000000001,703.6906976744186 564.3000000000001,687.5418604651163 383.70000000000005,687.5418604651163Z" style="stroke: rgb(68, 68, 68); stroke-opacity: 1; fill: rgb(255, 102, 146); fill-opacity: 0.6; stroke-width: 0; opacity: 1;"/><path class="sankey-link" d="M383.70000000000005,701.1558139534883C564.3000000000001,701.1558139534883 564.3000000000001,449.1395348837207 744.9000000000001,449.1395348837207L744.9000000000001,450.65116279069747C564.3000000000001,450.65116279069747 564.3000000000001,702.6674418604651 383.70000000000005,702.6674418604651Z" style="stroke: rgb(68, 68, 68); stroke-opacity: 1; fill: rgb(182, 232, 128); fill-opacity: 0.6; stroke-width: 0; opacity: 1;"/><path class="sankey-link" d="M383.70000000000005,702.667441860465C564.3000000000001,702.667441860465 564.3000000000001,602.095348837209 744.9000000000001,602.095348837209L744.9000000000001,603.6069767441859C564.3000000000001,603.6069767441859 564.3000000000001,704.1790697674419 383.70000000000005,704.1790697674419Z" style="stroke: rgb(68, 68, 68); stroke-opacity: 1; fill: rgb(182, 232, 128); fill-opacity: 0.6; stroke-width: 0; opacity: 1;"/><path class="sankey-link" d="M383.70000000000005,704.1790697674418C564.3000000000001,704.1790697674418 564.3000000000001,703.6906976744185 744.9000000000001,703.6906976744185L744.9000000000001,705.2023255813954C564.3000000000001,705.2023255813954 564.3000000000001,705.6906976744186 383.70000000000005,705.6906976744186Z" style="stroke: rgb(68, 68, 68); stroke-opacity: 1; fill: rgb(182, 232, 128); fill-opacity: 0.6; stroke-width: 0; opacity: 1;"/></g><g class="sankey-node-set" style="cursor: ns-resize;"><g class="sankey-node" transform="translate(744.900,14.728)" style="opacity: 1;"><rect class="node-rect" width="15" height="71.04651162790697" style="stroke-width: 0.5; stroke: rgb(0, 0, 0); stroke-opacity: 1; fill: rgb(128, 128, 128); fill-opacity: 1;"/><text class="node-label" data-notex="1" x="0" y="0" text-anchor="end" transform="translate(-3.25,39.723255813953486)" style="cursor: default; font-family: 'Open Sans', verdana, arial, sans-serif; font-size: 12px; fill: rgb(42, 63, 95); fill-opacity: 1; white-space: pre; text-shadow: white 1px 1px 1px, white -1px -1px 1px, white 1px -1px 1px, white -1px 1px 1px;">attacking</text></g><g class="sankey-node" transform="translate(744.900,100.663)" style="opacity: 1;"><rect class="node-rect" width="15" height="34.76744186046513" style="stroke-width: 0.5; stroke: rgb(0, 0, 0); stroke-opacity: 1; fill: rgb(128, 128, 128); fill-opacity: 1;"/><text class="node-label" data-notex="1" x="0" y="0" text-anchor="end" transform="translate(-3.25,21.583720930232563)" style="cursor: default; font-family: 'Open Sans', verdana, arial, sans-serif; font-size: 12px; fill: rgb(42, 63, 95); fill-opacity: 1; white-space: pre; text-shadow: white 1px 1px 1px, white -1px -1px 1px, white 1px -1px 1px, white -1px 1px 1px;">being_attack</text></g><g class="sankey-node" transform="translate(744.900,150.123)" style="opacity: 1;"><rect class="node-rect" width="15" height="28.720930232558203" style="stroke-width: 0.5; stroke: rgb(0, 0, 0); stroke-opacity: 1; fill: rgb(128, 128, 128); fill-opacity: 1;"/><text class="node-label" data-notex="1" x="0" y="0" text-anchor="end" transform="translate(-3.25,18.5604651162791)" style="cursor: default; font-family: 'Open Sans', verdana, arial, sans-serif; font-size: 12px; fill: rgb(42, 63, 95); fill-opacity: 1; white-space: pre; text-shadow: white 1px 1px 1px, white -1px -1px 1px, white 1px -1px 1px, white -1px 1px 1px;">dig</text></g><g class="sankey-node" transform="translate(744.900,193.391)" style="opacity: 1;"><rect class="node-rect" width="15" height="3.023255813953483" style="stroke-width: 0.5; stroke: rgb(0, 0, 0); stroke-opacity: 1; fill: rgb(128, 128, 128); fill-opacity: 1;"/><text class="node-label" data-notex="1" x="0" y="0" text-anchor="end" transform="translate(-3.25,5.711627906976741)" style="cursor: default; font-family: 'Open Sans', verdana, arial, sans-serif; font-size: 12px; fill: rgb(42, 63, 95); fill-opacity: 1; white-space: pre; text-shadow: white 1px 1px 1px, white -1px -1px 1px, white 1px -1px 1px, white -1px 1px 1px;">groom</text></g><g class="sankey-node" transform="translate(744.900,211.498)" style="opacity: 1;"><rect class="node-rect" width="15" height="145.11627906976764" style="stroke-width: 0.5; stroke: rgb(0, 0, 0); stroke-opacity: 1; fill: rgb(128, 128, 128); fill-opacity: 1;"/><text class="node-label" data-notex="1" x="0" y="0" text-anchor="end" transform="translate(-3.25,76.75813953488382)" style="cursor: default; font-family: 'Open Sans', verdana, arial, sans-serif; font-size: 12px; fill: rgb(42, 63, 95); fill-opacity: 1; white-space: pre; text-shadow: white 1px 1px 1px, white -1px -1px 1px, white 1px -1px 1px, white -1px 1px 1px;">move</text></g><g class="sankey-node" transform="translate(744.900,372.047)" style="opacity: 1;"><rect class="node-rect" width="15" height="78.60465116279079" style="stroke-width: 0.5; stroke: rgb(0, 0, 0); stroke-opacity: 1; fill: rgb(128, 128, 128); fill-opacity: 1;"/><text class="node-label" data-notex="1" x="0" y="0" text-anchor="end" transform="translate(-3.25,43.5023255813954)" style="cursor: default; font-family: 'Open Sans', verdana, arial, sans-serif; font-size: 12px; fill: rgb(42, 63, 95); fill-opacity: 1; white-space: pre; text-shadow: white 1px 1px 1px, white -1px -1px 1px, white 1px -1px 1px, white -1px 1px 1px;">sniff</text></g><g class="sankey-node" transform="translate(744.900,466.049)" style="opacity: 1;"><rect class="node-rect" width="15" height="137.55813953488405" style="stroke-width: 0.5; stroke: rgb(0, 0, 0); stroke-opacity: 1; fill: rgb(128, 128, 128); fill-opacity: 1;"/><text class="node-label" data-notex="1" x="0" y="0" text-anchor="end" transform="translate(-3.25,72.97906976744203)" style="cursor: default; font-family: 'Open Sans', verdana, arial, sans-serif; font-size: 12px; fill: rgb(42, 63, 95); fill-opacity: 1; white-space: pre; text-shadow: white 1px 1px 1px, white -1px -1px 1px, white 1px -1px 1px, white -1px 1px 1px;">social</text></g><g class="sankey-node" transform="translate(744.900,619.040)" style="opacity: 1;"><rect class="node-rect" width="15" height="86.16279069767438" style="stroke-width: 0.5; stroke: rgb(0, 0, 0); stroke-opacity: 1; fill: rgb(128, 128, 128); fill-opacity: 1;"/><text class="node-label" data-notex="1" x="0" y="0" text-anchor="end" transform="translate(-3.25,47.281395348837194)" style="cursor: default; font-family: 'Open Sans', verdana, arial, sans-serif; font-size: 12px; fill: rgb(42, 63, 95); fill-opacity: 1; white-space: pre; text-shadow: white 1px 1px 1px, white -1px -1px 1px, white 1px -1px 1px, white -1px 1px 1px;">still</text></g><g class="sankey-node" transform="translate(368.700,13.916)" style="opacity: 1;"><rect class="node-rect" width="15" height="24.186046511627865" style="stroke-width: 0.5; stroke: rgb(0, 0, 0); stroke-opacity: 1; fill: rgb(25, 211, 243); fill-opacity: 1;"/><text class="node-label" data-notex="1" x="0" y="0" text-anchor="start" transform="translate(18.25,16.29302325581393)" style="cursor: default; font-family: 'Open Sans', verdana, arial, sans-serif; font-size: 12px; fill: rgb(42, 63, 95); fill-opacity: 1; white-space: pre; text-shadow: white 1px 1px 1px, white -1px -1px 1px, white 1px -1px 1px, white -1px 1px 1px;">BLA</text></g><g class="sankey-node" transform="translate(368.700,50.295)" style="opacity: 1;"><rect class="node-rect" width="15" height="86.16279069767438" style="stroke-width: 0.5; stroke: rgb(0, 0, 0); stroke-opacity: 1; fill: rgb(99, 110, 250); fill-opacity: 1;"/><text class="node-label" data-notex="1" x="0" y="0" text-anchor="start" transform="translate(18.25,47.281395348837194)" style="cursor: default; font-family: 'Open Sans', verdana, arial, sans-serif; font-size: 12px; fill: rgb(42, 63, 95); fill-opacity: 1; white-space: pre; text-shadow: white 1px 1px 1px, white -1px -1px 1px, white 1px -1px 1px, white -1px 1px 1px;">Cla</text></g><g class="sankey-node" transform="translate(368.700,147.533)" style="opacity: 1;"><rect class="node-rect" width="15" height="80.11627906976742" style="stroke-width: 0.5; stroke: rgb(0, 0, 0); stroke-opacity: 1; fill: rgb(239, 85, 59); fill-opacity: 1;"/><text class="node-label" data-notex="1" x="0" y="0" text-anchor="start" transform="translate(18.25,44.25813953488371)" style="cursor: default; font-family: 'Open Sans', verdana, arial, sans-serif; font-size: 12px; fill: rgb(42, 63, 95); fill-opacity: 1; white-space: pre; text-shadow: white 1px 1px 1px, white -1px -1px 1px, white 1px -1px 1px, white -1px 1px 1px;">LC</text></g><g class="sankey-node" transform="translate(368.700,239.933)" style="opacity: 1;"><rect class="node-rect" width="15" height="25.69767441860475" style="stroke-width: 0.5; stroke: rgb(0, 0, 0); stroke-opacity: 1; fill: rgb(254, 203, 82); fill-opacity: 1;"/><text class="node-label" data-notex="1" x="0" y="0" text-anchor="start" transform="translate(18.25,17.048837209302373)" style="cursor: default; font-family: 'Open Sans', verdana, arial, sans-serif; font-size: 12px; fill: rgb(42, 63, 95); fill-opacity: 1; white-space: pre; text-shadow: white 1px 1px 1px, white -1px -1px 1px, white 1px -1px 1px, white -1px 1px 1px;">LHyp</text></g><g class="sankey-node" transform="translate(368.700,278.186)" style="opacity: 1;"><rect class="node-rect" width="15" height="66.51162790697651" style="stroke-width: 0.5; stroke: rgb(0, 0, 0); stroke-opacity: 1; fill: rgb(171, 99, 250); fill-opacity: 1;"/><text class="node-label" data-notex="1" x="0" y="0" text-anchor="start" transform="translate(18.25,37.45581395348826)" style="cursor: default; font-family: 'Open Sans', verdana, arial, sans-serif; font-size: 12px; fill: rgb(42, 63, 95); fill-opacity: 1; white-space: pre; text-shadow: white 1px 1px 1px, white -1px -1px 1px, white 1px -1px 1px, white -1px 1px 1px;">NAc</text></g><g class="sankey-node" transform="translate(368.700,355.379)" style="opacity: 1;"><rect class="node-rect" width="15" height="119.41860465116224" style="stroke-width: 0.5; stroke: rgb(0, 0, 0); stroke-opacity: 1; fill: rgb(0, 204, 150); fill-opacity: 1;"/><text class="node-label" data-notex="1" x="0" y="0" text-anchor="start" transform="translate(18.25,63.90930232558112)" style="cursor: default; font-family: 'Open Sans', verdana, arial, sans-serif; font-size: 12px; fill: rgb(42, 63, 95); fill-opacity: 1; white-space: pre; text-shadow: white 1px 1px 1px, white -1px -1px 1px, white 1px -1px 1px, white -1px 1px 1px;">Str</text></g><g class="sankey-node" transform="translate(368.700,484.723)" style="opacity: 1;"><rect class="node-rect" width="15" height="104.30232558139551" style="stroke-width: 0.5; stroke: rgb(0, 0, 0); stroke-opacity: 1; fill: rgb(255, 161, 90); fill-opacity: 1;"/><text class="node-label" data-notex="1" x="0" y="0" text-anchor="start" transform="translate(18.25,56.35116279069776)" style="cursor: default; font-family: 'Open Sans', verdana, arial, sans-serif; font-size: 12px; fill: rgb(42, 63, 95); fill-opacity: 1; white-space: pre; text-shadow: white 1px 1px 1px, white -1px -1px 1px, white 1px -1px 1px, white -1px 1px 1px;">VTA</text></g><g class="sankey-node" transform="translate(368.700,600.553)" style="opacity: 1;"><rect class="node-rect" width="15" height="39.30232558139551" style="stroke-width: 0.5; stroke: rgb(0, 0, 0); stroke-opacity: 1; fill: rgb(255, 151, 255); fill-opacity: 1;"/><text class="node-label" data-notex="1" x="0" y="0" text-anchor="start" transform="translate(18.25,23.851162790697753)" style="cursor: default; font-family: 'Open Sans', verdana, arial, sans-serif; font-size: 12px; fill: rgb(42, 63, 95); fill-opacity: 1; white-space: pre; text-shadow: white 1px 1px 1px, white -1px -1px 1px, white 1px -1px 1px, white -1px 1px 1px;">cPFC</text></g><g class="sankey-node" transform="translate(368.700,652.774)" style="opacity: 1;"><rect class="node-rect" width="15" height="34.76744186046517" style="stroke-width: 0.5; stroke: rgb(0, 0, 0); stroke-opacity: 1; fill: rgb(255, 102, 146); fill-opacity: 1;"/><text class="node-label" data-notex="1" x="0" y="0" text-anchor="start" transform="translate(18.25,21.583720930232584)" style="cursor: default; font-family: 'Open Sans', verdana, arial, sans-serif; font-size: 12px; fill: rgb(42, 63, 95); fill-opacity: 1; white-space: pre; text-shadow: white 1px 1px 1px, white -1px -1px 1px, white 1px -1px 1px, white -1px 1px 1px;">dPAG</text></g><g class="sankey-node" transform="translate(368.700,701.156)" style="opacity: 1;"><rect class="node-rect" width="15" height="4.534883720930338" style="stroke-width: 0.5; stroke: rgb(0, 0, 0); stroke-opacity: 1; fill: rgb(182, 232, 128); fill-opacity: 1;"/><text class="node-label" data-notex="1" x="0" y="0" text-anchor="start" transform="translate(18.25,6.4674418604651684)" style="cursor: default; font-family: 'Open Sans', verdana, arial, sans-serif; font-size: 12px; fill: rgb(42, 63, 95); fill-opacity: 1; white-space: pre; text-shadow: white 1px 1px 1px, white -1px -1px 1px, white 1px -1px 1px, white -1px 1px 1px;">lHb</text></g></g></g><defs id="topdefs-c30656"><g class="clips"/></defs><g class="layer-above"><g class="imagelayer"/><g class="shapelayer"/></g><g class="infolayer"><g class="g-gtitle"/><g class="first-render"/></g></svg>