<svg class="main-svg" xmlns="http://www.w3.org/2000/svg" xmlns:xlink="http://www.w3.org/1999/xlink" width="1300" height="900" viewBox="0 0 1300 900" style=""><rect x="0" y="0" width="1300" height="900" style="fill: rgb(255, 255, 255); fill-opacity: 1;"/><defs id="defs-ac22a4"><g class="clips"/><g class="gradients"/><g class="patterns"/></defs><g class="bglayer"/><g class="layer-below"><g class="imagelayer"/><g class="shapelayer"/></g><g class="cartesianlayer"/><g class="polarlayer"/><g class="smithlayer"/><g class="ternarylayer"/><g class="geolayer"/><g class="funnelarealayer"/><g class="pielayer"/><g class="iciclelayer"/><g class="treemaplayer"/><g class="sunburstlayer"/><g class="glimages"/><g class="sankey" transform="translate(80,100)matrix(1 0 0 1 0 0)" style="box-sizing: content-box; position: absolute; left: 0px; shape-rendering: geometricprecision; pointer-events: none;"><g class="sankey-links" style="fill: none;"><path class="sankey-link" d="M15,685.8951965065504C570,685.8951965065504 570,473.34061135371144 1125,473.34061135371144L1125,475.63318777292545C570,475.63318777292545 570,688.1877729257643 15,688.1877729257643Z" style="stroke: rgb(68, 68, 68); stroke-opacity: 1; fill: rgb(25, 211, 243); fill-opacity: 0.6; stroke-width: 0; opacity: 1;"/><path class="sankey-link" d="M15,664.4978165938866C570,664.4978165938866 570,37.92576419213976 1125,37.92576419213976L1125,38.689956331877745C570,38.689956331877745 570,665.2620087336246 15,665.2620087336246Z" style="stroke: rgb(25, 211, 243); stroke-opacity: 0.6; fill: rgb(25, 211, 243); fill-opacity: 0.6; stroke-width: 1; opacity: 1;"/><path class="sankey-link" d="M15,669.8471615720525C570,669.8471615720525 570,270.1528384279478 1125,270.1528384279478L1125,275.5021834061138C570,275.5021834061138 570,675.1965065502184 15,675.1965065502184Z" style="stroke: rgb(68, 68, 68); stroke-opacity: 1; fill: rgb(25, 211, 243); fill-opacity: 0.6; stroke-width: 0; opacity: 1;"/><path class="sankey-link" d="M15,668.3187772925766C570,668.3187772925766 570,195.5458515283848 1125,195.5458515283848L1125,197.07423580786076C570,197.07423580786076 570,669.8471615720526 15,669.8471615720526Z" style="stroke: rgb(68, 68, 68); stroke-opacity: 1; fill: rgb(25, 211, 243); fill-opacity: 0.6; stroke-width: 0; opacity: 1;"/><path class="sankey-link" d="M15,693.5371179039304C570,693.5371179039304 570,628.1004366812227 1125,628.1004366812227L1125,629.6288209606988C570,629.6288209606988 570,695.0655021834065 15,695.0655021834065Z" style="stroke: rgb(68, 68, 68); stroke-opacity: 1; fill: rgb(25, 211, 243); fill-opacity: 0.6; stroke-width: 0; opacity: 1;"/><path class="sankey-link" d="M15,688.1877729257644C570,688.1877729257644 570,525.786026200873 1125,525.786026200873L1125,528.842794759825C570,528.842794759825 570,691.2445414847164 15,691.2445414847164Z" style="stroke: rgb(68, 68, 68); stroke-opacity: 1; fill: rgb(25, 211, 243); fill-opacity: 0.6; stroke-width: 0; opacity: 1;"/><path class="sankey-link" d="M15,683.6026200873364C570,683.6026200873364 570,430.0655021834058 1125,430.0655021834058L1125,432.3580786026198C570,432.3580786026198 570,685.8951965065503 15,685.8951965065503Z" style="stroke: rgb(68, 68, 68); stroke-opacity: 1; fill: rgb(25, 211, 243); fill-opacity: 0.6; stroke-width: 0; opacity: 1;"/><path class="sankey-link" d="M15,691.2445414847164C570,691.2445414847164 570,573.6462882096068 1125,573.6462882096068L1125,575.9388646288207C570,575.9388646288207 570,693.5371179039303 15,693.5371179039303Z" style="stroke: rgb(68, 68, 68); stroke-opacity: 1; fill: rgb(25, 211, 243); fill-opacity: 0.6; stroke-width: 0; opacity: 1;"/><path class="sankey-link" d="M15,695.0655021834064C570,695.0655021834064 570,713.886462882096 1125,713.886462882096L1125,719.2358078602618C570,719.2358078602618 570,700.4148471615722 15,700.4148471615722Z" style="stroke: rgb(68, 68, 68); stroke-opacity: 1; fill: rgb(25, 211, 243); fill-opacity: 0.6; stroke-width: 0; opacity: 1;"/><path class="sankey-link" d="M15,675.1965065502184C570,675.1965065502184 570,381.4410480349346 1125,381.4410480349346L1125,389.8471615720525C570,389.8471615720525 570,683.6026200873364 15,683.6026200873364Z" style="stroke: rgb(68, 68, 68); stroke-opacity: 1; fill: rgb(25, 211, 243); fill-opacity: 0.6; stroke-width: 0; opacity: 1;"/><path class="sankey-link" d="M15,665.2620087336246C570,665.2620087336246 570,117.88209606986915 1125,117.88209606986915L1125,120.93886462882112C570,120.93886462882112 570,668.3187772925766 15,668.3187772925766Z" style="stroke: rgb(68, 68, 68); stroke-opacity: 1; fill: rgb(25, 211, 243); fill-opacity: 0.6; stroke-width: 0; opacity: 1;"/><path class="sankey-link" d="M15,457.00873362445407C570,457.00873362445407 570,462.6419213973796 1125,462.6419213973796L1125,467.2270742358075C570,467.2270742358075 570,461.593886462882 15,461.593886462882Z" style="stroke: rgb(68, 68, 68); stroke-opacity: 1; fill: rgb(239, 85, 59); fill-opacity: 0.6; stroke-width: 0; opacity: 1;"/><path class="sankey-link" d="M15,405.0436681222707C570,405.0436681222707 570,7.6419213973798845 1125,7.6419213973798845L1125,8.406113537117875C570,8.406113537117875 570,405.8078602620087 15,405.8078602620087Z" style="stroke: rgb(239, 85, 59); stroke-opacity: 0.6; fill: rgb(239, 85, 59); fill-opacity: 0.6; stroke-width: 1; opacity: 1;"/><path class="sankey-link" d="M15,473.82096069868993C570,473.82096069868993 570,593.2314410480349 1125,593.2314410480349L1125,593.9956331877729C570,593.9956331877729 570,474.585152838428 15,474.585152838428Z" style="stroke: rgb(239, 85, 59); stroke-opacity: 0.6; fill: rgb(239, 85, 59); fill-opacity: 0.6; stroke-width: 1; opacity: 1;"/><path class="sankey-link" d="M15,405.80786026200866C570,405.80786026200866 570,34.868995633187794 1125,34.868995633187794L1125,36.39737991266378C570,36.39737991266378 570,407.33624454148463 15,407.33624454148463Z" style="stroke: rgb(68, 68, 68); stroke-opacity: 1; fill: rgb(239, 85, 59); fill-opacity: 0.6; stroke-width: 0; opacity: 1;"/><path class="sankey-link" d="M15,429.49781659388634C570,429.49781659388634 570,249.51965065502202 1125,249.51965065502202L1125,257.9257641921399C570,257.9257641921399 570,437.90393013100424 15,437.90393013100424Z" style="stroke: rgb(68, 68, 68); stroke-opacity: 1; fill: rgb(239, 85, 59); fill-opacity: 0.6; stroke-width: 0; opacity: 1;"/><path class="sankey-link" d="M15,477.64192139737986C570,477.64192139737986 570,649.2139737991266 1125,649.2139737991266L1125,652.2707423580786C570,652.2707423580786 570,480.6986899563318 15,480.6986899563318Z" style="stroke: rgb(68, 68, 68); stroke-opacity: 1; fill: rgb(239, 85, 59); fill-opacity: 0.6; stroke-width: 0; opacity: 1;"/><path class="sankey-link" d="M15,418.0349344978165C570,418.0349344978165 570,174.148471615721 1125,174.148471615721L1125,185.61135371179085C570,185.61135371179085 570,429.49781659388634 15,429.49781659388634Z" style="stroke: rgb(68, 68, 68); stroke-opacity: 1; fill: rgb(239, 85, 59); fill-opacity: 0.6; stroke-width: 0; opacity: 1;"/><path class="sankey-link" d="M15,474.5851528384279C570,474.5851528384279 570,620.4585152838428 1125,620.4585152838428L1125,623.5152838427947C570,623.5152838427947 570,477.64192139737986 15,477.64192139737986Z" style="stroke: rgb(68, 68, 68); stroke-opacity: 1; fill: rgb(239, 85, 59); fill-opacity: 0.6; stroke-width: 0; opacity: 1;"/><path class="sankey-link" d="M15,461.59388646288204C570,461.59388646288204 570,510.5021834061132 1125,510.5021834061132L1125,516.6157205240171C570,516.6157205240171 570,467.7074235807859 15,467.7074235807859Z" style="stroke: rgb(68, 68, 68); stroke-opacity: 1; fill: rgb(239, 85, 59); fill-opacity: 0.6; stroke-width: 0; opacity: 1;"/><path class="sankey-link" d="M15,452.4235807860261C570,452.4235807860261 570,420.8951965065499 1125,420.8951965065499L1125,425.4803493449778C570,425.4803493449778 570,457.008733624454 15,457.008733624454Z" style="stroke: rgb(68, 68, 68); stroke-opacity: 1; fill: rgb(239, 85, 59); fill-opacity: 0.6; stroke-width: 0; opacity: 1;"/><path class="sankey-link" d="M15,467.707423580786C570,467.707423580786 570,560.6550218340609 1125,560.6550218340609L1125,566.7685589519648C570,566.7685589519648 570,473.8209606986899 15,473.8209606986899Z" style="stroke: rgb(68, 68, 68); stroke-opacity: 1; fill: rgb(239, 85, 59); fill-opacity: 0.6; stroke-width: 0; opacity: 1;"/><path class="sankey-link" d="M15,480.6986899563318C570,480.6986899563318 570,686.3755458515283 1125,686.3755458515283L1125,697.0742358078602C570,697.0742358078602 570,491.3973799126637 15,491.3973799126637Z" style="stroke: rgb(68, 68, 68); stroke-opacity: 1; fill: rgb(239, 85, 59); fill-opacity: 0.6; stroke-width: 0; opacity: 1;"/><path class="sankey-link" d="M15,437.90393013100424C570,437.90393013100424 570,341.70305676855907 1125,341.70305676855907L1125,356.22270742358086C570,356.22270742358086 570,452.42358078602604 15,452.42358078602604Z" style="stroke: rgb(68, 68, 68); stroke-opacity: 1; fill: rgb(239, 85, 59); fill-opacity: 0.6; stroke-width: 0; opacity: 1;"/><path class="sankey-link" d="M15,407.33624454148463C570,407.33624454148463 570,95.7205240174674 1125,95.7205240174674L1125,106.41921397379929C570,106.41921397379929 570,418.03493449781655 15,418.03493449781655Z" style="stroke: rgb(68, 68, 68); stroke-opacity: 1; fill: rgb(239, 85, 59); fill-opacity: 0.6; stroke-width: 0; opacity: 1;"/><path class="sankey-link" d="M15,623.5152838427952C570,623.5152838427952 570,470.2838427947595 1125,470.2838427947595L1125,473.34061135371144C570,473.34061135371144 570,626.5720524017471 15,626.5720524017471Z" style="stroke: rgb(68, 68, 68); stroke-opacity: 1; fill: rgb(0, 204, 150); fill-opacity: 0.6; stroke-width: 0; opacity: 1;"/><path class="sankey-link" d="M15,592.1834061135374C570,592.1834061135374 570,8.406113537117875 1125,8.406113537117875L1125,9.170305676855865C570,9.170305676855865 570,592.9475982532755 15,592.9475982532755Z" style="stroke: rgb(0, 204, 150); stroke-opacity: 0.6; fill: rgb(0, 204, 150); fill-opacity: 0.6; stroke-width: 1; opacity: 1;"/><path class="sankey-link" d="M15,635.742358078603C570,635.742358078603 570,593.9956331877729 1125,593.9956331877729L1125,594.759825327511C570,594.759825327511 570,636.5065502183411 15,636.5065502183411Z" style="stroke: rgb(0, 204, 150); stroke-opacity: 0.6; fill: rgb(0, 204, 150); fill-opacity: 0.6; stroke-width: 1; opacity: 1;"/><path class="sankey-link" d="M15,592.9475982532755C570,592.9475982532755 570,37.161572052401766 1125,37.161572052401766L1125,37.92576419213975C570,37.92576419213975 570,593.7117903930135 15,593.7117903930135Z" style="stroke: rgb(0, 204, 150); stroke-opacity: 0.6; fill: rgb(0, 204, 150); fill-opacity: 0.6; stroke-width: 1; opacity: 1;"/><path class="sankey-link" d="M15,602.8820960698695C570,602.8820960698695 570,264.03930131004387 1125,264.03930131004387L1125,270.15283842794776C570,270.15283842794776 570,608.9956331877734 15,608.9956331877734Z" style="stroke: rgb(68, 68, 68); stroke-opacity: 1; fill: rgb(0, 204, 150); fill-opacity: 0.6; stroke-width: 0; opacity: 1;"/><path class="sankey-link" d="M15,638.7991266375551C570,638.7991266375551 570,653.0349344978166 1125,653.0349344978166L1125,655.3275109170305C570,655.3275109170305 570,641.091703056769 15,641.091703056769Z" style="stroke: rgb(68, 68, 68); stroke-opacity: 1; fill: rgb(0, 204, 150); fill-opacity: 0.6; stroke-width: 0; opacity: 1;"/><path class="sankey-link" d="M15,599.0611353711795C570,599.0611353711795 570,191.72489082969483 1125,191.72489082969483L1125,195.54585152838476C570,195.54585152838476 570,602.8820960698695 15,602.8820960698695Z" style="stroke: rgb(68, 68, 68); stroke-opacity: 1; fill: rgb(0, 204, 150); fill-opacity: 0.6; stroke-width: 0; opacity: 1;"/><path class="sankey-link" d="M15,636.5065502183411C570,636.5065502183411 570,625.8078602620087 1125,625.8078602620087L1125,628.1004366812226C570,628.1004366812226 570,638.799126637555 15,638.799126637555Z" style="stroke: rgb(68, 68, 68); stroke-opacity: 1; fill: rgb(0, 204, 150); fill-opacity: 0.6; stroke-width: 0; opacity: 1;"/><path class="sankey-link" d="M15,626.5720524017471C570,626.5720524017471 570,520.4366812227071 1125,520.4366812227071L1125,525.7860262008729C570,525.7860262008729 570,631.921397379913 15,631.921397379913Z" style="stroke: rgb(68, 68, 68); stroke-opacity: 1; fill: rgb(0, 204, 150); fill-opacity: 0.6; stroke-width: 0; opacity: 1;"/><path class="sankey-link" d="M15,620.4585152838432C570,620.4585152838432 570,427.00873362445384 1125,427.00873362445384L1125,430.0655021834058C570,430.0655021834058 570,623.5152838427952 15,623.5152838427952Z" style="stroke: rgb(68, 68, 68); stroke-opacity: 1; fill: rgb(0, 204, 150); fill-opacity: 0.6; stroke-width: 0; opacity: 1;"/><path class="sankey-link" d="M15,631.9213973799131C570,631.9213973799131 570,569.8253275109168 1125,569.8253275109168L1125,573.6462882096068C570,573.6462882096068 570,635.742358078603 15,635.742358078603Z" style="stroke: rgb(68, 68, 68); stroke-opacity: 1; fill: rgb(0, 204, 150); fill-opacity: 0.6; stroke-width: 0; opacity: 1;"/><path class="sankey-link" d="M15,641.0917030567691C570,641.0917030567691 570,705.4803493449781 1125,705.4803493449781L1125,713.8864628820961C570,713.8864628820961 570,649.4978165938871 15,649.4978165938871Z" style="stroke: rgb(68, 68, 68); stroke-opacity: 1; fill: rgb(0, 204, 150); fill-opacity: 0.6; stroke-width: 0; opacity: 1;"/><path class="sankey-link" d="M15,608.9956331877734C570,608.9956331877734 570,369.9781659388648 1125,369.9781659388648L1125,381.4410480349346C570,381.4410480349346 570,620.4585152838433 15,620.4585152838433Z" style="stroke: rgb(68, 68, 68); stroke-opacity: 1; fill: rgb(0, 204, 150); fill-opacity: 0.6; stroke-width: 0; opacity: 1;"/><path class="sankey-link" d="M15,593.7117903930135C570,593.7117903930135 570,112.5327510917032 1125,112.5327510917032L1125,117.88209606986914C570,117.88209606986914 570,599.0611353711794 15,599.0611353711794Z" style="stroke: rgb(68, 68, 68); stroke-opacity: 1; fill: rgb(0, 204, 150); fill-opacity: 0.6; stroke-width: 0; opacity: 1;"/><path class="sankey-link" d="M15,82.9257641921399C570,82.9257641921399 570,447.3580786026198 1125,447.3580786026198L1125,448.88646288209577C570,448.88646288209577 570,84.45414847161587 15,84.45414847161587Z" style="stroke: rgb(68, 68, 68); stroke-opacity: 1; fill: rgb(254, 203, 82); fill-opacity: 0.6; stroke-width: 0; opacity: 1;"/><path class="sankey-link" d="M15,60.00000000000017C570,60.00000000000017 570,-2.842170943040401e-14 1125,-2.842170943040401e-14L1125,0.7641921397379628C570,0.7641921397379628 570,60.76419213973816 15,60.76419213973816Z" style="stroke: rgb(254, 203, 82); stroke-opacity: 0.6; fill: rgb(254, 203, 82); fill-opacity: 0.6; stroke-width: 1; opacity: 1;"/><path class="sankey-link" d="M15,60.764192139738164C570,60.764192139738164 570,24.170305676855918 1125,24.170305676855918L1125,25.698689956331897C570,25.698689956331897 570,62.29257641921415 15,62.29257641921415Z" style="stroke: rgb(68, 68, 68); stroke-opacity: 1; fill: rgb(254, 203, 82); fill-opacity: 0.6; stroke-width: 0; opacity: 1;"/><path class="sankey-link" d="M15,75.28384279475999C570,75.28384279475999 570,212.83842794759846 1125,212.83842794759846L1125,215.8951965065504C570,215.8951965065504 570,78.34061135371196 15,78.34061135371196Z" style="stroke: rgb(68, 68, 68); stroke-opacity: 1; fill: rgb(254, 203, 82); fill-opacity: 0.6; stroke-width: 0; opacity: 1;"/><path class="sankey-link" d="M15,68.40611353711807C570,68.40611353711807 570,135.93886462882142 1125,135.93886462882142L1125,142.81659388646335C570,142.81659388646335 570,75.28384279476 15,75.28384279476Z" style="stroke: rgb(68, 68, 68); stroke-opacity: 1; fill: rgb(254, 203, 82); fill-opacity: 0.6; stroke-width: 0; opacity: 1;"/><path class="sankey-link" d="M15,84.45414847161588C570,84.45414847161588 570,490.63318777292545 1125,490.63318777292545L1125,492.92576419213947C570,492.92576419213947 570,86.74672489082987 15,86.74672489082987Z" style="stroke: rgb(68, 68, 68); stroke-opacity: 1; fill: rgb(254, 203, 82); fill-opacity: 0.6; stroke-width: 0; opacity: 1;"/><path class="sankey-link" d="M15,81.39737991266391C570,81.39737991266391 570,405.6113537117901 1125,405.6113537117901L1125,407.1397379912661C570,407.1397379912661 570,82.92576419213988 15,82.92576419213988Z" style="stroke: rgb(68, 68, 68); stroke-opacity: 1; fill: rgb(254, 203, 82); fill-opacity: 0.6; stroke-width: 0; opacity: 1;"/><path class="sankey-link" d="M15,86.74672489082985C570,86.74672489082985 570,544.6069868995631 1125,544.6069868995631L1125,545.3711790393012C570,545.3711790393012 570,87.51091703056784 15,87.51091703056784Z" style="stroke: rgb(254, 203, 82); stroke-opacity: 0.6; fill: rgb(254, 203, 82); fill-opacity: 0.6; stroke-width: 1; opacity: 1;"/><path class="sankey-link" d="M15,78.34061135371195C570,78.34061135371195 570,290.50218340611366 1125,290.50218340611366L1125,293.5589519650656C570,293.5589519650656 570,81.39737991266392 15,81.39737991266392Z" style="stroke: rgb(68, 68, 68); stroke-opacity: 1; fill: rgb(254, 203, 82); fill-opacity: 0.6; stroke-width: 0; opacity: 1;"/><path class="sankey-link" d="M15,62.292576419214136C570,62.292576419214136 570,53.68995633187788 1125,53.68995633187788L1125,59.80349344978181C570,59.80349344978181 570,68.40611353711806 15,68.40611353711806Z" style="stroke: rgb(68, 68, 68); stroke-opacity: 1; fill: rgb(254, 203, 82); fill-opacity: 0.6; stroke-width: 0; opacity: 1;"/><path class="sankey-link" d="M15,526.2663755458516C570,526.2663755458516 570,467.22707423580755 1125,467.22707423580755L1125,468.7554585152835C570,468.7554585152835 570,527.7947598253277 15,527.7947598253277Z" style="stroke: rgb(68, 68, 68); stroke-opacity: 1; fill: rgb(255, 161, 90); fill-opacity: 0.6; stroke-width: 0; opacity: 1;"/><path class="sankey-link" d="M15,513.2751091703058C570,513.2751091703058 570,257.9257641921399 1125,257.9257641921399L1125,262.51091703056784C570,262.51091703056784 570,517.8602620087338 15,517.8602620087338Z" style="stroke: rgb(68, 68, 68); stroke-opacity: 1; fill: rgb(255, 161, 90); fill-opacity: 0.6; stroke-width: 0; opacity: 1;"/><path class="sankey-link" d="M15,533.9082969432316C570,533.9082969432316 570,652.2707423580786 1125,652.2707423580786L1125,653.0349344978166C570,653.0349344978166 570,534.6724890829696 15,534.6724890829696Z" style="stroke: rgb(255, 161, 90); stroke-opacity: 0.6; fill: rgb(255, 161, 90); fill-opacity: 0.6; stroke-width: 1; opacity: 1;"/><path class="sankey-link" d="M15,510.21834061135377C570,510.21834061135377 570,185.61135371179088 1125,185.61135371179088L1125,188.66812227074283C570,188.66812227074283 570,513.2751091703058 15,513.2751091703058Z" style="stroke: rgb(68, 68, 68); stroke-opacity: 1; fill: rgb(255, 161, 90); fill-opacity: 0.6; stroke-width: 0; opacity: 1;"/><path class="sankey-link" d="M15,533.1441048034935C570,533.1441048034935 570,623.5152838427947 1125,623.5152838427947L1125,624.2794759825327C570,624.2794759825327 570,533.9082969432316 15,533.9082969432316Z" style="stroke: rgb(255, 161, 90); stroke-opacity: 0.6; fill: rgb(255, 161, 90); fill-opacity: 0.6; stroke-width: 1; opacity: 1;"/><path class="sankey-link" d="M15,527.7947598253276C570,527.7947598253276 570,516.6157205240171 1125,516.6157205240171L1125,519.672489082969C570,519.672489082969 570,530.8515283842795 15,530.8515283842795Z" style="stroke: rgb(68, 68, 68); stroke-opacity: 1; fill: rgb(255, 161, 90); fill-opacity: 0.6; stroke-width: 0; opacity: 1;"/><path class="sankey-link" d="M15,525.5021834061135C570,525.5021834061135 570,425.48034934497787 1125,425.48034934497787L1125,426.2445414847159C570,426.2445414847159 570,526.2663755458516 15,526.2663755458516Z" style="stroke: rgb(255, 161, 90); stroke-opacity: 0.6; fill: rgb(255, 161, 90); fill-opacity: 0.6; stroke-width: 1; opacity: 1;"/><path class="sankey-link" d="M15,530.8515283842795C570,530.8515283842795 570,566.7685589519648 1125,566.7685589519648L1125,569.0611353711787C570,569.0611353711787 570,533.1441048034934 15,533.1441048034934Z" style="stroke: rgb(68, 68, 68); stroke-opacity: 1; fill: rgb(255, 161, 90); fill-opacity: 0.6; stroke-width: 0; opacity: 1;"/><path class="sankey-link" d="M15,534.6724890829696C570,534.6724890829696 570,697.0742358078602 1125,697.0742358078602L1125,701.6593886462882C570,701.6593886462882 570,539.2576419213976 15,539.2576419213976Z" style="stroke: rgb(68, 68, 68); stroke-opacity: 1; fill: rgb(255, 161, 90); fill-opacity: 0.6; stroke-width: 0; opacity: 1;"/><path class="sankey-link" d="M15,517.8602620087337C570,517.8602620087337 570,356.2227074235809 1125,356.2227074235809L1125,363.8646288209608C570,363.8646288209608 570,525.5021834061137 15,525.5021834061137Z" style="stroke: rgb(68, 68, 68); stroke-opacity: 1; fill: rgb(255, 161, 90); fill-opacity: 0.6; stroke-width: 0; opacity: 1;"/><path class="sankey-link" d="M15,506.39737991266384C570,506.39737991266384 570,106.41921397379927 1125,106.41921397379927L1125,110.24017467248923C570,110.24017467248923 570,510.2183406113538 15,510.2183406113538Z" style="stroke: rgb(68, 68, 68); stroke-opacity: 1; fill: rgb(255, 161, 90); fill-opacity: 0.6; stroke-width: 0; opacity: 1;"/><path class="sankey-link" d="M15,357.18340611353716C570,357.18340611353716 570,458.82096069868965 1125,458.82096069868965L1125,462.64192139737963C570,462.64192139737963 570,361.00436681222715 15,361.00436681222715Z" style="stroke: rgb(68, 68, 68); stroke-opacity: 1; fill: rgb(171, 99, 250); fill-opacity: 0.6; stroke-width: 0; opacity: 1;"/><path class="sankey-link" d="M15,309.80349344978174C570,309.80349344978174 570,6.877729257641893 1125,6.877729257641893L1125,7.6419213973798845C570,7.6419213973798845 570,310.5676855895198 15,310.5676855895198Z" style="stroke: rgb(171, 99, 250); stroke-opacity: 0.6; fill: rgb(171, 99, 250); fill-opacity: 0.6; stroke-width: 1; opacity: 1;"/><path class="sankey-link" d="M15,373.231441048035C570,373.231441048035 570,591.7030567685589 1125,591.7030567685589L1125,593.231441048035C570,593.231441048035 570,374.75982532751095 15,374.75982532751095Z" style="stroke: rgb(68, 68, 68); stroke-opacity: 1; fill: rgb(171, 99, 250); fill-opacity: 0.6; stroke-width: 0; opacity: 1;"/><path class="sankey-link" d="M15,310.5676855895197C570,310.5676855895197 570,33.340611353711815 1125,33.340611353711815L1125,34.8689956331878C570,34.8689956331878 570,312.0960698689957 15,312.0960698689957Z" style="stroke: rgb(68, 68, 68); stroke-opacity: 1; fill: rgb(171, 99, 250); fill-opacity: 0.6; stroke-width: 0; opacity: 1;"/><path class="sankey-link" d="M15,331.96506550218345C570,331.96506550218345 570,239.58515283842814 1125,239.58515283842814L1125,249.51965065502202C570,249.51965065502202 570,341.8995633187773 15,341.8995633187773Z" style="stroke: rgb(68, 68, 68); stroke-opacity: 1; fill: rgb(171, 99, 250); fill-opacity: 0.6; stroke-width: 0; opacity: 1;"/><path class="sankey-link" d="M15,378.5807860262009C570,378.5807860262009 570,646.9213973799126 1125,646.9213973799126L1125,649.2139737991265C570,649.2139737991265 570,380.8733624454149 15,380.8733624454149Z" style="stroke: rgb(68, 68, 68); stroke-opacity: 1; fill: rgb(171, 99, 250); fill-opacity: 0.6; stroke-width: 0; opacity: 1;"/><path class="sankey-link" d="M15,321.2663755458516C570,321.2663755458516 570,163.44978165938912 1125,163.44978165938912L1125,174.14847161572098C570,174.14847161572098 570,331.9650655021835 15,331.9650655021835Z" style="stroke: rgb(68, 68, 68); stroke-opacity: 1; fill: rgb(171, 99, 250); fill-opacity: 0.6; stroke-width: 0; opacity: 1;"/><path class="sankey-link" d="M15,374.75982532751095C570,374.75982532751095 570,616.6375545851528 1125,616.6375545851528L1125,620.4585152838428C570,620.4585152838428 570,378.58078602620094 15,378.58078602620094Z" style="stroke: rgb(68, 68, 68); stroke-opacity: 1; fill: rgb(171, 99, 250); fill-opacity: 0.6; stroke-width: 0; opacity: 1;"/><path class="sankey-link" d="M15,361.0043668122271C570,361.0043668122271 570,504.38864628820926 1125,504.38864628820926L1125,510.50218340611315C570,510.50218340611315 570,367.117903930131 15,367.117903930131Z" style="stroke: rgb(68, 68, 68); stroke-opacity: 1; fill: rgb(171, 99, 250); fill-opacity: 0.6; stroke-width: 0; opacity: 1;"/><path class="sankey-link" d="M15,354.8908296943232C570,354.8908296943232 570,418.60262008733594 1125,418.60262008733594L1125,420.89519650654995C570,420.89519650654995 570,357.1834061135372 15,357.1834061135372Z" style="stroke: rgb(68, 68, 68); stroke-opacity: 1; fill: rgb(171, 99, 250); fill-opacity: 0.6; stroke-width: 0; opacity: 1;"/><path class="sankey-link" d="M15,367.11790393013104C570,367.11790393013104 570,554.541484716157 1125,554.541484716157L1125,560.6550218340609C570,560.6550218340609 570,373.2314410480349 15,373.2314410480349Z" style="stroke: rgb(68, 68, 68); stroke-opacity: 1; fill: rgb(171, 99, 250); fill-opacity: 0.6; stroke-width: 0; opacity: 1;"/><path class="sankey-link" d="M15,380.87336244541484C570,380.87336244541484 570,677.2052401746723 1125,677.2052401746723L1125,686.3755458515282C570,686.3755458515282 570,390.0436681222708 15,390.0436681222708Z" style="stroke: rgb(68, 68, 68); stroke-opacity: 1; fill: rgb(171, 99, 250); fill-opacity: 0.6; stroke-width: 0; opacity: 1;"/><path class="sankey-link" d="M15,341.8995633187773C570,341.8995633187773 570,328.7117903930132 1125,328.7117903930132L1125,341.703056768559C570,341.703056768559 570,354.89082969432314 15,354.89082969432314Z" style="stroke: rgb(68, 68, 68); stroke-opacity: 1; fill: rgb(171, 99, 250); fill-opacity: 0.6; stroke-width: 0; opacity: 1;"/><path class="sankey-link" d="M15,312.0960698689957C570,312.0960698689957 570,86.55021834061151 1125,86.55021834061151L1125,95.7205240174674C570,95.7205240174674 570,321.26637554585164 15,321.26637554585164Z" style="stroke: rgb(68, 68, 68); stroke-opacity: 1; fill: rgb(171, 99, 250); fill-opacity: 0.6; stroke-width: 0; opacity: 1;"/><path class="sankey-link" d="M15,194.21397379912685C570,194.21397379912685 570,448.88646288209577 1125,448.88646288209577L1125,455.7641921397377C570,455.7641921397377 570,201.09170305676878 15,201.09170305676878Z" style="stroke: rgb(68, 68, 68); stroke-opacity: 1; fill: rgb(99, 110, 250); fill-opacity: 0.6; stroke-width: 0; opacity: 1;"/><path class="sankey-link" d="M15,102.5109170305679C570,102.5109170305679 570,0.764192139737963 1125,0.764192139737963L1125,6.113537117903902C570,6.113537117903902 570,107.86026200873383 15,107.86026200873383Z" style="stroke: rgb(68, 68, 68); stroke-opacity: 1; fill: rgb(99, 110, 250); fill-opacity: 0.6; stroke-width: 0; opacity: 1;"/><path class="sankey-link" d="M15,215.6113537117906C570,215.6113537117906 570,590.9388646288209 1125,590.9388646288209L1125,591.7030567685589C570,591.7030567685589 570,216.37554585152859 15,216.37554585152859Z" style="stroke: rgb(99, 110, 250); stroke-opacity: 0.6; fill: rgb(99, 110, 250); fill-opacity: 0.6; stroke-width: 1; opacity: 1;"/><path class="sankey-link" d="M15,107.86026200873384C570,107.86026200873384 570,25.6986899563319 1125,25.6986899563319L1125,30.283842794759845C570,30.283842794759845 570,112.44541484716179 15,112.44541484716179Z" style="stroke: rgb(68, 68, 68); stroke-opacity: 1; fill: rgb(99, 110, 250); fill-opacity: 0.6; stroke-width: 0; opacity: 1;"/><path class="sankey-link" d="M15,143.77729257641943C570,143.77729257641943 570,215.89519650655043 1125,215.89519650655043L1125,233.47161572052423C570,233.47161572052423 570,161.35371179039322 15,161.35371179039322Z" style="stroke: rgb(68, 68, 68); stroke-opacity: 1; fill: rgb(99, 110, 250); fill-opacity: 0.6; stroke-width: 0; opacity: 1;"/><path class="sankey-link" d="M15,220.19650655021854C570,220.19650655021854 570,646.1572052401746 1125,646.1572052401746L1125,646.9213973799126C570,646.9213973799126 570,220.96069868995653 15,220.96069868995653Z" style="stroke: rgb(99, 110, 250); stroke-opacity: 0.6; fill: rgb(99, 110, 250); fill-opacity: 0.6; stroke-width: 1; opacity: 1;"/><path class="sankey-link" d="M15,130.78602620087358C570,130.78602620087358 570,142.81659388646335 1125,142.81659388646335L1125,155.80786026200923C570,155.80786026200923 570,143.77729257641946 15,143.77729257641946Z" style="stroke: rgb(68, 68, 68); stroke-opacity: 1; fill: rgb(99, 110, 250); fill-opacity: 0.6; stroke-width: 0; opacity: 1;"/><path class="sankey-link" d="M15,216.37554585152859C570,216.37554585152859 570,609.7598253275108 1125,609.7598253275108L1125,613.5807860262008C570,613.5807860262008 570,220.19650655021852 15,220.19650655021852Z" style="stroke: rgb(68, 68, 68); stroke-opacity: 1; fill: rgb(99, 110, 250); fill-opacity: 0.6; stroke-width: 0; opacity: 1;"/><path class="sankey-link" d="M15,201.09170305676878C570,201.09170305676878 570,492.9257641921394 1125,492.9257641921394L1125,501.3318777292573C570,501.3318777292573 570,209.49781659388668 15,209.49781659388668Z" style="stroke: rgb(68, 68, 68); stroke-opacity: 1; fill: rgb(99, 110, 250); fill-opacity: 0.6; stroke-width: 0; opacity: 1;"/><path class="sankey-link" d="M15,185.80786026200894C570,185.80786026200894 570,407.1397379912661 1125,407.1397379912661L1125,415.545851528384C570,415.545851528384 570,194.21397379912685 15,194.21397379912685Z" style="stroke: rgb(68, 68, 68); stroke-opacity: 1; fill: rgb(99, 110, 250); fill-opacity: 0.6; stroke-width: 0; opacity: 1;"/><path class="sankey-link" d="M15,209.49781659388668C570,209.49781659388668 570,545.3711790393012 1125,545.3711790393012L1125,551.4847161572051C570,551.4847161572051 570,215.61135371179063 15,215.61135371179063Z" style="stroke: rgb(68, 68, 68); stroke-opacity: 1; fill: rgb(99, 110, 250); fill-opacity: 0.6; stroke-width: 0; opacity: 1;"/><path class="sankey-link" d="M15,220.96069868995653C570,220.96069868995653 570,670.3275109170304 1125,670.3275109170304L1125,674.1484716157204C570,674.1484716157204 570,224.78165938864646 15,224.78165938864646Z" style="stroke: rgb(68, 68, 68); stroke-opacity: 1; fill: rgb(99, 110, 250); fill-opacity: 0.6; stroke-width: 0; opacity: 1;"/><path class="sankey-link" d="M15,161.35371179039322C570,161.35371179039322 570,293.5589519650656 1125,293.5589519650656L1125,318.01310043668127C570,318.01310043668127 570,185.80786026200894 15,185.80786026200894Z" style="stroke: rgb(68, 68, 68); stroke-opacity: 1; fill: rgb(99, 110, 250); fill-opacity: 0.6; stroke-width: 0; opacity: 1;"/><path class="sankey-link" d="M15,112.44541484716179C570,112.44541484716179 570,59.803493449781804 1125,59.803493449781804L1125,78.14410480349359C570,78.14410480349359 570,130.78602620087358 15,130.78602620087358Z" style="stroke: rgb(68, 68, 68); stroke-opacity: 1; fill: rgb(99, 110, 250); fill-opacity: 0.6; stroke-width: 0; opacity: 1;"/><path class="sankey-link" d="M15,279.5196506550219C570,279.5196506550219 570,455.7641921397377 1125,455.7641921397377L1125,458.82096069868965C570,458.82096069868965 570,282.57641921397385 15,282.57641921397385Z" style="stroke: rgb(68, 68, 68); stroke-opacity: 1; fill: rgb(255, 151, 255); fill-opacity: 0.6; stroke-width: 0; opacity: 1;"/><path class="sankey-link" d="M15,239.7816593886464C570,239.7816593886464 570,6.113537117903902 1125,6.113537117903902L1125,6.877729257641893C570,6.877729257641893 570,240.5458515283844 15,240.5458515283844Z" style="stroke: rgb(255, 151, 255); stroke-opacity: 0.6; fill: rgb(255, 151, 255); fill-opacity: 0.6; stroke-width: 1; opacity: 1;"/><path class="sankey-link" d="M15,240.5458515283844C570,240.5458515283844 570,30.28384279475985 1125,30.28384279475985L1125,33.340611353711815C570,33.340611353711815 570,243.60262008733633 15,243.60262008733633Z" style="stroke: rgb(68, 68, 68); stroke-opacity: 1; fill: rgb(255, 151, 255); fill-opacity: 0.6; stroke-width: 0; opacity: 1;"/><path class="sankey-link" d="M15,259.65065502183415C570,259.65065502183415 570,233.47161572052423 1125,233.47161572052423L1125,239.58515283842817C570,239.58515283842817 570,265.76419213973804 15,265.76419213973804Z" style="stroke: rgb(68, 68, 68); stroke-opacity: 1; fill: rgb(255, 151, 255); fill-opacity: 0.6; stroke-width: 0; opacity: 1;"/><path class="sankey-link" d="M15,252.00873362445427C570,252.00873362445427 570,155.8078602620092 1125,155.8078602620092L1125,163.44978165938912C570,163.44978165938912 570,259.65065502183415 15,259.65065502183415Z" style="stroke: rgb(68, 68, 68); stroke-opacity: 1; fill: rgb(255, 151, 255); fill-opacity: 0.6; stroke-width: 0; opacity: 1;"/><path class="sankey-link" d="M15,288.68995633187774C570,288.68995633187774 570,613.5807860262008 1125,613.5807860262008L1125,616.6375545851528C570,616.6375545851528 570,291.7467248908297 15,291.7467248908297Z" style="stroke: rgb(68, 68, 68); stroke-opacity: 1; fill: rgb(255, 151, 255); fill-opacity: 0.6; stroke-width: 0; opacity: 1;"/><path class="sankey-link" d="M15,282.57641921397385C570,282.57641921397385 570,501.3318777292573 1125,501.3318777292573L1125,504.38864628820926C570,504.38864628820926 570,285.6331877729258 15,285.6331877729258Z" style="stroke: rgb(68, 68, 68); stroke-opacity: 1; fill: rgb(255, 151, 255); fill-opacity: 0.6; stroke-width: 0; opacity: 1;"/><path class="sankey-link" d="M15,276.46288209606996C570,276.46288209606996 570,415.545851528384 1125,415.545851528384L1125,418.60262008733594C570,418.60262008733594 570,279.5196506550219 15,279.5196506550219Z" style="stroke: rgb(68, 68, 68); stroke-opacity: 1; fill: rgb(255, 151, 255); fill-opacity: 0.6; stroke-width: 0; opacity: 1;"/><path class="sankey-link" d="M15,285.6331877729258C570,285.6331877729258 570,551.4847161572051 1125,551.4847161572051L1125,554.541484716157C570,554.541484716157 570,288.68995633187774 15,288.68995633187774Z" style="stroke: rgb(68, 68, 68); stroke-opacity: 1; fill: rgb(255, 151, 255); fill-opacity: 0.6; stroke-width: 0; opacity: 1;"/><path class="sankey-link" d="M15,291.7467248908297C570,291.7467248908297 570,674.1484716157204 1125,674.1484716157204L1125,677.2052401746723C570,677.2052401746723 570,294.8034934497816 15,294.8034934497816Z" style="stroke: rgb(68, 68, 68); stroke-opacity: 1; fill: rgb(255, 151, 255); fill-opacity: 0.6; stroke-width: 0; opacity: 1;"/><path class="sankey-link" d="M15,265.7641921397381C570,265.7641921397381 570,318.0131004366813 1125,318.0131004366813L1125,328.71179039301325C570,328.71179039301325 570,276.46288209607 15,276.46288209607Z" style="stroke: rgb(68, 68, 68); stroke-opacity: 1; fill: rgb(255, 151, 255); fill-opacity: 0.6; stroke-width: 0; opacity: 1;"/><path class="sankey-link" d="M15,243.60262008733636C570,243.60262008733636 570,78.1441048034936 1125,78.1441048034936L1125,86.55021834061151C570,86.55021834061151 570,252.00873362445427 15,252.00873362445427Z" style="stroke: rgb(68, 68, 68); stroke-opacity: 1; fill: rgb(255, 151, 255); fill-opacity: 0.6; stroke-width: 0; opacity: 1;"/><path class="sankey-link" d="M15,568.7772925764197C570,568.7772925764197 570,468.7554585152835 1125,468.7554585152835L1125,470.2838427947595C570,470.2838427947595 570,570.3056768558957 15,570.3056768558957Z" style="stroke: rgb(68, 68, 68); stroke-opacity: 1; fill: rgb(255, 102, 146); fill-opacity: 0.6; stroke-width: 0; opacity: 1;"/><path class="sankey-link" d="M15,554.2576419213977C570,554.2576419213977 570,36.39737991266377 1125,36.39737991266377L1125,37.16157205240176C570,37.16157205240176 570,555.0218340611358 15,555.0218340611358Z" style="stroke: rgb(255, 102, 146); stroke-opacity: 0.6; fill: rgb(255, 102, 146); fill-opacity: 0.6; stroke-width: 1; opacity: 1;"/><path class="sankey-link" d="M15,560.3711790393018C570,560.3711790393018 570,262.5109170305679 1125,262.5109170305679L1125,264.03930131004387C570,264.03930131004387 570,561.8995633187778 15,561.8995633187778Z" style="stroke: rgb(68, 68, 68); stroke-opacity: 1; fill: rgb(255, 102, 146); fill-opacity: 0.6; stroke-width: 0; opacity: 1;"/><path class="sankey-link" d="M15,557.3144104803498C570,557.3144104803498 570,188.66812227074286 1125,188.66812227074286L1125,191.7248908296948C570,191.7248908296948 570,560.3711790393018 15,560.3711790393018Z" style="stroke: rgb(68, 68, 68); stroke-opacity: 1; fill: rgb(255, 102, 146); fill-opacity: 0.6; stroke-width: 0; opacity: 1;"/><path class="sankey-link" d="M15,571.8340611353717C570,571.8340611353717 570,624.2794759825327 1125,624.2794759825327L1125,625.8078602620088C570,625.8078602620088 570,573.3624454148478 15,573.3624454148478Z" style="stroke: rgb(68, 68, 68); stroke-opacity: 1; fill: rgb(255, 102, 146); fill-opacity: 0.6; stroke-width: 0; opacity: 1;"/><path class="sankey-link" d="M15,570.3056768558956C570,570.3056768558956 570,519.672489082969 1125,519.672489082969L1125,520.4366812227071C570,520.4366812227071 570,571.0698689956337 15,571.0698689956337Z" style="stroke: rgb(255, 102, 146); stroke-opacity: 0.6; fill: rgb(255, 102, 146); fill-opacity: 0.6; stroke-width: 1; opacity: 1;"/><path class="sankey-link" d="M15,568.0131004366816C570,568.0131004366816 570,426.24454148471585 1125,426.24454148471585L1125,427.0087336244539C570,427.0087336244539 570,568.7772925764197 15,568.7772925764197Z" style="stroke: rgb(255, 102, 146); stroke-opacity: 0.6; fill: rgb(255, 102, 146); fill-opacity: 0.6; stroke-width: 1; opacity: 1;"/><path class="sankey-link" d="M15,571.0698689956337C570,571.0698689956337 570,569.0611353711788 1125,569.0611353711788L1125,569.8253275109168C570,569.8253275109168 570,571.8340611353717 15,571.8340611353717Z" style="stroke: rgb(255, 102, 146); stroke-opacity: 0.6; fill: rgb(255, 102, 146); fill-opacity: 0.6; stroke-width: 1; opacity: 1;"/><path class="sankey-link" d="M15,573.3624454148477C570,573.3624454148477 570,701.6593886462881 1125,701.6593886462881L1125,705.4803493449781C570,705.4803493449781 570,577.1834061135377 15,577.1834061135377Z" style="stroke: rgb(68, 68, 68); stroke-opacity: 1; fill: rgb(255, 102, 146); fill-opacity: 0.6; stroke-width: 0; opacity: 1;"/><path class="sankey-link" d="M15,561.8995633187777C570,561.8995633187777 570,363.86462882096083 1125,363.86462882096083L1125,369.9781659388647C570,369.9781659388647 570,568.0131004366816 15,568.0131004366816Z" style="stroke: rgb(68, 68, 68); stroke-opacity: 1; fill: rgb(255, 102, 146); fill-opacity: 0.6; stroke-width: 0; opacity: 1;"/><path class="sankey-link" d="M15,555.0218340611358C570,555.0218340611358 570,110.24017467248923 1125,110.24017467248923L1125,112.53275109170322C570,112.53275109170322 570,557.3144104803497 15,557.3144104803497Z" style="stroke: rgb(68, 68, 68); stroke-opacity: 1; fill: rgb(255, 102, 146); fill-opacity: 0.6; stroke-width: 0; opacity: 1;"/><path class="sankey-link" d="M15,715.414847161572C570,715.414847161572 570,197.07423580786076 1125,197.07423580786076L1125,197.83842794759875C570,197.83842794759875 570,716.17903930131 15,716.17903930131Z" style="stroke: rgb(182, 232, 128); stroke-opacity: 0.6; fill: rgb(182, 232, 128); fill-opacity: 0.6; stroke-width: 1; opacity: 1;"/><path class="sankey-link" d="M15,717.7074235807861C570,717.7074235807861 570,629.6288209606987 1125,629.6288209606987L1125,631.1572052401748C570,631.1572052401748 570,719.2358078602622 15,719.2358078602622Z" style="stroke: rgb(68, 68, 68); stroke-opacity: 1; fill: rgb(182, 232, 128); fill-opacity: 0.6; stroke-width: 0; opacity: 1;"/><path class="sankey-link" d="M15,716.943231441048C570,716.943231441048 570,528.842794759825 1125,528.842794759825L1125,529.606986899563C570,529.606986899563 570,717.7074235807861 15,717.7074235807861Z" style="stroke: rgb(182, 232, 128); stroke-opacity: 0.6; fill: rgb(182, 232, 128); fill-opacity: 0.6; stroke-width: 1; opacity: 1;"/><path class="sankey-link" d="M15,719.2358078602621C570,719.2358078602621 570,719.235807860262 1125,719.235807860262L1125,720C570,720 570,720.0000000000001 15,720.0000000000001Z" style="stroke: rgb(182, 232, 128); stroke-opacity: 0.6; fill: rgb(182, 232, 128); fill-opacity: 0.6; stroke-width: 1; opacity: 1;"/><path class="sankey-link" d="M15,716.17903930131C570,716.17903930131 570,389.8471615720525 1125,389.8471615720525L1125,390.61135371179057C570,390.61135371179057 570,716.943231441048 15,716.943231441048Z" style="stroke: rgb(182, 232, 128); stroke-opacity: 0.6; fill: rgb(182, 232, 128); fill-opacity: 0.6; stroke-width: 1; opacity: 1;"/></g><g class="sankey-node-set" style="cursor: move;"><g class="sankey-node" transform="translate(1125.000,447.358)" style="opacity: 1;"><rect class="node-rect" width="15" height="28.275109170305655" style="stroke-width: 0.5; stroke: rgb(0, 0, 0); stroke-opacity: 1; fill: rgb(128, 128, 128); fill-opacity: 1;"/><text class="node-label" data-notex="1" x="0" y="0" text-anchor="end" transform="translate(-3.25,18.337554585152827)" style="cursor: default; font-family: 'Open Sans', verdana, arial, sans-serif; font-size: 12px; fill: rgb(42, 63, 95); fill-opacity: 1; white-space: pre; text-shadow: white 1px 1px 1px, white -1px -1px 1px, white 1px -1px 1px, white -1px 1px 1px;">AggressiveChase</text></g><g class="sankey-node" transform="translate(1125.000,590.939)" style="opacity: 1;"><rect class="node-rect" width="15" height="3.820960698689987" style="stroke-width: 0.5; stroke: rgb(0, 0, 0); stroke-opacity: 1; fill: rgb(128, 128, 128); fill-opacity: 1;"/><text class="node-label" data-notex="1" x="0" y="0" text-anchor="end" transform="translate(-3.25,6.110480349344993)" style="cursor: default; font-family: 'Open Sans', verdana, arial, sans-serif; font-size: 12px; fill: rgb(42, 63, 95); fill-opacity: 1; white-space: pre; text-shadow: white 1px 1px 1px, white -1px -1px 1px, white 1px -1px 1px, white -1px 1px 1px;">Groupsniff</text></g><g class="sankey-node" transform="translate(1125.000,24.170)" style="opacity: 1;"><rect class="node-rect" width="15" height="14.519650655021962" style="stroke-width: 0.5; stroke: rgb(0, 0, 0); stroke-opacity: 1; fill: rgb(128, 128, 128); fill-opacity: 1;"/><text class="node-label" data-notex="1" x="0" y="0" text-anchor="end" transform="translate(-3.25,11.45982532751098)" style="cursor: default; font-family: 'Open Sans', verdana, arial, sans-serif; font-size: 12px; fill: rgb(42, 63, 95); fill-opacity: 1; white-space: pre; text-shadow: white 1px 1px 1px, white -1px -1px 1px, white 1px -1px 1px, white -1px 1px 1px;">SideAttack</text></g><g class="sankey-node" transform="translate(1125.000,212.838)" style="opacity: 1;"><rect class="node-rect" width="15" height="62.6637554585152" style="stroke-width: 0.5; stroke: rgb(0, 0, 0); stroke-opacity: 1; fill: rgb(128, 128, 128); fill-opacity: 1;"/><text class="node-label" data-notex="1" x="0" y="0" text-anchor="end" transform="translate(-3.25,35.5318777292576)" style="cursor: default; font-family: 'Open Sans', verdana, arial, sans-serif; font-size: 12px; fill: rgb(42, 63, 95); fill-opacity: 1; white-space: pre; text-shadow: white 1px 1px 1px, white -1px -1px 1px, white 1px -1px 1px, white -1px 1px 1px;">SideSniff1</text></g><g class="sankey-node" transform="translate(1125.000,646.157)" style="opacity: 1;"><rect class="node-rect" width="15" height="9.170305676855833" style="stroke-width: 0.5; stroke: rgb(0, 0, 0); stroke-opacity: 1; fill: rgb(128, 128, 128); fill-opacity: 1;"/><text class="node-label" data-notex="1" x="0" y="0" text-anchor="end" transform="translate(-3.25,8.785152838427916)" style="cursor: default; font-family: 'Open Sans', verdana, arial, sans-serif; font-size: 12px; fill: rgb(42, 63, 95); fill-opacity: 1; white-space: pre; text-shadow: white 1px 1px 1px, white -1px -1px 1px, white 1px -1px 1px, white -1px 1px 1px;">dig</text></g><g class="sankey-node" transform="translate(1125.000,135.939)" style="opacity: 1;"><rect class="node-rect" width="15" height="61.89956331877704" style="stroke-width: 0.5; stroke: rgb(0, 0, 0); stroke-opacity: 1; fill: rgb(128, 128, 128); fill-opacity: 1;"/><text class="node-label" data-notex="1" x="0" y="0" text-anchor="end" transform="translate(-3.25,35.14978165938852)" style="cursor: default; font-family: 'Open Sans', verdana, arial, sans-serif; font-size: 12px; fill: rgb(42, 63, 95); fill-opacity: 1; white-space: pre; text-shadow: white 1px 1px 1px, white -1px -1px 1px, white 1px -1px 1px, white -1px 1px 1px;">follow1</text></g><g class="sankey-node" transform="translate(1125.000,609.760)" style="opacity: 1;"><rect class="node-rect" width="15" height="21.397379912663723" style="stroke-width: 0.5; stroke: rgb(0, 0, 0); stroke-opacity: 1; fill: rgb(128, 128, 128); fill-opacity: 1;"/><text class="node-label" data-notex="1" x="0" y="0" text-anchor="end" transform="translate(-3.25,14.89868995633186)" style="cursor: default; font-family: 'Open Sans', verdana, arial, sans-serif; font-size: 12px; fill: rgb(42, 63, 95); fill-opacity: 1; white-space: pre; text-shadow: white 1px 1px 1px, white -1px -1px 1px, white 1px -1px 1px, white -1px 1px 1px;">groomfront</text></g><g class="sankey-node" transform="translate(1125.000,490.633)" style="opacity: 1;"><rect class="node-rect" width="15" height="38.97379912663769" style="stroke-width: 0.5; stroke: rgb(0, 0, 0); stroke-opacity: 1; fill: rgb(128, 128, 128); fill-opacity: 1;"/><text class="node-label" data-notex="1" x="0" y="0" text-anchor="end" transform="translate(-3.25,23.686899563318843)" style="cursor: default; font-family: 'Open Sans', verdana, arial, sans-serif; font-size: 12px; fill: rgb(42, 63, 95); fill-opacity: 1; white-space: pre; text-shadow: white 1px 1px 1px, white -1px -1px 1px, white 1px -1px 1px, white -1px 1px 1px;">nose2nose1</text></g><g class="sankey-node" transform="translate(1125.000,405.611)" style="opacity: 1;"><rect class="node-rect" width="15" height="26.746724890829682" style="stroke-width: 0.5; stroke: rgb(0, 0, 0); stroke-opacity: 1; fill: rgb(128, 128, 128); fill-opacity: 1;"/><text class="node-label" data-notex="1" x="0" y="0" text-anchor="end" transform="translate(-3.25,17.57336244541484)" style="cursor: default; font-family: 'Open Sans', verdana, arial, sans-serif; font-size: 12px; fill: rgb(42, 63, 95); fill-opacity: 1; white-space: pre; text-shadow: white 1px 1px 1px, white -1px -1px 1px, white 1px -1px 1px, white -1px 1px 1px;">nose2rear1</text></g><g class="sankey-node" transform="translate(1125.000,544.607)" style="opacity: 1;"><rect class="node-rect" width="15" height="31.331877729257712" style="stroke-width: 0.5; stroke: rgb(0, 0, 0); stroke-opacity: 1; fill: rgb(128, 128, 128); fill-opacity: 1;"/><text class="node-label" data-notex="1" x="0" y="0" text-anchor="end" transform="translate(-3.25,19.865938864628855)" style="cursor: default; font-family: 'Open Sans', verdana, arial, sans-serif; font-size: 12px; fill: rgb(42, 63, 95); fill-opacity: 1; white-space: pre; text-shadow: white 1px 1px 1px, white -1px -1px 1px, white 1px -1px 1px, white -1px 1px 1px;">nosey1</text></g><g class="sankey-node" transform="translate(1125.000,670.328)" style="opacity: 1;"><rect class="node-rect" width="15" height="49.672489082969605" style="stroke-width: 0.5; stroke: rgb(0, 0, 0); stroke-opacity: 1; fill: rgb(128, 128, 128); fill-opacity: 1;"/><text class="node-label" data-notex="1" x="0" y="0" text-anchor="end" transform="translate(-3.25,29.036244541484802)" style="cursor: default; font-family: 'Open Sans', verdana, arial, sans-serif; font-size: 12px; fill: rgb(42, 63, 95); fill-opacity: 1; white-space: pre; text-shadow: white 1px 1px 1px, white -1px -1px 1px, white 1px -1px 1px, white -1px 1px 1px;">sitcorner</text></g><g class="sankey-node" transform="translate(1125.000,290.502)" style="opacity: 1;"><rect class="node-rect" width="15" height="100.10917030567646" style="stroke-width: 0.5; stroke: rgb(0, 0, 0); stroke-opacity: 1; fill: rgb(128, 128, 128); fill-opacity: 1;"/><text class="node-label" data-notex="1" x="0" y="0" text-anchor="end" transform="translate(-3.25,54.25458515283823)" style="cursor: default; font-family: 'Open Sans', verdana, arial, sans-serif; font-size: 12px; fill: rgb(42, 63, 95); fill-opacity: 1; white-space: pre; text-shadow: white 1px 1px 1px, white -1px -1px 1px, white 1px -1px 1px, white -1px 1px 1px;">walk</text></g><g class="sankey-node" transform="translate(1125.000,53.690)" style="opacity: 1;"><rect class="node-rect" width="15" height="67.24890829694354" style="stroke-width: 0.5; stroke: rgb(0, 0, 0); stroke-opacity: 1; fill: rgb(128, 128, 128); fill-opacity: 1;"/><text class="node-label" data-notex="1" x="0" y="0" text-anchor="end" transform="translate(-3.25,37.82445414847177)" style="cursor: default; font-family: 'Open Sans', verdana, arial, sans-serif; font-size: 12px; fill: rgb(42, 63, 95); fill-opacity: 1; white-space: pre; text-shadow: white 1px 1px 1px, white -1px -1px 1px, white 1px -1px 1px, white -1px 1px 1px;">wallclimb</text></g><g class="sankey-node" transform="translate(1125.000,-0.000)" style="opacity: 1;"><rect class="node-rect" width="15" height="9.170305676855946" style="stroke-width: 0.5; stroke: rgb(0, 0, 0); stroke-opacity: 1; fill: rgb(128, 128, 128); fill-opacity: 1;"/><text class="node-label" data-notex="1" x="0" y="0" text-anchor="end" transform="translate(-3.25,8.785152838427972)" style="cursor: default; font-family: 'Open Sans', verdana, arial, sans-serif; font-size: 12px; fill: rgb(42, 63, 95); fill-opacity: 1; white-space: pre; text-shadow: white 1px 1px 1px, white -1px -1px 1px, white 1px -1px 1px, white -1px 1px 1px;">BeingAttacked</text></g><g class="sankey-node" transform="translate(0.000,102.511)" style="opacity: 1;"><rect class="node-rect" width="15" height="122.27074235807851" style="stroke-width: 0.5; stroke: rgb(0, 0, 0); stroke-opacity: 1; fill: rgb(99, 110, 250); fill-opacity: 1;"/><text class="node-label" data-notex="1" x="0" y="0" text-anchor="start" transform="translate(18.25,65.33537117903926)" style="cursor: default; font-family: 'Open Sans', verdana, arial, sans-serif; font-size: 12px; fill: rgb(42, 63, 95); fill-opacity: 1; white-space: pre; text-shadow: white 1px 1px 1px, white -1px -1px 1px, white 1px -1px 1px, white -1px 1px 1px;">VTA</text></g><g class="sankey-node" transform="translate(0.000,405.044)" style="opacity: 1;"><rect class="node-rect" width="15" height="86.35371179039316" style="stroke-width: 0.5; stroke: rgb(0, 0, 0); stroke-opacity: 1; fill: rgb(239, 85, 59); fill-opacity: 1;"/><text class="node-label" data-notex="1" x="0" y="0" text-anchor="start" transform="translate(18.25,47.376855895196584)" style="cursor: default; font-family: 'Open Sans', verdana, arial, sans-serif; font-size: 12px; fill: rgb(42, 63, 95); fill-opacity: 1; white-space: pre; text-shadow: white 1px 1px 1px, white -1px -1px 1px, white 1px -1px 1px, white -1px 1px 1px;">Cla</text></g><g class="sankey-node" transform="translate(0.000,592.183)" style="opacity: 1;"><rect class="node-rect" width="15" height="57.314410480349125" style="stroke-width: 0.5; stroke: rgb(0, 0, 0); stroke-opacity: 1; fill: rgb(0, 204, 150); fill-opacity: 1;"/><text class="node-label" data-notex="1" x="0" y="0" text-anchor="start" transform="translate(18.25,32.857205240174565)" style="cursor: default; font-family: 'Open Sans', verdana, arial, sans-serif; font-size: 12px; fill: rgb(42, 63, 95); fill-opacity: 1; white-space: pre; text-shadow: white 1px 1px 1px, white -1px -1px 1px, white 1px -1px 1px, white -1px 1px 1px;">LC</text></g><g class="sankey-node" transform="translate(0.000,309.803)" style="opacity: 1;"><rect class="node-rect" width="15" height="80.24017467248893" style="stroke-width: 0.5; stroke: rgb(0, 0, 0); stroke-opacity: 1; fill: rgb(171, 99, 250); fill-opacity: 1;"/><text class="node-label" data-notex="1" x="0" y="0" text-anchor="start" transform="translate(18.25,44.32008733624447)" style="cursor: default; font-family: 'Open Sans', verdana, arial, sans-serif; font-size: 12px; fill: rgb(42, 63, 95); fill-opacity: 1; white-space: pre; text-shadow: white 1px 1px 1px, white -1px -1px 1px, white 1px -1px 1px, white -1px 1px 1px;">Str</text></g><g class="sankey-node" transform="translate(0.000,506.397)" style="opacity: 1;"><rect class="node-rect" width="15" height="32.86026200873391" style="stroke-width: 0.5; stroke: rgb(0, 0, 0); stroke-opacity: 1; fill: rgb(255, 161, 90); fill-opacity: 1;"/><text class="node-label" data-notex="1" x="0" y="0" text-anchor="start" transform="translate(18.25,20.630131004366955)" style="cursor: default; font-family: 'Open Sans', verdana, arial, sans-serif; font-size: 12px; fill: rgb(42, 63, 95); fill-opacity: 1; white-space: pre; text-shadow: white 1px 1px 1px, white -1px -1px 1px, white 1px -1px 1px, white -1px 1px 1px;">NAc</text></g><g class="sankey-node" transform="translate(0.000,664.498)" style="opacity: 1;"><rect class="node-rect" width="15" height="35.9170305676854" style="stroke-width: 0.5; stroke: rgb(0, 0, 0); stroke-opacity: 1; fill: rgb(25, 211, 243); fill-opacity: 1;"/><text class="node-label" data-notex="1" x="0" y="0" text-anchor="start" transform="translate(18.25,22.1585152838427)" style="cursor: default; font-family: 'Open Sans', verdana, arial, sans-serif; font-size: 12px; fill: rgb(42, 63, 95); fill-opacity: 1; white-space: pre; text-shadow: white 1px 1px 1px, white -1px -1px 1px, white 1px -1px 1px, white -1px 1px 1px;">BLA</text></g><g class="sankey-node" transform="translate(0.000,554.258)" style="opacity: 1;"><rect class="node-rect" width="15" height="22.925764192139695" style="stroke-width: 0.5; stroke: rgb(0, 0, 0); stroke-opacity: 1; fill: rgb(255, 102, 146); fill-opacity: 1;"/><text class="node-label" data-notex="1" x="0" y="0" text-anchor="start" transform="translate(18.25,15.662882096069847)" style="cursor: default; font-family: 'Open Sans', verdana, arial, sans-serif; font-size: 12px; fill: rgb(42, 63, 95); fill-opacity: 1; white-space: pre; text-shadow: white 1px 1px 1px, white -1px -1px 1px, white 1px -1px 1px, white -1px 1px 1px;">dPAG</text></g><g class="sankey-node" transform="translate(0.000,715.415)" style="opacity: 1;"><rect class="node-rect" width="15" height="4.58515283842803" style="stroke-width: 0.5; stroke: rgb(0, 0, 0); stroke-opacity: 1; fill: rgb(182, 232, 128); fill-opacity: 1;"/><text class="node-label" data-notex="1" x="0" y="0" text-anchor="start" transform="translate(18.25,6.492576419214014)" style="cursor: default; font-family: 'Open Sans', verdana, arial, sans-serif; font-size: 12px; fill: rgb(42, 63, 95); fill-opacity: 1; white-space: pre; text-shadow: white 1px 1px 1px, white -1px -1px 1px, white 1px -1px 1px, white -1px 1px 1px;">lHb</text></g><g class="sankey-node" transform="translate(0.000,239.782)" style="opacity: 1;"><rect class="node-rect" width="15" height="55.02183406113534" style="stroke-width: 0.5; stroke: rgb(0, 0, 0); stroke-opacity: 1; fill: rgb(255, 151, 255); fill-opacity: 1;"/><text class="node-label" data-notex="1" x="0" y="0" text-anchor="start" transform="translate(18.25,31.710917030567668)" style="cursor: default; font-family: 'Open Sans', verdana, arial, sans-serif; font-size: 12px; fill: rgb(42, 63, 95); fill-opacity: 1; white-space: pre; text-shadow: white 1px 1px 1px, white -1px -1px 1px, white 1px -1px 1px, white -1px 1px 1px;">cPFC</text></g><g class="sankey-node" transform="translate(0.000,60.000)" style="opacity: 1;"><rect class="node-rect" width="15" height="27.510917030567725" style="stroke-width: 0.5; stroke: rgb(0, 0, 0); stroke-opacity: 1; fill: rgb(254, 203, 82); fill-opacity: 1;"/><text class="node-label" data-notex="1" x="0" y="0" text-anchor="start" transform="translate(18.25,17.955458515283862)" style="cursor: default; font-family: 'Open Sans', verdana, arial, sans-serif; font-size: 12px; fill: rgb(42, 63, 95); fill-opacity: 1; white-space: pre; text-shadow: white 1px 1px 1px, white -1px -1px 1px, white 1px -1px 1px, white -1px 1px 1px;">LHyp</text></g></g></g><defs id="topdefs-ac22a4"><g class="clips"/></defs><g class="layer-above"><g class="imagelayer"/><g class="shapelayer"/></g><g class="infolayer"><g class="g-gtitle"/><g class="first-render"/></g></svg>