<svg class="main-svg" xmlns="http://www.w3.org/2000/svg" xmlns:xlink="http://www.w3.org/1999/xlink" width="1300" height="900" viewBox="0 0 1300 900" style=""><rect x="0" y="0" width="1300" height="900" style="fill: rgb(255, 255, 255); fill-opacity: 1;"/><defs id="defs-d11ff3"><g class="clips"/><g class="gradients"/><g class="patterns"/></defs><g class="bglayer"/><g class="layer-below"><g class="imagelayer"/><g class="shapelayer"/></g><g class="cartesianlayer"/><g class="polarlayer"/><g class="smithlayer"/><g class="ternarylayer"/><g class="geolayer"/><g class="funnelarealayer"/><g class="pielayer"/><g class="iciclelayer"/><g class="treemaplayer"/><g class="sunburstlayer"/><g class="glimages"/><g class="sankey" transform="translate(80,100)matrix(1 0 0 1 0 0)" style="box-sizing: content-box; position: absolute; left: 0px; shape-rendering: geometricprecision; pointer-events: none;"><g class="sankey-links" style="fill: none;"><path class="sankey-link" d="M383.70000000000005,15.412107623318516C564.3000000000001,15.412107623318516 564.3000000000001,102.34663677130057 744.9000000000001,102.34663677130057L744.9000000000001,103.13139013452927C564.3000000000001,103.13139013452927 564.3000000000001,16.196860986547215 383.70000000000005,16.196860986547215Z" style="stroke: rgb(25, 211, 243); stroke-opacity: 0.6; fill: rgb(25, 211, 243); fill-opacity: 0.6; stroke-width: 1; opacity: 1;"/><path class="sankey-link" d="M383.70000000000005,16.196860986547215C564.3000000000001,16.196860986547215 564.3000000000001,137.6995515695067 744.9000000000001,137.6995515695067L744.9000000000001,143.97757847533632C564.3000000000001,143.97757847533632 564.3000000000001,22.474887892376813 383.70000000000005,22.474887892376813Z" style="stroke: rgb(68, 68, 68); stroke-opacity: 1; fill: rgb(25, 211, 243); fill-opacity: 0.6; stroke-width: 0; opacity: 1;"/><path class="sankey-link" d="M383.70000000000005,22.474887892376813C564.3000000000001,22.474887892376813 564.3000000000001,218.03452914798197 744.9000000000001,218.03452914798197L744.9000000000001,218.81928251121064C564.3000000000001,218.81928251121064 564.3000000000001,23.259641255605516 383.70000000000005,23.259641255605516Z" style="stroke: rgb(25, 211, 243); stroke-opacity: 0.6; fill: rgb(25, 211, 243); fill-opacity: 0.6; stroke-width: 1; opacity: 1;"/><path class="sankey-link" d="M383.70000000000005,23.259641255605512C564.3000000000001,23.259641255605512 564.3000000000001,241.67892376681618 744.9000000000001,241.67892376681618L744.9000000000001,244.03318385650226C564.3000000000001,244.03318385650226 564.3000000000001,25.613901345291612 383.70000000000005,25.613901345291612Z" style="stroke: rgb(68, 68, 68); stroke-opacity: 1; fill: rgb(25, 211, 243); fill-opacity: 0.6; stroke-width: 0; opacity: 1;"/><path class="sankey-link" d="M383.70000000000005,25.61390134529161C564.3000000000001,25.61390134529161 564.3000000000001,292.31883408071747 744.9000000000001,292.31883408071747L744.9000000000001,297.0273542600896C564.3000000000001,297.0273542600896 564.3000000000001,30.32242152466381 383.70000000000005,30.32242152466381Z" style="stroke: rgb(68, 68, 68); stroke-opacity: 1; fill: rgb(25, 211, 243); fill-opacity: 0.6; stroke-width: 0; opacity: 1;"/><path class="sankey-link" d="M383.70000000000005,30.322421524663802C564.3000000000001,30.322421524663802 564.3000000000001,452.94125560538106 744.9000000000001,452.94125560538106L744.9000000000001,456.86502242152454C564.3000000000001,456.86502242152454 564.3000000000001,34.2461883408073 383.70000000000005,34.2461883408073Z" style="stroke: rgb(68, 68, 68); stroke-opacity: 1; fill: rgb(25, 211, 243); fill-opacity: 0.6; stroke-width: 0; opacity: 1;"/><path class="sankey-link" d="M383.70000000000005,34.24618834080731C564.3000000000001,34.24618834080731 564.3000000000001,506.9713004484306 744.9000000000001,506.9713004484306L744.9000000000001,514.8188340807176C564.3000000000001,514.8188340807176 564.3000000000001,42.093721973094304 383.70000000000005,42.093721973094304Z" style="stroke: rgb(68, 68, 68); stroke-opacity: 1; fill: rgb(25, 211, 243); fill-opacity: 0.6; stroke-width: 0; opacity: 1;"/><path class="sankey-link" d="M383.70000000000005,42.093721973094304C564.3000000000001,42.093721973094304 564.3000000000001,650.9968609865471 744.9000000000001,650.9968609865471L744.9000000000001,653.3511210762331C564.3000000000001,653.3511210762331 564.3000000000001,44.4479820627804 383.70000000000005,44.4479820627804Z" style="stroke: rgb(68, 68, 68); stroke-opacity: 1; fill: rgb(25, 211, 243); fill-opacity: 0.6; stroke-width: 0; opacity: 1;"/><path class="sankey-link" d="M383.70000000000005,62.3219730941704C564.3000000000001,62.3219730941704 564.3000000000001,13.89775784753364 744.9000000000001,13.89775784753364L744.9000000000001,17.03677130044844C564.3000000000001,17.03677130044844 564.3000000000001,65.4609865470852 383.70000000000005,65.4609865470852Z" style="stroke: rgb(68, 68, 68); stroke-opacity: 1; fill: rgb(0, 204, 150); fill-opacity: 0.6; stroke-width: 0; opacity: 1;"/><path class="sankey-link" d="M383.70000000000005,65.4609865470852C564.3000000000001,65.4609865470852 564.3000000000001,52.5780269058296 744.9000000000001,52.5780269058296L744.9000000000001,55.7170403587444C564.3000000000001,55.7170403587444 564.3000000000001,68.60000000000001 383.70000000000005,68.60000000000001Z" style="stroke: rgb(68, 68, 68); stroke-opacity: 1; fill: rgb(0, 204, 150); fill-opacity: 0.6; stroke-width: 0; opacity: 1;"/><path class="sankey-link" d="M383.70000000000005,68.6C564.3000000000001,68.6 564.3000000000001,83.0183856502243 744.9000000000001,83.0183856502243L744.9000000000001,84.58789237668171C564.3000000000001,84.58789237668171 564.3000000000001,70.1695067264574 383.70000000000005,70.1695067264574Z" style="stroke: rgb(68, 68, 68); stroke-opacity: 1; fill: rgb(0, 204, 150); fill-opacity: 0.6; stroke-width: 0; opacity: 1;"/><path class="sankey-link" d="M383.70000000000005,70.1695067264574C564.3000000000001,70.1695067264574 564.3000000000001,103.13139013452927 744.9000000000001,103.13139013452927L744.9000000000001,103.91614349775797C564.3000000000001,103.91614349775797 564.3000000000001,70.9542600896861 383.70000000000005,70.9542600896861Z" style="stroke: rgb(0, 204, 150); stroke-opacity: 0.6; fill: rgb(0, 204, 150); fill-opacity: 0.6; stroke-width: 1; opacity: 1;"/><path class="sankey-link" d="M383.70000000000005,70.9542600896861C564.3000000000001,70.9542600896861 564.3000000000001,143.97757847533632 744.9000000000001,143.97757847533632L744.9000000000001,151.82511210762328C564.3000000000001,151.82511210762328 564.3000000000001,78.8017937219731 383.70000000000005,78.8017937219731Z" style="stroke: rgb(68, 68, 68); stroke-opacity: 1; fill: rgb(0, 204, 150); fill-opacity: 0.6; stroke-width: 0; opacity: 1;"/><path class="sankey-link" d="M383.70000000000005,78.8017937219731C564.3000000000001,78.8017937219731 564.3000000000001,218.81928251121067 744.9000000000001,218.81928251121067L744.9000000000001,220.38878923766808C564.3000000000001,220.38878923766808 564.3000000000001,80.3713004484305 383.70000000000005,80.3713004484305Z" style="stroke: rgb(68, 68, 68); stroke-opacity: 1; fill: rgb(0, 204, 150); fill-opacity: 0.6; stroke-width: 0; opacity: 1;"/><path class="sankey-link" d="M383.70000000000005,80.3713004484305C564.3000000000001,80.3713004484305 564.3000000000001,244.03318385650232 744.9000000000001,244.03318385650232L744.9000000000001,251.8807174887893C564.3000000000001,251.8807174887893 564.3000000000001,88.2188340807175 383.70000000000005,88.2188340807175Z" style="stroke: rgb(68, 68, 68); stroke-opacity: 1; fill: rgb(0, 204, 150); fill-opacity: 0.6; stroke-width: 0; opacity: 1;"/><path class="sankey-link" d="M383.70000000000005,88.2188340807175C564.3000000000001,88.2188340807175 564.3000000000001,297.0273542600897 744.9000000000001,297.0273542600897L744.9000000000001,304.87488789237665C564.3000000000001,304.87488789237665 564.3000000000001,96.0663677130045 383.70000000000005,96.0663677130045Z" style="stroke: rgb(68, 68, 68); stroke-opacity: 1; fill: rgb(0, 204, 150); fill-opacity: 0.6; stroke-width: 0; opacity: 1;"/><path class="sankey-link" d="M383.70000000000005,96.0663677130045C564.3000000000001,96.0663677130045 564.3000000000001,339.53721973094173 744.9000000000001,339.53721973094173L744.9000000000001,341.89147982062786C564.3000000000001,341.89147982062786 564.3000000000001,98.4206278026906 383.70000000000005,98.4206278026906Z" style="stroke: rgb(68, 68, 68); stroke-opacity: 1; fill: rgb(0, 204, 150); fill-opacity: 0.6; stroke-width: 0; opacity: 1;"/><path class="sankey-link" d="M383.70000000000005,98.42062780269059C564.3000000000001,98.42062780269059 564.3000000000001,365.5515695067264 744.9000000000001,365.5515695067264L744.9000000000001,367.12107623318377C564.3000000000001,367.12107623318377 564.3000000000001,99.990134529148 383.70000000000005,99.990134529148Z" style="stroke: rgb(68, 68, 68); stroke-opacity: 1; fill: rgb(0, 204, 150); fill-opacity: 0.6; stroke-width: 0; opacity: 1;"/><path class="sankey-link" d="M383.70000000000005,99.990134529148C564.3000000000001,99.990134529148 564.3000000000001,413.25650224215235 744.9000000000001,413.25650224215235L744.9000000000001,416.39551569506716C564.3000000000001,416.39551569506716 564.3000000000001,103.1291479820628 383.70000000000005,103.1291479820628Z" style="stroke: rgb(68, 68, 68); stroke-opacity: 1; fill: rgb(0, 204, 150); fill-opacity: 0.6; stroke-width: 0; opacity: 1;"/><path class="sankey-link" d="M383.70000000000005,103.12914798206279C564.3000000000001,103.12914798206279 564.3000000000001,456.86502242152454 744.9000000000001,456.86502242152454L744.9000000000001,463.92780269058284C564.3000000000001,463.92780269058284 564.3000000000001,110.19192825112108 383.70000000000005,110.19192825112108Z" style="stroke: rgb(68, 68, 68); stroke-opacity: 1; fill: rgb(0, 204, 150); fill-opacity: 0.6; stroke-width: 0; opacity: 1;"/><path class="sankey-link" d="M383.70000000000005,110.19192825112108C564.3000000000001,110.19192825112108 564.3000000000001,514.8188340807176 744.9000000000001,514.8188340807176L744.9000000000001,532.0834080717489C564.3000000000001,532.0834080717489 564.3000000000001,127.45650224215248 383.70000000000005,127.45650224215248Z" style="stroke: rgb(68, 68, 68); stroke-opacity: 1; fill: rgb(0, 204, 150); fill-opacity: 0.6; stroke-width: 0; opacity: 1;"/><path class="sankey-link" d="M383.70000000000005,127.45650224215248C564.3000000000001,127.45650224215248 564.3000000000001,653.3511210762332 744.9000000000001,653.3511210762332L744.9000000000001,658.8443946188341C564.3000000000001,658.8443946188341 564.3000000000001,132.94977578475337 383.70000000000005,132.94977578475337Z" style="stroke: rgb(68, 68, 68); stroke-opacity: 1; fill: rgb(0, 204, 150); fill-opacity: 0.6; stroke-width: 0; opacity: 1;"/><path class="sankey-link" d="M383.70000000000005,152.30089686098646C564.3000000000001,152.30089686098646 564.3000000000001,17.03677130044844 744.9000000000001,17.03677130044844L744.9000000000001,18.606278026905837C564.3000000000001,18.606278026905837 564.3000000000001,153.87040358744386 383.70000000000005,153.87040358744386Z" style="stroke: rgb(68, 68, 68); stroke-opacity: 1; fill: rgb(239, 85, 59); fill-opacity: 0.6; stroke-width: 0; opacity: 1;"/><path class="sankey-link" d="M383.70000000000005,153.87040358744386C564.3000000000001,153.87040358744386 564.3000000000001,55.7170403587444 744.9000000000001,55.7170403587444L744.9000000000001,56.5017937219731C564.3000000000001,56.5017937219731 564.3000000000001,154.65515695067253 383.70000000000005,154.65515695067253Z" style="stroke: rgb(239, 85, 59); stroke-opacity: 0.6; fill: rgb(239, 85, 59); fill-opacity: 0.6; stroke-width: 1; opacity: 1;"/><path class="sankey-link" d="M383.70000000000005,154.65515695067256C564.3000000000001,154.65515695067256 564.3000000000001,84.58789237668171 744.9000000000001,84.58789237668171L744.9000000000001,85.37264573991041C564.3000000000001,85.37264573991041 564.3000000000001,155.43991031390124 383.70000000000005,155.43991031390124Z" style="stroke: rgb(239, 85, 59); stroke-opacity: 0.6; fill: rgb(239, 85, 59); fill-opacity: 0.6; stroke-width: 1; opacity: 1;"/><path class="sankey-link" d="M383.70000000000005,155.43991031390127C564.3000000000001,155.43991031390127 564.3000000000001,103.91614349775797 744.9000000000001,103.91614349775797L744.9000000000001,106.27040358744408C564.3000000000001,106.27040358744408 564.3000000000001,157.79417040358734 383.70000000000005,157.79417040358734Z" style="stroke: rgb(68, 68, 68); stroke-opacity: 1; fill: rgb(239, 85, 59); fill-opacity: 0.6; stroke-width: 0; opacity: 1;"/><path class="sankey-link" d="M383.70000000000005,157.79417040358737C564.3000000000001,157.79417040358737 564.3000000000001,151.82511210762328 744.9000000000001,151.82511210762328L744.9000000000001,161.24215246636766C564.3000000000001,161.24215246636766 564.3000000000001,167.21121076233175 383.70000000000005,167.21121076233175Z" style="stroke: rgb(68, 68, 68); stroke-opacity: 1; fill: rgb(239, 85, 59); fill-opacity: 0.6; stroke-width: 0; opacity: 1;"/><path class="sankey-link" d="M383.70000000000005,167.21121076233177C564.3000000000001,167.21121076233177 564.3000000000001,220.38878923766808 744.9000000000001,220.38878923766808L744.9000000000001,222.74304932735416C564.3000000000001,222.74304932735416 564.3000000000001,169.56547085201785 383.70000000000005,169.56547085201785Z" style="stroke: rgb(68, 68, 68); stroke-opacity: 1; fill: rgb(239, 85, 59); fill-opacity: 0.6; stroke-width: 0; opacity: 1;"/><path class="sankey-link" d="M383.70000000000005,169.56547085201788C564.3000000000001,169.56547085201788 564.3000000000001,251.8807174887893 744.9000000000001,251.8807174887893L744.9000000000001,257.3739910313902C564.3000000000001,257.3739910313902 564.3000000000001,175.05874439461877 383.70000000000005,175.05874439461877Z" style="stroke: rgb(68, 68, 68); stroke-opacity: 1; fill: rgb(239, 85, 59); fill-opacity: 0.6; stroke-width: 0; opacity: 1;"/><path class="sankey-link" d="M383.70000000000005,175.05874439461877C564.3000000000001,175.05874439461877 564.3000000000001,304.8748878923767 744.9000000000001,304.8748878923767L744.9000000000001,310.36816143497765C564.3000000000001,310.36816143497765 564.3000000000001,180.55201793721966 383.70000000000005,180.55201793721966Z" style="stroke: rgb(68, 68, 68); stroke-opacity: 1; fill: rgb(239, 85, 59); fill-opacity: 0.6; stroke-width: 0; opacity: 1;"/><path class="sankey-link" d="M383.70000000000005,180.55201793721966C564.3000000000001,180.55201793721966 564.3000000000001,341.8914798206278 744.9000000000001,341.8914798206278L744.9000000000001,342.6762331838565C564.3000000000001,342.6762331838565 564.3000000000001,181.33677130044833 383.70000000000005,181.33677130044833Z" style="stroke: rgb(239, 85, 59); stroke-opacity: 0.6; fill: rgb(239, 85, 59); fill-opacity: 0.6; stroke-width: 1; opacity: 1;"/><path class="sankey-link" d="M383.70000000000005,181.33677130044836C564.3000000000001,181.33677130044836 564.3000000000001,367.1210762331838 744.9000000000001,367.1210762331838L744.9000000000001,369.47533632286996C564.3000000000001,369.47533632286996 564.3000000000001,183.69103139013444 383.70000000000005,183.69103139013444Z" style="stroke: rgb(68, 68, 68); stroke-opacity: 1; fill: rgb(239, 85, 59); fill-opacity: 0.6; stroke-width: 0; opacity: 1;"/><path class="sankey-link" d="M383.70000000000005,183.69103139013447C564.3000000000001,183.69103139013447 564.3000000000001,416.39551569506716 744.9000000000001,416.39551569506716L744.9000000000001,421.8887892376681C564.3000000000001,421.8887892376681 564.3000000000001,189.18430493273536 383.70000000000005,189.18430493273536Z" style="stroke: rgb(68, 68, 68); stroke-opacity: 1; fill: rgb(239, 85, 59); fill-opacity: 0.6; stroke-width: 0; opacity: 1;"/><path class="sankey-link" d="M383.70000000000005,189.18430493273536C564.3000000000001,189.18430493273536 564.3000000000001,463.92780269058284 744.9000000000001,463.92780269058284L744.9000000000001,471.7753363228698C564.3000000000001,471.7753363228698 564.3000000000001,197.03183856502233 383.70000000000005,197.03183856502233Z" style="stroke: rgb(68, 68, 68); stroke-opacity: 1; fill: rgb(239, 85, 59); fill-opacity: 0.6; stroke-width: 0; opacity: 1;"/><path class="sankey-link" d="M383.70000000000005,197.03183856502235C564.3000000000001,197.03183856502235 564.3000000000001,532.083408071749 744.9000000000001,532.083408071749L744.9000000000001,551.7022421524665C564.3000000000001,551.7022421524665 564.3000000000001,216.65067264573983 383.70000000000005,216.65067264573983Z" style="stroke: rgb(68, 68, 68); stroke-opacity: 1; fill: rgb(239, 85, 59); fill-opacity: 0.6; stroke-width: 0; opacity: 1;"/><path class="sankey-link" d="M383.70000000000005,216.65067264573986C564.3000000000001,216.65067264573986 564.3000000000001,658.8443946188341 744.9000000000001,658.8443946188341L744.9000000000001,665.9071748878924C564.3000000000001,665.9071748878924 564.3000000000001,223.71345291479815 383.70000000000005,223.71345291479815Z" style="stroke: rgb(68, 68, 68); stroke-opacity: 1; fill: rgb(239, 85, 59); fill-opacity: 0.6; stroke-width: 0; opacity: 1;"/><path class="sankey-link" d="M383.70000000000005,241.5600896860987C564.3000000000001,241.5600896860987 564.3000000000001,18.606278026905837 744.9000000000001,18.606278026905837L744.9000000000001,20.175784753363235C564.3000000000001,20.175784753363235 564.3000000000001,243.1295964125561 383.70000000000005,243.1295964125561Z" style="stroke: rgb(68, 68, 68); stroke-opacity: 1; fill: rgb(254, 203, 82); fill-opacity: 0.6; stroke-width: 0; opacity: 1;"/><path class="sankey-link" d="M383.70000000000005,243.1295964125561C564.3000000000001,243.1295964125561 564.3000000000001,56.5017937219731 744.9000000000001,56.5017937219731L744.9000000000001,59.6408071748879C564.3000000000001,59.6408071748879 564.3000000000001,246.26860986547092 383.70000000000005,246.26860986547092Z" style="stroke: rgb(68, 68, 68); stroke-opacity: 1; fill: rgb(254, 203, 82); fill-opacity: 0.6; stroke-width: 0; opacity: 1;"/><path class="sankey-link" d="M383.70000000000005,246.26860986547092C564.3000000000001,246.26860986547092 564.3000000000001,106.27040358744406 744.9000000000001,106.27040358744406L744.9000000000001,108.62466367713017C564.3000000000001,108.62466367713017 564.3000000000001,248.622869955157 383.70000000000005,248.622869955157Z" style="stroke: rgb(68, 68, 68); stroke-opacity: 1; fill: rgb(254, 203, 82); fill-opacity: 0.6; stroke-width: 0; opacity: 1;"/><path class="sankey-link" d="M383.70000000000005,248.62286995515703C564.3000000000001,248.62286995515703 564.3000000000001,342.6762331838565 744.9000000000001,342.6762331838565L744.9000000000001,344.24573991031383C564.3000000000001,344.24573991031383 564.3000000000001,250.19237668161443 383.70000000000005,250.19237668161443Z" style="stroke: rgb(68, 68, 68); stroke-opacity: 1; fill: rgb(254, 203, 82); fill-opacity: 0.6; stroke-width: 0; opacity: 1;"/><path class="sankey-link" d="M383.70000000000005,250.19237668161443C564.3000000000001,250.19237668161443 564.3000000000001,369.4753363228699 744.9000000000001,369.4753363228699L744.9000000000001,372.6143497757847C564.3000000000001,372.6143497757847 564.3000000000001,253.33139013452924 383.70000000000005,253.33139013452924Z" style="stroke: rgb(68, 68, 68); stroke-opacity: 1; fill: rgb(254, 203, 82); fill-opacity: 0.6; stroke-width: 0; opacity: 1;"/><path class="sankey-link" d="M383.70000000000005,253.33139013452924C564.3000000000001,253.33139013452924 564.3000000000001,421.88878923766805 744.9000000000001,421.88878923766805L744.9000000000001,424.2430493273542C564.3000000000001,424.2430493273542 564.3000000000001,255.68565022421532 383.70000000000005,255.68565022421532Z" style="stroke: rgb(68, 68, 68); stroke-opacity: 1; fill: rgb(254, 203, 82); fill-opacity: 0.6; stroke-width: 0; opacity: 1;"/><path class="sankey-link" d="M383.70000000000005,255.68565022421535C564.3000000000001,255.68565022421535 564.3000000000001,551.7022421524665 744.9000000000001,551.7022421524665L744.9000000000001,559.5497757847535C564.3000000000001,559.5497757847535 564.3000000000001,263.5331838565023 383.70000000000005,263.5331838565023Z" style="stroke: rgb(68, 68, 68); stroke-opacity: 1; fill: rgb(254, 203, 82); fill-opacity: 0.6; stroke-width: 0; opacity: 1;"/><path class="sankey-link" d="M383.70000000000005,263.5331838565023C564.3000000000001,263.5331838565023 564.3000000000001,665.9071748878924 744.9000000000001,665.9071748878924L744.9000000000001,671.4004484304934C564.3000000000001,671.4004484304934 564.3000000000001,269.02645739910326 383.70000000000005,269.02645739910326Z" style="stroke: rgb(68, 68, 68); stroke-opacity: 1; fill: rgb(254, 203, 82); fill-opacity: 0.6; stroke-width: 0; opacity: 1;"/><path class="sankey-link" d="M383.70000000000005,285.69686098654734C564.3000000000001,285.69686098654734 564.3000000000001,20.175784753363235 744.9000000000001,20.175784753363235L744.9000000000001,24.099551569506733C564.3000000000001,24.099551569506733 564.3000000000001,289.6206278026908 383.70000000000005,289.6206278026908Z" style="stroke: rgb(68, 68, 68); stroke-opacity: 1; fill: rgb(255, 161, 90); fill-opacity: 0.6; stroke-width: 0; opacity: 1;"/><path class="sankey-link" d="M383.70000000000005,289.6206278026908C564.3000000000001,289.6206278026908 564.3000000000001,85.37264573991041 744.9000000000001,85.37264573991041L744.9000000000001,86.94215246636782C564.3000000000001,86.94215246636782 564.3000000000001,291.19013452914817 383.70000000000005,291.19013452914817Z" style="stroke: rgb(68, 68, 68); stroke-opacity: 1; fill: rgb(255, 161, 90); fill-opacity: 0.6; stroke-width: 0; opacity: 1;"/><path class="sankey-link" d="M383.70000000000005,291.1901345291482C564.3000000000001,291.1901345291482 564.3000000000001,161.24215246636768 744.9000000000001,161.24215246636768L744.9000000000001,167.5201793721973C564.3000000000001,167.5201793721973 564.3000000000001,297.46816143497784 383.70000000000005,297.46816143497784Z" style="stroke: rgb(68, 68, 68); stroke-opacity: 1; fill: rgb(255, 161, 90); fill-opacity: 0.6; stroke-width: 0; opacity: 1;"/><path class="sankey-link" d="M383.70000000000005,297.46816143497784C564.3000000000001,297.46816143497784 564.3000000000001,222.74304932735419 744.9000000000001,222.74304932735419L744.9000000000001,224.3125560538116C564.3000000000001,224.3125560538116 564.3000000000001,299.0376681614352 383.70000000000005,299.0376681614352Z" style="stroke: rgb(68, 68, 68); stroke-opacity: 1; fill: rgb(255, 161, 90); fill-opacity: 0.6; stroke-width: 0; opacity: 1;"/><path class="sankey-link" d="M383.70000000000005,299.03766816143525C564.3000000000001,299.03766816143525 564.3000000000001,257.3739910313902 744.9000000000001,257.3739910313902L744.9000000000001,259.7282511210763C564.3000000000001,259.7282511210763 564.3000000000001,301.3919282511214 383.70000000000005,301.3919282511214Z" style="stroke: rgb(68, 68, 68); stroke-opacity: 1; fill: rgb(255, 161, 90); fill-opacity: 0.6; stroke-width: 0; opacity: 1;"/><path class="sankey-link" d="M383.70000000000005,301.3919282511213C564.3000000000001,301.3919282511213 564.3000000000001,310.3681614349776 744.9000000000001,310.3681614349776L744.9000000000001,315.07668161434975C564.3000000000001,315.07668161434975 564.3000000000001,306.1004484304935 383.70000000000005,306.1004484304935Z" style="stroke: rgb(68, 68, 68); stroke-opacity: 1; fill: rgb(255, 161, 90); fill-opacity: 0.6; stroke-width: 0; opacity: 1;"/><path class="sankey-link" d="M383.70000000000005,306.10044843049354C564.3000000000001,306.10044843049354 564.3000000000001,344.2457399103139 744.9000000000001,344.2457399103139L744.9000000000001,345.03049327354256C564.3000000000001,345.03049327354256 564.3000000000001,306.8852017937222 383.70000000000005,306.8852017937222Z" style="stroke: rgb(255, 161, 90); stroke-opacity: 0.6; fill: rgb(255, 161, 90); fill-opacity: 0.6; stroke-width: 1; opacity: 1;"/><path class="sankey-link" d="M383.70000000000005,306.8852017937222C564.3000000000001,306.8852017937222 564.3000000000001,424.24304932735413 744.9000000000001,424.24304932735413L744.9000000000001,425.8125560538115C564.3000000000001,425.8125560538115 564.3000000000001,308.45470852017957 383.70000000000005,308.45470852017957Z" style="stroke: rgb(68, 68, 68); stroke-opacity: 1; fill: rgb(255, 161, 90); fill-opacity: 0.6; stroke-width: 0; opacity: 1;"/><path class="sankey-link" d="M383.70000000000005,308.4547085201796C564.3000000000001,308.4547085201796 564.3000000000001,471.77533632286986 744.9000000000001,471.77533632286986L744.9000000000001,476.483856502242C564.3000000000001,476.483856502242 564.3000000000001,313.1632286995518 383.70000000000005,313.1632286995518Z" style="stroke: rgb(68, 68, 68); stroke-opacity: 1; fill: rgb(255, 161, 90); fill-opacity: 0.6; stroke-width: 0; opacity: 1;"/><path class="sankey-link" d="M383.70000000000005,313.16322869955184C564.3000000000001,313.16322869955184 564.3000000000001,559.5497757847535 744.9000000000001,559.5497757847535L744.9000000000001,568.1820627802691C564.3000000000001,568.1820627802691 564.3000000000001,321.7955156950675 383.70000000000005,321.7955156950675Z" style="stroke: rgb(68, 68, 68); stroke-opacity: 1; fill: rgb(255, 161, 90); fill-opacity: 0.6; stroke-width: 0; opacity: 1;"/><path class="sankey-link" d="M383.70000000000005,321.79551569506754C564.3000000000001,321.79551569506754 564.3000000000001,671.4004484304934 744.9000000000001,671.4004484304934L744.9000000000001,672.9699551569507C564.3000000000001,672.9699551569507 564.3000000000001,323.3650224215249 383.70000000000005,323.3650224215249Z" style="stroke: rgb(68, 68, 68); stroke-opacity: 1; fill: rgb(255, 161, 90); fill-opacity: 0.6; stroke-width: 0; opacity: 1;"/><path class="sankey-link" d="M383.70000000000005,342.3878923766817C564.3000000000001,342.3878923766817 564.3000000000001,24.099551569506733 744.9000000000001,24.099551569506733L744.9000000000001,29.59282511210763C564.3000000000001,29.59282511210763 564.3000000000001,347.88116591928264 383.70000000000005,347.88116591928264Z" style="stroke: rgb(68, 68, 68); stroke-opacity: 1; fill: rgb(171, 99, 250); fill-opacity: 0.6; stroke-width: 0; opacity: 1;"/><path class="sankey-link" d="M383.70000000000005,347.8811659192826C564.3000000000001,347.8811659192826 564.3000000000001,59.6408071748879 744.9000000000001,59.6408071748879L744.9000000000001,60.4255605381166C564.3000000000001,60.4255605381166 564.3000000000001,348.66591928251125 383.70000000000005,348.66591928251125Z" style="stroke: rgb(171, 99, 250); stroke-opacity: 0.6; fill: rgb(171, 99, 250); fill-opacity: 0.6; stroke-width: 1; opacity: 1;"/><path class="sankey-link" d="M383.70000000000005,348.66591928251125C564.3000000000001,348.66591928251125 564.3000000000001,108.62466367713016 744.9000000000001,108.62466367713016L744.9000000000001,111.76367713004497C564.3000000000001,111.76367713004497 564.3000000000001,351.80493273542606 383.70000000000005,351.80493273542606Z" style="stroke: rgb(68, 68, 68); stroke-opacity: 1; fill: rgb(171, 99, 250); fill-opacity: 0.6; stroke-width: 0; opacity: 1;"/><path class="sankey-link" d="M383.70000000000005,351.80493273542606C564.3000000000001,351.80493273542606 564.3000000000001,167.52017937219728 744.9000000000001,167.52017937219728L744.9000000000001,183.99999999999994C564.3000000000001,183.99999999999994 564.3000000000001,368.2847533632288 383.70000000000005,368.2847533632288Z" style="stroke: rgb(68, 68, 68); stroke-opacity: 1; fill: rgb(171, 99, 250); fill-opacity: 0.6; stroke-width: 0; opacity: 1;"/><path class="sankey-link" d="M383.70000000000005,368.28475336322873C564.3000000000001,368.28475336322873 564.3000000000001,224.3125560538116 744.9000000000001,224.3125560538116L744.9000000000001,227.4515695067264C564.3000000000001,227.4515695067264 564.3000000000001,371.42376681614354 383.70000000000005,371.42376681614354Z" style="stroke: rgb(68, 68, 68); stroke-opacity: 1; fill: rgb(171, 99, 250); fill-opacity: 0.6; stroke-width: 0; opacity: 1;"/><path class="sankey-link" d="M383.70000000000005,371.42376681614354C564.3000000000001,371.42376681614354 564.3000000000001,259.72825112107626 744.9000000000001,259.72825112107626L744.9000000000001,265.2215246636772C564.3000000000001,265.2215246636772 564.3000000000001,376.9170403587445 383.70000000000005,376.9170403587445Z" style="stroke: rgb(68, 68, 68); stroke-opacity: 1; fill: rgb(171, 99, 250); fill-opacity: 0.6; stroke-width: 0; opacity: 1;"/><path class="sankey-link" d="M383.70000000000005,376.91704035874443C564.3000000000001,376.91704035874443 564.3000000000001,315.0766816143498 744.9000000000001,315.0766816143498L744.9000000000001,320.56995515695075C564.3000000000001,320.56995515695075 564.3000000000001,382.4103139013454 383.70000000000005,382.4103139013454Z" style="stroke: rgb(68, 68, 68); stroke-opacity: 1; fill: rgb(171, 99, 250); fill-opacity: 0.6; stroke-width: 0; opacity: 1;"/><path class="sankey-link" d="M383.70000000000005,382.4103139013453C564.3000000000001,382.4103139013453 564.3000000000001,345.03049327354256 744.9000000000001,345.03049327354256L744.9000000000001,348.95426008968604C564.3000000000001,348.95426008968604 564.3000000000001,386.3340807174888 383.70000000000005,386.3340807174888Z" style="stroke: rgb(68, 68, 68); stroke-opacity: 1; fill: rgb(171, 99, 250); fill-opacity: 0.6; stroke-width: 0; opacity: 1;"/><path class="sankey-link" d="M383.70000000000005,386.3340807174888C564.3000000000001,386.3340807174888 564.3000000000001,372.6143497757847 744.9000000000001,372.6143497757847L744.9000000000001,378.89237668161434C564.3000000000001,378.89237668161434 564.3000000000001,392.6121076233184 383.70000000000005,392.6121076233184Z" style="stroke: rgb(68, 68, 68); stroke-opacity: 1; fill: rgb(171, 99, 250); fill-opacity: 0.6; stroke-width: 0; opacity: 1;"/><path class="sankey-link" d="M383.70000000000005,392.6121076233184C564.3000000000001,392.6121076233184 564.3000000000001,425.81255605381153 744.9000000000001,425.81255605381153L744.9000000000001,428.16681614349767C564.3000000000001,428.16681614349767 564.3000000000001,394.96636771300456 383.70000000000005,394.96636771300456Z" style="stroke: rgb(68, 68, 68); stroke-opacity: 1; fill: rgb(171, 99, 250); fill-opacity: 0.6; stroke-width: 0; opacity: 1;"/><path class="sankey-link" d="M383.70000000000005,394.9663677130045C564.3000000000001,394.9663677130045 564.3000000000001,476.4838565022421 744.9000000000001,476.4838565022421L744.9000000000001,485.9008968609865C564.3000000000001,485.9008968609865 564.3000000000001,404.38340807174893 383.70000000000005,404.38340807174893Z" style="stroke: rgb(68, 68, 68); stroke-opacity: 1; fill: rgb(171, 99, 250); fill-opacity: 0.6; stroke-width: 0; opacity: 1;"/><path class="sankey-link" d="M383.70000000000005,404.3834080717489C564.3000000000001,404.3834080717489 564.3000000000001,568.1820627802691 744.9000000000001,568.1820627802691L744.9000000000001,592.5094170403587C564.3000000000001,592.5094170403587 564.3000000000001,428.71076233183857 383.70000000000005,428.71076233183857Z" style="stroke: rgb(68, 68, 68); stroke-opacity: 1; fill: rgb(171, 99, 250); fill-opacity: 0.6; stroke-width: 0; opacity: 1;"/><path class="sankey-link" d="M383.70000000000005,428.71076233183857C564.3000000000001,428.71076233183857 564.3000000000001,672.9699551569507 744.9000000000001,672.9699551569507L744.9000000000001,681.6022421524664C564.3000000000001,681.6022421524664 564.3000000000001,437.3430493273542 383.70000000000005,437.3430493273542Z" style="stroke: rgb(68, 68, 68); stroke-opacity: 1; fill: rgb(171, 99, 250); fill-opacity: 0.6; stroke-width: 0; opacity: 1;"/><path class="sankey-link" d="M383.70000000000005,459.5663677130045C564.3000000000001,459.5663677130045 564.3000000000001,29.592825112107633 744.9000000000001,29.592825112107633L744.9000000000001,36.65560538116593C564.3000000000001,36.65560538116593 564.3000000000001,466.6291479820628 383.70000000000005,466.6291479820628Z" style="stroke: rgb(68, 68, 68); stroke-opacity: 1; fill: rgb(99, 110, 250); fill-opacity: 0.6; stroke-width: 0; opacity: 1;"/><path class="sankey-link" d="M383.70000000000005,466.6291479820628C564.3000000000001,466.6291479820628 564.3000000000001,60.4255605381166 744.9000000000001,60.4255605381166L744.9000000000001,68.2730941704036C564.3000000000001,68.2730941704036 564.3000000000001,474.4766816143498 383.70000000000005,474.4766816143498Z" style="stroke: rgb(68, 68, 68); stroke-opacity: 1; fill: rgb(99, 110, 250); fill-opacity: 0.6; stroke-width: 0; opacity: 1;"/><path class="sankey-link" d="M383.70000000000005,474.4766816143498C564.3000000000001,474.4766816143498 564.3000000000001,111.76367713004495 744.9000000000001,111.76367713004495L744.9000000000001,121.18071748878936C564.3000000000001,121.18071748878936 564.3000000000001,483.8937219730942 383.70000000000005,483.8937219730942Z" style="stroke: rgb(68, 68, 68); stroke-opacity: 1; fill: rgb(99, 110, 250); fill-opacity: 0.6; stroke-width: 0; opacity: 1;"/><path class="sankey-link" d="M383.70000000000005,483.89372197309416C564.3000000000001,483.89372197309416 564.3000000000001,183.99999999999997 744.9000000000001,183.99999999999997L744.9000000000001,193.41704035874434C564.3000000000001,193.41704035874434 564.3000000000001,493.3107623318386 383.70000000000005,493.3107623318386Z" style="stroke: rgb(68, 68, 68); stroke-opacity: 1; fill: rgb(99, 110, 250); fill-opacity: 0.6; stroke-width: 0; opacity: 1;"/><path class="sankey-link" d="M383.70000000000005,493.31076233183853C564.3000000000001,493.31076233183853 564.3000000000001,265.22152466367714 744.9000000000001,265.22152466367714L744.9000000000001,276.2080717488789C564.3000000000001,276.2080717488789 564.3000000000001,504.2973094170403 383.70000000000005,504.2973094170403Z" style="stroke: rgb(68, 68, 68); stroke-opacity: 1; fill: rgb(99, 110, 250); fill-opacity: 0.6; stroke-width: 0; opacity: 1;"/><path class="sankey-link" d="M383.70000000000005,504.2973094170403C564.3000000000001,504.2973094170403 564.3000000000001,320.5699551569507 744.9000000000001,320.5699551569507L744.9000000000001,324.4937219730942C564.3000000000001,324.4937219730942 564.3000000000001,508.2210762331838 383.70000000000005,508.2210762331838Z" style="stroke: rgb(68, 68, 68); stroke-opacity: 1; fill: rgb(99, 110, 250); fill-opacity: 0.6; stroke-width: 0; opacity: 1;"/><path class="sankey-link" d="M383.70000000000005,508.2210762331838C564.3000000000001,508.2210762331838 564.3000000000001,348.95426008968604 744.9000000000001,348.95426008968604L744.9000000000001,352.09327354260085C564.3000000000001,352.09327354260085 564.3000000000001,511.3600896860986 383.70000000000005,511.3600896860986Z" style="stroke: rgb(68, 68, 68); stroke-opacity: 1; fill: rgb(99, 110, 250); fill-opacity: 0.6; stroke-width: 0; opacity: 1;"/><path class="sankey-link" d="M383.70000000000005,511.3600896860986C564.3000000000001,511.3600896860986 564.3000000000001,378.89237668161434 744.9000000000001,378.89237668161434L744.9000000000001,393.8026905829596C564.3000000000001,393.8026905829596 564.3000000000001,526.2704035874439 383.70000000000005,526.2704035874439Z" style="stroke: rgb(68, 68, 68); stroke-opacity: 1; fill: rgb(99, 110, 250); fill-opacity: 0.6; stroke-width: 0; opacity: 1;"/><path class="sankey-link" d="M383.70000000000005,526.2704035874439C564.3000000000001,526.2704035874439 564.3000000000001,428.1668161434976 744.9000000000001,428.1668161434976L744.9000000000001,436.79910313901325C564.3000000000001,436.79910313901325 564.3000000000001,534.9026905829595 383.70000000000005,534.9026905829595Z" style="stroke: rgb(68, 68, 68); stroke-opacity: 1; fill: rgb(99, 110, 250); fill-opacity: 0.6; stroke-width: 0; opacity: 1;"/><path class="sankey-link" d="M383.70000000000005,534.9026905829595C564.3000000000001,534.9026905829595 564.3000000000001,485.90089686098645 744.9000000000001,485.90089686098645L744.9000000000001,489.82466367712993C564.3000000000001,489.82466367712993 564.3000000000001,538.8264573991031 383.70000000000005,538.8264573991031Z" style="stroke: rgb(68, 68, 68); stroke-opacity: 1; fill: rgb(99, 110, 250); fill-opacity: 0.6; stroke-width: 0; opacity: 1;"/><path class="sankey-link" d="M383.70000000000005,538.826457399103C564.3000000000001,538.826457399103 564.3000000000001,592.5094170403588 744.9000000000001,592.5094170403588L744.9000000000001,625.4690582959643C564.3000000000001,625.4690582959643 564.3000000000001,571.7860986547084 383.70000000000005,571.7860986547084Z" style="stroke: rgb(68, 68, 68); stroke-opacity: 1; fill: rgb(99, 110, 250); fill-opacity: 0.6; stroke-width: 0; opacity: 1;"/><path class="sankey-link" d="M383.70000000000005,571.7860986547083C564.3000000000001,571.7860986547083 564.3000000000001,681.6022421524664 744.9000000000001,681.6022421524664L744.9000000000001,698.8668161434977C564.3000000000001,698.8668161434977 564.3000000000001,589.0506726457396 383.70000000000005,589.0506726457396Z" style="stroke: rgb(68, 68, 68); stroke-opacity: 1; fill: rgb(99, 110, 250); fill-opacity: 0.6; stroke-width: 0; opacity: 1;"/><path class="sankey-link" d="M383.70000000000005,609.1677130044843C564.3000000000001,609.1677130044843 564.3000000000001,68.2730941704036 744.9000000000001,68.2730941704036L744.9000000000001,69.0578475336323C564.3000000000001,69.0578475336323 564.3000000000001,609.952466367713 383.70000000000005,609.952466367713Z" style="stroke: rgb(255, 151, 255); stroke-opacity: 0.6; fill: rgb(255, 151, 255); fill-opacity: 0.6; stroke-width: 1; opacity: 1;"/><path class="sankey-link" d="M383.70000000000005,609.952466367713C564.3000000000001,609.952466367713 564.3000000000001,121.18071748878936 744.9000000000001,121.18071748878936L744.9000000000001,122.75022421524676C564.3000000000001,122.75022421524676 564.3000000000001,611.5219730941703 383.70000000000005,611.5219730941703Z" style="stroke: rgb(68, 68, 68); stroke-opacity: 1; fill: rgb(255, 151, 255); fill-opacity: 0.6; stroke-width: 0; opacity: 1;"/><path class="sankey-link" d="M383.70000000000005,611.5219730941703C564.3000000000001,611.5219730941703 564.3000000000001,193.41704035874437 744.9000000000001,193.41704035874437L744.9000000000001,198.91031390134526C564.3000000000001,198.91031390134526 564.3000000000001,617.0152466367713 383.70000000000005,617.0152466367713Z" style="stroke: rgb(68, 68, 68); stroke-opacity: 1; fill: rgb(255, 151, 255); fill-opacity: 0.6; stroke-width: 0; opacity: 1;"/><path class="sankey-link" d="M383.70000000000005,617.0152466367713C564.3000000000001,617.0152466367713 564.3000000000001,227.4515695067264 744.9000000000001,227.4515695067264L744.9000000000001,228.23632286995507C564.3000000000001,228.23632286995507 564.3000000000001,617.8 383.70000000000005,617.8Z" style="stroke: rgb(255, 151, 255); stroke-opacity: 0.6; fill: rgb(255, 151, 255); fill-opacity: 0.6; stroke-width: 1; opacity: 1;"/><path class="sankey-link" d="M383.70000000000005,617.8C564.3000000000001,617.8 564.3000000000001,276.2080717488789 744.9000000000001,276.2080717488789L744.9000000000001,277.77757847533627C564.3000000000001,277.77757847533627 564.3000000000001,619.3695067264573 383.70000000000005,619.3695067264573Z" style="stroke: rgb(68, 68, 68); stroke-opacity: 1; fill: rgb(255, 151, 255); fill-opacity: 0.6; stroke-width: 0; opacity: 1;"/><path class="sankey-link" d="M383.70000000000005,619.3695067264573C564.3000000000001,619.3695067264573 564.3000000000001,393.80269058295966 744.9000000000001,393.80269058295966L744.9000000000001,399.2959641255606C564.3000000000001,399.2959641255606 564.3000000000001,624.8627802690582 383.70000000000005,624.8627802690582Z" style="stroke: rgb(68, 68, 68); stroke-opacity: 1; fill: rgb(255, 151, 255); fill-opacity: 0.6; stroke-width: 0; opacity: 1;"/><path class="sankey-link" d="M383.70000000000005,624.8627802690582C564.3000000000001,624.8627802690582 564.3000000000001,436.7991031390133 744.9000000000001,436.7991031390133L744.9000000000001,439.15336322869945C564.3000000000001,439.15336322869945 564.3000000000001,627.2170403587443 383.70000000000005,627.2170403587443Z" style="stroke: rgb(68, 68, 68); stroke-opacity: 1; fill: rgb(255, 151, 255); fill-opacity: 0.6; stroke-width: 0; opacity: 1;"/><path class="sankey-link" d="M383.70000000000005,627.2170403587444C564.3000000000001,627.2170403587444 564.3000000000001,489.82466367712993 744.9000000000001,489.82466367712993L744.9000000000001,492.96367713004474C564.3000000000001,492.96367713004474 564.3000000000001,630.3560538116591 383.70000000000005,630.3560538116591Z" style="stroke: rgb(68, 68, 68); stroke-opacity: 1; fill: rgb(255, 151, 255); fill-opacity: 0.6; stroke-width: 0; opacity: 1;"/><path class="sankey-link" d="M383.70000000000005,630.3560538116592C564.3000000000001,630.3560538116592 564.3000000000001,625.4690582959641 744.9000000000001,625.4690582959641L744.9000000000001,632.5318385650224C564.3000000000001,632.5318385650224 564.3000000000001,637.4188340807175 383.70000000000005,637.4188340807175Z" style="stroke: rgb(68, 68, 68); stroke-opacity: 1; fill: rgb(255, 151, 255); fill-opacity: 0.6; stroke-width: 0; opacity: 1;"/><path class="sankey-link" d="M383.70000000000005,637.4188340807175C564.3000000000001,637.4188340807175 564.3000000000001,698.8668161434978 744.9000000000001,698.8668161434978L744.9000000000001,705.1448430493274C564.3000000000001,705.1448430493274 564.3000000000001,643.6968609865471 383.70000000000005,643.6968609865471Z" style="stroke: rgb(68, 68, 68); stroke-opacity: 1; fill: rgb(255, 151, 255); fill-opacity: 0.6; stroke-width: 0; opacity: 1;"/><path class="sankey-link" d="M383.70000000000005,660.0937219730943C564.3000000000001,660.0937219730943 564.3000000000001,36.65560538116593 744.9000000000001,36.65560538116593L744.9000000000001,39.00986547085202C564.3000000000001,39.00986547085202 564.3000000000001,662.4479820627803 383.70000000000005,662.4479820627803Z" style="stroke: rgb(68, 68, 68); stroke-opacity: 1; fill: rgb(182, 232, 128); fill-opacity: 0.6; stroke-width: 0; opacity: 1;"/><path class="sankey-link" d="M383.70000000000005,662.4479820627804C564.3000000000001,662.4479820627804 564.3000000000001,86.94215246636782 744.9000000000001,86.94215246636782L744.9000000000001,87.72690582959652C564.3000000000001,87.72690582959652 564.3000000000001,663.2327354260091 383.70000000000005,663.2327354260091Z" style="stroke: rgb(182, 232, 128); stroke-opacity: 0.6; fill: rgb(182, 232, 128); fill-opacity: 0.6; stroke-width: 1; opacity: 1;"/><path class="sankey-link" d="M383.70000000000005,663.2327354260091C564.3000000000001,663.2327354260091 564.3000000000001,122.75022421524676 744.9000000000001,122.75022421524676L744.9000000000001,124.31973094170417C564.3000000000001,124.31973094170417 564.3000000000001,664.8022421524664 383.70000000000005,664.8022421524664Z" style="stroke: rgb(68, 68, 68); stroke-opacity: 1; fill: rgb(182, 232, 128); fill-opacity: 0.6; stroke-width: 0; opacity: 1;"/><path class="sankey-link" d="M383.70000000000005,664.8022421524664C564.3000000000001,664.8022421524664 564.3000000000001,198.91031390134526 744.9000000000001,198.91031390134526L744.9000000000001,204.40358744394615C564.3000000000001,204.40358744394615 564.3000000000001,670.2955156950674 383.70000000000005,670.2955156950674Z" style="stroke: rgb(68, 68, 68); stroke-opacity: 1; fill: rgb(182, 232, 128); fill-opacity: 0.6; stroke-width: 0; opacity: 1;"/><path class="sankey-link" d="M383.70000000000005,670.2955156950674C564.3000000000001,670.2955156950674 564.3000000000001,277.7775784753363 744.9000000000001,277.7775784753363L744.9000000000001,278.562331838565C564.3000000000001,278.562331838565 564.3000000000001,671.080269058296 383.70000000000005,671.080269058296Z" style="stroke: rgb(182, 232, 128); stroke-opacity: 0.6; fill: rgb(182, 232, 128); fill-opacity: 0.6; stroke-width: 1; opacity: 1;"/><path class="sankey-link" d="M383.70000000000005,671.080269058296C564.3000000000001,671.080269058296 564.3000000000001,324.4937219730942 744.9000000000001,324.4937219730942L744.9000000000001,325.27847533632286C564.3000000000001,325.27847533632286 564.3000000000001,671.8650224215247 383.70000000000005,671.8650224215247Z" style="stroke: rgb(182, 232, 128); stroke-opacity: 0.6; fill: rgb(182, 232, 128); fill-opacity: 0.6; stroke-width: 1; opacity: 1;"/><path class="sankey-link" d="M383.70000000000005,671.8650224215247C564.3000000000001,671.8650224215247 564.3000000000001,399.29596412556054 744.9000000000001,399.29596412556054L744.9000000000001,400.0807174887892C564.3000000000001,400.0807174887892 564.3000000000001,672.6497757847534 383.70000000000005,672.6497757847534Z" style="stroke: rgb(182, 232, 128); stroke-opacity: 0.6; fill: rgb(182, 232, 128); fill-opacity: 0.6; stroke-width: 1; opacity: 1;"/><path class="sankey-link" d="M383.70000000000005,672.6497757847534C564.3000000000001,672.6497757847534 564.3000000000001,492.96367713004474 744.9000000000001,492.96367713004474L744.9000000000001,495.3179372197309C564.3000000000001,495.3179372197309 564.3000000000001,675.0040358744394 383.70000000000005,675.0040358744394Z" style="stroke: rgb(68, 68, 68); stroke-opacity: 1; fill: rgb(182, 232, 128); fill-opacity: 0.6; stroke-width: 0; opacity: 1;"/><path class="sankey-link" d="M383.70000000000005,675.0040358744395C564.3000000000001,675.0040358744395 564.3000000000001,632.5318385650224 744.9000000000001,632.5318385650224L744.9000000000001,638.8098654708521C564.3000000000001,638.8098654708521 564.3000000000001,681.2820627802691 383.70000000000005,681.2820627802691Z" style="stroke: rgb(68, 68, 68); stroke-opacity: 1; fill: rgb(182, 232, 128); fill-opacity: 0.6; stroke-width: 0; opacity: 1;"/><path class="sankey-link" d="M383.70000000000005,681.2820627802691C564.3000000000001,681.2820627802691 564.3000000000001,705.1448430493274 744.9000000000001,705.1448430493274L744.9000000000001,706.7143497757847C564.3000000000001,706.7143497757847 564.3000000000001,682.8515695067265 383.70000000000005,682.8515695067265Z" style="stroke: rgb(68, 68, 68); stroke-opacity: 1; fill: rgb(182, 232, 128); fill-opacity: 0.6; stroke-width: 0; opacity: 1;"/><path class="sankey-link" d="M383.70000000000005,698.2910313901344C564.3000000000001,698.2910313901344 564.3000000000001,87.72690582959652 744.9000000000001,87.72690582959652L744.9000000000001,88.51165919282522C564.3000000000001,88.51165919282522 564.3000000000001,699.0757847533631 383.70000000000005,699.0757847533631Z" style="stroke: rgb(255, 102, 146); stroke-opacity: 0.6; fill: rgb(255, 102, 146); fill-opacity: 0.6; stroke-width: 1; opacity: 1;"/><path class="sankey-link" d="M383.70000000000005,699.0757847533631C564.3000000000001,699.0757847533631 564.3000000000001,124.31973094170417 744.9000000000001,124.31973094170417L744.9000000000001,125.10448430493287C564.3000000000001,125.10448430493287 564.3000000000001,699.8605381165918 383.70000000000005,699.8605381165918Z" style="stroke: rgb(255, 102, 146); stroke-opacity: 0.6; fill: rgb(255, 102, 146); fill-opacity: 0.6; stroke-width: 1; opacity: 1;"/><path class="sankey-link" d="M383.70000000000005,699.8605381165918C564.3000000000001,699.8605381165918 564.3000000000001,204.40358744394615 744.9000000000001,204.40358744394615L744.9000000000001,205.18834080717482C564.3000000000001,205.18834080717482 564.3000000000001,700.6452914798205 383.70000000000005,700.6452914798205Z" style="stroke: rgb(255, 102, 146); stroke-opacity: 0.6; fill: rgb(255, 102, 146); fill-opacity: 0.6; stroke-width: 1; opacity: 1;"/><path class="sankey-link" d="M383.70000000000005,700.6452914798205C564.3000000000001,700.6452914798205 564.3000000000001,278.562331838565 744.9000000000001,278.562331838565L744.9000000000001,279.3470852017937C564.3000000000001,279.3470852017937 564.3000000000001,701.4300448430491 383.70000000000005,701.4300448430491Z" style="stroke: rgb(255, 102, 146); stroke-opacity: 0.6; fill: rgb(255, 102, 146); fill-opacity: 0.6; stroke-width: 1; opacity: 1;"/><path class="sankey-link" d="M383.70000000000005,701.4300448430491C564.3000000000001,701.4300448430491 564.3000000000001,325.27847533632286 744.9000000000001,325.27847533632286L744.9000000000001,326.06322869955153C564.3000000000001,326.06322869955153 564.3000000000001,702.2147982062778 383.70000000000005,702.2147982062778Z" style="stroke: rgb(255, 102, 146); stroke-opacity: 0.6; fill: rgb(255, 102, 146); fill-opacity: 0.6; stroke-width: 1; opacity: 1;"/><path class="sankey-link" d="M383.70000000000005,702.2147982062778C564.3000000000001,702.2147982062778 564.3000000000001,439.1533632286994 744.9000000000001,439.1533632286994L744.9000000000001,439.93811659192806C564.3000000000001,439.93811659192806 564.3000000000001,702.9995515695065 383.70000000000005,702.9995515695065Z" style="stroke: rgb(255, 102, 146); stroke-opacity: 0.6; fill: rgb(255, 102, 146); fill-opacity: 0.6; stroke-width: 1; opacity: 1;"/><path class="sankey-link" d="M383.70000000000005,702.9995515695065C564.3000000000001,702.9995515695065 564.3000000000001,495.3179372197308 744.9000000000001,495.3179372197308L744.9000000000001,496.1026905829595C564.3000000000001,496.1026905829595 564.3000000000001,703.7843049327352 383.70000000000005,703.7843049327352Z" style="stroke: rgb(255, 102, 146); stroke-opacity: 0.6; fill: rgb(255, 102, 146); fill-opacity: 0.6; stroke-width: 1; opacity: 1;"/><path class="sankey-link" d="M383.70000000000005,703.7843049327352C564.3000000000001,703.7843049327352 564.3000000000001,638.8098654708521 744.9000000000001,638.8098654708521L744.9000000000001,640.3793721973094C564.3000000000001,640.3793721973094 564.3000000000001,705.3538116591925 383.70000000000005,705.3538116591925Z" style="stroke: rgb(68, 68, 68); stroke-opacity: 1; fill: rgb(255, 102, 146); fill-opacity: 0.6; stroke-width: 0; opacity: 1;"/></g><g class="sankey-node-set" style="cursor: ns-resize;"><g class="sankey-node" transform="translate(744.900,13.898)" style="opacity: 1;"><rect class="node-rect" width="15" height="25.112107623318366" style="stroke-width: 0.5; stroke: rgb(0, 0, 0); stroke-opacity: 1; fill: rgb(128, 128, 128); fill-opacity: 1;"/><text class="node-label" data-notex="1" x="0" y="0" text-anchor="end" transform="translate(-3.25,16.756053811659182)" style="cursor: default; font-family: 'Open Sans', verdana, arial, sans-serif; font-size: 12px; fill: rgb(42, 63, 95); fill-opacity: 1; white-space: pre; text-shadow: white 1px 1px 1px, white -1px -1px 1px, white 1px -1px 1px, white -1px 1px 1px;">AggressiveChase</text></g><g class="sankey-node" transform="translate(744.900,52.578)" style="opacity: 1;"><rect class="node-rect" width="15" height="16.479820627802667" style="stroke-width: 0.5; stroke: rgb(0, 0, 0); stroke-opacity: 1; fill: rgb(128, 128, 128); fill-opacity: 1;"/><text class="node-label" data-notex="1" x="0" y="0" text-anchor="end" transform="translate(-3.25,12.439910313901333)" style="cursor: default; font-family: 'Open Sans', verdana, arial, sans-serif; font-size: 12px; fill: rgb(42, 63, 95); fill-opacity: 1; white-space: pre; text-shadow: white 1px 1px 1px, white -1px -1px 1px, white 1px -1px 1px, white -1px 1px 1px;">BeingAttacked</text></g><g class="sankey-node" transform="translate(744.900,83.018)" style="opacity: 1;"><rect class="node-rect" width="15" height="5.493273542600718" style="stroke-width: 0.5; stroke: rgb(0, 0, 0); stroke-opacity: 1; fill: rgb(128, 128, 128); fill-opacity: 1;"/><text class="node-label" data-notex="1" x="0" y="0" text-anchor="end" transform="translate(-3.25,6.9466367713003585)" style="cursor: default; font-family: 'Open Sans', verdana, arial, sans-serif; font-size: 12px; fill: rgb(42, 63, 95); fill-opacity: 1; white-space: pre; text-shadow: white 1px 1px 1px, white -1px -1px 1px, white 1px -1px 1px, white -1px 1px 1px;">Groupsniff</text></g><g class="sankey-node" transform="translate(744.900,102.347)" style="opacity: 1;"><rect class="node-rect" width="15" height="22.757847533632003" style="stroke-width: 0.5; stroke: rgb(0, 0, 0); stroke-opacity: 1; fill: rgb(128, 128, 128); fill-opacity: 1;"/><text class="node-label" data-notex="1" x="0" y="0" text-anchor="end" transform="translate(-3.25,15.578923766816)" style="cursor: default; font-family: 'Open Sans', verdana, arial, sans-serif; font-size: 12px; fill: rgb(42, 63, 95); fill-opacity: 1; white-space: pre; text-shadow: white 1px 1px 1px, white -1px -1px 1px, white 1px -1px 1px, white -1px 1px 1px;">SideAttack</text></g><g class="sankey-node" transform="translate(744.900,137.700)" style="opacity: 1;"><rect class="node-rect" width="15" height="67.48878923766813" style="stroke-width: 0.5; stroke: rgb(0, 0, 0); stroke-opacity: 1; fill: rgb(128, 128, 128); fill-opacity: 1;"/><text class="node-label" data-notex="1" x="0" y="0" text-anchor="end" transform="translate(-3.25,37.94439461883407)" style="cursor: default; font-family: 'Open Sans', verdana, arial, sans-serif; font-size: 12px; fill: rgb(42, 63, 95); fill-opacity: 1; white-space: pre; text-shadow: white 1px 1px 1px, white -1px -1px 1px, white 1px -1px 1px, white -1px 1px 1px;">SideSniff1</text></g><g class="sankey-node" transform="translate(744.900,218.035)" style="opacity: 1;"><rect class="node-rect" width="15" height="10.201793721973218" style="stroke-width: 0.5; stroke: rgb(0, 0, 0); stroke-opacity: 1; fill: rgb(128, 128, 128); fill-opacity: 1;"/><text class="node-label" data-notex="1" x="0" y="0" text-anchor="end" transform="translate(-3.25,9.300896860986608)" style="cursor: default; font-family: 'Open Sans', verdana, arial, sans-serif; font-size: 12px; fill: rgb(42, 63, 95); fill-opacity: 1; white-space: pre; text-shadow: white 1px 1px 1px, white -1px -1px 1px, white 1px -1px 1px, white -1px 1px 1px;">dig</text></g><g class="sankey-node" transform="translate(744.900,241.679)" style="opacity: 1;"><rect class="node-rect" width="15" height="37.66816143497749" style="stroke-width: 0.5; stroke: rgb(0, 0, 0); stroke-opacity: 1; fill: rgb(128, 128, 128); fill-opacity: 1;"/><text class="node-label" data-notex="1" x="0" y="0" text-anchor="end" transform="translate(-3.25,23.034080717488745)" style="cursor: default; font-family: 'Open Sans', verdana, arial, sans-serif; font-size: 12px; fill: rgb(42, 63, 95); fill-opacity: 1; white-space: pre; text-shadow: white 1px 1px 1px, white -1px -1px 1px, white 1px -1px 1px, white -1px 1px 1px;">follow1</text></g><g class="sankey-node" transform="translate(744.900,292.319)" style="opacity: 1;"><rect class="node-rect" width="15" height="33.74439461883412" style="stroke-width: 0.5; stroke: rgb(0, 0, 0); stroke-opacity: 1; fill: rgb(128, 128, 128); fill-opacity: 1;"/><text class="node-label" data-notex="1" x="0" y="0" text-anchor="end" transform="translate(-3.25,21.07219730941706)" style="cursor: default; font-family: 'Open Sans', verdana, arial, sans-serif; font-size: 12px; fill: rgb(42, 63, 95); fill-opacity: 1; white-space: pre; text-shadow: white 1px 1px 1px, white -1px -1px 1px, white 1px -1px 1px, white -1px 1px 1px;">groomfront</text></g><g class="sankey-node" transform="translate(744.900,339.537)" style="opacity: 1;"><rect class="node-rect" width="15" height="12.556053811659126" style="stroke-width: 0.5; stroke: rgb(0, 0, 0); stroke-opacity: 1; fill: rgb(128, 128, 128); fill-opacity: 1;"/><text class="node-label" data-notex="1" x="0" y="0" text-anchor="end" transform="translate(-3.25,10.478026905829562)" style="cursor: default; font-family: 'Open Sans', verdana, arial, sans-serif; font-size: 12px; fill: rgb(42, 63, 95); fill-opacity: 1; white-space: pre; text-shadow: white 1px 1px 1px, white -1px -1px 1px, white 1px -1px 1px, white -1px 1px 1px;">nose2nose1</text></g><g class="sankey-node" transform="translate(744.900,365.552)" style="opacity: 1;"><rect class="node-rect" width="15" height="34.529147982062796" style="stroke-width: 0.5; stroke: rgb(0, 0, 0); stroke-opacity: 1; fill: rgb(128, 128, 128); fill-opacity: 1;"/><text class="node-label" data-notex="1" x="0" y="0" text-anchor="end" transform="translate(-3.25,21.464573991031397)" style="cursor: default; font-family: 'Open Sans', verdana, arial, sans-serif; font-size: 12px; fill: rgb(42, 63, 95); fill-opacity: 1; white-space: pre; text-shadow: white 1px 1px 1px, white -1px -1px 1px, white 1px -1px 1px, white -1px 1px 1px;">nose2rear1</text></g><g class="sankey-node" transform="translate(744.900,413.257)" style="opacity: 1;"><rect class="node-rect" width="15" height="26.681614349776055" style="stroke-width: 0.5; stroke: rgb(0, 0, 0); stroke-opacity: 1; fill: rgb(128, 128, 128); fill-opacity: 1;"/><text class="node-label" data-notex="1" x="0" y="0" text-anchor="end" transform="translate(-3.25,17.540807174888027)" style="cursor: default; font-family: 'Open Sans', verdana, arial, sans-serif; font-size: 12px; fill: rgb(42, 63, 95); fill-opacity: 1; white-space: pre; text-shadow: white 1px 1px 1px, white -1px -1px 1px, white 1px -1px 1px, white -1px 1px 1px;">nosey1</text></g><g class="sankey-node" transform="translate(744.900,452.941)" style="opacity: 1;"><rect class="node-rect" width="15" height="43.161434977578665" style="stroke-width: 0.5; stroke: rgb(0, 0, 0); stroke-opacity: 1; fill: rgb(128, 128, 128); fill-opacity: 1;"/><text class="node-label" data-notex="1" x="0" y="0" text-anchor="end" transform="translate(-3.25,25.780717488789332)" style="cursor: default; font-family: 'Open Sans', verdana, arial, sans-serif; font-size: 12px; fill: rgb(42, 63, 95); fill-opacity: 1; white-space: pre; text-shadow: white 1px 1px 1px, white -1px -1px 1px, white 1px -1px 1px, white -1px 1px 1px;">sitcorner</text></g><g class="sankey-node" transform="translate(744.900,506.971)" style="opacity: 1;"><rect class="node-rect" width="15" height="133.40807174887868" style="stroke-width: 0.5; stroke: rgb(0, 0, 0); stroke-opacity: 1; fill: rgb(128, 128, 128); fill-opacity: 1;"/><text class="node-label" data-notex="1" x="0" y="0" text-anchor="end" transform="translate(-3.25,70.90403587443934)" style="cursor: default; font-family: 'Open Sans', verdana, arial, sans-serif; font-size: 12px; fill: rgb(42, 63, 95); fill-opacity: 1; white-space: pre; text-shadow: white 1px 1px 1px, white -1px -1px 1px, white 1px -1px 1px, white -1px 1px 1px;">walk</text></g><g class="sankey-node" transform="translate(744.900,650.997)" style="opacity: 1;"><rect class="node-rect" width="15" height="55.71748878923768" style="stroke-width: 0.5; stroke: rgb(0, 0, 0); stroke-opacity: 1; fill: rgb(128, 128, 128); fill-opacity: 1;"/><text class="node-label" data-notex="1" x="0" y="0" text-anchor="end" transform="translate(-3.25,32.05874439461884)" style="cursor: default; font-family: 'Open Sans', verdana, arial, sans-serif; font-size: 12px; fill: rgb(42, 63, 95); fill-opacity: 1; white-space: pre; text-shadow: white 1px 1px 1px, white -1px -1px 1px, white 1px -1px 1px, white -1px 1px 1px;">wallclimb</text></g><g class="sankey-node" transform="translate(368.700,15.412)" style="opacity: 1;"><rect class="node-rect" width="15" height="29.035874439461626" style="stroke-width: 0.5; stroke: rgb(0, 0, 0); stroke-opacity: 1; fill: rgb(25, 211, 243); fill-opacity: 1;"/><text class="node-label" data-notex="1" x="0" y="0" text-anchor="start" transform="translate(18.25,18.717937219730814)" style="cursor: default; font-family: 'Open Sans', verdana, arial, sans-serif; font-size: 12px; fill: rgb(42, 63, 95); fill-opacity: 1; white-space: pre; text-shadow: white 1px 1px 1px, white -1px -1px 1px, white 1px -1px 1px, white -1px 1px 1px;">BLA</text></g><g class="sankey-node" transform="translate(368.700,62.322)" style="opacity: 1;"><rect class="node-rect" width="15" height="70.62780269058294" style="stroke-width: 0.5; stroke: rgb(0, 0, 0); stroke-opacity: 1; fill: rgb(0, 204, 150); fill-opacity: 1;"/><text class="node-label" data-notex="1" x="0" y="0" text-anchor="start" transform="translate(18.25,39.51390134529147)" style="cursor: default; font-family: 'Open Sans', verdana, arial, sans-serif; font-size: 12px; fill: rgb(42, 63, 95); fill-opacity: 1; white-space: pre; text-shadow: white 1px 1px 1px, white -1px -1px 1px, white 1px -1px 1px, white -1px 1px 1px;">Cla</text></g><g class="sankey-node" transform="translate(368.700,152.301)" style="opacity: 1;"><rect class="node-rect" width="15" height="71.41255605381184" style="stroke-width: 0.5; stroke: rgb(0, 0, 0); stroke-opacity: 1; fill: rgb(239, 85, 59); fill-opacity: 1;"/><text class="node-label" data-notex="1" x="0" y="0" text-anchor="start" transform="translate(18.25,39.90627802690592)" style="cursor: default; font-family: 'Open Sans', verdana, arial, sans-serif; font-size: 12px; fill: rgb(42, 63, 95); fill-opacity: 1; white-space: pre; text-shadow: white 1px 1px 1px, white -1px -1px 1px, white 1px -1px 1px, white -1px 1px 1px;">LC</text></g><g class="sankey-node" transform="translate(368.700,241.560)" style="opacity: 1;"><rect class="node-rect" width="15" height="27.4663677130045" style="stroke-width: 0.5; stroke: rgb(0, 0, 0); stroke-opacity: 1; fill: rgb(254, 203, 82); fill-opacity: 1;"/><text class="node-label" data-notex="1" x="0" y="0" text-anchor="start" transform="translate(18.25,17.93318385650225)" style="cursor: default; font-family: 'Open Sans', verdana, arial, sans-serif; font-size: 12px; fill: rgb(42, 63, 95); fill-opacity: 1; white-space: pre; text-shadow: white 1px 1px 1px, white -1px -1px 1px, white 1px -1px 1px, white -1px 1px 1px;">LHyp</text></g><g class="sankey-node" transform="translate(368.700,285.697)" style="opacity: 1;"><rect class="node-rect" width="15" height="37.668161434977264" style="stroke-width: 0.5; stroke: rgb(0, 0, 0); stroke-opacity: 1; fill: rgb(255, 161, 90); fill-opacity: 1;"/><text class="node-label" data-notex="1" x="0" y="0" text-anchor="start" transform="translate(18.25,23.03408071748863)" style="cursor: default; font-family: 'Open Sans', verdana, arial, sans-serif; font-size: 12px; fill: rgb(42, 63, 95); fill-opacity: 1; white-space: pre; text-shadow: white 1px 1px 1px, white -1px -1px 1px, white 1px -1px 1px, white -1px 1px 1px;">NAc</text></g><g class="sankey-node" transform="translate(368.700,342.388)" style="opacity: 1;"><rect class="node-rect" width="15" height="94.95515695067263" style="stroke-width: 0.5; stroke: rgb(0, 0, 0); stroke-opacity: 1; fill: rgb(171, 99, 250); fill-opacity: 1;"/><text class="node-label" data-notex="1" x="0" y="0" text-anchor="start" transform="translate(18.25,51.67757847533632)" style="cursor: default; font-family: 'Open Sans', verdana, arial, sans-serif; font-size: 12px; fill: rgb(42, 63, 95); fill-opacity: 1; white-space: pre; text-shadow: white 1px 1px 1px, white -1px -1px 1px, white 1px -1px 1px, white -1px 1px 1px;">Str</text></g><g class="sankey-node" transform="translate(368.700,459.566)" style="opacity: 1;"><rect class="node-rect" width="15" height="129.4843049327353" style="stroke-width: 0.5; stroke: rgb(0, 0, 0); stroke-opacity: 1; fill: rgb(99, 110, 250); fill-opacity: 1;"/><text class="node-label" data-notex="1" x="0" y="0" text-anchor="start" transform="translate(18.25,68.94215246636766)" style="cursor: default; font-family: 'Open Sans', verdana, arial, sans-serif; font-size: 12px; fill: rgb(42, 63, 95); fill-opacity: 1; white-space: pre; text-shadow: white 1px 1px 1px, white -1px -1px 1px, white 1px -1px 1px, white -1px 1px 1px;">VTA</text></g><g class="sankey-node" transform="translate(368.700,609.168)" style="opacity: 1;"><rect class="node-rect" width="15" height="34.529147982062796" style="stroke-width: 0.5; stroke: rgb(0, 0, 0); stroke-opacity: 1; fill: rgb(255, 151, 255); fill-opacity: 1;"/><text class="node-label" data-notex="1" x="0" y="0" text-anchor="start" transform="translate(18.25,21.464573991031397)" style="cursor: default; font-family: 'Open Sans', verdana, arial, sans-serif; font-size: 12px; fill: rgb(42, 63, 95); fill-opacity: 1; white-space: pre; text-shadow: white 1px 1px 1px, white -1px -1px 1px, white 1px -1px 1px, white -1px 1px 1px;">cPFC</text></g><g class="sankey-node" transform="translate(368.700,660.094)" style="opacity: 1;"><rect class="node-rect" width="15" height="22.75784753363223" style="stroke-width: 0.5; stroke: rgb(0, 0, 0); stroke-opacity: 1; fill: rgb(182, 232, 128); fill-opacity: 1;"/><text class="node-label" data-notex="1" x="0" y="0" text-anchor="start" transform="translate(18.25,15.578923766816114)" style="cursor: default; font-family: 'Open Sans', verdana, arial, sans-serif; font-size: 12px; fill: rgb(42, 63, 95); fill-opacity: 1; white-space: pre; text-shadow: white 1px 1px 1px, white -1px -1px 1px, white 1px -1px 1px, white -1px 1px 1px;">dPAG</text></g><g class="sankey-node" transform="translate(368.700,698.291)" style="opacity: 1;"><rect class="node-rect" width="15" height="7.062780269058521" style="stroke-width: 0.5; stroke: rgb(0, 0, 0); stroke-opacity: 1; fill: rgb(255, 102, 146); fill-opacity: 1;"/><text class="node-label" data-notex="1" x="0" y="0" text-anchor="start" transform="translate(18.25,7.73139013452926)" style="cursor: default; font-family: 'Open Sans', verdana, arial, sans-serif; font-size: 12px; fill: rgb(42, 63, 95); fill-opacity: 1; white-space: pre; text-shadow: white 1px 1px 1px, white -1px -1px 1px, white 1px -1px 1px, white -1px 1px 1px;">lHb</text></g></g></g><defs id="topdefs-d11ff3"><g class="clips"/></defs><g class="layer-above"><g class="imagelayer"/><g class="shapelayer"/></g><g class="infolayer"><g class="g-gtitle"/><g class="first-render"/></g></svg>