<svg class="main-svg" xmlns="http://www.w3.org/2000/svg" xmlns:xlink="http://www.w3.org/1999/xlink" width="1300" height="900" style="" viewBox="0 0 1300 900"><rect x="0" y="0" width="1300" height="900" style="fill: rgb(255, 255, 255); fill-opacity: 1;"/><defs id="defs-535349"><g class="clips"/><g class="gradients"/><g class="patterns"/></defs><g class="bglayer"/><g class="layer-below"><g class="imagelayer"/><g class="shapelayer"/></g><g class="cartesianlayer"/><g class="polarlayer"/><g class="smithlayer"/><g class="ternarylayer"/><g class="geolayer"/><g class="funnelarealayer"/><g class="pielayer"/><g class="iciclelayer"/><g class="treemaplayer"/><g class="sunburstlayer"/><g class="glimages"/><g class="sankey" transform="translate(80,100)matrix(1 0 0 1 0 0)" style="box-sizing: content-box; position: absolute; left: 0px; shape-rendering: geometricprecision; pointer-events: none;"><g class="sankey-links" style="fill: none;"><path class="sankey-link" d="M15,672.391304347826C570,672.391304347826 570,122.60869565217367 1125,122.60869565217367L1125,125.86956521739107C570,125.86956521739107 570,675.6521739130435 15,675.6521739130435Z" style="stroke: rgb(68, 68, 68); stroke-opacity: 1; fill: rgb(25, 211, 243); fill-opacity: 0.6; stroke-width: 0; opacity: 1;"/><path class="sankey-link" d="M15,698.478260869565C570,698.478260869565 570,713.4782608695651 1125,713.4782608695651L1125,716.7391304347826C570,716.7391304347826 570,701.7391304347825 15,701.7391304347825Z" style="stroke: rgb(68, 68, 68); stroke-opacity: 1; fill: rgb(25, 211, 243); fill-opacity: 0.6; stroke-width: 0; opacity: 1;"/><path class="sankey-link" d="M15,685.4347826086955C570,685.4347826086955 570,609.7826086956519 1125,609.7826086956519L1125,619.5652173913041C570,619.5652173913041 570,695.2173913043478 15,695.2173913043478Z" style="stroke: rgb(68, 68, 68); stroke-opacity: 1; fill: rgb(25, 211, 243); fill-opacity: 0.6; stroke-width: 0; opacity: 1;"/><path class="sankey-link" d="M15,682.1739130434781C570,682.1739130434781 570,487.17391304347814 1125,487.17391304347814L1125,490.4347826086955C570,490.4347826086955 570,685.4347826086956 15,685.4347826086956Z" style="stroke: rgb(68, 68, 68); stroke-opacity: 1; fill: rgb(25, 211, 243); fill-opacity: 0.6; stroke-width: 0; opacity: 1;"/><path class="sankey-link" d="M15,675.6521739130434C570,675.6521739130434 570,377.608695652174 1125,377.608695652174L1125,384.13043478260875C570,384.13043478260875 570,682.1739130434781 15,682.1739130434781Z" style="stroke: rgb(68, 68, 68); stroke-opacity: 1; fill: rgb(25, 211, 243); fill-opacity: 0.6; stroke-width: 0; opacity: 1;"/><path class="sankey-link" d="M15,695.2173913043476C570,695.2173913043476 570,650.8695652173911 1125,650.8695652173911L1125,654.1304347826086C570,654.1304347826086 570,698.4782608695651 15,698.4782608695651Z" style="stroke: rgb(68, 68, 68); stroke-opacity: 1; fill: rgb(25, 211, 243); fill-opacity: 0.6; stroke-width: 0; opacity: 1;"/><path class="sankey-link" d="M15,367.82608695652215C570,367.82608695652215 570,89.99999999999976 1125,89.99999999999976L1125,109.5652173913041C570,109.5652173913041 570,387.3913043478265 15,387.3913043478265Z" style="stroke: rgb(68, 68, 68); stroke-opacity: 1; fill: rgb(99, 110, 250); fill-opacity: 0.6; stroke-width: 0; opacity: 1;"/><path class="sankey-link" d="M15,387.3913043478265C570,387.3913043478265 570,196.3043478260868 1125,196.3043478260868L1125,199.56521739130417C570,199.56521739130417 570,390.6521739130439 15,390.6521739130439Z" style="stroke: rgb(68, 68, 68); stroke-opacity: 1; fill: rgb(99, 110, 250); fill-opacity: 0.6; stroke-width: 0; opacity: 1;"/><path class="sankey-link" d="M15,481.9565217391309C570,481.9565217391309 570,706.9565217391304 1125,706.9565217391304L1125,710.2173913043479C570,710.2173913043479 570,485.21739130434827 15,485.21739130434827Z" style="stroke: rgb(68, 68, 68); stroke-opacity: 1; fill: rgb(99, 110, 250); fill-opacity: 0.6; stroke-width: 0; opacity: 1;"/><path class="sankey-link" d="M15,475.4347826086961C570,475.4347826086961 570,672.3913043478259 1125,672.3913043478259L1125,678.9130434782606C570,678.9130434782606 570,481.95652173913084 15,481.95652173913084Z" style="stroke: rgb(68, 68, 68); stroke-opacity: 1; fill: rgb(99, 110, 250); fill-opacity: 0.6; stroke-width: 0; opacity: 1;"/><path class="sankey-link" d="M15,439.56521739130477C570,439.56521739130477 570,544.565217391304 1125,544.565217391304L1125,577.173913043478C570,577.173913043478 570,472.17391304347865 15,472.17391304347865Z" style="stroke: rgb(68, 68, 68); stroke-opacity: 1; fill: rgb(99, 110, 250); fill-opacity: 0.6; stroke-width: 0; opacity: 1;"/><path class="sankey-link" d="M15,416.739130434783C570,416.739130434783 570,451.3043478260868 1125,451.3043478260868L1125,474.1304347826086C570,474.1304347826086 570,439.56521739130477 15,439.56521739130477Z" style="stroke: rgb(68, 68, 68); stroke-opacity: 1; fill: rgb(99, 110, 250); fill-opacity: 0.6; stroke-width: 0; opacity: 1;"/><path class="sankey-link" d="M15,390.6521739130439C570,390.6521739130439 570,312.3913043478261 1125,312.3913043478261L1125,338.47826086956525C570,338.47826086956525 570,416.739130434783 15,416.739130434783Z" style="stroke: rgb(68, 68, 68); stroke-opacity: 1; fill: rgb(99, 110, 250); fill-opacity: 0.6; stroke-width: 0; opacity: 1;"/><path class="sankey-link" d="M15,472.1739130434787C570,472.1739130434787 570,641.086956521739 1125,641.086956521739L1125,644.3478260869565C570,644.3478260869565 570,475.4347826086961 15,475.4347826086961Z" style="stroke: rgb(68, 68, 68); stroke-opacity: 1; fill: rgb(99, 110, 250); fill-opacity: 0.6; stroke-width: 0; opacity: 1;"/><path class="sankey-link" d="M15,564.1304347826086C570,564.1304347826086 570,112.8260869565215 1125,112.8260869565215L1125,116.0869565217389C570,116.0869565217389 570,567.3913043478261 15,567.3913043478261Z" style="stroke: rgb(68, 68, 68); stroke-opacity: 1; fill: rgb(0, 204, 150); fill-opacity: 0.6; stroke-width: 0; opacity: 1;"/><path class="sankey-link" d="M15,567.391304347826C570,567.391304347826 570,206.08695652173898 1125,206.08695652173898L1125,209.34782608695636C570,209.34782608695636 570,570.6521739130435 15,570.6521739130435Z" style="stroke: rgb(68, 68, 68); stroke-opacity: 1; fill: rgb(0, 204, 150); fill-opacity: 0.6; stroke-width: 0; opacity: 1;"/><path class="sankey-link" d="M15,583.6956521739129C570,583.6956521739129 570,590.2173913043475 1125,590.2173913043475L1125,596.7391304347823C570,596.7391304347823 570,590.2173913043476 15,590.2173913043476Z" style="stroke: rgb(68, 68, 68); stroke-opacity: 1; fill: rgb(0, 204, 150); fill-opacity: 0.6; stroke-width: 0; opacity: 1;"/><path class="sankey-link" d="M15,580.4347826086955C570,580.4347826086955 570,477.39130434782595 1125,477.39130434782595L1125,480.6521739130433C570,480.6521739130433 570,583.695652173913 15,583.695652173913Z" style="stroke: rgb(68, 68, 68); stroke-opacity: 1; fill: rgb(0, 204, 150); fill-opacity: 0.6; stroke-width: 0; opacity: 1;"/><path class="sankey-link" d="M15,570.6521739130434C570,570.6521739130434 570,358.0434782608696 1125,358.0434782608696L1125,367.82608695652175C570,367.82608695652175 570,580.4347826086956 15,580.4347826086956Z" style="stroke: rgb(68, 68, 68); stroke-opacity: 1; fill: rgb(0, 204, 150); fill-opacity: 0.6; stroke-width: 0; opacity: 1;"/><path class="sankey-link" d="M15,590.2173913043476C570,590.2173913043476 570,644.3478260869564 1125,644.3478260869564L1125,650.8695652173911C570,650.8695652173911 570,596.7391304347824 15,596.7391304347824Z" style="stroke: rgb(68, 68, 68); stroke-opacity: 1; fill: rgb(0, 204, 150); fill-opacity: 0.6; stroke-width: 0; opacity: 1;"/><path class="sankey-link" d="M15,223.69565217391352C570,223.69565217391352 570,73.6956521739128 1125,73.6956521739128L1125,76.95652173913021C570,76.95652173913021 570,226.9565217391309 15,226.9565217391309Z" style="stroke: rgb(68, 68, 68); stroke-opacity: 1; fill: rgb(254, 203, 82); fill-opacity: 0.6; stroke-width: 0; opacity: 1;"/><path class="sankey-link" d="M15,226.95652173913092C570,226.95652173913092 570,173.47826086956505 1125,173.47826086956505L1125,183.26086956521723C570,183.26086956521723 570,236.7391304347831 15,236.7391304347831Z" style="stroke: rgb(68, 68, 68); stroke-opacity: 1; fill: rgb(254, 203, 82); fill-opacity: 0.6; stroke-width: 0; opacity: 1;"/><path class="sankey-link" d="M15,253.04347826087007C570,253.04347826087007 570,531.5217391304345 1125,531.5217391304345L1125,534.782608695652C570,534.782608695652 570,256.30434782608745 15,256.30434782608745Z" style="stroke: rgb(68, 68, 68); stroke-opacity: 1; fill: rgb(254, 203, 82); fill-opacity: 0.6; stroke-width: 0; opacity: 1;"/><path class="sankey-link" d="M15,246.5217391304353C570,246.5217391304353 570,425.21739130434764 1125,425.21739130434764L1125,431.7391304347824C570,431.7391304347824 570,253.0434782608701 15,253.0434782608701Z" style="stroke: rgb(68, 68, 68); stroke-opacity: 1; fill: rgb(254, 203, 82); fill-opacity: 0.6; stroke-width: 0; opacity: 1;"/><path class="sankey-link" d="M15,236.7391304347831C570,236.7391304347831 570,286.304347826087 1125,286.304347826087L1125,296.0869565217391C570,296.0869565217391 570,246.5217391304353 15,246.5217391304353Z" style="stroke: rgb(68, 68, 68); stroke-opacity: 1; fill: rgb(254, 203, 82); fill-opacity: 0.6; stroke-width: 0; opacity: 1;"/><path class="sankey-link" d="M15,611.7391304347825C570,611.7391304347825 570,116.08695652173888 1125,116.08695652173888L1125,122.60869565217367C570,122.60869565217367 570,618.2608695652173 15,618.2608695652173Z" style="stroke: rgb(68, 68, 68); stroke-opacity: 1; fill: rgb(255, 161, 90); fill-opacity: 0.6; stroke-width: 0; opacity: 1;"/><path class="sankey-link" d="M15,654.1304347826085C570,654.1304347826085 570,710.2173913043478 1125,710.2173913043478L1125,713.4782608695652C570,713.4782608695652 570,657.391304347826 15,657.391304347826Z" style="stroke: rgb(68, 68, 68); stroke-opacity: 1; fill: rgb(255, 161, 90); fill-opacity: 0.6; stroke-width: 0; opacity: 1;"/><path class="sankey-link" d="M15,647.6086956521738C570,647.6086956521738 570,682.173913043478 1125,682.173913043478L1125,688.6956521739128C570,688.6956521739128 570,654.1304347826085 15,654.1304347826085Z" style="stroke: rgb(68, 68, 68); stroke-opacity: 1; fill: rgb(255, 161, 90); fill-opacity: 0.6; stroke-width: 0; opacity: 1;"/><path class="sankey-link" d="M15,634.5652173913041C570,634.5652173913041 570,596.7391304347823 1125,596.7391304347823L1125,609.7826086956518C570,609.7826086956518 570,647.6086956521737 15,647.6086956521737Z" style="stroke: rgb(68, 68, 68); stroke-opacity: 1; fill: rgb(255, 161, 90); fill-opacity: 0.6; stroke-width: 0; opacity: 1;"/><path class="sankey-link" d="M15,628.0434782608694C570,628.0434782608694 570,480.6521739130433 1125,480.6521739130433L1125,487.1739130434781C570,487.1739130434781 570,634.5652173913041 15,634.5652173913041Z" style="stroke: rgb(68, 68, 68); stroke-opacity: 1; fill: rgb(255, 161, 90); fill-opacity: 0.6; stroke-width: 0; opacity: 1;"/><path class="sankey-link" d="M15,618.2608695652173C570,618.2608695652173 570,367.8260869565218 1125,367.8260869565218L1125,377.60869565217394C570,377.60869565217394 570,628.0434782608695 15,628.0434782608695Z" style="stroke: rgb(68, 68, 68); stroke-opacity: 1; fill: rgb(255, 161, 90); fill-opacity: 0.6; stroke-width: 0; opacity: 1;"/><path class="sankey-link" d="M15,271.3043478260874C570,271.3043478260874 570,76.9565217391302 1125,76.9565217391302L1125,89.99999999999976C570,89.99999999999976 570,284.347826086957 15,284.347826086957Z" style="stroke: rgb(68, 68, 68); stroke-opacity: 1; fill: rgb(171, 99, 250); fill-opacity: 0.6; stroke-width: 0; opacity: 1;"/><path class="sankey-link" d="M15,284.34782608695696C570,284.34782608695696 570,183.26086956521723 1125,183.26086956521723L1125,196.3043478260868C570,196.3043478260868 570,297.3913043478266 15,297.3913043478266Z" style="stroke: rgb(68, 68, 68); stroke-opacity: 1; fill: rgb(171, 99, 250); fill-opacity: 0.6; stroke-width: 0; opacity: 1;"/><path class="sankey-link" d="M15,349.56521739130477C570,349.56521739130477 570,703.695652173913 1125,703.695652173913L1125,706.9565217391305C570,706.9565217391305 570,352.82608695652215 15,352.82608695652215Z" style="stroke: rgb(68, 68, 68); stroke-opacity: 1; fill: rgb(171, 99, 250); fill-opacity: 0.6; stroke-width: 0; opacity: 1;"/><path class="sankey-link" d="M15,346.3043478260874C570,346.3043478260874 570,669.1304347826085 1125,669.1304347826085L1125,672.391304347826C570,672.391304347826 570,349.56521739130477 15,349.56521739130477Z" style="stroke: rgb(68, 68, 68); stroke-opacity: 1; fill: rgb(171, 99, 250); fill-opacity: 0.6; stroke-width: 0; opacity: 1;"/><path class="sankey-link" d="M15,333.26086956521783C570,333.26086956521783 570,534.7826086956519 1125,534.7826086956519L1125,544.5652173913041C570,544.5652173913041 570,343.04347826086996 15,343.04347826086996Z" style="stroke: rgb(68, 68, 68); stroke-opacity: 1; fill: rgb(171, 99, 250); fill-opacity: 0.6; stroke-width: 0; opacity: 1;"/><path class="sankey-link" d="M15,313.69565217391346C570,313.69565217391346 570,431.73913043478245 1125,431.73913043478245L1125,451.3043478260868C570,451.3043478260868 570,333.26086956521783 15,333.26086956521783Z" style="stroke: rgb(68, 68, 68); stroke-opacity: 1; fill: rgb(171, 99, 250); fill-opacity: 0.6; stroke-width: 0; opacity: 1;"/><path class="sankey-link" d="M15,297.3913043478265C570,297.3913043478265 570,296.0869565217392 1125,296.0869565217392L1125,312.3913043478262C570,312.3913043478262 570,313.6956521739135 15,313.6956521739135Z" style="stroke: rgb(68, 68, 68); stroke-opacity: 1; fill: rgb(171, 99, 250); fill-opacity: 0.6; stroke-width: 0; opacity: 1;"/><path class="sankey-link" d="M15,343.04347826087C570,343.04347826087 570,637.8260869565216 1125,637.8260869565216L1125,641.0869565217391C570,641.0869565217391 570,346.3043478260874 15,346.3043478260874Z" style="stroke: rgb(68, 68, 68); stroke-opacity: 1; fill: rgb(171, 99, 250); fill-opacity: 0.6; stroke-width: 0; opacity: 1;"/><path class="sankey-link" d="M15,5.115907697472721e-13C570,5.115907697472721e-13 570,14.999999999999769 1125,14.999999999999769L1125,73.6956521739128C570,73.6956521739128 570,58.69565217391355 15,58.69565217391355Z" style="stroke: rgb(68, 68, 68); stroke-opacity: 1; fill: rgb(239, 85, 59); fill-opacity: 0.6; stroke-width: 0; opacity: 1;"/><path class="sankey-link" d="M15,58.69565217391356C570,58.69565217391356 570,140.86956521739114 1125,140.86956521739114L1125,173.47826086956508C570,173.47826086956508 570,91.30434782608747 15,91.30434782608747Z" style="stroke: rgb(68, 68, 68); stroke-opacity: 1; fill: rgb(239, 85, 59); fill-opacity: 0.6; stroke-width: 0; opacity: 1;"/><path class="sankey-link" d="M15,179.347826086957C570,179.347826086957 570,505.43478260869546 1125,505.43478260869546L1125,531.5217391304346C570,531.5217391304346 570,205.43478260869614 15,205.43478260869614Z" style="stroke: rgb(68, 68, 68); stroke-opacity: 1; fill: rgb(239, 85, 59); fill-opacity: 0.6; stroke-width: 0; opacity: 1;"/><path class="sankey-link" d="M15,153.2608695652179C570,153.2608695652179 570,399.1304347826085 1125,399.1304347826085L1125,425.21739130434764C570,425.21739130434764 570,179.347826086957 15,179.347826086957Z" style="stroke: rgb(68, 68, 68); stroke-opacity: 1; fill: rgb(239, 85, 59); fill-opacity: 0.6; stroke-width: 0; opacity: 1;"/><path class="sankey-link" d="M15,91.30434782608747C570,91.30434782608747 570,224.34782608695656 1125,224.34782608695656L1125,286.304347826087C570,286.304347826087 570,153.2608695652179 15,153.2608695652179Z" style="stroke: rgb(68, 68, 68); stroke-opacity: 1; fill: rgb(239, 85, 59); fill-opacity: 0.6; stroke-width: 0; opacity: 1;"/><path class="sankey-link" d="M15,205.43478260869614C570,205.43478260869614 570,634.5652173913043 1125,634.5652173913043L1125,637.8260869565217C570,637.8260869565217 570,208.69565217391352 15,208.69565217391352Z" style="stroke: rgb(68, 68, 68); stroke-opacity: 1; fill: rgb(239, 85, 59); fill-opacity: 0.6; stroke-width: 0; opacity: 1;"/><path class="sankey-link" d="M15,500.21739130434776C570,500.21739130434776 570,109.5652173913041 1125,109.5652173913041L1125,112.82608695652151C570,112.82608695652151 570,503.47826086956513 15,503.47826086956513Z" style="stroke: rgb(68, 68, 68); stroke-opacity: 1; fill: rgb(182, 232, 128); fill-opacity: 0.6; stroke-width: 0; opacity: 1;"/><path class="sankey-link" d="M15,503.47826086956513C570,503.47826086956513 570,199.5652173913042 1125,199.5652173913042L1125,206.086956521739C570,206.086956521739 570,509.9999999999999 15,509.9999999999999Z" style="stroke: rgb(68, 68, 68); stroke-opacity: 1; fill: rgb(182, 232, 128); fill-opacity: 0.6; stroke-width: 0; opacity: 1;"/><path class="sankey-link" d="M15,545.8695652173913C570,545.8695652173913 570,678.9130434782606 1125,678.9130434782606L1125,682.1739130434781C570,682.1739130434781 570,549.1304347826087 15,549.1304347826087Z" style="stroke: rgb(68, 68, 68); stroke-opacity: 1; fill: rgb(182, 232, 128); fill-opacity: 0.6; stroke-width: 0; opacity: 1;"/><path class="sankey-link" d="M15,532.8260869565216C570,532.8260869565216 570,577.1739130434779 1125,577.1739130434779L1125,590.2173913043474C570,590.2173913043474 570,545.8695652173911 15,545.8695652173911Z" style="stroke: rgb(68, 68, 68); stroke-opacity: 1; fill: rgb(182, 232, 128); fill-opacity: 0.6; stroke-width: 0; opacity: 1;"/><path class="sankey-link" d="M15,529.5652173913043C570,529.5652173913043 570,474.1304347826086 1125,474.1304347826086L1125,477.39130434782595C570,477.39130434782595 570,532.8260869565217 15,532.8260869565217Z" style="stroke: rgb(68, 68, 68); stroke-opacity: 1; fill: rgb(182, 232, 128); fill-opacity: 0.6; stroke-width: 0; opacity: 1;"/><path class="sankey-link" d="M15,509.99999999999994C570,509.99999999999994 570,338.47826086956525 1125,338.47826086956525L1125,358.0434782608696C570,358.0434782608696 570,529.5652173913043 15,529.5652173913043Z" style="stroke: rgb(68, 68, 68); stroke-opacity: 1; fill: rgb(182, 232, 128); fill-opacity: 0.6; stroke-width: 0; opacity: 1;"/><path class="sankey-link" d="M15,716.7391304347827C570,716.7391304347827 570,716.7391304347825 1125,716.7391304347825L1125,720C570,720 570,720.0000000000002 15,720.0000000000002Z" style="stroke: rgb(68, 68, 68); stroke-opacity: 1; fill: rgb(255, 102, 146); fill-opacity: 0.6; stroke-width: 0; opacity: 1;"/></g><g class="sankey-node-set" style="cursor: move;"><g class="sankey-node" transform="translate(1125.000,15.000)" style="opacity: 1;"><rect class="node-rect" width="15" height="110.86956521739137" style="stroke-width: 0.5; stroke: rgb(0, 0, 0); stroke-opacity: 1; fill: rgb(128, 128, 128); fill-opacity: 1;"/><text class="node-label" data-notex="1" x="0" y="0" text-anchor="end" transform="translate(-3.25,59.63478260869569)" style="cursor: default; font-family: 'Open Sans', verdana, arial, sans-serif; font-size: 12px; fill: rgb(42, 63, 95); fill-opacity: 1; white-space: pre; text-shadow: white 1px 1px 1px, white -1px -1px 1px, white 1px -1px 1px, white -1px 1px 1px;">attacking</text></g><g class="sankey-node" transform="translate(1125.000,703.696)" style="opacity: 1;"><rect class="node-rect" width="15" height="16.304347826086996" style="stroke-width: 0.5; stroke: rgb(0, 0, 0); stroke-opacity: 1; fill: rgb(128, 128, 128); fill-opacity: 1;"/><text class="node-label" data-notex="1" x="0" y="0" text-anchor="end" transform="translate(-3.25,12.352173913043497)" style="cursor: default; font-family: 'Open Sans', verdana, arial, sans-serif; font-size: 12px; fill: rgb(42, 63, 95); fill-opacity: 1; white-space: pre; text-shadow: white 1px 1px 1px, white -1px -1px 1px, white 1px -1px 1px, white -1px 1px 1px;">dig</text></g><g class="sankey-node" transform="translate(1125.000,669.130)" style="opacity: 1;"><rect class="node-rect" width="15" height="19.565217391304486" style="stroke-width: 0.5; stroke: rgb(0, 0, 0); stroke-opacity: 1; fill: rgb(128, 128, 128); fill-opacity: 1;"/><text class="node-label" data-notex="1" x="0" y="0" text-anchor="end" transform="translate(-3.25,13.982608695652242)" style="cursor: default; font-family: 'Open Sans', verdana, arial, sans-serif; font-size: 12px; fill: rgb(42, 63, 95); fill-opacity: 1; white-space: pre; text-shadow: white 1px 1px 1px, white -1px -1px 1px, white 1px -1px 1px, white -1px 1px 1px;">groom</text></g><g class="sankey-node" transform="translate(1125.000,505.435)" style="opacity: 1;"><rect class="node-rect" width="15" height="114.13043478260886" style="stroke-width: 0.5; stroke: rgb(0, 0, 0); stroke-opacity: 1; fill: rgb(128, 128, 128); fill-opacity: 1;"/><text class="node-label" data-notex="1" x="0" y="0" text-anchor="end" transform="translate(-3.25,61.26521739130443)" style="cursor: default; font-family: 'Open Sans', verdana, arial, sans-serif; font-size: 12px; fill: rgb(42, 63, 95); fill-opacity: 1; white-space: pre; text-shadow: white 1px 1px 1px, white -1px -1px 1px, white 1px -1px 1px, white -1px 1px 1px;">move</text></g><g class="sankey-node" transform="translate(1125.000,399.130)" style="opacity: 1;"><rect class="node-rect" width="15" height="91.30434782608688" style="stroke-width: 0.5; stroke: rgb(0, 0, 0); stroke-opacity: 1; fill: rgb(128, 128, 128); fill-opacity: 1;"/><text class="node-label" data-notex="1" x="0" y="0" text-anchor="end" transform="translate(-3.25,49.852173913043444)" style="cursor: default; font-family: 'Open Sans', verdana, arial, sans-serif; font-size: 12px; fill: rgb(42, 63, 95); fill-opacity: 1; white-space: pre; text-shadow: white 1px 1px 1px, white -1px -1px 1px, white 1px -1px 1px, white -1px 1px 1px;">sniff</text></g><g class="sankey-node" transform="translate(1125.000,224.348)" style="opacity: 1;"><rect class="node-rect" width="15" height="159.78260869565196" style="stroke-width: 0.5; stroke: rgb(0, 0, 0); stroke-opacity: 1; fill: rgb(128, 128, 128); fill-opacity: 1;"/><text class="node-label" data-notex="1" x="0" y="0" text-anchor="end" transform="translate(-3.25,84.09130434782598)" style="cursor: default; font-family: 'Open Sans', verdana, arial, sans-serif; font-size: 12px; fill: rgb(42, 63, 95); fill-opacity: 1; white-space: pre; text-shadow: white 1px 1px 1px, white -1px -1px 1px, white 1px -1px 1px, white -1px 1px 1px;">social</text></g><g class="sankey-node" transform="translate(1125.000,634.565)" style="opacity: 1;"><rect class="node-rect" width="15" height="19.56521739130426" style="stroke-width: 0.5; stroke: rgb(0, 0, 0); stroke-opacity: 1; fill: rgb(128, 128, 128); fill-opacity: 1;"/><text class="node-label" data-notex="1" x="0" y="0" text-anchor="end" transform="translate(-3.25,13.982608695652129)" style="cursor: default; font-family: 'Open Sans', verdana, arial, sans-serif; font-size: 12px; fill: rgb(42, 63, 95); fill-opacity: 1; white-space: pre; text-shadow: white 1px 1px 1px, white -1px -1px 1px, white 1px -1px 1px, white -1px 1px 1px;">still</text></g><g class="sankey-node" transform="translate(1125.000,140.870)" style="opacity: 1;"><rect class="node-rect" width="15" height="68.47826086956542" style="stroke-width: 0.5; stroke: rgb(0, 0, 0); stroke-opacity: 1; fill: rgb(128, 128, 128); fill-opacity: 1;"/><text class="node-label" data-notex="1" x="0" y="0" text-anchor="end" transform="translate(-3.25,38.43913043478271)" style="cursor: default; font-family: 'Open Sans', verdana, arial, sans-serif; font-size: 12px; fill: rgb(42, 63, 95); fill-opacity: 1; white-space: pre; text-shadow: white 1px 1px 1px, white -1px -1px 1px, white 1px -1px 1px, white -1px 1px 1px;">being_attack</text></g><g class="sankey-node" transform="translate(0.000,367.826)" style="opacity: 1;"><rect class="node-rect" width="15" height="117.39130434782561" style="stroke-width: 0.5; stroke: rgb(0, 0, 0); stroke-opacity: 1; fill: rgb(99, 110, 250); fill-opacity: 1;"/><text class="node-label" data-notex="1" x="0" y="0" text-anchor="start" transform="translate(18.25,62.89565217391281)" style="cursor: default; font-family: 'Open Sans', verdana, arial, sans-serif; font-size: 12px; fill: rgb(42, 63, 95); fill-opacity: 1; white-space: pre; text-shadow: white 1px 1px 1px, white -1px -1px 1px, white 1px -1px 1px, white -1px 1px 1px;">Cla</text></g><g class="sankey-node" transform="translate(0.000,0.000)" style="opacity: 1;"><rect class="node-rect" width="15" height="208.695652173913" style="stroke-width: 0.5; stroke: rgb(0, 0, 0); stroke-opacity: 1; fill: rgb(239, 85, 59); fill-opacity: 1;"/><text class="node-label" data-notex="1" x="0" y="0" text-anchor="start" transform="translate(18.25,108.5478260869565)" style="cursor: default; font-family: 'Open Sans', verdana, arial, sans-serif; font-size: 12px; fill: rgb(42, 63, 95); fill-opacity: 1; white-space: pre; text-shadow: white 1px 1px 1px, white -1px -1px 1px, white 1px -1px 1px, white -1px 1px 1px;">VTA</text></g><g class="sankey-node" transform="translate(0.000,564.130)" style="opacity: 1;"><rect class="node-rect" width="15" height="32.60869565217388" style="stroke-width: 0.5; stroke: rgb(0, 0, 0); stroke-opacity: 1; fill: rgb(0, 204, 150); fill-opacity: 1;"/><text class="node-label" data-notex="1" x="0" y="0" text-anchor="start" transform="translate(18.25,20.50434782608694)" style="cursor: default; font-family: 'Open Sans', verdana, arial, sans-serif; font-size: 12px; fill: rgb(42, 63, 95); fill-opacity: 1; white-space: pre; text-shadow: white 1px 1px 1px, white -1px -1px 1px, white 1px -1px 1px, white -1px 1px 1px;">LC</text></g><g class="sankey-node" transform="translate(0.000,271.304)" style="opacity: 1;"><rect class="node-rect" width="15" height="81.52173913043475" style="stroke-width: 0.5; stroke: rgb(0, 0, 0); stroke-opacity: 1; fill: rgb(171, 99, 250); fill-opacity: 1;"/><text class="node-label" data-notex="1" x="0" y="0" text-anchor="start" transform="translate(18.25,44.96086956521738)" style="cursor: default; font-family: 'Open Sans', verdana, arial, sans-serif; font-size: 12px; fill: rgb(42, 63, 95); fill-opacity: 1; white-space: pre; text-shadow: white 1px 1px 1px, white -1px -1px 1px, white 1px -1px 1px, white -1px 1px 1px;">Str</text></g><g class="sankey-node" transform="translate(0.000,611.739)" style="opacity: 1;"><rect class="node-rect" width="15" height="45.6521739130435" style="stroke-width: 0.5; stroke: rgb(0, 0, 0); stroke-opacity: 1; fill: rgb(255, 161, 90); fill-opacity: 1;"/><text class="node-label" data-notex="1" x="0" y="0" text-anchor="start" transform="translate(18.25,27.02608695652175)" style="cursor: default; font-family: 'Open Sans', verdana, arial, sans-serif; font-size: 12px; fill: rgb(42, 63, 95); fill-opacity: 1; white-space: pre; text-shadow: white 1px 1px 1px, white -1px -1px 1px, white 1px -1px 1px, white -1px 1px 1px;">NAc</text></g><g class="sankey-node" transform="translate(0.000,672.391)" style="opacity: 1;"><rect class="node-rect" width="15" height="29.34782608695673" style="stroke-width: 0.5; stroke: rgb(0, 0, 0); stroke-opacity: 1; fill: rgb(25, 211, 243); fill-opacity: 1;"/><text class="node-label" data-notex="1" x="0" y="0" text-anchor="start" transform="translate(18.25,18.873913043478364)" style="cursor: default; font-family: 'Open Sans', verdana, arial, sans-serif; font-size: 12px; fill: rgb(42, 63, 95); fill-opacity: 1; white-space: pre; text-shadow: white 1px 1px 1px, white -1px -1px 1px, white 1px -1px 1px, white -1px 1px 1px;">BLA</text></g><g class="sankey-node" transform="translate(0.000,716.739)" style="opacity: 1;"><rect class="node-rect" width="15" height="3.260869565217263" style="stroke-width: 0.5; stroke: rgb(0, 0, 0); stroke-opacity: 1; fill: rgb(255, 102, 146); fill-opacity: 1;"/><text class="node-label" data-notex="1" x="0" y="0" text-anchor="start" transform="translate(18.25,5.830434782608631)" style="cursor: default; font-family: 'Open Sans', verdana, arial, sans-serif; font-size: 12px; fill: rgb(42, 63, 95); fill-opacity: 1; white-space: pre; text-shadow: white 1px 1px 1px, white -1px -1px 1px, white 1px -1px 1px, white -1px 1px 1px;">lHb</text></g><g class="sankey-node" transform="translate(0.000,500.217)" style="opacity: 1;"><rect class="node-rect" width="15" height="48.913043478260875" style="stroke-width: 0.5; stroke: rgb(0, 0, 0); stroke-opacity: 1; fill: rgb(182, 232, 128); fill-opacity: 1;"/><text class="node-label" data-notex="1" x="0" y="0" text-anchor="start" transform="translate(18.25,28.656521739130437)" style="cursor: default; font-family: 'Open Sans', verdana, arial, sans-serif; font-size: 12px; fill: rgb(42, 63, 95); fill-opacity: 1; white-space: pre; text-shadow: white 1px 1px 1px, white -1px -1px 1px, white 1px -1px 1px, white -1px 1px 1px;">cPFC</text></g><g class="sankey-node" transform="translate(0.000,223.696)" style="opacity: 1;"><rect class="node-rect" width="15" height="32.60869565217388" style="stroke-width: 0.5; stroke: rgb(0, 0, 0); stroke-opacity: 1; fill: rgb(254, 203, 82); fill-opacity: 1;"/><text class="node-label" data-notex="1" x="0" y="0" text-anchor="start" transform="translate(18.25,20.50434782608694)" style="cursor: default; font-family: 'Open Sans', verdana, arial, sans-serif; font-size: 12px; fill: rgb(42, 63, 95); fill-opacity: 1; white-space: pre; text-shadow: white 1px 1px 1px, white -1px -1px 1px, white 1px -1px 1px, white -1px 1px 1px;">LHyp</text></g></g></g><defs id="topdefs-535349"><g class="clips"/></defs><g class="layer-above"><g class="imagelayer"/><g class="shapelayer"/></g><g class="infolayer"><g class="g-gtitle"/><g class="first-render"/></g></svg>