<svg class="main-svg" xmlns="http://www.w3.org/2000/svg" xmlns:xlink="http://www.w3.org/1999/xlink" width="1300" height="900" style="" viewBox="0 0 1300 900"><rect x="0" y="0" width="1300" height="900" style="fill: rgb(255, 255, 255); fill-opacity: 1;"/><defs id="defs-1eeeac"><g class="clips"/><g class="gradients"/><g class="patterns"/></defs><g class="bglayer"/><g class="layer-below"><g class="imagelayer"/><g class="shapelayer"/></g><g class="cartesianlayer"/><g class="polarlayer"/><g class="smithlayer"/><g class="ternarylayer"/><g class="geolayer"/><g class="funnelarealayer"/><g class="pielayer"/><g class="iciclelayer"/><g class="treemaplayer"/><g class="sunburstlayer"/><g class="glimages"/><g class="sankey" transform="translate(80,100)matrix(1 0 0 1 0 0)" style="box-sizing: content-box; position: absolute; left: 0px; shape-rendering: geometricprecision; pointer-events: none;"><g class="sankey-links" style="fill: none;"><path class="sankey-link" d="M15,684.0967741935483C570,684.0967741935483 570,415.7419354838715 1125,415.7419354838715L1125,417.48387096774246C570,417.48387096774246 570,685.8387096774193 15,685.8387096774193Z" style="stroke: rgb(68, 68, 68); stroke-opacity: 1; fill: rgb(25, 211, 243); fill-opacity: 0.6; stroke-width: 0; opacity: 1;"/><path class="sankey-link" d="M15,678.8709677419354C570,678.8709677419354 570,256.83870967741973 1125,256.83870967741973L1125,260.3225806451617C570,260.3225806451617 570,682.3548387096773 15,682.3548387096773Z" style="stroke: rgb(68, 68, 68); stroke-opacity: 1; fill: rgb(25, 211, 243); fill-opacity: 0.6; stroke-width: 0; opacity: 1;"/><path class="sankey-link" d="M15,685.8387096774193C570,685.8387096774193 570,500.4193548387102 1125,500.4193548387102L1125,503.90322580645216C570,503.90322580645216 570,689.3225806451612 15,689.3225806451612Z" style="stroke: rgb(68, 68, 68); stroke-opacity: 1; fill: rgb(25, 211, 243); fill-opacity: 0.6; stroke-width: 0; opacity: 1;"/><path class="sankey-link" d="M15,694.5483870967741C570,694.5483870967741 570,648.8709677419359 1125,648.8709677419359L1125,652.3548387096779C570,652.3548387096779 570,698.0322580645161 15,698.0322580645161Z" style="stroke: rgb(68, 68, 68); stroke-opacity: 1; fill: rgb(25, 211, 243); fill-opacity: 0.6; stroke-width: 0; opacity: 1;"/><path class="sankey-link" d="M15,698.0322580645161C570,698.0322580645161 570,676.0645161290327 1125,676.0645161290327L1125,677.8064516129036C570,677.8064516129036 570,699.7741935483871 15,699.7741935483871Z" style="stroke: rgb(68, 68, 68); stroke-opacity: 1; fill: rgb(25, 211, 243); fill-opacity: 0.6; stroke-width: 0; opacity: 1;"/><path class="sankey-link" d="M15,689.3225806451612C570,689.3225806451612 570,600.7741935483876 1125,600.7741935483876L1125,606.0000000000006C570,606.0000000000006 570,694.5483870967741 15,694.5483870967741Z" style="stroke: rgb(68, 68, 68); stroke-opacity: 1; fill: rgb(25, 211, 243); fill-opacity: 0.6; stroke-width: 0; opacity: 1;"/><path class="sankey-link" d="M15,682.3548387096773C570,682.3548387096773 570,351.96774193548424 1125,351.96774193548424L1125,353.7096774193552C570,353.7096774193552 570,684.0967741935483 15,684.0967741935483Z" style="stroke: rgb(68, 68, 68); stroke-opacity: 1; fill: rgb(25, 211, 243); fill-opacity: 0.6; stroke-width: 0; opacity: 1;"/><path class="sankey-link" d="M15,379.83870967741956C570,379.83870967741956 570,393.09677419354887 1125,393.09677419354887L1125,401.80645161290374C570,401.80645161290374 570,388.54838709677443 15,388.54838709677443Z" style="stroke: rgb(68, 68, 68); stroke-opacity: 1; fill: rgb(99, 110, 250); fill-opacity: 0.6; stroke-width: 0; opacity: 1;"/><path class="sankey-link" d="M15,331.0645161290325C570,331.0645161290325 570,15.67741935483905 1125,15.67741935483905L1125,20.903225806451953C570,20.903225806451953 570,336.2903225806454 15,336.2903225806454Z" style="stroke: rgb(68, 68, 68); stroke-opacity: 1; fill: rgb(99, 110, 250); fill-opacity: 0.6; stroke-width: 0; opacity: 1;"/><path class="sankey-link" d="M15,345.0000000000002C570,345.0000000000002 570,209.8064516129036 1125,209.8064516129036L1125,230.7096774193552C570,230.7096774193552 570,365.9032258064518 15,365.9032258064518Z" style="stroke: rgb(68, 68, 68); stroke-opacity: 1; fill: rgb(99, 110, 250); fill-opacity: 0.6; stroke-width: 0; opacity: 1;"/><path class="sankey-link" d="M15,426.87096774193566C570,426.87096774193566 570,716.516129032258 1125,716.516129032258L1125,718.258064516129C570,718.258064516129 570,428.61290322580663 15,428.61290322580663Z" style="stroke: rgb(68, 68, 68); stroke-opacity: 1; fill: rgb(99, 110, 250); fill-opacity: 0.6; stroke-width: 0; opacity: 1;"/><path class="sankey-link" d="M15,388.5483870967744C570,388.5483870967744 570,463.83870967741984 1125,463.83870967741984L1125,474.2903225806457C570,474.2903225806457 570,399.0000000000002 15,399.0000000000002Z" style="stroke: rgb(68, 68, 68); stroke-opacity: 1; fill: rgb(99, 110, 250); fill-opacity: 0.6; stroke-width: 0; opacity: 1;"/><path class="sankey-link" d="M15,425.1290322580647C570,425.1290322580647 570,694.5483870967744 1125,694.5483870967744L1125,696.2903225806454C570,696.2903225806454 570,426.87096774193566 15,426.87096774193566Z" style="stroke: rgb(68, 68, 68); stroke-opacity: 1; fill: rgb(99, 110, 250); fill-opacity: 0.6; stroke-width: 0; opacity: 1;"/><path class="sankey-link" d="M15,336.2903225806454C570,336.2903225806454 570,92.70967741935503 1125,92.70967741935503L1125,94.451612903226C570,94.451612903226 570,338.0322580645164 15,338.0322580645164Z" style="stroke: rgb(68, 68, 68); stroke-opacity: 1; fill: rgb(99, 110, 250); fill-opacity: 0.6; stroke-width: 0; opacity: 1;"/><path class="sankey-link" d="M15,419.90322580645176C570,419.90322580645176 570,634.9354838709681 1125,634.9354838709681L1125,638.4193548387101C570,638.4193548387101 570,423.3870967741937 15,423.3870967741937Z" style="stroke: rgb(68, 68, 68); stroke-opacity: 1; fill: rgb(99, 110, 250); fill-opacity: 0.6; stroke-width: 0; opacity: 1;"/><path class="sankey-link" d="M15,338.0322580645164C570,338.0322580645164 570,135.58064516129062 1125,135.58064516129062L1125,142.54838709677446C570,142.54838709677446 570,345.0000000000003 15,345.0000000000003Z" style="stroke: rgb(68, 68, 68); stroke-opacity: 1; fill: rgb(99, 110, 250); fill-opacity: 0.6; stroke-width: 0; opacity: 1;"/><path class="sankey-link" d="M15,423.3870967741937C570,423.3870967741937 570,670.8387096774197 1125,670.8387096774197L1125,672.5806451612907C570,672.5806451612907 570,425.1290322580647 15,425.1290322580647Z" style="stroke: rgb(68, 68, 68); stroke-opacity: 1; fill: rgb(99, 110, 250); fill-opacity: 0.6; stroke-width: 0; opacity: 1;"/><path class="sankey-link" d="M15,399.00000000000017C570,399.00000000000017 570,546.7741935483875 1125,546.7741935483875L1125,567.6774193548392C570,567.6774193548392 570,419.90322580645176 15,419.90322580645176Z" style="stroke: rgb(68, 68, 68); stroke-opacity: 1; fill: rgb(99, 110, 250); fill-opacity: 0.6; stroke-width: 0; opacity: 1;"/><path class="sankey-link" d="M15,365.9032258064518C570,365.9032258064518 570,318.8709677419358 1125,318.8709677419358L1125,332.80645161290346C570,332.80645161290346 570,379.8387096774195 15,379.8387096774195Z" style="stroke: rgb(68, 68, 68); stroke-opacity: 1; fill: rgb(99, 110, 250); fill-opacity: 0.6; stroke-width: 0; opacity: 1;"/><path class="sankey-link" d="M15,498.67741935483866C570,498.67741935483866 570,22.64516129032292 1125,22.64516129032292L1125,24.38709677419389C570,24.38709677419389 570,500.41935483870964 15,500.41935483870964Z" style="stroke: rgb(68, 68, 68); stroke-opacity: 1; fill: rgb(0, 204, 150); fill-opacity: 0.6; stroke-width: 0; opacity: 1;"/><path class="sankey-link" d="M15,503.9032258064516C570,503.9032258064516 570,237.6774193548391 1125,237.6774193548391L1125,244.64516129032293C570,244.64516129032293 570,510.8709677419355 15,510.8709677419355Z" style="stroke: rgb(68, 68, 68); stroke-opacity: 1; fill: rgb(0, 204, 150); fill-opacity: 0.6; stroke-width: 0; opacity: 1;"/><path class="sankey-link" d="M15,516.0967741935483C570,516.0967741935483 570,479.51612903225856 1125,479.51612903225856L1125,484.7419354838715C570,484.7419354838715 570,521.3225806451612 15,521.3225806451612Z" style="stroke: rgb(68, 68, 68); stroke-opacity: 1; fill: rgb(0, 204, 150); fill-opacity: 0.6; stroke-width: 0; opacity: 1;"/><path class="sankey-link" d="M15,500.41935483870964C570,500.41935483870964 570,94.45161290322599 1125,94.45161290322599L1125,96.19354838709697C570,96.19354838709697 570,502.1612903225806 15,502.1612903225806Z" style="stroke: rgb(68, 68, 68); stroke-opacity: 1; fill: rgb(0, 204, 150); fill-opacity: 0.6; stroke-width: 0; opacity: 1;"/><path class="sankey-link" d="M15,502.1612903225806C570,502.1612903225806 570,146.0322580645164 1125,146.0322580645164L1125,147.7741935483874C570,147.7741935483874 570,503.9032258064516 15,503.9032258064516Z" style="stroke: rgb(68, 68, 68); stroke-opacity: 1; fill: rgb(0, 204, 150); fill-opacity: 0.6; stroke-width: 0; opacity: 1;"/><path class="sankey-link" d="M15,526.5483870967741C570,526.5483870967741 570,672.5806451612907 1125,672.5806451612907L1125,676.0645161290327C570,676.0645161290327 570,530.0322580645161 15,530.0322580645161Z" style="stroke: rgb(68, 68, 68); stroke-opacity: 1; fill: rgb(0, 204, 150); fill-opacity: 0.6; stroke-width: 0; opacity: 1;"/><path class="sankey-link" d="M15,521.3225806451612C570,521.3225806451612 570,574.645161290323 1125,574.645161290323L1125,579.8709677419359C570,579.8709677419359 570,526.5483870967741 15,526.5483870967741Z" style="stroke: rgb(68, 68, 68); stroke-opacity: 1; fill: rgb(0, 204, 150); fill-opacity: 0.6; stroke-width: 0; opacity: 1;"/><path class="sankey-link" d="M15,510.8709677419354C570,510.8709677419354 570,338.03225806451644 1125,338.03225806451644L1125,343.25806451612937C570,343.25806451612937 570,516.0967741935483 15,516.0967741935483Z" style="stroke: rgb(68, 68, 68); stroke-opacity: 1; fill: rgb(0, 204, 150); fill-opacity: 0.6; stroke-width: 0; opacity: 1;"/><path class="sankey-link" d="M15,464.5161290322581C570,464.5161290322581 570,401.8064516129037 1125,401.8064516129037L1125,407.0322580645166C570,407.0322580645166 570,469.74193548387103 15,469.74193548387103Z" style="stroke: rgb(68, 68, 68); stroke-opacity: 1; fill: rgb(254, 203, 82); fill-opacity: 0.6; stroke-width: 0; opacity: 1;"/><path class="sankey-link" d="M15,445.35483870967744C570,445.35483870967744 570,62.032258064516384 1125,62.032258064516384L1125,65.51612903225832C570,65.51612903225832 570,448.8387096774194 15,448.8387096774194Z" style="stroke: rgb(68, 68, 68); stroke-opacity: 1; fill: rgb(254, 203, 82); fill-opacity: 0.6; stroke-width: 0; opacity: 1;"/><path class="sankey-link" d="M15,443.61290322580646C570,443.61290322580646 570,20.903225806451953 1125,20.903225806451953L1125,22.64516129032292C570,22.64516129032292 570,445.35483870967744 15,445.35483870967744Z" style="stroke: rgb(68, 68, 68); stroke-opacity: 1; fill: rgb(254, 203, 82); fill-opacity: 0.6; stroke-width: 0; opacity: 1;"/><path class="sankey-link" d="M15,452.32258064516134C570,452.32258064516134 570,230.70967741935522 1125,230.70967741935522L1125,237.67741935483906C570,237.67741935483906 570,459.29032258064524 15,459.29032258064524Z" style="stroke: rgb(68, 68, 68); stroke-opacity: 1; fill: rgb(254, 203, 82); fill-opacity: 0.6; stroke-width: 0; opacity: 1;"/><path class="sankey-link" d="M15,469.74193548387103C570,469.74193548387103 570,474.29032258064564 1125,474.29032258064564L1125,479.51612903225856C570,479.51612903225856 570,474.96774193548396 15,474.96774193548396Z" style="stroke: rgb(68, 68, 68); stroke-opacity: 1; fill: rgb(254, 203, 82); fill-opacity: 0.6; stroke-width: 0; opacity: 1;"/><path class="sankey-link" d="M15,481.9354838709678C570,481.9354838709678 570,638.4193548387101 1125,638.4193548387101L1125,640.1612903225811C570,640.1612903225811 570,483.6774193548388 15,483.6774193548388Z" style="stroke: rgb(68, 68, 68); stroke-opacity: 1; fill: rgb(254, 203, 82); fill-opacity: 0.6; stroke-width: 0; opacity: 1;"/><path class="sankey-link" d="M15,448.8387096774194C570,448.8387096774194 570,142.5483870967745 1125,142.5483870967745L1125,146.03225806451644C570,146.03225806451644 570,452.32258064516134 15,452.32258064516134Z" style="stroke: rgb(68, 68, 68); stroke-opacity: 1; fill: rgb(254, 203, 82); fill-opacity: 0.6; stroke-width: 0; opacity: 1;"/><path class="sankey-link" d="M15,474.96774193548396C570,474.96774193548396 570,567.6774193548391 1125,567.6774193548391L1125,574.645161290323C570,574.645161290323 570,481.93548387096786 15,481.93548387096786Z" style="stroke: rgb(68, 68, 68); stroke-opacity: 1; fill: rgb(254, 203, 82); fill-opacity: 0.6; stroke-width: 0; opacity: 1;"/><path class="sankey-link" d="M15,459.2903225806452C570,459.2903225806452 570,332.8064516129035 1125,332.8064516129035L1125,338.03225806451644C570,338.03225806451644 570,464.5161290322581 15,464.5161290322581Z" style="stroke: rgb(68, 68, 68); stroke-opacity: 1; fill: rgb(254, 203, 82); fill-opacity: 0.6; stroke-width: 0; opacity: 1;"/><path class="sankey-link" d="M15,619.258064516129C570,619.258064516129 570,410.51612903225856 1125,410.51612903225856L1125,415.7419354838715C570,415.7419354838715 570,624.483870967742 15,624.483870967742Z" style="stroke: rgb(68, 68, 68); stroke-opacity: 1; fill: rgb(255, 161, 90); fill-opacity: 0.6; stroke-width: 0; opacity: 1;"/><path class="sankey-link" d="M15,614.0322580645161C570,614.0322580645161 570,251.61290322580683 1125,251.61290322580683L1125,256.83870967741973C570,256.83870967741973 570,619.258064516129 15,619.258064516129Z" style="stroke: rgb(68, 68, 68); stroke-opacity: 1; fill: rgb(255, 161, 90); fill-opacity: 0.6; stroke-width: 0; opacity: 1;"/><path class="sankey-link" d="M15,624.483870967742C570,624.483870967742 570,495.1935483870973 1125,495.1935483870973L1125,500.4193548387102C570,500.4193548387102 570,629.7096774193549 15,629.7096774193549Z" style="stroke: rgb(68, 68, 68); stroke-opacity: 1; fill: rgb(255, 161, 90); fill-opacity: 0.6; stroke-width: 0; opacity: 1;"/><path class="sankey-link" d="M15,638.4193548387098C570,638.4193548387098 570,698.0322580645163 1125,698.0322580645163L1125,701.5161290322583C570,701.5161290322583 570,641.9032258064517 15,641.9032258064517Z" style="stroke: rgb(68, 68, 68); stroke-opacity: 1; fill: rgb(255, 161, 90); fill-opacity: 0.6; stroke-width: 0; opacity: 1;"/><path class="sankey-link" d="M15,636.6774193548388C570,636.6774193548388 570,645.387096774194 1125,645.387096774194L1125,647.129032258065C570,647.129032258065 570,638.4193548387098 15,638.4193548387098Z" style="stroke: rgb(68, 68, 68); stroke-opacity: 1; fill: rgb(255, 161, 90); fill-opacity: 0.6; stroke-width: 0; opacity: 1;"/><path class="sankey-link" d="M15,629.7096774193549C570,629.7096774193549 570,592.0645161290328 1125,592.0645161290328L1125,599.0322580645167C570,599.0322580645167 570,636.6774193548388 15,636.6774193548388Z" style="stroke: rgb(68, 68, 68); stroke-opacity: 1; fill: rgb(255, 161, 90); fill-opacity: 0.6; stroke-width: 0; opacity: 1;"/><path class="sankey-link" d="M15,300.3870967741937C570,300.3870967741937 570,391.3548387096779 1125,391.3548387096779L1125,393.09677419354887C570,393.09677419354887 570,302.1290322580647 15,302.1290322580647Z" style="stroke: rgb(68, 68, 68); stroke-opacity: 1; fill: rgb(171, 99, 250); fill-opacity: 0.6; stroke-width: 0; opacity: 1;"/><path class="sankey-link" d="M15,260.3225806451615C570,260.3225806451615 570,55.06451612903251 1125,55.06451612903251L1125,62.032258064516384C570,62.032258064516384 570,267.2903225806454 15,267.2903225806454Z" style="stroke: rgb(68, 68, 68); stroke-opacity: 1; fill: rgb(171, 99, 250); fill-opacity: 0.6; stroke-width: 0; opacity: 1;"/><path class="sankey-link" d="M15,258.58064516129053C570,258.58064516129053 570,13.935483870968083 1125,13.935483870968083L1125,15.677419354839051C570,15.677419354839051 570,260.3225806451615 15,260.3225806451615Z" style="stroke: rgb(68, 68, 68); stroke-opacity: 1; fill: rgb(171, 99, 250); fill-opacity: 0.6; stroke-width: 0; opacity: 1;"/><path class="sankey-link" d="M15,274.2580645161292C570,274.2580645161292 570,195.87096774193586 1125,195.87096774193586L1125,209.8064516129036C570,209.8064516129036 570,288.1935483870969 15,288.1935483870969Z" style="stroke: rgb(68, 68, 68); stroke-opacity: 1; fill: rgb(171, 99, 250); fill-opacity: 0.6; stroke-width: 0; opacity: 1;"/><path class="sankey-link" d="M15,302.1290322580647C570,302.1290322580647 570,458.6129032258069 1125,458.6129032258069L1125,463.83870967741984C570,463.83870967741984 570,307.3548387096776 15,307.3548387096776Z" style="stroke: rgb(68, 68, 68); stroke-opacity: 1; fill: rgb(171, 99, 250); fill-opacity: 0.6; stroke-width: 0; opacity: 1;"/><path class="sankey-link" d="M15,314.3225806451615C570,314.3225806451615 570,692.8064516129034 1125,692.8064516129034L1125,694.5483870967744C570,694.5483870967744 570,316.0645161290325 15,316.0645161290325Z" style="stroke: rgb(68, 68, 68); stroke-opacity: 1; fill: rgb(171, 99, 250); fill-opacity: 0.6; stroke-width: 0; opacity: 1;"/><path class="sankey-link" d="M15,310.83870967741956C570,310.83870967741956 570,633.1935483870972 1125,633.1935483870972L1125,634.9354838709681C570,634.9354838709681 570,312.58064516129053 15,312.58064516129053Z" style="stroke: rgb(68, 68, 68); stroke-opacity: 1; fill: rgb(171, 99, 250); fill-opacity: 0.6; stroke-width: 0; opacity: 1;"/><path class="sankey-link" d="M15,267.29032258064535C570,267.29032258064535 570,128.61290322580675 1125,128.61290322580675L1125,135.5806451612906C570,135.5806451612906 570,274.25806451612925 15,274.25806451612925Z" style="stroke: rgb(68, 68, 68); stroke-opacity: 1; fill: rgb(171, 99, 250); fill-opacity: 0.6; stroke-width: 0; opacity: 1;"/><path class="sankey-link" d="M15,312.58064516129053C570,312.58064516129053 570,669.0967741935488 1125,669.0967741935488L1125,670.8387096774197C570,670.8387096774197 570,314.3225806451615 15,314.3225806451615Z" style="stroke: rgb(68, 68, 68); stroke-opacity: 1; fill: rgb(171, 99, 250); fill-opacity: 0.6; stroke-width: 0; opacity: 1;"/><path class="sankey-link" d="M15,307.3548387096776C570,307.3548387096776 570,543.2903225806456 1125,543.2903225806456L1125,546.7741935483875C570,546.7741935483875 570,310.83870967741956 15,310.83870967741956Z" style="stroke: rgb(68, 68, 68); stroke-opacity: 1; fill: rgb(171, 99, 250); fill-opacity: 0.6; stroke-width: 0; opacity: 1;"/><path class="sankey-link" d="M15,288.19354838709694C570,288.19354838709694 570,306.677419354839 1125,306.677419354839L1125,318.87096774193583C570,318.87096774193583 570,300.38709677419376 15,300.38709677419376Z" style="stroke: rgb(68, 68, 68); stroke-opacity: 1; fill: rgb(171, 99, 250); fill-opacity: 0.6; stroke-width: 0; opacity: 1;"/><path class="sankey-link" d="M15,159.967741935484C570,159.967741935484 570,370.4516129032263 1125,370.4516129032263L1125,391.3548387096779C570,391.3548387096779 570,180.8709677419356 15,180.8709677419356Z" style="stroke: rgb(68, 68, 68); stroke-opacity: 1; fill: rgb(239, 85, 59); fill-opacity: 0.6; stroke-width: 0; opacity: 1;"/><path class="sankey-link" d="M15,58.935483870967914C570,58.935483870967914 570,41.12903225806477 1125,41.12903225806477L1125,55.06451612903251C570,55.06451612903251 570,72.87096774193566 15,72.87096774193566Z" style="stroke: rgb(68, 68, 68); stroke-opacity: 1; fill: rgb(239, 85, 59); fill-opacity: 0.6; stroke-width: 0; opacity: 1;"/><path class="sankey-link" d="M15,45.00000000000017C570,45.00000000000017 570,3.410605131648481e-13 1125,3.410605131648481e-13L1125,13.935483870968083C570,13.935483870968083 570,58.935483870967914 15,58.935483870967914Z" style="stroke: rgb(68, 68, 68); stroke-opacity: 1; fill: rgb(239, 85, 59); fill-opacity: 0.6; stroke-width: 0; opacity: 1;"/><path class="sankey-link" d="M15,97.2580645161292C570,97.2580645161292 570,164.51612903225845 1125,164.51612903225845L1125,195.87096774193589C570,195.87096774193589 570,128.6129032258066 15,128.6129032258066Z" style="stroke: rgb(68, 68, 68); stroke-opacity: 1; fill: rgb(239, 85, 59); fill-opacity: 0.6; stroke-width: 0; opacity: 1;"/><path class="sankey-link" d="M15,180.87096774193563C570,180.87096774193563 570,432.4838709677424 1125,432.4838709677424L1125,458.6129032258069C570,458.6129032258069 570,207.00000000000014 15,207.00000000000014Z" style="stroke: rgb(68, 68, 68); stroke-opacity: 1; fill: rgb(239, 85, 59); fill-opacity: 0.6; stroke-width: 0; opacity: 1;"/><path class="sankey-link" d="M15,72.87096774193566C570,72.87096774193566 570,84.0000000000002 1125,84.0000000000002L1125,92.70967741935505C570,92.70967741935505 570,81.5806451612905 15,81.5806451612905Z" style="stroke: rgb(68, 68, 68); stroke-opacity: 1; fill: rgb(239, 85, 59); fill-opacity: 0.6; stroke-width: 0; opacity: 1;"/><path class="sankey-link" d="M15,231.38709677419368C570,231.38709677419368 570,622.7419354838713 1125,622.7419354838713L1125,633.1935483870972C570,633.1935483870972 570,241.83870967741947 15,241.83870967741947Z" style="stroke: rgb(68, 68, 68); stroke-opacity: 1; fill: rgb(239, 85, 59); fill-opacity: 0.6; stroke-width: 0; opacity: 1;"/><path class="sankey-link" d="M15,81.58064516129049C570,81.58064516129049 570,112.93548387096803 1125,112.93548387096803L1125,128.61290322580675C570,128.61290322580675 570,97.25806451612921 15,97.25806451612921Z" style="stroke: rgb(68, 68, 68); stroke-opacity: 1; fill: rgb(239, 85, 59); fill-opacity: 0.6; stroke-width: 0; opacity: 1;"/><path class="sankey-link" d="M15,241.83870967741947C570,241.83870967741947 570,667.3548387096778 1125,667.3548387096778L1125,669.0967741935488C570,669.0967741935488 570,243.58064516129045 15,243.58064516129045Z" style="stroke: rgb(68, 68, 68); stroke-opacity: 1; fill: rgb(239, 85, 59); fill-opacity: 0.6; stroke-width: 0; opacity: 1;"/><path class="sankey-link" d="M15,207.00000000000014C570,207.00000000000014 570,518.903225806452 1125,518.903225806452L1125,543.2903225806457C570,543.2903225806457 570,231.38709677419368 15,231.38709677419368Z" style="stroke: rgb(68, 68, 68); stroke-opacity: 1; fill: rgb(239, 85, 59); fill-opacity: 0.6; stroke-width: 0; opacity: 1;"/><path class="sankey-link" d="M15,128.6129032258066C570,128.6129032258066 570,275.32258064516157 1125,275.32258064516157L1125,306.677419354839C570,306.677419354839 570,159.96774193548404 15,159.96774193548404Z" style="stroke: rgb(68, 68, 68); stroke-opacity: 1; fill: rgb(239, 85, 59); fill-opacity: 0.6; stroke-width: 0; opacity: 1;"/><path class="sankey-link" d="M15,565.9354838709678C570,565.9354838709678 570,407.0322580645166 1125,407.0322580645166L1125,410.51612903225856C570,410.51612903225856 570,569.4193548387098 15,569.4193548387098Z" style="stroke: rgb(68, 68, 68); stroke-opacity: 1; fill: rgb(182, 232, 128); fill-opacity: 0.6; stroke-width: 0; opacity: 1;"/><path class="sankey-link" d="M15,546.7741935483871C570,546.7741935483871 570,65.51612903225832 1125,65.51612903225832L1125,69.00000000000024C570,69.00000000000024 570,550.258064516129 15,550.258064516129Z" style="stroke: rgb(68, 68, 68); stroke-opacity: 1; fill: rgb(182, 232, 128); fill-opacity: 0.6; stroke-width: 0; opacity: 1;"/><path class="sankey-link" d="M15,545.0322580645161C570,545.0322580645161 570,24.38709677419389 1125,24.38709677419389L1125,26.129032258064857C570,26.129032258064857 570,546.7741935483871 15,546.7741935483871Z" style="stroke: rgb(68, 68, 68); stroke-opacity: 1; fill: rgb(182, 232, 128); fill-opacity: 0.6; stroke-width: 0; opacity: 1;"/><path class="sankey-link" d="M15,553.741935483871C570,553.741935483871 570,244.64516129032296 1125,244.64516129032296L1125,251.6129032258068C570,251.6129032258068 570,560.7096774193549 15,560.7096774193549Z" style="stroke: rgb(68, 68, 68); stroke-opacity: 1; fill: rgb(182, 232, 128); fill-opacity: 0.6; stroke-width: 0; opacity: 1;"/><path class="sankey-link" d="M15,569.4193548387098C570,569.4193548387098 570,484.7419354838715 1125,484.7419354838715L1125,495.19354838709734C570,495.19354838709734 570,579.8709677419356 15,579.8709677419356Z" style="stroke: rgb(68, 68, 68); stroke-opacity: 1; fill: rgb(182, 232, 128); fill-opacity: 0.6; stroke-width: 0; opacity: 1;"/><path class="sankey-link" d="M15,597.2903225806454C570,597.2903225806454 570,696.2903225806454 1125,696.2903225806454L1125,698.0322580645163C570,698.0322580645163 570,599.0322580645163 15,599.0322580645163Z" style="stroke: rgb(68, 68, 68); stroke-opacity: 1; fill: rgb(182, 232, 128); fill-opacity: 0.6; stroke-width: 0; opacity: 1;"/><path class="sankey-link" d="M15,550.258064516129C570,550.258064516129 570,96.19354838709695 1125,96.19354838709695L1125,97.93548387096793C570,97.93548387096793 570,552 15,552Z" style="stroke: rgb(68, 68, 68); stroke-opacity: 1; fill: rgb(182, 232, 128); fill-opacity: 0.6; stroke-width: 0; opacity: 1;"/><path class="sankey-link" d="M15,592.0645161290324C570,592.0645161290324 570,640.1612903225811 1125,640.1612903225811L1125,645.387096774194C570,645.387096774194 570,597.2903225806454 15,597.2903225806454Z" style="stroke: rgb(68, 68, 68); stroke-opacity: 1; fill: rgb(182, 232, 128); fill-opacity: 0.6; stroke-width: 0; opacity: 1;"/><path class="sankey-link" d="M15,552C570,552 570,147.7741935483874 1125,147.7741935483874L1125,149.51612903225836C570,149.51612903225836 570,553.741935483871 15,553.741935483871Z" style="stroke: rgb(68, 68, 68); stroke-opacity: 1; fill: rgb(182, 232, 128); fill-opacity: 0.6; stroke-width: 0; opacity: 1;"/><path class="sankey-link" d="M15,579.8709677419356C570,579.8709677419356 570,579.8709677419359 1125,579.8709677419359L1125,592.0645161290328C570,592.0645161290328 570,592.0645161290324 15,592.0645161290324Z" style="stroke: rgb(68, 68, 68); stroke-opacity: 1; fill: rgb(182, 232, 128); fill-opacity: 0.6; stroke-width: 0; opacity: 1;"/><path class="sankey-link" d="M15,560.7096774193549C570,560.7096774193549 570,343.25806451612937 1125,343.25806451612937L1125,348.4838709677423C570,348.4838709677423 570,565.9354838709678 15,565.9354838709678Z" style="stroke: rgb(68, 68, 68); stroke-opacity: 1; fill: rgb(182, 232, 128); fill-opacity: 0.6; stroke-width: 0; opacity: 1;"/><path class="sankey-link" d="M15,662.1290322580644C570,662.1290322580644 570,647.129032258065 1125,647.129032258065L1125,648.8709677419359C570,648.8709677419359 570,663.8709677419354 15,663.8709677419354Z" style="stroke: rgb(68, 68, 68); stroke-opacity: 1; fill: rgb(255, 151, 255); fill-opacity: 0.6; stroke-width: 0; opacity: 1;"/><path class="sankey-link" d="M15,660.3870967741934C570,660.3870967741934 570,599.0322580645167 1125,599.0322580645167L1125,600.7741935483876C570,600.7741935483876 570,662.1290322580644 15,662.1290322580644Z" style="stroke: rgb(68, 68, 68); stroke-opacity: 1; fill: rgb(255, 151, 255); fill-opacity: 0.6; stroke-width: 0; opacity: 1;"/><path class="sankey-link" d="M15,656.9032258064515C570,656.9032258064515 570,348.4838709677423 1125,348.4838709677423L1125,351.96774193548424C570,351.96774193548424 570,660.3870967741934 15,660.3870967741934Z" style="stroke: rgb(68, 68, 68); stroke-opacity: 1; fill: rgb(255, 151, 255); fill-opacity: 0.6; stroke-width: 0; opacity: 1;"/><path class="sankey-link" d="M15,718.258064516129C570,718.258064516129 570,718.258064516129 1125,718.258064516129L1125,720C570,720 570,720 15,720Z" style="stroke: rgb(68, 68, 68); stroke-opacity: 1; fill: rgb(255, 102, 146); fill-opacity: 0.6; stroke-width: 0; opacity: 1;"/><path class="sankey-link" d="M15,716.516129032258C570,716.516129032258 570,606.0000000000006 1125,606.0000000000006L1125,607.7419354838715C570,607.7419354838715 570,718.258064516129 15,718.258064516129Z" style="stroke: rgb(68, 68, 68); stroke-opacity: 1; fill: rgb(255, 102, 146); fill-opacity: 0.6; stroke-width: 0; opacity: 1;"/><path class="sankey-link" d="M15,714.7741935483871C570,714.7741935483871 570,353.7096774193552 1125,353.7096774193552L1125,355.4516129032262C570,355.4516129032262 570,716.516129032258 15,716.516129032258Z" style="stroke: rgb(68, 68, 68); stroke-opacity: 1; fill: rgb(255, 102, 146); fill-opacity: 0.6; stroke-width: 0; opacity: 1;"/></g><g class="sankey-node-set" style="cursor: move;"><g class="sankey-node" transform="translate(1125.000,370.452)" style="opacity: 1;"><rect class="node-rect" width="15" height="47.0322580645161" style="stroke-width: 0.5; stroke: rgb(0, 0, 0); stroke-opacity: 1; fill: rgb(128, 128, 128); fill-opacity: 1;"/><text class="node-label" data-notex="1" x="0" y="0" text-anchor="end" transform="translate(-3.25,27.71612903225805)" style="cursor: default; font-family: 'Open Sans', verdana, arial, sans-serif; font-size: 12px; fill: rgb(42, 63, 95); fill-opacity: 1; white-space: pre; text-shadow: white 1px 1px 1px, white -1px -1px 1px, white 1px -1px 1px, white -1px 1px 1px;">AggressiveChase</text></g><g class="sankey-node" transform="translate(1125.000,0.000)" style="opacity: 1;"><rect class="node-rect" width="15" height="26.129032258064427" style="stroke-width: 0.5; stroke: rgb(0, 0, 0); stroke-opacity: 1; fill: rgb(128, 128, 128); fill-opacity: 1;"/><text class="node-label" data-notex="1" x="0" y="0" text-anchor="end" transform="translate(-3.25,17.264516129032213)" style="cursor: default; font-family: 'Open Sans', verdana, arial, sans-serif; font-size: 12px; fill: rgb(42, 63, 95); fill-opacity: 1; white-space: pre; text-shadow: white 1px 1px 1px, white -1px -1px 1px, white 1px -1px 1px, white -1px 1px 1px;">SideAttack</text></g><g class="sankey-node" transform="translate(1125.000,164.516)" style="opacity: 1;"><rect class="node-rect" width="15" height="95.80645161290312" style="stroke-width: 0.5; stroke: rgb(0, 0, 0); stroke-opacity: 1; fill: rgb(128, 128, 128); fill-opacity: 1;"/><text class="node-label" data-notex="1" x="0" y="0" text-anchor="end" transform="translate(-3.25,52.10322580645156)" style="cursor: default; font-family: 'Open Sans', verdana, arial, sans-serif; font-size: 12px; fill: rgb(42, 63, 95); fill-opacity: 1; white-space: pre; text-shadow: white 1px 1px 1px, white -1px -1px 1px, white 1px -1px 1px, white -1px 1px 1px;">SideSniff1</text></g><g class="sankey-node" transform="translate(1125.000,716.516)" style="opacity: 1;"><rect class="node-rect" width="15" height="3.48387096774195" style="stroke-width: 0.5; stroke: rgb(0, 0, 0); stroke-opacity: 1; fill: rgb(128, 128, 128); fill-opacity: 1;"/><text class="node-label" data-notex="1" x="0" y="0" text-anchor="end" transform="translate(-3.25,5.941935483870974)" style="cursor: default; font-family: 'Open Sans', verdana, arial, sans-serif; font-size: 12px; fill: rgb(42, 63, 95); fill-opacity: 1; white-space: pre; text-shadow: white 1px 1px 1px, white -1px -1px 1px, white 1px -1px 1px, white -1px 1px 1px;">dig</text></g><g class="sankey-node" transform="translate(1125.000,432.484)" style="opacity: 1;"><rect class="node-rect" width="15" height="71.41935483870964" style="stroke-width: 0.5; stroke: rgb(0, 0, 0); stroke-opacity: 1; fill: rgb(128, 128, 128); fill-opacity: 1;"/><text class="node-label" data-notex="1" x="0" y="0" text-anchor="end" transform="translate(-3.25,39.90967741935482)" style="cursor: default; font-family: 'Open Sans', verdana, arial, sans-serif; font-size: 12px; fill: rgb(42, 63, 95); fill-opacity: 1; white-space: pre; text-shadow: white 1px 1px 1px, white -1px -1px 1px, white 1px -1px 1px, white -1px 1px 1px;">follow1</text></g><g class="sankey-node" transform="translate(1125.000,692.806)" style="opacity: 1;"><rect class="node-rect" width="15" height="8.709677419354648" style="stroke-width: 0.5; stroke: rgb(0, 0, 0); stroke-opacity: 1; fill: rgb(128, 128, 128); fill-opacity: 1;"/><text class="node-label" data-notex="1" x="0" y="0" text-anchor="end" transform="translate(-3.25,8.554838709677323)" style="cursor: default; font-family: 'Open Sans', verdana, arial, sans-serif; font-size: 12px; fill: rgb(42, 63, 95); fill-opacity: 1; white-space: pre; text-shadow: white 1px 1px 1px, white -1px -1px 1px, white 1px -1px 1px, white -1px 1px 1px;">groomfront</text></g><g class="sankey-node" transform="translate(1125.000,84.000)" style="opacity: 1;"><rect class="node-rect" width="15" height="13.935483870967829" style="stroke-width: 0.5; stroke: rgb(0, 0, 0); stroke-opacity: 1; fill: rgb(128, 128, 128); fill-opacity: 1;"/><text class="node-label" data-notex="1" x="0" y="0" text-anchor="end" transform="translate(-3.25,11.167741935483914)" style="cursor: default; font-family: 'Open Sans', verdana, arial, sans-serif; font-size: 12px; fill: rgb(42, 63, 95); fill-opacity: 1; white-space: pre; text-shadow: white 1px 1px 1px, white -1px -1px 1px, white 1px -1px 1px, white -1px 1px 1px;">nose2nose1</text></g><g class="sankey-node" transform="translate(1125.000,622.742)" style="opacity: 1;"><rect class="node-rect" width="15" height="29.612903225806463" style="stroke-width: 0.5; stroke: rgb(0, 0, 0); stroke-opacity: 1; fill: rgb(128, 128, 128); fill-opacity: 1;"/><text class="node-label" data-notex="1" x="0" y="0" text-anchor="end" transform="translate(-3.25,19.00645161290323)" style="cursor: default; font-family: 'Open Sans', verdana, arial, sans-serif; font-size: 12px; fill: rgb(42, 63, 95); fill-opacity: 1; white-space: pre; text-shadow: white 1px 1px 1px, white -1px -1px 1px, white 1px -1px 1px, white -1px 1px 1px;">nose2rear1</text></g><g class="sankey-node" transform="translate(1125.000,112.935)" style="opacity: 1;"><rect class="node-rect" width="15" height="36.58064516129042" style="stroke-width: 0.5; stroke: rgb(0, 0, 0); stroke-opacity: 1; fill: rgb(128, 128, 128); fill-opacity: 1;"/><text class="node-label" data-notex="1" x="0" y="0" text-anchor="end" transform="translate(-3.25,22.49032258064521)" style="cursor: default; font-family: 'Open Sans', verdana, arial, sans-serif; font-size: 12px; fill: rgb(42, 63, 95); fill-opacity: 1; white-space: pre; text-shadow: white 1px 1px 1px, white -1px -1px 1px, white 1px -1px 1px, white -1px 1px 1px;">nosey1</text></g><g class="sankey-node" transform="translate(1125.000,667.355)" style="opacity: 1;"><rect class="node-rect" width="15" height="10.451612903225623" style="stroke-width: 0.5; stroke: rgb(0, 0, 0); stroke-opacity: 1; fill: rgb(128, 128, 128); fill-opacity: 1;"/><text class="node-label" data-notex="1" x="0" y="0" text-anchor="end" transform="translate(-3.25,9.42580645161281)" style="cursor: default; font-family: 'Open Sans', verdana, arial, sans-serif; font-size: 12px; fill: rgb(42, 63, 95); fill-opacity: 1; white-space: pre; text-shadow: white 1px 1px 1px, white -1px -1px 1px, white 1px -1px 1px, white -1px 1px 1px;">sitcorner</text></g><g class="sankey-node" transform="translate(1125.000,518.903)" style="opacity: 1;"><rect class="node-rect" width="15" height="88.83870967741927" style="stroke-width: 0.5; stroke: rgb(0, 0, 0); stroke-opacity: 1; fill: rgb(128, 128, 128); fill-opacity: 1;"/><text class="node-label" data-notex="1" x="0" y="0" text-anchor="end" transform="translate(-3.25,48.61935483870964)" style="cursor: default; font-family: 'Open Sans', verdana, arial, sans-serif; font-size: 12px; fill: rgb(42, 63, 95); fill-opacity: 1; white-space: pre; text-shadow: white 1px 1px 1px, white -1px -1px 1px, white 1px -1px 1px, white -1px 1px 1px;">walk</text></g><g class="sankey-node" transform="translate(1125.000,275.323)" style="opacity: 1;"><rect class="node-rect" width="15" height="80.12903225806474" style="stroke-width: 0.5; stroke: rgb(0, 0, 0); stroke-opacity: 1; fill: rgb(128, 128, 128); fill-opacity: 1;"/><text class="node-label" data-notex="1" x="0" y="0" text-anchor="end" transform="translate(-3.25,44.26451612903237)" style="cursor: default; font-family: 'Open Sans', verdana, arial, sans-serif; font-size: 12px; fill: rgb(42, 63, 95); fill-opacity: 1; white-space: pre; text-shadow: white 1px 1px 1px, white -1px -1px 1px, white 1px -1px 1px, white -1px 1px 1px;">wallclimb</text></g><g class="sankey-node" transform="translate(1125.000,41.129)" style="opacity: 1;"><rect class="node-rect" width="15" height="27.87096774193543" style="stroke-width: 0.5; stroke: rgb(0, 0, 0); stroke-opacity: 1; fill: rgb(128, 128, 128); fill-opacity: 1;"/><text class="node-label" data-notex="1" x="0" y="0" text-anchor="end" transform="translate(-3.25,18.135483870967715)" style="cursor: default; font-family: 'Open Sans', verdana, arial, sans-serif; font-size: 12px; fill: rgb(42, 63, 95); fill-opacity: 1; white-space: pre; text-shadow: white 1px 1px 1px, white -1px -1px 1px, white 1px -1px 1px, white -1px 1px 1px;">BeingAttacked</text></g><g class="sankey-node" transform="translate(0.000,331.065)" style="opacity: 1;"><rect class="node-rect" width="15" height="97.54838709677398" style="stroke-width: 0.5; stroke: rgb(0, 0, 0); stroke-opacity: 1; fill: rgb(99, 110, 250); fill-opacity: 1;"/><text class="node-label" data-notex="1" x="0" y="0" text-anchor="start" transform="translate(18.25,52.97419354838699)" style="cursor: default; font-family: 'Open Sans', verdana, arial, sans-serif; font-size: 12px; fill: rgb(42, 63, 95); fill-opacity: 1; white-space: pre; text-shadow: white 1px 1px 1px, white -1px -1px 1px, white 1px -1px 1px, white -1px 1px 1px;">Cla</text></g><g class="sankey-node" transform="translate(0.000,45.000)" style="opacity: 1;"><rect class="node-rect" width="15" height="198.58064516129036" style="stroke-width: 0.5; stroke: rgb(0, 0, 0); stroke-opacity: 1; fill: rgb(239, 85, 59); fill-opacity: 1;"/><text class="node-label" data-notex="1" x="0" y="0" text-anchor="start" transform="translate(18.25,103.49032258064518)" style="cursor: default; font-family: 'Open Sans', verdana, arial, sans-serif; font-size: 12px; fill: rgb(42, 63, 95); fill-opacity: 1; white-space: pre; text-shadow: white 1px 1px 1px, white -1px -1px 1px, white 1px -1px 1px, white -1px 1px 1px;">VTA</text></g><g class="sankey-node" transform="translate(0.000,498.677)" style="opacity: 1;"><rect class="node-rect" width="15" height="31.354838709677438" style="stroke-width: 0.5; stroke: rgb(0, 0, 0); stroke-opacity: 1; fill: rgb(0, 204, 150); fill-opacity: 1;"/><text class="node-label" data-notex="1" x="0" y="0" text-anchor="start" transform="translate(18.25,19.877419354838718)" style="cursor: default; font-family: 'Open Sans', verdana, arial, sans-serif; font-size: 12px; fill: rgb(42, 63, 95); fill-opacity: 1; white-space: pre; text-shadow: white 1px 1px 1px, white -1px -1px 1px, white 1px -1px 1px, white -1px 1px 1px;">LC</text></g><g class="sankey-node" transform="translate(0.000,258.581)" style="opacity: 1;"><rect class="node-rect" width="15" height="57.48387096774195" style="stroke-width: 0.5; stroke: rgb(0, 0, 0); stroke-opacity: 1; fill: rgb(171, 99, 250); fill-opacity: 1;"/><text class="node-label" data-notex="1" x="0" y="0" text-anchor="start" transform="translate(18.25,32.94193548387098)" style="cursor: default; font-family: 'Open Sans', verdana, arial, sans-serif; font-size: 12px; fill: rgb(42, 63, 95); fill-opacity: 1; white-space: pre; text-shadow: white 1px 1px 1px, white -1px -1px 1px, white 1px -1px 1px, white -1px 1px 1px;">Str</text></g><g class="sankey-node" transform="translate(0.000,614.032)" style="opacity: 1;"><rect class="node-rect" width="15" height="27.870967741935374" style="stroke-width: 0.5; stroke: rgb(0, 0, 0); stroke-opacity: 1; fill: rgb(255, 161, 90); fill-opacity: 1;"/><text class="node-label" data-notex="1" x="0" y="0" text-anchor="start" transform="translate(18.25,18.135483870967686)" style="cursor: default; font-family: 'Open Sans', verdana, arial, sans-serif; font-size: 12px; fill: rgb(42, 63, 95); fill-opacity: 1; white-space: pre; text-shadow: white 1px 1px 1px, white -1px -1px 1px, white 1px -1px 1px, white -1px 1px 1px;">NAc</text></g><g class="sankey-node" transform="translate(0.000,678.871)" style="opacity: 1;"><rect class="node-rect" width="15" height="20.9032258064517" style="stroke-width: 0.5; stroke: rgb(0, 0, 0); stroke-opacity: 1; fill: rgb(25, 211, 243); fill-opacity: 1;"/><text class="node-label" data-notex="1" x="0" y="0" text-anchor="start" transform="translate(18.25,14.65161290322585)" style="cursor: default; font-family: 'Open Sans', verdana, arial, sans-serif; font-size: 12px; fill: rgb(42, 63, 95); fill-opacity: 1; white-space: pre; text-shadow: white 1px 1px 1px, white -1px -1px 1px, white 1px -1px 1px, white -1px 1px 1px;">BLA</text></g><g class="sankey-node" transform="translate(0.000,714.774)" style="opacity: 1;"><rect class="node-rect" width="15" height="5.225806451612925" style="stroke-width: 0.5; stroke: rgb(0, 0, 0); stroke-opacity: 1; fill: rgb(255, 102, 146); fill-opacity: 1;"/><text class="node-label" data-notex="1" x="0" y="0" text-anchor="start" transform="translate(18.25,6.812903225806462)" style="cursor: default; font-family: 'Open Sans', verdana, arial, sans-serif; font-size: 12px; fill: rgb(42, 63, 95); fill-opacity: 1; white-space: pre; text-shadow: white 1px 1px 1px, white -1px -1px 1px, white 1px -1px 1px, white -1px 1px 1px;">lHb</text></g><g class="sankey-node" transform="translate(0.000,545.032)" style="opacity: 1;"><rect class="node-rect" width="15" height="54" style="stroke-width: 0.5; stroke: rgb(0, 0, 0); stroke-opacity: 1; fill: rgb(182, 232, 128); fill-opacity: 1;"/><text class="node-label" data-notex="1" x="0" y="0" text-anchor="start" transform="translate(18.25,31.2)" style="cursor: default; font-family: 'Open Sans', verdana, arial, sans-serif; font-size: 12px; fill: rgb(42, 63, 95); fill-opacity: 1; white-space: pre; text-shadow: white 1px 1px 1px, white -1px -1px 1px, white 1px -1px 1px, white -1px 1px 1px;">cPFC</text></g><g class="sankey-node" transform="translate(0.000,656.903)" style="opacity: 1;"><rect class="node-rect" width="15" height="6.9677419354839" style="stroke-width: 0.5; stroke: rgb(0, 0, 0); stroke-opacity: 1; fill: rgb(255, 151, 255); fill-opacity: 1;"/><text class="node-label" data-notex="1" x="0" y="0" text-anchor="start" transform="translate(18.25,7.683870967741949)" style="cursor: default; font-family: 'Open Sans', verdana, arial, sans-serif; font-size: 12px; fill: rgb(42, 63, 95); fill-opacity: 1; white-space: pre; text-shadow: white 1px 1px 1px, white -1px -1px 1px, white 1px -1px 1px, white -1px 1px 1px;">dPAG</text></g><g class="sankey-node" transform="translate(0.000,443.613)" style="opacity: 1;"><rect class="node-rect" width="15" height="40.0645161290322" style="stroke-width: 0.5; stroke: rgb(0, 0, 0); stroke-opacity: 1; fill: rgb(254, 203, 82); fill-opacity: 1;"/><text class="node-label" data-notex="1" x="0" y="0" text-anchor="start" transform="translate(18.25,24.2322580645161)" style="cursor: default; font-family: 'Open Sans', verdana, arial, sans-serif; font-size: 12px; fill: rgb(42, 63, 95); fill-opacity: 1; white-space: pre; text-shadow: white 1px 1px 1px, white -1px -1px 1px, white 1px -1px 1px, white -1px 1px 1px;">LHyp</text></g></g></g><defs id="topdefs-1eeeac"><g class="clips"/></defs><g class="layer-above"><g class="imagelayer"/><g class="shapelayer"/></g><g class="infolayer"><g class="g-gtitle"/><g class="first-render"/></g></svg>