<svg class="main-svg" xmlns="http://www.w3.org/2000/svg" xmlns:xlink="http://www.w3.org/1999/xlink" width="1300" height="900" viewBox="0 0 1300 900" style=""><rect x="0" y="0" width="1300" height="900" style="fill: rgb(255, 255, 255); fill-opacity: 1;"/><defs id="defs-3cc4cb"><g class="clips"/><g class="gradients"/><g class="patterns"/></defs><g class="bglayer"/><g class="layer-below"><g class="imagelayer"/><g class="shapelayer"/></g><g class="cartesianlayer"/><g class="polarlayer"/><g class="smithlayer"/><g class="ternarylayer"/><g class="geolayer"/><g class="funnelarealayer"/><g class="pielayer"/><g class="iciclelayer"/><g class="treemaplayer"/><g class="sunburstlayer"/><g class="glimages"/><g class="sankey" transform="translate(80,100)matrix(1 0 0 1 0 0)" style="box-sizing: content-box; position: absolute; left: 0px; shape-rendering: geometricprecision; pointer-events: none;"><g class="sankey-links" style="fill: none;"><path class="sankey-link" d="M383.70000000000005,13.750000000000004C564.3000000000001,13.750000000000004 564.3000000000001,14.682000000000045 744.9000000000001,14.682000000000045L744.9000000000001,18.582000000000043C564.3000000000001,18.582000000000043 564.3000000000001,17.650000000000002 383.70000000000005,17.650000000000002Z" style="stroke: rgb(68, 68, 68); stroke-opacity: 1; fill: rgb(25, 211, 243); fill-opacity: 0.6; stroke-width: 0; opacity: 1;"/><path class="sankey-link" d="M383.70000000000005,17.650000000000006C564.3000000000001,17.650000000000006 564.3000000000001,156.204 744.9000000000001,156.204L744.9000000000001,160.10399999999998C564.3000000000001,160.10399999999998 564.3000000000001,21.550000000000004 383.70000000000005,21.550000000000004Z" style="stroke: rgb(68, 68, 68); stroke-opacity: 1; fill: rgb(25, 211, 243); fill-opacity: 0.6; stroke-width: 0; opacity: 1;"/><path class="sankey-link" d="M383.70000000000005,21.550000000000004C564.3000000000001,21.550000000000004 564.3000000000001,215.5239999999999 744.9000000000001,215.5239999999999L744.9000000000001,223.3239999999999C564.3000000000001,223.3239999999999 564.3000000000001,29.35 383.70000000000005,29.35Z" style="stroke: rgb(68, 68, 68); stroke-opacity: 1; fill: rgb(25, 211, 243); fill-opacity: 0.6; stroke-width: 0; opacity: 1;"/><path class="sankey-link" d="M383.70000000000005,29.350000000000005C564.3000000000001,29.350000000000005 564.3000000000001,342.71399999999994 744.9000000000001,342.71399999999994L744.9000000000001,346.6139999999999C564.3000000000001,346.6139999999999 564.3000000000001,33.25000000000001 383.70000000000005,33.25000000000001Z" style="stroke: rgb(68, 68, 68); stroke-opacity: 1; fill: rgb(25, 211, 243); fill-opacity: 0.6; stroke-width: 0; opacity: 1;"/><path class="sankey-link" d="M383.70000000000005,33.25000000000001C564.3000000000001,33.25000000000001 564.3000000000001,460.9240000000001 744.9000000000001,460.9240000000001L744.9000000000001,464.82400000000007C564.3000000000001,464.82400000000007 564.3000000000001,37.15000000000001 383.70000000000005,37.15000000000001Z" style="stroke: rgb(68, 68, 68); stroke-opacity: 1; fill: rgb(25, 211, 243); fill-opacity: 0.6; stroke-width: 0; opacity: 1;"/><path class="sankey-link" d="M383.70000000000005,37.150000000000006C564.3000000000001,37.150000000000006 564.3000000000001,614.18 744.9000000000001,614.18L744.9000000000001,623.2799999999999C564.3000000000001,623.2799999999999 564.3000000000001,46.25 383.70000000000005,46.25Z" style="stroke: rgb(68, 68, 68); stroke-opacity: 1; fill: rgb(25, 211, 243); fill-opacity: 0.6; stroke-width: 0; opacity: 1;"/><path class="sankey-link" d="M383.70000000000005,57.94599999999994C564.3000000000001,57.94599999999994 564.3000000000001,18.582000000000043 744.9000000000001,18.582000000000043L744.9000000000001,28.982000000000042C564.3000000000001,28.982000000000042 564.3000000000001,68.34599999999995 383.70000000000005,68.34599999999995Z" style="stroke: rgb(68, 68, 68); stroke-opacity: 1; fill: rgb(239, 85, 59); fill-opacity: 0.6; stroke-width: 0; opacity: 1;"/><path class="sankey-link" d="M383.70000000000005,68.34599999999995C564.3000000000001,68.34599999999995 564.3000000000001,90.554 744.9000000000001,90.554L744.9000000000001,93.154C564.3000000000001,93.154 564.3000000000001,70.94599999999994 383.70000000000005,70.94599999999994Z" style="stroke: rgb(68, 68, 68); stroke-opacity: 1; fill: rgb(239, 85, 59); fill-opacity: 0.6; stroke-width: 0; opacity: 1;"/><path class="sankey-link" d="M383.70000000000005,70.94599999999994C564.3000000000001,70.94599999999994 564.3000000000001,124.62199999999993 744.9000000000001,124.62199999999993L744.9000000000001,129.82199999999992C564.3000000000001,129.82199999999992 564.3000000000001,76.14599999999993 383.70000000000005,76.14599999999993Z" style="stroke: rgb(68, 68, 68); stroke-opacity: 1; fill: rgb(239, 85, 59); fill-opacity: 0.6; stroke-width: 0; opacity: 1;"/><path class="sankey-link" d="M383.70000000000005,76.14599999999994C564.3000000000001,76.14599999999994 564.3000000000001,160.104 744.9000000000001,160.104L744.9000000000001,165.304C564.3000000000001,165.304 564.3000000000001,81.34599999999993 383.70000000000005,81.34599999999993Z" style="stroke: rgb(68, 68, 68); stroke-opacity: 1; fill: rgb(239, 85, 59); fill-opacity: 0.6; stroke-width: 0; opacity: 1;"/><path class="sankey-link" d="M383.70000000000005,81.34599999999995C564.3000000000001,81.34599999999995 564.3000000000001,223.3239999999999 744.9000000000001,223.3239999999999L744.9000000000001,240.22399999999988C564.3000000000001,240.22399999999988 564.3000000000001,98.24599999999995 383.70000000000005,98.24599999999995Z" style="stroke: rgb(68, 68, 68); stroke-opacity: 1; fill: rgb(239, 85, 59); fill-opacity: 0.6; stroke-width: 0; opacity: 1;"/><path class="sankey-link" d="M383.70000000000005,98.24599999999995C564.3000000000001,98.24599999999995 564.3000000000001,346.6139999999999 744.9000000000001,346.6139999999999L744.9000000000001,368.71399999999994C564.3000000000001,368.71399999999994 564.3000000000001,120.34599999999995 383.70000000000005,120.34599999999995Z" style="stroke: rgb(68, 68, 68); stroke-opacity: 1; fill: rgb(239, 85, 59); fill-opacity: 0.6; stroke-width: 0; opacity: 1;"/><path class="sankey-link" d="M383.70000000000005,120.34599999999996C564.3000000000001,120.34599999999996 564.3000000000001,464.82400000000007 744.9000000000001,464.82400000000007L744.9000000000001,486.9240000000001C564.3000000000001,486.9240000000001 564.3000000000001,142.44599999999997 383.70000000000005,142.44599999999997Z" style="stroke: rgb(68, 68, 68); stroke-opacity: 1; fill: rgb(239, 85, 59); fill-opacity: 0.6; stroke-width: 0; opacity: 1;"/><path class="sankey-link" d="M383.70000000000005,142.44599999999994C564.3000000000001,142.44599999999994 564.3000000000001,623.28 744.9000000000001,623.28L744.9000000000001,641.48C564.3000000000001,641.48 564.3000000000001,160.64599999999993 383.70000000000005,160.64599999999993Z" style="stroke: rgb(68, 68, 68); stroke-opacity: 1; fill: rgb(239, 85, 59); fill-opacity: 0.6; stroke-width: 0; opacity: 1;"/><path class="sankey-link" d="M383.70000000000005,171.74399999999991C564.3000000000001,171.74399999999991 564.3000000000001,28.982000000000042 744.9000000000001,28.982000000000042L744.9000000000001,35.48200000000004C564.3000000000001,35.48200000000004 564.3000000000001,178.24399999999991 383.70000000000005,178.24399999999991Z" style="stroke: rgb(68, 68, 68); stroke-opacity: 1; fill: rgb(0, 204, 150); fill-opacity: 0.6; stroke-width: 0; opacity: 1;"/><path class="sankey-link" d="M383.70000000000005,178.24399999999991C564.3000000000001,178.24399999999991 564.3000000000001,93.154 744.9000000000001,93.154L744.9000000000001,94.45400000000001C564.3000000000001,94.45400000000001 564.3000000000001,179.54399999999993 383.70000000000005,179.54399999999993Z" style="stroke: rgb(68, 68, 68); stroke-opacity: 1; fill: rgb(0, 204, 150); fill-opacity: 0.6; stroke-width: 0; opacity: 1;"/><path class="sankey-link" d="M383.70000000000005,179.54399999999993C564.3000000000001,179.54399999999993 564.3000000000001,129.82199999999992 744.9000000000001,129.82199999999992L744.9000000000001,133.7219999999999C564.3000000000001,133.7219999999999 564.3000000000001,183.4439999999999 383.70000000000005,183.4439999999999Z" style="stroke: rgb(68, 68, 68); stroke-opacity: 1; fill: rgb(0, 204, 150); fill-opacity: 0.6; stroke-width: 0; opacity: 1;"/><path class="sankey-link" d="M383.70000000000005,183.44399999999993C564.3000000000001,183.44399999999993 564.3000000000001,165.304 744.9000000000001,165.304L744.9000000000001,170.504C564.3000000000001,170.504 564.3000000000001,188.64399999999992 383.70000000000005,188.64399999999992Z" style="stroke: rgb(68, 68, 68); stroke-opacity: 1; fill: rgb(0, 204, 150); fill-opacity: 0.6; stroke-width: 0; opacity: 1;"/><path class="sankey-link" d="M383.70000000000005,188.64399999999992C564.3000000000001,188.64399999999992 564.3000000000001,240.2239999999999 744.9000000000001,240.2239999999999L744.9000000000001,254.52399999999992C564.3000000000001,254.52399999999992 564.3000000000001,202.94399999999993 383.70000000000005,202.94399999999993Z" style="stroke: rgb(68, 68, 68); stroke-opacity: 1; fill: rgb(0, 204, 150); fill-opacity: 0.6; stroke-width: 0; opacity: 1;"/><path class="sankey-link" d="M383.70000000000005,202.94399999999993C564.3000000000001,202.94399999999993 564.3000000000001,368.71399999999994 744.9000000000001,368.71399999999994L744.9000000000001,376.5139999999999C564.3000000000001,376.5139999999999 564.3000000000001,210.74399999999994 383.70000000000005,210.74399999999994Z" style="stroke: rgb(68, 68, 68); stroke-opacity: 1; fill: rgb(0, 204, 150); fill-opacity: 0.6; stroke-width: 0; opacity: 1;"/><path class="sankey-link" d="M383.70000000000005,210.74399999999994C564.3000000000001,210.74399999999994 564.3000000000001,486.9240000000001 744.9000000000001,486.9240000000001L744.9000000000001,494.72400000000005C564.3000000000001,494.72400000000005 564.3000000000001,218.54399999999995 383.70000000000005,218.54399999999995Z" style="stroke: rgb(68, 68, 68); stroke-opacity: 1; fill: rgb(0, 204, 150); fill-opacity: 0.6; stroke-width: 0; opacity: 1;"/><path class="sankey-link" d="M383.70000000000005,218.54399999999995C564.3000000000001,218.54399999999995 564.3000000000001,641.48 744.9000000000001,641.48L744.9000000000001,657.0799999999999C564.3000000000001,657.0799999999999 564.3000000000001,234.14399999999998 383.70000000000005,234.14399999999998Z" style="stroke: rgb(68, 68, 68); stroke-opacity: 1; fill: rgb(0, 204, 150); fill-opacity: 0.6; stroke-width: 0; opacity: 1;"/><path class="sankey-link" d="M383.70000000000005,246.67200000000003C564.3000000000001,246.67200000000003 564.3000000000001,35.48200000000004 744.9000000000001,35.48200000000004L744.9000000000001,38.082000000000036C564.3000000000001,38.082000000000036 564.3000000000001,249.27200000000005 383.70000000000005,249.27200000000005Z" style="stroke: rgb(68, 68, 68); stroke-opacity: 1; fill: rgb(254, 203, 82); fill-opacity: 0.6; stroke-width: 0; opacity: 1;"/><path class="sankey-link" d="M383.70000000000005,249.27200000000002C564.3000000000001,249.27200000000002 564.3000000000001,94.454 744.9000000000001,94.454L744.9000000000001,95.754C564.3000000000001,95.754 564.3000000000001,250.57200000000003 383.70000000000005,250.57200000000003Z" style="stroke: rgb(68, 68, 68); stroke-opacity: 1; fill: rgb(254, 203, 82); fill-opacity: 0.6; stroke-width: 0; opacity: 1;"/><path class="sankey-link" d="M383.70000000000005,250.57200000000003C564.3000000000001,250.57200000000003 564.3000000000001,254.5239999999999 744.9000000000001,254.5239999999999L744.9000000000001,261.0239999999999C564.3000000000001,261.0239999999999 564.3000000000001,257.072 383.70000000000005,257.072Z" style="stroke: rgb(68, 68, 68); stroke-opacity: 1; fill: rgb(254, 203, 82); fill-opacity: 0.6; stroke-width: 0; opacity: 1;"/><path class="sankey-link" d="M383.70000000000005,257.072C564.3000000000001,257.072 564.3000000000001,376.51399999999995 744.9000000000001,376.51399999999995L744.9000000000001,383.01399999999995C564.3000000000001,383.01399999999995 564.3000000000001,263.572 383.70000000000005,263.572Z" style="stroke: rgb(68, 68, 68); stroke-opacity: 1; fill: rgb(254, 203, 82); fill-opacity: 0.6; stroke-width: 0; opacity: 1;"/><path class="sankey-link" d="M383.70000000000005,263.572C564.3000000000001,263.572 564.3000000000001,494.7240000000001 744.9000000000001,494.7240000000001L744.9000000000001,509.02400000000006C564.3000000000001,509.02400000000006 564.3000000000001,277.87199999999996 383.70000000000005,277.87199999999996Z" style="stroke: rgb(68, 68, 68); stroke-opacity: 1; fill: rgb(254, 203, 82); fill-opacity: 0.6; stroke-width: 0; opacity: 1;"/><path class="sankey-link" d="M383.70000000000005,291.0499999999998C564.3000000000001,291.0499999999998 564.3000000000001,38.08200000000004 744.9000000000001,38.08200000000004L744.9000000000001,41.98200000000005C564.3000000000001,41.98200000000005 564.3000000000001,294.94999999999976 383.70000000000005,294.94999999999976Z" style="stroke: rgb(68, 68, 68); stroke-opacity: 1; fill: rgb(255, 161, 90); fill-opacity: 0.6; stroke-width: 0; opacity: 1;"/><path class="sankey-link" d="M383.70000000000005,294.94999999999976C564.3000000000001,294.94999999999976 564.3000000000001,133.72199999999992 744.9000000000001,133.72199999999992L744.9000000000001,135.02199999999993C564.3000000000001,135.02199999999993 564.3000000000001,296.2499999999997 383.70000000000005,296.2499999999997Z" style="stroke: rgb(68, 68, 68); stroke-opacity: 1; fill: rgb(255, 161, 90); fill-opacity: 0.6; stroke-width: 0; opacity: 1;"/><path class="sankey-link" d="M383.70000000000005,296.2499999999998C564.3000000000001,296.2499999999998 564.3000000000001,170.504 744.9000000000001,170.504L744.9000000000001,171.804C564.3000000000001,171.804 564.3000000000001,297.5499999999997 383.70000000000005,297.5499999999997Z" style="stroke: rgb(68, 68, 68); stroke-opacity: 1; fill: rgb(255, 161, 90); fill-opacity: 0.6; stroke-width: 0; opacity: 1;"/><path class="sankey-link" d="M383.70000000000005,297.5499999999998C564.3000000000001,297.5499999999998 564.3000000000001,261.0239999999999 744.9000000000001,261.0239999999999L744.9000000000001,267.5239999999999C564.3000000000001,267.5239999999999 564.3000000000001,304.0499999999998 383.70000000000005,304.0499999999998Z" style="stroke: rgb(68, 68, 68); stroke-opacity: 1; fill: rgb(255, 161, 90); fill-opacity: 0.6; stroke-width: 0; opacity: 1;"/><path class="sankey-link" d="M383.70000000000005,304.0499999999998C564.3000000000001,304.0499999999998 564.3000000000001,383.01399999999995 744.9000000000001,383.01399999999995L744.9000000000001,386.91399999999993C564.3000000000001,386.91399999999993 564.3000000000001,307.94999999999976 383.70000000000005,307.94999999999976Z" style="stroke: rgb(68, 68, 68); stroke-opacity: 1; fill: rgb(255, 161, 90); fill-opacity: 0.6; stroke-width: 0; opacity: 1;"/><path class="sankey-link" d="M383.70000000000005,307.94999999999976C564.3000000000001,307.94999999999976 564.3000000000001,509.0240000000001 744.9000000000001,509.0240000000001L744.9000000000001,514.2240000000002C564.3000000000001,514.2240000000002 564.3000000000001,313.1499999999998 383.70000000000005,313.1499999999998Z" style="stroke: rgb(68, 68, 68); stroke-opacity: 1; fill: rgb(255, 161, 90); fill-opacity: 0.6; stroke-width: 0; opacity: 1;"/><path class="sankey-link" d="M383.70000000000005,313.14999999999975C564.3000000000001,313.14999999999975 564.3000000000001,657.08 744.9000000000001,657.08L744.9000000000001,664.88C564.3000000000001,664.88 564.3000000000001,320.9499999999997 383.70000000000005,320.9499999999997Z" style="stroke: rgb(68, 68, 68); stroke-opacity: 1; fill: rgb(255, 161, 90); fill-opacity: 0.6; stroke-width: 0; opacity: 1;"/><path class="sankey-link" d="M383.70000000000005,332.8280000000001C564.3000000000001,332.8280000000001 564.3000000000001,41.98200000000004 744.9000000000001,41.98200000000004L744.9000000000001,48.48200000000004C564.3000000000001,48.48200000000004 564.3000000000001,339.3280000000001 383.70000000000005,339.3280000000001Z" style="stroke: rgb(68, 68, 68); stroke-opacity: 1; fill: rgb(171, 99, 250); fill-opacity: 0.6; stroke-width: 0; opacity: 1;"/><path class="sankey-link" d="M383.70000000000005,339.3280000000001C564.3000000000001,339.3280000000001 564.3000000000001,95.75399999999999 744.9000000000001,95.75399999999999L744.9000000000001,98.35399999999998C564.3000000000001,98.35399999999998 564.3000000000001,341.9280000000001 383.70000000000005,341.9280000000001Z" style="stroke: rgb(68, 68, 68); stroke-opacity: 1; fill: rgb(171, 99, 250); fill-opacity: 0.6; stroke-width: 0; opacity: 1;"/><path class="sankey-link" d="M383.70000000000005,341.9280000000001C564.3000000000001,341.9280000000001 564.3000000000001,135.02199999999993 744.9000000000001,135.02199999999993L744.9000000000001,140.22199999999992C564.3000000000001,140.22199999999992 564.3000000000001,347.12800000000016 383.70000000000005,347.12800000000016Z" style="stroke: rgb(68, 68, 68); stroke-opacity: 1; fill: rgb(171, 99, 250); fill-opacity: 0.6; stroke-width: 0; opacity: 1;"/><path class="sankey-link" d="M383.70000000000005,347.1280000000001C564.3000000000001,347.1280000000001 564.3000000000001,171.804 744.9000000000001,171.804L744.9000000000001,179.604C564.3000000000001,179.604 564.3000000000001,354.92800000000005 383.70000000000005,354.92800000000005Z" style="stroke: rgb(68, 68, 68); stroke-opacity: 1; fill: rgb(171, 99, 250); fill-opacity: 0.6; stroke-width: 0; opacity: 1;"/><path class="sankey-link" d="M383.70000000000005,354.9280000000001C564.3000000000001,354.9280000000001 564.3000000000001,267.5239999999999 744.9000000000001,267.5239999999999L744.9000000000001,283.1239999999999C564.3000000000001,283.1239999999999 564.3000000000001,370.52800000000013 383.70000000000005,370.52800000000013Z" style="stroke: rgb(68, 68, 68); stroke-opacity: 1; fill: rgb(171, 99, 250); fill-opacity: 0.6; stroke-width: 0; opacity: 1;"/><path class="sankey-link" d="M383.70000000000005,370.52800000000013C564.3000000000001,370.52800000000013 564.3000000000001,386.91399999999993 744.9000000000001,386.91399999999993L744.9000000000001,406.41399999999993C564.3000000000001,406.41399999999993 564.3000000000001,390.02800000000013 383.70000000000005,390.02800000000013Z" style="stroke: rgb(68, 68, 68); stroke-opacity: 1; fill: rgb(171, 99, 250); fill-opacity: 0.6; stroke-width: 0; opacity: 1;"/><path class="sankey-link" d="M383.70000000000005,390.02800000000013C564.3000000000001,390.02800000000013 564.3000000000001,514.2240000000002 744.9000000000001,514.2240000000002L744.9000000000001,536.3240000000001C564.3000000000001,536.3240000000001 564.3000000000001,412.12800000000016 383.70000000000005,412.12800000000016Z" style="stroke: rgb(68, 68, 68); stroke-opacity: 1; fill: rgb(171, 99, 250); fill-opacity: 0.6; stroke-width: 0; opacity: 1;"/><path class="sankey-link" d="M383.70000000000005,412.12800000000016C564.3000000000001,412.12800000000016 564.3000000000001,664.88 744.9000000000001,664.88L744.9000000000001,681.7800000000001C564.3000000000001,681.7800000000001 564.3000000000001,429.02800000000013 383.70000000000005,429.02800000000013Z" style="stroke: rgb(68, 68, 68); stroke-opacity: 1; fill: rgb(171, 99, 250); fill-opacity: 0.6; stroke-width: 0; opacity: 1;"/><path class="sankey-link" d="M383.70000000000005,438.74800000000005C564.3000000000001,438.74800000000005 564.3000000000001,48.48200000000004 744.9000000000001,48.48200000000004L744.9000000000001,67.98200000000004C564.3000000000001,67.98200000000004 564.3000000000001,458.24800000000005 383.70000000000005,458.24800000000005Z" style="stroke: rgb(68, 68, 68); stroke-opacity: 1; fill: rgb(99, 110, 250); fill-opacity: 0.6; stroke-width: 0; opacity: 1;"/><path class="sankey-link" d="M383.70000000000005,458.24800000000005C564.3000000000001,458.24800000000005 564.3000000000001,98.35399999999998 744.9000000000001,98.35399999999998L744.9000000000001,108.75399999999999C564.3000000000001,108.75399999999999 564.3000000000001,468.648 383.70000000000005,468.648Z" style="stroke: rgb(68, 68, 68); stroke-opacity: 1; fill: rgb(99, 110, 250); fill-opacity: 0.6; stroke-width: 0; opacity: 1;"/><path class="sankey-link" d="M383.70000000000005,468.648C564.3000000000001,468.648 564.3000000000001,140.22199999999992 744.9000000000001,140.22199999999992L744.9000000000001,141.52199999999993C564.3000000000001,141.52199999999993 564.3000000000001,469.948 383.70000000000005,469.948Z" style="stroke: rgb(68, 68, 68); stroke-opacity: 1; fill: rgb(99, 110, 250); fill-opacity: 0.6; stroke-width: 0; opacity: 1;"/><path class="sankey-link" d="M383.70000000000005,469.94800000000004C564.3000000000001,469.94800000000004 564.3000000000001,179.604 744.9000000000001,179.604L744.9000000000001,187.40400000000002C564.3000000000001,187.40400000000002 564.3000000000001,477.748 383.70000000000005,477.748Z" style="stroke: rgb(68, 68, 68); stroke-opacity: 1; fill: rgb(99, 110, 250); fill-opacity: 0.6; stroke-width: 0; opacity: 1;"/><path class="sankey-link" d="M383.70000000000005,477.74800000000005C564.3000000000001,477.74800000000005 564.3000000000001,283.1239999999999 744.9000000000001,283.1239999999999L744.9000000000001,314.32399999999996C564.3000000000001,314.32399999999996 564.3000000000001,508.9480000000001 383.70000000000005,508.9480000000001Z" style="stroke: rgb(68, 68, 68); stroke-opacity: 1; fill: rgb(99, 110, 250); fill-opacity: 0.6; stroke-width: 0; opacity: 1;"/><path class="sankey-link" d="M383.70000000000005,508.94800000000004C564.3000000000001,508.94800000000004 564.3000000000001,406.41399999999993 744.9000000000001,406.41399999999993L744.9000000000001,428.51399999999995C564.3000000000001,428.51399999999995 564.3000000000001,531.048 383.70000000000005,531.048Z" style="stroke: rgb(68, 68, 68); stroke-opacity: 1; fill: rgb(99, 110, 250); fill-opacity: 0.6; stroke-width: 0; opacity: 1;"/><path class="sankey-link" d="M383.70000000000005,531.048C564.3000000000001,531.048 564.3000000000001,536.3240000000002 744.9000000000001,536.3240000000002L744.9000000000001,574.0240000000002C564.3000000000001,574.0240000000002 564.3000000000001,568.748 383.70000000000005,568.748Z" style="stroke: rgb(68, 68, 68); stroke-opacity: 1; fill: rgb(99, 110, 250); fill-opacity: 0.6; stroke-width: 0; opacity: 1;"/><path class="sankey-link" d="M383.70000000000005,568.748C564.3000000000001,568.748 564.3000000000001,681.78 744.9000000000001,681.78L744.9000000000001,689.5799999999999C564.3000000000001,689.5799999999999 564.3000000000001,576.548 383.70000000000005,576.548Z" style="stroke: rgb(68, 68, 68); stroke-opacity: 1; fill: rgb(99, 110, 250); fill-opacity: 0.6; stroke-width: 0; opacity: 1;"/><path class="sankey-link" d="M383.70000000000005,587.152C564.3000000000001,587.152 564.3000000000001,67.98200000000004 744.9000000000001,67.98200000000004L744.9000000000001,74.48200000000004C564.3000000000001,74.48200000000004 564.3000000000001,593.652 383.70000000000005,593.652Z" style="stroke: rgb(68, 68, 68); stroke-opacity: 1; fill: rgb(255, 151, 255); fill-opacity: 0.6; stroke-width: 0; opacity: 1;"/><path class="sankey-link" d="M383.70000000000005,593.652C564.3000000000001,593.652 564.3000000000001,108.75399999999999 744.9000000000001,108.75399999999999L744.9000000000001,110.054C564.3000000000001,110.054 564.3000000000001,594.952 383.70000000000005,594.952Z" style="stroke: rgb(68, 68, 68); stroke-opacity: 1; fill: rgb(255, 151, 255); fill-opacity: 0.6; stroke-width: 0; opacity: 1;"/><path class="sankey-link" d="M383.70000000000005,594.952C564.3000000000001,594.952 564.3000000000001,187.40400000000002 744.9000000000001,187.40400000000002L744.9000000000001,193.90400000000002C564.3000000000001,193.90400000000002 564.3000000000001,601.452 383.70000000000005,601.452Z" style="stroke: rgb(68, 68, 68); stroke-opacity: 1; fill: rgb(255, 151, 255); fill-opacity: 0.6; stroke-width: 0; opacity: 1;"/><path class="sankey-link" d="M383.70000000000005,601.452C564.3000000000001,601.452 564.3000000000001,314.3239999999999 744.9000000000001,314.3239999999999L744.9000000000001,318.2239999999999C564.3000000000001,318.2239999999999 564.3000000000001,605.3520000000001 383.70000000000005,605.3520000000001Z" style="stroke: rgb(68, 68, 68); stroke-opacity: 1; fill: rgb(255, 151, 255); fill-opacity: 0.6; stroke-width: 0; opacity: 1;"/><path class="sankey-link" d="M383.70000000000005,605.352C564.3000000000001,605.352 564.3000000000001,428.51399999999995 744.9000000000001,428.51399999999995L744.9000000000001,440.214C564.3000000000001,440.214 564.3000000000001,617.052 383.70000000000005,617.052Z" style="stroke: rgb(68, 68, 68); stroke-opacity: 1; fill: rgb(255, 151, 255); fill-opacity: 0.6; stroke-width: 0; opacity: 1;"/><path class="sankey-link" d="M383.70000000000005,617.052C564.3000000000001,617.052 564.3000000000001,574.0240000000002 744.9000000000001,574.0240000000002L744.9000000000001,589.6240000000001C564.3000000000001,589.6240000000001 564.3000000000001,632.6519999999999 383.70000000000005,632.6519999999999Z" style="stroke: rgb(68, 68, 68); stroke-opacity: 1; fill: rgb(255, 151, 255); fill-opacity: 0.6; stroke-width: 0; opacity: 1;"/><path class="sankey-link" d="M383.70000000000005,632.652C564.3000000000001,632.652 564.3000000000001,689.5799999999999 744.9000000000001,689.5799999999999L744.9000000000001,696.0799999999999C564.3000000000001,696.0799999999999 564.3000000000001,639.152 383.70000000000005,639.152Z" style="stroke: rgb(68, 68, 68); stroke-opacity: 1; fill: rgb(255, 151, 255); fill-opacity: 0.6; stroke-width: 0; opacity: 1;"/><path class="sankey-link" d="M383.70000000000005,651.8620000000003C564.3000000000001,651.8620000000003 564.3000000000001,74.48200000000004 744.9000000000001,74.48200000000004L744.9000000000001,75.78200000000005C564.3000000000001,75.78200000000005 564.3000000000001,653.1620000000003 383.70000000000005,653.1620000000003Z" style="stroke: rgb(68, 68, 68); stroke-opacity: 1; fill: rgb(255, 102, 146); fill-opacity: 0.6; stroke-width: 0; opacity: 1;"/><path class="sankey-link" d="M383.70000000000005,653.1620000000003C564.3000000000001,653.1620000000003 564.3000000000001,193.90400000000002 744.9000000000001,193.90400000000002L744.9000000000001,197.804C564.3000000000001,197.804 564.3000000000001,657.0620000000004 383.70000000000005,657.0620000000004Z" style="stroke: rgb(68, 68, 68); stroke-opacity: 1; fill: rgb(255, 102, 146); fill-opacity: 0.6; stroke-width: 0; opacity: 1;"/><path class="sankey-link" d="M383.70000000000005,657.0620000000002C564.3000000000001,657.0620000000002 564.3000000000001,318.2239999999999 744.9000000000001,318.2239999999999L744.9000000000001,327.3239999999999C564.3000000000001,327.3239999999999 564.3000000000001,666.1620000000001 383.70000000000005,666.1620000000001Z" style="stroke: rgb(68, 68, 68); stroke-opacity: 1; fill: rgb(255, 102, 146); fill-opacity: 0.6; stroke-width: 0; opacity: 1;"/><path class="sankey-link" d="M383.70000000000005,666.1620000000003C564.3000000000001,666.1620000000003 564.3000000000001,440.21399999999994 744.9000000000001,440.21399999999994L744.9000000000001,444.1139999999999C564.3000000000001,444.1139999999999 564.3000000000001,670.0620000000004 383.70000000000005,670.0620000000004Z" style="stroke: rgb(68, 68, 68); stroke-opacity: 1; fill: rgb(255, 102, 146); fill-opacity: 0.6; stroke-width: 0; opacity: 1;"/><path class="sankey-link" d="M383.70000000000005,670.0620000000002C564.3000000000001,670.0620000000002 564.3000000000001,589.6240000000003 744.9000000000001,589.6240000000003L744.9000000000001,597.4240000000002C564.3000000000001,597.4240000000002 564.3000000000001,677.8620000000002 383.70000000000005,677.8620000000002Z" style="stroke: rgb(68, 68, 68); stroke-opacity: 1; fill: rgb(255, 102, 146); fill-opacity: 0.6; stroke-width: 0; opacity: 1;"/><path class="sankey-link" d="M383.70000000000005,677.8620000000002C564.3000000000001,677.8620000000002 564.3000000000001,696.0799999999999 744.9000000000001,696.0799999999999L744.9000000000001,702.5799999999999C564.3000000000001,702.5799999999999 564.3000000000001,684.3620000000002 383.70000000000005,684.3620000000002Z" style="stroke: rgb(68, 68, 68); stroke-opacity: 1; fill: rgb(255, 102, 146); fill-opacity: 0.6; stroke-width: 0; opacity: 1;"/><path class="sankey-link" d="M383.70000000000005,697.9560000000001C564.3000000000001,697.9560000000001 564.3000000000001,197.80400000000003 744.9000000000001,197.80400000000003L744.9000000000001,200.40400000000005C564.3000000000001,200.40400000000005 564.3000000000001,700.556 383.70000000000005,700.556Z" style="stroke: rgb(68, 68, 68); stroke-opacity: 1; fill: rgb(182, 232, 128); fill-opacity: 0.6; stroke-width: 0; opacity: 1;"/><path class="sankey-link" d="M383.70000000000005,700.5560000000002C564.3000000000001,700.5560000000002 564.3000000000001,444.1139999999999 744.9000000000001,444.1139999999999L744.9000000000001,445.4139999999999C564.3000000000001,445.4139999999999 564.3000000000001,701.8560000000001 383.70000000000005,701.8560000000001Z" style="stroke: rgb(68, 68, 68); stroke-opacity: 1; fill: rgb(182, 232, 128); fill-opacity: 0.6; stroke-width: 0; opacity: 1;"/><path class="sankey-link" d="M383.70000000000005,701.8560000000001C564.3000000000001,701.8560000000001 564.3000000000001,597.4240000000002 744.9000000000001,597.4240000000002L744.9000000000001,598.7240000000002C564.3000000000001,598.7240000000002 564.3000000000001,703.1560000000001 383.70000000000005,703.1560000000001Z" style="stroke: rgb(68, 68, 68); stroke-opacity: 1; fill: rgb(182, 232, 128); fill-opacity: 0.6; stroke-width: 0; opacity: 1;"/><path class="sankey-link" d="M383.70000000000005,703.1560000000001C564.3000000000001,703.1560000000001 564.3000000000001,702.5799999999999 744.9000000000001,702.5799999999999L744.9000000000001,705.1799999999998C564.3000000000001,705.1799999999998 564.3000000000001,705.756 383.70000000000005,705.756Z" style="stroke: rgb(68, 68, 68); stroke-opacity: 1; fill: rgb(182, 232, 128); fill-opacity: 0.6; stroke-width: 0; opacity: 1;"/></g><g class="sankey-node-set" style="cursor: ns-resize;"><g class="sankey-node" transform="translate(744.900,14.682)" style="opacity: 1;"><rect class="node-rect" width="15" height="61.09999999999991" style="stroke-width: 0.5; stroke: rgb(0, 0, 0); stroke-opacity: 1; fill: rgb(128, 128, 128); fill-opacity: 1;"/><text class="node-label" data-notex="1" x="0" y="0" text-anchor="end" transform="translate(-3.25,34.74999999999996)" style="cursor: default; font-family: 'Open Sans', verdana, arial, sans-serif; font-size: 12px; fill: rgb(42, 63, 95); fill-opacity: 1; white-space: pre; text-shadow: white 1px 1px 1px, white -1px -1px 1px, white 1px -1px 1px, white -1px 1px 1px;">attacking</text></g><g class="sankey-node" transform="translate(744.900,90.554)" style="opacity: 1;"><rect class="node-rect" width="15" height="19.5" style="stroke-width: 0.5; stroke: rgb(0, 0, 0); stroke-opacity: 1; fill: rgb(128, 128, 128); fill-opacity: 1;"/><text class="node-label" data-notex="1" x="0" y="0" text-anchor="end" transform="translate(-3.25,13.95)" style="cursor: default; font-family: 'Open Sans', verdana, arial, sans-serif; font-size: 12px; fill: rgb(42, 63, 95); fill-opacity: 1; white-space: pre; text-shadow: white 1px 1px 1px, white -1px -1px 1px, white 1px -1px 1px, white -1px 1px 1px;">being_attack</text></g><g class="sankey-node" transform="translate(744.900,124.622)" style="opacity: 1;"><rect class="node-rect" width="15" height="16.90000000000009" style="stroke-width: 0.5; stroke: rgb(0, 0, 0); stroke-opacity: 1; fill: rgb(128, 128, 128); fill-opacity: 1;"/><text class="node-label" data-notex="1" x="0" y="0" text-anchor="end" transform="translate(-3.25,12.650000000000045)" style="cursor: default; font-family: 'Open Sans', verdana, arial, sans-serif; font-size: 12px; fill: rgb(42, 63, 95); fill-opacity: 1; white-space: pre; text-shadow: white 1px 1px 1px, white -1px -1px 1px, white 1px -1px 1px, white -1px 1px 1px;">dig</text></g><g class="sankey-node" transform="translate(744.900,156.204)" style="opacity: 1;"><rect class="node-rect" width="15" height="44.19999999999993" style="stroke-width: 0.5; stroke: rgb(0, 0, 0); stroke-opacity: 1; fill: rgb(128, 128, 128); fill-opacity: 1;"/><text class="node-label" data-notex="1" x="0" y="0" text-anchor="end" transform="translate(-3.25,26.299999999999965)" style="cursor: default; font-family: 'Open Sans', verdana, arial, sans-serif; font-size: 12px; fill: rgb(42, 63, 95); fill-opacity: 1; white-space: pre; text-shadow: white 1px 1px 1px, white -1px -1px 1px, white 1px -1px 1px, white -1px 1px 1px;">groom</text></g><g class="sankey-node" transform="translate(744.900,215.524)" style="opacity: 1;"><rect class="node-rect" width="15" height="111.80000000000018" style="stroke-width: 0.5; stroke: rgb(0, 0, 0); stroke-opacity: 1; fill: rgb(128, 128, 128); fill-opacity: 1;"/><text class="node-label" data-notex="1" x="0" y="0" text-anchor="end" transform="translate(-3.25,60.100000000000094)" style="cursor: default; font-family: 'Open Sans', verdana, arial, sans-serif; font-size: 12px; fill: rgb(42, 63, 95); fill-opacity: 1; white-space: pre; text-shadow: white 1px 1px 1px, white -1px -1px 1px, white 1px -1px 1px, white -1px 1px 1px;">move</text></g><g class="sankey-node" transform="translate(744.900,342.714)" style="opacity: 1;"><rect class="node-rect" width="15" height="102.70000000000005" style="stroke-width: 0.5; stroke: rgb(0, 0, 0); stroke-opacity: 1; fill: rgb(128, 128, 128); fill-opacity: 1;"/><text class="node-label" data-notex="1" x="0" y="0" text-anchor="end" transform="translate(-3.25,55.550000000000026)" style="cursor: default; font-family: 'Open Sans', verdana, arial, sans-serif; font-size: 12px; fill: rgb(42, 63, 95); fill-opacity: 1; white-space: pre; text-shadow: white 1px 1px 1px, white -1px -1px 1px, white 1px -1px 1px, white -1px 1px 1px;">sniff</text></g><g class="sankey-node" transform="translate(744.900,460.924)" style="opacity: 1;"><rect class="node-rect" width="15" height="137.79999999999973" style="stroke-width: 0.5; stroke: rgb(0, 0, 0); stroke-opacity: 1; fill: rgb(128, 128, 128); fill-opacity: 1;"/><text class="node-label" data-notex="1" x="0" y="0" text-anchor="end" transform="translate(-3.25,73.09999999999987)" style="cursor: default; font-family: 'Open Sans', verdana, arial, sans-serif; font-size: 12px; fill: rgb(42, 63, 95); fill-opacity: 1; white-space: pre; text-shadow: white 1px 1px 1px, white -1px -1px 1px, white 1px -1px 1px, white -1px 1px 1px;">social</text></g><g class="sankey-node" transform="translate(744.900,614.180)" style="opacity: 1;"><rect class="node-rect" width="15" height="91.00000000000023" style="stroke-width: 0.5; stroke: rgb(0, 0, 0); stroke-opacity: 1; fill: rgb(128, 128, 128); fill-opacity: 1;"/><text class="node-label" data-notex="1" x="0" y="0" text-anchor="end" transform="translate(-3.25,49.70000000000012)" style="cursor: default; font-family: 'Open Sans', verdana, arial, sans-serif; font-size: 12px; fill: rgb(42, 63, 95); fill-opacity: 1; white-space: pre; text-shadow: white 1px 1px 1px, white -1px -1px 1px, white 1px -1px 1px, white -1px 1px 1px;">still</text></g><g class="sankey-node" transform="translate(368.700,13.750)" style="opacity: 1;"><rect class="node-rect" width="15" height="32.5" style="stroke-width: 0.5; stroke: rgb(0, 0, 0); stroke-opacity: 1; fill: rgb(25, 211, 243); fill-opacity: 1;"/><text class="node-label" data-notex="1" x="0" y="0" text-anchor="start" transform="translate(18.25,20.45)" style="cursor: default; font-family: 'Open Sans', verdana, arial, sans-serif; font-size: 12px; fill: rgb(42, 63, 95); fill-opacity: 1; white-space: pre; text-shadow: white 1px 1px 1px, white -1px -1px 1px, white 1px -1px 1px, white -1px 1px 1px;">BLA</text></g><g class="sankey-node" transform="translate(368.700,57.946)" style="opacity: 1;"><rect class="node-rect" width="15" height="102.7000000000001" style="stroke-width: 0.5; stroke: rgb(0, 0, 0); stroke-opacity: 1; fill: rgb(239, 85, 59); fill-opacity: 1;"/><text class="node-label" data-notex="1" x="0" y="0" text-anchor="start" transform="translate(18.25,55.550000000000054)" style="cursor: default; font-family: 'Open Sans', verdana, arial, sans-serif; font-size: 12px; fill: rgb(42, 63, 95); fill-opacity: 1; white-space: pre; text-shadow: white 1px 1px 1px, white -1px -1px 1px, white 1px -1px 1px, white -1px 1px 1px;">Cla</text></g><g class="sankey-node" transform="translate(368.700,171.744)" style="opacity: 1;"><rect class="node-rect" width="15" height="62.400000000000205" style="stroke-width: 0.5; stroke: rgb(0, 0, 0); stroke-opacity: 1; fill: rgb(0, 204, 150); fill-opacity: 1;"/><text class="node-label" data-notex="1" x="0" y="0" text-anchor="start" transform="translate(18.25,35.400000000000105)" style="cursor: default; font-family: 'Open Sans', verdana, arial, sans-serif; font-size: 12px; fill: rgb(42, 63, 95); fill-opacity: 1; white-space: pre; text-shadow: white 1px 1px 1px, white -1px -1px 1px, white 1px -1px 1px, white -1px 1px 1px;">LC</text></g><g class="sankey-node" transform="translate(368.700,246.672)" style="opacity: 1;"><rect class="node-rect" width="15" height="31.200000000000045" style="stroke-width: 0.5; stroke: rgb(0, 0, 0); stroke-opacity: 1; fill: rgb(254, 203, 82); fill-opacity: 1;"/><text class="node-label" data-notex="1" x="0" y="0" text-anchor="start" transform="translate(18.25,19.800000000000022)" style="cursor: default; font-family: 'Open Sans', verdana, arial, sans-serif; font-size: 12px; fill: rgb(42, 63, 95); fill-opacity: 1; white-space: pre; text-shadow: white 1px 1px 1px, white -1px -1px 1px, white 1px -1px 1px, white -1px 1px 1px;">LHyp</text></g><g class="sankey-node" transform="translate(368.700,291.050)" style="opacity: 1;"><rect class="node-rect" width="15" height="29.900000000000546" style="stroke-width: 0.5; stroke: rgb(0, 0, 0); stroke-opacity: 1; fill: rgb(255, 161, 90); fill-opacity: 1;"/><text class="node-label" data-notex="1" x="0" y="0" text-anchor="start" transform="translate(18.25,19.150000000000272)" style="cursor: default; font-family: 'Open Sans', verdana, arial, sans-serif; font-size: 12px; fill: rgb(42, 63, 95); fill-opacity: 1; white-space: pre; text-shadow: white 1px 1px 1px, white -1px -1px 1px, white 1px -1px 1px, white -1px 1px 1px;">NAc</text></g><g class="sankey-node" transform="translate(368.700,332.828)" style="opacity: 1;"><rect class="node-rect" width="15" height="96.20000000000005" style="stroke-width: 0.5; stroke: rgb(0, 0, 0); stroke-opacity: 1; fill: rgb(171, 99, 250); fill-opacity: 1;"/><text class="node-label" data-notex="1" x="0" y="0" text-anchor="start" transform="translate(18.25,52.300000000000026)" style="cursor: default; font-family: 'Open Sans', verdana, arial, sans-serif; font-size: 12px; fill: rgb(42, 63, 95); fill-opacity: 1; white-space: pre; text-shadow: white 1px 1px 1px, white -1px -1px 1px, white 1px -1px 1px, white -1px 1px 1px;">Str</text></g><g class="sankey-node" transform="translate(368.700,438.748)" style="opacity: 1;"><rect class="node-rect" width="15" height="137.80000000000018" style="stroke-width: 0.5; stroke: rgb(0, 0, 0); stroke-opacity: 1; fill: rgb(99, 110, 250); fill-opacity: 1;"/><text class="node-label" data-notex="1" x="0" y="0" text-anchor="start" transform="translate(18.25,73.1000000000001)" style="cursor: default; font-family: 'Open Sans', verdana, arial, sans-serif; font-size: 12px; fill: rgb(42, 63, 95); fill-opacity: 1; white-space: pre; text-shadow: white 1px 1px 1px, white -1px -1px 1px, white 1px -1px 1px, white -1px 1px 1px;">VTA</text></g><g class="sankey-node" transform="translate(368.700,587.152)" style="opacity: 1;"><rect class="node-rect" width="15" height="52" style="stroke-width: 0.5; stroke: rgb(0, 0, 0); stroke-opacity: 1; fill: rgb(255, 151, 255); fill-opacity: 1;"/><text class="node-label" data-notex="1" x="0" y="0" text-anchor="start" transform="translate(18.25,30.2)" style="cursor: default; font-family: 'Open Sans', verdana, arial, sans-serif; font-size: 12px; fill: rgb(42, 63, 95); fill-opacity: 1; white-space: pre; text-shadow: white 1px 1px 1px, white -1px -1px 1px, white 1px -1px 1px, white -1px 1px 1px;">cPFC</text></g><g class="sankey-node" transform="translate(368.700,651.862)" style="opacity: 1;"><rect class="node-rect" width="15" height="32.499999999999545" style="stroke-width: 0.5; stroke: rgb(0, 0, 0); stroke-opacity: 1; fill: rgb(255, 102, 146); fill-opacity: 1;"/><text class="node-label" data-notex="1" x="0" y="0" text-anchor="start" transform="translate(18.25,20.449999999999772)" style="cursor: default; font-family: 'Open Sans', verdana, arial, sans-serif; font-size: 12px; fill: rgb(42, 63, 95); fill-opacity: 1; white-space: pre; text-shadow: white 1px 1px 1px, white -1px -1px 1px, white 1px -1px 1px, white -1px 1px 1px;">dPAG</text></g><g class="sankey-node" transform="translate(368.700,697.956)" style="opacity: 1;"><rect class="node-rect" width="15" height="7.7999999999999545" style="stroke-width: 0.5; stroke: rgb(0, 0, 0); stroke-opacity: 1; fill: rgb(182, 232, 128); fill-opacity: 1;"/><text class="node-label" data-notex="1" x="0" y="0" text-anchor="start" transform="translate(18.25,8.099999999999977)" style="cursor: default; font-family: 'Open Sans', verdana, arial, sans-serif; font-size: 12px; fill: rgb(42, 63, 95); fill-opacity: 1; white-space: pre; text-shadow: white 1px 1px 1px, white -1px -1px 1px, white 1px -1px 1px, white -1px 1px 1px;">lHb</text></g></g></g><defs id="topdefs-3cc4cb"><g class="clips"/></defs><g class="layer-above"><g class="imagelayer"/><g class="shapelayer"/></g><g class="infolayer"><g class="g-gtitle"/><g class="first-render"/></g></svg>