<svg class="main-svg" xmlns="http://www.w3.org/2000/svg" xmlns:xlink="http://www.w3.org/1999/xlink" width="1300" height="900" viewBox="0 0 1300 900" style=""><rect x="0" y="0" width="1300" height="900" style="fill: rgb(255, 255, 255); fill-opacity: 1;"/><defs id="defs-8002e9"><g class="clips"/><g class="gradients"/><g class="patterns"/></defs><g class="bglayer"/><g class="layer-below"><g class="imagelayer"/><g class="shapelayer"/></g><g class="cartesianlayer"/><g class="polarlayer"/><g class="smithlayer"/><g class="ternarylayer"/><g class="geolayer"/><g class="funnelarealayer"/><g class="pielayer"/><g class="iciclelayer"/><g class="treemaplayer"/><g class="sunburstlayer"/><g class="glimages"/><g class="sankey" transform="translate(80,100)matrix(1 0 0 1 0 0)" style="box-sizing: content-box; position: absolute; left: 0px; shape-rendering: geometricprecision; pointer-events: none;"><g class="sankey-links" style="fill: none;"><path class="sankey-link" d="M383.70000000000005,13.6636363636364C564.3000000000001,13.6636363636364 564.3000000000001,22.440209790209792 744.9000000000001,22.440209790209792L744.9000000000001,32.66748251748252C564.3000000000001,32.66748251748252 564.3000000000001,23.890909090909126 383.70000000000005,23.890909090909126Z" style="stroke: rgb(68, 68, 68); stroke-opacity: 1; fill: rgb(25, 211, 243); fill-opacity: 0.6; stroke-width: 0; opacity: 1;"/><path class="sankey-link" d="M383.70000000000005,23.890909090909126C564.3000000000001,23.890909090909126 564.3000000000001,268.31013986013977 744.9000000000001,268.31013986013977L744.9000000000001,280.582867132867C564.3000000000001,280.582867132867 564.3000000000001,36.1636363636364 383.70000000000005,36.1636363636364Z" style="stroke: rgb(68, 68, 68); stroke-opacity: 1; fill: rgb(25, 211, 243); fill-opacity: 0.6; stroke-width: 0; opacity: 1;"/><path class="sankey-link" d="M383.70000000000005,36.1636363636364C564.3000000000001,36.1636363636364 564.3000000000001,444.7730769230769 744.9000000000001,444.7730769230769L744.9000000000001,459.0912587412588C564.3000000000001,459.0912587412588 564.3000000000001,50.48181818181821 383.70000000000005,50.48181818181821Z" style="stroke: rgb(68, 68, 68); stroke-opacity: 1; fill: rgb(25, 211, 243); fill-opacity: 0.6; stroke-width: 0; opacity: 1;"/><path class="sankey-link" d="M383.70000000000005,62.05909090909089C564.3000000000001,62.05909090909089 564.3000000000001,32.66748251748252 744.9000000000001,32.66748251748252L744.9000000000001,57.212937062937065C564.3000000000001,57.212937062937065 564.3000000000001,86.60454545454544 383.70000000000005,86.60454545454544Z" style="stroke: rgb(68, 68, 68); stroke-opacity: 1; fill: rgb(239, 85, 59); fill-opacity: 0.6; stroke-width: 0; opacity: 1;"/><path class="sankey-link" d="M383.70000000000005,90.69545454545452C564.3000000000001,90.69545454545452 564.3000000000001,280.582867132867 744.9000000000001,280.582867132867L744.9000000000001,309.21923076923065C564.3000000000001,309.21923076923065 564.3000000000001,119.33181818181815 383.70000000000005,119.33181818181815Z" style="stroke: rgb(68, 68, 68); stroke-opacity: 1; fill: rgb(239, 85, 59); fill-opacity: 0.6; stroke-width: 0; opacity: 1;"/><path class="sankey-link" d="M383.70000000000005,119.33181818181816C564.3000000000001,119.33181818181816 564.3000000000001,459.09125874125874 744.9000000000001,459.09125874125874L744.9000000000001,506.13671328671325C564.3000000000001,506.13671328671325 564.3000000000001,166.37727272727273 383.70000000000005,166.37727272727273Z" style="stroke: rgb(68, 68, 68); stroke-opacity: 1; fill: rgb(239, 85, 59); fill-opacity: 0.6; stroke-width: 0; opacity: 1;"/><path class="sankey-link" d="M383.70000000000005,86.60454545454543C564.3000000000001,86.60454545454543 564.3000000000001,196.73181818181823 744.9000000000001,196.73181818181823L744.9000000000001,200.8227272727273C564.3000000000001,200.8227272727273 564.3000000000001,90.69545454545452 383.70000000000005,90.69545454545452Z" style="stroke: rgb(68, 68, 68); stroke-opacity: 1; fill: rgb(239, 85, 59); fill-opacity: 0.6; stroke-width: 0; opacity: 1;"/><path class="sankey-link" d="M383.70000000000005,177.2590909090909C564.3000000000001,177.2590909090909 564.3000000000001,57.21293706293707 744.9000000000001,57.21293706293707L744.9000000000001,67.44020979020979C564.3000000000001,67.44020979020979 564.3000000000001,187.48636363636365 383.70000000000005,187.48636363636365Z" style="stroke: rgb(68, 68, 68); stroke-opacity: 1; fill: rgb(0, 204, 150); fill-opacity: 0.6; stroke-width: 0; opacity: 1;"/><path class="sankey-link" d="M383.70000000000005,189.53181818181815C564.3000000000001,189.53181818181815 564.3000000000001,309.21923076923065 744.9000000000001,309.21923076923065L744.9000000000001,337.8555944055943C564.3000000000001,337.8555944055943 564.3000000000001,218.16818181818178 383.70000000000005,218.16818181818178Z" style="stroke: rgb(68, 68, 68); stroke-opacity: 1; fill: rgb(0, 204, 150); fill-opacity: 0.6; stroke-width: 0; opacity: 1;"/><path class="sankey-link" d="M383.70000000000005,218.16818181818178C564.3000000000001,218.16818181818178 564.3000000000001,506.13671328671336 744.9000000000001,506.13671328671336L744.9000000000001,536.8185314685315C564.3000000000001,536.8185314685315 564.3000000000001,248.84999999999997 383.70000000000005,248.84999999999997Z" style="stroke: rgb(68, 68, 68); stroke-opacity: 1; fill: rgb(0, 204, 150); fill-opacity: 0.6; stroke-width: 0; opacity: 1;"/><path class="sankey-link" d="M383.70000000000005,187.48636363636362C564.3000000000001,187.48636363636362 564.3000000000001,200.82272727272732 744.9000000000001,200.82272727272732L744.9000000000001,202.86818181818188C564.3000000000001,202.86818181818188 564.3000000000001,189.53181818181818 383.70000000000005,189.53181818181818Z" style="stroke: rgb(68, 68, 68); stroke-opacity: 1; fill: rgb(0, 204, 150); fill-opacity: 0.6; stroke-width: 0; opacity: 1;"/><path class="sankey-link" d="M383.70000000000005,261.3681818181818C564.3000000000001,261.3681818181818 564.3000000000001,67.44020979020979 744.9000000000001,67.44020979020979L744.9000000000001,73.57657342657342C564.3000000000001,73.57657342657342 564.3000000000001,267.50454545454545 383.70000000000005,267.50454545454545Z" style="stroke: rgb(68, 68, 68); stroke-opacity: 1; fill: rgb(254, 203, 82); fill-opacity: 0.6; stroke-width: 0; opacity: 1;"/><path class="sankey-link" d="M383.70000000000005,271.5954545454545C564.3000000000001,271.5954545454545 564.3000000000001,536.8185314685314 744.9000000000001,536.8185314685314L744.9000000000001,549.0912587412587C564.3000000000001,549.0912587412587 564.3000000000001,283.86818181818177 383.70000000000005,283.86818181818177Z" style="stroke: rgb(68, 68, 68); stroke-opacity: 1; fill: rgb(254, 203, 82); fill-opacity: 0.6; stroke-width: 0; opacity: 1;"/><path class="sankey-link" d="M383.70000000000005,267.50454545454545C564.3000000000001,267.50454545454545 564.3000000000001,202.86818181818185 744.9000000000001,202.86818181818185L744.9000000000001,206.95909090909092C564.3000000000001,206.95909090909092 564.3000000000001,271.5954545454546 383.70000000000005,271.5954545454546Z" style="stroke: rgb(68, 68, 68); stroke-opacity: 1; fill: rgb(254, 203, 82); fill-opacity: 0.6; stroke-width: 0; opacity: 1;"/><path class="sankey-link" d="M383.70000000000005,296.95909090909095C564.3000000000001,296.95909090909095 564.3000000000001,73.57657342657343 744.9000000000001,73.57657342657343L744.9000000000001,79.71293706293706C564.3000000000001,79.71293706293706 564.3000000000001,303.0954545454546 383.70000000000005,303.0954545454546Z" style="stroke: rgb(68, 68, 68); stroke-opacity: 1; fill: rgb(255, 161, 90); fill-opacity: 0.6; stroke-width: 0; opacity: 1;"/><path class="sankey-link" d="M383.70000000000005,303.0954545454546C564.3000000000001,303.0954545454546 564.3000000000001,337.8555944055943 744.9000000000001,337.8555944055943L744.9000000000001,358.31013986013977C564.3000000000001,358.31013986013977 564.3000000000001,323.55000000000007 383.70000000000005,323.55000000000007Z" style="stroke: rgb(68, 68, 68); stroke-opacity: 1; fill: rgb(255, 161, 90); fill-opacity: 0.6; stroke-width: 0; opacity: 1;"/><path class="sankey-link" d="M383.70000000000005,323.55C564.3000000000001,323.55 564.3000000000001,549.0912587412587 744.9000000000001,549.0912587412587L744.9000000000001,565.454895104895C564.3000000000001,565.454895104895 564.3000000000001,339.9136363636364 383.70000000000005,339.9136363636364Z" style="stroke: rgb(68, 68, 68); stroke-opacity: 1; fill: rgb(255, 161, 90); fill-opacity: 0.6; stroke-width: 0; opacity: 1;"/><path class="sankey-link" d="M383.70000000000005,351.4500000000001C564.3000000000001,351.4500000000001 564.3000000000001,79.71293706293707 744.9000000000001,79.71293706293707L744.9000000000001,106.30384615384617C564.3000000000001,106.30384615384617 564.3000000000001,378.0409090909092 383.70000000000005,378.0409090909092Z" style="stroke: rgb(68, 68, 68); stroke-opacity: 1; fill: rgb(171, 99, 250); fill-opacity: 0.6; stroke-width: 0; opacity: 1;"/><path class="sankey-link" d="M383.70000000000005,386.22272727272735C564.3000000000001,386.22272727272735 564.3000000000001,358.3101398601397 744.9000000000001,358.3101398601397L744.9000000000001,378.7646853146852C564.3000000000001,378.7646853146852 564.3000000000001,406.67727272727285 383.70000000000005,406.67727272727285Z" style="stroke: rgb(68, 68, 68); stroke-opacity: 1; fill: rgb(171, 99, 250); fill-opacity: 0.6; stroke-width: 0; opacity: 1;"/><path class="sankey-link" d="M383.70000000000005,406.6772727272728C564.3000000000001,406.6772727272728 564.3000000000001,565.4548951048951 744.9000000000001,565.4548951048951L744.9000000000001,610.4548951048951C564.3000000000001,610.4548951048951 564.3000000000001,451.6772727272728 383.70000000000005,451.6772727272728Z" style="stroke: rgb(68, 68, 68); stroke-opacity: 1; fill: rgb(171, 99, 250); fill-opacity: 0.6; stroke-width: 0; opacity: 1;"/><path class="sankey-link" d="M383.70000000000005,378.04090909090917C564.3000000000001,378.04090909090917 564.3000000000001,206.95909090909095 744.9000000000001,206.95909090909095L744.9000000000001,215.14090909090913C564.3000000000001,215.14090909090913 564.3000000000001,386.2227272727273 383.70000000000005,386.2227272727273Z" style="stroke: rgb(68, 68, 68); stroke-opacity: 1; fill: rgb(171, 99, 250); fill-opacity: 0.6; stroke-width: 0; opacity: 1;"/><path class="sankey-link" d="M383.70000000000005,461.7409090909091C564.3000000000001,461.7409090909091 564.3000000000001,106.30384615384617 744.9000000000001,106.30384615384617L744.9000000000001,147.21293706293707C564.3000000000001,147.21293706293707 564.3000000000001,502.65 383.70000000000005,502.65Z" style="stroke: rgb(68, 68, 68); stroke-opacity: 1; fill: rgb(99, 110, 250); fill-opacity: 0.6; stroke-width: 0; opacity: 1;"/><path class="sankey-link" d="M383.70000000000005,523.1045454545455C564.3000000000001,523.1045454545455 564.3000000000001,378.76468531468515 744.9000000000001,378.76468531468515L744.9000000000001,386.9465034965033C564.3000000000001,386.9465034965033 564.3000000000001,531.2863636363637 383.70000000000005,531.2863636363637Z" style="stroke: rgb(68, 68, 68); stroke-opacity: 1; fill: rgb(99, 110, 250); fill-opacity: 0.6; stroke-width: 0; opacity: 1;"/><path class="sankey-link" d="M383.70000000000005,531.2863636363636C564.3000000000001,531.2863636363636 564.3000000000001,610.4548951048951 744.9000000000001,610.4548951048951L744.9000000000001,657.5003496503496C564.3000000000001,657.5003496503496 564.3000000000001,578.3318181818181 383.70000000000005,578.3318181818181Z" style="stroke: rgb(68, 68, 68); stroke-opacity: 1; fill: rgb(99, 110, 250); fill-opacity: 0.6; stroke-width: 0; opacity: 1;"/><path class="sankey-link" d="M383.70000000000005,502.65C564.3000000000001,502.65 564.3000000000001,215.14090909090913 744.9000000000001,215.14090909090913L744.9000000000001,235.59545454545457C564.3000000000001,235.59545454545457 564.3000000000001,523.1045454545455 383.70000000000005,523.1045454545455Z" style="stroke: rgb(68, 68, 68); stroke-opacity: 1; fill: rgb(99, 110, 250); fill-opacity: 0.6; stroke-width: 0; opacity: 1;"/><path class="sankey-link" d="M383.70000000000005,589.2545454545455C564.3000000000001,589.2545454545455 564.3000000000001,147.21293706293707 744.9000000000001,147.21293706293707L744.9000000000001,163.57657342657345C564.3000000000001,163.57657342657345 564.3000000000001,605.6181818181817 383.70000000000005,605.6181818181817Z" style="stroke: rgb(68, 68, 68); stroke-opacity: 1; fill: rgb(255, 151, 255); fill-opacity: 0.6; stroke-width: 0; opacity: 1;"/><path class="sankey-link" d="M383.70000000000005,609.709090909091C564.3000000000001,609.709090909091 564.3000000000001,386.94650349650334 744.9000000000001,386.94650349650334L744.9000000000001,399.2192307692306C564.3000000000001,399.2192307692306 564.3000000000001,621.9818181818182 383.70000000000005,621.9818181818182Z" style="stroke: rgb(68, 68, 68); stroke-opacity: 1; fill: rgb(255, 151, 255); fill-opacity: 0.6; stroke-width: 0; opacity: 1;"/><path class="sankey-link" d="M383.70000000000005,621.9818181818182C564.3000000000001,621.9818181818182 564.3000000000001,657.5003496503496 744.9000000000001,657.5003496503496L744.9000000000001,682.0458041958041C564.3000000000001,682.0458041958041 564.3000000000001,646.5272727272727 383.70000000000005,646.5272727272727Z" style="stroke: rgb(68, 68, 68); stroke-opacity: 1; fill: rgb(255, 151, 255); fill-opacity: 0.6; stroke-width: 0; opacity: 1;"/><path class="sankey-link" d="M383.70000000000005,605.6181818181818C564.3000000000001,605.6181818181818 564.3000000000001,235.59545454545457 744.9000000000001,235.59545454545457L744.9000000000001,239.68636363636364C564.3000000000001,239.68636363636364 564.3000000000001,609.7090909090908 383.70000000000005,609.7090909090908Z" style="stroke: rgb(68, 68, 68); stroke-opacity: 1; fill: rgb(255, 151, 255); fill-opacity: 0.6; stroke-width: 0; opacity: 1;"/><path class="sankey-link" d="M383.70000000000005,659.209090909091C564.3000000000001,659.209090909091 564.3000000000001,163.57657342657345 744.9000000000001,163.57657342657345L744.9000000000001,171.75839160839163C564.3000000000001,171.75839160839163 564.3000000000001,667.3909090909092 383.70000000000005,667.3909090909092Z" style="stroke: rgb(68, 68, 68); stroke-opacity: 1; fill: rgb(255, 102, 146); fill-opacity: 0.6; stroke-width: 0; opacity: 1;"/><path class="sankey-link" d="M383.70000000000005,671.4818181818182C564.3000000000001,671.4818181818182 564.3000000000001,399.2192307692306 744.9000000000001,399.2192307692306L744.9000000000001,407.4010489510487C564.3000000000001,407.4010489510487 564.3000000000001,679.6636363636364 383.70000000000005,679.6636363636364Z" style="stroke: rgb(68, 68, 68); stroke-opacity: 1; fill: rgb(255, 102, 146); fill-opacity: 0.6; stroke-width: 0; opacity: 1;"/><path class="sankey-link" d="M383.70000000000005,679.6636363636363C564.3000000000001,679.6636363636363 564.3000000000001,682.0458041958041 744.9000000000001,682.0458041958041L744.9000000000001,690.2276223776223C564.3000000000001,690.2276223776223 564.3000000000001,687.8454545454546 383.70000000000005,687.8454545454546Z" style="stroke: rgb(68, 68, 68); stroke-opacity: 1; fill: rgb(255, 102, 146); fill-opacity: 0.6; stroke-width: 0; opacity: 1;"/><path class="sankey-link" d="M383.70000000000005,667.3909090909091C564.3000000000001,667.3909090909091 564.3000000000001,239.68636363636367 744.9000000000001,239.68636363636367L744.9000000000001,243.77727272727273C564.3000000000001,243.77727272727273 564.3000000000001,671.4818181818181 383.70000000000005,671.4818181818181Z" style="stroke: rgb(68, 68, 68); stroke-opacity: 1; fill: rgb(255, 102, 146); fill-opacity: 0.6; stroke-width: 0; opacity: 1;"/><path class="sankey-link" d="M383.70000000000005,701.5909090909091C564.3000000000001,701.5909090909091 564.3000000000001,407.4010489510488 744.9000000000001,407.4010489510488L744.9000000000001,409.4465034965033C564.3000000000001,409.4465034965033 564.3000000000001,703.6363636363636 383.70000000000005,703.6363636363636Z" style="stroke: rgb(68, 68, 68); stroke-opacity: 1; fill: rgb(182, 232, 128); fill-opacity: 0.6; stroke-width: 0; opacity: 1;"/><path class="sankey-link" d="M383.70000000000005,703.6363636363636C564.3000000000001,703.6363636363636 564.3000000000001,690.2276223776222 744.9000000000001,690.2276223776222L744.9000000000001,692.2730769230767C564.3000000000001,692.2730769230767 564.3000000000001,705.6818181818181 383.70000000000005,705.6818181818181Z" style="stroke: rgb(68, 68, 68); stroke-opacity: 1; fill: rgb(182, 232, 128); fill-opacity: 0.6; stroke-width: 0; opacity: 1;"/></g><g class="sankey-node-set" style="cursor: ns-resize;"><g class="sankey-node" transform="translate(744.900,22.440)" style="opacity: 1;"><rect class="node-rect" width="15" height="149.3181818181818" style="stroke-width: 0.5; stroke: rgb(0, 0, 0); stroke-opacity: 1; fill: rgb(128, 128, 128); fill-opacity: 1;"/><text class="node-label" data-notex="1" x="0" y="0" text-anchor="end" transform="translate(-3.25,78.85909090909091)" style="cursor: default; font-family: 'Open Sans', verdana, arial, sans-serif; font-size: 12px; fill: rgb(42, 63, 95); fill-opacity: 1; white-space: pre; text-shadow: white 1px 1px 1px, white -1px -1px 1px, white 1px -1px 1px, white -1px 1px 1px;">Aggressor</text></g><g class="sankey-node" transform="translate(744.900,196.732)" style="opacity: 1;"><rect class="node-rect" width="15" height="47.04545454545456" style="stroke-width: 0.5; stroke: rgb(0, 0, 0); stroke-opacity: 1; fill: rgb(128, 128, 128); fill-opacity: 1;"/><text class="node-label" data-notex="1" x="0" y="0" text-anchor="end" transform="translate(-3.25,27.72272727272728)" style="cursor: default; font-family: 'Open Sans', verdana, arial, sans-serif; font-size: 12px; fill: rgb(42, 63, 95); fill-opacity: 1; white-space: pre; text-shadow: white 1px 1px 1px, white -1px -1px 1px, white 1px -1px 1px, white -1px 1px 1px;">Target of Aggression</text></g><g class="sankey-node" transform="translate(744.900,268.310)" style="opacity: 1;"><rect class="node-rect" width="15" height="141.13636363636397" style="stroke-width: 0.5; stroke: rgb(0, 0, 0); stroke-opacity: 1; fill: rgb(128, 128, 128); fill-opacity: 1;"/><text class="node-label" data-notex="1" x="0" y="0" text-anchor="end" transform="translate(-3.25,74.76818181818199)" style="cursor: default; font-family: 'Open Sans', verdana, arial, sans-serif; font-size: 12px; fill: rgb(42, 63, 95); fill-opacity: 1; white-space: pre; text-shadow: white 1px 1px 1px, white -1px -1px 1px, white 1px -1px 1px, white -1px 1px 1px;">NonSocial</text></g><g class="sankey-node" transform="translate(744.900,444.773)" style="opacity: 1;"><rect class="node-rect" width="15" height="247.50000000000023" style="stroke-width: 0.5; stroke: rgb(0, 0, 0); stroke-opacity: 1; fill: rgb(128, 128, 128); fill-opacity: 1;"/><text class="node-label" data-notex="1" x="0" y="0" text-anchor="end" transform="translate(-3.25,127.95000000000012)" style="cursor: default; font-family: 'Open Sans', verdana, arial, sans-serif; font-size: 12px; fill: rgb(42, 63, 95); fill-opacity: 1; white-space: pre; text-shadow: white 1px 1px 1px, white -1px -1px 1px, white 1px -1px 1px, white -1px 1px 1px;">Social</text></g><g class="sankey-node" transform="translate(368.700,13.664)" style="opacity: 1;"><rect class="node-rect" width="15" height="36.818181818181756" style="stroke-width: 0.5; stroke: rgb(0, 0, 0); stroke-opacity: 1; fill: rgb(25, 211, 243); fill-opacity: 1;"/><text class="node-label" data-notex="1" x="0" y="0" text-anchor="start" transform="translate(18.25,22.609090909090877)" style="cursor: default; font-family: 'Open Sans', verdana, arial, sans-serif; font-size: 12px; fill: rgb(42, 63, 95); fill-opacity: 1; white-space: pre; text-shadow: white 1px 1px 1px, white -1px -1px 1px, white 1px -1px 1px, white -1px 1px 1px;">BLA</text></g><g class="sankey-node" transform="translate(368.700,62.059)" style="opacity: 1;"><rect class="node-rect" width="15" height="104.31818181818187" style="stroke-width: 0.5; stroke: rgb(0, 0, 0); stroke-opacity: 1; fill: rgb(239, 85, 59); fill-opacity: 1;"/><text class="node-label" data-notex="1" x="0" y="0" text-anchor="start" transform="translate(18.25,56.35909090909094)" style="cursor: default; font-family: 'Open Sans', verdana, arial, sans-serif; font-size: 12px; fill: rgb(42, 63, 95); fill-opacity: 1; white-space: pre; text-shadow: white 1px 1px 1px, white -1px -1px 1px, white 1px -1px 1px, white -1px 1px 1px;">Cla</text></g><g class="sankey-node" transform="translate(368.700,177.259)" style="opacity: 1;"><rect class="node-rect" width="15" height="71.59090909090912" style="stroke-width: 0.5; stroke: rgb(0, 0, 0); stroke-opacity: 1; fill: rgb(0, 204, 150); fill-opacity: 1;"/><text class="node-label" data-notex="1" x="0" y="0" text-anchor="start" transform="translate(18.25,39.995454545454564)" style="cursor: default; font-family: 'Open Sans', verdana, arial, sans-serif; font-size: 12px; fill: rgb(42, 63, 95); fill-opacity: 1; white-space: pre; text-shadow: white 1px 1px 1px, white -1px -1px 1px, white 1px -1px 1px, white -1px 1px 1px;">LC</text></g><g class="sankey-node" transform="translate(368.700,261.368)" style="opacity: 1;"><rect class="node-rect" width="15" height="22.5" style="stroke-width: 0.5; stroke: rgb(0, 0, 0); stroke-opacity: 1; fill: rgb(254, 203, 82); fill-opacity: 1;"/><text class="node-label" data-notex="1" x="0" y="0" text-anchor="start" transform="translate(18.25,15.45)" style="cursor: default; font-family: 'Open Sans', verdana, arial, sans-serif; font-size: 12px; fill: rgb(42, 63, 95); fill-opacity: 1; white-space: pre; text-shadow: white 1px 1px 1px, white -1px -1px 1px, white 1px -1px 1px, white -1px 1px 1px;">LHyp</text></g><g class="sankey-node" transform="translate(368.700,296.959)" style="opacity: 1;"><rect class="node-rect" width="15" height="42.954545454545496" style="stroke-width: 0.5; stroke: rgb(0, 0, 0); stroke-opacity: 1; fill: rgb(255, 161, 90); fill-opacity: 1;"/><text class="node-label" data-notex="1" x="0" y="0" text-anchor="start" transform="translate(18.25,25.677272727272747)" style="cursor: default; font-family: 'Open Sans', verdana, arial, sans-serif; font-size: 12px; fill: rgb(42, 63, 95); fill-opacity: 1; white-space: pre; text-shadow: white 1px 1px 1px, white -1px -1px 1px, white 1px -1px 1px, white -1px 1px 1px;">NAc</text></g><g class="sankey-node" transform="translate(368.700,351.450)" style="opacity: 1;"><rect class="node-rect" width="15" height="100.22727272727252" style="stroke-width: 0.5; stroke: rgb(0, 0, 0); stroke-opacity: 1; fill: rgb(171, 99, 250); fill-opacity: 1;"/><text class="node-label" data-notex="1" x="0" y="0" text-anchor="start" transform="translate(18.25,54.31363636363626)" style="cursor: default; font-family: 'Open Sans', verdana, arial, sans-serif; font-size: 12px; fill: rgb(42, 63, 95); fill-opacity: 1; white-space: pre; text-shadow: white 1px 1px 1px, white -1px -1px 1px, white 1px -1px 1px, white -1px 1px 1px;">Str</text></g><g class="sankey-node" transform="translate(368.700,461.741)" style="opacity: 1;"><rect class="node-rect" width="15" height="116.59090909090901" style="stroke-width: 0.5; stroke: rgb(0, 0, 0); stroke-opacity: 1; fill: rgb(99, 110, 250); fill-opacity: 1;"/><text class="node-label" data-notex="1" x="0" y="0" text-anchor="start" transform="translate(18.25,62.49545454545451)" style="cursor: default; font-family: 'Open Sans', verdana, arial, sans-serif; font-size: 12px; fill: rgb(42, 63, 95); fill-opacity: 1; white-space: pre; text-shadow: white 1px 1px 1px, white -1px -1px 1px, white 1px -1px 1px, white -1px 1px 1px;">VTA</text></g><g class="sankey-node" transform="translate(368.700,589.255)" style="opacity: 1;"><rect class="node-rect" width="15" height="57.27272727272748" style="stroke-width: 0.5; stroke: rgb(0, 0, 0); stroke-opacity: 1; fill: rgb(255, 151, 255); fill-opacity: 1;"/><text class="node-label" data-notex="1" x="0" y="0" text-anchor="start" transform="translate(18.25,32.83636363636374)" style="cursor: default; font-family: 'Open Sans', verdana, arial, sans-serif; font-size: 12px; fill: rgb(42, 63, 95); fill-opacity: 1; white-space: pre; text-shadow: white 1px 1px 1px, white -1px -1px 1px, white 1px -1px 1px, white -1px 1px 1px;">cPFC</text></g><g class="sankey-node" transform="translate(368.700,659.209)" style="opacity: 1;"><rect class="node-rect" width="15" height="28.63636363636374" style="stroke-width: 0.5; stroke: rgb(0, 0, 0); stroke-opacity: 1; fill: rgb(255, 102, 146); fill-opacity: 1;"/><text class="node-label" data-notex="1" x="0" y="0" text-anchor="start" transform="translate(18.25,18.51818181818187)" style="cursor: default; font-family: 'Open Sans', verdana, arial, sans-serif; font-size: 12px; fill: rgb(42, 63, 95); fill-opacity: 1; white-space: pre; text-shadow: white 1px 1px 1px, white -1px -1px 1px, white 1px -1px 1px, white -1px 1px 1px;">dPAG</text></g><g class="sankey-node" transform="translate(368.700,701.591)" style="opacity: 1;"><rect class="node-rect" width="15" height="4.090909090909008" style="stroke-width: 0.5; stroke: rgb(0, 0, 0); stroke-opacity: 1; fill: rgb(182, 232, 128); fill-opacity: 1;"/><text class="node-label" data-notex="1" x="0" y="0" text-anchor="start" transform="translate(18.25,6.245454545454503)" style="cursor: default; font-family: 'Open Sans', verdana, arial, sans-serif; font-size: 12px; fill: rgb(42, 63, 95); fill-opacity: 1; white-space: pre; text-shadow: white 1px 1px 1px, white -1px -1px 1px, white 1px -1px 1px, white -1px 1px 1px;">lHb</text></g></g></g><defs id="topdefs-8002e9"><g class="clips"/></defs><g class="layer-above"><g class="imagelayer"/><g class="shapelayer"/></g><g class="infolayer"><g class="g-gtitle"/><g class="first-render"/></g></svg>