<svg class="main-svg" xmlns="http://www.w3.org/2000/svg" xmlns:xlink="http://www.w3.org/1999/xlink" width="1300" height="900" style="" viewBox="0 0 1300 900"><rect x="0" y="0" width="1300" height="900" style="fill: rgb(255, 255, 255); fill-opacity: 1;"/><defs id="defs-c82673"><g class="clips"/><g class="gradients"/><g class="patterns"/></defs><g class="bglayer"/><g class="layer-below"><g class="imagelayer"/><g class="shapelayer"/></g><g class="cartesianlayer"/><g class="polarlayer"/><g class="smithlayer"/><g class="ternarylayer"/><g class="geolayer"/><g class="funnelarealayer"/><g class="pielayer"/><g class="iciclelayer"/><g class="treemaplayer"/><g class="sunburstlayer"/><g class="glimages"/><g class="sankey" transform="translate(80,100)matrix(1 0 0 1 0 0)" style="box-sizing: content-box; position: absolute; left: 0px; shape-rendering: geometricprecision; pointer-events: none;"><g class="sankey-links" style="fill: none;"><path class="sankey-link" d="M383.70000000000005,13.829268292682949C564.3000000000001,13.829268292682949 564.3000000000001,25.668292682926705 744.9000000000001,25.668292682926705L744.9000000000001,35.18048780487793C564.3000000000001,35.18048780487793 564.3000000000001,23.34146341463417 383.70000000000005,23.34146341463417Z" style="stroke: rgb(68, 68, 68); stroke-opacity: 1; fill: rgb(25, 211, 243); fill-opacity: 0.6; stroke-width: 0; opacity: 1;"/><path class="sankey-link" d="M383.70000000000005,23.341463414634163C564.3000000000001,23.341463414634163 564.3000000000001,414.54146341463417 744.9000000000001,414.54146341463417L744.9000000000001,424.0536585365854C564.3000000000001,424.0536585365854 564.3000000000001,32.853658536585385 383.70000000000005,32.853658536585385Z" style="stroke: rgb(68, 68, 68); stroke-opacity: 1; fill: rgb(25, 211, 243); fill-opacity: 0.6; stroke-width: 0; opacity: 1;"/><path class="sankey-link" d="M383.70000000000005,32.853658536585385C564.3000000000001,32.853658536585385 564.3000000000001,490.0756097560978 744.9000000000001,490.0756097560978L744.9000000000001,499.587804878049C564.3000000000001,499.587804878049 564.3000000000001,42.36585365853661 383.70000000000005,42.36585365853661Z" style="stroke: rgb(68, 68, 68); stroke-opacity: 1; fill: rgb(25, 211, 243); fill-opacity: 0.6; stroke-width: 0; opacity: 1;"/><path class="sankey-link" d="M383.70000000000005,53.817073170731724C564.3000000000001,53.817073170731724 564.3000000000001,35.180487804877934 744.9000000000001,35.180487804877934L744.9000000000001,97.00975609756085C564.3000000000001,97.00975609756085 564.3000000000001,115.64634146341464 383.70000000000005,115.64634146341464Z" style="stroke: rgb(68, 68, 68); stroke-opacity: 1; fill: rgb(99, 110, 250); fill-opacity: 0.6; stroke-width: 0; opacity: 1;"/><path class="sankey-link" d="M383.70000000000005,125.15853658536587C564.3000000000001,125.15853658536587 564.3000000000001,424.0536585365854 744.9000000000001,424.0536585365854L744.9000000000001,428.809756097561C564.3000000000001,428.809756097561 564.3000000000001,129.91463414634148 383.70000000000005,129.91463414634148Z" style="stroke: rgb(68, 68, 68); stroke-opacity: 1; fill: rgb(99, 110, 250); fill-opacity: 0.6; stroke-width: 0; opacity: 1;"/><path class="sankey-link" d="M383.70000000000005,129.91463414634148C564.3000000000001,129.91463414634148 564.3000000000001,499.58780487804904 744.9000000000001,499.58780487804904L744.9000000000001,542.3926829268295C564.3000000000001,542.3926829268295 564.3000000000001,172.71951219512198 383.70000000000005,172.71951219512198Z" style="stroke: rgb(68, 68, 68); stroke-opacity: 1; fill: rgb(99, 110, 250); fill-opacity: 0.6; stroke-width: 0; opacity: 1;"/><path class="sankey-link" d="M383.70000000000005,115.64634146341464C564.3000000000001,115.64634146341464 564.3000000000001,267.26341463414633 744.9000000000001,267.26341463414633L744.9000000000001,276.77560975609754C564.3000000000001,276.77560975609754 564.3000000000001,125.15853658536585 383.70000000000005,125.15853658536585Z" style="stroke: rgb(68, 68, 68); stroke-opacity: 1; fill: rgb(99, 110, 250); fill-opacity: 0.6; stroke-width: 0; opacity: 1;"/><path class="sankey-link" d="M383.70000000000005,183.98048780487804C564.3000000000001,183.98048780487804 564.3000000000001,97.00975609756085 744.9000000000001,97.00975609756085L744.9000000000001,111.2780487804877C564.3000000000001,111.2780487804877 564.3000000000001,198.24878048780485 383.70000000000005,198.24878048780485Z" style="stroke: rgb(68, 68, 68); stroke-opacity: 1; fill: rgb(0, 204, 150); fill-opacity: 0.6; stroke-width: 0; opacity: 1;"/><path class="sankey-link" d="M383.70000000000005,203.00487804878048C564.3000000000001,203.00487804878048 564.3000000000001,428.809756097561 744.9000000000001,428.809756097561L744.9000000000001,438.3219512195122C564.3000000000001,438.3219512195122 564.3000000000001,212.5170731707317 383.70000000000005,212.5170731707317Z" style="stroke: rgb(68, 68, 68); stroke-opacity: 1; fill: rgb(0, 204, 150); fill-opacity: 0.6; stroke-width: 0; opacity: 1;"/><path class="sankey-link" d="M383.70000000000005,212.5170731707317C564.3000000000001,212.5170731707317 564.3000000000001,542.3926829268295 744.9000000000001,542.3926829268295L744.9000000000001,551.9048780487807C564.3000000000001,551.9048780487807 564.3000000000001,222.0292682926829 383.70000000000005,222.0292682926829Z" style="stroke: rgb(68, 68, 68); stroke-opacity: 1; fill: rgb(0, 204, 150); fill-opacity: 0.6; stroke-width: 0; opacity: 1;"/><path class="sankey-link" d="M383.70000000000005,198.24878048780488C564.3000000000001,198.24878048780488 564.3000000000001,276.77560975609754 744.9000000000001,276.77560975609754L744.9000000000001,281.53170731707314C564.3000000000001,281.53170731707314 564.3000000000001,203.00487804878048 383.70000000000005,203.00487804878048Z" style="stroke: rgb(68, 68, 68); stroke-opacity: 1; fill: rgb(0, 204, 150); fill-opacity: 0.6; stroke-width: 0; opacity: 1;"/><path class="sankey-link" d="M383.70000000000005,234.52682926829277C564.3000000000001,234.52682926829277 564.3000000000001,111.27804878048768 744.9000000000001,111.27804878048768L744.9000000000001,130.3024390243901C564.3000000000001,130.3024390243901 564.3000000000001,253.5512195121952 383.70000000000005,253.5512195121952Z" style="stroke: rgb(68, 68, 68); stroke-opacity: 1; fill: rgb(254, 203, 82); fill-opacity: 0.6; stroke-width: 0; opacity: 1;"/><path class="sankey-link" d="M383.70000000000005,272.57560975609766C564.3000000000001,272.57560975609766 564.3000000000001,551.9048780487807 744.9000000000001,551.9048780487807L744.9000000000001,570.9292682926831C564.3000000000001,570.9292682926831 564.3000000000001,291.6000000000001 383.70000000000005,291.6000000000001Z" style="stroke: rgb(68, 68, 68); stroke-opacity: 1; fill: rgb(254, 203, 82); fill-opacity: 0.6; stroke-width: 0; opacity: 1;"/><path class="sankey-link" d="M383.70000000000005,253.55121951219525C564.3000000000001,253.55121951219525 564.3000000000001,281.53170731707314 744.9000000000001,281.53170731707314L744.9000000000001,300.55609756097556C564.3000000000001,300.55609756097556 564.3000000000001,272.57560975609766 383.70000000000005,272.57560975609766Z" style="stroke: rgb(68, 68, 68); stroke-opacity: 1; fill: rgb(254, 203, 82); fill-opacity: 0.6; stroke-width: 0; opacity: 1;"/><path class="sankey-link" d="M383.70000000000005,304.0024390243903C564.3000000000001,304.0024390243903 564.3000000000001,130.3024390243901 744.9000000000001,130.3024390243901L744.9000000000001,144.57073170731692C564.3000000000001,144.57073170731692 564.3000000000001,318.2707317073171 383.70000000000005,318.2707317073171Z" style="stroke: rgb(68, 68, 68); stroke-opacity: 1; fill: rgb(255, 161, 90); fill-opacity: 0.6; stroke-width: 0; opacity: 1;"/><path class="sankey-link" d="M383.70000000000005,318.2707317073171C564.3000000000001,318.2707317073171 564.3000000000001,438.3219512195122 744.9000000000001,438.3219512195122L744.9000000000001,447.8341463414634C564.3000000000001,447.8341463414634 564.3000000000001,327.7829268292683 383.70000000000005,327.7829268292683Z" style="stroke: rgb(68, 68, 68); stroke-opacity: 1; fill: rgb(255, 161, 90); fill-opacity: 0.6; stroke-width: 0; opacity: 1;"/><path class="sankey-link" d="M383.70000000000005,327.7829268292683C564.3000000000001,327.7829268292683 564.3000000000001,570.9292682926831 744.9000000000001,570.9292682926831L744.9000000000001,589.9536585365855C564.3000000000001,589.9536585365855 564.3000000000001,346.80731707317074 383.70000000000005,346.80731707317074Z" style="stroke: rgb(68, 68, 68); stroke-opacity: 1; fill: rgb(255, 161, 90); fill-opacity: 0.6; stroke-width: 0; opacity: 1;"/><path class="sankey-link" d="M383.70000000000005,359.1146341463417C564.3000000000001,359.1146341463417 564.3000000000001,144.57073170731695 744.9000000000001,144.57073170731695L744.9000000000001,158.83902439024376C564.3000000000001,158.83902439024376 564.3000000000001,373.3829268292685 383.70000000000005,373.3829268292685Z" style="stroke: rgb(68, 68, 68); stroke-opacity: 1; fill: rgb(171, 99, 250); fill-opacity: 0.6; stroke-width: 0; opacity: 1;"/><path class="sankey-link" d="M383.70000000000005,392.40731707317093C564.3000000000001,392.40731707317093 564.3000000000001,447.8341463414634 744.9000000000001,447.8341463414634L744.9000000000001,452.590243902439C564.3000000000001,452.590243902439 564.3000000000001,397.16341463414653 383.70000000000005,397.16341463414653Z" style="stroke: rgb(68, 68, 68); stroke-opacity: 1; fill: rgb(171, 99, 250); fill-opacity: 0.6; stroke-width: 0; opacity: 1;"/><path class="sankey-link" d="M383.70000000000005,397.16341463414653C564.3000000000001,397.16341463414653 564.3000000000001,589.9536585365855 744.9000000000001,589.9536585365855L744.9000000000001,613.7341463414635C564.3000000000001,613.7341463414635 564.3000000000001,420.94390243902455 383.70000000000005,420.94390243902455Z" style="stroke: rgb(68, 68, 68); stroke-opacity: 1; fill: rgb(171, 99, 250); fill-opacity: 0.6; stroke-width: 0; opacity: 1;"/><path class="sankey-link" d="M383.70000000000005,373.3829268292685C564.3000000000001,373.3829268292685 564.3000000000001,300.55609756097556 744.9000000000001,300.55609756097556L744.9000000000001,319.580487804878C564.3000000000001,319.580487804878 564.3000000000001,392.40731707317093 383.70000000000005,392.40731707317093Z" style="stroke: rgb(68, 68, 68); stroke-opacity: 1; fill: rgb(171, 99, 250); fill-opacity: 0.6; stroke-width: 0; opacity: 1;"/><path class="sankey-link" d="M383.70000000000005,430.4926829268295C564.3000000000001,430.4926829268295 564.3000000000001,158.8390243902438 744.9000000000001,158.8390243902438L744.9000000000001,225.4243902439023C564.3000000000001,225.4243902439023 564.3000000000001,497.0780487804881 383.70000000000005,497.0780487804881Z" style="stroke: rgb(68, 68, 68); stroke-opacity: 1; fill: rgb(239, 85, 59); fill-opacity: 0.6; stroke-width: 0; opacity: 1;"/><path class="sankey-link" d="M383.70000000000005,558.9073170731709C564.3000000000001,558.9073170731709 564.3000000000001,452.590243902439 744.9000000000001,452.590243902439L744.9000000000001,457.3463414634146C564.3000000000001,457.3463414634146 564.3000000000001,563.6634146341465 383.70000000000005,563.6634146341465Z" style="stroke: rgb(68, 68, 68); stroke-opacity: 1; fill: rgb(239, 85, 59); fill-opacity: 0.6; stroke-width: 0; opacity: 1;"/><path class="sankey-link" d="M383.70000000000005,563.6634146341465C564.3000000000001,563.6634146341465 564.3000000000001,613.7341463414635 744.9000000000001,613.7341463414635L744.9000000000001,661.2951219512196C564.3000000000001,661.2951219512196 564.3000000000001,611.2243902439026 383.70000000000005,611.2243902439026Z" style="stroke: rgb(68, 68, 68); stroke-opacity: 1; fill: rgb(239, 85, 59); fill-opacity: 0.6; stroke-width: 0; opacity: 1;"/><path class="sankey-link" d="M383.70000000000005,497.078048780488C564.3000000000001,497.078048780488 564.3000000000001,319.580487804878 744.9000000000001,319.580487804878L744.9000000000001,381.40975609756094C564.3000000000001,381.40975609756094 564.3000000000001,558.9073170731709 383.70000000000005,558.9073170731709Z" style="stroke: rgb(68, 68, 68); stroke-opacity: 1; fill: rgb(239, 85, 59); fill-opacity: 0.6; stroke-width: 0; opacity: 1;"/><path class="sankey-link" d="M383.70000000000005,621.058536585366C564.3000000000001,621.058536585366 564.3000000000001,225.42439024390234 744.9000000000001,225.42439024390234L744.9000000000001,234.93658536585355C564.3000000000001,234.93658536585355 564.3000000000001,630.5707317073172 383.70000000000005,630.5707317073172Z" style="stroke: rgb(68, 68, 68); stroke-opacity: 1; fill: rgb(182, 232, 128); fill-opacity: 0.6; stroke-width: 0; opacity: 1;"/><path class="sankey-link" d="M383.70000000000005,640.0829268292684C564.3000000000001,640.0829268292684 564.3000000000001,661.2951219512197 744.9000000000001,661.2951219512197L744.9000000000001,689.8317073170733C564.3000000000001,689.8317073170733 564.3000000000001,668.6195121951221 383.70000000000005,668.6195121951221Z" style="stroke: rgb(68, 68, 68); stroke-opacity: 1; fill: rgb(182, 232, 128); fill-opacity: 0.6; stroke-width: 0; opacity: 1;"/><path class="sankey-link" d="M383.70000000000005,630.5707317073172C564.3000000000001,630.5707317073172 564.3000000000001,381.4097560975609 744.9000000000001,381.4097560975609L744.9000000000001,390.9219512195121C564.3000000000001,390.9219512195121 564.3000000000001,640.0829268292684 383.70000000000005,640.0829268292684Z" style="stroke: rgb(68, 68, 68); stroke-opacity: 1; fill: rgb(182, 232, 128); fill-opacity: 0.6; stroke-width: 0; opacity: 1;"/><path class="sankey-link" d="M383.70000000000005,681.9731707317076C564.3000000000001,681.9731707317076 564.3000000000001,689.8317073170733 744.9000000000001,689.8317073170733L744.9000000000001,694.5878048780489C564.3000000000001,694.5878048780489 564.3000000000001,686.7292682926832 383.70000000000005,686.7292682926832Z" style="stroke: rgb(68, 68, 68); stroke-opacity: 1; fill: rgb(255, 151, 255); fill-opacity: 0.6; stroke-width: 0; opacity: 1;"/><path class="sankey-link" d="M383.70000000000005,700.9390243902442C564.3000000000001,700.9390243902442 564.3000000000001,457.3463414634146 744.9000000000001,457.3463414634146L744.9000000000001,462.1024390243902C564.3000000000001,462.1024390243902 564.3000000000001,705.6951219512198 383.70000000000005,705.6951219512198Z" style="stroke: rgb(68, 68, 68); stroke-opacity: 1; fill: rgb(255, 102, 146); fill-opacity: 0.6; stroke-width: 0; opacity: 1;"/></g><g class="sankey-node-set" style="cursor: ns-resize;"><g class="sankey-node" transform="translate(744.900,25.668)" style="opacity: 1;"><rect class="node-rect" width="15" height="209.2682926829271" style="stroke-width: 0.5; stroke: rgb(0, 0, 0); stroke-opacity: 1; fill: rgb(128, 128, 128); fill-opacity: 1;"/><text class="node-label" data-notex="1" x="0" y="0" text-anchor="end" transform="translate(-3.25,108.83414634146355)" style="cursor: default; font-family: 'Open Sans', verdana, arial, sans-serif; font-size: 12px; fill: rgb(42, 63, 95); fill-opacity: 1; white-space: pre; text-shadow: white 1px 1px 1px, white -1px -1px 1px, white 1px -1px 1px, white -1px 1px 1px;">Aggressor</text></g><g class="sankey-node" transform="translate(744.900,267.263)" style="opacity: 1;"><rect class="node-rect" width="15" height="123.65853658536582" style="stroke-width: 0.5; stroke: rgb(0, 0, 0); stroke-opacity: 1; fill: rgb(128, 128, 128); fill-opacity: 1;"/><text class="node-label" data-notex="1" x="0" y="0" text-anchor="end" transform="translate(-3.25,66.02926829268291)" style="cursor: default; font-family: 'Open Sans', verdana, arial, sans-serif; font-size: 12px; fill: rgb(42, 63, 95); fill-opacity: 1; white-space: pre; text-shadow: white 1px 1px 1px, white -1px -1px 1px, white 1px -1px 1px, white -1px 1px 1px;">Target of Aggression</text></g><g class="sankey-node" transform="translate(744.900,414.541)" style="opacity: 1;"><rect class="node-rect" width="15" height="47.56097560975604" style="stroke-width: 0.5; stroke: rgb(0, 0, 0); stroke-opacity: 1; fill: rgb(128, 128, 128); fill-opacity: 1;"/><text class="node-label" data-notex="1" x="0" y="0" text-anchor="end" transform="translate(-3.25,27.98048780487802)" style="cursor: default; font-family: 'Open Sans', verdana, arial, sans-serif; font-size: 12px; fill: rgb(42, 63, 95); fill-opacity: 1; white-space: pre; text-shadow: white 1px 1px 1px, white -1px -1px 1px, white 1px -1px 1px, white -1px 1px 1px;">NonSocial</text></g><g class="sankey-node" transform="translate(744.900,490.076)" style="opacity: 1;"><rect class="node-rect" width="15" height="204.51219512195092" style="stroke-width: 0.5; stroke: rgb(0, 0, 0); stroke-opacity: 1; fill: rgb(128, 128, 128); fill-opacity: 1;"/><text class="node-label" data-notex="1" x="0" y="0" text-anchor="end" transform="translate(-3.25,106.45609756097546)" style="cursor: default; font-family: 'Open Sans', verdana, arial, sans-serif; font-size: 12px; fill: rgb(42, 63, 95); fill-opacity: 1; white-space: pre; text-shadow: white 1px 1px 1px, white -1px -1px 1px, white 1px -1px 1px, white -1px 1px 1px;">Social</text></g><g class="sankey-node" transform="translate(368.700,13.829)" style="opacity: 1;"><rect class="node-rect" width="15" height="28.536585365853625" style="stroke-width: 0.5; stroke: rgb(0, 0, 0); stroke-opacity: 1; fill: rgb(25, 211, 243); fill-opacity: 1;"/><text class="node-label" data-notex="1" x="0" y="0" text-anchor="start" transform="translate(18.25,18.468292682926812)" style="cursor: default; font-family: 'Open Sans', verdana, arial, sans-serif; font-size: 12px; fill: rgb(42, 63, 95); fill-opacity: 1; white-space: pre; text-shadow: white 1px 1px 1px, white -1px -1px 1px, white 1px -1px 1px, white -1px 1px 1px;">BLA</text></g><g class="sankey-node" transform="translate(368.700,53.817)" style="opacity: 1;"><rect class="node-rect" width="15" height="118.9024390243902" style="stroke-width: 0.5; stroke: rgb(0, 0, 0); stroke-opacity: 1; fill: rgb(99, 110, 250); fill-opacity: 1;"/><text class="node-label" data-notex="1" x="0" y="0" text-anchor="start" transform="translate(18.25,63.6512195121951)" style="cursor: default; font-family: 'Open Sans', verdana, arial, sans-serif; font-size: 12px; fill: rgb(42, 63, 95); fill-opacity: 1; white-space: pre; text-shadow: white 1px 1px 1px, white -1px -1px 1px, white 1px -1px 1px, white -1px 1px 1px;">Cla</text></g><g class="sankey-node" transform="translate(368.700,183.980)" style="opacity: 1;"><rect class="node-rect" width="15" height="38.04878048780495" style="stroke-width: 0.5; stroke: rgb(0, 0, 0); stroke-opacity: 1; fill: rgb(0, 204, 150); fill-opacity: 1;"/><text class="node-label" data-notex="1" x="0" y="0" text-anchor="start" transform="translate(18.25,23.224390243902473)" style="cursor: default; font-family: 'Open Sans', verdana, arial, sans-serif; font-size: 12px; fill: rgb(42, 63, 95); fill-opacity: 1; white-space: pre; text-shadow: white 1px 1px 1px, white -1px -1px 1px, white 1px -1px 1px, white -1px 1px 1px;">LC</text></g><g class="sankey-node" transform="translate(368.700,234.527)" style="opacity: 1;"><rect class="node-rect" width="15" height="57.07317073170725" style="stroke-width: 0.5; stroke: rgb(0, 0, 0); stroke-opacity: 1; fill: rgb(254, 203, 82); fill-opacity: 1;"/><text class="node-label" data-notex="1" x="0" y="0" text-anchor="start" transform="translate(18.25,32.73658536585363)" style="cursor: default; font-family: 'Open Sans', verdana, arial, sans-serif; font-size: 12px; fill: rgb(42, 63, 95); fill-opacity: 1; white-space: pre; text-shadow: white 1px 1px 1px, white -1px -1px 1px, white 1px -1px 1px, white -1px 1px 1px;">LHyp</text></g><g class="sankey-node" transform="translate(368.700,304.002)" style="opacity: 1;"><rect class="node-rect" width="15" height="42.804878048780665" style="stroke-width: 0.5; stroke: rgb(0, 0, 0); stroke-opacity: 1; fill: rgb(255, 161, 90); fill-opacity: 1;"/><text class="node-label" data-notex="1" x="0" y="0" text-anchor="start" transform="translate(18.25,25.602439024390332)" style="cursor: default; font-family: 'Open Sans', verdana, arial, sans-serif; font-size: 12px; fill: rgb(42, 63, 95); fill-opacity: 1; white-space: pre; text-shadow: white 1px 1px 1px, white -1px -1px 1px, white 1px -1px 1px, white -1px 1px 1px;">NAc</text></g><g class="sankey-node" transform="translate(368.700,359.115)" style="opacity: 1;"><rect class="node-rect" width="15" height="61.829268292682855" style="stroke-width: 0.5; stroke: rgb(0, 0, 0); stroke-opacity: 1; fill: rgb(171, 99, 250); fill-opacity: 1;"/><text class="node-label" data-notex="1" x="0" y="0" text-anchor="start" transform="translate(18.25,35.11463414634143)" style="cursor: default; font-family: 'Open Sans', verdana, arial, sans-serif; font-size: 12px; fill: rgb(42, 63, 95); fill-opacity: 1; white-space: pre; text-shadow: white 1px 1px 1px, white -1px -1px 1px, white 1px -1px 1px, white -1px 1px 1px;">Str</text></g><g class="sankey-node" transform="translate(368.700,430.493)" style="opacity: 1;"><rect class="node-rect" width="15" height="180.7317073170732" style="stroke-width: 0.5; stroke: rgb(0, 0, 0); stroke-opacity: 1; fill: rgb(239, 85, 59); fill-opacity: 1;"/><text class="node-label" data-notex="1" x="0" y="0" text-anchor="start" transform="translate(18.25,94.5658536585366)" style="cursor: default; font-family: 'Open Sans', verdana, arial, sans-serif; font-size: 12px; fill: rgb(42, 63, 95); fill-opacity: 1; white-space: pre; text-shadow: white 1px 1px 1px, white -1px -1px 1px, white 1px -1px 1px, white -1px 1px 1px;">VTA</text></g><g class="sankey-node" transform="translate(368.700,621.059)" style="opacity: 1;"><rect class="node-rect" width="15" height="47.56097560975627" style="stroke-width: 0.5; stroke: rgb(0, 0, 0); stroke-opacity: 1; fill: rgb(182, 232, 128); fill-opacity: 1;"/><text class="node-label" data-notex="1" x="0" y="0" text-anchor="start" transform="translate(18.25,27.980487804878134)" style="cursor: default; font-family: 'Open Sans', verdana, arial, sans-serif; font-size: 12px; fill: rgb(42, 63, 95); fill-opacity: 1; white-space: pre; text-shadow: white 1px 1px 1px, white -1px -1px 1px, white 1px -1px 1px, white -1px 1px 1px;">cPFC</text></g><g class="sankey-node" transform="translate(368.700,681.973)" style="opacity: 1;"><rect class="node-rect" width="15" height="4.756097560975604" style="stroke-width: 0.5; stroke: rgb(0, 0, 0); stroke-opacity: 1; fill: rgb(255, 151, 255); fill-opacity: 1;"/><text class="node-label" data-notex="1" x="0" y="0" text-anchor="start" transform="translate(18.25,6.578048780487801)" style="cursor: default; font-family: 'Open Sans', verdana, arial, sans-serif; font-size: 12px; fill: rgb(42, 63, 95); fill-opacity: 1; white-space: pre; text-shadow: white 1px 1px 1px, white -1px -1px 1px, white 1px -1px 1px, white -1px 1px 1px;">dPAG</text></g><g class="sankey-node" transform="translate(368.700,700.939)" style="opacity: 1;"><rect class="node-rect" width="15" height="4.756097560975604" style="stroke-width: 0.5; stroke: rgb(0, 0, 0); stroke-opacity: 1; fill: rgb(255, 102, 146); fill-opacity: 1;"/><text class="node-label" data-notex="1" x="0" y="0" text-anchor="start" transform="translate(18.25,6.578048780487801)" style="cursor: default; font-family: 'Open Sans', verdana, arial, sans-serif; font-size: 12px; fill: rgb(42, 63, 95); fill-opacity: 1; white-space: pre; text-shadow: white 1px 1px 1px, white -1px -1px 1px, white 1px -1px 1px, white -1px 1px 1px;">lHb</text></g></g></g><defs id="topdefs-c82673"><g class="clips"/></defs><g class="layer-above"><g class="imagelayer"/><g class="shapelayer"/></g><g class="infolayer"><g class="g-gtitle"/><g class="first-render"/></g></svg>