<svg class="main-svg" xmlns="http://www.w3.org/2000/svg" xmlns:xlink="http://www.w3.org/1999/xlink" width="1300" height="900" style="" viewBox="0 0 1300 900"><rect x="0" y="0" width="1300" height="900" style="fill: rgb(255, 255, 255); fill-opacity: 1;"/><defs id="defs-bda7ad"><g class="clips"/><g class="gradients"/><g class="patterns"/></defs><g class="bglayer"/><g class="layer-below"><g class="imagelayer"/><g class="shapelayer"/></g><g class="cartesianlayer"/><g class="polarlayer"/><g class="smithlayer"/><g class="ternarylayer"/><g class="geolayer"/><g class="funnelarealayer"/><g class="pielayer"/><g class="iciclelayer"/><g class="treemaplayer"/><g class="sunburstlayer"/><g class="glimages"/><g class="sankey" transform="translate(80,100)matrix(1 0 0 1 0 0)" style="box-sizing: content-box; position: absolute; left: 0px; shape-rendering: geometricprecision; pointer-events: none;"><g class="sankey-links" style="fill: none;"><path class="sankey-link" d="M15,88.25112107623352C570,88.25112107623352 570,574.5515695067265 1125,574.5515695067265L1125,575.3363228699552C570,575.3363228699552 570,89.03587443946222 15,89.03587443946222Z" style="stroke: rgb(25, 211, 243); stroke-opacity: 0.6; fill: rgb(25, 211, 243); fill-opacity: 0.6; stroke-width: 1; opacity: 1;"/><path class="sankey-link" d="M15,64.70852017937254C570,64.70852017937254 570,69.23766816143456 1125,69.23766816143456L1125,75.51569506726415C570,75.51569506726415 570,70.98654708520213 15,70.98654708520213Z" style="stroke: rgb(68, 68, 68); stroke-opacity: 1; fill: rgb(25, 211, 243); fill-opacity: 0.6; stroke-width: 0; opacity: 1;"/><path class="sankey-link" d="M15,70.98654708520213C570,70.98654708520213 570,151.7264573991023 1125,151.7264573991023L1125,152.51121076233096C570,152.51121076233096 570,71.77130044843084 15,71.77130044843084Z" style="stroke: rgb(25, 211, 243); stroke-opacity: 0.6; fill: rgb(25, 211, 243); fill-opacity: 0.6; stroke-width: 1; opacity: 1;"/><path class="sankey-link" d="M15,83.54260089686133C570,83.54260089686133 570,423.60986547085156 1125,423.60986547085156L1125,425.9641255605377C570,425.9641255605377 570,85.89686098654744 15,85.89686098654744Z" style="stroke: rgb(68, 68, 68); stroke-opacity: 1; fill: rgb(25, 211, 243); fill-opacity: 0.6; stroke-width: 0; opacity: 1;"/><path class="sankey-link" d="M15,60.00000000000034C570,60.00000000000034 570,20.493273542600406 1125,20.493273542600406L1125,25.201793721972606C570,25.201793721972606 570,64.70852017937254 15,64.70852017937254Z" style="stroke: rgb(68, 68, 68); stroke-opacity: 1; fill: rgb(25, 211, 243); fill-opacity: 0.6; stroke-width: 0; opacity: 1;"/><path class="sankey-link" d="M15,71.77130044843085C570,71.77130044843085 570,176.92825112107545 1125,176.92825112107545L1125,180.85201793721893C570,180.85201793721893 570,75.69506726457433 15,75.69506726457433Z" style="stroke: rgb(68, 68, 68); stroke-opacity: 1; fill: rgb(25, 211, 243); fill-opacity: 0.6; stroke-width: 0; opacity: 1;"/><path class="sankey-link" d="M15,75.69506726457433C570,75.69506726457433 570,235.08968609865394 1125,235.08968609865394L1125,242.9372197309409C570,242.9372197309409 570,83.54260089686133 15,83.54260089686133Z" style="stroke: rgb(68, 68, 68); stroke-opacity: 1; fill: rgb(25, 211, 243); fill-opacity: 0.6; stroke-width: 0; opacity: 1;"/><path class="sankey-link" d="M15,85.89686098654742C570,85.89686098654742 570,503.8340807174884 1125,503.8340807174884L1125,506.18834080717454C570,506.18834080717454 570,88.25112107623353 15,88.25112107623353Z" style="stroke: rgb(68, 68, 68); stroke-opacity: 1; fill: rgb(25, 211, 243); fill-opacity: 0.6; stroke-width: 0; opacity: 1;"/><path class="sankey-link" d="M15,347.5784753363229C570,347.5784753363229 570,395.26905829596365 1125,395.26905829596365L1125,398.40807174887846C570,398.40807174887846 570,350.71748878923773 15,350.71748878923773Z" style="stroke: rgb(68, 68, 68); stroke-opacity: 1; fill: rgb(0, 204, 150); fill-opacity: 0.6; stroke-width: 0; opacity: 1;"/><path class="sankey-link" d="M15,371.9058295964126C570,371.9058295964126 570,704.3049327354258 1125,704.3049327354258L1125,707.4439461883405C570,707.4439461883405 570,375.0448430493274 15,375.0448430493274Z" style="stroke: rgb(68, 68, 68); stroke-opacity: 1; fill: rgb(0, 204, 150); fill-opacity: 0.6; stroke-width: 0; opacity: 1;"/><path class="sankey-link" d="M15,304.41704035874443C570,304.41704035874443 570,2.3542600896854733 1125,2.3542600896854733L1125,3.923766816142873C570,3.923766816142873 570,305.9865470852018 15,305.9865470852018Z" style="stroke: rgb(68, 68, 68); stroke-opacity: 1; fill: rgb(0, 204, 150); fill-opacity: 0.6; stroke-width: 0; opacity: 1;"/><path class="sankey-link" d="M15,366.4125560538117C570,366.4125560538117 570,580.0448430493274 1125,580.0448430493274L1125,580.829596412556C570,580.829596412556 570,367.1973094170404 15,367.1973094170404Z" style="stroke: rgb(0, 204, 150); stroke-opacity: 0.6; fill: rgb(0, 204, 150); fill-opacity: 0.6; stroke-width: 1; opacity: 1;"/><path class="sankey-link" d="M15,313.83408071748886C570,313.83408071748886 570,103.76681614349734 1125,103.76681614349734L1125,111.61434977578433C570,111.61434977578433 570,321.6816143497758 15,321.6816143497758Z" style="stroke: rgb(68, 68, 68); stroke-opacity: 1; fill: rgb(0, 204, 150); fill-opacity: 0.6; stroke-width: 0; opacity: 1;"/><path class="sankey-link" d="M15,321.6816143497758C570,321.6816143497758 570,157.2197309417032 1125,157.2197309417032L1125,158.7892376681606C570,158.7892376681606 570,323.2511210762332 15,323.2511210762332Z" style="stroke: rgb(68, 68, 68); stroke-opacity: 1; fill: rgb(0, 204, 150); fill-opacity: 0.6; stroke-width: 0; opacity: 1;"/><path class="sankey-link" d="M15,350.71748878923773C570,350.71748878923773 570,434.5964125560533 1125,434.5964125560533L1125,442.44394618834025C570,442.44394618834025 570,358.5650224215247 15,358.5650224215247Z" style="stroke: rgb(68, 68, 68); stroke-opacity: 1; fill: rgb(0, 204, 150); fill-opacity: 0.6; stroke-width: 0; opacity: 1;"/><path class="sankey-link" d="M15,305.98654708520183C570,305.98654708520183 570,36.1883408071744 1125,36.1883408071744L1125,44.035874439461395C570,44.035874439461395 570,313.8340807174888 15,313.8340807174888Z" style="stroke: rgb(68, 68, 68); stroke-opacity: 1; fill: rgb(0, 204, 150); fill-opacity: 0.6; stroke-width: 0; opacity: 1;"/><path class="sankey-link" d="M15,358.56502242152476C570,358.56502242152476 570,480.9865470852013 1125,480.9865470852013L1125,483.34080717488746C570,483.34080717488746 570,360.9192825112109 15,360.9192825112109Z" style="stroke: rgb(68, 68, 68); stroke-opacity: 1; fill: rgb(0, 204, 150); fill-opacity: 0.6; stroke-width: 0; opacity: 1;"/><path class="sankey-link" d="M15,370.3363228699552C570,370.3363228699552 570,661.0538116591927 1125,661.0538116591927L1125,662.62331838565C570,662.62331838565 570,371.90582959641256 15,371.90582959641256Z" style="stroke: rgb(68, 68, 68); stroke-opacity: 1; fill: rgb(0, 204, 150); fill-opacity: 0.6; stroke-width: 0; opacity: 1;"/><path class="sankey-link" d="M15,367.1973094170404C570,367.1973094170404 570,616.2331838565025 1125,616.2331838565025L1125,619.3721973094172C570,619.3721973094172 570,370.3363228699552 15,370.3363228699552Z" style="stroke: rgb(68, 68, 68); stroke-opacity: 1; fill: rgb(0, 204, 150); fill-opacity: 0.6; stroke-width: 0; opacity: 1;"/><path class="sankey-link" d="M15,323.25112107623323C570,323.25112107623323 570,197.33183856502163 1125,197.33183856502163L1125,204.39461883407992C570,204.39461883407992 570,330.3139013452915 15,330.3139013452915Z" style="stroke: rgb(68, 68, 68); stroke-opacity: 1; fill: rgb(0, 204, 150); fill-opacity: 0.6; stroke-width: 0; opacity: 1;"/><path class="sankey-link" d="M15,330.3139013452915C570,330.3139013452915 570,282.1748878923759 1125,282.1748878923759L1125,299.4394618834073C570,299.4394618834073 570,347.5784753363229 15,347.5784753363229Z" style="stroke: rgb(68, 68, 68); stroke-opacity: 1; fill: rgb(0, 204, 150); fill-opacity: 0.6; stroke-width: 0; opacity: 1;"/><path class="sankey-link" d="M15,360.91928251121084C570,360.91928251121084 570,517.959641255605 1125,517.959641255605L1125,523.4529147982059C570,523.4529147982059 570,366.4125560538118 15,366.4125560538118Z" style="stroke: rgb(68, 68, 68); stroke-opacity: 1; fill: rgb(0, 204, 150); fill-opacity: 0.6; stroke-width: 0; opacity: 1;"/><path class="sankey-link" d="M15,457.6233183856503C570,457.6233183856503 570,398.40807174887846 1125,398.40807174887846L1125,399.9775784753358C570,399.9775784753358 570,459.19282511210764 15,459.19282511210764Z" style="stroke: rgb(68, 68, 68); stroke-opacity: 1; fill: rgb(239, 85, 59); fill-opacity: 0.6; stroke-width: 0; opacity: 1;"/><path class="sankey-link" d="M15,482.7354260089686C570,482.7354260089686 570,707.4439461883406 1125,707.4439461883406L1125,708.2286995515693C570,708.2286995515693 570,483.5201793721973 15,483.5201793721973Z" style="stroke: rgb(239, 85, 59); stroke-opacity: 0.6; fill: rgb(239, 85, 59); fill-opacity: 0.6; stroke-width: 1; opacity: 1;"/><path class="sankey-link" d="M15,412.1076233183858C570,412.1076233183858 570,4.708520179371572 1125,4.708520179371572L1125,5.493273542600271C570,5.493273542600271 570,412.89237668161445 15,412.89237668161445Z" style="stroke: rgb(239, 85, 59); stroke-opacity: 0.6; fill: rgb(239, 85, 59); fill-opacity: 0.6; stroke-width: 1; opacity: 1;"/><path class="sankey-link" d="M15,472.53363228699556C570,472.53363228699556 570,581.6143497757847 1125,581.6143497757847L1125,583.9686098654707C570,583.9686098654707 570,474.8878923766817 15,474.8878923766817Z" style="stroke: rgb(68, 68, 68); stroke-opacity: 1; fill: rgb(239, 85, 59); fill-opacity: 0.6; stroke-width: 0; opacity: 1;"/><path class="sankey-link" d="M15,418.38565022421534C570,418.38565022421534 570,112.39910313901304 1125,112.39910313901304L1125,121.81614349775744C570,121.81614349775744 570,427.80269058295977 15,427.80269058295977Z" style="stroke: rgb(68, 68, 68); stroke-opacity: 1; fill: rgb(239, 85, 59); fill-opacity: 0.6; stroke-width: 0; opacity: 1;"/><path class="sankey-link" d="M15,427.8026905829597C570,427.8026905829597 570,158.7892376681606 1125,158.7892376681606L1125,161.1434977578467C570,161.1434977578467 570,430.15695067264585 15,430.15695067264585Z" style="stroke: rgb(68, 68, 68); stroke-opacity: 1; fill: rgb(239, 85, 59); fill-opacity: 0.6; stroke-width: 0; opacity: 1;"/><path class="sankey-link" d="M15,459.1928251121077C570,459.1928251121077 570,443.228699551569 1125,443.228699551569L1125,448.7219730941699C570,448.7219730941699 570,464.68609865470864 15,464.68609865470864Z" style="stroke: rgb(68, 68, 68); stroke-opacity: 1; fill: rgb(239, 85, 59); fill-opacity: 0.6; stroke-width: 0; opacity: 1;"/><path class="sankey-link" d="M15,412.89237668161445C570,412.89237668161445 570,44.8206278026901 1125,44.8206278026901L1125,50.313901345291C570,50.313901345291 570,418.3856502242154 15,418.3856502242154Z" style="stroke: rgb(68, 68, 68); stroke-opacity: 1; fill: rgb(239, 85, 59); fill-opacity: 0.6; stroke-width: 0; opacity: 1;"/><path class="sankey-link" d="M15,464.6860986547086C570,464.6860986547086 570,483.3408071748874 1125,483.3408071748874L1125,484.1255605381161C570,484.1255605381161 570,465.47085201793726 15,465.47085201793726Z" style="stroke: rgb(239, 85, 59); stroke-opacity: 0.6; fill: rgb(239, 85, 59); fill-opacity: 0.6; stroke-width: 1; opacity: 1;"/><path class="sankey-link" d="M15,480.3811659192825C570,480.3811659192825 570,662.62331838565 1125,662.62331838565L1125,664.977578475336C570,664.977578475336 570,482.73542600896866 15,482.73542600896866Z" style="stroke: rgb(68, 68, 68); stroke-opacity: 1; fill: rgb(239, 85, 59); fill-opacity: 0.6; stroke-width: 0; opacity: 1;"/><path class="sankey-link" d="M15,474.88789237668163C570,474.88789237668163 570,620.156950672646 1125,620.156950672646L1125,625.6502242152469C570,625.6502242152469 570,480.3811659192826 15,480.3811659192826Z" style="stroke: rgb(68, 68, 68); stroke-opacity: 1; fill: rgb(239, 85, 59); fill-opacity: 0.6; stroke-width: 0; opacity: 1;"/><path class="sankey-link" d="M15,430.1569506726458C570,430.1569506726458 570,205.17937219730862 1125,205.17937219730862L1125,213.0269058295956C570,213.0269058295956 570,438.00448430493276 15,438.00448430493276Z" style="stroke: rgb(68, 68, 68); stroke-opacity: 1; fill: rgb(239, 85, 59); fill-opacity: 0.6; stroke-width: 0; opacity: 1;"/><path class="sankey-link" d="M15,438.0044843049328C570,438.0044843049328 570,301.0089686098647 1125,301.0089686098647L1125,320.62780269058226C570,320.62780269058226 570,457.62331838565035 15,457.62331838565035Z" style="stroke: rgb(68, 68, 68); stroke-opacity: 1; fill: rgb(239, 85, 59); fill-opacity: 0.6; stroke-width: 0; opacity: 1;"/><path class="sankey-link" d="M15,465.47085201793726C570,465.47085201793726 570,523.4529147982059 1125,523.4529147982059L1125,530.5156950672642C570,530.5156950672642 570,472.53363228699556 15,472.53363228699556Z" style="stroke: rgb(68, 68, 68); stroke-opacity: 1; fill: rgb(239, 85, 59); fill-opacity: 0.6; stroke-width: 0; opacity: 1;"/><path class="sankey-link" d="M15,700.3811659192825C570,700.3811659192825 570,407.04035874439415 1125,407.04035874439415L1125,408.6098654708515C570,408.6098654708515 570,701.9506726457398 15,701.9506726457398Z" style="stroke: rgb(68, 68, 68); stroke-opacity: 1; fill: rgb(254, 203, 82); fill-opacity: 0.6; stroke-width: 0; opacity: 1;"/><path class="sankey-link" d="M15,716.8609865470852C570,716.8609865470852 570,716.860986547085 1125,716.860986547085L1125,719.9999999999997C570,719.9999999999997 570,719.9999999999999 15,719.9999999999999Z" style="stroke: rgb(68, 68, 68); stroke-opacity: 1; fill: rgb(254, 203, 82); fill-opacity: 0.6; stroke-width: 0; opacity: 1;"/><path class="sankey-link" d="M15,709.0134529147981C570,709.0134529147981 570,594.9551569506726 1125,594.9551569506726L1125,597.3094170403587C570,597.3094170403587 570,711.3677130044841 15,711.3677130044841Z" style="stroke: rgb(68, 68, 68); stroke-opacity: 1; fill: rgb(254, 203, 82); fill-opacity: 0.6; stroke-width: 0; opacity: 1;"/><path class="sankey-link" d="M15,701.9506726457398C570,701.9506726457398 570,487.2645739910309 1125,487.2645739910309L1125,488.83408071748823C570,488.83408071748823 570,703.5201793721972 15,703.5201793721972Z" style="stroke: rgb(68, 68, 68); stroke-opacity: 1; fill: rgb(254, 203, 82); fill-opacity: 0.6; stroke-width: 0; opacity: 1;"/><path class="sankey-link" d="M15,713.7219730941704C570,713.7219730941704 570,685.3811659192824 1125,685.3811659192824L1125,688.520179372197C570,688.520179372197 570,716.8609865470851 15,716.8609865470851Z" style="stroke: rgb(68, 68, 68); stroke-opacity: 1; fill: rgb(254, 203, 82); fill-opacity: 0.6; stroke-width: 0; opacity: 1;"/><path class="sankey-link" d="M15,711.3677130044842C570,711.3677130044842 570,636.6367713004487 1125,636.6367713004487L1125,638.9910313901347C570,638.9910313901347 570,713.7219730941703 15,713.7219730941703Z" style="stroke: rgb(68, 68, 68); stroke-opacity: 1; fill: rgb(254, 203, 82); fill-opacity: 0.6; stroke-width: 0; opacity: 1;"/><path class="sankey-link" d="M15,692.5336322869955C570,692.5336322869955 570,360.6502242152459 1125,360.6502242152459L1125,368.49775784753285C570,368.49775784753285 570,700.3811659192825 15,700.3811659192825Z" style="stroke: rgb(68, 68, 68); stroke-opacity: 1; fill: rgb(254, 203, 82); fill-opacity: 0.6; stroke-width: 0; opacity: 1;"/><path class="sankey-link" d="M15,703.5201793721972C570,703.5201793721972 570,554.0582959641253 1125,554.0582959641253L1125,559.5515695067262C570,559.5515695067262 570,709.0134529147981 15,709.0134529147981Z" style="stroke: rgb(68, 68, 68); stroke-opacity: 1; fill: rgb(254, 203, 82); fill-opacity: 0.6; stroke-width: 0; opacity: 1;"/><path class="sankey-link" d="M15,131.5022421524668C570,131.5022421524668 570,383.4977578475332 1125,383.4977578475332L1125,387.4215246636767C570,387.4215246636767 570,135.4260089686103 15,135.4260089686103Z" style="stroke: rgb(68, 68, 68); stroke-opacity: 1; fill: rgb(255, 161, 90); fill-opacity: 0.6; stroke-width: 0; opacity: 1;"/><path class="sankey-link" d="M15,104.0358744394623C570,104.0358744394623 570,-6.252776074688882e-13 1125,-6.252776074688882e-13L1125,1.569506726456774C570,1.569506726456774 570,105.60538116591971 15,105.60538116591971Z" style="stroke: rgb(68, 68, 68); stroke-opacity: 1; fill: rgb(255, 161, 90); fill-opacity: 0.6; stroke-width: 0; opacity: 1;"/><path class="sankey-link" d="M15,110.31390134529191C570,110.31390134529191 570,75.51569506726415 1125,75.51569506726415L1125,81.79372197309374C570,81.79372197309374 570,116.5919282511215 15,116.5919282511215Z" style="stroke: rgb(68, 68, 68); stroke-opacity: 1; fill: rgb(255, 161, 90); fill-opacity: 0.6; stroke-width: 0; opacity: 1;"/><path class="sankey-link" d="M15,116.5919282511215C570,116.5919282511215 570,152.511210762331 1125,152.511210762331L1125,154.0807174887884C570,154.0807174887884 570,118.1614349775789 15,118.1614349775789Z" style="stroke: rgb(68, 68, 68); stroke-opacity: 1; fill: rgb(255, 161, 90); fill-opacity: 0.6; stroke-width: 0; opacity: 1;"/><path class="sankey-link" d="M15,135.4260089686103C570,135.4260089686103 570,425.96412556053764 1125,425.96412556053764L1125,428.3183856502238C570,428.3183856502238 570,137.78026905829637 15,137.78026905829637Z" style="stroke: rgb(68, 68, 68); stroke-opacity: 1; fill: rgb(255, 161, 90); fill-opacity: 0.6; stroke-width: 0; opacity: 1;"/><path class="sankey-link" d="M15,105.60538116591971C570,105.60538116591971 570,25.2017937219726 1125,25.2017937219726L1125,29.9103139013448C570,29.9103139013448 570,110.3139013452919 15,110.3139013452919Z" style="stroke: rgb(68, 68, 68); stroke-opacity: 1; fill: rgb(255, 161, 90); fill-opacity: 0.6; stroke-width: 0; opacity: 1;"/><path class="sankey-link" d="M15,137.7802690582964C570,137.7802690582964 570,476.27802690582917 1125,476.27802690582917L1125,477.06278026905784C570,477.06278026905784 570,138.56502242152507 15,138.56502242152507Z" style="stroke: rgb(255, 161, 90); stroke-opacity: 0.6; fill: rgb(255, 161, 90); fill-opacity: 0.6; stroke-width: 1; opacity: 1;"/><path class="sankey-link" d="M15,140.1345291479825C570,140.1345291479825 570,612.309417040359 1125,612.309417040359L1125,613.8789237668163C570,613.8789237668163 570,141.7040358744399 15,141.7040358744399Z" style="stroke: rgb(68, 68, 68); stroke-opacity: 1; fill: rgb(255, 161, 90); fill-opacity: 0.6; stroke-width: 0; opacity: 1;"/><path class="sankey-link" d="M15,118.1614349775789C570,118.1614349775789 570,180.85201793721893 1125,180.85201793721893L1125,185.56053811659115C570,185.56053811659115 570,122.8699551569511 15,122.8699551569511Z" style="stroke: rgb(68, 68, 68); stroke-opacity: 1; fill: rgb(255, 161, 90); fill-opacity: 0.6; stroke-width: 0; opacity: 1;"/><path class="sankey-link" d="M15,122.86995515695111C570,122.86995515695111 570,242.93721973094094 1125,242.93721973094094L1125,251.56950672645664C570,251.56950672645664 570,131.5022421524668 15,131.5022421524668Z" style="stroke: rgb(68, 68, 68); stroke-opacity: 1; fill: rgb(255, 161, 90); fill-opacity: 0.6; stroke-width: 0; opacity: 1;"/><path class="sankey-link" d="M15,138.5650224215251C570,138.5650224215251 570,506.1883408071745 1125,506.1883408071745L1125,507.75784753363183C570,507.75784753363183 570,140.1345291479825 15,140.1345291479825Z" style="stroke: rgb(68, 68, 68); stroke-opacity: 1; fill: rgb(255, 161, 90); fill-opacity: 0.6; stroke-width: 0; opacity: 1;"/><path class="sankey-link" d="M15,253.31838565022454C570,253.31838565022454 570,389.77578475336276 1125,389.77578475336276L1125,395.2690582959637C570,395.2690582959637 570,258.81165919282546 15,258.81165919282546Z" style="stroke: rgb(68, 68, 68); stroke-opacity: 1; fill: rgb(171, 99, 250); fill-opacity: 0.6; stroke-width: 0; opacity: 1;"/><path class="sankey-link" d="M15,288.632286995516C570,288.632286995516 570,703.5201793721972 1125,703.5201793721972L1125,704.3049327354258C570,704.3049327354258 570,289.41704035874466 15,289.41704035874466Z" style="stroke: rgb(171, 99, 250); stroke-opacity: 0.6; fill: rgb(171, 99, 250); fill-opacity: 0.6; stroke-width: 1; opacity: 1;"/><path class="sankey-link" d="M15,276.8609865470855C570,276.8609865470855 570,576.9058295964126 1125,576.9058295964126L1125,580.0448430493273C570,580.0448430493273 570,280.0000000000003 15,280.0000000000003Z" style="stroke: rgb(68, 68, 68); stroke-opacity: 1; fill: rgb(171, 99, 250); fill-opacity: 0.6; stroke-width: 0; opacity: 1;"/><path class="sankey-link" d="M15,199.95515695067292C570,199.95515695067292 570,87.28699551569464 1125,87.28699551569464L1125,103.76681614349734C570,103.76681614349734 570,216.43497757847558 15,216.43497757847558Z" style="stroke: rgb(68, 68, 68); stroke-opacity: 1; fill: rgb(171, 99, 250); fill-opacity: 0.6; stroke-width: 0; opacity: 1;"/><path class="sankey-link" d="M15,216.4349775784756C570,216.4349775784756 570,154.0807174887884 1125,154.0807174887884L1125,157.2197309417032C570,157.2197309417032 570,219.57399103139042 15,219.57399103139042Z" style="stroke: rgb(68, 68, 68); stroke-opacity: 1; fill: rgb(171, 99, 250); fill-opacity: 0.6; stroke-width: 0; opacity: 1;"/><path class="sankey-link" d="M15,258.8116591928254C570,258.8116591928254 570,429.1031390134524 1125,429.1031390134524L1125,434.59641255605334C570,434.59641255605334 570,264.30493273542635 15,264.30493273542635Z" style="stroke: rgb(68, 68, 68); stroke-opacity: 1; fill: rgb(171, 99, 250); fill-opacity: 0.6; stroke-width: 0; opacity: 1;"/><path class="sankey-link" d="M15,194.46188340807203C570,194.46188340807203 570,30.6950672645735 1125,30.6950672645735L1125,36.1883408071744C570,36.1883408071744 570,199.95515695067292 15,199.95515695067292Z" style="stroke: rgb(68, 68, 68); stroke-opacity: 1; fill: rgb(171, 99, 250); fill-opacity: 0.6; stroke-width: 0; opacity: 1;"/><path class="sankey-link" d="M15,264.3049327354263C570,264.3049327354263 570,477.06278026905784 1125,477.06278026905784L1125,480.9865470852013C570,480.9865470852013 570,268.2286995515698 15,268.2286995515698Z" style="stroke: rgb(68, 68, 68); stroke-opacity: 1; fill: rgb(171, 99, 250); fill-opacity: 0.6; stroke-width: 0; opacity: 1;"/><path class="sankey-link" d="M15,282.35426008968636C570,282.35426008968636 570,654.775784753363 1125,654.775784753363L1125,661.0538116591927C570,661.0538116591927 570,288.632286995516 15,288.632286995516Z" style="stroke: rgb(68, 68, 68); stroke-opacity: 1; fill: rgb(171, 99, 250); fill-opacity: 0.6; stroke-width: 0; opacity: 1;"/><path class="sankey-link" d="M15,280.0000000000003C570,280.0000000000003 570,613.8789237668163 1125,613.8789237668163L1125,616.2331838565024C570,616.2331838565024 570,282.3542600896864 15,282.3542600896864Z" style="stroke: rgb(68, 68, 68); stroke-opacity: 1; fill: rgb(171, 99, 250); fill-opacity: 0.6; stroke-width: 0; opacity: 1;"/><path class="sankey-link" d="M15,219.57399103139042C570,219.57399103139042 570,187.91479820627723 1125,187.91479820627723L1125,197.3318385650216C570,197.3318385650216 570,228.9910313901348 15,228.9910313901348Z" style="stroke: rgb(68, 68, 68); stroke-opacity: 1; fill: rgb(171, 99, 250); fill-opacity: 0.6; stroke-width: 0; opacity: 1;"/><path class="sankey-link" d="M15,228.99103139013482C570,228.99103139013482 570,257.84753363228623 1125,257.84753363228623L1125,282.1748878923759C570,282.1748878923759 570,253.3183856502245 15,253.3183856502245Z" style="stroke: rgb(68, 68, 68); stroke-opacity: 1; fill: rgb(171, 99, 250); fill-opacity: 0.6; stroke-width: 0; opacity: 1;"/><path class="sankey-link" d="M15,268.2286995515698C570,268.2286995515698 570,509.32735426008935 1125,509.32735426008935L1125,517.959641255605C570,517.959641255605 570,276.8609865470854 15,276.8609865470854Z" style="stroke: rgb(68, 68, 68); stroke-opacity: 1; fill: rgb(171, 99, 250); fill-opacity: 0.6; stroke-width: 0; opacity: 1;"/><path class="sankey-link" d="M15,548.7443946188343C570,548.7443946188343 570,399.97757847533586 1125,399.97757847533586L1125,407.04035874439415C570,407.04035874439415 570,555.8071748878926 15,555.8071748878926Z" style="stroke: rgb(68, 68, 68); stroke-opacity: 1; fill: rgb(99, 110, 250); fill-opacity: 0.6; stroke-width: 0; opacity: 1;"/><path class="sankey-link" d="M15,620.156950672646C570,620.156950672646 570,708.2286995515693 1125,708.2286995515693L1125,716.0762331838563C570,716.0762331838563 570,628.0044843049329 15,628.0044843049329Z" style="stroke: rgb(68, 68, 68); stroke-opacity: 1; fill: rgb(99, 110, 250); fill-opacity: 0.6; stroke-width: 0; opacity: 1;"/><path class="sankey-link" d="M15,587.1973094170406C570,587.1973094170406 570,583.9686098654709 1125,583.9686098654709L1125,593.3856502242152C570,593.3856502242152 570,596.614349775785 15,596.614349775785Z" style="stroke: rgb(68, 68, 68); stroke-opacity: 1; fill: rgb(99, 110, 250); fill-opacity: 0.6; stroke-width: 0; opacity: 1;"/><path class="sankey-link" d="M15,502.4439461883411C570,502.4439461883411 570,121.81614349775742 1125,121.81614349775742L1125,131.23318385650182C570,131.23318385650182 570,511.86098654708553 15,511.86098654708553Z" style="stroke: rgb(68, 68, 68); stroke-opacity: 1; fill: rgb(99, 110, 250); fill-opacity: 0.6; stroke-width: 0; opacity: 1;"/><path class="sankey-link" d="M15,555.8071748878926C570,555.8071748878926 570,448.72197309416987 1125,448.72197309416987L1125,459.70852017937165C570,459.70852017937165 570,566.7937219730945 15,566.7937219730945Z" style="stroke: rgb(68, 68, 68); stroke-opacity: 1; fill: rgb(99, 110, 250); fill-opacity: 0.6; stroke-width: 0; opacity: 1;"/><path class="sankey-link" d="M15,498.5201793721976C570,498.5201793721976 570,50.313901345290994 1125,50.313901345290994L1125,54.23766816143449C570,54.23766816143449 570,502.4439461883411 15,502.4439461883411Z" style="stroke: rgb(68, 68, 68); stroke-opacity: 1; fill: rgb(99, 110, 250); fill-opacity: 0.6; stroke-width: 0; opacity: 1;"/><path class="sankey-link" d="M15,566.7937219730944C570,566.7937219730944 570,484.1255605381161 1125,484.1255605381161L1125,487.2645739910309C570,487.2645739910309 570,569.9327354260091 15,569.9327354260091Z" style="stroke: rgb(68, 68, 68); stroke-opacity: 1; fill: rgb(99, 110, 250); fill-opacity: 0.6; stroke-width: 0; opacity: 1;"/><path class="sankey-link" d="M15,605.2466367713007C570,605.2466367713007 570,664.9775784753361 1125,664.9775784753361L1125,679.8878923766814C570,679.8878923766814 570,620.156950672646 15,620.156950672646Z" style="stroke: rgb(68, 68, 68); stroke-opacity: 1; fill: rgb(99, 110, 250); fill-opacity: 0.6; stroke-width: 0; opacity: 1;"/><path class="sankey-link" d="M15,596.6143497757851C570,596.6143497757851 570,625.6502242152469 1125,625.6502242152469L1125,634.2825112107626C570,634.2825112107626 570,605.2466367713007 15,605.2466367713007Z" style="stroke: rgb(68, 68, 68); stroke-opacity: 1; fill: rgb(99, 110, 250); fill-opacity: 0.6; stroke-width: 0; opacity: 1;"/><path class="sankey-link" d="M15,511.8609865470855C570,511.8609865470855 570,213.02690582959562 1125,213.02690582959562L1125,216.9506726457391C570,216.9506726457391 570,515.784753363229 15,515.784753363229Z" style="stroke: rgb(68, 68, 68); stroke-opacity: 1; fill: rgb(99, 110, 250); fill-opacity: 0.6; stroke-width: 0; opacity: 1;"/><path class="sankey-link" d="M15,515.784753363229C570,515.784753363229 570,320.6278026905822 1125,320.6278026905822L1125,353.58744394618753C570,353.58744394618753 570,548.7443946188345 15,548.7443946188345Z" style="stroke: rgb(68, 68, 68); stroke-opacity: 1; fill: rgb(99, 110, 250); fill-opacity: 0.6; stroke-width: 0; opacity: 1;"/><path class="sankey-link" d="M15,569.9327354260092C570,569.9327354260092 570,530.5156950672642 1125,530.5156950672642L1125,547.7802690582955C570,547.7802690582955 570,587.1973094170405 15,587.1973094170405Z" style="stroke: rgb(68, 68, 68); stroke-opacity: 1; fill: rgb(99, 110, 250); fill-opacity: 0.6; stroke-width: 0; opacity: 1;"/><path class="sankey-link" d="M15,676.7488789237666C570,676.7488789237666 570,716.0762331838563 1125,716.0762331838563L1125,716.860986547085C570,716.860986547085 570,677.5336322869953 15,677.5336322869953Z" style="stroke: rgb(255, 151, 255); stroke-opacity: 0.6; fill: rgb(255, 151, 255); fill-opacity: 0.6; stroke-width: 1; opacity: 1;"/><path class="sankey-link" d="M15,667.3318385650222C570,667.3318385650222 570,593.3856502242153 1125,593.3856502242153L1125,594.9551569506726C570,594.9551569506726 570,668.9013452914795 15,668.9013452914795Z" style="stroke: rgb(68, 68, 68); stroke-opacity: 1; fill: rgb(255, 151, 255); fill-opacity: 0.6; stroke-width: 0; opacity: 1;"/><path class="sankey-link" d="M15,643.0044843049325C570,643.0044843049325 570,131.23318385650182 1125,131.23318385650182L1125,136.7264573991027C570,136.7264573991027 570,648.4977578475334 15,648.4977578475334Z" style="stroke: rgb(68, 68, 68); stroke-opacity: 1; fill: rgb(255, 151, 255); fill-opacity: 0.6; stroke-width: 0; opacity: 1;"/><path class="sankey-link" d="M15,648.4977578475334C570,648.4977578475334 570,161.14349775784672 1125,161.14349775784672L1125,161.9282511210754C570,161.9282511210754 570,649.2825112107621 15,649.2825112107621Z" style="stroke: rgb(255, 151, 255); stroke-opacity: 0.6; fill: rgb(255, 151, 255); fill-opacity: 0.6; stroke-width: 1; opacity: 1;"/><path class="sankey-link" d="M15,659.4843049327352C570,659.4843049327352 570,459.70852017937165 1125,459.70852017937165L1125,461.278026905829C570,461.278026905829 570,661.0538116591925 15,661.0538116591925Z" style="stroke: rgb(68, 68, 68); stroke-opacity: 1; fill: rgb(255, 151, 255); fill-opacity: 0.6; stroke-width: 0; opacity: 1;"/><path class="sankey-link" d="M15,671.2556053811657C570,671.2556053811657 570,679.8878923766814 1125,679.8878923766814L1125,685.3811659192824C570,685.3811659192824 570,676.7488789237666 15,676.7488789237666Z" style="stroke: rgb(68, 68, 68); stroke-opacity: 1; fill: rgb(255, 151, 255); fill-opacity: 0.6; stroke-width: 0; opacity: 1;"/><path class="sankey-link" d="M15,668.9013452914795C570,668.9013452914795 570,634.2825112107626 1125,634.2825112107626L1125,636.6367713004486C570,636.6367713004486 570,671.2556053811655 15,671.2556053811655Z" style="stroke: rgb(68, 68, 68); stroke-opacity: 1; fill: rgb(255, 151, 255); fill-opacity: 0.6; stroke-width: 0; opacity: 1;"/><path class="sankey-link" d="M15,649.2825112107621C570,649.2825112107621 570,216.95067264573913 1125,216.95067264573913L1125,220.08968609865394C570,220.08968609865394 570,652.4215246636768 15,652.4215246636768Z" style="stroke: rgb(68, 68, 68); stroke-opacity: 1; fill: rgb(255, 151, 255); fill-opacity: 0.6; stroke-width: 0; opacity: 1;"/><path class="sankey-link" d="M15,652.4215246636769C570,652.4215246636769 570,353.5874439461876 1125,353.5874439461876L1125,360.6502242152459C570,360.6502242152459 570,659.4843049327352 15,659.4843049327352Z" style="stroke: rgb(68, 68, 68); stroke-opacity: 1; fill: rgb(255, 151, 255); fill-opacity: 0.6; stroke-width: 0; opacity: 1;"/><path class="sankey-link" d="M15,661.0538116591925C570,661.0538116591925 570,547.7802690582956 1125,547.7802690582956L1125,554.0582959641253C570,554.0582959641253 570,667.3318385650222 15,667.3318385650222Z" style="stroke: rgb(68, 68, 68); stroke-opacity: 1; fill: rgb(255, 151, 255); fill-opacity: 0.6; stroke-width: 0; opacity: 1;"/><path class="sankey-link" d="M15,172.3991031390139C570,172.3991031390139 570,387.4215246636767 1125,387.4215246636767L1125,389.7757847533628C570,389.7757847533628 570,174.75336322869998 15,174.75336322869998Z" style="stroke: rgb(68, 68, 68); stroke-opacity: 1; fill: rgb(182, 232, 128); fill-opacity: 0.6; stroke-width: 0; opacity: 1;"/><path class="sankey-link" d="M15,156.7040358744399C570,156.7040358744399 570,1.569506726456774 1125,1.569506726456774L1125,2.3542600896854737C570,2.3542600896854737 570,157.48878923766858 15,157.48878923766858Z" style="stroke: rgb(182, 232, 128); stroke-opacity: 0.6; fill: rgb(182, 232, 128); fill-opacity: 0.6; stroke-width: 1; opacity: 1;"/><path class="sankey-link" d="M15,177.10762331838612C570,177.10762331838612 570,575.3363228699552 1125,575.3363228699552L1125,576.9058295964126C570,576.9058295964126 570,178.67713004484352 15,178.67713004484352Z" style="stroke: rgb(68, 68, 68); stroke-opacity: 1; fill: rgb(182, 232, 128); fill-opacity: 0.6; stroke-width: 0; opacity: 1;"/><path class="sankey-link" d="M15,158.27354260089731C570,158.27354260089731 570,81.79372197309374 1125,81.79372197309374L1125,87.28699551569463C570,87.28699551569463 570,163.7668161434982 15,163.7668161434982Z" style="stroke: rgb(68, 68, 68); stroke-opacity: 1; fill: rgb(182, 232, 128); fill-opacity: 0.6; stroke-width: 0; opacity: 1;"/><path class="sankey-link" d="M15,174.7533632287C570,174.7533632287 570,428.3183856502237 1125,428.3183856502237L1125,429.1031390134524C570,429.1031390134524 570,175.53811659192868 15,175.53811659192868Z" style="stroke: rgb(182, 232, 128); stroke-opacity: 0.6; fill: rgb(182, 232, 128); fill-opacity: 0.6; stroke-width: 1; opacity: 1;"/><path class="sankey-link" d="M15,157.4887892376686C570,157.4887892376686 570,29.9103139013448 1125,29.9103139013448L1125,30.695067264573503C570,30.695067264573503 570,158.2735426008973 15,158.2735426008973Z" style="stroke: rgb(182, 232, 128); stroke-opacity: 0.6; fill: rgb(182, 232, 128); fill-opacity: 0.6; stroke-width: 1; opacity: 1;"/><path class="sankey-link" d="M15,178.67713004484352C570,178.67713004484352 570,653.9910313901344 1125,653.9910313901344L1125,654.775784753363C570,654.775784753363 570,179.4618834080722 15,179.4618834080722Z" style="stroke: rgb(182, 232, 128); stroke-opacity: 0.6; fill: rgb(182, 232, 128); fill-opacity: 0.6; stroke-width: 1; opacity: 1;"/><path class="sankey-link" d="M15,163.7668161434982C570,163.7668161434982 570,185.56053811659112 1125,185.56053811659112L1125,187.9147982062772C570,187.9147982062772 570,166.12107623318428 15,166.12107623318428Z" style="stroke: rgb(68, 68, 68); stroke-opacity: 1; fill: rgb(182, 232, 128); fill-opacity: 0.6; stroke-width: 0; opacity: 1;"/><path class="sankey-link" d="M15,166.1210762331843C570,166.1210762331843 570,251.56950672645664 1125,251.56950672645664L1125,257.84753363228623C570,257.84753363228623 570,172.39910313901393 15,172.39910313901393Z" style="stroke: rgb(68, 68, 68); stroke-opacity: 1; fill: rgb(182, 232, 128); fill-opacity: 0.6; stroke-width: 0; opacity: 1;"/><path class="sankey-link" d="M15,175.5381165919287C570,175.5381165919287 570,507.7578475336319 1125,507.7578475336319L1125,509.32735426008924C570,509.32735426008924 570,177.10762331838612 15,177.10762331838612Z" style="stroke: rgb(68, 68, 68); stroke-opacity: 1; fill: rgb(182, 232, 128); fill-opacity: 0.6; stroke-width: 0; opacity: 1;"/><path class="sankey-link" d="M15,390.04484304932737C570,390.04484304932737 570,3.9237668161428725 1125,3.9237668161428725L1125,4.708520179371572C570,4.708520179371572 570,390.82959641255604 15,390.82959641255604Z" style="stroke: rgb(255, 102, 146); stroke-opacity: 0.6; fill: rgb(255, 102, 146); fill-opacity: 0.6; stroke-width: 1; opacity: 1;"/><path class="sankey-link" d="M15,395.53811659192814C570,395.53811659192814 570,580.829596412556 1125,580.829596412556L1125,581.6143497757847C570,581.6143497757847 570,396.3228699551568 15,396.3228699551568Z" style="stroke: rgb(255, 102, 146); stroke-opacity: 0.6; fill: rgb(255, 102, 146); fill-opacity: 0.6; stroke-width: 1; opacity: 1;"/><path class="sankey-link" d="M15,391.6143497757847C570,391.6143497757847 570,111.61434977578433 1125,111.61434977578433L1125,112.39910313901304C570,112.39910313901304 570,392.3991031390134 15,392.3991031390134Z" style="stroke: rgb(255, 102, 146); stroke-opacity: 0.6; fill: rgb(255, 102, 146); fill-opacity: 0.6; stroke-width: 1; opacity: 1;"/><path class="sankey-link" d="M15,394.75336322869947C570,394.75336322869947 570,442.4439461883403 1125,442.4439461883403L1125,443.228699551569C570,443.228699551569 570,395.53811659192814 15,395.53811659192814Z" style="stroke: rgb(255, 102, 146); stroke-opacity: 0.6; fill: rgb(255, 102, 146); fill-opacity: 0.6; stroke-width: 1; opacity: 1;"/><path class="sankey-link" d="M15,390.82959641255604C570,390.82959641255604 570,44.035874439461395 1125,44.035874439461395L1125,44.8206278026901C570,44.8206278026901 570,391.6143497757847 15,391.6143497757847Z" style="stroke: rgb(255, 102, 146); stroke-opacity: 0.6; fill: rgb(255, 102, 146); fill-opacity: 0.6; stroke-width: 1; opacity: 1;"/><path class="sankey-link" d="M15,396.3228699551568C570,396.3228699551568 570,619.3721973094173 1125,619.3721973094173L1125,620.156950672646C570,620.156950672646 570,397.1076233183855 15,397.1076233183855Z" style="stroke: rgb(255, 102, 146); stroke-opacity: 0.6; fill: rgb(255, 102, 146); fill-opacity: 0.6; stroke-width: 1; opacity: 1;"/><path class="sankey-link" d="M15,392.3991031390134C570,392.3991031390134 570,204.39461883407992 1125,204.39461883407992L1125,205.1793721973086C570,205.1793721973086 570,393.18385650224207 15,393.18385650224207Z" style="stroke: rgb(255, 102, 146); stroke-opacity: 0.6; fill: rgb(255, 102, 146); fill-opacity: 0.6; stroke-width: 1; opacity: 1;"/><path class="sankey-link" d="M15,393.18385650224207C570,393.18385650224207 570,299.4394618834073 1125,299.4394618834073L1125,301.00896860986467C570,301.00896860986467 570,394.7533632286994 15,394.7533632286994Z" style="stroke: rgb(68, 68, 68); stroke-opacity: 1; fill: rgb(255, 102, 146); fill-opacity: 0.6; stroke-width: 0; opacity: 1;"/></g><g class="sankey-node-set" style="cursor: move;"><g class="sankey-node" transform="translate(1125.000,383.498)" style="opacity: 1;"><rect class="node-rect" width="15" height="25.112107623318366" style="stroke-width: 0.5; stroke: rgb(0, 0, 0); stroke-opacity: 1; fill: rgb(128, 128, 128); fill-opacity: 1;"/><text class="node-label" data-notex="1" x="0" y="0" text-anchor="end" transform="translate(-3.25,16.756053811659182)" style="cursor: default; font-family: 'Open Sans', verdana, arial, sans-serif; font-size: 12px; fill: rgb(42, 63, 95); fill-opacity: 1; white-space: pre; text-shadow: white 1px 1px 1px, white -1px -1px 1px, white 1px -1px 1px, white -1px 1px 1px;">AggressiveChase</text></g><g class="sankey-node" transform="translate(1125.000,-0.000)" style="opacity: 1;"><rect class="node-rect" width="15" height="5.493273542601031" style="stroke-width: 0.5; stroke: rgb(0, 0, 0); stroke-opacity: 1; fill: rgb(128, 128, 128); fill-opacity: 1;"/><text class="node-label" data-notex="1" x="0" y="0" text-anchor="end" transform="translate(-3.25,6.946636771300515)" style="cursor: default; font-family: 'Open Sans', verdana, arial, sans-serif; font-size: 12px; fill: rgb(42, 63, 95); fill-opacity: 1; white-space: pre; text-shadow: white 1px 1px 1px, white -1px -1px 1px, white 1px -1px 1px, white -1px 1px 1px;">Groupsniff</text></g><g class="sankey-node" transform="translate(1125.000,574.552)" style="opacity: 1;"><rect class="node-rect" width="15" height="22.757847533632457" style="stroke-width: 0.5; stroke: rgb(0, 0, 0); stroke-opacity: 1; fill: rgb(128, 128, 128); fill-opacity: 1;"/><text class="node-label" data-notex="1" x="0" y="0" text-anchor="end" transform="translate(-3.25,15.578923766816228)" style="cursor: default; font-family: 'Open Sans', verdana, arial, sans-serif; font-size: 12px; fill: rgb(42, 63, 95); fill-opacity: 1; white-space: pre; text-shadow: white 1px 1px 1px, white -1px -1px 1px, white 1px -1px 1px, white -1px 1px 1px;">SideAttack</text></g><g class="sankey-node" transform="translate(1125.000,69.238)" style="opacity: 1;"><rect class="node-rect" width="15" height="67.48878923766773" style="stroke-width: 0.5; stroke: rgb(0, 0, 0); stroke-opacity: 1; fill: rgb(128, 128, 128); fill-opacity: 1;"/><text class="node-label" data-notex="1" x="0" y="0" text-anchor="end" transform="translate(-3.25,37.94439461883387)" style="cursor: default; font-family: 'Open Sans', verdana, arial, sans-serif; font-size: 12px; fill: rgb(42, 63, 95); fill-opacity: 1; white-space: pre; text-shadow: white 1px 1px 1px, white -1px -1px 1px, white 1px -1px 1px, white -1px 1px 1px;">SideSniff1</text></g><g class="sankey-node" transform="translate(1125.000,151.726)" style="opacity: 1;"><rect class="node-rect" width="15" height="10.20179372197316" style="stroke-width: 0.5; stroke: rgb(0, 0, 0); stroke-opacity: 1; fill: rgb(128, 128, 128); fill-opacity: 1;"/><text class="node-label" data-notex="1" x="0" y="0" text-anchor="end" transform="translate(-3.25,9.30089686098658)" style="cursor: default; font-family: 'Open Sans', verdana, arial, sans-serif; font-size: 12px; fill: rgb(42, 63, 95); fill-opacity: 1; white-space: pre; text-shadow: white 1px 1px 1px, white -1px -1px 1px, white 1px -1px 1px, white -1px 1px 1px;">dig</text></g><g class="sankey-node" transform="translate(1125.000,423.610)" style="opacity: 1;"><rect class="node-rect" width="15" height="37.668161434977605" style="stroke-width: 0.5; stroke: rgb(0, 0, 0); stroke-opacity: 1; fill: rgb(128, 128, 128); fill-opacity: 1;"/><text class="node-label" data-notex="1" x="0" y="0" text-anchor="end" transform="translate(-3.25,23.034080717488802)" style="cursor: default; font-family: 'Open Sans', verdana, arial, sans-serif; font-size: 12px; fill: rgb(42, 63, 95); fill-opacity: 1; white-space: pre; text-shadow: white 1px 1px 1px, white -1px -1px 1px, white 1px -1px 1px, white -1px 1px 1px;">follow1</text></g><g class="sankey-node" transform="translate(1125.000,20.493)" style="opacity: 1;"><rect class="node-rect" width="15" height="33.74439461883415" style="stroke-width: 0.5; stroke: rgb(0, 0, 0); stroke-opacity: 1; fill: rgb(128, 128, 128); fill-opacity: 1;"/><text class="node-label" data-notex="1" x="0" y="0" text-anchor="end" transform="translate(-3.25,21.072197309417074)" style="cursor: default; font-family: 'Open Sans', verdana, arial, sans-serif; font-size: 12px; fill: rgb(42, 63, 95); fill-opacity: 1; white-space: pre; text-shadow: white 1px 1px 1px, white -1px -1px 1px, white 1px -1px 1px, white -1px 1px 1px;">groomfront</text></g><g class="sankey-node" transform="translate(1125.000,476.278)" style="opacity: 1;"><rect class="node-rect" width="15" height="12.55605381165924" style="stroke-width: 0.5; stroke: rgb(0, 0, 0); stroke-opacity: 1; fill: rgb(128, 128, 128); fill-opacity: 1;"/><text class="node-label" data-notex="1" x="0" y="0" text-anchor="end" transform="translate(-3.25,10.47802690582962)" style="cursor: default; font-family: 'Open Sans', verdana, arial, sans-serif; font-size: 12px; fill: rgb(42, 63, 95); fill-opacity: 1; white-space: pre; text-shadow: white 1px 1px 1px, white -1px -1px 1px, white 1px -1px 1px, white -1px 1px 1px;">nose2nose1</text></g><g class="sankey-node" transform="translate(1125.000,653.991)" style="opacity: 1;"><rect class="node-rect" width="15" height="34.529147982062796" style="stroke-width: 0.5; stroke: rgb(0, 0, 0); stroke-opacity: 1; fill: rgb(128, 128, 128); fill-opacity: 1;"/><text class="node-label" data-notex="1" x="0" y="0" text-anchor="end" transform="translate(-3.25,21.464573991031397)" style="cursor: default; font-family: 'Open Sans', verdana, arial, sans-serif; font-size: 12px; fill: rgb(42, 63, 95); fill-opacity: 1; white-space: pre; text-shadow: white 1px 1px 1px, white -1px -1px 1px, white 1px -1px 1px, white -1px 1px 1px;">nose2rear1</text></g><g class="sankey-node" transform="translate(1125.000,612.309)" style="opacity: 1;"><rect class="node-rect" width="15" height="26.681614349775373" style="stroke-width: 0.5; stroke: rgb(0, 0, 0); stroke-opacity: 1; fill: rgb(128, 128, 128); fill-opacity: 1;"/><text class="node-label" data-notex="1" x="0" y="0" text-anchor="end" transform="translate(-3.25,17.540807174887686)" style="cursor: default; font-family: 'Open Sans', verdana, arial, sans-serif; font-size: 12px; fill: rgb(42, 63, 95); fill-opacity: 1; white-space: pre; text-shadow: white 1px 1px 1px, white -1px -1px 1px, white 1px -1px 1px, white -1px 1px 1px;">nosey1</text></g><g class="sankey-node" transform="translate(1125.000,176.928)" style="opacity: 1;"><rect class="node-rect" width="15" height="43.161434977578494" style="stroke-width: 0.5; stroke: rgb(0, 0, 0); stroke-opacity: 1; fill: rgb(128, 128, 128); fill-opacity: 1;"/><text class="node-label" data-notex="1" x="0" y="0" text-anchor="end" transform="translate(-3.25,25.780717488789247)" style="cursor: default; font-family: 'Open Sans', verdana, arial, sans-serif; font-size: 12px; fill: rgb(42, 63, 95); fill-opacity: 1; white-space: pre; text-shadow: white 1px 1px 1px, white -1px -1px 1px, white 1px -1px 1px, white -1px 1px 1px;">sitcorner</text></g><g class="sankey-node" transform="translate(1125.000,235.090)" style="opacity: 1;"><rect class="node-rect" width="15" height="133.40807174887925" style="stroke-width: 0.5; stroke: rgb(0, 0, 0); stroke-opacity: 1; fill: rgb(128, 128, 128); fill-opacity: 1;"/><text class="node-label" data-notex="1" x="0" y="0" text-anchor="end" transform="translate(-3.25,70.90403587443963)" style="cursor: default; font-family: 'Open Sans', verdana, arial, sans-serif; font-size: 12px; fill: rgb(42, 63, 95); fill-opacity: 1; white-space: pre; text-shadow: white 1px 1px 1px, white -1px -1px 1px, white 1px -1px 1px, white -1px 1px 1px;">walk</text></g><g class="sankey-node" transform="translate(1125.000,503.834)" style="opacity: 1;"><rect class="node-rect" width="15" height="55.71748878923813" style="stroke-width: 0.5; stroke: rgb(0, 0, 0); stroke-opacity: 1; fill: rgb(128, 128, 128); fill-opacity: 1;"/><text class="node-label" data-notex="1" x="0" y="0" text-anchor="end" transform="translate(-3.25,32.05874439461907)" style="cursor: default; font-family: 'Open Sans', verdana, arial, sans-serif; font-size: 12px; fill: rgb(42, 63, 95); fill-opacity: 1; white-space: pre; text-shadow: white 1px 1px 1px, white -1px -1px 1px, white 1px -1px 1px, white -1px 1px 1px;">wallclimb</text></g><g class="sankey-node" transform="translate(1125.000,703.520)" style="opacity: 1;"><rect class="node-rect" width="15" height="16.479820627802837" style="stroke-width: 0.5; stroke: rgb(0, 0, 0); stroke-opacity: 1; fill: rgb(128, 128, 128); fill-opacity: 1;"/><text class="node-label" data-notex="1" x="0" y="0" text-anchor="end" transform="translate(-3.25,12.439910313901418)" style="cursor: default; font-family: 'Open Sans', verdana, arial, sans-serif; font-size: 12px; fill: rgb(42, 63, 95); fill-opacity: 1; white-space: pre; text-shadow: white 1px 1px 1px, white -1px -1px 1px, white 1px -1px 1px, white -1px 1px 1px;">BeingAttacked</text></g><g class="sankey-node" transform="translate(0.000,498.520)" style="opacity: 1;"><rect class="node-rect" width="15" height="129.48430493273486" style="stroke-width: 0.5; stroke: rgb(0, 0, 0); stroke-opacity: 1; fill: rgb(99, 110, 250); fill-opacity: 1;"/><text class="node-label" data-notex="1" x="0" y="0" text-anchor="start" transform="translate(18.25,68.94215246636743)" style="cursor: default; font-family: 'Open Sans', verdana, arial, sans-serif; font-size: 12px; fill: rgb(42, 63, 95); fill-opacity: 1; white-space: pre; text-shadow: white 1px 1px 1px, white -1px -1px 1px, white 1px -1px 1px, white -1px 1px 1px;">VTA</text></g><g class="sankey-node" transform="translate(0.000,412.108)" style="opacity: 1;"><rect class="node-rect" width="15" height="71.41255605381184" style="stroke-width: 0.5; stroke: rgb(0, 0, 0); stroke-opacity: 1; fill: rgb(239, 85, 59); fill-opacity: 1;"/><text class="node-label" data-notex="1" x="0" y="0" text-anchor="start" transform="translate(18.25,39.90627802690592)" style="cursor: default; font-family: 'Open Sans', verdana, arial, sans-serif; font-size: 12px; fill: rgb(42, 63, 95); fill-opacity: 1; white-space: pre; text-shadow: white 1px 1px 1px, white -1px -1px 1px, white 1px -1px 1px, white -1px 1px 1px;">LC</text></g><g class="sankey-node" transform="translate(0.000,304.417)" style="opacity: 1;"><rect class="node-rect" width="15" height="70.62780269058294" style="stroke-width: 0.5; stroke: rgb(0, 0, 0); stroke-opacity: 1; fill: rgb(0, 204, 150); fill-opacity: 1;"/><text class="node-label" data-notex="1" x="0" y="0" text-anchor="start" transform="translate(18.25,39.51390134529147)" style="cursor: default; font-family: 'Open Sans', verdana, arial, sans-serif; font-size: 12px; fill: rgb(42, 63, 95); fill-opacity: 1; white-space: pre; text-shadow: white 1px 1px 1px, white -1px -1px 1px, white 1px -1px 1px, white -1px 1px 1px;">Cla</text></g><g class="sankey-node" transform="translate(0.000,194.462)" style="opacity: 1;"><rect class="node-rect" width="15" height="94.9551569506724" style="stroke-width: 0.5; stroke: rgb(0, 0, 0); stroke-opacity: 1; fill: rgb(171, 99, 250); fill-opacity: 1;"/><text class="node-label" data-notex="1" x="0" y="0" text-anchor="start" transform="translate(18.25,51.677578475336205)" style="cursor: default; font-family: 'Open Sans', verdana, arial, sans-serif; font-size: 12px; fill: rgb(42, 63, 95); fill-opacity: 1; white-space: pre; text-shadow: white 1px 1px 1px, white -1px -1px 1px, white 1px -1px 1px, white -1px 1px 1px;">Str</text></g><g class="sankey-node" transform="translate(0.000,104.036)" style="opacity: 1;"><rect class="node-rect" width="15" height="37.668161434977605" style="stroke-width: 0.5; stroke: rgb(0, 0, 0); stroke-opacity: 1; fill: rgb(255, 161, 90); fill-opacity: 1;"/><text class="node-label" data-notex="1" x="0" y="0" text-anchor="start" transform="translate(18.25,23.034080717488802)" style="cursor: default; font-family: 'Open Sans', verdana, arial, sans-serif; font-size: 12px; fill: rgb(42, 63, 95); fill-opacity: 1; white-space: pre; text-shadow: white 1px 1px 1px, white -1px -1px 1px, white 1px -1px 1px, white -1px 1px 1px;">NAc</text></g><g class="sankey-node" transform="translate(0.000,60.000)" style="opacity: 1;"><rect class="node-rect" width="15" height="29.035874439461963" style="stroke-width: 0.5; stroke: rgb(0, 0, 0); stroke-opacity: 1; fill: rgb(25, 211, 243); fill-opacity: 1;"/><text class="node-label" data-notex="1" x="0" y="0" text-anchor="start" transform="translate(18.25,18.71793721973098)" style="cursor: default; font-family: 'Open Sans', verdana, arial, sans-serif; font-size: 12px; fill: rgb(42, 63, 95); fill-opacity: 1; white-space: pre; text-shadow: white 1px 1px 1px, white -1px -1px 1px, white 1px -1px 1px, white -1px 1px 1px;">BLA</text></g><g class="sankey-node" transform="translate(0.000,390.045)" style="opacity: 1;"><rect class="node-rect" width="15" height="7.062780269058408" style="stroke-width: 0.5; stroke: rgb(0, 0, 0); stroke-opacity: 1; fill: rgb(255, 102, 146); fill-opacity: 1;"/><text class="node-label" data-notex="1" x="0" y="0" text-anchor="start" transform="translate(18.25,7.731390134529203)" style="cursor: default; font-family: 'Open Sans', verdana, arial, sans-serif; font-size: 12px; fill: rgb(42, 63, 95); fill-opacity: 1; white-space: pre; text-shadow: white 1px 1px 1px, white -1px -1px 1px, white 1px -1px 1px, white -1px 1px 1px;">lHb</text></g><g class="sankey-node" transform="translate(0.000,156.704)" style="opacity: 1;"><rect class="node-rect" width="15" height="22.757847533632116" style="stroke-width: 0.5; stroke: rgb(0, 0, 0); stroke-opacity: 1; fill: rgb(182, 232, 128); fill-opacity: 1;"/><text class="node-label" data-notex="1" x="0" y="0" text-anchor="start" transform="translate(18.25,15.578923766816057)" style="cursor: default; font-family: 'Open Sans', verdana, arial, sans-serif; font-size: 12px; fill: rgb(42, 63, 95); fill-opacity: 1; white-space: pre; text-shadow: white 1px 1px 1px, white -1px -1px 1px, white 1px -1px 1px, white -1px 1px 1px;">dPAG</text></g><g class="sankey-node" transform="translate(0.000,643.004)" style="opacity: 1;"><rect class="node-rect" width="15" height="34.52914798206302" style="stroke-width: 0.5; stroke: rgb(0, 0, 0); stroke-opacity: 1; fill: rgb(255, 151, 255); fill-opacity: 1;"/><text class="node-label" data-notex="1" x="0" y="0" text-anchor="start" transform="translate(18.25,21.46457399103151)" style="cursor: default; font-family: 'Open Sans', verdana, arial, sans-serif; font-size: 12px; fill: rgb(42, 63, 95); fill-opacity: 1; white-space: pre; text-shadow: white 1px 1px 1px, white -1px -1px 1px, white 1px -1px 1px, white -1px 1px 1px;">cPFC</text></g><g class="sankey-node" transform="translate(0.000,692.534)" style="opacity: 1;"><rect class="node-rect" width="15" height="27.4663677130045" style="stroke-width: 0.5; stroke: rgb(0, 0, 0); stroke-opacity: 1; fill: rgb(254, 203, 82); fill-opacity: 1;"/><text class="node-label" data-notex="1" x="0" y="0" text-anchor="start" transform="translate(18.25,17.93318385650225)" style="cursor: default; font-family: 'Open Sans', verdana, arial, sans-serif; font-size: 12px; fill: rgb(42, 63, 95); fill-opacity: 1; white-space: pre; text-shadow: white 1px 1px 1px, white -1px -1px 1px, white 1px -1px 1px, white -1px 1px 1px;">LHyp</text></g></g></g><defs id="topdefs-bda7ad"><g class="clips"/></defs><g class="layer-above"><g class="imagelayer"/><g class="shapelayer"/></g><g class="infolayer"><g class="g-gtitle"/><g class="first-render"/></g></svg>