<svg class="main-svg" xmlns="http://www.w3.org/2000/svg" xmlns:xlink="http://www.w3.org/1999/xlink" width="1300" height="900" style="" viewBox="0 0 1300 900"><rect x="0" y="0" width="1300" height="900" style="fill: rgb(255, 255, 255); fill-opacity: 1;"/><defs id="defs-558cf7"><g class="clips"/><g class="gradients"/><g class="patterns"/></defs><g class="bglayer"/><g class="layer-below"><g class="imagelayer"/><g class="shapelayer"/></g><g class="cartesianlayer"/><g class="polarlayer"/><g class="smithlayer"/><g class="ternarylayer"/><g class="geolayer"/><g class="funnelarealayer"/><g class="pielayer"/><g class="iciclelayer"/><g class="treemaplayer"/><g class="sunburstlayer"/><g class="glimages"/><g class="sankey" transform="translate(80,100)matrix(1 0 0 1 0 0)" style="box-sizing: content-box; position: absolute; left: 0px; shape-rendering: geometricprecision; pointer-events: none;"><g class="sankey-links" style="fill: none;"><path class="sankey-link" d="M15,17.27848101265831C570,17.27848101265831 570,255.5696202531638 1125,255.5696202531638L1125,265.4430379746828C570,265.4430379746828 570,27.1518987341773 15,27.1518987341773Z" style="stroke: rgb(68, 68, 68); stroke-opacity: 1; fill: rgb(25, 211, 243); fill-opacity: 0.6; stroke-width: 0; opacity: 1;"/><path class="sankey-link" d="M15,8.526512829121202e-14C570,8.526512829121202e-14 570,89.99999999999926 1125,89.99999999999926L1125,107.2784810126575C570,107.2784810126575 570,17.27848101265831 15,17.27848101265831Z" style="stroke: rgb(68, 68, 68); stroke-opacity: 1; fill: rgb(25, 211, 243); fill-opacity: 0.6; stroke-width: 0; opacity: 1;"/><path class="sankey-link" d="M15,27.151898734177298C570,27.151898734177298 570,438.4177215189867 1125,438.4177215189867L1125,443.3544303797462C570,443.3544303797462 570,32.08860759493679 15,32.08860759493679Z" style="stroke: rgb(68, 68, 68); stroke-opacity: 1; fill: rgb(25, 211, 243); fill-opacity: 0.6; stroke-width: 0; opacity: 1;"/><path class="sankey-link" d="M15,378.79746835443063C570,378.79746835443063 570,341.96202531645497 1125,341.96202531645497L1125,371.58227848101194C570,371.58227848101194 570,408.4177215189876 15,408.4177215189876Z" style="stroke: rgb(68, 68, 68); stroke-opacity: 1; fill: rgb(0, 204, 150); fill-opacity: 0.6; stroke-width: 0; opacity: 1;"/><path class="sankey-link" d="M15,354.11392405063316C570,354.11392405063316 570,193.67088607594866 1125,193.67088607594866L1125,218.35443037974613C570,218.35443037974613 570,378.79746835443063 15,378.79746835443063Z" style="stroke: rgb(68, 68, 68); stroke-opacity: 1; fill: rgb(0, 204, 150); fill-opacity: 0.6; stroke-width: 0; opacity: 1;"/><path class="sankey-link" d="M15,408.4177215189876C570,408.4177215189876 570,507.5316455696197 1125,507.5316455696197L1125,529.7468354430374C570,529.7468354430374 570,430.6329113924053 15,430.6329113924053Z" style="stroke: rgb(68, 68, 68); stroke-opacity: 1; fill: rgb(0, 204, 150); fill-opacity: 0.6; stroke-width: 0; opacity: 1;"/><path class="sankey-link" d="M15,430.63291139240533C570,430.63291139240533 570,650.8860759493671 1125,650.8860759493671L1125,663.2278481012659C570,663.2278481012659 570,442.974683544304 15,442.974683544304Z" style="stroke: rgb(68, 68, 68); stroke-opacity: 1; fill: rgb(0, 204, 150); fill-opacity: 0.6; stroke-width: 0; opacity: 1;"/><path class="sankey-link" d="M15,279.6835443037977C570,279.6835443037977 570,319.74683544303724 1125,319.74683544303724L1125,337.0253164556954C570,337.0253164556954 570,296.9620253164559 15,296.9620253164559Z" style="stroke: rgb(68, 68, 68); stroke-opacity: 1; fill: rgb(239, 85, 59); fill-opacity: 0.6; stroke-width: 0; opacity: 1;"/><path class="sankey-link" d="M15,259.9367088607597C570,259.9367088607597 570,171.45569620253093 1125,171.45569620253093L1125,191.2025316455689C570,191.2025316455689 570,279.6835443037977 15,279.6835443037977Z" style="stroke: rgb(68, 68, 68); stroke-opacity: 1; fill: rgb(239, 85, 59); fill-opacity: 0.6; stroke-width: 0; opacity: 1;"/><path class="sankey-link" d="M15,296.96202531645594C570,296.96202531645594 570,490.2531645569614 1125,490.2531645569614L1125,505.0632911392399C570,505.0632911392399 570,311.7721518987344 15,311.7721518987344Z" style="stroke: rgb(68, 68, 68); stroke-opacity: 1; fill: rgb(239, 85, 59); fill-opacity: 0.6; stroke-width: 0; opacity: 1;"/><path class="sankey-link" d="M15,311.7721518987344C570,311.7721518987344 570,648.4177215189874 1125,648.4177215189874L1125,650.8860759493672C570,650.8860759493672 570,314.2405063291141 15,314.2405063291141Z" style="stroke: rgb(68, 68, 68); stroke-opacity: 1; fill: rgb(239, 85, 59); fill-opacity: 0.6; stroke-width: 0; opacity: 1;"/><path class="sankey-link" d="M15,695.3164556962026C570,695.3164556962026 570,416.0126582278474 1125,416.0126582278474L1125,423.4177215189866C570,423.4177215189866 570,702.7215189873418 15,702.7215189873418Z" style="stroke: rgb(68, 68, 68); stroke-opacity: 1; fill: rgb(254, 203, 82); fill-opacity: 0.6; stroke-width: 0; opacity: 1;"/><path class="sankey-link" d="M15,702.7215189873418C570,702.7215189873418 570,623.5443037974676 1125,623.5443037974676L1125,630.9493670886068C570,630.9493670886068 570,710.126582278481 15,710.126582278481Z" style="stroke: rgb(68, 68, 68); stroke-opacity: 1; fill: rgb(254, 203, 82); fill-opacity: 0.6; stroke-width: 0; opacity: 1;"/><path class="sankey-link" d="M15,710.126582278481C570,710.126582278481 570,710.1265822784809 1125,710.1265822784809L1125,719.9999999999999C570,719.9999999999999 570,720 15,720Z" style="stroke: rgb(68, 68, 68); stroke-opacity: 1; fill: rgb(254, 203, 82); fill-opacity: 0.6; stroke-width: 0; opacity: 1;"/><path class="sankey-link" d="M15,61.89873417721522C570,61.89873417721522 570,265.4430379746828 1125,265.4430379746828L1125,280.2531645569613C570,280.2531645569613 570,76.7088607594937 15,76.7088607594937Z" style="stroke: rgb(68, 68, 68); stroke-opacity: 1; fill: rgb(255, 161, 90); fill-opacity: 0.6; stroke-width: 0; opacity: 1;"/><path class="sankey-link" d="M15,47.08860759493675C570,47.08860759493675 570,107.2784810126575 1125,107.2784810126575L1125,122.08860759493598C570,122.08860759493598 570,61.89873417721523 15,61.89873417721523Z" style="stroke: rgb(68, 68, 68); stroke-opacity: 1; fill: rgb(255, 161, 90); fill-opacity: 0.6; stroke-width: 0; opacity: 1;"/><path class="sankey-link" d="M15,76.7088607594937C570,76.7088607594937 570,443.3544303797462 1125,443.3544303797462L1125,450.7594936708854C570,450.7594936708854 570,84.11392405063295 15,84.11392405063295Z" style="stroke: rgb(68, 68, 68); stroke-opacity: 1; fill: rgb(255, 161, 90); fill-opacity: 0.6; stroke-width: 0; opacity: 1;"/><path class="sankey-link" d="M15,138.607594936709C570,138.607594936709 570,280.2531645569613 1125,280.2531645569613L1125,309.87341772151825C570,309.87341772151825 570,168.22784810126598 15,168.22784810126598Z" style="stroke: rgb(68, 68, 68); stroke-opacity: 1; fill: rgb(171, 99, 250); fill-opacity: 0.6; stroke-width: 0; opacity: 1;"/><path class="sankey-link" d="M15,99.11392405063305C570,99.11392405063305 570,122.08860759493598 1125,122.08860759493598L1125,161.58227848101194C570,161.58227848101194 570,138.607594936709 15,138.607594936709Z" style="stroke: rgb(68, 68, 68); stroke-opacity: 1; fill: rgb(171, 99, 250); fill-opacity: 0.6; stroke-width: 0; opacity: 1;"/><path class="sankey-link" d="M15,168.22784810126598C570,168.22784810126598 570,450.75949367088543 1125,450.75949367088543L1125,482.8481012658221C570,482.8481012658221 570,200.3164556962027 15,200.3164556962027Z" style="stroke: rgb(68, 68, 68); stroke-opacity: 1; fill: rgb(171, 99, 250); fill-opacity: 0.6; stroke-width: 0; opacity: 1;"/><path class="sankey-link" d="M15,200.3164556962027C570,200.3164556962027 570,645.9493670886077 1125,645.9493670886077L1125,648.4177215189875C570,648.4177215189875 570,202.78481012658244 15,202.78481012658244Z" style="stroke: rgb(68, 68, 68); stroke-opacity: 1; fill: rgb(171, 99, 250); fill-opacity: 0.6; stroke-width: 0; opacity: 1;"/><path class="sankey-link" d="M15,554.4303797468356C570,554.4303797468356 570,388.8607594936702 1125,388.8607594936702L1125,416.01265822784734C570,416.01265822784734 570,581.5822784810127 15,581.5822784810127Z" style="stroke: rgb(68, 68, 68); stroke-opacity: 1; fill: rgb(99, 110, 250); fill-opacity: 0.6; stroke-width: 0; opacity: 1;"/><path class="sankey-link" d="M15,544.5569620253166C570,544.5569620253166 570,230.69620253164487 1125,230.69620253164487L1125,240.56962025316386C570,240.56962025316386 570,554.4303797468356 15,554.4303797468356Z" style="stroke: rgb(68, 68, 68); stroke-opacity: 1; fill: rgb(99, 110, 250); fill-opacity: 0.6; stroke-width: 0; opacity: 1;"/><path class="sankey-link" d="M15,581.5822784810127C570,581.5822784810127 570,561.835443037974 1125,561.835443037974L1125,623.5443037974677C570,623.5443037974677 570,643.2911392405065 15,643.2911392405065Z" style="stroke: rgb(68, 68, 68); stroke-opacity: 1; fill: rgb(99, 110, 250); fill-opacity: 0.6; stroke-width: 0; opacity: 1;"/><path class="sankey-link" d="M15,643.2911392405064C570,643.2911392405064 570,673.1012658227847 1125,673.1012658227847L1125,710.1265822784809C570,710.1265822784809 570,680.3164556962025 15,680.3164556962025Z" style="stroke: rgb(68, 68, 68); stroke-opacity: 1; fill: rgb(99, 110, 250); fill-opacity: 0.6; stroke-width: 0; opacity: 1;"/><path class="sankey-link" d="M15,470.3164556962027C570,470.3164556962027 570,371.58227848101194 1125,371.58227848101194L1125,388.8607594936701C570,388.8607594936701 570,487.59493670886087 15,487.59493670886087Z" style="stroke: rgb(68, 68, 68); stroke-opacity: 1; fill: rgb(255, 151, 255); fill-opacity: 0.6; stroke-width: 0; opacity: 1;"/><path class="sankey-link" d="M15,457.97468354430396C570,457.97468354430396 570,218.35443037974613 1125,218.35443037974613L1125,230.69620253164487C570,230.69620253164487 570,470.31645569620264 15,470.31645569620264Z" style="stroke: rgb(68, 68, 68); stroke-opacity: 1; fill: rgb(255, 151, 255); fill-opacity: 0.6; stroke-width: 0; opacity: 1;"/><path class="sankey-link" d="M15,487.5949367088609C570,487.5949367088609 570,529.7468354430373 1125,529.7468354430373L1125,561.8354430379741C570,561.8354430379741 570,519.6835443037976 15,519.6835443037976Z" style="stroke: rgb(68, 68, 68); stroke-opacity: 1; fill: rgb(255, 151, 255); fill-opacity: 0.6; stroke-width: 0; opacity: 1;"/><path class="sankey-link" d="M15,519.6835443037976C570,519.6835443037976 570,663.2278481012657 1125,663.2278481012657L1125,673.1012658227847C570,673.1012658227847 570,529.5569620253166 15,529.5569620253166Z" style="stroke: rgb(68, 68, 68); stroke-opacity: 1; fill: rgb(255, 151, 255); fill-opacity: 0.6; stroke-width: 0; opacity: 1;"/><path class="sankey-link" d="M15,227.65822784810155C570,227.65822784810155 570,309.87341772151825 1125,309.87341772151825L1125,319.74683544303724C570,319.74683544303724 570,237.53164556962054 15,237.53164556962054Z" style="stroke: rgb(68, 68, 68); stroke-opacity: 1; fill: rgb(182, 232, 128); fill-opacity: 0.6; stroke-width: 0; opacity: 1;"/><path class="sankey-link" d="M15,217.78481012658256C570,217.78481012658256 570,161.58227848101194 1125,161.58227848101194L1125,171.45569620253093C570,171.45569620253093 570,227.65822784810155 15,227.65822784810155Z" style="stroke: rgb(68, 68, 68); stroke-opacity: 1; fill: rgb(182, 232, 128); fill-opacity: 0.6; stroke-width: 0; opacity: 1;"/><path class="sankey-link" d="M15,237.53164556962054C570,237.53164556962054 570,482.84810126582215 1125,482.84810126582215L1125,490.25316455696134C570,490.25316455696134 570,244.93670886075978 15,244.93670886075978Z" style="stroke: rgb(68, 68, 68); stroke-opacity: 1; fill: rgb(182, 232, 128); fill-opacity: 0.6; stroke-width: 0; opacity: 1;"/><path class="sankey-link" d="M15,331.7088607594939C570,331.7088607594939 570,337.0253164556955 1125,337.0253164556955L1125,341.96202531645497C570,341.96202531645497 570,336.6455696202534 15,336.6455696202534Z" style="stroke: rgb(68, 68, 68); stroke-opacity: 1; fill: rgb(255, 102, 146); fill-opacity: 0.6; stroke-width: 0; opacity: 1;"/><path class="sankey-link" d="M15,329.24050632911417C570,329.24050632911417 570,191.2025316455689 1125,191.2025316455689L1125,193.67088607594866C570,193.67088607594866 570,331.70886075949386 15,331.70886075949386Z" style="stroke: rgb(68, 68, 68); stroke-opacity: 1; fill: rgb(255, 102, 146); fill-opacity: 0.6; stroke-width: 0; opacity: 1;"/><path class="sankey-link" d="M15,336.6455696202534C570,336.6455696202534 570,505.0632911392399 1125,505.0632911392399L1125,507.53164556961957C570,507.53164556961957 570,339.1139240506331 15,339.1139240506331Z" style="stroke: rgb(68, 68, 68); stroke-opacity: 1; fill: rgb(255, 102, 146); fill-opacity: 0.6; stroke-width: 0; opacity: 1;"/></g><g class="sankey-node-set" style="cursor: move;"><g class="sankey-node" transform="translate(1125.000,255.570)" style="opacity: 1;"><rect class="node-rect" width="15" height="167.8481012658229" style="stroke-width: 0.5; stroke: rgb(0, 0, 0); stroke-opacity: 1; fill: rgb(128, 128, 128); fill-opacity: 1;"/><text class="node-label" data-notex="1" x="0" y="0" text-anchor="end" transform="translate(-3.25,88.12405063291145)" style="cursor: default; font-family: 'Open Sans', verdana, arial, sans-serif; font-size: 12px; fill: rgb(42, 63, 95); fill-opacity: 1; white-space: pre; text-shadow: white 1px 1px 1px, white -1px -1px 1px, white 1px -1px 1px, white -1px 1px 1px;">Aggressor</text></g><g class="sankey-node" transform="translate(1125.000,90.000)" style="opacity: 1;"><rect class="node-rect" width="15" height="150.56962025316454" style="stroke-width: 0.5; stroke: rgb(0, 0, 0); stroke-opacity: 1; fill: rgb(128, 128, 128); fill-opacity: 1;"/><text class="node-label" data-notex="1" x="0" y="0" text-anchor="end" transform="translate(-3.25,79.48481012658227)" style="cursor: default; font-family: 'Open Sans', verdana, arial, sans-serif; font-size: 12px; fill: rgb(42, 63, 95); fill-opacity: 1; white-space: pre; text-shadow: white 1px 1px 1px, white -1px -1px 1px, white 1px -1px 1px, white -1px 1px 1px;">NonSocial</text></g><g class="sankey-node" transform="translate(1125.000,438.418)" style="opacity: 1;"><rect class="node-rect" width="15" height="192.531645569621" style="stroke-width: 0.5; stroke: rgb(0, 0, 0); stroke-opacity: 1; fill: rgb(128, 128, 128); fill-opacity: 1;"/><text class="node-label" data-notex="1" x="0" y="0" text-anchor="end" transform="translate(-3.25,100.4658227848105)" style="cursor: default; font-family: 'Open Sans', verdana, arial, sans-serif; font-size: 12px; fill: rgb(42, 63, 95); fill-opacity: 1; white-space: pre; text-shadow: white 1px 1px 1px, white -1px -1px 1px, white 1px -1px 1px, white -1px 1px 1px;">Social</text></g><g class="sankey-node" transform="translate(1125.000,645.949)" style="opacity: 1;"><rect class="node-rect" width="15" height="74.05063291139231" style="stroke-width: 0.5; stroke: rgb(0, 0, 0); stroke-opacity: 1; fill: rgb(128, 128, 128); fill-opacity: 1;"/><text class="node-label" data-notex="1" x="0" y="0" text-anchor="end" transform="translate(-3.25,41.22531645569616)" style="cursor: default; font-family: 'Open Sans', verdana, arial, sans-serif; font-size: 12px; fill: rgb(42, 63, 95); fill-opacity: 1; white-space: pre; text-shadow: white 1px 1px 1px, white -1px -1px 1px, white 1px -1px 1px, white -1px 1px 1px;">Target of Aggression</text></g><g class="sankey-node" transform="translate(0.000,544.557)" style="opacity: 1;"><rect class="node-rect" width="15" height="135.75949367088606" style="stroke-width: 0.5; stroke: rgb(0, 0, 0); stroke-opacity: 1; fill: rgb(99, 110, 250); fill-opacity: 1;"/><text class="node-label" data-notex="1" x="0" y="0" text-anchor="start" transform="translate(18.25,72.07974683544303)" style="cursor: default; font-family: 'Open Sans', verdana, arial, sans-serif; font-size: 12px; fill: rgb(42, 63, 95); fill-opacity: 1; white-space: pre; text-shadow: white 1px 1px 1px, white -1px -1px 1px, white 1px -1px 1px, white -1px 1px 1px;">VTA</text></g><g class="sankey-node" transform="translate(0.000,259.937)" style="opacity: 1;"><rect class="node-rect" width="15" height="54.303797468354446" style="stroke-width: 0.5; stroke: rgb(0, 0, 0); stroke-opacity: 1; fill: rgb(239, 85, 59); fill-opacity: 1;"/><text class="node-label" data-notex="1" x="0" y="0" text-anchor="start" transform="translate(18.25,31.351898734177222)" style="cursor: default; font-family: 'Open Sans', verdana, arial, sans-serif; font-size: 12px; fill: rgb(42, 63, 95); fill-opacity: 1; white-space: pre; text-shadow: white 1px 1px 1px, white -1px -1px 1px, white 1px -1px 1px, white -1px 1px 1px;">LC</text></g><g class="sankey-node" transform="translate(0.000,354.114)" style="opacity: 1;"><rect class="node-rect" width="15" height="88.8607594936708" style="stroke-width: 0.5; stroke: rgb(0, 0, 0); stroke-opacity: 1; fill: rgb(0, 204, 150); fill-opacity: 1;"/><text class="node-label" data-notex="1" x="0" y="0" text-anchor="start" transform="translate(18.25,48.6303797468354)" style="cursor: default; font-family: 'Open Sans', verdana, arial, sans-serif; font-size: 12px; fill: rgb(42, 63, 95); fill-opacity: 1; white-space: pre; text-shadow: white 1px 1px 1px, white -1px -1px 1px, white 1px -1px 1px, white -1px 1px 1px;">Cla</text></g><g class="sankey-node" transform="translate(0.000,99.114)" style="opacity: 1;"><rect class="node-rect" width="15" height="103.67088607594951" style="stroke-width: 0.5; stroke: rgb(0, 0, 0); stroke-opacity: 1; fill: rgb(171, 99, 250); fill-opacity: 1;"/><text class="node-label" data-notex="1" x="0" y="0" text-anchor="start" transform="translate(18.25,56.03544303797476)" style="cursor: default; font-family: 'Open Sans', verdana, arial, sans-serif; font-size: 12px; fill: rgb(42, 63, 95); fill-opacity: 1; white-space: pre; text-shadow: white 1px 1px 1px, white -1px -1px 1px, white 1px -1px 1px, white -1px 1px 1px;">Str</text></g><g class="sankey-node" transform="translate(0.000,47.089)" style="opacity: 1;"><rect class="node-rect" width="15" height="37.02531645569627" style="stroke-width: 0.5; stroke: rgb(0, 0, 0); stroke-opacity: 1; fill: rgb(255, 161, 90); fill-opacity: 1;"/><text class="node-label" data-notex="1" x="0" y="0" text-anchor="start" transform="translate(18.25,22.712658227848134)" style="cursor: default; font-family: 'Open Sans', verdana, arial, sans-serif; font-size: 12px; fill: rgb(42, 63, 95); fill-opacity: 1; white-space: pre; text-shadow: white 1px 1px 1px, white -1px -1px 1px, white 1px -1px 1px, white -1px 1px 1px;">NAc</text></g><g class="sankey-node" transform="translate(0.000,0.000)" style="opacity: 1;"><rect class="node-rect" width="15" height="32.08860759493666" style="stroke-width: 0.5; stroke: rgb(0, 0, 0); stroke-opacity: 1; fill: rgb(25, 211, 243); fill-opacity: 1;"/><text class="node-label" data-notex="1" x="0" y="0" text-anchor="start" transform="translate(18.25,20.24430379746833)" style="cursor: default; font-family: 'Open Sans', verdana, arial, sans-serif; font-size: 12px; fill: rgb(42, 63, 95); fill-opacity: 1; white-space: pre; text-shadow: white 1px 1px 1px, white -1px -1px 1px, white 1px -1px 1px, white -1px 1px 1px;">BLA</text></g><g class="sankey-node" transform="translate(0.000,329.241)" style="opacity: 1;"><rect class="node-rect" width="15" height="9.87341772151899" style="stroke-width: 0.5; stroke: rgb(0, 0, 0); stroke-opacity: 1; fill: rgb(255, 102, 146); fill-opacity: 1;"/><text class="node-label" data-notex="1" x="0" y="0" text-anchor="start" transform="translate(18.25,9.136708860759494)" style="cursor: default; font-family: 'Open Sans', verdana, arial, sans-serif; font-size: 12px; fill: rgb(42, 63, 95); fill-opacity: 1; white-space: pre; text-shadow: white 1px 1px 1px, white -1px -1px 1px, white 1px -1px 1px, white -1px 1px 1px;">lHb</text></g><g class="sankey-node" transform="translate(0.000,217.785)" style="opacity: 1;"><rect class="node-rect" width="15" height="27.151898734177166" style="stroke-width: 0.5; stroke: rgb(0, 0, 0); stroke-opacity: 1; fill: rgb(182, 232, 128); fill-opacity: 1;"/><text class="node-label" data-notex="1" x="0" y="0" text-anchor="start" transform="translate(18.25,17.775949367088582)" style="cursor: default; font-family: 'Open Sans', verdana, arial, sans-serif; font-size: 12px; fill: rgb(42, 63, 95); fill-opacity: 1; white-space: pre; text-shadow: white 1px 1px 1px, white -1px -1px 1px, white 1px -1px 1px, white -1px 1px 1px;">dPAG</text></g><g class="sankey-node" transform="translate(0.000,457.975)" style="opacity: 1;"><rect class="node-rect" width="15" height="71.58227848101262" style="stroke-width: 0.5; stroke: rgb(0, 0, 0); stroke-opacity: 1; fill: rgb(255, 151, 255); fill-opacity: 1;"/><text class="node-label" data-notex="1" x="0" y="0" text-anchor="start" transform="translate(18.25,39.991139240506314)" style="cursor: default; font-family: 'Open Sans', verdana, arial, sans-serif; font-size: 12px; fill: rgb(42, 63, 95); fill-opacity: 1; white-space: pre; text-shadow: white 1px 1px 1px, white -1px -1px 1px, white 1px -1px 1px, white -1px 1px 1px;">cPFC</text></g><g class="sankey-node" transform="translate(0.000,695.316)" style="opacity: 1;"><rect class="node-rect" width="15" height="24.683544303797362" style="stroke-width: 0.5; stroke: rgb(0, 0, 0); stroke-opacity: 1; fill: rgb(254, 203, 82); fill-opacity: 1;"/><text class="node-label" data-notex="1" x="0" y="0" text-anchor="start" transform="translate(18.25,16.54177215189868)" style="cursor: default; font-family: 'Open Sans', verdana, arial, sans-serif; font-size: 12px; fill: rgb(42, 63, 95); fill-opacity: 1; white-space: pre; text-shadow: white 1px 1px 1px, white -1px -1px 1px, white 1px -1px 1px, white -1px 1px 1px;">LHyp</text></g></g></g><defs id="topdefs-558cf7"><g class="clips"/></defs><g class="layer-above"><g class="imagelayer"/><g class="shapelayer"/></g><g class="infolayer"><g class="g-gtitle"/><g class="first-render"/></g></svg>