<svg class="main-svg" xmlns="http://www.w3.org/2000/svg" xmlns:xlink="http://www.w3.org/1999/xlink" width="1300" height="900" style="" viewBox="0 0 1300 900"><rect x="0" y="0" width="1300" height="900" style="fill: rgb(255, 255, 255); fill-opacity: 1;"/><defs id="defs-af5ed9"><g class="clips"/><g class="gradients"/><g class="patterns"/></defs><g class="bglayer"/><g class="layer-below"><g class="imagelayer"/><g class="shapelayer"/></g><g class="cartesianlayer"/><g class="polarlayer"/><g class="smithlayer"/><g class="ternarylayer"/><g class="geolayer"/><g class="funnelarealayer"/><g class="pielayer"/><g class="iciclelayer"/><g class="treemaplayer"/><g class="sunburstlayer"/><g class="glimages"/><g class="sankey" transform="translate(80,100)matrix(1 0 0 1 0 0)" style="box-sizing: content-box; position: absolute; left: 0px; shape-rendering: geometricprecision; pointer-events: none;"><g class="sankey-links" style="fill: none;"><path class="sankey-link" d="M383.70000000000005,15.435218978102197C564.3000000000001,15.435218978102197 564.3000000000001,13.576094890510944 744.9000000000001,13.576094890510944L744.9000000000001,17.408211678832114C564.3000000000001,17.408211678832114 564.3000000000001,19.267335766423365 383.70000000000005,19.267335766423365Z" style="stroke: rgb(68, 68, 68); stroke-opacity: 1; fill: rgb(25, 211, 243); fill-opacity: 0.6; stroke-width: 0; opacity: 1;"/><path class="sankey-link" d="M383.70000000000005,19.26733576642337C564.3000000000001,19.26733576642337 564.3000000000001,113.0890510948905 744.9000000000001,113.0890510948905L744.9000000000001,114.04708029197079C564.3000000000001,114.04708029197079 564.3000000000001,20.22536496350366 383.70000000000005,20.22536496350366Z" style="stroke: rgb(25, 211, 243); stroke-opacity: 0.6; fill: rgb(25, 211, 243); fill-opacity: 0.6; stroke-width: 1; opacity: 1;"/><path class="sankey-link" d="M383.70000000000005,20.22536496350366C564.3000000000001,20.22536496350366 564.3000000000001,156.22992700729918 744.9000000000001,156.22992700729918L744.9000000000001,161.97810218978094C564.3000000000001,161.97810218978094 564.3000000000001,25.973540145985414 383.70000000000005,25.973540145985414Z" style="stroke: rgb(68, 68, 68); stroke-opacity: 1; fill: rgb(25, 211, 243); fill-opacity: 0.6; stroke-width: 0; opacity: 1;"/><path class="sankey-link" d="M383.70000000000005,25.973540145985414C564.3000000000001,25.973540145985414 564.3000000000001,259.29635036496353 744.9000000000001,259.29635036496353L744.9000000000001,264.08649635036494C564.3000000000001,264.08649635036494 564.3000000000001,30.763686131386873 383.70000000000005,30.763686131386873Z" style="stroke: rgb(68, 68, 68); stroke-opacity: 1; fill: rgb(25, 211, 243); fill-opacity: 0.6; stroke-width: 0; opacity: 1;"/><path class="sankey-link" d="M383.70000000000005,30.763686131386873C564.3000000000001,30.763686131386873 564.3000000000001,431.1509124087592 744.9000000000001,431.1509124087592L744.9000000000001,432.10894160583945C564.3000000000001,432.10894160583945 564.3000000000001,31.721715328467166 383.70000000000005,31.721715328467166Z" style="stroke: rgb(25, 211, 243); stroke-opacity: 0.6; fill: rgb(25, 211, 243); fill-opacity: 0.6; stroke-width: 1; opacity: 1;"/><path class="sankey-link" d="M383.70000000000005,31.721715328467162C564.3000000000001,31.721715328467162 564.3000000000001,464.2516423357665 744.9000000000001,464.2516423357665L744.9000000000001,465.20967153284676C564.3000000000001,465.20967153284676 564.3000000000001,32.679744525547456 383.70000000000005,32.679744525547456Z" style="stroke: rgb(25, 211, 243); stroke-opacity: 0.6; fill: rgb(25, 211, 243); fill-opacity: 0.6; stroke-width: 1; opacity: 1;"/><path class="sankey-link" d="M383.70000000000005,32.679744525547456C564.3000000000001,32.679744525547456 564.3000000000001,526.3806569343068 744.9000000000001,526.3806569343068L744.9000000000001,535.0029197080295C564.3000000000001,535.0029197080295 564.3000000000001,41.30200729927008 383.70000000000005,41.30200729927008Z" style="stroke: rgb(68, 68, 68); stroke-opacity: 1; fill: rgb(25, 211, 243); fill-opacity: 0.6; stroke-width: 0; opacity: 1;"/><path class="sankey-link" d="M383.70000000000005,41.30200729927009C564.3000000000001,41.30200729927009 564.3000000000001,638.9403284671533 744.9000000000001,638.9403284671533L744.9000000000001,642.7724452554745C564.3000000000001,642.7724452554745 564.3000000000001,45.13412408759126 383.70000000000005,45.13412408759126Z" style="stroke: rgb(68, 68, 68); stroke-opacity: 1; fill: rgb(25, 211, 243); fill-opacity: 0.6; stroke-width: 0; opacity: 1;"/><path class="sankey-link" d="M383.70000000000005,63.2074817518248C564.3000000000001,63.2074817518248 564.3000000000001,17.40821167883211 744.9000000000001,17.40821167883211L744.9000000000001,20.28229927007299C564.3000000000001,20.28229927007299 564.3000000000001,66.08156934306568 383.70000000000005,66.08156934306568Z" style="stroke: rgb(68, 68, 68); stroke-opacity: 1; fill: rgb(99, 110, 250); fill-opacity: 0.6; stroke-width: 0; opacity: 1;"/><path class="sankey-link" d="M383.70000000000005,66.08156934306568C564.3000000000001,66.08156934306568 564.3000000000001,68.04087591240875 744.9000000000001,68.04087591240875L744.9000000000001,69.95693430656934C564.3000000000001,69.95693430656934 564.3000000000001,67.99762773722627 383.70000000000005,67.99762773722627Z" style="stroke: rgb(68, 68, 68); stroke-opacity: 1; fill: rgb(99, 110, 250); fill-opacity: 0.6; stroke-width: 0; opacity: 1;"/><path class="sankey-link" d="M383.70000000000005,67.99762773722627C564.3000000000001,67.99762773722627 564.3000000000001,114.04708029197079 744.9000000000001,114.04708029197079L744.9000000000001,115.96313868613137C564.3000000000001,115.96313868613137 564.3000000000001,69.91368613138685 383.70000000000005,69.91368613138685Z" style="stroke: rgb(68, 68, 68); stroke-opacity: 1; fill: rgb(99, 110, 250); fill-opacity: 0.6; stroke-width: 0; opacity: 1;"/><path class="sankey-link" d="M383.70000000000005,69.91368613138685C564.3000000000001,69.91368613138685 564.3000000000001,161.97810218978094 744.9000000000001,161.97810218978094L744.9000000000001,169.6423357664233C564.3000000000001,169.6423357664233 564.3000000000001,77.5779197080292 383.70000000000005,77.5779197080292Z" style="stroke: rgb(68, 68, 68); stroke-opacity: 1; fill: rgb(99, 110, 250); fill-opacity: 0.6; stroke-width: 0; opacity: 1;"/><path class="sankey-link" d="M383.70000000000005,77.57791970802919C564.3000000000001,77.57791970802919 564.3000000000001,234.22390510948912 744.9000000000001,234.22390510948912L744.9000000000001,236.1399635036497C564.3000000000001,236.1399635036497 564.3000000000001,79.49397810218977 383.70000000000005,79.49397810218977Z" style="stroke: rgb(68, 68, 68); stroke-opacity: 1; fill: rgb(99, 110, 250); fill-opacity: 0.6; stroke-width: 0; opacity: 1;"/><path class="sankey-link" d="M383.70000000000005,79.49397810218977C564.3000000000001,79.49397810218977 564.3000000000001,264.086496350365 744.9000000000001,264.086496350365L744.9000000000001,277.4989051094891C564.3000000000001,277.4989051094891 564.3000000000001,92.90638686131385 383.70000000000005,92.90638686131385Z" style="stroke: rgb(68, 68, 68); stroke-opacity: 1; fill: rgb(99, 110, 250); fill-opacity: 0.6; stroke-width: 0; opacity: 1;"/><path class="sankey-link" d="M383.70000000000005,92.90638686131386C564.3000000000001,92.90638686131386 564.3000000000001,348.7675182481753 744.9000000000001,348.7675182481753L744.9000000000001,349.72554744525553C564.3000000000001,349.72554744525553 564.3000000000001,93.86441605839416 383.70000000000005,93.86441605839416Z" style="stroke: rgb(99, 110, 250); stroke-opacity: 0.6; fill: rgb(99, 110, 250); fill-opacity: 0.6; stroke-width: 1; opacity: 1;"/><path class="sankey-link" d="M383.70000000000005,93.86441605839416C564.3000000000001,93.86441605839416 564.3000000000001,364.68120437956213 744.9000000000001,364.68120437956213L744.9000000000001,369.47135036496354C564.3000000000001,369.47135036496354 564.3000000000001,98.65456204379562 383.70000000000005,98.65456204379562Z" style="stroke: rgb(68, 68, 68); stroke-opacity: 1; fill: rgb(99, 110, 250); fill-opacity: 0.6; stroke-width: 0; opacity: 1;"/><path class="sankey-link" d="M383.70000000000005,98.65456204379562C564.3000000000001,98.65456204379562 564.3000000000001,432.1089416058395 744.9000000000001,432.1089416058395L744.9000000000001,436.8990875912409C564.3000000000001,436.8990875912409 564.3000000000001,103.44470802919709 383.70000000000005,103.44470802919709Z" style="stroke: rgb(68, 68, 68); stroke-opacity: 1; fill: rgb(99, 110, 250); fill-opacity: 0.6; stroke-width: 0; opacity: 1;"/><path class="sankey-link" d="M383.70000000000005,103.44470802919709C564.3000000000001,103.44470802919709 564.3000000000001,465.2096715328468 744.9000000000001,465.2096715328468L744.9000000000001,474.78996350364974C564.3000000000001,474.78996350364974 564.3000000000001,113.02500000000002 383.70000000000005,113.02500000000002Z" style="stroke: rgb(68, 68, 68); stroke-opacity: 1; fill: rgb(99, 110, 250); fill-opacity: 0.6; stroke-width: 0; opacity: 1;"/><path class="sankey-link" d="M383.70000000000005,113.025C564.3000000000001,113.025 564.3000000000001,535.0029197080294 744.9000000000001,535.0029197080294L744.9000000000001,552.2474452554745C564.3000000000001,552.2474452554745 564.3000000000001,130.26952554744526 383.70000000000005,130.26952554744526Z" style="stroke: rgb(68, 68, 68); stroke-opacity: 1; fill: rgb(99, 110, 250); fill-opacity: 0.6; stroke-width: 0; opacity: 1;"/><path class="sankey-link" d="M383.70000000000005,130.26952554744526C564.3000000000001,130.26952554744526 564.3000000000001,642.7724452554745 744.9000000000001,642.7724452554745L744.9000000000001,651.3947080291972C564.3000000000001,651.3947080291972 564.3000000000001,138.8917883211679 383.70000000000005,138.8917883211679Z" style="stroke: rgb(68, 68, 68); stroke-opacity: 1; fill: rgb(99, 110, 250); fill-opacity: 0.6; stroke-width: 0; opacity: 1;"/><path class="sankey-link" d="M383.70000000000005,158.23412408759114C564.3000000000001,158.23412408759114 564.3000000000001,20.28229927007299 744.9000000000001,20.28229927007299L744.9000000000001,24.114416058394156C564.3000000000001,24.114416058394156 564.3000000000001,162.0662408759123 383.70000000000005,162.0662408759123Z" style="stroke: rgb(68, 68, 68); stroke-opacity: 1; fill: rgb(239, 85, 59); fill-opacity: 0.6; stroke-width: 0; opacity: 1;"/><path class="sankey-link" d="M383.70000000000005,162.0662408759123C564.3000000000001,162.0662408759123 564.3000000000001,97.42445255474446 744.9000000000001,97.42445255474446L744.9000000000001,98.38248175182476C564.3000000000001,98.38248175182476 564.3000000000001,163.0242700729926 383.70000000000005,163.0242700729926Z" style="stroke: rgb(239, 85, 59); stroke-opacity: 0.6; fill: rgb(239, 85, 59); fill-opacity: 0.6; stroke-width: 1; opacity: 1;"/><path class="sankey-link" d="M383.70000000000005,163.0242700729926C564.3000000000001,163.0242700729926 564.3000000000001,115.96313868613137 744.9000000000001,115.96313868613137L744.9000000000001,118.83722627737225C564.3000000000001,118.83722627737225 564.3000000000001,165.8983576642335 383.70000000000005,165.8983576642335Z" style="stroke: rgb(68, 68, 68); stroke-opacity: 1; fill: rgb(239, 85, 59); fill-opacity: 0.6; stroke-width: 0; opacity: 1;"/><path class="sankey-link" d="M383.70000000000005,165.8983576642335C564.3000000000001,165.8983576642335 564.3000000000001,169.6423357664233 744.9000000000001,169.6423357664233L744.9000000000001,177.30656934306563C564.3000000000001,177.30656934306563 564.3000000000001,173.56259124087583 383.70000000000005,173.56259124087583Z" style="stroke: rgb(68, 68, 68); stroke-opacity: 1; fill: rgb(239, 85, 59); fill-opacity: 0.6; stroke-width: 0; opacity: 1;"/><path class="sankey-link" d="M383.70000000000005,173.56259124087583C564.3000000000001,173.56259124087583 564.3000000000001,236.1399635036497 744.9000000000001,236.1399635036497L744.9000000000001,237.09799270073C564.3000000000001,237.09799270073 564.3000000000001,174.52062043795613 383.70000000000005,174.52062043795613Z" style="stroke: rgb(239, 85, 59); stroke-opacity: 0.6; fill: rgb(239, 85, 59); fill-opacity: 0.6; stroke-width: 1; opacity: 1;"/><path class="sankey-link" d="M383.70000000000005,174.52062043795613C564.3000000000001,174.52062043795613 564.3000000000001,277.4989051094891 744.9000000000001,277.4989051094891L744.9000000000001,291.86934306569344C564.3000000000001,291.86934306569344 564.3000000000001,188.89105839416052 383.70000000000005,188.89105839416052Z" style="stroke: rgb(68, 68, 68); stroke-opacity: 1; fill: rgb(239, 85, 59); fill-opacity: 0.6; stroke-width: 0; opacity: 1;"/><path class="sankey-link" d="M383.70000000000005,188.8910583941605C564.3000000000001,188.8910583941605 564.3000000000001,396.4981751824819 744.9000000000001,396.4981751824819L744.9000000000001,400.33029197080305C564.3000000000001,400.33029197080305 564.3000000000001,192.72317518248167 383.70000000000005,192.72317518248167Z" style="stroke: rgb(68, 68, 68); stroke-opacity: 1; fill: rgb(239, 85, 59); fill-opacity: 0.6; stroke-width: 0; opacity: 1;"/><path class="sankey-link" d="M383.70000000000005,192.72317518248167C564.3000000000001,192.72317518248167 564.3000000000001,436.89908759124097 744.9000000000001,436.89908759124097L744.9000000000001,438.81514598540156C564.3000000000001,438.81514598540156 564.3000000000001,194.63923357664225 383.70000000000005,194.63923357664225Z" style="stroke: rgb(68, 68, 68); stroke-opacity: 1; fill: rgb(239, 85, 59); fill-opacity: 0.6; stroke-width: 0; opacity: 1;"/><path class="sankey-link" d="M383.70000000000005,194.63923357664225C564.3000000000001,194.63923357664225 564.3000000000001,474.78996350364974 744.9000000000001,474.78996350364974L744.9000000000001,481.49616788321174C564.3000000000001,481.49616788321174 564.3000000000001,201.3454379562043 383.70000000000005,201.3454379562043Z" style="stroke: rgb(68, 68, 68); stroke-opacity: 1; fill: rgb(239, 85, 59); fill-opacity: 0.6; stroke-width: 0; opacity: 1;"/><path class="sankey-link" d="M383.70000000000005,201.3454379562043C564.3000000000001,201.3454379562043 564.3000000000001,552.2474452554746 744.9000000000001,552.2474452554746L744.9000000000001,565.6598540145986C564.3000000000001,565.6598540145986 564.3000000000001,214.7578467153284 383.70000000000005,214.7578467153284Z" style="stroke: rgb(68, 68, 68); stroke-opacity: 1; fill: rgb(239, 85, 59); fill-opacity: 0.6; stroke-width: 0; opacity: 1;"/><path class="sankey-link" d="M383.70000000000005,214.75784671532838C564.3000000000001,214.75784671532838 564.3000000000001,651.3947080291971 744.9000000000001,651.3947080291971L744.9000000000001,660.9749999999999C564.3000000000001,660.9749999999999 564.3000000000001,224.33813868613132 383.70000000000005,224.33813868613132Z" style="stroke: rgb(68, 68, 68); stroke-opacity: 1; fill: rgb(239, 85, 59); fill-opacity: 0.6; stroke-width: 0; opacity: 1;"/><path class="sankey-link" d="M383.70000000000005,241.81040145985398C564.3000000000001,241.81040145985398 564.3000000000001,69.95693430656934 744.9000000000001,69.95693430656934L744.9000000000001,72.83102189781022C564.3000000000001,72.83102189781022 564.3000000000001,244.68448905109486 383.70000000000005,244.68448905109486Z" style="stroke: rgb(68, 68, 68); stroke-opacity: 1; fill: rgb(254, 203, 82); fill-opacity: 0.6; stroke-width: 0; opacity: 1;"/><path class="sankey-link" d="M383.70000000000005,244.68448905109486C564.3000000000001,244.68448905109486 564.3000000000001,118.83722627737225 744.9000000000001,118.83722627737225L744.9000000000001,120.75328467153284C564.3000000000001,120.75328467153284 564.3000000000001,246.60054744525544 383.70000000000005,246.60054744525544Z" style="stroke: rgb(68, 68, 68); stroke-opacity: 1; fill: rgb(254, 203, 82); fill-opacity: 0.6; stroke-width: 0; opacity: 1;"/><path class="sankey-link" d="M383.70000000000005,246.60054744525544C564.3000000000001,246.60054744525544 564.3000000000001,177.30656934306563 744.9000000000001,177.30656934306563L744.9000000000001,180.1806569343065C564.3000000000001,180.1806569343065 564.3000000000001,249.47463503649632 383.70000000000005,249.47463503649632Z" style="stroke: rgb(68, 68, 68); stroke-opacity: 1; fill: rgb(254, 203, 82); fill-opacity: 0.6; stroke-width: 0; opacity: 1;"/><path class="sankey-link" d="M383.70000000000005,249.47463503649632C564.3000000000001,249.47463503649632 564.3000000000001,291.8693430656935 744.9000000000001,291.8693430656935L744.9000000000001,292.82737226277374C564.3000000000001,292.82737226277374 564.3000000000001,250.43266423357662 383.70000000000005,250.43266423357662Z" style="stroke: rgb(254, 203, 82); stroke-opacity: 0.6; fill: rgb(254, 203, 82); fill-opacity: 0.6; stroke-width: 1; opacity: 1;"/><path class="sankey-link" d="M383.70000000000005,250.43266423357662C564.3000000000001,250.43266423357662 564.3000000000001,369.4713503649636 744.9000000000001,369.4713503649636L744.9000000000001,371.3874087591242C564.3000000000001,371.3874087591242 564.3000000000001,252.3487226277372 383.70000000000005,252.3487226277372Z" style="stroke: rgb(68, 68, 68); stroke-opacity: 1; fill: rgb(254, 203, 82); fill-opacity: 0.6; stroke-width: 0; opacity: 1;"/><path class="sankey-link" d="M383.70000000000005,252.3487226277372C564.3000000000001,252.3487226277372 564.3000000000001,400.33029197080305 744.9000000000001,400.33029197080305L744.9000000000001,401.2883211678833C564.3000000000001,401.2883211678833 564.3000000000001,253.3067518248175 383.70000000000005,253.3067518248175Z" style="stroke: rgb(254, 203, 82); stroke-opacity: 0.6; fill: rgb(254, 203, 82); fill-opacity: 0.6; stroke-width: 1; opacity: 1;"/><path class="sankey-link" d="M383.70000000000005,253.30675182481747C564.3000000000001,253.30675182481747 564.3000000000001,565.6598540145987 744.9000000000001,565.6598540145987L744.9000000000001,571.4080291970804C564.3000000000001,571.4080291970804 564.3000000000001,259.0549270072992 383.70000000000005,259.0549270072992Z" style="stroke: rgb(68, 68, 68); stroke-opacity: 1; fill: rgb(254, 203, 82); fill-opacity: 0.6; stroke-width: 0; opacity: 1;"/><path class="sankey-link" d="M383.70000000000005,259.0549270072992C564.3000000000001,259.0549270072992 564.3000000000001,660.975 744.9000000000001,660.975L744.9000000000001,665.7651459854015C564.3000000000001,665.7651459854015 564.3000000000001,263.84507299270064 383.70000000000005,263.84507299270064Z" style="stroke: rgb(68, 68, 68); stroke-opacity: 1; fill: rgb(254, 203, 82); fill-opacity: 0.6; stroke-width: 0; opacity: 1;"/><path class="sankey-link" d="M383.70000000000005,280.9166058394163C564.3000000000001,280.9166058394163 564.3000000000001,24.11441605839416 744.9000000000001,24.11441605839416L744.9000000000001,33.69470802919708C564.3000000000001,33.69470802919708 564.3000000000001,290.49689781021925 383.70000000000005,290.49689781021925Z" style="stroke: rgb(68, 68, 68); stroke-opacity: 1; fill: rgb(171, 99, 250); fill-opacity: 0.6; stroke-width: 0; opacity: 1;"/><path class="sankey-link" d="M383.70000000000005,290.49689781021925C564.3000000000001,290.49689781021925 564.3000000000001,72.83102189781022 744.9000000000001,72.83102189781022L744.9000000000001,73.78905109489051C564.3000000000001,73.78905109489051 564.3000000000001,291.4549270072995 383.70000000000005,291.4549270072995Z" style="stroke: rgb(171, 99, 250); stroke-opacity: 0.6; fill: rgb(171, 99, 250); fill-opacity: 0.6; stroke-width: 1; opacity: 1;"/><path class="sankey-link" d="M383.70000000000005,291.45492700729955C564.3000000000001,291.45492700729955 564.3000000000001,98.38248175182476 744.9000000000001,98.38248175182476L744.9000000000001,99.34051094890505C564.3000000000001,99.34051094890505 564.3000000000001,292.4129562043798 383.70000000000005,292.4129562043798Z" style="stroke: rgb(171, 99, 250); stroke-opacity: 0.6; fill: rgb(171, 99, 250); fill-opacity: 0.6; stroke-width: 1; opacity: 1;"/><path class="sankey-link" d="M383.70000000000005,292.41295620437984C564.3000000000001,292.41295620437984 564.3000000000001,120.75328467153284 744.9000000000001,120.75328467153284L744.9000000000001,123.62737226277372C564.3000000000001,123.62737226277372 564.3000000000001,295.28704379562066 383.70000000000005,295.28704379562066Z" style="stroke: rgb(68, 68, 68); stroke-opacity: 1; fill: rgb(171, 99, 250); fill-opacity: 0.6; stroke-width: 0; opacity: 1;"/><path class="sankey-link" d="M383.70000000000005,295.2870437956207C564.3000000000001,295.2870437956207 564.3000000000001,180.1806569343065 744.9000000000001,180.1806569343065L744.9000000000001,184.01277372262768C564.3000000000001,184.01277372262768 564.3000000000001,299.1191605839419 383.70000000000005,299.1191605839419Z" style="stroke: rgb(68, 68, 68); stroke-opacity: 1; fill: rgb(171, 99, 250); fill-opacity: 0.6; stroke-width: 0; opacity: 1;"/><path class="sankey-link" d="M383.70000000000005,299.1191605839419C564.3000000000001,299.1191605839419 564.3000000000001,237.09799270073 744.9000000000001,237.09799270073L744.9000000000001,241.88813868613147C564.3000000000001,241.88813868613147 564.3000000000001,303.9093065693433 383.70000000000005,303.9093065693433Z" style="stroke: rgb(68, 68, 68); stroke-opacity: 1; fill: rgb(171, 99, 250); fill-opacity: 0.6; stroke-width: 0; opacity: 1;"/><path class="sankey-link" d="M383.70000000000005,303.90930656934336C564.3000000000001,303.90930656934336 564.3000000000001,292.8273722627738 744.9000000000001,292.8273722627738L744.9000000000001,298.57554744525555C564.3000000000001,298.57554744525555 564.3000000000001,309.6574817518251 383.70000000000005,309.6574817518251Z" style="stroke: rgb(68, 68, 68); stroke-opacity: 1; fill: rgb(171, 99, 250); fill-opacity: 0.6; stroke-width: 0; opacity: 1;"/><path class="sankey-link" d="M383.70000000000005,309.6574817518251C564.3000000000001,309.6574817518251 564.3000000000001,349.7255474452556 744.9000000000001,349.7255474452556L744.9000000000001,350.6835766423358C564.3000000000001,350.6835766423358 564.3000000000001,310.61551094890535 383.70000000000005,310.61551094890535Z" style="stroke: rgb(171, 99, 250); stroke-opacity: 0.6; fill: rgb(171, 99, 250); fill-opacity: 0.6; stroke-width: 1; opacity: 1;"/><path class="sankey-link" d="M383.70000000000005,310.6155109489054C564.3000000000001,310.6155109489054 564.3000000000001,371.3874087591242 744.9000000000001,371.3874087591242L744.9000000000001,372.3454379562044C564.3000000000001,372.3454379562044 564.3000000000001,311.57354014598565 383.70000000000005,311.57354014598565Z" style="stroke: rgb(171, 99, 250); stroke-opacity: 0.6; fill: rgb(171, 99, 250); fill-opacity: 0.6; stroke-width: 1; opacity: 1;"/><path class="sankey-link" d="M383.70000000000005,311.5735401459857C564.3000000000001,311.5735401459857 564.3000000000001,401.28832116788334 744.9000000000001,401.28832116788334L744.9000000000001,402.2463503649636C564.3000000000001,402.2463503649636 564.3000000000001,312.53156934306594 383.70000000000005,312.53156934306594Z" style="stroke: rgb(171, 99, 250); stroke-opacity: 0.6; fill: rgb(171, 99, 250); fill-opacity: 0.6; stroke-width: 1; opacity: 1;"/><path class="sankey-link" d="M383.70000000000005,312.531569343066C564.3000000000001,312.531569343066 564.3000000000001,438.81514598540156 744.9000000000001,438.81514598540156L744.9000000000001,439.7731751824818C564.3000000000001,439.7731751824818 564.3000000000001,313.48959854014623 383.70000000000005,313.48959854014623Z" style="stroke: rgb(171, 99, 250); stroke-opacity: 0.6; fill: rgb(171, 99, 250); fill-opacity: 0.6; stroke-width: 1; opacity: 1;"/><path class="sankey-link" d="M383.70000000000005,313.4895985401463C564.3000000000001,313.4895985401463 564.3000000000001,481.4961678832118 744.9000000000001,481.4961678832118L744.9000000000001,488.2023722627738C564.3000000000001,488.2023722627738 564.3000000000001,320.1958029197083 383.70000000000005,320.1958029197083Z" style="stroke: rgb(68, 68, 68); stroke-opacity: 1; fill: rgb(171, 99, 250); fill-opacity: 0.6; stroke-width: 0; opacity: 1;"/><path class="sankey-link" d="M383.70000000000005,320.19580291970834C564.3000000000001,320.19580291970834 564.3000000000001,571.4080291970805 744.9000000000001,571.4080291970805L744.9000000000001,580.9883211678833C564.3000000000001,580.9883211678833 564.3000000000001,329.7760948905113 383.70000000000005,329.7760948905113Z" style="stroke: rgb(68, 68, 68); stroke-opacity: 1; fill: rgb(171, 99, 250); fill-opacity: 0.6; stroke-width: 0; opacity: 1;"/><path class="sankey-link" d="M383.70000000000005,329.7760948905113C564.3000000000001,329.7760948905113 564.3000000000001,665.7651459854014 744.9000000000001,665.7651459854014L744.9000000000001,671.5133211678831C564.3000000000001,671.5133211678831 564.3000000000001,335.52427007299303 383.70000000000005,335.52427007299303Z" style="stroke: rgb(68, 68, 68); stroke-opacity: 1; fill: rgb(171, 99, 250); fill-opacity: 0.6; stroke-width: 0; opacity: 1;"/><path class="sankey-link" d="M383.70000000000005,354.93339416058393C564.3000000000001,354.93339416058393 564.3000000000001,33.69470802919707 744.9000000000001,33.69470802919707L744.9000000000001,39.44288321167883C564.3000000000001,39.44288321167883 564.3000000000001,360.6815693430657 383.70000000000005,360.6815693430657Z" style="stroke: rgb(68, 68, 68); stroke-opacity: 1; fill: rgb(0, 204, 150); fill-opacity: 0.6; stroke-width: 0; opacity: 1;"/><path class="sankey-link" d="M383.70000000000005,360.6815693430657C564.3000000000001,360.6815693430657 564.3000000000001,123.62737226277372 744.9000000000001,123.62737226277372L744.9000000000001,131.29160583941606C564.3000000000001,131.29160583941606 564.3000000000001,368.34580291970804 383.70000000000005,368.34580291970804Z" style="stroke: rgb(68, 68, 68); stroke-opacity: 1; fill: rgb(0, 204, 150); fill-opacity: 0.6; stroke-width: 0; opacity: 1;"/><path class="sankey-link" d="M383.70000000000005,368.34580291970804C564.3000000000001,368.34580291970804 564.3000000000001,184.01277372262768 744.9000000000001,184.01277372262768L744.9000000000001,193.59306569343062C564.3000000000001,193.59306569343062 564.3000000000001,377.92609489051097 383.70000000000005,377.92609489051097Z" style="stroke: rgb(68, 68, 68); stroke-opacity: 1; fill: rgb(0, 204, 150); fill-opacity: 0.6; stroke-width: 0; opacity: 1;"/><path class="sankey-link" d="M383.70000000000005,377.92609489051097C564.3000000000001,377.92609489051097 564.3000000000001,241.88813868613147 744.9000000000001,241.88813868613147L744.9000000000001,245.72025547445264C564.3000000000001,245.72025547445264 564.3000000000001,381.75821167883214 383.70000000000005,381.75821167883214Z" style="stroke: rgb(68, 68, 68); stroke-opacity: 1; fill: rgb(0, 204, 150); fill-opacity: 0.6; stroke-width: 0; opacity: 1;"/><path class="sankey-link" d="M383.70000000000005,381.75821167883214C564.3000000000001,381.75821167883214 564.3000000000001,298.57554744525555 744.9000000000001,298.57554744525555L744.9000000000001,310.07189781021907C564.3000000000001,310.07189781021907 564.3000000000001,393.25456204379566 383.70000000000005,393.25456204379566Z" style="stroke: rgb(68, 68, 68); stroke-opacity: 1; fill: rgb(0, 204, 150); fill-opacity: 0.6; stroke-width: 0; opacity: 1;"/><path class="sankey-link" d="M383.70000000000005,393.25456204379566C564.3000000000001,393.25456204379566 564.3000000000001,372.3454379562045 744.9000000000001,372.3454379562045L744.9000000000001,376.17755474452565C564.3000000000001,376.17755474452565 564.3000000000001,397.08667883211683 383.70000000000005,397.08667883211683Z" style="stroke: rgb(68, 68, 68); stroke-opacity: 1; fill: rgb(0, 204, 150); fill-opacity: 0.6; stroke-width: 0; opacity: 1;"/><path class="sankey-link" d="M383.70000000000005,397.08667883211683C564.3000000000001,397.08667883211683 564.3000000000001,402.24635036496363 744.9000000000001,402.24635036496363L744.9000000000001,405.12043795620446C564.3000000000001,405.12043795620446 564.3000000000001,399.96076642335765 383.70000000000005,399.96076642335765Z" style="stroke: rgb(68, 68, 68); stroke-opacity: 1; fill: rgb(0, 204, 150); fill-opacity: 0.6; stroke-width: 0; opacity: 1;"/><path class="sankey-link" d="M383.70000000000005,399.9607664233577C564.3000000000001,399.9607664233577 564.3000000000001,439.77317518248185 744.9000000000001,439.77317518248185L744.9000000000001,441.68923357664244C564.3000000000001,441.68923357664244 564.3000000000001,401.8768248175183 383.70000000000005,401.8768248175183Z" style="stroke: rgb(68, 68, 68); stroke-opacity: 1; fill: rgb(0, 204, 150); fill-opacity: 0.6; stroke-width: 0; opacity: 1;"/><path class="sankey-link" d="M383.70000000000005,401.8768248175183C564.3000000000001,401.8768248175183 564.3000000000001,488.20237226277385 744.9000000000001,488.20237226277385L744.9000000000001,504.4888686131388C564.3000000000001,504.4888686131388 564.3000000000001,418.1633211678832 383.70000000000005,418.1633211678832Z" style="stroke: rgb(68, 68, 68); stroke-opacity: 1; fill: rgb(0, 204, 150); fill-opacity: 0.6; stroke-width: 0; opacity: 1;"/><path class="sankey-link" d="M383.70000000000005,418.1633211678833C564.3000000000001,418.1633211678833 564.3000000000001,580.9883211678834 744.9000000000001,580.9883211678834L744.9000000000001,598.2328467153286C564.3000000000001,598.2328467153286 564.3000000000001,435.40784671532856 383.70000000000005,435.40784671532856Z" style="stroke: rgb(68, 68, 68); stroke-opacity: 1; fill: rgb(0, 204, 150); fill-opacity: 0.6; stroke-width: 0; opacity: 1;"/><path class="sankey-link" d="M383.70000000000005,435.40784671532856C564.3000000000001,435.40784671532856 564.3000000000001,671.5133211678832 744.9000000000001,671.5133211678832L744.9000000000001,680.1355839416059C564.3000000000001,680.1355839416059 564.3000000000001,444.03010948905114 383.70000000000005,444.03010948905114Z" style="stroke: rgb(68, 68, 68); stroke-opacity: 1; fill: rgb(0, 204, 150); fill-opacity: 0.6; stroke-width: 0; opacity: 1;"/><path class="sankey-link" d="M383.70000000000005,465.5430656934307C564.3000000000001,465.5430656934307 564.3000000000001,39.44288321167883 744.9000000000001,39.44288321167883L744.9000000000001,48.06514598540146C564.3000000000001,48.06514598540146 564.3000000000001,474.1653284671533 383.70000000000005,474.1653284671533Z" style="stroke: rgb(68, 68, 68); stroke-opacity: 1; fill: rgb(255, 161, 90); fill-opacity: 0.6; stroke-width: 0; opacity: 1;"/><path class="sankey-link" d="M383.70000000000005,474.16532846715336C564.3000000000001,474.16532846715336 564.3000000000001,73.78905109489051 744.9000000000001,73.78905109489051L744.9000000000001,80.49525547445256C564.3000000000001,80.49525547445256 564.3000000000001,480.87153284671535 383.70000000000005,480.87153284671535Z" style="stroke: rgb(68, 68, 68); stroke-opacity: 1; fill: rgb(255, 161, 90); fill-opacity: 0.6; stroke-width: 0; opacity: 1;"/><path class="sankey-link" d="M383.70000000000005,480.8715328467154C564.3000000000001,480.8715328467154 564.3000000000001,131.29160583941606 744.9000000000001,131.29160583941606L744.9000000000001,141.8299270072993C564.3000000000001,141.8299270072993 564.3000000000001,491.4098540145986 383.70000000000005,491.4098540145986Z" style="stroke: rgb(68, 68, 68); stroke-opacity: 1; fill: rgb(255, 161, 90); fill-opacity: 0.6; stroke-width: 0; opacity: 1;"/><path class="sankey-link" d="M383.70000000000005,491.40985401459864C564.3000000000001,491.40985401459864 564.3000000000001,193.59306569343062 744.9000000000001,193.59306569343062L744.9000000000001,209.8795620437956C564.3000000000001,209.8795620437956 564.3000000000001,507.69635036496356 383.70000000000005,507.69635036496356Z" style="stroke: rgb(68, 68, 68); stroke-opacity: 1; fill: rgb(255, 161, 90); fill-opacity: 0.6; stroke-width: 0; opacity: 1;"/><path class="sankey-link" d="M383.70000000000005,507.6963503649636C564.3000000000001,507.6963503649636 564.3000000000001,245.72025547445264 744.9000000000001,245.72025547445264L744.9000000000001,246.67828467153294C564.3000000000001,246.67828467153294 564.3000000000001,508.65437956204386 383.70000000000005,508.65437956204386Z" style="stroke: rgb(255, 161, 90); stroke-opacity: 0.6; fill: rgb(255, 161, 90); fill-opacity: 0.6; stroke-width: 1; opacity: 1;"/><path class="sankey-link" d="M383.70000000000005,508.6543795620439C564.3000000000001,508.6543795620439 564.3000000000001,310.07189781021907 744.9000000000001,310.07189781021907L744.9000000000001,325.40036496350376C564.3000000000001,325.40036496350376 564.3000000000001,523.9828467153286 383.70000000000005,523.9828467153286Z" style="stroke: rgb(68, 68, 68); stroke-opacity: 1; fill: rgb(255, 161, 90); fill-opacity: 0.6; stroke-width: 0; opacity: 1;"/><path class="sankey-link" d="M383.70000000000005,523.9828467153286C564.3000000000001,523.9828467153286 564.3000000000001,376.17755474452565 744.9000000000001,376.17755474452565L744.9000000000001,380.0096715328468C564.3000000000001,380.0096715328468 564.3000000000001,527.8149635036498 383.70000000000005,527.8149635036498Z" style="stroke: rgb(68, 68, 68); stroke-opacity: 1; fill: rgb(255, 161, 90); fill-opacity: 0.6; stroke-width: 0; opacity: 1;"/><path class="sankey-link" d="M383.70000000000005,527.8149635036498C564.3000000000001,527.8149635036498 564.3000000000001,405.1204379562045 744.9000000000001,405.1204379562045L744.9000000000001,414.70072992700744C564.3000000000001,414.70072992700744 564.3000000000001,537.3952554744526 383.70000000000005,537.3952554744526Z" style="stroke: rgb(68, 68, 68); stroke-opacity: 1; fill: rgb(255, 161, 90); fill-opacity: 0.6; stroke-width: 0; opacity: 1;"/><path class="sankey-link" d="M383.70000000000005,537.3952554744527C564.3000000000001,537.3952554744527 564.3000000000001,441.68923357664244 744.9000000000001,441.68923357664244L744.9000000000001,448.39543795620443C564.3000000000001,448.39543795620443 564.3000000000001,544.1014598540147 383.70000000000005,544.1014598540147Z" style="stroke: rgb(68, 68, 68); stroke-opacity: 1; fill: rgb(255, 161, 90); fill-opacity: 0.6; stroke-width: 0; opacity: 1;"/><path class="sankey-link" d="M383.70000000000005,544.1014598540147C564.3000000000001,544.1014598540147 564.3000000000001,504.48886861313883 744.9000000000001,504.48886861313883L744.9000000000001,506.4049270072994C564.3000000000001,506.4049270072994 564.3000000000001,546.0175182481752 383.70000000000005,546.0175182481752Z" style="stroke: rgb(68, 68, 68); stroke-opacity: 1; fill: rgb(255, 161, 90); fill-opacity: 0.6; stroke-width: 0; opacity: 1;"/><path class="sankey-link" d="M383.70000000000005,546.0175182481753C564.3000000000001,546.0175182481753 564.3000000000001,598.2328467153287 744.9000000000001,598.2328467153287L744.9000000000001,615.4773722627739C564.3000000000001,615.4773722627739 564.3000000000001,563.2620437956205 383.70000000000005,563.2620437956205Z" style="stroke: rgb(68, 68, 68); stroke-opacity: 1; fill: rgb(255, 161, 90); fill-opacity: 0.6; stroke-width: 0; opacity: 1;"/><path class="sankey-link" d="M383.70000000000005,563.2620437956206C564.3000000000001,563.2620437956206 564.3000000000001,680.1355839416058 744.9000000000001,680.1355839416058L744.9000000000001,697.3801094890509C564.3000000000001,697.3801094890509 564.3000000000001,580.5065693430657 383.70000000000005,580.5065693430657Z" style="stroke: rgb(68, 68, 68); stroke-opacity: 1; fill: rgb(255, 161, 90); fill-opacity: 0.6; stroke-width: 0; opacity: 1;"/><path class="sankey-link" d="M383.70000000000005,600.4166058394162C564.3000000000001,600.4166058394162 564.3000000000001,48.06514598540146 744.9000000000001,48.06514598540146L744.9000000000001,51.89726277372263C564.3000000000001,51.89726277372263 564.3000000000001,604.2487226277374 383.70000000000005,604.2487226277374Z" style="stroke: rgb(68, 68, 68); stroke-opacity: 1; fill: rgb(255, 151, 255); fill-opacity: 0.6; stroke-width: 0; opacity: 1;"/><path class="sankey-link" d="M383.70000000000005,604.2487226277374C564.3000000000001,604.2487226277374 564.3000000000001,80.49525547445255 744.9000000000001,80.49525547445255L744.9000000000001,83.36934306569343C564.3000000000001,83.36934306569343 564.3000000000001,607.1228102189782 383.70000000000005,607.1228102189782Z" style="stroke: rgb(68, 68, 68); stroke-opacity: 1; fill: rgb(255, 151, 255); fill-opacity: 0.6; stroke-width: 0; opacity: 1;"/><path class="sankey-link" d="M383.70000000000005,607.1228102189782C564.3000000000001,607.1228102189782 564.3000000000001,141.82992700729926 744.9000000000001,141.82992700729926L744.9000000000001,142.78795620437955C564.3000000000001,142.78795620437955 564.3000000000001,608.0808394160586 383.70000000000005,608.0808394160586Z" style="stroke: rgb(255, 151, 255); stroke-opacity: 0.6; fill: rgb(255, 151, 255); fill-opacity: 0.6; stroke-width: 1; opacity: 1;"/><path class="sankey-link" d="M383.70000000000005,608.0808394160584C564.3000000000001,608.0808394160584 564.3000000000001,209.87956204379557 744.9000000000001,209.87956204379557L744.9000000000001,216.58576642335763C564.3000000000001,216.58576642335763 564.3000000000001,614.7870437956204 383.70000000000005,614.7870437956204Z" style="stroke: rgb(68, 68, 68); stroke-opacity: 1; fill: rgb(255, 151, 255); fill-opacity: 0.6; stroke-width: 0; opacity: 1;"/><path class="sankey-link" d="M383.70000000000005,614.7870437956204C564.3000000000001,614.7870437956204 564.3000000000001,325.40036496350376 744.9000000000001,325.40036496350376L744.9000000000001,331.1485401459855C564.3000000000001,331.1485401459855 564.3000000000001,620.5352189781021 383.70000000000005,620.5352189781021Z" style="stroke: rgb(68, 68, 68); stroke-opacity: 1; fill: rgb(255, 151, 255); fill-opacity: 0.6; stroke-width: 0; opacity: 1;"/><path class="sankey-link" d="M383.70000000000005,620.5352189781022C564.3000000000001,620.5352189781022 564.3000000000001,380.0096715328468 744.9000000000001,380.0096715328468L744.9000000000001,381.9257299270074C564.3000000000001,381.9257299270074 564.3000000000001,622.4512773722627 383.70000000000005,622.4512773722627Z" style="stroke: rgb(68, 68, 68); stroke-opacity: 1; fill: rgb(255, 151, 255); fill-opacity: 0.6; stroke-width: 0; opacity: 1;"/><path class="sankey-link" d="M383.70000000000005,622.4512773722628C564.3000000000001,622.4512773722628 564.3000000000001,414.70072992700744 744.9000000000001,414.70072992700744L744.9000000000001,417.57481751824827C564.3000000000001,417.57481751824827 564.3000000000001,625.3253649635036 383.70000000000005,625.3253649635036Z" style="stroke: rgb(68, 68, 68); stroke-opacity: 1; fill: rgb(255, 151, 255); fill-opacity: 0.6; stroke-width: 0; opacity: 1;"/><path class="sankey-link" d="M383.70000000000005,625.3253649635036C564.3000000000001,625.3253649635036 564.3000000000001,448.3954379562045 744.9000000000001,448.3954379562045L744.9000000000001,450.3114963503651C564.3000000000001,450.3114963503651 564.3000000000001,627.2414233576641 383.70000000000005,627.2414233576641Z" style="stroke: rgb(68, 68, 68); stroke-opacity: 1; fill: rgb(255, 151, 255); fill-opacity: 0.6; stroke-width: 0; opacity: 1;"/><path class="sankey-link" d="M383.70000000000005,627.2414233576642C564.3000000000001,627.2414233576642 564.3000000000001,506.4049270072994 744.9000000000001,506.4049270072994L744.9000000000001,510.2370437956206C564.3000000000001,510.2370437956206 564.3000000000001,631.0735401459854 383.70000000000005,631.0735401459854Z" style="stroke: rgb(68, 68, 68); stroke-opacity: 1; fill: rgb(255, 151, 255); fill-opacity: 0.6; stroke-width: 0; opacity: 1;"/><path class="sankey-link" d="M383.70000000000005,631.0735401459854C564.3000000000001,631.0735401459854 564.3000000000001,615.477372262774 744.9000000000001,615.477372262774L744.9000000000001,624.0996350364967C564.3000000000001,624.0996350364967 564.3000000000001,639.6958029197081 383.70000000000005,639.6958029197081Z" style="stroke: rgb(68, 68, 68); stroke-opacity: 1; fill: rgb(255, 151, 255); fill-opacity: 0.6; stroke-width: 0; opacity: 1;"/><path class="sankey-link" d="M383.70000000000005,639.695802919708C564.3000000000001,639.695802919708 564.3000000000001,697.380109489051 744.9000000000001,697.380109489051L744.9000000000001,701.2122262773722C564.3000000000001,701.2122262773722 564.3000000000001,643.5279197080291 383.70000000000005,643.5279197080291Z" style="stroke: rgb(68, 68, 68); stroke-opacity: 1; fill: rgb(255, 151, 255); fill-opacity: 0.6; stroke-width: 0; opacity: 1;"/><path class="sankey-link" d="M383.70000000000005,660.365693430657C564.3000000000001,660.365693430657 564.3000000000001,51.89726277372262 744.9000000000001,51.89726277372262L744.9000000000001,54.7713503649635C564.3000000000001,54.7713503649635 564.3000000000001,663.2397810218978 383.70000000000005,663.2397810218978Z" style="stroke: rgb(68, 68, 68); stroke-opacity: 1; fill: rgb(255, 102, 146); fill-opacity: 0.6; stroke-width: 0; opacity: 1;"/><path class="sankey-link" d="M383.70000000000005,663.2397810218978C564.3000000000001,663.2397810218978 564.3000000000001,142.78795620437955 744.9000000000001,142.78795620437955L744.9000000000001,143.74598540145985C564.3000000000001,143.74598540145985 564.3000000000001,664.1978102189781 383.70000000000005,664.1978102189781Z" style="stroke: rgb(255, 102, 146); stroke-opacity: 0.6; fill: rgb(255, 102, 146); fill-opacity: 0.6; stroke-width: 1; opacity: 1;"/><path class="sankey-link" d="M383.70000000000005,664.197810218978C564.3000000000001,664.197810218978 564.3000000000001,216.58576642335763 744.9000000000001,216.58576642335763L744.9000000000001,220.4178832116788C564.3000000000001,220.4178832116788 564.3000000000001,668.0299270072992 383.70000000000005,668.0299270072992Z" style="stroke: rgb(68, 68, 68); stroke-opacity: 1; fill: rgb(255, 102, 146); fill-opacity: 0.6; stroke-width: 0; opacity: 1;"/><path class="sankey-link" d="M383.70000000000005,668.0299270072992C564.3000000000001,668.0299270072992 564.3000000000001,331.1485401459855 744.9000000000001,331.1485401459855L744.9000000000001,334.9806569343067C564.3000000000001,334.9806569343067 564.3000000000001,671.8620437956204 383.70000000000005,671.8620437956204Z" style="stroke: rgb(68, 68, 68); stroke-opacity: 1; fill: rgb(255, 102, 146); fill-opacity: 0.6; stroke-width: 0; opacity: 1;"/><path class="sankey-link" d="M383.70000000000005,671.8620437956204C564.3000000000001,671.8620437956204 564.3000000000001,381.9257299270074 744.9000000000001,381.9257299270074L744.9000000000001,382.88375912408765C564.3000000000001,382.88375912408765 564.3000000000001,672.8200729927007 383.70000000000005,672.8200729927007Z" style="stroke: rgb(255, 102, 146); stroke-opacity: 0.6; fill: rgb(255, 102, 146); fill-opacity: 0.6; stroke-width: 1; opacity: 1;"/><path class="sankey-link" d="M383.70000000000005,672.8200729927006C564.3000000000001,672.8200729927006 564.3000000000001,450.3114963503651 744.9000000000001,450.3114963503651L744.9000000000001,451.2695255474453C564.3000000000001,451.2695255474453 564.3000000000001,673.778102189781 383.70000000000005,673.778102189781Z" style="stroke: rgb(255, 102, 146); stroke-opacity: 0.6; fill: rgb(255, 102, 146); fill-opacity: 0.6; stroke-width: 1; opacity: 1;"/><path class="sankey-link" d="M383.70000000000005,673.7781021897808C564.3000000000001,673.7781021897808 564.3000000000001,510.2370437956206 744.9000000000001,510.2370437956206L744.9000000000001,514.0691605839418C564.3000000000001,514.0691605839418 564.3000000000001,677.610218978102 383.70000000000005,677.610218978102Z" style="stroke: rgb(68, 68, 68); stroke-opacity: 1; fill: rgb(255, 102, 146); fill-opacity: 0.6; stroke-width: 0; opacity: 1;"/><path class="sankey-link" d="M383.70000000000005,677.610218978102C564.3000000000001,677.610218978102 564.3000000000001,624.0996350364966 744.9000000000001,624.0996350364966L744.9000000000001,627.9317518248178C564.3000000000001,627.9317518248178 564.3000000000001,681.4423357664232 383.70000000000005,681.4423357664232Z" style="stroke: rgb(68, 68, 68); stroke-opacity: 1; fill: rgb(255, 102, 146); fill-opacity: 0.6; stroke-width: 0; opacity: 1;"/><path class="sankey-link" d="M383.70000000000005,681.4423357664232C564.3000000000001,681.4423357664232 564.3000000000001,701.2122262773722 744.9000000000001,701.2122262773722L744.9000000000001,706.9604014598539C564.3000000000001,706.9604014598539 564.3000000000001,687.1905109489048 383.70000000000005,687.1905109489048Z" style="stroke: rgb(68, 68, 68); stroke-opacity: 1; fill: rgb(255, 102, 146); fill-opacity: 0.6; stroke-width: 0; opacity: 1;"/><path class="sankey-link" d="M383.70000000000005,702.6257299270075C564.3000000000001,702.6257299270075 564.3000000000001,220.4178832116788 744.9000000000001,220.4178832116788L744.9000000000001,221.3759124087591C564.3000000000001,221.3759124087591 564.3000000000001,703.5837591240878 383.70000000000005,703.5837591240878Z" style="stroke: rgb(182, 232, 128); stroke-opacity: 0.6; fill: rgb(182, 232, 128); fill-opacity: 0.6; stroke-width: 1; opacity: 1;"/><path class="sankey-link" d="M383.70000000000005,703.5837591240877C564.3000000000001,703.5837591240877 564.3000000000001,334.9806569343067 744.9000000000001,334.9806569343067L744.9000000000001,335.93868613138693C564.3000000000001,335.93868613138693 564.3000000000001,704.541788321168 383.70000000000005,704.541788321168Z" style="stroke: rgb(182, 232, 128); stroke-opacity: 0.6; fill: rgb(182, 232, 128); fill-opacity: 0.6; stroke-width: 1; opacity: 1;"/><path class="sankey-link" d="M383.70000000000005,704.5417883211679C564.3000000000001,704.5417883211679 564.3000000000001,514.0691605839418 744.9000000000001,514.0691605839418L744.9000000000001,515.0271897810221C564.3000000000001,515.0271897810221 564.3000000000001,705.4998175182483 383.70000000000005,705.4998175182483Z" style="stroke: rgb(182, 232, 128); stroke-opacity: 0.6; fill: rgb(182, 232, 128); fill-opacity: 0.6; stroke-width: 1; opacity: 1;"/></g><g class="sankey-node-set" style="cursor: ns-resize;"><g class="sankey-node" transform="translate(744.900,13.576)" style="opacity: 1;"><rect class="node-rect" width="15" height="41.19525547445255" style="stroke-width: 0.5; stroke: rgb(0, 0, 0); stroke-opacity: 1; fill: rgb(128, 128, 128); fill-opacity: 1;"/><text class="node-label" data-notex="1" x="0" y="0" text-anchor="end" transform="translate(-3.25,24.797627737226275)" style="cursor: default; font-family: 'Open Sans', verdana, arial, sans-serif; font-size: 12px; fill: rgb(42, 63, 95); fill-opacity: 1; white-space: pre; text-shadow: white 1px 1px 1px, white -1px -1px 1px, white 1px -1px 1px, white -1px 1px 1px;">AggressiveChase</text></g><g class="sankey-node" transform="translate(744.900,68.041)" style="opacity: 1;"><rect class="node-rect" width="15" height="15.328467153284691" style="stroke-width: 0.5; stroke: rgb(0, 0, 0); stroke-opacity: 1; fill: rgb(128, 128, 128); fill-opacity: 1;"/><text class="node-label" data-notex="1" x="0" y="0" text-anchor="end" transform="translate(-3.25,11.864233576642345)" style="cursor: default; font-family: 'Open Sans', verdana, arial, sans-serif; font-size: 12px; fill: rgb(42, 63, 95); fill-opacity: 1; white-space: pre; text-shadow: white 1px 1px 1px, white -1px -1px 1px, white 1px -1px 1px, white -1px 1px 1px;">BeingAttacked</text></g><g class="sankey-node" transform="translate(744.900,97.424)" style="opacity: 1;"><rect class="node-rect" width="15" height="1.9160583941607001" style="stroke-width: 0.5; stroke: rgb(0, 0, 0); stroke-opacity: 1; fill: rgb(128, 128, 128); fill-opacity: 1;"/><text class="node-label" data-notex="1" x="0" y="0" text-anchor="end" transform="translate(-3.25,5.158029197080349)" style="cursor: default; font-family: 'Open Sans', verdana, arial, sans-serif; font-size: 12px; fill: rgb(42, 63, 95); fill-opacity: 1; white-space: pre; text-shadow: white 1px 1px 1px, white -1px -1px 1px, white 1px -1px 1px, white -1px 1px 1px;">Groupsniff</text></g><g class="sankey-node" transform="translate(744.900,113.089)" style="opacity: 1;"><rect class="node-rect" width="15" height="30.656934306569326" style="stroke-width: 0.5; stroke: rgb(0, 0, 0); stroke-opacity: 1; fill: rgb(128, 128, 128); fill-opacity: 1;"/><text class="node-label" data-notex="1" x="0" y="0" text-anchor="end" transform="translate(-3.25,19.528467153284662)" style="cursor: default; font-family: 'Open Sans', verdana, arial, sans-serif; font-size: 12px; fill: rgb(42, 63, 95); fill-opacity: 1; white-space: pre; text-shadow: white 1px 1px 1px, white -1px -1px 1px, white 1px -1px 1px, white -1px 1px 1px;">SideAttack</text></g><g class="sankey-node" transform="translate(744.900,156.230)" style="opacity: 1;"><rect class="node-rect" width="15" height="65.14598540145994" style="stroke-width: 0.5; stroke: rgb(0, 0, 0); stroke-opacity: 1; fill: rgb(128, 128, 128); fill-opacity: 1;"/><text class="node-label" data-notex="1" x="0" y="0" text-anchor="end" transform="translate(-3.25,36.77299270072997)" style="cursor: default; font-family: 'Open Sans', verdana, arial, sans-serif; font-size: 12px; fill: rgb(42, 63, 95); fill-opacity: 1; white-space: pre; text-shadow: white 1px 1px 1px, white -1px -1px 1px, white 1px -1px 1px, white -1px 1px 1px;">SideSniff1</text></g><g class="sankey-node" transform="translate(744.900,234.224)" style="opacity: 1;"><rect class="node-rect" width="15" height="12.454379562043641" style="stroke-width: 0.5; stroke: rgb(0, 0, 0); stroke-opacity: 1; fill: rgb(128, 128, 128); fill-opacity: 1;"/><text class="node-label" data-notex="1" x="0" y="0" text-anchor="end" transform="translate(-3.25,10.42718978102182)" style="cursor: default; font-family: 'Open Sans', verdana, arial, sans-serif; font-size: 12px; fill: rgb(42, 63, 95); fill-opacity: 1; white-space: pre; text-shadow: white 1px 1px 1px, white -1px -1px 1px, white 1px -1px 1px, white -1px 1px 1px;">dig</text></g><g class="sankey-node" transform="translate(744.900,259.296)" style="opacity: 1;"><rect class="node-rect" width="15" height="76.64233576642334" style="stroke-width: 0.5; stroke: rgb(0, 0, 0); stroke-opacity: 1; fill: rgb(128, 128, 128); fill-opacity: 1;"/><text class="node-label" data-notex="1" x="0" y="0" text-anchor="end" transform="translate(-3.25,42.521167883211675)" style="cursor: default; font-family: 'Open Sans', verdana, arial, sans-serif; font-size: 12px; fill: rgb(42, 63, 95); fill-opacity: 1; white-space: pre; text-shadow: white 1px 1px 1px, white -1px -1px 1px, white 1px -1px 1px, white -1px 1px 1px;">follow1</text></g><g class="sankey-node" transform="translate(744.900,348.768)" style="opacity: 1;"><rect class="node-rect" width="15" height="1.9160583941604727" style="stroke-width: 0.5; stroke: rgb(0, 0, 0); stroke-opacity: 1; fill: rgb(128, 128, 128); fill-opacity: 1;"/><text class="node-label" data-notex="1" x="0" y="0" text-anchor="end" transform="translate(-3.25,5.158029197080236)" style="cursor: default; font-family: 'Open Sans', verdana, arial, sans-serif; font-size: 12px; fill: rgb(42, 63, 95); fill-opacity: 1; white-space: pre; text-shadow: white 1px 1px 1px, white -1px -1px 1px, white 1px -1px 1px, white -1px 1px 1px;">groomfront</text></g><g class="sankey-node" transform="translate(744.900,364.681)" style="opacity: 1;"><rect class="node-rect" width="15" height="18.202554744525514" style="stroke-width: 0.5; stroke: rgb(0, 0, 0); stroke-opacity: 1; fill: rgb(128, 128, 128); fill-opacity: 1;"/><text class="node-label" data-notex="1" x="0" y="0" text-anchor="end" transform="translate(-3.25,13.301277372262756)" style="cursor: default; font-family: 'Open Sans', verdana, arial, sans-serif; font-size: 12px; fill: rgb(42, 63, 95); fill-opacity: 1; white-space: pre; text-shadow: white 1px 1px 1px, white -1px -1px 1px, white 1px -1px 1px, white -1px 1px 1px;">nose2nose1</text></g><g class="sankey-node" transform="translate(744.900,396.498)" style="opacity: 1;"><rect class="node-rect" width="15" height="21.076642335766337" style="stroke-width: 0.5; stroke: rgb(0, 0, 0); stroke-opacity: 1; fill: rgb(128, 128, 128); fill-opacity: 1;"/><text class="node-label" data-notex="1" x="0" y="0" text-anchor="end" transform="translate(-3.25,14.738321167883168)" style="cursor: default; font-family: 'Open Sans', verdana, arial, sans-serif; font-size: 12px; fill: rgb(42, 63, 95); fill-opacity: 1; white-space: pre; text-shadow: white 1px 1px 1px, white -1px -1px 1px, white 1px -1px 1px, white -1px 1px 1px;">nose2rear1</text></g><g class="sankey-node" transform="translate(744.900,431.151)" style="opacity: 1;"><rect class="node-rect" width="15" height="20.1186131386861" style="stroke-width: 0.5; stroke: rgb(0, 0, 0); stroke-opacity: 1; fill: rgb(128, 128, 128); fill-opacity: 1;"/><text class="node-label" data-notex="1" x="0" y="0" text-anchor="end" transform="translate(-3.25,14.25930656934305)" style="cursor: default; font-family: 'Open Sans', verdana, arial, sans-serif; font-size: 12px; fill: rgb(42, 63, 95); fill-opacity: 1; white-space: pre; text-shadow: white 1px 1px 1px, white -1px -1px 1px, white 1px -1px 1px, white -1px 1px 1px;">nosey1</text></g><g class="sankey-node" transform="translate(744.900,464.252)" style="opacity: 1;"><rect class="node-rect" width="15" height="50.775547445255484" style="stroke-width: 0.5; stroke: rgb(0, 0, 0); stroke-opacity: 1; fill: rgb(128, 128, 128); fill-opacity: 1;"/><text class="node-label" data-notex="1" x="0" y="0" text-anchor="end" transform="translate(-3.25,29.58777372262774)" style="cursor: default; font-family: 'Open Sans', verdana, arial, sans-serif; font-size: 12px; fill: rgb(42, 63, 95); fill-opacity: 1; white-space: pre; text-shadow: white 1px 1px 1px, white -1px -1px 1px, white 1px -1px 1px, white -1px 1px 1px;">sitcorner</text></g><g class="sankey-node" transform="translate(744.900,526.381)" style="opacity: 1;"><rect class="node-rect" width="15" height="101.55109489051074" style="stroke-width: 0.5; stroke: rgb(0, 0, 0); stroke-opacity: 1; fill: rgb(128, 128, 128); fill-opacity: 1;"/><text class="node-label" data-notex="1" x="0" y="0" text-anchor="end" transform="translate(-3.25,54.97554744525537)" style="cursor: default; font-family: 'Open Sans', verdana, arial, sans-serif; font-size: 12px; fill: rgb(42, 63, 95); fill-opacity: 1; white-space: pre; text-shadow: white 1px 1px 1px, white -1px -1px 1px, white 1px -1px 1px, white -1px 1px 1px;">walk</text></g><g class="sankey-node" transform="translate(744.900,638.940)" style="opacity: 1;"><rect class="node-rect" width="15" height="68.02007299270076" style="stroke-width: 0.5; stroke: rgb(0, 0, 0); stroke-opacity: 1; fill: rgb(128, 128, 128); fill-opacity: 1;"/><text class="node-label" data-notex="1" x="0" y="0" text-anchor="end" transform="translate(-3.25,38.210036496350384)" style="cursor: default; font-family: 'Open Sans', verdana, arial, sans-serif; font-size: 12px; fill: rgb(42, 63, 95); fill-opacity: 1; white-space: pre; text-shadow: white 1px 1px 1px, white -1px -1px 1px, white 1px -1px 1px, white -1px 1px 1px;">wallclimb</text></g><g class="sankey-node" transform="translate(368.700,15.435)" style="opacity: 1;"><rect class="node-rect" width="15" height="29.698905109489033" style="stroke-width: 0.5; stroke: rgb(0, 0, 0); stroke-opacity: 1; fill: rgb(25, 211, 243); fill-opacity: 1;"/><text class="node-label" data-notex="1" x="0" y="0" text-anchor="start" transform="translate(18.25,19.049452554744516)" style="cursor: default; font-family: 'Open Sans', verdana, arial, sans-serif; font-size: 12px; fill: rgb(42, 63, 95); fill-opacity: 1; white-space: pre; text-shadow: white 1px 1px 1px, white -1px -1px 1px, white 1px -1px 1px, white -1px 1px 1px;">BLA</text></g><g class="sankey-node" transform="translate(368.700,63.207)" style="opacity: 1;"><rect class="node-rect" width="15" height="75.6843065693431" style="stroke-width: 0.5; stroke: rgb(0, 0, 0); stroke-opacity: 1; fill: rgb(99, 110, 250); fill-opacity: 1;"/><text class="node-label" data-notex="1" x="0" y="0" text-anchor="start" transform="translate(18.25,42.04215328467154)" style="cursor: default; font-family: 'Open Sans', verdana, arial, sans-serif; font-size: 12px; fill: rgb(42, 63, 95); fill-opacity: 1; white-space: pre; text-shadow: white 1px 1px 1px, white -1px -1px 1px, white 1px -1px 1px, white -1px 1px 1px;">Cla</text></g><g class="sankey-node" transform="translate(368.700,158.234)" style="opacity: 1;"><rect class="node-rect" width="15" height="66.10401459854035" style="stroke-width: 0.5; stroke: rgb(0, 0, 0); stroke-opacity: 1; fill: rgb(239, 85, 59); fill-opacity: 1;"/><text class="node-label" data-notex="1" x="0" y="0" text-anchor="start" transform="translate(18.25,37.252007299270176)" style="cursor: default; font-family: 'Open Sans', verdana, arial, sans-serif; font-size: 12px; fill: rgb(42, 63, 95); fill-opacity: 1; white-space: pre; text-shadow: white 1px 1px 1px, white -1px -1px 1px, white 1px -1px 1px, white -1px 1px 1px;">LC</text></g><g class="sankey-node" transform="translate(368.700,241.810)" style="opacity: 1;"><rect class="node-rect" width="15" height="22.03467153284683" style="stroke-width: 0.5; stroke: rgb(0, 0, 0); stroke-opacity: 1; fill: rgb(254, 203, 82); fill-opacity: 1;"/><text class="node-label" data-notex="1" x="0" y="0" text-anchor="start" transform="translate(18.25,15.217335766423414)" style="cursor: default; font-family: 'Open Sans', verdana, arial, sans-serif; font-size: 12px; fill: rgb(42, 63, 95); fill-opacity: 1; white-space: pre; text-shadow: white 1px 1px 1px, white -1px -1px 1px, white 1px -1px 1px, white -1px 1px 1px;">LHyp</text></g><g class="sankey-node" transform="translate(368.700,280.917)" style="opacity: 1;"><rect class="node-rect" width="15" height="54.6076642335762" style="stroke-width: 0.5; stroke: rgb(0, 0, 0); stroke-opacity: 1; fill: rgb(171, 99, 250); fill-opacity: 1;"/><text class="node-label" data-notex="1" x="0" y="0" text-anchor="start" transform="translate(18.25,31.5038321167881)" style="cursor: default; font-family: 'Open Sans', verdana, arial, sans-serif; font-size: 12px; fill: rgb(42, 63, 95); fill-opacity: 1; white-space: pre; text-shadow: white 1px 1px 1px, white -1px -1px 1px, white 1px -1px 1px, white -1px 1px 1px;">NAc</text></g><g class="sankey-node" transform="translate(368.700,354.933)" style="opacity: 1;"><rect class="node-rect" width="15" height="89.09671532846733" style="stroke-width: 0.5; stroke: rgb(0, 0, 0); stroke-opacity: 1; fill: rgb(0, 204, 150); fill-opacity: 1;"/><text class="node-label" data-notex="1" x="0" y="0" text-anchor="start" transform="translate(18.25,48.748357664233666)" style="cursor: default; font-family: 'Open Sans', verdana, arial, sans-serif; font-size: 12px; fill: rgb(42, 63, 95); fill-opacity: 1; white-space: pre; text-shadow: white 1px 1px 1px, white -1px -1px 1px, white 1px -1px 1px, white -1px 1px 1px;">Str</text></g><g class="sankey-node" transform="translate(368.700,465.543)" style="opacity: 1;"><rect class="node-rect" width="15" height="114.96350364963502" style="stroke-width: 0.5; stroke: rgb(0, 0, 0); stroke-opacity: 1; fill: rgb(255, 161, 90); fill-opacity: 1;"/><text class="node-label" data-notex="1" x="0" y="0" text-anchor="start" transform="translate(18.25,61.68175182481751)" style="cursor: default; font-family: 'Open Sans', verdana, arial, sans-serif; font-size: 12px; fill: rgb(42, 63, 95); fill-opacity: 1; white-space: pre; text-shadow: white 1px 1px 1px, white -1px -1px 1px, white 1px -1px 1px, white -1px 1px 1px;">VTA</text></g><g class="sankey-node" transform="translate(368.700,600.417)" style="opacity: 1;"><rect class="node-rect" width="15" height="43.111313868613024" style="stroke-width: 0.5; stroke: rgb(0, 0, 0); stroke-opacity: 1; fill: rgb(255, 151, 255); fill-opacity: 1;"/><text class="node-label" data-notex="1" x="0" y="0" text-anchor="start" transform="translate(18.25,25.75565693430651)" style="cursor: default; font-family: 'Open Sans', verdana, arial, sans-serif; font-size: 12px; fill: rgb(42, 63, 95); fill-opacity: 1; white-space: pre; text-shadow: white 1px 1px 1px, white -1px -1px 1px, white 1px -1px 1px, white -1px 1px 1px;">cPFC</text></g><g class="sankey-node" transform="translate(368.700,660.366)" style="opacity: 1;"><rect class="node-rect" width="15" height="26.82481751824821" style="stroke-width: 0.5; stroke: rgb(0, 0, 0); stroke-opacity: 1; fill: rgb(255, 102, 146); fill-opacity: 1;"/><text class="node-label" data-notex="1" x="0" y="0" text-anchor="start" transform="translate(18.25,17.612408759124104)" style="cursor: default; font-family: 'Open Sans', verdana, arial, sans-serif; font-size: 12px; fill: rgb(42, 63, 95); fill-opacity: 1; white-space: pre; text-shadow: white 1px 1px 1px, white -1px -1px 1px, white 1px -1px 1px, white -1px 1px 1px;">dPAG</text></g><g class="sankey-node" transform="translate(368.700,702.626)" style="opacity: 1;"><rect class="node-rect" width="15" height="2.874087591240823" style="stroke-width: 0.5; stroke: rgb(0, 0, 0); stroke-opacity: 1; fill: rgb(182, 232, 128); fill-opacity: 1;"/><text class="node-label" data-notex="1" x="0" y="0" text-anchor="start" transform="translate(18.25,5.637043795620411)" style="cursor: default; font-family: 'Open Sans', verdana, arial, sans-serif; font-size: 12px; fill: rgb(42, 63, 95); fill-opacity: 1; white-space: pre; text-shadow: white 1px 1px 1px, white -1px -1px 1px, white 1px -1px 1px, white -1px 1px 1px;">lHb</text></g></g></g><defs id="topdefs-af5ed9"><g class="clips"/></defs><g class="layer-above"><g class="imagelayer"/><g class="shapelayer"/></g><g class="infolayer"><g class="g-gtitle"/><g class="first-render"/></g></svg>