<svg class="main-svg" xmlns="http://www.w3.org/2000/svg" xmlns:xlink="http://www.w3.org/1999/xlink" width="1300" height="900" style="" viewBox="0 0 1300 900"><rect x="0" y="0" width="1300" height="900" style="fill: rgb(255, 255, 255); fill-opacity: 1;"/><defs id="defs-bdce94"><g class="clips"/><g class="gradients"/><g class="patterns"/></defs><g class="bglayer"/><g class="layer-below"><g class="imagelayer"/><g class="shapelayer"/></g><g class="cartesianlayer"/><g class="polarlayer"/><g class="smithlayer"/><g class="ternarylayer"/><g class="geolayer"/><g class="funnelarealayer"/><g class="pielayer"/><g class="iciclelayer"/><g class="treemaplayer"/><g class="sunburstlayer"/><g class="glimages"/><g class="sankey" transform="translate(80,100)matrix(1 0 0 1 0 0)" style="box-sizing: content-box; position: absolute; left: 0px; shape-rendering: geometricprecision; pointer-events: none;"><g class="sankey-links" style="fill: none;"><path class="sankey-link" d="M15,242.61554621848785C570,242.61554621848785 570,435.34663865546173 1125,435.34663865546173L1125,436.57563025210044C570,436.57563025210044 570,243.8445378151265 15,243.8445378151265Z" style="stroke: rgb(68, 68, 68); stroke-opacity: 1; fill: rgb(25, 211, 243); fill-opacity: 0.6; stroke-width: 0; opacity: 1;"/><path class="sankey-link" d="M15,214.34873949579878C570,214.34873949579878 570,43.51890756302525 1125,43.51890756302525L1125,47.20588235294122C570,47.20588235294122 570,218.03571428571473 15,218.03571428571473Z" style="stroke: rgb(68, 68, 68); stroke-opacity: 1; fill: rgb(25, 211, 243); fill-opacity: 0.6; stroke-width: 0; opacity: 1;"/><path class="sankey-link" d="M15,218.03571428571476C570,218.03571428571476 570,94.15966386554628 1125,94.15966386554628L1125,101.53361344537821C570,101.53361344537821 570,225.40966386554672 15,225.40966386554672Z" style="stroke: rgb(68, 68, 68); stroke-opacity: 1; fill: rgb(25, 211, 243); fill-opacity: 0.6; stroke-width: 0; opacity: 1;"/><path class="sankey-link" d="M15,232.78361344537862C570,232.78361344537862 570,290.07352941176475 1125,290.07352941176475L1125,299.90546218487395C570,299.90546218487395 570,242.61554621848788 15,242.61554621848788Z" style="stroke: rgb(68, 68, 68); stroke-opacity: 1; fill: rgb(25, 211, 243); fill-opacity: 0.6; stroke-width: 0; opacity: 1;"/><path class="sankey-link" d="M15,248.76050420168113C570,248.76050420168113 570,602.9936974789913 1125,602.9936974789913L1125,610.3676470588233C570,610.3676470588233 570,256.13445378151306 15,256.13445378151306Z" style="stroke: rgb(68, 68, 68); stroke-opacity: 1; fill: rgb(25, 211, 243); fill-opacity: 0.6; stroke-width: 0; opacity: 1;"/><path class="sankey-link" d="M15,243.8445378151265C570,243.8445378151265 570,503.193277310924 1125,503.193277310924L1125,508.1092436974786C570,508.1092436974786 570,248.7605042016811 15,248.7605042016811Z" style="stroke: rgb(68, 68, 68); stroke-opacity: 1; fill: rgb(25, 211, 243); fill-opacity: 0.6; stroke-width: 0; opacity: 1;"/><path class="sankey-link" d="M15,225.4096638655467C570,225.4096638655467 570,174.296218487395 1125,174.296218487395L1125,181.67016806722697C570,181.67016806722697 570,232.78361344537865 15,232.78361344537865Z" style="stroke: rgb(68, 68, 68); stroke-opacity: 1; fill: rgb(25, 211, 243); fill-opacity: 0.6; stroke-width: 0; opacity: 1;"/><path class="sankey-link" d="M15,385.68277310924395C570,385.68277310924395 570,440.26260504201633 1125,440.26260504201633L1125,450.09453781512553C570,450.09453781512553 570,395.51470588235316 15,395.51470588235316Z" style="stroke: rgb(68, 68, 68); stroke-opacity: 1; fill: rgb(0, 204, 150); fill-opacity: 0.6; stroke-width: 0; opacity: 1;"/><path class="sankey-link" d="M15,420.09453781512633C570,420.09453781512633 570,691.7331932773109 1125,691.7331932773109L1125,696.6491596638655C570,696.6491596638655 570,425.01050420168093 15,425.01050420168093Z" style="stroke: rgb(68, 68, 68); stroke-opacity: 1; fill: rgb(0, 204, 150); fill-opacity: 0.6; stroke-width: 0; opacity: 1;"/><path class="sankey-link" d="M15,334.0651260504204C570,334.0651260504204 570,49.66386554621853 1125,49.66386554621853L1125,53.350840336134496C570,53.350840336134496 570,337.7521008403364 15,337.7521008403364Z" style="stroke: rgb(68, 68, 68); stroke-opacity: 1; fill: rgb(0, 204, 150); fill-opacity: 0.6; stroke-width: 0; opacity: 1;"/><path class="sankey-link" d="M15,337.75210084033637C570,337.75210084033637 570,108.90756302521014 1125,108.90756302521014L1125,121.1974789915967C570,121.1974789915967 570,350.04201680672287 15,350.04201680672287Z" style="stroke: rgb(68, 68, 68); stroke-opacity: 1; fill: rgb(0, 204, 150); fill-opacity: 0.6; stroke-width: 0; opacity: 1;"/><path class="sankey-link" d="M15,362.3319327731095C570,362.3319327731095 570,312.19537815126057 1125,312.19537815126057L1125,335.546218487395C570,335.546218487395 570,385.6827731092439 15,385.6827731092439Z" style="stroke: rgb(68, 68, 68); stroke-opacity: 1; fill: rgb(0, 204, 150); fill-opacity: 0.6; stroke-width: 0; opacity: 1;"/><path class="sankey-link" d="M15,410.26260504201707C570,410.26260504201707 570,618.9705882352938 1125,618.9705882352938L1125,628.802521008403C570,628.802521008403 570,420.0945378151263 15,420.0945378151263Z" style="stroke: rgb(68, 68, 68); stroke-opacity: 1; fill: rgb(0, 204, 150); fill-opacity: 0.6; stroke-width: 0; opacity: 1;"/><path class="sankey-link" d="M15,395.5147058823532C570,395.5147058823532 570,513.0252100840332 1125,513.0252100840332L1125,527.773109243697C570,527.773109243697 570,410.2626050420171 15,410.2626050420171Z" style="stroke: rgb(68, 68, 68); stroke-opacity: 1; fill: rgb(0, 204, 150); fill-opacity: 0.6; stroke-width: 0; opacity: 1;"/><path class="sankey-link" d="M15,350.0420168067229C570,350.0420168067229 570,190.27310924369752 1125,190.27310924369752L1125,202.56302521008408C570,202.56302521008408 570,362.33193277310943 15,362.33193277310943Z" style="stroke: rgb(68, 68, 68); stroke-opacity: 1; fill: rgb(0, 204, 150); fill-opacity: 0.6; stroke-width: 0; opacity: 1;"/><path class="sankey-link" d="M15,57.76260504201738C570,57.76260504201738 570,420.5987394957979 1125,420.5987394957979L1125,426.7436974789912C570,426.7436974789912 570,63.907563025210656 15,63.907563025210656Z" style="stroke: rgb(68, 68, 68); stroke-opacity: 1; fill: rgb(239, 85, 59); fill-opacity: 0.6; stroke-width: 0; opacity: 1;"/><path class="sankey-link" d="M15,86.02941176470645C570,86.02941176470645 570,689.2752100840335 1125,689.2752100840335L1125,690.5042016806722C570,690.5042016806722 570,87.2584033613451 15,87.2584033613451Z" style="stroke: rgb(68, 68, 68); stroke-opacity: 1; fill: rgb(239, 85, 59); fill-opacity: 0.6; stroke-width: 0; opacity: 1;"/><path class="sankey-link" d="M15,5.684341886080801e-13C570,5.684341886080801e-13 570,30.000000000000043 1125,30.000000000000043L1125,37.37394957983197C570,37.37394957983197 570,7.373949579832502 15,7.373949579832502Z" style="stroke: rgb(68, 68, 68); stroke-opacity: 1; fill: rgb(239, 85, 59); fill-opacity: 0.6; stroke-width: 0; opacity: 1;"/><path class="sankey-link" d="M15,7.373949579832502C570,7.373949579832502 570,69.57983193277317 1125,69.57983193277317L1125,84.32773109243703C570,84.32773109243703 570,22.121848739496368 15,22.121848739496368Z" style="stroke: rgb(68, 68, 68); stroke-opacity: 1; fill: rgb(239, 85, 59); fill-opacity: 0.6; stroke-width: 0; opacity: 1;"/><path class="sankey-link" d="M15,34.41176470588292C570,34.41176470588292 570,237.22689075630257 1125,237.22689075630257L1125,260.57773109243703C570,260.57773109243703 570,57.76260504201738 15,57.76260504201738Z" style="stroke: rgb(68, 68, 68); stroke-opacity: 1; fill: rgb(239, 85, 59); fill-opacity: 0.6; stroke-width: 0; opacity: 1;"/><path class="sankey-link" d="M15,74.96848739495856C570,74.96848739495856 570,577.1848739495795 1125,577.1848739495795L1125,588.2457983193274C570,588.2457983193274 570,86.02941176470647 15,86.02941176470647Z" style="stroke: rgb(68, 68, 68); stroke-opacity: 1; fill: rgb(239, 85, 59); fill-opacity: 0.6; stroke-width: 0; opacity: 1;"/><path class="sankey-link" d="M15,63.907563025210656C570,63.907563025210656 570,482.3004201680668 1125,482.3004201680668L1125,493.3613445378147C570,493.3613445378147 570,74.96848739495856 15,74.96848739495856Z" style="stroke: rgb(68, 68, 68); stroke-opacity: 1; fill: rgb(239, 85, 59); fill-opacity: 0.6; stroke-width: 0; opacity: 1;"/><path class="sankey-link" d="M15,22.121848739496365C570,22.121848739496365 570,144.80042016806726 1125,144.80042016806726L1125,157.09033613445382C570,157.09033613445382 570,34.41176470588292 15,34.41176470588292Z" style="stroke: rgb(68, 68, 68); stroke-opacity: 1; fill: rgb(239, 85, 59); fill-opacity: 0.6; stroke-width: 0; opacity: 1;"/><path class="sankey-link" d="M15,705.252100840336C570,705.252100840336 570,464.84243697478945 1125,464.84243697478945L1125,467.30042016806675C570,467.30042016806675 570,707.7100840336134 15,707.7100840336134Z" style="stroke: rgb(68, 68, 68); stroke-opacity: 1; fill: rgb(254, 203, 82); fill-opacity: 0.6; stroke-width: 0; opacity: 1;"/><path class="sankey-link" d="M15,715.0840336134453C570,715.0840336134453 570,715.0840336134453 1125,715.0840336134453L1125,719.9999999999999C570,719.9999999999999 570,719.9999999999999 15,719.9999999999999Z" style="stroke: rgb(68, 68, 68); stroke-opacity: 1; fill: rgb(254, 203, 82); fill-opacity: 0.6; stroke-width: 0; opacity: 1;"/><path class="sankey-link" d="M15,700.3361344537814C570,700.3361344537814 570,400.6827731092438 1125,400.6827731092438L1125,405.5987394957984C570,405.5987394957984 570,705.252100840336 15,705.252100840336Z" style="stroke: rgb(68, 68, 68); stroke-opacity: 1; fill: rgb(254, 203, 82); fill-opacity: 0.6; stroke-width: 0; opacity: 1;"/><path class="sankey-link" d="M15,711.3970588235293C570,711.3970588235293 570,670.5882352941173 1125,670.5882352941173L1125,674.2752100840332C570,674.2752100840332 570,715.0840336134452 15,715.0840336134452Z" style="stroke: rgb(68, 68, 68); stroke-opacity: 1; fill: rgb(254, 203, 82); fill-opacity: 0.6; stroke-width: 0; opacity: 1;"/><path class="sankey-link" d="M15,707.7100840336133C570,707.7100840336133 570,558.4978991596636 1125,558.4978991596636L1125,562.1848739495795C570,562.1848739495795 570,711.3970588235292 15,711.3970588235292Z" style="stroke: rgb(68, 68, 68); stroke-opacity: 1; fill: rgb(254, 203, 82); fill-opacity: 0.6; stroke-width: 0; opacity: 1;"/><path class="sankey-link" d="M15,301.85924369747937C570,301.85924369747937 570,436.5756302521004 1125,436.5756302521004L1125,440.2626050420164C570,440.2626050420164 570,305.5462184873954 15,305.5462184873954Z" style="stroke: rgb(68, 68, 68); stroke-opacity: 1; fill: rgb(255, 161, 90); fill-opacity: 0.6; stroke-width: 0; opacity: 1;"/><path class="sankey-link" d="M15,271.13445378151295C570,271.13445378151295 570,47.20588235294122 1125,47.20588235294122L1125,49.66386554621853C570,49.66386554621853 570,273.59243697479025 15,273.59243697479025Z" style="stroke: rgb(68, 68, 68); stroke-opacity: 1; fill: rgb(255, 161, 90); fill-opacity: 0.6; stroke-width: 0; opacity: 1;"/><path class="sankey-link" d="M15,273.59243697479025C570,273.59243697479025 570,101.53361344537821 1125,101.53361344537821L1125,108.90756302521014C570,108.90756302521014 570,280.96638655462215 15,280.96638655462215Z" style="stroke: rgb(68, 68, 68); stroke-opacity: 1; fill: rgb(255, 161, 90); fill-opacity: 0.6; stroke-width: 0; opacity: 1;"/><path class="sankey-link" d="M15,289.5693277310928C570,289.5693277310928 570,299.905462184874 1125,299.905462184874L1125,312.1953781512605C570,312.1953781512605 570,301.8592436974793 15,301.8592436974793Z" style="stroke: rgb(68, 68, 68); stroke-opacity: 1; fill: rgb(255, 161, 90); fill-opacity: 0.6; stroke-width: 0; opacity: 1;"/><path class="sankey-link" d="M15,310.4621848739499C570,310.4621848739499 570,610.3676470588232 1125,610.3676470588232L1125,618.9705882352937C570,618.9705882352937 570,319.06512605042053 15,319.06512605042053Z" style="stroke: rgb(68, 68, 68); stroke-opacity: 1; fill: rgb(255, 161, 90); fill-opacity: 0.6; stroke-width: 0; opacity: 1;"/><path class="sankey-link" d="M15,305.5462184873953C570,305.5462184873953 570,508.1092436974786 1125,508.1092436974786L1125,513.0252100840332C570,513.0252100840332 570,310.4621848739499 15,310.4621848739499Z" style="stroke: rgb(68, 68, 68); stroke-opacity: 1; fill: rgb(255, 161, 90); fill-opacity: 0.6; stroke-width: 0; opacity: 1;"/><path class="sankey-link" d="M15,280.9663865546222C570,280.9663865546222 570,181.67016806722694 1125,181.67016806722694L1125,190.27310924369755C570,190.27310924369755 570,289.5693277310928 15,289.5693277310928Z" style="stroke: rgb(68, 68, 68); stroke-opacity: 1; fill: rgb(255, 161, 90); fill-opacity: 0.6; stroke-width: 0; opacity: 1;"/><path class="sankey-link" d="M15,164.93697478991658C570,164.93697478991658 570,426.7436974789911 1125,426.7436974789911L1125,435.34663865546173C570,435.34663865546173 570,173.53991596638718 15,173.53991596638718Z" style="stroke: rgb(68, 68, 68); stroke-opacity: 1; fill: rgb(171, 99, 250); fill-opacity: 0.6; stroke-width: 0; opacity: 1;"/><path class="sankey-link" d="M15,198.11974789916025C570,198.11974789916025 570,690.5042016806722 1125,690.5042016806722L1125,691.7331932773109C570,691.7331932773109 570,199.3487394957989 15,199.3487394957989Z" style="stroke: rgb(68, 68, 68); stroke-opacity: 1; fill: rgb(171, 99, 250); fill-opacity: 0.6; stroke-width: 0; opacity: 1;"/><path class="sankey-link" d="M15,102.25840336134513C570,102.25840336134513 570,37.37394957983197 1125,37.37394957983197L1125,43.51890756302525C570,43.51890756302525 570,108.40336134453841 15,108.40336134453841Z" style="stroke: rgb(68, 68, 68); stroke-opacity: 1; fill: rgb(171, 99, 250); fill-opacity: 0.6; stroke-width: 0; opacity: 1;"/><path class="sankey-link" d="M15,108.40336134453841C570,108.40336134453841 570,84.32773109243703 1125,84.32773109243703L1125,94.15966386554629C570,94.15966386554629 570,118.23529411764767 15,118.23529411764767Z" style="stroke: rgb(68, 68, 68); stroke-opacity: 1; fill: rgb(171, 99, 250); fill-opacity: 0.6; stroke-width: 0; opacity: 1;"/><path class="sankey-link" d="M15,135.44117647058883C570,135.44117647058883 570,260.57773109243703 1125,260.57773109243703L1125,290.07352941176475C570,290.07352941176475 570,164.93697478991655 15,164.93697478991655Z" style="stroke: rgb(68, 68, 68); stroke-opacity: 1; fill: rgb(171, 99, 250); fill-opacity: 0.6; stroke-width: 0; opacity: 1;"/><path class="sankey-link" d="M15,183.3718487394964C570,183.3718487394964 570,588.2457983193274 1125,588.2457983193274L1125,602.9936974789912C570,602.9936974789912 570,198.11974789916025 15,198.11974789916025Z" style="stroke: rgb(68, 68, 68); stroke-opacity: 1; fill: rgb(171, 99, 250); fill-opacity: 0.6; stroke-width: 0; opacity: 1;"/><path class="sankey-link" d="M15,173.53991596638716C570,173.53991596638716 570,493.3613445378147 1125,493.3613445378147L1125,503.1932773109239C570,503.1932773109239 570,183.37184873949641 15,183.37184873949641Z" style="stroke: rgb(68, 68, 68); stroke-opacity: 1; fill: rgb(171, 99, 250); fill-opacity: 0.6; stroke-width: 0; opacity: 1;"/><path class="sankey-link" d="M15,118.23529411764765C570,118.23529411764765 570,157.09033613445382 1125,157.09033613445382L1125,174.29621848739498C570,174.29621848739498 570,135.44117647058883 15,135.44117647058883Z" style="stroke: rgb(68, 68, 68); stroke-opacity: 1; fill: rgb(171, 99, 250); fill-opacity: 0.6; stroke-width: 0; opacity: 1;"/><path class="sankey-link" d="M15,605.4516806722692C570,605.4516806722692 570,456.23949579831884 1125,456.23949579831884L1125,464.84243697478945C570,464.84243697478945 570,614.0546218487397 15,614.0546218487397Z" style="stroke: rgb(68, 68, 68); stroke-opacity: 1; fill: rgb(99, 110, 250); fill-opacity: 0.6; stroke-width: 0; opacity: 1;"/><path class="sankey-link" d="M15,669.3592436974792C570,669.3592436974792 570,699.1071428571428 1125,699.1071428571428L1125,715.0840336134453C570,715.0840336134453 570,685.3361344537817 15,685.3361344537817Z" style="stroke: rgb(68, 68, 68); stroke-opacity: 1; fill: rgb(99, 110, 250); fill-opacity: 0.6; stroke-width: 0; opacity: 1;"/><path class="sankey-link" d="M15,551.3760504201682C570,551.3760504201682 570,123.655462184874 1125,123.655462184874L1125,129.80042016806726C570,129.80042016806726 570,557.5210084033615 15,557.5210084033615Z" style="stroke: rgb(68, 68, 68); stroke-opacity: 1; fill: rgb(99, 110, 250); fill-opacity: 0.6; stroke-width: 0; opacity: 1;"/><path class="sankey-link" d="M15,563.6659663865548C570,563.6659663865548 570,358.8970588235295 1125,358.8970588235295L1125,400.68277310924384C570,400.68277310924384 570,605.451680672269 15,605.451680672269Z" style="stroke: rgb(68, 68, 68); stroke-opacity: 1; fill: rgb(99, 110, 250); fill-opacity: 0.6; stroke-width: 0; opacity: 1;"/><path class="sankey-link" d="M15,637.4054621848742C570,637.4054621848742 570,638.6344537815123 1125,638.6344537815123L1125,670.5882352941173C570,670.5882352941173 570,669.3592436974792 15,669.3592436974792Z" style="stroke: rgb(68, 68, 68); stroke-opacity: 1; fill: rgb(99, 110, 250); fill-opacity: 0.6; stroke-width: 0; opacity: 1;"/><path class="sankey-link" d="M15,614.0546218487398C570,614.0546218487398 570,535.1470588235292 1125,535.1470588235292L1125,558.4978991596637C570,558.4978991596637 570,637.4054621848743 15,637.4054621848743Z" style="stroke: rgb(68, 68, 68); stroke-opacity: 1; fill: rgb(99, 110, 250); fill-opacity: 0.6; stroke-width: 0; opacity: 1;"/><path class="sankey-link" d="M15,557.5210084033615C570,557.5210084033615 570,216.0819327731093 1125,216.0819327731093L1125,222.22689075630254C570,222.22689075630254 570,563.6659663865548 15,563.6659663865548Z" style="stroke: rgb(68, 68, 68); stroke-opacity: 1; fill: rgb(99, 110, 250); fill-opacity: 0.6; stroke-width: 0; opacity: 1;"/><path class="sankey-link" d="M15,519.1701680672271C570,519.1701680672271 570,452.5525210084029 1125,452.5525210084029L1125,456.2394957983189C570,456.2394957983189 570,522.857142857143 15,522.857142857143Z" style="stroke: rgb(68, 68, 68); stroke-opacity: 1; fill: rgb(255, 151, 255); fill-opacity: 0.6; stroke-width: 0; opacity: 1;"/><path class="sankey-link" d="M15,533.918067226891C570,533.918067226891 570,696.6491596638655 1125,696.6491596638655L1125,699.1071428571429C570,699.1071428571429 570,536.3760504201684 15,536.3760504201684Z" style="stroke: rgb(68, 68, 68); stroke-opacity: 1; fill: rgb(255, 151, 255); fill-opacity: 0.6; stroke-width: 0; opacity: 1;"/><path class="sankey-link" d="M15,497.0483193277313C570,497.0483193277313 570,53.350840336134496 1125,53.350840336134496L1125,54.579831932773146C570,54.579831932773146 570,498.27731092437 15,498.27731092437Z" style="stroke: rgb(68, 68, 68); stroke-opacity: 1; fill: rgb(255, 151, 255); fill-opacity: 0.6; stroke-width: 0; opacity: 1;"/><path class="sankey-link" d="M15,504.4222689075632C570,504.4222689075632 570,344.14915966386565 1125,344.14915966386565L1125,358.89705882352956C570,358.89705882352956 570,519.1701680672271 15,519.1701680672271Z" style="stroke: rgb(68, 68, 68); stroke-opacity: 1; fill: rgb(255, 151, 255); fill-opacity: 0.6; stroke-width: 0; opacity: 1;"/><path class="sankey-link" d="M15,526.5441176470591C570,526.5441176470591 570,631.2605042016804 1125,631.2605042016804L1125,638.6344537815124C570,638.6344537815124 570,533.9180672268911 15,533.9180672268911Z" style="stroke: rgb(68, 68, 68); stroke-opacity: 1; fill: rgb(255, 151, 255); fill-opacity: 0.6; stroke-width: 0; opacity: 1;"/><path class="sankey-link" d="M15,522.8571428571431C570,522.8571428571431 570,531.4600840336132 1125,531.4600840336132L1125,535.147058823529C570,535.147058823529 570,526.544117647059 15,526.544117647059Z" style="stroke: rgb(68, 68, 68); stroke-opacity: 1; fill: rgb(255, 151, 255); fill-opacity: 0.6; stroke-width: 0; opacity: 1;"/><path class="sankey-link" d="M15,498.27731092436994C570,498.27731092436994 570,209.936974789916 1125,209.936974789916L1125,216.08193277310926C570,216.08193277310926 570,504.42226890756325 15,504.42226890756325Z" style="stroke: rgb(68, 68, 68); stroke-opacity: 1; fill: rgb(255, 151, 255); fill-opacity: 0.6; stroke-width: 0; opacity: 1;"/><path class="sankey-link" d="M15,454.75840336134473C570,454.75840336134473 570,450.0945378151256 1125,450.0945378151256L1125,452.5525210084029C570,452.5525210084029 570,457.21638655462203 15,457.21638655462203Z" style="stroke: rgb(68, 68, 68); stroke-opacity: 1; fill: rgb(182, 232, 128); fill-opacity: 0.6; stroke-width: 0; opacity: 1;"/><path class="sankey-link" d="M15,440.0105042016809C570,440.0105042016809 570,121.1974789915967 1125,121.1974789915967L1125,122.42647058823535C570,122.42647058823535 570,441.2394957983196 15,441.2394957983196Z" style="stroke: rgb(68, 68, 68); stroke-opacity: 1; fill: rgb(182, 232, 128); fill-opacity: 0.6; stroke-width: 0; opacity: 1;"/><path class="sankey-link" d="M15,447.3844537815128C570,447.3844537815128 570,335.54621848739504 1125,335.54621848739504L1125,342.92016806722694C570,342.92016806722694 570,454.7584033613447 15,454.7584033613447Z" style="stroke: rgb(68, 68, 68); stroke-opacity: 1; fill: rgb(182, 232, 128); fill-opacity: 0.6; stroke-width: 0; opacity: 1;"/><path class="sankey-link" d="M15,459.67436974789933C570,459.67436974789933 570,628.802521008403 1125,628.802521008403L1125,630.0315126050417C570,630.0315126050417 570,460.90336134453804 15,460.90336134453804Z" style="stroke: rgb(68, 68, 68); stroke-opacity: 1; fill: rgb(182, 232, 128); fill-opacity: 0.6; stroke-width: 0; opacity: 1;"/><path class="sankey-link" d="M15,457.21638655462203C570,457.21638655462203 570,527.7731092436971 1125,527.7731092436971L1125,530.2310924369746C570,530.2310924369746 570,459.67436974789933 15,459.67436974789933Z" style="stroke: rgb(68, 68, 68); stroke-opacity: 1; fill: rgb(182, 232, 128); fill-opacity: 0.6; stroke-width: 0; opacity: 1;"/><path class="sankey-link" d="M15,441.2394957983195C570,441.2394957983195 570,202.56302521008408 1125,202.56302521008408L1125,208.70798319327733C570,208.70798319327733 570,447.38445378151283 15,447.38445378151283Z" style="stroke: rgb(68, 68, 68); stroke-opacity: 1; fill: rgb(182, 232, 128); fill-opacity: 0.6; stroke-width: 0; opacity: 1;"/><path class="sankey-link" d="M15,475.903361344538C570,475.903361344538 570,122.42647058823535 1125,122.42647058823535L1125,123.655462184874C570,123.655462184874 570,477.1323529411767 15,477.1323529411767Z" style="stroke: rgb(68, 68, 68); stroke-opacity: 1; fill: rgb(255, 102, 146); fill-opacity: 0.6; stroke-width: 0; opacity: 1;"/><path class="sankey-link" d="M15,478.3613445378153C570,478.3613445378153 570,342.920168067227 1125,342.920168067227L1125,344.1491596638657C570,344.1491596638657 570,479.590336134454 15,479.590336134454Z" style="stroke: rgb(68, 68, 68); stroke-opacity: 1; fill: rgb(255, 102, 146); fill-opacity: 0.6; stroke-width: 0; opacity: 1;"/><path class="sankey-link" d="M15,480.8193277310926C570,480.8193277310926 570,630.0315126050417 1125,630.0315126050417L1125,631.2605042016804C570,631.2605042016804 570,482.0483193277313 15,482.0483193277313Z" style="stroke: rgb(68, 68, 68); stroke-opacity: 1; fill: rgb(255, 102, 146); fill-opacity: 0.6; stroke-width: 0; opacity: 1;"/><path class="sankey-link" d="M15,479.59033613445393C570,479.59033613445393 570,530.2310924369744 1125,530.2310924369744L1125,531.4600840336132C570,531.4600840336132 570,480.81932773109264 15,480.81932773109264Z" style="stroke: rgb(68, 68, 68); stroke-opacity: 1; fill: rgb(255, 102, 146); fill-opacity: 0.6; stroke-width: 0; opacity: 1;"/><path class="sankey-link" d="M15,477.13235294117663C570,477.13235294117663 570,208.70798319327736 1125,208.70798319327736L1125,209.936974789916C570,209.936974789916 570,478.36134453781534 15,478.36134453781534Z" style="stroke: rgb(68, 68, 68); stroke-opacity: 1; fill: rgb(255, 102, 146); fill-opacity: 0.6; stroke-width: 0; opacity: 1;"/></g><g class="sankey-node-set" style="cursor: move;"><g class="sankey-node" transform="translate(1125.000,420.599)" style="opacity: 1;"><rect class="node-rect" width="15" height="46.701680672268935" style="stroke-width: 0.5; stroke: rgb(0, 0, 0); stroke-opacity: 1; fill: rgb(128, 128, 128); fill-opacity: 1;"/><text class="node-label" data-notex="1" x="0" y="0" text-anchor="end" transform="translate(-3.25,27.550840336134467)" style="cursor: default; font-family: 'Open Sans', verdana, arial, sans-serif; font-size: 12px; fill: rgb(42, 63, 95); fill-opacity: 1; white-space: pre; text-shadow: white 1px 1px 1px, white -1px -1px 1px, white 1px -1px 1px, white -1px 1px 1px;">attacking</text></g><g class="sankey-node" transform="translate(1125.000,30.000)" style="opacity: 1;"><rect class="node-rect" width="15" height="24.579831932773132" style="stroke-width: 0.5; stroke: rgb(0, 0, 0); stroke-opacity: 1; fill: rgb(128, 128, 128); fill-opacity: 1;"/><text class="node-label" data-notex="1" x="0" y="0" text-anchor="end" transform="translate(-3.25,16.489915966386565)" style="cursor: default; font-family: 'Open Sans', verdana, arial, sans-serif; font-size: 12px; fill: rgb(42, 63, 95); fill-opacity: 1; white-space: pre; text-shadow: white 1px 1px 1px, white -1px -1px 1px, white 1px -1px 1px, white -1px 1px 1px;">dig</text></g><g class="sankey-node" transform="translate(1125.000,69.580)" style="opacity: 1;"><rect class="node-rect" width="15" height="60.22058823529409" style="stroke-width: 0.5; stroke: rgb(0, 0, 0); stroke-opacity: 1; fill: rgb(128, 128, 128); fill-opacity: 1;"/><text class="node-label" data-notex="1" x="0" y="0" text-anchor="end" transform="translate(-3.25,34.31029411764705)" style="cursor: default; font-family: 'Open Sans', verdana, arial, sans-serif; font-size: 12px; fill: rgb(42, 63, 95); fill-opacity: 1; white-space: pre; text-shadow: white 1px 1px 1px, white -1px -1px 1px, white 1px -1px 1px, white -1px 1px 1px;">groom</text></g><g class="sankey-node" transform="translate(1125.000,237.227)" style="opacity: 1;"><rect class="node-rect" width="15" height="168.3718487394953" style="stroke-width: 0.5; stroke: rgb(0, 0, 0); stroke-opacity: 1; fill: rgb(128, 128, 128); fill-opacity: 1;"/><text class="node-label" data-notex="1" x="0" y="0" text-anchor="end" transform="translate(-3.25,88.38592436974766)" style="cursor: default; font-family: 'Open Sans', verdana, arial, sans-serif; font-size: 12px; fill: rgb(42, 63, 95); fill-opacity: 1; white-space: pre; text-shadow: white 1px 1px 1px, white -1px -1px 1px, white 1px -1px 1px, white -1px 1px 1px;">move</text></g><g class="sankey-node" transform="translate(1125.000,577.185)" style="opacity: 1;"><rect class="node-rect" width="15" height="97.09033613445399" style="stroke-width: 0.5; stroke: rgb(0, 0, 0); stroke-opacity: 1; fill: rgb(128, 128, 128); fill-opacity: 1;"/><text class="node-label" data-notex="1" x="0" y="0" text-anchor="end" transform="translate(-3.25,52.745168067227)" style="cursor: default; font-family: 'Open Sans', verdana, arial, sans-serif; font-size: 12px; fill: rgb(42, 63, 95); fill-opacity: 1; white-space: pre; text-shadow: white 1px 1px 1px, white -1px -1px 1px, white 1px -1px 1px, white -1px 1px 1px;">sniff</text></g><g class="sankey-node" transform="translate(1125.000,482.300)" style="opacity: 1;"><rect class="node-rect" width="15" height="79.88445378151266" style="stroke-width: 0.5; stroke: rgb(0, 0, 0); stroke-opacity: 1; fill: rgb(128, 128, 128); fill-opacity: 1;"/><text class="node-label" data-notex="1" x="0" y="0" text-anchor="end" transform="translate(-3.25,44.14222689075633)" style="cursor: default; font-family: 'Open Sans', verdana, arial, sans-serif; font-size: 12px; fill: rgb(42, 63, 95); fill-opacity: 1; white-space: pre; text-shadow: white 1px 1px 1px, white -1px -1px 1px, white 1px -1px 1px, white -1px 1px 1px;">social</text></g><g class="sankey-node" transform="translate(1125.000,144.800)" style="opacity: 1;"><rect class="node-rect" width="15" height="77.4264705882353" style="stroke-width: 0.5; stroke: rgb(0, 0, 0); stroke-opacity: 1; fill: rgb(128, 128, 128); fill-opacity: 1;"/><text class="node-label" data-notex="1" x="0" y="0" text-anchor="end" transform="translate(-3.25,42.913235294117655)" style="cursor: default; font-family: 'Open Sans', verdana, arial, sans-serif; font-size: 12px; fill: rgb(42, 63, 95); fill-opacity: 1; white-space: pre; text-shadow: white 1px 1px 1px, white -1px -1px 1px, white 1px -1px 1px, white -1px 1px 1px;">still</text></g><g class="sankey-node" transform="translate(1125.000,689.275)" style="opacity: 1;"><rect class="node-rect" width="15" height="30.72478991596654" style="stroke-width: 0.5; stroke: rgb(0, 0, 0); stroke-opacity: 1; fill: rgb(128, 128, 128); fill-opacity: 1;"/><text class="node-label" data-notex="1" x="0" y="0" text-anchor="end" transform="translate(-3.25,19.56239495798327)" style="cursor: default; font-family: 'Open Sans', verdana, arial, sans-serif; font-size: 12px; fill: rgb(42, 63, 95); fill-opacity: 1; white-space: pre; text-shadow: white 1px 1px 1px, white -1px -1px 1px, white 1px -1px 1px, white -1px 1px 1px;">being_attack</text></g><g class="sankey-node" transform="translate(0.000,551.376)" style="opacity: 1;"><rect class="node-rect" width="15" height="133.96008403361316" style="stroke-width: 0.5; stroke: rgb(0, 0, 0); stroke-opacity: 1; fill: rgb(99, 110, 250); fill-opacity: 1;"/><text class="node-label" data-notex="1" x="0" y="0" text-anchor="start" transform="translate(18.25,71.18004201680658)" style="cursor: default; font-family: 'Open Sans', verdana, arial, sans-serif; font-size: 12px; fill: rgb(42, 63, 95); fill-opacity: 1; white-space: pre; text-shadow: white 1px 1px 1px, white -1px -1px 1px, white 1px -1px 1px, white -1px 1px 1px;">VTA</text></g><g class="sankey-node" transform="translate(0.000,0.000)" style="opacity: 1;"><rect class="node-rect" width="15" height="87.25840336134456" style="stroke-width: 0.5; stroke: rgb(0, 0, 0); stroke-opacity: 1; fill: rgb(239, 85, 59); fill-opacity: 1;"/><text class="node-label" data-notex="1" x="0" y="0" text-anchor="start" transform="translate(18.25,47.829201680672284)" style="cursor: default; font-family: 'Open Sans', verdana, arial, sans-serif; font-size: 12px; fill: rgb(42, 63, 95); fill-opacity: 1; white-space: pre; text-shadow: white 1px 1px 1px, white -1px -1px 1px, white 1px -1px 1px, white -1px 1px 1px;">LC</text></g><g class="sankey-node" transform="translate(0.000,334.065)" style="opacity: 1;"><rect class="node-rect" width="15" height="90.94537815126046" style="stroke-width: 0.5; stroke: rgb(0, 0, 0); stroke-opacity: 1; fill: rgb(0, 204, 150); fill-opacity: 1;"/><text class="node-label" data-notex="1" x="0" y="0" text-anchor="start" transform="translate(18.25,49.67268907563023)" style="cursor: default; font-family: 'Open Sans', verdana, arial, sans-serif; font-size: 12px; fill: rgb(42, 63, 95); fill-opacity: 1; white-space: pre; text-shadow: white 1px 1px 1px, white -1px -1px 1px, white 1px -1px 1px, white -1px 1px 1px;">Cla</text></g><g class="sankey-node" transform="translate(0.000,102.258)" style="opacity: 1;"><rect class="node-rect" width="15" height="97.09033613445365" style="stroke-width: 0.5; stroke: rgb(0, 0, 0); stroke-opacity: 1; fill: rgb(171, 99, 250); fill-opacity: 1;"/><text class="node-label" data-notex="1" x="0" y="0" text-anchor="start" transform="translate(18.25,52.74516806722683)" style="cursor: default; font-family: 'Open Sans', verdana, arial, sans-serif; font-size: 12px; fill: rgb(42, 63, 95); fill-opacity: 1; white-space: pre; text-shadow: white 1px 1px 1px, white -1px -1px 1px, white 1px -1px 1px, white -1px 1px 1px;">Str</text></g><g class="sankey-node" transform="translate(0.000,271.134)" style="opacity: 1;"><rect class="node-rect" width="15" height="47.93067226890747" style="stroke-width: 0.5; stroke: rgb(0, 0, 0); stroke-opacity: 1; fill: rgb(255, 161, 90); fill-opacity: 1;"/><text class="node-label" data-notex="1" x="0" y="0" text-anchor="start" transform="translate(18.25,28.165336134453735)" style="cursor: default; font-family: 'Open Sans', verdana, arial, sans-serif; font-size: 12px; fill: rgb(42, 63, 95); fill-opacity: 1; white-space: pre; text-shadow: white 1px 1px 1px, white -1px -1px 1px, white 1px -1px 1px, white -1px 1px 1px;">NAc</text></g><g class="sankey-node" transform="translate(0.000,214.349)" style="opacity: 1;"><rect class="node-rect" width="15" height="41.785714285714164" style="stroke-width: 0.5; stroke: rgb(0, 0, 0); stroke-opacity: 1; fill: rgb(25, 211, 243); fill-opacity: 1;"/><text class="node-label" data-notex="1" x="0" y="0" text-anchor="start" transform="translate(18.25,25.09285714285708)" style="cursor: default; font-family: 'Open Sans', verdana, arial, sans-serif; font-size: 12px; fill: rgb(42, 63, 95); fill-opacity: 1; white-space: pre; text-shadow: white 1px 1px 1px, white -1px -1px 1px, white 1px -1px 1px, white -1px 1px 1px;">BLA</text></g><g class="sankey-node" transform="translate(0.000,475.903)" style="opacity: 1;"><rect class="node-rect" width="15" height="6.144957983193308" style="stroke-width: 0.5; stroke: rgb(0, 0, 0); stroke-opacity: 1; fill: rgb(255, 102, 146); fill-opacity: 1;"/><text class="node-label" data-notex="1" x="0" y="0" text-anchor="start" transform="translate(18.25,7.272478991596653)" style="cursor: default; font-family: 'Open Sans', verdana, arial, sans-serif; font-size: 12px; fill: rgb(42, 63, 95); fill-opacity: 1; white-space: pre; text-shadow: white 1px 1px 1px, white -1px -1px 1px, white 1px -1px 1px, white -1px 1px 1px;">lHb</text></g><g class="sankey-node" transform="translate(0.000,440.011)" style="opacity: 1;"><rect class="node-rect" width="15" height="20.89285714285711" style="stroke-width: 0.5; stroke: rgb(0, 0, 0); stroke-opacity: 1; fill: rgb(182, 232, 128); fill-opacity: 1;"/><text class="node-label" data-notex="1" x="0" y="0" text-anchor="start" transform="translate(18.25,14.646428571428554)" style="cursor: default; font-family: 'Open Sans', verdana, arial, sans-serif; font-size: 12px; fill: rgb(42, 63, 95); fill-opacity: 1; white-space: pre; text-shadow: white 1px 1px 1px, white -1px -1px 1px, white 1px -1px 1px, white -1px 1px 1px;">dPAG</text></g><g class="sankey-node" transform="translate(0.000,497.048)" style="opacity: 1;"><rect class="node-rect" width="15" height="39.32773109243692" style="stroke-width: 0.5; stroke: rgb(0, 0, 0); stroke-opacity: 1; fill: rgb(255, 151, 255); fill-opacity: 1;"/><text class="node-label" data-notex="1" x="0" y="0" text-anchor="start" transform="translate(18.25,23.86386554621846)" style="cursor: default; font-family: 'Open Sans', verdana, arial, sans-serif; font-size: 12px; fill: rgb(42, 63, 95); fill-opacity: 1; white-space: pre; text-shadow: white 1px 1px 1px, white -1px -1px 1px, white 1px -1px 1px, white -1px 1px 1px;">cPFC</text></g><g class="sankey-node" transform="translate(0.000,700.336)" style="opacity: 1;"><rect class="node-rect" width="15" height="19.66386554621863" style="stroke-width: 0.5; stroke: rgb(0, 0, 0); stroke-opacity: 1; fill: rgb(254, 203, 82); fill-opacity: 1;"/><text class="node-label" data-notex="1" x="0" y="0" text-anchor="start" transform="translate(18.25,14.031932773109315)" style="cursor: default; font-family: 'Open Sans', verdana, arial, sans-serif; font-size: 12px; fill: rgb(42, 63, 95); fill-opacity: 1; white-space: pre; text-shadow: white 1px 1px 1px, white -1px -1px 1px, white 1px -1px 1px, white -1px 1px 1px;">LHyp</text></g></g></g><defs id="topdefs-bdce94"><g class="clips"/></defs><g class="layer-above"><g class="imagelayer"/><g class="shapelayer"/></g><g class="infolayer"><g class="g-gtitle"/><g class="first-render"/></g></svg>