<svg class="main-svg" xmlns="http://www.w3.org/2000/svg" xmlns:xlink="http://www.w3.org/1999/xlink" width="1300" height="900" style="" viewBox="0 0 1300 900"><rect x="0" y="0" width="1300" height="900" style="fill: rgb(255, 255, 255); fill-opacity: 1;"/><defs id="defs-3be311"><g class="clips"/><g class="gradients"/><g class="patterns"/></defs><g class="bglayer"/><g class="layer-below"><g class="imagelayer"/><g class="shapelayer"/></g><g class="cartesianlayer"/><g class="polarlayer"/><g class="smithlayer"/><g class="ternarylayer"/><g class="geolayer"/><g class="funnelarealayer"/><g class="pielayer"/><g class="iciclelayer"/><g class="treemaplayer"/><g class="sunburstlayer"/><g class="glimages"/><g class="sankey" transform="translate(80,100)matrix(1 0 0 1 0 0)" style="box-sizing: content-box; position: absolute; left: 0px; shape-rendering: geometricprecision; pointer-events: none;"><g class="sankey-links" style="fill: none;"><path class="sankey-link" d="M15,680.2999999999995C570,680.2999999999995 570,518.9999999999997 1125,518.9999999999997L1125,522.8999999999997C570,522.8999999999997 570,684.1999999999996 15,684.1999999999996Z" style="stroke: rgb(68, 68, 68); stroke-opacity: 1; fill: rgb(25, 211, 243); fill-opacity: 0.6; stroke-width: 0; opacity: 1;"/><path class="sankey-link" d="M15,693.2999999999995C570,693.2999999999995 570,713.5 1125,713.5L1125,717.4000000000001C570,717.4000000000001 570,697.1999999999996 15,697.1999999999996Z" style="stroke: rgb(68, 68, 68); stroke-opacity: 1; fill: rgb(25, 211, 243); fill-opacity: 0.6; stroke-width: 0; opacity: 1;"/><path class="sankey-link" d="M15,672.4999999999995C570,672.4999999999995 570,438.99999999999966 1125,438.99999999999966L1125,446.7999999999996C570,446.7999999999996 570,680.2999999999995 15,680.2999999999995Z" style="stroke: rgb(68, 68, 68); stroke-opacity: 1; fill: rgb(25, 211, 243); fill-opacity: 0.6; stroke-width: 0; opacity: 1;"/><path class="sankey-link" d="M15,668.5999999999996C570,668.5999999999996 570,314.7999999999995 1125,314.7999999999995L1125,318.6999999999995C570,318.6999999999995 570,672.4999999999997 15,672.4999999999997Z" style="stroke: rgb(68, 68, 68); stroke-opacity: 1; fill: rgb(25, 211, 243); fill-opacity: 0.6; stroke-width: 0; opacity: 1;"/><path class="sankey-link" d="M15,664.6999999999996C570,664.6999999999996 570,197.09999999999943 1125,197.09999999999943L1125,200.9999999999994C570,200.9999999999994 570,668.5999999999997 15,668.5999999999997Z" style="stroke: rgb(68, 68, 68); stroke-opacity: 1; fill: rgb(25, 211, 243); fill-opacity: 0.6; stroke-width: 0; opacity: 1;"/><path class="sankey-link" d="M15,684.1999999999995C570,684.1999999999995 570,649.0999999999997 1125,649.0999999999997L1125,658.1999999999996C570,658.1999999999996 570,693.2999999999994 15,693.2999999999994Z" style="stroke: rgb(68, 68, 68); stroke-opacity: 1; fill: rgb(25, 211, 243); fill-opacity: 0.6; stroke-width: 0; opacity: 1;"/><path class="sankey-link" d="M15,262.70000000000005C570,262.70000000000005 570,483.89999999999975 1125,483.89999999999975L1125,494.2999999999997C570,494.2999999999997 570,273.1 15,273.1Z" style="stroke: rgb(68, 68, 68); stroke-opacity: 1; fill: rgb(239, 85, 59); fill-opacity: 0.6; stroke-width: 0; opacity: 1;"/><path class="sankey-link" d="M15,199.00000000000006C570,199.00000000000006 570,41.699999999999434 1125,41.699999999999434L1125,44.29999999999943C570,44.29999999999943 570,201.60000000000008 15,201.60000000000008Z" style="stroke: rgb(68, 68, 68); stroke-opacity: 1; fill: rgb(239, 85, 59); fill-opacity: 0.6; stroke-width: 0; opacity: 1;"/><path class="sankey-link" d="M15,273.1C570,273.1 570,539.1999999999997 1125,539.1999999999997L1125,544.3999999999997C570,544.3999999999997 570,278.30000000000007 15,278.30000000000007Z" style="stroke: rgb(68, 68, 68); stroke-opacity: 1; fill: rgb(239, 85, 59); fill-opacity: 0.6; stroke-width: 0; opacity: 1;"/><path class="sankey-link" d="M15,296.5C570,296.5 570,683.6 1125,683.6L1125,688.8000000000001C570,688.8000000000001 570,301.70000000000005 15,301.70000000000005Z" style="stroke: rgb(68, 68, 68); stroke-opacity: 1; fill: rgb(239, 85, 59); fill-opacity: 0.6; stroke-width: 0; opacity: 1;"/><path class="sankey-link" d="M15,245.80000000000004C570,245.80000000000004 570,372.69999999999965 1125,372.69999999999965L1125,389.5999999999996C570,389.5999999999996 570,262.70000000000005 15,262.70000000000005Z" style="stroke: rgb(68, 68, 68); stroke-opacity: 1; fill: rgb(239, 85, 59); fill-opacity: 0.6; stroke-width: 0; opacity: 1;"/><path class="sankey-link" d="M15,223.70000000000005C570,223.70000000000005 570,245.89999999999952 1125,245.89999999999952L1125,267.99999999999955C570,267.99999999999955 570,245.80000000000007 15,245.80000000000007Z" style="stroke: rgb(68, 68, 68); stroke-opacity: 1; fill: rgb(239, 85, 59); fill-opacity: 0.6; stroke-width: 0; opacity: 1;"/><path class="sankey-link" d="M15,201.60000000000005C570,201.60000000000005 570,116.49999999999943 1125,116.49999999999943L1125,138.59999999999943C570,138.59999999999943 570,223.70000000000007 15,223.70000000000007Z" style="stroke: rgb(68, 68, 68); stroke-opacity: 1; fill: rgb(239, 85, 59); fill-opacity: 0.6; stroke-width: 0; opacity: 1;"/><path class="sankey-link" d="M15,278.3C570,278.3 570,577.5999999999997 1125,577.5999999999997L1125,595.7999999999997C570,595.7999999999997 570,296.50000000000006 15,296.50000000000006Z" style="stroke: rgb(68, 68, 68); stroke-opacity: 1; fill: rgb(239, 85, 59); fill-opacity: 0.6; stroke-width: 0; opacity: 1;"/><path class="sankey-link" d="M15,573.5999999999997C570,573.5999999999997 570,508.59999999999974 1125,508.59999999999974L1125,515.0999999999997C570,515.0999999999997 570,580.0999999999997 15,580.0999999999997Z" style="stroke: rgb(68, 68, 68); stroke-opacity: 1; fill: rgb(0, 204, 150); fill-opacity: 0.6; stroke-width: 0; opacity: 1;"/><path class="sankey-link" d="M15,542.3999999999999C570,542.3999999999999 570,48.199999999999434 1125,48.199999999999434L1125,49.49999999999943C570,49.49999999999943 570,543.6999999999998 15,543.6999999999998Z" style="stroke: rgb(68, 68, 68); stroke-opacity: 1; fill: rgb(0, 204, 150); fill-opacity: 0.6; stroke-width: 0; opacity: 1;"/><path class="sankey-link" d="M15,580.0999999999997C570,580.0999999999997 570,549.5999999999998 1125,549.5999999999998L1125,553.4999999999999C570,553.4999999999999 570,583.9999999999998 15,583.9999999999998Z" style="stroke: rgb(68, 68, 68); stroke-opacity: 1; fill: rgb(0, 204, 150); fill-opacity: 0.6; stroke-width: 0; opacity: 1;"/><path class="sankey-link" d="M15,599.5999999999997C570,599.5999999999997 570,707 1125,707L1125,712.2C570,712.2 570,604.7999999999997 15,604.7999999999997Z" style="stroke: rgb(68, 68, 68); stroke-opacity: 1; fill: rgb(0, 204, 150); fill-opacity: 0.6; stroke-width: 0; opacity: 1;"/><path class="sankey-link" d="M15,559.2999999999997C570,559.2999999999997 570,418.19999999999965 1125,418.19999999999965L1125,432.4999999999996C570,432.4999999999996 570,573.5999999999997 15,573.5999999999997Z" style="stroke: rgb(68, 68, 68); stroke-opacity: 1; fill: rgb(0, 204, 150); fill-opacity: 0.6; stroke-width: 0; opacity: 1;"/><path class="sankey-link" d="M15,551.4999999999998C570,551.4999999999998 570,303.0999999999995 1125,303.0999999999995L1125,310.89999999999947C570,310.89999999999947 570,559.2999999999997 15,559.2999999999997Z" style="stroke: rgb(68, 68, 68); stroke-opacity: 1; fill: rgb(0, 204, 150); fill-opacity: 0.6; stroke-width: 0; opacity: 1;"/><path class="sankey-link" d="M15,543.6999999999998C570,543.6999999999998 570,184.09999999999943 1125,184.09999999999943L1125,191.89999999999944C570,191.89999999999944 570,551.4999999999998 15,551.4999999999998Z" style="stroke: rgb(68, 68, 68); stroke-opacity: 1; fill: rgb(0, 204, 150); fill-opacity: 0.6; stroke-width: 0; opacity: 1;"/><path class="sankey-link" d="M15,583.9999999999997C570,583.9999999999997 570,625.6999999999997 1125,625.6999999999997L1125,641.2999999999996C570,641.2999999999996 570,599.5999999999996 15,599.5999999999996Z" style="stroke: rgb(68, 68, 68); stroke-opacity: 1; fill: rgb(0, 204, 150); fill-opacity: 0.6; stroke-width: 0; opacity: 1;"/><path class="sankey-link" d="M15,28.599999999999774C570,28.599999999999774 570,461.7999999999997 1125,461.7999999999997L1125,464.39999999999975C570,464.39999999999975 570,31.199999999999775 15,31.199999999999775Z" style="stroke: rgb(68, 68, 68); stroke-opacity: 1; fill: rgb(254, 203, 82); fill-opacity: 0.6; stroke-width: 0; opacity: 1;"/><path class="sankey-link" d="M15,-2.2737367544323206e-13C570,-2.2737367544323206e-13 570,29.99999999999943 1125,29.99999999999943L1125,31.29999999999943C570,31.29999999999943 570,1.2999999999997727 15,1.2999999999997727Z" style="stroke: rgb(68, 68, 68); stroke-opacity: 1; fill: rgb(254, 203, 82); fill-opacity: 0.6; stroke-width: 0; opacity: 1;"/><path class="sankey-link" d="M15,22.099999999999774C570,22.099999999999774 570,334.99999999999966 1125,334.99999999999966L1125,341.49999999999966C570,341.49999999999966 570,28.599999999999774 15,28.599999999999774Z" style="stroke: rgb(68, 68, 68); stroke-opacity: 1; fill: rgb(254, 203, 82); fill-opacity: 0.6; stroke-width: 0; opacity: 1;"/><path class="sankey-link" d="M15,15.599999999999774C570,15.599999999999774 570,217.29999999999956 1125,217.29999999999956L1125,223.79999999999956C570,223.79999999999956 570,22.099999999999774 15,22.099999999999774Z" style="stroke: rgb(68, 68, 68); stroke-opacity: 1; fill: rgb(254, 203, 82); fill-opacity: 0.6; stroke-width: 0; opacity: 1;"/><path class="sankey-link" d="M15,1.2999999999997733C570,1.2999999999997733 570,64.49999999999943 1125,64.49999999999943L1125,78.79999999999944C570,78.79999999999944 570,15.599999999999774 15,15.599999999999774Z" style="stroke: rgb(68, 68, 68); stroke-opacity: 1; fill: rgb(254, 203, 82); fill-opacity: 0.6; stroke-width: 0; opacity: 1;"/><path class="sankey-link" d="M15,635.3999999999995C570,635.3999999999995 570,515.0999999999997 1125,515.0999999999997L1125,518.9999999999998C570,518.9999999999998 570,639.2999999999996 15,639.2999999999996Z" style="stroke: rgb(68, 68, 68); stroke-opacity: 1; fill: rgb(255, 161, 90); fill-opacity: 0.6; stroke-width: 0; opacity: 1;"/><path class="sankey-link" d="M15,639.2999999999995C570,639.2999999999995 570,553.4999999999998 1125,553.4999999999998L1125,554.7999999999997C570,554.7999999999997 570,640.5999999999995 15,640.5999999999995Z" style="stroke: rgb(68, 68, 68); stroke-opacity: 1; fill: rgb(255, 161, 90); fill-opacity: 0.6; stroke-width: 0; opacity: 1;"/><path class="sankey-link" d="M15,648.3999999999994C570,648.3999999999994 570,712.2 1125,712.2L1125,713.5C570,713.5 570,649.6999999999994 15,649.6999999999994Z" style="stroke: rgb(68, 68, 68); stroke-opacity: 1; fill: rgb(255, 161, 90); fill-opacity: 0.6; stroke-width: 0; opacity: 1;"/><path class="sankey-link" d="M15,628.8999999999995C570,628.8999999999995 570,432.49999999999966 1125,432.49999999999966L1125,438.99999999999966C570,438.99999999999966 570,635.3999999999995 15,635.3999999999995Z" style="stroke: rgb(68, 68, 68); stroke-opacity: 1; fill: rgb(255, 161, 90); fill-opacity: 0.6; stroke-width: 0; opacity: 1;"/><path class="sankey-link" d="M15,624.9999999999995C570,624.9999999999995 570,310.8999999999995 1125,310.8999999999995L1125,314.7999999999995C570,314.7999999999995 570,628.8999999999996 15,628.8999999999996Z" style="stroke: rgb(68, 68, 68); stroke-opacity: 1; fill: rgb(255, 161, 90); fill-opacity: 0.6; stroke-width: 0; opacity: 1;"/><path class="sankey-link" d="M15,619.7999999999995C570,619.7999999999995 570,191.89999999999944 1125,191.89999999999944L1125,197.09999999999943C570,197.09999999999943 570,624.9999999999995 15,624.9999999999995Z" style="stroke: rgb(68, 68, 68); stroke-opacity: 1; fill: rgb(255, 161, 90); fill-opacity: 0.6; stroke-width: 0; opacity: 1;"/><path class="sankey-link" d="M15,640.5999999999995C570,640.5999999999995 570,641.2999999999997 1125,641.2999999999997L1125,649.0999999999997C570,649.0999999999997 570,648.3999999999994 15,648.3999999999994Z" style="stroke: rgb(68, 68, 68); stroke-opacity: 1; fill: rgb(255, 161, 90); fill-opacity: 0.6; stroke-width: 0; opacity: 1;"/><path class="sankey-link" d="M15,376.5C570,376.5 570,494.2999999999997 1125,494.2999999999997L1125,500.7999999999997C570,500.7999999999997 570,383 15,383Z" style="stroke: rgb(68, 68, 68); stroke-opacity: 1; fill: rgb(171, 99, 250); fill-opacity: 0.6; stroke-width: 0; opacity: 1;"/><path class="sankey-link" d="M15,316.69999999999993C570,316.69999999999993 570,44.299999999999436 1125,44.299999999999436L1125,46.89999999999943C570,46.89999999999943 570,319.29999999999995 15,319.29999999999995Z" style="stroke: rgb(68, 68, 68); stroke-opacity: 1; fill: rgb(171, 99, 250); fill-opacity: 0.6; stroke-width: 0; opacity: 1;"/><path class="sankey-link" d="M15,383C570,383 570,544.3999999999997 1125,544.3999999999997L1125,549.5999999999998C570,549.5999999999998 570,388.20000000000005 15,388.20000000000005Z" style="stroke: rgb(68, 68, 68); stroke-opacity: 1; fill: rgb(171, 99, 250); fill-opacity: 0.6; stroke-width: 0; opacity: 1;"/><path class="sankey-link" d="M15,405.09999999999997C570,405.09999999999997 570,688.8000000000001 1125,688.8000000000001L1125,696.6C570,696.6 570,412.8999999999999 15,412.8999999999999Z" style="stroke: rgb(68, 68, 68); stroke-opacity: 1; fill: rgb(171, 99, 250); fill-opacity: 0.6; stroke-width: 0; opacity: 1;"/><path class="sankey-link" d="M15,360.9C570,360.9 570,389.5999999999996 1125,389.5999999999996L1125,405.19999999999965C570,405.19999999999965 570,376.5 15,376.5Z" style="stroke: rgb(68, 68, 68); stroke-opacity: 1; fill: rgb(171, 99, 250); fill-opacity: 0.6; stroke-width: 0; opacity: 1;"/><path class="sankey-link" d="M15,341.4C570,341.4 570,267.99999999999955 1125,267.99999999999955L1125,287.49999999999955C570,287.49999999999955 570,360.9 15,360.9Z" style="stroke: rgb(68, 68, 68); stroke-opacity: 1; fill: rgb(171, 99, 250); fill-opacity: 0.6; stroke-width: 0; opacity: 1;"/><path class="sankey-link" d="M15,319.29999999999995C570,319.29999999999995 570,138.59999999999943 1125,138.59999999999943L1125,160.69999999999945C570,160.69999999999945 570,341.4 15,341.4Z" style="stroke: rgb(68, 68, 68); stroke-opacity: 1; fill: rgb(171, 99, 250); fill-opacity: 0.6; stroke-width: 0; opacity: 1;"/><path class="sankey-link" d="M15,388.2C570,388.2 570,595.7999999999997 1125,595.7999999999997L1125,612.6999999999998C570,612.6999999999998 570,405.09999999999997 15,405.09999999999997Z" style="stroke: rgb(68, 68, 68); stroke-opacity: 1; fill: rgb(171, 99, 250); fill-opacity: 0.6; stroke-width: 0; opacity: 1;"/><path class="sankey-link" d="M15,147.59999999999985C570,147.59999999999985 570,464.39999999999975 1125,464.39999999999975L1125,483.89999999999975C570,483.89999999999975 570,167.09999999999985 15,167.09999999999985Z" style="stroke: rgb(68, 68, 68); stroke-opacity: 1; fill: rgb(99, 110, 250); fill-opacity: 0.6; stroke-width: 0; opacity: 1;"/><path class="sankey-link" d="M15,46.19999999999985C570,46.19999999999985 570,31.299999999999432 1125,31.299999999999432L1125,41.699999999999434C570,41.699999999999434 570,56.59999999999985 15,56.59999999999985Z" style="stroke: rgb(68, 68, 68); stroke-opacity: 1; fill: rgb(99, 110, 250); fill-opacity: 0.6; stroke-width: 0; opacity: 1;"/><path class="sankey-link" d="M15,167.09999999999985C570,167.09999999999985 570,537.8999999999997 1125,537.8999999999997L1125,539.1999999999997C570,539.1999999999997 570,168.39999999999986 15,168.39999999999986Z" style="stroke: rgb(68, 68, 68); stroke-opacity: 1; fill: rgb(99, 110, 250); fill-opacity: 0.6; stroke-width: 0; opacity: 1;"/><path class="sankey-link" d="M15,176.19999999999987C570,176.19999999999987 570,675.8000000000001 1125,675.8000000000001L1125,683.6C570,683.6 570,183.9999999999999 15,183.9999999999999Z" style="stroke: rgb(68, 68, 68); stroke-opacity: 1; fill: rgb(99, 110, 250); fill-opacity: 0.6; stroke-width: 0; opacity: 1;"/><path class="sankey-link" d="M15,116.39999999999984C570,116.39999999999984 570,341.49999999999966 1125,341.49999999999966L1125,372.6999999999997C570,372.6999999999997 570,147.59999999999982 15,147.59999999999982Z" style="stroke: rgb(68, 68, 68); stroke-opacity: 1; fill: rgb(99, 110, 250); fill-opacity: 0.6; stroke-width: 0; opacity: 1;"/><path class="sankey-link" d="M15,94.29999999999984C570,94.29999999999984 570,223.79999999999956 1125,223.79999999999956L1125,245.89999999999958C570,245.89999999999958 570,116.39999999999984 15,116.39999999999984Z" style="stroke: rgb(68, 68, 68); stroke-opacity: 1; fill: rgb(99, 110, 250); fill-opacity: 0.6; stroke-width: 0; opacity: 1;"/><path class="sankey-link" d="M15,56.599999999999845C570,56.599999999999845 570,78.79999999999944 1125,78.79999999999944L1125,116.49999999999943C570,116.49999999999943 570,94.29999999999984 15,94.29999999999984Z" style="stroke: rgb(68, 68, 68); stroke-opacity: 1; fill: rgb(99, 110, 250); fill-opacity: 0.6; stroke-width: 0; opacity: 1;"/><path class="sankey-link" d="M15,168.39999999999986C570,168.39999999999986 570,569.7999999999997 1125,569.7999999999997L1125,577.5999999999997C570,577.5999999999997 570,176.19999999999987 15,176.19999999999987Z" style="stroke: rgb(68, 68, 68); stroke-opacity: 1; fill: rgb(99, 110, 250); fill-opacity: 0.6; stroke-width: 0; opacity: 1;"/><path class="sankey-link" d="M15,460.3999999999998C570,460.3999999999998 570,500.7999999999997 1125,500.7999999999997L1125,507.2999999999997C570,507.2999999999997 570,466.8999999999998 15,466.8999999999998Z" style="stroke: rgb(68, 68, 68); stroke-opacity: 1; fill: rgb(255, 151, 255); fill-opacity: 0.6; stroke-width: 0; opacity: 1;"/><path class="sankey-link" d="M15,427.8999999999998C570,427.8999999999998 570,46.89999999999944 1125,46.89999999999944L1125,48.199999999999434C570,48.199999999999434 570,429.19999999999976 15,429.19999999999976Z" style="stroke: rgb(68, 68, 68); stroke-opacity: 1; fill: rgb(255, 151, 255); fill-opacity: 0.6; stroke-width: 0; opacity: 1;"/><path class="sankey-link" d="M15,473.3999999999998C570,473.3999999999998 570,696.6 1125,696.6L1125,703.1C570,703.1 570,479.8999999999998 15,479.8999999999998Z" style="stroke: rgb(68, 68, 68); stroke-opacity: 1; fill: rgb(255, 151, 255); fill-opacity: 0.6; stroke-width: 0; opacity: 1;"/><path class="sankey-link" d="M15,456.49999999999983C570,456.49999999999983 570,405.19999999999965 1125,405.19999999999965L1125,409.0999999999996C570,409.0999999999996 570,460.3999999999998 15,460.3999999999998Z" style="stroke: rgb(68, 68, 68); stroke-opacity: 1; fill: rgb(255, 151, 255); fill-opacity: 0.6; stroke-width: 0; opacity: 1;"/><path class="sankey-link" d="M15,444.79999999999984C570,444.79999999999984 570,287.49999999999955 1125,287.49999999999955L1125,299.1999999999996C570,299.1999999999996 570,456.4999999999999 15,456.4999999999999Z" style="stroke: rgb(68, 68, 68); stroke-opacity: 1; fill: rgb(255, 151, 255); fill-opacity: 0.6; stroke-width: 0; opacity: 1;"/><path class="sankey-link" d="M15,429.1999999999998C570,429.1999999999998 570,160.69999999999942 1125,160.69999999999942L1125,176.29999999999944C570,176.29999999999944 570,444.79999999999984 15,444.79999999999984Z" style="stroke: rgb(68, 68, 68); stroke-opacity: 1; fill: rgb(255, 151, 255); fill-opacity: 0.6; stroke-width: 0; opacity: 1;"/><path class="sankey-link" d="M15,466.8999999999998C570,466.8999999999998 570,612.6999999999997 1125,612.6999999999997L1125,619.1999999999997C570,619.1999999999997 570,473.3999999999998 15,473.3999999999998Z" style="stroke: rgb(68, 68, 68); stroke-opacity: 1; fill: rgb(255, 151, 255); fill-opacity: 0.6; stroke-width: 0; opacity: 1;"/><path class="sankey-link" d="M15,515.6999999999998C570,515.6999999999998 570,507.2999999999997 1125,507.2999999999997L1125,508.5999999999997C570,508.5999999999997 570,516.9999999999998 15,516.9999999999998Z" style="stroke: rgb(68, 68, 68); stroke-opacity: 1; fill: rgb(255, 102, 146); fill-opacity: 0.6; stroke-width: 0; opacity: 1;"/><path class="sankey-link" d="M15,523.4999999999998C570,523.4999999999998 570,703.1 1125,703.1L1125,707.0000000000001C570,707.0000000000001 570,527.3999999999999 15,527.3999999999999Z" style="stroke: rgb(68, 68, 68); stroke-opacity: 1; fill: rgb(255, 102, 146); fill-opacity: 0.6; stroke-width: 0; opacity: 1;"/><path class="sankey-link" d="M15,506.5999999999998C570,506.5999999999998 570,409.0999999999996 1125,409.0999999999996L1125,418.19999999999965C570,418.19999999999965 570,515.6999999999998 15,515.6999999999998Z" style="stroke: rgb(68, 68, 68); stroke-opacity: 1; fill: rgb(255, 102, 146); fill-opacity: 0.6; stroke-width: 0; opacity: 1;"/><path class="sankey-link" d="M15,502.6999999999998C570,502.6999999999998 570,299.19999999999953 1125,299.19999999999953L1125,303.0999999999995C570,303.0999999999995 570,506.5999999999998 15,506.5999999999998Z" style="stroke: rgb(68, 68, 68); stroke-opacity: 1; fill: rgb(255, 102, 146); fill-opacity: 0.6; stroke-width: 0; opacity: 1;"/><path class="sankey-link" d="M15,494.8999999999998C570,494.8999999999998 570,176.29999999999941 1125,176.29999999999941L1125,184.09999999999943C570,184.09999999999943 570,502.69999999999976 15,502.69999999999976Z" style="stroke: rgb(68, 68, 68); stroke-opacity: 1; fill: rgb(255, 102, 146); fill-opacity: 0.6; stroke-width: 0; opacity: 1;"/><path class="sankey-link" d="M15,516.9999999999998C570,516.9999999999998 570,619.1999999999997 1125,619.1999999999997L1125,625.6999999999997C570,625.6999999999997 570,523.4999999999998 15,523.4999999999998Z" style="stroke: rgb(68, 68, 68); stroke-opacity: 1; fill: rgb(255, 102, 146); fill-opacity: 0.6; stroke-width: 0; opacity: 1;"/><path class="sankey-link" d="M15,717.3999999999997C570,717.3999999999997 570,717.4 1125,717.4L1125,719.9999999999999C570,719.9999999999999 570,719.9999999999997 15,719.9999999999997Z" style="stroke: rgb(68, 68, 68); stroke-opacity: 1; fill: rgb(182, 232, 128); fill-opacity: 0.6; stroke-width: 0; opacity: 1;"/><path class="sankey-link" d="M15,713.4999999999998C570,713.4999999999998 570,318.6999999999995 1125,318.6999999999995L1125,319.99999999999943C570,319.99999999999943 570,714.7999999999997 15,714.7999999999997Z" style="stroke: rgb(68, 68, 68); stroke-opacity: 1; fill: rgb(182, 232, 128); fill-opacity: 0.6; stroke-width: 0; opacity: 1;"/><path class="sankey-link" d="M15,712.1999999999998C570,712.1999999999998 570,200.99999999999943 1125,200.99999999999943L1125,202.29999999999944C570,202.29999999999944 570,713.4999999999998 15,713.4999999999998Z" style="stroke: rgb(68, 68, 68); stroke-opacity: 1; fill: rgb(182, 232, 128); fill-opacity: 0.6; stroke-width: 0; opacity: 1;"/><path class="sankey-link" d="M15,714.7999999999997C570,714.7999999999997 570,658.1999999999997 1125,658.1999999999997L1125,660.7999999999996C570,660.7999999999996 570,717.3999999999996 15,717.3999999999996Z" style="stroke: rgb(68, 68, 68); stroke-opacity: 1; fill: rgb(182, 232, 128); fill-opacity: 0.6; stroke-width: 0; opacity: 1;"/></g><g class="sankey-node-set" style="cursor: move;"><g class="sankey-node" transform="translate(1125.000,461.800)" style="opacity: 1;"><rect class="node-rect" width="15" height="61.10000000000002" style="stroke-width: 0.5; stroke: rgb(0, 0, 0); stroke-opacity: 1; fill: rgb(128, 128, 128); fill-opacity: 1;"/><text class="node-label" data-notex="1" x="0" y="0" text-anchor="end" transform="translate(-3.25,34.750000000000014)" style="cursor: default; font-family: 'Open Sans', verdana, arial, sans-serif; font-size: 12px; fill: rgb(42, 63, 95); fill-opacity: 1; white-space: pre; text-shadow: white 1px 1px 1px, white -1px -1px 1px, white 1px -1px 1px, white -1px 1px 1px;">attacking</text></g><g class="sankey-node" transform="translate(1125.000,537.900)" style="opacity: 1;"><rect class="node-rect" width="15" height="16.899999999999977" style="stroke-width: 0.5; stroke: rgb(0, 0, 0); stroke-opacity: 1; fill: rgb(128, 128, 128); fill-opacity: 1;"/><text class="node-label" data-notex="1" x="0" y="0" text-anchor="end" transform="translate(-3.25,12.649999999999988)" style="cursor: default; font-family: 'Open Sans', verdana, arial, sans-serif; font-size: 12px; fill: rgb(42, 63, 95); fill-opacity: 1; white-space: pre; text-shadow: white 1px 1px 1px, white -1px -1px 1px, white 1px -1px 1px, white -1px 1px 1px;">dig</text></g><g class="sankey-node" transform="translate(1125.000,675.800)" style="opacity: 1;"><rect class="node-rect" width="15" height="44.19999999999993" style="stroke-width: 0.5; stroke: rgb(0, 0, 0); stroke-opacity: 1; fill: rgb(128, 128, 128); fill-opacity: 1;"/><text class="node-label" data-notex="1" x="0" y="0" text-anchor="end" transform="translate(-3.25,26.299999999999965)" style="cursor: default; font-family: 'Open Sans', verdana, arial, sans-serif; font-size: 12px; fill: rgb(42, 63, 95); fill-opacity: 1; white-space: pre; text-shadow: white 1px 1px 1px, white -1px -1px 1px, white 1px -1px 1px, white -1px 1px 1px;">groom</text></g><g class="sankey-node" transform="translate(1125.000,335.000)" style="opacity: 1;"><rect class="node-rect" width="15" height="111.80000000000007" style="stroke-width: 0.5; stroke: rgb(0, 0, 0); stroke-opacity: 1; fill: rgb(128, 128, 128); fill-opacity: 1;"/><text class="node-label" data-notex="1" x="0" y="0" text-anchor="end" transform="translate(-3.25,60.10000000000004)" style="cursor: default; font-family: 'Open Sans', verdana, arial, sans-serif; font-size: 12px; fill: rgb(42, 63, 95); fill-opacity: 1; white-space: pre; text-shadow: white 1px 1px 1px, white -1px -1px 1px, white 1px -1px 1px, white -1px 1px 1px;">move</text></g><g class="sankey-node" transform="translate(1125.000,217.300)" style="opacity: 1;"><rect class="node-rect" width="15" height="102.7000000000001" style="stroke-width: 0.5; stroke: rgb(0, 0, 0); stroke-opacity: 1; fill: rgb(128, 128, 128); fill-opacity: 1;"/><text class="node-label" data-notex="1" x="0" y="0" text-anchor="end" transform="translate(-3.25,55.550000000000054)" style="cursor: default; font-family: 'Open Sans', verdana, arial, sans-serif; font-size: 12px; fill: rgb(42, 63, 95); fill-opacity: 1; white-space: pre; text-shadow: white 1px 1px 1px, white -1px -1px 1px, white 1px -1px 1px, white -1px 1px 1px;">sniff</text></g><g class="sankey-node" transform="translate(1125.000,64.500)" style="opacity: 1;"><rect class="node-rect" width="15" height="137.80000000000013" style="stroke-width: 0.5; stroke: rgb(0, 0, 0); stroke-opacity: 1; fill: rgb(128, 128, 128); fill-opacity: 1;"/><text class="node-label" data-notex="1" x="0" y="0" text-anchor="end" transform="translate(-3.25,73.10000000000007)" style="cursor: default; font-family: 'Open Sans', verdana, arial, sans-serif; font-size: 12px; fill: rgb(42, 63, 95); fill-opacity: 1; white-space: pre; text-shadow: white 1px 1px 1px, white -1px -1px 1px, white 1px -1px 1px, white -1px 1px 1px;">social</text></g><g class="sankey-node" transform="translate(1125.000,569.800)" style="opacity: 1;"><rect class="node-rect" width="15" height="91.00000000000034" style="stroke-width: 0.5; stroke: rgb(0, 0, 0); stroke-opacity: 1; fill: rgb(128, 128, 128); fill-opacity: 1;"/><text class="node-label" data-notex="1" x="0" y="0" text-anchor="end" transform="translate(-3.25,49.70000000000017)" style="cursor: default; font-family: 'Open Sans', verdana, arial, sans-serif; font-size: 12px; fill: rgb(42, 63, 95); fill-opacity: 1; white-space: pre; text-shadow: white 1px 1px 1px, white -1px -1px 1px, white 1px -1px 1px, white -1px 1px 1px;">still</text></g><g class="sankey-node" transform="translate(1125.000,30.000)" style="opacity: 1;"><rect class="node-rect" width="15" height="19.5" style="stroke-width: 0.5; stroke: rgb(0, 0, 0); stroke-opacity: 1; fill: rgb(128, 128, 128); fill-opacity: 1;"/><text class="node-label" data-notex="1" x="0" y="0" text-anchor="end" transform="translate(-3.25,13.95)" style="cursor: default; font-family: 'Open Sans', verdana, arial, sans-serif; font-size: 12px; fill: rgb(42, 63, 95); fill-opacity: 1; white-space: pre; text-shadow: white 1px 1px 1px, white -1px -1px 1px, white 1px -1px 1px, white -1px 1px 1px;">being_attack</text></g><g class="sankey-node" transform="translate(0.000,46.200)" style="opacity: 1;"><rect class="node-rect" width="15" height="137.8000000000002" style="stroke-width: 0.5; stroke: rgb(0, 0, 0); stroke-opacity: 1; fill: rgb(99, 110, 250); fill-opacity: 1;"/><text class="node-label" data-notex="1" x="0" y="0" text-anchor="start" transform="translate(18.25,73.10000000000011)" style="cursor: default; font-family: 'Open Sans', verdana, arial, sans-serif; font-size: 12px; fill: rgb(42, 63, 95); fill-opacity: 1; white-space: pre; text-shadow: white 1px 1px 1px, white -1px -1px 1px, white 1px -1px 1px, white -1px 1px 1px;">VTA</text></g><g class="sankey-node" transform="translate(0.000,199.000)" style="opacity: 1;"><rect class="node-rect" width="15" height="102.69999999999987" style="stroke-width: 0.5; stroke: rgb(0, 0, 0); stroke-opacity: 1; fill: rgb(239, 85, 59); fill-opacity: 1;"/><text class="node-label" data-notex="1" x="0" y="0" text-anchor="start" transform="translate(18.25,55.54999999999994)" style="cursor: default; font-family: 'Open Sans', verdana, arial, sans-serif; font-size: 12px; fill: rgb(42, 63, 95); fill-opacity: 1; white-space: pre; text-shadow: white 1px 1px 1px, white -1px -1px 1px, white 1px -1px 1px, white -1px 1px 1px;">Cla</text></g><g class="sankey-node" transform="translate(0.000,542.400)" style="opacity: 1;"><rect class="node-rect" width="15" height="62.399999999999636" style="stroke-width: 0.5; stroke: rgb(0, 0, 0); stroke-opacity: 1; fill: rgb(0, 204, 150); fill-opacity: 1;"/><text class="node-label" data-notex="1" x="0" y="0" text-anchor="start" transform="translate(18.25,35.39999999999982)" style="cursor: default; font-family: 'Open Sans', verdana, arial, sans-serif; font-size: 12px; fill: rgb(42, 63, 95); fill-opacity: 1; white-space: pre; text-shadow: white 1px 1px 1px, white -1px -1px 1px, white 1px -1px 1px, white -1px 1px 1px;">LC</text></g><g class="sankey-node" transform="translate(0.000,316.700)" style="opacity: 1;"><rect class="node-rect" width="15" height="96.19999999999987" style="stroke-width: 0.5; stroke: rgb(0, 0, 0); stroke-opacity: 1; fill: rgb(171, 99, 250); fill-opacity: 1;"/><text class="node-label" data-notex="1" x="0" y="0" text-anchor="start" transform="translate(18.25,52.29999999999994)" style="cursor: default; font-family: 'Open Sans', verdana, arial, sans-serif; font-size: 12px; fill: rgb(42, 63, 95); fill-opacity: 1; white-space: pre; text-shadow: white 1px 1px 1px, white -1px -1px 1px, white 1px -1px 1px, white -1px 1px 1px;">Str</text></g><g class="sankey-node" transform="translate(0.000,619.800)" style="opacity: 1;"><rect class="node-rect" width="15" height="29.90000000000009" style="stroke-width: 0.5; stroke: rgb(0, 0, 0); stroke-opacity: 1; fill: rgb(255, 161, 90); fill-opacity: 1;"/><text class="node-label" data-notex="1" x="0" y="0" text-anchor="start" transform="translate(18.25,19.150000000000045)" style="cursor: default; font-family: 'Open Sans', verdana, arial, sans-serif; font-size: 12px; fill: rgb(42, 63, 95); fill-opacity: 1; white-space: pre; text-shadow: white 1px 1px 1px, white -1px -1px 1px, white 1px -1px 1px, white -1px 1px 1px;">NAc</text></g><g class="sankey-node" transform="translate(0.000,664.700)" style="opacity: 1;"><rect class="node-rect" width="15" height="32.50000000000023" style="stroke-width: 0.5; stroke: rgb(0, 0, 0); stroke-opacity: 1; fill: rgb(25, 211, 243); fill-opacity: 1;"/><text class="node-label" data-notex="1" x="0" y="0" text-anchor="start" transform="translate(18.25,20.450000000000113)" style="cursor: default; font-family: 'Open Sans', verdana, arial, sans-serif; font-size: 12px; fill: rgb(42, 63, 95); fill-opacity: 1; white-space: pre; text-shadow: white 1px 1px 1px, white -1px -1px 1px, white 1px -1px 1px, white -1px 1px 1px;">BLA</text></g><g class="sankey-node" transform="translate(0.000,494.900)" style="opacity: 1;"><rect class="node-rect" width="15" height="32.50000000000006" style="stroke-width: 0.5; stroke: rgb(0, 0, 0); stroke-opacity: 1; fill: rgb(255, 102, 146); fill-opacity: 1;"/><text class="node-label" data-notex="1" x="0" y="0" text-anchor="start" transform="translate(18.25,20.450000000000028)" style="cursor: default; font-family: 'Open Sans', verdana, arial, sans-serif; font-size: 12px; fill: rgb(42, 63, 95); fill-opacity: 1; white-space: pre; text-shadow: white 1px 1px 1px, white -1px -1px 1px, white 1px -1px 1px, white -1px 1px 1px;">dPAG</text></g><g class="sankey-node" transform="translate(0.000,712.200)" style="opacity: 1;"><rect class="node-rect" width="15" height="7.800000000000182" style="stroke-width: 0.5; stroke: rgb(0, 0, 0); stroke-opacity: 1; fill: rgb(182, 232, 128); fill-opacity: 1;"/><text class="node-label" data-notex="1" x="0" y="0" text-anchor="start" transform="translate(18.25,8.10000000000009)" style="cursor: default; font-family: 'Open Sans', verdana, arial, sans-serif; font-size: 12px; fill: rgb(42, 63, 95); fill-opacity: 1; white-space: pre; text-shadow: white 1px 1px 1px, white -1px -1px 1px, white 1px -1px 1px, white -1px 1px 1px;">lHb</text></g><g class="sankey-node" transform="translate(0.000,427.900)" style="opacity: 1;"><rect class="node-rect" width="15" height="52" style="stroke-width: 0.5; stroke: rgb(0, 0, 0); stroke-opacity: 1; fill: rgb(255, 151, 255); fill-opacity: 1;"/><text class="node-label" data-notex="1" x="0" y="0" text-anchor="start" transform="translate(18.25,30.2)" style="cursor: default; font-family: 'Open Sans', verdana, arial, sans-serif; font-size: 12px; fill: rgb(42, 63, 95); fill-opacity: 1; white-space: pre; text-shadow: white 1px 1px 1px, white -1px -1px 1px, white 1px -1px 1px, white -1px 1px 1px;">cPFC</text></g><g class="sankey-node" transform="translate(0.000,-0.000)" style="opacity: 1;"><rect class="node-rect" width="15" height="31.200000000000074" style="stroke-width: 0.5; stroke: rgb(0, 0, 0); stroke-opacity: 1; fill: rgb(254, 203, 82); fill-opacity: 1;"/><text class="node-label" data-notex="1" x="0" y="0" text-anchor="start" transform="translate(18.25,19.800000000000036)" style="cursor: default; font-family: 'Open Sans', verdana, arial, sans-serif; font-size: 12px; fill: rgb(42, 63, 95); fill-opacity: 1; white-space: pre; text-shadow: white 1px 1px 1px, white -1px -1px 1px, white 1px -1px 1px, white -1px 1px 1px;">LHyp</text></g></g></g><defs id="topdefs-3be311"><g class="clips"/></defs><g class="layer-above"><g class="imagelayer"/><g class="shapelayer"/></g><g class="infolayer"><g class="g-gtitle"/><g class="first-render"/></g></svg>