<svg class="main-svg" xmlns="http://www.w3.org/2000/svg" xmlns:xlink="http://www.w3.org/1999/xlink" width="1300" height="900" style="" viewBox="0 0 1300 900"><rect x="0" y="0" width="1300" height="900" style="fill: rgb(255, 255, 255); fill-opacity: 1;"/><defs id="defs-915b59"><g class="clips"/><g class="gradients"/><g class="patterns"/></defs><g class="bglayer"/><g class="layer-below"><g class="imagelayer"/><g class="shapelayer"/></g><g class="cartesianlayer"/><g class="polarlayer"/><g class="smithlayer"/><g class="ternarylayer"/><g class="geolayer"/><g class="funnelarealayer"/><g class="pielayer"/><g class="iciclelayer"/><g class="treemaplayer"/><g class="sunburstlayer"/><g class="glimages"/><g class="sankey" transform="translate(80,100)matrix(1 0 0 1 0 0)" style="box-sizing: content-box; position: absolute; left: 0px; shape-rendering: geometricprecision; pointer-events: none;"><g class="sankey-links" style="fill: none;"><path class="sankey-link" d="M383.70000000000005,13.564285714285809C564.3000000000001,13.564285714285809 564.3000000000001,14.615546218487388 744.9000000000001,14.615546218487388L744.9000000000001,15.844537815126046C564.3000000000001,15.844537815126046 564.3000000000001,14.793277310924466 383.70000000000005,14.793277310924466Z" style="stroke: rgb(68, 68, 68); stroke-opacity: 1; fill: rgb(25, 211, 243); fill-opacity: 0.6; stroke-width: 0; opacity: 1;"/><path class="sankey-link" d="M383.70000000000005,14.793277310924466C564.3000000000001,14.793277310924466 564.3000000000001,121.45462184873955 744.9000000000001,121.45462184873955L744.9000000000001,125.14159663865553C564.3000000000001,125.14159663865553 564.3000000000001,18.48025210084043 383.70000000000005,18.48025210084043Z" style="stroke: rgb(68, 68, 68); stroke-opacity: 1; fill: rgb(25, 211, 243); fill-opacity: 0.6; stroke-width: 0; opacity: 1;"/><path class="sankey-link" d="M383.70000000000005,18.48025210084043C564.3000000000001,18.48025210084043 564.3000000000001,160.82584033613446 744.9000000000001,160.82584033613446L744.9000000000001,168.19978991596642C564.3000000000001,168.19978991596642 564.3000000000001,25.85420168067236 383.70000000000005,25.85420168067236Z" style="stroke: rgb(68, 68, 68); stroke-opacity: 1; fill: rgb(25, 211, 243); fill-opacity: 0.6; stroke-width: 0; opacity: 1;"/><path class="sankey-link" d="M383.70000000000005,25.854201680672364C564.3000000000001,25.854201680672364 564.3000000000001,236.5014705882353 744.9000000000001,236.5014705882353L744.9000000000001,246.33340336134455C564.3000000000001,246.33340336134455 564.3000000000001,35.686134453781605 383.70000000000005,35.686134453781605Z" style="stroke: rgb(68, 68, 68); stroke-opacity: 1; fill: rgb(25, 211, 243); fill-opacity: 0.6; stroke-width: 0; opacity: 1;"/><path class="sankey-link" d="M383.70000000000005,35.686134453781605C564.3000000000001,35.686134453781605 564.3000000000001,420.49852941176476 744.9000000000001,420.49852941176476L744.9000000000001,427.87247899159667C564.3000000000001,427.87247899159667 564.3000000000001,43.060084033613535 383.70000000000005,43.060084033613535Z" style="stroke: rgb(68, 68, 68); stroke-opacity: 1; fill: rgb(25, 211, 243); fill-opacity: 0.6; stroke-width: 0; opacity: 1;"/><path class="sankey-link" d="M383.70000000000005,43.060084033613535C564.3000000000001,43.060084033613535 564.3000000000001,532.8056722689078 744.9000000000001,532.8056722689078L744.9000000000001,537.7216386554624C564.3000000000001,537.7216386554624 564.3000000000001,47.976050420168164 383.70000000000005,47.976050420168164Z" style="stroke: rgb(68, 68, 68); stroke-opacity: 1; fill: rgb(25, 211, 243); fill-opacity: 0.6; stroke-width: 0; opacity: 1;"/><path class="sankey-link" d="M383.70000000000005,47.97605042016816C564.3000000000001,47.97605042016816 564.3000000000001,627.8161764705883 744.9000000000001,627.8161764705883L744.9000000000001,635.1901260504203C564.3000000000001,635.1901260504203 564.3000000000001,55.35000000000009 383.70000000000005,55.35000000000009Z" style="stroke: rgb(68, 68, 68); stroke-opacity: 1; fill: rgb(25, 211, 243); fill-opacity: 0.6; stroke-width: 0; opacity: 1;"/><path class="sankey-link" d="M383.70000000000005,67.09537815126058C564.3000000000001,67.09537815126058 564.3000000000001,15.844537815126046 744.9000000000001,15.844537815126046L744.9000000000001,25.67647058823529C564.3000000000001,25.67647058823529 564.3000000000001,76.92731092436983 383.70000000000005,76.92731092436983Z" style="stroke: rgb(68, 68, 68); stroke-opacity: 1; fill: rgb(0, 204, 150); fill-opacity: 0.6; stroke-width: 0; opacity: 1;"/><path class="sankey-link" d="M383.70000000000005,76.92731092436983C564.3000000000001,76.92731092436983 564.3000000000001,76.07457983193282 744.9000000000001,76.07457983193282L744.9000000000001,80.99054621848745C564.3000000000001,80.99054621848745 564.3000000000001,81.84327731092446 383.70000000000005,81.84327731092446Z" style="stroke: rgb(68, 68, 68); stroke-opacity: 1; fill: rgb(0, 204, 150); fill-opacity: 0.6; stroke-width: 0; opacity: 1;"/><path class="sankey-link" d="M383.70000000000005,81.84327731092446C564.3000000000001,81.84327731092446 564.3000000000001,125.14159663865551 744.9000000000001,125.14159663865551L744.9000000000001,128.82857142857148C564.3000000000001,128.82857142857148 564.3000000000001,85.53025210084044 383.70000000000005,85.53025210084044Z" style="stroke: rgb(68, 68, 68); stroke-opacity: 1; fill: rgb(0, 204, 150); fill-opacity: 0.6; stroke-width: 0; opacity: 1;"/><path class="sankey-link" d="M383.70000000000005,85.53025210084043C564.3000000000001,85.53025210084043 564.3000000000001,168.1997899159664 744.9000000000001,168.1997899159664L744.9000000000001,180.48970588235295C564.3000000000001,180.48970588235295 564.3000000000001,97.82016806722699 383.70000000000005,97.82016806722699Z" style="stroke: rgb(68, 68, 68); stroke-opacity: 1; fill: rgb(0, 204, 150); fill-opacity: 0.6; stroke-width: 0; opacity: 1;"/><path class="sankey-link" d="M383.70000000000005,97.82016806722697C564.3000000000001,97.82016806722697 564.3000000000001,246.33340336134452 744.9000000000001,246.33340336134452L744.9000000000001,269.68424369747896C564.3000000000001,269.68424369747896 564.3000000000001,121.17100840336144 383.70000000000005,121.17100840336144Z" style="stroke: rgb(68, 68, 68); stroke-opacity: 1; fill: rgb(0, 204, 150); fill-opacity: 0.6; stroke-width: 0; opacity: 1;"/><path class="sankey-link" d="M383.70000000000005,121.17100840336144C564.3000000000001,121.17100840336144 564.3000000000001,427.8724789915967 744.9000000000001,427.8724789915967L744.9000000000001,437.7044117647059C564.3000000000001,437.7044117647059 564.3000000000001,131.0029411764707 383.70000000000005,131.0029411764707Z" style="stroke: rgb(68, 68, 68); stroke-opacity: 1; fill: rgb(0, 204, 150); fill-opacity: 0.6; stroke-width: 0; opacity: 1;"/><path class="sankey-link" d="M383.70000000000005,131.0029411764707C564.3000000000001,131.0029411764707 564.3000000000001,537.7216386554624 744.9000000000001,537.7216386554624L744.9000000000001,552.4695378151262C564.3000000000001,552.4695378151262 564.3000000000001,145.75084033613456 383.70000000000005,145.75084033613456Z" style="stroke: rgb(68, 68, 68); stroke-opacity: 1; fill: rgb(0, 204, 150); fill-opacity: 0.6; stroke-width: 0; opacity: 1;"/><path class="sankey-link" d="M383.70000000000005,145.75084033613456C564.3000000000001,145.75084033613456 564.3000000000001,635.1901260504202 744.9000000000001,635.1901260504202L744.9000000000001,647.4800420168068C564.3000000000001,647.4800420168068 564.3000000000001,158.04075630252112 383.70000000000005,158.04075630252112Z" style="stroke: rgb(68, 68, 68); stroke-opacity: 1; fill: rgb(0, 204, 150); fill-opacity: 0.6; stroke-width: 0; opacity: 1;"/><path class="sankey-link" d="M383.70000000000005,168.87668067226903C564.3000000000001,168.87668067226903 564.3000000000001,25.67647058823529 744.9000000000001,25.67647058823529L744.9000000000001,31.82142857142857C564.3000000000001,31.82142857142857 564.3000000000001,175.02163865546228 383.70000000000005,175.02163865546228Z" style="stroke: rgb(68, 68, 68); stroke-opacity: 1; fill: rgb(239, 85, 59); fill-opacity: 0.6; stroke-width: 0; opacity: 1;"/><path class="sankey-link" d="M383.70000000000005,175.0216386554623C564.3000000000001,175.0216386554623 564.3000000000001,80.99054621848745 744.9000000000001,80.99054621848745L744.9000000000001,82.2195378151261C564.3000000000001,82.2195378151261 564.3000000000001,176.25063025210096 383.70000000000005,176.25063025210096Z" style="stroke: rgb(68, 68, 68); stroke-opacity: 1; fill: rgb(239, 85, 59); fill-opacity: 0.6; stroke-width: 0; opacity: 1;"/><path class="sankey-link" d="M383.70000000000005,176.25063025210096C564.3000000000001,176.25063025210096 564.3000000000001,128.82857142857148 744.9000000000001,128.82857142857148L744.9000000000001,136.20252100840344C564.3000000000001,136.20252100840344 564.3000000000001,183.62457983193292 383.70000000000005,183.62457983193292Z" style="stroke: rgb(68, 68, 68); stroke-opacity: 1; fill: rgb(239, 85, 59); fill-opacity: 0.6; stroke-width: 0; opacity: 1;"/><path class="sankey-link" d="M383.70000000000005,183.6245798319329C564.3000000000001,183.6245798319329 564.3000000000001,180.48970588235295 744.9000000000001,180.48970588235295L744.9000000000001,195.2376050420168C564.3000000000001,195.2376050420168 564.3000000000001,198.37247899159675 383.70000000000005,198.37247899159675Z" style="stroke: rgb(68, 68, 68); stroke-opacity: 1; fill: rgb(239, 85, 59); fill-opacity: 0.6; stroke-width: 0; opacity: 1;"/><path class="sankey-link" d="M383.70000000000005,198.37247899159675C564.3000000000001,198.37247899159675 564.3000000000001,269.684243697479 744.9000000000001,269.684243697479L744.9000000000001,293.03508403361343C564.3000000000001,293.03508403361343 564.3000000000001,221.72331932773122 383.70000000000005,221.72331932773122Z" style="stroke: rgb(68, 68, 68); stroke-opacity: 1; fill: rgb(239, 85, 59); fill-opacity: 0.6; stroke-width: 0; opacity: 1;"/><path class="sankey-link" d="M383.70000000000005,221.7233193277312C564.3000000000001,221.7233193277312 564.3000000000001,437.704411764706 744.9000000000001,437.704411764706L744.9000000000001,448.7653361344539C564.3000000000001,448.7653361344539 564.3000000000001,232.7842436974791 383.70000000000005,232.7842436974791Z" style="stroke: rgb(68, 68, 68); stroke-opacity: 1; fill: rgb(239, 85, 59); fill-opacity: 0.6; stroke-width: 0; opacity: 1;"/><path class="sankey-link" d="M383.70000000000005,232.7842436974791C564.3000000000001,232.7842436974791 564.3000000000001,552.4695378151263 744.9000000000001,552.4695378151263L744.9000000000001,563.5304621848742C564.3000000000001,563.5304621848742 564.3000000000001,243.845168067227 383.70000000000005,243.845168067227Z" style="stroke: rgb(68, 68, 68); stroke-opacity: 1; fill: rgb(239, 85, 59); fill-opacity: 0.6; stroke-width: 0; opacity: 1;"/><path class="sankey-link" d="M383.70000000000005,243.845168067227C564.3000000000001,243.845168067227 564.3000000000001,647.4800420168067 744.9000000000001,647.4800420168067L744.9000000000001,659.7699579831933C564.3000000000001,659.7699579831933 564.3000000000001,256.13508403361357 383.70000000000005,256.13508403361357Z" style="stroke: rgb(68, 68, 68); stroke-opacity: 1; fill: rgb(239, 85, 59); fill-opacity: 0.6; stroke-width: 0; opacity: 1;"/><path class="sankey-link" d="M383.70000000000005,268.3966386554622C564.3000000000001,268.3966386554622 564.3000000000001,31.82142857142857 744.9000000000001,31.82142857142857L744.9000000000001,34.279411764705884C564.3000000000001,34.279411764705884 564.3000000000001,270.8546218487395 383.70000000000005,270.8546218487395Z" style="stroke: rgb(68, 68, 68); stroke-opacity: 1; fill: rgb(254, 203, 82); fill-opacity: 0.6; stroke-width: 0; opacity: 1;"/><path class="sankey-link" d="M383.70000000000005,270.8546218487395C564.3000000000001,270.8546218487395 564.3000000000001,82.2195378151261 744.9000000000001,82.2195378151261L744.9000000000001,87.13550420168073C564.3000000000001,87.13550420168073 564.3000000000001,275.7705882352941 383.70000000000005,275.7705882352941Z" style="stroke: rgb(68, 68, 68); stroke-opacity: 1; fill: rgb(254, 203, 82); fill-opacity: 0.6; stroke-width: 0; opacity: 1;"/><path class="sankey-link" d="M383.70000000000005,275.7705882352941C564.3000000000001,275.7705882352941 564.3000000000001,293.0350840336135 744.9000000000001,293.0350840336135L744.9000000000001,297.9510504201681C564.3000000000001,297.9510504201681 564.3000000000001,280.6865546218487 383.70000000000005,280.6865546218487Z" style="stroke: rgb(68, 68, 68); stroke-opacity: 1; fill: rgb(254, 203, 82); fill-opacity: 0.6; stroke-width: 0; opacity: 1;"/><path class="sankey-link" d="M383.70000000000005,280.6865546218487C564.3000000000001,280.6865546218487 564.3000000000001,448.7653361344539 744.9000000000001,448.7653361344539L744.9000000000001,452.4523109243699C564.3000000000001,452.4523109243699 564.3000000000001,284.3735294117647 383.70000000000005,284.3735294117647Z" style="stroke: rgb(68, 68, 68); stroke-opacity: 1; fill: rgb(254, 203, 82); fill-opacity: 0.6; stroke-width: 0; opacity: 1;"/><path class="sankey-link" d="M383.70000000000005,284.37352941176465C564.3000000000001,284.37352941176465 564.3000000000001,563.5304621848742 744.9000000000001,563.5304621848742L744.9000000000001,567.2174369747901C564.3000000000001,567.2174369747901 564.3000000000001,288.06050420168066 383.70000000000005,288.06050420168066Z" style="stroke: rgb(68, 68, 68); stroke-opacity: 1; fill: rgb(254, 203, 82); fill-opacity: 0.6; stroke-width: 0; opacity: 1;"/><path class="sankey-link" d="M383.70000000000005,301.1086134453781C564.3000000000001,301.1086134453781 564.3000000000001,34.279411764705884 744.9000000000001,34.279411764705884L744.9000000000001,37.96638655462185C564.3000000000001,37.96638655462185 564.3000000000001,304.79558823529413 383.70000000000005,304.79558823529413Z" style="stroke: rgb(68, 68, 68); stroke-opacity: 1; fill: rgb(255, 161, 90); fill-opacity: 0.6; stroke-width: 0; opacity: 1;"/><path class="sankey-link" d="M383.70000000000005,304.7955882352941C564.3000000000001,304.7955882352941 564.3000000000001,136.2025210084034 744.9000000000001,136.2025210084034L744.9000000000001,138.6605042016807C564.3000000000001,138.6605042016807 564.3000000000001,307.2535714285714 383.70000000000005,307.2535714285714Z" style="stroke: rgb(68, 68, 68); stroke-opacity: 1; fill: rgb(255, 161, 90); fill-opacity: 0.6; stroke-width: 0; opacity: 1;"/><path class="sankey-link" d="M383.70000000000005,307.2535714285714C564.3000000000001,307.2535714285714 564.3000000000001,195.2376050420168 744.9000000000001,195.2376050420168L744.9000000000001,202.61155462184877C564.3000000000001,202.61155462184877 564.3000000000001,314.6275210084033 383.70000000000005,314.6275210084033Z" style="stroke: rgb(68, 68, 68); stroke-opacity: 1; fill: rgb(255, 161, 90); fill-opacity: 0.6; stroke-width: 0; opacity: 1;"/><path class="sankey-link" d="M383.70000000000005,314.62752100840333C564.3000000000001,314.62752100840333 564.3000000000001,297.9510504201681 744.9000000000001,297.9510504201681L744.9000000000001,310.2409663865546C564.3000000000001,310.2409663865546 564.3000000000001,326.91743697478984 383.70000000000005,326.91743697478984Z" style="stroke: rgb(68, 68, 68); stroke-opacity: 1; fill: rgb(255, 161, 90); fill-opacity: 0.6; stroke-width: 0; opacity: 1;"/><path class="sankey-link" d="M383.70000000000005,326.9174369747899C564.3000000000001,326.9174369747899 564.3000000000001,452.45231092436984 744.9000000000001,452.45231092436984L744.9000000000001,461.05525210084045C564.3000000000001,461.05525210084045 564.3000000000001,335.5203781512605 383.70000000000005,335.5203781512605Z" style="stroke: rgb(68, 68, 68); stroke-opacity: 1; fill: rgb(255, 161, 90); fill-opacity: 0.6; stroke-width: 0; opacity: 1;"/><path class="sankey-link" d="M383.70000000000005,335.5203781512605C564.3000000000001,335.5203781512605 564.3000000000001,567.2174369747902 744.9000000000001,567.2174369747902L744.9000000000001,572.1334033613448C564.3000000000001,572.1334033613448 564.3000000000001,340.4363445378151 383.70000000000005,340.4363445378151Z" style="stroke: rgb(68, 68, 68); stroke-opacity: 1; fill: rgb(255, 161, 90); fill-opacity: 0.6; stroke-width: 0; opacity: 1;"/><path class="sankey-link" d="M383.70000000000005,340.4363445378151C564.3000000000001,340.4363445378151 564.3000000000001,659.7699579831932 744.9000000000001,659.7699579831932L744.9000000000001,668.3728991596637C564.3000000000001,668.3728991596637 564.3000000000001,349.0392857142857 383.70000000000005,349.0392857142857Z" style="stroke: rgb(68, 68, 68); stroke-opacity: 1; fill: rgb(255, 161, 90); fill-opacity: 0.6; stroke-width: 0; opacity: 1;"/><path class="sankey-link" d="M383.70000000000005,360.5388655462185C564.3000000000001,360.5388655462185 564.3000000000001,37.96638655462185 744.9000000000001,37.96638655462185L744.9000000000001,46.56932773109244C564.3000000000001,46.56932773109244 564.3000000000001,369.1418067226891 383.70000000000005,369.1418067226891Z" style="stroke: rgb(68, 68, 68); stroke-opacity: 1; fill: rgb(171, 99, 250); fill-opacity: 0.6; stroke-width: 0; opacity: 1;"/><path class="sankey-link" d="M383.70000000000005,369.1418067226891C564.3000000000001,369.1418067226891 564.3000000000001,87.13550420168073 744.9000000000001,87.13550420168073L744.9000000000001,88.36449579831938C564.3000000000001,88.36449579831938 564.3000000000001,370.37079831932783 383.70000000000005,370.37079831932783Z" style="stroke: rgb(68, 68, 68); stroke-opacity: 1; fill: rgb(171, 99, 250); fill-opacity: 0.6; stroke-width: 0; opacity: 1;"/><path class="sankey-link" d="M383.70000000000005,370.3707983193278C564.3000000000001,370.3707983193278 564.3000000000001,138.6605042016807 744.9000000000001,138.6605042016807L744.9000000000001,144.80546218487396C564.3000000000001,144.80546218487396 564.3000000000001,376.5157563025211 383.70000000000005,376.5157563025211Z" style="stroke: rgb(68, 68, 68); stroke-opacity: 1; fill: rgb(171, 99, 250); fill-opacity: 0.6; stroke-width: 0; opacity: 1;"/><path class="sankey-link" d="M383.70000000000005,376.515756302521C564.3000000000001,376.515756302521 564.3000000000001,202.61155462184874 744.9000000000001,202.61155462184874L744.9000000000001,212.443487394958C564.3000000000001,212.443487394958 564.3000000000001,386.3476890756302 383.70000000000005,386.3476890756302Z" style="stroke: rgb(68, 68, 68); stroke-opacity: 1; fill: rgb(171, 99, 250); fill-opacity: 0.6; stroke-width: 0; opacity: 1;"/><path class="sankey-link" d="M383.70000000000005,386.3476890756303C564.3000000000001,386.3476890756303 564.3000000000001,310.24096638655465 744.9000000000001,310.24096638655465L744.9000000000001,339.73676470588236C564.3000000000001,339.73676470588236 564.3000000000001,415.843487394958 383.70000000000005,415.843487394958Z" style="stroke: rgb(68, 68, 68); stroke-opacity: 1; fill: rgb(171, 99, 250); fill-opacity: 0.6; stroke-width: 0; opacity: 1;"/><path class="sankey-link" d="M383.70000000000005,415.843487394958C564.3000000000001,415.843487394958 564.3000000000001,461.05525210084045 744.9000000000001,461.05525210084045L744.9000000000001,475.80315126050436C564.3000000000001,475.80315126050436 564.3000000000001,430.5913865546219 383.70000000000005,430.5913865546219Z" style="stroke: rgb(68, 68, 68); stroke-opacity: 1; fill: rgb(171, 99, 250); fill-opacity: 0.6; stroke-width: 0; opacity: 1;"/><path class="sankey-link" d="M383.70000000000005,430.59138655462186C564.3000000000001,430.59138655462186 564.3000000000001,572.1334033613448 744.9000000000001,572.1334033613448L744.9000000000001,581.965336134454C564.3000000000001,581.965336134454 564.3000000000001,440.42331932773106 383.70000000000005,440.42331932773106Z" style="stroke: rgb(68, 68, 68); stroke-opacity: 1; fill: rgb(171, 99, 250); fill-opacity: 0.6; stroke-width: 0; opacity: 1;"/><path class="sankey-link" d="M383.70000000000005,440.4233193277311C564.3000000000001,440.4233193277311 564.3000000000001,668.3728991596638 744.9000000000001,668.3728991596638L744.9000000000001,685.578781512605C564.3000000000001,685.578781512605 564.3000000000001,457.62920168067234 383.70000000000005,457.62920168067234Z" style="stroke: rgb(68, 68, 68); stroke-opacity: 1; fill: rgb(171, 99, 250); fill-opacity: 0.6; stroke-width: 0; opacity: 1;"/><path class="sankey-link" d="M383.70000000000005,467.40819327731094C564.3000000000001,467.40819327731094 564.3000000000001,46.569327731092436 744.9000000000001,46.569327731092436L744.9000000000001,55.17226890756303C564.3000000000001,55.17226890756303 564.3000000000001,476.01113445378155 383.70000000000005,476.01113445378155Z" style="stroke: rgb(68, 68, 68); stroke-opacity: 1; fill: rgb(99, 110, 250); fill-opacity: 0.6; stroke-width: 0; opacity: 1;"/><path class="sankey-link" d="M383.70000000000005,476.01113445378155C564.3000000000001,476.01113445378155 564.3000000000001,88.36449579831938 744.9000000000001,88.36449579831938L744.9000000000001,104.34138655462189C564.3000000000001,104.34138655462189 564.3000000000001,491.98802521008406 383.70000000000005,491.98802521008406Z" style="stroke: rgb(68, 68, 68); stroke-opacity: 1; fill: rgb(99, 110, 250); fill-opacity: 0.6; stroke-width: 0; opacity: 1;"/><path class="sankey-link" d="M383.70000000000005,491.98802521008406C564.3000000000001,491.98802521008406 564.3000000000001,212.44348739495797 744.9000000000001,212.44348739495797L744.9000000000001,218.58844537815122C564.3000000000001,218.58844537815122 564.3000000000001,498.13298319327737 383.70000000000005,498.13298319327737Z" style="stroke: rgb(68, 68, 68); stroke-opacity: 1; fill: rgb(99, 110, 250); fill-opacity: 0.6; stroke-width: 0; opacity: 1;"/><path class="sankey-link" d="M383.70000000000005,498.1329831932773C564.3000000000001,498.1329831932773 564.3000000000001,339.73676470588236 744.9000000000001,339.73676470588236L744.9000000000001,381.5224789915967C564.3000000000001,381.5224789915967 564.3000000000001,539.9186974789916 383.70000000000005,539.9186974789916Z" style="stroke: rgb(68, 68, 68); stroke-opacity: 1; fill: rgb(99, 110, 250); fill-opacity: 0.6; stroke-width: 0; opacity: 1;"/><path class="sankey-link" d="M383.70000000000005,539.9186974789916C564.3000000000001,539.9186974789916 564.3000000000001,475.8031512605043 744.9000000000001,475.8031512605043L744.9000000000001,507.7569327731093C564.3000000000001,507.7569327731093 564.3000000000001,571.8724789915966 383.70000000000005,571.8724789915966Z" style="stroke: rgb(68, 68, 68); stroke-opacity: 1; fill: rgb(99, 110, 250); fill-opacity: 0.6; stroke-width: 0; opacity: 1;"/><path class="sankey-link" d="M383.70000000000005,571.8724789915966C564.3000000000001,571.8724789915966 564.3000000000001,581.965336134454 744.9000000000001,581.965336134454L744.9000000000001,605.3161764705885C564.3000000000001,605.3161764705885 564.3000000000001,595.2233193277311 383.70000000000005,595.2233193277311Z" style="stroke: rgb(68, 68, 68); stroke-opacity: 1; fill: rgb(99, 110, 250); fill-opacity: 0.6; stroke-width: 0; opacity: 1;"/><path class="sankey-link" d="M383.70000000000005,595.223319327731C564.3000000000001,595.223319327731 564.3000000000001,685.578781512605 744.9000000000001,685.578781512605L744.9000000000001,691.7237394957983C564.3000000000001,691.7237394957983 564.3000000000001,601.3682773109243 383.70000000000005,601.3682773109243Z" style="stroke: rgb(68, 68, 68); stroke-opacity: 1; fill: rgb(99, 110, 250); fill-opacity: 0.6; stroke-width: 0; opacity: 1;"/><path class="sankey-link" d="M383.70000000000005,612.3025210084035C564.3000000000001,612.3025210084035 564.3000000000001,55.17226890756302 744.9000000000001,55.17226890756302L744.9000000000001,58.85924369747899C564.3000000000001,58.85924369747899 564.3000000000001,615.9894957983194 383.70000000000005,615.9894957983194Z" style="stroke: rgb(68, 68, 68); stroke-opacity: 1; fill: rgb(255, 151, 255); fill-opacity: 0.6; stroke-width: 0; opacity: 1;"/><path class="sankey-link" d="M383.70000000000005,615.9894957983195C564.3000000000001,615.9894957983195 564.3000000000001,104.3413865546219 744.9000000000001,104.3413865546219L744.9000000000001,106.7993697478992C564.3000000000001,106.7993697478992 564.3000000000001,618.4474789915969 383.70000000000005,618.4474789915969Z" style="stroke: rgb(68, 68, 68); stroke-opacity: 1; fill: rgb(255, 151, 255); fill-opacity: 0.6; stroke-width: 0; opacity: 1;"/><path class="sankey-link" d="M383.70000000000005,618.4474789915968C564.3000000000001,618.4474789915968 564.3000000000001,144.805462184874 744.9000000000001,144.805462184874L744.9000000000001,146.03445378151264C564.3000000000001,146.03445378151264 564.3000000000001,619.6764705882355 383.70000000000005,619.6764705882355Z" style="stroke: rgb(68, 68, 68); stroke-opacity: 1; fill: rgb(255, 151, 255); fill-opacity: 0.6; stroke-width: 0; opacity: 1;"/><path class="sankey-link" d="M383.70000000000005,619.6764705882355C564.3000000000001,619.6764705882355 564.3000000000001,381.52247899159664 744.9000000000001,381.52247899159664L744.9000000000001,396.27037815126056C564.3000000000001,396.27037815126056 564.3000000000001,634.4243697478993 383.70000000000005,634.4243697478993Z" style="stroke: rgb(68, 68, 68); stroke-opacity: 1; fill: rgb(255, 151, 255); fill-opacity: 0.6; stroke-width: 0; opacity: 1;"/><path class="sankey-link" d="M383.70000000000005,634.4243697478994C564.3000000000001,634.4243697478994 564.3000000000001,507.7569327731093 744.9000000000001,507.7569327731093L744.9000000000001,515.1308823529413C564.3000000000001,515.1308823529413 564.3000000000001,641.7983193277314 383.70000000000005,641.7983193277314Z" style="stroke: rgb(68, 68, 68); stroke-opacity: 1; fill: rgb(255, 151, 255); fill-opacity: 0.6; stroke-width: 0; opacity: 1;"/><path class="sankey-link" d="M383.70000000000005,641.7983193277313C564.3000000000001,641.7983193277313 564.3000000000001,605.3161764705884 744.9000000000001,605.3161764705884L744.9000000000001,609.0031512605043C564.3000000000001,609.0031512605043 564.3000000000001,645.4852941176472 383.70000000000005,645.4852941176472Z" style="stroke: rgb(68, 68, 68); stroke-opacity: 1; fill: rgb(255, 151, 255); fill-opacity: 0.6; stroke-width: 0; opacity: 1;"/><path class="sankey-link" d="M383.70000000000005,645.4852941176473C564.3000000000001,645.4852941176473 564.3000000000001,691.7237394957983 744.9000000000001,691.7237394957983L744.9000000000001,697.8686974789916C564.3000000000001,697.8686974789916 564.3000000000001,651.6302521008406 383.70000000000005,651.6302521008406Z" style="stroke: rgb(68, 68, 68); stroke-opacity: 1; fill: rgb(255, 151, 255); fill-opacity: 0.6; stroke-width: 0; opacity: 1;"/><path class="sankey-link" d="M383.70000000000005,664.8258403361347C564.3000000000001,664.8258403361347 564.3000000000001,58.85924369747899 744.9000000000001,58.85924369747899L744.9000000000001,61.3172268907563C564.3000000000001,61.3172268907563 564.3000000000001,667.2838235294121 383.70000000000005,667.2838235294121Z" style="stroke: rgb(68, 68, 68); stroke-opacity: 1; fill: rgb(182, 232, 128); fill-opacity: 0.6; stroke-width: 0; opacity: 1;"/><path class="sankey-link" d="M383.70000000000005,667.283823529412C564.3000000000001,667.283823529412 564.3000000000001,218.58844537815125 744.9000000000001,218.58844537815125L744.9000000000001,219.8174369747899C564.3000000000001,219.8174369747899 564.3000000000001,668.5128151260507 383.70000000000005,668.5128151260507Z" style="stroke: rgb(68, 68, 68); stroke-opacity: 1; fill: rgb(182, 232, 128); fill-opacity: 0.6; stroke-width: 0; opacity: 1;"/><path class="sankey-link" d="M383.70000000000005,668.5128151260507C564.3000000000001,668.5128151260507 564.3000000000001,396.2703781512605 744.9000000000001,396.2703781512605L744.9000000000001,403.6443277310924C564.3000000000001,403.6443277310924 564.3000000000001,675.8867647058827 383.70000000000005,675.8867647058827Z" style="stroke: rgb(68, 68, 68); stroke-opacity: 1; fill: rgb(182, 232, 128); fill-opacity: 0.6; stroke-width: 0; opacity: 1;"/><path class="sankey-link" d="M383.70000000000005,675.8867647058826C564.3000000000001,675.8867647058826 564.3000000000001,515.1308823529413 744.9000000000001,515.1308823529413L744.9000000000001,516.35987394958C564.3000000000001,516.35987394958 564.3000000000001,677.1157563025213 383.70000000000005,677.1157563025213Z" style="stroke: rgb(68, 68, 68); stroke-opacity: 1; fill: rgb(182, 232, 128); fill-opacity: 0.6; stroke-width: 0; opacity: 1;"/><path class="sankey-link" d="M383.70000000000005,677.1157563025213C564.3000000000001,677.1157563025213 564.3000000000001,609.0031512605044 744.9000000000001,609.0031512605044L744.9000000000001,611.4611344537818C564.3000000000001,611.4611344537818 564.3000000000001,679.5737394957987 383.70000000000005,679.5737394957987Z" style="stroke: rgb(68, 68, 68); stroke-opacity: 1; fill: rgb(182, 232, 128); fill-opacity: 0.6; stroke-width: 0; opacity: 1;"/><path class="sankey-link" d="M383.70000000000005,679.5737394957986C564.3000000000001,679.5737394957986 564.3000000000001,697.8686974789916 744.9000000000001,697.8686974789916L744.9000000000001,704.0136554621849C564.3000000000001,704.0136554621849 564.3000000000001,685.7186974789919 383.70000000000005,685.7186974789919Z" style="stroke: rgb(68, 68, 68); stroke-opacity: 1; fill: rgb(182, 232, 128); fill-opacity: 0.6; stroke-width: 0; opacity: 1;"/><path class="sankey-link" d="M383.70000000000005,699.5779411764707C564.3000000000001,699.5779411764707 564.3000000000001,219.8174369747899 744.9000000000001,219.8174369747899L744.9000000000001,221.04642857142855C564.3000000000001,221.04642857142855 564.3000000000001,700.8069327731095 383.70000000000005,700.8069327731095Z" style="stroke: rgb(68, 68, 68); stroke-opacity: 1; fill: rgb(255, 102, 146); fill-opacity: 0.6; stroke-width: 0; opacity: 1;"/><path class="sankey-link" d="M383.70000000000005,700.8069327731095C564.3000000000001,700.8069327731095 564.3000000000001,403.64432773109246 744.9000000000001,403.64432773109246L744.9000000000001,404.87331932773117C564.3000000000001,404.87331932773117 564.3000000000001,702.0359243697482 383.70000000000005,702.0359243697482Z" style="stroke: rgb(68, 68, 68); stroke-opacity: 1; fill: rgb(255, 102, 146); fill-opacity: 0.6; stroke-width: 0; opacity: 1;"/><path class="sankey-link" d="M383.70000000000005,702.0359243697482C564.3000000000001,702.0359243697482 564.3000000000001,516.35987394958 744.9000000000001,516.35987394958L744.9000000000001,517.5888655462187C564.3000000000001,517.5888655462187 564.3000000000001,703.2649159663869 383.70000000000005,703.2649159663869Z" style="stroke: rgb(68, 68, 68); stroke-opacity: 1; fill: rgb(255, 102, 146); fill-opacity: 0.6; stroke-width: 0; opacity: 1;"/><path class="sankey-link" d="M383.70000000000005,703.2649159663869C564.3000000000001,703.2649159663869 564.3000000000001,611.4611344537817 744.9000000000001,611.4611344537817L744.9000000000001,612.6901260504204C564.3000000000001,612.6901260504204 564.3000000000001,704.4939075630256 383.70000000000005,704.4939075630256Z" style="stroke: rgb(68, 68, 68); stroke-opacity: 1; fill: rgb(255, 102, 146); fill-opacity: 0.6; stroke-width: 0; opacity: 1;"/><path class="sankey-link" d="M383.70000000000005,704.4939075630256C564.3000000000001,704.4939075630256 564.3000000000001,704.0136554621849 744.9000000000001,704.0136554621849L744.9000000000001,705.2426470588236C564.3000000000001,705.2426470588236 564.3000000000001,705.7228991596643 383.70000000000005,705.7228991596643Z" style="stroke: rgb(68, 68, 68); stroke-opacity: 1; fill: rgb(255, 102, 146); fill-opacity: 0.6; stroke-width: 0; opacity: 1;"/></g><g class="sankey-node-set" style="cursor: ns-resize;"><g class="sankey-node" transform="translate(744.900,14.616)" style="opacity: 1;"><rect class="node-rect" width="15" height="46.701680672268935" style="stroke-width: 0.5; stroke: rgb(0, 0, 0); stroke-opacity: 1; fill: rgb(128, 128, 128); fill-opacity: 1;"/><text class="node-label" data-notex="1" x="0" y="0" text-anchor="end" transform="translate(-3.25,27.550840336134467)" style="cursor: default; font-family: 'Open Sans', verdana, arial, sans-serif; font-size: 12px; fill: rgb(42, 63, 95); fill-opacity: 1; white-space: pre; text-shadow: white 1px 1px 1px, white -1px -1px 1px, white 1px -1px 1px, white -1px 1px 1px;">attacking</text></g><g class="sankey-node" transform="translate(744.900,76.075)" style="opacity: 1;"><rect class="node-rect" width="15" height="30.724789915966312" style="stroke-width: 0.5; stroke: rgb(0, 0, 0); stroke-opacity: 1; fill: rgb(128, 128, 128); fill-opacity: 1;"/><text class="node-label" data-notex="1" x="0" y="0" text-anchor="end" transform="translate(-3.25,19.562394957983155)" style="cursor: default; font-family: 'Open Sans', verdana, arial, sans-serif; font-size: 12px; fill: rgb(42, 63, 95); fill-opacity: 1; white-space: pre; text-shadow: white 1px 1px 1px, white -1px -1px 1px, white 1px -1px 1px, white -1px 1px 1px;">being_attack</text></g><g class="sankey-node" transform="translate(744.900,121.455)" style="opacity: 1;"><rect class="node-rect" width="15" height="24.579831932773004" style="stroke-width: 0.5; stroke: rgb(0, 0, 0); stroke-opacity: 1; fill: rgb(128, 128, 128); fill-opacity: 1;"/><text class="node-label" data-notex="1" x="0" y="0" text-anchor="end" transform="translate(-3.25,16.4899159663865)" style="cursor: default; font-family: 'Open Sans', verdana, arial, sans-serif; font-size: 12px; fill: rgb(42, 63, 95); fill-opacity: 1; white-space: pre; text-shadow: white 1px 1px 1px, white -1px -1px 1px, white 1px -1px 1px, white -1px 1px 1px;">dig</text></g><g class="sankey-node" transform="translate(744.900,160.826)" style="opacity: 1;"><rect class="node-rect" width="15" height="60.220588235294144" style="stroke-width: 0.5; stroke: rgb(0, 0, 0); stroke-opacity: 1; fill: rgb(128, 128, 128); fill-opacity: 1;"/><text class="node-label" data-notex="1" x="0" y="0" text-anchor="end" transform="translate(-3.25,34.310294117647075)" style="cursor: default; font-family: 'Open Sans', verdana, arial, sans-serif; font-size: 12px; fill: rgb(42, 63, 95); fill-opacity: 1; white-space: pre; text-shadow: white 1px 1px 1px, white -1px -1px 1px, white 1px -1px 1px, white -1px 1px 1px;">groom</text></g><g class="sankey-node" transform="translate(744.900,236.501)" style="opacity: 1;"><rect class="node-rect" width="15" height="168.37184873949582" style="stroke-width: 0.5; stroke: rgb(0, 0, 0); stroke-opacity: 1; fill: rgb(128, 128, 128); fill-opacity: 1;"/><text class="node-label" data-notex="1" x="0" y="0" text-anchor="end" transform="translate(-3.25,88.38592436974791)" style="cursor: default; font-family: 'Open Sans', verdana, arial, sans-serif; font-size: 12px; fill: rgb(42, 63, 95); fill-opacity: 1; white-space: pre; text-shadow: white 1px 1px 1px, white -1px -1px 1px, white 1px -1px 1px, white -1px 1px 1px;">move</text></g><g class="sankey-node" transform="translate(744.900,420.499)" style="opacity: 1;"><rect class="node-rect" width="15" height="97.09033613445382" style="stroke-width: 0.5; stroke: rgb(0, 0, 0); stroke-opacity: 1; fill: rgb(128, 128, 128); fill-opacity: 1;"/><text class="node-label" data-notex="1" x="0" y="0" text-anchor="end" transform="translate(-3.25,52.74516806722691)" style="cursor: default; font-family: 'Open Sans', verdana, arial, sans-serif; font-size: 12px; fill: rgb(42, 63, 95); fill-opacity: 1; white-space: pre; text-shadow: white 1px 1px 1px, white -1px -1px 1px, white 1px -1px 1px, white -1px 1px 1px;">sniff</text></g><g class="sankey-node" transform="translate(744.900,532.806)" style="opacity: 1;"><rect class="node-rect" width="15" height="79.88445378151255" style="stroke-width: 0.5; stroke: rgb(0, 0, 0); stroke-opacity: 1; fill: rgb(128, 128, 128); fill-opacity: 1;"/><text class="node-label" data-notex="1" x="0" y="0" text-anchor="end" transform="translate(-3.25,44.14222689075628)" style="cursor: default; font-family: 'Open Sans', verdana, arial, sans-serif; font-size: 12px; fill: rgb(42, 63, 95); fill-opacity: 1; white-space: pre; text-shadow: white 1px 1px 1px, white -1px -1px 1px, white 1px -1px 1px, white -1px 1px 1px;">social</text></g><g class="sankey-node" transform="translate(744.900,627.816)" style="opacity: 1;"><rect class="node-rect" width="15" height="77.42647058823559" style="stroke-width: 0.5; stroke: rgb(0, 0, 0); stroke-opacity: 1; fill: rgb(128, 128, 128); fill-opacity: 1;"/><text class="node-label" data-notex="1" x="0" y="0" text-anchor="end" transform="translate(-3.25,42.9132352941178)" style="cursor: default; font-family: 'Open Sans', verdana, arial, sans-serif; font-size: 12px; fill: rgb(42, 63, 95); fill-opacity: 1; white-space: pre; text-shadow: white 1px 1px 1px, white -1px -1px 1px, white 1px -1px 1px, white -1px 1px 1px;">still</text></g><g class="sankey-node" transform="translate(368.700,13.564)" style="opacity: 1;"><rect class="node-rect" width="15" height="41.78571428571411" style="stroke-width: 0.5; stroke: rgb(0, 0, 0); stroke-opacity: 1; fill: rgb(25, 211, 243); fill-opacity: 1;"/><text class="node-label" data-notex="1" x="0" y="0" text-anchor="start" transform="translate(18.25,25.092857142857053)" style="cursor: default; font-family: 'Open Sans', verdana, arial, sans-serif; font-size: 12px; fill: rgb(42, 63, 95); fill-opacity: 1; white-space: pre; text-shadow: white 1px 1px 1px, white -1px -1px 1px, white 1px -1px 1px, white -1px 1px 1px;">BLA</text></g><g class="sankey-node" transform="translate(368.700,67.095)" style="opacity: 1;"><rect class="node-rect" width="15" height="90.94537815126036" style="stroke-width: 0.5; stroke: rgb(0, 0, 0); stroke-opacity: 1; fill: rgb(0, 204, 150); fill-opacity: 1;"/><text class="node-label" data-notex="1" x="0" y="0" text-anchor="start" transform="translate(18.25,49.672689075630174)" style="cursor: default; font-family: 'Open Sans', verdana, arial, sans-serif; font-size: 12px; fill: rgb(42, 63, 95); fill-opacity: 1; white-space: pre; text-shadow: white 1px 1px 1px, white -1px -1px 1px, white 1px -1px 1px, white -1px 1px 1px;">Cla</text></g><g class="sankey-node" transform="translate(368.700,168.877)" style="opacity: 1;"><rect class="node-rect" width="15" height="87.2584033613443" style="stroke-width: 0.5; stroke: rgb(0, 0, 0); stroke-opacity: 1; fill: rgb(239, 85, 59); fill-opacity: 1;"/><text class="node-label" data-notex="1" x="0" y="0" text-anchor="start" transform="translate(18.25,47.829201680672156)" style="cursor: default; font-family: 'Open Sans', verdana, arial, sans-serif; font-size: 12px; fill: rgb(42, 63, 95); fill-opacity: 1; white-space: pre; text-shadow: white 1px 1px 1px, white -1px -1px 1px, white 1px -1px 1px, white -1px 1px 1px;">LC</text></g><g class="sankey-node" transform="translate(368.700,268.397)" style="opacity: 1;"><rect class="node-rect" width="15" height="19.663865546218517" style="stroke-width: 0.5; stroke: rgb(0, 0, 0); stroke-opacity: 1; fill: rgb(254, 203, 82); fill-opacity: 1;"/><text class="node-label" data-notex="1" x="0" y="0" text-anchor="start" transform="translate(18.25,14.031932773109258)" style="cursor: default; font-family: 'Open Sans', verdana, arial, sans-serif; font-size: 12px; fill: rgb(42, 63, 95); fill-opacity: 1; white-space: pre; text-shadow: white 1px 1px 1px, white -1px -1px 1px, white 1px -1px 1px, white -1px 1px 1px;">LHyp</text></g><g class="sankey-node" transform="translate(368.700,301.109)" style="opacity: 1;"><rect class="node-rect" width="15" height="47.93067226890764" style="stroke-width: 0.5; stroke: rgb(0, 0, 0); stroke-opacity: 1; fill: rgb(255, 161, 90); fill-opacity: 1;"/><text class="node-label" data-notex="1" x="0" y="0" text-anchor="start" transform="translate(18.25,28.16533613445382)" style="cursor: default; font-family: 'Open Sans', verdana, arial, sans-serif; font-size: 12px; fill: rgb(42, 63, 95); fill-opacity: 1; white-space: pre; text-shadow: white 1px 1px 1px, white -1px -1px 1px, white 1px -1px 1px, white -1px 1px 1px;">NAc</text></g><g class="sankey-node" transform="translate(368.700,360.539)" style="opacity: 1;"><rect class="node-rect" width="15" height="97.09033613445388" style="stroke-width: 0.5; stroke: rgb(0, 0, 0); stroke-opacity: 1; fill: rgb(171, 99, 250); fill-opacity: 1;"/><text class="node-label" data-notex="1" x="0" y="0" text-anchor="start" transform="translate(18.25,52.74516806722694)" style="cursor: default; font-family: 'Open Sans', verdana, arial, sans-serif; font-size: 12px; fill: rgb(42, 63, 95); fill-opacity: 1; white-space: pre; text-shadow: white 1px 1px 1px, white -1px -1px 1px, white 1px -1px 1px, white -1px 1px 1px;">Str</text></g><g class="sankey-node" transform="translate(368.700,467.408)" style="opacity: 1;"><rect class="node-rect" width="15" height="133.9600840336136" style="stroke-width: 0.5; stroke: rgb(0, 0, 0); stroke-opacity: 1; fill: rgb(99, 110, 250); fill-opacity: 1;"/><text class="node-label" data-notex="1" x="0" y="0" text-anchor="start" transform="translate(18.25,71.18004201680681)" style="cursor: default; font-family: 'Open Sans', verdana, arial, sans-serif; font-size: 12px; fill: rgb(42, 63, 95); fill-opacity: 1; white-space: pre; text-shadow: white 1px 1px 1px, white -1px -1px 1px, white 1px -1px 1px, white -1px 1px 1px;">VTA</text></g><g class="sankey-node" transform="translate(368.700,612.303)" style="opacity: 1;"><rect class="node-rect" width="15" height="39.327731092437034" style="stroke-width: 0.5; stroke: rgb(0, 0, 0); stroke-opacity: 1; fill: rgb(255, 151, 255); fill-opacity: 1;"/><text class="node-label" data-notex="1" x="0" y="0" text-anchor="start" transform="translate(18.25,23.863865546218516)" style="cursor: default; font-family: 'Open Sans', verdana, arial, sans-serif; font-size: 12px; fill: rgb(42, 63, 95); fill-opacity: 1; white-space: pre; text-shadow: white 1px 1px 1px, white -1px -1px 1px, white 1px -1px 1px, white -1px 1px 1px;">cPFC</text></g><g class="sankey-node" transform="translate(368.700,664.826)" style="opacity: 1;"><rect class="node-rect" width="15" height="20.89285714285711" style="stroke-width: 0.5; stroke: rgb(0, 0, 0); stroke-opacity: 1; fill: rgb(182, 232, 128); fill-opacity: 1;"/><text class="node-label" data-notex="1" x="0" y="0" text-anchor="start" transform="translate(18.25,14.646428571428554)" style="cursor: default; font-family: 'Open Sans', verdana, arial, sans-serif; font-size: 12px; fill: rgb(42, 63, 95); fill-opacity: 1; white-space: pre; text-shadow: white 1px 1px 1px, white -1px -1px 1px, white 1px -1px 1px, white -1px 1px 1px;">dPAG</text></g><g class="sankey-node" transform="translate(368.700,699.578)" style="opacity: 1;"><rect class="node-rect" width="15" height="6.144957983193308" style="stroke-width: 0.5; stroke: rgb(0, 0, 0); stroke-opacity: 1; fill: rgb(255, 102, 146); fill-opacity: 1;"/><text class="node-label" data-notex="1" x="0" y="0" text-anchor="start" transform="translate(18.25,7.272478991596653)" style="cursor: default; font-family: 'Open Sans', verdana, arial, sans-serif; font-size: 12px; fill: rgb(42, 63, 95); fill-opacity: 1; white-space: pre; text-shadow: white 1px 1px 1px, white -1px -1px 1px, white 1px -1px 1px, white -1px 1px 1px;">lHb</text></g></g></g><defs id="topdefs-915b59"><g class="clips"/></defs><g class="layer-above"><g class="imagelayer"/><g class="shapelayer"/></g><g class="infolayer"><g class="g-gtitle"/><g class="first-render"/></g></svg>