<svg class="main-svg" xmlns="http://www.w3.org/2000/svg" xmlns:xlink="http://www.w3.org/1999/xlink" width="1300" height="900" style="" viewBox="0 0 1300 900"><rect x="0" y="0" width="1300" height="900" style="fill: rgb(255, 255, 255); fill-opacity: 1;"/><defs id="defs-e5b813"><g class="clips"/><g class="gradients"/><g class="patterns"/></defs><g class="bglayer"/><g class="layer-below"><g class="imagelayer"/><g class="shapelayer"/></g><g class="cartesianlayer"/><g class="polarlayer"/><g class="smithlayer"/><g class="ternarylayer"/><g class="geolayer"/><g class="funnelarealayer"/><g class="pielayer"/><g class="iciclelayer"/><g class="treemaplayer"/><g class="sunburstlayer"/><g class="glimages"/><g class="sankey" transform="translate(80,100)matrix(1 0 0 1 0 0)" style="box-sizing: content-box; position: absolute; left: 0px; shape-rendering: geometricprecision; pointer-events: none;"><g class="sankey-links" style="fill: none;"><path class="sankey-link" d="M383.70000000000005,14.011848341232241C564.3000000000001,14.011848341232241 564.3000000000001,22.909478672985784 744.9000000000001,22.909478672985784L744.9000000000001,28.454502369668248C564.3000000000001,28.454502369668248 564.3000000000001,19.556872037914705 383.70000000000005,19.556872037914705Z" style="stroke: rgb(68, 68, 68); stroke-opacity: 1; fill: rgb(25, 211, 243); fill-opacity: 0.6; stroke-width: 0; opacity: 1;"/><path class="sankey-link" d="M383.70000000000005,19.556872037914705C564.3000000000001,19.556872037914705 564.3000000000001,311.8563981042654 744.9000000000001,311.8563981042654L744.9000000000001,314.6289099526066C564.3000000000001,314.6289099526066 564.3000000000001,22.329383886255936 383.70000000000005,22.329383886255936Z" style="stroke: rgb(68, 68, 68); stroke-opacity: 1; fill: rgb(25, 211, 243); fill-opacity: 0.6; stroke-width: 0; opacity: 1;"/><path class="sankey-link" d="M383.70000000000005,22.329383886255936C564.3000000000001,22.329383886255936 564.3000000000001,486.4649289099527 744.9000000000001,486.4649289099527L744.9000000000001,497.5549763033176C564.3000000000001,497.5549763033176 564.3000000000001,33.419431279620866 383.70000000000005,33.419431279620866Z" style="stroke: rgb(68, 68, 68); stroke-opacity: 1; fill: rgb(25, 211, 243); fill-opacity: 0.6; stroke-width: 0; opacity: 1;"/><path class="sankey-link" d="M383.70000000000005,45.60142180094785C564.3000000000001,45.60142180094785 564.3000000000001,28.454502369668248 744.9000000000001,28.454502369668248L744.9000000000001,53.40710900473934C564.3000000000001,53.40710900473934 564.3000000000001,70.55402843601894 383.70000000000005,70.55402843601894Z" style="stroke: rgb(68, 68, 68); stroke-opacity: 1; fill: rgb(99, 110, 250); fill-opacity: 0.6; stroke-width: 0; opacity: 1;"/><path class="sankey-link" d="M383.70000000000005,81.64407582938387C564.3000000000001,81.64407582938387 564.3000000000001,314.62890995260665 744.9000000000001,314.62890995260665L744.9000000000001,339.58151658767775C564.3000000000001,339.58151658767775 564.3000000000001,106.59668246445494 383.70000000000005,106.59668246445494Z" style="stroke: rgb(68, 68, 68); stroke-opacity: 1; fill: rgb(99, 110, 250); fill-opacity: 0.6; stroke-width: 0; opacity: 1;"/><path class="sankey-link" d="M383.70000000000005,106.59668246445496C564.3000000000001,106.59668246445496 564.3000000000001,497.55497630331763 744.9000000000001,497.55497630331763L744.9000000000001,528.0526066350711C564.3000000000001,528.0526066350711 564.3000000000001,137.0943127962085 383.70000000000005,137.0943127962085Z" style="stroke: rgb(68, 68, 68); stroke-opacity: 1; fill: rgb(99, 110, 250); fill-opacity: 0.6; stroke-width: 0; opacity: 1;"/><path class="sankey-link" d="M383.70000000000005,70.55402843601894C564.3000000000001,70.55402843601894 564.3000000000001,208.03222748815176 744.9000000000001,208.03222748815176L744.9000000000001,219.12227488151672C564.3000000000001,219.12227488151672 564.3000000000001,81.64407582938387 383.70000000000005,81.64407582938387Z" style="stroke: rgb(68, 68, 68); stroke-opacity: 1; fill: rgb(99, 110, 250); fill-opacity: 0.6; stroke-width: 0; opacity: 1;"/><path class="sankey-link" d="M383.70000000000005,148.167298578199C564.3000000000001,148.167298578199 564.3000000000001,53.40710900473934 744.9000000000001,53.40710900473934L744.9000000000001,70.04218009478673C564.3000000000001,70.04218009478673 564.3000000000001,164.8023696682464 383.70000000000005,164.8023696682464Z" style="stroke: rgb(68, 68, 68); stroke-opacity: 1; fill: rgb(239, 85, 59); fill-opacity: 0.6; stroke-width: 0; opacity: 1;"/><path class="sankey-link" d="M383.70000000000005,167.57488151658762C564.3000000000001,167.57488151658762 564.3000000000001,339.58151658767775 744.9000000000001,339.58151658767775L744.9000000000001,367.30663507109006C564.3000000000001,367.30663507109006 564.3000000000001,195.29999999999993 383.70000000000005,195.29999999999993Z" style="stroke: rgb(68, 68, 68); stroke-opacity: 1; fill: rgb(239, 85, 59); fill-opacity: 0.6; stroke-width: 0; opacity: 1;"/><path class="sankey-link" d="M383.70000000000005,195.29999999999995C564.3000000000001,195.29999999999995 564.3000000000001,528.0526066350711 744.9000000000001,528.0526066350711L744.9000000000001,555.7777251184835C564.3000000000001,555.7777251184835 564.3000000000001,223.02511848341226 383.70000000000005,223.02511848341226Z" style="stroke: rgb(68, 68, 68); stroke-opacity: 1; fill: rgb(239, 85, 59); fill-opacity: 0.6; stroke-width: 0; opacity: 1;"/><path class="sankey-link" d="M383.70000000000005,164.8023696682464C564.3000000000001,164.8023696682464 564.3000000000001,219.1222748815167 744.9000000000001,219.1222748815167L744.9000000000001,221.89478672985794C564.3000000000001,221.89478672985794 564.3000000000001,167.57488151658765 383.70000000000005,167.57488151658765Z" style="stroke: rgb(68, 68, 68); stroke-opacity: 1; fill: rgb(239, 85, 59); fill-opacity: 0.6; stroke-width: 0; opacity: 1;"/><path class="sankey-link" d="M383.70000000000005,235.48436018957352C564.3000000000001,235.48436018957352 564.3000000000001,70.04218009478673 744.9000000000001,70.04218009478673L744.9000000000001,75.58720379146921C564.3000000000001,75.58720379146921 564.3000000000001,241.02938388625597 383.70000000000005,241.02938388625597Z" style="stroke: rgb(68, 68, 68); stroke-opacity: 1; fill: rgb(254, 203, 82); fill-opacity: 0.6; stroke-width: 0; opacity: 1;"/><path class="sankey-link" d="M383.70000000000005,252.11943127962093C564.3000000000001,252.11943127962093 564.3000000000001,555.7777251184834 744.9000000000001,555.7777251184834L744.9000000000001,561.3227488151658C564.3000000000001,561.3227488151658 564.3000000000001,257.6644549763034 383.70000000000005,257.6644549763034Z" style="stroke: rgb(68, 68, 68); stroke-opacity: 1; fill: rgb(254, 203, 82); fill-opacity: 0.6; stroke-width: 0; opacity: 1;"/><path class="sankey-link" d="M383.70000000000005,241.029383886256C564.3000000000001,241.029383886256 564.3000000000001,221.8947867298579 744.9000000000001,221.8947867298579L744.9000000000001,232.98483412322287C564.3000000000001,232.98483412322287 564.3000000000001,252.11943127962095 383.70000000000005,252.11943127962095Z" style="stroke: rgb(68, 68, 68); stroke-opacity: 1; fill: rgb(254, 203, 82); fill-opacity: 0.6; stroke-width: 0; opacity: 1;"/><path class="sankey-link" d="M383.70000000000005,270.45639810426553C564.3000000000001,270.45639810426553 564.3000000000001,75.5872037914692 744.9000000000001,75.5872037914692L744.9000000000001,86.67725118483412C564.3000000000001,86.67725118483412 564.3000000000001,281.54644549763043 383.70000000000005,281.54644549763043Z" style="stroke: rgb(68, 68, 68); stroke-opacity: 1; fill: rgb(171, 99, 250); fill-opacity: 0.6; stroke-width: 0; opacity: 1;"/><path class="sankey-link" d="M383.70000000000005,289.8639810426542C564.3000000000001,289.8639810426542 564.3000000000001,367.30663507109006 744.9000000000001,367.30663507109006L744.9000000000001,386.71421800947866C564.3000000000001,386.71421800947866 564.3000000000001,309.2715639810428 383.70000000000005,309.2715639810428Z" style="stroke: rgb(68, 68, 68); stroke-opacity: 1; fill: rgb(171, 99, 250); fill-opacity: 0.6; stroke-width: 0; opacity: 1;"/><path class="sankey-link" d="M383.70000000000005,309.2715639810428C564.3000000000001,309.2715639810428 564.3000000000001,561.3227488151659 744.9000000000001,561.3227488151659L744.9000000000001,580.7303317535547C564.3000000000001,580.7303317535547 564.3000000000001,328.6791469194314 383.70000000000005,328.6791469194314Z" style="stroke: rgb(68, 68, 68); stroke-opacity: 1; fill: rgb(171, 99, 250); fill-opacity: 0.6; stroke-width: 0; opacity: 1;"/><path class="sankey-link" d="M383.70000000000005,281.5464454976305C564.3000000000001,281.5464454976305 564.3000000000001,232.98483412322284 744.9000000000001,232.98483412322284L744.9000000000001,241.30236966824654C564.3000000000001,241.30236966824654 564.3000000000001,289.8639810426542 383.70000000000005,289.8639810426542Z" style="stroke: rgb(68, 68, 68); stroke-opacity: 1; fill: rgb(171, 99, 250); fill-opacity: 0.6; stroke-width: 0; opacity: 1;"/><path class="sankey-link" d="M383.70000000000005,339.8630331753556C564.3000000000001,339.8630331753556 564.3000000000001,86.67725118483412 744.9000000000001,86.67725118483412L744.9000000000001,108.85734597156397C564.3000000000001,108.85734597156397 564.3000000000001,362.0431279620855 383.70000000000005,362.0431279620855Z" style="stroke: rgb(68, 68, 68); stroke-opacity: 1; fill: rgb(0, 204, 150); fill-opacity: 0.6; stroke-width: 0; opacity: 1;"/><path class="sankey-link" d="M383.70000000000005,362.04312796208546C564.3000000000001,362.04312796208546 564.3000000000001,386.71421800947866 744.9000000000001,386.71421800947866L744.9000000000001,431.07440758293836C564.3000000000001,431.07440758293836 564.3000000000001,406.40331753554517 383.70000000000005,406.40331753554517Z" style="stroke: rgb(68, 68, 68); stroke-opacity: 1; fill: rgb(0, 204, 150); fill-opacity: 0.6; stroke-width: 0; opacity: 1;"/><path class="sankey-link" d="M383.70000000000005,406.40331753554517C564.3000000000001,406.40331753554517 564.3000000000001,580.7303317535545 744.9000000000001,580.7303317535545L744.9000000000001,616.7729857819907C564.3000000000001,616.7729857819907 564.3000000000001,442.4459715639812 383.70000000000005,442.4459715639812Z" style="stroke: rgb(68, 68, 68); stroke-opacity: 1; fill: rgb(0, 204, 150); fill-opacity: 0.6; stroke-width: 0; opacity: 1;"/><path class="sankey-link" d="M383.70000000000005,451.8554502369669C564.3000000000001,451.8554502369669 564.3000000000001,108.85734597156396 744.9000000000001,108.85734597156396L744.9000000000001,158.76255924170613C564.3000000000001,158.76255924170613 564.3000000000001,501.7606635071091 383.70000000000005,501.7606635071091Z" style="stroke: rgb(68, 68, 68); stroke-opacity: 1; fill: rgb(255, 161, 90); fill-opacity: 0.6; stroke-width: 0; opacity: 1;"/><path class="sankey-link" d="M383.70000000000005,537.803317535545C564.3000000000001,537.803317535545 564.3000000000001,431.07440758293836 744.9000000000001,431.07440758293836L744.9000000000001,439.39194312796207C564.3000000000001,439.39194312796207 564.3000000000001,546.1208530805687 383.70000000000005,546.1208530805687Z" style="stroke: rgb(68, 68, 68); stroke-opacity: 1; fill: rgb(255, 161, 90); fill-opacity: 0.6; stroke-width: 0; opacity: 1;"/><path class="sankey-link" d="M383.70000000000005,546.1208530805686C564.3000000000001,546.1208530805686 564.3000000000001,616.7729857819904 744.9000000000001,616.7729857819904L744.9000000000001,669.450710900474C564.3000000000001,669.450710900474 564.3000000000001,598.7985781990521 383.70000000000005,598.7985781990521Z" style="stroke: rgb(68, 68, 68); stroke-opacity: 1; fill: rgb(255, 161, 90); fill-opacity: 0.6; stroke-width: 0; opacity: 1;"/><path class="sankey-link" d="M383.70000000000005,501.7606635071091C564.3000000000001,501.7606635071091 564.3000000000001,241.30236966824657 744.9000000000001,241.30236966824657L744.9000000000001,277.3450236966826C564.3000000000001,277.3450236966826 564.3000000000001,537.8033175355451 383.70000000000005,537.8033175355451Z" style="stroke: rgb(68, 68, 68); stroke-opacity: 1; fill: rgb(255, 161, 90); fill-opacity: 0.6; stroke-width: 0; opacity: 1;"/><path class="sankey-link" d="M383.70000000000005,609.4279620853082C564.3000000000001,609.4279620853082 564.3000000000001,158.76255924170616 744.9000000000001,158.76255924170616L744.9000000000001,175.39763033175356C564.3000000000001,175.39763033175356 564.3000000000001,626.0630331753556 383.70000000000005,626.0630331753556Z" style="stroke: rgb(68, 68, 68); stroke-opacity: 1; fill: rgb(255, 151, 255); fill-opacity: 0.6; stroke-width: 0; opacity: 1;"/><path class="sankey-link" d="M383.70000000000005,634.3805687203793C564.3000000000001,634.3805687203793 564.3000000000001,439.39194312796207 744.9000000000001,439.39194312796207L744.9000000000001,444.93696682464457C564.3000000000001,444.93696682464457 564.3000000000001,639.9255924170617 383.70000000000005,639.9255924170617Z" style="stroke: rgb(68, 68, 68); stroke-opacity: 1; fill: rgb(255, 151, 255); fill-opacity: 0.6; stroke-width: 0; opacity: 1;"/><path class="sankey-link" d="M383.70000000000005,639.9255924170618C564.3000000000001,639.9255924170618 564.3000000000001,669.450710900474 744.9000000000001,669.450710900474L744.9000000000001,680.540758293839C564.3000000000001,680.540758293839 564.3000000000001,651.0156398104268 383.70000000000005,651.0156398104268Z" style="stroke: rgb(68, 68, 68); stroke-opacity: 1; fill: rgb(255, 151, 255); fill-opacity: 0.6; stroke-width: 0; opacity: 1;"/><path class="sankey-link" d="M383.70000000000005,626.0630331753556C564.3000000000001,626.0630331753556 564.3000000000001,277.3450236966826 744.9000000000001,277.3450236966826L744.9000000000001,285.6625592417063C564.3000000000001,285.6625592417063 564.3000000000001,634.3805687203793 383.70000000000005,634.3805687203793Z" style="stroke: rgb(68, 68, 68); stroke-opacity: 1; fill: rgb(255, 151, 255); fill-opacity: 0.6; stroke-width: 0; opacity: 1;"/><path class="sankey-link" d="M383.70000000000005,664.0848341232229C564.3000000000001,664.0848341232229 564.3000000000001,175.39763033175356 744.9000000000001,175.39763033175356L744.9000000000001,180.942654028436C564.3000000000001,180.942654028436 564.3000000000001,669.6298578199053 383.70000000000005,669.6298578199053Z" style="stroke: rgb(68, 68, 68); stroke-opacity: 1; fill: rgb(255, 102, 146); fill-opacity: 0.6; stroke-width: 0; opacity: 1;"/><path class="sankey-link" d="M383.70000000000005,669.6298578199054C564.3000000000001,669.6298578199054 564.3000000000001,444.9369668246445 744.9000000000001,444.9369668246445L744.9000000000001,453.2545023696682C564.3000000000001,453.2545023696682 564.3000000000001,677.9473933649291 383.70000000000005,677.9473933649291Z" style="stroke: rgb(68, 68, 68); stroke-opacity: 1; fill: rgb(255, 102, 146); fill-opacity: 0.6; stroke-width: 0; opacity: 1;"/><path class="sankey-link" d="M383.70000000000005,677.9473933649291C564.3000000000001,677.9473933649291 564.3000000000001,680.5407582938388 744.9000000000001,680.5407582938388L744.9000000000001,691.6308056872039C564.3000000000001,691.6308056872039 564.3000000000001,689.0374407582941 383.70000000000005,689.0374407582941Z" style="stroke: rgb(68, 68, 68); stroke-opacity: 1; fill: rgb(255, 102, 146); fill-opacity: 0.6; stroke-width: 0; opacity: 1;"/><path class="sankey-link" d="M383.70000000000005,702.8829383886257C564.3000000000001,702.8829383886257 564.3000000000001,691.6308056872037 744.9000000000001,691.6308056872037L744.9000000000001,694.403317535545C564.3000000000001,694.403317535545 564.3000000000001,705.655450236967 383.70000000000005,705.655450236967Z" style="stroke: rgb(68, 68, 68); stroke-opacity: 1; fill: rgb(182, 232, 128); fill-opacity: 0.6; stroke-width: 0; opacity: 1;"/></g><g class="sankey-node-set" style="cursor: ns-resize;"><g class="sankey-node" transform="translate(744.900,22.909)" style="opacity: 1;"><rect class="node-rect" width="15" height="158.03317535545023" style="stroke-width: 0.5; stroke: rgb(0, 0, 0); stroke-opacity: 1; fill: rgb(128, 128, 128); fill-opacity: 1;"/><text class="node-label" data-notex="1" x="0" y="0" text-anchor="end" transform="translate(-3.25,83.21658767772512)" style="cursor: default; font-family: 'Open Sans', verdana, arial, sans-serif; font-size: 12px; fill: rgb(42, 63, 95); fill-opacity: 1; white-space: pre; text-shadow: white 1px 1px 1px, white -1px -1px 1px, white 1px -1px 1px, white -1px 1px 1px;">Aggressor</text></g><g class="sankey-node" transform="translate(744.900,208.032)" style="opacity: 1;"><rect class="node-rect" width="15" height="77.6303317535544" style="stroke-width: 0.5; stroke: rgb(0, 0, 0); stroke-opacity: 1; fill: rgb(128, 128, 128); fill-opacity: 1;"/><text class="node-label" data-notex="1" x="0" y="0" text-anchor="end" transform="translate(-3.25,43.0151658767772)" style="cursor: default; font-family: 'Open Sans', verdana, arial, sans-serif; font-size: 12px; fill: rgb(42, 63, 95); fill-opacity: 1; white-space: pre; text-shadow: white 1px 1px 1px, white -1px -1px 1px, white 1px -1px 1px, white -1px 1px 1px;">Target of Aggression</text></g><g class="sankey-node" transform="translate(744.900,311.856)" style="opacity: 1;"><rect class="node-rect" width="15" height="141.39810426540294" style="stroke-width: 0.5; stroke: rgb(0, 0, 0); stroke-opacity: 1; fill: rgb(128, 128, 128); fill-opacity: 1;"/><text class="node-label" data-notex="1" x="0" y="0" text-anchor="end" transform="translate(-3.25,74.89905213270147)" style="cursor: default; font-family: 'Open Sans', verdana, arial, sans-serif; font-size: 12px; fill: rgb(42, 63, 95); fill-opacity: 1; white-space: pre; text-shadow: white 1px 1px 1px, white -1px -1px 1px, white 1px -1px 1px, white -1px 1px 1px;">NonSocial</text></g><g class="sankey-node" transform="translate(744.900,486.465)" style="opacity: 1;"><rect class="node-rect" width="15" height="207.93838862559238" style="stroke-width: 0.5; stroke: rgb(0, 0, 0); stroke-opacity: 1; fill: rgb(128, 128, 128); fill-opacity: 1;"/><text class="node-label" data-notex="1" x="0" y="0" text-anchor="end" transform="translate(-3.25,108.1691943127962)" style="cursor: default; font-family: 'Open Sans', verdana, arial, sans-serif; font-size: 12px; fill: rgb(42, 63, 95); fill-opacity: 1; white-space: pre; text-shadow: white 1px 1px 1px, white -1px -1px 1px, white 1px -1px 1px, white -1px 1px 1px;">Social</text></g><g class="sankey-node" transform="translate(368.700,14.012)" style="opacity: 1;"><rect class="node-rect" width="15" height="19.407582938388597" style="stroke-width: 0.5; stroke: rgb(0, 0, 0); stroke-opacity: 1; fill: rgb(25, 211, 243); fill-opacity: 1;"/><text class="node-label" data-notex="1" x="0" y="0" text-anchor="start" transform="translate(18.25,13.903791469194298)" style="cursor: default; font-family: 'Open Sans', verdana, arial, sans-serif; font-size: 12px; fill: rgb(42, 63, 95); fill-opacity: 1; white-space: pre; text-shadow: white 1px 1px 1px, white -1px -1px 1px, white 1px -1px 1px, white -1px 1px 1px;">BLA</text></g><g class="sankey-node" transform="translate(368.700,45.601)" style="opacity: 1;"><rect class="node-rect" width="15" height="91.49289099526071" style="stroke-width: 0.5; stroke: rgb(0, 0, 0); stroke-opacity: 1; fill: rgb(99, 110, 250); fill-opacity: 1;"/><text class="node-label" data-notex="1" x="0" y="0" text-anchor="start" transform="translate(18.25,49.94644549763035)" style="cursor: default; font-family: 'Open Sans', verdana, arial, sans-serif; font-size: 12px; fill: rgb(42, 63, 95); fill-opacity: 1; white-space: pre; text-shadow: white 1px 1px 1px, white -1px -1px 1px, white 1px -1px 1px, white -1px 1px 1px;">Cla</text></g><g class="sankey-node" transform="translate(368.700,148.167)" style="opacity: 1;"><rect class="node-rect" width="15" height="74.85781990521343" style="stroke-width: 0.5; stroke: rgb(0, 0, 0); stroke-opacity: 1; fill: rgb(239, 85, 59); fill-opacity: 1;"/><text class="node-label" data-notex="1" x="0" y="0" text-anchor="start" transform="translate(18.25,41.62890995260672)" style="cursor: default; font-family: 'Open Sans', verdana, arial, sans-serif; font-size: 12px; fill: rgb(42, 63, 95); fill-opacity: 1; white-space: pre; text-shadow: white 1px 1px 1px, white -1px -1px 1px, white 1px -1px 1px, white -1px 1px 1px;">LC</text></g><g class="sankey-node" transform="translate(368.700,235.484)" style="opacity: 1;"><rect class="node-rect" width="15" height="22.180094786729853" style="stroke-width: 0.5; stroke: rgb(0, 0, 0); stroke-opacity: 1; fill: rgb(254, 203, 82); fill-opacity: 1;"/><text class="node-label" data-notex="1" x="0" y="0" text-anchor="start" transform="translate(18.25,15.290047393364926)" style="cursor: default; font-family: 'Open Sans', verdana, arial, sans-serif; font-size: 12px; fill: rgb(42, 63, 95); fill-opacity: 1; white-space: pre; text-shadow: white 1px 1px 1px, white -1px -1px 1px, white 1px -1px 1px, white -1px 1px 1px;">LHyp</text></g><g class="sankey-node" transform="translate(368.700,270.456)" style="opacity: 1;"><rect class="node-rect" width="15" height="58.2227488151658" style="stroke-width: 0.5; stroke: rgb(0, 0, 0); stroke-opacity: 1; fill: rgb(171, 99, 250); fill-opacity: 1;"/><text class="node-label" data-notex="1" x="0" y="0" text-anchor="start" transform="translate(18.25,33.3113744075829)" style="cursor: default; font-family: 'Open Sans', verdana, arial, sans-serif; font-size: 12px; fill: rgb(42, 63, 95); fill-opacity: 1; white-space: pre; text-shadow: white 1px 1px 1px, white -1px -1px 1px, white 1px -1px 1px, white -1px 1px 1px;">NAc</text></g><g class="sankey-node" transform="translate(368.700,339.863)" style="opacity: 1;"><rect class="node-rect" width="15" height="102.58293838862551" style="stroke-width: 0.5; stroke: rgb(0, 0, 0); stroke-opacity: 1; fill: rgb(0, 204, 150); fill-opacity: 1;"/><text class="node-label" data-notex="1" x="0" y="0" text-anchor="start" transform="translate(18.25,55.49146919431276)" style="cursor: default; font-family: 'Open Sans', verdana, arial, sans-serif; font-size: 12px; fill: rgb(42, 63, 95); fill-opacity: 1; white-space: pre; text-shadow: white 1px 1px 1px, white -1px -1px 1px, white 1px -1px 1px, white -1px 1px 1px;">Str</text></g><g class="sankey-node" transform="translate(368.700,451.855)" style="opacity: 1;"><rect class="node-rect" width="15" height="146.9431279620855" style="stroke-width: 0.5; stroke: rgb(0, 0, 0); stroke-opacity: 1; fill: rgb(255, 161, 90); fill-opacity: 1;"/><text class="node-label" data-notex="1" x="0" y="0" text-anchor="start" transform="translate(18.25,77.67156398104275)" style="cursor: default; font-family: 'Open Sans', verdana, arial, sans-serif; font-size: 12px; fill: rgb(42, 63, 95); fill-opacity: 1; white-space: pre; text-shadow: white 1px 1px 1px, white -1px -1px 1px, white 1px -1px 1px, white -1px 1px 1px;">VTA</text></g><g class="sankey-node" transform="translate(368.700,609.428)" style="opacity: 1;"><rect class="node-rect" width="15" height="41.58767772511851" style="stroke-width: 0.5; stroke: rgb(0, 0, 0); stroke-opacity: 1; fill: rgb(255, 151, 255); fill-opacity: 1;"/><text class="node-label" data-notex="1" x="0" y="0" text-anchor="start" transform="translate(18.25,24.993838862559254)" style="cursor: default; font-family: 'Open Sans', verdana, arial, sans-serif; font-size: 12px; fill: rgb(42, 63, 95); fill-opacity: 1; white-space: pre; text-shadow: white 1px 1px 1px, white -1px -1px 1px, white 1px -1px 1px, white -1px 1px 1px;">cPFC</text></g><g class="sankey-node" transform="translate(368.700,664.085)" style="opacity: 1;"><rect class="node-rect" width="15" height="24.95260663507088" style="stroke-width: 0.5; stroke: rgb(0, 0, 0); stroke-opacity: 1; fill: rgb(255, 102, 146); fill-opacity: 1;"/><text class="node-label" data-notex="1" x="0" y="0" text-anchor="start" transform="translate(18.25,16.67630331753544)" style="cursor: default; font-family: 'Open Sans', verdana, arial, sans-serif; font-size: 12px; fill: rgb(42, 63, 95); fill-opacity: 1; white-space: pre; text-shadow: white 1px 1px 1px, white -1px -1px 1px, white 1px -1px 1px, white -1px 1px 1px;">dPAG</text></g><g class="sankey-node" transform="translate(368.700,702.883)" style="opacity: 1;"><rect class="node-rect" width="15" height="2.7725118483410824" style="stroke-width: 0.5; stroke: rgb(0, 0, 0); stroke-opacity: 1; fill: rgb(182, 232, 128); fill-opacity: 1;"/><text class="node-label" data-notex="1" x="0" y="0" text-anchor="start" transform="translate(18.25,5.5862559241705405)" style="cursor: default; font-family: 'Open Sans', verdana, arial, sans-serif; font-size: 12px; fill: rgb(42, 63, 95); fill-opacity: 1; white-space: pre; text-shadow: white 1px 1px 1px, white -1px -1px 1px, white 1px -1px 1px, white -1px 1px 1px;">lHb</text></g></g></g><defs id="topdefs-e5b813"><g class="clips"/></defs><g class="layer-above"><g class="imagelayer"/><g class="shapelayer"/></g><g class="infolayer"><g class="g-gtitle"/><g class="first-render"/></g></svg>