<svg class="main-svg" xmlns="http://www.w3.org/2000/svg" xmlns:xlink="http://www.w3.org/1999/xlink" width="1300" height="900" style="" viewBox="0 0 1300 900"><rect x="0" y="0" width="1300" height="900" style="fill: rgb(255, 255, 255); fill-opacity: 1;"/><defs id="defs-fe6ae7"><g class="clips"/><g class="gradients"/><g class="patterns"/></defs><g class="bglayer"/><g class="layer-below"><g class="imagelayer"/><g class="shapelayer"/></g><g class="cartesianlayer"/><g class="polarlayer"/><g class="smithlayer"/><g class="ternarylayer"/><g class="geolayer"/><g class="funnelarealayer"/><g class="pielayer"/><g class="iciclelayer"/><g class="treemaplayer"/><g class="sunburstlayer"/><g class="glimages"/><g class="sankey" transform="translate(80,100)matrix(1 0 0 1 0 0)" style="box-sizing: content-box; position: absolute; left: 0px; shape-rendering: geometricprecision; pointer-events: none;"><g class="sankey-links" style="fill: none;"><path class="sankey-link" d="M15,458.7440758293844C570,458.7440758293844 570,549.7393364928907 1125,549.7393364928907L1125,555.2843601895731C570,555.2843601895731 570,464.28909952606693 15,464.28909952606693Z" style="stroke: rgb(68, 68, 68); stroke-opacity: 1; fill: rgb(25, 211, 243); fill-opacity: 0.6; stroke-width: 0; opacity: 1;"/><path class="sankey-link" d="M15,444.8815165876782C570,444.8815165876782 570,214.7630331753551 1125,214.7630331753551L1125,217.53554502369636C570,217.53554502369636 570,447.6540284360194 15,447.6540284360194Z" style="stroke: rgb(68, 68, 68); stroke-opacity: 1; fill: rgb(25, 211, 243); fill-opacity: 0.6; stroke-width: 0; opacity: 1;"/><path class="sankey-link" d="M15,447.6540284360195C570,447.6540284360195 570,373.9336492890992 1125,373.9336492890992L1125,385.0236966824641C570,385.0236966824641 570,458.74407582938437 15,458.74407582938437Z" style="stroke: rgb(68, 68, 68); stroke-opacity: 1; fill: rgb(25, 211, 243); fill-opacity: 0.6; stroke-width: 0; opacity: 1;"/><path class="sankey-link" d="M15,376.06635071090125C570,376.06635071090125 570,524.7867298578196 1125,524.7867298578196L1125,549.7393364928907C570,549.7393364928907 570,401.01895734597235 15,401.01895734597235Z" style="stroke: rgb(68, 68, 68); stroke-opacity: 1; fill: rgb(99, 110, 250); fill-opacity: 0.6; stroke-width: 0; opacity: 1;"/><path class="sankey-link" d="M15,320.6161137440766C570,320.6161137440766 570,189.81042654028403 1125,189.81042654028403L1125,214.76303317535513C570,214.76303317535513 570,345.5687203791477 15,345.5687203791477Z" style="stroke: rgb(68, 68, 68); stroke-opacity: 1; fill: rgb(99, 110, 250); fill-opacity: 0.6; stroke-width: 0; opacity: 1;"/><path class="sankey-link" d="M15,345.5687203791477C570,345.5687203791477 570,340.6635071090044 1125,340.6635071090044L1125,371.1611374407579C570,371.1611374407579 570,376.0663507109012 15,376.0663507109012Z" style="stroke: rgb(68, 68, 68); stroke-opacity: 1; fill: rgb(99, 110, 250); fill-opacity: 0.6; stroke-width: 0; opacity: 1;"/><path class="sankey-link" d="M15,401.01895734597235C570,401.01895734597235 570,653.45971563981 1125,653.45971563981L1125,664.549763033175C570,664.549763033175 570,412.10900473933725 15,412.10900473933725Z" style="stroke: rgb(68, 68, 68); stroke-opacity: 1; fill: rgb(99, 110, 250); fill-opacity: 0.6; stroke-width: 0; opacity: 1;"/><path class="sankey-link" d="M15,173.0331753554513C570,173.0331753554513 570,491.5165876777249 1125,491.5165876777249L1125,508.1516587677723C570,508.1516587677723 570,189.6682464454987 15,189.6682464454987Z" style="stroke: rgb(68, 68, 68); stroke-opacity: 1; fill: rgb(239, 85, 59); fill-opacity: 0.6; stroke-width: 0; opacity: 1;"/><path class="sankey-link" d="M15,117.58293838862663C570,117.58293838862663 570,134.36018957345937 1125,134.36018957345937L1125,162.08530805687167C570,162.08530805687167 570,145.30805687203895 15,145.30805687203895Z" style="stroke: rgb(68, 68, 68); stroke-opacity: 1; fill: rgb(239, 85, 59); fill-opacity: 0.6; stroke-width: 0; opacity: 1;"/><path class="sankey-link" d="M15,145.30805687203897C570,145.30805687203897 570,282.44075829383854 1125,282.44075829383854L1125,310.16587677725084C570,310.16587677725084 570,173.03317535545128 15,173.03317535545128Z" style="stroke: rgb(68, 68, 68); stroke-opacity: 1; fill: rgb(239, 85, 59); fill-opacity: 0.6; stroke-width: 0; opacity: 1;"/><path class="sankey-link" d="M15,189.6682464454987C570,189.6682464454987 570,642.3696682464451 1125,642.3696682464451L1125,645.1421800947865C570,645.1421800947865 570,192.44075829383996 15,192.44075829383996Z" style="stroke: rgb(68, 68, 68); stroke-opacity: 1; fill: rgb(239, 85, 59); fill-opacity: 0.6; stroke-width: 0; opacity: 1;"/><path class="sankey-link" d="M15,703.3649289099527C570,703.3649289099527 570,621.8246445497629 1125,621.8246445497629L1125,627.3696682464453C570,627.3696682464453 570,708.9099526066351 15,708.9099526066351Z" style="stroke: rgb(68, 68, 68); stroke-opacity: 1; fill: rgb(254, 203, 82); fill-opacity: 0.6; stroke-width: 0; opacity: 1;"/><path class="sankey-link" d="M15,697.8199052132702C570,697.8199052132702 570,448.7914691943125 1125,448.7914691943125L1125,454.33649289099503C570,454.33649289099503 570,703.3649289099526 15,703.3649289099526Z" style="stroke: rgb(68, 68, 68); stroke-opacity: 1; fill: rgb(254, 203, 82); fill-opacity: 0.6; stroke-width: 0; opacity: 1;"/><path class="sankey-link" d="M15,708.9099526066352C570,708.9099526066352 570,708.9099526066346 1125,708.9099526066346L1125,719.9999999999997C570,719.9999999999997 570,720.0000000000002 15,720.0000000000002Z" style="stroke: rgb(68, 68, 68); stroke-opacity: 1; fill: rgb(254, 203, 82); fill-opacity: 0.6; stroke-width: 0; opacity: 1;"/><path class="sankey-link" d="M15,286.2085308056881C570,286.2085308056881 570,513.6966824644547 1125,513.6966824644547L1125,524.7867298578198C570,524.7867298578198 570,297.298578199053 15,297.298578199053Z" style="stroke: rgb(68, 68, 68); stroke-opacity: 1; fill: rgb(171, 99, 250); fill-opacity: 0.6; stroke-width: 0; opacity: 1;"/><path class="sankey-link" d="M15,247.3933649289109C570,247.3933649289109 570,170.4028436018954 1125,170.4028436018954L1125,189.810426540284C570,189.810426540284 570,266.8009478672995 15,266.8009478672995Z" style="stroke: rgb(68, 68, 68); stroke-opacity: 1; fill: rgb(171, 99, 250); fill-opacity: 0.6; stroke-width: 0; opacity: 1;"/><path class="sankey-link" d="M15,266.8009478672995C570,266.8009478672995 570,321.2559241706158 1125,321.2559241706158L1125,340.6635071090044C570,340.6635071090044 570,286.2085308056881 15,286.2085308056881Z" style="stroke: rgb(68, 68, 68); stroke-opacity: 1; fill: rgb(171, 99, 250); fill-opacity: 0.6; stroke-width: 0; opacity: 1;"/><path class="sankey-link" d="M15,297.29857819905305C570,297.29857819905305 570,645.1421800947863 1125,645.1421800947863L1125,653.45971563981C570,653.45971563981 570,305.61611374407676 15,305.61611374407676Z" style="stroke: rgb(68, 68, 68); stroke-opacity: 1; fill: rgb(171, 99, 250); fill-opacity: 0.6; stroke-width: 0; opacity: 1;"/><path class="sankey-link" d="M15,80.40284360189693C570,80.40284360189693 570,469.33649289099503 1125,469.33649289099503L1125,491.51658767772494C570,491.51658767772494 570,102.58293838862679 15,102.58293838862679Z" style="stroke: rgb(68, 68, 68); stroke-opacity: 1; fill: rgb(0, 204, 150); fill-opacity: 0.6; stroke-width: 0; opacity: 1;"/><path class="sankey-link" d="M15,1.1937117960769683e-12C570,1.1937117960769683e-12 570,89.99999999999966 1125,89.99999999999966L1125,134.36018957345937C570,134.36018957345937 570,44.36018957346091 15,44.36018957346091Z" style="stroke: rgb(68, 68, 68); stroke-opacity: 1; fill: rgb(0, 204, 150); fill-opacity: 0.6; stroke-width: 0; opacity: 1;"/><path class="sankey-link" d="M15,44.36018957346091C570,44.36018957346091 570,246.39810426540254 1125,246.39810426540254L1125,282.44075829383854C570,282.44075829383854 570,80.40284360189693 15,80.40284360189693Z" style="stroke: rgb(68, 68, 68); stroke-opacity: 1; fill: rgb(0, 204, 150); fill-opacity: 0.6; stroke-width: 0; opacity: 1;"/><path class="sankey-link" d="M15,540.2843601895738C570,540.2843601895738 570,555.2843601895732 1125,555.2843601895732L1125,605.1895734597155C570,605.1895734597155 570,590.189573459716 15,590.189573459716Z" style="stroke: rgb(68, 68, 68); stroke-opacity: 1; fill: rgb(255, 161, 90); fill-opacity: 0.6; stroke-width: 0; opacity: 1;"/><path class="sankey-link" d="M15,479.2890995260667C570,479.2890995260667 570,217.53554502369633 1125,217.53554502369633L1125,225.85308056872003C570,225.85308056872003 570,487.6066350710904 15,487.6066350710904Z" style="stroke: rgb(68, 68, 68); stroke-opacity: 1; fill: rgb(255, 161, 90); fill-opacity: 0.6; stroke-width: 0; opacity: 1;"/><path class="sankey-link" d="M15,487.60663507109035C570,487.60663507109035 570,385.02369668246416 1125,385.02369668246416L1125,437.70142180094757C570,437.70142180094757 570,540.2843601895738 15,540.2843601895738Z" style="stroke: rgb(68, 68, 68); stroke-opacity: 1; fill: rgb(255, 161, 90); fill-opacity: 0.6; stroke-width: 0; opacity: 1;"/><path class="sankey-link" d="M15,590.189573459716C570,590.189573459716 570,664.5497630331749 1125,664.5497630331749L1125,700.5924170616111C570,700.5924170616111 570,626.2322274881521 15,626.2322274881521Z" style="stroke: rgb(68, 68, 68); stroke-opacity: 1; fill: rgb(255, 161, 90); fill-opacity: 0.6; stroke-width: 0; opacity: 1;"/><path class="sankey-link" d="M15,657.8672985781993C570,657.8672985781993 570,605.1895734597155 1125,605.1895734597155L1125,621.8246445497629C570,621.8246445497629 570,674.5023696682467 15,674.5023696682467Z" style="stroke: rgb(68, 68, 68); stroke-opacity: 1; fill: rgb(255, 151, 255); fill-opacity: 0.6; stroke-width: 0; opacity: 1;"/><path class="sankey-link" d="M15,641.2322274881519C570,641.2322274881519 570,225.85308056872003 1125,225.85308056872003L1125,231.39810426540248C570,231.39810426540248 570,646.7772511848343 15,646.7772511848343Z" style="stroke: rgb(68, 68, 68); stroke-opacity: 1; fill: rgb(255, 151, 255); fill-opacity: 0.6; stroke-width: 0; opacity: 1;"/><path class="sankey-link" d="M15,646.7772511848344C570,646.7772511848344 570,437.70142180094757 1125,437.70142180094757L1125,448.79146919431247C570,448.79146919431247 570,657.8672985781994 15,657.8672985781994Z" style="stroke: rgb(68, 68, 68); stroke-opacity: 1; fill: rgb(255, 151, 255); fill-opacity: 0.6; stroke-width: 0; opacity: 1;"/><path class="sankey-link" d="M15,674.5023696682467C570,674.5023696682467 570,700.592417061611 1125,700.592417061611L1125,708.9099526066346C570,708.9099526066346 570,682.8199052132704 15,682.8199052132704Z" style="stroke: rgb(68, 68, 68); stroke-opacity: 1; fill: rgb(255, 151, 255); fill-opacity: 0.6; stroke-width: 0; opacity: 1;"/><path class="sankey-link" d="M15,226.84834123222842C570,226.84834123222842 570,508.1516587677723 1125,508.1516587677723L1125,513.6966824644547C570,513.6966824644547 570,232.39336492891087 15,232.39336492891087Z" style="stroke: rgb(68, 68, 68); stroke-opacity: 1; fill: rgb(255, 102, 146); fill-opacity: 0.6; stroke-width: 0; opacity: 1;"/><path class="sankey-link" d="M15,207.4407582938398C570,207.4407582938398 570,162.0853080568717 1125,162.0853080568717L1125,170.4028436018954C570,170.4028436018954 570,215.7582938388635 15,215.7582938388635Z" style="stroke: rgb(68, 68, 68); stroke-opacity: 1; fill: rgb(255, 102, 146); fill-opacity: 0.6; stroke-width: 0; opacity: 1;"/><path class="sankey-link" d="M15,215.7582938388635C570,215.7582938388635 570,310.16587677725084 1125,310.16587677725084L1125,321.25592417061574C570,321.25592417061574 570,226.84834123222845 15,226.84834123222845Z" style="stroke: rgb(68, 68, 68); stroke-opacity: 1; fill: rgb(255, 102, 146); fill-opacity: 0.6; stroke-width: 0; opacity: 1;"/><path class="sankey-link" d="M15,427.109004739337C570,427.109004739337 570,371.16113744075795 1125,371.16113744075795L1125,373.93364928909915C570,373.93364928909915 570,429.8815165876782 15,429.8815165876782Z" style="stroke: rgb(68, 68, 68); stroke-opacity: 1; fill: rgb(182, 232, 128); fill-opacity: 0.6; stroke-width: 0; opacity: 1;"/></g><g class="sankey-node-set" style="cursor: move;"><g class="sankey-node" transform="translate(1125.000,469.336)" style="opacity: 1;"><rect class="node-rect" width="15" height="158.0331753554501" style="stroke-width: 0.5; stroke: rgb(0, 0, 0); stroke-opacity: 1; fill: rgb(128, 128, 128); fill-opacity: 1;"/><text class="node-label" data-notex="1" x="0" y="0" text-anchor="end" transform="translate(-3.25,83.21658767772506)" style="cursor: default; font-family: 'Open Sans', verdana, arial, sans-serif; font-size: 12px; fill: rgb(42, 63, 95); fill-opacity: 1; white-space: pre; text-shadow: white 1px 1px 1px, white -1px -1px 1px, white 1px -1px 1px, white -1px 1px 1px;">Aggressor</text></g><g class="sankey-node" transform="translate(1125.000,90.000)" style="opacity: 1;"><rect class="node-rect" width="15" height="141.39810426540288" style="stroke-width: 0.5; stroke: rgb(0, 0, 0); stroke-opacity: 1; fill: rgb(128, 128, 128); fill-opacity: 1;"/><text class="node-label" data-notex="1" x="0" y="0" text-anchor="end" transform="translate(-3.25,74.89905213270144)" style="cursor: default; font-family: 'Open Sans', verdana, arial, sans-serif; font-size: 12px; fill: rgb(42, 63, 95); fill-opacity: 1; white-space: pre; text-shadow: white 1px 1px 1px, white -1px -1px 1px, white 1px -1px 1px, white -1px 1px 1px;">NonSocial</text></g><g class="sankey-node" transform="translate(1125.000,246.398)" style="opacity: 1;"><rect class="node-rect" width="15" height="207.9383886255925" style="stroke-width: 0.5; stroke: rgb(0, 0, 0); stroke-opacity: 1; fill: rgb(128, 128, 128); fill-opacity: 1;"/><text class="node-label" data-notex="1" x="0" y="0" text-anchor="end" transform="translate(-3.25,108.16919431279625)" style="cursor: default; font-family: 'Open Sans', verdana, arial, sans-serif; font-size: 12px; fill: rgb(42, 63, 95); fill-opacity: 1; white-space: pre; text-shadow: white 1px 1px 1px, white -1px -1px 1px, white 1px -1px 1px, white -1px 1px 1px;">Social</text></g><g class="sankey-node" transform="translate(1125.000,642.370)" style="opacity: 1;"><rect class="node-rect" width="15" height="77.63033175355486" style="stroke-width: 0.5; stroke: rgb(0, 0, 0); stroke-opacity: 1; fill: rgb(128, 128, 128); fill-opacity: 1;"/><text class="node-label" data-notex="1" x="0" y="0" text-anchor="end" transform="translate(-3.25,43.01516587677743)" style="cursor: default; font-family: 'Open Sans', verdana, arial, sans-serif; font-size: 12px; fill: rgb(42, 63, 95); fill-opacity: 1; white-space: pre; text-shadow: white 1px 1px 1px, white -1px -1px 1px, white 1px -1px 1px, white -1px 1px 1px;">Target of Aggression</text></g><g class="sankey-node" transform="translate(0.000,320.616)" style="opacity: 1;"><rect class="node-rect" width="15" height="91.49289099526044" style="stroke-width: 0.5; stroke: rgb(0, 0, 0); stroke-opacity: 1; fill: rgb(99, 110, 250); fill-opacity: 1;"/><text class="node-label" data-notex="1" x="0" y="0" text-anchor="start" transform="translate(18.25,49.94644549763022)" style="cursor: default; font-family: 'Open Sans', verdana, arial, sans-serif; font-size: 12px; fill: rgb(42, 63, 95); fill-opacity: 1; white-space: pre; text-shadow: white 1px 1px 1px, white -1px -1px 1px, white 1px -1px 1px, white -1px 1px 1px;">Cla</text></g><g class="sankey-node" transform="translate(0.000,117.583)" style="opacity: 1;"><rect class="node-rect" width="15" height="74.85781990521315" style="stroke-width: 0.5; stroke: rgb(0, 0, 0); stroke-opacity: 1; fill: rgb(239, 85, 59); fill-opacity: 1;"/><text class="node-label" data-notex="1" x="0" y="0" text-anchor="start" transform="translate(18.25,41.62890995260658)" style="cursor: default; font-family: 'Open Sans', verdana, arial, sans-serif; font-size: 12px; fill: rgb(42, 63, 95); fill-opacity: 1; white-space: pre; text-shadow: white 1px 1px 1px, white -1px -1px 1px, white 1px -1px 1px, white -1px 1px 1px;">LC</text></g><g class="sankey-node" transform="translate(0.000,0.000)" style="opacity: 1;"><rect class="node-rect" width="15" height="102.58293838862545" style="stroke-width: 0.5; stroke: rgb(0, 0, 0); stroke-opacity: 1; fill: rgb(0, 204, 150); fill-opacity: 1;"/><text class="node-label" data-notex="1" x="0" y="0" text-anchor="start" transform="translate(18.25,55.49146919431273)" style="cursor: default; font-family: 'Open Sans', verdana, arial, sans-serif; font-size: 12px; fill: rgb(42, 63, 95); fill-opacity: 1; white-space: pre; text-shadow: white 1px 1px 1px, white -1px -1px 1px, white 1px -1px 1px, white -1px 1px 1px;">Str</text></g><g class="sankey-node" transform="translate(0.000,247.393)" style="opacity: 1;"><rect class="node-rect" width="15" height="58.22274881516569" style="stroke-width: 0.5; stroke: rgb(0, 0, 0); stroke-opacity: 1; fill: rgb(171, 99, 250); fill-opacity: 1;"/><text class="node-label" data-notex="1" x="0" y="0" text-anchor="start" transform="translate(18.25,33.311374407582846)" style="cursor: default; font-family: 'Open Sans', verdana, arial, sans-serif; font-size: 12px; fill: rgb(42, 63, 95); fill-opacity: 1; white-space: pre; text-shadow: white 1px 1px 1px, white -1px -1px 1px, white 1px -1px 1px, white -1px 1px 1px;">NAc</text></g><g class="sankey-node" transform="translate(0.000,479.289)" style="opacity: 1;"><rect class="node-rect" width="15" height="146.9431279620852" style="stroke-width: 0.5; stroke: rgb(0, 0, 0); stroke-opacity: 1; fill: rgb(255, 161, 90); fill-opacity: 1;"/><text class="node-label" data-notex="1" x="0" y="0" text-anchor="start" transform="translate(18.25,77.67156398104261)" style="cursor: default; font-family: 'Open Sans', verdana, arial, sans-serif; font-size: 12px; fill: rgb(42, 63, 95); fill-opacity: 1; white-space: pre; text-shadow: white 1px 1px 1px, white -1px -1px 1px, white 1px -1px 1px, white -1px 1px 1px;">VTA</text></g><g class="sankey-node" transform="translate(0.000,444.882)" style="opacity: 1;"><rect class="node-rect" width="15" height="19.407582938388487" style="stroke-width: 0.5; stroke: rgb(0, 0, 0); stroke-opacity: 1; fill: rgb(25, 211, 243); fill-opacity: 1;"/><text class="node-label" data-notex="1" x="0" y="0" text-anchor="start" transform="translate(18.25,13.903791469194243)" style="cursor: default; font-family: 'Open Sans', verdana, arial, sans-serif; font-size: 12px; fill: rgb(42, 63, 95); fill-opacity: 1; white-space: pre; text-shadow: white 1px 1px 1px, white -1px -1px 1px, white 1px -1px 1px, white -1px 1px 1px;">BLA</text></g><g class="sankey-node" transform="translate(0.000,207.441)" style="opacity: 1;"><rect class="node-rect" width="15" height="24.952606635071106" style="stroke-width: 0.5; stroke: rgb(0, 0, 0); stroke-opacity: 1; fill: rgb(255, 102, 146); fill-opacity: 1;"/><text class="node-label" data-notex="1" x="0" y="0" text-anchor="start" transform="translate(18.25,16.676303317535552)" style="cursor: default; font-family: 'Open Sans', verdana, arial, sans-serif; font-size: 12px; fill: rgb(42, 63, 95); fill-opacity: 1; white-space: pre; text-shadow: white 1px 1px 1px, white -1px -1px 1px, white 1px -1px 1px, white -1px 1px 1px;">dPAG</text></g><g class="sankey-node" transform="translate(0.000,427.109)" style="opacity: 1;"><rect class="node-rect" width="15" height="2.772511848341196" style="stroke-width: 0.5; stroke: rgb(0, 0, 0); stroke-opacity: 1; fill: rgb(182, 232, 128); fill-opacity: 1;"/><text class="node-label" data-notex="1" x="0" y="0" text-anchor="start" transform="translate(18.25,5.586255924170597)" style="cursor: default; font-family: 'Open Sans', verdana, arial, sans-serif; font-size: 12px; fill: rgb(42, 63, 95); fill-opacity: 1; white-space: pre; text-shadow: white 1px 1px 1px, white -1px -1px 1px, white 1px -1px 1px, white -1px 1px 1px;">lHb</text></g><g class="sankey-node" transform="translate(0.000,641.232)" style="opacity: 1;"><rect class="node-rect" width="15" height="41.58767772511828" style="stroke-width: 0.5; stroke: rgb(0, 0, 0); stroke-opacity: 1; fill: rgb(255, 151, 255); fill-opacity: 1;"/><text class="node-label" data-notex="1" x="0" y="0" text-anchor="start" transform="translate(18.25,24.99383886255914)" style="cursor: default; font-family: 'Open Sans', verdana, arial, sans-serif; font-size: 12px; fill: rgb(42, 63, 95); fill-opacity: 1; white-space: pre; text-shadow: white 1px 1px 1px, white -1px -1px 1px, white 1px -1px 1px, white -1px 1px 1px;">cPFC</text></g><g class="sankey-node" transform="translate(0.000,697.820)" style="opacity: 1;"><rect class="node-rect" width="15" height="22.180094786729796" style="stroke-width: 0.5; stroke: rgb(0, 0, 0); stroke-opacity: 1; fill: rgb(254, 203, 82); fill-opacity: 1;"/><text class="node-label" data-notex="1" x="0" y="0" text-anchor="start" transform="translate(18.25,15.290047393364897)" style="cursor: default; font-family: 'Open Sans', verdana, arial, sans-serif; font-size: 12px; fill: rgb(42, 63, 95); fill-opacity: 1; white-space: pre; text-shadow: white 1px 1px 1px, white -1px -1px 1px, white 1px -1px 1px, white -1px 1px 1px;">LHyp</text></g></g></g><defs id="topdefs-fe6ae7"><g class="clips"/></defs><g class="layer-above"><g class="imagelayer"/><g class="shapelayer"/></g><g class="infolayer"><g class="g-gtitle"/><g class="first-render"/></g></svg>