<svg class="main-svg" xmlns="http://www.w3.org/2000/svg" xmlns:xlink="http://www.w3.org/1999/xlink" width="1300" height="900" style="" viewBox="0 0 1300 900"><rect x="0" y="0" width="1300" height="900" style="fill: rgb(255, 255, 255); fill-opacity: 1;"/><defs id="defs-ec51c6"><g class="clips"/><g class="gradients"/><g class="patterns"/></defs><g class="bglayer"/><g class="layer-below"><g class="imagelayer"/><g class="shapelayer"/></g><g class="cartesianlayer"/><g class="polarlayer"/><g class="smithlayer"/><g class="ternarylayer"/><g class="geolayer"/><g class="funnelarealayer"/><g class="pielayer"/><g class="iciclelayer"/><g class="treemaplayer"/><g class="sunburstlayer"/><g class="glimages"/><g class="sankey" transform="translate(80,100)matrix(1 0 0 1 0 0)" style="box-sizing: content-box; position: absolute; left: 0px; shape-rendering: geometricprecision; pointer-events: none;"><g class="sankey-links" style="fill: none;"><path class="sankey-link" d="M383.70000000000005,13.758227848101251C564.3000000000001,13.758227848101251 564.3000000000001,23.43797468354441 744.9000000000001,23.43797468354441L744.9000000000001,33.3113924050634C564.3000000000001,33.3113924050634 564.3000000000001,23.63164556962024 383.70000000000005,23.63164556962024Z" style="stroke: rgb(68, 68, 68); stroke-opacity: 1; fill: rgb(25, 211, 243); fill-opacity: 0.6; stroke-width: 0; opacity: 1;"/><path class="sankey-link" d="M383.70000000000005,23.631645569620236C564.3000000000001,23.631645569620236 564.3000000000001,319.2569620253164 744.9000000000001,319.2569620253164L744.9000000000001,336.5354430379746C564.3000000000001,336.5354430379746 564.3000000000001,40.910126582278465 383.70000000000005,40.910126582278465Z" style="stroke: rgb(68, 68, 68); stroke-opacity: 1; fill: rgb(25, 211, 243); fill-opacity: 0.6; stroke-width: 0; opacity: 1;"/><path class="sankey-link" d="M383.70000000000005,40.910126582278465C564.3000000000001,40.910126582278465 564.3000000000001,502.7012658227847 744.9000000000001,502.7012658227847L744.9000000000001,507.6379746835442C564.3000000000001,507.6379746835442 564.3000000000001,45.84683544303796 383.70000000000005,45.84683544303796Z" style="stroke: rgb(68, 68, 68); stroke-opacity: 1; fill: rgb(25, 211, 243); fill-opacity: 0.6; stroke-width: 0; opacity: 1;"/><path class="sankey-link" d="M383.70000000000005,57.82784810126579C564.3000000000001,57.82784810126579 564.3000000000001,33.3113924050634 744.9000000000001,33.3113924050634L744.9000000000001,62.93164556962036C564.3000000000001,62.93164556962036 564.3000000000001,87.44810126582276 383.70000000000005,87.44810126582276Z" style="stroke: rgb(68, 68, 68); stroke-opacity: 1; fill: rgb(0, 204, 150); fill-opacity: 0.6; stroke-width: 0; opacity: 1;"/><path class="sankey-link" d="M383.70000000000005,99.78987341772148C564.3000000000001,99.78987341772148 564.3000000000001,336.53544303797463 744.9000000000001,336.53544303797463L744.9000000000001,361.2189873417721C564.3000000000001,361.2189873417721 564.3000000000001,124.47341772151896 383.70000000000005,124.47341772151896Z" style="stroke: rgb(68, 68, 68); stroke-opacity: 1; fill: rgb(0, 204, 150); fill-opacity: 0.6; stroke-width: 0; opacity: 1;"/><path class="sankey-link" d="M383.70000000000005,124.47341772151896C564.3000000000001,124.47341772151896 564.3000000000001,507.6379746835442 744.9000000000001,507.6379746835442L744.9000000000001,529.8531645569619C564.3000000000001,529.8531645569619 564.3000000000001,146.68860759493668 383.70000000000005,146.68860759493668Z" style="stroke: rgb(68, 68, 68); stroke-opacity: 1; fill: rgb(0, 204, 150); fill-opacity: 0.6; stroke-width: 0; opacity: 1;"/><path class="sankey-link" d="M383.70000000000005,87.44810126582274C564.3000000000001,87.44810126582274 564.3000000000001,218.71139240506332 744.9000000000001,218.71139240506332L744.9000000000001,231.05316455696206C564.3000000000001,231.05316455696206 564.3000000000001,99.78987341772148 383.70000000000005,99.78987341772148Z" style="stroke: rgb(68, 68, 68); stroke-opacity: 1; fill: rgb(0, 204, 150); fill-opacity: 0.6; stroke-width: 0; opacity: 1;"/><path class="sankey-link" d="M383.70000000000005,158.22531645569623C564.3000000000001,158.22531645569623 564.3000000000001,62.93164556962036 744.9000000000001,62.93164556962036L744.9000000000001,80.21012658227859C564.3000000000001,80.21012658227859 564.3000000000001,175.50379746835446 383.70000000000005,175.50379746835446Z" style="stroke: rgb(68, 68, 68); stroke-opacity: 1; fill: rgb(239, 85, 59); fill-opacity: 0.6; stroke-width: 0; opacity: 1;"/><path class="sankey-link" d="M383.70000000000005,177.9721518987342C564.3000000000001,177.9721518987342 564.3000000000001,361.2189873417721 744.9000000000001,361.2189873417721L744.9000000000001,380.9658227848101C564.3000000000001,380.9658227848101 564.3000000000001,197.7189873417722 383.70000000000005,197.7189873417722Z" style="stroke: rgb(68, 68, 68); stroke-opacity: 1; fill: rgb(239, 85, 59); fill-opacity: 0.6; stroke-width: 0; opacity: 1;"/><path class="sankey-link" d="M383.70000000000005,197.7189873417722C564.3000000000001,197.7189873417722 564.3000000000001,529.8531645569619 744.9000000000001,529.8531645569619L744.9000000000001,544.6632911392403C564.3000000000001,544.6632911392403 564.3000000000001,212.52911392405068 383.70000000000005,212.52911392405068Z" style="stroke: rgb(68, 68, 68); stroke-opacity: 1; fill: rgb(239, 85, 59); fill-opacity: 0.6; stroke-width: 0; opacity: 1;"/><path class="sankey-link" d="M383.70000000000005,175.50379746835446C564.3000000000001,175.50379746835446 564.3000000000001,231.05316455696206 744.9000000000001,231.05316455696206L744.9000000000001,233.5215189873418C564.3000000000001,233.5215189873418 564.3000000000001,177.9721518987342 383.70000000000005,177.9721518987342Z" style="stroke: rgb(68, 68, 68); stroke-opacity: 1; fill: rgb(239, 85, 59); fill-opacity: 0.6; stroke-width: 0; opacity: 1;"/><path class="sankey-link" d="M383.70000000000005,225.3493670886077C564.3000000000001,225.3493670886077 564.3000000000001,80.21012658227858 744.9000000000001,80.21012658227858L744.9000000000001,87.61518987341782C564.3000000000001,87.61518987341782 564.3000000000001,232.75443037974694 383.70000000000005,232.75443037974694Z" style="stroke: rgb(68, 68, 68); stroke-opacity: 1; fill: rgb(254, 203, 82); fill-opacity: 0.6; stroke-width: 0; opacity: 1;"/><path class="sankey-link" d="M383.70000000000005,242.62784810126593C564.3000000000001,242.62784810126593 564.3000000000001,544.6632911392404 744.9000000000001,544.6632911392404L744.9000000000001,552.0683544303796C564.3000000000001,552.0683544303796 564.3000000000001,250.03291139240517 383.70000000000005,250.03291139240517Z" style="stroke: rgb(68, 68, 68); stroke-opacity: 1; fill: rgb(254, 203, 82); fill-opacity: 0.6; stroke-width: 0; opacity: 1;"/><path class="sankey-link" d="M383.70000000000005,232.75443037974694C564.3000000000001,232.75443037974694 564.3000000000001,233.5215189873418 744.9000000000001,233.5215189873418L744.9000000000001,243.3949367088608C564.3000000000001,243.3949367088608 564.3000000000001,242.62784810126593 383.70000000000005,242.62784810126593Z" style="stroke: rgb(68, 68, 68); stroke-opacity: 1; fill: rgb(254, 203, 82); fill-opacity: 0.6; stroke-width: 0; opacity: 1;"/><path class="sankey-link" d="M383.70000000000005,263.19873417721516C564.3000000000001,263.19873417721516 564.3000000000001,87.61518987341782 744.9000000000001,87.61518987341782L744.9000000000001,102.4253164556963C564.3000000000001,102.4253164556963 564.3000000000001,278.00886075949364 383.70000000000005,278.00886075949364Z" style="stroke: rgb(68, 68, 68); stroke-opacity: 1; fill: rgb(255, 161, 90); fill-opacity: 0.6; stroke-width: 0; opacity: 1;"/><path class="sankey-link" d="M383.70000000000005,278.00886075949364C564.3000000000001,278.00886075949364 564.3000000000001,380.9658227848101 744.9000000000001,380.9658227848101L744.9000000000001,395.7759493670886C564.3000000000001,395.7759493670886 564.3000000000001,292.81898734177213 383.70000000000005,292.81898734177213Z" style="stroke: rgb(68, 68, 68); stroke-opacity: 1; fill: rgb(255, 161, 90); fill-opacity: 0.6; stroke-width: 0; opacity: 1;"/><path class="sankey-link" d="M383.70000000000005,292.81898734177213C564.3000000000001,292.81898734177213 564.3000000000001,552.0683544303796 744.9000000000001,552.0683544303796L744.9000000000001,559.4734177215188C564.3000000000001,559.4734177215188 564.3000000000001,300.2240506329113 383.70000000000005,300.2240506329113Z" style="stroke: rgb(68, 68, 68); stroke-opacity: 1; fill: rgb(255, 161, 90); fill-opacity: 0.6; stroke-width: 0; opacity: 1;"/><path class="sankey-link" d="M383.70000000000005,311.8101265822785C564.3000000000001,311.8101265822785 564.3000000000001,102.4253164556963 744.9000000000001,102.4253164556963L744.9000000000001,132.04556962025327C564.3000000000001,132.04556962025327 564.3000000000001,341.43037974683546 383.70000000000005,341.43037974683546Z" style="stroke: rgb(68, 68, 68); stroke-opacity: 1; fill: rgb(171, 99, 250); fill-opacity: 0.6; stroke-width: 0; opacity: 1;"/><path class="sankey-link" d="M383.70000000000005,343.8987341772152C564.3000000000001,343.8987341772152 564.3000000000001,395.7759493670886 744.9000000000001,395.7759493670886L744.9000000000001,435.26962025316453C564.3000000000001,435.26962025316453 564.3000000000001,383.39240506329116 383.70000000000005,383.39240506329116Z" style="stroke: rgb(68, 68, 68); stroke-opacity: 1; fill: rgb(171, 99, 250); fill-opacity: 0.6; stroke-width: 0; opacity: 1;"/><path class="sankey-link" d="M383.70000000000005,383.39240506329116C564.3000000000001,383.39240506329116 564.3000000000001,559.4734177215188 744.9000000000001,559.4734177215188L744.9000000000001,591.5620253164556C564.3000000000001,591.5620253164556 564.3000000000001,415.4810126582278 383.70000000000005,415.4810126582278Z" style="stroke: rgb(68, 68, 68); stroke-opacity: 1; fill: rgb(171, 99, 250); fill-opacity: 0.6; stroke-width: 0; opacity: 1;"/><path class="sankey-link" d="M383.70000000000005,341.43037974683546C564.3000000000001,341.43037974683546 564.3000000000001,243.3949367088608 744.9000000000001,243.3949367088608L744.9000000000001,245.86329113924054C564.3000000000001,245.86329113924054 564.3000000000001,343.89873417721515 383.70000000000005,343.89873417721515Z" style="stroke: rgb(68, 68, 68); stroke-opacity: 1; fill: rgb(171, 99, 250); fill-opacity: 0.6; stroke-width: 0; opacity: 1;"/><path class="sankey-link" d="M383.70000000000005,425.09240506329127C564.3000000000001,425.09240506329127 564.3000000000001,132.04556962025327 744.9000000000001,132.04556962025327L744.9000000000001,159.1974683544305C564.3000000000001,159.1974683544305 564.3000000000001,452.24430379746843 383.70000000000005,452.24430379746843Z" style="stroke: rgb(68, 68, 68); stroke-opacity: 1; fill: rgb(99, 110, 250); fill-opacity: 0.6; stroke-width: 0; opacity: 1;"/><path class="sankey-link" d="M383.70000000000005,489.2696202531647C564.3000000000001,489.2696202531647 564.3000000000001,435.26962025316453 744.9000000000001,435.26962025316453L744.9000000000001,445.1430379746835C564.3000000000001,445.1430379746835 564.3000000000001,499.1430379746837 383.70000000000005,499.1430379746837Z" style="stroke: rgb(68, 68, 68); stroke-opacity: 1; fill: rgb(99, 110, 250); fill-opacity: 0.6; stroke-width: 0; opacity: 1;"/><path class="sankey-link" d="M383.70000000000005,499.14303797468375C564.3000000000001,499.14303797468375 564.3000000000001,591.5620253164554 744.9000000000001,591.5620253164554L744.9000000000001,653.2708860759492C564.3000000000001,653.2708860759492 564.3000000000001,560.8518987341774 383.70000000000005,560.8518987341774Z" style="stroke: rgb(68, 68, 68); stroke-opacity: 1; fill: rgb(99, 110, 250); fill-opacity: 0.6; stroke-width: 0; opacity: 1;"/><path class="sankey-link" d="M383.70000000000005,452.2443037974685C564.3000000000001,452.2443037974685 564.3000000000001,245.86329113924054 744.9000000000001,245.86329113924054L744.9000000000001,282.88860759493673C564.3000000000001,282.88860759493673 564.3000000000001,489.26962025316465 383.70000000000005,489.26962025316465Z" style="stroke: rgb(68, 68, 68); stroke-opacity: 1; fill: rgb(99, 110, 250); fill-opacity: 0.6; stroke-width: 0; opacity: 1;"/><path class="sankey-link" d="M383.70000000000005,571.1050632911395C564.3000000000001,571.1050632911395 564.3000000000001,159.1974683544305 744.9000000000001,159.1974683544305L744.9000000000001,176.47594936708873C564.3000000000001,176.47594936708873 564.3000000000001,588.3835443037976 383.70000000000005,588.3835443037976Z" style="stroke: rgb(68, 68, 68); stroke-opacity: 1; fill: rgb(255, 151, 255); fill-opacity: 0.6; stroke-width: 0; opacity: 1;"/><path class="sankey-link" d="M383.70000000000005,598.2569620253166C564.3000000000001,598.2569620253166 564.3000000000001,445.1430379746835 744.9000000000001,445.1430379746835L744.9000000000001,457.4848101265822C564.3000000000001,457.4848101265822 564.3000000000001,610.5987341772154 383.70000000000005,610.5987341772154Z" style="stroke: rgb(68, 68, 68); stroke-opacity: 1; fill: rgb(255, 151, 255); fill-opacity: 0.6; stroke-width: 0; opacity: 1;"/><path class="sankey-link" d="M383.70000000000005,610.5987341772153C564.3000000000001,610.5987341772153 564.3000000000001,653.2708860759491 744.9000000000001,653.2708860759491L744.9000000000001,685.3594936708859C564.3000000000001,685.3594936708859 564.3000000000001,642.6873417721521 383.70000000000005,642.6873417721521Z" style="stroke: rgb(68, 68, 68); stroke-opacity: 1; fill: rgb(255, 151, 255); fill-opacity: 0.6; stroke-width: 0; opacity: 1;"/><path class="sankey-link" d="M383.70000000000005,588.3835443037976C564.3000000000001,588.3835443037976 564.3000000000001,282.88860759493673 744.9000000000001,282.88860759493673L744.9000000000001,292.7620253164557C564.3000000000001,292.7620253164557 564.3000000000001,598.2569620253166 383.70000000000005,598.2569620253166Z" style="stroke: rgb(68, 68, 68); stroke-opacity: 1; fill: rgb(255, 151, 255); fill-opacity: 0.6; stroke-width: 0; opacity: 1;"/><path class="sankey-link" d="M383.70000000000005,655.1126582278483C564.3000000000001,655.1126582278483 564.3000000000001,176.47594936708873 744.9000000000001,176.47594936708873L744.9000000000001,186.34936708860772C564.3000000000001,186.34936708860772 564.3000000000001,664.9860759493673 383.70000000000005,664.9860759493673Z" style="stroke: rgb(68, 68, 68); stroke-opacity: 1; fill: rgb(182, 232, 128); fill-opacity: 0.6; stroke-width: 0; opacity: 1;"/><path class="sankey-link" d="M383.70000000000005,664.9860759493673C564.3000000000001,664.9860759493673 564.3000000000001,457.48481012658226 744.9000000000001,457.48481012658226L744.9000000000001,467.35822784810125C564.3000000000001,467.35822784810125 564.3000000000001,674.8594936708863 383.70000000000005,674.8594936708863Z" style="stroke: rgb(68, 68, 68); stroke-opacity: 1; fill: rgb(182, 232, 128); fill-opacity: 0.6; stroke-width: 0; opacity: 1;"/><path class="sankey-link" d="M383.70000000000005,674.8594936708863C564.3000000000001,674.8594936708863 564.3000000000001,685.3594936708857 744.9000000000001,685.3594936708857L744.9000000000001,692.7645569620249C564.3000000000001,692.7645569620249 564.3000000000001,682.2645569620255 383.70000000000005,682.2645569620255Z" style="stroke: rgb(68, 68, 68); stroke-opacity: 1; fill: rgb(182, 232, 128); fill-opacity: 0.6; stroke-width: 0; opacity: 1;"/><path class="sankey-link" d="M383.70000000000005,695.9240506329116C564.3000000000001,695.9240506329116 564.3000000000001,186.34936708860772 744.9000000000001,186.34936708860772L744.9000000000001,191.28607594936722C564.3000000000001,191.28607594936722 564.3000000000001,700.860759493671 383.70000000000005,700.860759493671Z" style="stroke: rgb(68, 68, 68); stroke-opacity: 1; fill: rgb(255, 102, 146); fill-opacity: 0.6; stroke-width: 0; opacity: 1;"/><path class="sankey-link" d="M383.70000000000005,700.8607594936711C564.3000000000001,700.8607594936711 564.3000000000001,467.35822784810125 744.9000000000001,467.35822784810125L744.9000000000001,469.82658227848094C564.3000000000001,469.82658227848094 564.3000000000001,703.329113924051 383.70000000000005,703.329113924051Z" style="stroke: rgb(68, 68, 68); stroke-opacity: 1; fill: rgb(255, 102, 146); fill-opacity: 0.6; stroke-width: 0; opacity: 1;"/><path class="sankey-link" d="M383.70000000000005,703.3291139240508C564.3000000000001,703.3291139240508 564.3000000000001,692.7645569620249 744.9000000000001,692.7645569620249L744.9000000000001,695.2329113924047C564.3000000000001,695.2329113924047 564.3000000000001,705.7974683544306 383.70000000000005,705.7974683544306Z" style="stroke: rgb(68, 68, 68); stroke-opacity: 1; fill: rgb(255, 102, 146); fill-opacity: 0.6; stroke-width: 0; opacity: 1;"/></g><g class="sankey-node-set" style="cursor: ns-resize;"><g class="sankey-node" transform="translate(744.900,23.438)" style="opacity: 1;"><rect class="node-rect" width="15" height="167.84810126582255" style="stroke-width: 0.5; stroke: rgb(0, 0, 0); stroke-opacity: 1; fill: rgb(128, 128, 128); fill-opacity: 1;"/><text class="node-label" data-notex="1" x="0" y="0" text-anchor="end" transform="translate(-3.25,88.12405063291128)" style="cursor: default; font-family: 'Open Sans', verdana, arial, sans-serif; font-size: 12px; fill: rgb(42, 63, 95); fill-opacity: 1; white-space: pre; text-shadow: white 1px 1px 1px, white -1px -1px 1px, white 1px -1px 1px, white -1px 1px 1px;">Aggressor</text></g><g class="sankey-node" transform="translate(744.900,218.711)" style="opacity: 1;"><rect class="node-rect" width="15" height="74.05063291139228" style="stroke-width: 0.5; stroke: rgb(0, 0, 0); stroke-opacity: 1; fill: rgb(128, 128, 128); fill-opacity: 1;"/><text class="node-label" data-notex="1" x="0" y="0" text-anchor="end" transform="translate(-3.25,41.225316455696145)" style="cursor: default; font-family: 'Open Sans', verdana, arial, sans-serif; font-size: 12px; fill: rgb(42, 63, 95); fill-opacity: 1; white-space: pre; text-shadow: white 1px 1px 1px, white -1px -1px 1px, white 1px -1px 1px, white -1px 1px 1px;">Target of Aggression</text></g><g class="sankey-node" transform="translate(744.900,319.257)" style="opacity: 1;"><rect class="node-rect" width="15" height="150.56962025316466" style="stroke-width: 0.5; stroke: rgb(0, 0, 0); stroke-opacity: 1; fill: rgb(128, 128, 128); fill-opacity: 1;"/><text class="node-label" data-notex="1" x="0" y="0" text-anchor="end" transform="translate(-3.25,79.48481012658233)" style="cursor: default; font-family: 'Open Sans', verdana, arial, sans-serif; font-size: 12px; fill: rgb(42, 63, 95); fill-opacity: 1; white-space: pre; text-shadow: white 1px 1px 1px, white -1px -1px 1px, white 1px -1px 1px, white -1px 1px 1px;">NonSocial</text></g><g class="sankey-node" transform="translate(744.900,502.701)" style="opacity: 1;"><rect class="node-rect" width="15" height="192.53164556962025" style="stroke-width: 0.5; stroke: rgb(0, 0, 0); stroke-opacity: 1; fill: rgb(128, 128, 128); fill-opacity: 1;"/><text class="node-label" data-notex="1" x="0" y="0" text-anchor="end" transform="translate(-3.25,100.46582278481013)" style="cursor: default; font-family: 'Open Sans', verdana, arial, sans-serif; font-size: 12px; fill: rgb(42, 63, 95); fill-opacity: 1; white-space: pre; text-shadow: white 1px 1px 1px, white -1px -1px 1px, white 1px -1px 1px, white -1px 1px 1px;">Social</text></g><g class="sankey-node" transform="translate(368.700,13.758)" style="opacity: 1;"><rect class="node-rect" width="15" height="32.08860759493675" style="stroke-width: 0.5; stroke: rgb(0, 0, 0); stroke-opacity: 1; fill: rgb(25, 211, 243); fill-opacity: 1;"/><text class="node-label" data-notex="1" x="0" y="0" text-anchor="start" transform="translate(18.25,20.244303797468373)" style="cursor: default; font-family: 'Open Sans', verdana, arial, sans-serif; font-size: 12px; fill: rgb(42, 63, 95); fill-opacity: 1; white-space: pre; text-shadow: white 1px 1px 1px, white -1px -1px 1px, white 1px -1px 1px, white -1px 1px 1px;">BLA</text></g><g class="sankey-node" transform="translate(368.700,57.828)" style="opacity: 1;"><rect class="node-rect" width="15" height="88.86075949367095" style="stroke-width: 0.5; stroke: rgb(0, 0, 0); stroke-opacity: 1; fill: rgb(0, 204, 150); fill-opacity: 1;"/><text class="node-label" data-notex="1" x="0" y="0" text-anchor="start" transform="translate(18.25,48.63037974683547)" style="cursor: default; font-family: 'Open Sans', verdana, arial, sans-serif; font-size: 12px; fill: rgb(42, 63, 95); fill-opacity: 1; white-space: pre; text-shadow: white 1px 1px 1px, white -1px -1px 1px, white 1px -1px 1px, white -1px 1px 1px;">Cla</text></g><g class="sankey-node" transform="translate(368.700,158.225)" style="opacity: 1;"><rect class="node-rect" width="15" height="54.303797468354446" style="stroke-width: 0.5; stroke: rgb(0, 0, 0); stroke-opacity: 1; fill: rgb(239, 85, 59); fill-opacity: 1;"/><text class="node-label" data-notex="1" x="0" y="0" text-anchor="start" transform="translate(18.25,31.351898734177222)" style="cursor: default; font-family: 'Open Sans', verdana, arial, sans-serif; font-size: 12px; fill: rgb(42, 63, 95); fill-opacity: 1; white-space: pre; text-shadow: white 1px 1px 1px, white -1px -1px 1px, white 1px -1px 1px, white -1px 1px 1px;">LC</text></g><g class="sankey-node" transform="translate(368.700,225.349)" style="opacity: 1;"><rect class="node-rect" width="15" height="24.683544303797362" style="stroke-width: 0.5; stroke: rgb(0, 0, 0); stroke-opacity: 1; fill: rgb(254, 203, 82); fill-opacity: 1;"/><text class="node-label" data-notex="1" x="0" y="0" text-anchor="start" transform="translate(18.25,16.54177215189868)" style="cursor: default; font-family: 'Open Sans', verdana, arial, sans-serif; font-size: 12px; fill: rgb(42, 63, 95); fill-opacity: 1; white-space: pre; text-shadow: white 1px 1px 1px, white -1px -1px 1px, white 1px -1px 1px, white -1px 1px 1px;">LHyp</text></g><g class="sankey-node" transform="translate(368.700,263.199)" style="opacity: 1;"><rect class="node-rect" width="15" height="37.025316455696384" style="stroke-width: 0.5; stroke: rgb(0, 0, 0); stroke-opacity: 1; fill: rgb(255, 161, 90); fill-opacity: 1;"/><text class="node-label" data-notex="1" x="0" y="0" text-anchor="start" transform="translate(18.25,22.71265822784819)" style="cursor: default; font-family: 'Open Sans', verdana, arial, sans-serif; font-size: 12px; fill: rgb(42, 63, 95); fill-opacity: 1; white-space: pre; text-shadow: white 1px 1px 1px, white -1px -1px 1px, white 1px -1px 1px, white -1px 1px 1px;">NAc</text></g><g class="sankey-node" transform="translate(368.700,311.810)" style="opacity: 1;"><rect class="node-rect" width="15" height="103.67088607594951" style="stroke-width: 0.5; stroke: rgb(0, 0, 0); stroke-opacity: 1; fill: rgb(171, 99, 250); fill-opacity: 1;"/><text class="node-label" data-notex="1" x="0" y="0" text-anchor="start" transform="translate(18.25,56.03544303797476)" style="cursor: default; font-family: 'Open Sans', verdana, arial, sans-serif; font-size: 12px; fill: rgb(42, 63, 95); fill-opacity: 1; white-space: pre; text-shadow: white 1px 1px 1px, white -1px -1px 1px, white 1px -1px 1px, white -1px 1px 1px;">Str</text></g><g class="sankey-node" transform="translate(368.700,425.092)" style="opacity: 1;"><rect class="node-rect" width="15" height="135.75949367088606" style="stroke-width: 0.5; stroke: rgb(0, 0, 0); stroke-opacity: 1; fill: rgb(99, 110, 250); fill-opacity: 1;"/><text class="node-label" data-notex="1" x="0" y="0" text-anchor="start" transform="translate(18.25,72.07974683544303)" style="cursor: default; font-family: 'Open Sans', verdana, arial, sans-serif; font-size: 12px; fill: rgb(42, 63, 95); fill-opacity: 1; white-space: pre; text-shadow: white 1px 1px 1px, white -1px -1px 1px, white 1px -1px 1px, white -1px 1px 1px;">VTA</text></g><g class="sankey-node" transform="translate(368.700,571.105)" style="opacity: 1;"><rect class="node-rect" width="15" height="71.58227848101251" style="stroke-width: 0.5; stroke: rgb(0, 0, 0); stroke-opacity: 1; fill: rgb(255, 151, 255); fill-opacity: 1;"/><text class="node-label" data-notex="1" x="0" y="0" text-anchor="start" transform="translate(18.25,39.99113924050626)" style="cursor: default; font-family: 'Open Sans', verdana, arial, sans-serif; font-size: 12px; fill: rgb(42, 63, 95); fill-opacity: 1; white-space: pre; text-shadow: white 1px 1px 1px, white -1px -1px 1px, white 1px -1px 1px, white -1px 1px 1px;">cPFC</text></g><g class="sankey-node" transform="translate(368.700,655.113)" style="opacity: 1;"><rect class="node-rect" width="15" height="27.151898734177166" style="stroke-width: 0.5; stroke: rgb(0, 0, 0); stroke-opacity: 1; fill: rgb(182, 232, 128); fill-opacity: 1;"/><text class="node-label" data-notex="1" x="0" y="0" text-anchor="start" transform="translate(18.25,17.775949367088582)" style="cursor: default; font-family: 'Open Sans', verdana, arial, sans-serif; font-size: 12px; fill: rgb(42, 63, 95); fill-opacity: 1; white-space: pre; text-shadow: white 1px 1px 1px, white -1px -1px 1px, white 1px -1px 1px, white -1px 1px 1px;">dPAG</text></g><g class="sankey-node" transform="translate(368.700,695.924)" style="opacity: 1;"><rect class="node-rect" width="15" height="9.87341772151899" style="stroke-width: 0.5; stroke: rgb(0, 0, 0); stroke-opacity: 1; fill: rgb(255, 102, 146); fill-opacity: 1;"/><text class="node-label" data-notex="1" x="0" y="0" text-anchor="start" transform="translate(18.25,9.136708860759494)" style="cursor: default; font-family: 'Open Sans', verdana, arial, sans-serif; font-size: 12px; fill: rgb(42, 63, 95); fill-opacity: 1; white-space: pre; text-shadow: white 1px 1px 1px, white -1px -1px 1px, white 1px -1px 1px, white -1px 1px 1px;">lHb</text></g></g></g><defs id="topdefs-ec51c6"><g class="clips"/></defs><g class="layer-above"><g class="imagelayer"/><g class="shapelayer"/></g><g class="infolayer"><g class="g-gtitle"/><g class="first-render"/></g></svg>