<svg class="main-svg" xmlns="http://www.w3.org/2000/svg" xmlns:xlink="http://www.w3.org/1999/xlink" width="1300" height="900" style="" viewBox="0 0 1300 900"><rect x="0" y="0" width="1300" height="900" style="fill: rgb(255, 255, 255); fill-opacity: 1;"/><defs id="defs-7f0c21"><g class="clips"/><g class="gradients"/><g class="patterns"/></defs><g class="bglayer"/><g class="layer-below"><g class="imagelayer"/><g class="shapelayer"/></g><g class="cartesianlayer"/><g class="polarlayer"/><g class="smithlayer"/><g class="ternarylayer"/><g class="geolayer"/><g class="funnelarealayer"/><g class="pielayer"/><g class="iciclelayer"/><g class="treemaplayer"/><g class="sunburstlayer"/><g class="glimages"/><g class="sankey" transform="translate(80,100)matrix(1 0 0 1 0 0)" style="box-sizing: content-box; position: absolute; left: 0px; shape-rendering: geometricprecision; pointer-events: none;"><g class="sankey-links" style="fill: none;"><path class="sankey-link" d="M15,444.7718978102191C570,444.7718978102191 570,108.22992700729941 1125,108.22992700729941L1125,112.06204379562058C570,112.06204379562058 570,448.6040145985403 15,448.6040145985403Z" style="stroke: rgb(68, 68, 68); stroke-opacity: 1; fill: rgb(25, 211, 243); fill-opacity: 0.6; stroke-width: 0; opacity: 1;"/><path class="sankey-link" d="M15,448.6040145985403C570,448.6040145985403 570,177.50912408759137 1125,177.50912408759137L1125,178.46715328467167C570,178.46715328467167 570,449.5620437956205 15,449.5620437956205Z" style="stroke: rgb(25, 211, 243); stroke-opacity: 0.6; fill: rgb(25, 211, 243); fill-opacity: 0.6; stroke-width: 1; opacity: 1;"/><path class="sankey-link" d="M15,466.80656934306586C570,466.80656934306586 570,527.7919708029199 1125,527.7919708029199L1125,533.5401459854015C570,533.5401459854015 570,472.5547445255476 15,472.5547445255476Z" style="stroke: rgb(68, 68, 68); stroke-opacity: 1; fill: rgb(25, 211, 243); fill-opacity: 0.6; stroke-width: 0; opacity: 1;"/><path class="sankey-link" d="M15,458.1843065693432C570,458.1843065693432 570,362.7098540145985 1125,362.7098540145985L1125,367.4999999999999C570,367.4999999999999 570,462.97445255474463 15,462.97445255474463Z" style="stroke: rgb(68, 68, 68); stroke-opacity: 1; fill: rgb(25, 211, 243); fill-opacity: 0.6; stroke-width: 0; opacity: 1;"/><path class="sankey-link" d="M15,472.5547445255476C570,472.5547445255476 570,582.0711678832116 1125,582.0711678832116L1125,583.029197080292C570,583.029197080292 570,473.51277372262786 15,473.51277372262786Z" style="stroke: rgb(25, 211, 243); stroke-opacity: 0.6; fill: rgb(25, 211, 243); fill-opacity: 0.6; stroke-width: 1; opacity: 1;"/><path class="sankey-link" d="M15,473.5127737226279C570,473.5127737226279 570,637.3083941605839 1125,637.3083941605839L1125,638.2664233576643C570,638.2664233576643 570,474.47080291970815 15,474.47080291970815Z" style="stroke: rgb(25, 211, 243); stroke-opacity: 0.6; fill: rgb(25, 211, 243); fill-opacity: 0.6; stroke-width: 1; opacity: 1;"/><path class="sankey-link" d="M15,449.5620437956206C570,449.5620437956206 570,256.6970802919708 1125,256.6970802919708L1125,265.3193430656934C570,265.3193430656934 570,458.18430656934316 15,458.18430656934316Z" style="stroke: rgb(68, 68, 68); stroke-opacity: 1; fill: rgb(25, 211, 243); fill-opacity: 0.6; stroke-width: 0; opacity: 1;"/><path class="sankey-link" d="M15,462.9744525547447C570,462.9744525547447 570,448.60401459854035 1125,448.60401459854035L1125,452.4361313868615C570,452.4361313868615 570,466.80656934306586 15,466.80656934306586Z" style="stroke: rgb(68, 68, 68); stroke-opacity: 1; fill: rgb(25, 211, 243); fill-opacity: 0.6; stroke-width: 0; opacity: 1;"/><path class="sankey-link" d="M15,491.38686131386874C570,491.38686131386874 570,112.06204379562058 1125,112.06204379562058L1125,114.93613138686146C570,114.93613138686146 570,494.26094890510956 15,494.26094890510956Z" style="stroke: rgb(68, 68, 68); stroke-opacity: 1; fill: rgb(99, 110, 250); fill-opacity: 0.6; stroke-width: 0; opacity: 1;"/><path class="sankey-link" d="M15,558.4489051094891C570,558.4489051094891 570,679.1332116788321 1125,679.1332116788321L1125,681.0492700729926C570,681.0492700729926 570,560.3649635036496 15,560.3649635036496Z" style="stroke: rgb(68, 68, 68); stroke-opacity: 1; fill: rgb(99, 110, 250); fill-opacity: 0.6; stroke-width: 0; opacity: 1;"/><path class="sankey-link" d="M15,495.2189781021899C570,495.2189781021899 570,178.46715328467167 1125,178.46715328467167L1125,180.38321167883225C570,180.38321167883225 570,497.1350364963505 15,497.1350364963505Z" style="stroke: rgb(68, 68, 68); stroke-opacity: 1; fill: rgb(99, 110, 250); fill-opacity: 0.6; stroke-width: 0; opacity: 1;"/><path class="sankey-link" d="M15,536.4142335766425C570,536.4142335766425 570,533.5401459854016 1125,533.5401459854016L1125,541.204379562044C570,541.204379562044 570,544.0784671532848 15,544.0784671532848Z" style="stroke: rgb(68, 68, 68); stroke-opacity: 1; fill: rgb(99, 110, 250); fill-opacity: 0.6; stroke-width: 0; opacity: 1;"/><path class="sankey-link" d="M15,489.47080291970815C570,489.47080291970815 570,27.454379562043773 1125,27.454379562043773L1125,29.37043795620436C570,29.37043795620436 570,491.38686131386874 15,491.38686131386874Z" style="stroke: rgb(68, 68, 68); stroke-opacity: 1; fill: rgb(99, 110, 250); fill-opacity: 0.6; stroke-width: 0; opacity: 1;"/><path class="sankey-link" d="M15,514.3795620437958C570,514.3795620437958 570,367.49999999999994 1125,367.49999999999994L1125,380.91240875912405C570,380.91240875912405 570,527.7919708029198 15,527.7919708029198Z" style="stroke: rgb(68, 68, 68); stroke-opacity: 1; fill: rgb(99, 110, 250); fill-opacity: 0.6; stroke-width: 0; opacity: 1;"/><path class="sankey-link" d="M15,494.2609489051096C570,494.2609489051096 570,137.60036496350375 1125,137.60036496350375L1125,138.55839416058404C570,138.55839416058404 570,495.21897810218985 15,495.21897810218985Z" style="stroke: rgb(99, 110, 250); stroke-opacity: 0.6; fill: rgb(99, 110, 250); fill-opacity: 0.6; stroke-width: 1; opacity: 1;"/><path class="sankey-link" d="M15,560.3649635036497C570,560.3649635036497 570,710.4197080291971 1125,710.4197080291971L1125,715.2098540145986C570,715.2098540145986 570,565.1551094890513 15,565.1551094890513Z" style="stroke: rgb(68, 68, 68); stroke-opacity: 1; fill: rgb(99, 110, 250); fill-opacity: 0.6; stroke-width: 0; opacity: 1;"/><path class="sankey-link" d="M15,544.0784671532848C570,544.0784671532848 570,583.0291970802919 1125,583.0291970802919L1125,587.8193430656934C570,587.8193430656934 570,548.8686131386863 15,548.8686131386863Z" style="stroke: rgb(68, 68, 68); stroke-opacity: 1; fill: rgb(99, 110, 250); fill-opacity: 0.6; stroke-width: 0; opacity: 1;"/><path class="sankey-link" d="M15,548.8686131386862C570,548.8686131386862 570,638.2664233576642 1125,638.2664233576642L1125,647.846715328467C570,647.846715328467 570,558.448905109489 15,558.448905109489Z" style="stroke: rgb(68, 68, 68); stroke-opacity: 1; fill: rgb(99, 110, 250); fill-opacity: 0.6; stroke-width: 0; opacity: 1;"/><path class="sankey-link" d="M15,497.1350364963505C570,497.1350364963505 570,265.31934306569343 1125,265.31934306569343L1125,282.5638686131387C570,282.5638686131387 570,514.3795620437958 15,514.3795620437958Z" style="stroke: rgb(68, 68, 68); stroke-opacity: 1; fill: rgb(99, 110, 250); fill-opacity: 0.6; stroke-width: 0; opacity: 1;"/><path class="sankey-link" d="M15,527.7919708029199C570,527.7919708029199 570,452.4361313868615 1125,452.4361313868615L1125,461.0583941605841C570,461.0583941605841 570,536.4142335766426 15,536.4142335766426Z" style="stroke: rgb(68, 68, 68); stroke-opacity: 1; fill: rgb(99, 110, 250); fill-opacity: 0.6; stroke-width: 0; opacity: 1;"/><path class="sankey-link" d="M15,265.3193430656935C570,265.3193430656935 570,98.64963503649648 1125,98.64963503649648L1125,102.48175182481765C570,102.48175182481765 570,269.15145985401466 15,269.15145985401466Z" style="stroke: rgb(68, 68, 68); stroke-opacity: 1; fill: rgb(239, 85, 59); fill-opacity: 0.6; stroke-width: 0; opacity: 1;"/><path class="sankey-link" d="M15,259.57116788321173C570,259.57116788321173 570,0.9580291970802637 1125,0.9580291970802637L1125,1.9160583941605556C570,1.9160583941605556 570,260.52919708029196 15,260.52919708029196Z" style="stroke: rgb(239, 85, 59); stroke-opacity: 0.6; fill: rgb(239, 85, 59); fill-opacity: 0.6; stroke-width: 1; opacity: 1;"/><path class="sankey-link" d="M15,269.15145985401466C570,269.15145985401466 570,166.97080291970815 1125,166.97080291970815L1125,169.84489051094903C570,169.84489051094903 570,272.0255474452555 15,272.0255474452555Z" style="stroke: rgb(68, 68, 68); stroke-opacity: 1; fill: rgb(239, 85, 59); fill-opacity: 0.6; stroke-width: 0; opacity: 1;"/><path class="sankey-link" d="M15,309.388686131387C570,309.388686131387 570,510.5474452554746 1125,510.5474452554746L1125,518.211678832117C570,518.211678832117 570,317.0529197080293 15,317.0529197080293Z" style="stroke: rgb(68, 68, 68); stroke-opacity: 1; fill: rgb(239, 85, 59); fill-opacity: 0.6; stroke-width: 0; opacity: 1;"/><path class="sankey-link" d="M15,260.529197080292C570,260.529197080292 570,22.66423357664231 1125,22.66423357664231L1125,23.622262773722603C570,23.622262773722603 570,261.48722627737226 15,261.48722627737226Z" style="stroke: rgb(239, 85, 59); stroke-opacity: 0.6; fill: rgb(239, 85, 59); fill-opacity: 0.6; stroke-width: 1; opacity: 1;"/><path class="sankey-link" d="M15,285.43795620437965C570,285.43795620437965 570,336.84306569343056 1125,336.84306569343056L1125,351.2135036496349C570,351.2135036496349 570,299.808394160584 15,299.808394160584Z" style="stroke: rgb(68, 68, 68); stroke-opacity: 1; fill: rgb(239, 85, 59); fill-opacity: 0.6; stroke-width: 0; opacity: 1;"/><path class="sankey-link" d="M15,261.4872262773723C570,261.4872262773723 570,54.90875912408764 1125,54.90875912408764L1125,58.74087591240881C570,58.74087591240881 570,265.3193430656935 15,265.3193430656935Z" style="stroke: rgb(68, 68, 68); stroke-opacity: 1; fill: rgb(239, 85, 59); fill-opacity: 0.6; stroke-width: 0; opacity: 1;"/><path class="sankey-link" d="M15,317.0529197080293C570,317.0529197080293 570,578.2390510948904 1125,578.2390510948904L1125,580.1551094890509C570,580.1551094890509 570,318.9689781021899 15,318.9689781021899Z" style="stroke: rgb(68, 68, 68); stroke-opacity: 1; fill: rgb(239, 85, 59); fill-opacity: 0.6; stroke-width: 0; opacity: 1;"/><path class="sankey-link" d="M15,318.9689781021899C570,318.9689781021899 570,614.315693430657 1125,614.315693430657L1125,621.021897810219C570,621.021897810219 570,325.6751824817519 15,325.6751824817519Z" style="stroke: rgb(68, 68, 68); stroke-opacity: 1; fill: rgb(239, 85, 59); fill-opacity: 0.6; stroke-width: 0; opacity: 1;"/><path class="sankey-link" d="M15,272.02554744525554C570,272.02554744525554 570,226.04014598540144 1125,226.04014598540144L1125,239.45255474452554C570,239.45255474452554 570,285.43795620437965 15,285.43795620437965Z" style="stroke: rgb(68, 68, 68); stroke-opacity: 1; fill: rgb(239, 85, 59); fill-opacity: 0.6; stroke-width: 0; opacity: 1;"/><path class="sankey-link" d="M15,299.80839416058404C570,299.80839416058404 570,430.4014598540148 1125,430.4014598540148L1125,439.9817518248177C570,439.9817518248177 570,309.388686131387 15,309.388686131387Z" style="stroke: rgb(68, 68, 68); stroke-opacity: 1; fill: rgb(239, 85, 59); fill-opacity: 0.6; stroke-width: 0; opacity: 1;"/><path class="sankey-link" d="M15,697.3357664233577C570,697.3357664233577 570,683.9233576642335 1125,683.9233576642335L1125,686.7974452554744C570,686.7974452554744 570,700.2098540145985 15,700.2098540145985Z" style="stroke: rgb(68, 68, 68); stroke-opacity: 1; fill: rgb(254, 203, 82); fill-opacity: 0.6; stroke-width: 0; opacity: 1;"/><path class="sankey-link" d="M15,681.0492700729928C570,681.0492700729928 570,182.29927007299284 1125,182.29927007299284L1125,184.21532846715343C570,184.21532846715343 570,682.9653284671533 15,682.9653284671533Z" style="stroke: rgb(68, 68, 68); stroke-opacity: 1; fill: rgb(254, 203, 82); fill-opacity: 0.6; stroke-width: 0; opacity: 1;"/><path class="sankey-link" d="M15,694.4616788321168C570,694.4616788321168 570,551.7427007299272 1125,551.7427007299272L1125,554.616788321168C570,554.616788321168 570,697.3357664233577 15,697.3357664233577Z" style="stroke: rgb(68, 68, 68); stroke-opacity: 1; fill: rgb(254, 203, 82); fill-opacity: 0.6; stroke-width: 0; opacity: 1;"/><path class="sankey-link" d="M15,688.7135036496352C570,688.7135036496352 570,390.492700729927 1125,390.492700729927L1125,391.4507299270072C570,391.4507299270072 570,689.6715328467155 15,689.6715328467155Z" style="stroke: rgb(254, 203, 82); stroke-opacity: 0.6; fill: rgb(254, 203, 82); fill-opacity: 0.6; stroke-width: 1; opacity: 1;"/><path class="sankey-link" d="M15,700.2098540145985C570,700.2098540145985 570,718.0839416058393 1125,718.0839416058393L1125,719.9999999999998C570,719.9999999999998 570,702.125912408759 15,702.125912408759Z" style="stroke: rgb(68, 68, 68); stroke-opacity: 1; fill: rgb(254, 203, 82); fill-opacity: 0.6; stroke-width: 0; opacity: 1;"/><path class="sankey-link" d="M15,680.0912408759126C570,680.0912408759126 570,64.48905109489056 1125,64.48905109489056L1125,65.44708029197085C570,65.44708029197085 570,681.049270072993 15,681.049270072993Z" style="stroke: rgb(254, 203, 82); stroke-opacity: 0.6; fill: rgb(254, 203, 82); fill-opacity: 0.6; stroke-width: 1; opacity: 1;"/><path class="sankey-link" d="M15,682.9653284671534C570,682.9653284671534 570,295.0182481751825 1125,295.0182481751825L1125,300.7664233576643C570,300.7664233576643 570,688.7135036496351 15,688.7135036496351Z" style="stroke: rgb(68, 68, 68); stroke-opacity: 1; fill: rgb(254, 203, 82); fill-opacity: 0.6; stroke-width: 0; opacity: 1;"/><path class="sankey-link" d="M15,689.6715328467154C570,689.6715328467154 570,470.6386861313871 1125,470.6386861313871L1125,475.4288321167885C570,475.4288321167885 570,694.461678832117 15,694.461678832117Z" style="stroke: rgb(68, 68, 68); stroke-opacity: 1; fill: rgb(254, 203, 82); fill-opacity: 0.6; stroke-width: 0; opacity: 1;"/><path class="sankey-link" d="M15,66.70620437956214C570,66.70620437956214 570,80.44708029197093 1125,80.44708029197093L1125,90.02737226277387C570,90.02737226277387 570,76.28649635036507 15,76.28649635036507Z" style="stroke: rgb(68, 68, 68); stroke-opacity: 1; fill: rgb(171, 99, 250); fill-opacity: 0.6; stroke-width: 0; opacity: 1;"/><path class="sankey-link" d="M15,112.69160583941617C570,112.69160583941617 570,671.4689781021899 1125,671.4689781021899L1125,672.4270072992703C570,672.4270072992703 570,113.64963503649646 15,113.64963503649646Z" style="stroke: rgb(171, 99, 250); stroke-opacity: 0.6; fill: rgb(171, 99, 250); fill-opacity: 0.6; stroke-width: 1; opacity: 1;"/><path class="sankey-link" d="M15,60.000000000000085C570,60.000000000000085 570,-2.842170943040401e-14 1125,-2.842170943040401e-14L1125,0.9580291970802636C570,0.9580291970802636 570,60.95802919708038 15,60.95802919708038Z" style="stroke: rgb(171, 99, 250); stroke-opacity: 0.6; fill: rgb(171, 99, 250); fill-opacity: 0.6; stroke-width: 1; opacity: 1;"/><path class="sankey-link" d="M15,77.24452554744535C570,77.24452554744535 570,153.55839416058404 1125,153.55839416058404L1125,156.43248175182492C570,156.43248175182492 570,80.11861313868623 15,80.11861313868623Z" style="stroke: rgb(68, 68, 68); stroke-opacity: 1; fill: rgb(171, 99, 250); fill-opacity: 0.6; stroke-width: 0; opacity: 1;"/><path class="sankey-link" d="M15,101.19525547445267C570,101.19525547445267 570,490.4288321167885 1125,490.4288321167885L1125,494.2609489051097C570,494.2609489051097 570,105.02737226277384 15,105.02737226277384Z" style="stroke: rgb(68, 68, 68); stroke-opacity: 1; fill: rgb(171, 99, 250); fill-opacity: 0.6; stroke-width: 0; opacity: 1;"/><path class="sankey-link" d="M15,60.95802919708038C570,60.95802919708038 570,16.916058394160558 1125,16.916058394160558L1125,21.706204379562017C570,21.706204379562017 570,65.74817518248184 15,65.74817518248184Z" style="stroke: rgb(68, 68, 68); stroke-opacity: 1; fill: rgb(171, 99, 250); fill-opacity: 0.6; stroke-width: 0; opacity: 1;"/><path class="sankey-link" d="M15,89.69890510948915C570,89.69890510948915 570,315.7664233576641 1125,315.7664233576641L1125,321.51459854014587C570,321.51459854014587 570,95.4470802919709 15,95.4470802919709Z" style="stroke: rgb(68, 68, 68); stroke-opacity: 1; fill: rgb(171, 99, 250); fill-opacity: 0.6; stroke-width: 0; opacity: 1;"/><path class="sankey-link" d="M15,76.28649635036506C570,76.28649635036506 570,136.64233576642346 1125,136.64233576642346L1125,137.60036496350375C570,137.60036496350375 570,77.24452554744535 15,77.24452554744535Z" style="stroke: rgb(171, 99, 250); stroke-opacity: 0.6; fill: rgb(171, 99, 250); fill-opacity: 0.6; stroke-width: 1; opacity: 1;"/><path class="sankey-link" d="M15,113.64963503649646C570,113.64963503649646 570,701.7974452554745 1125,701.7974452554745L1125,702.7554744525548C570,702.7554744525548 570,114.60766423357676 15,114.60766423357676Z" style="stroke: rgb(171, 99, 250); stroke-opacity: 0.6; fill: rgb(171, 99, 250); fill-opacity: 0.6; stroke-width: 1; opacity: 1;"/><path class="sankey-link" d="M15,65.74817518248184C570,65.74817518248184 570,44.37043795620443 1125,44.37043795620443L1125,45.32846715328472C570,45.32846715328472 570,66.70620437956214 15,66.70620437956214Z" style="stroke: rgb(171, 99, 250); stroke-opacity: 0.6; fill: rgb(171, 99, 250); fill-opacity: 0.6; stroke-width: 1; opacity: 1;"/><path class="sankey-link" d="M15,105.02737226277384C570,105.02737226277384 570,570.5748175182482 1125,570.5748175182482L1125,571.5328467153286C570,571.5328467153286 570,105.98540145985413 15,105.98540145985413Z" style="stroke: rgb(171, 99, 250); stroke-opacity: 0.6; fill: rgb(171, 99, 250); fill-opacity: 0.6; stroke-width: 1; opacity: 1;"/><path class="sankey-link" d="M15,105.98540145985413C570,105.98540145985413 570,605.6934306569344 1125,605.6934306569344L1125,612.3996350364964C570,612.3996350364964 570,112.69160583941618 15,112.69160583941618Z" style="stroke: rgb(68, 68, 68); stroke-opacity: 1; fill: rgb(171, 99, 250); fill-opacity: 0.6; stroke-width: 0; opacity: 1;"/><path class="sankey-link" d="M15,80.11861313868623C570,80.11861313868623 570,199.21532846715326 1125,199.21532846715326L1125,208.7956204379562C570,208.7956204379562 570,89.69890510948916 15,89.69890510948916Z" style="stroke: rgb(68, 68, 68); stroke-opacity: 1; fill: rgb(171, 99, 250); fill-opacity: 0.6; stroke-width: 0; opacity: 1;"/><path class="sankey-link" d="M15,95.4470802919709C570,95.4470802919709 570,407.40875912408774 1125,407.40875912408774L1125,413.1569343065695C570,413.1569343065695 570,101.19525547445267 15,101.19525547445267Z" style="stroke: rgb(68, 68, 68); stroke-opacity: 1; fill: rgb(171, 99, 250); fill-opacity: 0.6; stroke-width: 0; opacity: 1;"/><path class="sankey-link" d="M15,347.3813868613142C570,347.3813868613142 570,102.48175182481765 1125,102.48175182481765L1125,108.22992700729941C570,108.22992700729941 570,353.12956204379594 15,353.12956204379594Z" style="stroke: rgb(68, 68, 68); stroke-opacity: 1; fill: rgb(0, 204, 150); fill-opacity: 0.6; stroke-width: 0; opacity: 1;"/><path class="sankey-link" d="M15,353.12956204379594C570,353.12956204379594 570,169.84489051094903 1125,169.84489051094903L1125,177.50912408759137C570,177.50912408759137 570,360.7937956204383 15,360.7937956204383Z" style="stroke: rgb(68, 68, 68); stroke-opacity: 1; fill: rgb(0, 204, 150); fill-opacity: 0.6; stroke-width: 0; opacity: 1;"/><path class="sankey-link" d="M15,398.1569343065697C570,398.1569343065697 570,518.211678832117 1125,518.211678832117L1125,527.7919708029198C570,527.7919708029198 570,407.73722627737266 15,407.73722627737266Z" style="stroke: rgb(68, 68, 68); stroke-opacity: 1; fill: rgb(0, 204, 150); fill-opacity: 0.6; stroke-width: 0; opacity: 1;"/><path class="sankey-link" d="M15,340.67518248175213C570,340.67518248175213 570,23.622262773722603 1125,23.622262773722603L1125,27.45437956204377C570,27.45437956204377 570,344.5072992700733 15,344.5072992700733Z" style="stroke: rgb(68, 68, 68); stroke-opacity: 1; fill: rgb(0, 204, 150); fill-opacity: 0.6; stroke-width: 0; opacity: 1;"/><path class="sankey-link" d="M15,378.03832116788357C570,378.03832116788357 570,351.21350364963496 1125,351.21350364963496L1125,362.7098540145985C570,362.7098540145985 570,389.5346715328471 15,389.5346715328471Z" style="stroke: rgb(68, 68, 68); stroke-opacity: 1; fill: rgb(0, 204, 150); fill-opacity: 0.6; stroke-width: 0; opacity: 1;"/><path class="sankey-link" d="M15,425.9397810218982C570,425.9397810218982 570,706.5875912408759 1125,706.5875912408759L1125,710.4197080291971C570,710.4197080291971 570,429.7718978102194 15,429.7718978102194Z" style="stroke: rgb(68, 68, 68); stroke-opacity: 1; fill: rgb(0, 204, 150); fill-opacity: 0.6; stroke-width: 0; opacity: 1;"/><path class="sankey-link" d="M15,344.5072992700733C570,344.5072992700733 570,58.740875912408804 1125,58.740875912408804L1125,61.61496350364968C570,61.61496350364968 570,347.3813868613141 15,347.3813868613141Z" style="stroke: rgb(68, 68, 68); stroke-opacity: 1; fill: rgb(0, 204, 150); fill-opacity: 0.6; stroke-width: 0; opacity: 1;"/><path class="sankey-link" d="M15,407.73722627737266C570,407.73722627737266 570,580.155109489051 1125,580.155109489051L1125,582.0711678832115C570,582.0711678832115 570,409.65328467153324 15,409.65328467153324Z" style="stroke: rgb(68, 68, 68); stroke-opacity: 1; fill: rgb(0, 204, 150); fill-opacity: 0.6; stroke-width: 0; opacity: 1;"/><path class="sankey-link" d="M15,409.65328467153324C570,409.65328467153324 570,621.021897810219 1125,621.021897810219L1125,637.308394160584C570,637.308394160584 570,425.93978102189817 15,425.93978102189817Z" style="stroke: rgb(68, 68, 68); stroke-opacity: 1; fill: rgb(0, 204, 150); fill-opacity: 0.6; stroke-width: 0; opacity: 1;"/><path class="sankey-link" d="M15,360.7937956204383C570,360.7937956204383 570,239.45255474452551 1125,239.45255474452551L1125,256.6970802919708C570,256.6970802919708 570,378.03832116788357 15,378.03832116788357Z" style="stroke: rgb(68, 68, 68); stroke-opacity: 1; fill: rgb(0, 204, 150); fill-opacity: 0.6; stroke-width: 0; opacity: 1;"/><path class="sankey-link" d="M15,389.5346715328471C570,389.5346715328471 570,439.9817518248177 1125,439.9817518248177L1125,448.6040145985403C570,448.6040145985403 570,398.15693430656967 15,398.15693430656967Z" style="stroke: rgb(68, 68, 68); stroke-opacity: 1; fill: rgb(0, 204, 150); fill-opacity: 0.6; stroke-width: 0; opacity: 1;"/><path class="sankey-link" d="M15,140.14598540145988C570,140.14598540145988 570,90.02737226277385 1125,90.02737226277385L1125,98.64963503649649C570,98.64963503649649 570,148.76824817518252 15,148.76824817518252Z" style="stroke: rgb(68, 68, 68); stroke-opacity: 1; fill: rgb(255, 161, 90); fill-opacity: 0.6; stroke-width: 0; opacity: 1;"/><path class="sankey-link" d="M15,234.0328467153285C570,234.0328467153285 570,672.4270072992701 1125,672.4270072992701L1125,679.1332116788321C570,679.1332116788321 570,240.73905109489056 15,240.73905109489056Z" style="stroke: rgb(68, 68, 68); stroke-opacity: 1; fill: rgb(255, 161, 90); fill-opacity: 0.6; stroke-width: 0; opacity: 1;"/><path class="sankey-link" d="M15,148.76824817518252C570,148.76824817518252 570,156.43248175182492 1125,156.43248175182492L1125,166.97080291970815C570,166.97080291970815 570,159.30656934306575 15,159.30656934306575Z" style="stroke: rgb(68, 68, 68); stroke-opacity: 1; fill: rgb(255, 161, 90); fill-opacity: 0.6; stroke-width: 0; opacity: 1;"/><path class="sankey-link" d="M15,209.1240875912409C570,209.1240875912409 570,494.2609489051097 1125,494.2609489051097L1125,510.5474452554746C570,510.5474452554746 570,225.4105839416059 15,225.4105839416059Z" style="stroke: rgb(68, 68, 68); stroke-opacity: 1; fill: rgb(255, 161, 90); fill-opacity: 0.6; stroke-width: 0; opacity: 1;"/><path class="sankey-link" d="M15,129.60766423357666C570,129.60766423357666 570,21.706204379562017 1125,21.706204379562017L1125,22.66423357664231C570,22.66423357664231 570,130.56569343065695 15,130.56569343065695Z" style="stroke: rgb(255, 161, 90); stroke-opacity: 0.6; fill: rgb(255, 161, 90); fill-opacity: 0.6; stroke-width: 1; opacity: 1;"/><path class="sankey-link" d="M15,176.551094890511C570,176.551094890511 570,321.51459854014587 1125,321.51459854014587L1125,336.84306569343056C570,336.84306569343056 570,191.8795620437957 15,191.8795620437957Z" style="stroke: rgb(68, 68, 68); stroke-opacity: 1; fill: rgb(255, 161, 90); fill-opacity: 0.6; stroke-width: 0; opacity: 1;"/><path class="sankey-link" d="M15,240.73905109489056C570,240.73905109489056 570,702.7554744525547 1125,702.7554744525547L1125,706.5875912408759C570,706.5875912408759 570,244.57116788321173 15,244.57116788321173Z" style="stroke: rgb(68, 68, 68); stroke-opacity: 1; fill: rgb(255, 161, 90); fill-opacity: 0.6; stroke-width: 0; opacity: 1;"/><path class="sankey-link" d="M15,130.56569343065695C570,130.56569343065695 570,45.32846715328472 1125,45.32846715328472L1125,54.90875912408764C570,54.90875912408764 570,140.14598540145988 15,140.14598540145988Z" style="stroke: rgb(68, 68, 68); stroke-opacity: 1; fill: rgb(255, 161, 90); fill-opacity: 0.6; stroke-width: 0; opacity: 1;"/><path class="sankey-link" d="M15,225.41058394160586C570,225.41058394160586 570,571.5328467153284 1125,571.5328467153284L1125,578.2390510948904C570,578.2390510948904 570,232.11678832116792 15,232.11678832116792Z" style="stroke: rgb(68, 68, 68); stroke-opacity: 1; fill: rgb(255, 161, 90); fill-opacity: 0.6; stroke-width: 0; opacity: 1;"/><path class="sankey-link" d="M15,232.11678832116792C570,232.11678832116792 570,612.3996350364964 1125,612.3996350364964L1125,614.3156934306569C570,614.3156934306569 570,234.0328467153285 15,234.0328467153285Z" style="stroke: rgb(68, 68, 68); stroke-opacity: 1; fill: rgb(255, 161, 90); fill-opacity: 0.6; stroke-width: 0; opacity: 1;"/><path class="sankey-link" d="M15,159.30656934306575C570,159.30656934306575 570,208.7956204379562 1125,208.7956204379562L1125,226.04014598540147C570,226.04014598540147 570,176.55109489051102 15,176.55109489051102Z" style="stroke: rgb(68, 68, 68); stroke-opacity: 1; fill: rgb(255, 161, 90); fill-opacity: 0.6; stroke-width: 0; opacity: 1;"/><path class="sankey-link" d="M15,191.87956204379566C570,191.87956204379566 570,413.1569343065695 1125,413.1569343065695L1125,430.4014598540148C570,430.4014598540148 570,209.12408759124094 15,209.12408759124094Z" style="stroke: rgb(68, 68, 68); stroke-opacity: 1; fill: rgb(255, 161, 90); fill-opacity: 0.6; stroke-width: 0; opacity: 1;"/><path class="sankey-link" d="M15,583.0291970802921C570,583.0291970802921 570,114.93613138686146 1125,114.93613138686146L1125,118.76824817518263C570,118.76824817518263 570,586.8613138686133 15,586.8613138686133Z" style="stroke: rgb(68, 68, 68); stroke-opacity: 1; fill: rgb(255, 151, 255); fill-opacity: 0.6; stroke-width: 0; opacity: 1;"/><path class="sankey-link" d="M15,618.4762773722628C570,618.4762773722628 570,681.0492700729927 1125,681.0492700729927L1125,683.9233576642335C570,683.9233576642335 570,621.3503649635036 15,621.3503649635036Z" style="stroke: rgb(68, 68, 68); stroke-opacity: 1; fill: rgb(255, 151, 255); fill-opacity: 0.6; stroke-width: 0; opacity: 1;"/><path class="sankey-link" d="M15,586.8613138686133C570,586.8613138686133 570,180.38321167883225 1125,180.38321167883225L1125,181.34124087591255C570,181.34124087591255 570,587.8193430656936 15,587.8193430656936Z" style="stroke: rgb(255, 151, 255); stroke-opacity: 0.6; fill: rgb(255, 151, 255); fill-opacity: 0.6; stroke-width: 1; opacity: 1;"/><path class="sankey-link" d="M15,606.021897810219C570,606.021897810219 570,541.204379562044 1125,541.204379562044L1125,547.910583941606C570,547.910583941606 570,612.728102189781 15,612.728102189781Z" style="stroke: rgb(68, 68, 68); stroke-opacity: 1; fill: rgb(255, 151, 255); fill-opacity: 0.6; stroke-width: 0; opacity: 1;"/><path class="sankey-link" d="M15,596.4416058394161C570,596.4416058394161 570,380.91240875912405 1125,380.91240875912405L1125,386.6605839416058C570,386.6605839416058 570,602.1897810218977 15,602.1897810218977Z" style="stroke: rgb(68, 68, 68); stroke-opacity: 1; fill: rgb(255, 151, 255); fill-opacity: 0.6; stroke-width: 0; opacity: 1;"/><path class="sankey-link" d="M15,621.3503649635036C570,621.3503649635036 570,715.2098540145985 1125,715.2098540145985L1125,717.125912408759C570,717.125912408759 570,623.266423357664 15,623.266423357664Z" style="stroke: rgb(68, 68, 68); stroke-opacity: 1; fill: rgb(255, 151, 255); fill-opacity: 0.6; stroke-width: 0; opacity: 1;"/><path class="sankey-link" d="M15,580.1551094890513C570,580.1551094890513 570,61.614963503649676 1125,61.614963503649676L1125,64.48905109489056C570,64.48905109489056 570,583.0291970802921 15,583.0291970802921Z" style="stroke: rgb(68, 68, 68); stroke-opacity: 1; fill: rgb(255, 151, 255); fill-opacity: 0.6; stroke-width: 0; opacity: 1;"/><path class="sankey-link" d="M15,612.728102189781C570,612.728102189781 570,587.8193430656933 1125,587.8193430656933L1125,589.7354014598537C570,589.7354014598537 570,614.6441605839415 15,614.6441605839415Z" style="stroke: rgb(68, 68, 68); stroke-opacity: 1; fill: rgb(255, 151, 255); fill-opacity: 0.6; stroke-width: 0; opacity: 1;"/><path class="sankey-link" d="M15,614.6441605839416C570,614.6441605839416 570,647.8467153284671 1125,647.8467153284671L1125,651.6788321167883C570,651.6788321167883 570,618.4762773722628 15,618.4762773722628Z" style="stroke: rgb(68, 68, 68); stroke-opacity: 1; fill: rgb(255, 151, 255); fill-opacity: 0.6; stroke-width: 0; opacity: 1;"/><path class="sankey-link" d="M15,587.8193430656935C570,587.8193430656935 570,282.5638686131387 1125,282.5638686131387L1125,291.1861313868613C570,291.1861313868613 570,596.4416058394162 15,596.4416058394162Z" style="stroke: rgb(68, 68, 68); stroke-opacity: 1; fill: rgb(255, 151, 255); fill-opacity: 0.6; stroke-width: 0; opacity: 1;"/><path class="sankey-link" d="M15,602.1897810218978C570,602.1897810218978 570,461.05839416058416 1125,461.05839416058416L1125,464.89051094890533C570,464.89051094890533 570,606.021897810219 15,606.021897810219Z" style="stroke: rgb(68, 68, 68); stroke-opacity: 1; fill: rgb(255, 151, 255); fill-opacity: 0.6; stroke-width: 0; opacity: 1;"/><path class="sankey-link" d="M15,638.2664233576644C570,638.2664233576644 570,118.76824817518263 1125,118.76824817518263L1125,121.64233576642351C570,121.64233576642351 570,641.1405109489052 15,641.1405109489052Z" style="stroke: rgb(68, 68, 68); stroke-opacity: 1; fill: rgb(255, 102, 146); fill-opacity: 0.6; stroke-width: 0; opacity: 1;"/><path class="sankey-link" d="M15,641.1405109489052C570,641.1405109489052 570,181.34124087591255 1125,181.34124087591255L1125,182.29927007299284C570,182.29927007299284 570,642.0985401459856 15,642.0985401459856Z" style="stroke: rgb(255, 102, 146); stroke-opacity: 0.6; fill: rgb(255, 102, 146); fill-opacity: 0.6; stroke-width: 1; opacity: 1;"/><path class="sankey-link" d="M15,655.5109489051096C570,655.5109489051096 570,547.910583941606 1125,547.910583941606L1125,551.7427007299272C570,551.7427007299272 570,659.3430656934307 15,659.3430656934307Z" style="stroke: rgb(68, 68, 68); stroke-opacity: 1; fill: rgb(255, 102, 146); fill-opacity: 0.6; stroke-width: 0; opacity: 1;"/><path class="sankey-link" d="M15,645.9306569343066C570,645.9306569343066 570,386.6605839416058 1125,386.6605839416058L1125,390.492700729927C570,390.492700729927 570,649.7627737226278 15,649.7627737226278Z" style="stroke: rgb(68, 68, 68); stroke-opacity: 1; fill: rgb(255, 102, 146); fill-opacity: 0.6; stroke-width: 0; opacity: 1;"/><path class="sankey-link" d="M15,664.1332116788321C570,664.1332116788321 570,717.1259124087591 1125,717.1259124087591L1125,718.0839416058394C570,718.0839416058394 570,665.0912408759125 15,665.0912408759125Z" style="stroke: rgb(255, 102, 146); stroke-opacity: 0.6; fill: rgb(255, 102, 146); fill-opacity: 0.6; stroke-width: 1; opacity: 1;"/><path class="sankey-link" d="M15,659.3430656934307C570,659.3430656934307 570,589.7354014598538 1125,589.7354014598538L1125,590.6934306569342C570,590.6934306569342 570,660.3010948905111 15,660.3010948905111Z" style="stroke: rgb(255, 102, 146); stroke-opacity: 0.6; fill: rgb(255, 102, 146); fill-opacity: 0.6; stroke-width: 1; opacity: 1;"/><path class="sankey-link" d="M15,660.301094890511C570,660.301094890511 570,651.6788321167883 1125,651.6788321167883L1125,655.5109489051094C570,655.5109489051094 570,664.1332116788321 15,664.1332116788321Z" style="stroke: rgb(68, 68, 68); stroke-opacity: 1; fill: rgb(255, 102, 146); fill-opacity: 0.6; stroke-width: 0; opacity: 1;"/><path class="sankey-link" d="M15,642.0985401459855C570,642.0985401459855 570,291.18613138686135 1125,291.18613138686135L1125,295.0182481751825C570,295.0182481751825 570,645.9306569343066 15,645.9306569343066Z" style="stroke: rgb(68, 68, 68); stroke-opacity: 1; fill: rgb(255, 102, 146); fill-opacity: 0.6; stroke-width: 0; opacity: 1;"/><path class="sankey-link" d="M15,649.7627737226278C570,649.7627737226278 570,464.89051094890533 1125,464.89051094890533L1125,470.6386861313871C570,470.6386861313871 570,655.5109489051094 15,655.5109489051094Z" style="stroke: rgb(68, 68, 68); stroke-opacity: 1; fill: rgb(255, 102, 146); fill-opacity: 0.6; stroke-width: 0; opacity: 1;"/><path class="sankey-link" d="M15,718.0839416058394C570,718.0839416058394 570,554.616788321168 1125,554.616788321168L1125,555.5748175182483C570,555.5748175182483 570,719.0419708029198 15,719.0419708029198Z" style="stroke: rgb(182, 232, 128); stroke-opacity: 0.6; fill: rgb(182, 232, 128); fill-opacity: 0.6; stroke-width: 1; opacity: 1;"/><path class="sankey-link" d="M15,717.1259124087592C570,717.1259124087592 570,391.4507299270073 1125,391.4507299270073L1125,392.4087591240875C570,392.4087591240875 570,718.0839416058395 15,718.0839416058395Z" style="stroke: rgb(182, 232, 128); stroke-opacity: 0.6; fill: rgb(182, 232, 128); fill-opacity: 0.6; stroke-width: 1; opacity: 1;"/><path class="sankey-link" d="M15,719.0419708029196C570,719.0419708029196 570,655.5109489051094 1125,655.5109489051094L1125,656.4689781021898C570,656.4689781021898 570,720 15,720Z" style="stroke: rgb(182, 232, 128); stroke-opacity: 0.6; fill: rgb(182, 232, 128); fill-opacity: 0.6; stroke-width: 1; opacity: 1;"/></g><g class="sankey-node-set" style="cursor: move;"><g class="sankey-node" transform="translate(1125.000,80.447)" style="opacity: 1;"><rect class="node-rect" width="15" height="41.19525547445252" style="stroke-width: 0.5; stroke: rgb(0, 0, 0); stroke-opacity: 1; fill: rgb(128, 128, 128); fill-opacity: 1;"/><text class="node-label" data-notex="1" x="0" y="0" text-anchor="end" transform="translate(-3.25,24.79762773722626)" style="cursor: default; font-family: 'Open Sans', verdana, arial, sans-serif; font-size: 12px; fill: rgb(42, 63, 95); fill-opacity: 1; white-space: pre; text-shadow: white 1px 1px 1px, white -1px -1px 1px, white 1px -1px 1px, white -1px 1px 1px;">AggressiveChase</text></g><g class="sankey-node" transform="translate(1125.000,-0.000)" style="opacity: 1;"><rect class="node-rect" width="15" height="1.9160583941605722" style="stroke-width: 0.5; stroke: rgb(0, 0, 0); stroke-opacity: 1; fill: rgb(128, 128, 128); fill-opacity: 1;"/><text class="node-label" data-notex="1" x="0" y="0" text-anchor="end" transform="translate(-3.25,5.158029197080285)" style="cursor: default; font-family: 'Open Sans', verdana, arial, sans-serif; font-size: 12px; fill: rgb(42, 63, 95); fill-opacity: 1; white-space: pre; text-shadow: white 1px 1px 1px, white -1px -1px 1px, white 1px -1px 1px, white -1px 1px 1px;">Groupsniff</text></g><g class="sankey-node" transform="translate(1125.000,153.558)" style="opacity: 1;"><rect class="node-rect" width="15" height="30.656934306569212" style="stroke-width: 0.5; stroke: rgb(0, 0, 0); stroke-opacity: 1; fill: rgb(128, 128, 128); fill-opacity: 1;"/><text class="node-label" data-notex="1" x="0" y="0" text-anchor="end" transform="translate(-3.25,19.528467153284605)" style="cursor: default; font-family: 'Open Sans', verdana, arial, sans-serif; font-size: 12px; fill: rgb(42, 63, 95); fill-opacity: 1; white-space: pre; text-shadow: white 1px 1px 1px, white -1px -1px 1px, white 1px -1px 1px, white -1px 1px 1px;">SideAttack</text></g><g class="sankey-node" transform="translate(1125.000,490.429)" style="opacity: 1;"><rect class="node-rect" width="15" height="65.14598540145971" style="stroke-width: 0.5; stroke: rgb(0, 0, 0); stroke-opacity: 1; fill: rgb(128, 128, 128); fill-opacity: 1;"/><text class="node-label" data-notex="1" x="0" y="0" text-anchor="end" transform="translate(-3.25,36.77299270072986)" style="cursor: default; font-family: 'Open Sans', verdana, arial, sans-serif; font-size: 12px; fill: rgb(42, 63, 95); fill-opacity: 1; white-space: pre; text-shadow: white 1px 1px 1px, white -1px -1px 1px, white 1px -1px 1px, white -1px 1px 1px;">SideSniff1</text></g><g class="sankey-node" transform="translate(1125.000,16.916)" style="opacity: 1;"><rect class="node-rect" width="15" height="12.454379562043869" style="stroke-width: 0.5; stroke: rgb(0, 0, 0); stroke-opacity: 1; fill: rgb(128, 128, 128); fill-opacity: 1;"/><text class="node-label" data-notex="1" x="0" y="0" text-anchor="end" transform="translate(-3.25,10.427189781021934)" style="cursor: default; font-family: 'Open Sans', verdana, arial, sans-serif; font-size: 12px; fill: rgb(42, 63, 95); fill-opacity: 1; white-space: pre; text-shadow: white 1px 1px 1px, white -1px -1px 1px, white 1px -1px 1px, white -1px 1px 1px;">dig</text></g><g class="sankey-node" transform="translate(1125.000,315.766)" style="opacity: 1;"><rect class="node-rect" width="15" height="76.64233576642363" style="stroke-width: 0.5; stroke: rgb(0, 0, 0); stroke-opacity: 1; fill: rgb(128, 128, 128); fill-opacity: 1;"/><text class="node-label" data-notex="1" x="0" y="0" text-anchor="end" transform="translate(-3.25,42.52116788321182)" style="cursor: default; font-family: 'Open Sans', verdana, arial, sans-serif; font-size: 12px; fill: rgb(42, 63, 95); fill-opacity: 1; white-space: pre; text-shadow: white 1px 1px 1px, white -1px -1px 1px, white 1px -1px 1px, white -1px 1px 1px;">follow1</text></g><g class="sankey-node" transform="translate(1125.000,136.642)" style="opacity: 1;"><rect class="node-rect" width="15" height="1.9160583941605864" style="stroke-width: 0.5; stroke: rgb(0, 0, 0); stroke-opacity: 1; fill: rgb(128, 128, 128); fill-opacity: 1;"/><text class="node-label" data-notex="1" x="0" y="0" text-anchor="end" transform="translate(-3.25,5.1580291970802925)" style="cursor: default; font-family: 'Open Sans', verdana, arial, sans-serif; font-size: 12px; fill: rgb(42, 63, 95); fill-opacity: 1; white-space: pre; text-shadow: white 1px 1px 1px, white -1px -1px 1px, white 1px -1px 1px, white -1px 1px 1px;">groomfront</text></g><g class="sankey-node" transform="translate(1125.000,701.797)" style="opacity: 1;"><rect class="node-rect" width="15" height="18.202554744525514" style="stroke-width: 0.5; stroke: rgb(0, 0, 0); stroke-opacity: 1; fill: rgb(128, 128, 128); fill-opacity: 1;"/><text class="node-label" data-notex="1" x="0" y="0" text-anchor="end" transform="translate(-3.25,13.301277372262756)" style="cursor: default; font-family: 'Open Sans', verdana, arial, sans-serif; font-size: 12px; fill: rgb(42, 63, 95); fill-opacity: 1; white-space: pre; text-shadow: white 1px 1px 1px, white -1px -1px 1px, white 1px -1px 1px, white -1px 1px 1px;">nose2nose1</text></g><g class="sankey-node" transform="translate(1125.000,44.370)" style="opacity: 1;"><rect class="node-rect" width="15" height="21.076642335766508" style="stroke-width: 0.5; stroke: rgb(0, 0, 0); stroke-opacity: 1; fill: rgb(128, 128, 128); fill-opacity: 1;"/><text class="node-label" data-notex="1" x="0" y="0" text-anchor="end" transform="translate(-3.25,14.738321167883253)" style="cursor: default; font-family: 'Open Sans', verdana, arial, sans-serif; font-size: 12px; fill: rgb(42, 63, 95); fill-opacity: 1; white-space: pre; text-shadow: white 1px 1px 1px, white -1px -1px 1px, white 1px -1px 1px, white -1px 1px 1px;">nose2rear1</text></g><g class="sankey-node" transform="translate(1125.000,570.575)" style="opacity: 1;"><rect class="node-rect" width="15" height="20.118613138686214" style="stroke-width: 0.5; stroke: rgb(0, 0, 0); stroke-opacity: 1; fill: rgb(128, 128, 128); fill-opacity: 1;"/><text class="node-label" data-notex="1" x="0" y="0" text-anchor="end" transform="translate(-3.25,14.259306569343106)" style="cursor: default; font-family: 'Open Sans', verdana, arial, sans-serif; font-size: 12px; fill: rgb(42, 63, 95); fill-opacity: 1; white-space: pre; text-shadow: white 1px 1px 1px, white -1px -1px 1px, white 1px -1px 1px, white -1px 1px 1px;">nosey1</text></g><g class="sankey-node" transform="translate(1125.000,605.693)" style="opacity: 1;"><rect class="node-rect" width="15" height="50.775547445255484" style="stroke-width: 0.5; stroke: rgb(0, 0, 0); stroke-opacity: 1; fill: rgb(128, 128, 128); fill-opacity: 1;"/><text class="node-label" data-notex="1" x="0" y="0" text-anchor="end" transform="translate(-3.25,29.58777372262774)" style="cursor: default; font-family: 'Open Sans', verdana, arial, sans-serif; font-size: 12px; fill: rgb(42, 63, 95); fill-opacity: 1; white-space: pre; text-shadow: white 1px 1px 1px, white -1px -1px 1px, white 1px -1px 1px, white -1px 1px 1px;">sitcorner</text></g><g class="sankey-node" transform="translate(1125.000,199.215)" style="opacity: 1;"><rect class="node-rect" width="15" height="101.55109489051085" style="stroke-width: 0.5; stroke: rgb(0, 0, 0); stroke-opacity: 1; fill: rgb(128, 128, 128); fill-opacity: 1;"/><text class="node-label" data-notex="1" x="0" y="0" text-anchor="end" transform="translate(-3.25,54.97554744525543)" style="cursor: default; font-family: 'Open Sans', verdana, arial, sans-serif; font-size: 12px; fill: rgb(42, 63, 95); fill-opacity: 1; white-space: pre; text-shadow: white 1px 1px 1px, white -1px -1px 1px, white 1px -1px 1px, white -1px 1px 1px;">walk</text></g><g class="sankey-node" transform="translate(1125.000,407.409)" style="opacity: 1;"><rect class="node-rect" width="15" height="68.02007299270076" style="stroke-width: 0.5; stroke: rgb(0, 0, 0); stroke-opacity: 1; fill: rgb(128, 128, 128); fill-opacity: 1;"/><text class="node-label" data-notex="1" x="0" y="0" text-anchor="end" transform="translate(-3.25,38.210036496350384)" style="cursor: default; font-family: 'Open Sans', verdana, arial, sans-serif; font-size: 12px; fill: rgb(42, 63, 95); fill-opacity: 1; white-space: pre; text-shadow: white 1px 1px 1px, white -1px -1px 1px, white 1px -1px 1px, white -1px 1px 1px;">wallclimb</text></g><g class="sankey-node" transform="translate(1125.000,671.469)" style="opacity: 1;"><rect class="node-rect" width="15" height="15.328467153284578" style="stroke-width: 0.5; stroke: rgb(0, 0, 0); stroke-opacity: 1; fill: rgb(128, 128, 128); fill-opacity: 1;"/><text class="node-label" data-notex="1" x="0" y="0" text-anchor="end" transform="translate(-3.25,11.864233576642288)" style="cursor: default; font-family: 'Open Sans', verdana, arial, sans-serif; font-size: 12px; fill: rgb(42, 63, 95); fill-opacity: 1; white-space: pre; text-shadow: white 1px 1px 1px, white -1px -1px 1px, white 1px -1px 1px, white -1px 1px 1px;">BeingAttacked</text></g><g class="sankey-node" transform="translate(0.000,489.471)" style="opacity: 1;"><rect class="node-rect" width="15" height="75.68430656934311" style="stroke-width: 0.5; stroke: rgb(0, 0, 0); stroke-opacity: 1; fill: rgb(99, 110, 250); fill-opacity: 1;"/><text class="node-label" data-notex="1" x="0" y="0" text-anchor="start" transform="translate(18.25,42.042153284671556)" style="cursor: default; font-family: 'Open Sans', verdana, arial, sans-serif; font-size: 12px; fill: rgb(42, 63, 95); fill-opacity: 1; white-space: pre; text-shadow: white 1px 1px 1px, white -1px -1px 1px, white 1px -1px 1px, white -1px 1px 1px;">Cla</text></g><g class="sankey-node" transform="translate(0.000,259.571)" style="opacity: 1;"><rect class="node-rect" width="15" height="66.1040145985404" style="stroke-width: 0.5; stroke: rgb(0, 0, 0); stroke-opacity: 1; fill: rgb(239, 85, 59); fill-opacity: 1;"/><text class="node-label" data-notex="1" x="0" y="0" text-anchor="start" transform="translate(18.25,37.252007299270204)" style="cursor: default; font-family: 'Open Sans', verdana, arial, sans-serif; font-size: 12px; fill: rgb(42, 63, 95); fill-opacity: 1; white-space: pre; text-shadow: white 1px 1px 1px, white -1px -1px 1px, white 1px -1px 1px, white -1px 1px 1px;">LC</text></g><g class="sankey-node" transform="translate(0.000,340.675)" style="opacity: 1;"><rect class="node-rect" width="15" height="89.09671532846698" style="stroke-width: 0.5; stroke: rgb(0, 0, 0); stroke-opacity: 1; fill: rgb(0, 204, 150); fill-opacity: 1;"/><text class="node-label" data-notex="1" x="0" y="0" text-anchor="start" transform="translate(18.25,48.748357664233495)" style="cursor: default; font-family: 'Open Sans', verdana, arial, sans-serif; font-size: 12px; fill: rgb(42, 63, 95); fill-opacity: 1; white-space: pre; text-shadow: white 1px 1px 1px, white -1px -1px 1px, white 1px -1px 1px, white -1px 1px 1px;">Str</text></g><g class="sankey-node" transform="translate(0.000,60.000)" style="opacity: 1;"><rect class="node-rect" width="15" height="54.60766423357657" style="stroke-width: 0.5; stroke: rgb(0, 0, 0); stroke-opacity: 1; fill: rgb(171, 99, 250); fill-opacity: 1;"/><text class="node-label" data-notex="1" x="0" y="0" text-anchor="start" transform="translate(18.25,31.503832116788285)" style="cursor: default; font-family: 'Open Sans', verdana, arial, sans-serif; font-size: 12px; fill: rgb(42, 63, 95); fill-opacity: 1; white-space: pre; text-shadow: white 1px 1px 1px, white -1px -1px 1px, white 1px -1px 1px, white -1px 1px 1px;">NAc</text></g><g class="sankey-node" transform="translate(0.000,129.608)" style="opacity: 1;"><rect class="node-rect" width="15" height="114.96350364963507" style="stroke-width: 0.5; stroke: rgb(0, 0, 0); stroke-opacity: 1; fill: rgb(255, 161, 90); fill-opacity: 1;"/><text class="node-label" data-notex="1" x="0" y="0" text-anchor="start" transform="translate(18.25,61.68175182481754)" style="cursor: default; font-family: 'Open Sans', verdana, arial, sans-serif; font-size: 12px; fill: rgb(42, 63, 95); fill-opacity: 1; white-space: pre; text-shadow: white 1px 1px 1px, white -1px -1px 1px, white 1px -1px 1px, white -1px 1px 1px;">VTA</text></g><g class="sankey-node" transform="translate(0.000,444.772)" style="opacity: 1;"><rect class="node-rect" width="15" height="29.698905109489033" style="stroke-width: 0.5; stroke: rgb(0, 0, 0); stroke-opacity: 1; fill: rgb(25, 211, 243); fill-opacity: 1;"/><text class="node-label" data-notex="1" x="0" y="0" text-anchor="start" transform="translate(18.25,19.049452554744516)" style="cursor: default; font-family: 'Open Sans', verdana, arial, sans-serif; font-size: 12px; fill: rgb(42, 63, 95); fill-opacity: 1; white-space: pre; text-shadow: white 1px 1px 1px, white -1px -1px 1px, white 1px -1px 1px, white -1px 1px 1px;">BLA</text></g><g class="sankey-node" transform="translate(0.000,638.266)" style="opacity: 1;"><rect class="node-rect" width="15" height="26.82481751824821" style="stroke-width: 0.5; stroke: rgb(0, 0, 0); stroke-opacity: 1; fill: rgb(255, 102, 146); fill-opacity: 1;"/><text class="node-label" data-notex="1" x="0" y="0" text-anchor="start" transform="translate(18.25,17.612408759124104)" style="cursor: default; font-family: 'Open Sans', verdana, arial, sans-serif; font-size: 12px; fill: rgb(42, 63, 95); fill-opacity: 1; white-space: pre; text-shadow: white 1px 1px 1px, white -1px -1px 1px, white 1px -1px 1px, white -1px 1px 1px;">dPAG</text></g><g class="sankey-node" transform="translate(0.000,717.126)" style="opacity: 1;"><rect class="node-rect" width="15" height="2.874087591240823" style="stroke-width: 0.5; stroke: rgb(0, 0, 0); stroke-opacity: 1; fill: rgb(182, 232, 128); fill-opacity: 1;"/><text class="node-label" data-notex="1" x="0" y="0" text-anchor="start" transform="translate(18.25,5.637043795620411)" style="cursor: default; font-family: 'Open Sans', verdana, arial, sans-serif; font-size: 12px; fill: rgb(42, 63, 95); fill-opacity: 1; white-space: pre; text-shadow: white 1px 1px 1px, white -1px -1px 1px, white 1px -1px 1px, white -1px 1px 1px;">lHb</text></g><g class="sankey-node" transform="translate(0.000,580.155)" style="opacity: 1;"><rect class="node-rect" width="15" height="43.11131386861314" style="stroke-width: 0.5; stroke: rgb(0, 0, 0); stroke-opacity: 1; fill: rgb(255, 151, 255); fill-opacity: 1;"/><text class="node-label" data-notex="1" x="0" y="0" text-anchor="start" transform="translate(18.25,25.755656934306568)" style="cursor: default; font-family: 'Open Sans', verdana, arial, sans-serif; font-size: 12px; fill: rgb(42, 63, 95); fill-opacity: 1; white-space: pre; text-shadow: white 1px 1px 1px, white -1px -1px 1px, white 1px -1px 1px, white -1px 1px 1px;">cPFC</text></g><g class="sankey-node" transform="translate(0.000,680.091)" style="opacity: 1;"><rect class="node-rect" width="15" height="22.034671532846573" style="stroke-width: 0.5; stroke: rgb(0, 0, 0); stroke-opacity: 1; fill: rgb(254, 203, 82); fill-opacity: 1;"/><text class="node-label" data-notex="1" x="0" y="0" text-anchor="start" transform="translate(18.25,15.217335766423286)" style="cursor: default; font-family: 'Open Sans', verdana, arial, sans-serif; font-size: 12px; fill: rgb(42, 63, 95); fill-opacity: 1; white-space: pre; text-shadow: white 1px 1px 1px, white -1px -1px 1px, white 1px -1px 1px, white -1px 1px 1px;">LHyp</text></g></g></g><defs id="topdefs-7f0c21"><g class="clips"/></defs><g class="layer-above"><g class="imagelayer"/><g class="shapelayer"/></g><g class="infolayer"><g class="g-gtitle"/><g class="first-render"/></g></svg>